<?xml version="1.0" encoding="UTF-8" standalone="no"?>
<!-- Created with Inkscape (http://www.inkscape.org/) -->

<svg
   xmlns:dc="http://purl.org/dc/elements/1.1/"
   xmlns:cc="http://creativecommons.org/ns#"
   xmlns:rdf="http://www.w3.org/1999/02/22-rdf-syntax-ns#"
   xmlns:svg="http://www.w3.org/2000/svg"
   xmlns="http://www.w3.org/2000/svg"
   xmlns:xlink="http://www.w3.org/1999/xlink"
   xmlns:sodipodi="http://sodipodi.sourceforge.net/DTD/sodipodi-0.dtd"
   xmlns:inkscape="http://www.inkscape.org/namespaces/inkscape"
   id="svg3422"
   version="1.1"
   inkscape:version="0.91 r13725"
   width="183.75"
   height="46.25"
   viewBox="0 0 183.75 46.25"
   sodipodi:docname="Android.svg">
  <metadata
     id="metadata3428">
    <rdf:RDF>
      <cc:Work
         rdf:about="">
        <dc:format>image/svg+xml</dc:format>
        <dc:type
           rdf:resource="http://purl.org/dc/dcmitype/StillImage" />
        <dc:title></dc:title>
      </cc:Work>
    </rdf:RDF>
  </metadata>
  <defs
     id="defs3426" />
  <sodipodi:namedview
     pagecolor="#ffffff"
     bordercolor="#666666"
     borderopacity="1"
     objecttolerance="10"
     gridtolerance="10"
     guidetolerance="10"
     inkscape:pageopacity="0"
     inkscape:pageshadow="2"
     inkscape:window-width="640"
     inkscape:window-height="480"
     id="namedview3424"
     showgrid="false"
     inkscape:zoom="1.5673469"
     inkscape:cx="91.875"
     inkscape:cy="23.125"
     inkscape:window-x="0"
     inkscape:window-y="0"
     inkscape:window-maximized="0"
     inkscape:current-layer="svg3422" />
  <image
     width="183.75"
     height="46.25"
     preserveAspectRatio="none"
     style="image-rendering:optimizeQuality"
     xlink:href="file:///media/havoc/USB%20DISK/pics/_natives/Android.png"
     id="image3430"
     x="0"
     y="0"
     sodipodi:absref="/media/havoc/USB DISK/pics/_natives/Android.png" />
  <g
     id="g3479">
    <path
       style="fill:#fcfdfc"
       d="M 0,23.125 0,0 l 91.875,0 91.875,0 0,23.125 0,23.125 -91.875,0 L 0,46.25 0,23.125 Z"
       id="path3495"
       inkscape:connector-curvature="0" />
    <path
       style="fill:#e7f0d4"
       d="M 13.47294,42.360934 C 12.937823,41.596947 12.5,39.924794 12.5,38.645037 12.5,36.722194 12.201589,36.175793 10.78125,35.497949 9.5441194,34.90754 8.8873656,33.96037 8.4375,32.117796 7.8657813,29.776133 7.6944456,29.610712 6.4277019,30.177387 5.3870371,30.642926 4.6440947,30.535564 3.4380918,29.745361 1.8601482,28.711452 1.8362452,28.582207 2.01039,22.025679 2.1840626,15.486928 2.2207079,15.3389 3.8985319,14.398594 5.2963372,13.615219 5.8382529,13.582495 6.8588012,14.219838 8.6415088,15.333158 8.75,15.250067 8.75,12.771412 8.75,10.196724 9.5422906,8.4895044 11.638908,6.546425 12.827408,5.4449609 13.048279,4.7726426 12.735464,3.2085713 12.429723,1.6798646 12.558879,1.25 13.323935,1.25 c 0.539102,0 1.347696,0.4921875 1.796875,1.09375 1.125805,1.5077312 8.312366,1.5118091 10.4623,0.00594 1.892488,-1.3255504 2.719841,-0.8326974 2.243426,1.3364059 -0.296595,1.3503907 0.0049,2.0275957 1.492991,3.3534905 1.187204,1.0578038 2.00782,2.5217994 2.25875,4.0296571 0.631198,3.79291 0.856177,4.246305 1.692212,3.41027 1.17494,-1.174939 3.455413,-0.841182 4.506571,0.659556 0.710856,1.014889 0.97294,2.951006 0.97294,7.187499 0,4.965101 -0.179646,5.97808 -1.25,7.048434 -1.417829,1.417829 -2.073667,1.522146 -3.791088,0.60301 C 32.657727,29.415433 32.5,29.543111 32.5,30.956599 c 0,2.265593 -1.056137,4.000633 -2.850501,4.682849 -1.294988,0.492353 -1.524499,0.990777 -1.524499,3.310716 0,3.143166 -1.537753,5.02329 -3.839064,4.69381 -1.778698,-0.254658 -3.014523,-2.571879 -3.026722,-5.675224 -0.01446,-3.677303 -1.656335,-3.060205 -2.023458,0.760513 -0.164054,1.707345 -0.65615,3.53547 -1.093546,4.0625 -1.15655,1.393558 -3.545834,1.1731 -4.66927,-0.430829 z M 47.686593,30.041642 C 45.040741,28.406766 43.75,25.754964 43.75,21.953991 43.75,16.202576 47.866782,13.125 55.560283,13.125 c 6.116691,0 6.314717,0.281849 6.314717,8.987687 0,7.991314 -0.528949,9.36918 -3.468321,9.034681 L 56.5625,30.9375 56.383617,24.84375 56.204735,18.75 l -2.693,0 c -5.820344,0 -6.648328,6.263546 -0.981201,7.422598 1.958544,0.400565 2.156966,0.64002 2.156966,2.603024 0,2.077149 -0.09798,2.16855 -2.5,2.332131 -1.643443,0.111921 -3.185556,-0.253354 -4.500907,-1.066111 z m 15.461363,0.298521 C 61.870846,28.801336 62.589306,19.765611 64.155581,17.667754 66.410175,14.647971 68.619056,13.4375 71.875,13.4375 c 5.5081,0 8.748644,3.585884 9.222244,10.205043 C 81.548619,29.951099 81.103875,31.25 78.492463,31.25 75.919931,31.25 75.625,30.611864 75.625,25.04575 75.625,20.345604 74.641919,18.75 71.746062,18.75 69.268,18.75 68.467444,20.324962 68.125,25.873816 l -0.3125,5.063684 -1.928231,0.188166 c -1.176788,0.114836 -2.24315,-0.19128 -2.736313,-0.785503 z M 82.129612,29.679384 C 81.460106,27.011853 82.739587,26.25 87.889025,26.25 92.983919,26.25 95,25.125674 95,22.284368 95,19.703889 93.185444,18.75 88.276681,18.75 c -5.665406,0 -7.404056,-1.334221 -5.754694,-4.416088 0.551338,-1.030179 1.339738,-1.208912 5.332575,-1.208912 5.461869,0 8.122032,0.939361 10.431,3.683414 2.370238,2.816864 2.731248,5.56306 1.189507,9.048426 -1.912694,4.323963 -4.119694,5.387964 -11.181913,5.390824 -5.6415,0.0023 -5.778075,-0.03247 -6.163544,-1.56828 z m 32.381778,-0.460634 -0.52435,-2.03125 -4.64977,-0.158144 c -7.19769,-0.244802 -7.56984,-0.404162 -7.34249,-3.144168 L 102.1875,21.5625 108.125,21.25 c 4.72223,-0.248538 5.9375,-0.504386 5.9375,-1.25 0,-0.735943 -1.00779,-0.9715 -4.6875,-1.095644 -7.00893,-0.236463 -7.5,-0.427123 -7.5,-2.911895 0,-2.625407 0.58988,-2.867461 6.98791,-2.867461 8.37714,0 10.98573,2.105263 10.34161,8.346184 -0.19318,1.871715 -0.13132,4.378186 0.13747,5.569936 0.63424,2.812138 -0.18882,4.20888 -2.48018,4.20888 -1.53595,0 -1.90937,-0.32271 -2.35042,-2.03125 z m 10.6752,0.806552 c -3.56783,-2.175436 -5.10571,-6.765121 -3.56066,-10.626569 2.70419,-6.758443 10.46075,-8.194346 15.187,-2.811436 1.03148,1.174787 2.05581,3.09757 2.27629,4.27285 0.55972,2.983535 -1.51255,7.48056 -4.20295,9.120847 -2.69471,1.642911 -7.04529,1.662785 -9.69968,0.04431 z M 132.5,25 c 2.42442,-2.424425 0.85659,-6.25 -2.56142,-6.25 -1.86066,0 -3.68858,1.927282 -3.68858,3.889066 0,1.491811 2.20074,3.610934 3.75,3.610934 0.6875,0 1.8125,-0.5625 2.5,-1.25 z m 8.16652,5.077591 c -0.70682,-1.32071 -0.91037,-12.54137 -0.2708,-14.928178 0.45171,-1.685738 2.97591,-2.491485 4.3174,-1.378148 0.77512,0.643296 0.91537,2.271554 0.77314,8.976042 l -0.17376,8.190193 -1.98973,0.192752 c -1.47326,0.142721 -2.16273,-0.130508 -2.65625,-1.052661 z m 6.47438,0.338841 c -0.20061,-0.522788 -0.2722,-1.603791 -0.15908,-2.402228 0.19152,-1.351742 0.55436,-1.473222 5.26937,-1.764204 5.63585,-0.347811 7.12381,-1.137737 7.12381,-3.781885 0,-2.913495 -1.40277,-3.718115 -6.48214,-3.718115 -4.77435,0 -6.01786,-0.581168 -6.01786,-2.8125 0,-0.721875 0.3375,-1.65 0.75,-2.0625 1.10424,-1.104244 8.76064,-0.935681 11.74541,0.258587 6.14303,2.457954 7.41325,10.224028 2.45046,14.982072 -1.79685,1.722717 -2.23798,1.833524 -8.10773,2.03657 -5.11511,0.176941 -6.27168,0.04746 -6.57224,-0.735797 z"
       id="path3493"
       inkscape:connector-curvature="0" />
    <path
       style="fill:#cde1a5"
       d="M 14.159368,41.982037 C 13.542814,41.300754 13.125,39.779759 13.125,38.216567 c 0,-2.204824 -0.242804,-2.71482 -1.524499,-3.202119 C 10.762027,34.695661 9.7776519,33.877361 9.4130012,33.196006 8.7143363,31.890539 8.4784475,17.059889 9.1293681,15.363617 9.4549469,14.515172 11.032314,14.375 20.254368,14.375 c 6.937808,0 10.987625,0.241992 11.428533,0.682901 0.493867,0.493867 1.036111,0.493867 1.958911,0 1.711798,-0.916127 2.339311,-0.862492 3.501045,0.299242 0.751647,0.751647 0.982143,2.342385 0.982143,6.778133 0,5.040618 -0.166209,5.946407 -1.275331,6.950148 -1.220522,1.104558 -1.354822,1.107202 -3.125,0.06153 L 31.875,28.05433 l 0,2.490692 C 31.875,33.055123 30.65687,35 29.084725,35 28.006011,35 27.5,36.40626 27.5,39.404128 c 0,2.689431 -1.566048,4.101531 -3.772156,3.40134 C 22.458977,42.402745 22.019223,41.234226 21.731214,37.5 21.598974,35.785405 21.292269,35.3125 20.3125,35.3125 c -1.022335,0 -1.310716,0.527786 -1.583359,2.897825 -0.520335,4.523164 -2.449069,6.115065 -4.569773,3.771712 z M 47.949101,29.514619 c -2.492135,-1.544138 -4.379582,-5.729497 -3.852007,-8.541714 0.538724,-2.871646 2.444842,-5.272526 5.05027,-6.361142 C 51.703274,13.543835 59.4674,13.4674 60.5,14.5 c 0.873911,0.873911 1.046099,14.065163 0.200998,15.398432 -0.291423,0.459764 -1.201179,0.741014 -2.021679,0.625 -1.441493,-0.203816 -1.497853,-0.4165 -1.670702,-6.304682 l -0.178882,-6.09375 -3.057005,0 c -2.558112,0 -3.268403,0.26875 -4.352367,1.646787 -0.71245,0.905732 -1.295363,2.108777 -1.295363,2.673433 0,1.750646 1.838667,3.759792 3.934256,4.299036 1.547673,0.398251 2.048219,0.898139 2.201008,2.198112 0.184504,1.569813 0.03784,1.681517 -2.1875,1.666001 -1.311895,-0.0091 -3.167543,-0.501335 -4.123663,-1.09375 z m 15.438412,-0.428773 c -0.22335,-0.889886 -0.292288,-3.405109 -0.153207,-5.589383 0.198775,-3.121706 0.618813,-4.451172 1.963213,-6.213768 3.292087,-4.316149 9.700544,-4.500099 13.16905,-0.378009 1.880662,2.235037 2.402681,4.590712 2.140194,9.657814 -0.192025,3.706831 -0.21585,3.75 -2.069263,3.75 l -1.875,0 -0.186625,-4.67955 C 76.164694,20.337665 74.834681,18.125 71.862919,18.125 c -2.818507,0 -4.011132,2.024627 -4.362919,7.406587 -0.303694,4.646187 -0.360319,4.786427 -2.00945,4.976574 -1.380275,0.159146 -1.772731,-0.106279 -2.103038,-1.422315 z M 82.726019,29.6875 c -0.855125,-2.228413 0.203037,-2.8125 5.095275,-2.8125 4.194506,0 4.910787,-0.175264 6.269612,-1.534091 1.87415,-1.874145 1.939838,-3.40652 0.238732,-5.569122 C 93.141444,18.261244 92.656544,18.125 88.468662,18.125 c -5.020131,0 -6.832681,-0.985786 -5.554937,-3.021139 0.813637,-1.296057 7.549637,-1.763841 10.946462,-0.760182 4.809469,1.421052 7.228173,6.78877 5.142825,11.413238 -1.741325,3.861576 -3.887625,4.862962 -10.428875,4.865747 -4.303525,0.0018 -5.566031,-0.200054 -5.848118,-0.935164 z m 32.521771,-0.15625 c -0.86745,-2.8072 -1.19651,-2.964755 -6.56367,-3.142653 -5.73933,-0.190234 -7.35656,-1.072877 -6.13791,-3.349935 0.53097,-0.992123 1.39138,-1.163662 5.83675,-1.163662 3.87218,0 5.41422,-0.241263 5.99204,-0.9375 0.62074,-0.747948 0.62074,-1.127053 0,-1.875 -0.57763,-0.695999 -2.11885,-0.9375 -5.98297,-0.9375 -4.27752,0 -5.31237,-0.192005 -5.80798,-1.077611 -0.38256,-0.683608 -0.38588,-1.483415 -0.009,-2.1875 0.50424,-0.94219 1.48055,-1.109889 6.46155,-1.109889 5.34503,0 6.03272,0.138981 7.72229,1.560658 2.26615,1.906836 2.89753,4.130558 1.9704,6.939771 -0.51393,1.557222 -0.51679,2.683252 -0.0107,4.216682 0.37975,1.150661 0.5121,2.556911 0.2941,3.125 -0.53213,1.386713 -3.3315,1.34146 -3.76483,-0.06086 z m 10.20131,-0.01663 c -2.44559,-1.515303 -4.42137,-5.810345 -3.86972,-8.41221 1.52655,-7.200029 10.30631,-9.671497 14.91219,-4.197723 3.26776,3.883513 2.39742,10.010045 -1.78431,12.560171 -2.39169,1.458509 -6.94503,1.482982 -9.25816,0.04976 z m 7.39181,-4.17371 c 1.89543,-1.895429 1.9555,-3.874275 0.17515,-5.769378 -1.77379,-1.888098 -3.93517,-1.834246 -5.91683,0.14742 -1.84944,1.849437 -1.65334,4.243034 0.49666,6.062298 1.78219,1.508037 3.43544,1.36924 5.24502,-0.44034 z m 8.17643,4.329283 c -0.21578,-0.562334 -0.39234,-4.058736 -0.39234,-7.769781 0,-7.099221 0.51372,-8.504223 2.93872,-8.037212 1.0129,0.195067 1.12378,1.017216 1.12378,8.33286 l 0,8.116441 -1.63891,0.190059 c -1.06793,0.123845 -1.7756,-0.166143 -2.03125,-0.832367 z m 6.5974,-0.763942 c 0.19285,-1.676107 0.31638,-1.726503 4.97867,-2.03125 C 157.96984,26.523574 160,25.330571 160,22.522589 160,19.272606 158.72153,18.467036 153.02088,18.125 l -5.20838,-0.3125 0,-1.875 0,-1.875 4.64277,-0.185882 c 2.55352,-0.102235 5.40329,0.129138 6.33282,0.514162 6.28451,2.603126 7.41552,10.730235 2.07761,14.929035 -1.41627,1.114038 -2.52257,1.305185 -7.554,1.305185 l -5.89473,0 0.19777,-1.71875 z M 3.5343672,28.857037 C 2.722515,27.959951 2.5,26.418492 2.5,21.691527 2.5,16.376871 2.6420957,15.592933 3.7089116,15.02199 5.3513362,14.142991 5.9911511,14.205437 7.1428569,15.357143 8.6734331,16.887719 8.5474425,27.54896 6.9820369,28.965632 5.5172686,30.29123 4.8121956,30.269021 3.5343672,28.857037 Z M 9.7916669,13.333333 C 8.6570756,12.198743 9.5739688,9.7166513 12.125109,7.0165487 l 2.750108,-2.910689 5.0292,-0.040572 c 2.76606,-0.022314 5.231636,-0.2430079 5.479058,-0.4904298 0.771882,-0.7718821 1.641503,-0.4921844 1.293044,0.415884 -0.182718,0.4761582 0.469881,1.6341994 1.450221,2.5734248 2.076653,1.98956 3.421864,4.8811942 2.901551,6.2371082 C 30.72329,13.596095 29.005021,13.75 20.436282,13.75 14.81091,13.75 10.020833,13.5625 9.7916669,13.333333 Z M 13.4375,3.125 C 13.225051,2.78125 13.349078,2.5 13.713114,2.5 14.077151,2.5 14.375,2.78125 14.375,3.125 c 0,0.34375 -0.124026,0.625 -0.275614,0.625 -0.151588,0 -0.449437,-0.28125 -0.661886,-0.625 z"
       id="path3491"
       inkscape:connector-curvature="0" />
    <path
       style="fill:#b8d388"
       d="M 14.09794,41.110934 C 13.562823,40.346947 13.125,38.664806 13.125,37.372841 c 0,-1.986558 -0.241942,-2.40975 -1.567941,-2.742554 C 9.4868869,34.110707 9.2937419,33.056086 9.5071931,23.4375 l 0.1803069,-8.125 10.708119,-0.170695 10.708119,-0.170694 0.42635,2.843106 c 0.234493,1.563708 0.227099,5.817639 -0.01643,9.453178 -0.438945,6.552803 -0.458251,6.615465 -2.22822,7.232479 C 27.726073,35.043472 27.5,35.436294 27.5,37.602229 27.5,40.839638 26.561766,42.5 24.732378,42.5 22.990269,42.5 22.5,41.474003 22.5,37.828251 c 0,-2.966986 -1.080343,-3.922519 -3.170276,-2.80402 -0.872101,0.466734 -1.204724,1.314811 -1.204724,3.071641 0,1.334792 -0.170716,2.871771 -0.379368,3.415511 -0.548612,1.429659 -2.517208,1.213543 -3.647692,-0.400449 z M 48.918559,29.698383 c -4.256217,-1.850296 -5.808157,-7.636993 -3.11855,-11.628101 2.085967,-3.095365 3.77823,-3.725563 9.512491,-3.542449 l 5,0.159667 0,7.8125 c 0,7.395833 -0.06667,7.8125 -1.25,7.8125 -1.14328,0 -1.265571,-0.477462 -1.432388,-5.592454 -0.100312,-3.07585 -0.511126,-5.988561 -0.912919,-6.472692 -0.961432,-1.158455 -5.724589,-0.648766 -7.305246,0.78171 -1.62312,1.468903 -1.884806,2.969684 -0.918528,5.267785 0.592903,1.4101 1.369085,2.081902 2.716796,2.351444 2.223764,0.444753 3.449641,1.707894 2.941822,3.031248 -0.448716,1.169337 -2.569442,1.176972 -5.233478,0.01884 z m 15.24811,0.50995 C 63.9375,29.979167 63.75,27.630134 63.75,24.988261 c 0,-3.965089 0.2487,-5.172454 1.425012,-6.917979 1.788082,-2.653335 3.776232,-3.674309 7.177919,-3.686068 2.169888,-0.0075 3.099456,0.388295 5,2.128926 l 2.334569,2.138139 0,5.830611 c 0,5.413943 -0.08933,5.83061 -1.25,5.83061 -1.11325,0 -1.287694,-0.53151 -1.594531,-4.858419 -0.395681,-5.579759 -1.674875,-7.537414 -4.925182,-7.537414 -3.238262,0 -4.417787,1.677735 -4.417787,6.283789 0,2.203696 -0.291144,4.550731 -0.646988,5.215632 -0.646656,1.208288 -1.900518,1.578071 -2.686343,0.792245 z m 19.375,0 c -0.772581,-0.77258 -0.424238,-2.571693 0.57195,-2.953965 0.543737,-0.208652 2.793737,-0.379368 5,-0.379368 4.762756,0 6.511381,-1.232811 6.511381,-4.590632 0,-3.345292 -1.745725,-4.428347 -7.563694,-4.692555 C 83.333219,17.377099 83.125,17.304527 83.125,15.871322 c 0,-1.467771 0.107506,-1.496322 5.634181,-1.496322 5.506819,0 5.685231,0.04679 7.892956,2.070016 1.885344,1.727788 2.302888,2.58025 2.525613,5.15625 0.330075,3.817663 -1.31615,6.80029 -4.483863,8.123844 -2.165581,0.904839 -10.3749,1.260547 -11.152218,0.483223 z m 31.837501,-1.707669 c -1.04847,-2.509342 -1.82916,-2.798036 -8.19167,-3.029207 -3.90535,-0.141893 -4.375,-0.293143 -4.375,-1.408957 0,-1.126364 0.52545,-1.282279 5.3125,-1.576356 C 113.96412,22.127437 115,21.752842 115,20 c 0,-1.770811 -1.0655,-2.158264 -6.875,-2.5 -4.79167,-0.281863 -5.3125,-0.435049 -5.3125,-1.5625 0,-1.156093 0.47577,-1.26332 6.33297,-1.427306 l 6.33298,-0.177305 1.69091,2.009528 c 1.40446,1.669107 1.62262,2.387347 1.28779,4.239806 -0.39764,2.199989 -0.41926,3.254789 -0.15433,7.527146 0.19359,3.121914 -1.67806,3.372412 -2.92365,0.391295 z m 11.03097,1.096426 c -4.29919,-2.119419 -5.77179,-7.577175 -3.11013,-11.526808 1.78808,-2.653335 3.77623,-3.67431 7.17792,-3.686068 5.91331,-0.02044 9.66142,7.204694 6.41818,12.372146 -1.33825,2.132217 -4.52597,3.879416 -7.03229,3.854409 -0.78448,-0.0078 -2.33863,-0.463983 -3.45368,-1.013679 z m 6.68312,-3.820709 c 1.82452,-1.477412 1.90721,-4.803684 0.16278,-6.548114 -2.83396,-2.833962 -7.63104,-0.912815 -7.63104,3.056101 0,3.974712 4.35652,6.01174 7.46826,3.492013 z m 8.42805,4.029155 c -0.17295,-0.450705 -0.23444,-4.033276 -0.13663,-7.961268 0.15974,-6.415676 0.2973,-7.164702 1.35293,-7.367031 0.64631,-0.123876 1.41544,0.154007 1.70918,0.617517 0.75882,1.197392 0.68238,12.87107 -0.0938,14.321334 -0.73957,1.381898 -2.36507,1.605456 -2.8317,0.389448 z m 6.54756,-0.185669 c -1.38731,-1.671603 0.86303,-2.744867 5.75522,-2.744867 3.80391,0 4.33518,-0.158912 5.50555,-1.646787 1.63732,-2.081521 1.64667,-3.990418 0.0281,-5.727796 -1.4841,-1.592994 -2.72052,-1.934338 -7.7952,-2.152041 -3.27971,-0.1407 -3.75,-0.31764 -3.75,-1.410876 0,-1.135171 0.47739,-1.266736 5.19677,-1.432181 6.02237,-0.211124 8.75564,0.961142 10.16299,4.358764 1.82566,4.407546 0.33933,8.534241 -3.84169,10.666196 -2.87122,1.46407 -10.07343,1.521365 -11.2617,0.08959 z M 3.5343672,28.232037 C 2.7537736,27.369491 2.5,25.865412 2.5,22.101493 c 0,-5.632427 0.7711532,-7.34179 3.1600174,-7.004599 1.4876126,0.209978 1.532172,0.376334 1.707137,6.373366 C 7.54533,27.577325 7.0826919,29.375 5.3328392,29.375 c -0.4202576,0 -1.22957,-0.514333 -1.798472,-1.142963 z m 29.9477758,0.16082 C 32.737992,27.648706 32.5,26.077033 32.5,21.906885 c 0,-5.960458 0.580779,-7.176556 3.246849,-6.798613 1.3785,0.195417 1.448402,0.469877 1.620305,6.361988 0.179622,6.156631 -0.28181,7.90474 -2.086539,7.90474 -0.448981,0 -1.258294,-0.441964 -1.798472,-0.982143 z M 10,11.322726 c 0,-2.5161416 3.97274,-6.0392993 7.477681,-6.6314553 4.040042,-0.6825606 8.192653,0.1610516 10.234366,2.0791349 2.107555,1.9799363 3.739331,4.8981224 3.214109,5.7479494 C 30.708366,12.870746 26.244576,13.125 20.275614,13.125 L 10,13.125 10,11.322726 Z M 16.314874,8.5648744 C 15.512696,7.7626956 14.699216,8.382685 15.293102,9.3436131 c 0.230049,0.3722269 0.704593,0.49982 1.054542,0.2835394 0.426877,-0.2638244 0.416093,-0.6134156 -0.03277,-1.0622781 z m 9.375,0 C 24.887696,7.7626956 24.074216,8.382685 24.668102,9.3436131 c 0.230049,0.3722269 0.704593,0.49982 1.054542,0.2835394 0.426877,-0.2638244 0.416093,-0.6134156 -0.03277,-1.0622781 z"
       id="path3489"
       inkscape:connector-curvature="0" />
    <path
       style="fill:#a8cb60"
       d="M 14.760044,41.545759 C 14.130554,40.916268 13.75,39.480621 13.75,37.735345 13.75,35.180369 13.584265,34.8772 11.858674,34.275656 L 9.9673494,33.616336 10.139924,24.464418 10.3125,15.3125 19.915877,15.139583 c 6.550319,-0.117945 9.878493,0.05541 10.46875,0.545278 0.647353,0.537254 0.863223,2.549085 0.856839,7.985417 -0.01039,8.852176 -0.244761,9.827863 -2.55408,10.632896 -1.67505,0.583926 -1.812386,0.8694 -1.812386,3.767324 0,2.355246 -0.27218,3.275509 -1.09375,3.698058 -1.869465,0.961499 -2.65625,0.159675 -2.65625,-2.707022 0,-3.808984 -0.473738,-4.686534 -2.529983,-4.686534 -2.187176,0 -2.672661,0.73015 -3.083883,4.638032 -0.351995,3.345044 -1.178172,4.105645 -2.75109,2.532727 z M 47.559758,28.391874 C 44.754375,26.031301 43.994402,22.603171 45.514608,19.166494 47.088927,15.607485 49.6706,14.375 55.551298,14.375 c 5.306307,0 5.213814,-0.169544 4.943919,9.0625 -0.172762,5.909487 -0.258073,6.260716 -1.565847,6.446689 -1.336842,0.190108 -1.389132,-0.0086 -1.5625,-5.9375 L 57.1875,17.8125 53.910361,17.623731 c -2.804907,-0.161568 -3.502887,0.03698 -4.84375,1.37784 C 48.190998,19.877184 47.5,21.291102 47.5,22.207168 47.5,24.187662 50.598992,27.5 52.451923,27.5 c 0.88141,0 1.298077,0.401234 1.298077,1.25 0,1.913169 -3.748703,1.696294 -6.190242,-0.358126 z m 16.401836,0.633042 c -0.205794,-0.536297 -0.237081,-2.891152 -0.06952,-5.23301 0.342612,-4.788513 1.524425,-6.943013 4.639881,-8.458733 2.51875,-1.225413 4.186881,-1.209557 6.873513,0.06533 3.210525,1.523494 4.695525,4.881749 4.466156,10.09999 -0.167144,3.802623 -0.313831,4.207424 -1.590375,4.388722 -1.352706,0.192115 -1.40625,0.0185 -1.40625,-4.559659 0,-4.219834 -0.173913,-4.933289 -1.534094,-6.293469 -1.860044,-1.860045 -4.623237,-2.003089 -6.6705,-0.345315 -1.278144,1.034975 -1.497812,1.843582 -1.697919,6.25 C 66.768144,29.438479 66.609125,30 65.539206,30 64.877319,30 64.167388,29.561212 63.961594,29.024916 Z M 83.4375,29.375 c -0.823781,-1.332905 0.556019,-1.875 4.772463,-1.875 4.014562,0 4.540981,-0.15479 6.213112,-1.826923 2.120744,-2.120745 2.335238,-4.280871 0.634019,-6.385087 C 94.023,18.008934 93.170125,17.770896 88.650844,17.5 83.958331,17.21872 83.4375,17.06262 83.4375,15.9375 c 0,-1.123622 0.473919,-1.267364 4.6875,-1.421749 5.650244,-0.207024 8.393175,0.993131 10.19205,4.459488 1.603356,3.089595 0.995806,6.211904 -1.741344,8.949054 C 94.5488,29.951197 94.374494,30 89.161888,30 86.225925,30 83.64995,29.71875 83.4375,29.375 Z m 32.23714,-0.806936 c -0.90572,-2.382208 -2.07857,-2.877826 -7.26675,-3.070744 -4.61324,-0.171539 -4.98474,-0.285868 -5.17011,-1.59107 -0.19307,-1.359461 -0.0305,-1.40625 4.88484,-1.40625 5.46845,0 7.50238,-0.649835 7.50238,-2.39699 0,-2.09894 -1.34259,-2.60301 -6.93313,-2.60301 -4.03939,0 -5.51793,-0.220958 -5.76366,-0.861341 -0.18179,-0.473737 -0.015,-1.176862 0.37063,-1.5625 0.87137,-0.871372 9.76591,-0.930753 12.0032,-0.08014 2.2822,0.867688 3.64062,4.264783 2.7393,6.850317 -0.48305,1.385672 -0.48958,2.706617 -0.0224,4.546895 0.36211,1.426603 0.51752,2.821736 0.34537,3.100295 -0.62094,1.0047 -2.15666,0.476272 -2.68961,-0.925467 z m 9.41504,-0.151018 c -3.83837,-3.229765 -3.89947,-8.204533 -0.14497,-11.801574 3.61774,-3.466018 9.59238,-2.387514 12.03825,2.173068 1.3837,2.580051 1.443,4.441544 0.21703,6.812312 -2.3674,4.578037 -8.36027,5.97165 -12.11031,2.816194 z m 8.08339,-2.743969 c 2.25452,-2.254515 2.35687,-4.574954 0.29284,-6.638986 -1.4988,-1.498804 -3.59365,-1.925509 -5.62541,-1.145853 C 126.70116,18.325446 125,21.284756 125,22.829539 125,24.302774 128.42282,27.5 130,27.5 c 0.74039,0 2.16827,-0.822116 3.17307,-1.826923 z m 8.4936,3.910256 c -0.62206,-0.622057 -0.48464,-13.508263 0.15482,-14.518156 0.3038,-0.479778 1.00262,-0.699543 1.55293,-0.488366 0.84072,0.322615 1.00058,1.58534 1.00058,7.903573 0,6.875082 -0.0982,7.519616 -1.14583,7.519616 -0.63021,0 -1.33334,-0.1875 -1.5625,-0.416667 z m 6.45833,-0.767155 c 0,-1.045382 0.59188,-1.2107 5.06122,-1.413664 4.40642,-0.200106 5.21503,-0.419778 6.25,-1.697918 1.59875,-1.974364 1.53916,-5.193101 -0.12406,-6.701479 -0.9637,-0.873981 -2.58429,-1.273724 -6.09375,-1.503117 -4.26008,-0.278456 -4.78091,-0.448675 -4.78091,-1.5625 0,-1.106841 0.47792,-1.271046 4.17297,-1.433762 2.66349,-0.117291 4.97587,0.151706 6.39257,0.74364 4.10327,1.714453 5.90662,6.947172 3.79888,11.02308 C 161.36167,29.055598 158.91912,30 153.15604,30 148.63541,30 148.125,29.879898 148.125,28.816178 Z M 3.504368,27.761383 C 3.2957156,27.217643 3.125,24.415039 3.125,21.533372 3.125,17.174441 3.3088006,16.199447 4.21875,15.731444 6.5048412,14.555667 6.875,15.462601 6.875,22.239583 6.875,28.689741 6.8611569,28.75 5.379368,28.75 c -0.8225976,0 -1.6663476,-0.444878 -1.875,-0.988617 z m 30,0 C 33.295716,27.217643 33.125,24.415039 33.125,21.533372 c 0,-4.358931 0.183801,-5.333925 1.09375,-5.801928 2.286091,-1.175777 2.65625,-0.268843 2.65625,6.508139 0,6.450158 -0.01384,6.510417 -1.495632,6.510417 -0.822597,0 -1.666347,-0.444878 -1.875,-0.988617 z M 10.339329,11.09375 c 1.310084,-4.3495388 7.519432,-7.3465797 12.77454,-6.1658353 2.908238,0.6534376 6.442797,3.6896347 7.177897,6.1658353 L 30.709234,12.5 20.3125,12.5 9.9157656,12.5 10.339329,11.09375 Z M 16.875,8.7041725 c 0,-1.6016519 -2.068643,-1.4199556 -2.382401,0.209255 C 14.348162,9.6634275 14.684736,10 15.579173,10 16.473609,10 16.875,9.5986094 16.875,8.7041725 Z m 9.375,0 c 0,-0.8944369 -0.336573,-1.23101 -1.086573,-1.0865731 C 23.534217,7.9313569 23.352521,10 24.954172,10 25.848609,10 26.25,9.5986094 26.25,8.7041725 Z"
       id="path3487"
       inkscape:connector-curvature="0" />
    <path
       style="fill:#8fbb46"
       d="m 15.125,41.125 c -0.4125,-0.4125 -0.75,-1.903125 -0.75,-3.3125 0,-2.762603 -0.839934,-4.0625 -2.625,-4.0625 -1.031699,0 -1.125,-0.752903 -1.125,-9.078371 l 0,-9.07837 9.84375,0.17212 9.84375,0.172121 0.181001,7.5 C 30.70085,32.029314 30.428809,33.75 28.863092,33.75 27.022391,33.75 26.25,35.085931 26.25,38.269616 c 0,2.145054 -0.279332,3.126805 -0.964455,3.389711 -1.437488,0.551616 -1.80891,-0.146041 -2.157042,-4.051657 L 22.8125,34.0625 l -2.5,0 c -2.324436,0 -2.51159,0.131672 -2.665037,1.875 -0.500556,5.68688 -0.99868,6.711283 -2.522463,5.1875 z M 49.6875,29.415509 C 45.87772,27.803787 43.978025,22.539207 45.879429,18.862296 47.364992,15.989535 49.77891,15 55.301297,15 l 4.738372,0 -0.176085,7.292753 c -0.124314,5.148646 -0.405775,7.368997 -0.957334,7.552083 -0.586391,0.194648 -0.78125,-1.145515 -0.78125,-5.37311 0,-6.889432 -0.656479,-7.896637 -4.839586,-7.42514 C 49.623539,17.459332 47.5,19.465444 47.5,22.512079 c 0,2.577273 1.337652,4.160165 4.151594,4.91273 0.982248,0.262693 1.785906,0.879264 1.785906,1.370158 0,1.047844 -1.969547,1.373761 -3.75,0.620542 z m 15.104169,0.167824 C 64.5625,29.354167 64.375,27.230825 64.375,24.864796 c 0,-4.994541 1.063956,-7.53829 3.729544,-8.916717 3.745275,-1.936757 8.552319,-0.641453 10.322375,2.781463 C 79.752856,21.293624 79.761031,30 78.4375,30 77.706644,30 77.5,29.159801 77.5,26.188206 c 0,-4.741521 -1.333856,-7.752281 -3.818175,-8.618319 -2.116031,-0.737651 -3.414831,-0.405243 -5.400575,1.382192 -1.173037,1.055888 -1.40625,1.913002 -1.40625,5.16825 0,5.060955 -0.686144,6.860193 -2.083331,5.463004 z M 83.866363,28.90625 C 84.036344,28.012472 84.947387,27.755365 88.84935,27.5 94.512556,27.129369 96.25,25.996501 96.25,22.674544 96.25,18.371956 93.967412,16.875 87.406737,16.875 84.572969,16.875 83.75,16.66401 83.75,15.9375 c 0,-1.323531 8.706375,-1.315359 11.270456,0.01058 3.484888,1.802103 4.767863,6.788825 2.663257,10.35164 C 96.136969,28.918141 93.346937,30 88.140969,30 84.209225,30 83.683906,29.865586 83.866363,28.90625 Z M 116.25,29.086174 c 0,-0.559896 -0.69034,-1.708333 -1.53409,-2.552083 C 113.34136,25.159541 112.65888,25 108.15341,25 c -4.05303,0 -5.02841,-0.18185 -5.02841,-0.9375 0,-0.749271 0.93298,-0.9375 4.64681,-0.9375 6.19094,0 7.85319,-0.661456 7.85319,-3.125 0,-2.463544 -1.66225,-3.125 -7.85319,-3.125 -3.71383,0 -4.64681,-0.188229 -4.64681,-0.9375 0,-0.767857 1.07954,-0.9375 5.96591,-0.9375 5.56593,0 6.07306,0.107156 7.5642,1.598291 1.35042,1.35042 1.53458,1.956223 1.18746,3.90625 -0.44466,2.498056 -0.50111,4.411021 -0.21383,7.246948 0.10507,1.037127 -0.15082,1.929339 -0.59749,2.083334 C 116.60156,29.982962 116.25,29.64607 116.25,29.086174 Z m 10.88653,0.308293 c -3.91692,-1.58456 -5.70721,-6.761072 -3.68845,-10.664925 2.5284,-4.889391 10.57544,-4.889391 13.10384,0 3.25948,6.303137 -2.91342,13.29525 -9.41539,10.664925 z m 5.88885,-2.895038 c 3.32811,-2.3311 2.83489,-7.192628 -0.88752,-8.74795 -5.24646,-2.192109 -9.61158,4.20662 -5.60377,8.21443 1.78107,1.781072 4.40255,1.996531 6.49129,0.53352 z m 9.26629,3.083904 c -0.22917,-0.229166 -0.41667,-3.624789 -0.41667,-7.545827 0,-6.452714 0.10378,-7.10931 1.09375,-6.919942 0.93415,0.17869 1.12049,1.074589 1.27698,6.139578 0.23305,7.542629 -0.33161,9.948643 -1.95406,8.326191 z m 6.14142,-0.215468 c -0.76495,-1.237705 0.99417,-1.848117 5.35531,-1.858294 4.48136,-0.01046 6.46532,-1.125171 7.19797,-4.044262 0.97331,-3.877993 -1.76348,-6.133217 -7.99756,-6.590309 -5.98538,-0.438857 -5.65659,-1.523271 0.52841,-1.74279 4.69388,-0.166596 5.22658,-0.05673 7.01297,1.446422 3.74246,3.149074 3.69124,8.97989 -0.10363,11.796455 -2.10808,1.564625 -11.17614,2.315247 -11.99347,0.992778 z M 4.1882727,27.729939 C 3.9472227,27.488889 3.75,24.798465 3.75,21.751218 c 0,-4.503522 0.187264,-5.612309 1.000578,-5.924407 1.6398451,-0.629267 2.1398601,1.061504 1.9713945,6.666156 -0.1265106,4.208866 -0.3595463,5.343682 -1.1274498,5.490356 -0.5323876,0.101689 -1.1652001,-0.01233 -1.40625,-0.253384 z M 33.75,22.211354 c 0,-4.925424 0.179279,-6.069381 1.000578,-6.384543 1.640226,-0.629413 2.139839,1.061784 1.971394,6.673189 -0.149406,4.977186 -0.248231,5.325106 -1.565722,5.512219 C 33.781696,28.207437 33.75,28.076692 33.75,22.211354 Z M 10.625,11.259861 c 0,-0.338327 0.787063,-1.4960166 1.749029,-2.5726435 l 1.749029,-1.9575031 -0.03028,1.7913925 C 14.067387,10.023334 14.314718,10.3125 15.625,10.3125 c 2.153331,0 2.584297,-2.5903937 0.555809,-3.3407806 -1.341161,-0.4961282 -1.309543,-0.5545613 0.674288,-1.2461281 2.613679,-0.9111335 3.941964,-0.9114721 6.978248,-0.00178 2.317082,0.6942147 2.358383,0.7524729 1.010012,1.4247079 -1.887588,0.941065 -1.858133,3.0999021 0.04598,3.3696721 1.043628,0.14786 1.547376,-0.159665 1.791645,-1.0937496 0.531061,-2.0307817 1.913664,-1.3816466 2.889885,1.3568096 0.360525,1.011333 -0.338601,1.09375 -9.277979,1.09375 -5.925275,0 -9.667884,-0.238131 -9.667884,-0.615139 z"
       id="path3485"
       inkscape:connector-curvature="0" />
    <path
       style="fill:#96c230"
       d="m 50.000321,29.305302 c -4.035362,-1.628389 -5.759524,-5.423626 -4.372802,-9.625436 1.137347,-3.446194 3.645169,-4.674694 9.548565,-4.67753 L 60.039669,15 59.863584,22.34375 c -0.207389,8.649339 -1.334525,9.769716 -1.608472,1.598827 -0.100312,-2.991991 -0.486313,-5.806193 -0.857777,-6.253781 -0.907179,-1.093084 -5.161361,-1.032563 -7.360612,0.104713 -4.544367,2.349984 -3.243956,8.701178 2.038926,9.958099 0.981905,0.233618 1.651295,0.755449 1.510709,1.177693 -0.335469,1.007573 -1.673306,1.147846 -3.586037,0.376001 z m 14.791348,0.278031 c -0.229169,-0.229166 -0.414813,-2.408854 -0.41255,-4.84375 0.0044,-4.802357 1.120775,-7.371521 3.864481,-8.894045 3.394956,-1.883916 8.472844,-0.423688 10.210275,2.936129 1.092019,2.111732 1.078813,10.905833 -0.01637,10.905833 -0.34375,0 -0.782906,-1.96875 -0.975906,-4.375 C 77.0442,20.108626 76.313062,18.561656 73.773887,17.509894 72.239963,16.874521 71.499856,16.878741 69.923119,17.531844 67.422713,18.567548 66.25,21.34457 66.25,26.229926 c 0,3.483475 -0.402569,4.409172 -1.458331,3.353407 z m 19.427081,0.06485 c -1.039144,-1.067449 -0.264687,-1.371898 4.222319,-1.659857 4.953025,-0.317865 6.788125,-1.26591 7.8563,-4.058694 0.771856,-2.018054 -0.510888,-5.06403 -2.584094,-6.136126 C 92.681162,17.259782 90.222212,16.875 87.843537,16.875 84.621506,16.875 83.75,16.675409 83.75,15.9375 83.75,15.186952 84.69095,15 88.468537,15 c 5.433176,0 7.918275,0.993026 9.333382,3.729542 1.60695,3.107495 1.224475,5.987215 -1.137519,8.564595 -2.000113,2.182503 -2.2883,2.287252 -7.03125,2.555674 -2.720106,0.153941 -5.156588,0.06321 -5.4144,-0.201625 z m 31.77638,-1.41174 C 114.62301,25.583058 114.09103,25.353752 108.48674,25 c -7.14088,-0.450745 -6.96277,-1.689092 0.28305,-1.967908 4.77263,-0.183649 5.85187,-0.418173 6.59347,-1.432798 1.16465,-1.593428 1.12343,-1.9876 -0.36326,-3.474294 -1.05582,-1.055825 -2.08333,-1.25 -6.61458,-1.25 -4.01308,0 -5.29936,-0.196822 -5.10569,-0.78125 0.17598,-0.531076 2.09555,-0.838816 5.99447,-0.961018 5.3984,-0.169201 5.82715,-0.0882 7.29319,1.377841 1.66587,1.665871 1.99527,4.003837 0.86234,6.120721 -0.52014,0.971903 -0.49339,1.91081 0.10623,3.72768 1.07848,3.267803 -0.0873,4.68828 -1.54083,1.877472 z m 11.04843,0.857889 c -4.04747,-1.801549 -5.68753,-7.033966 -3.3271,-10.614694 4.2511,-6.448819 13.78354,-3.467408 13.78354,4.311 0,4.763749 -5.9107,8.32703 -10.45644,6.303694 z m 6.52566,-3.000585 c 1.89033,-2.065306 2.25269,-3.900041 1.17995,-5.974479 -1.30651,-2.52653 -4.15186,-3.643335 -6.64806,-2.609377 C 125.84257,18.445411 125,19.821571 125,22.574879 c 0,4.409773 5.63564,6.723995 8.56922,3.518871 z m 8.72245,3.489583 c -0.22917,-0.229166 -0.41667,-3.604166 -0.41667,-7.5 0,-5.879629 0.15931,-7.083333 0.9375,-7.083333 0.78125,0 0.9375,1.25 0.9375,7.5 0,6.860766 -0.28698,8.254684 -1.45833,7.083333 z m 6.26699,0.01699 c -0.87779,-0.877791 0.41438,-1.475503 3.19698,-1.478811 6.19002,-0.0074 9.49436,-2.000095 9.49436,-5.72573 0,-0.935595 -0.66461,-2.473741 -1.47692,-3.418103 -1.30374,-1.515688 -2.03809,-1.757954 -6.26272,-2.066102 -6.47467,-0.472268 -6.40189,-1.552471 0.12002,-1.781199 5.18095,-0.1817 5.19783,-0.177176 7.34375,1.96875 1.76006,1.760059 2.15087,2.622109 2.15087,4.744405 0,3.503483 -1.5114,6.193324 -4.08394,7.268199 -2.126,0.8883 -9.72834,1.242648 -10.4824,0.488589 z"
       id="path3483"
       inkscape:connector-curvature="0" />
    <path
       style="fill:#87b90f"
       d="m 47.671974,27.171974 c -2.075036,-2.075037 -2.185002,-2.390621 -1.892766,-5.431975 0.399381,-4.156439 2.217933,-5.852902 6.901387,-6.43806 6.535794,-0.816594 6.356271,-1.009343 6.558624,7.041811 0.109903,4.372776 -0.05877,7.03125 -0.446117,7.03125 -0.358965,0 -0.698623,-2.581694 -0.80172,-6.09375 L 57.8125,17.1875 54.01839,17.004337 c -3.406794,-0.164465 -3.965064,-0.01221 -5.46875,1.491477 -2.338755,2.338755 -2.279584,5.370396 0.152283,7.802263 1.004808,1.004807 2.411058,1.826923 3.125,1.826923 0.713943,0 1.298077,0.28125 1.298077,0.625 0,1.494171 -3.35038,0.52462 -5.453026,-1.578026 z M 65,24.441097 c 0,-4.58207 0.1293,-5.072321 1.813256,-6.875 C 68.389969,15.87822 69.0485,15.625 71.861331,15.625 c 2.719725,0 3.517206,0.282386 5.008213,1.77339 1.876162,1.876162 2.782287,5.461486 2.399225,9.493172 -0.364732,3.838712 -1.450432,2.314036 -1.638707,-2.301274 -0.15695,-3.84726 -0.409037,-4.698807 -1.803981,-6.09375 -1.159569,-1.15957 -2.264975,-1.615875 -3.880056,-1.601661 C 67.821587,16.931176 66.25,19.242342 66.25,25.271412 66.25,27.590471 65.978206,29.375 65.625,29.375 65.261112,29.375 65,27.313699 65,24.441097 Z M 84.375,28.75 c 0,-0.35779 1.891025,-0.625 4.423075,-0.625 4.055331,0 4.574975,-0.151895 6.25,-1.826923 2.408994,-2.408993 2.489594,-5.464953 0.204406,-7.75014 -1.408912,-1.408912 -2.232331,-1.646407 -6.254575,-1.803977 -2.547637,-0.0998 -4.700312,-0.46271 -4.783737,-0.80646 -0.20805,-0.857338 2.877281,-1.132574 6.967406,-0.621547 4.715431,0.589155 6.943425,2.798714 6.943425,6.88597 0,2.49095 -0.314144,3.237222 -2.125,5.048077 -2.043863,2.043859 -2.306375,2.125 -6.875,2.125 -2.75,0 -4.75,-0.263158 -4.75,-0.625 z m 32.03848,-0.650686 c -1.06139,-2.560804 -2.13104,-3.031688 -7.33044,-3.226994 -3.24183,-0.121774 -5.0084,-0.45132 -5.17871,-0.96607 -0.19325,-0.584057 1.0843,-0.78125 5.06144,-0.78125 5.78364,0 7.28423,-0.701572 7.28423,-3.405615 0,-2.248824 -1.22416,-2.775866 -6.90615,-2.973338 -6.84733,-0.237971 -6.46704,-1.438491 0.44969,-1.419604 4.10982,0.01123 5.35972,0.243518 6.40625,1.190616 1.44518,1.307872 1.80118,5.231972 0.58498,6.448169 -0.53697,0.536971 -0.52318,1.178883 0.0554,2.575564 0.42382,1.023185 0.64932,2.37477 0.5011,3.003522 -0.22873,0.970351 -0.369,0.903073 -0.92773,-0.445 z M 125.25,27.25 c -2.41057,-2.41057 -2.81797,-5.347012 -1.18103,-8.51251 1.21962,-2.358488 2.70175,-3.11249 6.11815,-3.11249 5.3086,0 8.29248,4.401447 6.32219,9.325696 -1.94622,4.864072 -7.55015,6.008469 -11.25931,2.299304 z m 8.54807,-0.951923 c 3.72133,-3.721324 1.52139,-9.446226 -3.61341,-9.4032 -3.5455,0.02971 -5.80966,2.338667 -5.80966,5.924612 0,2.361985 3.12078,5.305511 5.625,5.305511 1.34531,0 2.55121,-0.58005 3.79807,-1.826923 z M 142.5,22.5 c 0,-4.166667 0.24621,-6.875 0.625,-6.875 0.37879,0 0.625,2.708333 0.625,6.875 0,4.166667 -0.24621,6.875 -0.625,6.875 -0.37879,0 -0.625,-2.708333 -0.625,-6.875 z m 6.25,6.25 c 0,-0.35305 1.78118,-0.625 4.09354,-0.625 2.35723,0 4.83832,-0.385146 5.84947,-0.908026 2.09847,-1.085165 3.4089,-3.907805 2.8493,-6.137388 -0.72772,-2.899465 -2.4946,-3.864412 -7.6989,-4.204586 -2.70046,-0.176513 -4.72369,-0.584473 -4.64942,-0.9375 0.38443,-1.827249 8.83265,-0.840467 11.41621,1.333454 3.49559,2.941352 3.04876,8.534208 -0.87289,10.925628 -1.41456,0.862594 -3.12601,1.174365 -6.45606,1.176082 C 150.67552,29.374007 148.75,29.10941 148.75,28.75 Z"
       id="path3481"
       inkscape:connector-curvature="0" />
  </g>
</svg>
