<?xml version="1.0" encoding="UTF-8" standalone="no"?>
<!-- Created with Inkscape (http://www.inkscape.org/) -->

<svg
   xmlns:dc="http://purl.org/dc/elements/1.1/"
   xmlns:cc="http://creativecommons.org/ns#"
   xmlns:rdf="http://www.w3.org/1999/02/22-rdf-syntax-ns#"
   xmlns:svg="http://www.w3.org/2000/svg"
   xmlns="http://www.w3.org/2000/svg"
   xmlns:xlink="http://www.w3.org/1999/xlink"
   xmlns:sodipodi="http://sodipodi.sourceforge.net/DTD/sodipodi-0.dtd"
   xmlns:inkscape="http://www.inkscape.org/namespaces/inkscape"
   id="svg3432"
   version="1.1"
   inkscape:version="0.91 r13725"
   width="183.75"
   height="46.25"
   viewBox="0 0 183.75 46.25"
   sodipodi:docname="Blackberry.svg">
  <metadata
     id="metadata3438">
    <rdf:RDF>
      <cc:Work
         rdf:about="">
        <dc:format>image/svg+xml</dc:format>
        <dc:type
           rdf:resource="http://purl.org/dc/dcmitype/StillImage" />
        <dc:title></dc:title>
      </cc:Work>
    </rdf:RDF>
  </metadata>
  <defs
     id="defs3436" />
  <sodipodi:namedview
     pagecolor="#ffffff"
     bordercolor="#666666"
     borderopacity="1"
     objecttolerance="10"
     gridtolerance="10"
     guidetolerance="10"
     inkscape:pageopacity="0"
     inkscape:pageshadow="2"
     inkscape:window-width="640"
     inkscape:window-height="480"
     id="namedview3434"
     showgrid="false"
     inkscape:zoom="1.4258503"
     inkscape:cx="91.875"
     inkscape:cy="23.125"
     inkscape:window-x="0"
     inkscape:window-y="0"
     inkscape:window-maximized="0"
     inkscape:current-layer="svg3432" />
  <image
     width="183.75"
     height="46.25"
     preserveAspectRatio="none"
     style="image-rendering:optimizeQuality"
     xlink:href="file:///media/havoc/USB%20DISK/pics/_natives/Blackberry.png"
     id="image3440"
     x="0"
     y="0"
     sodipodi:absref="/media/havoc/USB DISK/pics/_natives/Blackberry.png" />
  <g
     id="g3442">
    <path
       style="fill:#fbfbfb"
       d="M 0,23.125 0,0 l 91.875,0 91.875,0 0,23.125 0,23.125 -91.875,0 L 0,46.25 0,23.125 Z"
       id="path3458"
       inkscape:connector-curvature="0" />
    <path
       style="fill:#d0d0d0"
       d="m 158.90625,37.711074 c -1.16861,-0.471542 -0.94456,-2.611785 0.52176,-4.984355 1.14647,-1.855016 1.25018,-2.672194 0.86323,-6.80154 -0.24188,-2.581269 -0.68539,-4.845005 -0.98557,-5.030524 -1.3888,-0.858331 -2.76588,1.142626 -3.96838,5.766258 -1.23271,4.739787 -1.34047,4.90795 -3.26452,5.094339 -2.93905,0.284717 -3.44575,-1.153649 -2.21639,-6.291683 0.55118,-2.303611 0.78476,-4.404989 0.51908,-4.669727 -0.86984,-0.866748 -2.79801,2.321582 -3.22145,5.326843 -0.57327,4.06862 -1.75429,5.754315 -4.03151,5.754315 -1.46199,0 -1.93264,-0.334503 -2.25004,-1.599152 l -0.40137,-1.599152 -1.42513,1.338847 c -3.65517,3.433851 -10.29798,2.514429 -12.75316,-1.765146 -0.55196,-0.962113 -0.70917,-0.923296 -1.65797,0.409374 -2.27989,3.202293 -9.42342,4.292215 -13.16776,2.009066 -1.95229,-1.190433 -1.97343,-1.190015 -2.29651,0.04546 -0.2576,0.98505 -0.75845,1.205074 -2.38462,1.047576 -1.53974,-0.149125 -2.42881,-0.750673 -3.52775,-2.386872 -1.67237,-2.489981 -2.06978,-2.455713 -2.94569,0.254004 -0.502037,1.553098 -1.016462,1.971419 -2.614725,2.126248 -1.512962,0.146567 -2.16135,-0.127933 -2.705987,-1.145602 -0.663707,-1.240137 -0.798032,-1.26436 -1.830407,-0.330073 -3.097725,2.8034 -8.762306,2.352522 -11.512906,-0.916381 C 80.7862,28.338438 79.939738,27.5 79.76745,27.5 c -0.172288,0 -0.401381,0.914062 -0.5091,2.03125 -0.192106,1.992411 -0.2568,2.032272 -3.383512,2.08472 -1.753219,0.02941 -3.660013,0.234726 -4.237319,0.45626 -0.577313,0.221534 -2.158838,-0.04102 -3.5145,-0.583447 -2.269775,-0.908182 -2.547475,-0.903616 -3.508781,0.05769 -1.317457,1.317452 -3.737152,0.807404 -5.800412,-1.222668 l -1.498674,-1.474568 -1.780825,1.316621 c -2.090565,1.545622 -8.036714,2.179367 -10.720808,1.142634 -1.894426,-0.731725 -3.906905,-4.512158 -3.276517,-6.154923 0.20061,-0.522781 0.916593,-3.478986 1.591073,-6.569344 0.674481,-3.090358 1.54665,-6.004798 1.938154,-6.476532 C 45.561235,11.511254 47.304636,11.25 50.789838,11.25 c 4.864011,0 5.068604,0.06082 6.93893,2.062655 l 1.927148,2.062655 0.953292,-1.906405 C 61.399533,11.888403 61.936456,11.5625 63.75,11.5625 c 2.53235,0 2.596075,0.361046 1.268581,7.1875 -0.434506,2.234375 -0.894068,5.1875 -1.02125,6.5625 l -0.231244,2.5 0.88495,-1.917786 c 0.486726,-1.054782 1.330319,-2.28741 1.874663,-2.739173 0.70815,-0.587714 0.804462,-1.044606 0.338531,-1.606014 C 65.189875,19.532049 70.350131,15 74.321625,15 c 2.127337,0 5.579794,1.829803 6.010019,3.185311 0.456856,1.439439 1.274962,1.540605 1.781606,0.220311 0.204594,-0.533158 1.669725,-1.543432 3.255856,-2.245053 3.586869,-1.586641 6.350882,-1.182241 9.236525,1.351388 l 2.0789,1.825302 0.75425,-3.370331 c 0.870513,-3.889854 1.789038,-4.887123 4.242179,-4.605839 1.70593,0.195609 1.7514,0.297032 1.57793,3.520388 l -0.17861,3.318977 2.35495,-1.600227 C 106.77454,15.690139 108.67101,15 109.83258,15 c 1.55011,0 2.04242,-0.271174 2.04242,-1.125 0,-2.067386 1.34402,-2.625 6.32704,-2.625 4.28121,0 5.0445,0.182971 6.75,1.618059 1.33636,1.124465 1.92296,2.173083 1.92296,3.4375 0,2.162121 0.16161,2.199462 2.38972,0.55215 4.22002,-3.119998 9.98252,-1.80056 12.02095,2.752437 l 1.12711,2.517471 0.43003,-1.713385 c 0.8901,-3.546415 7.15772,-6.574414 9.25896,-4.473169 0.97811,0.978104 1.24137,0.982378 3.55246,0.05766 3.10013,-1.240425 7.09005,-1.290159 8.27704,-0.103172 0.49256,0.492556 1.08787,2.098215 1.32292,3.568132 l 0.42736,2.672575 1.85354,-3.245435 c 1.98512,-3.475808 3.896,-4.50687 6.13342,-3.309438 1.52391,0.81557 1.36471,1.39422 -1.8262,6.637746 -1.26571,2.079899 -3.63375,6.158024 -5.26231,9.0625 -3.70196,6.602297 -4.85376,7.567332 -7.67375,6.429439 z m -49.19168,-17.57984 c -0.2076,-0.207595 -1.09049,0.335597 -1.96199,1.207094 l -1.58454,1.584539 1.44723,2.987727 1.44723,2.987727 0.51476,-4.194821 c 0.28312,-2.307151 0.3449,-4.364671 0.13731,-4.572266 z M 73.125,26.25 c 0,-0.783076 -0.663275,-0.783076 -1.875,0 -0.7581,0.489921 -0.6684,0.607691 0.46875,0.615429 C 72.492187,26.870693 73.125,26.59375 73.125,26.25 Z M 93.103013,25 c 1.8251,0 2.521987,-0.259054 2.521987,-0.9375 0,-0.648288 -0.651219,-0.9375 -2.110975,-0.9375 -1.161031,0 -2.461094,-0.421875 -2.889025,-0.9375 -1.274275,-1.535407 -3.69305,-1.168671 -4.390469,0.665687 -0.77085,2.027495 -0.790462,1.876596 0.398369,3.065425 0.911906,0.911909 1.147906,0.91616 2.478006,0.04464 C 89.919469,25.433464 91.715919,25 93.103013,25 Z m 40.803237,1.461074 c -0.42969,-0.173382 -1.13281,-0.173382 -1.5625,0 -0.42969,0.173384 -0.0781,0.315242 0.78125,0.315242 0.85937,0 1.21094,-0.141859 0.78125,-0.315242 z M 51.722701,25.15625 C 51.895823,24.628884 51.251365,24.375 49.739583,24.375 48.12517,24.375 47.5,24.647753 47.5,25.352099 c 0,1.200995 3.822348,1.023714 4.222701,-0.195849 z m 67.514859,-0.04459 c 0.19593,-0.596326 -0.29842,-0.770025 -1.77873,-0.625 -1.12754,0.110463 -2.17216,0.572471 -2.32139,1.026684 -0.19593,0.596326 0.29842,0.770025 1.77873,0.625 1.12754,-0.110463 2.17216,-0.572471 2.32139,-1.026684 z M 58.75,21.136586 c 0,-1.051834 -0.166023,-1.151855 -0.900349,-0.542419 -0.495193,0.410974 -0.746972,1.146921 -0.55951,1.635439 0.469372,1.223165 1.459859,0.481572 1.459859,-1.09302 z m 67.49043,-0.744364 c 0.005,-0.299903 -0.40921,-0.197723 -0.92105,0.227067 -0.51184,0.424789 -0.75793,1.051754 -0.54687,1.393255 0.38734,0.626735 1.44905,-0.545199 1.46792,-1.620322 z m 8.5903,0.480174 c -0.20769,-0.207682 -0.74675,-0.229887 -1.19792,-0.04934 -0.49858,0.199516 -0.35048,0.347614 0.37761,0.377604 0.65885,0.02714 1.02799,-0.12058 0.82031,-0.328262 z M 53.125,17.5 c 0,-0.34375 -0.84375,-0.625 -1.875,-0.625 -1.03125,0 -1.875,0.28125 -1.875,0.625 0,0.34375 0.84375,0.625 1.875,0.625 1.03125,0 1.875,-0.28125 1.875,-0.625 z m 67.5,0 c 0,-0.34375 -0.84375,-0.625 -1.875,-0.625 -1.03125,0 -1.875,0.28125 -1.875,0.625 0,0.34375 0.84375,0.625 1.875,0.625 1.03125,0 1.875,-0.28125 1.875,-0.625 z M 14.21875,29.643633 C 13.306298,28.715187 13.767049,25.607951 15,24.375 c 1.44615,-1.44615 4.820609,-1.663489 6.521169,-0.420009 1.251287,0.914964 1.523093,3.875747 0.45395,4.94489 -0.818347,0.818347 -7.091859,1.41991 -7.756369,0.743752 z m 10.3125,-2.524576 c -1.053481,-0.469564 -0.992313,-4.0915 0.09419,-5.577383 0.534314,-0.730717 0.746754,-1.990247 0.545188,-3.232351 -0.213882,-1.318002 0.03329,-2.589957 0.701467,-3.609719 C 26.719097,13.406918 27.402208,13.125 29.6875,13.125 c 2.259126,0 2.971432,0.28654 3.780012,1.520589 1.234567,1.884187 0.390271,3.856746 -2.047466,4.783572 l -1.628953,0.619326 1.354453,0.948697 c 1.525628,1.068591 1.760169,3.209056 0.535196,4.884305 -0.823967,1.126843 -5.559036,1.946477 -7.149492,1.237568 z M 5.8492106,21.557794 C 5.2806502,20.076149 6.1864107,16.408137 7.2186544,16.012029 7.948525,15.731951 8.0008425,15.409231 7.4574369,14.539101 6.9934212,13.796093 6.94877,12.698096 7.3234244,11.243667 7.8395112,9.2401881 8.0967638,9.0469387 10.481263,8.8714806 c 3.703711,-0.2725294 5.264186,0.7218081 5.023989,3.2012944 -0.151077,1.559526 -0.665712,2.225995 -2.380252,3.082504 -1.203125,0.601028 -1.715402,1.093215 -1.138393,1.09375 0.577009,5.34e-4 1.481027,0.43289 2.008929,0.960792 0.863095,0.863096 1.092254,0.827389 2.273963,-0.35432 1.039203,-1.039203 1.160031,-1.499833 0.577529,-2.201705 C 16.06437,13.710751 16.492239,10.901777 17.626774,9.5347463 18.673106,8.2739938 22.943408,8.5684081 24.375,10 c 2.120851,2.120851 1.354887,4.191835 -2.000003,5.407527 -1.134373,0.411057 -1.590399,0.768772 -1.01339,0.794924 1.301497,0.05899 3.013393,1.709131 3.013393,2.904692 0,1.962228 -2.396506,3.392857 -5.683513,3.392857 -2.606452,0 -3.240025,-0.216108 -3.495283,-1.192216 -0.306735,-1.172955 -0.331033,-1.172955 -1.503988,0 -1.527332,1.527332 -7.2824529,1.710787 -7.8430054,0.25001 z"
       id="path3456"
       inkscape:connector-curvature="0" />
    <path
       style="fill:#aeaeae"
       d="m 158.95694,36.512774 c -0.20837,-0.542975 0.25321,-2.252782 1.02572,-3.799572 1.31475,-2.632554 1.35933,-3.116381 0.6972,-7.56818 -0.38904,-2.615708 -0.80277,-4.85127 -0.91942,-4.967915 -0.11665,-0.116644 -0.9295,0.06068 -1.80635,0.394058 -1.54995,0.589291 -2.35367,2.466787 -3.83563,8.960085 -0.32131,1.407805 -0.73288,1.71875 -2.27499,1.71875 -2.45612,0 -2.71219,-0.878303 -1.55328,-5.327683 1.59515,-6.12416 1.08836,-7.357686 -1.82565,-4.443676 -1.03385,1.033851 -1.61028,2.532275 -1.91627,4.9813 -0.47991,3.841053 -1.35195,4.992692 -3.54512,4.681786 -1.32885,-0.188378 -1.42632,-0.46664 -1.256,-3.585576 0.16441,-3.010592 0.0772,-3.292168 -0.79536,-2.56801 -0.53901,0.447335 -0.83042,1.284649 -0.6476,1.860696 0.19419,0.611822 -0.25477,1.597423 -1.07963,2.370128 -4.26072,3.991301 -10.17252,3.095271 -12.77438,-1.936167 l -0.92184,-1.782652 -1.04542,2.084982 c -1.37245,2.737217 -3.3476,3.644444 -7.95882,3.655658 -3.0264,0.0074 -4.07992,-0.26238 -5.23774,-1.34106 -1.35857,-1.265697 -1.4236,-1.659129 -1.03813,-6.281209 0.38351,-4.598579 0.33634,-4.890574 -0.69976,-4.332115 -0.61103,0.329351 -1.7361,1.2674 -2.50013,2.084552 l -1.38917,1.485733 1.54542,3.05258 c 2.1115,4.170754 2.03729,5.340733 -0.33878,5.340733 -1.45506,0 -2.16621,-0.462615 -3.12252,-2.03125 -0.68108,-1.117188 -1.33433,-2.3125 -1.45167,-2.65625 -0.37799,-1.107336 -2.12329,0.877131 -2.521207,2.866682 -0.340625,1.703131 -0.590032,1.88069 -2.394507,1.704733 -1.516725,-0.147897 -2.098868,-0.558521 -2.356725,-1.662338 l -0.342437,-1.465923 -1.190125,1.31507 c -1.813725,2.004141 -5.350481,2.861162 -8.084206,1.95895 C 82.929675,30.463598 80.625,27.996567 80.625,26.165713 80.625,25.524571 80.34375,25 80,25 c -0.34375,0 -0.625,0.93062 -0.625,2.068044 0,3.468792 -0.970231,4.130523 -6.338575,4.323113 -3.994919,0.143319 -4.994537,-0.02607 -6.111838,-1.035646 -1.323025,-1.195471 -1.344881,-1.19398 -2.290618,0.15625 C 64.1088,31.261542 63.1705,31.875 62.548844,31.875 c -1.90679,0 -4.423612,-2.424666 -4.42618,-4.264113 l -0.0023,-1.673387 -1.247952,2.046829 C 55.32952,30.514846 53.485168,31.25 48.679469,31.25 c -3.27113,0 -3.937413,-0.213923 -5.323078,-1.709081 -1.73712,-1.874383 -1.737103,-1.912092 0.0044,-10.355528 1.52264,-7.382291 1.451808,-7.310391 7.201909,-7.310391 4.004476,0 5.192965,0.235383 6.54051,1.295363 1.996941,1.570794 2.218574,4.672268 0.493193,6.9016 -0.982979,1.270088 -1.042493,1.757425 -0.402397,3.295061 0.952862,2.288962 1.339286,1.625553 2.457554,-4.219107 1.188717,-6.212866 1.79729,-7.272917 4.175362,-7.272917 1.892406,0 1.9046,0.02164 1.497213,2.65625 -0.225907,1.460938 -0.813126,4.296153 -1.304938,6.300479 C 62.859231,25.559061 62.871837,27.5 64.0625,27.5 64.578125,27.5 65,27.056491 65,26.514423 c 0,-0.542067 0.8028,-1.788376 1.784,-2.769574 1.605138,-1.605141 1.68765,-1.88034 0.823025,-2.744968 -0.864631,-0.864628 -0.839988,-1.094657 0.245775,-2.294413 3.908344,-4.318667 10.479019,-4.009148 12.2352,0.576353 l 0.6341,1.655679 1.27065,-1.5625 c 1.96395,-2.415038 4.358431,-3.741591 6.75725,-3.743546 4.247212,-0.0034 8.763025,4.281117 6.890363,6.537537 -1.083575,1.305623 -2.66835,1.199502 -4.390363,-0.293991 -2.90785,-2.521967 -5.869613,-1.11647 -5.511394,2.615422 0.156625,1.631719 0.513069,2.11653 1.677232,2.281244 0.813081,0.115041 1.783393,-0.0959 2.156249,-0.46875 1.106344,-1.10635 4.783019,-0.83199 5.252694,0.391964 0.4855,1.265186 0.968094,-0.189416 2.324863,-7.00738 1.365612,-6.862442 1.869825,-7.8125 4.146256,-7.8125 l 1.95183,0 -0.44815,3.861358 -0.44816,3.861358 2.50798,-1.986358 c 1.73957,-1.377764 3.17979,-1.986358 4.70065,-1.986358 1.87438,0 2.28755,-0.272175 2.8463,-1.875 0.65202,-1.870409 0.66574,-1.875 5.60185,-1.875 4.05961,0 5.24396,0.232624 6.59501,1.295363 2.0727,1.630382 2.30572,5.414579 0.43753,7.10527 -1.01646,0.919881 -1.09585,1.343299 -0.4979,2.655644 l 0.71137,1.561275 0.81742,-2.36108 c 2.87698,-8.309952 13.04934,-8.763691 15.23586,-0.679596 l 0.7061,2.610624 1.03591,-2.795321 c 1.69959,-4.586243 7.15659,-7.296791 8.94024,-4.440712 0.74022,1.185289 0.78203,1.185289 3.10539,0 2.67974,-1.367102 7.54941,-1.595959 8.54082,-0.401388 0.36521,0.440043 0.89757,2.193267 1.18305,3.896053 l 0.51904,3.095975 2.10038,-3.427303 c 1.15521,-1.885017 2.41509,-3.633935 2.79973,-3.886483 1.12216,-0.736785 3.35149,-0.547705 3.68148,0.312242 0.31819,0.829187 -10.40734,19.810743 -11.64349,20.606116 -1.22008,0.78504 -2.92285,0.523968 -3.3192,-0.508905 z M 73.625,26.75 c 1.243956,-1.243959 0.850319,-1.797794 -0.96875,-1.362996 -2.303519,0.550592 -2.743431,0.841298 -2.317056,1.531182 C 70.845881,27.738034 72.733587,27.64141 73.625,26.75 Z m 61.01138,0.370632 c 1.7312,-0.664323 1.06483,-1.495632 -1.19888,-1.495632 -2.06826,0 -2.70488,0.524283 -1.77083,1.458333 0.51876,0.518764 1.67712,0.533313 2.96971,0.0373 z M 51.852278,25.964878 C 52.957842,24.632755 52.095054,23.75 49.6875,23.75 c -2.261822,0 -3.136778,0.753457 -2.574999,2.217429 0.452253,1.17855 3.761028,1.176769 4.739777,-0.0026 z m 67.500002,0 C 120.46304,24.626485 119.59179,23.75 117.15061,23.75 115.27329,23.75 115,23.948557 115,25.3125 c 0,1.304669 0.29677,1.5625 1.79847,1.5625 0.98916,0 2.13837,-0.409555 2.55381,-0.910122 z M 136.25,21.292117 c 0,-0.759534 -2.30549,-1.486103 -3.11941,-0.983074 -1.23702,0.764525 -0.60016,1.565957 1.24441,1.565957 1.03125,0 1.875,-0.262298 1.875,-0.582883 z M 74.6875,20.625 c 0.491794,-0.795742 -0.956175,-0.795742 -2.1875,0 -0.762175,0.492554 -0.681406,0.607649 0.431862,0.615429 0.75315,0.0053 1.543188,-0.271679 1.755638,-0.615429 z M 53.4375,17.5 c 0,-1.464505 -4.292003,-1.279579 -4.576401,0.19718 -0.185373,0.962569 0.145135,1.104772 2.178941,0.9375 C 52.666813,18.500886 53.4375,18.136131 53.4375,17.5 Z m 67.5,0 c 0,-1.217441 -3.42636,-1.646668 -4.14136,-0.518797 -0.95231,1.502201 -0.57695,1.846803 1.79761,1.650275 1.58046,-0.130804 2.34375,-0.499296 2.34375,-1.131478 z M 14.196383,28.561019 c -0.171795,-0.447689 0.06579,-1.713314 0.52796,-2.8125 C 15.469469,23.976388 15.846212,23.75 18.050186,23.75 c 3.880941,0 5.656223,2.464481 3.306851,4.590632 -1.402294,1.26906 -6.695724,1.431978 -7.160654,0.220387 z m 10.595284,-2.102686 c -0.6992,-0.699199 -0.464,-4.286 0.333333,-5.083333 1.194852,-1.194852 4.725968,-0.899032 6.139324,0.514324 1.060675,1.060675 1.146275,1.488527 0.531435,2.65625 -0.403089,0.765559 -1.042347,1.598557 -1.420574,1.851105 -0.862179,0.575693 -5.023529,0.621643 -5.583518,0.06166 z M 7.03125,22.086074 C 6.0345779,21.683909 6.0118702,17.98813 7,17 c 2.1299694,-2.129969 7.946828,0.213729 7.105953,2.863093 -0.556426,1.753142 -4.8756636,3.110313 -7.074703,2.222981 z m 9.375,0.02789 c -1.103912,-0.484847 -0.971204,-3.709725 0.200893,-4.881821 1.255008,-1.255009 3.968956,-1.25935 5.753791,-0.0092 1.574193,1.102608 1.739318,2.073629 0.607816,3.574273 -0.799131,1.05984 -5.156721,1.934181 -6.5625,1.316751 z m 9.21875,-4.34255 c 0,-2.960649 1.044429,-4.021412 3.95949,-4.021412 2.841333,0 4.16551,0.823197 4.16551,2.58956 0,1.658909 -2.472211,3.03544 -5.451566,3.03544 -2.453263,0 -2.673434,-0.132064 -2.673434,-1.603588 z M 7.9166669,14.583333 C 7.2261431,13.89281 7.4478769,10.927123 8.25,10.125 c 1.0765025,-1.0765025 5.235227,-0.9254875 6.392857,0.232143 1.220113,1.220113 1.220972,1.523748 0.0092,3.253791 C 13.904551,14.678152 13.059808,15 11.006227,15 9.5361356,15 8.1458331,14.8125 7.9166669,14.583333 Z m 9.1562861,-0.593965 c -0.213299,-0.555849 -0.129037,-1.751161 0.187249,-2.65625 0.459827,-1.315847 1.037154,-1.6841736 2.880972,-1.8380186 4.161835,-0.3472569 6.277935,2.1215056 3.876683,4.5227576 -1.36026,1.36026 -6.419956,1.339504 -6.944904,-0.02849 z"
       id="path3454"
       inkscape:connector-curvature="0" />
    <path
       style="fill:#909090"
       d="m 158.75,36.307679 c 0,-0.312027 0.68797,-1.929214 1.52882,-3.59375 1.47894,-2.927666 1.50299,-3.18425 0.73679,-7.862563 -0.43562,-2.659873 -0.91266,-4.956417 -1.06008,-5.10343 -0.14742,-0.147014 -1.14762,0.102735 -2.22266,0.554996 -1.77371,0.746184 -2.05181,1.259095 -3.00454,5.541423 -0.81792,3.676386 -1.3321,4.808693 -2.32703,5.124472 -2.71925,0.863057 -2.91551,-1.602675 -0.76112,-9.562577 C 151.96353,20.211552 151.77693,20 150.3998,20 c -2.07175,0 -3.32293,1.889907 -4.15467,6.275665 -0.70527,3.718872 -1.86356,5.350429 -3.38417,4.766916 -1.28679,-0.493787 -1.27285,-3.375625 0.0389,-8.050819 1.2333,-4.395424 3.61228,-6.741762 6.83556,-6.741762 1.85855,0 2.13954,0.202733 2.13954,1.543664 l 0,1.543665 2.27472,-1.543665 C 155.9167,16.594556 157.22707,16.25 160.02035,16.25 c 3.93003,0 4.34692,0.378028 4.36422,3.957367 0.0189,3.923669 0.95821,3.930932 3.23554,0.02502 1.81961,-3.120858 2.4382,-3.699189 4.13481,-3.865738 1.09729,-0.10772 1.99508,0.0762 1.99508,0.408705 0,0.650885 -2.05822,4.379381 -7.73158,14.005891 -3.24932,5.513411 -3.76643,6.09375 -5.42988,6.09375 -1.0112,0 -1.83854,-0.255294 -1.83854,-0.567321 z M 45.625,30.844472 C 43.730866,30.0715 42.5,28.514039 42.5,26.890291 c 0,-2.566335 2.400486,-13.204805 3.195787,-14.163084 0.470351,-0.566738 2.13109,-0.852207 4.957787,-0.852207 3.66096,0 4.517239,0.224429 6.173473,1.618059 2.258349,1.900275 2.451791,3.791059 0.625401,6.112937 -1.120457,1.424432 -1.203199,1.93546 -0.606241,3.74426 0.793535,2.404435 0.217243,4.48381 -1.728306,6.236075 -1.311757,1.181437 -7.629153,2.018713 -9.492901,1.258141 z m 6.755185,-5.634541 c 0.224606,-1.576647 -1.611694,-2.41332 -3.987793,-1.816957 -1.107994,0.278088 -1.517392,0.808892 -1.517392,1.96737 0,1.479984 0.178382,1.573622 2.65625,1.394342 2.174069,-0.157299 2.691228,-0.437714 2.848935,-1.544755 z m -0.03643,-6.22886 C 54.271493,18.464456 54.159787,16.48836 52.174676,15.990129 50.620646,15.600092 48.125,16.467082 48.125,17.39699 c 0,0.70287 1.397526,1.979343 2.15625,1.969476 0.360938,-0.0047 1.289062,-0.178122 2.0625,-0.385395 z m 7.5,11.593867 c -1.459614,-0.850147 -1.428448,-4.419157 0.09965,-11.411866 1.281626,-5.86481 2.039947,-7.288072 3.88312,-7.288072 1.5298,0 1.512312,1.782379 -0.08852,9.023845 l -1.234944,5.586345 1.266144,1.347744 c 0.758513,0.807405 1.106956,1.762562 0.8691,2.382405 -0.445413,1.160729 -3.079858,1.358316 -4.79455,0.359599 z m 7.043281,-0.562906 C 63.898944,27.023941 66.239,22.931351 71.497319,21.948991 75.219431,21.253625 76.772525,20 73.911888,20 c -1.079713,0 -2.136938,0.28125 -2.349388,0.625 -0.21245,0.34375 -1.213425,0.625 -2.224388,0.625 -2.598956,0 -2.489925,-2.120956 0.193138,-3.75685 C 73.729263,14.933571 80,16.428216 80,19.988401 c 0,1.404989 -1.39065,10.190402 -1.674219,10.576859 -0.102006,0.139017 -2.4335,0.355369 -5.181093,0.480782 -4.358538,0.198942 -5.156569,0.06707 -6.257657,-1.03401 z M 74.6335,25.852844 c 0.347931,-0.906685 -1.791669,-1.184622 -3.644881,-0.473476 -1.178557,0.452253 -1.31035,1.905358 -0.207369,2.286262 1.057219,0.365101 3.448294,-0.760086 3.85225,-1.812786 z m 9.305594,4.649003 C 82.322025,29.720569 80.625,26.438965 80.625,24.093257 c 0,-6.402092 8.2382,-10.296819 13.109644,-6.197772 1.276162,1.073824 1.889937,2.105203 1.7667,2.96875 -0.262782,1.841355 -3.018269,2.093608 -4.537069,0.415348 -1.496244,-1.653325 -3.095431,-1.623227 -4.689925,0.08827 -1.631938,1.751679 -1.622975,3.747915 0.0235,5.237976 1.239494,1.121729 1.382344,1.126085 3.17565,0.09687 3.253337,-1.86716 5.418019,-1.189784 4.585025,1.434753 -0.831925,2.621154 -6.733856,4.000134 -10.119456,2.3644 z m 12.375231,0.176133 c -0.955888,-0.605249 -0.9355,-0.796232 1.167531,-10.93661 1.364088,-6.577366 1.988044,-7.86637 3.807784,-7.86637 1.70339,0 1.913,0.818275 1.10563,4.316001 -0.40357,1.748361 -0.55455,3.358053 -0.33551,3.577094 0.21904,0.219041 1.40186,-0.482923 2.6285,-1.559919 1.65881,-1.456462 2.8363,-1.958176 4.5957,-1.958176 2.06866,0 2.47763,-0.254862 3.2595,-2.03125 0.87497,-1.987926 0.98901,-2.035133 5.34668,-2.213294 4.03495,-0.164968 4.6359,-0.02784 6.40625,1.461808 2.2927,1.929177 2.49034,3.806829 0.64732,6.149848 -1.11536,1.41794 -1.20672,1.946359 -0.625,3.615052 0.96661,2.772824 0.87664,3.314772 -0.90101,5.427383 -1.26447,1.502749 -2.23739,1.955974 -4.84375,2.256435 -7.04146,0.81174 -9.0894,-1.291149 -7.90136,-8.113361 0.39468,-2.266423 0.5584,-4.279965 0.36382,-4.47454 -0.54634,-0.546345 -5.41141,3.536652 -5.41141,4.541516 0,0.489259 0.76631,2.308419 1.70289,4.042577 1.44995,2.684662 1.566,3.240896 0.78125,3.744637 -1.54358,0.990855 -2.67275,0.393983 -4.55407,-2.40723 -1.45183,-2.161715 -1.96861,-2.538173 -2.6771,-1.950177 C 100.39509,26.700162 100,27.536029 100,28.156885 c 0,1.104478 -1.547606,3.102518 -2.388394,3.083544 -0.233256,-0.0053 -0.817037,-0.258366 -1.297281,-0.562449 z m 23.569995,-5.499639 c 0.15091,-1.061247 -0.19972,-1.483687 -1.50298,-1.810784 -2.07433,-0.520625 -3.62458,0.355515 -3.89858,2.203328 -0.18787,1.266989 0.0181,1.364699 2.5,1.186171 2.24371,-0.161393 2.73829,-0.430492 2.90157,-1.578715 z m -0.0406,-6.19727 c 1.97378,-0.528953 1.80816,-2.494688 -0.25379,-3.012205 -1.93935,-0.486746 -3.72009,0.889035 -3.13254,2.420171 0.40557,1.056894 1.15972,1.188743 3.38633,0.592034 z m 9.72022,11.636558 C 127.83719,29.922231 126.25,26.917658 126.25,24.344243 c 0,-4.761684 3.4017,-8.105007 8.22143,-8.080346 3.92885,0.0201 6.77857,2.723697 6.77857,6.430987 0,2.376905 -1.30083,2.986646 -5.95874,2.79307 -2.94938,-0.122571 -4.30463,0.06025 -4.49642,0.606573 -0.4603,1.311236 2.42748,1.989926 4.33037,1.017731 3.064,-1.565407 5.3343,-0.911943 4.48858,1.291956 -0.90383,2.355357 -6.58844,3.607359 -10.04981,2.213415 z m 6.52978,-9.523879 c -0.14323,-0.429688 -1.05729,-0.78125 -2.03125,-0.78125 -0.97396,0 -1.88802,0.351562 -2.03125,0.78125 -0.17677,0.530303 0.47569,0.78125 2.03125,0.78125 1.55556,0 2.20802,-0.250947 2.03125,-0.78125 z M 15.022658,28.808599 c -0.707806,-0.471951 -0.775121,-1.007298 -0.29745,-2.36555 0.56485,-1.606142 0.882068,-1.755549 3.727343,-1.755549 2.794444,0 3.131169,0.149977 3.319115,1.478334 0.115041,0.813084 -0.02558,1.712751 -0.3125,1.999259 -0.846812,0.845608 -5.44409,1.305233 -6.436508,0.643506 z m 9.632958,-3.353814 c -0.182398,-0.475323 -0.0397,-1.632061 0.317102,-2.570528 0.582463,-1.531993 0.913768,-1.686661 3.243106,-1.51403 3.003896,0.222624 4.394402,1.695414 3.279459,3.473523 -0.887622,1.415576 -6.343884,1.903023 -6.839667,0.611035 z M 6.4607225,20.897644 c -0.2062756,-0.537546 -0.062854,-1.662546 0.3187162,-2.5 C 7.31888,17.213699 7.9514012,16.875 9.6229838,16.875 c 1.1823802,0 2.5946592,0.170716 3.1383992,0.379368 1.38477,0.531386 1.237178,3.193626 -0.220295,3.973642 -1.886707,1.009735 -5.6444686,0.805564 -6.0803655,-0.330366 z m 9.4316535,0.147637 c -0.175117,-0.456347 -0.03263,-1.581347 0.316646,-2.5 0.518589,-1.363992 1.029637,-1.670281 2.786892,-1.670281 1.183518,0 2.596729,0.170716 3.140469,0.379368 1.38477,0.531386 1.237178,3.193626 -0.220295,3.973642 -1.73176,0.92681 -5.643477,0.808148 -6.023712,-0.182729 z M 26.40625,18.989728 C 25.339847,18.520313 25.424791,16.813971 26.59794,15.139066 27.682747,13.590288 31.088535,13.213535 32.375,14.5 c 1.00899,1.00899 0.947365,2.683146 -0.131731,3.578716 -1.017455,0.844413 -4.687164,1.417162 -5.837019,0.911012 z M 8.31073,14.283564 C 7.1392487,12.86745 8.0668919,10.038399 9.8494119,9.591015 13.216279,8.7459856 16.04057,11.222307 14.468655,13.641141 13.678164,14.857533 9.1742463,15.327403 8.31073,14.283564 Z m 9.605937,0.299769 C 17.226143,13.89281 17.447877,10.927123 18.25,10.125 c 1.933797,-1.9337975 7.248721,0.348119 6.338084,2.721202 -0.630362,1.642696 -5.498315,2.910234 -6.671417,1.737131 z"
       id="path3452"
       inkscape:connector-curvature="0" />
    <path
       style="fill:#6f6f6f"
       d="m 159.375,35.912601 c 0,-0.529319 0.57865,-2.096643 1.28589,-3.482941 1.17901,-2.311059 1.2283,-2.919334 0.59312,-7.318851 -0.95823,-6.637061 -0.85773,-6.462695 -3.08469,-5.351738 -2.37604,1.185324 -2.50096,1.398193 -3.76887,6.4222 -0.92768,3.675868 -1.21043,4.131229 -2.56528,4.131229 -1.73198,0 -1.76695,-0.366339 -0.5966,-6.25 1.10464,-5.553281 3.72413,-7.8125 9.05836,-7.8125 2.49388,0 2.93685,0.204749 3.46854,1.603187 0.33524,0.881753 0.60953,2.552655 0.60953,3.713115 0,3.207613 0.99774,3.157457 2.88304,-0.144927 0.9369,-1.641131 2.12134,-3.476063 2.63208,-4.077625 1.12054,-1.319809 3.23488,-1.447258 3.23488,-0.194994 0,0.856923 -7.62052,14.392654 -10.13809,18.007494 -1.28828,1.849776 -3.61191,2.336354 -3.61191,0.756351 z M 60.082124,30.237176 C 58.488491,29.120952 58.469598,27.745082 59.945844,20.3125 61.258532,13.70339 61.803832,12.5 63.485969,12.5 c 1.788943,0 1.76015,-0.286845 0.564631,5.625 -1.801985,8.91078 -1.788921,8.700732 -0.621369,9.990861 2.254182,2.490842 -0.409406,4.178959 -3.347107,2.121315 z M 68.75,30.786404 C 64.5007,29.315518 64.809988,23.910336 69.204169,22.849287 74.545381,21.55956 75.625,21.128967 75.625,20.28841 c 0,-1.193674 -1.323406,-1.156223 -3.984488,0.112757 -2.257162,1.076367 -4.42505,0.773179 -3.988056,-0.557746 C 68.127219,18.397482 72.037744,16.25 74.196013,16.25 c 2.687375,0 4.466812,0.934896 5.128118,2.694251 0.455457,1.211702 -0.612075,10.735548 -1.266168,11.295962 -0.471494,0.403968 -8.378432,0.867947 -9.307963,0.546191 z m 5.276856,-3.872021 c 1.432019,-1.582363 0.728175,-2.652931 -1.408912,-2.142997 -2.527594,0.603113 -3.407057,1.465294 -2.549125,2.499038 1.004056,1.209811 2.677168,1.059308 3.958037,-0.356041 z m 10.553607,3.454309 C 82.115287,29.259303 81.25,27.697216 81.25,24.356271 c 0,-6.224585 5.8642,-9.953876 11.262512,-7.162302 2.061975,1.06629 3.376594,3.091291 2.867732,4.417369 C 94.888181,22.893629 92.877763,22.703349 91.5625,21.25 89.131163,18.563404 85,20.415069 85,24.191435 c 0,2.445796 1.351687,3.584708 3.590156,3.025021 4.626119,-1.156671 5.913919,-1.159923 5.688944,-0.01437 -0.569131,2.898017 -6.2059,4.738421 -9.698638,3.166603 z m 45.579737,0.238293 c -1.69488,-0.681409 -3.90464,-4.128388 -3.90786,-6.095809 -0.0106,-6.45465 7.70679,-10.634015 12.37808,-6.703389 1.96707,1.655179 2.94279,5.045846 1.84486,6.410963 C 140.07405,24.717627 138.16381,25 135.19014,25 c -3.98464,0 -4.62763,0.148202 -4.45472,1.026761 0.3951,2.00753 2.09774,2.419685 4.85657,1.175624 1.8718,-0.844061 2.76205,-0.973344 3.26173,-0.473666 1.07875,1.078758 0.11397,2.619109 -2.26236,3.612002 -2.44106,1.01994 -4.35902,1.099348 -6.43116,0.266264 z m 6.4609,-8.8268 c 0.45749,-0.740234 -1.31366,-2.405185 -2.5586,-2.405185 -1.24494,0 -3.01609,1.664951 -2.5586,2.405185 0.24468,0.395898 1.39605,0.719815 2.5586,0.719815 1.16255,0 2.31392,-0.323917 2.5586,-0.719815 z m -92.838227,7.317307 c -1.037945,-1.104843 -1.346814,-2.012772 -1.116247,-3.28125 1.024171,-5.634535 1.850365,-9.495756 2.414675,-11.284992 L 45.72194,12.5 l 4.812464,0 c 5.827354,0 7.590596,0.929708 7.590596,4.002309 0,1.149297 -0.543437,2.683017 -1.231949,3.476878 -0.920202,1.061002 -1.078359,1.707432 -0.625,2.554542 0.69029,1.289819 0.792945,3.754339 0.218711,5.25077 -0.648621,1.690277 -3.724837,2.840501 -7.596778,2.840501 -3.086361,0 -3.90099,-0.243651 -5.107111,-1.527508 z m 8.85489,-2.735255 c 0.336275,-0.336274 0.419127,-1.217232 0.184117,-1.957683 -0.359974,-1.134179 -0.827434,-1.316404 -2.967182,-1.156665 -2.750552,0.205337 -4.074337,1.501763 -3.380287,3.310427 0.342267,0.891933 0.914452,1.037347 2.987645,0.759273 1.410365,-0.189169 2.839433,-0.619078 3.175707,-0.955352 z M 53.75,18.4375 c 1.161373,-1.399368 -0.300066,-2.8125 -2.908644,-2.8125 -1.317298,0 -2.267912,0.357863 -2.49034,0.9375 -0.668442,1.741934 0.279494,2.8125 2.49034,2.8125 1.171824,0 2.480713,-0.421875 2.908644,-0.9375 z m 42.215075,11.607119 c -0.221581,-0.358524 0.017,-2.41367 0.530188,-4.56699 0.513187,-2.153321 1.113868,-4.899504 1.334856,-6.102629 0.984444,-5.359644 1.691162,-6.875 3.206311,-6.875 1.63783,0 1.77121,0.731706 0.85436,4.686952 -0.31866,1.3747 -0.36561,2.713232 -0.10432,2.974516 0.26128,0.261285 1.62811,-0.511907 3.0374,-1.718202 2.34446,-2.006773 4.98927,-2.796788 5.99526,-1.790806 0.22135,0.221353 -0.85677,1.510881 -2.39584,2.865617 -3.15173,2.774269 -3.3177,3.547077 -1.54829,7.209338 1.61809,3.349062 1.5759,3.897585 -0.2998,3.897585 -1.18288,0 -1.85652,-0.601231 -2.84535,-2.539501 -1.57597,-3.089168 -3.11444,-3.071578 -4.120712,0.04711 -0.705463,2.186406 -2.796425,3.283514 -3.644063,1.912006 z m 15.694295,-0.562582 c -1.52888,-1.689389 -1.224,-6.814581 0.86739,-14.581403 L 113.17318,12.5 l 4.83684,0 c 5.85333,0 7.61498,0.925894 7.61498,4.002309 0,1.149297 -0.54344,2.683017 -1.23195,3.476878 -0.9202,1.061002 -1.07836,1.707432 -0.625,2.554542 0.69029,1.289819 0.79294,3.754339 0.21871,5.25077 -1.06737,2.781539 -10.20735,4.040156 -12.32739,1.697538 z m 7.40578,-2.608045 c 1.21689,-0.462661 1.59444,-0.992682 1.44694,-2.03125 C 120.33892,23.623505 119.94022,23.4375 117.5,23.4375 c -2.71624,0 -2.81921,0.06952 -3.00835,2.03125 -0.17373,1.801885 -0.0196,2.03125 1.36556,2.03125 0.85878,0 2.30235,-0.281703 3.20794,-0.626008 z m 2.43405,-8.923034 c 0.84356,-1.362276 -0.32617,-2.301963 -2.88346,-2.316387 -1.76561,-0.01 -3.40225,1.943955 -2.64908,3.162613 0.63568,1.028561 4.76248,0.39735 5.53254,-0.846226 z m 20.64291,9.754364 c 0.79053,-5.629793 2.1573,-8.806654 4.37981,-10.180243 2.44024,-1.508147 4.62403,-1.64846 5.13012,-0.32962 C 152.11968,18.414113 150.80124,20 149.32046,20 c -1.51777,0 -2.53633,1.979423 -3.3769,6.5625 -0.63399,3.456667 -0.82614,3.766061 -2.4565,3.955322 l -1.76871,0.205322 0.42376,-3.017822 z M 14.762501,28.246354 c -0.171199,-0.277006 0.03144,-1.191068 0.450322,-2.03125 0.610688,-1.22492 1.239798,-1.527604 3.175018,-1.527604 2.846543,0 4.236141,1.469452 2.905638,3.072611 -0.863484,1.040435 -5.954225,1.419449 -6.530978,0.486243 z M 25.116263,23.94414 c 0.184864,-2.24361 0.327566,-2.392614 2.46225,-2.570984 1.486823,-0.124236 2.624741,0.169383 3.30925,0.853893 1.677316,1.677315 -0.01916,3.658724 -3.343104,3.904591 l -2.624633,0.19414 0.196237,-2.38164 z M 7.1491494,21.062933 C 6.9439988,20.528319 6.8687025,19.437641 6.9818244,18.639204 7.140875,17.516591 7.6414238,17.143591 9.1898713,16.993805 11.481247,16.772153 13.75,17.774236 13.75,19.007962 c 0,2.097723 -5.8817819,3.928834 -6.6008506,2.054971 z m 9.5175176,0.3954 C 15.987575,20.779241 16.191558,18.433442 17,17.625 c 1.781824,-1.781824 6.738613,-0.12554 5.930066,1.9815 -0.628735,1.638456 -5.142299,2.972934 -6.263399,1.851833 z m 9.592904,-4.114583 c 0.01658,-2.436556 0.851848,-3.064174 3.79698,-2.853044 2.129387,0.15265 2.796669,0.46792 2.97477,1.405483 0.313793,1.651877 -1.539673,2.853811 -4.400777,2.853811 -2.054882,0 -2.379235,-0.192378 -2.370973,-1.40625 z m -18.0179197,-5 c 0.1824256,-1.892031 0.3708999,-2.04408 2.7498917,-2.218442 3.105679,-0.227623 4.474062,0.961878 3.404838,2.959741 -0.541453,1.011714 -1.300804,1.289951 -3.52047,1.289951 -2.816451,0 -2.8291641,-0.0098 -2.6342597,-2.03125 z m 9.5488947,1.370728 c -0.224524,-0.363287 -0.231819,-1.363379 -0.01621,-2.222426 0.34966,-1.393159 0.669878,-1.5412495 2.963937,-1.370728 2.991897,0.222394 4.363393,1.687521 3.055208,3.263787 -0.931903,1.122874 -5.362284,1.365958 -6.002933,0.329367 z"
       id="path3450"
       inkscape:connector-curvature="0" />
    <path
       style="fill:#505050"
       d="m 160.04549,36.278117 c -0.5916,-0.365628 -0.4108,-1.215054 0.75262,-3.535925 1.52481,-3.041831 1.52735,-3.078375 0.60073,-8.679692 -0.51178,-3.09375 -1.00045,-5.706741 -1.08591,-5.806647 -0.0855,-0.09991 -1.16087,0.411601 -2.38979,1.136682 -2.14847,1.267628 -3.36831,3.828297 -4.27691,8.977976 -0.23854,1.351991 -2.11271,2.74634 -2.78619,2.072868 -0.59667,-0.596678 0.84578,-8.303295 1.95597,-10.450167 0.9726,-1.880805 3.05695,-2.868283 7.00329,-3.317876 3.20778,-0.365451 3.71675,0.161404 4.28354,4.434038 0.23826,1.796094 0.74853,3.262579 1.13393,3.258856 0.3854,-0.0038 1.66401,-1.680019 2.84135,-3.725101 1.17734,-2.045082 2.56031,-3.87938 3.07326,-4.076218 2.29139,-0.879292 1.85571,1.091758 -1.53394,6.939497 -1.97057,3.3996 -4.43199,7.648228 -5.46982,9.441394 -1.98895,3.436537 -2.82803,4.117747 -4.10213,3.330315 z M 44.809101,29.930548 C 42.722158,28.716477 42.56373,26.822747 44.001538,20.277516 44.755077,16.847228 45.585846,13.693988 45.847691,13.270314 46.149498,12.781981 47.880924,12.5 50.577599,12.5 c 3.35711,0 4.600974,0.273066 5.900614,1.295363 1.984471,1.560984 2.107607,3.575226 0.354786,5.803576 -1.16457,1.480512 -1.212519,1.862315 -0.486146,3.871061 1.51028,4.176606 -1.523573,7.144832 -7.284353,7.126781 -1.71875,-0.0054 -3.632779,-0.30519 -4.253399,-0.666233 z m 7.665981,-3.338024 c 0.414225,-0.499111 0.655749,-1.413173 0.536719,-2.03125 -0.173809,-0.902515 -0.830012,-1.123774 -3.33286,-1.123774 -3.059144,0 -3.120042,0.03734 -3.31229,2.03125 -0.194392,2.016137 -0.175199,2.03125 2.579722,2.03125 1.663891,0 3.07722,-0.363465 3.528709,-0.907476 z M 54.0625,17.5 c 0,-1.420633 -0.269549,-1.579796 -2.96875,-1.752994 C 48.147716,15.557969 48.125,15.571382 48.125,17.5 c 0,1.928618 0.02272,1.942031 2.96875,1.752994 C 53.792951,19.079796 54.0625,18.920632 54.0625,17.5 Z m 5.651662,11.904461 c -1.057379,-1.16839 -1.047153,-1.50583 0.239341,-7.897886 0.739152,-3.672542 1.62439,-7.201424 1.967195,-7.841962 0.599208,-1.119627 1.87989,-1.53069 2.581877,-0.828706 0.405869,0.405869 -0.649237,6.072975 -2.390514,12.839781 -0.139858,0.543503 0.306251,1.634493 0.991352,2.424423 0.685106,0.789929 1.094256,1.681182 0.909231,1.980562 -0.603444,0.976392 -3.168006,0.57295 -4.298482,-0.676212 z M 67.2327,29.643414 C 66.224362,28.635074 66.004325,27.88866 66.232356,26.25 66.480975,24.463426 68.28,23.181422 71.47615,22.513228 75.278219,21.718359 76.567344,21.019111 75.980688,20.069877 75.4463,19.205225 72.086537,19.152087 71.5625,20 c -0.616056,0.996802 -3.4375,0.750733 -3.4375,-0.299798 0,-1.455486 4.844569,-3.637538 7.082363,-3.18998 4.148637,0.829727 4.827581,2.866457 3.340056,10.019671 l -0.773038,3.717392 -4.779493,0.189414 C 69.295819,30.583295 67.993256,30.403967 67.2327,29.643414 Z M 74.4375,26.8125 c 1.738912,-1.738914 0.748106,-2.728684 -2.181388,-2.179108 -2.423693,0.454688 -3.177843,1.191845 -2.643612,2.584037 0.513519,1.338213 3.31715,1.102923 4.825,-0.404929 z m 8.639425,1.985577 c -3.33495,-3.334951 -1.92225,-9.299089 2.724994,-11.504349 2.931369,-1.391025 4.231456,-1.317195 6.761906,0.383998 2.525519,1.697883 3.242681,4.197274 1.204337,4.197274 -0.725331,0 -2.097675,-0.575865 -3.049662,-1.2797 -1.415156,-1.046267 -2.039625,-1.162319 -3.4234,-0.636208 -3.228106,1.227323 -3.7188,6.294025 -0.740963,7.65082 1.207232,0.550049 1.841638,0.481432 3.085769,-0.333755 3.46935,-2.273204 5.651344,-0.454231 2.463306,2.053481 -2.571681,2.022883 -6.7159,1.778828 -9.026287,-0.531561 z m 13.380456,0.840856 c -0.442725,-1.153713 2.631156,-15.852472 3.496013,-16.717325 1.071386,-1.071392 2.724146,0.08838 2.304676,1.617236 -0.21105,0.769261 -0.56016,2.453344 -0.77578,3.742406 -0.47387,2.832891 0.65531,3.162855 2.8455,0.831504 1.83806,-1.956523 4.90577,-3.254192 5.7343,-2.42566 0.40674,0.406735 -0.35189,1.411938 -2.22227,2.944572 C 106.27792,20.911527 105,22.37792 105,22.890316 c 0,0.512396 0.7197,2.220739 1.59934,3.796318 1.05733,1.893856 1.38928,3.074746 0.97951,3.484517 -1.02389,1.02389 -2.44629,0.03889 -3.81331,-2.6407 C 103.05552,26.138703 102.24265,25 101.95916,25 c -0.816,0 -2.58416,2.193276 -2.58416,3.205463 0,0.999206 -1.185569,2.419537 -2.019612,2.419537 -0.285794,0 -0.689894,-0.44373 -0.898007,-0.986067 z m 16.217569,0.348508 c -2.03039,-0.816994 -2.34688,-3.220395 -1.19564,-9.079652 1.69454,-8.624343 1.52594,-8.407789 6.54593,-8.407789 3.41008,0 4.64888,0.269562 5.95297,1.295363 2.01723,1.586749 2.15507,4.020534 0.3373,5.955462 -1.19671,1.273836 -1.23858,1.589997 -0.48615,3.670806 1.49625,4.137814 -1.49345,7.213571 -6.95436,7.154539 -1.54687,-0.01673 -3.4369,-0.28165 -4.20005,-0.588729 z m 7.51711,-3.808739 c 1.18183,-1.886816 0.0671,-3.053702 -2.91719,-3.053702 -2.44072,0 -2.81112,0.186294 -3.16374,1.591243 -0.21965,0.875183 -0.22433,1.874468 -0.0104,2.220633 0.60722,0.98251 5.37253,0.389381 6.09131,-0.758174 z M 121.5625,17.5 c 0,-1.365332 -0.30744,-1.587674 -2.43638,-1.762001 -2.53403,-0.207496 -3.47381,0.486255 -3.49155,2.577495 -0.008,0.956793 0.44101,1.099082 2.95918,0.9375 2.6992,-0.173198 2.96875,-0.332362 2.96875,-1.752994 z m 7.70691,12.478288 c -0.5737,-0.334785 -1.51929,-1.855604 -2.10131,-3.379598 -1.00742,-2.637892 -1.00235,-2.884869 0.10559,-5.145296 1.2467,-2.54351 4.63611,-5.203394 6.63053,-5.203394 3.52369,0 6.72078,3.103972 6.72078,6.52504 C 140.625,24.649571 139.63258,25 134.32388,25 131.06791,25 130,25.212642 130,25.860972 c 0,1.436288 1.74624,2.432164 3.58802,2.046238 5.17325,-1.083998 5.78698,-1.139518 5.78698,-0.52351 0,0.357816 -0.74106,1.233488 -1.64679,1.945938 -1.78066,1.400671 -6.54415,1.765952 -8.4588,0.64865 z m 7.60559,-8.66142 c 0,-2.117821 -3.53329,-2.657872 -5.21699,-0.797398 -1.36611,1.509525 -0.7695,1.98053 2.50866,1.98053 2.24064,0 2.70833,-0.204309 2.70833,-1.183132 z m 5.40279,8.829216 c -0.37279,-0.603176 0.50413,-5.314127 1.58668,-8.523889 1.37518,-4.07744 6.81757,-6.812171 7.27073,-3.653445 0.15152,1.056221 -0.10893,1.40625 -1.04637,1.40625 -1.81357,0 -3.71184,2.774377 -4.19952,6.137737 -0.23325,1.60862 -0.67928,3.41695 -0.99119,4.018513 -0.58035,1.119309 -2.08968,1.473456 -2.62033,0.614834 z M 15.309043,28.119407 c -0.21435,-0.346826 -0.216562,-1.17619 -0.0049,-1.84303 0.809188,-2.549523 5.945872,-2.301574 5.945872,0.28701 0,0.785332 -0.444878,1.598592 -0.988617,1.807245 -1.550669,0.595047 -4.522487,0.444292 -4.95234,-0.251225 z m 9.981503,-2.529929 C 24.610442,24.489048 25.552278,21.982316 26.793901,21.58824 28.623248,21.007627 31.25,22.281927 31.25,23.75 c 0,1.935822 -4.954719,3.465174 -5.959454,1.839478 z M 6.9897362,19.53125 c 0.1829732,-1.590205 0.4074694,-1.71875 3.0017044,-1.71875 2.2474644,0 2.8488534,0.233214 3.0302454,1.175108 0.296032,1.537168 -0.905108,2.241028 -3.8444497,2.252821 -2.2352663,0.009 -2.3728275,-0.09851 -2.1875,-1.709179 z m 9.5693068,1.088157 c -0.21435,-0.346826 -0.211995,-1.190576 0.0053,-1.875 C 16.865712,17.794665 17.511641,17.5 19.292117,17.5 c 2.847898,0 4.026954,0.969553 3.15664,2.595748 -0.679942,1.270484 -5.180827,1.670661 -5.889714,0.523659 z m 9.935715,-2.758069 c -0.187557,-0.488764 -0.01971,-1.489021 0.372992,-2.222791 1.035844,-1.935493 5.228938,-1.590436 5.519337,0.454195 0.147509,1.038568 -0.230046,1.568589 -1.446937,2.03125 -2.315581,0.880383 -4.046002,0.778142 -4.445393,-0.262654 z m -18.1250005,-4.375 C 7.8096944,12.026838 9.2855588,10 10.908373,10 c 3.207,0 4.549812,1.791815 2.716627,3.625 -1.052561,1.052561 -4.8364394,0.952721 -5.2552425,-0.138662 z m 9.5917365,0.107412 c -0.163483,-0.429687 -0.06201,-1.414062 0.225492,-2.1875 C 18.592384,10.315653 19.200321,10 20.89537,10 c 2.704659,0 4.054709,1.835634 2.496248,3.394096 -1.168787,1.168788 -5.007695,1.309936 -5.430124,0.199654 z"
       id="path3448"
       inkscape:connector-curvature="0" />
    <path
       style="fill:#2e2e2e"
       d="m 160.00234,35.514578 c 0.001,-0.454893 0.58907,-1.789512 1.30618,-2.96582 1.21511,-1.993186 1.25604,-2.482344 0.60134,-7.1875 -0.38637,-2.776817 -0.85588,-5.822196 -1.04334,-6.767508 -0.27901,-1.406997 -0.11833,-1.71875 0.88592,-1.71875 1.29157,0 1.97397,1.537041 1.98903,4.480133 0.0246,4.798887 1.59019,4.706124 4.40255,-0.260848 1.94918,-3.442498 4.35598,-5.468225 4.35598,-3.666289 0,1.346631 -10.56029,18.51898 -11.50686,18.711582 -0.54623,0.111142 -0.99209,-0.170108 -0.9908,-0.625 z m -99.53359,-5.56464 c -0.618764,-0.360397 -1.090184,-1.369971 -1.085539,-2.324744 0.0097,-1.998882 2.204428,-12.9046 2.786498,-13.846408 0.340903,-0.551597 2.206791,-0.9727 2.204553,-0.497536 -4.06e-4,0.08594 -0.430987,2.265625 -0.956843,4.84375 -1.769653,8.676039 -1.825118,9.479603 -0.697863,10.110448 0.566744,0.317166 1.030444,0.984565 1.030444,1.483108 0,1.043336 -1.683402,1.162043 -3.28125,0.231382 z m 7.867463,0.05771 c -1.539013,-0.628352 -2.348,-2.573231 -1.795044,-4.315436 0.3834,-1.207989 1.624225,-1.830052 6.578456,-3.297974 1.751363,-0.518925 2.885281,-1.243812 3.014937,-1.927382 0.317419,-1.673461 -1.551562,-2.000499 -4.3139,-0.754856 -1.809281,0.815871 -2.67455,0.934106 -3.174837,0.433823 -1.023488,-1.023488 3.013831,-3.265628 5.885425,-3.268491 2.888044,-0.0029 5.1219,1.929336 4.606169,3.984188 -0.19025,0.758011 -0.535525,2.991546 -0.767282,4.963412 -0.231749,1.971866 -0.592656,3.681014 -0.802006,3.798108 -1.029112,0.575608 -8.047912,0.868016 -9.231918,0.384608 z m 5.059868,-1.9775 c 1.749144,-0.796963 2.687938,-2.821136 1.745506,-3.763565 -0.828981,-0.828982 -5.533643,0.474887 -5.988268,1.659611 -0.350906,0.914454 1.077087,2.823803 2.111918,2.823803 0.303019,0 1.2619,-0.323932 2.130844,-0.719848 z M 84.6875,29.903292 C 82.546369,28.732184 81.875,27.369097 81.875,24.193044 81.875,21.537229 82.160519,20.83948 84,19 c 1.640337,-1.640339 2.64525,-2.125 4.406037,-2.125 2.641025,0 5.643982,1.376631 6.20775,2.845786 0.874426,2.278708 -1.240262,2.905372 -3.051287,0.904214 -2.473475,-2.733158 -7.1875,-0.413258 -7.1875,3.537165 0,2.043481 1.628106,3.962835 3.3615,3.962835 0.591569,0 1.913619,-0.433369 2.937894,-0.963042 3.355325,-1.735106 4.2861,0.243362 1.044356,2.219892 -2.237588,1.364282 -5.101919,1.576703 -7.03125,0.521443 z m 45.50147,0.08934 C 128.55342,29.333968 126.875,26.330554 126.875,24.0625 c 0,-2.404204 1.64951,-5.163797 3.72954,-6.239421 4.32334,-2.235686 9.23073,-0.152387 9.54463,4.051921 l 0.16333,2.1875 -4.99397,0.3125 c -5.47613,0.342672 -6.51466,1.223784 -4.06036,3.444896 1.15245,1.042956 1.53749,1.08685 3.30439,0.376691 3.67397,-1.476651 4.18744,-1.528777 4.18744,-0.42509 0,1.160585 -3.51284,2.876334 -5.76117,2.813887 -0.78449,-0.02179 -2.04442,-0.288529 -2.79985,-0.592755 z m 6.32241,-7.246997 c 1.4351,-0.5507 1.212,-1.94545 -0.48952,-3.060329 -2.33223,-1.528136 -6.02245,0.28296 -5.15936,2.532126 0.357,0.930324 3.76945,1.249408 5.64888,0.528203 z m -92.436084,6.018507 c -0.814422,-0.899926 -1.013677,-1.791842 -0.733033,-3.28125 1.470413,-7.803658 2.342065,-11.363796 2.96648,-12.11617 1.171544,-1.411625 9.068759,-0.739217 10.720797,0.912821 1.097591,1.097591 0.675751,3.858873 -0.835227,5.467236 -1.233577,1.313083 -1.343407,1.745957 -0.703125,2.771212 1.210029,1.937564 0.908338,4.623647 -0.68772,6.123066 -2.025062,1.902446 -9.044984,1.982987 -10.728172,0.123085 z m 8.761716,-1.909482 c 1.162104,-0.964461 1.17251,-2.736217 0.02168,-3.691322 -0.49022,-0.406847 -2.085549,-0.652222 -3.545174,-0.545278 -2.270842,0.16638 -2.737058,0.445538 -3.230279,1.934207 -0.849033,2.562598 0.401725,3.789637 3.446592,3.381235 1.316807,-0.176621 2.805039,-0.6621 3.307182,-1.078842 z m 1.180845,-7.8368 C 54.558036,18.477679 55,17.643824 55,17.164847 55,15.270693 49.815925,14.184075 48.25,15.75 c -0.808442,0.808442 -1.012425,3.154241 -0.333333,3.833333 0.807502,0.807503 5.128714,0.407001 6.10119,-0.565476 z M 96.25,29.506312 c 0,-0.271529 0.388513,-2.029341 0.863356,-3.90625 0.474844,-1.87691 1.051432,-4.537562 1.2813,-5.912562 0.701825,-4.198024 1.655274,-6.5625 2.646254,-6.5625 0.7676,0 0.85615,0.496268 0.47398,2.65625 -1.05353,5.954293 -0.33798,6.660829 3.36119,3.318857 1.4138,-1.277293 3.09622,-2.213756 3.94967,-2.198459 1.36474,0.02446 1.26876,0.2182 -1.1695,2.360793 -2.83273,2.489225 -3.28716,4.155483 -1.78383,6.540798 0.47984,0.761343 1.06129,2.017073 1.29212,2.790511 0.33277,1.114977 0.17172,1.40625 -0.7775,1.40625 -0.79217,0 -1.57859,-0.845777 -2.32454,-2.5 -1.64014,-3.63718 -4.00032,-3.268043 -5.017506,0.784746 C 98.765369,29.398841 98.200137,30 97.432244,30 96.782013,30 96.25,29.77784 96.25,29.506312 Z m 15.61311,-0.458139 c -1.24182,-1.496297 0.27123,-12.94246 2.08419,-15.766923 0.86943,-1.354501 8.99609,-0.587861 10.58224,0.99829 1.09759,1.097591 0.67575,3.858873 -0.83523,5.467236 -1.23357,1.313083 -1.3434,1.745956 -0.70312,2.771212 1.21003,1.937564 0.90833,4.623647 -0.68772,6.123066 C 121.12162,29.751341 120.10636,30 116.75499,30 c -2.91113,0 -4.33126,-0.276317 -4.89188,-0.951827 z m 8.4739,-2.193516 C 122.54179,25.024854 120.89687,22.5 117.5,22.5 c -1.2375,0 -2.5875,0.3375 -3,0.75 -0.83096,0.830964 -1.01423,3.773982 -0.28125,4.516548 0.65042,0.658925 5.00813,0.0094 6.11826,-0.911891 z m 1.21207,-7.868018 c 1.38193,-1.381931 0.9584,-2.906507 -0.99863,-3.594757 -2.42742,-0.853677 -4.71881,-0.05031 -5.18795,1.818921 -0.22041,0.878175 -0.23491,1.864998 -0.0322,2.19294 0.61016,0.987257 5.11671,0.684996 6.21881,-0.417104 z m 20.95092,9.9405 c 0,-3.243746 1.99184,-8.703854 3.76962,-10.333389 2.16465,-1.98416 5.19689,-2.373821 4.86357,-0.625 -0.11465,0.601562 -0.84533,1.184532 -1.62372,1.295487 -1.91011,0.272274 -3.25943,2.510885 -4.1123,6.822574 -0.50773,2.566811 -1.02091,3.647082 -1.80342,3.79629 C 142.86881,30.021331 142.5,29.698984 142.5,28.927139 Z m 8.34516,-0.344249 c 0.19562,-0.779411 0.68115,-2.934728 1.07894,-4.789594 0.41217,-1.92187 1.34051,-3.98972 2.15826,-4.807474 1.38855,-1.388555 4.41559,-2.571205 5.02396,-1.962837 0.6454,0.6454 -0.52406,2.258604 -1.88493,2.600161 -1.54268,0.387187 -2.29043,1.884468 -3.54362,7.095604 C 153.06585,29.263301 152.61936,30 151.68909,30 c -0.93467,0 -1.12105,-0.312975 -0.84393,-1.41711 z M 15.468066,27.759732 c -0.233248,-0.233247 -0.134337,-0.965487 0.219801,-1.6272 0.929524,-1.736832 5.249633,-1.382996 5.249633,0.429968 0,1.012874 -0.478553,1.28522 -2.522674,1.435659 -1.387471,0.102113 -2.713513,-0.0052 -2.94676,-0.238427 z m 10.27167,-3.853482 c 0.162274,-1.410309 0.543798,-1.752518 2.125998,-1.906916 1.173765,-0.114541 2.243032,0.191142 2.732778,0.78125 1.190459,1.434415 -0.249106,2.844416 -2.904054,2.844416 -1.979442,0 -2.136587,-0.138174 -1.954722,-1.71875 z M 7.6147362,19.536594 c 0.21402,-1.854245 1.4587313,-2.404649 3.9971978,-1.767534 3.074763,0.771716 0.783335,3.48094 -2.9441353,3.48094 -0.9950181,0 -1.2103818,-0.350411 -1.0530625,-1.713406 z m 9.3749998,0 c 0.21402,-1.854245 1.458731,-2.404649 3.997198,-1.767534 3.035283,0.761807 1.043463,3.48094 -2.54986,3.48094 -1.424838,0 -1.618623,-0.229409 -1.447338,-1.713406 z M 26.875,16.951528 c 0,-0.64541 0.394973,-1.50127 0.877717,-1.901912 0.929161,-0.771135 3.874781,-0.330718 4.494494,0.671999 C 32.913471,16.799646 31.115052,18.125 28.985972,18.125 27.337556,18.125 26.875,17.867869 26.875,16.951528 Z M 8.75,12.235344 c 0,-1.897473 2.263651,-2.740304 4.354494,-1.621319 2.236173,1.196764 1.332997,2.795506 -1.703636,3.015661 C 8.9287631,13.808912 8.75,13.714883 8.75,12.235344 Z m 9.375,0.37712 c 0,-0.665175 0.438679,-1.573479 0.974842,-2.018455 1.373217,-1.139669 4.337658,-0.04036 4.337658,1.608542 0,1.006068 -0.492301,1.270568 -2.65625,1.427135 -2.276078,0.16468 -2.65625,0.01909 -2.65625,-1.017222 z"
       id="path3446"
       inkscape:connector-curvature="0" />
    <path
       style="fill:#0c0c0c"
       d="m 161.64277,32.843214 c 1.44847,-2.591606 1.53988,-3.14821 0.9563,-5.82311 C 161.33278,21.215889 161.12969,17.5 162.07876,17.5 c 0.59322,0 1.04946,1.246395 1.42777,3.900514 0.76884,5.39395 2.0556,5.551505 4.5752,0.560203 1.83191,-3.628984 2.91356,-4.92376 3.56723,-4.270091 0.55731,0.557313 -9.6198,17.614335 -10.63234,17.819984 -0.76033,0.154424 -0.62225,-0.433773 0.62615,-2.667396 z M 44.935079,28.823108 c -1.436451,-1.163169 -1.443769,-1.234205 -0.627543,-6.09184 0.454222,-2.703221 1.147538,-5.900182 1.540703,-7.104358 0.705216,-2.159914 0.76728,-2.191912 4.606844,-2.375121 4.444538,-0.212076 6.239629,0.499772 6.78999,2.692587 0.279799,1.114806 -0.05787,2.059425 -1.237202,3.460974 -1.536992,1.826611 -1.572471,2.023526 -0.676692,3.755771 1.352242,2.614948 0.603049,4.898459 -1.95824,5.968633 -2.958112,1.235978 -6.70077,1.099964 -8.43786,-0.306646 z M 52.541088,27.47801 C 54.425827,26.469329 54.171991,23.254502 52.146812,22.484531 48.203954,20.985458 45.625,22.368537 45.625,25.982143 c 0,2.127587 0.02034,2.142857 2.853588,2.142857 1.569474,0 3.397599,-0.291146 4.0625,-0.64699 z M 54.6875,17.5 l 0,-2.1875 -3.284261,-0.189017 c -3.075181,-0.176983 -3.325482,-0.0806 -3.931759,1.514031 -1.083174,2.848962 -0.414786,3.44763 3.61471,3.237652 l 3.60131,-0.187666 0,-2.1875 z m 5.291954,11.211609 c -0.51845,-0.968732 -0.45785,-2.248035 0.24425,-5.15625 0.513577,-2.127323 1.117203,-5.04698 1.341394,-6.488129 0.224189,-1.441149 0.849878,-2.987314 1.390421,-3.435924 0.879993,-0.730333 0.935769,-0.488933 0.533181,2.30777 -0.247294,1.717883 -0.864925,4.76013 -1.372513,6.760548 -0.90505,3.566822 -0.730215,6.050376 0.425932,6.050376 0.320581,0 0.582881,0.28125 0.582881,0.625 0,1.154962 -2.448787,0.638516 -3.145546,-0.663391 z m 7.885434,0.466484 c -0.722169,-0.528063 -1.0254,-1.424898 -0.887257,-2.624164 0.2207,-1.91597 0.979081,-2.335621 7.279781,-4.028291 2.247182,-0.6037 2.662532,-0.951524 2.5,-2.09356 -0.165525,-1.163072 -0.571862,-1.358969 -2.694912,-1.299214 -1.375,0.0387 -3.203125,0.29841 -4.0625,0.577134 -1.402275,0.454805 -1.47545,0.40062 -0.7136,-0.528415 1.137663,-1.38732 4.681213,-2.30743 6.752775,-1.75341 2.720744,0.727639 3.052656,1.902093 2.047887,7.246332 l -0.899562,4.784658 -4.112744,0.260583 c -2.734631,0.173265 -4.480375,-0.0082 -5.209869,-0.541653 z m 7.052143,-1.734936 C 76.808594,25.680898 76.414644,24.110295 74.022219,23.875682 71.066088,23.585789 68.75,24.713552 68.75,26.442864 c 0,0.810592 0.1875,1.661303 0.416669,1.890469 0.904075,0.904077 4.406412,0.361903 5.750362,-0.890176 z m 8.416131,0.946826 c -1.382312,-1.382315 -1.565537,-2.004655 -1.295506,-4.400363 0.535394,-4.749977 4.478213,-7.630734 8.807806,-6.435276 1.928513,0.532488 3.529538,2.048476 3.529538,3.342068 0,0.73856 -1.42595,0.305913 -2.954456,-0.896412 -2.184038,-1.717966 -3.698225,-1.568474 -5.843619,0.576923 -2.15655,2.156546 -2.326594,4.244279 -0.531563,6.52629 1.511369,1.921398 2.879557,2.062181 5.488638,0.564773 2.346637,-1.346785 3.428675,-0.486152 1.428012,1.135814 -2.259068,1.831456 -6.591337,1.623691 -8.62885,-0.413818 z M 96.875,29.209256 c 0,-1.852437 3.16762,-15.126873 3.74819,-15.707452 1.00798,-1.007973 1.26567,-0.104368 0.61612,2.160465 -0.88614,3.089784 -0.78023,6.212731 0.21069,6.212731 0.45375,0 2.00191,-1.007386 3.44034,-2.238636 1.43844,-1.231249 2.94641,-2.128282 3.35104,-1.993405 0.40463,0.134877 -0.29977,1.03502 -1.56534,2.000317 -2.62671,2.003485 -2.8104,3.158106 -1.05104,6.606724 1.47662,2.894424 1.57757,3.836468 0.36106,3.369652 -0.48891,-0.187614 -1.33039,-1.444412 -1.86993,-2.792884 -1.48045,-3.699985 -4.15768,-3.162597 -5.287324,1.061299 C 98.339281,29.718484 96.875,30.708648 96.875,29.209256 Z m 15.57344,-0.510813 c -1.11648,-1.116486 -1.24001,-1.748997 -0.86877,-4.448257 0.23802,-1.730683 0.89721,-4.871545 1.46485,-6.979692 l 1.03207,-3.832994 3.88524,-0.185711 c 4.4379,-0.212127 6.23305,0.500452 6.78325,2.692587 0.28076,1.118684 -0.0614,2.0636 -1.26537,3.494447 -1.56578,1.860827 -1.599,2.039308 -0.64915,3.488958 1.4913,2.276002 0.69572,4.864371 -1.86924,6.081527 -3.01386,1.43017 -6.91428,1.287738 -8.51288,-0.310865 z m 7.59265,-1.220433 c 0.78135,-0.418167 1.20891,-1.307818 1.20891,-2.515469 0,-1.461538 -0.37291,-2.010262 -1.71224,-2.519475 -3.89337,-1.480252 -6.37937,0.179492 -6.40423,4.275684 -0.008,1.254246 0.29992,1.40625 2.84506,1.40625 1.56947,0 3.3976,-0.291146 4.0625,-0.64699 z M 122.1875,17.5 l 0,-2.1875 -3.20959,-0.186427 c -3.0244,-0.175671 -3.24427,-0.08552 -3.81063,1.5625 -0.99134,2.884594 -0.43686,3.390783 3.48833,3.184521 l 3.53189,-0.185594 0,-2.1875 z m 6.84659,10.965909 c -3.10448,-3.104478 -1.28901,-9.499776 3.10876,-10.951172 1.90222,-0.62779 2.59159,-0.566885 4.57639,0.404316 2.41776,1.183065 3.78897,3.605095 3.08281,5.445315 -0.31266,0.814761 -1.36068,1.010632 -5.40744,1.010632 -4.46239,0 -5.01961,0.128008 -5.01961,1.153132 0,2.666713 4.14496,4.156757 6.85506,2.464277 1.62965,-1.017732 2.52941,-0.0021 0.99325,1.121192 -2.02485,1.480605 -6.40755,1.133973 -8.18922,-0.647692 z m 8.9598,-6.671298 c 0.52775,-2.775528 -4.89954,-4.177907 -7.03532,-1.817889 -0.61076,0.674879 -0.9389,1.673062 -0.72943,2.218916 0.55073,1.435202 7.4837,1.077136 7.76475,-0.401027 z m 4.98742,7.853371 c -0.64102,-0.64102 1.6476,-9.053961 2.9167,-10.721752 0.0571,-0.07495 1.14394,-0.57091 2.41534,-1.102137 1.94371,-0.812134 2.31165,-0.826098 2.31165,-0.08774 0,0.482974 -0.69801,1.053322 -1.55113,1.267442 -1.88238,0.472448 -3.06413,2.634083 -4.04685,7.402451 -0.68967,3.346412 -1.17381,4.11362 -2.04571,3.241732 z m 8.29065,-0.429232 c 0.0121,-0.429688 0.41303,-2.605904 0.89102,-4.836038 C 153.0814,20.097667 155.10884,17.5 157.53485,17.5 c 1.79891,0 1.47407,0.878222 -0.61676,1.667422 -1.37818,0.520205 -1.98697,1.289451 -2.45793,3.105774 -0.3443,1.327867 -0.93704,3.609616 -1.31718,5.070554 -0.63278,2.431878 -1.92301,3.724851 -1.87102,1.875 z M 15.994406,27.592076 c -0.18115,-0.293108 0.03974,-1.037706 0.49087,-1.654662 0.954196,-1.30494 4.139724,-0.866228 4.139724,0.570125 0,1.399525 -3.875011,2.307095 -4.630594,1.084537 z m 9.868095,-2.874647 C 25.298338,23.247242 26.178506,22.5 28.474386,22.5 c 2.429806,0 2.96085,1.397395 0.941702,2.47801 -1.700356,0.910003 -3.145043,0.804066 -3.553587,-0.260581 z M 7.6077381,19.57218 c 0.15471,-0.815898 0.88725,-1.190077 2.6074199,-1.33186 2.027808,-0.167141 2.359483,-0.02431 2.177104,0.9375 -0.15471,0.815898 -0.88725,1.190077 -2.6074201,1.33186 -2.0278075,0.167141 -2.3594832,0.02431 -2.1771038,-0.9375 z m 9.7566129,0.708837 C 16.40728,19.323947 17.761837,18.125 19.800196,18.125 c 1.72556,0 2.124292,0.222591 1.959263,1.09375 -0.207413,1.094895 -3.553705,1.903671 -4.395108,1.062267 z m 9.971263,-2.528736 C 26.511612,16.928279 28.188518,15 29.729106,15 c 1.334108,0 2.776995,1.494959 2.066856,2.141445 -0.556755,0.50685 -4.081611,0.989572 -4.460348,0.610836 z M 9.2346431,13.401309 C 9.0428631,13.20953 9.0287906,12.506405 9.2033681,11.838809 9.4260488,10.987288 10.064522,10.625 11.34251,10.625 c 2.020626,0 3.134458,1.656178 1.717313,2.553508 -0.979667,0.620321 -3.292923,0.755059 -3.8251799,0.222801 z M 18.862781,12.34375 c 0.253326,-1.783709 3.422952,-2.3793569 4.044346,-0.760029 0.469247,1.22284 -0.723006,2.143035 -2.794346,2.156708 -1.148022,0.0076 -1.408157,-0.28308 -1.25,-1.396679 z"
       id="path3444"
       inkscape:connector-curvature="0" />
  </g>
</svg>
