<?xml version="1.0" encoding="UTF-8" standalone="no"?>
<!-- Created with Inkscape (http://www.inkscape.org/) -->

<svg
   xmlns:dc="http://purl.org/dc/elements/1.1/"
   xmlns:cc="http://creativecommons.org/ns#"
   xmlns:rdf="http://www.w3.org/1999/02/22-rdf-syntax-ns#"
   xmlns:svg="http://www.w3.org/2000/svg"
   xmlns="http://www.w3.org/2000/svg"
   xmlns:xlink="http://www.w3.org/1999/xlink"
   xmlns:sodipodi="http://sodipodi.sourceforge.net/DTD/sodipodi-0.dtd"
   xmlns:inkscape="http://www.inkscape.org/namespaces/inkscape"
   id="svg3410"
   version="1.1"
   inkscape:version="0.91 r13725"
   width="183.75"
   height="46.25"
   viewBox="0 0 183.75 46.25"
   sodipodi:docname="iOS.svg">
  <metadata
     id="metadata3416">
    <rdf:RDF>
      <cc:Work
         rdf:about="">
        <dc:format>image/svg+xml</dc:format>
        <dc:type
           rdf:resource="http://purl.org/dc/dcmitype/StillImage" />
        <dc:title></dc:title>
      </cc:Work>
    </rdf:RDF>
  </metadata>
  <defs
     id="defs3414" />
  <sodipodi:namedview
     pagecolor="#ffffff"
     bordercolor="#666666"
     borderopacity="1"
     objecttolerance="10"
     gridtolerance="10"
     guidetolerance="10"
     inkscape:pageopacity="0"
     inkscape:pageshadow="2"
     inkscape:window-width="640"
     inkscape:window-height="480"
     id="namedview3412"
     showgrid="false"
     inkscape:zoom="1.4258503"
     inkscape:cx="91.875"
     inkscape:cy="23.125"
     inkscape:window-x="0"
     inkscape:window-y="0"
     inkscape:window-maximized="0"
     inkscape:current-layer="svg3410" />
  <image
     width="183.75"
     height="46.25"
     preserveAspectRatio="none"
     style="image-rendering:optimizeQuality"
     xlink:href="file:///media/havoc/USB%20DISK/pics/_natives/iOS.png"
     id="image3418"
     x="0"
     y="0"
     sodipodi:absref="/media/havoc/USB DISK/pics/_natives/iOS.png" />
  <g
     id="g3561">
    <path
       style="fill:#fdfdfd"
       d="M 0,23.125 0,0 l 91.875,0 91.875,0 0,23.125 0,23.125 -91.875,0 L 0,46.25 0,23.125 Z"
       id="path3577"
       inkscape:connector-curvature="0" />
    <path
       style="fill:#e8e8e8"
       d="M 7.4000294,39.915992 C 5.9081382,38.414788 3.9140625,35.587266 2.96875,33.632609 1.4108471,30.411276 1.25,29.430309 1.25,23.150379 l 0,-6.928308 2.5501903,-2.76663 C 6.8897594,10.103654 9.6320844,9.0862006 14.146468,9.6167775 17.242699,9.9806788 17.5,9.9122125 17.5,8.7244225 17.5,5.0665999 21.093861,1.4350557 25,1.1457826 L 27.8125,0.9375 27.736771,3.3313164 C 27.6934,4.7022839 27.084531,6.504905 26.31181,7.5500663 L 24.962578,9.375 l 2.549749,0 c 3.723459,0 8.737673,2.787881 8.737673,4.858108 0,0.502905 -0.84375,1.875351 -1.875,3.04988 -1.544972,1.759626 -1.875,2.681848 -1.875,5.239454 0,2.800244 0.244611,3.341334 2.5,5.530114 1.375,1.334393 2.5,2.926645 2.5,3.538339 0,1.601471 -3.481818,6.794147 -6.092807,9.086626 -2.090457,1.835447 -2.439874,1.932843 -5.414678,1.509289 -3.986883,-0.567653 -7.802023,-0.564361 -12.342486,0.01065 l -3.53747,0.447991 -2.7125296,-2.729461 z m 38.2269786,-9.91224 c -0.387396,-0.723855 -0.611651,-4.287621 -0.534997,-8.501926 0.125415,-6.895119 0.203134,-7.288102 1.563973,-7.908141 1.991153,-0.907231 3.53646,0.436759 3.192984,2.777014 -0.317431,2.162797 0.337298,2.276851 1.273614,0.221863 1.749982,-3.840793 8.586855,-4.552378 12.031455,-1.252241 1.581576,1.515241 1.860169,1.599898 2.215732,0.673303 1.003893,-2.616098 7.389706,-3.825371 10.116162,-1.915684 1.595475,1.117512 1.870207,3.88166 0.440344,4.430351 -0.5218,0.200233 -1.782375,0.01875 -2.801275,-0.403291 -1.0189,-0.422043 -2.31115,-0.591369 -2.871663,-0.37628 -1.525831,0.585516 -0.06175,2.03086 2.55435,2.521641 4.640644,0.87059 6.091213,6.445268 2.491063,9.573389 -2.336219,2.029905 -7.880238,2.006581 -9.928588,-0.04177 l -1.448018,-1.448019 -1.683425,1.448019 C 59.610984,32.062262 55.091228,31.840667 52.209248,29.310255 50.299958,27.633876 50,27.532046 50,28.560255 c 0,2.616909 -3.182736,3.667511 -4.372992,1.443497 z M 59.97801,25.666088 C 61.588427,22.656996 60.02353,17.5 57.5,17.5 c -1.573506,0 -3.125,2.327241 -3.125,4.6875 0,3.903527 4.034926,6.408581 5.60301,3.478588 z m 12.357965,0.150138 c 0.143825,-0.438325 -0.867906,-1.04383 -2.4518,-1.467359 -1.483169,-0.396596 -3.048238,-1.009273 -3.477925,-1.361503 -0.586356,-0.480656 -0.78125,-0.261635 -0.78125,0.877957 0,1.071802 0.505506,1.722128 1.71875,2.211141 2.137969,0.861734 4.667338,0.729882 4.992225,-0.260236 z"
       id="path3575"
       inkscape:connector-curvature="0" />
    <path
       style="fill:#d7d7d7"
       d="M 9.6826763,41.348938 C 7.3049662,39.898918 4.7599205,36.575409 2.7945781,32.353949 1.5358767,29.65032 1.2611207,28.080293 1.2561056,23.562712 1.2491936,17.336513 1.8940024,15.585321 5.2920353,12.601808 8.012535,10.213177 9.7453838,9.7343369 14.05815,10.179454 l 3.322,0.34286 0.403252,-2.1495196 C 18.321919,5.5022536 21.454611,2.0498298 24.211512,1.2886128 26.903843,0.54522438 27.5,0.83561937 27.5,2.890474 27.5,4.7239393 26.602401,6.6290975 24.812952,8.59375 L 23.532108,10 l 3.702696,0.0023 c 5.546477,0.0035 9.736524,2.964487 7.855651,5.551366 -2.44887,3.368078 -3.211041,4.988466 -3.213119,6.831136 -0.0031,2.701317 0.890841,4.374338 3.582495,6.705096 l 2.197008,1.902434 -1.37282,2.690949 c -1.81473,3.557165 -5.934938,7.96856 -7.904201,8.462813 -0.877632,0.220272 -3.082624,-0.07961 -4.977694,-0.676982 -3.197165,-1.007818 -3.60311,-1.00907 -6.738307,-0.02079 -4.177482,1.316835 -4.670301,1.309817 -6.9811407,-0.09942 z m 44.3477367,-11.0686 c -1.048898,-0.517659 -2.455148,-1.847193 -3.125,-2.954519 L 49.6875,25.3125 l -0.3125,2.5 c -0.270833,2.166667 -0.520833,2.5 -1.875,2.5 l -1.5625,0 0,-8.125 0,-8.125 1.5625,0 c 1.303432,0 1.574447,0.310882 1.634557,1.875 0.03963,1.03125 0.109944,2.226562 0.15625,2.65625 0.114545,1.062897 1.334193,0.997112 1.334193,-0.07196 0,-1.571376 2.534928,-4.097676 4.715929,-4.69988 2.938901,-0.81147 6.081344,0.147113 8.014765,2.444853 1.470937,1.748109 1.584218,1.782167 1.962575,0.590064 0.625431,-1.970557 3.21305,-3.308111 6.309287,-3.261303 3.279344,0.04958 4.622444,0.956598 4.622444,3.121632 0,1.442498 -0.157919,1.528265 -2.03125,1.103206 -3.638538,-0.825585 -4.53125,-0.71639 -4.53125,0.554247 0,0.820701 0.758844,1.449823 2.458556,2.038278 3.46975,1.201259 4.728944,2.539255 4.728944,5.024892 0,2.419783 -2.068006,4.898121 -4.62205,5.539144 -2.308106,0.579299 -6.075025,-0.473941 -6.877775,-1.923044 -0.378219,-0.682757 -0.759094,-1.359672 -0.846388,-1.504257 -0.08729,-0.144585 -0.790418,0.328868 -1.5625,1.052117 -1.528073,1.431423 -4.307529,2.656577 -5.975725,2.634033 -0.579184,-0.0078 -1.911251,-0.437772 -2.960149,-0.955431 z M 60,26.25 c 2.24305,-2.24305 1.29802,-7.560381 -1.576446,-8.870076 -2.382236,-1.085419 -4.361054,1.074111 -4.361054,4.75932 0,4.605392 3.216181,6.832075 5.9375,4.110756 z m 12.453269,0.368809 c 0.580143,-0.699033 0.438019,-1.086627 -0.687538,-1.875 C 70.985356,24.197214 69.909525,23.75 69.375,23.75 c -0.534525,0 -1.56,-0.411946 -2.278831,-0.915434 -0.718832,-0.503489 -1.484538,-0.737864 -1.701569,-0.520834 -0.650406,0.650406 -0.449044,4.043689 0.215581,3.632927 0.3356,-0.207411 1.390288,0.04598 2.34375,0.563092 2.199138,1.192704 3.572363,1.22599 4.499338,0.109058 z"
       id="path3573"
       inkscape:connector-curvature="0" />
    <path
       style="fill:#c7c7c7"
       d="M 8.1967312,39.677952 C 6.7872437,38.404564 4.7216674,35.505964 3.5998029,33.227134 1.728981,29.426955 1.5625,28.598544 1.5625,23.089491 c 0,-5.611745 0.1133686,-6.147928 1.7549575,-8.300162 2.512362,-3.293876 6.1889181,-5.0228196 9.7695785,-4.594259 1.567755,0.187641 3.342651,0.531853 3.944214,0.764916 0.903762,0.350143 1.09375,0.07212 1.09375,-1.6005966 0,-2.3244663 1.879326,-5.6878866 3.917257,-7.0106945 1.801286,-1.1692035 4.760444,-1.72131303 5.222109,-0.9743232 0.768195,1.2429646 -0.533235,4.9380833 -2.445547,6.9435846 L 22.8125,10.422045 26.980906,10.36727 c 3.284135,-0.04315 4.533441,0.217052 5.889168,1.226593 2.830652,2.107844 3.28231,3.286551 1.734326,4.526129 -1.970203,1.57768 -2.7294,3.448259 -2.7294,6.724949 0,2.589208 0.293152,3.22027 2.539409,5.466527 2.915367,2.915367 2.909137,3.603468 -0.0734,8.106278 -2.967945,4.480778 -5.034175,5.714227 -8.60671,5.137827 -3.458837,-0.558055 -8.05322,-0.549639 -12.07487,0.02212 -2.724552,0.387349 -3.060472,0.270527 -5.4626978,-1.899739 z M 46.27199,29.416088 c -0.848584,-1.585592 -0.833535,-9.149702 0.02138,-10.747128 0.49016,-0.915871 0.462813,-1.496546 -0.10256,-2.177779 -1.002895,-1.208414 0.583914,-2.980264 2.135726,-2.384778 1.205222,0.462487 1.305383,1.120714 0.421773,2.771755 -0.418921,0.78276 -0.418921,1.29939 0,1.558298 0.90531,0.559511 0.797963,10.517271 -0.12331,11.438544 -1.047999,1.047999 -1.604637,0.939436 -2.35301,-0.458912 z m 6.225896,-0.572049 C 47.6129,23.959054 50.763503,13.75 57.156037,13.75 c 2.936599,0 5.704625,1.446686 6.812032,3.560253 0.853925,1.629772 0.884956,1.637417 1.302787,0.320947 0.235419,-0.741726 1.152456,-1.91843 2.037875,-2.614897 2.551931,-2.007349 7.944363,-1.547667 8.670156,0.739093 0.627475,1.977005 -0.541931,2.60852 -3.110443,1.679733 -1.957288,-0.707763 -2.388757,-0.682675 -3.261044,0.189616 -1.347444,1.34744 -0.685881,2.204965 2.326956,3.016238 4.3577,1.173407 5.822919,3.613819 4.246725,7.073189 -1.211962,2.65997 -5.780781,3.744958 -9.621231,2.28482 -1.216894,-0.462661 -1.594444,-0.992682 -1.446938,-2.03125 0.155644,-1.095867 0.543582,-1.361629 1.762088,-1.207143 4.4975,0.570207 5.910231,0.417953 6.123731,-0.659971 0.142907,-0.721502 -0.377475,-1.315303 -1.547981,-1.766387 -0.969788,-0.373733 -2.817938,-1.197212 -4.107,-1.829953 L 65,21.353849 l 0,1.53065 c 0,2.624714 -1.689388,5.737416 -3.669726,6.76149 -3.115333,1.611001 -6.749398,1.28104 -8.832388,-0.80195 z m 7.609151,-2.378407 C 61.753149,24.975922 61.686878,19.811878 60,18.125 c -2.853831,-2.853831 -6.25,-0.646322 -6.25,4.0625 0,4.603377 3.439747,6.918244 6.357037,4.278132 z"
       id="path3571"
       inkscape:connector-curvature="0" />
    <path
       style="fill:#b0b0b0"
       d="M 9.6875,40.726442 C 4.3777904,37.487137 0.39975944,27.223355 1.5307813,19.681161 2.4203607,13.749021 9.0777363,9.0435113 14.370874,10.605637 c 3.402542,1.004167 4.528542,0.84973 4.081187,-0.559759 -0.497685,-1.5680674 0.977296,-4.9811607 2.92981,-6.7795539 2.045595,-1.8841277 5.284683,-2.83601514 5.727115,-1.6830568 0.96147,2.5055511 -2.377962,7.5998452 -5.952452,9.0804467 -2.928755,1.21313 -1.609827,1.362969 2.537534,0.28828 4.458894,-1.1554159 7.694182,-0.598324 10.489653,1.80624 l 1.703653,1.46542 -1.946331,2.216748 c -3.63693,4.142235 -3.444436,8.473302 0.548836,12.34864 l 2.488268,2.414782 -1.731621,3.181559 c -2.022659,3.716291 -5.94588,7.489617 -7.78714,7.489617 -0.707858,0 -2.6557,-0.447674 -4.328539,-0.994832 -2.781481,-0.909777 -3.334107,-0.909777 -6.463628,0 -4.302292,1.25071 -4.691696,1.242133 -6.979719,-0.153726 z M 54.617573,30.04444 c -2.609916,-1.117766 -3.992743,-3.707373 -3.990237,-7.472477 0.0031,-4.662709 1.558608,-7.240438 4.989446,-8.268342 2.167671,-0.64945 2.878062,-0.60877 4.721668,0.270385 1.193558,0.569168 2.710013,1.92266 3.369906,3.00776 l 1.199794,1.97291 0.934988,-2.237737 c 0.73285,-1.753956 1.469937,-2.398013 3.409412,-2.979093 3.14,-0.940768 5.975988,-0.123065 6.259669,1.804859 0.221137,1.502829 -0.710313,1.726291 -3.219356,0.772353 -1.09945,-0.41801 -1.869107,-0.339275 -2.696938,0.275894 -1.597737,1.187293 -0.539981,2.77711 2.562288,3.851142 1.318862,0.456601 2.77905,1.146484 3.244856,1.533073 1.23245,1.022842 1.036381,4.55239 -0.34785,6.261843 -1.001363,1.236631 -1.76835,1.47549 -4.737881,1.47549 -2.771238,0 -3.73405,-0.261141 -4.419632,-1.198722 -0.6287,-0.859806 -0.689012,-1.424663 -0.2133,-1.997859 0.534582,-0.644128 1.06705,-0.606568 2.7451,0.193639 2.2395,1.067941 3.877225,0.796334 4.467094,-0.740842 0.529313,-1.379377 -0.642412,-2.50725 -3.491562,-3.360876 -1.36665,-0.409457 -2.887607,-1.319539 -3.379913,-2.022405 -0.838481,-1.197097 -0.923269,-1.073156 -1.340331,1.95924 -0.588325,4.277633 -2.805214,6.832163 -6.247294,7.198782 -1.375,0.146452 -3.093967,0.01189 -3.819927,-0.299017 z m 4.712796,-2.520554 c 3.010222,-1.611022 3.162394,-7.705604 0.249604,-9.996804 -2.042018,-1.606252 -2.263667,-1.59672 -4.336787,0.186503 -1.413937,1.216217 -1.701519,1.972377 -1.701519,4.473915 0,2.501537 0.287582,3.257698 1.701519,4.473915 1.887412,1.623484 2.445262,1.7412 4.087183,0.862471 z M 46.25,24.355384 c 0,-4.599032 0.185343,-5.715738 1.000578,-6.028573 1.520786,-0.58358 2.104319,0.941803 2.114851,5.528322 C 49.376844,28.825953 49.007657,30 47.433132,30 46.359624,30 46.25,29.476993 46.25,24.355384 Z m 0,-8.730384 c 0,-0.833333 0.416667,-1.25 1.25,-1.25 0.833333,0 1.25,0.416667 1.25,1.25 0,0.833333 -0.416667,1.25 -1.25,1.25 -0.833333,0 -1.25,-0.416667 -1.25,-1.25 z"
       id="path3569"
       inkscape:connector-curvature="0" />
    <path
       style="fill:#8e8e8e"
       d="M 8.536005,39.377649 C 5.8084966,36.982864 2.7616853,30.990214 1.7957191,26.120451 0.55019119,19.841324 2.7856834,14.280065 7.5277356,11.860851 10.359432,10.416227 12.277393,10.332671 16.5625,11.467252 c 2.646326,0.700675 3.713414,0.687022 6.966434,-0.08913 4.565802,-1.089382 7.664297,-0.655259 10.062351,1.409816 l 1.721215,1.482217 -1.328148,1.458675 c -4.101766,4.504876 -3.686606,10.342891 1.005433,14.13848 1.53837,1.244453 1.542636,1.275943 0.475903,3.512906 -0.59201,1.241458 -2.267807,3.54974 -3.723992,5.129514 -2.644064,2.868471 -2.651817,2.871712 -5.788403,2.419866 -3.778398,-0.544304 -8.362485,-0.536271 -12.273878,0.02151 -2.630942,0.375183 -3.080764,0.237575 -5.14341,-1.573452 z M 46.552172,28.618866 c -0.202911,-0.808463 -0.283596,-3.286555 -0.179301,-5.506872 0.154721,-3.293792 0.39559,-4.076184 1.308451,-4.250123 1.016912,-0.193765 1.102305,0.284967 0.9375,5.255785 -0.119078,3.591572 -0.441598,5.555162 -0.939521,5.720056 -0.417009,0.138098 -0.924217,-0.410383 -1.127129,-1.218846 z m 6.39265,-0.113472 C 48.323405,24.222409 51.226109,14.375 57.110015,14.375 c 3.152191,0 5.184663,1.117457 6.297366,3.462304 1.942656,4.093852 0.636125,10.008785 -2.529409,11.451098 -2.675834,1.219191 -6.141875,0.877091 -7.93315,-0.783008 z m 7.483646,-1.73934 c 2.101844,-1.974583 2.054418,-6.839986 -0.08756,-8.981963 C 57.125447,14.568629 53.125,17.009846 53.125,22.1875 c 0,5.093164 4.05186,7.633281 7.303468,4.578554 z M 66.375,29.25 c -1.315944,-1.315944 -0.91705,-2.574311 0.65625,-2.070228 3.271869,1.048305 5.227606,1.051365 6.09225,0.0095 1.215344,-1.464398 0.151731,-2.931088 -2.855562,-3.937732 -4.776382,-1.598819 -5.988863,-4.462466 -3.108844,-7.342482 1.833694,-1.833696 6.531512,-2.174313 7.862887,-0.570102 1.237594,1.491205 -0.03669,2.282804 -2.299656,1.428616 C 70.544,15.945379 68.906519,16.364889 68.3191,17.895672 67.855831,19.102927 70.1223,21.25 71.859956,21.25 73.661206,21.25 76.25,23.689142 76.25,25.386272 76.25,28.029872 73.646669,30 70.153406,30 68.487781,30 66.7875,29.6625 66.375,29.25 Z M 46.528843,16.195542 c -0.644075,-1.042136 0.804506,-2.237193 1.6667,-1.374999 C 48.916745,15.541745 48.465368,16.875 47.5,16.875 c -0.303176,0 -0.740196,-0.305756 -0.971157,-0.679458 z M 18.75,8.7257981 c 0,-2.3525944 3.942852,-6.771907 6.25,-7.0052609 1.385793,-0.1401644 1.552743,0.065565 1.476227,1.8191236 -0.09975,2.2860053 -1.697639,4.6773867 -4.07266,6.0950873 C 19.8135,11.180814 18.75,10.916233 18.75,8.7257981 Z"
       id="path3567"
       inkscape:connector-curvature="0" />
    <path
       style="fill:#6c6c6c"
       d="M 10.9375,40.672052 C 6.1648052,38.601939 1.364741,28.249524 2.0589346,21.523435 2.5030383,17.220484 3.8728258,14.725059 6.8848281,12.73181 c 2.2351938,-1.479181 2.8238725,-1.593609 6.0763209,-1.181123 4.551663,0.577257 8.888185,0.580217 13.34287,0.0091 2.661475,-0.341212 3.952146,-0.209427 5.429117,0.554345 2.781958,1.438606 2.910837,1.991621 1.036753,4.448671 -3.143803,4.121739 -2.660185,9.127582 1.233227,12.764885 0.892037,0.83336 1.621884,1.979167 1.621884,2.546238 0,1.548971 -4.027575,6.904514 -6.251306,8.312481 -1.917372,1.213993 -2.024523,1.215828 -5.716796,0.0979 -3.225977,-0.976747 -4.134201,-1.028429 -6.366099,-0.36226 -4.088556,1.220338 -5.0164,1.329869 -6.353299,0.750001 z M 54.638199,29.113176 c -2.52104,-1.097734 -3.633105,-3.84452 -3.234787,-7.989887 0.241249,-2.510732 0.687551,-3.561083 1.988675,-4.680263 1.667056,-1.43394 5.227487,-1.933514 7.517412,-1.054788 2.61347,1.002882 3.76792,7.880405 1.921989,11.450039 -0.513772,0.99353 -1.794178,2.081462 -2.905762,2.468962 -2.470945,0.861377 -2.899766,0.845638 -5.287527,-0.194063 z m 6.243742,-2.286129 c 4.084653,-4.85433 -0.598604,-13.579038 -5.548149,-10.335971 -2.158897,1.414563 -3.200023,5.192965 -2.235881,8.114345 1.432792,4.3414 5.115852,5.392576 7.78403,2.221626 z m 6.774309,2.55758 c -1.65545,-0.699669 -1.955394,-2.230809 -0.3125,-1.595226 2.945556,1.139543 4.421494,1.070354 5.761956,-0.27011 1.229225,-1.229225 1.273557,-1.492565 0.458088,-2.721355 C 73.067238,24.049696 71.680094,23.15625 70.481256,22.8125 66.223712,21.591707 64.953762,18.796235 67.5,16.25 c 1.373387,-1.373386 6.470194,-1.785626 7.2132,-0.583418 0.676663,1.094869 -0.07157,1.303106 -1.819931,0.506497 -2.267225,-1.033015 -4.768269,0.107548 -4.768269,2.174493 0,1.784835 0.910806,2.64472 3.440994,3.248625 1.029331,0.245679 2.363693,0.87438 2.965256,1.397114 1.436375,1.24815 1.395475,4.039898 -0.07873,5.374036 -1.437369,1.300802 -4.899363,1.819 -6.796269,1.01728 z M 46.875,24.375 c 0,-2.916667 0.260417,-5 0.625,-5 0.364583,0 0.625,2.083333 0.625,5 0,2.916667 -0.260417,5 -0.625,5 -0.364583,0 -0.625,-2.083333 -0.625,-5 z m 0,-8.75 C 46.875,15.28125 47.15625,15 47.5,15 c 0.34375,0 0.625,0.28125 0.625,0.625 0,0.34375 -0.28125,0.625 -0.625,0.625 -0.34375,0 -0.625,-0.28125 -0.625,-0.625 z M 19.141973,9.50359 c -0.624195,-1.0099687 1.999018,-5.4765575 3.837891,-6.53484 2.521194,-1.4509626 3.270972,-1.3792221 3.266018,0.3125 -0.0099,3.3889256 -5.748529,8.415391 -7.103909,6.22234 z"
       id="path3565"
       inkscape:connector-curvature="0" />
    <path
       style="fill:#535353"
       d="M 8.7187513,38.167563 C 3.2731102,32.443006 0.98101437,22.907461 3.700347,17.290069 6.0793149,12.375778 9.8419669,10.817832 15.725554,12.31097 c 3.472787,0.881325 4.228088,0.882331 7.819188,0.01041 4.157218,-1.009374 6.882663,-0.705192 9.260537,1.033553 1.146747,0.838522 1.131472,0.93018 -0.472752,2.836691 -3.285243,3.90429 -2.783094,9.869437 1.142473,13.571724 l 2.086195,1.967535 -1.738032,2.740593 C 32.023324,37.309527 28.536025,40.625 27.350729,40.625 c -0.3731,0 -2.179646,-0.473238 -4.014547,-1.051639 -3.126424,-0.985519 -3.54594,-0.985519 -6.672365,0 -4.68175,1.475791 -5.309545,1.36471 -7.9450658,-1.405798 z M 52.481456,26.215351 c -0.378138,-0.706557 -0.594913,-1.56248 -0.481723,-1.90205 0.11319,-0.33957 0.528874,0.238522 0.923743,1.28465 0.821199,2.175603 0.575541,2.51873 -0.44202,0.6174 z M 74.4475,25.674213 C 74.407625,25.185655 73.909537,24.271592 73.340631,23.642963 72.771731,23.014333 72.596669,22.5 72.951606,22.5 c 1.069706,0 2.171044,1.740066 1.860007,2.938726 -0.174857,0.673845 -0.320638,0.768128 -0.364113,0.235487 z M 67.625,21.125 c -0.4125,-0.4125 -0.727794,-1.326563 -0.700656,-2.03125 0.03469,-0.901072 0.151625,-1.003071 0.394056,-0.34375 0.189587,0.515625 0.773475,1.429687 1.297525,2.03125 1.062275,1.219408 0.188013,1.522689 -0.990925,0.34375 z m -5.881338,-2.864103 -1.068836,-2.323397 1.225086,1.47549 c 0.6738,0.811519 1.225088,1.866207 1.225088,2.34375 0,1.285581 -0.202844,1.065926 -1.381338,-1.495843 z M 19.693662,7.96875 C 20.129012,6.4492244 23.954324,2.5 24.990822,2.5 c 1.283989,0 0.57904,2.5193037 -1.305567,4.6657525 -2.263812,2.5783388 -4.637019,3.0557625 -3.991593,0.8029975 z"
       id="path3563"
       inkscape:connector-curvature="0" />
  </g>
</svg>
