<?xml version="1.0" encoding="UTF-8" standalone="no"?>
<!-- Created with Inkscape (http://www.inkscape.org/) -->

<svg
   xmlns:dc="http://purl.org/dc/elements/1.1/"
   xmlns:cc="http://creativecommons.org/ns#"
   xmlns:rdf="http://www.w3.org/1999/02/22-rdf-syntax-ns#"
   xmlns:svg="http://www.w3.org/2000/svg"
   xmlns="http://www.w3.org/2000/svg"
   xmlns:xlink="http://www.w3.org/1999/xlink"
   xmlns:sodipodi="http://sodipodi.sourceforge.net/DTD/sodipodi-0.dtd"
   xmlns:inkscape="http://www.inkscape.org/namespaces/inkscape"
   id="svg3420"
   version="1.1"
   inkscape:version="0.91 r13725"
   width="183.75"
   height="46.25"
   viewBox="0 0 183.75 46.25"
   sodipodi:docname="KindleFire.svg">
  <metadata
     id="metadata3426">
    <rdf:RDF>
      <cc:Work
         rdf:about="">
        <dc:format>image/svg+xml</dc:format>
        <dc:type
           rdf:resource="http://purl.org/dc/dcmitype/StillImage" />
        <dc:title></dc:title>
      </cc:Work>
    </rdf:RDF>
  </metadata>
  <defs
     id="defs3424" />
  <sodipodi:namedview
     pagecolor="#ffffff"
     bordercolor="#666666"
     borderopacity="1"
     objecttolerance="10"
     gridtolerance="10"
     guidetolerance="10"
     inkscape:pageopacity="0"
     inkscape:pageshadow="2"
     inkscape:window-width="640"
     inkscape:window-height="480"
     id="namedview3422"
     showgrid="false"
     inkscape:zoom="1.4258503"
     inkscape:cx="91.875"
     inkscape:cy="23.125"
     inkscape:window-x="0"
     inkscape:window-y="0"
     inkscape:window-maximized="0"
     inkscape:current-layer="svg3420" />
  <image
     width="183.75"
     height="46.25"
     preserveAspectRatio="none"
     style="image-rendering:optimizeQuality"
     xlink:href="file:///media/havoc/USB%20DISK/pics/_natives/KindleFire.png"
     id="image3428"
     x="0"
     y="0"
     sodipodi:absref="/media/havoc/USB DISK/pics/_natives/KindleFire.png" />
  <g
     id="g3524">
    <path
       style="fill:#fcfbfb"
       d="M 0,23.125 0,0 l 91.875,0 91.875,0 0,23.125 0,23.125 -91.875,0 L 0,46.25 0,23.125 Z"
       id="path3540"
       inkscape:connector-curvature="0" />
    <path
       style="fill:#f3cfa5"
       d="M 14.577609,40.387826 C 6.6142137,37.783373 1.25,30.619944 1.25,22.589993 1.25,17.134301 2.8622732,13.285061 6.7743112,9.4009156 12.272356,3.9420697 19.362033,2.3252799 26.277981,4.9531333 c 7.596923,2.8866029 12.09137,9.2604497 12.135155,17.2095927 0.05626,10.213807 -7.386617,18.127281 -17.717252,18.837481 -1.962982,0.134949 -4.658011,-0.134798 -6.118275,-0.612381 z M 45.915696,31.731053 C 45.734903,31.259914 45.665848,27.09175 45.762241,22.468468 L 45.9375,14.0625 l 1.5625,0 c 1.463775,0 1.574343,0.227068 1.74994,3.59375 0.189908,3.641077 0.646341,4.287381 1.932979,2.737077 0.664223,-0.800339 2.440909,-0.934629 15.312644,-1.157397 1.198049,-0.02074 2.189106,0.471887 2.937493,1.460139 1.051094,1.387984 1.185788,1.416411 1.941938,0.40984 0.446881,-0.594874 1.937506,-1.465743 3.312506,-1.935264 2.138631,-0.730279 2.545169,-1.161158 2.8125,-2.980909 0.307669,-2.09435 0.360812,-2.127236 3.4375,-2.127236 l 3.125,0 0.1856,4.628736 0.1856,4.628737 1.769969,-2.120139 c 1.513487,-1.812912 2.142562,-2.110368 4.341187,-2.052718 3.081932,0.08081 4.157182,0.868772 5.10515,3.741155 1.077194,3.263921 0.509644,3.986729 -3.130393,3.986729 -1.729538,0 -3.144613,0.246812 -3.144613,0.548472 0,1.158296 1.768712,1.941535 3.570581,1.581162 1.371488,-0.274298 1.9754,-0.112039 2.250419,0.604643 0.8994,2.343804 -4.069719,3.871961 -7.179188,2.207822 -0.9228,-0.493866 -1.465043,-0.493866 -1.958912,0 -0.878963,0.878961 -3.111838,0.878961 -3.9908,0 -0.493869,-0.493866 -1.036113,-0.493866 -1.958913,0 -2.062768,1.103963 -6.014993,0.82026 -7.766537,-0.557507 l -1.576925,-1.240408 -0.896294,1.349896 c -0.586887,0.883899 -1.258275,1.210993 -1.944862,0.947524 -0.830494,-0.31869 -1.048569,-1.235426 -1.048569,-4.40796 0,-2.798053 -0.282619,-4.240143 -0.9375,-4.783644 -1.751431,-1.453558 -2.8125,0.327873 -2.8125,4.721911 0,3.425746 -0.168156,3.997225 -1.279993,4.350108 -0.703995,0.22344 -1.663331,0.08811 -2.131857,-0.300732 C 59.127229,31.410016 58.734839,31.393896 58.456257,31.84465 58.233491,32.205093 56.991853,32.5 55.697061,32.5 c -1.703008,0 -2.760186,-0.432186 -3.822061,-1.5625 -1.81193,-1.928711 -2.356426,-1.961273 -2.612781,-0.15625 -0.22778,1.603826 -2.813893,2.337812 -3.346523,0.949803 z m 31.46256,-5.692534 c 0.232182,-3.561821 -1.217937,-4.6485 -3.100606,-2.323503 -1.485688,1.834747 -1.4543,2.858331 0.136412,4.449046 1.854826,1.854824 2.7464,1.215499 2.964194,-2.125543 z M 55.625,25.3125 c 0,-1.890625 -0.232224,-3.4375 -0.516054,-3.4375 -0.283829,0 -1.161918,0.687491 -1.951308,1.527759 l -1.435255,1.527758 1.482559,1.87516 c 0.815407,1.031339 1.693495,1.890723 1.951308,1.909742 0.257812,0.01902 0.46875,-1.512294 0.46875,-3.402919 z M 91.25,23.125 c 0,-0.34375 -0.421875,-0.625 -0.9375,-0.625 -0.515625,0 -0.9375,0.28125 -0.9375,0.625 0,0.34375 0.421875,0.625 0.9375,0.625 0.515625,0 0.9375,-0.28125 0.9375,-0.625 z m 10.07616,8.576159 C 100.94052,31.315522 100.625,29.14375 100.625,26.875 c 0,-2.26875 -0.29942,-4.424419 -0.665375,-4.790375 -1.020856,-1.020855 1.145075,-7.045219 2.804845,-7.801461 0.80385,-0.36626 2.57116,-0.401976 4.44156,-0.08976 2.54612,0.42501 3.14256,0.770508 3.30656,1.915366 0.24414,1.704428 -1.441,2.51775 -3.0869,1.489868 -1.72391,-1.076599 -3.05069,-0.877146 -3.05069,0.458607 0,1.291904 2.34661,2.202219 4.02079,1.559775 0.54732,-0.210026 1.38838,-0.05549 1.86903,0.343407 0.55027,0.456688 1.01387,0.498785 1.25188,0.113677 0.21014,-0.340011 3.426,-0.606061 7.242,-0.599133 6.64542,0.01206 6.90482,0.06434 8.14558,1.641713 0.80917,1.028687 1.21276,2.332676 1.09489,3.537535 -0.17053,1.743278 -0.40284,1.923682 -2.68667,2.0864 -3.78191,0.269453 -4.37002,0.573255 -3.39173,1.75204 0.58152,0.700684 1.40101,0.867287 2.89106,0.587753 2.52794,-0.474245 3.64051,1.177485 1.73276,2.572468 -2.02266,1.479012 -5.18863,1.049231 -7.21766,-0.979803 C 117.78066,29.126813 117.5,28.351652 117.5,25.627249 c 0,-2.72819 -0.16674,-3.187197 -1.09375,-3.010915 -0.87471,0.166335 -1.15633,1.056374 -1.40625,4.444274 -0.33816,4.584053 -1.42188,6.159566 -3.08991,4.492064 -0.7864,-0.786166 -1.03795,-0.779451 -1.95696,0.05224 -0.94697,0.857001 -1.15779,0.851143 -2.06635,-0.05742 -0.73767,-0.737671 -1.01178,-2.184966 -1.01178,-5.342141 0,-2.381696 -0.15911,-4.330357 -0.35359,-4.330357 -0.19447,0 -0.8976,0.291146 -1.5625,0.64699 -1.0148,0.543104 -1.20891,1.335209 -1.20891,4.933132 0,4.360509 -0.83922,5.830651 -2.42384,4.246037 z M 123.75,23.125 c 0,-0.34375 -0.42187,-0.625 -0.9375,-0.625 -0.51562,0 -0.9375,0.28125 -0.9375,0.625 0,0.34375 0.42188,0.625 0.9375,0.625 0.51563,0 0.9375,-0.28125 0.9375,-0.625 z M 55.242079,17.229357 c -0.670961,-1.748494 0.250951,-2.952433 2.098117,-2.739964 1.367629,0.157311 1.722304,0.519873 1.722304,1.760607 0,1.240734 -0.354675,1.603296 -1.722304,1.760607 -1.123165,0.129191 -1.853038,-0.142583 -2.098117,-0.78125 z"
       id="path3538"
       inkscape:connector-curvature="0" />
    <path
       style="fill:#eca457"
       d="M 15.3125,39.789531 C 11.508793,38.539932 9.9305475,37.587999 7.0252731,34.791009 -1.9746536,26.126526 1.5084766,10.141897 13.362914,5.7065837 19.991101,3.2266611 26.341802,4.3769194 31.628776,9.0149525 43.62079,19.535026 37.210294,38.759083 21.200599,40.287399 19.193442,40.479006 16.793534,40.276081 15.3125,39.789531 Z m 57.278638,-8.572278 c -1.963288,-1.196943 -2.146,-1.210186 -2.878369,-0.208614 -0.454957,0.62219 -1.199656,0.909196 -1.780632,0.686254 C 67.180706,31.406541 66.8876,30.259799 66.748006,27.062093 66.570481,22.995329 66.495275,22.8125 65,22.8125 c -1.436556,0 -1.575663,0.251886 -1.725819,3.125 -0.250906,4.800887 -0.644431,5.9375 -2.055704,5.9375 -0.691739,0 -1.43141,-0.45266 -1.643713,-1.005911 -0.354782,-0.924549 -0.431537,-0.924549 -0.94894,0 -0.382393,0.683297 -1.431944,1.005911 -3.272499,1.005911 -2.200523,0 -2.901899,-0.293544 -3.733352,-1.5625 -1.269829,-1.938004 -2.09692,-1.992816 -2.357754,-0.15625 C 49.115926,31.186325 48.644527,31.5625 47.5,31.5625 l -1.5625,0 -0.173757,-8.190193 c -0.182099,-8.583445 0.257298,-10.150606 2.594539,-9.253722 0.7798,0.299238 1.016718,1.248402 1.016718,4.073283 0,3.948211 0.406842,4.400737 2.1875,2.433132 0.622179,-0.6875 1.492921,-1.25 1.934982,-1.25 1.600624,0 1.604393,1.387767 0.0083,3.053737 -0.896927,0.936189 -1.621887,2.108647 -1.611024,2.605462 0.01938,0.88652 2.71527,4.340801 3.387769,4.340801 0.188363,0 0.342479,-2.118202 0.342479,-4.707116 0,-3.791496 0.199941,-4.78384 1.02788,-5.10155 0.612308,-0.234964 1.340486,0.03308 1.801083,0.662985 0.587584,0.803568 0.848533,0.861115 1.086988,0.239708 0.20756,-0.540893 1.712254,-0.859154 4.444818,-0.940134 3.789506,-0.112302 4.216212,0.0076 5.161312,1.449979 l 1.030275,1.572401 1.432988,-1.346222 c 0.788143,-0.740423 2.365425,-1.535327 3.505075,-1.766455 1.756137,-0.356156 2.101412,-0.719485 2.264456,-2.382869 0.232206,-2.368928 1.697137,-3.853716 2.756744,-2.79411 0.516087,0.516088 0.933456,0.522061 1.536012,0.02198 0.606119,-0.503036 1.078063,-0.478595 1.764869,0.0914 0.727619,0.603868 0.9375,2.291812 0.9375,7.539642 0,3.718873 0.239056,6.90933 0.531231,7.089905 0.292175,0.180575 0.402544,-1.010916 0.245269,-2.647759 -0.245294,-2.552781 -0.04625,-3.26095 1.399325,-4.978933 3.342375,-3.972188 9.439075,-1.739933 8.94835,3.276364 -0.179381,1.83369 -0.314931,1.915665 -3.467925,2.097193 -1.804687,0.103902 -3.28125,0.399214 -3.28125,0.65625 0,1.116517 1.675831,1.967338 3.875,1.967338 1.669094,0 2.375,0.272112 2.375,0.91551 0,2.115387 -4.367637,2.895368 -6.774194,1.20975 -1.308231,-0.91632 -1.519506,-0.91632 -2.532031,0 -1.3807,1.249514 -2.810462,1.277186 -3.809244,0.07373 -0.678893,-0.81802 -0.922706,-0.81802 -2.090593,0 -1.845988,1.292979 -4.73125,1.150081 -7.2028,-0.356733 z M 59.202957,24.229943 C 59.063856,23.106599 58.947176,23.875 58.943668,25.9375 c -0.0035,2.0625 0.110302,2.981599 0.252911,2.042443 0.142609,-0.939156 0.145479,-2.626656 0.0064,-3.75 z M 77.5,25.9375 c 0,-3.236915 -0.08989,-3.4375 -1.540513,-3.4375 -2.585681,0 -3.819637,3.925567 -1.852343,5.892857 0.540175,0.540179 1.52455,0.982143 2.1875,0.982143 C 77.339012,29.375 77.5,28.915895 77.5,25.9375 Z M 91.875,23.125 c 0,-0.34375 -0.5625,-0.625 -1.25,-0.625 -0.6875,0 -1.25,0.28125 -1.25,0.625 0,0.34375 0.5625,0.625 1.25,0.625 0.6875,0 1.25,-0.28125 1.25,-0.625 z m 27.99901,6.845157 c -1.71803,-1.718019 -1.87264,-2.190664 -1.57637,-4.819086 C 118.67445,21.808034 120.37724,20 123.14887,20 c 2.07427,0 4.50499,2.677216 4.22267,4.650871 -0.1549,1.082888 -0.70363,1.316544 -3.46529,1.475541 -2.63466,0.151686 -3.28125,0.404165 -3.28125,1.28125 0,1.742481 1.30921,2.59084 4.03125,2.612215 2.36134,0.01854 2.44982,0.08147 1.31804,0.9375 -1.89786,1.435473 -4.02122,1.091847 -6.10028,-0.98722 z M 125,23.45949 c 0,-1.326723 -1.98984,-2.232178 -3.29739,-1.500439 -1.9071,1.067269 -1.28752,2.415949 1.10989,2.415949 1.50442,0 2.1875,-0.285879 2.1875,-0.91551 z m -23.35032,7.356852 C 101.42986,30.596521 101.25,28.51139 101.25,26.182719 c 0,-2.328672 -0.27549,-4.40421 -0.6122,-4.612308 -0.38168,-0.235888 -0.39589,-0.779305 -0.0378,-1.443136 0.31594,-0.585626 0.73982,-1.847777 0.94194,-2.804781 0.43353,-2.052665 3.06569,-3.589816 4.20174,-2.453766 0.52976,0.529761 0.28765,0.870332 -0.95445,1.342578 -2.058,0.78245 -2.20614,2.829718 -0.27937,3.860893 l 1.3849,0.74118 -1.3849,0.919543 c -1.18675,0.787973 -1.38491,1.484627 -1.38491,4.868925 0,3.676549 -0.52202,5.167794 -1.47532,4.214495 z m 6.47532,-4.826759 c 0,-4.414447 0.17052,-5.364583 0.96277,-5.364583 0.80329,0 0.93271,0.845856 0.78125,5.105944 -0.12063,3.393142 -0.44359,5.192705 -0.96277,5.364584 -0.58441,0.193473 -0.78125,-1.093004 -0.78125,-5.105945 z m 4.16667,4.84375 c -0.22917,-0.229166 -0.41667,-2.619791 -0.41667,-5.3125 0,-4.657965 0.0683,-4.896247 1.40625,-4.904367 0.77344,-0.0047 2.03906,-0.178122 2.8125,-0.385395 1.03383,-0.277057 1.40625,-0.109278 1.40625,0.633535 0,0.587697 -0.51374,1.010394 -1.22801,1.010394 -1.72815,0 -2.52199,1.855985 -2.52199,5.896412 0,3.221415 -0.41903,4.101221 -1.45833,3.061921 z M 55.625,17.1875 c -0.620741,-0.747947 -0.620741,-1.127053 0,-1.875 0.427931,-0.515625 1.131056,-0.9375 1.5625,-0.9375 0.431444,0 1.134569,0.421875 1.5625,0.9375 0.620741,0.747947 0.620741,1.127053 0,1.875 -0.427931,0.515625 -1.131056,0.9375 -1.5625,0.9375 -0.431444,0 -1.134569,-0.421875 -1.5625,-0.9375 z m 52.5,-0.572917 c 0,-0.544271 0.44531,-0.989583 0.98958,-0.989583 0.54428,0 0.87826,0.333984 0.74219,0.742187 -0.3863,1.15889 -1.73177,1.351101 -1.73177,0.247396 z"
       id="path3536"
       inkscape:connector-curvature="0" />
    <path
       style="fill:#a2a2a2"
       d="M 15.594101,39.148762 C 9.6611856,37.548642 5.9501312,34.174411 3.7985531,28.423803 1.3112081,21.775778 2.7241906,15.381111 7.8026506,10.302651 14.059018,4.0462834 22.671738,3.3688474 30.151452,8.5447994 c 5.099084,3.5285586 8.228241,11.4921976 6.718581,17.0986446 -2.004204,7.443046 -5.710074,11.345237 -12.764721,13.44094 -3.631398,1.078768 -4.719545,1.086999 -8.511211,0.06438 z m 56.997037,-7.931509 c -1.963288,-1.196943 -2.146,-1.210186 -2.878369,-0.208614 -0.454957,0.62219 -1.199656,0.909196 -1.780632,0.686254 C 67.180706,31.406541 66.8876,30.259799 66.748006,27.062093 66.570481,22.995329 66.495275,22.8125 65,22.8125 c -1.436556,0 -1.575663,0.251886 -1.725819,3.125 -0.250906,4.800887 -0.644431,5.9375 -2.055704,5.9375 -0.691739,0 -1.43141,-0.45266 -1.643713,-1.005911 -0.354782,-0.924549 -0.431537,-0.924549 -0.94894,0 -0.382393,0.683297 -1.431944,1.005911 -3.272499,1.005911 -2.200523,0 -2.901899,-0.293544 -3.733352,-1.5625 -1.269829,-1.938004 -2.09692,-1.992816 -2.357754,-0.15625 C 49.115926,31.186325 48.644527,31.5625 47.5,31.5625 l -1.5625,0 -0.173757,-8.190193 c -0.182099,-8.583445 0.257298,-10.150606 2.594539,-9.253722 0.7798,0.299238 1.016718,1.248402 1.016718,4.073283 0,3.948211 0.406842,4.400737 2.1875,2.433132 0.622179,-0.6875 1.492921,-1.25 1.934982,-1.25 1.600624,0 1.604393,1.387767 0.0083,3.053737 -0.896927,0.936189 -1.621887,2.108647 -1.611024,2.605462 0.01938,0.88652 2.71527,4.340801 3.387769,4.340801 0.188363,0 0.342479,-2.118202 0.342479,-4.707116 0,-3.791496 0.199941,-4.78384 1.02788,-5.10155 0.612308,-0.234964 1.340486,0.03308 1.801083,0.662985 0.587584,0.803568 0.848533,0.861115 1.086988,0.239708 0.20756,-0.540893 1.712254,-0.859154 4.444818,-0.940134 3.789506,-0.112302 4.216212,0.0076 5.161312,1.449979 l 1.030275,1.572401 1.432988,-1.346222 c 0.788143,-0.740423 2.365425,-1.535327 3.505075,-1.766455 1.756137,-0.356156 2.101412,-0.719485 2.264456,-2.382869 0.232206,-2.368928 1.697137,-3.853716 2.756744,-2.79411 0.516087,0.516088 0.933456,0.522061 1.536012,0.02198 0.606119,-0.503036 1.078063,-0.478595 1.764869,0.0914 0.727619,0.603868 0.9375,2.291812 0.9375,7.539642 0,3.718873 0.239056,6.90933 0.531231,7.089905 0.292175,0.180575 0.402544,-1.010916 0.245269,-2.647759 -0.245294,-2.552781 -0.04625,-3.26095 1.399325,-4.978933 3.342375,-3.972188 9.439075,-1.739933 8.94835,3.276364 -0.179381,1.83369 -0.314931,1.915665 -3.467925,2.097193 -1.804687,0.103902 -3.28125,0.399214 -3.28125,0.65625 0,1.116517 1.675831,1.967338 3.875,1.967338 1.669094,0 2.375,0.272112 2.375,0.91551 0,2.115387 -4.367637,2.895368 -6.774194,1.20975 -1.308231,-0.91632 -1.519506,-0.91632 -2.532031,0 -1.3807,1.249514 -2.810462,1.277186 -3.809244,0.07373 -0.678893,-0.81802 -0.922706,-0.81802 -2.090593,0 -1.845988,1.292979 -4.73125,1.150081 -7.2028,-0.356733 z M 59.202957,24.229943 C 59.063856,23.106599 58.947176,23.875 58.943668,25.9375 c -0.0035,2.0625 0.110302,2.981599 0.252911,2.042443 0.142609,-0.939156 0.145479,-2.626656 0.0064,-3.75 z M 77.5,25.9375 c 0,-3.236915 -0.08989,-3.4375 -1.540513,-3.4375 -2.585681,0 -3.819637,3.925567 -1.852343,5.892857 0.540175,0.540179 1.52455,0.982143 2.1875,0.982143 C 77.339012,29.375 77.5,28.915895 77.5,25.9375 Z M 91.875,23.125 c 0,-0.34375 -0.5625,-0.625 -1.25,-0.625 -0.6875,0 -1.25,0.28125 -1.25,0.625 0,0.34375 0.5625,0.625 1.25,0.625 0.6875,0 1.25,-0.28125 1.25,-0.625 z m -36.25,-5.9375 c -0.620741,-0.747947 -0.620741,-1.127053 0,-1.875 0.427931,-0.515625 1.131056,-0.9375 1.5625,-0.9375 0.431444,0 1.134569,0.421875 1.5625,0.9375 0.620741,0.747947 0.620741,1.127053 0,1.875 -0.427931,0.515625 -1.131056,0.9375 -1.5625,0.9375 -0.431444,0 -1.134569,-0.421875 -1.5625,-0.9375 z"
       id="path3534"
       inkscape:connector-curvature="0" />
    <path
       style="fill:#e3720a"
       d="M 15.594101,39.148762 C 9.6611856,37.548642 5.9501312,34.174411 3.7985531,28.423803 1.3112081,21.775778 2.7241906,15.381111 7.8026506,10.302651 14.059018,4.0462834 22.671738,3.3688474 30.151452,8.5447994 c 5.099084,3.5285586 8.228241,11.4921976 6.718581,17.0986446 -2.004204,7.443046 -5.710074,11.345237 -12.764721,13.44094 -3.631398,1.078768 -4.719545,1.086999 -8.511211,0.06438 z M 72.0625,29.6875 C 70.859375,28.484375 69.7625,27.5 69.625,27.5 c -0.1375,0 -0.25,0.84375 -0.25,1.875 0,1.223819 -0.315675,1.875 -0.908944,1.875 -0.685537,0 -0.954369,-1.020879 -1.09375,-4.153504 -0.139706,-3.13989 -0.451725,-4.32117 -1.278556,-4.840553 -2.057331,-1.292331 -3.247806,0.257118 -3.59375,4.677404 -0.249896,3.193014 -0.536638,4.035509 -1.431322,4.20545 -1.016782,0.193133 -1.102285,-0.285519 -0.9375,-5.248217 l 0.181322,-5.460733 4.0625,-0.05867 c 4.0618,-0.05866 4.062606,-0.05832 4.6605,1.972576 0.676869,2.299171 1.328306,2.588806 1.884088,0.837691 0.554125,-1.745897 1.970006,-2.715276 4.581912,-3.136997 2.114069,-0.34134 2.337631,-0.573933 2.6235,-2.729489 0.171875,-1.295994 0.59375,-2.417351 0.9375,-2.491904 0.929856,-0.201668 1.171362,15.079583 0.255756,16.18282 -0.396719,0.478021 -1.699375,0.869129 -2.894781,0.869129 -1.650638,0 -2.699688,-0.526212 -4.360975,-2.1875 z m 5.75,-3.75 c 0,-3.592888 -0.06947,-3.758041 -1.658319,-3.941933 C 74.259775,21.77631 72.5,23.74163 72.5,26.076566 c 0,1.894906 2.233056,4.049235 3.944681,3.805617 C 77.678162,29.706621 77.8125,29.319198 77.8125,25.9375 Z m 4.744244,5.068371 c -0.480719,-0.579229 -0.6626,-3.39432 -0.545281,-8.43968 0.226462,-9.739139 1.361262,-10.126002 1.604131,-0.546861 0.09795,3.863396 0.449512,7.295776 0.78125,7.627513 0.888406,0.888407 0.733387,2.228157 -0.257819,2.228157 -0.473531,0 -1.185562,-0.391108 -1.582281,-0.869129 z m 4.895181,-0.957794 C 83.739,26.335156 85.745831,20 90.634925,20 93.410156,20 95,21.644107 95,24.514066 95,26.177756 94.871481,26.25 91.911888,26.25 c -1.698463,0 -3.272894,0.298972 -3.498726,0.664383 C 87.668212,28.119736 90.073819,30 92.360894,30 c 1.8555,0 2.055269,0.134822 1.389106,0.9375 -1.295362,1.560813 -4.267581,1.141071 -6.298075,-0.889423 z M 92.383194,23.28125 C 92.132113,21.963904 89.40635,21.438007 88.705669,22.571726 87.956319,23.7842 88.612244,24.375 90.707712,24.375 c 1.456982,0 1.8367,-0.24788 1.675482,-1.09375 z M 46.388109,22.96875 C 46.532717,16.101812 46.722611,14.6875 47.5,14.6875 c 0.698683,0 0.981662,0.875663 1.110865,3.4375 0.261565,5.186336 0.497589,5.489231 2.661722,3.415861 1.248632,-1.196266 2.067602,-1.575672 2.489811,-1.153463 0.422209,0.422209 0.112483,1.114546 -0.941621,2.104826 -2.011784,1.889974 -1.949948,2.942242 0.329624,5.609167 C 54.16768,29.291531 55,30.486844 55,30.757641 55,31.892906 53.123899,31.116636 51.658409,29.375 50.790669,28.34375 49.781293,27.5 49.41535,27.5 49.049407,27.5 48.75,28.34375 48.75,29.375 c 0,1.467274 -0.275762,1.875 -1.268141,1.875 -1.219156,0 -1.261404,-0.31988 -1.09375,-8.28125 z m 9.993808,2.964968 c 0.23578,-6.941252 1.375386,-6.941252 1.611166,0 0.152918,4.501817 0.0295,5.316282 -0.805583,5.316282 -0.835083,0 -0.958501,-0.814465 -0.805583,-5.316282 z M 56.25,16.25 c 0,-1.42115 1.567426,-1.703016 2.077569,-0.373604 C 58.719803,16.898543 58.258881,17.5 57.083333,17.5 56.625,17.5 56.25,16.9375 56.25,16.25 Z"
       id="path3532"
       inkscape:connector-curvature="0" />
    <path
       style="fill:#dd6705"
       d="M 15.9375,38.826434 C 10.269461,37.338178 5.4215022,32.639237 3.8546473,27.114988 3.0282739,24.201449 2.9719824,20.909809 3.7169388,19.0625 4.1091229,18.08998 4.2242375,18.323575 4.2355105,20.114805 4.2577874,23.654536 5.008441,24.265812 6.3169381,21.809764 6.938805,20.642519 7.4593944,19.110937 7.4738025,18.40625 7.5259513,15.85577 8.5174569,15.625 19.423472,15.625 c 12.213514,0 12.218719,0.0024 11.593438,5.322551 l -0.402829,3.427449 1.755459,0 c 2.327511,0 3.244081,-1.030011 3.309181,-3.71875 l 0.05372,-2.21875 0.574472,1.875 c 1.129084,3.68518 -1.32875,10.872179 -4.843423,14.162748 -3.991761,3.737236 -10.702049,5.617807 -15.525988,4.351186 z M 72.0625,29.6875 C 70.859375,28.484375 69.7625,27.5 69.625,27.5 c -0.1375,0 -0.25,0.84375 -0.25,1.875 0,1.223819 -0.315675,1.875 -0.908944,1.875 -0.685537,0 -0.954369,-1.020879 -1.09375,-4.153504 -0.139706,-3.13989 -0.451725,-4.32117 -1.278556,-4.840553 -2.057331,-1.292331 -3.247806,0.257118 -3.59375,4.677404 -0.249896,3.193014 -0.536638,4.035509 -1.431322,4.20545 -1.016782,0.193133 -1.102285,-0.285519 -0.9375,-5.248217 l 0.181322,-5.460733 4.0625,-0.05867 c 4.0618,-0.05866 4.062606,-0.05832 4.6605,1.972576 0.676869,2.299171 1.328306,2.588806 1.884088,0.837691 0.554125,-1.745897 1.970006,-2.715276 4.581912,-3.136997 2.114069,-0.34134 2.337631,-0.573933 2.6235,-2.729489 0.171875,-1.295994 0.59375,-2.417351 0.9375,-2.491904 0.929856,-0.201668 1.171362,15.079583 0.255756,16.18282 -0.396719,0.478021 -1.699375,0.869129 -2.894781,0.869129 -1.650638,0 -2.699688,-0.526212 -4.360975,-2.1875 z m 5.75,-3.75 c 0,-3.592888 -0.06947,-3.758041 -1.658319,-3.941933 C 74.259775,21.77631 72.5,23.74163 72.5,26.076566 c 0,1.894906 2.233056,4.049235 3.944681,3.805617 C 77.678162,29.706621 77.8125,29.319198 77.8125,25.9375 Z m 4.744244,5.068371 c -0.480719,-0.579229 -0.6626,-3.39432 -0.545281,-8.43968 0.226462,-9.739139 1.361262,-10.126002 1.604131,-0.546861 0.09795,3.863396 0.449512,7.295776 0.78125,7.627513 0.888406,0.888407 0.733387,2.228157 -0.257819,2.228157 -0.473531,0 -1.185562,-0.391108 -1.582281,-0.869129 z m 4.895181,-0.957794 C 83.739,26.335156 85.745831,20 90.634925,20 93.410156,20 95,21.644107 95,24.514066 95,26.177756 94.871481,26.25 91.911888,26.25 c -1.698463,0 -3.272894,0.298972 -3.498726,0.664383 C 87.668212,28.119736 90.073819,30 92.360894,30 c 1.8555,0 2.055269,0.134822 1.389106,0.9375 -1.295362,1.560813 -4.267581,1.141071 -6.298075,-0.889423 z M 92.383194,23.28125 C 92.132113,21.963904 89.40635,21.438007 88.705669,22.571726 87.956319,23.7842 88.612244,24.375 90.707712,24.375 c 1.456982,0 1.8367,-0.24788 1.675482,-1.09375 z M 46.388109,22.96875 C 46.532717,16.101812 46.722611,14.6875 47.5,14.6875 c 0.698683,0 0.981662,0.875663 1.110865,3.4375 0.261565,5.186336 0.497589,5.489231 2.661722,3.415861 1.248632,-1.196266 2.067602,-1.575672 2.489811,-1.153463 0.422209,0.422209 0.112483,1.114546 -0.941621,2.104826 -2.011784,1.889974 -1.949948,2.942242 0.329624,5.609167 C 54.16768,29.291531 55,30.486844 55,30.757641 55,31.892906 53.123899,31.116636 51.658409,29.375 50.790669,28.34375 49.781293,27.5 49.41535,27.5 49.049407,27.5 48.75,28.34375 48.75,29.375 c 0,1.467274 -0.275762,1.875 -1.268141,1.875 -1.219156,0 -1.261404,-0.31988 -1.09375,-8.28125 z m 9.993808,2.964968 c 0.23578,-6.941252 1.375386,-6.941252 1.611166,0 0.152918,4.501817 0.0295,5.316282 -0.805583,5.316282 -0.835083,0 -0.958501,-0.814465 -0.805583,-5.316282 z M 56.25,16.25 c 0,-1.42115 1.567426,-1.703016 2.077569,-0.373604 C 58.719803,16.898543 58.258881,17.5 57.083333,17.5 56.625,17.5 56.25,16.9375 56.25,16.25 Z"
       id="path3530"
       inkscape:connector-curvature="0" />
    <path
       style="fill:#5a5a5a"
       d="M 72.0625,29.6875 C 70.859375,28.484375 69.7625,27.5 69.625,27.5 c -0.1375,0 -0.25,0.84375 -0.25,1.875 0,1.223819 -0.315675,1.875 -0.908944,1.875 -0.685537,0 -0.954369,-1.020879 -1.09375,-4.153504 -0.139706,-3.13989 -0.451725,-4.32117 -1.278556,-4.840553 -2.057331,-1.292331 -3.247806,0.257118 -3.59375,4.677404 -0.249896,3.193014 -0.536638,4.035509 -1.431322,4.20545 -1.016782,0.193133 -1.102285,-0.285519 -0.9375,-5.248217 l 0.181322,-5.460733 4.0625,-0.05867 c 4.0618,-0.05866 4.062606,-0.05832 4.6605,1.972576 0.676869,2.299171 1.328306,2.588806 1.884088,0.837691 0.554125,-1.745897 1.970006,-2.715276 4.581912,-3.136997 2.114069,-0.34134 2.337631,-0.573933 2.6235,-2.729489 0.171875,-1.295994 0.59375,-2.417351 0.9375,-2.491904 0.929856,-0.201668 1.171362,15.079583 0.255756,16.18282 -0.396719,0.478021 -1.699375,0.869129 -2.894781,0.869129 -1.650638,0 -2.699688,-0.526212 -4.360975,-2.1875 z m 5.75,-3.75 c 0,-3.592888 -0.06947,-3.758041 -1.658319,-3.941933 C 74.259775,21.77631 72.5,23.74163 72.5,26.076566 c 0,1.894906 2.233056,4.049235 3.944681,3.805617 C 77.678162,29.706621 77.8125,29.319198 77.8125,25.9375 Z m 4.744244,5.068371 c -0.480719,-0.579229 -0.6626,-3.39432 -0.545281,-8.43968 0.226462,-9.739139 1.361262,-10.126002 1.604131,-0.546861 0.09795,3.863396 0.449512,7.295776 0.78125,7.627513 0.888406,0.888407 0.733387,2.228157 -0.257819,2.228157 -0.473531,0 -1.185562,-0.391108 -1.582281,-0.869129 z m 4.895181,-0.957794 C 83.739,26.335156 85.745831,20 90.634925,20 93.410156,20 95,21.644107 95,24.514066 95,26.177756 94.871481,26.25 91.911888,26.25 c -1.698463,0 -3.272894,0.298972 -3.498726,0.664383 C 87.668212,28.119736 90.073819,30 92.360894,30 c 1.8555,0 2.055269,0.134822 1.389106,0.9375 -1.295362,1.560813 -4.267581,1.141071 -6.298075,-0.889423 z M 92.383194,23.28125 C 92.132113,21.963904 89.40635,21.438007 88.705669,22.571726 87.956319,23.7842 88.612244,24.375 90.707712,24.375 c 1.456982,0 1.8367,-0.24788 1.675482,-1.09375 z M 46.388109,22.96875 C 46.532717,16.101812 46.722611,14.6875 47.5,14.6875 c 0.698683,0 0.981662,0.875663 1.110865,3.4375 0.261565,5.186336 0.497589,5.489231 2.661722,3.415861 1.248632,-1.196266 2.067602,-1.575672 2.489811,-1.153463 0.422209,0.422209 0.112483,1.114546 -0.941621,2.104826 -2.011784,1.889974 -1.949948,2.942242 0.329624,5.609167 C 54.16768,29.291531 55,30.486844 55,30.757641 55,31.892906 53.123899,31.116636 51.658409,29.375 50.790669,28.34375 49.781293,27.5 49.41535,27.5 49.049407,27.5 48.75,28.34375 48.75,29.375 c 0,1.467274 -0.275762,1.875 -1.268141,1.875 -1.219156,0 -1.261404,-0.31988 -1.09375,-8.28125 z m 9.993808,2.964968 c 0.23578,-6.941252 1.375386,-6.941252 1.611166,0 0.152918,4.501817 0.0295,5.316282 -0.805583,5.316282 -0.835083,0 -0.958501,-0.814465 -0.805583,-5.316282 z M 56.25,16.25 c 0,-1.42115 1.567426,-1.703016 2.077569,-0.373604 C 58.719803,16.898543 58.258881,17.5 57.083333,17.5 56.625,17.5 56.25,16.9375 56.25,16.25 Z"
       id="path3528"
       inkscape:connector-curvature="0" />
    <path
       style="fill:#2b2b2b"
       d="M 72.920444,29.87709 C 69.4838,26.788431 71.250725,20.625 75.572819,20.625 c 2.099606,0 2.964062,-0.886766 3.351025,-3.4375 0.156443,-1.03125 0.251644,1.640625 0.21155,5.9375 l -0.07289,7.8125 -2.270138,0.18959 c -1.670437,0.139506 -2.693281,-0.190708 -3.871918,-1.25 z M 78,29.875 c 0.4125,-0.4125 0.75,-2.184375 0.75,-3.9375 0,-1.753125 -0.3375,-3.525 -0.75,-3.9375 -1.253163,-1.253162 -3.460956,-0.843209 -4.829638,0.896787 -1.718356,2.184535 -1.636081,4.319315 0.238732,6.194122 C 75.076419,30.758237 76.819125,31.055877 78,29.875 Z m 4.916669,0.958333 C 82.6875,30.604167 82.559731,27.018229 82.632738,22.864583 l 0.132737,-7.552083 0.202406,6.866392 c 0.111325,3.776516 0.473463,7.137454 0.804763,7.46875 C 84.103937,29.978939 84.375,30.475 84.375,30.75 c 0,0.606894 -0.884244,0.657423 -1.458331,0.08333 z m 4.867425,-1.117424 C 86.660919,28.592739 86.25,27.504559 86.25,25.653409 c 0,-3.24549 1.672744,-5.028409 4.717669,-5.028409 1.908737,0 2.336287,0.282104 3.069143,2.025059 0.468313,1.113782 0.719388,2.238782 0.557944,2.5 -0.161437,0.261217 -1.508119,0.474941 -2.992612,0.474941 -3.6841,0 -4.813994,1.349206 -2.866206,3.422531 0.780675,0.830988 2.017262,1.628191 2.747981,1.771564 1.027169,0.201538 0.932206,0.279987 -0.418575,0.345791 -1.104475,0.05381 -2.311475,-0.479196 -3.28125,-1.448977 z m 5.117944,-5.661368 C 93.407881,22.736331 92.006594,21.25 90.257963,21.25 c -1.767163,0 -3.047644,1.960319 -1.978713,3.029252 1.044981,1.044982 4.194306,0.891895 4.622788,-0.224711 z M 46.875,22.8125 C 46.875,18.020833 47.116667,15 47.5,15 c 0.351977,0 0.625,1.758538 0.625,4.025614 0,2.214088 0.30207,4.212305 0.671267,4.440481 0.369197,0.228176 1.352464,-0.225084 2.185036,-1.007246 0.832573,-0.782161 1.657226,-1.278653 1.832564,-1.103315 0.175338,0.175338 -0.245428,0.829412 -0.935035,1.453498 -1.650028,1.493255 -1.581598,2.558496 0.308668,4.804949 0.859375,1.021309 1.55194,2.186909 1.539033,2.590222 -0.01291,0.403313 -0.96014,-0.360944 -2.104963,-1.698349 -2.295825,-2.682028 -3.49657,-2.58552 -3.49657,0.281032 0,1.010963 -0.28125,1.838114 -0.625,1.838114 -0.383333,0 -0.625,-3.020833 -0.625,-7.8125 z m 10.214256,3.125 c 0.0023,-2.75 0.112151,-3.797253 0.24418,-2.327229 0.132028,1.470023 0.13017,3.720023 -0.0041,5 -0.134302,1.279976 -0.242325,0.07723 -0.240055,-2.672771 z m 3.539979,-0.15625 0.0042,-4.84375 3.541005,-0.175061 c 2.361344,-0.116741 3.710138,0.09147 4.048694,0.625 0.279231,0.440033 0.467743,2.768811 0.418925,5.175061 l -0.08877,4.375 -0.370412,-4.242196 C 67.811194,22.438147 67.120681,21.2805 64.940619,21.259571 62.994244,21.240884 61.875,23.366067 61.875,27.080463 c 0,1.949495 -0.28125,3.544537 -0.625,3.544537 -0.363268,0 -0.623226,-2.028427 -0.620765,-4.84375 z"
       id="path3526"
       inkscape:connector-curvature="0" />
  </g>
</svg>
