<?xml version="1.0" encoding="UTF-8" standalone="no"?>
<!-- Created with Inkscape (http://www.inkscape.org/) -->

<svg
   xmlns:dc="http://purl.org/dc/elements/1.1/"
   xmlns:cc="http://creativecommons.org/ns#"
   xmlns:rdf="http://www.w3.org/1999/02/22-rdf-syntax-ns#"
   xmlns:svg="http://www.w3.org/2000/svg"
   xmlns="http://www.w3.org/2000/svg"
   xmlns:xlink="http://www.w3.org/1999/xlink"
   xmlns:sodipodi="http://sodipodi.sourceforge.net/DTD/sodipodi-0.dtd"
   xmlns:inkscape="http://www.inkscape.org/namespaces/inkscape"
   id="svg3430"
   version="1.1"
   inkscape:version="0.91 r13725"
   width="183.75"
   height="46.25"
   viewBox="0 0 183.75 46.25"
   sodipodi:docname="Tizen.svg">
  <metadata
     id="metadata3436">
    <rdf:RDF>
      <cc:Work
         rdf:about="">
        <dc:format>image/svg+xml</dc:format>
        <dc:type
           rdf:resource="http://purl.org/dc/dcmitype/StillImage" />
        <dc:title></dc:title>
      </cc:Work>
    </rdf:RDF>
  </metadata>
  <defs
     id="defs3434" />
  <sodipodi:namedview
     pagecolor="#ffffff"
     bordercolor="#666666"
     borderopacity="1"
     objecttolerance="10"
     gridtolerance="10"
     guidetolerance="10"
     inkscape:pageopacity="0"
     inkscape:pageshadow="2"
     inkscape:window-width="640"
     inkscape:window-height="480"
     id="namedview3432"
     showgrid="false"
     inkscape:zoom="1.4258503"
     inkscape:cx="91.875"
     inkscape:cy="23.125"
     inkscape:window-x="0"
     inkscape:window-y="0"
     inkscape:window-maximized="0"
     inkscape:current-layer="svg3430" />
  <image
     width="183.75"
     height="46.25"
     preserveAspectRatio="none"
     style="image-rendering:optimizeQuality"
     xlink:href="file:///media/havoc/USB%20DISK/pics/_natives/Tizen.png"
     id="image3438"
     x="0"
     y="0"
     sodipodi:absref="/media/havoc/USB DISK/pics/_natives/Tizen.png" />
  <g
     id="g3487">
    <path
       style="fill:#fbfbfb"
       d="M 0,23.125 0,0 l 91.875,0 91.875,0 0,23.125 0,23.125 -91.875,0 L 0,46.25 0,23.125 Z"
       id="path3503"
       inkscape:connector-curvature="0" />
    <path
       style="fill:#a3d6e7"
       d="m 10.719809,42.926739 c -0.515566,-0.62122 -0.163521,-1.612423 1.434474,-4.038857 1.164746,-1.768577 2.285545,-3.487139 2.490663,-3.819028 C 14.850064,34.736966 12.607138,32.894016 9.660665,30.973408 4.0216716,27.297726 3.3351246,26.370106 1.8301427,20.393281 1.4228163,18.775641 1.2721042,17.269562 1.4952269,17.04644 c 0.2231227,-0.223123 2.3783955,0.105979 4.7894956,0.731337 2.4110994,0.625359 4.5470915,0.973742 4.7466485,0.774186 0.199557,-0.199557 0.898056,-2.661419 1.552221,-5.470804 0.654165,-2.809385 1.754235,-5.9012234 2.4446,-6.870752 1.513239,-2.1251478 7.971445,-5.96101068 8.740312,-5.1913239 0.298562,0.2988793 0.627474,2.5121669 0.730917,4.9184169 l 0.188079,4.375 6.296295,-0.225047 c 5.449915,-0.1947955 6.626135,-0.04994 8.75,1.07762 2.876411,1.527082 5.891205,4.118083 5.891205,5.063071 0,0.60236 -2.536877,1.936851 -6.989124,3.676539 l -1.676623,0.655131 1.925331,4.876343 c 2.318515,5.872171 2.489903,9.860324 0.605725,14.095093 C 38.763821,41.164062 37.876317,42.5 37.518078,42.5 c -0.35824,0 -1.282297,-0.751917 -2.053461,-1.670926 -0.771164,-0.919009 -2.114614,-2.493812 -2.985443,-3.499563 l -1.583326,-1.828638 -5.192712,4.124564 -5.192712,4.124563 -4.553684,0 c -3.004412,0 -4.786141,-0.280093 -5.236931,-0.823261 z M 23.125,29.375 c 0.260439,-2.864824 0.525891,-3.468036 1.593381,-3.620791 0.916943,-0.131211 1.877992,0.648172 3.382418,2.743047 1.969167,2.742016 2.155352,2.85274 2.955934,1.75788 1.315066,-1.79846 0.73635,-2.891063 -1.926816,-3.637785 -4.703532,-1.318819 -4.464641,-4.067002 0.475475,-5.469837 3.586123,-1.018345 3.912255,-1.486426 1.937279,-2.78048 l -1.715958,-1.124338 -1.999405,2.381517 c -3.001065,3.57461 -4.338672,2.997506 -4.575881,-1.97424 -0.102341,-2.144985 -0.383591,-3.893719 -0.625,-3.886076 -0.24141,0.0076 -1.128308,0.543711 -1.970884,1.191261 l -1.531958,1.177361 1.782452,2.57208 c 1.450657,2.093299 1.665102,2.831362 1.152029,3.96499 -0.424704,0.938378 -0.423232,1.854171 0.0045,2.806437 0.529772,1.179408 0.308028,1.820317 -1.338822,3.869601 -2.517776,3.133037 -2.505583,3.909849 0.05749,3.662722 C 22.75868,32.817689 22.82078,32.72142 23.125,29.375 Z m -4.512968,-4.585171 c 1.418,-0.78725 1.41432,-0.795747 -0.802454,-1.852853 -2.354548,-1.122806 -4.065246,-1.373317 -4.051044,-0.593226 0.05691,3.126119 1.92909,4.069662 4.853498,2.446079 z M 52.625,30.5 c -0.469697,-0.469697 -0.75,-2.805556 -0.75,-6.25 0,-5.284201 -0.05517,-5.500376 -1.40625,-5.509571 -2.208189,-0.01503 -3.087836,-0.897195 -2.862548,-2.870746 L 47.8125,14.0625 l 6.875,0 6.875,0 0.206298,1.807183 c 0.225288,1.973551 -0.654359,2.855718 -2.862548,2.870746 -1.357846,0.0092 -1.40625,0.211642 -1.40625,5.880203 0,4.776692 -0.18422,5.941324 -0.988617,6.25 C 54.965176,31.463968 53.443887,31.318887 52.625,30.5 Z m 11.25,0 c -0.4977,-0.497699 -0.75,-3.205216 -0.75,-8.048472 0,-8.024652 0.384725,-8.954062 3.555956,-8.590439 l 1.756544,0.201411 0.175725,8.076079 c 0.184975,8.501333 0.01242,9.081538 -2.706975,9.10185 C 65.201563,31.245693 64.2875,30.9125 63.875,30.5 Z m 8.35305,-0.236236 C 69.667369,27.703084 69.750038,27.020766 73.087794,23.167949 74.827006,21.160349 76.25,19.345019 76.25,19.133883 76.25,18.922747 75.134894,18.75 73.771987,18.75 70.849706,18.75 69.487062,17.126252 70.625,15 c 0.586588,-1.096047 1.308638,-1.25 5.862625,-1.25 4.237769,0 5.384012,0.210358 6.228006,1.142963 1.718238,1.898627 1.230944,3.829751 -1.778131,7.046696 -1.546875,1.653734 -2.8125,3.283917 -2.8125,3.622629 0,0.338712 1.195312,0.702323 2.65625,0.808026 2.411362,0.174468 2.675269,0.358797 2.86255,1.999369 0.276431,2.421593 -0.629925,2.859413 -5.942906,2.870746 -3.263144,0.007 -4.75555,-0.259368 -5.472844,-0.976665 z M 86.375,30.5 c -1.136569,-1.136568 -1.028238,-15.116028 0.12455,-16.072759 0.564444,-0.468443 2.946887,-0.661797 6.71875,-0.545278 l 5.8442,0.180537 0.2063,1.807183 c 0.258775,2.266911 -0.65325,2.858587 -4.42505,2.870746 -1.632813,0.0053 -2.96875,0.275411 -2.96875,0.600327 0,0.324915 1.335937,0.676478 2.96875,0.78125 2.60885,0.167401 2.994888,0.375668 3.184356,1.717977 C 98.312287,23.853314 96.671175,25 93.505544,25 c -3.740025,0 -1.974288,1.141731 2.119456,1.370447 3.273919,0.182914 3.447319,0.278053 3.6438,1.999236 0.117169,1.026458 -0.152837,2.034853 -0.625,2.33418 C 97.335213,31.533431 87.240694,31.365697 86.375,30.5 Z m 15.625,0 c -1.21135,-1.211351 -1.01541,-14.520305 0.23214,-15.767857 1.5633,-1.563297 3.75907,-1.194459 5.37657,0.903142 0.79958,1.036907 2.15692,2.781542 3.01629,3.876969 l 1.5625,1.991683 0.3125,-3.720718 0.3125,-3.720719 2.1875,0 2.1875,0 0.17469,7.936894 c 0.16596,7.54078 0.10847,7.972329 -1.15196,8.646894 -2.17605,1.164586 -3.89719,0.211734 -6.21023,-3.438097 -1.20312,-1.898456 -2.39844,-3.45319 -2.65625,-3.454965 -0.25781,-0.0018 -0.46875,1.513558 -0.46875,3.367406 0,2.497019 -0.25623,3.468958 -0.98862,3.75 C 104.34017,31.463968 102.81889,31.318887 102,30.5 Z"
       id="path3501"
       inkscape:connector-curvature="0" />
    <path
       style="fill:#9e9fa0"
       d="M 15,42.696739 C 11.354974,42.094795 11.35626,42.0632 15.269009,36.091591 l 1.056867,-1.612982 -3.946569,-2.207047 C 6.1864712,28.808331 3.125,24.797754 3.125,20.148271 c 0,-1.487601 0.1013868,-1.523938 2.96875,-1.064 5.56183,0.892141 5.259711,1.084549 6.413111,-4.084271 0.575298,-2.578125 1.63535,-5.6471894 2.35567,-6.8201431 1.400037,-2.2797863 6.676159,-5.9614792 7.66628,-5.3495511 0.327903,0.202656 0.60003,1.4065544 0.604723,2.6753298 0.01906,5.1514484 -0.0065,5.1335544 7.170146,5.0186734 6.924693,-0.110847 8.767075,0.512927 12.149627,4.113489 l 1.494484,1.590805 -3.692645,1.665952 c -2.030955,0.916273 -3.795268,1.750272 -3.920694,1.85333 -0.125427,0.103058 0.648011,2.291767 1.71875,4.863798 2.316908,5.565464 2.497362,9.440689 0.62926,13.513317 L 37.392378,40.9375 34.477439,37.669364 31.5625,34.401228 27.559477,37.799837 C 24.011764,40.811882 19.142541,43.282572 17.232413,43.039886 16.863961,42.993074 15.859375,42.838658 15,42.696739 Z m 8.125,-11.708122 c 0,-5.736455 1.720158,-6.262954 5.206228,-1.593503 1.291424,1.729813 2.58939,2.995955 2.884367,2.813649 0.294978,-0.182306 0.824607,-1.15844 1.176956,-2.169187 0.748388,-2.146827 0.340983,-2.624312 -3.217558,-3.771035 -4.444445,-1.432202 -3.700535,-3.489992 1.918757,-5.307632 1.804687,-0.583752 3.28125,-1.20462 3.28125,-1.379705 0,-0.629435 -2.832253,-2.665062 -3.736323,-2.685411 -0.508103,-0.01144 -1.984089,1.139122 -3.279971,2.556796 C 24.155407,22.956947 23.125,22.151128 23.125,16.141665 l 0,-4.330279 -2.1875,1.668488 c -1.203125,0.917668 -2.1875,1.960121 -2.1875,2.316562 0,0.356441 0.703125,1.56992 1.5625,2.696618 2.659212,3.486407 1.743753,5.964048 -1.584097,4.287274 C 16.510875,21.663002 12.5,20.975151 12.5,21.712179 c 0,1.592553 1.472507,4.537821 2.268715,4.537821 0.493038,0 1.927219,-0.43069 3.187068,-0.957088 4.434273,-1.852758 5.220413,0.406684 1.731717,4.977124 C 18.484375,31.846215 17.5,33.274007 17.5,33.442908 17.5,33.611809 18.765625,33.75 20.3125,33.75 l 2.8125,0 0,-2.761383 z M 52.916667,30.208333 C 52.6875,29.979167 52.5,27.504167 52.5,24.708333 52.5,19.316586 51.980414,18.125 49.629368,18.125 c -2.543599,0 -2.589139,-3.312702 -0.05488,-3.992377 1.761835,-0.472516 8.464195,-0.472516 10.226031,0 2.696308,0.723137 2.455969,3.79092 -0.322162,4.112217 -1.622881,0.18769 -1.669936,0.313586 -1.824,4.88016 -0.228784,6.781321 -0.474293,7.5 -2.562097,7.5 -0.967409,0 -1.946426,-0.1875 -2.175592,-0.416667 z m 11.250002,0 C 63.9375,29.979167 63.75,26.473437 63.75,22.417823 c 0,-6.650643 0.118569,-7.437298 1.208912,-8.020833 1.563475,-0.836746 1.647013,-0.826778 2.808944,0.335153 0.766294,0.766294 0.982144,2.403361 0.982144,7.448883 0,3.556706 -0.170712,6.911617 -0.379369,7.455357 -0.376875,0.982116 -3.3846,1.391318 -4.203962,0.57195 z m 7.467712,-1.123844 C 71.079219,28.237209 70.625,27.24062 70.625,26.869848 c 0,-0.370772 1.533031,-2.26951 3.406737,-4.219419 1.873707,-1.949909 3.268132,-3.683891 3.098732,-3.853294 -0.169407,-0.169403 -1.628913,-0.460247 -3.243357,-0.64632 -2.252218,-0.25958 -2.989193,-0.619611 -3.166693,-1.547004 -0.34995,-1.828382 1.631469,-2.854762 5.492787,-2.845277 4.692769,0.01153 6.008907,0.44693 6.835606,2.261345 0.385657,0.846416 0.701188,1.649962 0.701188,1.78566 0,0.135697 -1.40625,1.853723 -3.125,3.817835 -1.71875,1.964112 -3.125,3.792432 -3.125,4.062933 0,0.270502 1.166669,0.578304 2.5926,0.684007 2.76025,0.204614 4.133925,1.486389 3.463981,3.232234 -0.320237,0.834535 -1.359131,1.022452 -5.652587,1.022452 -4.901213,0 -5.329125,-0.105142 -6.269613,-1.540511 z m 15.032288,1.123844 C 86.4375,29.979167 86.25,26.473437 86.25,22.417823 c 0,-8.577181 0.06721,-8.673342 6.052662,-8.659289 4.407338,0.01035 6.25175,0.455287 6.696988,1.615555 0.7304,1.903391 -0.321569,2.68976 -3.849556,2.877628 -4.473588,0.238222 -5.18145,1.599819 -0.971469,1.86865 2.883831,0.184148 3.008875,0.270055 3.008875,2.067133 0,1.793439 -0.129137,1.883286 -2.96875,2.065494 -2.084325,0.133745 -2.96875,0.459585 -2.96875,1.09375 0,0.675696 0.846738,0.903256 3.360975,0.903256 3.709281,0 5.130425,0.985969 4.461044,3.095007 C 98.7011,30.513676 98.162087,30.625 92.87455,30.625 c -3.185169,0 -5.978719,-0.1875 -6.207881,-0.416667 z m 15.625001,0 C 102.0625,29.979167 101.875,26.456581 101.875,22.380364 l 0,-7.411303 1.71482,-0.651973 c 1.84184,-0.700267 1.53066,-0.9531 7.17248,5.827511 l 1.69981,2.042901 0.0275,-2.5 c 0.0462,-4.204698 0.57097,-5.3125 2.51643,-5.3125 2.25404,0 2.49396,0.760426 2.49396,7.904706 0,6.903008 -0.54227,8.345294 -3.13769,8.345294 -1.57272,0 -2.18954,-0.548129 -4.19675,-3.729432 -1.29418,-2.051188 -2.564,-3.738688 -2.82181,-3.75 -0.25781,-0.01131 -0.46875,1.222055 -0.46875,2.740815 0,1.51876 -0.17071,3.20626 -0.37937,3.75 -0.37687,0.982116 -3.3846,1.391318 -4.20396,0.57195 z"
       id="path3499"
       inkscape:connector-curvature="0" />
    <path
       style="fill:#33a8da"
       d="m 14.6875,42.692004 c -1.03125,-0.158503 -2.090902,-0.496512 -2.354782,-0.751128 -0.263881,-0.254618 0.660276,-2.226835 2.053682,-4.382705 l 2.533466,-3.919764 3.258816,0.212047 L 23.4375,34.0625 23.75,30.673528 c 0.171875,-1.863934 0.643051,-3.497556 1.047057,-3.630269 0.404006,-0.132713 1.9293,1.375968 3.389542,3.352624 l 2.654985,3.593921 -3.077042,2.71214 c -6.282156,5.537162 -8.729646,6.658258 -13.077042,5.99006 z m 19.313946,-5.54367 -2.970209,-3.476665 1.12611,-3.131607 C 32.786257,28.79112 33.041514,27.199236 32.735478,26.93459 32.43409,26.673963 30.992187,26.120771 29.53125,25.705273 28.070312,25.289776 26.875,24.569776 26.875,24.105274 26.875,23.258265 31.07385,21.25 32.844763,21.25 c 1.758673,0 1.690136,-1.796606 -0.12959,-3.397044 -2.398194,-2.1092 -3.382044,-1.991776 -5.157836,0.615593 -2.390526,3.509973 -3.501115,2.694488 -3.463531,-2.543208 l 0.03131,-4.362841 6.531194,-0.408519 c 7.115906,-0.445094 8.486513,-0.04004 11.800331,3.487361 l 1.497814,1.59435 -4.164726,1.888376 C 37.499126,19.162676 35.625,20.168759 35.625,20.359811 c 0,0.191051 0.306909,0.920831 0.682021,1.621733 1.46505,2.737472 3.692283,9.670688 3.679253,11.453248 -0.01284,1.756022 -2.068464,7.190208 -2.71989,7.190208 -0.162101,0 -1.631324,-1.564499 -3.264938,-3.476666 z M 9.8163513,29.96696 C 4.7905589,26.712094 3.9190501,25.526837 3.2919553,21.09375 2.9869219,18.937394 3.0794298,18.754797 4.4489568,18.809998 c 0.8186988,0.033 2.8722244,0.384561 4.5633901,0.78125 3.0146411,0.707129 3.0926931,0.785499 3.9862951,4.002502 0.501297,1.804687 1.261943,3.28125 1.690324,3.28125 0.428382,0 1.951227,-0.41363 3.384101,-0.919177 2.273747,-0.802225 2.649509,-0.803777 2.953266,-0.0122 0.458298,1.194306 -3.960248,7.181853 -5.298314,7.179715 -0.572285,-9.37e-4 -3.232536,-1.421284 -5.9116677,-3.156377 z M 53.05808,29.260264 c -0.03681,-0.45252 -0.01153,-2.872864 0.05617,-5.378541 C 53.249157,18.888737 52.62281,17.5 50.235972,17.5 49.157858,17.5 48.75,17.150698 48.75,16.227367 c 0,-1.205389 0.321976,-1.26318 6.09375,-1.093749 4.797124,0.140819 6.09375,0.36991 6.09375,1.076652 0,0.493774 -0.903579,1.131911 -2.007953,1.418083 l -2.007953,0.520313 -0.179547,5.769417 -0.179547,5.769417 -1.71875,0.197764 c -1.082167,0.124517 -1.743536,-0.106968 -1.78567,-0.625 z m 11.238826,-0.0077 c -0.130775,-0.448283 -0.148275,-3.855401 -0.03888,-7.571372 l 0.198888,-6.756312 1.6778,0.193812 1.677781,0.193814 0,7.1875 0,7.1875 -1.638906,0.190059 c -0.948175,0.109958 -1.739125,-0.153455 -1.876688,-0.625 z m 7.849625,-0.789875 C 71.12975,26.910886 71.159694,26.812113 73.43325,24.218206 74.7135,22.757567 76.323225,21.07097 77.010419,20.470214 79.055869,18.682044 77.996631,17.5 74.348787,17.5 c -2.701462,0 -3.158412,-0.167632 -2.981449,-1.09375 0.175237,-0.917125 1.034843,-1.122972 5.323112,-1.274708 4.613075,-0.163228 5.181156,-0.05571 5.7983,1.097435 0.589044,1.100635 0.202869,1.874096 -2.777287,5.562576 -1.903807,2.356301 -3.461463,4.44932 -3.461463,4.651153 0,0.201833 1.476562,0.45198 3.28125,0.555881 2.801613,0.161299 3.28125,0.371632 3.28125,1.438913 0,1.126019 -0.477325,1.268049 -4.812488,1.431977 -4.558618,0.172378 -4.867393,0.09817 -5.853481,-1.406792 z M 86.875,22.523454 86.875,15 l 5.558131,0 c 4.191775,0 5.640807,0.215445 5.894438,0.876396 C 98.825275,17.173406 98.208112,17.5 95.25945,17.5 c -3.442588,0 -4.63445,0.490593 -4.63445,1.907624 0,0.927199 0.572844,1.185645 2.96875,1.339382 2.508588,0.160967 2.998981,0.402912 3.163775,1.560916 0.17455,1.22657 -0.120675,1.390584 -2.8125,1.5625 C 91.418194,24.0318 90.9375,24.262287 90.9375,25.3125 c 0,1.076389 0.520831,1.293402 3.75,1.5625 3.229169,0.269097 3.75,0.486111 3.75,1.5625 0,1.146958 -0.476569,1.264814 -5.78125,1.429704 l -5.78125,0.179703 0,-7.523453 z m 15.625,0.35255 c 0,-6.689752 0.0945,-7.257617 1.3171,-7.911915 0.72441,-0.387689 1.52101,-0.467897 1.77022,-0.17824 0.24922,0.289658 1.80739,2.284463 3.4626,4.432901 1.65521,2.148437 3.22685,3.90625 3.49253,3.90625 0.26568,0 0.67883,-1.828125 0.91811,-4.0625 0.35471,-3.312217 0.64012,-4.0625 1.54538,-4.0625 0.61068,0 1.28104,0.444878 1.48969,0.988617 0.57401,1.495827 0.43566,12.329872 -0.16963,13.284815 -1.14974,1.813884 -3.46982,0.481637 -6.0135,-3.453102 -1.375,-2.126944 -2.83814,-3.884756 -3.25143,-3.90625 -0.49067,-0.02552 -0.816,1.316446 -0.9375,3.86717 -0.17832,3.743617 -0.25763,3.914484 -1.90482,4.104014 l -1.71875,0.197764 0,-7.207024 z m -86.523352,-1.58662 c -1.697219,-0.579973 -3.20638,-1.41608 -3.353692,-1.858015 -0.343482,-1.030445 1.044804,-7.79639 2.220515,-10.8218946 0.643718,-1.6565069 1.81167,-2.8861085 4.049061,-4.262789 1.729415,-1.0641196 3.353899,-1.704008 3.609966,-1.4219741 C 22.758564,3.2067451 23.143866,5.265625 23.358724,7.5 l 0.39065,4.0625 -2.798447,1.875 c -1.539146,1.03125 -2.80463,2.100859 -2.812187,2.376909 -0.0076,0.276049 0.689385,1.53665 1.54876,2.801333 2.756603,4.056706 1.978044,4.617652 -3.710852,2.673642 z"
       id="path3497"
       inkscape:connector-curvature="0" />
    <path
       style="fill:#2d709d"
       d="m 21.644247,38.083451 c 0.06769,-2.031968 0.454105,-3.431585 1.078469,-3.90625 0.591845,-0.449943 1.044826,-1.944697 1.156385,-3.815845 0.100869,-1.69188 0.51395,-3.184875 0.917956,-3.317769 0.623639,-0.20514 5.827943,6.026583 5.827943,6.978479 0,0.406572 -8.236318,7.227934 -8.727225,7.227934 -0.197456,0 -0.311544,-1.424947 -0.253528,-3.166549 z M 11.09375,30.799265 C 7.5165856,28.490586 6.4944312,26.875 8.6109338,26.875 c 0.6110131,0 1.7542952,-0.450628 2.5406262,-1.001396 1.325779,-0.928611 1.490321,-0.918483 2.263833,0.139358 0.792997,1.084489 0.993196,1.089889 4.058984,0.109489 2.732966,-0.873968 3.276336,-0.897085 3.56242,-0.151558 0.450874,1.174958 -3.988618,7.154961 -5.308778,7.150931 -0.572285,-0.0017 -2.657706,-1.046898 -4.634269,-2.322559 z M 37.224294,30.292623 C 36.557031,29.78793 35.547488,29.375 34.980866,29.375 c -0.566622,0 -1.319484,-0.634861 -1.673027,-1.410802 -0.4297,-0.943091 -1.602565,-1.667499 -3.537822,-2.185101 -3.74771,-1.002359 -3.721924,-2.259751 0.07373,-3.595316 1.632812,-0.574532 3.488325,-1.320406 4.123362,-1.657497 0.635036,-0.337092 1.25843,-0.509076 1.385319,-0.382186 0.575252,0.575251 3.28106,7.249386 3.679019,9.074652 0.484003,2.219911 0.04945,2.478138 -1.807156,1.073873 z M 53.05808,29.260264 c -0.03681,-0.45252 -0.01153,-2.872864 0.05617,-5.378541 C 53.249157,18.888737 52.62281,17.5 50.235972,17.5 49.157858,17.5 48.75,17.150698 48.75,16.227367 c 0,-1.205389 0.321976,-1.26318 6.09375,-1.093749 4.797124,0.140819 6.09375,0.36991 6.09375,1.076652 0,0.493774 -0.903579,1.131911 -2.007953,1.418083 l -2.007953,0.520313 -0.179547,5.769417 -0.179547,5.769417 -1.71875,0.197764 c -1.082167,0.124517 -1.743536,-0.106968 -1.78567,-0.625 z m 11.238826,-0.0077 c -0.130775,-0.448283 -0.148275,-3.855401 -0.03888,-7.571372 l 0.198888,-6.756312 1.6778,0.193812 1.677781,0.193814 0,7.1875 0,7.1875 -1.638906,0.190059 c -0.948175,0.109958 -1.739125,-0.153455 -1.876688,-0.625 z m 7.849625,-0.789875 C 71.12975,26.910886 71.159694,26.812113 73.43325,24.218206 74.7135,22.757567 76.323225,21.07097 77.010419,20.470214 79.055869,18.682044 77.996631,17.5 74.348787,17.5 c -2.701462,0 -3.158412,-0.167632 -2.981449,-1.09375 0.175237,-0.917125 1.034843,-1.122972 5.323112,-1.274708 4.613075,-0.163228 5.181156,-0.05571 5.7983,1.097435 0.589044,1.100635 0.202869,1.874096 -2.777287,5.562576 -1.903807,2.356301 -3.461463,4.44932 -3.461463,4.651153 0,0.201833 1.476562,0.45198 3.28125,0.555881 2.801613,0.161299 3.28125,0.371632 3.28125,1.438913 0,1.126019 -0.477325,1.268049 -4.812488,1.431977 -4.558618,0.172378 -4.867393,0.09817 -5.853481,-1.406792 z M 86.875,22.523454 86.875,15 l 5.558131,0 c 4.191775,0 5.640807,0.215445 5.894438,0.876396 C 98.825275,17.173406 98.208112,17.5 95.25945,17.5 c -3.442588,0 -4.63445,0.490593 -4.63445,1.907624 0,0.927199 0.572844,1.185645 2.96875,1.339382 2.508588,0.160967 2.998981,0.402912 3.163775,1.560916 0.17455,1.22657 -0.120675,1.390584 -2.8125,1.5625 C 91.418194,24.0318 90.9375,24.262287 90.9375,25.3125 c 0,1.076389 0.520831,1.293402 3.75,1.5625 3.229169,0.269097 3.75,0.486111 3.75,1.5625 0,1.146958 -0.476569,1.264814 -5.78125,1.429704 l -5.78125,0.179703 0,-7.523453 z m 15.625,0.35255 c 0,-6.689752 0.0945,-7.257617 1.3171,-7.911915 0.72441,-0.387689 1.52101,-0.467897 1.77022,-0.17824 0.24922,0.289658 1.80739,2.284463 3.4626,4.432901 1.65521,2.148437 3.22685,3.90625 3.49253,3.90625 0.26568,0 0.67883,-1.828125 0.91811,-4.0625 0.35471,-3.312217 0.64012,-4.0625 1.54538,-4.0625 0.61068,0 1.28104,0.444878 1.48969,0.988617 0.57401,1.495827 0.43566,12.329872 -0.16963,13.284815 -1.14974,1.813884 -3.46982,0.481637 -6.0135,-3.453102 -1.375,-2.126944 -2.83814,-3.884756 -3.25143,-3.90625 -0.49067,-0.02552 -0.816,1.316446 -0.9375,3.86717 -0.17832,3.743617 -0.25763,3.914484 -1.90482,4.104014 l -1.71875,0.197764 0,-7.207024 z M 16.138901,21.328191 c -1.60798,-0.55863 -3.129935,-1.225147 -3.382123,-1.481147 -0.613674,-0.622953 0.995126,-8.987068 1.988771,-10.3395771 0.718248,-0.9776494 0.838407,-0.9329369 1.392651,0.5182191 0.333619,0.873502 1.075836,1.977633 1.649369,2.453623 0.682637,0.566538 0.91588,1.37108 0.675337,2.329482 -0.248084,0.988445 0.144931,2.218085 1.209821,3.785211 2.752169,4.050182 1.978101,4.649094 -3.533826,2.734189 z m 7.961449,-1.266948 c -0.191631,-0.310066 -0.251743,-2.349129 -0.133581,-4.53125 l 0.21484,-3.967493 5.474447,-0.181535 5.474447,-0.181534 -1.315251,1.672071 C 33.091863,13.791141 32.5,14.927519 32.5,15.396787 c 0,0.513076 -0.685187,0.854915 -1.71875,0.857484 -1.260663,0.0031 -2.115021,0.586153 -3.205564,2.1875 -1.452993,2.133567 -2.776454,2.750286 -3.475336,1.619472 z"
       id="path3495"
       inkscape:connector-curvature="0" />
    <path
       style="fill:#595b5d"
       d="m 23.493422,38.437204 c 0.21573,-0.859537 0.432025,-3.718393 0.480657,-6.353013 0.05616,-3.042737 0.356388,-4.879961 0.822978,-5.036223 0.404006,-0.135303 1.928803,1.370586 3.388437,3.34642 l 2.653881,3.592426 -3.388437,2.999699 c -1.863641,1.649833 -3.604734,3.0028 -3.869096,3.006592 -0.264361,0.0038 -0.304151,-0.696363 -0.08842,-1.555901 z M 11.692624,31.220716 C 8.4850788,29.206643 8.3433819,28.446637 11.0861,27.967574 c 0.94952,-0.16585 3.502207,-0.87751 5.672639,-1.581467 3.269729,-1.060504 4.003617,-1.130399 4.280936,-0.407715 0.450038,1.17278 -3.999655,7.149706 -5.311656,7.134733 -0.572285,-0.0065 -2.388213,-0.858116 -4.035395,-1.892409 z M 53.05808,29.260264 c -0.03681,-0.45252 -0.01153,-2.872864 0.05617,-5.378541 C 53.249157,18.888737 52.62281,17.5 50.235972,17.5 49.157858,17.5 48.75,17.150698 48.75,16.227367 c 0,-1.205389 0.321976,-1.26318 6.09375,-1.093749 4.797124,0.140819 6.09375,0.36991 6.09375,1.076652 0,0.493774 -0.903579,1.131911 -2.007953,1.418083 l -2.007953,0.520313 -0.179547,5.769417 -0.179547,5.769417 -1.71875,0.197764 c -1.082167,0.124517 -1.743536,-0.106968 -1.78567,-0.625 z m 11.238826,-0.0077 c -0.130775,-0.448283 -0.148275,-3.855401 -0.03888,-7.571372 l 0.198888,-6.756312 1.6778,0.193812 1.677781,0.193814 0,7.1875 0,7.1875 -1.638906,0.190059 c -0.948175,0.109958 -1.739125,-0.153455 -1.876688,-0.625 z m 7.849625,-0.789875 C 71.12975,26.910886 71.159694,26.812113 73.43325,24.218206 74.7135,22.757567 76.323225,21.07097 77.010419,20.470214 79.055869,18.682044 77.996631,17.5 74.348787,17.5 c -2.701462,0 -3.158412,-0.167632 -2.981449,-1.09375 0.175237,-0.917125 1.034843,-1.122972 5.323112,-1.274708 4.613075,-0.163228 5.181156,-0.05571 5.7983,1.097435 0.589044,1.100635 0.202869,1.874096 -2.777287,5.562576 -1.903807,2.356301 -3.461463,4.44932 -3.461463,4.651153 0,0.201833 1.476562,0.45198 3.28125,0.555881 2.801613,0.161299 3.28125,0.371632 3.28125,1.438913 0,1.126019 -0.477325,1.268049 -4.812488,1.431977 -4.558618,0.172378 -4.867393,0.09817 -5.853481,-1.406792 z M 86.875,22.523454 86.875,15 l 5.558131,0 c 4.191775,0 5.640807,0.215445 5.894438,0.876396 C 98.825275,17.173406 98.208112,17.5 95.25945,17.5 c -3.442588,0 -4.63445,0.490593 -4.63445,1.907624 0,0.927199 0.572844,1.185645 2.96875,1.339382 2.508588,0.160967 2.998981,0.402912 3.163775,1.560916 0.17455,1.22657 -0.120675,1.390584 -2.8125,1.5625 C 91.418194,24.0318 90.9375,24.262287 90.9375,25.3125 c 0,1.076389 0.520831,1.293402 3.75,1.5625 3.229169,0.269097 3.75,0.486111 3.75,1.5625 0,1.146958 -0.476569,1.264814 -5.78125,1.429704 l -5.78125,0.179703 0,-7.523453 z m 15.625,0.35255 c 0,-6.689752 0.0945,-7.257617 1.3171,-7.911915 0.72441,-0.387689 1.52101,-0.467897 1.77022,-0.17824 0.24922,0.289658 1.80739,2.284463 3.4626,4.432901 1.65521,2.148437 3.22685,3.90625 3.49253,3.90625 0.26568,0 0.67883,-1.828125 0.91811,-4.0625 0.35471,-3.312217 0.64012,-4.0625 1.54538,-4.0625 0.61068,0 1.28104,0.444878 1.48969,0.988617 0.57401,1.495827 0.43566,12.329872 -0.16963,13.284815 -1.14974,1.813884 -3.46982,0.481637 -6.0135,-3.453102 -1.375,-2.126944 -2.83814,-3.884756 -3.25143,-3.90625 -0.49067,-0.02552 -0.816,1.316446 -0.9375,3.86717 -0.17832,3.743617 -0.25763,3.914484 -1.90482,4.104014 l -1.71875,0.197764 0,-7.207024 z m -65.96875,5.307279 c -0.326563,-0.311694 -2.632813,-1.167353 -5.125,-1.901466 -2.726224,-0.803051 -4.53125,-1.670626 -4.53125,-2.17792 0,-0.879761 3.22625,-2.386133 6.730081,-3.142351 2.001167,-0.431904 2.07403,-0.369729 3.59375,3.066626 0.853143,1.929109 1.551169,3.7807 1.551169,4.114649 0,0.765424 -1.431849,0.791536 -2.21875,0.04046 z M 16.138901,21.328191 c -1.60798,-0.55863 -3.129935,-1.225147 -3.382123,-1.481147 -0.252189,-0.256002 -0.08726,-2.433093 0.366512,-4.83798 0.633795,-3.358988 1.005146,-4.223047 1.602052,-3.727658 0.427359,0.354676 0.950594,1.336455 1.162745,2.18173 C 16.100238,14.308411 16.520387,15 16.821754,15 17.487756,15 21.25,20.754748 21.25,21.773467 c 0,0.942356 -1.490714,0.812486 -5.111099,-0.445276 z m 7.961449,-1.266948 c -0.191631,-0.310066 -0.251924,-2.349129 -0.133983,-4.53125 l 0.214438,-3.967493 4.618085,-0.186577 4.618086,-0.186578 -1.609657,1.749078 c -0.885311,0.961992 -2.545558,3.085014 -3.689437,4.717827 -1.99506,2.847814 -3.271579,3.61197 -4.017532,2.404993 z"
       id="path3493"
       inkscape:connector-curvature="0" />
    <path
       style="fill:#333b44"
       d="M 23.793629,37.347876 C 24.113383,36.232958 24.375,33.561083 24.375,31.410376 24.375,29.163947 24.646808,27.5 25.013765,27.5 c 0.712314,0 4.361235,5.4823 4.361235,6.552511 0,0.630041 -5.163385,5.322489 -5.856658,5.322489 -0.168346,0 -0.04447,-0.912206 0.275287,-2.027124 z M 12.03125,30.828156 C 8.8046369,28.949206 8.6596688,28.125 11.555796,28.125 c 1.199438,0 3.660375,-0.562358 5.46875,-1.249685 3.901942,-1.483049 3.600454,-1.447435 3.600454,-0.425314 0,1.125452 -4.294159,6.065211 -5.204952,5.987482 -0.402901,-0.03438 -1.92786,-0.758581 -3.388798,-1.609327 z M 53.838447,29.4423 c -0.620817,-0.392926 -0.808308,-1.860261 -0.697481,-5.45859 0.203337,-6.601932 0.277243,-6.372063 -2.197997,-6.83642 -3.84738,-0.721773 -1.667148,-1.52229 4.146,-1.52229 4.234102,0 5.575406,0.194765 5.380303,0.78125 -0.142942,0.429687 -1.080442,0.923687 -2.083333,1.097777 L 56.5625,17.820555 56.25,23.704252 c -0.307629,5.791977 -0.731781,6.801205 -2.411553,5.738048 z M 65.15625,29.583333 C 64.295344,29.238971 64.12375,24.3697 64.779988,18.90625 65.100006,16.241976 65.396631,15.625 66.357525,15.625 c 1.101125,0 1.171125,0.485367 1.006694,6.980324 -0.170875,6.749475 -0.463925,7.675627 -2.207969,6.978009 z m 7.776481,-0.700481 C 72.350981,28.240024 71.875,27.425455 71.875,27.072698 71.875,26.203841 78.486875,20 79.412875,20 79.818612,20 79.105825,21.274984 77.8289,22.833299 74.852119,26.466074 75.200469,27.5 79.401212,27.5 c 2.701294,0 3.158469,0.167691 2.981907,1.09375 -0.322175,1.689748 -7.971063,1.923739 -9.450388,0.289102 z m 14.683294,0.319449 c -0.478012,-0.57597 -0.57875,-2.882538 -0.314988,-7.212047 l 0.387788,-6.365254 4.8687,0 c 2.677787,0 5.042525,0.28125 5.254975,0.625 0.237306,0.383972 -0.787025,0.625 -2.656156,0.625 -3.466031,0 -5.397925,1.089009 -5.062632,2.853811 0.177938,0.936551 0.900288,1.279049 3.208301,1.521189 3.796706,0.398324 4.0886,1.468362 0.511475,1.875 -2.901676,0.329854 -4.287494,1.613264 -3.620069,3.352548 0.303956,0.792098 1.25195,1.022452 4.207794,1.022452 3.29665,0 3.787043,0.148719 3.606587,1.09375 -0.173244,0.907257 -1.017075,1.124577 -4.948931,1.274546 -3.40645,0.129928 -4.937794,-0.05745 -5.442844,-0.665995 z m 15.702835,0.03726 c -0.36122,-0.468237 -0.50007,-3.468399 -0.33361,-7.208313 0.25741,-5.783471 0.40089,-6.40625 1.47584,-6.40625 0.69614,0 1.50964,0.713891 1.95856,1.71875 0.92326,2.066625 5.32273,6.40625 6.49458,6.40625 0.59035,0 0.83858,-0.963528 0.84534,-3.28125 0.0103,-3.538144 0.68621,-5.260053 1.79556,-4.574436 0.4373,0.270268 0.69487,2.823557 0.69487,6.888203 0,5.573313 -0.14994,6.51676 -1.09375,6.881917 -1.29144,0.499656 -3.60914,-2.00365 -5.80126,-6.265848 -2.3284,-4.527154 -3.52441,-3.56673 -3.87917,3.115058 -0.16512,3.110008 -1.02365,4.195005 -2.15696,2.725922 z M 35.728635,27.823605 C 34.926259,27.381496 33.955947,26.705947 33.572385,26.322385 33.188823,25.938823 32.141255,25.625 31.244456,25.625 c -0.896799,0 -2.176487,-0.403534 -2.84375,-0.896741 -1.158985,-0.856664 -1.115443,-0.937279 0.974294,-1.803793 1.203125,-0.498878 3.058691,-1.09265 4.12348,-1.319493 1.8593,-0.396107 1.989264,-0.284228 3.28125,2.824638 1.920973,4.622375 1.812711,4.971952 -1.051095,3.393994 z M 16.25,20.699544 C 13.009821,19.493326 12.72773,18.675009 13.962079,14.0625 l 0.836278,-3.125 1.401333,3.219757 c 0.770733,1.770865 2.081727,3.858954 2.913321,4.640196 1.621268,1.523102 2.008116,3.118333 0.730739,3.013322 C 19.414062,21.77545 17.796875,21.275397 16.25,20.699544 Z m 8.125,-1.862312 c 0,-0.639523 0.178854,-2.467648 0.397452,-4.0625 l 0.397453,-2.899732 3.821297,0.02602 3.821298,0.02602 -2.34375,2.071469 C 29.179687,15.137814 28.115643,16.321419 28.104207,16.62874 28.071687,17.502616 25.813669,20 25.056067,20 24.68148,20 24.375,19.476754 24.375,18.837232 Z M 78.75,17.760434 C 77.890625,17.28358 75.992187,16.889281 74.53125,16.884214 73.070312,16.879146 71.875,16.59375 71.875,16.25 c 0,-1.025926 9.799575,-0.798793 10.196794,0.236341 0.311556,0.81191 -0.667819,2.335676 -1.415544,2.202379 -0.189063,-0.03371 -1.046875,-0.451433 -1.90625,-0.928286 z"
       id="path3491"
       inkscape:connector-curvature="0" />
    <path
       style="fill:#252628"
       d="m 25.019877,29.53125 c 0.01904,-1.646289 0.05856,-1.667602 0.9375,-0.505544 1.169239,1.545873 1.163177,2.224294 -0.01988,2.224294 -0.610879,0 -0.930575,-0.598804 -0.917623,-1.71875 z m -7.716045,-1.015966 c -0.194112,-0.505848 0.292877,-1.143473 1.183132,-1.5491 1.678717,-0.764875 1.815867,-0.574853 0.866046,1.199904 -0.758696,1.417636 -1.585136,1.558469 -2.049178,0.349196 z M 53.616881,23.322623 53.4375,17.1875 51.394385,16.990766 C 50.270671,16.882562 49.513832,16.531 49.712521,16.209516 50.204501,15.413476 60,15.452023 60,16.25 c 0,0.34375 -0.838392,0.625 -1.863093,0.625 -2.280481,0 -2.582079,0.956211 -2.359001,7.479169 0.136182,3.982096 0.0026,4.698716 -0.911025,4.885123 -0.943654,0.192547 -1.091891,-0.509111 -1.25,-5.916669 z m 11.392688,0.0044 c 0.0085,-5.453335 0.600981,-8.54986 1.469694,-7.681151 0.163475,0.163474 0.3897,3.240486 0.502731,6.837804 0.183019,5.824885 0.08582,6.564779 -0.888244,6.761751 -0.98295,0.198768 -1.092781,-0.400792 -1.084181,-5.918404 z m 7.788712,4.753132 c -0.441056,-1.389645 0.903425,-3.312236 3.132225,-4.479043 1.234713,-0.646389 1.236263,-0.634698 0.08744,0.659612 -1.828644,2.060229 -0.923369,3.144554 2.806587,3.361679 1.909563,0.111157 3.371582,0.514332 3.522169,0.971292 0.190656,0.57854 -0.961387,0.78125 -4.440006,0.78125 -4.202719,0 -4.74075,-0.13637 -5.108419,-1.29479 z M 87.5,23.187162 c 0,-3.431115 0.244912,-6.389756 0.544256,-6.574759 1.035407,-0.639917 8.178138,-0.912707 8.540632,-0.326177 C 96.795681,16.62729 95.504744,16.875 93.5165,16.875 c -2.861331,0 -3.497013,0.204003 -3.821506,1.226392 -0.739769,2.330802 0.699556,3.773608 3.764493,3.773608 3.729763,0 3.582875,1.130668 -0.178237,1.372006 -2.839613,0.182208 -2.96875,0.272055 -2.96875,2.065494 0,1.830546 0.08549,1.882409 3.605631,2.1875 5.447944,0.472173 4.679031,1.534876 -1.261881,1.744026 L 87.5,29.425553 l 0,-6.238391 z m 15.63457,0.406588 c 0.01,-5.837047 0.52329,-7.860736 1.79556,-7.074436 0.43443,0.268495 0.69487,2.758147 0.69487,6.642572 0,5.796447 -0.0838,6.213114 -1.25,6.213114 -1.1606,0 -1.24931,-0.413476 -1.24043,-5.78125 z m 8.50036,2.924008 c -1.94889,-3.486937 -1.97097,-3.613214 -0.46772,-2.674416 2.25695,1.409486 3.20779,0.276067 3.20779,-3.823726 0,-5.695397 1.23186,-4.582255 1.36161,1.230384 0.0614,2.75 0.1317,5.632812 0.15625,6.40625 0.0311,0.977626 -0.36191,1.464231 -1.28918,1.596479 -1.02598,0.146322 -1.71118,-0.484921 -2.96875,-2.734971 z M 35.840673,25.285545 c -0.203553,-0.530451 -0.230446,-1.104106 -0.05976,-1.274789 0.170683,-0.170685 0.460348,0.26332 0.643699,0.964455 0.389469,1.48933 -0.04326,1.719307 -0.583937,0.310334 z m -7.282015,-0.68522 C 27.920579,23.962245 28.721523,23.125 29.970017,23.125 c 0.630436,0 1.308135,0.421875 1.505999,0.9375 C 31.731589,24.728512 31.419135,25 30.397051,25 29.605756,25 28.778479,24.820146 28.558658,24.600325 Z M 18.290245,20.920396 c -0.802003,-0.561745 -1.215016,-1.339949 -1.003577,-1.890952 0.413504,-1.077575 1.708121,-0.282696 2.769444,1.700403 0.746615,1.395064 0.05965,1.469192 -1.765867,0.190549 z m 6.821192,-2.434697 c 0.110584,-1.00474 0.552625,-1.94224 0.982313,-2.083333 1.071597,-0.351872 0.947471,1.142617 -0.220941,2.660134 -0.927122,1.204135 -0.955058,1.182971 -0.761372,-0.576801 z M 72.5,16.25 c 0,-0.34375 1.265625,-0.625 2.8125,-0.625 1.546875,0 2.8125,0.28125 2.8125,0.625 0,0.34375 -1.265625,0.625 -2.8125,0.625 -1.546875,0 -2.8125,-0.28125 -2.8125,-0.625 z"
       id="path3489"
       inkscape:connector-curvature="0" />
  </g>
</svg>
