<?xml version="1.0" encoding="UTF-8" standalone="no"?>
<!-- Created with Inkscape (http://www.inkscape.org/) -->

<svg
   xmlns:dc="http://purl.org/dc/elements/1.1/"
   xmlns:cc="http://creativecommons.org/ns#"
   xmlns:rdf="http://www.w3.org/1999/02/22-rdf-syntax-ns#"
   xmlns:svg="http://www.w3.org/2000/svg"
   xmlns="http://www.w3.org/2000/svg"
   xmlns:xlink="http://www.w3.org/1999/xlink"
   xmlns:sodipodi="http://sodipodi.sourceforge.net/DTD/sodipodi-0.dtd"
   xmlns:inkscape="http://www.inkscape.org/namespaces/inkscape"
   id="svg3440"
   version="1.1"
   inkscape:version="0.91 r13725"
   width="183.75"
   height="46.25"
   viewBox="0 0 183.75 46.25"
   sodipodi:docname="WindowsPhone.svg">
  <metadata
     id="metadata3446">
    <rdf:RDF>
      <cc:Work
         rdf:about="">
        <dc:format>image/svg+xml</dc:format>
        <dc:type
           rdf:resource="http://purl.org/dc/dcmitype/StillImage" />
        <dc:title></dc:title>
      </cc:Work>
    </rdf:RDF>
  </metadata>
  <defs
     id="defs3444" />
  <sodipodi:namedview
     pagecolor="#ffffff"
     bordercolor="#666666"
     borderopacity="1"
     objecttolerance="10"
     gridtolerance="10"
     guidetolerance="10"
     inkscape:pageopacity="0"
     inkscape:pageshadow="2"
     inkscape:window-width="640"
     inkscape:window-height="480"
     id="namedview3442"
     showgrid="false"
     inkscape:zoom="1.4258503"
     inkscape:cx="91.875"
     inkscape:cy="23.125"
     inkscape:window-x="0"
     inkscape:window-y="0"
     inkscape:window-maximized="0"
     inkscape:current-layer="svg3440" />
  <image
     width="183.75"
     height="46.25"
     preserveAspectRatio="none"
     style="image-rendering:optimizeQuality"
     xlink:href="file:///media/havoc/USB%20DISK/pics/_natives/WindowsPhone.png"
     id="image3448"
     x="0"
     y="0"
     sodipodi:absref="/media/havoc/USB DISK/pics/_natives/WindowsPhone.png" />
  <g
     id="g3450">
    <path
       style="fill:#fbfbfb"
       d="M 0,23.125 0,0 l 91.875,0 91.875,0 0,23.125 0,23.125 -91.875,0 L 0,46.25 0,23.125 Z"
       id="path3466"
       inkscape:connector-curvature="0" />
    <path
       style="fill:#cfcfd0"
       d="M 15,40.665546 C 6.9383456,38.204414 2.4957779,32.290499 2.0057491,23.367689 1.7570922,18.839961 1.9113357,17.88784 3.4483051,14.463017 6.5289038,7.5985287 12.502389,3.4279254 20.296078,2.7001396 22.539485,2.490647 24.375,2.1087547 24.375,1.85149 c 0,-0.6727762 1.879043,-1.29776227 2.58675,-0.86037544 0.373084,0.23057824 0.347615,0.67300754 -0.06754,1.17323534 -0.512555,0.6175909 0.123165,1.189405 2.752534,2.4758354 4.347472,2.1270203 8.684034,6.9001177 10.075664,11.0899207 3.179945,9.573917 -3.218155,21.664912 -13.001682,24.570307 C 23.365081,41.296934 17.651229,41.474936 15,40.665546 Z m 11.945873,-9.896015 c 0.232339,-0.251367 0.615038,-1.371094 0.850441,-2.488281 0.427671,-2.029664 0.426013,-2.03125 -2.121655,-2.03125 -1.402312,0 -2.760597,-0.01711 -3.018409,-0.03802 -0.257813,-0.02091 -0.715147,0.995263 -1.016299,2.258164 -0.412927,1.73164 -0.336095,2.436643 0.3125,2.867478 0.902063,0.599202 4.268489,0.216211 4.993422,-0.568091 z M 17.718874,28.27649 c 0.160955,-0.260431 0.482774,-1.486984 0.715154,-2.725676 0.359498,-1.91629 0.237423,-2.300566 -0.818556,-2.57671 -2.43656,-0.637175 -4.38587,0.201609 -5.077179,2.184701 -0.959379,2.752076 -0.898242,2.866162 1.680457,3.135902 1.289063,0.134841 2.538089,0.292443 2.775614,0.350229 0.237526,0.05779 0.563555,-0.108015 0.72451,-0.368446 z m 11.858242,-6.24524 c 0.151738,-0.257813 0.463393,-1.343929 0.692567,-2.413592 0.407753,-1.903176 0.359115,-1.952615 -2.270252,-2.307685 -3.146967,-0.424967 -3.388663,-0.251152 -3.957853,2.846277 L 23.610886,22.5 l 2.845171,0 c 1.564845,0 2.969321,-0.210938 3.121059,-0.46875 z M 20.861509,17.411202 C 21.547134,13.983077 21.417585,13.75 18.826528,13.75 c -2.694768,0 -3.49504,0.674675 -4.077424,3.4375 -0.393829,1.868322 -0.384341,1.875518 2.664339,2.020577 2.964971,0.141075 3.071589,0.08551 3.448066,-1.796875 z M 127.25437,34.636383 c -0.75108,-1.957265 -0.41766,-14.454874 0.40188,-15.063912 0.42969,-0.319322 2.343,-0.648101 4.25181,-0.73062 2.81046,-0.121499 3.68818,0.09044 4.61478,1.114319 1.644,1.816606 2.22716,1.070619 2.22716,-2.849025 0,-3.214152 0.0939,-3.43075 1.40625,-3.244364 1.12958,0.160426 1.44441,0.660835 1.60023,2.543469 0.18794,2.270838 0.26916,2.34375 2.61089,2.34375 1.84424,0 2.713,0.376426 3.66656,1.588679 0.98916,1.257521 1.35689,1.406821 1.76411,0.716241 1.96627,-3.334479 10.0853,-2.780745 10.25294,0.69927 0.0306,0.634653 0.38475,0.298691 0.88474,-0.839245 0.78332,-1.78277 1.0623,-1.906581 4.61195,-2.046764 3.43598,-0.135694 3.87231,-0.0056 4.8174,1.436833 l 1.03921,1.586041 1.45552,-1.570528 c 1.07425,-1.159135 2.09282,-1.570527 3.88849,-1.570527 3.05331,0 4.64282,1.61886 4.74163,4.829164 l 0.0726,2.358336 -3.28125,0.188912 C 176.47656,26.230314 175,26.581876 175,26.907662 c 0,0.649759 0.51491,0.768348 3.69098,0.85007 2.44359,0.06288 3.06419,1.022804 1.60478,2.482224 -1.44252,1.44252 -5.3962,1.290058 -7.39897,-0.285319 -1.36512,-1.073796 -1.64679,-1.127248 -1.64679,-0.3125 0,0.631721 -0.55823,0.982863 -1.5625,0.982863 -1.47046,0 -1.5625,-0.195464 -1.5625,-3.318044 0,-3.590438 -1.129,-5.85196 -2.63325,-5.274723 -1.01271,0.388614 -1.74175,3.102336 -1.74175,6.483392 0,1.652412 -0.25611,2.109375 -1.18224,2.109375 -0.72984,0 -1.32771,-0.579571 -1.56238,-1.51455 l -0.38012,-1.514551 -1.82705,1.827051 c -2.23513,2.235125 -5.34157,2.446939 -7.77812,0.530353 -1.43745,-1.1307 -1.69683,-1.170705 -2.02615,-0.3125 -0.20772,0.541308 -1.05071,0.984197 -1.87331,0.984197 -1.38969,0 -1.49563,-0.235023 -1.49563,-3.318044 0,-6.763129 -3.52421,-7.250657 -3.87661,-0.536277 -0.16068,3.061433 -0.36557,3.567462 -1.51067,3.730864 -0.9314,0.132908 -1.4327,-0.223635 -1.68821,-1.200708 l -0.36343,-1.389751 -1.18054,1.457903 c -0.7832,0.967212 -2.10822,1.581696 -3.93678,1.825708 -2.56303,0.34202 -2.76999,0.510208 -2.95211,2.399055 -0.14271,1.480183 -0.50608,2.03125 -1.33938,2.03125 -0.62895,0 -1.31425,-0.444878 -1.5229,-0.988617 z m 6.28983,-6.995964 c 2.35379,-1.497268 0.8926,-6.831828 -1.47634,-5.389888 -1.38128,0.84076 -1.87898,4.588173 -0.70797,5.330608 1.01421,0.643028 1.2563,0.649597 2.18431,0.05928 z m 22.34218,0.105213 c 1.39323,-0.534631 1.36578,-5.140133 -0.0338,-5.677214 -2.36441,-0.907308 -4.43779,3.058369 -2.69618,5.156877 0.82627,0.995605 1.27073,1.080317 2.73001,0.520337 z M 177.5,22.5 c 0,-0.34375 -0.43847,-0.625 -0.97439,-0.625 -0.53591,0 -0.80056,0.28125 -0.58811,0.625 0.21245,0.34375 0.65092,0.625 0.97439,0.625 0.32346,0 0.58811,-0.28125 0.58811,-0.625 z M 79.435538,30.060536 C 78.31205,28.937052 78.037894,28.874757 77.731456,29.673324 77.5306,30.196746 76.693231,30.625 75.870631,30.625 c -1.3664,0 -1.496369,-0.256522 -1.504162,-2.96875 -0.01114,-3.874126 -0.552913,-5.78125 -1.642332,-5.78125 -1.185681,0 -2.099137,2.601452 -2.099137,5.978187 0,2.5176 -0.1391,2.771813 -1.516675,2.771813 -1.854738,0 -2.010531,-0.658173 -1.608325,-6.794666 l 0.3125,-4.767834 3.838806,-0.184323 c 3.464038,-0.166328 3.95905,-0.03146 5.070513,1.381543 l 1.231712,1.565865 1.444681,-1.537793 C 80.436931,19.182129 81.504194,18.75 83.196219,18.75 c 2.268243,0 2.360337,-0.08473 2.5473,-2.34375 0.155819,-1.882634 0.47065,-2.383043 1.600231,-2.543469 1.322069,-0.187764 1.40625,0.02113 1.40625,3.489583 0,4.265037 0.381587,4.952749 1.796338,3.237441 1.544043,-1.872063 4.479862,-2.47868 6.956406,-1.437373 1.428106,0.600474 2.293812,0.676009 2.731496,0.238329 1.24452,-1.244524 2.32972,-0.610839 3.443,2.010483 l 1.12599,2.651245 0.75361,-2.283476 c 0.95122,-2.88222 2.495,-3.558249 3.96894,-1.738016 0.60457,0.746616 1.09922,1.905424 1.09922,2.575129 0,1.767835 1.08386,0.823112 1.56408,-1.363293 0.22563,-1.027308 0.45821,-1.885722 0.51683,-1.907587 0.0586,-0.02186 2.10982,-0.177452 4.55822,-0.345748 3.73528,-0.256754 4.51504,-0.140709 4.84577,0.721156 0.55394,1.44353 -0.057,2.164346 -1.83429,2.164346 -1.97712,0 -1.95045,0.855784 0.0551,1.769599 3.47992,1.585562 3.03592,6.643918 -0.64378,7.334235 -2.99082,0.561079 -4.80308,-0.15873 -4.56654,-1.813765 0.14976,-1.047791 0.58047,-1.326055 1.91144,-1.234904 2.22098,0.152104 2.17314,-0.483676 -0.16657,-2.213501 -1.75924,-1.300662 -1.91099,-1.318886 -2.27978,-0.273787 -1.6022,4.540502 -2.05187,5.182123 -3.63174,5.182123 -1.29138,0 -1.68475,-0.373662 -1.98762,-1.888006 -0.54318,-2.71591 -1.25914,-2.820515 -2.08925,-0.30525 -0.57183,1.732669 -1.05319,2.193256 -2.29216,2.193256 -1.16864,0 -1.74868,-0.47784 -2.27605,-1.875 -0.72951,-1.932684 -1.68369,-2.518882 -1.68369,-1.034368 0,1.510904 -2.393094,3.050864 -5.239619,3.371709 -2.413818,0.272072 -3.014656,0.0902 -4.452637,-1.347777 -1.598294,-1.598293 -1.675113,-1.613248 -1.995413,-0.388427 -0.183212,0.700625 -0.823562,1.273863 -1.422993,1.273863 -0.599432,0 -2.361132,0.174246 -3.914894,0.387212 -2.366607,0.32438 -3.042281,0.169953 -4.163907,-0.951676 z m 5.207318,-2.917679 c 1.223944,-1.223943 1.253063,-2.789107 0.08125,-4.367151 -0.719269,-0.968616 -1.128781,-1.074493 -2.03125,-0.525167 -1.362906,0.829588 -1.821144,3.728074 -0.786487,4.974756 0.954969,1.150672 1.520412,1.133637 2.736487,-0.08244 z m 11.875,0 c 1.141769,-1.14177 1.242638,-2.363302 0.335157,-4.058945 C 95.591881,20.727476 92.5,22.249518 92.5,25.226769 c 0,1.009753 1.628994,2.898231 2.5,2.898231 0.294644,0 0.977681,-0.441964 1.517856,-0.982143 z M 45.044681,23.406789 C 43.03607,16.107205 42.949127,14.375 44.591356,14.375 c 1.279425,0 2.066624,1.193868 2.884736,4.375 1.432976,5.571957 1.404387,5.561632 2.783538,1.005342 2.139281,-7.067523 4.479922,-7.061361 6.063759,0.01596 0.412788,1.844534 0.966848,3.353696 1.231245,3.353696 0.264396,0 0.829299,-1.557612 1.255339,-3.461361 0.426041,-1.903748 1.079023,-3.838346 1.451073,-4.299106 0.981526,-1.215557 5.13141,-1.710307 5.961035,-0.710675 C 67.233406,15.872435 66.317625,17.5 64.620631,17.5 63.7521,17.5 63.125,17.868547 63.125,18.378987 c 0,0.568649 0.4374,0.764606 1.238862,0.555019 1.723963,-0.450827 2.295688,1.582523 2.013132,7.159744 -0.218482,4.312364 -0.302569,4.53125 -1.740782,4.53125 -1.417975,0 -1.513925,-0.221719 -1.555143,-3.59375 -0.07543,-6.170787 -0.79571,-6.530449 -2.35197,-1.174418 -1.315722,4.528195 -1.476793,4.768168 -3.200425,4.768168 -1.658264,0 -1.899753,-0.291621 -2.796825,-3.377442 C 54.191832,25.389965 53.75,23.514965 53.75,23.080891 c 0,-1.63639 -0.971689,0.275301 -1.875,3.688855 -0.864991,3.268745 -1.087871,3.5574 -2.881689,3.73211 l -1.94419,0.189356 -2.00444,-7.284423 z"
       id="path3464"
       inkscape:connector-curvature="0" />
    <path
       style="fill:#a0a1a3"
       d="M 16.825279,39.968969 C 8.5879875,38.645493 3.2147279,32.37819 2.6520574,23.4375 2.1525484,15.500428 6.2239481,8.6284481 13.4375,5.2331126 17.838149,3.1617776 24.661012,3.1678373 29.126357,5.2470466 35.977738,8.4372713 39.694634,14.222462 39.613541,21.569907 39.479807,33.687103 29.230718,41.962135 16.825279,39.968969 Z m 9.99949,-8.562719 c 0.736037,-0.601563 1.507119,-2.148438 1.713517,-3.4375 0.371305,-2.319007 0.35296,-2.34384 -1.73776,-2.352284 -1.162164,-0.0047 -2.710144,-0.168787 -3.439955,-0.364652 -1.072315,-0.287785 -1.462076,0.03156 -2.03125,1.664299 -0.925358,2.654483 -0.893755,4.778282 0.07693,5.169961 1.671464,0.674451 4.140532,0.364674 5.418519,-0.679824 z m -8.13591,-3.999514 c 1.180978,-3.387756 0.89534,-4.761469 -1.080282,-5.195388 -1.751385,-0.384669 -4.695001,0.363836 -5.303624,1.34861 -0.17406,0.281634 -0.51064,1.547068 -0.747957,2.812075 l -0.431485,2.300012 2.718495,0.242286 c 1.495172,0.133256 3.042543,0.291422 3.438603,0.351477 0.39606,0.06006 1.028873,-0.776527 1.40625,-1.859072 z M 30.41748,21.25 c 0.406923,-0.859375 0.926679,-2.315441 1.155013,-3.235703 0.403631,-1.626762 0.339864,-1.671585 -2.297419,-1.614891 -1.491916,0.03208 -3.121545,-0.05874 -3.621399,-0.201797 -1.109779,-0.317623 -2.93666,4.337709 -2.326361,5.928125 0.322899,0.841458 1.040569,1.027774 3.380122,0.877521 2.457673,-0.15784 3.097849,-0.460367 3.710044,-1.753255 z m -8.830641,-3.823279 c 1.255128,-3.778836 0.867628,-4.277179 -3.337481,-4.29215 -2.48014,-0.0088 -2.758215,0.158138 -3.59375,2.157855 C 14.157524,16.48451 13.75,18.061875 13.75,18.797681 c 0,1.10274 0.265499,1.271193 1.510886,0.958621 0.830987,-0.208565 2.166925,-0.116257 2.96875,0.205129 2.215893,0.888167 2.221783,0.88372 3.357203,-2.53471 z m -8.460751,-7.115023 c 1.165415,-0.8598167 3.769896,-1.904303 5.787735,-2.3210805 2.535351,-0.5236681 3.31813,-0.8882269 2.533738,-1.18002 C 19.047405,5.9177416 13.344093,7.9631038 10.996883,10.558494 9.3739,12.353081 10.542789,12.217595 13.126088,10.311698 Z M 127.91667,34.583333 C 127.6875,34.354167 127.5,31.009937 127.5,27.151712 l 0,-7.014954 2.34375,-0.404714 c 5.34006,-0.922109 7.31237,-0.01314 8.00713,3.690226 0.83808,4.467348 -2.17354,7.836362 -6.29993,7.047553 C 130.26656,30.224296 130,30.418204 130,31.598052 c 0,2.658103 -0.99078,4.077831 -2.08333,2.985281 z m 5.87442,-6.480323 C 134.6643,27.635683 135,26.789153 135,25.054538 c 0,-3.054056 -1.284,-4.274459 -3.45601,-3.284826 -2.59065,1.180377 -1.92455,6.694951 0.84085,6.961282 0.10854,0.01046 0.74135,-0.27214 1.40625,-0.627984 z M 56.384051,29.84375 C 56.029849,29.414062 55.311856,27.418007 54.78851,25.40807 53.370119,19.960661 53.411619,19.950329 51.406577,26.25 c -0.921593,2.895571 -1.328263,3.4375 -2.579533,3.4375 -1.346746,0 -1.650969,-0.583619 -3.257938,-6.25 -2.10996,-7.439996 -2.213218,-8.605054 -0.737465,-8.32085 0.751429,0.144712 1.466949,1.57969 2.34375,4.700402 0.69416,2.470653 1.456402,4.677769 1.69387,4.9047 0.237469,0.226932 0.885363,-1.234813 1.439764,-3.248324 2.250789,-8.174561 3.399978,-8.589488 5.379093,-1.942178 0.742003,2.492188 1.558443,4.763033 1.814312,5.046323 0.255869,0.283291 0.949933,-1.462855 1.542364,-3.880323 1.003937,-4.096654 2.352183,-6.383606 3.239987,-5.495802 0.208765,0.208765 0.875563,0.114128 1.481769,-0.210304 0.780431,-0.417674 1.324356,-0.322185 1.863212,0.327094 0.764607,0.921295 0.592707,1.0649 -2.232612,1.865129 -0.365937,0.103647 -1.450749,2.818854 -2.410689,6.033791 C 59.291671,28.893184 58.476601,30.625 57.5,30.625 c -0.259569,0 -0.761746,-0.351563 -1.115949,-0.78125 z m 23.08383,-0.805127 c -3.116537,-3.962032 -0.762487,-9.774208 4.01275,-9.907529 2.373619,-0.06627 2.463444,-0.148013 2.65085,-2.412344 0.200188,-2.418805 1.523632,-3.219751 2.23915,-1.355133 0.536988,1.399372 0.454281,12.926852 -0.09895,13.791693 -0.25255,0.394796 -2.034575,0.914167 -3.96005,1.15416 -3.308719,0.4124 -3.574575,0.342647 -4.84375,-1.270847 z m 6.188506,-2.558674 c 1.093938,-2.877282 -0.6953,-5.698567 -3.124943,-4.927429 -1.4708,0.466814 -2.21945,2.740267 -1.649794,5.00998 0.309494,1.233121 0.788169,1.5625 2.270725,1.5625 1.453856,0 2.019963,-0.371915 2.504012,-1.645051 z M 92.0181,30.206691 C 90.966044,29.783399 89.375,26.649174 89.375,25 c 0,-2.424464 1.765069,-4.866779 4.06605,-5.626171 1.931225,-0.637362 2.498431,-0.561751 4.457656,0.594221 2.047982,1.208339 2.309984,1.235466 2.987224,0.309291 0.89118,-1.218773 1.71778,-0.43567 2.67598,2.535159 0.77804,2.412249 1.46957,2.373884 2.31983,-0.128703 1.41139,-4.154176 3.03249,-4.216031 4.12537,-0.157408 0.59765,2.219503 1.86789,3.462983 1.86789,1.828537 0,-0.354791 0.4219,-1.65483 0.93756,-2.888977 0.7407,-1.772746 1.11474,-2.096861 1.78136,-1.543613 0.63194,0.52446 1.33231,0.456587 2.78944,-0.270325 1.4838,-0.740217 2.24781,-0.808894 3.21864,-0.289322 1.8472,0.988593 1.56054,1.887311 -0.602,1.887311 -2.45511,0 -2.47941,1.53035 -0.0443,2.789595 2.35173,1.216127 2.94277,3.071668 1.62097,5.08899 -0.84012,1.282183 -1.44566,1.532494 -3.32789,1.375648 -1.59945,-0.133284 -2.36406,-0.525161 -2.50815,-1.285483 -0.16096,-0.849372 0.2219,-1.09375 1.71356,-1.09375 1.29073,0 1.92082,-0.307529 1.92082,-0.9375 0,-0.515625 -0.29403,-0.9375 -0.65341,-0.9375 -0.35937,0 -1.37358,-0.720171 -2.25379,-1.600379 -0.88021,-0.880208 -1.67325,-1.51302 -1.76232,-1.40625 -0.0891,0.106771 -0.64964,1.686598 -1.24569,3.510728 -0.89201,2.729884 -1.31224,3.282704 -2.37545,3.125 -0.83952,-0.124524 -1.54844,-0.957401 -2.02504,-2.379099 -0.40333,-1.203125 -0.96439,-2.1875 -1.2468,-2.1875 -0.28241,0 -0.84472,0.984375 -1.24957,2.1875 -1.27286,3.782645 -3.17207,3.154074 -4.72107,-1.5625 l -0.82103,-2.5 -0.52786,2.5 c -0.29033,1.375 -1.152826,2.985934 -1.916664,3.579852 -1.312787,1.020748 -4.818637,1.38925 -6.558206,0.689339 z m 5.536238,-3.787109 C 98.27045,24.536056 97.07205,21.67775 95.433969,21.362283 93.632663,21.015383 92.5,22.457044 92.5,25.096668 c 0,1.962566 0.276831,2.546517 1.40625,2.966346 1.872275,0.695967 2.941838,0.214138 3.648088,-1.643432 z m 53.008922,2.264321 c -1.6632,-1.780457 -1.81326,-1.830557 -1.81326,-0.605384 0,1.358128 -1.56614,2.43811 -2.37071,1.634801 -0.24298,-0.242607 -0.58242,-2.173096 -0.75429,-4.289977 -0.22415,-2.760755 -0.57754,-3.894517 -1.25,-4.010325 -1.91299,-0.329445 -2.72387,0.964366 -3.00039,4.787317 C 141.19266,28.715778 140.83089,30 140.30425,30 139.05648,30 138.75,28.459467 138.75,22.1875 c 0,-6.36037 0.30286,-7.8125 1.62937,-7.8125 0.60318,0 0.87063,0.790365 0.87063,2.572861 0,2.453749 0.0776,2.55803 1.67578,2.252514 2.23437,-0.427126 4.27217,0.577065 5.17005,2.547702 l 0.73368,1.610237 1.3665,-1.62028 c 2.15326,-2.553168 3.87465,-3.185416 6.4019,-2.35135 2.5971,0.857124 3.40209,2.18232 3.40209,5.600637 0,5.41077 -5.73638,7.657837 -9.43674,3.696582 z m 5.72783,-0.580893 c 0.86657,-0.463777 1.20891,-1.313308 1.20891,-3 0,-2.54685 -0.87473,-3.85301 -2.58036,-3.85301 -2.96065,0 -4.16958,4.766181 -1.65557,6.52706 1.64816,1.154421 1.50734,1.139258 3.02702,0.32595 z m 16.66121,0.826835 -1.73521,-1.742345 -0.36893,1.40625 c -0.42587,1.623206 -1.78803,1.865925 -2.34379,0.417633 -0.20866,-0.54374 -0.37937,-2.352912 -0.37937,-4.020383 0,-2.506534 -0.22175,-3.102146 -1.27999,-3.438019 -2.00497,-0.636354 -3.0939,0.763937 -3.10458,3.992297 -0.0106,3.185182 -0.72381,4.847786 -1.79555,4.185408 -0.99992,-0.617985 -0.92163,-9.087413 0.0864,-9.343044 0.42969,-0.10897 1.7174,-0.505924 2.86158,-0.882121 2.60245,-0.85566 4.9791,0.07909 5.50241,2.164128 0.46153,1.838895 0.69838,1.822725 2.25314,-0.153824 0.69618,-0.885046 1.94777,-1.86847 2.78133,-2.185386 3.03986,-1.155755 6.73583,2.382224 5.59481,5.355663 -0.24618,0.641536 -1.24558,0.938898 -3.15552,0.938898 -1.53738,0 -2.99542,0.323917 -3.2401,0.719815 -0.71658,1.159456 1.68601,2.490248 3.69802,2.048334 1.50779,-0.331163 1.75428,-0.211276 1.56927,0.763238 -0.16243,0.855631 -0.86784,1.202856 -2.71408,1.335958 -2.03375,0.146621 -2.81517,-0.142036 -4.22981,-1.5625 z m 5.7977,-6.387728 c 0,-1.146001 -2.61335,-1.446626 -3.64112,-0.418854 -0.91898,0.918983 -0.80996,1.001737 1.31969,1.001737 1.27679,0 2.32143,-0.262298 2.32143,-0.582883 z M 63.504369,29.011383 c -0.491332,-1.280382 -0.491332,-7.367384 0,-8.647766 0.488906,-1.274068 1.877356,-1.274068 2.366262,0 C 66.079288,20.907357 66.25,22.853104 66.25,24.6875 66.25,28.539503 65.820444,30 64.6875,30 64.245431,30 63.713019,29.555122 63.504369,29.011383 Z m 4.433906,0.593556 C 67.697225,29.363889 67.5,27.279229 67.5,24.972361 c 0,-2.995358 0.2723,-4.420297 0.952606,-4.984896 0.523932,-0.434825 1.11535,-0.627844 1.314263,-0.428931 0.198912,0.198914 1.005681,0.116804 1.792818,-0.182465 C 75.090581,18.033625 77.5,20.81709 77.5,26.238578 c 0,2.335223 -0.2648,3.277266 -1.000575,3.559611 -1.444988,0.554493 -2.103944,-0.897969 -2.114856,-4.661555 -0.0069,-2.363411 -0.278082,-3.403903 -0.955025,-3.663671 -1.705175,-0.654337 -2.737844,0.989757 -2.931157,4.666641 -0.136443,2.59534 -0.443343,3.584669 -1.153862,3.719678 -0.532388,0.101162 -1.1652,-0.01329 -1.40625,-0.254343 z"
       id="path3462"
       inkscape:connector-curvature="0" />
    <path
       style="fill:#7287a1"
       d="M 15.202609,39.139439 C 9.4719188,37.261656 5.5693337,33.421412 3.7636471,27.883206 2.6441411,24.449579 3.2208369,17.209251 4.8700772,13.992147 8.1716444,7.5519175 16.407772,3.1124359 23.346496,4.03289 c 4.372287,0.5800044 6.760225,1.7136331 10.105941,4.7976063 4.405652,4.0609887 5.588427,6.7556807 5.588427,12.7320037 0,5.60867 -1.118121,8.457372 -5.010657,12.765944 -4.027738,4.458225 -12.947936,6.737593 -18.827598,4.810995 z m 12.60176,-8.125834 c 0.469239,-0.729358 1.045109,-2.376616 1.279712,-3.660575 l 0.426551,-2.33447 -2.411566,0.13309 c -1.326362,0.0732 -3.04416,-0.09049 -3.817331,-0.363744 -1.176845,-0.415927 -1.516554,-0.210112 -2.086107,1.263881 -0.374189,0.968392 -0.830344,2.657907 -1.013679,3.754479 -0.307756,1.840768 -0.171656,2.035661 1.773565,2.539719 2.8186,0.730373 4.814246,0.275761 5.848855,-1.33238 z M 19.302934,26.701281 C 20.465507,22.957706 19.696586,21.875 15.87538,21.875 c -3.095357,0 -4.234191,1.177159 -4.954664,5.121402 l -0.421755,2.308902 3.34427,0.225645 c 4.620665,0.311767 4.457933,0.396108 5.459703,-2.829668 z m 10.016985,-3.546803 c 1.163645,-0.622764 3.49155,-5.895421 2.97284,-6.733421 C 32.128135,16.155101 30.223074,15.9375 28.059291,15.9375 l -3.934152,0 -0.913258,2.939637 c -0.746009,2.401287 -0.766345,3.116659 -0.111042,3.90625 0.892691,1.075628 4.500404,1.290899 6.21908,0.371091 z M 21.786431,18.174155 C 22.178894,16.864231 22.5,15.342814 22.5,14.793227 c 0,-2.056623 -4.940014,-3.120156 -7.022997,-1.511977 -1.038492,0.801774 -2.636845,5.762656 -2.119025,6.576921 0.158907,0.249881 1.959765,0.50908 4.001904,0.575996 l 3.712981,0.121668 0.713568,-2.38168 z m -9.231675,-6.26697 C 15.502359,9.7719519 18.282201,8.7557038 22.751318,8.17955 25.785874,7.7883375 25.867247,7.7298225 24.461252,6.9499437 22.425601,5.8208063 17.376886,5.963875 14.882499,7.2213831 11.018577,9.1693206 7.1581425,13.75 9.3804119,13.75 c 0.3467262,0 1.7751811,-0.829267 3.1743441,-1.842815 z M 128.125,27.570937 l 0,-6.804063 1.71875,-0.325006 c 0.94531,-0.178753 2.33569,-0.520577 3.08974,-0.75961 1.90085,-0.602574 4.56651,2.103015 4.56651,4.634924 0,4.131579 -3.31434,7.253938 -6.11112,5.757145 -1.57315,-0.841923 -2.01388,-0.356665 -2.01388,2.21734 0,1.145833 -0.28125,2.083333 -0.625,2.083333 -0.37839,0 -0.625,-2.684688 -0.625,-6.804063 z M 134.875,28 c 1.32019,-1.320196 0.92206,-5.308601 -0.63907,-6.40206 -1.78759,-1.252083 -2.10624,-1.227634 -3.61093,0.27706 -1.36392,1.363916 -1.61961,3.766546 -0.60301,5.666088 0.73327,1.370138 3.66459,1.64733 4.85301,0.458912 z m -41.6933,1.944233 c -2.089231,-0.836089 -3.138444,-2.407957 -3.161825,-4.736866 -0.02831,-2.822953 0.513162,-3.877711 2.524825,-4.917983 2.407487,-1.244958 3.862819,-1.149504 5.808512,0.380979 C 99.689244,21.721284 100,22.487898 100,24.732863 100,27.390511 98.477113,30 96.926119,30 c -0.315638,0 -0.94845,0.123039 -1.40625,0.273419 -0.457807,0.15038 -1.509981,0.0023 -2.338169,-0.329186 z M 97.375,28 c 1.241969,-1.241967 0.913794,-5.158033 -0.542712,-6.476153 -1.179725,-1.06764 -1.439194,-1.088046 -2.96875,-0.233481 -1.279413,0.714811 -1.722557,1.496714 -1.872619,3.304138 -0.108113,1.302252 0.137262,2.769978 0.545281,3.261613 0.902531,1.087487 3.808781,1.173905 4.8388,0.143883 z m 55.125,1.831347 c -3.45689,-1.781939 -3.89349,-6.769503 -0.80523,-9.198731 3.96802,-3.121244 8.93974,0.413574 7.89921,5.616219 -0.66063,3.303174 -4.18403,5.082516 -7.09398,3.582512 z m 5.23475,-3.024827 c 1.26043,-3.60771 -1.11128,-6.767825 -4.19844,-5.594089 -2.07672,0.789571 -2.7766,3.883703 -1.36557,6.037199 1.43282,2.18677 4.73714,1.923619 5.56401,-0.44311 z m 16.95275,3.063594 c -1.99911,-1.146486 -2.77134,-2.52105 -2.79263,-4.970805 -0.0156,-1.801288 0.38932,-2.632498 1.90309,-3.90625 1.05761,-0.889933 2.46386,-1.618059 3.125,-1.618059 1.69066,0 3.70204,2.207212 3.70204,4.0625 0,1.428711 -0.23427,1.5625 -2.73598,1.5625 -3.19019,0 -4.78731,1.278278 -3.51402,2.8125 0.42793,0.515625 1.72799,0.9375 2.88902,0.9375 2.39169,0 2.82593,0.912611 0.70473,1.481071 -1.8082,0.484578 -1.8066,0.484754 -3.28125,-0.360957 z m 4.34386,-6.694726 c 0.32492,-0.52574 -1.2069,-2.550388 -1.92959,-2.550388 -0.9655,0 -2.72677,1.427148 -2.72677,2.20949 0,1.031274 4.04659,1.32753 4.65636,0.340898 z M 47.946234,29.564241 C 47.422515,28.668381 44.375,17.606309 44.375,16.601142 c 0,-2.246473 1.285786,-0.719084 2.203554,2.617608 2.16204,7.860437 2.839159,8.009469 4.604732,1.013487 1.527842,-6.053986 2.664101,-6.020533 4.335358,0.127639 0.716992,2.637648 1.4374,4.929501 1.600907,5.093008 0.71788,0.71788 1.47576,-0.653087 2.221238,-4.018106 0.920545,-4.15526 1.6678,-5.809778 2.623956,-5.809778 0.778642,0 0.521541,1.29159 -1.707301,8.576916 -2.274955,7.43605 -3.249633,7.583944 -5.16714,0.784041 -0.616557,-2.186448 -1.427198,-4.077421 -1.801424,-4.202164 -0.374226,-0.124742 -1.131913,1.405686 -1.683749,3.400952 -0.551835,1.995265 -1.229147,4.03289 -1.505136,4.528056 -0.606723,1.08855 -1.750753,1.540817 -2.153761,0.85144 z m 16.104585,-0.30681 c -0.5815,-1.515368 -0.05268,-8.944931 0.636681,-8.944931 0.838225,0 1.170244,8.454756 0.363694,9.261305 -0.430288,0.430289 -0.753019,0.328223 -1.000375,-0.316374 z m 4.473856,0.308911 c -0.776713,-0.77671 -0.437856,-8.968639 0.381575,-9.224762 3.353962,-1.04832 5.4782,-0.957133 6.723975,0.288642 1.0913,1.091304 1.272812,1.932625 1.117594,5.180097 -0.232094,4.855787 -1.372319,4.84034 -1.615188,-0.02188 C 74.965637,22.445265 74.011188,20.625 72.425188,20.625 71.006006,20.625 70,22.831931 70,25.945257 c 0,3.153648 -0.5624,4.534013 -1.475325,3.621085 z M 79.784369,28.857037 C 79.137525,28.142282 78.75,26.637271 78.75,24.839899 78.75,21.15243 80.954287,19.06316 84.201956,19.672426 86.241819,20.055106 86.25,20.046539 86.25,17.528321 86.25,15.697591 86.508669,15 87.1875,15 c 0.778337,0 0.9375,1.205839 0.9375,7.102547 l 0,7.102548 -2.899731,0.397452 c -4.0818,0.559473 -4.285119,0.531614 -5.4409,-0.74551 z M 85.5,28 c 1.827638,-1.827636 0.203394,-7.375 -2.159369,-7.375 -2.509456,0 -4.146094,4.202156 -2.693644,6.916088 C 81.380262,28.911226 84.311581,29.188418 85.5,28 Z m 18.02817,0.647977 c -1.16834,-1.802393 -2.51701,-7.030713 -2.10011,-8.141435 0.27222,-0.725283 1.29116,1.152877 2.52255,4.649708 0.64608,1.8347 1.41054,1.23658 2.34545,-1.835109 0.89004,-2.924269 2.20205,-4.167493 2.73525,-2.591865 0.15509,0.458273 0.58795,2.028536 0.96192,3.489474 0.37398,1.460937 0.92231,2.65625 1.21852,2.65625 0.29622,0 0.87614,-1.407117 1.28871,-3.126927 0.73291,-3.05511 1.49062,-4.251626 2.08312,-3.289518 0.51461,0.835633 -2.50737,9.228945 -3.32285,9.228945 -0.42953,0 -1.24848,-1.265625 -1.81989,-2.8125 -0.57142,-1.546875 -1.31217,-2.770881 -1.64613,-2.720014 -0.33397,0.05087 -1.03385,1.227505 -1.5553,2.614751 -1.26525,3.366075 -1.59757,3.596288 -2.71124,1.87824 z M 116.25,29.416514 c 0,-0.320917 0.77103,-0.67248 1.71341,-0.78125 2.47315,-0.285455 2.39016,-1.850103 -0.1862,-3.510546 -1.61548,-1.041159 -2.17693,-1.811246 -2.0353,-2.791614 0.25263,-1.748622 3.03183,-3.341735 4.62883,-2.65336 1.15555,0.498095 1.15378,0.522303 -0.0583,0.796735 -1.49377,0.338226 -2.8125,1.332787 -2.8125,2.121127 0,0.313253 0.98437,1.150346 2.1875,1.860207 2.28288,1.346933 2.8828,3.346886 1.4375,4.792187 -0.88113,0.881123 -4.875,1.01754 -4.875,0.166514 z m 30.39967,0.149828 C 146.42986,29.346521 146.25,27.686756 146.25,25.877976 c 0,-2.156385 -0.33816,-3.626845 -0.98214,-4.270833 -2.07692,-2.076911 -3.61004,-0.629669 -4.00807,3.783556 -0.18509,2.052165 -0.65488,3.68303 -1.10354,3.83093 -0.59508,0.196165 -0.78125,-1.480109 -0.78125,-7.034129 0,-5.553544 0.18622,-7.23049 0.78125,-7.035021 0.42969,0.141155 0.8702,1.317397 0.97891,2.613871 0.1942,2.31587 0.2349,2.350241 2.3199,1.959091 3.26877,-0.613225 4.66994,1.145811 4.66994,5.862673 0,3.468005 -0.53714,4.916412 -1.47533,3.978228 z M 168.75,25.982143 c 0,-3.439017 -1.01031,-5.357143 -2.8217,-5.357143 -1.44668,0 -2.8033,2.63821 -2.8033,5.451566 0,1.470389 -0.28125,2.673434 -0.625,2.673434 -0.35256,0 -0.625,-1.770833 -0.625,-4.0625 0,-3.822464 0.0849,-4.0625 1.4375,-4.0625 0.79062,0 1.75441,-0.316908 2.14174,-0.70424 1.11294,-1.112938 3.89157,-0.0789 4.56787,1.699883 0.99258,2.610699 0.77063,7.754357 -0.33461,7.754357 -0.7182,0 -0.9375,-0.793651 -0.9375,-3.392857 z M 64.12285,16.347644 c -0.216281,-0.349949 -0.08869,-0.824493 0.283537,-1.054542 0.960925,-0.593886 1.580919,0.219594 0.778738,1.021772 -0.448863,0.448863 -0.79845,0.459647 -1.062275,0.03277 z"
       id="path3460"
       inkscape:connector-curvature="0" />
    <path
       style="fill:#4e6a90"
       d="M 16.7584,38.812347 C 5.3045292,36.43774 -0.30877744,23.894765 5.4714249,13.591518 7.6184919,9.7643575 12.150616,6.0602619 16.007509,4.9803987 19.567975,3.9835299 25.947755,4.4612653 29.0625,5.9579923 c 3.411744,1.639444 7.493862,5.9783737 8.771184,9.3229937 0.759072,1.987603 0.990212,4.086233 0.820406,7.448874 -0.214444,4.246603 -0.467799,5.019691 -2.726501,8.319637 -2.02376,2.9567 -3.250889,4.014969 -6.552589,5.650918 -4.329414,2.145167 -8.825816,2.897834 -12.6166,2.111932 z m 10.324542,-6.471106 c 1.157149,-0.846127 3.127968,-6.517225 2.413742,-6.945622 -0.238802,-0.143234 -2.110245,-0.361157 -4.158763,-0.484272 l -3.724578,-0.223847 -1.162563,3.115358 -1.162562,3.115358 1.362631,1.103392 c 1.585422,1.283797 4.88901,1.447963 6.432093,0.319633 z M 19.144038,27.8125 c 0.43977,-1.03125 0.812268,-2.655399 0.827772,-3.609219 0.03601,-2.215152 -2.387961,-3.316551 -5.59681,-2.54307 -1.950246,0.4701 -2.309177,0.894231 -3.309367,3.910526 -0.677631,2.043541 -0.884363,3.528467 -0.522077,3.75 0.329885,0.201719 2.22004,0.366763 4.200345,0.366763 3.406266,0 3.643701,-0.101177 4.400137,-1.875 z m 9.370668,-4.074129 c 1.30078,-0.453454 2.248472,-1.525981 3.29373,-3.727597 0.807122,-1.700032 1.328654,-3.452611 1.15896,-3.89462 -0.214621,-0.559034 -1.748462,-0.798673 -5.039151,-0.787288 -4.002442,0.01384 -4.774999,-0.153354 -5.018951,-1.086225 -0.660677,-2.526435 -7.22019,-2.948067 -8.505359,-0.546707 -0.336191,0.628179 -0.876412,2.322264 -1.200491,3.764633 -0.671928,2.990537 -0.735787,2.93972 4.202366,3.344093 l 3.343311,0.273776 1.15413,-2.570468 1.154132,-2.570468 -0.122442,3.707709 c -0.114433,3.465232 -0.02026,3.737057 1.440059,4.15645 2.215662,0.636325 2.128994,0.63765 4.139706,-0.06329 z M 35.625,15.982001 c 0,-1.59219 -0.564335,-2.741368 -2.195626,-4.47104 -2.653598,-2.8136335 -3.574313,-2.437001 -1.307553,0.534874 0.89268,1.170364 1.93297,3.016961 2.311757,4.10355 0.885046,2.538844 1.191422,2.495801 1.191422,-0.167384 z M 12.476938,13.139666 c 2.221691,-1.366548 5.456066,-2.759642 7.1875,-3.095765 C 21.395872,9.7077794 24.078125,9.1836963 25.625,8.8792725 L 28.4375,8.325775 25.625,6.9891137 C 21.973439,5.2536826 18.565566,5.2865263 14.682951,7.0945687 11.223103,8.7057388 7.5,12.49064 7.5,14.396748 c 0,1.677671 0.3490344,1.589512 4.976938,-1.257082 z M 128.17434,27.34375 c -0.0425,-5.791243 0.0901,-6.71875 0.96102,-6.71875 0.79111,0 0.91587,0.372964 0.57488,1.71875 -0.74814,2.952789 -0.50498,4.639288 0.86667,6.01094 1.23306,1.233062 1.44221,1.258666 3.03004,0.370938 1.42617,-0.797347 1.73686,-1.439079 1.89668,-3.917592 0.18138,-2.812985 0.0893,-3.006877 -1.80746,-3.80439 -1.24384,-0.522999 -1.67006,-0.953393 -1.12863,-1.139707 2.60613,-0.89681 5.39199,2.871044 4.64326,6.279973 -0.64189,2.922494 -2.35662,4.092472 -5.30662,3.620749 -2.35487,-0.376559 -2.52519,-0.29835 -2.88312,1.323818 -0.72297,3.276587 -0.79758,2.946615 -0.84672,-3.744729 z m -79.950521,1.837819 c -0.749595,-0.903206 -3.825402,-11.162855 -3.841055,-12.812205 -0.01791,-1.887441 1.297087,0.203518 2.205038,3.506197 2.164215,7.872347 2.802587,7.97897 4.654984,0.777487 0.638853,-2.483646 1.304989,-4.659156 1.480301,-4.834468 0.759947,-0.759947 1.583219,0.698275 2.621284,4.642954 1.134462,4.310986 2.03486,6.116325 2.713442,5.440565 C 58.266641,25.69414 59,23.415221 59.6875,20.837836 c 0.6875,-2.577386 1.53125,-4.651252 1.875,-4.608591 0.825418,0.102437 0.549978,1.585495 -1.496717,8.058824 -1.078348,3.410618 -2.030614,5.399431 -2.585307,5.399431 -0.681947,0 -2.950989,-5.917239 -3.684227,-9.607778 -0.02544,-0.128028 -0.422353,0.07936 -0.882035,0.460863 -0.459683,0.381503 -1.210468,2.255489 -1.668412,4.164416 -0.457944,1.908925 -1.151326,3.906621 -1.540847,4.439324 -0.626109,0.856255 -0.797834,0.860573 -1.481136,0.03724 z m 31.499118,-0.570635 c -1.169106,-1.669141 -1.276068,-5.492063 -0.191687,-6.851276 1.309319,-1.641155 3.100612,-2.303586 4.643219,-1.717089 1.670087,0.634968 2.700531,-0.724938 2.700531,-3.563981 0,-1.193279 0.200669,-1.527918 0.647994,-1.080597 0.388844,0.388845 0.576306,3.247849 0.46875,7.148921 -0.151932,5.51026 -0.339632,6.53163 -1.231744,6.702393 -0.917706,0.175661 -1.006719,-0.242149 -0.695019,-3.262228 C 86.466769,22.094138 85.735612,20.625 83.396412,20.625 c -2.499887,0 -4.134931,3.598218 -2.990375,6.580884 0.223319,0.581965 1.278007,1.437709 2.34375,1.901653 l 1.937713,0.843536 -1.995813,0.02446 c -1.3723,0.01682 -2.299762,-0.40949 -2.96875,-1.364602 z m 11.572425,-0.257721 c -3.140968,-3.993098 -0.238831,-8.77721 5.110888,-8.425184 3.59979,0.236875 4.96719,6.4009 1.946962,8.776609 -2.359981,1.856361 -5.441912,1.702906 -7.05785,-0.351425 z m 5.847494,0.03964 c 1.473694,-1.473694 1.320225,-6.292943 -0.226769,-7.120867 -2.881793,-1.542289 -5.041087,0.0585 -5.041087,3.737213 0,1.792163 0.360337,2.672309 1.389069,3.392857 1.754181,1.228676 2.643018,1.226567 3.878787,-0.0092 z m 13.296924,1.18809 c -0.17946,-0.290381 -0.52434,-1.583619 -0.76639,-2.87386 -0.54022,-2.879602 -1.26988,-3.402867 -2.80626,-2.012458 -1.14403,1.035325 -1.15973,0.995298 -0.52754,-1.345024 1.16593,-4.316221 2.14262,-4.108246 3.34791,0.712895 0.8206,3.282401 2.28038,3.287723 2.96122,0.01079 0.28445,-1.369063 0.78924,-2.76125 1.12174,-3.09375 0.87118,-0.87119 0.75271,0.04938 -0.53867,4.185705 -1.14923,3.68104 -2.2096,5.358054 -2.79201,4.415696 z m 6.43522,-0.242833 c 0,-0.364037 0.27544,-0.491655 0.61208,-0.283597 0.33665,0.208059 1.18398,0.07222 1.88295,-0.301856 1.5503,-0.829693 0.91335,-2.430289 -1.47599,-3.709022 -0.86776,-0.46441 -1.74006,-1.267389 -1.93846,-1.784397 -0.5244,-1.366556 1.47545,-3.269333 3.36004,-3.196942 l 1.62188,0.0623 -1.5625,0.432072 c -2.48377,0.686825 -2.34824,2.790641 0.27966,4.341139 2.414,1.424293 2.76523,2.593011 1.2382,4.120046 -1.10502,1.105017 -4.01786,1.337195 -4.01786,0.320257 z m 34.8351,-0.119364 c -4.53924,-3.446964 -0.39819,-11.215019 4.90396,-9.199149 3.20524,1.218632 3.8781,6.959911 1.0657,9.093182 -1.4122,1.071178 -4.62352,1.128183 -5.96966,0.105967 z m 5.02583,-0.81669 c 2.81771,-1.973599 1.24328,-7.77706 -2.10985,-7.77706 -3.04124,0 -4.4956,5.130476 -2.12608,7.5 1.50432,1.504328 2.40011,1.562918 4.23593,0.27706 z m 16.43443,-0.04884 c -1.69775,-2.158342 -1.64234,-4.75512 0.14583,-6.833985 2.48712,-2.891452 7.30881,-1.562045 7.30881,2.015137 0,1.343311 -0.26245,1.465632 -3.14461,1.465632 -2.23043,0 -3.2501,0.274861 -3.50743,0.945459 -0.49853,1.299156 0.80203,2.698723 3.13689,3.375671 l 1.95265,0.566134 -2.29839,0.05637 c -1.77765,0.0436 -2.59187,-0.316736 -3.59375,-1.590419 z M 178.75,23.4375 c 0.95036,-1.145117 -0.14917,-2.8125 -1.85466,-2.8125 -1.65302,0 -3.30856,2.086783 -2.38681,3.008534 1.03164,1.031633 3.30999,0.926332 4.24147,-0.196034 z M 63.878869,24.84375 c 0.101,-2.492188 0.464881,-4.53125 0.808631,-4.53125 0.34375,0 0.707631,2.039062 0.808631,4.53125 0.153969,3.799365 0.02338,4.53125 -0.808631,4.53125 -0.831994,0 -0.9626,-0.731885 -0.808631,-4.53125 z M 68.125,25.036886 c 0,-4.488639 0.511169,-5.512468 2.262812,-4.532202 0.698563,0.390938 0.799182,0.710486 0.31745,1.008212 C 70.309631,21.757408 70,23.57895 70,25.661886 70,28.545765 69.790631,29.375 69.0625,29.375 c -0.743288,0 -0.9375,-0.898679 -0.9375,-4.338114 z m 7.18635,3.556864 c -0.150925,-0.429688 -0.353037,-2.180794 -0.449131,-3.891348 -0.142094,-2.529355 -0.444025,-3.243698 -1.61695,-3.825574 -1.201288,-0.595942 -1.2738,-0.78011 -0.434044,-1.102354 0.619563,-0.237749 1.597106,0.202038 2.535981,1.140914 1.253056,1.253053 1.527794,2.151062 1.527794,4.993703 0,3.164621 -0.870244,4.658756 -1.56365,2.684659 z m 28.22883,0.3125 C 103.16434,28.285011 101.25,21.790404 101.25,21.136562 c 0,-0.28136 0.2447,-0.511562 0.54377,-0.511562 0.29908,0 0.89813,1.265625 1.33123,2.8125 0.44281,1.581582 1.16221,2.8125 1.64373,2.8125 0.49669,0 0.85627,0.656152 0.85627,1.5625 0,1.469447 -1.41,2.209171 -2.08482,1.09375 z m 36.30357,0.106644 c -0.6671,-0.670628 -0.58341,-13.243261 0.0909,-13.660027 0.47787,-0.295341 1.17759,2.680851 1.38646,5.897133 0.13322,2.051451 -1.03785,8.204765 -1.4774,7.762894 z m 6.27982,-3.528441 c -0.15985,-3.342217 -0.38934,-3.9915 -1.6283,-4.606824 -1.1204,-0.556439 -1.23391,-0.796221 -0.50865,-1.07453 0.51348,-0.19704 1.65467,0.208944 2.53599,0.902186 1.39786,1.099562 1.60239,1.733288 1.60239,4.965078 0,2.822245 -0.21619,3.704637 -0.90768,3.704637 -0.67643,0 -0.95508,-0.99118 -1.09375,-3.890548 z m 23.0261,3.456889 C 168.92986,28.721521 168.75,27.050649 168.75,25.228294 c 0,-2.941925 -0.18405,-3.409805 -1.64173,-4.173562 -1.3073,-0.684961 -1.44083,-0.93728 -0.65555,-1.238625 1.89611,-0.727604 3.58185,1.50468 3.96813,5.254669 0.33251,3.227955 -0.22284,4.918906 -1.27118,3.870566 z M 161.875,22.536886 c 0,-1.226205 1.05676,-2.313456 1.66115,-1.709071 0.49078,0.490786 -0.40639,2.922185 -1.07827,2.922185 -0.32058,0 -0.58288,-0.545901 -0.58288,-1.213114 z m -97.5,-6.948772 c 0,-0.364036 0.28125,-0.488063 0.625,-0.275614 0.34375,0.212449 0.625,0.510298 0.625,0.661886 0,0.151588 -0.28125,0.275614 -0.625,0.275614 -0.34375,0 -0.625,-0.297849 -0.625,-0.661886 z"
       id="path3458"
       inkscape:connector-curvature="0" />
    <path
       style="fill:#656669"
       d="M 15.575884,36.683509 C 12.726515,35.616501 11.009448,34.407319 9.3526188,32.301003 8.6275294,31.379201 7.6818387,30.625 7.2510837,30.625 6.8203287,30.625 5.7860542,29.899216 4.9526962,29.012147 3.6043656,27.576915 3.4375,26.836992 3.4375,22.293397 3.4375,17.740212 3.6471514,16.815392 5.3742399,13.75 7.6218887,9.7606706 12.087139,6.0780345 16.007509,4.9803987 19.56271,3.985004 25.948254,4.4606811 29.041774,5.9513578 c 3.264711,1.5731685 7.030316,5.3987552 8.499828,8.6352212 1.36572,3.00787 1.598252,9.94757 0.405001,12.086856 -1.592956,2.855884 -6.48741,7.875059 -8.884103,9.11049 -3.135418,1.616223 -10.297203,2.093929 -13.486616,0.899584 z M 27.17618,32.273064 c 1.273414,-0.931143 3.050616,-6.063317 2.332657,-6.736212 -0.245485,-0.230078 -2.122398,-0.515305 -4.170916,-0.633838 L 21.613343,24.6875 20.473822,27.740801 c -1.070123,2.867349 -1.075288,3.124278 -0.0848,4.21875 1.258195,1.39029 5.073559,1.56653 6.787162,0.313513 z m -8.031464,-4.461546 c 1.375824,-3.22732 1.085933,-5.254764 -0.856962,-5.993452 -0.941736,-0.358047 -2.650586,-0.474961 -3.797444,-0.259809 -2.177599,0.40852 -3.215724,1.999981 -4.143387,6.351871 l -0.4204911,1.972629 4.2096901,-0.09861 c 4.045068,-0.09475 4.240932,-0.171895 5.008594,-1.972628 z m 9.35577,-4.071066 c 0.996608,-0.349002 2.276308,-1.448193 2.843779,-2.442647 0.840998,-1.473793 1.41879,-1.789813 3.125,-1.709202 1.834161,0.08666 2.117144,-0.10795 2.286416,-1.57236 0.312963,-2.707515 -2.107387,-6.62041 -5.37859,-8.6953836 C 27.97547,7.1631606 23.242359,5.6223467 20.042812,5.6311056 c -4.3233,0.011835 -9.583026,3.3515357 -12.7594614,8.1017104 -2.2563563,3.374251 -0.3100887,4.229537 3.5946884,1.579684 1.26636,-0.859375 2.380185,-1.5625 2.475167,-1.5625 0.09498,0 -0.01116,1.433104 -0.235862,3.184675 -0.458475,3.573794 -0.571236,3.472036 4.288466,3.869985 l 3.343311,0.273776 1.15413,-2.570468 1.154132,-2.570468 -0.122442,3.707709 c -0.114433,3.465232 -0.02026,3.737057 1.440059,4.15645 2.215416,0.636254 2.130206,0.637519 4.125486,-0.06121 z m -3.18525,-9.200844 c -0.685995,-0.173465 -1.919237,-0.843965 -2.740537,-1.49 C 21.753399,12.403574 20.697481,11.875 20.228213,11.875 19.758946,11.875 19.375,11.626515 19.375,11.322811 c 0,-0.687619 7.664304,-1.5532647 9.262179,-1.046119 1.291436,0.409885 2.83685,3.230187 2.271375,4.145143 -0.371335,0.600833 -3.428416,0.665203 -5.593318,0.117772 z M 6.6397119,32.788338 C 6.0366001,31.216654 6.2145176,30.811116 6.9512956,32.078127 7.3161019,32.705471 7.4829194,33.350414 7.3220012,33.511332 7.1610837,33.67225 6.8540531,33.346902 6.6397119,32.788338 Z M 128.17434,27.34375 c -0.0425,-5.791243 0.0901,-6.71875 0.96102,-6.71875 0.79111,0 0.91587,0.372964 0.57488,1.71875 -0.74814,2.952789 -0.50498,4.639288 0.86667,6.01094 1.23306,1.233062 1.44221,1.258666 3.03004,0.370938 1.42617,-0.797347 1.73686,-1.439079 1.89668,-3.917592 0.18138,-2.812985 0.0893,-3.006877 -1.80746,-3.80439 -1.24384,-0.522999 -1.67006,-0.953393 -1.12863,-1.139707 2.60613,-0.89681 5.39199,2.871044 4.64326,6.279973 -0.64189,2.922494 -2.35662,4.092472 -5.30662,3.620749 -2.35487,-0.376559 -2.52519,-0.29835 -2.88312,1.323818 -0.72297,3.276587 -0.79758,2.946615 -0.84672,-3.744729 z m -79.950521,1.837819 c -0.749595,-0.903206 -3.825402,-11.162855 -3.841055,-12.812205 -0.01791,-1.887441 1.297087,0.203518 2.205038,3.506197 2.164215,7.872347 2.802587,7.97897 4.654984,0.777487 0.638853,-2.483646 1.304989,-4.659156 1.480301,-4.834468 0.759947,-0.759947 1.583219,0.698275 2.621284,4.642954 1.134462,4.310986 2.03486,6.116325 2.713442,5.440565 C 58.266641,25.69414 59,23.415221 59.6875,20.837836 c 0.6875,-2.577386 1.53125,-4.651252 1.875,-4.608591 0.825418,0.102437 0.549978,1.585495 -1.496717,8.058824 -1.078348,3.410618 -2.030614,5.399431 -2.585307,5.399431 -0.681947,0 -2.950989,-5.917239 -3.684227,-9.607778 -0.02544,-0.128028 -0.422353,0.07936 -0.882035,0.460863 -0.459683,0.381503 -1.210468,2.255489 -1.668412,4.164416 -0.457944,1.908925 -1.151326,3.906621 -1.540847,4.439324 -0.626109,0.856255 -0.797834,0.860573 -1.481136,0.03724 z m 31.499118,-0.570635 c -1.169106,-1.669141 -1.276068,-5.492063 -0.191687,-6.851276 1.309319,-1.641155 3.100612,-2.303586 4.643219,-1.717089 1.670087,0.634968 2.700531,-0.724938 2.700531,-3.563981 0,-1.193279 0.200669,-1.527918 0.647994,-1.080597 0.388844,0.388845 0.576306,3.247849 0.46875,7.148921 -0.151932,5.51026 -0.339632,6.53163 -1.231744,6.702393 -0.917706,0.175661 -1.006719,-0.242149 -0.695019,-3.262228 C 86.466769,22.094138 85.735612,20.625 83.396412,20.625 c -2.499887,0 -4.134931,3.598218 -2.990375,6.580884 0.223319,0.581965 1.278007,1.437709 2.34375,1.901653 l 1.937713,0.843536 -1.995813,0.02446 c -1.3723,0.01682 -2.299762,-0.40949 -2.96875,-1.364602 z m 11.572425,-0.257721 c -3.140968,-3.993098 -0.238831,-8.77721 5.110888,-8.425184 3.59979,0.236875 4.96719,6.4009 1.946962,8.776609 -2.359981,1.856361 -5.441912,1.702906 -7.05785,-0.351425 z m 5.847494,0.03964 c 1.473694,-1.473694 1.320225,-6.292943 -0.226769,-7.120867 -2.881793,-1.542289 -5.041087,0.0585 -5.041087,3.737213 0,1.792163 0.360337,2.672309 1.389069,3.392857 1.754181,1.228676 2.643018,1.226567 3.878787,-0.0092 z m 13.296924,1.18809 c -0.17946,-0.290381 -0.52434,-1.583619 -0.76639,-2.87386 -0.54022,-2.879602 -1.26988,-3.402867 -2.80626,-2.012458 -1.14403,1.035325 -1.15973,0.995298 -0.52754,-1.345024 1.16593,-4.316221 2.14262,-4.108246 3.34791,0.712895 0.8206,3.282401 2.28038,3.287723 2.96122,0.01079 0.28445,-1.369063 0.78924,-2.76125 1.12174,-3.09375 0.87118,-0.87119 0.75271,0.04938 -0.53867,4.185705 -1.14923,3.68104 -2.2096,5.358054 -2.79201,4.415696 z m 6.43522,-0.242833 c 0,-0.364037 0.27544,-0.491655 0.61208,-0.283597 0.33665,0.208059 1.18398,0.07222 1.88295,-0.301856 1.5503,-0.829693 0.91335,-2.430289 -1.47599,-3.709022 -0.86776,-0.46441 -1.74006,-1.267389 -1.93846,-1.784397 -0.5244,-1.366556 1.47545,-3.269333 3.36004,-3.196942 l 1.62188,0.0623 -1.5625,0.432072 c -2.48377,0.686825 -2.34824,2.790641 0.27966,4.341139 2.414,1.424293 2.76523,2.593011 1.2382,4.120046 -1.10502,1.105017 -4.01786,1.337195 -4.01786,0.320257 z m 34.8351,-0.119364 c -4.53924,-3.446964 -0.39819,-11.215019 4.90396,-9.199149 3.20524,1.218632 3.8781,6.959911 1.0657,9.093182 -1.4122,1.071178 -4.62352,1.128183 -5.96966,0.105967 z m 5.02583,-0.81669 c 2.81771,-1.973599 1.24328,-7.77706 -2.10985,-7.77706 -3.04124,0 -4.4956,5.130476 -2.12608,7.5 1.50432,1.504328 2.40011,1.562918 4.23593,0.27706 z m 16.43443,-0.04884 c -1.69775,-2.158342 -1.64234,-4.75512 0.14583,-6.833985 2.48712,-2.891452 7.30881,-1.562045 7.30881,2.015137 0,1.343311 -0.26245,1.465632 -3.14461,1.465632 -2.23043,0 -3.2501,0.274861 -3.50743,0.945459 -0.49853,1.299156 0.80203,2.698723 3.13689,3.375671 l 1.95265,0.566134 -2.29839,0.05637 c -1.77765,0.0436 -2.59187,-0.316736 -3.59375,-1.590419 z M 178.75,23.4375 c 0.95036,-1.145117 -0.14917,-2.8125 -1.85466,-2.8125 -1.65302,0 -3.30856,2.086783 -2.38681,3.008534 1.03164,1.031633 3.30999,0.926332 4.24147,-0.196034 z M 63.878869,24.84375 c 0.101,-2.492188 0.464881,-4.53125 0.808631,-4.53125 0.34375,0 0.707631,2.039062 0.808631,4.53125 0.153969,3.799365 0.02338,4.53125 -0.808631,4.53125 -0.831994,0 -0.9626,-0.731885 -0.808631,-4.53125 z M 68.125,25.036886 c 0,-4.488639 0.511169,-5.512468 2.262812,-4.532202 0.698563,0.390938 0.799182,0.710486 0.31745,1.008212 C 70.309631,21.757408 70,23.57895 70,25.661886 70,28.545765 69.790631,29.375 69.0625,29.375 c -0.743288,0 -0.9375,-0.898679 -0.9375,-4.338114 z m 7.18635,3.556864 c -0.150925,-0.429688 -0.353037,-2.180794 -0.449131,-3.891348 -0.142094,-2.529355 -0.444025,-3.243698 -1.61695,-3.825574 -1.201288,-0.595942 -1.2738,-0.78011 -0.434044,-1.102354 0.619563,-0.237749 1.597106,0.202038 2.535981,1.140914 1.253056,1.253053 1.527794,2.151062 1.527794,4.993703 0,3.164621 -0.870244,4.658756 -1.56365,2.684659 z m 28.22883,0.3125 C 103.16434,28.285011 101.25,21.790404 101.25,21.136562 c 0,-0.28136 0.2447,-0.511562 0.54377,-0.511562 0.29908,0 0.89813,1.265625 1.33123,2.8125 0.44281,1.581582 1.16221,2.8125 1.64373,2.8125 0.49669,0 0.85627,0.656152 0.85627,1.5625 0,1.469447 -1.41,2.209171 -2.08482,1.09375 z m 36.30357,0.106644 c -0.6671,-0.670628 -0.58341,-13.243261 0.0909,-13.660027 0.47787,-0.295341 1.17759,2.680851 1.38646,5.897133 0.13322,2.051451 -1.03785,8.204765 -1.4774,7.762894 z m 6.27982,-3.528441 c -0.15985,-3.342217 -0.38934,-3.9915 -1.6283,-4.606824 -1.1204,-0.556439 -1.23391,-0.796221 -0.50865,-1.07453 0.51348,-0.19704 1.65467,0.208944 2.53599,0.902186 1.39786,1.099562 1.60239,1.733288 1.60239,4.965078 0,2.822245 -0.21619,3.704637 -0.90768,3.704637 -0.67643,0 -0.95508,-0.99118 -1.09375,-3.890548 z m 23.0261,3.456889 C 168.92986,28.721521 168.75,27.050649 168.75,25.228294 c 0,-2.941925 -0.18405,-3.409805 -1.64173,-4.173562 -1.3073,-0.684961 -1.44083,-0.93728 -0.65555,-1.238625 1.89611,-0.727604 3.58185,1.50468 3.96813,5.254669 0.33251,3.227955 -0.22284,4.918906 -1.27118,3.870566 z M 161.875,22.536886 c 0,-1.226205 1.05676,-2.313456 1.66115,-1.709071 0.49078,0.490786 -0.40639,2.922185 -1.07827,2.922185 -0.32058,0 -0.58288,-0.545901 -0.58288,-1.213114 z m -97.5,-6.948772 c 0,-0.364036 0.28125,-0.488063 0.625,-0.275614 0.34375,0.212449 0.625,0.510298 0.625,0.661886 0,0.151588 -0.28125,0.275614 -0.625,0.275614 -0.34375,0 -0.625,-0.297849 -0.625,-0.661886 z"
       id="path3456"
       inkscape:connector-curvature="0" />
    <path
       style="fill:#2e4a6f"
       d="M 15.462828,36.644642 C 12.804847,35.653228 11.489453,34.743653 9.6875,32.651091 9,31.852715 7.734375,30.851966 6.875,30.427204 5.0068524,29.503838 3.8337068,26.426987 3.7852764,22.323676 3.7473204,19.10782 5.6021048,13.813747 6.0774225,15.78125 c 0.3699438,1.531324 2.1026544,1.362136 4.8006165,-0.46875 1.26636,-0.859375 2.38852,-1.5625 2.49369,-1.5625 0.404262,0 -1.437911,8.560469 -2.3537,10.9375 -0.52974,1.375 -0.975508,3.132812 -0.990596,3.90625 -0.02512,1.287737 0.275435,1.414272 3.566317,1.501446 5.086793,0.134747 4.908741,0.08566 6.230075,1.717442 0.9006,1.112194 1.824217,1.482816 3.695283,1.482816 3.961338,0 5.041604,-0.923785 5.860903,-5.011933 0.39637,-1.977812 1.243738,-4.764316 1.883039,-6.192232 1.040449,-2.323905 1.377213,-2.58612 3.210756,-2.5 1.811803,0.0851 2.088343,-0.120351 2.394295,-1.778789 0.402332,-2.180881 0.963536,-1.574336 1.579048,1.706624 0.760315,4.05283 -0.644339,7.963827 -4.261453,11.865223 -1.786508,1.926915 -4.232571,3.995947 -5.435696,4.597848 -2.892131,1.446879 -10.206446,1.811542 -13.287172,0.662447 z m 33.026515,-7.810758 c -0.269232,-0.435627 -0.320724,-0.960836 -0.114428,-1.167133 0.559351,-0.55935 1.16923,0.263315 0.867117,1.169653 -0.211703,0.635109 -0.358917,0.634616 -0.752689,-0.0025 z M 56.875,28.088114 c 0,-0.707786 0.28125,-1.113063 0.625,-0.900614 0.34375,0.212449 0.625,0.791547 0.625,1.286886 0,0.495338 -0.28125,0.900614 -0.625,0.900614 -0.34375,0 -0.625,-0.579099 -0.625,-1.286886 z m 29.375,0.07377 c 0,-0.323464 0.28125,-0.761937 0.625,-0.974386 0.34375,-0.212449 0.625,0.0522 0.625,0.588114 0,0.535912 -0.28125,0.974386 -0.625,0.974386 -0.34375,0 -0.625,-0.264651 -0.625,-0.588114 z M 172.5,24.6875 c 0,-0.931695 0.26913,-1.469943 0.625,-1.25 0.34375,0.212449 0.625,0.774949 0.625,1.25 0,0.475051 -0.28125,1.037551 -0.625,1.25 -0.35587,0.219943 -0.625,-0.318305 -0.625,-1.25 z M 20.406664,22.832516 c -0.557303,-1.452309 0.706742,-1.755567 1.458967,-0.350021 0.53429,0.998328 0.488785,1.267505 -0.214273,1.267505 -0.490942,0 -1.051054,-0.412868 -1.244694,-0.917484 z m 48.352905,-0.45188 C 68.754306,21.79936 69.03125,21.149949 69.375,20.9375 c 0.791,-0.488864 0.791,0.338518 0,1.5625 -0.522125,0.807929 -0.607181,0.791432 -0.615431,-0.119364 z m 17.926006,-0.126341 c -0.25575,-0.650763 -0.31775,-1.330451 -0.137788,-1.510417 0.570038,-0.570037 1.071601,0.364103 0.832744,1.550954 -0.2189,1.087703 -0.252331,1.085753 -0.694956,-0.04054 z M 107.5,21.875 c 0,-0.34375 0.28125,-0.625 0.625,-0.625 0.34375,0 0.625,0.28125 0.625,0.625 0,0.34375 -0.28125,0.625 -0.625,0.625 -0.34375,0 -0.625,-0.28125 -0.625,-0.625 z m 32.5,0 c 0,-0.34375 0.29785,-0.625 0.66189,-0.625 0.36403,0 0.48806,0.28125 0.27561,0.625 -0.21245,0.34375 -0.5103,0.625 -0.66189,0.625 C 140.12403,22.5 140,22.21875 140,21.875 Z M 52.5,17.849386 c 0,-0.495339 0.28125,-1.074437 0.625,-1.286886 0.34375,-0.212449 0.625,0.192827 0.625,0.900614 0,0.707787 -0.28125,1.286886 -0.625,1.286886 -0.34375,0 -0.625,-0.405276 -0.625,-0.900614 z M 25.315236,14.539608 c -0.685995,-0.173465 -1.919237,-0.843965 -2.740537,-1.49 C 21.753399,12.403574 20.697481,11.875 20.228213,11.875 19.758946,11.875 19.375,11.626515 19.375,11.322811 c 0,-0.687619 7.664304,-1.5532647 9.262179,-1.046119 1.291436,0.409885 2.83685,3.230187 2.271375,4.145143 -0.371335,0.600833 -3.428416,0.665203 -5.593318,0.117772 z M 29.0625,7.52138 C 28.375,7.2329669 27.000056,6.680425 26.00707,6.29351 25.014083,5.9065943 24.357896,5.4337704 24.548877,5.2427901 24.935829,4.8558374 30.625,7.2289919 30.625,7.7773563 c 0,0.4090675 0.03739,0.4151925 -1.5625,-0.2559763 z"
       id="path3454"
       inkscape:connector-curvature="0" />
    <path
       style="fill:#172e53"
       d="m 13.733486,33.90625 c -3.957821,-2.021152 -4.4977491,-3.014071 -1.943992,-3.57497 2.773594,-0.609183 6.471059,0.288466 8.024413,1.948121 1.054611,1.126781 2.04093,1.470599 4.21875,1.470599 3.66328,0 4.846783,-1.193785 5.911069,-5.962424 0.457258,-2.048792 1.22084,-4.614195 1.696847,-5.700896 0.817456,-1.866213 0.968755,-1.936833 2.72738,-1.273026 1.607076,0.606603 1.988884,0.53486 2.789603,-0.52418 0.867628,-1.147535 0.928976,-1.054602 0.947567,1.435393 0.01423,1.906073 -0.335209,2.966401 -1.230123,3.732651 -0.6875,0.588656 -1.25,1.428843 -1.25,1.867082 0,1.472489 -4.503228,5.798629 -7.344075,7.05527 -4.306166,1.904823 -10.270196,1.710652 -14.547439,-0.47362 z m -6.0176472,-5 C 7.5123775,28.304687 6.6071419,27.18337 5.7042046,26.414432 c -1.3029334,-1.109571 -1.638877,-1.947881 -1.6280019,-4.0625 0.017628,-3.427618 0.7204586,-5.305271 1.6411922,-4.384537 0.4852223,0.485223 1.3849476,0.426432 3.1830901,-0.207989 1.37867,-0.486424 2.725893,-0.884406 2.993827,-0.884406 0.769542,0 0.250607,4.467416 -0.798601,6.875 -0.524313,1.203125 -1.148311,3.101562 -1.3866629,4.21875 -0.4734931,2.219327 -1.4105925,2.660089 -1.9932094,0.9375 z M 56.875,28.125 c 0,-0.34375 0.28125,-0.625 0.625,-0.625 0.34375,0 0.625,0.28125 0.625,0.625 0,0.34375 -0.28125,0.625 -0.625,0.625 -0.34375,0 -0.625,-0.28125 -0.625,-0.625 z m 115.9375,-3.75 c 0.21245,-0.34375 0.5103,-0.625 0.66189,-0.625 0.15158,0 0.27561,0.28125 0.27561,0.625 0,0.34375 -0.29785,0.625 -0.66189,0.625 -0.36404,0 -0.48806,-0.28125 -0.27561,-0.625 z M 21.041667,23.333333 C 20.8125,23.104167 20.625,22.626042 20.625,22.270833 c 0,-0.391627 0.291107,-0.354726 0.739583,0.09375 0.406771,0.406771 0.594271,0.884896 0.416667,1.0625 -0.177604,0.177604 -0.510417,0.135417 -0.739583,-0.09375 z M 107.5,21.875 c 0,-0.34375 0.29785,-0.625 0.66189,-0.625 0.36404,0 0.48806,0.28125 0.27561,0.625 -0.21245,0.34375 -0.5103,0.625 -0.66189,0.625 C 107.62403,22.5 107.5,22.21875 107.5,21.875 Z M 52.898984,17.1875 c 0.197863,-0.515625 0.470287,-0.9375 0.605384,-0.9375 0.135098,0 0.245632,0.421875 0.245632,0.9375 0,0.515625 -0.272423,0.9375 -0.605384,0.9375 -0.332962,0 -0.443497,-0.421875 -0.245632,-0.9375 z"
       id="path3452"
       inkscape:connector-curvature="0" />
  </g>
</svg>
