<?xml version="1.0" encoding="UTF-8" standalone="no"?>
<!-- Created with Inkscape (http://www.inkscape.org/) -->

<svg
   xmlns:dc="http://purl.org/dc/elements/1.1/"
   xmlns:cc="http://creativecommons.org/ns#"
   xmlns:rdf="http://www.w3.org/1999/02/22-rdf-syntax-ns#"
   xmlns:svg="http://www.w3.org/2000/svg"
   xmlns="http://www.w3.org/2000/svg"
   xmlns:xlink="http://www.w3.org/1999/xlink"
   xmlns:sodipodi="http://sodipodi.sourceforge.net/DTD/sodipodi-0.dtd"
   xmlns:inkscape="http://www.inkscape.org/namespaces/inkscape"
   id="svg4075"
   version="1.1"
   inkscape:version="0.91 r13725"
   width="473"
   height="123"
   viewBox="0 0 473 123"
   sodipodi:docname="AngularJS.bmp.svg">
  <metadata
     id="metadata4081">
    <rdf:RDF>
      <cc:Work
         rdf:about="">
        <dc:format>image/svg+xml</dc:format>
        <dc:type
           rdf:resource="http://purl.org/dc/dcmitype/StillImage" />
        <dc:title></dc:title>
      </cc:Work>
    </rdf:RDF>
  </metadata>
  <defs
     id="defs4079" />
  <sodipodi:namedview
     pagecolor="#ffffff"
     bordercolor="#666666"
     borderopacity="1"
     objecttolerance="10"
     gridtolerance="10"
     guidetolerance="10"
     inkscape:pageopacity="0"
     inkscape:pageshadow="2"
     inkscape:window-width="640"
     inkscape:window-height="480"
     id="namedview4077"
     showgrid="false"
     inkscape:zoom="0.55391121"
     inkscape:cx="236.5"
     inkscape:cy="61.5"
     inkscape:window-x="0"
     inkscape:window-y="0"
     inkscape:window-maximized="0"
     inkscape:current-layer="svg4075" />
  <image
     width="473"
     height="123"
     preserveAspectRatio="none"
     style="image-rendering:optimizeQuality"
     xlink:href="file:///media/havoc/USB%20DISK/pics/_OpsDeps/AngularJS.bmp"
     id="image4083"
     x="0"
     y="0"
     sodipodi:absref="/media/havoc/USB DISK/pics/_OpsDeps/AngularJS.bmp" />
  <g
     id="g5354">
    <path
       style="fill:#fcfbfb"
       d="M 0,61.5 0,0 236.5,0 473,0 473,61.5 473,123 236.5,123 0,123 0,61.5 Z"
       id="path5370"
       inkscape:connector-curvature="0" />
    <path
       style="fill:#d4a4a3"
       d="M 37.323025,93.648554 C 30.075689,89.643205 23.477303,85.811089 22.659944,85.132742 21.842585,84.454394 20.92649,81.784522 20.624177,79.199691 20.321864,76.614861 19.073248,66.275574 17.849475,56.223498 15.915022,40.333892 15.812207,37.761916 17.062217,36.529837 18.773386,34.843215 49.446459,24 52.506374,24 c 1.16914,0 9.745991,2.615384 19.059668,5.811964 C 91.457695,36.63905 90.0908,34.545692 87.483098,54.188449 86.584157,60.959802 85.494911,70.220837 85.062551,74.768526 84.331858,82.454176 82.438375,87 79.967744,87 c -0.397254,0 -6.363547,3.15 -13.258428,7 -6.894881,3.85 -13.362611,6.98448 -14.372732,6.9655 -1.010121,-0.019 -7.766223,-3.311597 -15.013559,-7.316946 z M 38.109506,76.25 C 40.9674,68.881726 41.332982,68.523255 46.523141,68 50.206828,67.628623 51.568044,67.04982 51.814643,65.75 52.040785,64.558007 51.511625,64 50.155112,64 47.082142,64 45,62.93137 45,61.354212 c 0,-0.787496 1.606255,-4.94573 3.569456,-9.24052 2.631933,-5.757739 3.476394,-8.833707 3.215137,-11.711201 L 51.430274,36.5 49.354723,41 c -1.141553,2.475 -3.435161,7.425 -5.096907,11 -1.661747,3.575 -4.013232,8.75 -5.225524,11.5 -1.212291,2.75 -3.065494,6.829576 -4.118229,9.065724 C 32.483805,77.727917 32.505033,79 35.021439,79 c 1.279963,0 2.412684,-1.008717 3.088067,-2.75 z M 95,80.021162 C 93.771473,79.244558 93.5,76.254527 93.5,63.5 c 0,-12.754527 0.271473,-15.744558 1.5,-16.521162 3.436737,-2.172505 5.25034,-0.662374 14.72329,12.259608 3.82607,5.219122 5.92903,7.335258 6.45952,6.5 0.43261,-0.681146 0.79346,-4.895846 0.80188,-9.366001 0.0159,-8.428004 1.15048,-11.025279 4.29002,-9.820523 2.25335,0.864693 2.69798,3.65773 2.69798,16.948078 0,13.580851 -0.45327,16.200366 -2.93978,16.989556 -3.0479,0.967366 -4.56478,-0.351966 -12.12355,-10.544679 C 100.54676,58.66822 100.18513,58.713434 100.07029,71.05 99.988181,79.86958 98.612034,82.30448 95,80.021162 Z m 41.74052,-0.389549 C 129.47391,76.920842 127,72.764415 127,63.266517 127,52.636297 132.01033,47.244069 142.75563,46.309949 150.24697,45.658704 154,47.079794 154,50.567652 c 0,2.518024 -0.19885,2.608953 -5.25,2.400672 -8.46927,-0.349226 -9.71112,-0.09811 -12.29545,2.486221 C 134.43385,57.47524 134,58.897306 134,63.5 c 0,4.637119 0.42845,6.019359 2.51148,8.102391 2.03531,2.03531 3.3151,2.453288 6.75,2.204546 C 147.48723,73.500925 147.50151,73.486439 148,69 c 0.42313,-3.808131 0.86698,-4.551889 2.88691,-4.837492 1.3128,-0.185621 2.76841,0.264379 3.23469,1 1.31534,2.075143 1.02824,11.250315 -0.41374,13.222342 -1.75804,2.404266 -11.87224,3.147459 -16.96734,1.246763 z m 28.58496,-0.09074 c -5.37832,-2.33945 -6.7404,-5.607309 -7.16956,-17.200963 -0.42236,-11.409687 0.0873,-14.835527 2.33545,-15.698219 3.70804,-1.422909 4.29167,0.144653 4.65665,12.507256 C 165.549,72.730406 166.23048,74 173.1197,74 c 5.97065,0 6.87825,-1.687959 6.89395,-12.821429 0.0188,-13.353348 1.10155,-16.222802 5.48635,-14.540197 1.22487,0.470028 1.5,2.915667 1.5,13.333756 0,11.573322 -0.20133,13.014102 -2.1679,15.514191 -4.06981,5.173922 -12.77394,6.983118 -19.50662,4.054547 z M 193.25,80.375757 C 192.32566,79.974649 192,75.71853 192,64.039111 c 0,-13.190867 0.26106,-16.010883 1.58382,-17.108678 1.14814,-0.952867 2.04217,-1.025843 3.25,-0.265283 1.39193,0.876478 1.71211,3.212494 1.94521,14.192011 L 199.05805,74 l 6.22098,0.01365 c 3.42153,0.0075 7.12822,0.257471 8.23708,0.555469 1.7213,0.462584 2.50505,-0.59959 5.35967,-7.263655 C 226.77487,48.865198 229.29251,44 230.93591,44 c 1.17989,0 3.73378,4.683075 8.86183,16.25 3.96234,8.9375 7.2038,17.007176 7.20325,17.932612 -0.001,2.312508 -3.85006,3.39689 -5.65393,1.593014 -0.78647,-0.786461 -2.19879,-2.970212 -3.1385,-4.852778 -1.51334,-3.031756 -2.22048,-3.459269 -6.18894,-3.741603 -2.46421,-0.175315 -5.00747,-0.7562 -5.65169,-1.290854 -0.84041,-0.69748 -1.67071,0.335552 -2.93908,3.656735 -0.97227,2.545859 -2.70401,5.196629 -3.84831,5.890602 -2.09693,1.271706 -23.78136,2.044216 -26.33054,0.938029 z m 38.16821,-15.982746 c 1.94614,-0.746803 2.01642,-2.416358 0.20595,-4.892323 -1.30489,-1.784546 -1.45959,-1.719614 -3,1.25921 C 227.73087,62.487328 227,64.148027 227,64.45034 c 0,0.731078 2.44638,0.699335 4.41821,-0.05733 z M 250.2,79.8 c -1.90643,-1.90643 -1.65891,-31.174251 0.27723,-32.781106 0.99213,-0.823392 4.24976,-1.109894 9.92004,-0.872445 7.19917,0.301473 8.81036,0.698944 10.93816,2.698381 4.79564,4.50635 4.30155,9.234081 -1.48042,14.165423 l -2.94326,2.510253 4.04412,5.420353 C 273.18014,73.922053 275,77.194062 275,78.211991 c 0,2.424974 -2.52603,3.324993 -5.51272,1.964167 C 266.73376,78.921569 258,66.402115 258,63.709649 258,62.60201 259.29395,61.3573 261.32961,60.506748 268.83434,57.371072 268.27997,53 260.37756,53 L 256,53 l 0,12.964816 c 0,11.794478 -0.17461,13.058263 -1.93426,14 C 251.65514,81.254931 251.65492,81.254922 250.2,79.8 Z m 28.80255,-0.296931 c -1.66565,-2.006983 -0.69436,-4.062747 2.68333,-5.679331 L 284.5,72.476884 284.7704,60.488442 c 0.21788,-9.660133 0.58458,-12.223683 1.88814,-13.199695 1.12667,-0.843573 2.18292,-0.908781 3.4796,-0.214817 1.65721,0.886912 1.86186,2.317031 1.86186,13.010914 0,15.479861 -1.31729,18.402256 -9.13558,20.267157 -1.73989,0.415019 -3.05232,0.126516 -3.86187,-0.848932 z m 21.32007,0.800714 c -2.86755,-0.558203 -4.70315,-2.869755 -3.91332,-4.928017 0.52716,-1.373769 1.65798,-1.556766 6.7607,-1.094068 8.09047,0.733618 11.06512,-0.392995 10.64638,-4.032183 C 313.51922,67.666996 313.13558,67.464919 307.5,66.922401 298.14252,66.021589 295,63.527085 295,57 c 0,-4.582461 1.64308,-6.93471 6.33068,-9.063052 C 308.91823,44.491924 320,46.007867 320,50.490836 c 0,2.977279 -1.60601,3.511379 -7.33834,2.440463 -6.98511,-1.30496 -11.4916,0.878438 -10.20165,4.942711 0.47045,1.482258 1.91793,1.962777 7.18646,2.385684 5.28335,0.424097 7.09598,1.028213 9.10095,3.033182 3.06186,3.061854 3.52387,9.117945 0.99056,12.984262 -2.54997,3.891747 -11.05112,5.654842 -19.41536,4.026645 z"
       id="path5368"
       inkscape:connector-curvature="0" />
    <path
       style="fill:#a8a2a1"
       d="m 47.11003,97.466429 c -2.414483,-1.380214 -8.264483,-4.56465 -13,-7.076524 C 22.438292,84.19883 22.248443,83.984251 21.518545,76.158141 21.177012,72.496164 20.02073,62.570977 18.94903,54.102172 17.509329,42.72535 17.290503,38.354891 18.11107,37.366168 c 0.610823,-0.735996 3.873214,-2.206621 7.249759,-3.268056 3.376544,-1.061435 10.841534,-3.618635 16.588867,-5.682667 l 10.449696,-3.752786 17.421779,5.903442 c 9.581978,3.246893 17.659093,6.521872 17.949143,7.277731 0.290051,0.755859 -0.415619,8.637712 -1.568154,17.515229 -1.152535,8.877516 -2.371197,18.682843 -2.708136,21.789614 C 82.790355,83.636898 82.258375,84.233661 72.5,89.48151 c -3.85,2.07045 -9.743245,5.284112 -13.0961,7.141472 -3.352855,1.85736 -6.502855,3.371598 -7,3.364973 -0.497145,-0.0066 -2.879386,-1.141312 -5.29387,-2.521526 z m -7.202929,-22.14088 c 2.503191,-5.381013 3.925487,-6.287247 9.906257,-6.311894 3.13347,-0.01291 3.296346,-0.190104 3,-3.263655 -0.261107,-2.708083 -0.771903,-3.302761 -3.063358,-3.566422 -3.595112,-0.413664 -3.538918,-2.285369 0.299215,-9.966153 2.602288,-5.207639 3.005359,-7.026547 2.75,-12.409722 -0.164568,-3.469237 -0.742469,-6.24217 -1.284223,-6.162074 -1.503595,0.2223 -20.75961,44.274524 -20.102129,45.987891 0.366265,0.954472 1.57846,1.385088 3.331451,1.183451 2.223978,-0.255812 3.220135,-1.315378 5.162787,-5.491422 z m 54.533601,3.380519 c -0.273091,-0.711663 -0.371468,-8.024163 -0.218615,-16.25 L 94.5,47.5 97.124235,47.195713 c 2.290278,-0.265563 3.626495,1.032394 10.499995,10.199335 4.33168,5.776991 8.21327,10.52642 8.62577,10.554286 0.4125,0.02787 0.75689,-4.111834 0.76531,-9.199334 0.0165,-9.988612 0.68792,-12.146384 3.60452,-11.584698 1.74672,0.336388 1.88017,1.496756 1.88017,16.348393 l 0,15.986305 -2.60291,0.302229 c -2.25803,0.262184 -3.63337,-1.06282 -10.37993,-10 C 105.2398,64.136003 101.34861,59.35 100.87007,59.166667 100.39153,58.983333 100,62.884029 100,67.834879 c 0,4.95085 -0.273145,9.71335 -0.606989,10.583334 -0.729913,1.902123 -4.254247,2.106976 -4.952309,0.287855 z M 135.07108,78.248446 C 129.22736,75.268659 127.5,71.903768 127.5,63.5 c 0,-5.861992 0.42004,-7.925945 2.07108,-10.17667 3.11732,-4.249562 8.02593,-6.31999 14.98779,-6.321776 6.66252,-0.0017 10.16392,1.672493 9.13043,4.365727 -0.52556,1.369581 -1.55273,1.548711 -5.93037,1.034206 -10.93039,-1.284653 -16.18102,4.314095 -13.83558,14.752875 1.07909,4.802709 2.87573,6.529718 7.74285,7.442796 5.02552,0.942793 6.3338,0.025 6.3338,-4.443328 0,-4.194562 1.984,-6.757684 4.48727,-5.79709 1.13549,0.435731 1.51273,2.200475 1.51273,7.076691 0,5.399148 -0.32665,6.671019 -1.93426,7.531385 -3.10953,1.664172 -13.15669,1.240658 -16.99466,-0.71637 z m 28.71282,0.0139 c -4.13161,-2.562296 -4.87951,-5.638783 -4.56747,-18.788413 0.25575,-10.777428 0.46803,-11.985138 2.16374,-12.310246 2.97084,-0.569577 3.5871,1.61575 3.61983,12.836315 0.0326,11.165304 0.26854,12.052402 3.68426,13.850296 3.21161,1.690458 6.77916,1.404307 9.45496,-0.758375 2.17953,-1.761584 2.39917,-2.817259 2.86078,-13.75 C 181.49956,47.510539 181.50222,47.5 184,47.5 l 2.5,0 0.31028,11.5 c 0.34771,12.887462 -0.89085,16.956064 -5.9597,19.57727 -3.81637,1.973519 -13.66982,1.791696 -17.06668,-0.314926 z m 28.83275,0.181043 c -0.79746,-2.078146 -0.80578,-27.786955 -0.01,-29.8616 C 192.94083,47.711804 194.23835,47 195.49036,47 c 3.02625,0 3.47936,2.045388 3.49599,15.781385 0.01,8.131891 0.36262,11.394739 1.26365,11.687417 0.6875,0.223319 4.44228,0.557437 8.34395,0.742487 l 7.09395,0.336453 6.76799,-15.273871 C 227.32399,49.287641 229.69735,45 230.91054,45 c 1.22091,0 3.64524,4.473499 8.77965,16.200723 3.90114,8.910397 6.8595,16.80919 6.57412,17.552872 C 245.25362,81.387407 241.5628,79.55948 239.1901,75.25 237.16071,71.564066 236.40643,71 233.50686,71 228.92584,71 227,70.112089 227,68 c 0,-1.8843 1.88992,-3 5.08179,-3 2.22026,0 2.31536,-0.562291 0.82038,-4.850777 -1.39807,-4.010518 -2.57734,-3.983051 -4.32675,0.100777 -0.76572,1.7875 -2.83058,6.625 -4.58859,10.75 -1.758,4.125 -3.67387,7.797692 -4.25748,8.161538 -0.58361,0.363845 -6.78397,0.712674 -13.77858,0.775174 -10.82631,0.09674 -12.80917,-0.125327 -13.33412,-1.493325 z M 250.2,78.8 C 248.68198,77.281978 248.54095,51.726266 250.03518,48.934259 250.92645,47.26892 252.18462,47 259.08484,47 c 8.34955,0 13.13369,1.521127 14.29398,4.544802 1.44688,3.770522 0.55208,6.784215 -3.01249,10.146037 -4.10027,3.867047 -4.02798,4.371155 1.71647,11.969998 C 275.43192,78.091099 275.29114,80 271.6153,80 c -2.59679,0 -4.85475,-2.254741 -9.93373,-9.919545 -4.01098,-6.053061 -3.84295,-7.257362 1.37597,-9.862247 6.44868,-3.21868 4.13684,-8.752706 -3.35375,-8.02812 L 256.5,52.5 256,65 c -0.275,6.875 -0.86406,13.0625 -1.30902,13.75 -1.02254,1.579919 -2.93972,1.601263 -4.49098,0.05 z m 51.81135,0.318359 c -2.08588,-0.36972 -3.61356,-1.271877 -3.7993,-2.243643 -0.26644,-1.393951 0.77449,-1.607453 7.31328,-1.5 6.4782,0.106456 7.83816,-0.166435 9.04931,-1.815846 3.38386,-4.608321 0.77135,-7.359626 -7.98645,-8.410746 -5.36117,-0.643452 -7.32421,-1.338845 -8.75,-3.099627 -3.24342,-4.005451 -1.77237,-9.996933 3.06919,-12.500601 3.80454,-1.967405 15.38293,-2.107949 16.9615,-0.205887 1.80655,2.176763 0.10915,2.754819 -6.04479,2.058579 C 304.9733,50.62551 301,52.485047 301,56.466349 301,59.983706 304.54259,62 310.72251,62 317.32543,62 320,64.242144 320,69.777494 c 0,5.447907 -2.13364,7.870978 -8.04765,9.139305 -2.77794,0.59576 -5.36614,1.023962 -5.75157,0.95156 -0.38543,-0.0724 -2.27067,-0.409903 -4.18943,-0.75 z M 280.00632,77.75 c 0.003,-0.6875 1.35348,-2.01657 3,-2.95349 L 286,73.093021 286,62.128298 C 286,50.482847 286.43934,48 288.5,48 c 2.01417,0 2.5,2.451262 2.5,12.613906 0,10.241852 -1.4731,15.498555 -4.8496,17.305603 -2.7296,1.460837 -6.15185,1.36642 -6.14408,-0.169509 z"
       id="path5366"
       inkscape:connector-curvature="0" />
    <path
       style="fill:#ae615f"
       d="M 47,95.400461 C 44.525,93.983965 39.515131,91.235756 35.866959,89.293331 24.126734,83.04239 23.840472,82.669406 22.927814,72.434287 22.489648,67.520429 21.438488,58.443432 20.591901,52.263183 19.745314,46.082933 19.29422,40.396849 19.58947,39.627441 19.88472,38.858032 24.260373,36.790875 29.313144,35.033759 34.365915,33.276643 40.75,30.914073 43.5,29.783603 46.25,28.653134 50.094887,27.727995 52.044194,27.727739 55.548069,27.727278 82.334106,36.351917 84.75,38.258441 86.475699,39.620291 86.302026,44.423281 84,59 82.914267,65.875 82.013469,73.075 81.998228,75 81.949605,81.141194 80.149078,82.959737 66.5,90.653299 c -7.15,4.030234 -13.45,7.326553 -14,7.325154 -0.55,-0.0014 -3.025,-1.161495 -5.5,-2.577992 z M 39.907101,75.325549 c 2.80439,-6.02849 3.444978,-6.293286 15.269592,-6.311894 L 63.853386,69 66.371369,74.5 C 68.465795,79.074829 69.319191,80 71.444676,80 72.850104,80 74,79.5528 74,79.006222 74,78.032512 69.141055,67.430466 60.477222,49.5 58.085429,44.55 55.430995,38.772866 54.57848,36.661925 53.723015,34.54368 52.484393,33.005202 51.814297,33.228568 50.076253,33.807916 30.721548,77.831983 31.412863,79.63352 c 0.366265,0.954472 1.57846,1.385088 3.331451,1.183451 2.223978,-0.255812 3.220135,-1.315378 5.162787,-5.491422 z M 49.75,62.283746 C 47.998362,62.018394 47.003547,61.255948 47.009769,60.183578 47.024319,57.676006 51.746131,48 52.955256,48 c 1.400141,0 7.348776,12.69905 6.552308,13.987762 -0.616528,0.997563 -4.373912,1.111539 -9.757564,0.295984 z M 95.470992,77.785003 C 95.17946,77.025281 95.066723,70.12536 95.220466,62.451845 95.483181,49.33948 95.621148,48.482638 97.513442,48.211448 c 1.538493,-0.220485 3.980378,2.33848 10.351838,10.848165 4.64698,6.206485 8.7187,10.756406 9.19746,10.277648 0.47249,-0.472488 0.98916,-5.354162 1.14816,-10.848165 C 118.44487,50.405053 118.78607,48.5 120,48.5 c 1.25314,0 1.54556,2.430944 1.77685,14.77108 0.2403,12.820463 0.0642,14.852673 -1.33327,15.388945 -2.0286,0.778446 -4.18497,-1.367249 -12.44358,-12.381995 -3.575,-4.768079 -7.04695,-8.838529 -7.71544,-9.045445 -0.890155,-0.275527 -1.291596,2.498223 -1.5,10.364247 -0.198448,7.490259 -0.662667,10.865896 -1.534034,11.154972 -0.687211,0.227982 -1.488001,-0.207079 -1.779534,-0.966801 z M 135.32548,77.540868 C 130.28157,75.346877 128.5,71.681966 128.5,63.5 c 0,-8.289754 1.80252,-11.892802 7.04566,-14.083526 3.73545,-1.560771 14.16119,-1.88822 16.33246,-0.512965 2.62039,1.65973 0.161,3.063592 -4.29666,2.452602 -5.25021,-0.719622 -11.03392,1.024076 -13.07836,3.942924 -0.95272,1.360204 -1.5031,4.461196 -1.5031,8.468926 0,5.332265 0.3742,6.697144 2.38827,8.71122 2.7256,2.725601 9.15636,4.294181 11.52497,2.811151 0.89528,-0.560548 1.80465,-2.910256 2.08676,-5.391915 0.3434,-3.020815 0.96981,-4.398417 2,-4.398417 2.02605,0 2.75204,11.406754 0.8046,12.641928 -2.07074,1.313377 -12.99383,0.914968 -16.47912,-0.60106 z m 27.56645,-1.495091 -2.95422,-2.954223 0.28114,-12.295777 C 160.45066,50.657818 160.76324,48.5 162,48.5 c 1.21587,0 1.61638,2.273072 2.11441,12 0.33793,6.6 0.67543,12.100944 0.75,12.22432 0.53088,0.878293 6.41433,3.27568 8.03888,3.27568 2.8674,0 6.85737,-1.999105 7.75488,-3.88545 0.4225,-0.888002 1.00975,-6.56455 1.30501,-12.61455 0.43299,-8.872523 0.82693,-11 2.03682,-11 1.23279,0 1.55029,2.105218 1.78232,11.817679 l 0.28232,11.817679 -3.43232,3.432321 C 179.40797,78.792031 178.79544,79 172.52308,79 c -6.06248,0 -6.94879,-0.271863 -9.63115,-2.954223 z m 30.54715,1.656068 c -0.27398,-0.713985 -0.37236,-7.576485 -0.21861,-15.25 C 193.48478,49.259845 193.60892,48.5 195.5,48.5 c 1.87654,0 2.03086,0.833333 2.5,13.5 l 0.5,13.5 7.25,0.29381 c 5.54633,0.224767 7.25,0.635998 7.25,1.75 0,2.000028 -18.79581,2.151882 -19.56092,0.158035 z m 23.12764,0.406118 C 215.65642,76.635056 229.33703,46.5 230.916,46.5 c 0.75141,0 3.71806,5.46438 6.78634,12.5 2.99823,6.875 6.06004,13.831789 6.80401,15.459532 2.83879,6.210968 -1.67958,6.295712 -4.69549,0.08807 -2.0442,-4.207585 -2.41464,-4.468766 -6.737,-4.75 -5.06621,-0.329632 -6.6055,-3.025621 -2.07386,-3.632273 1.375,-0.184072 2.90661,-0.725685 3.40358,-1.203584 1.21885,-1.172076 -2.27239,-10.171561 -3.75518,-9.679855 -0.63162,0.209451 -2.85101,4.394211 -4.93199,9.299467 -4.98316,11.746268 -5.99412,13.684804 -7.37477,14.141258 -0.6371,0.21063 -1.43581,-0.06596 -1.77492,-0.614647 z m 34.04027,-0.68975 c -0.79027,-2.059421 -0.79027,-25.777005 0,-27.836426 C 251.09268,48.3161 252.86427,48 259.47213,48 c 6.84035,0 8.71052,0.35583 10.89301,2.07258 3.89059,3.060334 3.56755,7.303368 -0.86514,11.363555 -1.925,1.763231 -3.5,3.65515 -3.5,4.204264 0,0.549114 1.78705,3.393582 3.97123,6.321039 C 274.04786,77.425355 274.28005,79 271.00914,79 268.7791,79 258.87458,65.490417 259.64077,63.493759 c 0.27717,-0.722295 1.68109,-1.608709 3.11982,-1.969807 3.13693,-0.78732 5.1642,-3.21601 5.20761,-6.238768 0.042,-2.928357 -3.06451,-4.467568 -8.25641,-4.090815 L 255.5,51.5 255.25406,63 c -0.13527,6.325 -0.48135,12.5125 -0.76906,13.75 -0.60224,2.590391 -2.98299,3.000612 -3.87801,0.668213 z M 280.00632,77.75 c 0.003,-0.6875 1.35348,-2.01657 3,-2.95349 L 286,73.093021 286,62.128298 C 286,50.482847 286.43934,48 288.5,48 c 2.01417,0 2.5,2.451262 2.5,12.613906 0,10.241852 -1.4731,15.498555 -4.8496,17.305603 -2.7296,1.460837 -6.15185,1.36642 -6.14408,-0.169509 z M 299.25,78.387339 C 298.5625,78.082636 298,77.173488 298,76.36701 c 0,-1.192182 1.07501,-1.347384 5.75,-0.830142 7.09851,0.785381 10.96349,-0.547154 11.85172,-4.086134 0.90584,-3.609157 -1.1087,-5.306446 -7.12557,-6.003423 -8.41344,-0.974588 -9.38761,-1.375415 -11.02139,-4.534787 -2.20675,-4.267384 -1.07607,-8.562759 2.89067,-10.981519 3.84837,-2.346581 15.73325,-2.746054 17.52345,-0.588996 1.77553,2.139388 0.26845,2.641681 -5.96977,1.989657 C 305.00205,50.610781 301,52.496188 301,56.466349 301,59.983706 304.54259,62 310.72251,62 c 3.94416,0 5.78278,0.50529 7.27749,2 2.62268,2.622685 2.67376,8.946368 0.098,12.127353 -1.66697,2.058614 -2.87198,2.377661 -9.75,2.581456 -4.31638,0.127895 -8.41046,-0.01677 -9.09796,-0.32147 z"
       id="path5364"
       inkscape:connector-curvature="0" />
    <path
       style="fill:#5f5f5f"
       d="M 39,89.418369 C 32.675,85.829337 26.975229,82.354463 26.333843,81.696428 25.692456,81.038393 24.683973,75.55 24.09277,69.5 23.501567,63.45 22.491693,54.544645 21.848605,49.710323 c -0.822013,-6.179365 -0.855146,-9.103782 -0.111568,-9.84736 1.103277,-1.103277 16.92147,-6.967128 26.037483,-9.652172 l 5.27452,-1.553565 14.72548,4.864582 c 8.099014,2.67552 15.270815,5.340145 15.937335,5.921387 0.947164,0.82598 0.884898,3.459404 -0.285075,12.056805 -0.823311,6.05 -1.937663,15.05 -2.476338,20 -0.809071,7.434728 -1.368208,9.308301 -3.214926,10.77267 C 74.268218,85.022091 53.682378,95.966053 52,95.954332 51.175,95.948585 45.325,93.007401 39,89.418369 Z M 38.198529,80.75 c 0.869434,-0.6875 2.116481,-2.940955 2.771215,-5.007677 0.654735,-2.066722 2.058681,-4.222352 3.119879,-4.790288 1.061199,-0.567936 5.637661,-0.901982 10.169915,-0.742323 L 62.5,70.5 64.62044,74.91868 C 67.044019,79.969053 69.367721,82 72.722514,82 76.371077,82 76.426683,79.687464 72.955397,72.314933 52.928923,29.78147 53.809412,31.5 52.043852,31.5 c -0.902339,0 -3.823467,5.301336 -7.714242,14 -3.444089,7.7 -7.486321,16.7 -8.982739,20 -5.338652,11.773154 -6.15775,14.289121 -5.021788,15.425083 1.457782,1.457782 5.934364,1.358236 7.873446,-0.175083 z M 51.25,61.276604 C 49.4625,61.054778 48,60.460901 48,59.956878 48,57.605208 51.364067,51 52.561785,51 c 1.515609,0 5.722664,8.730735 4.871044,10.108685 -0.302975,0.490223 -1.086805,0.819298 -1.741846,0.731278 C 55.035942,61.751943 53.0375,61.498431 51.25,61.276604 Z M 95.470992,77.785003 C 95.17946,77.025281 95.066723,70.12536 95.220466,62.451845 95.483181,49.33948 95.621148,48.482638 97.513442,48.211448 c 1.538493,-0.220485 3.980378,2.33848 10.351838,10.848165 4.64698,6.206485 8.7187,10.756406 9.19746,10.277648 0.47249,-0.472488 0.98916,-5.354162 1.14816,-10.848165 C 118.44487,50.405053 118.78607,48.5 120,48.5 c 1.25314,0 1.54556,2.430944 1.77685,14.77108 0.2403,12.820463 0.0642,14.852673 -1.33327,15.388945 -2.0286,0.778446 -4.18497,-1.367249 -12.44358,-12.381995 -3.575,-4.768079 -7.04695,-8.838529 -7.71544,-9.045445 -0.890155,-0.275527 -1.291596,2.498223 -1.5,10.364247 -0.198448,7.490259 -0.662667,10.865896 -1.534034,11.154972 -0.687211,0.227982 -1.488001,-0.207079 -1.779534,-0.966801 z M 135.32548,77.540868 C 130.28157,75.346877 128.5,71.681966 128.5,63.5 c 0,-8.289754 1.80252,-11.892802 7.04566,-14.083526 3.73545,-1.560771 14.16119,-1.88822 16.33246,-0.512965 2.62039,1.65973 0.161,3.063592 -4.29666,2.452602 -5.25021,-0.719622 -11.03392,1.024076 -13.07836,3.942924 -0.95272,1.360204 -1.5031,4.461196 -1.5031,8.468926 0,5.332265 0.3742,6.697144 2.38827,8.71122 2.7256,2.725601 9.15636,4.294181 11.52497,2.811151 0.89528,-0.560548 1.80465,-2.910256 2.08676,-5.391915 0.3434,-3.020815 0.96981,-4.398417 2,-4.398417 2.02605,0 2.75204,11.406754 0.8046,12.641928 -2.07074,1.313377 -12.99383,0.914968 -16.47912,-0.60106 z m 27.56645,-1.495091 -2.95422,-2.954223 0.28114,-12.295777 C 160.45066,50.657818 160.76324,48.5 162,48.5 c 1.21587,0 1.61638,2.273072 2.11441,12 0.33793,6.6 0.67543,12.100944 0.75,12.22432 0.53088,0.878293 6.41433,3.27568 8.03888,3.27568 2.8674,0 6.85737,-1.999105 7.75488,-3.88545 0.4225,-0.888002 1.00975,-6.56455 1.30501,-12.61455 0.43299,-8.872523 0.82693,-11 2.03682,-11 1.23279,0 1.55029,2.105218 1.78232,11.817679 l 0.28232,11.817679 -3.43232,3.432321 C 179.40797,78.792031 178.79544,79 172.52308,79 c -6.06248,0 -6.94879,-0.271863 -9.63115,-2.954223 z m 30.54715,1.656068 c -0.27398,-0.713985 -0.37236,-7.576485 -0.21861,-15.25 C 193.48478,49.259845 193.60892,48.5 195.5,48.5 c 1.87654,0 2.03086,0.833333 2.5,13.5 l 0.5,13.5 7.25,0.29381 c 5.54633,0.224767 7.25,0.635998 7.25,1.75 0,2.000028 -18.79581,2.151882 -19.56092,0.158035 z m 23.12764,0.406118 C 215.65642,76.635056 229.33703,46.5 230.916,46.5 c 0.75141,0 3.71806,5.46438 6.78634,12.5 2.99823,6.875 6.06004,13.831789 6.80401,15.459532 2.83879,6.210968 -1.67958,6.295712 -4.69549,0.08807 -2.0442,-4.207585 -2.41464,-4.468766 -6.737,-4.75 -5.06621,-0.329632 -6.6055,-3.025621 -2.07386,-3.632273 1.375,-0.184072 2.90661,-0.725685 3.40358,-1.203584 1.21885,-1.172076 -2.27239,-10.171561 -3.75518,-9.679855 -0.63162,0.209451 -2.85101,4.394211 -4.93199,9.299467 -4.98316,11.746268 -5.99412,13.684804 -7.37477,14.141258 -0.6371,0.21063 -1.43581,-0.06596 -1.77492,-0.614647 z m 34.04027,-0.68975 c -0.79027,-2.059421 -0.79027,-25.777005 0,-27.836426 C 251.09268,48.3161 252.86427,48 259.47213,48 c 6.84035,0 8.71052,0.35583 10.89301,2.07258 3.89059,3.060334 3.56755,7.303368 -0.86514,11.363555 -1.925,1.763231 -3.5,3.65515 -3.5,4.204264 0,0.549114 1.78705,3.393582 3.97123,6.321039 C 274.04786,77.425355 274.28005,79 271.00914,79 268.7791,79 258.87458,65.490417 259.64077,63.493759 c 0.27717,-0.722295 1.68109,-1.608709 3.11982,-1.969807 3.13693,-0.78732 5.1642,-3.21601 5.20761,-6.238768 0.042,-2.928357 -3.06451,-4.467568 -8.25641,-4.090815 L 255.5,51.5 255.25406,63 c -0.13527,6.325 -0.48135,12.5125 -0.76906,13.75 -0.60224,2.590391 -2.98299,3.000612 -3.87801,0.668213 z M 284.25,75.7113 c 2.69165,-2.237917 2.75032,-2.519023 2.76531,-13.248865 C 287.02373,56.433096 287.46684,50.825 288,50 c 0.65431,-1.012471 0.97435,2.59362 0.98469,11.095012 0.0163,13.395747 -0.38782,14.593169 -5.48469,16.251853 -1.52374,0.495873 -1.34514,0.106393 0.75,-1.635565 z M 300.5,77 c -0.731,-1.182783 0.24752,-1.182783 3,0 1.92824,0.828591 1.92138,0.861951 -0.19098,0.929715 C 302.10398,77.968372 300.83992,77.55 300.5,77 Z m 12,-0.414115 c 3.98632,-3.024964 4.5,-3.702359 4.5,-5.934182 0,-4.265888 -2.19417,-5.826553 -9.21302,-6.553031 C 299.81945,63.274004 298,61.960372 298,57.032543 c 0,-3.473607 3.14576,-8.220116 4.5303,-6.83558 0.28492,0.28492 -0.16784,1.087261 -1.00613,1.782981 C 300.68587,52.675664 300,54.739273 300,56.565741 300,61.150664 302.92186,63 310.1658,63 c 4.77809,0 5.97732,0.366238 7.2775,2.222506 3.23575,4.619684 0.97117,10.859142 -4.4433,12.242377 -2.42015,0.618275 -2.43612,0.5902 -0.5,-0.878998 z"
       id="path5362"
       inkscape:connector-curvature="0" />
    <path
       style="fill:#cf1c13"
       d="M 39,89.418369 C 32.675,85.829337 26.975229,82.354463 26.333843,81.696428 25.692456,81.038393 24.683973,75.55 24.09277,69.5 23.501567,63.45 22.491693,54.544645 21.848605,49.710323 c -0.822013,-6.179365 -0.855146,-9.103782 -0.111568,-9.84736 1.103277,-1.103277 16.92147,-6.967128 26.037483,-9.652172 l 5.27452,-1.553565 14.72548,4.864582 c 8.099014,2.67552 15.270815,5.340145 15.937335,5.921387 0.947164,0.82598 0.884898,3.459404 -0.285075,12.056805 -0.823311,6.05 -1.937663,15.05 -2.476338,20 -0.809071,7.434728 -1.368208,9.308301 -3.214926,10.77267 C 74.268218,85.022091 53.682378,95.966053 52,95.954332 51.175,95.948585 45.325,93.007401 39,89.418369 Z M 38.198529,80.75 c 0.869434,-0.6875 2.116481,-2.940955 2.771215,-5.007677 0.654735,-2.066722 2.058681,-4.222352 3.119879,-4.790288 1.061199,-0.567936 5.637661,-0.901982 10.169915,-0.742323 L 62.5,70.5 64.62044,74.91868 C 67.044019,79.969053 69.367721,82 72.722514,82 76.371077,82 76.426683,79.687464 72.955397,72.314933 52.928923,29.78147 53.809412,31.5 52.043852,31.5 c -0.902339,0 -3.823467,5.301336 -7.714242,14 -3.444089,7.7 -7.486321,16.7 -8.982739,20 -5.338652,11.773154 -6.15775,14.289121 -5.021788,15.425083 1.457782,1.457782 5.934364,1.358236 7.873446,-0.175083 z M 51.25,61.276604 C 49.4625,61.054778 48,60.460901 48,59.956878 48,57.605208 51.364067,51 52.561785,51 c 1.515609,0 5.722664,8.730735 4.871044,10.108685 -0.302975,0.490223 -1.086805,0.819298 -1.741846,0.731278 C 55.035942,61.751943 53.0375,61.498431 51.25,61.276604 Z M 96,63.426676 c 0,-12.841134 0.190633,-14.534894 1.603836,-14.25 0.88211,0.177828 5.293984,5.046855 9.804164,10.82006 4.51018,5.773205 8.96346,10.643701 9.89617,10.823325 C 118.81228,71.110496 119,69.976223 119,60.573324 119,54.191108 119.39639,50 120,50 c 0.61905,0 1,5.333333 1,14 0,11.327981 -0.26699,14 -1.39888,14 -0.76938,0 -5.32066,-5.195407 -10.11395,-11.545349 -4.79329,-6.349941 -9.2263,-11.375775 -9.851124,-11.168519 -0.734324,0.243577 -1.236031,4.326178 -1.418797,11.545349 C 97.794723,83.521034 96,80.76506 96,63.426676 Z m 40.5,13.64055 c -1.1,-0.46668 -3.125,-2.058974 -4.5,-3.538431 -2.19912,-2.366184 -2.5,-3.580555 -2.5,-10.090128 0,-7.008925 0.17109,-7.571293 3.23574,-10.635941 2.99922,-2.999223 3.76671,-3.250343 10.5,-3.435569 6.92373,-0.190464 7.00643,-0.167149 1.76426,0.497369 -10.01544,1.269594 -13,4.400047 -13,13.635474 0,7.03233 1.63489,10.031675 6.59857,12.105633 C 146.25337,78.804011 150,76.819237 150,69.565741 150,67.604584 150.47246,66 151.0499,66 c 0.64625,0 0.9346,2.210695 0.75,5.75 L 151.5,77.5 145,77.707867 c -3.575,0.114327 -7.4,-0.173962 -8.5,-0.640641 z m 26.95455,-1.521771 C 161.12018,73.211092 161,72.501122 161,61.045455 161,54.420455 161.41128,49 161.91395,49 c 0.50267,0 1.06517,5.218577 1.25,11.596838 0.33382,11.519765 0.35599,11.612775 3.33605,13.995032 3.46773,2.772097 7.33985,3.059429 11.59262,0.860234 C 182.16654,73.3454 183,70.540138 183,58.9349 183,52.9783 183.40044,49 184,49 c 0.60908,0 1,4.525641 1,11.576923 0,11.462213 -0.029,11.605886 -2.92308,14.5 C 179.43468,77.719167 178.51761,78 172.53147,78 c -5.69783,0 -6.96506,-0.342677 -9.07692,-2.454545 z m 30.98272,1.15166 c -0.27498,-0.716587 -0.37336,-7.092279 -0.21862,-14.168204 0.20111,-9.196341 0.63783,-12.983707 1.53135,-13.280448 0.95706,-0.317842 1.25,2.622312 1.25,12.545759 0,9.354509 0.35848,13.258404 1.28835,14.030122 0.70859,0.588079 4.19609,1.231473 7.75,1.429765 5.80982,0.324163 5.57582,0.379968 -2.31973,0.553211 -6.43571,0.141212 -8.91494,-0.155346 -9.28135,-1.110205 z m 23.32094,0.727766 c -0.60505,-0.605052 0.77984,-4.235819 5.54386,-14.534377 1.37148,-2.964777 3.41427,-7.528004 4.53954,-10.140504 2.12979,-4.944704 3.80379,-5.988594 4.81085,-3 0.32433,0.9625 2.33098,5.479816 4.45922,10.038481 2.12824,4.558664 4.14861,9.400416 4.48971,10.759448 0.34109,1.359033 1.02032,2.718274 1.50939,3.020536 C 244.2173,74.252333 244.29213,78 243.19927,78 242.75886,78 241.41471,75.975 240.21226,73.5 238.16078,69.277436 237.77858,69 234.013,69 231.80585,69 230,68.55 230,68 c 0,-0.55 1.13912,-1 2.53138,-1 3.44155,0 3.95612,-2.01621 2.00996,-7.875539 -3.0408,-9.154987 -5.0183,-7.745129 -11.04641,7.875539 -3.78519,9.80857 -4.69667,11.464928 -5.73672,10.424881 z m 33.70338,-0.664384 c -0.28836,-0.751447 -0.39768,-7.192469 -0.24294,-14.313382 L 251.5,49.5 l 7.85835,-0.294015 c 5.84043,-0.218515 8.4725,0.108388 10.25,1.273053 3.02791,1.983962 3.16211,6.316846 0.2911,9.398516 -2.75816,2.960538 -3.453,2.093578 -1.44077,-1.797658 1.55003,-2.997422 1.51925,-3.192875 -0.88081,-5.59293 C 265.76517,50.674266 264.01628,50 261.12724,50 253.88029,50 254,49.764055 254,64.047972 c 0,7.537312 -0.41562,13.090863 -1.00706,13.456393 -0.55389,0.34232 -1.24299,0.0076 -1.53135,-0.743868 z M 268.3167,75.75 C 265.22959,72.331569 261,65.694056 261,64.267865 261,63.570539 261.9,63 263,63 c 1.23948,0 2,0.666667 2,1.753197 0,0.964259 1.575,3.968469 3.5,6.676023 1.925,2.707554 3.5,5.293615 3.5,5.746802 0,1.488846 -1.61593,0.863225 -3.6833,-1.426022 z M 284.25,75.7113 c 2.69165,-2.237917 2.75032,-2.519023 2.76531,-13.248865 C 287.02373,56.433096 287.46684,50.825 288,50 c 0.65431,-1.012471 0.97435,2.59362 0.98469,11.095012 0.0163,13.395747 -0.38782,14.593169 -5.48469,16.251853 -1.52374,0.495873 -1.34514,0.106393 0.75,-1.635565 z M 300.5,77 c -0.731,-1.182783 0.24752,-1.182783 3,0 1.92824,0.828591 1.92138,0.861951 -0.19098,0.929715 C 302.10398,77.968372 300.83992,77.55 300.5,77 Z m 12,-0.414115 c 3.98632,-3.024964 4.5,-3.702359 4.5,-5.934182 0,-4.265888 -2.19417,-5.826553 -9.21302,-6.553031 C 299.81945,63.274004 298,61.960372 298,57.032543 c 0,-3.473607 3.14576,-8.220116 4.5303,-6.83558 0.28492,0.28492 -0.16784,1.087261 -1.00613,1.782981 C 300.68587,52.675664 300,54.739273 300,56.565741 300,61.150664 302.92186,63 310.1658,63 c 4.77809,0 5.97732,0.366238 7.2775,2.222506 3.23575,4.619684 0.97117,10.859142 -4.4433,12.242377 -2.42015,0.618275 -2.43612,0.5902 -0.5,-0.878998 z"
       id="path5360"
       inkscape:connector-curvature="0" />
    <path
       style="fill:#9f1911"
       d="M 52.219236,83.368794 52.5,70.5 l 5,0 c 4.925706,0 5.031507,0.06566 7.12044,4.41868 C 67.044019,79.969053 69.367721,82 72.722514,82 77.654416,82 77.637867,81.947279 63.373326,52.216385 59.867997,44.910397 57,38.560694 57,38.105932 c 0,-0.454761 -1.147241,-2.517393 -2.549425,-4.583627 -1.402184,-2.066233 -2.297818,-4.008396 -1.990297,-4.315916 0.689137,-0.689137 29.571354,8.771559 31.251577,10.236806 0.947164,0.82598 0.884898,3.459404 -0.285075,12.056805 -0.823311,6.05 -1.937663,15.05 -2.476338,20 C 79.806959,82.007713 80.301414,81.433031 65.5,89.457302 50.393525,97.646955 51.892728,98.334258 52.219236,83.368794 Z M 96,63.426676 c 0,-12.841134 0.190633,-14.534894 1.603836,-14.25 0.88211,0.177828 5.293984,5.046855 9.804164,10.82006 4.51018,5.773205 8.96346,10.643701 9.89617,10.823325 C 118.81228,71.110496 119,69.976223 119,60.573324 119,54.191108 119.39639,50 120,50 c 0.61905,0 1,5.333333 1,14 0,11.327981 -0.26699,14 -1.39888,14 -0.76938,0 -5.32066,-5.195407 -10.11395,-11.545349 -4.79329,-6.349941 -9.2263,-11.375775 -9.851124,-11.168519 -0.734324,0.243577 -1.236031,4.326178 -1.418797,11.545349 C 97.794723,83.521034 96,80.76506 96,63.426676 Z m 40.5,13.64055 c -1.1,-0.46668 -3.125,-2.058974 -4.5,-3.538431 -2.19912,-2.366184 -2.5,-3.580555 -2.5,-10.090128 0,-7.008925 0.17109,-7.571293 3.23574,-10.635941 2.99922,-2.999223 3.76671,-3.250343 10.5,-3.435569 6.92373,-0.190464 7.00643,-0.167149 1.76426,0.497369 -10.01544,1.269594 -13,4.400047 -13,13.635474 0,7.03233 1.63489,10.031675 6.59857,12.105633 C 146.25337,78.804011 150,76.819237 150,69.565741 150,67.604584 150.47246,66 151.0499,66 c 0.64625,0 0.9346,2.210695 0.75,5.75 L 151.5,77.5 145,77.707867 c -3.575,0.114327 -7.4,-0.173962 -8.5,-0.640641 z m 26.95455,-1.521771 C 161.12018,73.211092 161,72.501122 161,61.045455 161,54.420455 161.41128,49 161.91395,49 c 0.50267,0 1.06517,5.218577 1.25,11.596838 0.33382,11.519765 0.35599,11.612775 3.33605,13.995032 3.46773,2.772097 7.33985,3.059429 11.59262,0.860234 C 182.16654,73.3454 183,70.540138 183,58.9349 183,52.9783 183.40044,49 184,49 c 0.60908,0 1,4.525641 1,11.576923 0,11.462213 -0.029,11.605886 -2.92308,14.5 C 179.43468,77.719167 178.51761,78 172.53147,78 c -5.69783,0 -6.96506,-0.342677 -9.07692,-2.454545 z m 30.98272,1.15166 c -0.27498,-0.716587 -0.37336,-7.092279 -0.21862,-14.168204 0.20111,-9.196341 0.63783,-12.983707 1.53135,-13.280448 0.95706,-0.317842 1.25,2.622312 1.25,12.545759 0,9.354509 0.35848,13.258404 1.28835,14.030122 0.70859,0.588079 4.19609,1.231473 7.75,1.429765 5.80982,0.324163 5.57582,0.379968 -2.31973,0.553211 -6.43571,0.141212 -8.91494,-0.155346 -9.28135,-1.110205 z m 23.32094,0.727766 c -0.60505,-0.605052 0.77984,-4.235819 5.54386,-14.534377 1.37148,-2.964777 3.41427,-7.528004 4.53954,-10.140504 2.12979,-4.944704 3.80379,-5.988594 4.81085,-3 0.32433,0.9625 2.33098,5.479816 4.45922,10.038481 2.12824,4.558664 4.14861,9.400416 4.48971,10.759448 0.34109,1.359033 1.02032,2.718274 1.50939,3.020536 C 244.2173,74.252333 244.29213,78 243.19927,78 242.75886,78 241.41471,75.975 240.21226,73.5 238.16078,69.277436 237.77858,69 234.013,69 231.80585,69 230,68.55 230,68 c 0,-0.55 1.13912,-1 2.53138,-1 3.44155,0 3.95612,-2.01621 2.00996,-7.875539 -3.0408,-9.154987 -5.0183,-7.745129 -11.04641,7.875539 -3.78519,9.80857 -4.69667,11.464928 -5.73672,10.424881 z m 33.70338,-0.664384 c -0.28836,-0.751447 -0.39768,-7.192469 -0.24294,-14.313382 L 251.5,49.5 l 7.85835,-0.294015 c 5.84043,-0.218515 8.4725,0.108388 10.25,1.273053 3.02791,1.983962 3.16211,6.316846 0.2911,9.398516 -2.75816,2.960538 -3.453,2.093578 -1.44077,-1.797658 1.55003,-2.997422 1.51925,-3.192875 -0.88081,-5.59293 C 265.76517,50.674266 264.01628,50 261.12724,50 253.88029,50 254,49.764055 254,64.047972 c 0,7.537312 -0.41562,13.090863 -1.00706,13.456393 -0.55389,0.34232 -1.24299,0.0076 -1.53135,-0.743868 z M 268.3167,75.75 C 265.22959,72.331569 261,65.694056 261,64.267865 261,63.570539 261.9,63 263,63 c 1.23948,0 2,0.666667 2,1.753197 0,0.964259 1.575,3.968469 3.5,6.676023 1.925,2.707554 3.5,5.293615 3.5,5.746802 0,1.488846 -1.61593,0.863225 -3.6833,-1.426022 z M 284.25,75.7113 c 2.69165,-2.237917 2.75032,-2.519023 2.76531,-13.248865 C 287.02373,56.433096 287.46684,50.825 288,50 c 0.65431,-1.012471 0.97435,2.59362 0.98469,11.095012 0.0163,13.395747 -0.38782,14.593169 -5.48469,16.251853 -1.52374,0.495873 -1.34514,0.106393 0.75,-1.635565 z M 300.5,77 c -0.731,-1.182783 0.24752,-1.182783 3,0 1.92824,0.828591 1.92138,0.861951 -0.19098,0.929715 C 302.10398,77.968372 300.83992,77.55 300.5,77 Z m 12,-0.414115 c 3.98632,-3.024964 4.5,-3.702359 4.5,-5.934182 0,-4.265888 -2.19417,-5.826553 -9.21302,-6.553031 C 299.81945,63.274004 298,61.960372 298,57.032543 c 0,-3.473607 3.14576,-8.220116 4.5303,-6.83558 0.28492,0.28492 -0.16784,1.087261 -1.00613,1.782981 C 300.68587,52.675664 300,54.739273 300,56.565741 300,61.150664 302.92186,63 310.1658,63 c 4.77809,0 5.97732,0.366238 7.2775,2.222506 3.23575,4.619684 0.97117,10.859142 -4.4433,12.242377 -2.42015,0.618275 -2.43612,0.5902 -0.5,-0.878998 z M 53.25,61.337719 C 51.777796,60.743672 51.498057,51 52.953206,51 c 1.237524,0 5.20036,8.942507 4.479623,10.108685 -0.590827,0.955979 -2.167339,1.042302 -4.182829,0.229034 z"
       id="path5358"
       inkscape:connector-curvature="0" />
    <path
       style="fill:#2a2a2a"
       d="m 96,63.426676 c 0,-12.841134 0.190633,-14.534894 1.603836,-14.25 0.88211,0.177828 5.293984,5.046855 9.804164,10.82006 4.51018,5.773205 8.96346,10.643701 9.89617,10.823325 C 118.81228,71.110496 119,69.976223 119,60.573324 119,54.191108 119.39639,50 120,50 c 0.61905,0 1,5.333333 1,14 0,11.327981 -0.26699,14 -1.39888,14 -0.76938,0 -5.32066,-5.195407 -10.11395,-11.545349 -4.79329,-6.349941 -9.2263,-11.375775 -9.851124,-11.168519 -0.734324,0.243577 -1.236031,4.326178 -1.418797,11.545349 C 97.794723,83.521034 96,80.76506 96,63.426676 Z m 40.5,13.64055 c -1.1,-0.46668 -3.125,-2.058974 -4.5,-3.538431 -2.19912,-2.366184 -2.5,-3.580555 -2.5,-10.090128 0,-7.008925 0.17109,-7.571293 3.23574,-10.635941 2.99922,-2.999223 3.76671,-3.250343 10.5,-3.435569 6.92373,-0.190464 7.00643,-0.167149 1.76426,0.497369 -10.01544,1.269594 -13,4.400047 -13,13.635474 0,7.03233 1.63489,10.031675 6.59857,12.105633 C 146.25337,78.804011 150,76.819237 150,69.565741 150,67.604584 150.47246,66 151.0499,66 c 0.64625,0 0.9346,2.210695 0.75,5.75 L 151.5,77.5 145,77.707867 c -3.575,0.114327 -7.4,-0.173962 -8.5,-0.640641 z m 26.95455,-1.521771 C 161.12018,73.211092 161,72.501122 161,61.045455 161,54.420455 161.41128,49 161.91395,49 c 0.50267,0 1.06517,5.218577 1.25,11.596838 0.33382,11.519765 0.35599,11.612775 3.33605,13.995032 3.46773,2.772097 7.33985,3.059429 11.59262,0.860234 C 182.16654,73.3454 183,70.540138 183,58.9349 183,52.9783 183.40044,49 184,49 c 0.60908,0 1,4.525641 1,11.576923 0,11.462213 -0.029,11.605886 -2.92308,14.5 C 179.43468,77.719167 178.51761,78 172.53147,78 c -5.69783,0 -6.96506,-0.342677 -9.07692,-2.454545 z m 30.98272,1.15166 c -0.27498,-0.716587 -0.37336,-7.092279 -0.21862,-14.168204 0.20111,-9.196341 0.63783,-12.983707 1.53135,-13.280448 0.95706,-0.317842 1.25,2.622312 1.25,12.545759 0,9.354509 0.35848,13.258404 1.28835,14.030122 0.70859,0.588079 4.19609,1.231473 7.75,1.429765 5.80982,0.324163 5.57582,0.379968 -2.31973,0.553211 -6.43571,0.141212 -8.91494,-0.155346 -9.28135,-1.110205 z m 23.32094,0.727766 c -0.60505,-0.605052 0.77984,-4.235819 5.54386,-14.534377 1.37148,-2.964777 3.41427,-7.528004 4.53954,-10.140504 2.12979,-4.944704 3.80379,-5.988594 4.81085,-3 0.32433,0.9625 2.33098,5.479816 4.45922,10.038481 2.12824,4.558664 4.14861,9.400416 4.48971,10.759448 0.34109,1.359033 1.02032,2.718274 1.50939,3.020536 C 244.2173,74.252333 244.29213,78 243.19927,78 242.75886,78 241.41471,75.975 240.21226,73.5 238.16078,69.277436 237.77858,69 234.013,69 231.80585,69 230,68.55 230,68 c 0,-0.55 1.13912,-1 2.53138,-1 3.44155,0 3.95612,-2.01621 2.00996,-7.875539 -3.0408,-9.154987 -5.0183,-7.745129 -11.04641,7.875539 -3.78519,9.80857 -4.69667,11.464928 -5.73672,10.424881 z m 33.70338,-0.664384 c -0.28836,-0.751447 -0.39768,-7.192469 -0.24294,-14.313382 L 251.5,49.5 l 7.85835,-0.294015 c 5.84043,-0.218515 8.4725,0.108388 10.25,1.273053 3.02791,1.983962 3.16211,6.316846 0.2911,9.398516 -2.75816,2.960538 -3.453,2.093578 -1.44077,-1.797658 1.55003,-2.997422 1.51925,-3.192875 -0.88081,-5.59293 C 265.76517,50.674266 264.01628,50 261.12724,50 253.88029,50 254,49.764055 254,64.047972 c 0,7.537312 -0.41562,13.090863 -1.00706,13.456393 -0.55389,0.34232 -1.24299,0.0076 -1.53135,-0.743868 z M 268.3167,75.75 C 265.22959,72.331569 261,65.694056 261,64.267865 261,63.570539 261.9,63 263,63 c 1.23948,0 2,0.666667 2,1.753197 0,0.964259 1.575,3.968469 3.5,6.676023 1.925,2.707554 3.5,5.293615 3.5,5.746802 0,1.488846 -1.61593,0.863225 -3.6833,-1.426022 z"
       id="path5356"
       inkscape:connector-curvature="0" />
  </g>
</svg>
