<?xml version="1.0" encoding="UTF-8" standalone="no"?>
<!-- Created with Inkscape (http://www.inkscape.org/) -->

<svg
   xmlns:dc="http://purl.org/dc/elements/1.1/"
   xmlns:cc="http://creativecommons.org/ns#"
   xmlns:rdf="http://www.w3.org/1999/02/22-rdf-syntax-ns#"
   xmlns:svg="http://www.w3.org/2000/svg"
   xmlns="http://www.w3.org/2000/svg"
   xmlns:xlink="http://www.w3.org/1999/xlink"
   xmlns:sodipodi="http://sodipodi.sourceforge.net/DTD/sodipodi-0.dtd"
   xmlns:inkscape="http://www.inkscape.org/namespaces/inkscape"
   id="svg4065"
   version="1.1"
   inkscape:version="0.91 r13725"
   width="473"
   height="123"
   viewBox="0 0 473 123"
   sodipodi:docname="Angular.bmp.svg">
  <metadata
     id="metadata4071">
    <rdf:RDF>
      <cc:Work
         rdf:about="">
        <dc:format>image/svg+xml</dc:format>
        <dc:type
           rdf:resource="http://purl.org/dc/dcmitype/StillImage" />
        <dc:title></dc:title>
      </cc:Work>
    </rdf:RDF>
  </metadata>
  <defs
     id="defs4069" />
  <sodipodi:namedview
     pagecolor="#ffffff"
     bordercolor="#666666"
     borderopacity="1"
     objecttolerance="10"
     gridtolerance="10"
     guidetolerance="10"
     inkscape:pageopacity="0"
     inkscape:pageshadow="2"
     inkscape:window-width="640"
     inkscape:window-height="480"
     id="namedview4067"
     showgrid="false"
     inkscape:zoom="0.9640592"
     inkscape:cx="236.5"
     inkscape:cy="61.5"
     inkscape:window-x="0"
     inkscape:window-y="0"
     inkscape:window-maximized="0"
     inkscape:current-layer="svg4065" />
  <image
     width="473"
     height="123"
     preserveAspectRatio="none"
     style="image-rendering:optimizeQuality"
     xlink:href="file:///media/havoc/USB%20DISK/pics/_OpsDeps/Angular.bmp"
     id="image4073"
     x="0"
     y="0"
     sodipodi:absref="/media/havoc/USB DISK/pics/_OpsDeps/Angular.bmp" />
  <g
     id="g5391">
    <path
       style="fill:#fdfdfd"
       d="M 0,61.5 0,0 236.5,0 473,0 473,61.5 473,123 236.5,123 0,123 0,61.5 Z"
       id="path5407"
       inkscape:connector-curvature="0" />
    <path
       style="fill:#edd0d1"
       d="M 44,96.11013 C 38.225,92.897899 31.925,89.38797 30,88.310286 28.075,87.232602 25.970961,85.259417 25.324358,83.92543 23.949203,81.088393 20.546666,51.435658 20.519009,42.047346 L 20.5,35.594691 l 8,-2.881027 c 4.4,-1.584565 12.443736,-4.46328 17.87497,-6.397144 l 9.874969,-3.516116 6.625031,2.180116 C 66.518736,26.179584 74.9,29.055202 81.5,31.370782 l 12,4.210145 -0.229119,6.959537 C 93.144865,46.368209 92.394059,53.775 91.602423,59 c -0.791637,5.225 -1.747362,12.65 -2.123834,16.5 -0.376473,3.85 -1.093941,7.768706 -1.594374,8.708235 -0.500433,0.939529 -3.941604,3.380544 -7.647047,5.424478 -3.705442,2.043934 -10.102759,5.662729 -14.216259,8.041765 -4.113501,2.379042 -8.388501,4.314392 -9.5,4.300792 C 55.409409,101.96168 49.775,99.32236 44,96.11013 Z M 41.346857,80.510286 c 0.819343,-0.819343 1.776992,-2.797681 2.128109,-4.396308 1.18455,-5.393218 3.169707,-6.22146 14.145515,-5.901752 L 67.5,70.5 l 2.5,5 c 2.435196,4.870391 3.716785,6.453384 5.25,6.484687 1.510322,0.03084 0.663859,-2.970988 -3.139988,-11.135393 C 69.970519,66.257182 66.56473,58.9 64.541591,54.5 58.356665,41.048784 56.658933,37.938087 55.937399,38.734831 55.556282,39.155674 53.437609,43.55 51.229237,48.5 49.020865,53.45 46.082052,59.975 44.698542,63 c -6.093537,13.323316 -7.64868,17.271661 -7.132065,18.107562 0.803048,1.299358 2.086527,1.096577 3.78038,-0.597276 z m 8.085426,-15.826158 c -0.754469,-1.966113 5.161181,-15.134657 6.964543,-15.503434 1.781356,-0.364276 8.991736,13.364347 8.158916,15.534642 -0.697443,1.817507 -14.424911,1.78918 -15.123459,-0.03121 z M 103.2,81.8 c -0.8374,-0.837396 -1.2,-6.239457 -1.2,-17.877555 0,-13.539812 0.27977,-16.909743 1.48701,-17.911668 2.94392,-2.443233 5.9564,-0.183945 13.78047,10.335028 C 128.50228,71.450274 128,71.387374 128,57.689832 128,46.922782 128.13966,46.090448 130.04799,45.484769 134.46336,44.083386 135,46.089859 135,64 c 0,13.958729 -0.26032,16.971155 -1.55975,18.049585 -2.86083,2.374283 -6.19628,-0.285138 -14.77191,-11.777938 -4.60806,-6.175594 -8.66856,-10.938094 -9.02332,-10.583333 C 109.29026,60.043074 109,65.160188 109,71.059678 c 0,8.858533 -0.27544,10.832041 -1.58179,11.333333 C 105.18555,83.249765 104.56212,83.162121 103.2,81.8 Z m 44.70728,-1.093755 c -6.48948,-3.377427 -9.13324,-8.969023 -8.70231,-18.405511 0.52965,-11.597993 5.23574,-16.321282 16.97899,-17.04104 C 165.33309,44.698934 169,45.945842 169,49.617706 c 0,2.654214 -0.0284,2.664239 -5.82851,2.058007 -10.931,-1.142516 -17.15839,2.886194 -17.16775,11.106406 -0.009,8.054069 4.9445,13.586308 11.66982,13.032804 L 161.5,75.5 162,70 c 0.48485,-5.333333 0.59091,-5.5 3.5,-5.5 l 3,0 0.29059,8.259317 c 0.28473,8.092551 0.23798,8.279321 -2.3151,9.25 -4.78345,1.818665 -13.78361,1.187056 -18.56821,-1.303072 z M 181,81.248446 c -5.95129,-2.973001 -8,-8.547859 -8,-21.769206 0,-12.675417 0.95949,-15.208191 5.34441,-14.107647 L 181,46.038104 l 0,11.415848 c 0,11.192914 0.94403,16.254338 3.31256,17.760383 0.65309,0.415272 3.0302,0.76193 5.28245,0.770352 6.88676,0.02575 7.81151,-1.882305 8.40234,-17.336747 L 198.5,45.5 l 2.74951,-0.316376 c 4.16345,-0.47907 5.06154,2.999637 4.44324,17.210536 -0.57741,13.27081 -1.57765,15.699874 -7.76383,18.854286 -4.40355,2.245421 -12.43409,2.245421 -16.92892,0 z m 31.22621,0.93491 c -0.97084,-0.633206 -1.20868,-5.091229 -1,-18.74423 0.25676,-16.799396 0.39406,-17.936541 2.20769,-18.28502 C 217.1694,44.436354 218,47.535502 218,62.19113 L 218,76 l 7.25,0.01365 c 3.9875,0.0075 8.15397,0.256612 9.25881,0.553559 1.77547,0.477189 2.87901,-1.50296 9.5,-17.046456 6.39402,-15.010644 7.78357,-17.544943 9.48746,-17.30356 1.54687,0.219137 3.72265,4.222462 9.66485,17.782802 4.21772,9.625 7.7069,18.482176 7.75373,19.682612 0.0915,2.345336 -2.56675,3.771935 -5.16825,2.773644 -0.84433,-0.324002 -2.45779,-2.809206 -3.58546,-5.522675 L 260.11084,72 l -5.08681,0 c -3.78695,0 -5.24721,-0.418033 -5.71456,-1.635923 -0.97154,-2.531784 1.06493,-4.831626 4.58756,-5.18088 3.44328,-0.341386 3.53114,-1.417149 0.58432,-7.15473 l -1.26939,-2.471532 -1.44542,3.471532 C 250.97156,60.93781 248.82416,66.325 246.99455,71 c -1.82962,4.675 -3.93017,9.214086 -4.66791,10.086857 -1.09057,1.290193 -3.91053,1.61868 -15.08399,1.757078 -7.55846,0.09362 -14.31586,-0.20364 -15.01644,-0.660579 z M 275.2,81.8 c -0.84027,-0.840272 -1.2,-6.354002 -1.2,-18.393011 0,-14.755287 0.22427,-17.279074 1.58179,-17.8 2.0917,-0.802662 17.2366,-0.595072 20.41821,0.279871 1.4177,0.389868 3.32519,2.212589 4.4061,4.210309 2.45708,4.541133 1.57995,8.236712 -2.97444,12.532054 C 295.54425,64.409283 294,66.128007 294,66.44861 c 0,0.320603 2.025,3.365859 4.5,6.767235 2.475,3.401376 4.5,6.76071 4.5,7.465186 0,1.764085 -4.39287,2.714262 -6.74034,1.457934 -2.58802,-1.385065 -12.42222,-16.056348 -12.05182,-17.979669 0.16164,-0.839335 2.05396,-2.456041 4.20516,-3.59268 4.48912,-2.371943 6.17654,-4.587927 5.27753,-6.930693 C 293.21403,52.394188 291.72994,52 287.53138,52 L 282,52 l 0,13.565741 c 0,7.461158 -0.46583,14.436158 -1.03518,15.5 C 279.79814,83.245703 277.00186,83.601862 275.2,81.8 Z"
       id="path5405"
       inkscape:connector-curvature="0" />
    <path
       style="fill:#dca1a2"
       d="M 40.315327,92.982962 C 32.461317,88.555629 25.915164,84.20888 25.647823,83.243506 25.382266,82.284578 24.620301,76.1 23.954567,69.5 23.288833,62.9 22.195164,53.329891 21.524192,48.233092 c -0.9292,-7.058334 -0.942536,-9.646295 -0.05595,-10.858768 1.086364,-1.485692 4.907686,-3.003364 26.443029,-10.502086 l 8.411266,-2.928849 9.088734,2.961452 c 13.152841,4.28569 24.88652,8.488931 26.414154,9.462083 1.391155,0.88621 0.936076,11.568585 -0.857688,20.133076 -0.460772,2.2 -1.337802,8.725 -1.948957,14.5 -0.611154,5.775 -1.333813,11.249981 -1.605908,12.166625 -0.568288,1.914467 -28.350387,17.838745 -31.094393,17.822835 -1.000161,-0.006 -8.201578,-3.608726 -16.003148,-8.006498 z M 78,81.539023 C 78,81.29995 66.628578,56.624925 60.067495,42.627003 c -1.771825,-3.780149 -3.595715,-6.480149 -4.053089,-6 C 54.693019,38.014186 36,79.592687 36,81.144636 36,81.615086 37.355674,82 39.01261,82 c 2.69015,0 3.272962,-0.588702 5.444971,-5.5 l 2.432361,-5.5 9.305029,0.01531 c 5.117766,0.0084 9.809918,0.345922 10.427005,0.75 0.617087,0.404078 2.075439,2.838392 3.240782,5.409588 2.01301,4.441474 4.108163,5.97272 6.887242,5.03355 C 77.4375,81.976115 78,81.674873 78,81.539023 Z M 53.25,65.276604 C 51.4625,65.054778 50,64.441914 50,63.914684 50,61.5262 56.043129,49.908621 56.983301,50.489679 c 0.571709,0.353336 2.422328,3.600174 4.112486,7.215196 3.903381,8.34881 3.278153,8.952198 -7.845787,7.571729 z m 51,16.056729 c -1.6247,-0.649879 -1.80873,-33.869984 -0.19316,-34.868459 2.66557,-1.647415 5.94696,1.231004 14.29768,12.541875 C 123.22451,65.603037 127.59816,71 128.07374,71 c 0.47559,0 0.99105,-5.5125 1.14548,-12.25 0.26335,-11.48974 0.4049,-12.25 2.28078,-12.25 1.91156,0 2.01208,0.757706 2.27312,17.134141 0.23261,14.593451 0.0473,17.220807 -1.25,17.718615 -2.82283,1.083219 -4.63274,-0.579502 -13.6971,-12.583157 -5.05361,-6.692342 -9.41273,-11.582889 -9.89467,-11.10095 -0.4738,0.4738 -0.98968,5.993014 -1.1464,12.264922 -0.27564,11.031027 -0.73703,12.518931 -3.53495,11.399762 z m 45.20042,-0.739929 c -4.11209,-1.791118 -8.22576,-6.87896 -9.03062,-11.169192 -0.36287,-1.934302 -0.45471,-5.989718 -0.20407,-9.012034 0.81875,-9.873143 6.46813,-14.407948 17.95248,-14.410624 7.93778,-0.0018 9.83179,0.590153 9.83179,3.073077 0,1.656254 -0.79644,1.844949 -7.25,1.717701 -10.9184,-0.215283 -14.9174,2.9847 -15.0541,12.04625 C 145.55674,72.063467 149.77517,77 157.7973,77 162.29648,77 163,76.038138 163,69.886828 c 0,-2.74261 0.50259,-4.142459 1.64461,-4.580693 2.48961,-0.955352 4.35539,2.42246 4.35539,7.884995 0,6.950398 -2.18545,8.820234 -10.25,8.769728 -3.4375,-0.02153 -7.62231,-0.636882 -9.29958,-1.367454 z m 31.76597,-0.0984 c -5.31922,-2.311183 -7.16801,-7.739166 -7.19443,-21.122557 -0.0171,-8.648843 0.30933,-11.402506 1.46531,-12.361876 3.4943,-2.900019 4.29447,-0.666716 4.66049,13.007746 0.33225,12.412883 0.48619,13.267984 2.71302,15.070618 3.10821,2.516107 10.12159,2.555679 13.18584,0.0744 2.0999,-1.700397 2.30368,-2.819514 2.74653,-15.083474 0.49916,-13.823651 1.28082,-15.923214 4.83113,-12.976716 2.28624,1.897412 1.6159,25.355154 -0.83129,29.09004 -3.48979,5.326092 -14.27177,7.475742 -21.5766,4.30182 z m 31.45028,0.838331 c -1.1346,-1.1346 -0.77746,-34.146827 0.37713,-34.860406 0.5741,-0.354809 1.6991,-0.101266 2.5,0.563428 1.15137,0.95555 1.4562,4.218214 1.4562,15.58609 L 217,77 l 8.53138,0 c 6.9,0 8.64886,0.306132 9.14572,1.600925 0.33788,0.880508 -0.0137,1.998618 -0.78138,2.484687 -1.61721,1.024009 -20.23551,1.241265 -21.22905,0.247721 z M 237.26145,80.75 C 236.0366,79.193158 251.60575,43 253.5003,43 c 1.67449,0 16.90641,35.497754 16.11588,37.557826 -1.09478,2.852968 -4.0643,1.027648 -6.61618,-4.066878 -2.47905,-4.949133 -2.54398,-4.99348 -7.75,-5.293208 C 251.88323,71.003905 250,70.447902 250,69.64774 250,67.570652 252.23903,66 255.2,66 c 1.54,0 2.8,-0.479078 2.8,-1.064619 0,-2.253429 -4.3323,-11.00177 -5.07055,-10.239119 C 252.50154,55.138318 249.968,60.9 247.29936,67.5 241.72214,81.293459 241.34519,82 239.56343,82 c -0.7252,0 -1.76109,-0.5625 -2.30198,-1.25 z m 38.96358,0.410235 c -0.96958,-0.615321 -1.20911,-4.863429 -1,-17.734687 L 275.5,46.5 l 8,-0.314187 c 12.4846,-0.490313 17.51081,1.983465 17.49626,8.61124 -0.006,2.644738 -3.62931,7.951705 -5.92726,8.681048 -3.08149,0.978026 -2.55841,3.082074 2.54377,10.232137 4.80805,6.737879 4.87144,9.134192 0.21045,7.956147 -2.83207,-0.715793 -13.18238,-15.600378 -12.3266,-17.726647 0.3187,-0.791856 2.36317,-2.264694 4.54326,-3.272974 2.5421,-1.17571 4.18252,-2.704715 4.57363,-4.262986 C 295.59974,52.474327 293.48912,51 286.87756,51 L 281,51 l 0,14.3 c 0,15.58913 -0.83451,18.36098 -4.77497,15.860235 z"
       id="path5403"
       inkscape:connector-curvature="0" />
    <path
       style="fill:#d47e80"
       d="M 41,92.665373 26.5,84.5 25.770456,79 C 25.369206,75.975 24.351389,67.425 23.508639,60 22.665889,52.575 21.710018,44.681329 21.384481,42.45851 20.975,39.662506 21.209773,38.086826 22.146298,37.345573 23.71442,36.104414 50.873541,26.171645 54.83502,25.390491 56.536238,25.055032 62.382131,26.541669 71,29.501317 c 7.425,2.54998 14.987376,5.083377 16.805279,5.629772 5.103678,1.533978 5.04249,-0.964123 0.855526,34.928643 -0.741656,6.357853 -1.776454,12.324505 -2.299551,13.259227 C 85.505293,84.848475 57.514629,101.11947 56.090499,100.91537 55.765725,100.86883 48.975,97.156328 41,92.665373 Z M 44.542419,77.5 46.97478,72 l 9.804292,0 9.804292,0 2.697453,5.5 c 2.361642,4.815295 3.064933,5.5 5.649301,5.5 1.623516,0 3.155181,-0.3375 3.403699,-0.75 C 78.582335,81.8375 77.812366,79.475 76.622774,77 75.433182,74.525 73.15753,69.575 71.56577,66 69.97401,62.425 66.000419,53.875 62.735568,47 55.70247,32.189968 56.942021,31.676288 47.2075,53.434959 43.746624,61.170731 39.985614,69.510797 38.849699,71.968438 34.225008,81.974316 34.249586,83 39.114046,83 c 2.670031,0 3.260665,-0.598427 5.428373,-5.5 z m 6.975988,-13.470217 c -0.573156,-0.927386 2.982177,-10.580059 4.568397,-12.403125 0.94322,-1.084058 7.207705,11.0878 6.388635,12.413082 -0.7764,1.256242 -10.17976,1.247696 -10.957032,-0.01 z M 104,64 l 0,-17 2.28049,0 c 1.75529,0 4.42689,2.878751 11.60049,12.5 5.126,6.875 9.72478,12.5 10.21951,12.5 C 128.59522,72 129,67.086804 129,61.081787 129,49.344875 129.43411,47 131.60699,47 132.74327,47 133,50.145954 133,64.069551 l 0,17.069551 -2.25,-0.319551 C 129.2346,80.60433 125.72147,76.835286 119.98963,69.275346 107.08364,52.253133 108,52.48788 108,66.203927 108,78.646691 107.58536,81 105.39301,81 104.25696,81 104,77.864148 104,64 Z m 45.5,16.057307 c -6.00219,-2.448654 -9.04822,-8.737909 -8.81813,-18.207151 0.21543,-8.865782 5.03205,-14.075047 14.01423,-15.156679 6.36388,-0.766337 12.8039,0.402314 12.8039,2.323486 0,1.195379 -1.28696,1.41803 -6.635,1.147888 C 149.53621,49.592609 145,53.528426 145,63.93002 c 0,5.254785 0.37663,6.429347 3.03102,9.452526 2.10322,2.395442 4.23301,3.655215 6.95783,4.115569 6.53582,1.104221 7.86595,0.164706 8.21067,-5.799482 C 163.45568,67.266826 163.79501,66.5 165.5,66.5 c 1.73691,0 2.03978,0.767474 2.30242,5.834373 0.17837,3.4411 -0.17951,6.415066 -0.87244,7.25 -1.3054,1.572911 -13.89628,1.914544 -17.42998,0.472934 z m 31.26257,-0.622695 C 175.98743,76.843646 175,73.424409 175,59.480109 c 0,-12.514604 0.0187,-12.616562 2.25,-12.29966 2.17266,0.308566 2.26719,0.769919 2.75,13.421044 0.55253,14.477818 1.12665,15.956439 6.59391,16.982102 3.92061,0.735511 7.06996,0.113518 9.90609,-1.956443 1.77769,-1.297453 2.05558,-2.941814 2.5,-14.793429 C 199.46875,48.333333 199.625,47.5 201.5,47.5 c 1.86455,0 2.01914,0.760869 2.28261,11.234508 0.3492,13.882129 -0.41186,17.093844 -4.74295,20.015492 -4.00161,2.699388 -13.88179,3.069474 -18.27709,0.684612 z m 31.67888,0.273401 c -0.27268,-0.710593 -0.37106,-8.248093 -0.21862,-16.75 C 212.45504,50.007409 212.74331,47.5 214,47.5 c 1.25132,0 1.54621,2.397073 1.77873,14.458739 0.19335,10.029914 0.65281,14.696418 1.5,15.234687 0.6717,0.426772 4.70877,0.782839 8.97127,0.791261 6.21542,0.01228 7.75,0.312329 7.75,1.515313 0,1.238379 -1.83682,1.5 -10.53138,1.5 -7.68516,0 -10.66538,-0.349175 -11.02717,-1.291987 z m 25.17662,0.48303 c -0.31262,-0.505832 0.47131,-3.118248 1.74206,-5.805369 1.27076,-2.687121 4.73588,-10.626908 7.70028,-17.643972 2.96439,-7.017063 5.84632,-12.606125 6.40429,-12.420136 1.65912,0.553041 16.55544,35.058294 15.56336,36.050372 -1.44803,1.448035 -3.9828,-0.108429 -5.04247,-3.096312 -1.81775,-5.125375 -2.59092,-5.765634 -7.57843,-6.275626 -3.61702,-0.369854 -4.97622,-0.955513 -5.2218,-2.25 -0.26517,-1.397672 0.37553,-1.75 3.1823,-1.75 1.93287,0 3.78338,-0.435371 4.11225,-0.967491 0.76109,-1.231466 -3.62076,-12.267425 -5.05592,-12.733638 -0.5918,-0.192249 -3.54596,5.848811 -6.5648,13.424577 -5.1286,12.870235 -7.48653,16.306576 -9.24112,13.467595 z m 38.00776,-0.723738 C 274.8217,77.371791 274.80542,50.67065 275.60699,48.581787 276.10366,47.287484 278.00491,47 286.06803,47 c 8.8493,0 10.06196,0.223155 11.89301,2.188561 3.82935,4.110321 1.46884,12.588062 -3.98713,14.319718 -2.94748,0.935496 -2.44122,2.881023 2.52609,9.707566 2.475,3.401376 4.5,6.544283 4.5,6.984238 C 301,80.640037 299.9312,81 298.6249,81 c -1.82569,0 -3.56062,-1.714903 -7.5,-7.413427 -5.69098,-8.232293 -6.18135,-10.131425 -2.8749,-11.13412 3.68104,-1.116291 6.75,-4.56789 6.75,-7.591583 0,-3.681286 -2.70726,-5.041366 -9.27996,-4.66209 L 280.5,50.5 280,65.488206 c -0.42656,12.786668 -0.73857,15.03387 -2.12417,15.299092 -0.8933,0.170987 -1.9058,-0.42301 -2.25,-1.319993 z"
       id="path5401"
       inkscape:connector-curvature="0" />
    <path
       style="fill:#cc6669"
       d="M 45.960494,94.75 C 40.713905,91.8625 34.698935,88.6 32.593894,87.5 30.488852,86.4 28.195878,84.6 27.498395,83.5 26.800913,82.4 25.683583,75.65 25.01544,68.5 24.347298,61.35 23.395493,53.054853 22.900318,50.066341 22.405143,47.077828 22,42.93648 22,40.863344 c 0,-3.385801 0.330692,-3.868602 3.25,-4.744905 1.7875,-0.536564 6.85,-2.293794 11.25,-3.904956 4.4,-1.611163 10.749909,-3.900391 14.110909,-5.087174 l 6.11091,-2.157787 16.38909,5.637311 c 9.014,3.10052 16.98606,6.11631 17.715689,6.701754 C 92.27315,38.46828 91.973653,43.43494 89.518512,59 c -0.737406,4.675 -1.624986,11.603049 -1.972399,15.395664 -0.347413,3.792615 -1.05526,7.687168 -1.572993,8.654562 -0.517733,0.967393 -4.435985,3.677464 -8.707227,6.02238 C 72.994652,91.417521 66.8,94.825248 63.5,96.645331 60.2,98.465415 57.049943,99.964795 56.499873,99.977287 55.949803,99.989779 51.207082,97.6375 45.960494,94.75 Z m -3.893942,-12 C 42.696525,82.0625 44.176767,79.475 45.355979,77 L 47.5,72.5 l 9.278444,-0.287902 9.278445,-0.287902 2.402927,5.18647 c 1.321609,2.852558 2.996309,5.562724 3.721555,6.022589 2.043696,1.295872 5.824302,1.015537 6.395993,-0.474268 C 79.436063,80.421256 58.312779,35 56.413417,35 55.452243,35 47,50.721058 47,52.508829 47,52.724712 44.3,58.795739 41,66 35.235185,78.585221 34.219507,81.886174 35.666667,83.333333 36.782219,84.448885 40.849526,84.078161 42.066552,82.75 Z M 52.362544,61.691645 C 53.171871,58.46703 55.930422,52 56.496574,52 57.140589,52 62,61.683419 62,62.966756 62,63.542906 59.740103,64 56.891592,64 52.055064,64 51.814019,63.877145 52.362544,61.691645 Z M 129.26368,80.18318 c -0.67998,-0.43137 -5.40498,-6.363102 -10.5,-13.181626 C 113.66865,60.18303 109.05,54.691817 108.5,54.798859 c -0.58479,0.113813 -1.11621,5.386148 -1.27988,12.697882 C 106.98949,77.800288 106.67725,80 105.44535,80 c -1.27643,0 -1.45474,-2.372919 -1.22012,-16.237284 0.23603,-13.947981 0.50029,-16.280577 1.8743,-16.544345 1.04783,-0.201154 4.81968,3.933349 10.93583,11.987284 9.78097,12.879886 10.98962,14.169361 12.17252,12.986462 0.39853,-0.398531 0.8523,-6.117293 1.00836,-12.708359 C 130.3903,52.132687 130.88658,47.596645 131.5,47.75 c 0.61512,0.15378 1,6.472222 1,16.416667 0,15.852028 -0.39717,17.817635 -3.23632,16.016513 z M 151.5,80.282121 c -1.1,-0.267232 -3.44843,-1.577202 -5.21874,-2.911046 -4.00874,-3.020399 -5.69731,-8.71523 -4.97348,-16.773392 0.45274,-5.040163 1.0345,-6.406629 3.98271,-9.354839 3.0553,-3.055304 4.20524,-3.512942 9.99497,-3.977686 C 162.13589,46.715271 167,47.410656 167,48.939899 c 0,0.495987 -3.0375,0.84071 -6.75,0.766051 -8.14309,-0.163758 -12.27318,1.715781 -14.61516,6.651128 -4.87964,10.283089 1.36799,21.629449 11.91516,21.639184 5.24446,0.0048 6.45,-1.340181 6.45,-7.196262 0,-3.6 0.375,-4.8 1.5,-4.8 2.24751,0 2.17063,13.528677 -0.0818,14.393011 -1.80172,0.691384 -10.91469,0.618779 -13.91821,-0.11089 z m 30.5964,-0.491149 c -1.32198,-0.710035 -3.34698,-2.559875 -4.5,-4.110756 -1.87006,-2.515347 -2.0964,-4.1888 -2.0964,-15.5 C 175.5,49.57558 175.74553,47.5 177,47.5 c 1.22811,0 1.59063,2.296893 2,12.672041 0.46083,11.679388 0.68991,12.873984 2.92431,15.25 C 183.92101,77.545282 185.25726,78 189.5,78 c 4.21454,0 5.58248,-0.458898 7.52193,-2.52334 2.16971,-2.309551 2.40516,-3.559243 2.77907,-14.75 0.22468,-6.724663 0.83011,-12.672898 1.3454,-13.218301 1.82199,-1.928478 2.82298,1.98086 2.81443,10.991641 -0.0163,17.210165 -2.66107,21.671759 -13.18449,22.241901 -3.85072,0.208626 -7.20526,-0.158879 -8.67994,-0.950929 z m 31.57027,0.542361 c -1.0697,-1.069693 -0.78181,-32.14414 0.30401,-32.815214 1.50561,-0.930514 2.02047,2.895758 2.2851,16.981881 l 0.24422,13 8.25,0.290442 c 6.43241,0.226454 8.25,0.612004 8.25,1.75 C 233,80.715598 231.18136,81 223.66667,81 c -5.13334,0 -9.63334,-0.3 -10,-0.666667 z m 24.86926,-0.2752 c -0.88116,-1.425738 13.61426,-35.10647 14.93629,-34.70513 1.50678,0.457424 15.65728,32.867153 15.04587,34.460446 -0.80288,2.092266 -3.15555,-0.184916 -4.54702,-4.401118 C 262.6075,71.280688 260.48057,70 254.98241,70 c -5.32639,0 -4.9432,-2.364675 0.45649,-2.817018 3.63159,-0.304226 3.7599,-0.438999 3.17971,-3.339931 C 257.7737,59.618479 254.2952,52 253.21123,52 c -0.49567,0 -3.27807,5.9625 -6.1831,13.25 -5.47995,13.746875 -7.24545,16.825428 -8.4922,14.808133 z m 37.94874,-0.237496 c -0.29645,-0.772536 -0.41428,-8.360717 -0.26184,-16.862624 L 276.5,47.5 l 9.71682,0 c 11.24353,0 13.18318,1.051351 13.18318,7.14568 0,3.095419 -0.68573,4.264844 -4.3528,7.423158 l -4.35281,3.748908 4.65281,6.520321 c 2.55904,3.586177 4.6528,7.03518 4.6528,7.664451 0,2.781447 -3.73464,-0.02508 -7.98828,-6.00308 -6.60629,-9.284374 -6.66362,-9.626214 -2.01239,-11.999098 5.77003,-2.943648 7.60171,-7.256445 4.42924,-10.428911 C 293.32593,50.468783 290.93939,50 286.42857,50 L 280,50 l 0,14.377555 c 0,11.509288 -0.29688,14.623947 -1.48817,15.612624 -1.19344,0.990472 -1.59491,0.956895 -2.02716,-0.169542 z"
       id="path5399"
       inkscape:connector-curvature="0" />
    <path
       style="fill:#b94a4d"
       d="M 41.915516,91.696602 27.5,83.5 26.845383,78 C 26.485343,74.975 25.400141,65.975 24.433823,58 21.708421,35.507328 20.440919,38.473372 35,33.274406 58.868775,24.750999 55.520556,25.23367 66.166984,28.781453 71.300143,30.492011 78.9875,33.107462 83.25,34.593566 92.117657,37.685239 91.707941,36.678795 89.928938,51 c -0.580736,4.675 -1.640463,13.554357 -2.354949,19.731906 -0.714486,6.177548 -1.833688,11.876086 -2.487115,12.663417 -0.965165,1.162953 -17.788799,10.898043 -26.671358,15.433532 -1.766612,0.902042 -4.282771,-0.185587 -16.5,-7.132253 z M 45.457581,78.5 47.889942,73 l 8.99156,0 8.99156,0 2.813469,5.25 c 2.439652,4.552449 3.262181,5.292895 6.190627,5.572842 5.160576,0.49333 5.529409,-0.801083 2.255046,-7.914048 C 68.141037,56.377103 65.965214,51.677162 62.01292,43.25 59.612965,38.132769 57.05675,34 56.291576,34 54.869519,34 51.072727,41.697973 38.595367,69.878955 32.689382,83.218032 32.684799,84 38.51261,84 c 4.508332,0 4.514916,-0.0052 6.944971,-5.5 z m 7.217852,-15.25 c -0.24343,-0.4125 0.556457,-3 1.777528,-5.75 l 2.220128,-5 2.663455,5.216756 C 60.801445,60.585972 62,63.173472 62,63.466756 62,64.298165 53.172901,64.092973 52.675433,63.25 Z M 105,63.985693 c 0,-14.482724 0.16944,-16.09928 1.65703,-15.809017 0.91136,0.177828 5.78196,5.723324 10.82356,12.323324 5.04159,6.6 9.92093,12.145496 10.84297,12.323324 C 129.81706,73.111366 130,71.835615 130,61.132341 130,54.201492 130.42312,48.856533 131,48.5 c 0.65081,-0.402223 1,4.989616 1,15.440983 C 132,77.595859 131.77396,80 130.49009,80 129.65963,80 124.64597,74.15 119.34862,67 114.05126,59.85 109.10572,54 108.35853,54 107.28662,54 107,56.624784 107,66.440983 c 0,7.215299 -0.42004,12.700581 -1,13.059017 -0.65088,0.402267 -1,-5.014057 -1,-15.514307 z m 44.5,15.08025 c -7.56983,-3.206679 -10.53661,-16.038109 -5.84942,-25.299016 2.38108,-4.704533 10.41721,-7.419347 18.25303,-6.166349 6.42673,1.027675 4.81045,1.899422 -3.52166,1.899422 -7.61261,0 -7.6138,4.27e-4 -10.99769,3.91661 -3.04815,3.527628 -3.38361,4.520788 -3.37767,10 0.01,9.045869 3.75313,13.881707 11.73339,15.157801 C 161.97593,79.57158 164,77.951938 164,71.964816 164,68.150282 164.35859,67 165.54772,67 c 1.26362,0 1.49307,1.147231 1.25,6.25 L 166.5,79.5 159,79.706584 c -4.125,0.113622 -8.4,-0.174667 -9.5,-0.640641 z m 31.61007,-0.46145 c -4.24644,-2.353624 -5.03667,-5.224782 -5.07463,-18.437826 -0.0271,-9.432797 0.25853,-12.236074 1.21456,-11.919779 0.8756,0.289686 1.39976,4.201389 1.75,13.059803 0.45346,11.469079 0.71203,12.857878 2.77778,14.919778 1.82227,1.81887 3.38943,2.273531 7.83658,2.273531 4.85083,0 5.86618,-0.357347 7.97222,-2.805764 C 199.8582,73.053323 200,72.157322 200,60.444236 200,50.04936 200.24703,48 201.5,48 c 1.24967,0 1.5,1.994772 1.5,11.952947 0,13.184046 -0.89527,16.424415 -5.14503,18.622049 -3.44039,1.779096 -13.5561,1.796916 -16.7449,0.0295 z M 213,64 c 0,-10 0.375,-16 1,-16 0.6203,0 1,5.459185 1,14.377555 0,10.562151 0.34429,14.663291 1.29738,15.454289 0.71357,0.592203 4.87607,1.231743 9.25,1.4212 7.66591,0.332049 7.58308,0.351723 -2.29738,0.545712 L 213,80 213,64 Z m 25,15.687153 c 0,-0.172065 1.04979,-2.534565 2.33288,-5.25 1.28308,-2.715434 4.54558,-10.216659 7.25,-16.669389 2.70441,-6.45273 5.35702,-11.593598 5.89467,-11.424152 0.53765,0.169447 2.71013,4.323953 4.82773,9.232237 2.1176,4.908283 5.16521,11.768047 6.77245,15.243921 1.60725,3.475873 2.92227,7.000873 2.92227,7.833333 0,2.88747 -2.27346,0.735619 -3.90621,-3.697271 -1.63017,-4.425869 -1.67635,-4.457865 -6.8675,-4.758092 -5.34634,-0.309202 -7.44568,-2.185382 -2.47629,-2.213053 4.08852,-0.02277 5.58913,-1.323189 4.74253,-4.109841 -2.07023,-6.814343 -4.86886,-11.94902 -6.35659,-11.662509 -0.99539,0.191694 -3.60287,5.37958 -7.05957,14.045814 C 242.97338,74.03762 240.03217,80 239.29758,80 238.58391,80 238,79.859219 238,79.687153 Z m 38.43991,-0.983138 c -0.27352,-0.712792 -0.3719,-7.800292 -0.21861,-15.75 L 276.5,48.5 285.87792,48.210781 C 296.61777,47.879561 299,49.014767 299,54.463858 c 0,3.540766 -1.23321,5.391553 -5.25,7.879165 -1.5125,0.936696 -2.75,2.346149 -2.75,3.13212 0,0.78597 2.05979,4.375596 4.57732,7.976947 3.72848,5.333649 4.23845,6.546977 2.75,6.542876 -1.13612,-0.0031 -3.65724,-2.669917 -6.66506,-7.050163 C 287.04301,66.217863 286.28596,63 289.32259,63 c 0.76195,0 2.57607,-1.103513 4.03139,-2.452251 3.37423,-3.127134 3.57172,-7.785958 0.42351,-9.991045 C 291.12832,48.701153 281.94023,48.459766 280.2,50.2 c -0.82145,0.821445 -1.2,5.711111 -1.2,15.5 0,9.156764 -0.37095,14.3 -1.03138,14.3 -0.56727,0 -1.25518,-0.583193 -1.52871,-1.295985 z"
       id="path5397"
       inkscape:connector-curvature="0" />
    <path
       style="fill:#d82f34"
       d="M 42.506476,91.926279 C 35.367912,88.035733 28.958634,84.380632 28.263635,83.803834 27.568636,83.227036 27,81.209394 27,79.320184 27,77.430974 26.563285,72.873574 26.029523,69.192629 24.471861,58.450645 22.695824,43.731126 22.594005,40.719591 22.492251,37.709982 22.41566,37.745743 47.698811,28.998104 l 8.198811,-2.836681 16.801189,5.647569 c 9.240654,3.106162 17.096882,6.066255 17.458285,6.577984 0.361403,0.511728 0.464239,2.321502 0.228525,4.021719 C 90.149906,44.108913 89.521057,48.65 88.988177,52.5 88.455298,56.35 87.520387,64.225 86.910598,70 86.300809,75.775 85.393215,81.263991 84.893722,82.197757 84.1152,83.653145 79.346382,86.548225 60.219584,97.17706 58.415355,98.179677 56.612133,99 56.212424,99 55.812716,99 49.645039,95.816826 42.506476,91.926279 Z M 79.789281,82.480995 C 80.04226,80.71535 75.506296,70.276561 61.655922,40.75 59.656461,36.4875 57.42501,33 56.697141,33 55.405751,33 49.584796,44.477091 41.785429,62.401204 39.655166,67.296866 37.031974,73.234678 35.956112,75.59634 34.88025,77.958003 34,80.814961 34,81.945136 34,83.717541 34.626128,84 38.555029,84 l 4.555029,0 2.426898,-5.487647 2.426898,-5.487647 8.621536,0.237647 L 65.206926,73.5 67.55615,78 c 3.395677,6.504505 4.178099,7.147184 8.284612,6.804954 2.78281,-0.231914 3.728524,-0.788528 3.948519,-2.323959 z M 53,62.557329 c 0,-0.911157 0.703023,-3.016145 1.562273,-4.677752 1.805777,-3.491988 3.586091,-2.76134 5.30812,2.178475 C 60.817194,62.774049 60.71423,63 58.529768,63 57.228362,63 55.451771,63.273145 54.581787,63.606989 53.531682,64.009952 53,63.657133 53,62.557329 Z M 126.81293,75.75 c -1.33345,-1.7875 -3.45089,-4.825 -4.70543,-6.75 -2.45342,-3.764595 -2.40416,-3.717849 4.00923,3.804458 1.33956,1.57117 2.58819,2.106584 3.92401,1.682612 C 131.63914,73.979758 132,74.338093 132,76.432612 132,79.980301 129.74754,79.68388 126.81293,75.75 Z m 37.00066,1.974609 c 0.58217,-0.701465 1.23115,-3.513965 1.4422,-6.25 0.36881,-4.781446 0.39071,-4.731923 0.56396,1.275391 0.14918,5.17259 -0.0994,6.25 -1.44219,6.25 -1.2018,0 -1.34802,-0.330665 -0.56397,-1.275391 z m 75.7507,-0.01774 c 0.37553,-0.986221 0.93469,-1.541221 1.24258,-1.233333 0.30789,0.307887 6.4e-4,1.114794 -0.68278,1.793128 -0.98762,0.980267 -1.10248,0.865403 -0.5598,-0.559795 z m 26.092,-0.913202 c -0.81251,-3.107077 -0.19266,-3.266284 1.15983,-0.297896 C 267.44367,77.873098 267.56925,79 267.09519,79 c -0.47406,0 -1.12156,-0.992848 -1.4389,-2.20633 z m 11.47989,-12.484653 c -0.0749,-8.355041 0.21318,-15.406899 0.64018,-15.670797 0.42699,-0.263898 0.63227,5.672044 0.45618,13.190983 -0.45081,19.248602 -0.93619,20.346464 -1.09636,2.479814 z M 295.814,77.256131 C 293.06009,74.047121 288,66.15566 288,65.069825 288,64.481421 288.45,64 289,64 c 0.55,0 1,0.694215 1,1.5427 0,0.848485 1.84003,4.033455 4.08895,7.077712 2.24893,3.044258 3.89617,5.727802 3.66054,5.963432 -0.23563,0.235629 -1.1066,-0.361841 -1.93549,-1.327713 z M 145.58889,74.923275 c -1.42389,-1.692199 -2.58612,-3.829699 -2.58273,-4.75 0.004,-0.990234 0.6282,-0.448657 1.53,1.326725 0.83811,1.65 2.46019,3.7875 3.60462,4.75 1.14444,0.9625 1.62094,1.75 1.0589,1.75 -0.56204,0 -2.18689,-1.384526 -3.61079,-3.076725 z m 34.1357,1.324895 C 176.87934,73.104204 176,69.03064 176,58.993917 c 0,-14.785216 1.78412,-13.227812 2.17034,1.894543 0.28095,11.000885 0.61112,13.218555 2.23465,15.009782 C 181.45273,77.054209 182.08498,78 181.80998,78 c -0.275,0 -1.21343,-0.788323 -2.08539,-1.75183 z m 18.71904,-0.0581 c 1.62421,-1.901515 2.04939,-4.445963 2.58714,-15.482767 l 0.64351,-13.2073 0.14755,13 c 0.15229,13.418066 0.0364,13.993018 -3.32183,16.482767 -1.98835,1.474132 -1.98868,1.469516 -0.0564,-0.7927 z m 64.95381,-4.921778 c -0.6021,-0.954526 -3.0862,-1.920083 -5.96464,-2.318423 -4.46176,-0.617455 -4.57946,-0.695399 -1.23249,-0.816253 2.161,-0.07803 4.05514,-0.767652 4.55327,-1.657767 0.67191,-1.200637 1.2222,-0.749837 2.59255,2.123806 1.81106,3.797839 1.84399,5.510636 0.0513,2.668637 z M 142.28601,63.5 c 0.008,-2.75 0.20172,-3.756313 0.43157,-2.23625 0.22986,1.520062 0.22371,3.770062 -0.0136,5 C 142.46657,67.493687 142.27851,66.25 142.28601,63.5 Z m -25.41357,-1.25 c -1.24387,-1.586056 -1.2085,-1.621426 0.37756,-0.377555 0.9625,0.754844 1.75,1.542344 1.75,1.75 0,0.823034 -0.82119,0.293303 -2.12756,-1.372445 z m 26.15797,-5.065741 c -0.0507,-2.195013 1.88748,-5.07186 4.24251,-6.297058 L 149.5,49.728565 147.38657,52.114283 C 146.22418,53.426427 144.77537,55.4 144.16698,56.5 c -0.60839,1.1 -1.11985,1.407916 -1.13657,0.684259 z m 154.12963,-1.86283 c -0.088,-1.748215 -0.86718,-3.885715 -1.73147,-4.75 C 294.56429,49.707143 294.28419,49 294.80613,49 c 1.92065,0 3.31917,2.959964 2.92214,6.184676 L 297.32007,58.5 297.16004,55.321429 Z M 105,51.06088 c 0,-2.696793 1.17024,-3.216788 3.16885,-1.408074 2.44489,2.212592 2.30904,2.819538 -0.66956,2.991407 C 105.7424,52.745589 105,52.275267 105,51.06088 Z m 148.27383,-0.891646 c -0.74261,-0.458956 -0.84274,-1.24871 -0.27484,-2.167602 0.75077,-1.214761 1.00157,-1.163742 1.57075,0.319521 0.8106,2.112379 0.303,2.836261 -1.29591,1.848081 z"
       id="path5395"
       inkscape:connector-curvature="0" />
    <path
       style="fill:#b02e31"
       d="M 56.220123,86.25 56.5,73.5 l 4.351361,0 c 4.142156,0 4.464407,0.21635 6.702687,4.5 3.399212,6.505456 4.180631,7.147148 8.286714,6.804954 2.78281,-0.231914 3.728524,-0.788528 3.948519,-2.323959 C 80.04226,80.71535 75.506296,70.276561 61.655922,40.75 59.656461,36.4875 57.565917,33 57.010269,33 56.454621,33 56,31.65 56,30 c 0,-1.725592 0.531003,-3.006166 1.25,-3.014516 2.054936,-0.02386 32.195345,10.438934 32.907096,11.423211 0.361403,0.499783 0.464239,2.299783 0.228525,4 C 90.149906,44.108913 89.521057,48.65 88.988177,52.5 88.455298,56.35 87.520387,64.225 86.910598,70 86.300809,75.775 85.393215,81.263991 84.893722,82.197757 84.06419,83.748505 58.236313,99 56.439707,99 56.165003,99 56.066191,93.2625 56.220123,86.25 Z m 70.592807,-10.5 c -1.33345,-1.7875 -3.45089,-4.825 -4.70543,-6.75 -2.45342,-3.764595 -2.40416,-3.717849 4.00923,3.804458 1.33956,1.57117 2.58819,2.106584 3.92401,1.682612 C 131.63914,73.979758 132,74.338093 132,76.432612 132,79.980301 129.74754,79.68388 126.81293,75.75 Z m 37.00066,1.974609 c 0.58217,-0.701465 1.23115,-3.513965 1.4422,-6.25 0.36881,-4.781446 0.39071,-4.731923 0.56396,1.275391 0.14918,5.17259 -0.0994,6.25 -1.44219,6.25 -1.2018,0 -1.34802,-0.330665 -0.56397,-1.275391 z m 75.7507,-0.01774 c 0.37553,-0.986221 0.93469,-1.541221 1.24258,-1.233333 0.30789,0.307887 6.4e-4,1.114794 -0.68278,1.793128 -0.98762,0.980267 -1.10248,0.865403 -0.5598,-0.559795 z m 26.092,-0.913202 c -0.81251,-3.107077 -0.19266,-3.266284 1.15983,-0.297896 C 267.44367,77.873098 267.56925,79 267.09519,79 c -0.47406,0 -1.12156,-0.992848 -1.4389,-2.20633 z m 11.47989,-12.484653 c -0.0749,-8.355041 0.21318,-15.406899 0.64018,-15.670797 0.42699,-0.263898 0.63227,5.672044 0.45618,13.190983 -0.45081,19.248602 -0.93619,20.346464 -1.09636,2.479814 z M 295.814,77.256131 C 293.06009,74.047121 288,66.15566 288,65.069825 288,64.481421 288.45,64 289,64 c 0.55,0 1,0.694215 1,1.5427 0,0.848485 1.84003,4.033455 4.08895,7.077712 2.24893,3.044258 3.89617,5.727802 3.66054,5.963432 -0.23563,0.235629 -1.1066,-0.361841 -1.93549,-1.327713 z M 145.58889,74.923275 c -1.42389,-1.692199 -2.58612,-3.829699 -2.58273,-4.75 0.004,-0.990234 0.6282,-0.448657 1.53,1.326725 0.83811,1.65 2.46019,3.7875 3.60462,4.75 1.14444,0.9625 1.62094,1.75 1.0589,1.75 -0.56204,0 -2.18689,-1.384526 -3.61079,-3.076725 z m 34.1357,1.324895 C 176.87934,73.104204 176,69.03064 176,58.993917 c 0,-14.785216 1.78412,-13.227812 2.17034,1.894543 0.28095,11.000885 0.61112,13.218555 2.23465,15.009782 C 181.45273,77.054209 182.08498,78 181.80998,78 c -0.275,0 -1.21343,-0.788323 -2.08539,-1.75183 z m 18.71904,-0.0581 c 1.62421,-1.901515 2.04939,-4.445963 2.58714,-15.482767 l 0.64351,-13.2073 0.14755,13 c 0.15229,13.418066 0.0364,13.993018 -3.32183,16.482767 -1.98835,1.474132 -1.98868,1.469516 -0.0564,-0.7927 z m 64.95381,-4.921778 c -0.6021,-0.954526 -3.0862,-1.920083 -5.96464,-2.318423 -4.46176,-0.617455 -4.57946,-0.695399 -1.23249,-0.816253 2.161,-0.07803 4.05514,-0.767652 4.55327,-1.657767 0.67191,-1.200637 1.2222,-0.749837 2.59255,2.123806 1.81106,3.797839 1.84399,5.510636 0.0513,2.668637 z M 142.28601,63.5 c 0.008,-2.75 0.20172,-3.756313 0.43157,-2.23625 0.22986,1.520062 0.22371,3.770062 -0.0136,5 C 142.46657,67.493687 142.27851,66.25 142.28601,63.5 Z m -25.41357,-1.25 c -1.24387,-1.586056 -1.2085,-1.621426 0.37756,-0.377555 0.9625,0.754844 1.75,1.542344 1.75,1.75 0,0.823034 -0.82119,0.293303 -2.12756,-1.372445 z M 56,58.877555 c 0,-3.451072 0.231651,-3.930191 1.422412,-2.941947 0.782327,0.649273 1.883918,2.504373 2.447981,4.122444 C 60.823483,62.792089 60.722959,63 58.44798,63 56.246552,63 56,62.584802 56,58.877555 Z m 87.03041,-1.693296 c -0.0507,-2.195013 1.88748,-5.07186 4.24251,-6.297058 L 149.5,49.728565 147.38657,52.114283 C 146.22418,53.426427 144.77537,55.4 144.16698,56.5 c -0.60839,1.1 -1.11985,1.407916 -1.13657,0.684259 z m 154.12963,-1.86283 c -0.088,-1.748215 -0.86718,-3.885715 -1.73147,-4.75 C 294.56429,49.707143 294.28419,49 294.80613,49 c 1.92065,0 3.31917,2.959964 2.92214,6.184676 L 297.32007,58.5 297.16004,55.321429 Z M 105,51.06088 c 0,-2.696793 1.17024,-3.216788 3.16885,-1.408074 2.44489,2.212592 2.30904,2.819538 -0.66956,2.991407 C 105.7424,52.745589 105,52.275267 105,51.06088 Z m 148.27383,-0.891646 c -0.74261,-0.458956 -0.84274,-1.24871 -0.27484,-2.167602 0.75077,-1.214761 1.00157,-1.163742 1.57075,0.319521 0.8106,2.112379 0.303,2.836261 -1.29591,1.848081 z"
       id="path5393"
       inkscape:connector-curvature="0" />
  </g>
</svg>
