<?xml version="1.0" encoding="UTF-8" standalone="no"?>
<!-- Created with Inkscape (http://www.inkscape.org/) -->

<svg
   xmlns:dc="http://purl.org/dc/elements/1.1/"
   xmlns:cc="http://creativecommons.org/ns#"
   xmlns:rdf="http://www.w3.org/1999/02/22-rdf-syntax-ns#"
   xmlns:svg="http://www.w3.org/2000/svg"
   xmlns="http://www.w3.org/2000/svg"
   xmlns:xlink="http://www.w3.org/1999/xlink"
   xmlns:sodipodi="http://sodipodi.sourceforge.net/DTD/sodipodi-0.dtd"
   xmlns:inkscape="http://www.inkscape.org/namespaces/inkscape"
   id="svg4085"
   version="1.1"
   inkscape:version="0.91 r13725"
   width="473"
   height="123"
   viewBox="0 0 473 123"
   sodipodi:docname="Babel.bmp.svg">
  <metadata
     id="metadata4091">
    <rdf:RDF>
      <cc:Work
         rdf:about="">
        <dc:format>image/svg+xml</dc:format>
        <dc:type
           rdf:resource="http://purl.org/dc/dcmitype/StillImage" />
        <dc:title></dc:title>
      </cc:Work>
    </rdf:RDF>
  </metadata>
  <defs
     id="defs4089" />
  <sodipodi:namedview
     pagecolor="#ffffff"
     bordercolor="#666666"
     borderopacity="1"
     objecttolerance="10"
     gridtolerance="10"
     guidetolerance="10"
     inkscape:pageopacity="0"
     inkscape:pageshadow="2"
     inkscape:window-width="640"
     inkscape:window-height="480"
     id="namedview4087"
     showgrid="false"
     inkscape:zoom="0.55391121"
     inkscape:cx="236.5"
     inkscape:cy="61.5"
     inkscape:window-x="0"
     inkscape:window-y="0"
     inkscape:window-maximized="0"
     inkscape:current-layer="svg4085" />
  <image
     width="473"
     height="123"
     preserveAspectRatio="none"
     style="image-rendering:optimizeQuality"
     xlink:href="file:///media/havoc/USB%20DISK/pics/_OpsDeps/Babel.bmp"
     id="image4093"
     x="0"
     y="0"
     sodipodi:absref="/media/havoc/USB DISK/pics/_OpsDeps/Babel.bmp" />
  <g
     id="g5317">
    <path
       style="fill:#fdfdfd"
       d="M 0,61.5 0,0 236.5,0 473,0 473,61.5 473,123 236.5,123 0,123 0,61.5 Z"
       id="path5333"
       inkscape:connector-curvature="0" />
    <path
       style="fill:#e6dca4"
       d="m 108,94.7 c 0,-1.265 -0.52924,-2.829236 -1.17608,-3.476081 -0.90144,-0.90144 0.13138,-3.80878 4.42281,-12.45 C 117.05075,67.086947 125,49.232077 125,47.882584 c 0,-0.42489 -2.43814,0.305735 -5.41809,1.623609 -4.67985,2.069653 -5.58211,2.198497 -6.6219,0.94562 -0.98742,-1.189761 -0.24605,-2.363991 4.12406,-6.532 6.09355,-5.811735 8.20834,-7.034907 16.06984,-9.294639 7.39967,-2.126982 13.36989,-2.024458 18.52977,0.318205 8.51279,3.864933 9.45303,12.468043 2.10413,19.25251 C 149.52883,58.127763 149.20398,61 153.01828,61 157.24511,61 161.081,57.751037 169.5393,47.006835 174.30508,40.953076 178.74338,36 179.40218,36 181.19209,36 183,38.151485 183,40.281559 c 0,1.797493 0.15253,1.787292 3.41385,-0.228316 C 198.75063,32.428694 214,34.585298 214,43.954545 c 0,4.775704 1.72976,3.578536 3.65524,-2.529792 0.96659,-3.066386 2.45209,-5.946123 3.3011,-6.399416 0.84901,-0.453293 7.72529,-1.600034 15.28061,-2.548314 12.9364,-1.623667 13.88825,-1.625009 16.33317,-0.02304 2.42584,1.589471 2.54961,2.040566 1.88591,6.873561 -0.39067,2.844848 -2.67809,9.780821 -5.08317,15.413274 C 246.96779,60.37327 245,65.66077 245,66.490818 c 0,1.759286 -0.14747,1.75218 11.32172,0.545526 10.06746,-1.059181 13.97299,-0.08083 13.47406,3.375325 -0.52102,3.609163 -14.91772,5.481846 -34.79578,4.526138 -3.66798,-0.176351 -22.74343,2.389205 -23.28946,3.13232 -0.17372,0.236428 -1.09943,1.681707 -2.05713,3.211733 -1.83702,2.934826 -4.12656,2.784263 -3.17657,-0.208894 0.31896,-1.004939 -0.37774,-2.948562 -1.62553,-4.534874 -1.84041,-2.339699 -1.98949,-3.087191 -0.94823,-4.754507 2.10187,-3.365636 0.52078,-3.085307 -5.55861,0.985549 -3.21446,2.152447 -8.38746,4.687819 -11.49556,5.63416 -3.10809,0.946341 -6.44034,2.592738 -7.40498,3.658661 -2.33526,2.580432 -3.1098,2.450253 -4.83101,-0.81196 l -1.45095,-2.75 -2.08098,4.832905 C 169.93644,85.991003 169,88.54636 169,89.011477 169,90.552444 165.88792,93 163.92857,93 c -2.774,0 -2.49704,-2.89055 1.53546,-16.024741 1.90521,-6.205456 3.2279,-11.664703 2.93931,-12.131658 C 167.33165,63.109571 163.97091,66.229016 158,74.5 151.93313,82.903912 148.8858,85.665486 146.97933,84.487227 145.34428,83.476711 145.9243,78.653627 148,76 c 3.01268,-3.851493 2.36105,-4.524187 -1.28311,-1.324576 C 142.38722,78.476927 129.53069,87 128.12604,87 125.14512,87 113.70148,92.525969 112.32179,94.631642 110.33917,97.657498 108,97.694497 108,94.7 Z m 20.4039,-18.117191 c 8.66673,-4.858167 14.43633,-10.064091 12.90255,-11.64201 -0.94136,-0.96845 -2.67777,-0.75066 -8.2179,1.030728 -6.726,2.162699 -7.13189,2.474446 -9.55645,7.339896 -3.97575,7.97829 -3.77071,8.115974 4.8718,3.271386 z m 53.49176,-15.145387 c 3.22878,-7.115582 5.75122,-13.071823 5.60542,-13.23609 -0.14579,-0.164267 -1.45889,9.59e-4 -2.91799,0.36717 C 181.73504,49.283316 179,53.479267 179,57.133761 c 0,1.228194 -0.85522,4.738041 -1.90048,7.79966 -5.376,15.746514 -3.22338,14.177432 4.79614,-3.495999 z m 16.02495,2.165506 c 3.25786,-3.492626 2.18259,-4.130087 -3.6813,-2.182416 -3.88091,1.289032 -5.23587,2.349055 -6.56478,5.135811 C 186.75354,68.487665 186,70.285167 186,70.550773 c 0,1.094933 9.68248,-4.548435 11.92061,-6.947845 z m 40.41991,-0.696858 c 1.01228,-2.973339 3.42476,-9.36859 5.36106,-14.21167 1.93631,-4.84308 3.35807,-8.950242 3.15949,-9.127026 -0.19859,-0.176784 -4.41107,0.504252 -9.36107,1.513414 -7.11266,1.450065 -9.47183,2.379641 -11.25,4.432789 C 225.0125,46.94245 224,48.536434 224,49.055764 224,49.575094 226.71412,50 230.03138,50 c 4.66147,0 6.17397,0.371571 6.65915,1.635923 1.43147,3.730345 -1.80744,5.595231 -11.95949,6.885976 -4.995,0.635072 -6.97153,2.435571 -8.20922,7.478101 l -0.61363,2.5 10.29591,-0.09393 10.2959,-0.09393 1.84052,-5.40607 z m -26.46359,-8.535296 c 1.5489,-3.399483 0.96899,-3.876343 -1.89438,-1.55773 -1.30581,1.057382 -1.99022,2.365534 -1.58264,3.025004 1.12742,1.824201 2.17963,1.380175 3.47702,-1.467274 z m -74.476,0.106174 c 2.00484,-0.837678 5.46491,-3.342789 7.68903,-5.566912 3.27383,-3.273828 3.81739,-4.316749 2.85451,-5.476948 -1.24167,-1.496118 -7.60308,-1.93875 -9.59713,-0.667775 C 137.40515,43.36585 132,54.316179 132,55.62443 c 0,0.737336 1.81059,0.352659 5.40093,-1.147482 z m 62.40109,-3.874569 c 3.60448,-1.863948 6.55084,-5.222425 5.73692,-6.539366 -0.74962,-1.212912 -4.49222,-1.394096 -6.14941,-0.2977 C 198.33011,44.466227 195,50.296462 195,51.45034 c 0,0.953391 2.00234,0.599809 4.80202,-0.847961 z"
       id="path5331"
       inkscape:connector-curvature="0" />
    <path
       style="fill:#ebd459"
       d="m 108.63489,92.118211 c -0.52539,-3.285648 0.035,-5.166924 3.64908,-12.25 5.9126,-11.587855 14.98499,-32.932586 14.29218,-33.625399 -0.31459,-0.314581 -2.94187,0.627094 -5.83841,2.092611 -8.48379,4.292407 -9.18996,2.973257 -2.09807,-3.919272 5.65704,-5.498018 8.16192,-6.841579 16.80081,-9.0116 5.68331,-1.427601 7.54932,-1.501303 12.11897,-0.478661 11.5207,2.57822 13.69355,12.745595 4.3118,20.176085 -4.53562,3.592276 -4.69555,4.31182 -1.4334,6.449259 2.25697,1.478826 2.76047,1.454629 6.78618,-0.326136 3.38855,-1.498917 6.29721,-4.390583 13.17777,-13.100781 7.39099,-9.35637 9.069,-10.978473 10.30002,-9.956825 0.95503,0.792609 1.27384,2.204205 0.90938,4.026495 -0.68937,3.446877 0.47352,3.558765 3.9078,0.375987 C 189.03562,39.310874 196.17348,37 202.72359,37 209.63738,37 213,39.89125 213,45.835857 c 0,3.311104 -0.54767,4.344497 -3.49314,6.591111 -3.38905,2.58496 -3.44522,2.737475 -1.88499,5.118689 C 208.50635,58.895546 209.5357,60 209.9093,60 c 0.76398,0 8.67735,-16.254808 9.62791,-19.776641 0.33796,-1.252153 1.59285,-2.907879 2.78863,-3.67939 C 224.84515,34.918534 242.39765,32.702901 249,33.17692 l 4.5,0.32308 -0.30142,5 c -0.29748,4.934698 -3.082,14.288351 -5.91328,19.863687 -0.79983,1.575028 -2.08856,4.661537 -2.86384,6.858908 l -1.40959,3.99522 10.88456,-0.711049 c 5.98651,-0.391077 11.83384,-0.409761 12.99407,-0.04152 2.78774,0.884794 2.69951,3.374115 -0.1405,3.963941 -13.71661,2.848732 -26.1895,3.310077 -29.13814,1.077756 -1.43142,-1.083679 -2.37733,-1.167644 -3.91049,-0.34712 -1.1123,0.595281 -6.53912,1.713635 -12.05961,2.485229 -5.5205,0.771595 -10.75422,2.051738 -11.63051,2.844763 -1.41553,1.281044 -1.8057,1.047333 -3.49818,-2.095406 -1.58201,-2.937609 -1.69371,-3.875507 -0.65893,-5.532463 0.68531,-1.097357 1.70438,-3.202713 2.2646,-4.67857 L 209.13732,63.5 l -2.81866,2.620586 c -5.19393,4.828942 -13.30263,9.732836 -18.67676,11.295139 -2.9297,0.851688 -6.54634,2.507869 -8.03698,3.680403 -6.12057,4.81444 -5.13106,-0.911797 3.28119,-18.988215 3.93968,-8.465648 6.99068,-15.564457 6.78,-15.775131 -0.21067,-0.210675 -2.37291,0.469914 -4.80498,1.512419 C 180.39511,49.759561 178,53.013227 178,57.165782 c 0,1.876469 -3.0615,12.349561 -5.06714,17.334218 -0.44261,1.1 -1.79256,5.2509 -2.9999,9.224223 -1.54536,5.085743 -2.7707,7.406889 -4.13942,7.841306 -1.06935,0.339396 -2.22205,0.339289 -2.56158,-2.37e-4 -0.33953,-0.339526 0.4261,-4.093113 1.70138,-8.341306 4.249,-14.154102 5.47737,-19.146606 4.86225,-19.76173 -1.524,-1.523997 -6.83745,3.042364 -12.18931,10.475457 -6.58328,9.14337 -9.11747,11.177747 -10.09344,8.102732 -0.41717,-1.314384 0.54694,-3.693023 2.93285,-7.235898 C 152.40056,71.901729 154,69.18319 154,68.763348 c 0,-1.713928 -2.13764,-0.558795 -5.20618,2.813308 -6.88623,7.567451 -19.57207,15.030132 -31.55328,18.561794 -1.7927,0.528429 -3.98195,2.063453 -4.86501,3.411165 -2.21911,3.386796 -3.01913,3.080659 -3.74064,-1.431404 z M 127.845,78.421056 C 136.31171,73.767165 143,68.240684 143,65.89859 c 0,-2.847197 -3.95288,-3.273131 -9.02487,-0.972455 -2.46132,1.116467 -5.25697,2.039824 -6.21256,2.051903 -1.13851,0.01439 -2.94825,2.426338 -5.25,6.996998 -1.93191,3.83627 -3.51257,7.21127 -3.51257,7.5 0,1.244137 2.75796,0.291875 8.845,-3.05398 z m 70.61808,-13.522788 c 4.47486,-3.928979 4.7359,-6.388063 0.59008,-5.5589 -8.1239,1.624779 -12.09953,4.834861 -13.61449,10.992872 l -0.69677,2.83224 5.09214,-2.58038 c 2.80067,-1.419208 6.68374,-3.977833 8.62904,-5.685832 z M 238.75818,65.75 c 1.09476,-2.8875 3.86189,-10.147638 6.14917,-16.133639 2.28729,-5.986002 3.97477,-11.067578 3.74995,-11.292392 -0.22481,-0.224813 -3.27717,0.262307 -6.78302,1.082489 -3.50586,0.820183 -8.03465,1.754561 -10.064,2.076396 -2.42207,0.384118 -4.56933,1.630515 -6.25,3.627876 -4.07003,4.836961 -3.46596,5.88927 3.3807,5.88927 6.53696,0 8.13879,1.149392 5.56512,3.993257 -1.13944,1.259065 -3.7591,2.088831 -8.04308,2.547606 -7.0738,0.75754 -8.26643,1.674254 -10.85304,8.342201 l -1.70027,4.383063 7.82433,-0.682525 c 4.55215,-0.397089 8.85763,-0.270143 10.29514,0.30355 4.12065,1.644502 4.66351,1.310739 6.729,-4.137152 z M 137.16709,56.136222 C 141.97874,54.066515 150,46.815936 150,44.536295 c 0,-2.324258 -3.1218,-3.389606 -8.24159,-2.812532 -4.6142,0.520087 -4.79123,0.668164 -7.26886,6.080022 C 131.34085,54.681453 130.46832,58 131.80869,58 c 0.56402,0 2.97531,-0.8387 5.3584,-1.863778 z m 65.51747,-5.844788 c 4.40598,-3.360606 6.01253,-6.224638 4.16869,-7.431612 C 206.10896,42.372616 204.6,42.1987 203.5,42.473342 c -1.1,0.274642 -2.77835,0.505493 -3.72968,0.513003 C 197.97474,43.00052 194,49.600988 194,52.56857 c 0,2.255706 4.17794,1.160228 8.68456,-2.277136 z"
       id="path5329"
       inkscape:connector-curvature="0" />
    <path
       style="fill:#b5b093"
       d="m 108.66059,92.295873 c -0.39807,-2.453016 -0.14144,-4.226264 0.75979,-5.25 C 112.2922,83.783697 128,49.970757 128,47.050988 c 0,-1.629436 -2.94452,-1.244187 -6.38197,0.834991 -1.71491,1.037289 -4.13053,2.192613 -5.36803,2.567388 -3.75127,1.136067 -2.73057,-2.256556 1.25,-4.154758 1.925,-0.917968 3.5,-1.998986 3.5,-2.402262 0,-1.253679 6.55534,-4.857624 11.64363,-6.401341 2.671,-0.810346 8.33783,-1.478228 12.59295,-1.484182 L 152.97316,36 l 1.46239,3.5 c 0.80432,1.925 1.93536,3.5 2.51342,3.5 1.6628,0 1.21785,4.21419 -0.79312,7.511745 -1.01017,1.65646 -3.48041,4.13146 -5.48943,5.5 C 146.43097,58.89693 146.31471,59.314712 149,62 c 2.41235,2.412347 3.76737,2.477006 8.89699,0.424541 2.89935,-1.16009 5.94895,-4.070713 11.56687,-11.039743 4.19618,-5.205357 7.88157,-10.1214 8.18976,-10.924541 C 177.96182,39.657115 179.12208,39 180.23199,39 c 1.7089,0 1.9261,0.459526 1.41801,3 -0.33,1.65 -0.22446,3 0.23454,3 0.45899,0 3.66827,-1.4625 7.13173,-3.25 5.4804,-2.828451 7.2821,-3.25 13.89046,-3.25 l 7.59327,0 0.32695,3 c 0.17982,1.65 0.74232,3.4275 1.25,3.95 1.83593,1.889531 0.84989,4.36706 -2.82695,7.103004 -2.0625,1.53471 -3.975,2.978457 -4.25,3.208325 -0.275,0.229869 0.81264,1.466922 2.41697,2.749008 2.83833,2.268225 2.87191,2.399838 1.24538,4.882234 -3.17545,4.846349 -15.14328,12.716525 -21.37914,14.059152 -1.76923,0.380929 -4.85949,1.807367 -6.86724,3.169863 -4.02497,2.73142 -3.90443,2.736531 -4.80588,-0.203805 -0.42494,-1.386071 -0.002,-2.657853 1.26415,-3.803971 2.18958,-1.981544 14.71238,-29.360525 13.83187,-30.241038 -1.20601,-1.20601 -9.92217,3.007315 -10.96752,5.301619 C 179.1558,52.953476 178.29263,54 177.82043,54 c -0.47219,0 -0.58904,1.073756 -0.25965,2.386125 0.51282,2.043256 -1.79291,11.06798 -4.62792,18.113875 -0.44261,1.1 -1.79256,5.2509 -2.9999,9.224223 -1.54536,5.085743 -2.7707,7.406889 -4.13942,7.841306 -1.06935,0.339396 -2.1799,0.381446 -2.4679,0.09345 -0.288,-0.288 0.69052,-3.816588 2.17449,-7.841306 2.98202,-8.087614 6.48035,-18.901053 6.49223,-20.067668 0.004,-0.4125 -0.68971,-0.75 -1.54202,-0.75 -3.49376,0 -7.30674,3.247045 -12.84406,10.937713 C 151.33195,82.651986 148,85.507381 148,82.170042 c 0,-1.045178 0.81698,-2.973511 1.81551,-4.285183 3.20346,-4.208059 6.42889,-9.973788 5.8842,-10.518478 -0.86186,-0.861866 -4.86654,1.678439 -7.40865,4.699557 -5.51942,6.559462 -19.39955,14.638193 -31.05052,18.072512 -1.7927,0.528429 -3.98195,2.063453 -4.86501,3.411165 -2.19951,3.356889 -3.01119,3.082958 -3.71494,-1.253742 z M 131.12548,77.926715 C 138.78063,73.455865 145,67.994512 145,65.743214 c 0,-2.612489 -6.11803,-3.04381 -11.10172,-0.782671 -2.41905,1.097543 -5.18012,2.005416 -6.13571,2.017495 -1.13851,0.01439 -2.94825,2.426338 -5.25,6.996998 C 120.58066,77.811306 119,81.460089 119,82.083444 c 0,1.799463 4.6657,0.200016 12.12548,-4.156729 z m 61.69645,-7.588288 C 198.52839,67.091755 204,62.11542 204,60.172164 c 0,-1.082447 -0.9223,-1.310562 -3.75,-0.927502 -8.54242,1.157215 -13.22624,4.642309 -14.79069,11.005338 -0.88939,3.617408 1.1176,3.641513 7.36262,0.08843 z M 138.3711,56.955585 C 143.60818,54.493868 152,46.366868 152,43.756772 c 0,-1.031143 -0.4407,-1.602438 -0.97933,-1.269545 -0.53864,0.332894 -1.81029,0.160549 -2.8259,-0.382989 -1.04089,-0.557066 -3.9138,-0.686321 -6.58455,-0.296244 -4.68906,0.68486 -4.76802,0.759129 -7.6461,7.192006 -4.65283,10.399655 -3.85532,11.839327 4.40698,7.955585 z m 35.0492,-0.145253 c 0.84353,-1.204317 1.32181,-2.401558 1.06283,-2.660536 C 173.88578,53.552443 170,57.023963 170,58.154988 c 0,1.588525 1.88483,0.847521 3.4203,-1.344656 z m 26.72358,-3.407821 C 203.99442,51.44494 209,46.136231 209,44.010076 c 0,-1.460312 -0.66513,-1.780698 -3.25,-1.565482 -1.7875,0.148828 -4.25335,0.334679 -5.47968,0.413001 -2.31634,0.14794 -5.31725,4.861261 -6.6675,10.472196 -0.62547,2.599137 -0.4944,2.772206 1.6081,2.123314 1.25899,-0.388561 3.47883,-1.311329 4.93296,-2.050594 z m 6.84894,23.580161 c -0.95068,-2.295158 -0.99712,-3.645255 -0.18171,-5.282872 4.14446,-8.323435 13.20244,-28.210818 14.13236,-31.028516 1.03763,-3.144048 1.5764,-3.496474 6.84143,-4.475197 9.38951,-1.745428 24.25239,-3.291073 25.31742,-2.63285 2.55115,1.576699 -3.74883,23.115223 -10.14185,34.673194 -1.54009,2.784328 -1.21771,2.983977 3.78953,2.346832 2.6125,-0.332427 8.6875,-0.835325 13.5,-1.11755 7.35051,-0.431066 8.75,-0.27248 8.75,0.991522 0,1.599945 -0.77448,1.843921 -11.08191,3.491004 -9.22118,1.473503 -18.02986,1.282073 -20.30623,-0.441296 -1.43142,-1.083679 -2.37733,-1.167644 -3.91049,-0.34712 -1.1123,0.595281 -6.53912,1.713635 -12.05961,2.485229 -5.74561,0.803059 -10.75016,2.048062 -11.70458,2.911796 -1.51241,1.368718 -1.78595,1.222475 -2.94436,-1.574176 z m 33.9703,-13.300273 c 1.21922,-3.785549 3.9354,-11.000223 6.03595,-16.032608 2.10056,-5.032385 3.39111,-9.306115 2.8679,-9.497178 -0.52321,-0.191063 -3.96982,0.34575 -7.65913,1.192917 -3.68931,0.847167 -8.32337,1.797881 -10.29791,2.112697 -3.93874,0.627984 -7.19923,3.51758 -8.83213,7.82745 -1.3524,3.569511 0.0767,4.20659 7.48343,3.336072 C 233.55255,52.270178 236,52.366715 236,52.836277 c 0,2.077377 -3.9647,4.03531 -9.5,4.691488 -5.59348,0.663075 -9.5,2.585713 -9.5,4.675529 0,0.491325 -0.85497,2.662898 -1.89993,4.825719 l -1.89993,3.9324 12.77311,-0.198099 12.77312,-0.198099 2.21675,-6.882816 z"
       id="path5327"
       inkscape:connector-curvature="0" />
    <path
       style="fill:#e8cc3a"
       d="m 110,92.757647 c 0,-0.875039 -0.5625,-1.795624 -1.25,-2.045744 -0.99795,-0.363067 -0.99901,-0.833551 -0.005,-2.333333 C 112.99293,81.967276 128,49.840949 128,47.157977 c 0,-2.004045 -3.37008,-2.092372 -6.48078,-0.169856 -1.79041,1.106533 -4.10217,1.996908 -5.13725,1.97861 -1.64026,-0.029 -1.56089,-0.284469 0.61803,-1.989147 1.375,-1.075733 3.175,-2.569579 4,-3.319657 5.40747,-4.916394 13.78796,-7.638017 23.5,-7.63179 3.85,0.0025 7.45,0.335098 8,0.739176 0.55,0.404078 1.8433,2.394223 2.874,4.422545 2.51778,4.954738 1.60047,7.959136 -4.0318,13.204987 -4.03365,3.756914 -4.45404,4.529663 -3.46726,6.373486 1.64327,3.070468 4.74821,3.649305 9.61182,1.791876 3.38035,-1.290966 5.91601,-3.654627 11.94872,-11.138208 4.21179,-5.224717 7.90995,-10.156601 8.21814,-10.959742 C 177.96182,39.657115 178.89708,39 179.73199,39 c 1.14893,0 1.37401,0.719979 0.92576,2.961227 -0.81791,4.089584 0.61514,4.547231 5.05722,1.615033 C 191.04101,40.060573 197.44451,38 203.04394,38 209.53555,38 211,38.71915 211,41.906989 c 0,1.481156 0.49799,3.191002 1.10665,3.799657 0.80886,0.808861 -0.0406,2.351211 -3.15665,5.731775 l -4.2633,4.625129 2.66074,2.777214 2.66074,2.777214 -2.75409,2.514372 c -7.93048,7.240205 -14.63761,11.28617 -20.54734,12.394842 -2.04828,0.38426 -4.85912,1.591418 -6.2463,2.682575 -2.05586,1.617145 -2.79991,1.753395 -4.02461,0.736987 -1.32169,-1.096909 -1.26164,-1.503283 0.49915,-3.377553 C 178.71945,74.669726 191,48.815334 191,46.957954 c 0,-1.613983 -3.12901,-1.801998 -6.50614,-0.390941 -3.93927,1.645931 -7.7722,6.98065 -6.92756,9.641864 0.29947,0.943568 0.072,2.59849 -0.50555,3.677605 -0.57752,1.079116 -2.64753,7.232287 -4.60001,13.673715 C 168.38697,86.999925 166.55517,91 164.47432,91 c -1.82846,0 -1.94034,0.743522 1.12925,-7.504332 2.84831,-7.653302 6.3767,-18.558384 6.38879,-19.745668 0.004,-0.4125 -1.48317,-0.75 -3.30527,-0.75 -3.83052,0 -5.78864,1.830795 -13.6367,12.75 -4.97734,6.925106 -7.08375,8.724909 -7.02212,6 0.0156,-0.6875 1.81555,-3.94034 4,-7.228534 2.18445,-3.288194 3.97173,-6.325694 3.97173,-6.75 0,-2.29864 -4.72585,-0.168943 -8.82847,3.978534 -8.07648,8.164786 -17.07625,13.428365 -29.58166,17.301031 -1.60057,0.495663 -3.96307,1.890394 -5.25,3.099401 C 110.45496,93.921218 110,94.039283 110,92.757647 Z M 127.60923,79.89021 c 8.12651,-4.290059 16.10513,-10.414868 16.92268,-12.990748 1.34284,-4.230918 -4.36724,-5.067659 -13.53191,-1.982931 -5.24834,1.766532 -5.67404,2.177262 -9.30348,8.976314 -5.3406,10.00457 -4.08688,11.27624 5.91271,5.997365 z m 65.2127,-9.551783 C 198.23394,67.25928 204,62.143232 204,60.420465 c 0,-2.108444 -4.36538,-2.447852 -9.79667,-0.761691 -4.41852,1.371742 -5.70342,2.338425 -7.75,5.830654 -4.60884,7.864387 -2.18074,9.71312 6.3686,4.848999 z M 138.3711,56.955585 C 143.39827,54.592539 152,46.404687 152,43.982456 c 0,-1.84621 -0.11789,-1.882217 -8.56172,-2.615034 -7.04803,-0.611678 -7.09588,-0.574348 -10.89589,8.499783 -3.90771,9.331314 -2.52367,11.014463 5.82871,7.08838 z m 35.41529,-0.760391 C 174.63335,54.919608 174.80385,54 174.1934,54 172.85296,54 170,56.826675 170,58.154762 c 0,1.58724 2.18077,0.458629 3.78639,-1.959568 z m 26.35749,-2.792683 C 203.9661,51.459339 209,46.142192 209,44.048077 c 0,-2.17784 -4.42279,-3.295503 -8.61847,-2.177932 -3.3536,0.893274 -7.33963,7.088594 -7.36508,11.447243 -0.0144,2.463264 0.26636,2.730148 2.23355,2.123314 1.2375,-0.38174 3.43975,-1.298926 4.89388,-2.038191 z M 207.2,76.8 c -1.45368,-1.453681 -1.52667,-3.244269 -0.2268,-5.563569 2.18437,-3.897459 12.92336,-27.392985 13.97027,-30.565147 1.0377,-3.144272 1.57602,-3.496321 6.84143,-4.474138 8.93493,-1.65927 23.39857,-3.201792 24.3733,-2.599371 C 254.26513,34.899929 249.6114,53.552022 245.94504,58.5 245.3022,59.367554 242,69.64264 242,70.775339 c 0,0.226785 2.1375,0.140996 4.75,-0.190643 11.43044,-1.451018 21.42552,-1.611448 21.00419,-0.337136 -0.22775,0.688842 -2.62812,1.59904 -5.33414,2.022662 -14.32259,2.24217 -28.73961,1.649524 -24.81851,-1.020222 0.60584,-0.4125 2.13975,-3.9 3.40868,-7.75 1.26892,-3.85 3.99304,-11.05 6.0536,-16 2.8877,-6.937031 3.44911,-9.169456 2.44927,-9.739278 -0.71345,-0.406603 -5.73327,0.168158 -11.15514,1.277247 -8.76455,1.79286 -10.22536,2.407646 -13.17048,5.542828 -2.11746,2.254103 -3.19978,4.318728 -3,5.722754 0.28552,2.006654 0.85259,2.188091 6.56253,2.099728 4.46016,-0.06902 6.25,0.269647 6.25,1.182613 0,1.492336 -1.64878,2.062853 -8.5,2.941207 -8.89502,1.140377 -9.70529,1.903649 -12.60322,11.87232 l -0.84287,2.899418 9.94108,-0.605637 c 9.04506,-0.551049 12.73625,0.1188 9.99397,1.813625 -0.57402,0.354762 -5.62319,1.287686 -11.22038,2.073165 -5.59719,0.785479 -10.62488,1.876314 -11.17265,2.424077 C 209.3016,78.298404 208.65984,78.259839 207.2,76.8 Z"
       id="path5325"
       inkscape:connector-curvature="0" />
    <path
       style="fill:#c8b552"
       d="M 110,92.674314 C 110,91.753441 109.55,91 109,91 c -2.44004,0 -0.65728,-3.134195 2.7803,-4.887918 3.09321,-1.578039 3.82598,-2.52798 4.03159,-5.226494 0.13822,-1.813861 0.83594,-3.992652 1.55051,-4.841758 0.71456,-0.849107 2.50037,-3.649008 3.96846,-6.222004 2.218,-3.887295 3.5568,-5.009987 7.9192,-6.640903 7.11097,-2.658491 14.104,-3.20178 14.51389,-1.127585 0.23955,1.212268 -0.42226,1.468207 -3.0141,1.165624 -1.82657,-0.213242 -6.00503,0.497368 -9.28545,1.579135 -5.81125,1.916344 -6.06207,2.149843 -9.76788,9.093336 C 116.35791,83.894265 117.7031,85.19786 128,80 c 3.26863,-1.65 6.66222,-3 7.54131,-3 2.4846,0 10.16963,-5.702075 12.10833,-8.984042 1.93713,-3.279297 3.60188,-4.240406 5.85036,-3.377584 C 155.4723,65.395217 155.42818,67 153.43508,67 c -0.86071,0 -3.67931,2.1375 -6.26355,4.75 -8.07648,8.164786 -17.07625,13.428365 -29.58166,17.301031 -1.60057,0.495663 -3.96307,1.890394 -5.25,3.099401 C 110.36031,94.010132 110,94.090804 110,92.674314 Z M 163.49716,89.25 c 0.39113,-0.9625 1.06141,-2.912698 1.48951,-4.333773 0.4281,-1.421076 1.8744,-4.346076 3.214,-6.5 1.33959,-2.153925 3.45998,-7.558473 4.71197,-12.010108 1.25199,-4.451634 2.65936,-8.713602 3.12748,-9.471039 1.48335,-2.400105 2.33925,-0.06307 1.02937,2.810694 -0.69046,1.514824 -2.80864,7.8779 -4.70706,14.140168 -1.89842,6.262268 -4.11814,12.674768 -4.93273,14.25 -1.62655,3.145405 -5.1654,4.147933 -3.93254,1.114058 z M 148,82.493863 c 0,-0.278375 3.19133,-4.965901 7.09185,-10.416725 7.00527,-9.789591 10.98298,-13.029874 14.39019,-11.722404 C 172.00673,61.323549 171.18605,63 168.18709,63 c -3.26344,0 -5.60898,2.276494 -13.1367,12.75 C 150.58238,81.966465 148,84.436569 148,82.493863 Z m 28.07177,-2.90739 c -0.94433,-1.13784 -0.57814,-1.764996 1.87755,-3.215608 1.74406,-1.030238 3.07914,-2.673422 3.11713,-3.836473 0.13583,-4.158331 5.41753,-11.964609 9.44729,-13.962963 4.68993,-2.325736 11.5672,-2.696786 12.2714,-0.662079 0.35126,1.014954 -0.0201,1.214478 -1.32693,0.712989 -0.99807,-0.382998 -4.23048,0.0635 -7.18312,0.992221 -4.4838,1.410329 -5.77271,2.378416 -7.82176,5.874868 C 185.104,67.791886 184,70.423679 184,71.337858 c 0,2.294462 3.71863,2.131066 7.77417,-0.341596 C 193.57496,69.898318 195.73389,69 196.57179,69 c 0.8379,0 3.73163,-2.208179 6.43051,-4.907065 3.71548,-3.715472 5.15646,-4.606562 5.9341,-3.669571 0.74296,0.895219 0.27147,1.927005 -1.70469,3.730426 -8.02453,7.323108 -14.0996,10.887163 -21.86522,12.827667 -2.27343,0.568093 -4.69103,1.704667 -5.37245,2.52572 -1.54503,1.861646 -2.42824,1.879502 -3.92227,0.0793 z m 31.13504,-2.779659 c -1.87371,-1.873714 4.14964,-4.028187 12.23754,-4.377208 3.81939,-0.164819 7.95153,-0.838701 9.18254,-1.497515 1.231,-0.658813 3.01879,-0.898296 3.97287,-0.532184 3.35906,1.288994 -0.24472,2.694438 -10.65503,4.155363 -5.69408,0.799075 -10.80103,1.901034 -11.3488,2.448797 -1.29312,1.29312 -1.93617,1.255693 -3.38912,-0.197253 z M 238.25,73.394612 C 237.5625,73.085909 237,72.394276 237,71.85765 c 0,-0.536626 0.35979,-0.753324 0.79952,-0.481551 0.93028,0.57494 23.32914,-1.06014 27.58099,-2.013366 2.20244,-0.493768 2.77212,-0.318223 2.42004,0.745742 -0.25729,0.777557 -2.63128,1.731362 -5.3805,2.161747 -6.82195,1.06796 -22.65534,1.804529 -24.17005,1.12439 z M 212,68.528513 c 0,-0.809317 1.09288,-3.942682 2.42862,-6.963033 2.60303,-5.885905 2.14792,-5.619403 13.57138,-7.947048 4.05321,-0.825882 6.63999,-0.959809 6.87188,-0.355782 0.61683,1.606657 -1.96875,2.588536 -8.72036,3.311572 -7.4848,0.801554 -9.27374,2.200575 -11.21321,8.769157 C 213.61414,69.828045 212,71.577781 212,68.528513 Z m 28.62882,0.679916 c -0.28016,-0.453308 1.0628,-4.623148 2.98435,-9.266312 C 248.04758,49.227012 251,41.036746 251,39.450438 c 0,-2.30715 -2.97176,-2.389792 -12.74683,-0.354477 -10.30952,2.146597 -14.68613,4.79661 -15.89832,9.626328 C 221.72479,51.232664 220,51.844157 220,49.55716 220,44.157405 228.92551,37 235.65917,37 c 1.66525,0 5.67263,-0.90998 8.90529,-2.022178 3.23266,-1.112198 6.46624,-1.796281 7.18574,-1.520184 2.78759,1.069698 0.33319,11.688503 -5.8274,25.211821 -1.08504,2.381826 -2.24468,5.689945 -2.57697,7.351376 -0.63225,3.161241 -1.8502,4.590135 -2.71701,3.187594 z M 128.39263,55.786869 c 0.35344,-1.767222 2.09719,-6.154722 3.875,-9.75 3.1377,-6.345408 3.36417,-6.555251 7.73237,-7.164479 4.73079,-0.659798 11,1.113684 11,3.111767 0,0.78155 -0.56936,0.781496 -2.02996,-1.94e-4 -1.11649,-0.597522 -4.37899,-0.950855 -7.25,-0.785183 L 136.5,41.5 l -2.88405,6 c -1.58622,3.3 -2.93622,7.236474 -3,8.74772 -0.0678,1.607262 -0.68665,2.748666 -1.49095,2.75 -1.01491,0.0017 -1.20671,-0.839177 -0.73237,-3.210851 z M 146,57.46229 c 0,-0.973739 1.82,-3.32829 4.04445,-5.232337 2.22445,-1.904046 4.66275,-4.872214 5.41843,-6.595928 1.30632,-2.979713 1.37624,-3.010931 1.42011,-0.634025 0.0619,3.356922 -1.56005,5.909503 -6.63299,10.43846 -3.30422,2.949904 -4.25,3.400279 -4.25,2.02383 z M 168.03327,56.25 c 0.0384,-2.022035 3.2977,-6.25 4.81801,-6.25 2.38742,0 2.15567,2.330151 -0.50114,5.038753 -3.29719,3.361456 -4.36344,3.660628 -4.31687,1.211247 z M 190,54.0449 c 0,-0.525305 1.40684,-3.900305 3.12632,-7.5 L 196.25264,40 l 4.67368,0 c 2.57052,0 5.13843,-0.464752 5.70646,-1.032783 C 207.76507,37.834932 211,38.679196 211,40.106989 c 0,0.969069 -0.25075,1.017756 -7.13504,1.385373 -2.54928,0.136129 -5.14321,0.561569 -5.76429,0.945422 C 196.45471,43.455042 193,50.581906 193,52.960162 193,54.106685 192.3431,55 191.5,55 190.675,55 190,54.570205 190,54.0449 Z m 14,0.158048 c 0,-1.272291 7.90083,-8.635453 8.55938,-7.976899 0.32785,0.327852 -1.06625,2.436112 -3.098,4.685023 C 205.95751,54.789436 204,55.969335 204,54.202948 Z M 177.41408,51 c 0.31821,-1.925 0.86595,-5.198471 1.21718,-7.27438 0.35124,-2.075909 1.09814,-4.05838 1.65978,-4.405491 0.65779,-0.406538 0.79935,0.477935 0.39781,2.485607 -0.81527,4.076359 0.44033,4.695607 4.50103,2.219864 C 189.42007,41.446525 191,41.468657 191,44.10699 c 0,1.446484 -0.46254,1.929494 -1.4755,1.540788 -2.47788,-0.950855 -8.46709,2.218146 -10.6374,5.628448 L 176.8355,54.5 177.41408,51 Z M 115.51175,47.980984 C 116.24166,46.799966 125.43473,42 126.96676,42 127.53504,42 128,42.930324 128,44.067388 c 0,1.513194 -0.46911,1.918969 -1.75,1.513722 -0.9625,-0.304516 -3.1,0.337195 -4.75,1.426023 -3.15134,2.07956 -7.06497,2.716021 -5.98825,0.973851 z M 149,37.5 c 0,-1.613965 0.91589,-1.853242 3.41821,-0.893011 C 154.8527,37.54119 154.29295,39 151.5,39 149.94444,39 149,38.433333 149,37.5 Z"
       id="path5323"
       inkscape:connector-curvature="0" />
    <path
       style="fill:#cdb639"
       d="m 110.35712,92.623252 c 0.37256,-1.032212 0.17418,-2.483076 -0.44085,-3.224143 -0.8753,-1.054665 -0.38258,-1.781444 2.26791,-3.345269 2.51265,-1.482502 3.44519,-2.772871 3.61506,-5.002199 0.21827,-2.864497 3.2817,-8.541212 6.63857,-12.301641 C 123.29701,67.7875 124,66.775 124,66.5 c 0,-0.275 0.225,-0.5 0.5,-0.5 0.82245,0 0.38265,1.200108 -2.81942,7.693566 -1.6798,3.406462 -3.34338,6.014833 -3.69685,5.79638 -0.35346,-0.218452 -0.5715,0.568744 -0.48452,1.749325 0.24179,3.281959 1.73113,3.173465 9.39128,-0.684121 C 130.77326,78.599818 134.66773,77 135.54486,77 c 2.13254,0 10.16724,-5.593531 11.4336,-7.959748 0.55464,-1.036364 1.71853,-2.594388 2.58642,-3.462275 1.68801,-1.688014 3.92861,-2.18548 2.98791,-0.663387 -0.31089,0.503024 5e-5,1.142498 0.69098,1.421052 0.96996,0.391052 0.95659,0.524454 -0.0587,0.585411 -0.72321,0.04342 -3.42931,2.216447 -6.01355,4.828947 -8.07648,8.164786 -17.07625,13.428365 -29.58166,17.301031 -1.60057,0.495663 -4.03513,1.924453 -5.41013,3.175087 -2.15945,1.964136 -2.40773,2.018233 -1.82262,0.397134 z M 163.8,89.8 c 0.66,-0.66 1.2044,-1.8975 1.20977,-2.75 0.0163,-2.587232 4.89652,-12.225949 5.88184,-11.616987 0.50635,0.312938 0.68672,1.463469 0.40082,2.556736 -0.2859,1.093266 -0.9135,1.744446 -1.39467,1.447066 -0.48117,-0.29738 -0.61944,0.124891 -0.30728,0.93838 C 170.48344,82.702215 166.39559,91 164.35623,91 162.99027,91 162.86667,90.733333 163.8,89.8 Z M 149.04704,82 c -0.01,-2.195078 12.39756,-19.124558 15.12525,-20.637791 2.74952,-1.525344 5.486,-1.724126 6.27007,-0.455468 0.30822,0.498708 -0.45272,0.684672 -1.69098,0.413254 -1.69873,-0.372351 -1.90475,-0.24901 -0.83927,0.502464 1.12336,0.7923 0.9298,1.065638 -0.94658,1.336747 -1.40156,0.202504 -4.17971,2.57263 -6.84632,5.840794 -2.46819,3.025 -4.83854,5.392898 -5.26743,5.261996 -0.42889,-0.130902 -0.58121,0.319098 -0.33849,1 0.24272,0.680902 -0.88637,2.813004 -2.50909,4.738004 -1.74241,2.066983 -2.95317,2.88585 -2.95716,2 z m 27.45814,-1.991618 c -0.33707,-0.54539 0.53637,-2.140844 1.94098,-3.545454 1.40461,-1.404611 2.55681,-3.320883 2.56043,-4.258383 0.008,-2.109193 3.59489,-7.710743 4.19373,-6.549515 0.64393,1.248644 -1.70022,7.511735 -2.50884,6.703119 C 182.31117,71.977834 182,72.165109 182,72.774316 c 0,2.429346 2.28978,2.218951 7.69146,-0.706723 C 192.8065,70.380417 195.94235,69 196.66002,69 c 0.71767,0 3.32668,-1.9125 5.79778,-4.25 4.97322,-4.704326 6.5422,-5.487262 6.5422,-3.264623 0,1.666473 -9.60985,9.643953 -15.04651,12.490654 -1.95059,1.021347 -5.217,2.170379 -7.2587,2.553405 -2.04171,0.383025 -4.79175,1.545595 -6.11122,2.583487 -2.74754,2.161218 -3.23056,2.267271 -4.07839,0.895459 z M 208,76.52568 c 0,-0.810876 1.42306,-2.210215 3.16236,-3.109642 2.72714,-1.410255 3.72494,-1.458159 7.25,-0.348062 l 4.08764,1.287259 -5.47401,0.846396 c -3.01071,0.465518 -5.91321,1.28559 -6.45,1.822382 C 209.15661,78.44339 208,78.21964 208,76.52568 Z m -36.41705,-3.391465 c -0.43077,-0.697003 -0.51316,-1.537338 -0.18309,-1.867413 0.89497,-0.894961 1.87077,0.421303 1.38739,1.871444 -0.33872,1.016175 -0.57427,1.015386 -1.2043,-0.004 z M 224.5,72.995389 l -4,-0.711578 3.69098,-0.141906 c 2.03004,-0.07805 3.94299,-0.549659 4.251,-1.048025 C 229.11883,69.998718 233,70.869595 233,72.116631 233,72.602484 232.5868,73 232.08179,73 c -0.50502,0 -1.51752,0.159068 -2.25,0.353484 C 229.0993,73.547899 226.7,73.386757 224.5,72.995389 Z M 239,73.125 c 0,-2.064584 18.29115,-3.080954 19.52477,-1.084918 0.42091,0.681051 -0.30059,0.803304 -2.09013,0.354157 -1.93289,-0.485124 -2.52563,-0.350485 -2.02478,0.459918 C 254.91969,73.679075 252.86089,74 247.05902,74 242.62656,74 239,73.60625 239,73.125 Z m 24.13685,-2.019262 c -1.15087,-0.729143 -1.15087,-0.935006 0,-1.321931 1.94255,-0.65309 4.94381,0.276664 4.29289,1.329883 -0.68983,1.116167 -2.52396,1.112769 -4.29289,-0.008 z M 212.03063,68.5 c 0,-2.767085 1.51614,-5.042358 2.40339,-3.606763 C 214.81023,65.501957 214.61492,66 214,66 c -0.61492,0 -0.89617,0.358986 -0.625,0.797746 0.27117,0.43876 0.0796,1.45126 -0.42567,2.25 -0.73612,1.163635 -0.9187,1.054777 -0.9187,-0.547746 z m 29.63604,-1.166667 C 241.3,66.966667 241,66.201667 241,65.633333 c 0,-0.626604 0.46577,-0.567562 1.18333,0.15 0.65084,0.650834 0.95084,1.415834 0.66667,1.7 -0.28417,0.284167 -0.81667,0.216667 -1.18333,-0.15 z m -68,-1 C 173.3,65.966667 173,65.201667 173,64.633333 c 0,-0.626604 0.46577,-0.567562 1.18333,0.15 0.65084,0.650834 0.95084,1.415834 0.66667,1.7 -0.28417,0.284167 -0.81667,0.216667 -1.18333,-0.15 z m -47.11541,-1.25039 c -0.66892,-1.082344 8.88844,-4.459142 10.7032,-3.781644 0.68505,0.255746 -0.77946,1.407694 -3.25446,2.559885 -4.98563,2.320968 -6.60521,2.586615 -7.44874,1.221759 z m 58.99387,-1.009924 c -1.15906,-1.875389 2.22503,-4.835946 7.54913,-6.604326 5.08393,-1.688612 9.18918,-1.673831 8.69535,0.03131 -0.15929,0.55 -0.70554,0.861356 -1.2139,0.691903 -1.88783,-0.629275 -11.13138,3.028465 -12.68262,5.018605 -1.14694,1.471448 -1.81903,1.718337 -2.34796,0.862511 z m 56.83684,-0.264002 c -0.40484,-0.655041 -0.2036,-1.368475 0.44721,-1.58541 0.6508,-0.216935 0.88595,-0.875522 0.52254,-1.463526 -0.36966,-0.598128 -0.1935,-0.780329 0.39989,-0.413594 0.58335,0.360528 0.82539,1.555057 0.53788,2.654509 -0.60586,2.316801 -0.89845,2.440741 -1.90752,0.808021 z m -27.86382,-0.779649 c -1.1268,-1.823199 2.43042,-6.980737 5.25004,-7.611932 1.50249,-0.336346 4.30681,-1.015355 6.23181,-1.50891 1.925,-0.493555 4.625,-0.892991 6,-0.887636 1.9804,0.0077 2.18824,0.211212 1,0.97911 -0.825,0.533156 -1.05,1.028015 -0.5,1.099686 0.55,0.07167 -0.8,0.501819 -3,0.955883 -2.2,0.454065 -5.52755,0.56503 -7.39456,0.246591 -2.27387,-0.387834 -3.17697,-0.226912 -2.73548,0.487433 0.3625,0.586528 -0.25399,1.356211 -1.36996,1.710407 -1.11597,0.354196 -1.77095,1.061594 -1.4555,1.571996 C 216.85994,60.582398 216.6556,61 216.0904,61 c -0.5652,0 -0.76861,0.675 -0.45203,1.5 0.63885,1.664796 -0.17949,2.051504 -1.12022,0.529368 z m -74.00244,-1.003944 c -0.80811,-1.307556 1.49346,-2.416259 2.63864,-1.271074 0.64011,0.640113 0.44756,1.184435 -0.55511,1.569193 -0.84435,0.32401 -1.78194,0.189857 -2.08353,-0.298119 z m 35.05517,-1.910741 c -0.37352,-0.604364 -0.27182,-1.826664 0.22601,-2.716222 0.76262,-1.36273 0.99274,-1.38906 1.4616,-0.167236 0.72998,1.90231 -0.74084,4.415365 -1.68761,2.883458 z M 128.15789,57 c 0,-1.375 0.22698,-1.9375 0.50439,-1.25 0.27741,0.6875 0.27741,1.8125 0,2.5 -0.27741,0.6875 -0.50439,0.125 -0.50439,-1.25 z m 17.8749,0.257714 c 0.04,-2.145004 8.59273,-9.672648 9.43726,-8.306175 0.60918,0.98567 -0.51644,2.292559 -6.2928,7.306175 -2.63855,2.290145 -3.17169,2.459695 -3.14446,1 z m 98.00913,1.075619 c 0.1093,-2.173202 3.71962,-7.528191 4.36808,-6.478955 C 248.79942,52.48447 248.61492,53 248,53 c -0.61492,0 -0.83992,0.45 -0.5,1 0.33992,0.55 0.19148,1 -0.32987,1 -0.52135,0 -0.88541,0.739067 -0.80902,1.642371 0.0764,0.903304 -0.42361,1.840804 -1.11111,2.083334 -0.6875,0.242529 -1.23114,0.06596 -1.20808,-0.392372 z m -76.00865,-1.935019 c 0.0479,-2.730774 3.66549,-6.727888 5.46439,-6.037587 0.82628,0.317077 1.50234,1.115627 1.50234,1.774555 0,0.658928 -0.25965,0.938403 -0.577,0.621055 -0.31734,-0.317348 -1.89234,0.799394 -3.5,2.481648 -2.44843,2.562047 -2.9176,2.750436 -2.88973,1.160329 z m -38.6513,-2.589297 c -0.40484,-0.655041 -0.2036,-1.368475 0.44721,-1.58541 0.6508,-0.216935 0.88595,-0.875522 0.52254,-1.463526 -0.36966,-0.598128 -0.1935,-0.780329 0.39989,-0.413594 0.58335,0.360528 0.82539,1.555057 0.53788,2.654509 -0.60586,2.316801 -0.89845,2.440741 -1.90752,0.808021 z M 190.15792,54 c -0.11396,-2.307257 3.45226,-8.43976 4.20226,-7.226241 0.36201,0.585751 -0.0196,1.742845 -0.84812,2.57132 -0.83682,0.836819 -1.24343,2.317149 -0.91486,3.33062 0.45655,1.408174 0.36495,1.506065 -0.40159,0.429154 -0.81227,-1.141154 -1.0814,-1.050127 -1.47833,0.5 -0.29141,1.138019 -0.51488,1.295884 -0.55936,0.395147 z m 13.92103,0.446167 c -0.11274,-1.504858 6.75232,-7.948235 7.58317,-7.117383 0.85779,0.857788 -4.67782,6.779547 -5.72973,6.129428 -0.41887,-0.25887 -0.98948,0.09463 -1.26803,0.785557 -0.27856,0.690927 -0.54199,0.782006 -0.58541,0.202398 z M 177.07029,50.75 c 0.10898,-1.938221 1.78026,-5.42342 1.85942,-3.877555 0.0566,1.106094 0.36139,1.130849 1.57029,0.127555 0.83674,-0.694433 1.5,-0.802716 1.5,-0.244889 0,1.453177 -2.56034,3.351218 -3.39486,2.516694 -0.39097,-0.390964 -0.41392,0.06294 -0.051,1.008676 C 178.93321,51.268332 178.74295,52 178.10699,52 c -0.60885,0 -1.07536,-0.5625 -1.0367,-1.25 z M 220,49.75716 c 0,-6.141376 9.84011,-13.531624 16.56442,-12.44042 C 238.45399,37.623375 240,37.52378 240,37.095417 240,36.082981 246.97554,34 250.36602,34 252.04067,34 253,34.54632 253,35.5 c 0,0.906112 -0.92674,1.5 -2.3407,1.5 -1.28739,0 -6.7102,0.91246 -12.0507,2.027688 -5.34049,1.115229 -10.2067,1.7207 -10.8138,1.345492 -0.63203,-0.390619 -0.82293,-0.227707 -0.44663,0.381161 0.36146,0.584846 -0.58151,2.140121 -2.09549,3.456165 -1.51397,1.316045 -2.89732,3.044562 -3.07411,3.841151 C 221.67131,50.33734 220,51.645734 220,49.75716 Z M 131.58413,49.13613 C 130.7948,47.858958 133.6204,42 135.02568,42 c 0.53588,0 0.86182,-0.542756 0.72432,-1.206125 -0.27617,-1.332367 7.49103,-2.805111 10.56059,-2.002402 2.93443,0.76737 -0.097,2.169496 -4.81059,2.225018 -3.9483,0.04651 -8.08281,2.067364 -6.81779,3.332386 0.35812,0.358118 0.078,0.651123 -0.62253,0.651123 -0.70051,0 -1.04215,0.603308 -0.75919,1.340684 0.69109,1.800937 -0.81499,4.253892 -1.71636,2.795446 z M 248,49 c 0,-0.55 0.43588,-1 0.96862,-1 0.53273,0 0.71528,-0.7875 0.40566,-1.75 -0.44578,-1.385768 -0.35443,-1.456676 0.43887,-0.340684 C 250.90298,47.442462 250.32771,50 248.89301,50 248.40186,50 248,49.55 248,49 Z M 115.5,48 c 0.33992,-0.55 1.02149,-1 1.51461,-1 0.49311,0 2.55435,-1.125 4.58053,-2.5 2.02617,-1.375 4.29616,-2.5 5.04441,-2.5 2.7552,0 1.22599,1.785817 -3.73184,4.358028 C 117.70582,49.056866 114.39299,49.791178 115.5,48 Z m 39.95888,-1.066531 c -0.36253,-0.586592 -0.44468,-1.281 -0.18255,-1.543128 0.26212,-0.262129 0.74306,0.21781 1.06875,1.066531 0.67618,1.762107 0.0999,2.072058 -0.8862,0.476597 z M 185.5945,44.5 C 188.34426,41.951612 191,41.208063 191,42.98658 191,43.792803 184.86785,47 183.32635,47 c -0.23616,0 0.7845,-1.125 2.26815,-2.5 z m 8.97603,0.614121 c -0.76681,-1.24073 1.49245,-5.143233 2.92002,-5.043836 0.5552,0.03866 1.90945,0.457029 3.00945,0.929715 1.92744,0.828248 1.92042,0.861979 -0.1933,0.929715 -1.20631,0.03866 -2.84683,1.003335 -3.64559,2.143729 -0.8626,1.231534 -1.71147,1.654095 -2.09058,1.040677 z m 56.09614,-0.780788 C 250.3,43.966667 250,43.201667 250,42.633333 c 0,-0.626604 0.46577,-0.567562 1.18333,0.15 0.65084,0.650834 0.95084,1.415834 0.66667,1.7 -0.28417,0.284167 -0.81667,0.216667 -1.18333,-0.15 z M 205.5,40 c 0.33992,-0.55 1.23992,-1 2,-1 0.76008,0 1.66008,0.45 2,1 0.35191,0.569401 -0.50929,1 -2,1 -1.49071,0 -2.35191,-0.430599 -2,-1 z M 149,38.106989 c 0,-0.491156 0.675,-1.152033 1.5,-1.468615 0.91371,-0.350624 1.5,-0.0016 1.5,0.893011 C 152,38.339123 151.325,39 150.5,39 149.675,39 149,38.598145 149,38.106989 Z"
       id="path5321"
       inkscape:connector-curvature="0" />
    <path
       style="fill:#afa25c"
       d="m 110,93.251039 c 0,-2.787499 5.15503,-7.100213 9.26741,-7.753133 7.38449,-1.172435 20.56112,-8.196006 26.47959,-14.114475 2.96089,-2.960887 6.14159,-5.347905 7.06822,-5.304484 1.34341,0.06295 1.38768,0.195756 0.21845,0.655444 -0.80648,0.317073 -3.51258,2.644047 -6.01355,5.171053 -7.92769,8.010223 -17.00217,13.296867 -29.43025,17.145587 -1.60057,0.495663 -3.96307,1.890394 -5.25,3.099401 C 111.05294,93.35944 110,93.854713 110,93.251039 Z m 54.34501,-4.07978 C 165.25526,88.165452 166,86.77393 166,86.078989 c 0,-0.694942 0.9,-2.407695 2,-3.806118 1.1,-1.398424 2,-3.130344 2,-3.848713 0,-0.718368 0.43082,-1.572386 0.95738,-1.897818 0.99748,-0.616476 -1.94861,8.720245 -3.90508,12.37594 C 166.43483,90.056026 165.20072,91 164.30983,91 c -1.48025,0 -1.47722,-0.15756 0.0352,-1.828741 z M 149,82.545713 c 0,-0.447534 7.62758,-10.952022 12.55887,-17.295713 1.81843,-2.339258 3.28507,-3.217493 5.23376,-3.133999 2.08479,0.08933 2.24746,0.228045 0.70737,0.603238 C 164.53276,63.442113 162.41122,65.627835 155.82252,74.75 150.39835,82.259847 149,83.857668 149,82.545713 Z m -31.5976,-2.1673 c 0.86234,-2.810951 6.51351,-13.208409 7.51556,-13.82771 0.72955,-0.450887 -6.63018,14.332143 -7.69144,15.449297 -0.26123,0.275 -0.18209,-0.454714 0.17588,-1.621587 z m 59.29818,-0.01117 c -1.15971,-1.159705 3.96491,-4.283809 8.8069,-5.368921 6.25759,-1.402356 16.16509,-7.199407 20.20497,-11.822281 2.33739,-2.674699 3.22268,-3.203331 3.25,-1.940666 0.0403,1.861638 -9.18027,9.688685 -15.00896,12.740654 -1.95059,1.021347 -5.217,2.170379 -7.2587,2.553405 -2.04171,0.383025 -4.79175,1.545595 -6.11122,2.583487 -2.64116,2.077539 -2.95757,2.179747 -3.88299,1.254322 z M 208,77.160515 c 0,-1.579138 5.09056,-3.160603 9.79705,-3.043612 l 4.70295,0.116903 -5.47401,0.90711 c -3.01071,0.498911 -5.91321,1.346305 -6.45,1.883097 C 209.37834,78.221662 208,78.294701 208,77.160515 Z m -35.92105,-4.743848 c 0.048,-1.164943 0.28494,-1.4019 0.60416,-0.604167 0.28887,0.721875 0.25335,1.584375 -0.0789,1.916667 -0.3323,0.332291 -0.56864,-0.258334 -0.52522,-1.3125 z m 57.36218,0.164968 C 231.66405,70.770394 233,70.552057 233,72 c 0,0.55 -0.4132,1 -0.91821,1 -0.50502,0 -1.74252,0.261736 -2.75,0.581635 -1.67622,0.532239 -1.66694,0.447314 0.10934,-1 z M 242.75,72.834059 c 2.68972,-0.602343 5.81028,-0.602343 8.5,0 3.84486,0.861028 3.43972,0.951757 -4.25,0.951757 -7.68972,0 -8.09486,-0.09073 -4.25,-0.951757 z M 182.76829,72.434952 C 182.07573,71.742394 184.58902,66 185.5847,66 c 0.29333,0 0.23343,0.485254 -0.13312,1.078343 -0.36655,0.593088 -0.96532,2.195869 -1.33061,3.561736 -0.36529,1.365866 -0.974,2.173559 -1.35268,1.794873 z M 264.5,71 c 0.33992,-0.55 1.29303,-1 2.11803,-1 0.825,0 1.22189,0.45 0.88197,1 -0.33992,0.55 -1.29303,1 -2.11803,1 -0.825,0 -1.22189,-0.45 -0.88197,-1 z M 129,64.598327 c 1.375,-0.726878 3.85,-1.590699 5.5,-1.9196 2.62955,-0.52416 2.50606,-0.359257 -1,1.335411 -4.46034,2.155922 -8.45388,2.674363 -4.5,0.584189 z m 57.02224,-0.157197 c -0.0511,-2.433657 2.82633,-4.555337 8.27498,-6.101554 4.53949,-1.288215 6.05817,-1.38218 7,-0.43311 0.93901,0.94623 0.85505,1.07975 -0.38289,0.608852 -2.34918,-0.893611 -11.15297,2.338615 -13.14209,4.824994 -0.95027,1.187829 -1.73777,1.683196 -1.75,1.100818 z M 243,63.559017 c 0,-0.792541 0.40803,-1.693162 0.90674,-2.00138 0.49871,-0.308218 0.67122,0.340224 0.38337,1.440983 C 243.6795,65.333607 243,65.628767 243,63.559017 Z m -67,-3.5 c 0,-0.517541 0.44485,-1.215913 0.98855,-1.551938 0.56686,-0.350339 0.7345,0.05106 0.39301,0.940983 C 176.71677,61.180479 176,61.497449 176,60.059017 Z m 41,-2.090402 C 217,57.435877 217.675,57 218.5,57 c 0.825,0 1.5,0.176855 1.5,0.393011 0,0.216156 -0.675,0.652033 -1.5,0.968615 -0.825,0.316583 -1.5,0.139728 -1.5,-0.393011 z m 28.56429,-0.261743 c 0.37553,-0.986221 0.93469,-1.541221 1.24258,-1.233333 0.30789,0.307887 6.4e-4,1.114794 -0.68278,1.793128 -0.98762,0.980267 -1.10248,0.865403 -0.5598,-0.559795 z m -98.10943,-1.633833 c 0.31509,-0.509829 2.44482,-2.409553 4.73273,-4.221609 4.72511,-3.742359 3.98456,-1.495261 -0.83195,2.52441 -3.15921,2.636556 -4.96762,3.423383 -3.90078,1.697199 z M 224,56.056566 c 1.3484,-0.922251 9.92036,-1.580479 8.91667,-0.684697 -0.22917,0.204528 -2.66667,0.673092 -5.41667,1.041253 -3.55073,0.475361 -4.56522,0.372012 -3.5,-0.356556 z M 170,54 c 1.05696,-1.97494 3,-2.752158 3,-1.2 0,1.051669 -2.17195,3.2 -3.23518,3.2 -0.45935,0 -0.35352,-0.9 0.23518,-2 z m -40,-0.440983 c 0,-0.792541 0.40803,-1.693162 0.90674,-2.00138 0.49871,-0.308218 0.67122,0.340224 0.38337,1.440983 C 130.6795,55.333607 130,55.628767 130,53.559017 Z m 76,-0.149241 c 0,-0.530424 1.35,-2.149012 3,-3.596862 1.65,-1.44785 3,-2.307249 3,-1.909775 0,0.397473 -1.35,2.016061 -3,3.596861 -1.65,1.5808 -3,2.440199 -3,1.909776 z m -28,-2.164133 c 0,-1.246823 3.91977,-6.092151 3.96673,-4.903372 0.0183,0.463249 -0.86673,1.986435 -1.96673,3.384858 -1.1,1.398424 -2,2.081755 -2,1.518514 z m -46,-2.186626 c 0,-0.517541 0.44485,-1.215913 0.98855,-1.551938 0.56686,-0.350339 0.7345,0.05106 0.39301,0.940983 C 132.71677,50.180479 132,50.497449 132,49.059017 Z m 61,0 c 0,-0.517541 0.44485,-1.215913 0.98855,-1.551938 0.56686,-0.350339 0.7345,0.05106 0.39301,0.940983 C 193.71677,50.180479 193,50.497449 193,49.059017 Z m 28,0 c 0,-0.517541 0.44485,-1.215913 0.98855,-1.551938 0.56686,-0.350339 0.7345,0.05106 0.39301,0.940983 C 221.71677,50.180479 221,50.497449 221,49.059017 Z m 28,0 c 0,-0.517541 0.44485,-1.215913 0.98855,-1.551938 0.56686,-0.350339 0.7345,0.05106 0.39301,0.940983 C 249.71677,50.180479 249,50.497449 249,49.059017 Z M 115,48.546794 C 115,47.832962 124.08425,44 125.77606,44 c 0.837,0 -0.59402,1.125 -3.18004,2.5 C 118.28851,48.790327 115,49.676436 115,48.546794 Z m 69.55887,-3.014991 c 1.06762,-0.807508 2.84113,-1.464894 3.94113,-1.460858 1.38465,0.0051 0.96473,0.456807 -1.36481,1.468197 -4.26887,1.853361 -5.0335,1.851183 -2.57632,-0.0073 z M 195,45.656765 c 0,-2.465291 2.30717,-4.644886 4.78518,-4.520583 2.34429,0.117595 2.40893,0.195173 0.47362,0.568398 -1.23267,0.237719 -2.92017,1.401565 -3.75,2.586325 C 195.67896,45.475664 195,46.090301 195,45.656765 Z m 28.90003,-1.396415 c 1.40386,-2.712209 5.22547,-4.758475 10.59997,-5.675711 2.2,-0.375462 6.025,-1.295668 8.5,-2.044902 8.38289,-2.537676 10,-2.708893 10,-1.058789 C 253,36.407036 252.0863,37 250.6593,37 c -1.28739,0 -6.79989,0.928512 -12.25,2.063359 -7.60991,1.584568 -10.5775,2.686778 -12.78891,4.75 -2.59181,2.418129 -2.76375,2.462803 -1.72036,0.446991 z M 135.87244,41.75 c 0.99866,-1.273386 2.63277,-1.702418 6,-1.575293 l 4.62756,0.174707 -4.48038,0.394048 c -2.46421,0.216726 -5.16421,0.925608 -6,1.575293 -1.32751,1.031914 -1.34612,0.960013 -0.14718,-0.568755 z"
       id="path5319"
       inkscape:connector-curvature="0" />
  </g>
</svg>
