<?xml version="1.0" encoding="UTF-8" standalone="no"?>
<!-- Created with Inkscape (http://www.inkscape.org/) -->

<svg
   xmlns:dc="http://purl.org/dc/elements/1.1/"
   xmlns:cc="http://creativecommons.org/ns#"
   xmlns:rdf="http://www.w3.org/1999/02/22-rdf-syntax-ns#"
   xmlns:svg="http://www.w3.org/2000/svg"
   xmlns="http://www.w3.org/2000/svg"
   xmlns:xlink="http://www.w3.org/1999/xlink"
   xmlns:sodipodi="http://sodipodi.sourceforge.net/DTD/sodipodi-0.dtd"
   xmlns:inkscape="http://www.inkscape.org/namespaces/inkscape"
   id="svg4095"
   version="1.1"
   inkscape:version="0.91 r13725"
   width="473"
   height="123"
   viewBox="0 0 473 123"
   sodipodi:docname="Bootstrap.bmp.svg">
  <metadata
     id="metadata4101">
    <rdf:RDF>
      <cc:Work
         rdf:about="">
        <dc:format>image/svg+xml</dc:format>
        <dc:type
           rdf:resource="http://purl.org/dc/dcmitype/StillImage" />
        <dc:title></dc:title>
      </cc:Work>
    </rdf:RDF>
  </metadata>
  <defs
     id="defs4099" />
  <sodipodi:namedview
     pagecolor="#ffffff"
     bordercolor="#666666"
     borderopacity="1"
     objecttolerance="10"
     gridtolerance="10"
     guidetolerance="10"
     inkscape:pageopacity="0"
     inkscape:pageshadow="2"
     inkscape:window-width="640"
     inkscape:window-height="480"
     id="namedview4097"
     showgrid="false"
     inkscape:zoom="0.55391121"
     inkscape:cx="236.5"
     inkscape:cy="61.5"
     inkscape:window-x="0"
     inkscape:window-y="0"
     inkscape:window-maximized="0"
     inkscape:current-layer="svg4095" />
  <image
     width="473"
     height="123"
     preserveAspectRatio="none"
     style="image-rendering:optimizeQuality"
     xlink:href="file:///media/havoc/USB%20DISK/pics/_OpsDeps/Bootstrap.bmp"
     id="image4103"
     x="0"
     y="0"
     sodipodi:absref="/media/havoc/USB DISK/pics/_OpsDeps/Bootstrap.bmp" />
  <g
     id="g5280">
    <path
       style="fill:#fcfcfc"
       d="M 0,61.5 0,0 236.5,0 473,0 473,61.5 473,123 236.5,123 0,123 0,61.5 Z"
       id="path5296"
       inkscape:connector-curvature="0" />
    <path
       style="fill:#c4bbd1"
       d="M 22.555365,97.045744 C 16.780073,93.238721 16.529181,91.919431 16.187119,63.558912 15.840092,34.78677 16.447947,30.95341 21.982252,27.012638 24.660872,25.105292 26.349991,25 54.269512,25 94.624128,25 92,22.462671 92,61.482459 92,91.156991 91.637553,93.206784 85.746698,96.847532 82.395137,98.918911 81.194707,98.999752 53.881966,98.993411 27.471478,98.987279 25.295459,98.85199 22.555365,97.045744 Z M 66.018181,81.376049 c 6.36351,-2.546172 8.727011,-9.10054 5.518804,-15.304528 -0.804658,-1.556037 -2.154658,-3.094567 -3,-3.418955 C 66.481847,61.863936 66.632323,60.026902 69,57 71.805891,53.412874 71.622916,47.532007 68.611728,44.520819 65.521042,41.430133 61.910565,40.833952 48.5,41.199862 L 37.5,41.5 37.227635,60.970526 c -0.149801,10.70879 -0.05142,20.04629 0.218615,20.75 0.774619,2.018624 23.346086,1.746491 28.571931,-0.344477 z M 48.75,76.976825 c -2.309563,-1.420322 -2.490257,-11.117577 -0.241929,-12.983523 2.050623,-1.701866 10.032736,-0.718841 12.532509,1.543422 2.501069,2.263437 2.57523,7.596 0.136335,9.80317 C 58.908644,77.392651 51.098965,78.421379 48.75,76.976825 Z M 47.666667,57.333333 C 46.528259,56.194926 46.935103,48.464897 48.2,47.2 49.899159,45.500841 56.142953,45.7114 58.777494,47.556704 60.201349,48.554011 61,50.150696 61,52 c 0,1.849304 -0.798651,3.445989 -2.222506,4.443296 -2.212125,1.549432 -9.840369,2.160496 -11.110827,0.890037 z M 277.06644,82.124145 c -1.36858,-2.557212 -1.39435,-23.642917 -0.032,-26.188474 0.8176,-1.527707 2.12765,-1.935936 6.25,-1.947585 2.86856,-0.0081 6.52314,-0.02136 8.12127,-0.02945 7.72809,-0.03913 11.91275,11.924371 6.88736,19.690238 -1.77464,2.742404 -6.57942,4.747057 -9.57549,3.995092 -1.95612,-0.490956 -2.47039,-0.07621 -3.26941,2.63672 -0.77794,2.641356 -1.5197,3.274683 -4.13172,3.527719 -2.35723,0.228354 -3.46037,-0.208812 -4.25,-1.684258 z M 290.90215,67.75 c 1.11558,-2.996363 -0.18204,-6.25 -2.49262,-6.25 -2.52776,0 -4.23058,4.805773 -2.45912,6.940253 1.84623,2.224569 3.97711,1.927533 4.95174,-0.690253 z m -151.45349,8.698541 c -1.67824,-0.828255 -3.86432,-2.88218 -4.85796,-4.564277 l -1.80661,-3.058358 -1.77378,2.916738 c -2.5854,4.25135 -6.30215,5.384018 -16.56817,5.049091 L 105.5,76.5 l 0,-15 0,-15 9.22766,-0.28723 c 6.84435,-0.213045 10.00453,0.114502 12.23552,1.268188 3.54184,1.831559 4.80457,5.646705 3.24044,9.790549 -0.82141,2.176149 -0.79905,3.403456 0.0879,4.823644 1.40564,2.250797 2.7085,2.482446 2.7085,0.481574 0,-2.520706 5.0265,-7.490035 8.56428,-8.466861 4.88597,-1.349084 9.88278,0.304014 13.09768,4.333121 l 2.67511,3.352607 2.11802,-3.147796 c 2.77303,-4.121265 8.36552,-6.042462 13.53624,-4.65013 2.07663,0.559178 4.33595,1.691759 5.02071,2.516846 1.08558,1.308043 1.53935,1.18257 3.54335,-0.979778 1.26408,-1.363965 2.44374,-3.504766 2.62147,-4.757335 C 184.45141,48.842446 185.09941,48.5 188.4863,48.5 c 3.18956,0 4.0632,0.399235 4.37098,1.997448 0.21157,1.098597 1.47538,3.008275 2.80845,4.243729 2.32161,2.151593 2.53225,2.175209 4.997,0.560244 3.32252,-2.177004 11.31013,-2.204448 14.598,-0.05016 2.36703,1.550942 2.60162,1.521986 4.51814,-0.557693 1.11181,-1.206464 2.18506,-3.093572 2.38499,-4.193572 0.29168,-1.604726 1.15137,-2 4.34984,-2 3.5071,0 4.02159,0.300532 4.27989,2.5 0.29268,2.492177 4.71219,5.608686 5.69608,4.016709 0.27006,-0.436968 3.84141,-0.794487 7.93633,-0.794487 5.51832,0 7.5867,0.368491 7.99164,1.423743 0.45722,1.191509 0.9821,1.13822 3.21785,-0.326698 4.04763,-2.65211 12.7339,-2.260326 15.90344,0.717305 C 273.80716,58.167467 274,59.068144 274,67.531421 l 0,9.182793 -8.1395,0.557894 c -9.04823,0.620179 -12.07085,-0.243603 -13.75023,-3.929433 -1.63678,-3.592334 -1.37887,-5.164984 1.28367,-7.827523 C 256.21234,62.696753 255.82011,62 251.41512,62 c -5.78411,0 -6.41365,0.671297 -6.43043,6.856989 -0.008,3.103656 -0.34592,6.147067 -0.75,6.763136 -0.44728,0.681939 -4.3225,1.150257 -9.90611,1.197151 -11.0165,0.09252 -11.61856,-0.378192 -12.32858,-9.638853 -0.53174,-6.935407 -1.34812,-7.981052 -4.41938,-5.660474 -1.84869,1.396829 -1.85329,1.523272 -0.125,3.433011 6.87966,7.601942 -5.74434,16.41769 -15.91613,11.114751 -3.43423,-1.790393 -4.07203,-1.865503 -4.79969,-0.565237 -1.18669,2.120492 -9.06925,2.011293 -10.86736,-0.150548 C 185.1176,74.442385 184.275,70.765209 184,67.178423 c -0.5969,-7.785295 -2.68286,-9.631798 -2.57356,-2.278131 0.092,6.189372 -2.5154,10.036919 -8.15192,12.029215 -3.52162,1.244761 -4.54176,1.240171 -7.89351,-0.03551 -2.14369,-0.815895 -4.80558,-2.884184 -6.00767,-4.667957 l -2.15846,-3.202938 -1.66177,2.536191 c -2.14058,3.266938 -7.3587,6.438519 -10.55311,6.414201 -1.375,-0.01047 -3.8731,-0.696696 -5.55134,-1.524951 z M 200.75999,68 c 1.32225,0 1.23229,-0.358534 -0.4933,-1.966171 -1.16074,-1.081394 -2.40904,-2.906986 -2.774,-4.05687 -1.14243,-3.599484 -3.95036,-1.978411 -4.31558,2.491474 -0.38939,4.765673 2.04584,7.451475 4.51631,4.981009 C 198.49061,68.652249 199.87057,68 200.75999,68 Z M 210,70 c 0,-0.55 -0.92656,-1 -2.05902,-1 -1.13246,0 -1.7809,0.45 -1.44098,1 0.33992,0.55 1.26648,1 2.05902,1 C 209.35156,71 210,70.55 210,70 Z m 25.81414,-5.114136 C 235.55525,61.271379 235.14824,60.5 233.5,60.5 c -2.80147,0 -3.49588,7.298624 -0.87664,9.213863 2.51305,1.837583 3.55525,0.260616 3.19078,-4.827999 z m 28.96816,4.268633 c 0.28658,-0.860627 -0.19425,-1.220995 -1.33427,-1 -0.98026,0.190026 -1.98391,0.95098 -2.23033,1.691006 -0.28658,0.860627 0.19425,1.220995 1.33427,1 0.98026,-0.190026 1.98391,-0.95098 2.23033,-1.691006 z M 147.57124,67.572172 c 0.95418,-3.801758 -0.3845,-6.739838 -2.90713,-6.380468 -2.21412,0.31542 -3.44619,4.327837 -2.27007,7.392769 0.91531,2.385254 4.50041,1.684257 5.1772,-1.012301 z m 24.55308,0.05432 C 173.3937,64.840501 171.83992,61 169.44338,61 c -2.30808,0 -3.88279,4.310435 -2.51108,6.873507 1.50423,2.810683 3.84968,2.699097 5.19202,-0.247014 z M 121.6771,67.399075 c 0.73251,-1.908892 -1.38913,-3.511284 -4.1771,-3.154803 -1.21051,0.154781 -2.12614,1.143903 -2.31955,2.505728 -0.27244,1.918308 0.13758,2.25 2.78138,2.25 1.92078,0 3.33474,-0.609281 3.71527,-1.600925 z M 264,61 c 0,-0.55 -0.42344,-1 -0.94098,-1 -0.51754,0 -1.2191,0.45 -1.55902,1 -0.33992,0.55 0.0835,1 0.94098,1 C 263.29844,62 264,61.55 264,61 Z M 121,55.5 c 0,-1 -1,-1.5 -3,-1.5 -2,0 -3,0.5 -3,1.5 0,1 1,1.5 3,1.5 2,0 3,-0.5 3,-1.5 z"
       id="path5294"
       inkscape:connector-curvature="0" />
    <path
       style="fill:#b6abc6"
       d="M 22.513679,95.8321 C 17.401298,91.810701 17,89.311931 17,61.5 17,34.067829 17.482054,30.877046 22.116873,27.630693 24.141767,26.212401 28.294613,26 54,26 c 32.342666,0 32.402519,0.01013 35.505711,6.011044 1.221462,2.362047 1.487819,7.874001 1.458854,30.189296 -0.03833,29.531995 -0.166508,30.316365 -5.531991,33.853315 -2.726167,1.797102 -4.946631,1.93363 -31.547715,1.939756 -27.844721,0.0064 -28.689344,-0.05178 -31.37118,-2.161311 z M 64.377725,82.912153 C 70.630802,81.175916 73,78.073697 73,71.62218 73,67.180638 72.507749,65.568443 70.379262,63.03888 67.893002,60.084128 67.846037,59.827608 69.464008,58.039771 71.712596,55.555109 72.411381,49.13894 70.775261,46 68.325381,41.299842 63.803864,40.003268 49.856989,40.001554 39.249757,40.00025 37.11624,40.2547 36.606989,41.581787 35.403145,44.718955 35.932789,81.532789 37.2,82.8 c 1.532688,1.532688 21.761013,1.616163 27.177725,0.112153 z M 49.25,76.390492 C 48.473205,76.044253 48,73.789993 48,70.435719 c 0,-4.944341 0.213031,-5.451082 2.536791,-6.034309 2.984656,-0.749101 8.208833,0.142587 10.117901,1.726973 1.811908,1.50375 1.710067,7.324004 -0.155239,8.872071 -1.629189,1.352107 -9.228,2.291053 -11.249453,1.390038 z M 48.398157,55.595196 c -0.296491,-0.772642 -0.394868,-2.910142 -0.218616,-4.75 0.29391,-3.068056 0.627628,-3.3707 4.028123,-3.653037 2.039215,-0.169313 4.626715,0.18402 5.75,0.785183 2.711697,1.451257 2.780783,6.557086 0.108077,7.987474 -2.854535,1.527701 -9.030118,1.291591 -9.667584,-0.36962 z M 277.71406,82.380727 c -0.99096,-0.990962 -0.87117,-24.584839 0.13286,-26.167274 0.44896,-0.707601 2.57957,-1.288237 4.73468,-1.290304 2.15512,-0.0021 5.59548,-0.06479 7.64525,-0.139392 9.31648,-0.339064 13.15987,13.347277 5.54704,19.753051 -2.61749,2.202473 -3.79909,2.554873 -6.90252,2.058615 -3.63756,-0.58167 -3.75335,-0.505971 -4.05789,2.652911 -0.27054,2.806264 -0.72933,3.292402 -3.34942,3.549059 -1.66977,0.163567 -3.35727,-0.02393 -3.75,-0.416666 z m 13.23173,-12.815403 c 1.65516,-1.994348 0.91259,-7.639253 -1.17703,-8.947524 -2.45678,-1.538149 -5.102,1.366502 -4.98521,5.474135 0.12816,4.507528 3.65442,6.495128 6.16224,3.473389 z M 137.52701,73.727008 C 134.51684,70.716837 134,69.528242 134,65.615777 c 0,-3.652148 0.59329,-5.24823 2.91797,-7.85 2.478,-2.773359 3.5978,-3.265777 7.42667,-3.265777 14.97128,0 16.17334,20.560146 1.30007,22.236579 -4.23073,0.476864 -4.86725,0.240877 -8.1177,-3.009571 z m 10.62134,-5.153266 c 1.48793,-3.265643 0.33888,-7.284325 -2.32448,-8.129643 -3.80494,-1.207642 -6.16946,4.173123 -3.78869,8.621642 1.446,2.701872 4.78022,2.433528 6.11317,-0.491999 z m 15.61422,6.86087 C 160.59444,73.715602 158,69.242816 158,65.5 c 0,-9.856794 12.35363,-14.873643 19.36364,-7.863636 9.24771,9.247717 -2.06835,24.055833 -13.60107,17.798248 z m 8.18322,-5.869288 c 1.63178,-1.966185 0.92443,-7.631908 -1.11197,-8.906486 C 168.41758,59.146509 166,61.528967 166,65.422445 c 0,4.912987 3.36232,7.255768 5.94579,4.142879 z M 189,76.306019 c -2.83084,-1.011717 -4,-3.695726 -4,-9.182697 0,-4.206744 -0.49256,-6.018722 -2.1017,-7.731579 l -2.1017,-2.237158 2.1017,-1.799534 c 1.15593,-0.989743 2.1017,-2.7942 2.1017,-4.009904 0,-2.362536 2.67369,-3.791329 5.24691,-2.803894 0.84076,0.322632 1.79291,1.907836 2.11588,3.522675 C 192.70436,53.77179 193.58793,55 194.475,55 c 2.22618,0 1.87043,3.744765 -0.475,5 -1.48263,0.793477 -2,2.093823 -2,5.02671 0,2.873335 0.54748,4.298248 2,5.205363 1.1,0.686961 2,2.21763 2,3.401485 0,2.890815 -3.08911,4.070177 -7,2.672461 z m 12.86857,-0.815867 c -2.75927,-1.499238 -4.26623,-4.037706 -3.3128,-5.580394 0.88161,-1.426467 4.00079,-1.071237 7.31981,0.83362 2.29877,1.31931 3.31891,1.462127 4.19391,0.587133 1.73614,-1.73614 0.41486,-2.997444 -3.85526,-3.680264 -2.20953,-0.353318 -4.83712,-1.684376 -6.21011,-3.145857 -1.97549,-2.102817 -2.21873,-2.991974 -1.43113,-5.231489 1.91708,-5.451189 12.90274,-6.797167 17.5497,-2.150212 1.59703,1.59703 1.76624,2.306218 0.82178,3.444223 -1.54187,1.857834 -3.43534,1.812787 -6.43568,-0.153108 -1.33146,-0.872407 -2.89797,-1.291313 -3.48113,-0.930901 -1.76317,1.089702 -0.30146,2.210724 4.43903,3.404393 5.99175,1.50874 8.59514,5.130227 6.4436,8.963472 -2.76134,4.919655 -10.4677,6.667998 -16.04172,3.639384 z m 24.17463,0.237109 c -2.79874,-1.416288 -3.80069,-4.192729 -3.94352,-10.927571 -0.0712,-3.357178 -0.59975,-4.985001 -1.84968,-5.696591 -1.46534,-0.834226 -1.54433,-1.289624 -0.48555,-2.79969 0.69544,-0.991875 1.74555,-3.022522 2.33358,-4.512549 C 223.96507,47.059867 230,47.286235 230,52.087261 c 0,1.013304 0.9,2.324037 2,2.912739 1.1,0.588702 2,1.621289 2,2.294637 0,0.673348 -0.9,1.786329 -2,2.47329 -1.49047,0.930812 -2,2.332028 -2,5.5 0,3.167973 0.50953,4.569188 2,5.5 2.39005,1.492614 2.63408,4.774778 0.41821,5.625084 -2.28067,0.875178 -3.60283,0.737104 -6.37501,-0.66575 z M 254.25,74.785849 C 249.89817,70.11537 252.51856,64.672665 259.69422,63.477864 264.93156,62.605808 266,62.209409 266,61.138374 c 0,-1.780245 -3.30314,-2.16977 -5.60572,-0.661059 -4.18847,2.744392 -8.40195,1.274056 -6.5052,-2.270055 2.33501,-4.363008 13.07778,-5.357202 17.23495,-1.595016 C 272.6893,58.028795 273,59.774894 273,67.154988 L 273,76 l -3.25,0.0087 c -1.7875,0.0048 -5.5,0.274916 -8.25,0.6003 -4.41049,0.521856 -5.26528,0.306902 -7.25,-1.823143 z m 10.78517,-4.328231 c 0.78405,-0.94472 0.92169,-1.90076 0.3552,-2.467246 C 264.16827,66.768275 260,67.896951 260,69.449965 c 0,2.82232 3.02647,3.427987 5.03517,1.007653 z m -159.3948,4.047584 c -0.80895,-2.108079 -0.81699,-22.244257 -0.0101,-25.255202 0.57019,-2.12768 1.10576,-2.25 9.85148,-2.25 7.84228,0 9.64914,0.315136 11.88337,2.07258 2.81354,2.213128 3.39913,5.630844 1.55516,9.076349 -0.83458,1.559411 -0.72106,2.41375 0.5,3.762999 2.17092,2.398842 1.99583,8.352141 -0.33021,11.227288 -1.74856,2.161353 -2.79266,2.389252 -12.35963,2.697774 -9.03115,0.291242 -10.53665,0.11045 -11.09009,-1.331788 z m 16.20802,-5.390342 c 0.74162,-0.469983 1.18774,-1.700592 0.99138,-2.734687 -0.27066,-1.425362 -1.383,-1.954556 -4.5984,-2.187671 C 114.34981,63.910365 114,64.082189 114,66.275836 c 0,1.314957 0.3,2.690831 0.66667,3.057497 0.94153,0.941529 5.57364,0.800617 7.18172,-0.218473 z M 121.6771,56.399075 c 0.7737,-2.01623 -1.41761,-3.495873 -4.6771,-3.158125 -1.73091,0.179357 -2.59831,0.951234 -2.81955,2.50905 -0.28063,1.975936 0.11907,2.25 3.28138,2.25 2.37924,0 3.80937,-0.543151 4.21527,-1.600925 z m 114.95055,18.072976 c -0.87429,-2.278368 -0.75908,-16.717321 0.14473,-18.137991 0.46712,-0.734256 3.33086,-1.104502 7.73469,-1 6.6984,0.158951 6.99293,0.268558 6.99293,2.602372 0,1.907417 -0.7029,2.618574 -3.2373,3.275301 -3.49692,0.906144 -4.04882,2.106887 -4.49898,9.788267 -0.24856,4.241308 -0.44321,4.517467 -3.38607,4.803838 -2.16641,0.210814 -3.31452,-0.196929 -3.75,-1.331787 z"
       id="path5292"
       inkscape:connector-curvature="0" />
    <path
       style="fill:#9c8db2"
       d="M 23.762571,96.434612 C 18.28857,93.464451 18,91.687483 18,60.94966 L 18,32.8 21.4,29.4 24.8,26 53.914685,26 83.02937,26 86.764685,29.421675 90.5,32.843349 90.795505,59.844885 c 0.330337,30.184358 -0.05564,32.514248 -5.985329,36.12948 C 81.697679,97.872002 79.857739,97.990356 54,97.956224 31.622797,97.926687 25.990062,97.643235 23.762571,96.434612 Z M 67.842777,82.080209 C 72.07056,79.923355 74,76.577613 74,71.403287 74,67.653292 71.579746,62 69.97432,62 68.451734,62 68.83186,58.384433 70.5,57 72.49538,55.343982 72.454495,47.623281 70.43402,44.53964 69.572729,43.225143 67.435229,41.638865 65.68402,41.014578 61.820561,39.637296 42.306011,38.455396 38.636313,39.376432 L 36,40.038104 36,61.352385 C 36,73.07524 36.3,82.966667 36.666667,83.333333 37.033333,83.7 43.35126,84 50.706505,84 61.919991,84 64.687394,83.689966 67.842777,82.080209 Z M 48.401981,74.605161 c -0.294388,-0.767161 -0.392765,-3.129661 -0.218616,-5.25 0.316345,-3.851631 0.321082,-3.855444 5.17257,-4.164279 3.511302,-0.223521 5.380411,0.165527 6.75,1.404988 2.39947,2.17149 2.42846,5.610534 0.06532,7.749142 -2.325488,2.104539 -10.988043,2.296016 -11.769278,0.260149 z m 0.648206,-19.044689 c -0.657086,-0.791741 -1.049686,-2.704241 -0.872445,-4.25 0.291209,-2.53969 0.738856,-2.840447 4.646163,-3.121581 C 57.511097,47.851643 60,49.19626 60,52.065741 c 0,3.970037 -8.344947,6.633402 -10.949813,3.494731 z M 278.46319,81.764668 c -0.29033,-0.756583 -0.40082,-6.975645 -0.24553,-13.820137 L 278.5,55.5 285,55.294283 c 3.575,-0.113144 7.50432,0.0059 8.73181,0.264487 2.98435,0.62875 5.26819,5.326238 5.26819,10.835806 0,7.783292 -4.89391,11.349839 -12.968,9.450716 -1.00938,-0.237418 -1.63421,0.748153 -2,3.154708 -0.40583,2.669939 -1.06667,3.575924 -2.78647,3.820137 -1.24214,0.176384 -2.4915,-0.297557 -2.78234,-1.055469 z M 292.20031,68.45971 c 1.62548,-3.567545 -0.008,-7.855507 -3.16441,-8.30468 -2.88267,-0.410271 -5.0359,2.085106 -5.0359,5.8361 0,5.282276 6.08384,7.113725 8.20031,2.46858 z m -151.8856,7.088616 c -5.27966,-2.316142 -7.85229,-9.673232 -5.19767,-14.864067 1.93145,-3.776762 5.13177,-5.638503 9.73296,-5.662023 3.62918,-0.01855 4.9134,0.541162 7.75,3.377764 3.66544,3.665437 4.36136,7.395929 2.24587,12.038924 -2.28708,5.019607 -9.19725,7.44934 -14.53116,5.109402 z m 7.63108,-5.983002 c 1.66181,-2.002367 0.90919,-7.641362 -1.19579,-8.95936 -3.66562,-2.295171 -6.73682,2.326083 -5.31383,7.995749 0.69156,2.755374 4.54872,3.326346 6.50962,0.963611 z m 17.37969,5.975544 C 158.23206,72.455384 156.47725,63.368906 161.92308,57.923077 164.31638,55.529773 165.68961,55 169.5,55 c 6.46954,0 10.5,3.915521 10.5,10.200571 0,5.226747 -2.08902,8.52085 -6.59857,10.405062 -4.01238,1.67648 -4.07403,1.675986 -8.07595,-0.06476 z m 7.87483,-7.081158 C 175.02983,64.444362 173.19617,60.5 169.5,60.5 c -2.30842,0 -3.15955,0.590636 -3.90479,2.70971 C 164.23045,67.090374 166.19011,71 169.5,71 c 1.75274,0 2.90252,-0.789336 3.70031,-2.54029 z m 30.89559,7.233848 c -4.20447,-1.474184 -6.09922,-4.09024 -4.28005,-5.909413 1.02787,-1.027869 1.85179,-0.937518 4.30857,0.472477 C 205.79513,71.21548 208.05861,72 209.15436,72 c 3.10184,0 1.82808,-3.312782 -1.66408,-4.327912 -6.27001,-1.822621 -7.98035,-3.133177 -8.29647,-6.357221 C 198.79181,57.215087 201.88079,55 208,55 c 4.88159,0 9,2.137088 9,4.670203 0,1.581033 -1.02505,1.552931 -8.25,-0.226182 -2.1243,-0.5231 -2.75,-0.31813 -2.75,0.900858 0,1.012341 1.52354,1.983677 4.25,2.709604 5.00941,1.333767 7.75,3.514301 7.75,6.166246 0,3.401212 -1.94153,5.668988 -5.76177,6.729939 -4.41018,1.224792 -3.86693,1.241947 -8.14233,-0.25711 z m 52.13956,0.291433 c -1.2455,-0.512217 -2.71996,-2.129124 -3.27657,-3.593127 -1.29895,-3.416489 0.92867,-7.109337 4.80376,-7.963458 5.46488,-1.204532 7.62009,-2.07662 8.00801,-3.24038 0.58654,-1.759629 -2.75446,-2.679237 -4.88956,-1.345847 C 258.24473,61.488622 254,61.312521 254,59.556704 c 0,-4.513214 13.10743,-6.449278 17.0398,-2.516905 1.77856,1.778556 2.00268,3.091305 1.75,10.25 L 272.5,75.5 268,75.577091 c -2.475,0.0424 -5.625,0.361067 -7,0.708148 -1.375,0.347081 -3.51905,0.21197 -4.76454,-0.300248 z M 265.81955,69.25 c 0.2567,-1.80742 -0.1618,-2.25 -2.12755,-2.25 -2.76353,0 -5.21228,2.34916 -4.18365,4.013505 0.37429,0.605613 1.87553,0.962825 3.33609,0.793805 1.87412,-0.216879 2.74959,-0.969407 2.97511,-2.55731 z m -159.34531,5.543454 c -0.29532,-0.769573 -0.41033,-7.225426 -0.25559,-14.346339 L 106.5,47.5 l 7.93337,-0.295365 c 12.67151,-0.47177 16.98174,2.477517 14.52035,9.935588 -1.10465,3.347119 -1.05389,4.091614 0.38758,5.684411 2.35834,2.605943 2.053,6.605216 -0.75354,9.869602 -2.28127,2.653423 -2.93252,2.824569 -11.99442,3.152103 -7.5261,0.272025 -9.69738,0.0461 -10.1191,-1.052885 z m 16.48859,-6.724008 C 124.32756,65.51944 121.88645,63 118.05102,63 c -3.42063,0 -5.44215,2.192302 -4.56625,4.952012 0.9057,2.853609 7.96688,2.941097 9.47806,0.117434 z m -2.11444,-9.954586 c 2.54273,-1.611398 0.88258,-4.591184 -2.75171,-4.939043 -3.82696,-0.366299 -5.45943,1.277862 -3.99172,4.020301 1.01495,1.896454 4.46,2.365816 6.74343,0.918742 z M 186.5567,73.777494 C 185.58763,72.393951 185,69.392827 185,65.827184 c 0,-4.289338 -0.4155,-5.960332 -1.65449,-6.653704 -1.59563,-0.89296 -1.48803,-1.859456 0.57597,-5.17348 0.51382,-0.825 1.18913,-2.317637 1.50068,-3.316971 0.80133,-2.57029 5.93304,-1.91615 6.40912,0.816971 0.19161,1.1 1.32046,2.805227 2.50855,3.789393 l 2.16017,1.789392 -2.25,1.58258 c -3.20483,2.254176 -3.2536,10.428323 -0.0748,12.538957 C 197.38944,73.334513 195.95271,76 191.58809,76 c -2.45702,0 -3.93061,-0.650926 -5.03139,-2.222506 z m 38.09829,0.393765 C 223.52975,72.927882 223,70.550065 223,66.742688 c 0,-3.795648 -0.51457,-6.114402 -1.59713,-7.196958 -1.54469,-1.544689 -1.46896,-2.354418 0.51861,-5.54573 0.51382,-0.825 1.17756,-2.2875 1.47498,-3.25 0.33042,-1.069269 1.53518,-1.75 3.09716,-1.75 2.02314,0 2.67784,0.607299 3.13866,2.911424 0.3392,1.695989 1.37244,3.118054 2.475,3.406381 2.46285,0.644048 2.41364,2.33304 -0.10728,3.682195 -2.99239,1.601477 -2.86923,10.178911 0.17518,12.200322 1.42661,0.947236 1.95363,2.021632 1.53139,3.121972 -0.89271,2.326342 -6.90031,2.226099 -9.05158,-0.151035 z m 13.01168,1.162074 C 237.3,74.966667 237,70.452544 237,65.301949 c 0,-7.739435 0.28332,-9.473439 1.63247,-9.991154 0.89785,-0.34454 2.48322,-0.09513 3.52303,0.554242 1.32977,0.830456 2.45749,0.87727 3.80179,0.15782 2.76193,-1.478137 4.738,-1.259296 5.45297,0.603891 0.79006,2.058842 -0.91839,4.161411 -3.70785,4.563218 -2.87551,0.414203 -4.66968,4.2646 -4.68767,10.060034 -0.0134,4.305312 -0.23318,4.75 -2.34807,4.75 -1.28334,0 -2.63334,-0.3 -3,-0.666667 z"
       id="path5290"
       inkscape:connector-curvature="0" />
    <path
       style="fill:#8876a4"
       d="M 21.765777,94.083447 18.5,91.166894 18.204758,63.579916 C 17.776695,23.582363 15.46475,25.999272 54.151129,26.001554 c 23.087352,0.0014 26.780386,0.21798 29.83496,1.75 C 89.801156,30.668098 89.969,31.63609 89.985258,62.35 L 90,90.2 86.6,93.6 83.2,97 54.115777,97 25.031553,97 21.765777,94.083447 Z M 67.689296,82.679895 C 72.368147,80.232165 74,77.303516 74,71.354219 74,67.201794 73.471725,65.525632 71.379262,63.03888 68.80665,59.981505 68.792877,59.88635 70.629262,57.857167 71.92944,56.420487 72.5,54.272067 72.5,50.812983 72.5,46.480521 72.087308,45.467202 69.313449,42.988759 65.431881,39.520579 61.088645,38.781808 47,39.193313 L 36.5,39.5 36.229457,60.975273 c -0.148799,11.811401 -0.02838,22.106332 0.267589,22.877626 0.812948,2.118508 26.766103,1.142523 31.19225,-1.173004 z M 49.401981,74.605161 c -0.294388,-0.767161 -0.392765,-3.129661 -0.218616,-5.25 0.286237,-3.485051 0.610047,-3.883857 3.372895,-4.15407 1.680944,-0.1644 4.268444,0.161962 5.75,0.725249 C 60.520958,66.768367 61,67.571066 61,70.440065 c 0,2.426577 -0.589213,3.804905 -1.934259,4.524751 -2.843887,1.522002 -9.030048,1.291773 -9.66376,-0.359655 z M 49.189635,52.25 c 0.291395,-3.520792 0.53197,-3.768517 3.935986,-4.05295 C 56.569979,47.909246 60,49.806755 60,52 c 0,2.08265 -3.418536,4 -7.131794,4 l -3.988937,0 0.310366,-3.75 z M 278.21961,69.319355 278.5,56.5 282,56.421727 c 1.925,-0.04305 4.77068,-0.437662 6.32374,-0.876916 8.72877,-2.468771 14.26856,10.91859 7.50823,18.144271 -2.05512,2.196593 -2.88813,2.419298 -7.01669,1.875924 l -4.68472,-0.616572 -0.31528,3.275783 c -0.26424,2.745493 -0.76538,3.327481 -3.09567,3.595138 l -2.7804,0.319356 0.2804,-12.819356 z m 12.95165,1.025657 C 294.53327,67.302438 292.51725,59 288.41644,59 c -4.11532,0 -6.30738,9.799249 -2.66644,11.919901 2.43648,1.419117 3.32163,1.325252 5.42126,-0.574889 z M 107.19599,74.736148 C 106.29675,73.65264 106.01722,69.6849 106.21834,60.859393 L 106.5,48.5 l 8.86358,-0.290589 c 6.73326,-0.220748 9.43714,0.08522 11.25,1.273053 2.58853,1.696067 3.12675,5.2657 1.30672,8.666465 -0.8232,1.538161 -0.73252,2.41343 0.38172,3.684258 2.45705,2.80237 2.89729,5.880706 1.28649,8.995653 -1.9282,3.728724 -3.32325,4.249612 -13.11087,4.895375 -6.41862,0.423485 -8.2741,0.225962 -9.28165,-0.988067 z m 14.86975,-4.771332 c 2.27563,-1.217881 2.53213,-4.22374 0.50405,-5.906897 -0.78662,-0.652834 -3.14912,-1.045434 -5.25,-0.872445 -3.38098,0.278394 -3.85771,0.646697 -4.14987,3.206019 -0.18747,1.642332 0.24454,3.255764 1,3.734688 1.82893,1.159436 5.57077,1.082966 7.89582,-0.161365 z M 121.8,57.8 c 1.87978,-1.879776 1.4179,-3.743595 -1.22626,-4.948355 C 116.96779,51.208665 113,52.518773 113,55.352385 c 0,1.272855 0.3,2.614282 0.66667,2.980948 1.11872,1.11872 6.8576,0.7424 8.13333,-0.533333 z m 16.90725,16.184363 c -7.06217,-5.555102 -4.63761,-16.968796 3.9467,-18.579223 3.99666,-0.749777 8.81715,1.001659 10.88588,3.955183 C 154.34292,60.506902 155,63.4045 155,65.799429 c 0,8.593122 -9.62608,13.428941 -16.29275,8.184934 z M 148,70 c 1.1,-1.1 2,-3.125 2,-4.5 0,-2.734734 -3.15315,-6.5 -5.4433,-6.5 -1.85875,0 -4.5567,3.84855 -4.5567,6.5 0,2.65145 2.69795,6.5 4.5567,6.5 0.79382,0 2.3433,-0.9 3.4433,-2 z m 16.11007,4.604493 c -3.12161,-1.730176 -5.03055,-5.286697 -5.07463,-9.454493 -0.0267,-2.527497 0.83075,-4.216188 3.49248,-6.877924 3.21251,-3.212507 3.90541,-3.477304 7.75,-2.961744 C 175.81375,56.052686 180,60.49013 180,65.615777 c 0,2.742842 -0.79814,4.382358 -3.4,6.984223 -3.73626,3.736256 -8.10148,4.436825 -12.48993,2.004493 z m 8.3185,-4.175922 C 175.55391,67.303234 173.3655,59 169.41644,59 167.10073,59 165,62.091802 165,65.5 c 0,3.455911 2.10745,6.5 4.5,6.5 0.74643,0 2.06429,-0.707143 2.92857,-1.571429 z M 189,75.271109 c -2.43594,-0.927278 -2.96852,-2.449496 -2.98469,-8.530896 -0.0119,-4.491377 -0.45154,-6.1333 -1.99621,-7.455884 -1.94072,-1.661702 -1.94275,-1.737549 -0.0998,-3.740213 1.03459,-1.124264 2.04366,-2.938948 2.24238,-4.032632 0.63733,-3.507554 3.61415,-2.98383 5.24655,0.923045 C 192.22756,54.395538 193.37091,56 193.94897,56 194.52704,56 195,56.675 195,57.5 c 0,0.825 -0.62686,1.5 -1.39301,1.5 -3.27712,0 -3.63735,8.962163 -0.47852,11.905062 3.59662,3.350763 0.84601,6.259656 -4.12847,4.366047 z M 201.63486,73.92742 C 200.18569,72.787501 199,71.437501 199,70.92742 c 0,-1.496217 3.59371,-1.067578 6.88466,0.821167 2.83327,1.626073 3.16253,1.632797 4.69936,0.09596 2.22294,-2.222942 1.15983,-3.569689 -3.87624,-4.910401 -7.29146,-1.941146 -9.71204,-5.810341 -5.83181,-9.321904 3.91668,-3.544541 14.03915,-2.881777 15.53532,1.017167 0.85955,2.239957 -1.89417,2.689364 -5.39287,0.880116 -2.48375,-1.284401 -3.47111,-1.378721 -4.60259,-0.439676 -2.08614,1.731343 -0.23838,3.485599 5.08265,4.82545 6.61007,1.664433 8.21224,5.484885 4.04697,9.650154 -3.21883,3.218831 -10.06511,3.406821 -13.91059,0.381965 z m 23.8798,0.706958 c -1.38467,-1.012493 -1.98085,-3.016525 -2.30555,-7.75 -0.26856,-3.915044 -1.06251,-7.09295 -2.05272,-8.216367 -1.48985,-1.690276 -1.481,-1.906844 0.11442,-2.79969 C 222.22187,55.336085 223,53.828305 223,52.517698 c 0,-1.501094 0.73681,-2.616778 1.99105,-3.014858 2.54268,-0.807014 4.00895,0.107167 4.00895,2.499473 0,1.036353 1.0125,2.61835 2.25,3.515548 l 2.25,1.63127 -2.25,1.547406 c -3.20674,2.205394 -3.25573,10.39174 -0.0748,12.503785 1.42661,0.947236 1.95363,2.021632 1.53139,3.121972 -0.77728,2.025536 -4.62055,2.19231 -7.19191,0.312084 z m 12.56578,-0.03746 c -0.73851,-0.889848 -1.05764,-4.456296 -0.87245,-9.75 L 237.5,56.5 l 6.75,-0.161786 c 6.03593,-0.144671 6.75,0.04046 6.75,1.75 C 251,59.333333 250.30257,60 249,60 c -3.76222,0 -6,3.503256 -6,9.393011 0,3.99523 -0.40997,5.550333 -1.58179,6 -2.08228,0.799046 -1.99706,0.819372 -3.33777,-0.796091 z m 16.55387,-0.44851 c -3.6189,-3.998835 -1.18868,-8.597292 5.14784,-9.740753 7.00363,-1.263845 9.02487,-3.3702 5.19889,-5.417807 -1.55642,-0.832968 -2.67639,-0.692167 -4.88854,0.614579 -3.22896,1.907395 -6.37647,1.299171 -5.47216,-1.057437 1.35339,-3.526886 13.53845,-4.470436 16.20704,-1.254991 1.11701,1.345919 1.86819,16.34576 0.86864,17.345313 -0.33666,0.33666 -3.94555,0.770707 -8.01976,0.964548 -6.16229,0.293188 -7.6824,0.04884 -9.04195,-1.453452 z m 10.79426,-2.719839 c 1.91939,-1.919384 2.03612,-4.313023 0.24388,-5.00077 C 263.36538,65.542497 259,67.80886 259,69.891916 c 0,3.137402 3.89644,4.068788 6.42857,1.536655 z"
       id="path5288"
       inkscape:connector-curvature="0" />
    <path
       style="fill:#68508b"
       d="m 25.388117,96.019931 c -1.161535,-0.469313 -3.074035,-2.076476 -4.25,-3.571473 C 19.072055,89.821886 19,88.806398 19,62.315481 19,32.553799 19.322826,30.540832 24.472058,28.194685 26.303561,27.360196 35.454802,27 54.824547,27 c 30.763883,0 31.047145,0.05533 33.781086,6.598574 1.760354,4.213118 2.016647,51.317907 0.305917,56.225308 -0.598647,1.717281 -2.564262,4.034431 -4.368034,5.149223 -3.0886,1.90886 -4.845034,2.023204 -30.16155,1.963509 -14.785081,-0.03486 -27.832313,-0.44737 -28.993849,-0.916683 z M 67.364218,83.62118 C 72.599367,81.433795 75,77.60471 75,71.441867 c 0,-4.221142 -0.518929,-5.905128 -2.571327,-8.344265 -2.406861,-2.860392 -2.470822,-3.199338 -1,-5.299231 2.021652,-2.886312 2.027765,-10.701703 0.01062,-13.581576 -3.028332,-4.323549 -7.129792,-5.516405 -20.677422,-6.013758 -9.333139,-0.342634 -13.14226,-0.132234 -14.25,0.787108 C 35.247662,40.039348 35,43.801376 35,61.955778 c 0,11.940989 0.3,22.010889 0.666667,22.377555 1.330324,1.330325 28.257105,0.725357 31.697551,-0.712153 z M 49.394042,73.584473 c -0.298754,-0.77854 -0.397131,-2.69104 -0.218616,-4.25 0.261456,-2.283269 0.882848,-2.898273 3.195403,-3.162555 6.52706,-0.74592 10.02219,2.356684 7.649386,6.790309 C 59.17114,74.548739 57.933958,75 54.433431,75 51.47855,75 49.751023,74.51475 49.394042,73.584473 Z m 0.645827,-19.036434 c -0.662761,-0.798578 -1.049199,-2.261078 -0.85875,-3.25 C 49.45306,49.885966 50.490416,49.5 54.013695,49.5 c 3.890158,0 4.528739,0.298769 4.805645,2.248388 0.499953,3.52004 -6.364824,5.709122 -8.779471,2.799651 z M 279.22012,69.365917 279.5,56.731834 l 7.18058,-0.361902 c 6.76646,-0.341032 7.29992,-0.210179 9.25,2.268941 2.81175,3.57456 2.78015,10.187865 -0.066,13.806115 -1.90701,2.424379 -2.68237,2.679429 -7.25,2.384858 L 283.5,74.5 l -0.31037,3.75 c -0.24489,2.958927 -0.72583,3.75 -2.27987,3.75 -1.87019,0 -1.9554,-0.637123 -1.68964,-12.634083 z m 13.22318,0.411577 c 4.37472,-6.245787 -2.63471,-14.44323 -7.87187,-9.206065 -1.79315,1.79315 -2.06661,6.634799 -0.53625,9.494312 1.46332,2.73423 6.40987,2.564652 8.40812,-0.288247 z M 107.22097,61.75 107.5,48.5 l 6,-0.310818 c 8.5239,-0.441563 12.22835,0.4666 14.20428,3.482242 1.58624,2.420904 1.58555,2.758461 -0.0113,5.5408 -1.62544,2.832169 -1.61206,3.075189 0.30329,5.510168 3.30242,4.198345 2.48781,8.458803 -2.06779,10.814593 C 124.1304,74.466808 120.15506,75 115.02063,75 l -8.07868,0 0.27902,-13.25 z m 16.95913,6.754062 c 1.72662,-3.789513 -1.28461,-6.697096 -6.52651,-6.301873 -4.55413,0.343368 -6.2441,2.308904 -5.28179,6.143034 0.61,2.430436 1.08903,2.654777 5.66869,2.654777 4.36329,0 5.14768,-0.318878 6.13961,-2.495938 z m -2.15718,-10.52698 c 1.60672,-1.606721 1.80522,-2.429685 0.96481,-4 -1.52231,-2.84447 -9.57403,-2.855887 -10.47574,-0.01486 -1.67939,5.291283 5.29176,8.23402 9.51093,4.014855 z m 15.56597,13.946193 C 132.0169,65.301333 136.26847,56 144.86731,56 c 6.11859,0 9.63269,3.465694 9.63269,9.5 0,6.171528 -3.49205,9.5 -9.96687,9.5 -3.63578,0 -4.78307,-0.508321 -6.94424,-3.076725 z m 11.37593,-1.857534 C 151.57374,65.190924 149.44776,59 145.16482,59 141.34963,59 140,60.698535 140,65.5 c 0,2.255 0.54,4.64 1.2,5.3 1.90147,1.901469 6.59158,1.457962 7.76482,-0.734259 z m 13.48973,2.479714 C 160.56136,70.652265 160,69.040965 160,65.5 160,59.203458 163.14215,56 169.31818,56 175.47659,56 179,59.523407 179,65.681818 179,71.857852 175.79654,75 169.5,75 c -3.54097,0 -5.15227,-0.561356 -7.04545,-2.454545 z m 10.71671,-2.200443 c 2.23878,-2.02607 2.36144,-6.139457 0.27204,-9.122506 C 170.3035,56.739823 164,59.650873 164,65.583559 c 0,5.711571 5.16077,8.390895 9.17126,4.761453 z m 14.88049,3.708134 c -0.95073,-0.601475 -1.59709,-3.253747 -1.88152,-7.720613 -0.30078,-4.723681 -0.92818,-7.172018 -2.05175,-8.00663 -1.48814,-1.105422 -1.48434,-1.307893 0.0472,-2.514074 0.9161,-0.721506 1.82227,-2.211829 2.0137,-3.311829 0.20995,-1.206447 1.13074,-2 2.32066,-2 1.1881,0 2.11321,0.795401 2.32614,2 0.19443,1.1 1.28797,2.733412 2.43007,3.629804 l 2.07656,1.629805 -2.16639,0.687583 C 191.26716,59.049982 191,59.862055 191,65.032204 c 0,4.873973 0.34709,6.083183 2,6.967796 1.1,0.588702 2,1.504535 2,2.035184 0,1.221491 -5.02534,1.234482 -6.94825,0.01796 z m 13.38938,-0.485825 c -1.53609,-1.133734 -1.68523,-1.692192 -0.71476,-2.676372 0.97651,-0.990302 1.62065,-0.886876 3.16157,0.507636 1.15187,1.042428 3.08413,1.619792 4.77363,1.426371 2.25923,-0.258647 2.83843,-0.82612 2.83843,-2.780981 0,-2.039399 -0.73945,-2.670117 -4.3591,-3.718103 -2.39751,-0.694142 -4.98501,-1.781531 -5.75,-2.416419 -2.02072,-1.677046 -1.70503,-5.670969 0.54336,-6.874269 4.02764,-2.15553 14.06574,-0.728218 14.06574,2 0,1.27475 -3.70834,1.245756 -4.5,-0.03518 -0.33992,-0.55 -1.97277,-1 -3.62857,-1 -2.55005,0 -2.96165,0.344154 -2.69098,2.25 0.23711,1.669539 1.48412,2.636974 4.8337,3.75 2.48279,0.825 5.07029,1.864058 5.75,2.309017 1.8307,1.19842 1.49826,5.143528 -0.59289,7.035995 -2.30463,2.085662 -11.01441,2.226684 -13.73013,0.222309 z m 23.59405,-0.50158 C 224.46583,72.001899 224,68.774833 224,65.894482 c 0,-3.417917 -0.56108,-5.856982 -1.61529,-7.021878 -1.48706,-1.643178 -1.48706,-1.913114 0,-3.400169 C 223.27312,54.584024 224,52.957988 224,51.85902 c 0,-2.732597 4.34232,-2.155637 4.82414,0.64098 0.18952,1.1 1.09412,2.590323 2.01022,3.311829 1.54972,1.220536 1.54385,1.402189 -0.0844,2.610243 -2.69364,1.998551 -2.48677,12.113251 0.27801,13.592918 C 233.69552,73.442622 232.62501,75 228.97613,75 227.1267,75 225.694,74.296818 225.03514,73.065741 Z M 238,66.059017 c 0,-4.917541 0.4317,-9.207785 0.95932,-9.533877 0.52763,-0.326092 1.87763,-0.0194 3,0.68153 1.62972,1.017777 2.44071,1.0246 4.02711,0.03388 C 248.77299,55.500314 250,55.694276 250,57.875 c 0,1.285613 -0.94821,2.064641 -3.0165,2.4783 C 243.43575,61.062849 242,64.004883 242,70.5651 242,74.333333 241.69935,75 240,75 c -1.85087,0 -2,-0.666667 -2,-8.940983 z M 255.2,73.8 c -0.66,-0.66 -1.2,-2.469647 -1.2,-4.021439 0,-3.051783 1.30975,-3.887536 8.5,-5.42388 3.37209,-0.720514 4,-1.247128 4,-3.354681 0,-2.010132 -0.56273,-2.564306 -2.87182,-2.828178 -1.5795,-0.180497 -3.357,0.157003 -3.95,0.75 C 258.33895,60.261053 255,60.341962 255,59.035184 255,57.292734 258.78109,56 263.87755,56 270.62666,56 272,57.982031 272,67.722506 c 0,7.60772 -0.1863,7.870437 -4.71949,6.655186 -2.04253,-0.547557 -2.11327,-0.805606 -0.88721,-3.236346 C 268.15926,67.640218 267.43013,66 264.1078,66 c -3.96902,0 -6.50798,2.163797 -5.66296,4.826196 C 258.8243,72.021788 259.75289,73 260.50837,73 c 0.75548,0 1.65171,0.45 1.99163,1 0.89086,1.441443 -5.84305,1.256952 -7.3,-0.2 z"
       id="path5286"
       inkscape:connector-curvature="0" />
    <path
       style="fill:#583e80"
       d="M 22.923077,93.076923 20,90.153846 20,61.713287 20,33.272727 22.636364,30.636364 25.272727,28 l 28.64113,0 c 31.230296,0 31.628947,0.0678 33.995922,5.782188 0.840348,2.028778 1.098785,10.651935 0.887817,29.623343 L 88.5,90.167033 85.234223,93.083517 81.968447,96 53.9073,96 25.846154,96 22.923077,93.076923 Z m 44.204799,-8.489605 c 1.854668,-0.776976 4.402444,-2.512447 5.661725,-3.856604 4.111886,-4.389031 4.190775,-14.227907 0.148868,-18.566385 -1.874913,-2.012483 -1.91363,-2.361704 -0.487556,-4.39771 2.031401,-2.900232 1.97874,-10.23069 -0.09876,-13.747618 C 69.563412,39.298039 64.909098,37.826333 50.938477,37.247945 32.559418,36.487045 34,34.438476 34,61.335184 34,77.31893 34.338529,83.938529 35.2,84.8 c 1.796476,1.796476 27.541306,1.624981 31.927876,-0.212682 z M 50,70.5 c 0,-3.398246 0.11273,-3.5 3.877555,-3.5 4.404838,0 6.597968,1.926398 5.637676,4.952012 C 58.988937,73.610217 58.021587,74 54.432612,74 50.033436,74 50,73.973599 50,70.5 Z M 50.666667,54.333333 C 50.3,53.966667 50,52.841667 50,51.833333 50,50.361111 50.787879,50 54,50 c 3.257976,0 4,0.351165 4,1.893011 0,2.571111 -5.404187,4.369469 -7.333333,2.440322 z M 280,69 c 0,-6.6 0.3375,-11.993109 0.75,-11.984687 0.4125,0.0084 1.35896,0.401194 2.10325,0.872826 1.08181,0.685514 1.11267,1.307015 0.15388,3.098537 -0.70079,1.309444 -0.94215,3.752551 -0.5806,5.877174 0.77376,4.54708 0.77226,5.7254 -0.0133,10.38615 C 281.15686,84.70422 280,80.749336 280,69 Z M 141.357,74.008419 C 132.54979,70.45427 135.21957,57 144.73204,57 c 5.03067,0 8.03502,2.241387 8.85369,6.605268 0.89466,4.76896 -0.84228,8.186152 -5.05585,9.946693 -3.91389,1.635331 -4.20562,1.653895 -7.17288,0.456458 z m 8.0863,-3.230925 C 152.85743,65.90313 150.27743,58 145.27204,58 141.20357,58 139,60.664347 139,65.583559 c 0,2.551743 0.63313,4.906718 1.57143,5.845012 2.33247,2.33247 7.02322,1.98823 8.87187,-0.651077 z m 15.94105,2.810822 C 159.96848,71.191594 158.94084,64.080322 163.31235,59.25 164.8011,57.604998 166.46488,57 169.5,57 c 5.50318,0 8.5,3.046227 8.5,8.640137 0,6.766687 -6.30675,10.7401 -12.61565,7.948179 z m 7.63836,-1.600469 c 3.69306,-1.976467 3.41566,-10.659784 -0.42241,-13.222534 -1.84366,-1.23104 -6.28501,-0.850145 -7.52625,0.645457 -0.64396,0.775924 -1.43152,3.017209 -1.75014,4.980633 -1.07964,6.653038 4.01119,10.640358 9.6988,7.596444 z M 289,74 c -1.21575,-0.78568 -1.0785,-0.972276 0.72432,-0.984687 2.24091,-0.01543 5.27568,-4.282888 5.27568,-7.4186 0,-2.970114 -2.33797,-6.544352 -4.89449,-7.482596 L 287.5,57.157895 l 3.1933,-0.07895 c 4.20437,-0.103944 6.3067,2.919859 6.3067,9.070979 0,3.891724 -0.4554,5.063135 -2.63486,6.777494 C 291.3764,75.278362 291.07222,75.339173 289,74 Z M 108,61.5 108,49 l 7.77749,0 c 5.42078,0 8.45096,0.471709 10,1.556704 2.56694,1.797954 2.88646,4.647379 0.72251,6.443296 -2.07535,1.722388 -1.87496,4.234467 0.5,6.267972 2.00737,1.718765 2.60665,5.277624 1.23469,7.332324 C 126.65218,72.970314 122.81507,74 115.56574,74 L 108,74 108,61.5 Z m 16.61,7.665577 c 1.59859,-3.220936 0.61161,-6.124631 -2.49669,-7.345282 L 119.5,60.794034 l 2.25,-0.864793 c 1.6197,-0.622534 2.25,-1.679925 2.25,-3.774572 0,-3.937815 -2.02148,-5.336657 -7.1761,-4.965778 -4.2423,0.305238 -4.32992,0.384675 -4.6431,4.209323 -0.19961,2.437738 0.17504,4.217338 1,4.75 0.94003,0.606965 0.99866,1.067351 0.20398,1.601786 -1.84097,1.23808 -2.5008,4.814652 -1.41506,7.670345 0.9515,2.502645 1.37499,2.66402 6.25116,2.382082 4.32023,-0.249794 5.43216,-0.708698 6.38912,-2.63685 z m 62.99699,3.252636 C 187.27314,71.548229 187,68.263229 187,65.118213 c 0,-3.145017 -0.48921,-6.207423 -1.08713,-6.805345 -0.78285,-0.782843 -0.78285,-1.275194 0,-1.759017 C 186.51079,56.184314 187,54.783524 187,53.440983 187,51.937887 187.57634,51 188.5,51 c 0.92366,0 1.5,0.937887 1.5,2.440983 0,1.342541 0.48921,2.743331 1.08713,3.112868 0.78285,0.483823 0.78285,0.976174 0,1.759017 C 190.48921,58.91079 190,61.984483 190,65.143296 c 0,4.801341 0.36451,5.99861 2.22251,7.3 C 194.43745,73.994705 194.43441,74 191.3295,74 c -1.91846,0 -3.34874,-0.607764 -3.72251,-1.581787 z M 202,72.5 c -0.69443,-0.83674 -0.80272,-1.5 -0.24489,-1.5 0.55,0 1.5602,0.675 2.24489,1.5 0.69443,0.83674 0.80272,1.5 0.24489,1.5 -0.55,0 -1.5602,-0.675 -2.24489,-1.5 z m 9.75,0.837719 c 0.6875,-0.277412 1.25,-1.536786 1.25,-2.798608 0,-2.905967 -1.42341,-4.055693 -6.8015,-5.493748 -4.54803,-1.216107 -6.15821,-3.300354 -4.5362,-5.871767 1.70434,-2.701948 2.85777,-2.290531 2.84756,1.015704 -0.009,3.015627 0.30034,3.286055 5.49014,4.794793 4.35461,1.26594 5.56805,2.070304 5.82676,3.862454 0.38871,2.692634 -1.42794,5.184677 -3.6992,5.074506 -1.03633,-0.05027 -1.17348,-0.262174 -0.37756,-0.583334 z m 13.91667,-0.0044 C 225.3,72.966667 225,70.012083 225,66.767592 c 0,-3.244491 -0.43363,-6.709313 -0.96361,-7.699603 -0.64191,-1.199412 -0.56872,-2.846742 0.21923,-4.934259 C 225.65994,50.413277 228,49.980342 228,53.440983 c 0,1.342541 0.48921,2.743331 1.08713,3.112868 0.78285,0.483823 0.78285,0.976174 0,1.759017 C 228.48921,58.91079 228,61.984483 228,65.143296 c 0,4.801341 0.36451,5.99861 2.22251,7.3 C 232.44142,73.997487 232.44008,74 229.38917,74 c -1.68071,0 -3.35584,-0.3 -3.7225,-0.666667 z M 239,65.583333 C 239,60.8625 239.38026,57 239.84501,57 c 1.62584,0 4.15142,3.603387 3.19862,4.563654 -0.51098,0.51499 -1.06734,3.375975 -1.23635,6.357743 -0.18204,3.211841 -0.81673,5.589287 -1.55728,5.833334 -0.93491,0.308097 -1.25,-1.751698 -1.25,-8.171398 z m 15.9348,6.294832 c -0.94653,-1.768595 -0.76851,-2.476127 1.06932,-4.25 L 258.20901,65.5 l -0.6599,2.212227 c -0.36295,1.216725 -0.16915,3.129225 0.43067,4.25 C 258.85181,73.591618 258.76976,74 257.57037,74 c -0.825,0 -2.01101,-0.954826 -2.63557,-2.121835 z m 12.98,1.371835 c -0.0469,-0.4125 -0.0553,-3.878648 -0.0187,-7.702551 0.0429,-4.480619 -0.37129,-7.230634 -1.1648,-7.734687 -0.89753,-0.570129 -0.81113,-0.786287 0.31872,-0.797449 2.99849,-0.02962 3.95,2.303302 3.95,9.684687 0,5.822222 -0.30365,7.3 -1.5,7.3 -0.825,0 -1.53834,-0.3375 -1.5852,-0.75 z M 211.5,58 c -0.78218,-1.265597 0.54163,-1.265597 2.5,0 1.29269,0.835399 1.26629,0.971491 -0.19098,0.984687 C 212.87898,58.993109 211.83992,58.55 211.5,58 Z m 35,0 c 0.33992,-0.55 1.29303,-1 2.11803,-1 0.825,0 1.22189,0.45 0.88197,1 -0.33992,0.55 -1.29303,1 -2.11803,1 -0.825,0 -1.22189,-0.45 -0.88197,-1 z m 11,0 c 0.33992,-0.55 1.06803,-1 1.61803,-1 0.55,0 0.72189,0.45 0.38197,1 -0.33992,0.55 -1.06803,1 -1.61803,1 -0.55,0 -0.72189,-0.45 -0.38197,-1 z"
       id="path5284"
       inkscape:connector-curvature="0" />
    <path
       style="fill:#563c7e"
       d="M 24.360323,93.539827 C 20.251246,90.661717 19.887567,87.736739 20.201648,60.092609 L 20.5,33.832894 23.765777,30.916447 27.031553,28 53.703897,28 c 25.95248,0 26.760209,0.06021 29.92794,2.23077 1.790578,1.226924 3.499779,3.139424 3.798225,4.25 0.298446,1.110577 0.548773,13.866345 0.556283,28.346153 L 88,89.153846 85.076923,92.076923 82.153846,95 54.299429,95 C 31.496078,95 26.066979,94.735215 24.360323,93.539827 Z M 69.045596,84.805054 C 74.277908,82.543968 76,79.24929 76,71.5 76,67.285399 75.451208,64.092071 74.469388,62.593624 73.189744,60.64064 73.132506,59.533279 74.120302,55.840019 76.468809,47.059214 73.107598,40.234133 65.377725,38.087847 63.244976,37.495666 55.3125,37.008644 47.75,37.005577 L 34,37 34,61.333333 c 0,13.383334 0.3375,24.680294 0.75,25.104356 1.380163,1.418848 30.43495,0.0357 34.295596,-1.632635 z M 51,70.5 c 0,-3.692991 0.93559,-4.159926 5.75,-2.869714 C 61.192612,68.82086 58.794002,74 53.8,74 51.266667,74 51,73.666667 51,70.5 Z M 51,52 c 0,-1.555556 0.666667,-2 3,-2 2.333333,0 3,0.444444 3,2 0,1.555556 -0.666667,2 -3,2 -2.333333,0 -3,-0.444444 -3,-2 z M 280,69.559017 C 280,62.519672 280.39101,58 281,58 c 0.60573,0 1,4.313661 1,10.940983 0,6.215299 -0.43192,11.207927 -1,11.559017 -0.64464,0.398407 -1,-3.489616 -1,-10.940983 z M 109,61.5 c 0,-8.53325 0.32247,-11.50004 1.25,-11.500157 0.92755,-1.16e-4 1.25,2.966424 1.25,11.499829 0,8.533229 -0.32247,11.500029 -1.25,11.500156 C 109.32245,72.999956 109,70.033425 109,61.5 Z m 14.75,10.53113 c 1.76095,-0.756566 2.25,-1.781013 2.25,-4.713192 0,-3.529048 0.0989,-3.647639 1.70339,-2.043122 1.60451,1.604517 1.58385,1.86364 -0.35598,4.464286 -1.13265,1.518494 -2.91168,2.872906 -3.95339,3.009804 -1.45853,0.191676 -1.37668,0.02664 0.35598,-0.717776 z M 187.81416,64.75 c -0.18598,-4.5375 -0.0339,-9.375 0.3379,-10.75 0.81652,-3.019528 0.89207,-2.352566 1.16113,10.250345 0.23705,11.103702 -1.04687,11.531656 -1.49903,0.499655 z m 37.79283,6.668213 C 224.57405,68.726428 224.91525,51 226,51 c 0.55,0 1.01991,1.2375 1.04425,2.75 0.0243,1.5125 0.13684,6.462676 0.25,11.000392 0.19641,7.875766 -0.36793,10.105945 -1.68726,6.667821 z M 240,65.5 c 0,-4.308333 0.29053,-7.542808 0.64561,-7.187721 0.71432,0.714321 0.54764,13.827801 -0.18507,14.560514 C 240.20724,73.12609 240,69.808333 240,65.5 Z m 15.33583,5.932783 c -0.33077,-0.86197 -0.0916,-2.07697 0.53139,-2.7 C 256.71093,67.889072 257,68.289008 257,70.3 c 0,3.008702 -0.74874,3.518359 -1.66417,1.132783 z M 269.33621,66 c 0,-4.125 0.17651,-5.8125 0.39226,-3.75 0.21574,2.0625 0.21574,5.4375 0,7.5 -0.21575,2.0625 -0.39226,0.375 -0.39226,-3.75 z m 24.63919,5.143431 c 0.66497,-1.296113 1.05346,-4.312692 0.86331,-6.703508 -0.22597,-2.841172 -0.006,-4.0072 0.63505,-3.366158 1.71155,1.711549 1.14203,8.746108 -0.8633,10.663248 -1.77661,1.698477 -1.79985,1.676757 -0.63506,-0.593582 z M 214,69.5 c 0,-1.490712 0.4306,-2.351909 1,-2 0.55,0.339919 1,1.239919 1,2 0,0.760081 -0.45,1.660081 -1,2 -0.5694,0.351909 -1,-0.509288 -1,-2 z m -62.5,-4 c 0,-2.369959 0.3375,-4.100431 0.75,-3.845492 0.4125,0.25494 0.75,1.985411 0.75,3.845492 0,1.860081 -0.3375,3.590552 -0.75,3.845492 C 151.8375,69.600431 151.5,67.869959 151.5,65.5 Z m 9.89466,1.936307 c -0.3539,-1.410031 -0.24997,-3.445508 0.23095,-4.523283 0.65913,-1.477175 0.87439,-0.846041 0.87439,2.563693 0,5.188042 -0.20419,5.550046 -1.10534,1.95959 z M 136.5064,67.020179 c -0.3456,-1.088901 -0.16461,-2.776401 0.40221,-3.75 0.84094,-1.444448 1.03617,-1.08014 1.06098,1.979821 0.0336,4.144898 -0.50331,4.794474 -1.46319,1.770179 z m 40.06503,-2.591608 c -0.36782,-1.465513 -0.47591,-2.857426 -0.24019,-3.09314 0.23571,-0.235714 0.72951,0.770485 1.09733,2.235998 0.36782,1.465513 0.47591,2.857426 0.24019,3.09314 -0.23571,0.235714 -0.72951,-0.770485 -1.09733,-2.235998 z m 24.87472,-2.515703 c -0.36954,-0.597923 -0.17109,-1.587923 0.44098,-2.2 C 202.70429,58.895711 203,59.184583 203,60.8 c 0,2.414511 -0.51946,2.786548 -1.55385,1.112868 z M 125,54.608707 c 0,-1.38013 -0.7875,-2.968003 -1.75,-3.528608 -1.44057,-0.839056 -1.47593,-1.024658 -0.2,-1.04969 3.16457,-0.06208 5.44091,4.930124 2.95,6.469591 -0.56519,0.349305 -1,-0.473052 -1,-1.891293 z"
       id="path5282"
       inkscape:connector-curvature="0" />
  </g>
</svg>
