<?xml version="1.0" encoding="UTF-8" standalone="no"?>
<!-- Created with Inkscape (http://www.inkscape.org/) -->

<svg
   xmlns:dc="http://purl.org/dc/elements/1.1/"
   xmlns:cc="http://creativecommons.org/ns#"
   xmlns:rdf="http://www.w3.org/1999/02/22-rdf-syntax-ns#"
   xmlns:svg="http://www.w3.org/2000/svg"
   xmlns="http://www.w3.org/2000/svg"
   xmlns:xlink="http://www.w3.org/1999/xlink"
   xmlns:sodipodi="http://sodipodi.sourceforge.net/DTD/sodipodi-0.dtd"
   xmlns:inkscape="http://www.inkscape.org/namespaces/inkscape"
   id="svg4115"
   version="1.1"
   inkscape:version="0.91 r13725"
   width="473"
   height="123"
   viewBox="0 0 473 123"
   sodipodi:docname="Capacitor.bmp.svg">
  <metadata
     id="metadata4121">
    <rdf:RDF>
      <cc:Work
         rdf:about="">
        <dc:format>image/svg+xml</dc:format>
        <dc:type
           rdf:resource="http://purl.org/dc/dcmitype/StillImage" />
        <dc:title></dc:title>
      </cc:Work>
    </rdf:RDF>
  </metadata>
  <defs
     id="defs4119" />
  <sodipodi:namedview
     pagecolor="#ffffff"
     bordercolor="#666666"
     borderopacity="1"
     objecttolerance="10"
     gridtolerance="10"
     guidetolerance="10"
     inkscape:pageopacity="0"
     inkscape:pageshadow="2"
     inkscape:window-width="640"
     inkscape:window-height="480"
     id="namedview4117"
     showgrid="false"
     inkscape:zoom="0.55391121"
     inkscape:cx="236.5"
     inkscape:cy="61.5"
     inkscape:window-x="0"
     inkscape:window-y="0"
     inkscape:window-maximized="0"
     inkscape:current-layer="svg4115" />
  <image
     width="473"
     height="123"
     preserveAspectRatio="none"
     style="image-rendering:optimizeQuality"
     xlink:href="file:///media/havoc/USB%20DISK/pics/_OpsDeps/Capacitor.bmp"
     id="image4123"
     x="0"
     y="0"
     sodipodi:absref="/media/havoc/USB DISK/pics/_OpsDeps/Capacitor.bmp" />
  <g
     id="g5206">
    <path
       style="fill:#fcfcfc"
       d="M 0,61.5 0,0 236.5,0 473,0 473,61.5 473,123 236.5,123 0,123 0,61.5 Z"
       id="path5222"
       inkscape:connector-curvature="0" />
    <path
       style="fill:#a1d2f1"
       d="M 204.70896,96.375627 C 204.31903,95.985699 204,83.646767 204,68.955778 c 0,-30.413541 -0.2308,-29.560329 7.72608,-28.561997 6.81039,0.854483 7.21689,0.837974 12.94623,-0.525763 6.24758,-1.487092 11.54355,-0.240156 16.42492,3.867251 4.81412,4.050817 6.85791,9.488935 6.86436,18.264731 0.006,8.740589 -2.08515,13.395988 -8.24865,18.359808 -3.2888,2.648653 -4.60451,3.055873 -10,3.095064 -3.41712,0.02482 -7.42985,-0.335987 -8.91717,-0.801794 l -2.70424,-0.846921 -0.29576,7.346921 L 217.5,96.5 l -6.04104,0.292294 c -3.32257,0.160761 -6.36007,-0.02674 -6.75,-0.416667 z M 231.478,69.75 c 5.09951,-4.430894 4.20308,-14.312197 -1.56919,-17.297158 -4.0446,-2.091543 -5.69379,-1.821703 -8.98573,1.470235 C 218.47367,56.372488 218,57.654431 218,61.834183 c 0,4.342267 0.39832,5.323194 3.07673,7.576923 3.78304,3.183223 7.00684,3.28826 10.40127,0.338894 z M 27.534796,89.896408 C 25.590658,88.189432 24,86.264863 24,85.619588 24,84.974313 27.15,81.320499 31,77.5 c 3.85,-3.820499 7,-7.420499 7,-8 0,-0.579501 -3.15,-4.179501 -7,-8 C 27.15,57.679501 24,54.067345 24,53.472986 24,52.250883 30.173833,46 31.380872,46 32.963769,46 71,83.440604 71,84.998713 71,86.727292 65.053489,93 63.414801,93 62.870309,93 60.191733,90.71429 57.462408,87.920645 54.733084,85.127 51.235499,81.927131 49.689998,80.809826 l -2.810001,-2.031464 -7.333419,7.110819 C 35.513198,89.800131 31.955857,93 31.641376,93 31.326895,93 29.478934,91.603384 27.534796,89.896408 Z M 128.17589,82.921394 c -1.82826,-0.559343 -5.21234,-2.907978 -7.52017,-5.21919 -7.19484,-7.20539 -8.67622,-17.35809 -3.90572,-26.768023 3.23993,-6.39085 9.63095,-10.884651 16.59661,-11.669781 8.99119,-1.013438 18.55154,4.474353 21.96084,12.605869 l 1.41305,3.37027 1.00527,-2.883724 c 2.42561,-6.958107 10.91884,-13.28579 17.8985,-13.334853 1.71835,-0.01208 5.04432,0.655468 7.39103,1.483438 3.05386,1.077462 4.63099,1.203119 5.54804,0.442035 0.7047,-0.58485 3.45373,-0.92478 6.10897,-0.755399 L 199.5,40.5 l 0,21 0,21 -4.82769,0.307964 c -2.65524,0.169381 -5.40517,-0.171298 -6.11098,-0.757062 -0.92346,-0.766406 -2.37168,-0.610262 -5.16506,0.556884 -9.09815,3.801454 -20.44094,-0.562 -24.50835,-9.428116 l -2.23596,-4.873937 -2.42265,4.861634 c -3.15167,6.324577 -8.94786,9.873727 -16.97892,10.396615 -3.16271,0.205919 -7.24624,-0.08325 -9.0745,-0.642588 z m 13.43797,-14.558779 c 1.92003,-2.319799 2.67667,-2.522287 8.25182,-2.208299 l 6.13796,0.345684 2.8e-4,-5 2.8e-4,-5 -6.38914,0.330326 c -5.39201,0.278774 -6.60184,0.03043 -7.75209,-1.591301 C 136.6432,47.879758 128,51.63013 128,61.254303 c 0,2.682449 0.47942,5.772979 1.06537,6.867845 2.38663,4.459465 8.95241,4.585285 12.54849,0.240467 z m 42.58588,0.591489 c 2.7759,-2.775903 3.00299,-3.492434 2.56185,-8.083448 C 186.15194,54.525849 183.51067,51.6 178.39263,51.6 c -8.07286,0 -11.61815,11.328323 -5.46955,17.476923 3.83503,3.835028 7.35718,3.796667 11.27666,-0.122819 z m 78.93994,14.38351 c -3.83593,-0.821736 -10.86501,-8.60644 -12.18858,-13.498853 -1.92568,-7.118036 -0.74282,-16.861941 2.65734,-21.889991 5.12025,-7.571671 14.62459,-10.659104 22.98455,-7.466405 3.36617,1.285552 4.87172,1.452921 5.69189,0.632758 1.28299,-1.28299 8.59725,-1.476648 10.48639,-0.277646 0.97546,0.619105 1.20815,5.560193 1,21.234687 L 293.5,82.5 l -5.33118,0.305075 c -3.07106,0.175741 -5.93267,-0.194126 -6.75,-0.872445 -1.09052,-0.905058 -1.75726,-0.896643 -2.88146,0.03637 -1.57681,1.308633 -11.54266,2.194445 -15.39768,1.368618 z M 275.387,71.042961 C 278.13336,69.998798 281,65.355294 281,61.950789 281,56.625536 276.13499,51 271.52967,51 c -2.70127,0 -7.45187,5.068395 -8.12783,8.67153 -1.12756,6.010412 2.90205,11.977226 8.28306,12.265084 0.6517,0.03486 2.31764,-0.367282 3.7021,-0.893653 z m 35.29798,12.000145 c -4.50501,-1.448181 -9.52971,-5.824901 -11.88354,-10.351038 -3.35317,-6.447765 -3.12731,-16.753925 0.50292,-22.948439 C 303.30118,42.923559 309.54952,39.5 318,39.5 c 8.4311,0 14.57788,3.343174 17.99709,9.788445 C 339.25873,55.436688 338.38303,57 331.67741,57 c -4.31236,0 -5.90615,-0.482646 -7.99916,-2.422384 -3.89617,-3.61085 -6.4855,-4.109678 -9.54842,-1.839481 -3.74519,2.775884 -5.17327,7.673264 -3.71065,12.725054 1.97508,6.821747 8.16344,8.167606 13.63554,2.965488 C 326.09112,66.492745 327.66986,66 331.8361,66 c 6.45008,0 7.29979,1.482289 4.34093,7.572529 -3.03078,6.238245 -8.46627,9.557972 -16.39653,10.014189 -3.45428,0.198719 -7.54726,-0.04591 -9.09552,-0.543612 z M 390.6838,82.612533 C 380.63979,78.86893 376.61501,71.860627 377.23819,59.199815 l 0.40855,-8.300185 -3.07337,0.300185 L 371.5,51.5 371,67 l -0.5,15.5 -6,0 -6,0 0,-26 0,-26 6,0 6,0 0.5,4.5 c 0.45816,4.123478 0.75101,4.528322 3.5,4.838485 4.06855,0.459048 5.5,1.854553 5.5,5.361883 l 0,2.955478 4.13027,-3.535361 c 5.58786,-4.782994 12.74823,-6.413515 20.52347,-4.673493 11.72719,2.62443 19.37146,14.953141 16.45442,26.537759 -1.61573,6.416619 -5.37956,11.737471 -10.23193,14.464654 -5.13294,2.884875 -14.7822,3.679626 -20.19243,1.663128 z m 14.39312,-13.53561 c 5.64337,-5.643367 3.13365,-15.731049 -4.38309,-17.617632 -3.28422,-0.824285 -8.51701,1.945446 -9.73679,5.153705 -4.11792,10.830958 6.43636,20.147452 14.11988,12.463927 z m -63.6109,12.695131 c -0.28038,-0.730661 -0.38743,-10.295818 -0.2379,-21.255903 L 341.5,40.588723 344,39.894041 c 1.375,-0.382074 1.95503,-0.739537 1.28896,-0.794361 C 342.90395,38.903372 340,34.627169 340,31.311439 340,26.910737 342.98581,24 347.5,24 c 4.59815,0 7.5,2.901847 7.5,7.5 0,3.503629 -2.68852,7.395417 -5.25,7.59968 -0.6875,0.05482 -0.125,0.412612 1.25,0.795085 l 2.5,0.695405 0,20.954915 0,20.954915 -5.7621,0.300265 c -4.09122,0.213195 -5.90992,-0.08496 -6.27188,-1.028211 z m 83,0 c -0.28038,-0.730661 -0.38743,-10.31578 -0.2379,-21.300264 L 424.5,40.5 l 4.82769,-0.307964 c 2.69996,-0.172234 5.45416,0.211954 6.2491,0.871694 1.09263,0.906805 2.09065,0.90245 4.31481,-0.01883 1.59138,-0.65917 4.17928,-1.051432 5.75091,-0.871695 2.74985,0.314485 2.85749,0.530027 2.85749,5.72202 l 0,5.395226 -4.64261,1.35372 c -2.55343,0.744546 -5.01514,2.141695 -5.47046,3.104775 C 437.93162,56.712025 437.32079,63.125 437.02954,70 L 436.5,82.5 l -5.7621,0.300265 c -4.09122,0.213195 -5.90992,-0.08496 -6.27188,-1.028211 z M 58.240383,57.74062 C 47.658172,47.147962 39,38.16362 39,37.775417 39,36.228604 45.312712,30 46.880412,30 c 0.920275,0 4.799089,3.15 8.619588,7 3.820499,3.85 7.420499,7 8,7 0.579501,0 4.179501,-3.15 8,-7 3.820499,-3.85 7.280271,-7 7.688384,-7 C 80.483198,30 87,36.157072 87,37.380412 87,38.025687 83.85,41.679501 80,45.5 c -3.85,3.820499 -7,7.420499 -7,8 0,0.579501 3.15,4.179501 7,8 3.85,3.820499 7,7.432655 7,8.027014 C 87,71.111162 80.650773,77 78.942776,77 78.13867,77 68.822594,68.333279 58.240383,57.74062 Z"
       id="path5220"
       inkscape:connector-curvature="0" />
    <path
       style="fill:#75c7fb"
       d="m 205.03518,95.065741 c -1.23734,-2.311989 -1.41114,-50.924943 -0.18895,-52.851173 1.20178,-1.894079 7.27936,-2.480628 10.13643,-0.97827 2.11729,1.113354 3.29464,1.025247 8,-0.598683 4.70927,-1.625278 6.14172,-1.73202 9.78047,-0.728809 9.27779,2.557904 15.17695,11.030446 15.21491,21.852092 0.0594,16.935611 -12.90774,26.003854 -28.22804,19.740564 -1.56681,-0.640547 -1.75,0.0076 -1.75,6.191549 0,4.038769 -0.49832,7.405305 -1.2,8.106989 -0.66,0.66 -3.34417,1.2 -5.96482,1.2 -3.68737,0 -4.99889,-0.437382 -5.8,-1.934259 z m 27.00799,-24.899612 c 1.72479,-1.396654 2.3759,-3.174418 2.73102,-7.456685 0.43311,-5.22277 0.24977,-5.839335 -2.57703,-8.666129 -5.30368,-5.303678 -12.20989,-3.423486 -14.17056,3.857887 -0.56692,2.105388 -0.74583,5.252661 -0.39757,6.993939 1.25481,6.274045 9.46687,9.277045 14.41414,5.270988 z M 55,84.5 C 50.90253,80.375 47.075793,77 46.496139,77 45.916485,77 42.543223,79.925 39,83.5 35.456777,87.075 32.12378,90 31.59334,90 31.062899,90 29.599873,89.033277 28.342171,87.851727 L 26.055439,85.703454 33.02772,77.969251 C 36.862474,73.71544 40,69.832594 40,69.340705 40,68.848816 36.85,65.320499 33,61.5 29.15,57.679501 26,54.057512 26,53.451134 26,52.227621 30.187487,48 31.399384,48 32.660784,48 70,84.273774 70,85.499181 70,86.854492 64.79202,92 63.420254,92 62.886584,92 59.09747,88.625 55,84.5 Z m 75.5,-1.378288 C 121.17821,80.7154 113.96162,71.081588 114.02196,61.124273 c 0.0254,-4.196434 3.12649,-11.577507 6.29011,-14.971591 2.59555,-2.784637 7.94995,-5.641521 12.35425,-6.591721 7.27488,-1.569509 17.74402,3.648492 21.15587,10.544454 C 156.49837,55.514442 155.46492,57 149.02587,57 c -3.89044,0 -5.28603,-0.532093 -7.86845,-3 -7.59385,-7.257087 -16.22912,0.59257 -13.16599,11.968178 1.82076,6.761784 8.49905,8.260638 13.50857,3.031822 2.39364,-2.498422 3.65839,-3 7.56465,-3 6.3895,0 7.65923,1.661241 5.10096,6.673795 -1.07403,2.104413 -2.78818,4.55944 -3.8092,5.455616 -4.99907,4.387794 -13.71202,6.578404 -19.85641,4.992301 z m 39,-0.62386 c -9.06679,-3.205929 -14.74168,-14.632909 -12.60643,-25.38435 2.10791,-10.613808 9.60255,-17.498117 19.04941,-17.498117 2.51882,0 6.08711,0.752009 7.92954,1.671131 2.97799,1.485618 3.58424,1.506966 5.46118,0.192308 2.46666,-1.727719 5.99753,-1.907108 8.73204,-0.44364 1.80959,0.968461 1.93426,2.276896 1.93426,20.3 0,13.650412 -0.34972,19.614536 -1.2,20.464816 -1.47445,1.474447 -7.24173,1.569147 -9.87085,0.162081 -1.41322,-0.75633 -3.16833,-0.620679 -6.46921,0.5 -5.499,1.866959 -7.76343,1.873209 -12.95994,0.03577 z m 14.24881,-12.034464 c 5.24801,-3.675847 4.77339,-15.107746 -0.74571,-17.961786 -4.15842,-2.1504 -7.32457,-1.859787 -10.35708,0.950649 C 170.39233,55.540899 170,56.733824 170,61.497706 c 0,4.605129 0.43361,6.026814 2.45455,8.047749 2.86167,2.861678 7.93096,3.273681 11.29426,0.917933 z m 80.40983,12.592289 C 260.3923,82.108335 254.62676,77.003052 252.23781,72.5 c -1.72337,-3.248449 -2.29549,-15.003975 -0.96243,-19.775211 0.42646,-1.526367 2.39457,-4.567463 4.37358,-6.757992 5.92637,-6.55978 16.49278,-8.424466 23.20341,-4.094774 0.83507,0.538783 2.48197,0.309031 4.30543,-0.60063 3.49724,-1.744652 9.35641,-0.979722 10.24565,1.337594 1.19291,3.108668 0.65673,37.930835 -0.60345,39.191013 -1.7009,1.700898 -9.29326,1.515507 -10.76926,-0.262964 -1.06375,-1.281737 -1.48956,-1.282509 -3.43741,-0.0062 -2.82053,1.848085 -10.09465,2.616519 -14.43469,1.524873 z m 14.25247,-14.132402 c 3.78702,-4.500621 3.64168,-11.024332 -0.33419,-15.000198 C 271.70812,47.554271 263,52.435126 263,62.373615 c 0,8.733751 9.99794,12.982838 15.41111,6.54966 z M 314.5,83.557733 c -0.55,-0.210535 -2.22925,-0.653655 -3.73166,-0.984711 -3.67753,-0.810342 -9.44842,-6.0256 -11.82725,-10.688504 C 297.60183,69.259356 297,66.039668 297,61.5 c 0,-11.118804 5.10025,-18.019735 15.5665,-21.062356 4.92618,-1.432079 5.93231,-1.434552 10.77592,-0.02648 6.75166,1.962762 10.42077,4.841487 12.72202,9.981503 C 338.3629,55.52645 337.29133,57 331.25957,57 c -3.56909,0 -5.19969,-0.618248 -7.91235,-3 -5.50339,-4.83204 -11.08092,-3.366956 -13.34939,3.506564 -3.53365,10.707063 6.89325,19.381703 13.81508,11.493436 2.21711,-2.526658 3.36691,-3 7.28733,-3 5.50208,0 7.37691,1.614804 6.01962,5.184733 -1.31509,3.458955 -5.88998,8.645029 -9.0826,10.295997 -2.74229,1.418097 -11.67729,2.788982 -13.53726,2.077003 z m 78.84024,-0.467853 c -5.18103,-1.312357 -9.62715,-4.42217 -12.8264,-8.971357 C 377.7968,70.255008 377.5,69.077998 377.5,62.166488 c 0,-4.216568 0.38564,-8.453988 0.85699,-9.416488 0.74519,-1.521709 0.32122,-1.75 -3.25,-1.75 L 371,51 l 0,14.8 c 0,10.177778 -0.37477,15.174775 -1.2,16 -1.55432,1.554321 -9.04568,1.554321 -10.6,0 -1.70541,-1.705408 -1.70541,-48.894592 0,-50.6 1.55432,-1.554321 9.04568,-1.554321 10.6,0 0.66,0.66 1.2,2.852486 1.2,4.872192 0,3.497139 0.18647,3.702009 3.91171,4.2977 3.6361,0.581436 3.95925,0.906842 4.58632,4.618419 l 0.67459,3.992912 3.13347,-3.133468 c 4.23697,-4.236968 9.09319,-6.131797 15.7839,-6.158652 10.8931,-0.04372 19.03155,6.402375 21.50225,17.030955 2.25355,9.694472 -2.21649,20.006952 -10.5051,24.235485 -4.45394,2.272231 -12.26993,3.268353 -16.7469,2.134337 z m 12.20521,-13.544425 c 1.99969,-1.999685 2.44866,-3.435867 2.42275,-7.75 -0.0335,-5.580721 -1.06838,-7.723221 -4.65246,-9.632112 C 395.73906,48.127981 388.04259,55.617637 390.12462,65 c 1.01898,4.591903 4.12598,7 9.03162,7 2.84422,0 4.61492,-0.680251 6.38921,-2.454545 z M 342.2,81.8 c -0.85028,-0.85028 -1.2,-6.814404 -1.2,-20.464816 0,-18.023104 0.12467,-19.331539 1.93426,-20.3 2.47656,-1.325414 6.65492,-1.325414 9.13148,0 1.80959,0.968461 1.93426,2.276896 1.93426,20.3 0,13.650412 -0.34972,19.614536 -1.2,20.464816 -1.55432,1.554321 -9.04568,1.554321 -10.6,0 z m 83,0 c -0.85028,-0.85028 -1.2,-6.814404 -1.2,-20.464816 0,-18.023104 0.12467,-19.331539 1.93426,-20.3 2.78694,-1.491525 6.27866,-1.274777 8.88619,0.551609 1.55108,1.086419 2.64609,1.272305 3.47251,0.589486 0.66387,-0.548519 2.8109,-1.296965 4.77117,-1.663215 4.61371,-0.862005 6.16104,0.921316 5.74698,6.623444 -0.29942,4.123332 -0.46141,4.3144 -4.31111,5.084877 -6.64615,1.330159 -7.5,3.230189 -7.5,16.689399 0,7.758279 -0.40354,12.092761 -1.2,12.889216 -1.55432,1.554321 -9.04568,1.554321 -10.6,0 z M 58.5,56.517441 39.5,38.130138 42.946167,34.565069 C 44.841559,32.604281 46.805735,31 47.311004,31 c 0.505268,0 4.461242,3.44744 8.791053,7.660977 l 7.872384,7.660978 6.651585,-7.160978 C 74.284398,35.22244 78.036707,32 78.964491,32 80.808738,32 85,35.972567 85,37.720583 c 0,0.600424 -3.15,4.132749 -7,7.849611 -3.85,3.716861 -7,7.258671 -7,7.870687 0,0.612017 3.15,4.23862 7,8.059119 3.85,3.820499 7,7.442488 7,8.048866 0,1.57524 -4.359997,5.460056 -6.064451,5.403506 C 78.145997,74.926177 68.95,66.630458 58.5,56.517441 Z M 342.45455,36.545455 C 341.10455,35.195455 340,32.925 340,31.5 340,28.241829 344.13985,24 347.31969,24 351.07303,24 355,27.639471 355,31.118035 355,34.837451 351.03917,39 347.5,39 c -1.425,0 -3.69545,-1.104545 -5.04545,-2.454545 z"
       id="path5218"
       inkscape:connector-curvature="0" />
    <path
       style="fill:#5fb7fa"
       d="m 205.03518,95.065741 c -1.23734,-2.311989 -1.41114,-50.924943 -0.18895,-52.851173 1.20178,-1.894079 7.27936,-2.480628 10.13643,-0.97827 2.11729,1.113354 3.29464,1.025247 8,-0.598683 4.70927,-1.625278 6.14172,-1.73202 9.78047,-0.728809 9.27779,2.557904 15.17695,11.030446 15.21491,21.852092 0.0594,16.935611 -12.90774,26.003854 -28.22804,19.740564 -1.56681,-0.640547 -1.75,0.0076 -1.75,6.191549 0,4.038769 -0.49832,7.405305 -1.2,8.106989 -0.66,0.66 -3.34417,1.2 -5.96482,1.2 -3.68737,0 -4.99889,-0.437382 -5.8,-1.934259 z m 27.00799,-24.899612 c 1.72479,-1.396654 2.3759,-3.174418 2.73102,-7.456685 0.43311,-5.22277 0.24977,-5.839335 -2.57703,-8.666129 -5.30368,-5.303678 -12.20989,-3.423486 -14.17056,3.857887 -0.56692,2.105388 -0.74583,5.252661 -0.39757,6.993939 1.25481,6.274045 9.46687,9.277045 14.41414,5.270988 z M 55.091376,83.59199 47.732807,76.183979 49.934498,73.09199 C 51.145428,71.391395 52.678603,70 53.341554,70 c 0.662952,0 4.691654,3.506856 8.952673,7.793013 l 7.747307,7.793013 -2.825486,2.706987 C 65.662031,89.781856 63.953923,91 63.420254,91 62.886584,91 59.138589,87.666395 55.091376,83.59199 Z M 130.5,83.121712 C 121.17821,80.7154 113.96162,71.081588 114.02196,61.124273 c 0.0254,-4.196434 3.12649,-11.577507 6.29011,-14.971591 2.59555,-2.784637 7.94995,-5.641521 12.35425,-6.591721 7.27488,-1.569509 17.74402,3.648492 21.15587,10.544454 C 156.49837,55.514442 155.46492,57 149.02587,57 c -3.89044,0 -5.28603,-0.532093 -7.86845,-3 -7.59385,-7.257087 -16.22912,0.59257 -13.16599,11.968178 1.82076,6.761784 8.49905,8.260638 13.50857,3.031822 2.39364,-2.498422 3.65839,-3 7.56465,-3 6.3895,0 7.65923,1.661241 5.10096,6.673795 -1.07403,2.104413 -2.78818,4.55944 -3.8092,5.455616 -4.99907,4.387794 -13.71202,6.578404 -19.85641,4.992301 z m 39,-0.62386 c -9.06679,-3.205929 -14.74168,-14.632909 -12.60643,-25.38435 2.10791,-10.613808 9.60255,-17.498117 19.04941,-17.498117 2.51882,0 6.08711,0.752009 7.92954,1.671131 2.97799,1.485618 3.58424,1.506966 5.46118,0.192308 2.46666,-1.727719 5.99753,-1.907108 8.73204,-0.44364 1.80959,0.968461 1.93426,2.276896 1.93426,20.3 0,13.650412 -0.34972,19.614536 -1.2,20.464816 -1.47445,1.474447 -7.24173,1.569147 -9.87085,0.162081 -1.41322,-0.75633 -3.16833,-0.620679 -6.46921,0.5 -5.499,1.866959 -7.76343,1.873209 -12.95994,0.03577 z m 14.24881,-12.034464 c 5.24801,-3.675847 4.77339,-15.107746 -0.74571,-17.961786 -4.15842,-2.1504 -7.32457,-1.859787 -10.35708,0.950649 C 170.39233,55.540899 170,56.733824 170,61.497706 c 0,4.605129 0.43361,6.026814 2.45455,8.047749 2.86167,2.861678 7.93096,3.273681 11.29426,0.917933 z m 80.40983,12.592289 C 260.3923,82.108335 254.62676,77.003052 252.23781,72.5 c -1.72337,-3.248449 -2.29549,-15.003975 -0.96243,-19.775211 0.42646,-1.526367 2.39457,-4.567463 4.37358,-6.757992 5.92637,-6.55978 16.49278,-8.424466 23.20341,-4.094774 0.83507,0.538783 2.48197,0.309031 4.30543,-0.60063 3.49724,-1.744652 9.35641,-0.979722 10.24565,1.337594 1.19291,3.108668 0.65673,37.930835 -0.60345,39.191013 -1.7009,1.700898 -9.29326,1.515507 -10.76926,-0.262964 -1.06375,-1.281737 -1.48956,-1.282509 -3.43741,-0.0062 -2.82053,1.848085 -10.09465,2.616519 -14.43469,1.524873 z m 14.25247,-14.132402 c 3.78702,-4.500621 3.64168,-11.024332 -0.33419,-15.000198 C 271.70812,47.554271 263,52.435126 263,62.373615 c 0,8.733751 9.99794,12.982838 15.41111,6.54966 z M 314.5,83.557733 c -0.55,-0.210535 -2.22925,-0.653655 -3.73166,-0.984711 -3.67753,-0.810342 -9.44842,-6.0256 -11.82725,-10.688504 C 297.60183,69.259356 297,66.039668 297,61.5 c 0,-11.118804 5.10025,-18.019735 15.5665,-21.062356 4.92618,-1.432079 5.93231,-1.434552 10.77592,-0.02648 6.75166,1.962762 10.42077,4.841487 12.72202,9.981503 C 338.3629,55.52645 337.29133,57 331.25957,57 c -3.56909,0 -5.19969,-0.618248 -7.91235,-3 -5.50339,-4.83204 -11.08092,-3.366956 -13.34939,3.506564 -3.53365,10.707063 6.89325,19.381703 13.81508,11.493436 2.21711,-2.526658 3.36691,-3 7.28733,-3 5.50208,0 7.37691,1.614804 6.01962,5.184733 -1.31509,3.458955 -5.88998,8.645029 -9.0826,10.295997 -2.74229,1.418097 -11.67729,2.788982 -13.53726,2.077003 z m 78.84024,-0.467853 c -5.18103,-1.312357 -9.62715,-4.42217 -12.8264,-8.971357 C 377.7968,70.255008 377.5,69.077998 377.5,62.166488 c 0,-4.216568 0.38564,-8.453988 0.85699,-9.416488 0.74519,-1.521709 0.32122,-1.75 -3.25,-1.75 L 371,51 l 0,14.8 c 0,10.177778 -0.37477,15.174775 -1.2,16 -1.55432,1.554321 -9.04568,1.554321 -10.6,0 -1.70541,-1.705408 -1.70541,-48.894592 0,-50.6 1.55432,-1.554321 9.04568,-1.554321 10.6,0 0.66,0.66 1.2,2.852486 1.2,4.872192 0,3.497139 0.18647,3.702009 3.91171,4.2977 3.6361,0.581436 3.95925,0.906842 4.58632,4.618419 l 0.67459,3.992912 3.13347,-3.133468 c 4.23697,-4.236968 9.09319,-6.131797 15.7839,-6.158652 10.8931,-0.04372 19.03155,6.402375 21.50225,17.030955 2.25355,9.694472 -2.21649,20.006952 -10.5051,24.235485 -4.45394,2.272231 -12.26993,3.268353 -16.7469,2.134337 z m 12.20521,-13.544425 c 1.99969,-1.999685 2.44866,-3.435867 2.42275,-7.75 -0.0335,-5.580721 -1.06838,-7.723221 -4.65246,-9.632112 C 395.73906,48.127981 388.04259,55.617637 390.12462,65 c 1.01898,4.591903 4.12598,7 9.03162,7 2.84422,0 4.61492,-0.680251 6.38921,-2.454545 z M 342.2,81.8 c -0.85028,-0.85028 -1.2,-6.814404 -1.2,-20.464816 0,-18.023104 0.12467,-19.331539 1.93426,-20.3 2.47656,-1.325414 6.65492,-1.325414 9.13148,0 1.80959,0.968461 1.93426,2.276896 1.93426,20.3 0,13.650412 -0.34972,19.614536 -1.2,20.464816 -1.55432,1.554321 -9.04568,1.554321 -10.6,0 z m 83,0 c -0.85028,-0.85028 -1.2,-6.814404 -1.2,-20.464816 0,-18.023104 0.12467,-19.331539 1.93426,-20.3 2.78694,-1.491525 6.27866,-1.274777 8.88619,0.551609 1.55108,1.086419 2.64609,1.272305 3.47251,0.589486 0.66387,-0.548519 2.8109,-1.296965 4.77117,-1.663215 4.61371,-0.862005 6.16104,0.921316 5.74698,6.623444 -0.29942,4.123332 -0.46141,4.3144 -4.31111,5.084877 -6.64615,1.330159 -7.5,3.230189 -7.5,16.689399 0,7.758279 -0.40354,12.092761 -1.2,12.889216 -1.55432,1.554321 -9.04568,1.554321 -10.6,0 z M 67.764971,63.737981 C 61.860705,58.107091 53.423205,50.156082 49.014971,46.069071 44.606737,41.98206 41,38.123002 41,37.493385 41,35.918876 45.310481,32 47.042328,32 c 0.777383,0 4.910525,3.47659 9.18476,7.725756 l 7.771335,7.725756 7.434086,-7.384471 7.434086,-7.384471 2.566702,1.681768 C 82.844984,35.28931 84,36.610301 84,37.299873 84,37.989444 80.85,41.679501 77,45.5 c -3.85,3.820499 -7,7.645499 -7,8.5 0,0.854501 3.141767,4.671331 6.981704,8.481844 l 6.981703,6.928205 -2.156017,2.294975 c -1.18581,1.262237 -2.415077,2.289567 -2.731704,2.282957 -0.316627,-0.0066 -5.406449,-4.619111 -11.310715,-10.25 z M 342.45455,36.545455 C 341.10455,35.195455 340,32.925 340,31.5 340,28.241829 344.13985,24 347.31969,24 351.07303,24 355,27.639471 355,31.118035 355,34.837451 351.03917,39 347.5,39 c -1.425,0 -3.69545,-1.104545 -5.04545,-2.454545 z"
       id="path5216"
       inkscape:connector-curvature="0" />
    <path
       style="fill:#a3a5a7"
       d="m 205.03518,95.065741 c -1.23734,-2.311989 -1.41114,-50.924943 -0.18895,-52.851173 1.20178,-1.894079 7.27936,-2.480628 10.13643,-0.97827 2.11729,1.113354 3.29464,1.025247 8,-0.598683 4.70927,-1.625278 6.14172,-1.73202 9.78047,-0.728809 9.27779,2.557904 15.17695,11.030446 15.21491,21.852092 0.0594,16.935611 -12.90774,26.003854 -28.22804,19.740564 -1.56681,-0.640547 -1.75,0.0076 -1.75,6.191549 0,4.038769 -0.49832,7.405305 -1.2,8.106989 -0.66,0.66 -3.34417,1.2 -5.96482,1.2 -3.68737,0 -4.99889,-0.437382 -5.8,-1.934259 z m 27.00799,-24.899612 c 1.72479,-1.396654 2.3759,-3.174418 2.73102,-7.456685 0.43311,-5.22277 0.24977,-5.839335 -2.57703,-8.666129 -5.30368,-5.303678 -12.20989,-3.423486 -14.17056,3.857887 -0.56692,2.105388 -0.74583,5.252661 -0.39757,6.993939 1.25481,6.274045 9.46687,9.277045 14.41414,5.270988 z M 130.5,83.121712 C 121.17821,80.7154 113.96162,71.081588 114.02196,61.124273 c 0.0254,-4.196434 3.12649,-11.577507 6.29011,-14.971591 2.59555,-2.784637 7.94995,-5.641521 12.35425,-6.591721 7.27488,-1.569509 17.74402,3.648492 21.15587,10.544454 C 156.49837,55.514442 155.46492,57 149.02587,57 c -3.89044,0 -5.28603,-0.532093 -7.86845,-3 -7.59385,-7.257087 -16.22912,0.59257 -13.16599,11.968178 1.82076,6.761784 8.49905,8.260638 13.50857,3.031822 2.39364,-2.498422 3.65839,-3 7.56465,-3 6.3895,0 7.65923,1.661241 5.10096,6.673795 -1.07403,2.104413 -2.78818,4.55944 -3.8092,5.455616 -4.99907,4.387794 -13.71202,6.578404 -19.85641,4.992301 z m 39,-0.62386 c -9.06679,-3.205929 -14.74168,-14.632909 -12.60643,-25.38435 2.10791,-10.613808 9.60255,-17.498117 19.04941,-17.498117 2.51882,0 6.08711,0.752009 7.92954,1.671131 2.97799,1.485618 3.58424,1.506966 5.46118,0.192308 2.46666,-1.727719 5.99753,-1.907108 8.73204,-0.44364 1.80959,0.968461 1.93426,2.276896 1.93426,20.3 0,13.650412 -0.34972,19.614536 -1.2,20.464816 -1.47445,1.474447 -7.24173,1.569147 -9.87085,0.162081 -1.41322,-0.75633 -3.16833,-0.620679 -6.46921,0.5 -5.499,1.866959 -7.76343,1.873209 -12.95994,0.03577 z m 14.24881,-12.034464 c 5.24801,-3.675847 4.77339,-15.107746 -0.74571,-17.961786 -4.15842,-2.1504 -7.32457,-1.859787 -10.35708,0.950649 C 170.39233,55.540899 170,56.733824 170,61.497706 c 0,4.605129 0.43361,6.026814 2.45455,8.047749 2.86167,2.861678 7.93096,3.273681 11.29426,0.917933 z m 80.40983,12.592289 C 260.3923,82.108335 254.62676,77.003052 252.23781,72.5 c -1.72337,-3.248449 -2.29549,-15.003975 -0.96243,-19.775211 0.42646,-1.526367 2.39457,-4.567463 4.37358,-6.757992 5.92637,-6.55978 16.49278,-8.424466 23.20341,-4.094774 0.83507,0.538783 2.48197,0.309031 4.30543,-0.60063 3.49724,-1.744652 9.35641,-0.979722 10.24565,1.337594 1.19291,3.108668 0.65673,37.930835 -0.60345,39.191013 -1.7009,1.700898 -9.29326,1.515507 -10.76926,-0.262964 -1.06375,-1.281737 -1.48956,-1.282509 -3.43741,-0.0062 -2.82053,1.848085 -10.09465,2.616519 -14.43469,1.524873 z m 14.25247,-14.132402 c 3.78702,-4.500621 3.64168,-11.024332 -0.33419,-15.000198 C 271.70812,47.554271 263,52.435126 263,62.373615 c 0,8.733751 9.99794,12.982838 15.41111,6.54966 z M 314.5,83.557733 c -0.55,-0.210535 -2.22925,-0.653655 -3.73166,-0.984711 -3.67753,-0.810342 -9.44842,-6.0256 -11.82725,-10.688504 C 297.60183,69.259356 297,66.039668 297,61.5 c 0,-11.118804 5.10025,-18.019735 15.5665,-21.062356 4.92618,-1.432079 5.93231,-1.434552 10.77592,-0.02648 6.75166,1.962762 10.42077,4.841487 12.72202,9.981503 C 338.3629,55.52645 337.29133,57 331.25957,57 c -3.56909,0 -5.19969,-0.618248 -7.91235,-3 -5.50339,-4.83204 -11.08092,-3.366956 -13.34939,3.506564 -3.53365,10.707063 6.89325,19.381703 13.81508,11.493436 2.21711,-2.526658 3.36691,-3 7.28733,-3 5.50208,0 7.37691,1.614804 6.01962,5.184733 -1.31509,3.458955 -5.88998,8.645029 -9.0826,10.295997 -2.74229,1.418097 -11.67729,2.788982 -13.53726,2.077003 z m 78.84024,-0.467853 c -5.18103,-1.312357 -9.62715,-4.42217 -12.8264,-8.971357 C 377.7968,70.255008 377.5,69.077998 377.5,62.166488 c 0,-4.216568 0.38564,-8.453988 0.85699,-9.416488 0.74519,-1.521709 0.32122,-1.75 -3.25,-1.75 L 371,51 l 0,14.8 c 0,10.177778 -0.37477,15.174775 -1.2,16 -1.55432,1.554321 -9.04568,1.554321 -10.6,0 -1.70541,-1.705408 -1.70541,-48.894592 0,-50.6 1.55432,-1.554321 9.04568,-1.554321 10.6,0 0.66,0.66 1.2,2.852486 1.2,4.872192 0,3.497139 0.18647,3.702009 3.91171,4.2977 3.6361,0.581436 3.95925,0.906842 4.58632,4.618419 l 0.67459,3.992912 3.13347,-3.133468 c 4.23697,-4.236968 9.09319,-6.131797 15.7839,-6.158652 10.8931,-0.04372 19.03155,6.402375 21.50225,17.030955 2.25355,9.694472 -2.21649,20.006952 -10.5051,24.235485 -4.45394,2.272231 -12.26993,3.268353 -16.7469,2.134337 z m 12.20521,-13.544425 c 1.99969,-1.999685 2.44866,-3.435867 2.42275,-7.75 -0.0335,-5.580721 -1.06838,-7.723221 -4.65246,-9.632112 C 395.73906,48.127981 388.04259,55.617637 390.12462,65 c 1.01898,4.591903 4.12598,7 9.03162,7 2.84422,0 4.61492,-0.680251 6.38921,-2.454545 z M 342.2,81.8 c -0.85028,-0.85028 -1.2,-6.814404 -1.2,-20.464816 0,-18.023104 0.12467,-19.331539 1.93426,-20.3 2.47656,-1.325414 6.65492,-1.325414 9.13148,0 1.80959,0.968461 1.93426,2.276896 1.93426,20.3 0,13.650412 -0.34972,19.614536 -1.2,20.464816 -1.55432,1.554321 -9.04568,1.554321 -10.6,0 z m 83,0 c -0.85028,-0.85028 -1.2,-6.814404 -1.2,-20.464816 0,-18.023104 0.12467,-19.331539 1.93426,-20.3 2.78694,-1.491525 6.27866,-1.274777 8.88619,0.551609 1.55108,1.086419 2.64609,1.272305 3.47251,0.589486 0.66387,-0.548519 2.8109,-1.296965 4.77117,-1.663215 4.61371,-0.862005 6.16104,0.921316 5.74698,6.623444 -0.29942,4.123332 -0.46141,4.3144 -4.31111,5.084877 -6.64615,1.330159 -7.5,3.230189 -7.5,16.689399 0,7.758279 -0.40354,12.092761 -1.2,12.889216 -1.55432,1.554321 -9.04568,1.554321 -10.6,0 z M 342.45455,36.545455 C 341.10455,35.195455 340,32.925 340,31.5 340,28.241829 344.13985,24 347.31969,24 351.07303,24 355,27.639471 355,31.118035 355,34.837451 351.03917,39 347.5,39 c -1.425,0 -3.69545,-1.104545 -5.04545,-2.454545 z"
       id="path5214"
       inkscape:connector-curvature="0" />
    <path
       style="fill:#7b7e81"
       d="M 205.71159,95.378255 C 204.40629,94.072953 204.8705,43.529501 206.2,42.2 c 1.69937,-1.699373 7.36809,-1.489056 9.19842,0.341274 1.36159,1.361596 1.8694,1.371591 4.35598,0.08573 9.76658,-5.050495 20.13021,-1.539739 25.33718,8.583157 2.7095,5.26755 2.60631,15.71675 -0.21273,21.540097 C 241.71389,79.288201 236.27647,82.5 228.37303,82.5 c -3.68509,0 -6.78872,-0.515688 -7.52303,-1.25 -2.83693,-2.836934 -3.7619,-1.355321 -4.05794,6.5 L 216.5,95.5 l -5.03841,0.294922 c -2.77113,0.162206 -5.35863,-0.02529 -5.75,-0.416667 z M 230.85497,71.574996 C 234.25141,69.818629 236,66.174637 236,60.852947 236,57.577046 235.34814,56.148139 232.6,53.4 c -1.94277,-1.94277 -4.4072,-3.398398 -5.75,-3.396262 -3.69575,0.0059 -8.7216,3.593729 -9.40669,6.715243 -0.33569,1.52956 -0.77077,3.30995 -0.96682,3.956422 -0.72866,2.402664 1.67687,8.300069 4.19281,10.279111 3.05136,2.400198 6.35492,2.601441 10.18567,0.620482 z M 128.63726,81.59167 c -14.36599,-5.331393 -18.16813,-24.090516 -7.12447,-35.15094 6.92085,-6.931359 15.98709,-8.068933 24.83527,-3.116173 3.9777,2.226516 9.30174,9.815026 8.17042,11.64554 C 154.1684,55.536544 151.83043,56 149.323,56 c -3.63956,0 -5.24804,-0.605009 -7.97578,-3 -4.00537,-3.516759 -7.07501,-3.788558 -10.68826,-0.946382 -6.2472,4.914049 -5.3549,17.172833 1.45532,19.993716 3.64502,1.50982 7.37094,0.559923 10.0957,-2.573828 C 143.93486,67.489722 145.30322,67 149.12132,67 c 2.61835,0 5.02922,0.434567 5.35748,0.965704 1.09228,1.767344 -3.46599,8.997488 -7.24855,11.497362 -4.76743,3.150762 -13.22852,4.119423 -18.59299,2.128604 z M 169.5,81.555187 c -5.43516,-1.999355 -9.10182,-6.381213 -11.11431,-13.28223 -2.01882,-6.922721 -0.91549,-14.362877 3.00944,-20.29385 4.64725,-7.022477 16.15594,-9.720227 23.34651,-5.472654 3.09185,1.826405 3.29036,1.832045 4.53574,0.128879 0.95576,-1.307078 2.35636,-1.695179 5.2625,-1.458224 L 198.5,41.5 l 0,20 0,20 -3.84809,0.316213 c -2.44803,0.201164 -4.46963,-0.246266 -5.55639,-1.229765 -1.5326,-1.386991 -1.93218,-1.389156 -3.88543,-0.02105 -3.18203,2.228783 -11.00251,2.721499 -15.71009,0.989789 z m 15.78552,-11.396266 c 2.71075,-2.710743 3.46004,-10.816493 1.37296,-14.852464 -3.0584,-5.914279 -10.5282,-6.708115 -15.24371,-1.619991 C 169.47801,55.776261 169,57.367114 169,61.722946 c 0,4.720112 0.39895,5.829854 3.04827,8.479172 2.68099,2.680987 3.5421,2.982036 7.14675,2.49855 2.25416,-0.302347 4.99489,-1.446133 6.0905,-2.541747 z m 78.08268,11.80852 c -1.72249,-0.529851 -4.73004,-2.732432 -6.68345,-4.894625 -10.38667,-11.496801 -5.88533,-32.147586 7.8378,-35.957432 5.46872,-1.518241 7.29328,-1.381871 12.37817,0.925166 3.95037,1.792298 4.57244,1.841218 6.07874,0.478038 1.7972,-1.626446 6.70397,-2.006213 8.79275,-0.68053 0.97402,0.618178 1.20841,5.361023 1,20.234688 L 292.5,81.5 l -4.46374,0.317942 c -3.25807,0.232065 -4.78871,-0.126492 -5.6669,-1.327497 -1.10844,-1.515877 -1.39661,-1.518696 -3.65979,-0.03581 -3.04803,1.997148 -11.16483,2.79754 -15.34137,1.512802 z m 12.91948,-10.052653 c 5.64977,-2.574211 7.37942,-11.145211 3.43138,-17.003703 -4.31054,-6.39642 -11.12758,-6.39642 -15.43812,0 -6.39502,9.489559 2.09866,21.518126 12.00674,17.003703 z m 34.33709,9.616104 c -4.99028,-1.778779 -10.26695,-6.916668 -11.76489,-11.455453 -1.8425,-5.582846 -1.37733,-14.140827 1.02454,-18.848883 5.61414,-11.004615 20.7466,-14.308314 30.72485,-6.707806 3.33791,2.542513 6.88638,8.870251 5.88389,10.492325 C 336.157,55.554984 333.83043,56 331.323,56 c -3.63956,0 -5.24804,-0.605009 -7.97578,-3 -4.27046,-3.749513 -7.68143,-3.819636 -11.26939,-0.231677 -3.78046,3.78046 -4.71413,9.273487 -2.38359,14.023306 3.3433,6.813894 9.82688,7.986171 14.75566,2.667927 C 326.2315,67.537181 327.72883,67 331.30565,67 c 2.51698,0 4.84219,0.430192 5.16715,0.955982 1.01091,1.635687 -2.05013,7.510581 -5.36788,10.30228 -5.4728,4.60506 -13.25386,5.848435 -20.48015,3.27263 z m 81.73991,0.573864 c -4.66993,-1.199385 -9.0488,-4.7096 -11.86082,-9.507961 C 378.50513,69.186219 378,66.970249 378,61.612483 c 0,-7.815837 1.30997,-10.852922 6.83357,-15.84316 8.28828,-7.487966 21.51685,-7.08557 29.49976,0.897344 9.70584,9.705834 7.59753,26.688255 -4.11607,33.154971 -4.57466,2.525528 -12.80867,3.578552 -17.85258,2.283118 z m 14.37475,-12.79238 c 1.52813,-1.909537 2.25223,-4.16162 2.2556,-7.015323 0.006,-5.411014 -1.46714,-8.554008 -4.98453,-10.631782 C 399.60207,49.06115 396.23591,49.564089 392.4,53.4 c -2.84372,2.843716 -3.3942,4.111717 -3.36456,7.75 0.065,7.979534 4.34083,12.245073 11.45896,11.431369 2.84349,-0.325053 4.64287,-1.266943 6.24503,-3.268993 z m -64.2725,11.462038 c -0.28197,-0.7348 -0.38988,-9.872144 -0.2398,-20.305207 L 342.5,41.5 l 5,0 5,0 0,20 0,20 -4.7602,0.305208 c -3.27693,0.210105 -4.91995,-0.111089 -5.27287,-1.030794 z m 17.00423,0.01102 c -0.27965,-0.728739 -0.38756,-12.116082 -0.2398,-25.305207 L 359.5,31.5 l 5,0 5,0 0.5,4.5 c 0.46663,4.199629 0.71196,4.520546 3.67553,4.807804 3.94372,0.382265 5.56488,2.23494 5.14673,5.881724 C 378.54057,49.146204 377.99646,49.562942 374.5,50 l -4,0.5 -0.5,15.5 -0.5,15.5 -4.7602,0.305208 c -3.25888,0.208948 -4.92056,-0.112678 -5.26864,-1.019773 z m 65.99577,-0.01102 c -0.28197,-0.7348 -0.38988,-9.872144 -0.2398,-20.305207 L 425.5,41.5 l 3.96012,-0.322892 c 2.85014,-0.232388 4.30991,0.155483 5.20809,1.383826 1.17506,1.606983 1.45714,1.607465 4.82726,0.0082 1.96861,-0.934163 4.57496,-1.556884 5.79191,-1.383825 1.90594,0.27104 2.21262,0.933183 2.21262,4.777138 0,4.314406 -0.12169,4.491265 -3.66719,5.329756 -6.47558,1.531438 -7.26952,3.311343 -7.83281,17.559994 L 435.5,81.5 l -4.7602,0.305208 c -3.27693,0.210105 -4.91995,-0.111089 -5.27287,-1.030794 z M 342.5567,35.777494 c -2.0894,-2.983049 -1.96674,-7.096436 0.27204,-9.122506 2.42729,-2.196665 7.45414,-2.104882 9.51627,0.173753 2.19667,2.427287 2.10488,7.454135 -0.17375,9.516271 -2.68165,2.426857 -7.72576,2.129119 -9.61456,-0.567518 z"
       id="path5212"
       inkscape:connector-curvature="0" />
    <path
       style="fill:#5e6265"
       d="M 206.66667,95.333333 C 206.3,94.966667 206,82.816667 206,68.333333 L 206,42 l 4.13976,0 c 2.54901,0 4.56664,0.583807 5.2507,1.519302 0.98172,1.342592 1.57161,1.284437 5.07168,-0.5 9.14302,-4.661377 19.09681,-1.351513 23.78786,7.910013 5.619,11.093566 2.11566,24.690179 -7.67347,29.781084 -3.8211,1.987191 -11.41777,1.940179 -15.3534,-0.09501 C 219.50503,79.726923 217.85197,79 217.54966,79 217.24735,79 217,82.285 217,86.3 c 0,4.344444 -0.48584,7.785845 -1.2,8.5 -1.26973,1.269727 -8.00371,1.662953 -9.13333,0.533333 z m 26.13888,-24.626352 c 3.40681,-3.626379 4.49846,-7.864255 3.23472,-12.557419 -3.0002,-11.141917 -17.52782,-10.728559 -19.64537,0.558975 -0.84385,4.498121 1.06071,10.79675 3.85691,12.755283 3.4036,2.383978 9.9753,1.987784 12.55374,-0.756839 z M 131.91654,81.979948 c -8.00769,-1.36529 -13.66279,-7.092865 -15.93765,-16.141919 -2.26695,-9.01756 3.70577,-20.530196 12.33621,-23.778491 7.87748,-2.964901 19.10227,0.331531 23.46171,6.8901 3.17729,4.780094 2.59551,6.484837 -2.3371,6.848168 -3.36348,0.247751 -4.57908,-0.21447 -7.23227,-2.75 -7.68624,-7.345388 -17.06121,-1.284998 -15.94718,10.308956 0.90326,9.400407 9.13083,12.750799 16.15884,6.580124 2.81465,-2.471297 4.22052,-3.002617 7.27648,-2.75 2.45363,0.202827 3.89106,0.859192 4.08098,1.863476 0.36839,1.948007 -3.47532,7.677479 -6.77656,10.101209 -3.10719,2.281259 -10.33889,3.637313 -15.08346,2.828377 z M 174.5,82.483652 c -0.55,-0.169791 -2.22925,-0.579574 -3.73166,-0.91063 -1.50241,-0.331056 -4.2857,-1.966388 -6.18509,-3.63407 -10.14882,-8.910781 -8.14889,-29.354494 3.44224,-35.187398 4.60993,-2.319815 11.62282,-2.225089 16.42229,0.221824 3.45602,1.761976 3.99179,1.807731 5.00133,0.427108 0.77402,-1.058543 2.37976,-1.444422 5.09077,-1.223378 L 198.5,42.5 l 0.27302,18.369797 c 0.18878,12.701868 -0.0804,18.795653 -0.87244,19.75 -1.56259,1.882801 -5.84775,1.737986 -8.06954,-0.272707 -1.67815,-1.518705 -2.13111,-1.524593 -5.57874,-0.07252 -4.17674,1.759158 -8.23323,2.67803 -9.7523,2.20908 z m 10.83935,-12.095728 c 4.86601,-4.866015 4.72981,-12.472608 -0.31364,-17.516059 -7.54703,-7.54703 -18.5741,0.357569 -16.43149,11.778678 1.49694,7.97935 11.18406,11.298449 16.74513,5.737381 z M 266,82.038838 c -4.97665,-0.927203 -8.71941,-3.688026 -11.42923,-8.430701 -3.15899,-5.528802 -3.91368,-10.639389 -2.54484,-17.233057 2.61741,-12.607974 15.018,-18.964449 26.03363,-13.344693 3.46055,1.765438 4.05652,1.830684 4.56715,0.5 C 283.03118,42.476365 284.58798,42 287.62813,42 l 4.41415,0 -0.27114,19.75 -0.27114,19.75 -3.75804,0.310844 c -2.68953,0.222464 -3.92833,-0.13294 -4.35699,-1.25 -0.73964,-1.927495 -2.76141,-1.992636 -5.67015,-0.182691 C 274.779,82.204945 270.29973,82.839923 266,82.038838 Z M 279.07692,70.076923 C 281.46529,67.688554 282,66.307522 282,62.527263 282,54.375739 278.41839,49.977958 271.81574,50.022236 265.75273,50.062895 262,54.837643 262,62.511182 c 0,3.798032 0.53179,5.174454 2.92308,7.565741 4.11619,4.116197 10.03765,4.116197 14.15384,0 z M 315.5,82.291539 c -5.62755,-1.039432 -6.86608,-1.627136 -10.67808,-5.066919 -2.27021,-2.048541 -4.73387,-5.172667 -5.47479,-6.942501 -3.05531,-7.298198 -0.73973,-18.905813 4.7846,-23.984391 8.34031,-7.667343 22.67096,-6.667247 29.31683,2.045939 3.6454,4.779374 3.10839,7.067586 -1.75298,7.469447 -3.05596,0.252617 -4.46183,-0.278703 -7.27648,-2.75 C 316.97128,46.523842 308,51.469599 308,62.11476 c 0,9.854524 9.39629,14.25652 16.71495,7.830655 2.76278,-2.425751 4.23101,-2.991881 7.13201,-2.75 4.97303,0.414644 5.35269,3.36867 1.06115,8.256464 -4.70399,5.357543 -11.33243,7.961864 -17.40811,6.83966 z m 79,-0.242117 c -11.01688,-2.62509 -17.22596,-11.28174 -16.27936,-22.696541 1.19738,-14.438808 17.37447,-22.895406 30.8041,-16.102881 11.34701,5.739172 14.54374,21.978787 6.26353,31.819254 -4.60541,5.473228 -13.94771,8.61013 -20.78827,6.980168 z M 406.22829,70.25 c 2.47546,-2.615782 3.11685,-5.196111 2.87767,-11.576923 C 408.94136,54.28162 404.05692,50 399.21178,50 389.24559,50 384.788,61.840873 391.67361,70.023955 393.80079,72.551964 394.88898,73 398.9018,73 c 3.8559,0 5.20226,-0.505356 7.32649,-2.75 z m -63.12887,10.369797 c -0.79203,-0.954347 -1.06122,-7.048132 -0.87244,-19.75 L 342.5,42.5 l 5,0 5,0 0.27302,18.369797 c 0.18878,12.701868 -0.0804,18.795653 -0.87244,19.75 C 351.27057,81.378909 349.29031,82 347.5,82 c -1.79031,0 -3.77057,-0.621091 -4.40058,-1.380203 z m 17.00429,0.0052 c -0.8008,-0.964899 -1.06103,-8.34723 -0.87245,-24.75 L 359.5,32.5 l 5,0 5,0 0.5,4.5 c 0.48755,4.387944 0.59479,4.507813 4.30657,4.813737 3.72826,0.307285 3.80026,0.389562 3.5,4 -0.28887,3.473416 -0.5231,3.704184 -4.05657,3.996628 l -3.75,0.310366 0,14.739634 c 0,10.130827 -0.37522,15.114853 -1.2,15.939635 -1.63233,1.632331 -7.29083,1.518436 -8.69629,-0.17504 z m 65.99571,-0.0052 c -0.79203,-0.954347 -1.06122,-7.048132 -0.87244,-19.75 L 425.5,42.5 l 3.96012,-0.322892 c 2.85471,-0.232761 4.30966,0.155142 5.21237,1.389667 1.12271,1.535404 1.48889,1.559946 3.53988,0.237253 C 443.72341,40.249929 448,41.008729 448,45.540657 448,49.58404 446.923,51 443.84756,51 c -1.78652,0 -3.90071,0.962239 -5.39301,2.454545 -2.32978,2.329776 -2.45455,3.056678 -2.45455,14.3 0,7.879798 -0.40174,12.247195 -1.2,13.045455 -1.63463,1.634627 -7.29164,1.517461 -8.70058,-0.180203 z M 343.45455,35.545455 C 342.10455,34.195455 341,32.375 341,31.5 341,29.530381 345.40471,25 347.31969,25 349.63545,25 354,28.997188 354,31.118035 354,33.483571 349.73424,38 347.5,38 c -0.875,0 -2.69545,-1.104545 -4.04545,-2.454545 z"
       id="path5210"
       inkscape:connector-curvature="0" />
    <path
       style="fill:#161d23"
       d="M 207,69.057498 207,43 l 3.45031,0 c 2.23104,0 3.79243,0.611337 4.41845,1.729974 0.90053,1.609159 1.25302,1.569867 5.04731,-0.562647 9.12672,-5.129503 19.62546,-1.928933 23.96651,7.306258 4.09794,8.717983 1.9983,21.328555 -4.3875,26.351622 -5.45936,4.294338 -13.80291,4.923747 -19.35198,1.459848 -1.2963,-0.809188 -2.73682,-1.091331 -3.20117,-0.626985 -0.46435,0.464346 -0.97874,4.21874 -1.1431,8.343098 L 215.5,94.5 l -4.25,0.307498 -4.25,0.307498 0,-26.057498 z m 24.85497,3.517498 C 235.42201,70.730412 237,67.135225 237,60.852947 237,56.439792 236.5695,55.3695 233.6,52.4 c -8.91983,-8.91983 -21.81297,1.334587 -17.62667,14.019184 2.23233,6.764038 9.36169,9.527414 15.88164,6.155812 z M 131.5,81.086438 C 119.88671,78.175944 113.61742,66.689355 117.41004,55.27084 c 3.18108,-9.577326 12.90373,-15.329517 22.33735,-13.215398 5.51755,1.236509 9.77584,4.121903 11.7677,7.973736 C 153.70224,54.258661 153.38412,55 149.38202,55 c -2.59403,0 -4.58501,-0.849058 -7.0348,-3 -8.51225,-7.473855 -18.75534,0.124345 -16.89465,12.532257 1.33991,8.935173 10.2148,12.332728 16.89465,6.467743 2.44979,-2.150942 4.44077,-3 7.0348,-3 4.28843,0 4.57736,1.280603 1.36458,6.048051 -3.9121,5.805164 -12.14869,8.817246 -19.2466,7.038387 z M 171,80.850254 c -12.53344,-3.628432 -16.54975,-24.185016 -6.76099,-34.604672 4.74962,-5.055739 15.08886,-5.881676 21.45026,-1.713527 2.43812,1.59752 2.7371,1.605328 3.83767,0.10022 C 190.25467,43.637041 192.14961,43 194.38231,43 l 3.66182,0 -0.27206,18.75 -0.27207,18.75 -3.25688,0.313871 c -2.24306,0.216169 -3.44367,-0.172933 -3.85698,-1.25 -0.74402,-1.938873 -2.77454,-1.996147 -5.67132,-0.159968 -3.0996,1.964734 -9.56792,2.646877 -13.71482,1.446351 z m 12.95882,-8.328959 c 4.19377,-2.168685 6.73141,-9.274152 5.17155,-14.480511 C 187.68056,53.201764 182.89227,49 178.82757,49 c -6.88093,0 -11.20058,5.279653 -11.07575,13.537226 0.13787,9.119937 8.23368,14.107233 16.207,9.984069 z m 81.31623,8.538257 C 256.80817,78.967854 252.5301,72.375926 252.58116,61.5 c 0.0336,-7.162893 1.05496,-10.21914 4.7938,-14.345014 5.17092,-5.706194 13.43964,-7.017244 20.62768,-3.27063 3.84056,2.001812 4.3224,2.053381 5.40119,0.578054 0.797,-1.089959 2.31492,-1.512307 4.64031,-1.291122 L 291.5,43.5 l 0,18.5 0,18.5 -3.75,0.310365 c -2.0625,0.170701 -3.75689,-0.0543 -3.76531,-0.5 -0.008,-0.445701 -0.41265,-1.437857 -0.89828,-2.204792 -0.733,-1.157594 -1.45223,-1.044472 -4.23469,0.666037 -4.05325,2.491725 -9.22435,3.36316 -13.57667,2.287942 z M 279.6,70.6 C 282.49168,67.708315 283,66.504855 283,62.55034 283,54.518708 278.49536,49 271.93955,49 265.04189,49 260.3442,55.489413 261.2735,63.734131 262.39335,73.669392 272.67767,77.522327 279.6,70.6 Z m 35.9,10.931065 c -0.55,-0.195868 -2.22925,-0.626987 -3.73166,-0.958043 -3.66486,-0.807551 -9.74943,-6.283506 -11.4173,-10.27528 -2.01939,-4.833102 -1.71,-13.673798 0.63973,-18.279648 C 306.73913,40.75038 321.8643,38.194637 331.05546,46.937977 333.2669,49.041673 335,51.637089 335,52.845164 335,56.31994 328.6979,55.819948 324.34722,52 c -8.85711,-7.776648 -20.11172,1.829551 -16.45254,14.042813 2.57186,8.584087 12.95349,10.785653 17.91202,3.798488 1.90152,-2.679459 9.1933,-2.61444 9.1933,0.08197 0,2.414547 -4.39488,7.717141 -7.86912,9.494394 -2.77019,1.4171 -9.93194,2.718429 -11.63088,2.113396 z m 80,-0.175339 c -1.1,-0.238477 -2.97782,-0.640943 -4.17293,-0.894369 -1.19511,-0.253425 -3.57734,-1.642511 -5.29385,-3.086856 -10.89005,-9.163372 -9.03443,-27.32277 3.40744,-33.345776 9.33578,-4.51937 20.98743,-1.872258 26.15938,5.943089 6.38963,9.655381 3.1103,24.576111 -6.46916,29.43425 -2.97507,1.508783 -10.62044,2.60232 -13.63088,1.949662 z m 8.81574,-8.472766 c 4.1668,-2.13092 5.63853,-5.050696 5.66202,-11.23296 0.0203,-5.333344 -0.27804,-6.150279 -3.37776,-9.25 -9.22657,-9.226569 -22.93411,1.58124 -18.09064,14.263692 0.99897,2.615756 2.73359,4.944127 4.32879,5.810519 3.21436,1.745794 8.49538,1.933865 11.47759,0.408749 z m -60.60148,7.497965 C 343.32142,79.988083 343,71.416667 343,61.333333 L 343,43 l 4.52207,0 4.52206,0 -0.27206,18.75 -0.27207,18.75 -3.53574,0.297592 c -1.94466,0.163675 -3.85716,-0.02382 -4.25,-0.416667 z m 17,0 C 360.32142,79.988083 360,69.166667 360,56.333333 L 360,33 l 4.5,0 4.5,0 0,3.8 c 0,4.521062 1.40814,6.2 5.2,6.2 2.43167,0 2.8,0.386701 2.8,2.939635 0,2.675068 -0.3375,2.967567 -3.75,3.25 L 369.5,49.5 369,65 l -0.5,15.5 -3.53574,0.297592 c -1.94466,0.163675 -3.85716,-0.02382 -4.25,-0.416667 z m 66,0 C 426.32142,79.988083 426,71.416667 426,61.333333 L 426,43 l 4,0 c 2.88889,0 4,0.416667 4,1.5 0,1.957794 0.54003,1.901078 5.70477,-0.599126 5.48351,-2.654521 7.52765,-1.99017 7.1091,2.31048 -0.27242,2.799177 -0.79818,3.338882 -3.98106,4.08663 -6.47543,1.521261 -7.2695,3.300659 -7.83281,17.552213 L 434.5,80.5 l -3.53574,0.297592 c -1.94466,0.163675 -3.85716,-0.02382 -4.25,-0.416667 z M 343.5567,34.777494 c -2.04932,-2.925813 -1.9664,-5.096747 0.27204,-7.122506 2.39914,-2.171194 5.45812,-2.10048 7.51627,0.173753 2.1712,2.399142 2.10048,5.458119 -0.17375,7.516271 -2.54653,2.304582 -5.7712,2.064245 -7.61456,-0.567518 z"
       id="path5208"
       inkscape:connector-curvature="0" />
  </g>
</svg>
