<?xml version="1.0" encoding="UTF-8" standalone="no"?>
<!-- Created with Inkscape (http://www.inkscape.org/) -->

<svg
   xmlns:dc="http://purl.org/dc/elements/1.1/"
   xmlns:cc="http://creativecommons.org/ns#"
   xmlns:rdf="http://www.w3.org/1999/02/22-rdf-syntax-ns#"
   xmlns:svg="http://www.w3.org/2000/svg"
   xmlns="http://www.w3.org/2000/svg"
   xmlns:xlink="http://www.w3.org/1999/xlink"
   xmlns:sodipodi="http://sodipodi.sourceforge.net/DTD/sodipodi-0.dtd"
   xmlns:inkscape="http://www.inkscape.org/namespaces/inkscape"
   id="svg4125"
   version="1.1"
   inkscape:version="0.91 r13725"
   width="473"
   height="123"
   viewBox="0 0 473 123"
   sodipodi:docname="Cordova.bmp.svg">
  <metadata
     id="metadata4131">
    <rdf:RDF>
      <cc:Work
         rdf:about="">
        <dc:format>image/svg+xml</dc:format>
        <dc:type
           rdf:resource="http://purl.org/dc/dcmitype/StillImage" />
        <dc:title></dc:title>
      </cc:Work>
    </rdf:RDF>
  </metadata>
  <defs
     id="defs4129" />
  <sodipodi:namedview
     pagecolor="#ffffff"
     bordercolor="#666666"
     borderopacity="1"
     objecttolerance="10"
     gridtolerance="10"
     guidetolerance="10"
     inkscape:pageopacity="0"
     inkscape:pageshadow="2"
     inkscape:window-width="640"
     inkscape:window-height="480"
     id="namedview4127"
     showgrid="false"
     inkscape:zoom="0.55391121"
     inkscape:cx="236.5"
     inkscape:cy="61.5"
     inkscape:window-x="0"
     inkscape:window-y="0"
     inkscape:window-maximized="0"
     inkscape:current-layer="svg4125" />
  <image
     width="473"
     height="123"
     preserveAspectRatio="none"
     style="image-rendering:optimizeQuality"
     xlink:href="file:///media/havoc/USB%20DISK/pics/_OpsDeps/Cordova.bmp"
     id="image4133"
     x="0"
     y="0"
     sodipodi:absref="/media/havoc/USB DISK/pics/_OpsDeps/Cordova.bmp" />
  <g
     id="g5169">
    <path
       style="fill:#fcfcfc"
       d="M 0,61.5 0,0 236.5,0 473,0 473,61.5 473,123 236.5,123 0,123 0,61.5 Z"
       id="path5185"
       inkscape:connector-curvature="0" />
    <path
       style="fill:#d0d0d0"
       d="M 18.111346,100.20805 C 17.583885,99.222481 16.664213,94.609981 16.067632,89.958052 14.937966,81.149316 13.78203,73.561756 11.875,62.437627 11.25625,58.828321 10.75,54.87013 10.75,53.641647 10.75,51.673234 20.183352,35.32223 27.429029,24.731578 L 30.007224,20.963157 53.20733,21.231578 76.407437,21.5 85.703719,36.427116 C 91.478387,45.699549 95,52.381748 95,54.066648 95,55.558477 94.363069,60.316275 93.584597,64.639532 92.806125,68.962789 91.613075,76.325 90.933373,81 90.253672,85.675 89.182823,92.2 88.55371,95.5 l -1.143843,6 -7.454934,0 -7.454933,0 -0.30226,-5.25 C 71.982273,92.507509 71.485241,91 70.466792,91 69.016981,91 68.26939,93.08236 67.774206,98.5 L 67.5,101.5 53.508369,101.77979 C 37.905449,102.09181 37,101.74013 37,95.367887 37,92.32872 35.541852,90.124814 34.331724,91.334943 34.037357,91.62931 33.788169,93.136871 33.777974,94.685078 33.730625,101.87558 33.598607,102 26.016132,102 c -5.653498,0 -7.124191,-0.33339 -7.904786,-1.79195 z M 74.258639,76 C 74.67589,73.525 75.59896,67.45 76.309904,62.5 L 77.60253,53.5 74.08198,46.25 70.561429,39 66.280715,39 C 62.649224,39 62,39.307079 62,41.024751 62,43.451939 58.495175,45 53,45 47.504825,45 44,43.451939 44,41.024751 44,39.292675 43.351611,39 39.514395,39 c -4.476827,0 -4.491504,0.01169 -7.5,5.971483 C 28.560651,51.813312 28.206104,57.488039 30.450657,70 c 0.739994,4.125 1.108669,7.887812 0.819278,8.361803 -1.282238,2.100169 3.516034,2.61484 22.230065,2.384435 L 73.5,80.5 74.258639,76 Z M 40.206318,73.127512 C 38.633557,72.155492 37.767891,65.065353 38.786665,61.5 c 1.121891,-3.926225 4.202817,-4.031555 5.484172,-0.18749 0.515626,1.54688 0.644031,4.769522 0.285342,7.161427 -0.646383,4.310393 -2.205792,5.978682 -4.349861,4.653575 z M 62.660333,71.25 c -1.516605,-5.594054 -1.558352,-7.558312 -0.228298,-10.741579 1.597824,-3.82413 2.665471,-4.300786 4.549213,-2.031016 1.232989,1.485662 1.609572,11.757611 0.497043,13.55772 C 66.479354,73.65144 63.164959,73.111332 62.660333,71.25 Z M 128.10954,94.916878 C 121.22746,92.163573 118.62186,90.314661 115.70493,86.114673 112.74011,81.845732 112.5,80.891416 112.5,73.376897 c 0,-8.967224 1.48745,-12.165991 8.31891,-17.889844 6.52994,-5.471227 18.95116,-5.455844 24.76856,0.03067 1.87689,1.770134 3.41029,3.615291 3.40756,4.100349 -0.003,0.485058 -1.08609,2.231923 -2.40746,3.881923 -2.31796,2.894442 -2.5201,2.951606 -5.74503,1.624609 -8.4999,-3.497549 -13.71698,-2.062713 -16.47165,4.530148 -1.32161,3.163063 -1.28957,3.852024 0.33353,7.172219 2.37718,4.862734 7.2564,7.371341 11.61834,5.97346 6.34786,-2.034311 8.16069,-2.028702 10.02471,0.03102 1.08815,1.202391 1.67366,3.116525 1.47749,4.830111 -0.26401,2.306071 -1.34326,3.354211 -5.75427,5.588434 -5.59179,2.832293 -9.79403,3.334015 -13.96115,1.666878 z m 36.4841,-0.926359 c -9.73064,-3.799817 -14.13265,-11.18461 -13.41213,-22.500135 0.83583,-13.126391 11.28744,-21.383569 25.02824,-19.773275 3.83223,0.449102 5.63037,1.411888 9.65087,5.167415 7.75809,7.246777 9.98492,15.9231 6.33351,24.676957 -2.56949,6.160054 -5.44009,9.179993 -11.33416,11.923805 -6.37447,2.967448 -9.69678,3.070639 -16.26633,0.505233 z m 11.94484,-11.44215 c 7.1184,-2.974259 7.40384,-13.788371 0.47202,-17.883098 -3.95027,-2.333478 -7.36949,-2.075523 -10.80486,0.815147 -5.6764,4.776375 -4.57,14.155431 2.00693,17.012975 4.14017,1.79882 4.15211,1.798899 8.32591,0.05498 z M 295.39346,93.70984 c -5.93507,-2.568384 -9.36707,-6.31228 -11.86942,-12.948103 -3.32206,-8.809547 -0.44676,-18.198058 7.66756,-25.036291 4.53253,-3.819736 4.9454,-3.955418 12.17766,-4.002023 8.11765,-0.05231 9.86666,0.666344 15.61735,6.417032 4.30099,4.300988 6.28315,9.174944 6.24649,15.359545 -0.0582,9.823804 -5.05877,17.168631 -13.95494,20.497118 -6.74325,2.522971 -9.50619,2.473002 -15.8847,-0.287278 z m 14.55271,-12.572696 c 4.894,-3.546409 4.81711,-11.475651 -0.15181,-15.656726 -7.8295,-6.58809 -18.18625,1.742053 -14.8257,11.924611 2.03719,6.172763 9.16011,7.94766 14.97751,3.732115 z m 33.0918,13.408609 c -1.70199,-2.05077 -4.82789,-8.175665 -7.16839,-14.045753 -1.9438,-4.875146 -6.52019,-14.928806 -9.57699,-21.039255 -2.60614,-5.209592 -1.55426,-6.915773 4.47796,-7.263392 4.32662,-0.249331 5.36261,0.01492 5.88077,1.5 0.34592,0.991456 2.14089,5.052344 3.98881,9.024196 1.84793,3.971852 3.35987,7.684352 3.35987,8.25 0,2.462714 1.92023,0.68396 3.47777,-3.221549 0.93222,-2.3375 2.89358,-6.849418 4.35858,-10.026485 L 354.5,51.94703 l 5,0.276485 c 4.96553,0.274579 4.99895,0.29916 4.84832,3.565378 -0.0834,1.808892 -1.26257,5.633892 -2.62034,8.5 -1.35776,2.866109 -3.46646,7.461107 -4.68599,10.211107 -1.21954,2.75 -3.30288,7.256459 -4.62966,10.014353 C 351.08555,87.272247 350,90.006305 350,90.590039 350,91.666593 345.84118,96 344.80799,96 c -0.3097,0 -1.10621,-0.654411 -1.77002,-1.454247 z M 201.03518,93.065741 C 199.93131,91.003134 199.55521,56.322684 200.60699,53.581787 201.1148,52.258442 203.21679,52 213.47213,52 c 13.68499,0 15.27264,0.614898 19.57918,7.583017 2.92205,4.727982 2.20906,10.265145 -1.99548,15.497139 l -3.10556,3.864447 3.02487,5.668467 C 235.54053,93.16843 234.93492,95 227.54066,95 c -3.72373,0 -4.50277,-0.729577 -8.12053,-7.604964 -3.24646,-6.169728 -4.852,-7.827025 -6.84259,-7.063165 C 211.36734,80.796268 211,82.433196 211,87.361626 211,94.322121 210.46339,95 204.9534,95 c -1.82691,0 -3.26224,-0.708563 -3.91822,-1.934259 z M 222,68.013154 c 2.81167,-1.792388 -0.178,-4.47863 -5.36263,-4.818362 -4.85634,-0.318219 -6.52682,1.044956 -5.27574,4.305208 0.65946,1.71853 8.17858,2.081223 10.63837,0.513154 z m 20.1009,25.608422 c -0.79516,-0.958112 -1.06119,-7.437709 -0.87245,-21.25 L 241.5,52.5 252.34022,52.215253 c 10.36501,-0.272264 11.03557,-0.16267 15.29654,2.5 6.46656,4.040941 10.67554,11.242369 10.68679,18.284747 0.0156,9.758181 -5.18774,17.516547 -13.682,20.400421 -6.04994,2.054008 -20.89861,2.199694 -22.54065,0.221155 z M 262.27946,81.850439 C 264.54853,80.636068 266,76.932839 266,72.357977 266,67.401424 261.3129,62.747356 256.76262,63.1857 L 253.5,63.5 l -0.28629,10.368098 -0.28628,10.368099 3.76787,-0.706858 c 2.07234,-0.388772 4.58521,-1.144277 5.58416,-1.6789 z m 96.74775,11.682352 c -0.96776,-1.166087 -0.85493,-2.448805 0.54976,-6.25 C 360.54905,84.652256 361.67541,82.05 362.08,81.5 c 0.40458,-0.55 3.30899,-6.85 6.45424,-14 3.14525,-7.15 6.16683,-13.5625 6.71464,-14.25 C 377.31694,50.654563 383,52.422906 383,55.661843 c 0,0.694014 1.54619,4.541514 3.43597,8.55 C 392.5638,77.209767 398,90.303644 398,92.065457 398,93.999376 396.05746,95 392.30308,95 c -1.61794,0 -3.69176,-1.264698 -5.73921,-3.5 -2.93831,-3.207879 -3.67693,-3.5 -8.84969,-3.5 -4.54403,0 -5.84426,0.374534 -6.67245,1.922023 -2.66795,4.985123 -9.23576,6.958968 -12.01452,3.610768 z M 379.5,77 c 1.07686,-1.742395 -0.51929,-3.228882 -2.07802,-1.935251 -0.76998,0.639025 -1.15336,1.560877 -0.85195,2.048558 C 377.29951,78.293627 378.7348,78.238122 379.5,77 Z m -199,-37.160683 c -3.35366,-1.844286 -5.45438,-5.167795 -5.47776,-8.66624 -0.0456,-6.826634 9.05786,-11.759859 14.43941,-7.824781 2.70417,1.977339 0.99798,3.99363 -2.74582,3.244871 C 183.06693,25.863387 180,28.158911 180,31.619804 c 0,2.899862 3.2215,4.710094 6.93186,3.895162 3.69853,-0.812334 4.88795,1.797409 1.80375,3.957668 -2.54601,1.783291 -5.42644,1.91154 -8.23561,0.366683 z m 37.57867,-0.244521 c -0.73186,-0.881846 -1.0568,-4.326938 -0.87244,-9.25 L 217.5,22.5 l 5.5,0 c 4.20611,0 5.5,0.350568 5.5,1.490179 0,0.863228 -1.22746,1.704673 -2.9175,2 -3.87949,0.677925 -4.46693,2.777713 -0.89179,3.187678 3.47799,0.398824 3.74134,3.011947 0.38343,3.804641 C 221.35928,33.859456 221.26984,36 224.94805,36 c 3.41829,0 5.29405,2.599893 2.94767,4.085612 -2.18323,1.382408 -8.52557,1.065314 -9.81705,-0.490816 z M 121.06517,38.25 c 0.11104,-2.981752 6.39953,-14.715812 8.05759,-15.035125 1.09514,-0.210906 2.52456,1.831685 4.72378,6.750155 4.43489,9.918433 4.09402,12.007806 -1.37444,8.424734 C 129.93739,36.728958 125,37.144777 125,39.019052 125,39.558573 124.1,40 123,40 c -1.26292,0 -1.97598,-0.644944 -1.93483,-1.75 z m 20.63607,1.117903 c -0.85909,-0.859085 -0.93512,-13.594834 -0.0943,-15.786116 0.88904,-2.316811 8.57787,-2.139983 10.73802,0.246954 3.33092,3.680626 1.22412,9.40233 -3.80116,10.323273 C 147.44482,34.353424 146.33018,35.601323 146,37 c -0.57826,2.449531 -2.92466,3.742008 -4.29876,2.367903 z M 149,27.940983 C 149,27.423442 148.325,27 147.5,27 c -1.54641,0 -1.9867,1.179963 -0.86052,2.306147 C 147.43841,30.105078 149,29.201961 149,27.940983 Z M 155.99587,38.75 c -0.01,-2.947135 6.57821,-15.747867 8.10524,-15.748908 1.02439,-6.99e-4 2.73532,2.566811 4.75,7.128098 4.38894,9.936707 4.07246,11.832513 -1.37901,8.260574 C 164.93739,36.728958 160,37.144777 160,39.019052 160,39.558573 159.1,40 158,40 c -1.1,0 -2.00186,-0.5625 -2.00413,-1.25 z m 39.62996,-0.282695 c -1.18818,-3.096335 -0.65386,-13.04707 0.80685,-15.026175 1.68191,-2.278811 3.2268,-1.219728 3.73264,2.55887 0.27239,2.03467 0.89125,2.5 3.32486,2.5 2.54028,0 3.06836,-0.451378 3.50982,-3 0.30464,-1.758739 1.13621,-3 2.00982,-3 1.18469,0 1.54941,1.793778 1.77911,8.75 0.27188,8.233498 0.16858,8.75 -1.75,8.75 C 207.55874,40 207,39.348466 207,37.622445 207,32.354382 200.88784,31.374302 200,36.5 c -0.56838,3.281355 -3.38399,4.547689 -4.37417,1.967305 z"
       id="path5183"
       inkscape:connector-curvature="0" />
    <path
       style="fill:#c1c1c1"
       d="M 18.671854,100.27807 C 18.396727,99.832901 17.68132,96.100724 17.08206,91.984338 15.247205,79.380504 12.183964,59.501253 11.522593,55.905538 10.968013,52.890425 11.813356,51.009627 18.896214,39.5 23.296221,32.35 27.615584,25.4875 28.494799,24.25 30.07311,22.028515 30.38409,22 53.032496,22 l 22.939127,0 2.389427,3.75 C 90.7387,45.175655 94,51.12308 94,54.269755 94,57.465297 93.458246,61.385015 89.199847,89 l -1.77337,11.5 -7.463239,0 -7.463238,0 0.322182,-4.646372 c 0.334193,-4.819584 -0.547353,-6.280056 -3.180715,-5.26954 -1.012017,0.388347 -1.642165,2.187199 -1.840243,5.253244 L 67.5,100.5 53.2292,100.77758 C 42.313872,100.9899 38.8735,100.75477 38.597322,99.777583 38.398729,99.074913 37.845589,96.7 37.368122,94.5 36.08778,88.600634 33.633756,89.162437 33,95.5 l -0.5,5 -6.663957,0.29373 c -3.665177,0.16155 -6.889061,-0.0705 -7.164189,-0.51566 z M 75.104322,76 c 0.357208,-2.475 1.203282,-8.742125 1.880165,-13.926944 l 1.230695,-9.426945 -3.31699,-6.856559 C 71.436487,38.633854 69.921301,37.533326 64.410375,38.171918 62.346774,38.411043 61.420574,39.177857 60.994461,41 60.435755,43.389141 60.08125,43.5 53,43.5 c -7.08125,0 -7.435755,-0.110859 -7.994461,-2.5 -0.426113,-1.822143 -1.352313,-2.588957 -3.415914,-2.828082 -5.502772,-0.637647 -7.027387,0.464572 -10.46142,7.563069 l -3.290594,6.801995 1.050693,8.981509 c 0.577881,4.93983 1.353118,11.352608 1.722748,14.250617 L 31.283108,81.038216 52.86898,80.769108 74.454852,80.5 75.104322,76 Z M 39.606989,71.418213 C 39.273145,70.548229 39,67.609106 39,64.886828 c 0,-3.615832 0.4314,-5.115141 1.600925,-5.56393 2.232954,-0.856865 3.365818,1.39533 3.383762,6.727102 0.01922,5.710699 -2.881369,9.267585 -4.377698,5.368213 z M 62.92285,69.855844 c -1.31364,-2.454558 -0.640527,-9.546627 1.065555,-11.226928 2.659664,-2.619475 5.353823,6.70972 3.404606,11.789297 -0.860888,2.243437 -3.120689,1.959143 -4.470161,-0.562369 z M 123.93418,92.25 C 116.27657,88.367866 112.75,82.481443 112.75,73.581757 c 0,-8.156474 3.1234,-13.984683 9.90008,-18.473368 C 126.6303,52.471999 128.2814,52 133.52356,52 c 4.76394,0 6.93803,0.515744 9.48473,2.25 4.94772,3.369304 5.679,5.052123 3.58452,8.248693 -1.46814,2.240673 -2.2229,2.576679 -4.43118,1.97269 -1.4639,-0.400393 -5.34062,-0.782751 -8.61493,-0.849685 -5.70712,-0.116665 -6.04828,0.01881 -8.25,3.276185 -3.44224,5.092668 -3.05261,9.546203 1.2079,13.806714 3.74173,3.741732 3.37643,3.6985 14.65739,1.734641 3.22186,-0.56088 3.87463,-0.312975 5.43119,2.062621 2.25517,3.441834 1.24274,5.249959 -4.61842,8.248141 -5.93366,3.035265 -11.36405,2.884761 -18.04058,-0.5 z M 163.5,92.694189 c -6.01567,-2.900418 -7.7158,-4.698131 -10.42852,-11.027094 -3.83609,-8.949866 -2.176,-16.484766 5.24032,-23.785026 5.39335,-5.308954 8.69008,-6.424609 16.70798,-5.65419 5.97707,0.574321 12.9168,5.767312 16.13359,12.07276 4.93416,9.671749 0.58591,23.162985 -9.07578,28.159238 -5.64349,2.918364 -12.82287,3.008914 -18.57759,0.234312 z m 14.51291,-10.200867 c 5.54948,-2.869744 6.01613,-13.1504 0.7945,-17.503272 -1.53198,-1.277094 -3.87383,-1.934692 -6.96852,-1.956781 -3.99773,-0.02853 -5.02956,0.404614 -7.25,3.043456 -4.3185,5.132251 -3.04202,13.869706 2.43082,16.638826 3.33535,1.687605 7.46128,1.604198 10.9932,-0.222229 z M 297.9416,94.051773 c -9.09884,-2.760956 -14.87682,-10.744191 -14.91964,-20.613944 -0.0449,-10.351866 8.36832,-20.288479 17.95826,-21.20995 7.54348,-0.724833 11.07451,0.375059 16.23733,5.057822 9.08002,8.235728 10.20897,19.554179 2.94961,29.57191 -4.4014,6.073817 -14.8122,9.443675 -22.22556,7.194162 z M 311.717,80.542614 c 3.28046,-3.813761 3.14186,-10.368471 -0.30589,-14.465889 C 309.19299,63.44064 308.14565,63 304.0982,63 c -3.87044,0 -5.20954,0.50678 -7.41111,2.804719 C 294.5026,68.084833 294,69.545433 294,73.613589 c 0,7.585639 3.44768,10.732996 10.967,10.011679 3.26413,-0.313122 5.08178,-1.143224 6.75,-3.082654 z M 343.23385,93.75 C 342.24975,92.533308 333,73.354838 333,72.531097 c 0,-0.22706 -1.82819,-4.296868 -4.06265,-9.044018 -4.51311,-9.588197 -4.27398,-11.499718 1.43509,-11.471766 4.40912,0.02159 5.27492,0.821213 8.1603,7.536613 1.40562,3.271441 3.27905,7.635574 4.16316,9.698074 2.37776,5.546936 2.22994,5.670156 7.72343,-6.438075 C 351.8387,59.683484 353,56.678127 353,56.133354 353,54.088062 356.25786,52 359.44898,52 c 6.2079,0 6.17789,1.526957 -0.31718,16.143038 C 355.86725,75.489367 352.47987,82.85 351.60429,84.5 c -0.87558,1.65 -1.59474,3.501814 -1.59813,4.115141 C 349.99841,90.017674 346.13084,95 345.04986,95 c -0.44273,0 -1.25994,-0.5625 -1.81601,-1.25 z M 201.66667,93.333333 C 200.40407,92.070738 200.9034,54.496604 202.2,53.2 c 0.77468,-0.774684 4.76202,-1.198675 11.25,-1.196262 11.36921,0.0042 15.01163,1.424875 18.5554,7.237122 3.05676,5.013491 2.60084,9.811732 -1.43465,15.098508 l -3.42925,4.492561 3.43055,6.460514 c 3.95254,7.443552 3.34029,9.067269 -3.21338,8.522083 C 223.84369,93.522123 223.30552,93.025231 219.70718,86.75 216.60756,81.344507 215.3549,80 213.4183,80 211.15812,80 211,80.354267 211,85.418213 211,93.043468 210.44935,94 206.05968,94 c -2.04949,0 -4.02635,-0.3 -4.39301,-0.666667 z M 223,66 c 0,-3 0,-3 -6,-3 -6,0 -6,0 -6,3 0,3 0,3 6,3 6,0 6,0 6,-3 z m 19.03518,26.065741 C 241.43476,90.943846 241,82.784098 241,72.63717 241,51.288429 240.59761,52 252.6703,52 c 9.49189,0 13.55641,1.380558 18.43877,6.262918 6.73003,6.730031 8.5932,15.392756 5.00818,23.28535 C 271.85167,90.939143 265.90097,94 251.90946,94 c -7.7155,0 -8.97068,-0.245877 -9.87428,-1.934259 z m 19.97608,-9.571566 c 1.96454,-1.0159 3.29246,-2.775864 4.08149,-5.409407 1.36403,-4.552722 0.76995,-7.718308 -2.1436,-11.422286 C 262.18738,63.422754 261.07246,63 256.92742,63 L 252,63 l 0,10.5 0,10.5 3.54966,0 c 1.95231,0 4.86003,-0.677621 6.4616,-1.505825 z m 97.65541,10.839158 C 358.05397,91.720638 358.27525,91.131687 369.56046,67 c 2.44348,-5.225 4.44198,-9.992756 4.44111,-10.595012 -8.6e-4,-0.602257 0.861,-1.875624 1.91524,-2.829705 2.34189,-2.119375 5.58296,-0.809263 6.61433,2.673656 0.36663,1.238083 1.82414,4.726061 3.23891,7.751061 7.09067,15.160941 12.02082,27.381399 11.5459,28.619035 -0.3242,0.84485 -2.02964,1.380965 -4.393,1.380965 -3.13275,0 -4.28239,-0.567158 -6.08107,-3 -2.08689,-2.822662 -2.62067,-3 -9.02994,-3 C 374.06537,88 371,88.365147 371,88.811439 c 0,0.446291 -0.91753,1.796291 -2.03896,3 -1.97167,2.116342 -7.75323,3.063036 -9.29437,1.521894 z M 381,77.434259 c 0,-0.311158 -0.48138,-1.465213 -1.06974,-2.564567 -0.85425,-1.596186 -1.35785,-1.759716 -2.5,-0.811814 C 375.16575,75.937256 375.7255,78 378.5,78 c 1.375,0 2.5,-0.254584 2.5,-0.565741 z M 182.26993,39.21479 C 179.41815,38.768918 176,34.447624 176,31.288218 176,28.338853 181.05096,23 183.84129,23 186.50009,23 189,24.008932 189,25.081989 c 0,0.477406 -1.36221,0.595569 -3.02714,0.262583 C 182.15613,24.581225 179,27.178863 179,31.083559 179,34.834261 181.4271,37 185.63045,37 c 1.91817,0 3.24304,0.395682 2.94415,0.879293 -0.72153,1.16746 -3.54887,1.766365 -6.30467,1.335497 z m -59.51874,-0.796933 c -0.60534,-0.605339 4.46535,-12.034398 6.03619,-13.605233 0.51167,-0.511679 2.21605,2.006681 4.04819,5.981565 3.76108,8.159773 3.85019,8.799545 0.94192,6.762515 -2.81408,-1.971062 -6.63592,-1.994795 -8.7799,-0.05452 -0.91294,0.8262 -1.92382,1.238254 -2.2464,0.915675 z M 130.80963,32.25 C 130.62427,31.2875 129.80994,30.5 129,30.5 c -0.80994,0 -1.62427,0.7875 -1.80963,1.75 -0.23646,1.227849 0.30348,1.75 1.80963,1.75 1.50615,0 2.04609,-0.522151 1.80963,-1.75 z M 143,31.2 l 0,-8.2 3.34501,0 c 7.1036,0 9.07406,8.056846 2.39382,9.787871 -2.01824,0.522979 -3.36694,1.567244 -3.58437,2.7753 C 144.96274,36.628427 144.39955,37.9275 143.90294,38.45 143.36186,39.019276 143,36.113755 143,31.2 Z m 7,-1.7 c 0.99319,-1.196716 0.99319,-1.803284 0,-3 -2.49896,-3.011065 -6.06097,-0.707233 -4.63837,3 0.31658,0.825 1.20962,1.5 1.98454,1.5 0.77492,0 1.96914,-0.675 2.65383,-1.5 z m 7.75914,8.925805 c -0.66816,-0.668156 3.91369,-11.291303 5.70238,-13.221151 0.95647,-1.031945 1.84499,0.102665 4.36954,5.579756 3.81447,8.2756 3.88003,8.911531 0.70412,6.8306 -3.08494,-2.021333 -6.38059,-2.064886 -8.53759,-0.112828 -0.91294,0.8262 -1.92024,1.24183 -2.23845,0.923623 z M 165.80963,32.25 C 165.62427,31.2875 164.80994,30.5 164,30.5 c -0.80994,0 -1.62427,0.7875 -1.80963,1.75 -0.23646,1.227849 0.30348,1.75 1.80963,1.75 1.50615,0 2.04609,-0.522151 1.80963,-1.75 z M 197,31.7 c 0,-7.334552 1.51423,-10.767204 2.18358,-4.95 0.28638,2.48893 0.69616,2.75 4.31642,2.75 3.62026,0 4.03004,-0.26107 4.31642,-2.75 C 208.48577,20.932796 210,24.365448 210,31.7 c 0,4.683708 -0.35856,7.32786 -0.91532,6.75 -0.50343,-0.5225 -1.06593,-2.075 -1.25,-3.45 -0.29375,-2.194221 -0.82393,-2.5 -4.33468,-2.5 -3.51075,0 -4.04093,0.305779 -4.33468,2.5 -0.18407,1.375 -0.74657,2.9275 -1.25,3.45 C 197.35856,39.02786 197,36.383708 197,31.7 Z m 21.41714,5.944673 c -0.28605,-0.74543 -0.38442,-4.23293 -0.21861,-7.75 L 218.5,23.5 l 4.25,-0.307498 c 2.51457,-0.181935 4.25,0.124317 4.25,0.75 C 227,24.524126 225.965,25 224.7,25 c -1.265,0 -2.80483,0.504835 -3.42186,1.121855 C 219.58803,27.811967 220.90196,30 223.60699,30 224.92314,30 226,30.45 226,31 c 0,0.55 -0.8449,1 -1.87756,1 -2.2521,0 -4.55303,2.494281 -3.64951,3.956195 C 220.82774,36.530288 222.18992,37 223.5,37 c 1.31008,0 2.66008,0.45 3,1 0.37355,0.604413 -1.00008,1 -3.47237,1 -2.51936,0 -4.29015,-0.520552 -4.61049,-1.355327 z"
       id="path5181"
       inkscape:connector-curvature="0" />
    <path
       style="fill:#a3a3a3"
       d="M 19.107859,98.799866 C 18.277055,96.664259 17.629359,92.725851 14.864909,73 14.286817,68.875 13.40572,63.613231 12.906916,61.30718 11.22664,53.538991 11.718099,51.958789 19.962519,38.62109 24.340976,31.537689 28.68534,24.900189 29.616662,23.87109 31.172301,22.152129 33.079896,22 53.078929,22 l 21.768954,0 2.141617,2.75 c 1.177889,1.5125 5.511044,8.262639 9.629234,15.000308 l 7.487617,12.250308 -1.051052,7.249692 C 92.477221,63.237639 91.552336,69.425 91,73 90.447664,76.575 89.525784,82.65 88.951378,86.5 88.376972,90.35 87.57198,95.075 87.162506,97 l -0.744497,3.5 -6.459004,0 -6.459005,0 -0.168877,-4 c -0.09288,-2.2 -0.205382,-4.5625 -0.25,-5.25 -0.105465,-1.625077 -3.532331,-1.61618 -4.884165,0.01268 -0.576362,0.694474 -1.193962,3.056974 -1.372445,5.25 L 66.5,100.5 53.581138,100.78114 c -7.766396,0.16901 -13.32219,-0.12219 -13.930132,-0.73013 -0.556198,-0.556202 -1.26771,-2.932714 -1.581138,-5.281142 -0.45803,-3.431895 -1.0045,-4.331672 -2.784522,-4.584787 -2.317634,-0.329563 -2.928797,0.943702 -3.51114,7.314919 -0.266316,2.91368 -0.439622,3.00863 -6.022924,3.29987 -5.209303,0.27172 -5.832671,0.0841 -6.643423,-2.000004 z M 73.731854,81.186885 c 0.67752,-0.430369 1.726599,-4.360979 2.331286,-8.734687 C 76.667828,68.078489 77.555056,62.025 78.03476,59 78.855608,53.823744 78.688952,53.058531 75.203474,46 L 71.5,38.5 66.281891,38.198846 c -4.868847,-0.280996 -5.260966,-0.130397 -5.858408,2.25 C 59.815798,42.870055 59.437676,43 53,43 c -6.437676,0 -6.815798,-0.129945 -7.423483,-2.551154 -0.597442,-2.380397 -0.989561,-2.530996 -5.858408,-2.25 L 34.5,38.5 30.832143,46 c -3.523163,7.204131 -3.634919,7.75642 -2.832909,14 0.459222,3.575 1.159043,9.425 1.555158,13 0.396115,3.575 1.163524,7.0625 1.705353,7.75 1.119583,1.420582 40.2892,1.823496 42.472109,0.436885 z M 40.202283,65.75 C 40.509855,59.293111 41.922751,57.906398 43.23955,62.769019 44.250349,66.501654 43.119491,72 41.340992,72 40.213885,72 39.968676,70.654125 40.202283,65.75 Z m 23.238431,4.956098 C 63.132528,69.902979 63.019791,67.053057 63.190188,64.37294 63.414437,60.845799 63.914267,59.5 65,59.5 c 1.956609,0 2.193887,11.602038 0.250526,12.249825 -0.687211,0.22907 -1.501626,-0.240607 -1.809812,-1.043727 z m 62.026446,21.888733 c -8.91742,-4.057453 -13.28975,-11.953343 -12.1176,-21.882861 0.73517,-6.227727 3.83632,-11.536402 8.7403,-14.96197 3.44689,-2.407758 4.8736,-2.75 11.46398,-2.75 6.17441,0 8.05901,0.393225 10.48665,2.188058 3.44142,2.544352 3.8209,5.722424 0.98926,8.285015 -1.84438,1.669143 -2.18941,1.679044 -5.40113,0.154988 C 137.74164,62.732627 134.83778,62 133.1756,62 c -3.89625,0 -8.70148,4.033368 -10.19436,8.556856 -1.56827,4.751879 1.15333,10.202372 6.39403,12.805234 3.52122,1.74886 4.00588,1.764062 7.9704,0.25 5.58225,-2.13188 7.35831,-2.033723 8.70418,0.481051 2.0989,3.921834 0.41073,6.590834 -5.58849,8.835431 -6.8812,2.574589 -8.69083,2.534311 -14.9942,-0.333741 z m 39.5778,0.487161 C 156.43776,89.592268 152,82.677612 152,72.756104 152,66.39535 154.19762,61.876259 159.60585,57.115742 164.21379,53.059673 164.39267,53 171.94379,53 c 6.95874,0 8.04082,0.278433 11.78607,3.032721 C 188.61912,59.628325 193,67.729942 193,73.176108 c 0,4.851718 -2.59835,11.563961 -5.83407,15.07101 -2.66065,2.883743 -11.67971,6.792309 -15.45344,6.697009 -1.21687,-0.03073 -4.21726,-0.86869 -6.66753,-1.862135 z m 13.6974,-10.648836 c 5.36919,-3.518028 5.53218,-13.011028 0.30361,-17.683156 -8.20881,-7.3352 -20.05079,1.405278 -16.97861,12.53179 1.85451,6.716483 10.30301,9.326456 16.675,5.151366 z m 117.89659,10.574562 c -2.67357,-1.044303 -5.75896,-2.710755 -6.85641,-3.703226 -3.0549,-2.762681 -5.82996,-8.909258 -6.47277,-14.336779 -0.77409,-6.535975 3.01893,-14.565604 8.936,-18.917069 C 296.01851,53.276139 297.08757,53 304.05621,53 c 7.55112,0 7.73,0.05967 12.33794,4.115742 C 321.96642,62.020653 324,66.401314 324,73.5 c 0,9.350955 -4.51542,16.12309 -13.06068,19.588137 -5.64467,2.288882 -8.27243,2.274104 -14.30037,-0.08042 z m 14.01742,-10.518221 c 3.19943,-2.096343 4.89789,-8.287418 3.45978,-12.611271 C 312.74987,65.770357 307.5275,62 303.2039,62 c -4.90279,0 -9.29231,4.473719 -9.84362,10.032441 -0.55484,5.594342 1.12056,8.930198 5.65363,11.256791 3.79648,1.94854 7.87572,1.668333 11.64246,-0.799735 z M 202.06644,92.124145 C 200.9344,90.008914 200.53503,57.375279 201.60699,54.581787 202.11294,53.263309 204.17435,53 213.99063,53 l 11.77665,0 3.59098,3.974789 c 5.91393,6.546019 6.03803,11.226393 0.46593,17.572667 l -3.14691,3.584135 3.38121,6.989312 c 3.61108,7.464478 3.34547,8.827963 -1.7267,8.863784 -3.9053,0.02758 -5.10483,-1.045603 -8.44265,-7.553341 -5.22815,-10.193335 -9.5804,-9.803834 -10.09362,0.903321 -0.29366,6.12651 -0.31557,6.167275 -3.47908,6.473736 -2.35723,0.228354 -3.46037,-0.208812 -4.25,-1.684258 z M 222.8,68.8 C 226.16623,65.433775 222.86664,62 216.26574,62 212.16043,62 210,63.379204 210,66 c 0,2.732891 2.21744,4 7,4 2.53,0 5.14,-0.54 5.8,-1.2 z m 20.29994,23.820416 c -0.79314,-0.955673 -1.06122,-7.177974 -0.87245,-20.25 L 242.5,53.5 l 10.56436,-0.281949 10.56435,-0.281948 4.69063,3.581564 C 274.37652,61.142668 277,66.278052 277,73.509822 c 0,9.398431 -5.02137,16.528138 -13.39111,19.013686 -6.45289,1.916302 -18.94998,1.975353 -20.50895,0.09691 z m 17.30149,-9.014783 C 264.78897,81.7724 267,78.44715 267,73.681786 267,66.432478 261.93068,61.421468 255.35749,62.173205 L 252.5,62.5 l -0.28837,9.928821 c -0.1586,5.460851 -0.0602,10.523351 0.21862,11.25 0.65587,1.709169 3.77391,1.68054 7.97118,-0.07319 z m 77.59358,-1.304851 c -2.91029,-6.49043 -6.79975,-15.020081 -8.64323,-18.954781 -4.58255,-9.780936 -4.48471,-10.529386 1.32699,-10.150792 l 4.67876,0.304791 4.56674,10.25 c 2.5117,5.6375 4.82366,10.25 5.13769,10.25 0.56637,0 6.85627,-12.970702 8.85,-18.25 0.89779,-2.377316 1.58823,-2.75 5.09467,-2.75 2.51255,0 4.25627,0.521533 4.58203,1.370445 0.28924,0.753745 -3.23669,9.866245 -7.83539,20.25 -10.61123,23.959885 -10.48335,23.904578 -17.75826,7.680337 z m 22.05391,10.25816 c -0.95541,-1.151192 -0.47717,-2.9558 2.37755,-8.971549 C 364.39191,79.445623 366,75.85921 366,75.617586 c 0,-0.241624 1.53406,-3.741927 3.40902,-7.778451 1.87496,-4.036524 4.11559,-9.059161 4.97917,-11.161415 1.23202,-2.999147 2.03719,-3.752877 3.73886,-3.5 2.44148,0.362818 2.51973,0.480414 7.2007,10.82228 9.17253,20.265255 11.87009,27.042062 11.32731,28.45651 -1.09872,2.863212 -6.06093,1.843253 -9.51863,-1.95651 -2.92275,-3.21188 -3.65043,-3.5 -8.83968,-3.5 -5.18525,0 -5.92091,0.29059 -8.86062,3.5 -3.42772,3.742201 -7.28761,4.588809 -9.38721,2.058942 z m 20.71977,-15.578284 c 0.15901,-0.835639 -0.3374,-2.376154 -1.10314,-3.423367 -1.34279,-1.836378 -1.45346,-1.810607 -3.1151,0.725366 -0.94756,1.446165 -1.41659,3.124914 -1.04229,3.730553 0.965,1.56139 4.91444,0.786181 5.26053,-1.032552 z"
       id="path5179"
       inkscape:connector-curvature="0" />
    <path
       style="fill:#808080"
       d="m 19.571908,99.116349 c -0.30037,-0.486008 -1.034134,-4.198508 -1.630588,-8.25 C 17.344867,86.814857 16.471272,81.025 16,78 15.528728,74.975 14.67538,69.35 14.103672,65.5 13.531964,61.65 12.806824,57.15 12.49225,55.5 12.009411,52.967418 13.345656,50.201859 21.06858,37.75 L 30.216862,23 52.453443,23 c 19.945288,0 22.389606,0.180323 23.721656,1.75 0.816791,0.9625 4.936535,7.286771 9.154987,14.053935 8.817693,14.145181 8.654224,13.190766 5.571897,32.531558 C 89.748073,78.575972 88.272511,87.875 87.622956,92 l -1.18101,7.5 -6.470973,0 -6.470973,0 0.328467,-4.6129 c 0.254097,-3.568467 -0.04532,-4.756338 -1.322442,-5.246414 -3.075061,-1.180012 -5.370704,1.081429 -5.698749,5.613844 L 66.5,99.5 53.229807,99.779166 c -10.097104,0.212413 -13.366291,-0.0267 -13.672087,-1 C 39.336679,98.075625 38.883526,95.855948 38.550713,93.846551 37.930415,90.101419 36.15285,88.620379 33.5,89.638374 32.449465,90.041502 32,91.680136 32,95.106989 L 32,100 l -5.940983,0 c -3.267541,0 -6.18674,-0.397643 -6.487109,-0.883651 z M 75.406485,80.25 c 0.297693,-0.9625 0.983074,-5.575 1.52307,-10.25 0.539996,-4.675 1.276044,-10.550857 1.635662,-13.05746 0.567884,-3.958263 0.186015,-5.486456 -2.904482,-11.623363 -3.734482,-7.41569 -4.83328,-8.3288 -9.992522,-8.303864 -3.883975,0.01877 -5.322238,0.880481 -5.816226,3.484687 -0.33289,1.754929 -1.172503,2 -6.851987,2 -5.679484,0 -6.519097,-0.245071 -6.851987,-2 -0.498325,-2.627065 -1.934226,-3.466078 -5.963754,-3.484687 -5.045789,-0.0233 -6.666857,1.345251 -10.151305,8.570032 -2.897106,6.006963 -3.142573,7.227384 -2.570074,12.777962 C 28.263417,66.12479 30.058036,79.108818 30.557112,80.75 30.84616,81.700521 36.199427,82 52.901228,82 72.946459,82 74.912509,81.847121 75.406485,80.25 Z M 40.194205,65.851932 C 40.362392,62.908369 40.95,60.6125 41.5,60.75 c 1.526019,0.381505 1.247675,9.500775 -0.305795,10.018598 -0.989736,0.329912 -1.231779,-0.86013 -1,-4.916666 z m 23.429002,3.608545 c -0.913406,-2.380299 -0.732679,-6.738882 0.350465,-8.452118 1.596964,-2.525959 3.186156,0.287155 2.840464,5.028057 -0.322583,4.423989 -2.082525,6.312514 -3.190929,3.424061 z M 126,92.405695 c -8.11339,-3.514305 -12.25,-9.926624 -12.25,-18.989196 0,-7.813471 2.8796,-13.320309 9.13042,-17.46068 3.71785,-2.462606 5.47675,-2.955195 10.54102,-2.952081 9.81363,0.006 16.0796,4.939665 11.7599,9.259369 -1.80446,1.804459 -2.45732,1.932178 -4.686,0.916723 C 139.07114,62.530924 135.76126,62 133.14004,62 c -3.94911,0 -5.2401,0.495002 -7.53314,2.88842 -3.99714,4.172117 -4.59595,10.042075 -1.48812,14.587589 2.88335,4.217182 6.73634,5.981977 11.11728,5.092081 9.12799,-1.85416 9.54745,-1.841127 10.7109,0.332804 1.6021,2.993542 -0.0745,5.532871 -4.93802,7.478853 -5.00995,2.004584 -10.41932,2.013936 -15.00894,0.02595 z m 37.45843,-0.772894 C 158.23338,89.199705 155.43452,85.999527 153.28443,80 150.49834,72.2258 152.52147,64.88576 159.28817,58.218093 L 164.07633,53.5 l 7.75228,0 c 7.29775,0 8.00231,0.198025 12.0166,3.377403 12.76476,10.10988 10.54677,29.464778 -4.07674,35.574869 -5.20591,2.17517 -10.44429,1.911976 -16.31004,-0.819471 z m 15.24075,-8.590932 c 6.03936,-3.682422 6.39767,-14.460723 0.63152,-18.996383 C 177.55271,62.646923 175.25076,62 172.05223,62 c -3.91472,0 -5.1573,0.500229 -7.61514,3.065663 -2.49855,2.607924 -2.93709,3.861395 -2.93709,8.395012 0,3.921678 0.52827,5.916528 2,7.552367 3.91189,4.348102 10.05139,5.167619 15.19918,2.028827 z m 117.95601,9.499482 c -5.08323,-1.81242 -8.48065,-5.083272 -10.77571,-10.374256 -3.97579,-9.165693 -1.49304,-19.137044 6.30212,-25.310923 C 296.16489,53.701343 296.88392,53.5 304.16697,53.5 l 7.74786,0 4.61591,4.5 c 7.18207,7.001729 9.10656,13.847316 6.18483,22 -2.15009,5.999527 -4.94895,9.199705 -10.174,11.632801 -5.69037,2.649781 -10.26848,2.911605 -15.88638,0.90855 z m 12.80512,-9.089543 c 6.38967,-3.032097 7.61199,-12.021997 2.4361,-17.917012 C 309.12494,62.378266 308.26061,62 303.81948,62 c -4.1635,0 -5.4493,0.475975 -7.8964,2.923077 C 293.45017,67.395983 293,68.638154 293,72.988818 c 0,6.078563 1.08274,8.448586 4.77514,10.45238 3.5544,1.928902 7.63487,1.932607 11.68517,0.01061 z m 29.56383,0.09912 C 336.26086,77.721129 334,72.658519 334,72.300688 c 0,-0.357832 -1.85555,-4.431323 -4.12344,-9.052203 -4.5117,-9.192687 -4.33693,-10.605059 1.24628,-10.071327 2.71637,0.259673 3.71659,1.007665 5.11192,3.822842 2.05196,4.13998 6.26146,13.764864 7.10703,16.25 1.25093,3.676488 2.55369,1.949514 8.10935,-10.75 3.8501,-8.800826 3.98412,-8.973122 7.23488,-9.301065 5.27974,-0.532632 5.47381,1.425693 1.11998,11.301065 -10.5478,23.924499 -12.928,28.714622 -14.53186,29.24511 -0.74039,0.24489 -3.21553,-3.792239 -6.25,-10.194179 z M 202.46972,91.781695 C 202.18563,91.04137 202.07623,82.125128 202.2266,71.967823 L 202.5,53.5 l 9.94966,-0.28862 c 11.61441,-0.336912 14.68735,0.624724 18.1149,5.668816 3.67283,5.40506 3.29722,10.160151 -1.19536,15.132909 l -3.63081,4.018867 3.13081,5.873992 C 233.08844,91.822087 232.98345,93 228.05861,93 c -3.85353,0 -4.02629,-0.156699 -7.75,-7.029588 -3.52416,-6.504583 -4.03266,-7.008706 -6.80861,-6.75 -2.93807,0.273816 -3.01032,0.413769 -3.5,6.779588 -0.49898,6.486725 -0.50665,6.500641 -3.75688,6.813871 -2.04728,0.197301 -3.44871,-0.186044 -3.7734,-1.032173 z M 223.5,66 l 0,-3.5 -6.5,0 c -6.03992,0 -6.52329,0.164405 -6.82908,2.322726 -0.65183,4.600767 0.33508,5.295658 7.06614,4.975327 L 223.5,69.5 l 0,-3.5 z m 19.10699,25.418213 C 242.27314,90.548229 242,82.05333 242,72.540657 c 0,-13.997219 0.28035,-17.528438 1.47001,-18.515764 0.99893,-0.829041 4.47406,-1.108621 10.84429,-0.872445 9.17972,0.340338 9.47142,0.427179 14.05376,4.183977 2.57371,2.110033 5.56878,5.579606 6.65571,7.710162 4.80543,9.419422 -0.0304,22.386556 -9.89589,26.535319 -4.95999,2.085845 -21.70437,1.964138 -22.52089,-0.163693 z m 20.08854,-8.374128 c 2.14036,-1.305059 3.58702,-3.255125 4.38115,-5.905669 1.44906,-4.836539 0.7387,-8.015942 -2.70549,-12.109126 -2.40122,-2.853689 -3.07377,-3.099014 -7.75029,-2.827072 L 251.5,62.5 l -0.28837,9.928821 c -0.1586,5.460851 -0.0602,10.523351 0.21862,11.25 0.76265,1.98744 7.59627,1.602404 11.26528,-0.634736 z M 360,91.372715 c 0,-1.553046 1.29469,-4.515849 10.0504,-22.999564 2.11732,-4.469767 4.14131,-9.288809 4.49775,-10.708982 1.32933,-5.296452 5.90392,-5.81451 7.09837,-0.803868 0.34609,1.451835 0.9553,3.089699 1.3538,3.639699 0.39849,0.55 3.08394,6.4 5.96765,13 2.88372,6.6 5.89661,13.238424 6.69532,14.752052 C 397.53618,91.801329 396.71093,93 392.39447,93 c -2.82733,0 -3.80995,-0.566681 -5.19098,-2.993677 -1.63898,-2.880315 -1.97091,-2.993917 -8.76543,-3 -6.69026,-0.006 -7.17868,0.151573 -9.27994,2.993677 -1.72327,2.330855 -2.99199,3 -5.68806,3 C 360.9316,93 360,92.563129 360,91.372715 Z M 381.45369,78.074936 C 382.29375,76.715684 379.89628,72 378.36517,72 c -1.49882,0 -4.61082,5.421018 -3.65862,6.373216 0.96781,0.967814 6.10501,0.740707 6.74714,-0.29828 z"
       id="path5177"
       inkscape:connector-curvature="0" />
    <path
       style="fill:#515151"
       d="M 19.996141,97.489849 C 19.448263,96.048822 19,93.796245 19,92.484121 19,91.171998 18.589862,87.938793 18.088583,85.299221 17.587303,82.659649 16.6716,77.125 16.053686,73 15.435773,68.875 14.44935,62.710784 13.861636,59.301743 c -1.209102,-7.013408 -1.925671,-5.24689 10.030537,-24.727746 3.995498,-6.510068 7.18248,-10.627232 8.5,-10.98089 2.699773,-0.724692 38.448366,-0.742996 41.135112,-0.02106 1.235088,0.33187 4.55078,4.722669 8.485074,11.236345 3.551784,5.880386 7.44595,12.171143 8.653702,13.979461 2.278306,3.411214 2.294213,4.173245 0.327982,15.712149 -0.4686,2.75 -1.408301,8.825 -2.088225,13.5 -0.679923,4.675 -1.750873,11.425 -2.379888,15 l -1.143665,6.5 -5.441133,0 -5.441132,0 0,-5 0,-5 -3.716301,-0.308356 C 66.789765,88.860251 66.423679,89.394334 65.774206,96.5 l -0.274206,3 -12.446314,0 -12.446314,0 -1.060751,-5 c -1.027493,-4.843236 -1.170264,-5 -4.553686,-5 -3.458189,0 -3.497909,0.04974 -3.992935,5 l -0.5,5 -4.753859,0.304949 c -4.335187,0.278091 -4.84159,0.0742 -5.75,-2.3151 z M 75.973265,80.75 c 0.511712,-1.2375 1.644141,-8.139705 2.516508,-15.338234 L 80.075895,52.323533 76.287947,44.911766 72.5,37.5 66,37.5 c -5.979392,0 -6.525594,0.18021 -6.819551,2.25 C 58.890574,41.791052 58.31662,42 53,42 47.68338,42 47.109426,41.791052 46.819551,39.75 46.525594,37.68021 45.979392,37.5 40,37.5 l -6.5,0 -3.804194,7.260335 -3.804193,7.260335 1.091969,9.239665 C 27.584165,66.342151 28.351221,72.975 28.68815,76 c 0.336929,3.025 1.10743,5.830609 1.712224,6.234687 0.604794,0.404078 10.896773,0.741578 22.871065,0.75 21.642137,0.01522 21.776964,0.002 22.701826,-2.234687 z M 64.666667,69.333333 C 63.604716,68.271383 63.895571,61 65,61 c 0.55,0 1,2.025 1,4.5 0,4.578402 -0.15181,5.014857 -1.333333,3.833333 z M 41.252183,65.5 c 0.0111,-2.2 0.215885,-2.982253 0.455078,-1.738341 0.239193,1.243913 0.230112,3.043913 -0.02018,4 C 41.436788,68.717747 41.241084,67.7 41.252183,65.5 Z M 127.58402,92.135131 C 112.04239,86.597673 109.39234,67.112522 122.7715,56.75 125.86279,54.355712 127.21905,54 133.25666,54 c 5.4078,0 7.57406,0.455336 9.83897,2.068094 3.33635,2.37569 3.63235,3.965493 1.15437,6.199942 -1.52049,1.371057 -2.07787,1.396031 -4.25,0.190423 -4.12684,-2.29054 -10.41061,-1.825281 -13.79357,1.021293 -6.17377,5.194889 -6.62399,12.667835 -1.10337,18.314455 3.92751,4.017158 8.23422,4.854889 13.70508,2.665885 3.37883,-1.351943 4.50957,-1.441308 5.70313,-0.450737 2.80174,2.32524 1.74678,4.989537 -2.76127,6.973551 -6.50622,2.863421 -8.83228,3.052617 -14.16598,1.152225 z m 38.66365,-0.0149 c -6.42603,-2.219945 -8.51727,-4.034941 -11.1828,-9.705615 -2.42726,-5.163764 -2.66106,-11.815071 -0.58149,-16.542492 1.77723,-4.040125 2.96605,-5.517904 7.34335,-9.128266 C 164.73729,54.343244 166.00979,54 171.99899,54 c 6.19933,0 7.25406,0.310939 11.17327,3.293942 7.44035,5.663024 10.08062,13.545764 7.35651,21.963467 -2.1733,6.715667 -5.55828,10.235786 -12.25061,12.739709 -6.37107,2.383721 -5.5122,2.374931 -12.03049,0.123113 z m 11.73842,-7.871785 c 4.12281,-2.067796 5.97893,-5.33133 5.99917,-10.548106 0.0438,-11.298508 -11.47331,-16.86215 -19.56165,-9.449739 -6.39317,5.858903 -5.49931,15.29354 1.87494,19.789883 3.96072,2.414997 7.17314,2.472157 11.68754,0.207962 z m 119.62518,7.748763 C 288.87789,88.58648 284.86071,82.820371 284.72447,73.5 284.62853,66.936419 287.37566,61.442097 292.82774,57.293257 296.74665,54.311101 297.80215,54 304.00101,54 c 5.9892,0 7.2617,0.343244 10.17226,2.743858 4.3773,3.610362 5.56612,5.088141 7.34335,9.128266 3.1459,7.151482 0.54307,18.575959 -5.27475,23.152263 -2.10924,1.659123 -11.26738,5.085658 -13.17337,4.928839 -0.31268,-0.02573 -2.76843,-0.905934 -5.45723,-1.956017 z M 309.4324,84.330845 C 320.53654,79.03565 316.13392,61 303.73719,61 c -2.3607,0 -5.29488,0.702317 -6.5204,1.560704 -7.37012,5.162235 -6.69954,18.584292 1.09792,21.975639 4.24633,1.846849 6.91741,1.797477 11.11769,-0.205498 z M 203.66667,92.333333 C 203.3,91.966667 203,83.191667 203,72.833333 L 203,54 l 11.13192,0 11.13193,0 3.28488,3.482995 c 5.65535,5.996411 5.39859,10.98179 -0.9159,17.783825 l -2.56851,2.76682 3.39238,6.73318 c 2.86695,5.690318 3.16052,6.863318 1.8954,7.573408 -3.2411,1.819179 -6.02402,-0.203976 -9.43892,-6.862019 -2.38968,-4.659157 -4.06316,-6.728732 -5.79174,-7.162577 -4.10928,-1.031364 -5.58965,0.782577 -5.92809,7.26387 -0.28838,5.52275 -1.23008,7.369189 -3.77668,7.405185 -0.59584,0.0084 -1.38334,-0.284687 -1.75,-0.651354 z M 223.8,69.8 c 1.90147,-1.901469 1.45796,-6.591576 -0.73426,-7.764816 C 220.41497,60.616536 211.67146,60.728545 210.2,62.2 c -0.66,0.66 -1.2,2.37 -1.2,3.8 0,3.876517 1.79757,5 8,5 3.08,0 6.14,-0.54 6.8,-1.2 z m 20.42676,22.437043 c -0.97032,-0.673536 -1.20824,-5.267748 -1,-19.310424 L 243.5,54.5 l 9.62673,-0.284725 c 9.55265,-0.282534 9.66035,-0.259088 13.99428,3.046508 2.40214,1.832179 5.37521,5.110305 6.60681,7.284725 5.31993,9.392455 0.68373,22.70103 -9.21497,26.452294 -3.89631,1.476564 -18.64576,2.376855 -20.28609,1.238241 z m 19.63748,-8.972594 C 272.85661,76.593009 267.78537,61 256.62327,61 c -2.3228,0 -4.76327,0.54 -5.42327,1.2 -1.67863,1.678634 -1.63615,20.951832 0.05,22.684437 1.74364,1.791674 9.32869,0.817561 12.61424,-1.619988 z m 78.78405,6.55477 C 337.2482,77.340663 331.59569,64.98749 328.9131,59.801882 c -2.70626,-5.231335 -2.47562,-5.970251 1.75175,-5.612247 3.6192,0.3065 3.72367,0.441129 8.38851,10.810365 2.59801,5.775 5.3187,10.5 6.04598,10.5 0.72728,0 3.46327,-4.725 6.07997,-10.5 4.78987,-10.571119 6.34784,-12.162901 10.38734,-10.612798 1.54227,0.591827 1.13414,2.137834 -2.66973,10.112798 -1.04935,2.2 -4.29942,9.372997 -7.22239,15.939994 -2.92297,6.566996 -5.82645,12.110645 -6.45217,12.319219 -0.62572,0.208574 -1.78405,-1.114423 -2.57407,-2.939994 z m 18.84618,2.171832 c -0.81454,-1.317946 0.0488,-3.979546 4.05162,-12.491051 1.8106,-3.85 5.0678,-11.05 7.23823,-16 2.17043,-4.95 4.56936,-9.121442 5.33095,-9.269872 2.0327,-0.396157 18.37889,36.841419 16.64963,37.928818 -1.68184,1.057582 -4.97119,0.03744 -6.48079,-2.009921 C 385.41603,86.259272 384.79097,86 378.28158,86 c -6.31077,0 -6.79833,0.173324 -9.84545,3.5 -3.19467,3.487775 -5.7573,4.407387 -6.94166,2.491051 z m 20.4821,-13.462815 c 0.98432,-1.186038 0.78026,-2.18563 -1.05113,-5.148874 l -2.27258,-3.67711 -2.32643,2.704638 c -2.2787,2.649154 -2.98589,5.600322 -1.65976,6.926443 1.22129,1.221295 6.07148,0.687106 7.3099,-0.805097 z"
       id="path5175"
       inkscape:connector-curvature="0" />
    <path
       style="fill:#3c3c3c"
       d="M 20.499225,94.25 C 20.173954,92.1875 19.478564,87.6875 18.953912,84.25 16.608093,68.880274 15.857051,64.1401 14.929708,58.851416 14.000584,53.552572 14.11141,52.921937 16.71963,48.66616 18.248833,46.17099 22.119697,39.825353 25.321549,34.564744 L 31.143099,25 l 21.920581,0 21.920581,0 1.757869,3.460935 c 2.240784,4.411709 10.105054,17.30372 12.458821,20.423924 1.988733,2.636307 2.27937,7.487487 0.887632,14.81592 C 89.587303,66.340351 88.70111,71.65 88.119265,75.5 87.537419,79.35 86.509807,85.9875 85.83568,90.25 L 84.609997,98 80.054998,98.0016 75.5,98.0032 l 0,-4.719862 c 0,-4.228918 -0.281855,-4.819783 -2.70971,-5.680491 -1.848515,-0.655324 -3.51706,-0.592776 -5.25,0.196804 C 65.365117,88.790764 65,89.60699 65,93.478561 L 65,98 53.1676,98 41.335199,98 40.4176,93.346801 c -1.090285,-5.528895 -3.12563,-7.185082 -7.114831,-5.789431 -2.465629,0.862619 -2.839432,1.549656 -3.10756,5.7116 L 29.890418,98 25.490522,98 c -4.312519,0 -4.41164,-0.07447 -4.991297,-3.75 z m 56.330521,-12 c 0.495062,-0.9625 1.681151,-8.172489 2.635752,-16.022197 L 81.201137,51.955606 77.458552,44.482384 C 75.40013,40.372112 73.144164,36.534608 72.445294,35.954598 71.746423,35.374587 68.322831,35.035025 64.83731,35.200016 58.752862,35.48803 58.487375,35.609727 58.183578,38.25 57.886067,40.835639 57.572287,41 52.933578,41 48.849392,41 48,40.690102 48,39.2 48,36.136712 45.822652,35 39.954988,35 c -6.585897,0 -7.258199,0.557796 -11.933185,9.900738 l -3.202778,6.400737 1.213237,11.099263 C 26.699543,68.505332 27.443789,75.3 27.686143,77.5 c 0.242355,2.2 0.622994,4.5625 0.845866,5.25 0.308952,0.953036 5.987246,1.25 23.901422,1.25 21.367768,0 23.577739,-0.158526 24.396315,-1.75 z m 50.479034,9.107311 c -5.60868,-1.986945 -10.89601,-7.954683 -11.80275,-13.321601 -1.34009,-7.931936 0.17006,-12.997515 5.4484,-18.275851 L 125.71429,55 l 7.17804,0 c 9.50803,0 14.94283,3.402135 10.85473,6.79496 -0.88084,0.731029 -1.99454,0.629425 -3.75,-0.34212 -4.27434,-2.365584 -10.40728,-1.819989 -14.05631,1.250469 -8.46912,7.126299 -6.86749,18.320354 3.27569,22.894292 3.81173,1.718851 4.20767,1.721206 8.90472,0.05296 C 143.40651,83.773373 145,84.071116 145,86.935873 c 0,1.224774 -1.61015,2.510508 -4.93538,3.940983 -5.70083,2.452431 -7.04636,2.503111 -12.75584,0.480455 z m 38.05932,-0.435248 c -6.71321,-2.581896 -10.53085,-7.839478 -11.15468,-15.362002 -0.60277,-7.268664 1.07655,-11.650858 6.31529,-16.479756 C 164.83871,55.107482 165.14184,55 172.0363,55 c 6.47047,0 7.42444,0.276013 11.0646,3.201327 4.21868,3.390221 7.8991,10.261587 7.8991,14.747652 0,4.419304 -2.90274,11.586807 -5.79492,14.308944 -2.5072,2.359793 -10.68747,5.810155 -13.49003,5.689971 -0.66828,-0.02866 -3.52441,-0.940282 -6.34695,-2.025831 z m 12.04042,-5.448288 c 7.24161,-3.025737 9.88765,-12.770717 5.31146,-19.561323 -4.55515,-6.759388 -12.31455,-7.963342 -18.17283,-2.819707 -5.01874,4.406514 -6.358,9.495543 -4.07329,15.477986 1.43494,3.757328 2.55345,4.991994 5.89843,6.51095 5.04432,2.290628 6.37892,2.338043 11.03623,0.392094 z M 298,91.355782 C 295.525,90.503973 292.28271,88.660628 290.79492,87.25946 288.00981,84.636516 285,77.408014 285,73.342098 c 0,-4.403326 3.27176,-10.865305 7.37301,-14.562256 3.95497,-3.565098 4.43011,-3.721403 11.39933,-3.75 7.13462,-0.02928 7.35618,0.04743 11.69895,4.050463 5.23874,4.828898 6.91806,9.211092 6.31529,16.479756 -0.63724,7.684274 -4.42499,12.786805 -11.44048,15.411636 -6.37682,2.385875 -6.51707,2.390238 -12.3461,0.384085 z m 11.62771,-6.274101 c 3.34498,-1.518956 4.46349,-2.753622 5.89843,-6.51095 2.30601,-6.038202 0.95121,-11.066418 -4.20047,-15.589652 -3.27998,-2.879857 -4.14066,-3.157227 -8.49778,-2.738564 -5.44204,0.522912 -8.42505,2.65355 -10.46591,7.475366 -2.89106,6.830547 -0.40292,14.546517 5.63802,17.484087 4.51136,2.19377 6.5789,2.172381 11.62771,-0.120287 z M 203.44347,90.71328 c -0.27157,-0.707697 -0.36995,-8.920197 -0.21862,-18.25 L 203.5,55.5 213.87011,55.213691 c 11.6679,-0.32214 13.49913,0.342973 16.55198,6.011774 2.29897,4.268945 1.6547,7.478542 -2.43654,12.13821 C 226.3435,75.23387 225,77.48198 225,78.359475 c 0,0.877495 1.33512,4.063228 2.96693,7.079405 3.07813,5.689492 2.76306,7.22041 -1.27377,6.189114 -1.45179,-0.370893 -3.19465,-2.626538 -5.15582,-6.67277 C 218.52041,78.730776 216.69283,77 213.13717,77 209.52651,77 208,79.695576 208,86.071429 208,91.363865 207.78203,92 205.96862,92 c -1.11727,0 -2.25358,-0.579024 -2.52515,-1.28672 z M 223.77749,70.443296 C 226.55232,68.499732 226.65368,64.653676 224,62 222.49123,60.491228 220.66667,60 216.57143,60 210.3313,60 208,61.631908 208,66 c 0,1.571429 0.70714,3.564286 1.57143,4.428571 2.09641,2.09641 11.22054,2.105867 14.20606,0.01472 z M 244.75,91.444049 C 244.3375,91.016489 244,82.641667 244,72.833333 L 244,55 l 9.26787,0 c 8.28472,0 9.66567,0.270316 13.01788,2.548205 12.10258,8.223915 11.69352,25.712472 -0.75281,32.184734 -3.20053,1.66432 -19.53092,3.008841 -20.78294,1.71111 z m 15.34834,-5.591658 c 5.94098,-1.77996 8.20229,-4.860453 8.70886,-11.863715 0.42481,-5.872918 0.35859,-6.058183 -3.56953,-9.986304 C 261.89011,60.654813 260.575,60 257.19943,60 249.90096,60 250,59.815104 250,73.440322 c 0,6.72449 0.3,12.526345 0.66667,12.893011 1.01122,1.011221 5.15685,0.799826 9.43167,-0.480942 z M 342.07856,86.75 C 340.75321,83.8625 338.81519,79.475 337.77185,77 335.30073,71.138032 331.18153,62.199703 329.40551,58.845708 327.48247,55.21407 327.57261,55 331.02475,55 c 2.38248,0 3.24423,0.583928 4.05839,2.75 0.5685,1.5125 2.06108,5 3.31684,7.75 1.25577,2.75 2.85909,6.4625 3.56294,8.25 2.01833,5.125772 4.34699,4.196458 7.51737,-3 C 356.6818,54.403205 356.31352,55 359.19979,55 l 2.71149,0 -1.36468,3.867919 c -0.75057,2.127356 -1.82738,4.714856 -2.3929,5.75 -0.56553,1.035145 -1.92473,3.907081 -3.02046,6.382081 -1.09572,2.475 -3.15172,7.065481 -4.56888,10.201069 -1.41716,3.135587 -3.01275,6.848087 -3.54576,8.25 C 346.4856,90.852981 345.69823,92 345.2689,92 c -0.42933,0 -1.86498,-2.3625 -3.19034,-5.25 z M 362,90.487892 c 0,-0.83166 1.52662,-4.76916 3.39248,-8.75 7.4886,-15.976978 10.35624,-22.341815 11.03289,-24.487892 0.93714,-2.972292 2.39574,-2.850716 3.59346,0.29952 0.53313,1.402236 2.52093,5.789736 4.41734,9.75 1.89641,3.960264 4.64081,10.12548 6.09867,13.70048 1.45786,3.575 3.05892,6.9275 3.55791,7.45 1.56108,1.634636 0.99277,3.55 -1.05332,3.55 -1.07832,0 -2.54082,-0.707254 -3.25,-1.571676 -4.34535,-5.296525 -4.62711,-5.428692 -11.53943,-5.413011 -7.43633,0.01687 -8.00831,0.246541 -10.54615,4.234687 C 365.83811,92.181947 362,93.014923 362,90.487892 Z m 19.41821,-10.094881 c 2.08346,-0.799498 2.00891,-4.480487 -0.16821,-8.305649 -2.24584,-3.945899 -3.59419,-3.884547 -6.16844,0.280672 -2.3432,3.791374 -2.70048,7.21556 -0.83156,7.969685 1.80966,0.730213 5.33847,0.757432 7.16821,0.05529 z"
       id="path5173"
       inkscape:connector-curvature="0" />
    <path
       style="fill:#363636"
       d="M 127.65519,90.541351 C 119.8097,87.744048 116,82.070674 116,73.184519 c 0,-4.400606 0.512,-6.565707 2,-8.45739 1.1,-1.398423 2,-3.034109 2,-3.634858 C 120,60.491522 120.65264,60 121.45031,60 c 0.79767,0 1.81017,-0.609307 2.25,-1.354015 2.27522,-3.852347 12.28148,-4.951242 17.42395,-1.91351 2.93403,1.733174 3.56187,5.109454 0.81635,4.390037 -0.79234,-0.207618 -3.05663,-0.806711 -5.03176,-1.331318 -8.50309,-2.258471 -15.81125,3.137667 -16.69418,12.326519 -0.35654,3.710563 0.03,5.542167 1.76079,8.342579 3.6358,5.882852 11.47635,8.509009 16.83769,5.639708 C 141.83694,84.481714 144,84.758662 144,86.7641 c 0,1.103132 -1.50128,2.414502 -4.00686,3.5 -4.7556,2.06028 -7.1841,2.114852 -12.33795,0.277251 z m 37.49043,-0.561154 C 158.97419,87.1798 154.06865,80.019776 154.01506,73.734251 153.97864,69.46323 156.79213,63.64366 160.79258,59.715263 164.98346,55.599879 165.24548,55.5 171.85112,55.5 c 5.97488,0 7.16833,0.334338 10.20742,2.85955 5.11352,4.248886 7.94146,9.806954 7.94146,15.608274 0,2.702778 -0.45,5.192257 -1,5.532176 -0.55,0.339919 -1,1.44486 -1,2.455425 0,2.548153 -6.17394,7.721256 -10.72267,8.984447 -5.24975,1.457868 -7.13216,1.30896 -12.13171,-0.959675 z m 11.5999,-3.518335 c 5.18707,-2.167296 7.1025,-4.183726 8.34012,-8.779894 1.46313,-5.433672 0.4114,-10.046283 -3.23856,-14.203349 C 178.97522,60.207746 178.42157,60 172.57652,60 c -5.44299,0 -6.61954,0.360007 -9.45772,2.893933 -2.67172,2.385317 -3.3387,3.836549 -3.79495,8.257247 -0.79753,7.727242 1.3496,12.343272 6.88494,14.801689 5.3452,2.373966 5.99777,2.40549 10.53673,0.508993 z m 120.83771,4.054752 C 292.61572,88.746615 289.05948,85.200411 287.36147,80.323685 284.45736,71.983007 286.74805,64.336637 293.94146,58.35955 296.98055,55.834338 298.174,55.5 304.14888,55.5 c 6.66356,0 6.8347,0.06747 11.30854,4.458208 2.49842,2.452014 4.54258,5.237957 4.54258,6.190983 0,0.953026 0.45,2.01089 1,2.350809 1.36768,0.845271 1.23155,6.25236 -0.26506,10.528518 -1.82927,5.22666 -4.99377,8.734211 -9.88056,10.951679 -5.11794,2.32236 -7.93888,2.436382 -13.27115,0.536417 z m 11.77726,-4.456813 c 6.01215,-2.577109 8.00138,-6.380284 7.43471,-14.214333 -0.36927,-5.105213 -0.84248,-6.209282 -3.7887,-8.839663 C 310.04016,60.357458 308.91046,60 303.50698,60 c -5.42456,0 -6.44539,0.326271 -8.83958,2.825277 -4.76971,4.978501 -5.62493,13.200411 -1.9772,19.008517 1.3698,2.181074 8.36223,6.095042 10.97689,6.144244 0.64191,0.01208 3.20393,-0.851128 5.6934,-1.918237 z M 204,73 l 0,-18 9.61765,0 9.61764,0 3.88236,3.882353 c 5.03782,5.037826 5.12797,8.302423 0.38235,13.846613 -4.12809,4.822747 -4.26137,6.433539 -0.97391,11.771034 1.35501,2.2 2.46597,4.5625 2.46879,5.25 0.007,1.775413 -3.962,1.556178 -4.52626,-0.25 -0.71728,-2.295951 -1.36957,-3.657234 -3.83339,-8 -2.16689,-3.819388 -2.4921,-4 -7.2023,-4 l -4.93293,0 -0.29569,6.75 c -0.25976,5.929863 -0.53314,6.75 -2.25,6.75 C 204.08761,91 204,90.193059 204,73 Z m 22.24104,-4.214599 c 0.6213,-1.869754 0.48654,-3.58148 -0.43298,-5.5 C 224.51242,60.582146 224.23751,60.5 216.48653,60.5 l -7.98653,0 -0.31309,4.364404 c -0.50789,7.079978 -0.28163,7.254749 8.96683,6.926293 7.90847,-0.280866 8.21579,-0.382498 9.0873,-3.005296 z M 245,72.900502 l 0,-18.099498 8.79251,0.349498 c 8.16559,0.324579 9.08556,0.581718 12.90263,3.606416 7.53651,5.972014 9.9862,13.75333 6.6401,21.091953 C 269.46966,88.326829 264.56558,91 252.87788,91 L 245,91 245,72.900502 Z m 15.71505,13.506763 c 6.04778,-2.013085 6.90434,-2.876152 8.38237,-8.446054 1.58253,-5.96373 0.57786,-10.776151 -3.08749,-14.789195 -2.87454,-3.147219 -3.22336,-3.253454 -9.74559,-2.968033 L 249.5,60.5 249.2173,72.989504 c -0.24612,10.873377 -0.0596,12.652611 1.44113,13.75 2.26573,1.65674 4.28131,1.590152 10.05662,-0.332239 z m 79.95279,-4.717088 c -2.56731,-5.348562 -4.67067,-10.0544 -4.67414,-10.457417 -0.003,-0.403018 -1.74124,-4.22026 -3.86173,-8.48276 -3.82509,-7.688998 -3.83705,-7.75 -1.5187,-7.75 1.8283,0 2.79056,1.033538 4.42243,4.75 1.14713,2.6125 2.72551,6.1 3.50751,7.75 0.782,1.65 2.08172,4.6875 2.88828,6.75 1.16147,2.970102 1.997,3.75 4.01748,3.75 C 346.98513,78 348,77.435499 348,76.58104 c 0,-0.780429 0.65298,-2.692929 1.45107,-4.25 1.85947,-3.627827 5.15133,-11.04374 6.4724,-14.58104 0.6709,-1.796436 1.75248,-2.75 3.11917,-2.75 2.41171,0 2.09496,2.159112 -1.14532,7.80716 C 356.85379,64.626098 356,66.53084 356,67.03992 c 0,0.509079 -1.95326,5.095857 -4.34058,10.19284 -2.38733,5.096982 -4.7868,10.373078 -5.33217,11.724658 -0.91738,2.273531 -1.34087,1.729731 -5.65941,-7.267241 z m 21.54698,8.643919 c 0.76787,-1.466286 5.9851,-12.693214 7.82293,-16.834096 0.97641,-2.2 2.94236,-6.450855 4.36877,-9.446344 1.42642,-2.99549 2.59348,-6.03299 2.59348,-6.75 0,-1.92444 1.97738,-1.584343 2.59512,0.446344 0.2928,0.9625 1.15318,3.1 1.91197,4.75 3.26256,7.094506 8.70891,19.195605 9.67652,21.5 0.57735,1.375 1.44723,3.281394 1.93306,4.236431 C 394.36615,90.692642 394.24803,91 392.05457,91 c -1.13676,0 -2.49221,-1.143126 -3.26079,-2.75 -1.27641,-2.668588 -1.58674,-2.758484 -10.48247,-3.036572 -9.15878,-0.286311 -9.16833,-0.284036 -10.49858,2.5 -0.78655,1.646151 -2.29388,2.923303 -3.68309,3.120668 -1.29339,0.183752 -2.15506,-0.04125 -1.91482,-0.5 z M 383.80235,77.895879 C 384.18423,74.60667 380.36287,68 378.07848,68 c -1.03538,0 -2.59361,1.741295 -3.90122,4.359531 -3.72567,7.459922 -3.01327,8.862553 4.28433,8.435391 4.59402,-0.26891 5.06508,-0.524606 5.34076,-2.899043 z"
       id="path5171"
       inkscape:connector-curvature="0" />
  </g>
</svg>
