<?xml version="1.0" encoding="UTF-8" standalone="no"?>
<!-- Created with Inkscape (http://www.inkscape.org/) -->

<svg
   xmlns:dc="http://purl.org/dc/elements/1.1/"
   xmlns:cc="http://creativecommons.org/ns#"
   xmlns:rdf="http://www.w3.org/1999/02/22-rdf-syntax-ns#"
   xmlns:svg="http://www.w3.org/2000/svg"
   xmlns="http://www.w3.org/2000/svg"
   xmlns:xlink="http://www.w3.org/1999/xlink"
   xmlns:sodipodi="http://sodipodi.sourceforge.net/DTD/sodipodi-0.dtd"
   xmlns:inkscape="http://www.inkscape.org/namespaces/inkscape"
   id="svg4105"
   version="1.1"
   inkscape:version="0.91 r13725"
   width="110"
   height="123"
   viewBox="0 0 110 123"
   sodipodi:docname="C#.bmp.svg">
  <metadata
     id="metadata4111">
    <rdf:RDF>
      <cc:Work
         rdf:about="">
        <dc:format>image/svg+xml</dc:format>
        <dc:type
           rdf:resource="http://purl.org/dc/dcmitype/StillImage" />
        <dc:title></dc:title>
      </cc:Work>
    </rdf:RDF>
  </metadata>
  <defs
     id="defs4109" />
  <sodipodi:namedview
     pagecolor="#ffffff"
     bordercolor="#666666"
     borderopacity="1"
     objecttolerance="10"
     gridtolerance="10"
     guidetolerance="10"
     inkscape:pageopacity="0"
     inkscape:pageshadow="2"
     inkscape:window-width="640"
     inkscape:window-height="480"
     id="namedview4107"
     showgrid="false"
     inkscape:zoom="1.9186992"
     inkscape:cx="55"
     inkscape:cy="61.5"
     inkscape:window-x="0"
     inkscape:window-y="0"
     inkscape:window-maximized="0"
     inkscape:current-layer="svg4105" />
  <image
     width="110"
     height="123"
     preserveAspectRatio="none"
     style="image-rendering:optimizeQuality"
     xlink:href="file:///media/havoc/USB%20DISK/pics/_OpsDeps/C%23.bmp"
     id="image4113"
     x="0"
     y="0"
     sodipodi:absref="/media/havoc/USB DISK/pics/_OpsDeps/C#.bmp" />
  <g
     id="g5243">
    <path
       style="fill:#faf9fb"
       d="M 0,61.5 0,0 l 55,0 55,0 0,61.5 0,61.5 -55,0 -55,0 0,-61.5 z"
       id="path5259"
       inkscape:connector-curvature="0" />
    <path
       style="fill:#ccacd3"
       d="M 48.822663,106.6449 C 35.037547,99.329881 17.406674,88.764579 15.75,86.826106 14.192392,85.00355 14,82.226228 14,61.56353 14,38.771386 14.040974,38.310774 16.25,36.269956 19.202609,33.542175 51.031038,15.281298 54.234143,14.47737 c 1.407621,-0.353291 4.124674,0.06354 6.277501,0.963049 5.231103,2.185694 32.831675,18.299133 35.327886,20.624708 2.857335,2.662012 3.368868,7.762832 2.991264,29.827789 L 98.5,85.222608 95.320687,87.861304 C 90.014259,92.265417 58.121271,110 55.507564,110 c -0.199231,0 -3.207436,-1.50979 -6.684901,-3.3551 z M 67.185908,85.566789 C 70.995196,83.975167 78,77.953766 78,76.270884 78,75.724756 76.040256,74.238281 73.645014,72.967608 l -4.354986,-2.310314 -2.895014,2.032547 C 58.635979,78.137348 50.496092,77.606921 44.951982,71.29253 42.377583,68.360451 42,67.155606 42,61.872933 c 0,-4.614742 0.493826,-6.685272 2.073383,-8.693354 5.491625,-6.98147 13.731547,-8.276701 20.671587,-3.249362 l 4.045048,2.930217 3.854991,-2.0325 c 2.120245,-1.117875 4.238492,-2.392475 4.707216,-2.832443 C 78.958287,46.48796 73.586988,40.949714 67.633548,37.974745 59.536418,33.928562 53.060005,33.922269 44.93664,37.952691 34.577514,43.09239 30,50.473859 30,62.038762 c 0,8.039129 1.38378,11.527463 6.860185,17.293659 3.898306,4.10459 7.825102,6.525005 12.639815,7.790981 4.108629,1.080319 13.313916,0.270122 17.685908,-1.556613 z m 20.355211,-21.63332 c 0.91669,-1.483236 0.0546,-2.099297 -1.892247,-1.352223 -0.900562,0.345578 -1.388412,1.03117 -1.084111,1.523539 0.748461,1.211036 2.172681,1.12906 2.976358,-0.171316 z M 81.5,63 C 81.160081,62.45 80.458524,62 79.940983,62 79.423442,62 79,62.45 79,63 c 0,0.55 0.701558,1 1.559017,1 0.857459,0 1.280902,-0.45 0.940983,-1 z"
       id="path5257"
       inkscape:connector-curvature="0" />
    <path
       style="fill:#b98dc5"
       d="m 48.5,105.66683 c -3.3,-1.86632 -8.025,-4.57574 -10.5,-6.020939 -2.475,-1.445198 -7.524647,-4.255728 -11.221439,-6.245622 -3.696791,-1.989893 -7.859291,-4.672514 -9.25,-5.96138 L 15,85.095498 15,61.702736 C 15,40.673277 15.176797,38.155447 16.75,36.780403 19.496484,34.379863 51.751318,16.100519 54.424666,15.429552 57.191574,14.735102 61.672037,16.67668 74,23.912386 c 4.675,2.743918 10.975,6.311939 14,7.928935 9.88117,5.28192 9.5,4.073744 9.5,30.111733 0,17.921042 -0.293974,23.095212 -1.386959,24.411544 -0.762828,0.918709 -4.812828,3.620985 -9,6.005059 C 82.925868,94.75373 75,99.278417 69.5,102.42452 c -5.5,3.14609 -11.125,5.92615 -12.5,6.1779 -1.636093,0.29954 -4.573377,-0.71488 -8.5,-2.93559 z M 67.38346,86.61314 C 71.468012,84.906505 79,78.301183 79,76.425791 79,74.934451 71.180439,70 68.81713,70 67.988195,70 66.542705,70.847824 65.604929,71.884054 62.762158,75.025281 56.202599,76.338317 51.5,74.707456 45.843888,72.745918 43,68.22575 43,61.197281 43,56.063792 43.274123,55.42956 47.042107,51.845164 50.608002,48.453009 51.664217,48 56.007311,48 c 4.112426,0 5.523183,0.526882 8.567342,3.19969 l 3.644246,3.19969 4.64055,-2.630203 c 6.66739,-3.778988 7.190705,-5.057733 3.612491,-8.827294 -4.883296,-5.144433 -13.460116,-8.942013 -20.193423,-8.941094 -10.951875,0.0015 -21.502149,7.110179 -25.792692,17.378894 -2.044626,4.89348 -1.948456,16.82473 0.168623,20.919977 4.103685,7.938109 11.106343,13.839638 18.769854,15.818398 4.11022,1.061281 13.750843,0.253429 17.959158,-1.504918 z M 84.171634,65.72748 c 2.415725,2.004874 4.314358,-0.740647 4.479426,-6.47748 0.153513,-5.335271 -0.335296,-6.165764 -2.408678,-4.092382 -0.876825,0.876825 -1.531741,0.847124 -2.7,-0.122444 -1.999338,-1.659303 -4.903869,0.474495 -4.217678,3.098494 0.255062,0.975359 -0.1227,2.575398 -0.839472,3.555642 -1.944812,2.659688 -0.111636,5.718833 2.463336,4.110737 1.386344,-0.865786 2.244027,-0.885097 3.223066,-0.07257 z M 82,60.073324 C 82,58.642225 82.642225,58 84.073324,58 c 1.431099,0 1.969616,0.538516 1.738517,1.738516 C 85.309829,62.345253 82,62.635967 82,60.073324 Z"
       id="path5255"
       inkscape:connector-curvature="0" />
    <path
       style="fill:#af8bb8"
       d="M 51,106.62485 C 33.64659,97.768255 16.216166,86.928895 15.592711,84.606315 15.28174,83.447842 15.021165,73.037628 15.013655,61.472506 15.00264,44.510664 15.286129,40.036506 16.479856,38.332223 17.733839,36.54191 40.360371,22.845718 50.70034,17.61803 c 5.14003,-2.5987 8.149905,-1.851127 19.79966,4.917705 6.05,3.515218 13.25,7.581081 16,9.035249 2.75,1.454168 6.2375,3.804775 7.75,5.223571 l 2.75,2.579627 0,22.860658 0,22.860658 -2.407516,2.202251 c -1.324134,1.211238 -4.586634,3.359313 -7.25,4.773501 C 84.679118,93.485437 77.325,97.609162 71,101.23508 c -6.325,3.62592 -12.4,6.8387 -13.5,7.1395 -1.107408,0.30283 -4.008332,-0.47807 -6.5,-1.74973 z M 68.729412,86.138044 c 2.148858,-1.096266 5.627603,-3.897696 7.730543,-6.225399 4.311189,-4.771971 4.264783,-4.882209 -3.816183,-9.065445 -3.823982,-1.979542 -3.874156,-1.979932 -6,-0.04668 -4.935949,4.488772 -10.789223,5.419028 -17.21188,2.73547 -6.544207,-2.734344 -8.688872,-13.70027 -3.812776,-19.495181 5.682463,-6.753224 12.345088,-7.5937 19.136059,-2.413974 l 3.569256,2.722404 5.533664,-2.924619 c 3.043515,-1.60854 5.693916,-3.444812 5.88978,-4.080604 C 80.389804,45.260251 74.110103,39.286271 68.47129,36.616419 64.148894,34.569861 61.420459,34 55.944148,34 44.537673,34 36.063885,39.325599 30.47517,50.006723 c -2.486437,4.752063 -2.608161,18.166993 -0.205588,22.657387 3.152594,5.892182 11.122166,13.088154 16.348574,14.761633 6.32465,2.025131 16.815104,1.414196 22.111256,-1.287699 z M 81.487343,66.020479 c 0.382845,-0.619455 1.302961,-0.543873 2.503078,0.205612 2.690204,1.68006 6.424349,-1.582569 4.954543,-4.328926 -0.684789,-1.279541 -0.616238,-2.450676 0.222014,-3.792932 1.587518,-2.542019 -0.630817,-5.794097 -2.751669,-4.033946 C 85.689676,54.672509 84.152787,54.86588 83,54.5 c -2.654013,-0.842351 -5.22553,1.214058 -4.475042,3.578635 0.313562,0.987948 0.0133,2.687875 -0.667258,3.777616 -0.991316,1.587349 -0.97642,2.295774 0.07491,3.562548 1.503156,1.811192 2.683717,2.011015 3.554734,0.60168 z m 0.958806,-5.107611 c -1.030521,-1.667419 1.287209,-3.57951 2.666719,-2.2 C 86.266792,59.866792 85.544589,62 84,62 83.514919,62 82.815686,61.51079 82.446149,60.912868 Z"
       id="path5253"
       inkscape:connector-curvature="0" />
    <path
       style="fill:#9b5aab"
       d="m 52,106.88635 c -1.375,-0.54278 -4.075,-2.02233 -6,-3.28788 C 44.075,102.33291 37.775,98.672868 32,95.465038 26.225,92.257209 20.2625,88.78464 18.75,87.748217 L 16,85.863812 16,62.086893 c 0,-26.803004 -0.611725,-24.679284 8.5,-29.509372 2.75,-1.457764 9.95,-5.526328 16,-9.041253 C 54.948812,15.141807 56.231867,14.908303 64.18821,19.225244 80.40134,28.02214 94.190791,36.434306 95.528541,38.34421 96.715039,40.038173 97,44.684723 97,62.33768 l 0,21.892667 -2.75,2.477323 C 90.111561,90.43576 58.903297,108.00936 56.550343,107.93661 55.422654,107.90175 53.375,107.42913 52,106.88635 Z M 61.200779,88.876793 C 64.115351,88.259028 68.117606,86.93554 70.09468,85.935707 73.929649,83.996311 80.00067,77.73147 79.998983,75.715204 79.997917,74.441093 71.083379,69 68.996976,69 c -0.664545,0 -2.523971,1.107094 -4.132057,2.460209 -3.688564,3.103722 -8.714203,4.074666 -13.284103,2.566463 C 46.096832,72.216794 44,68.816459 44,61.733218 44,56.15207 44.247674,55.502567 47.571202,52.368077 50.623647,49.489251 51.853313,49 56.036406,49 c 4.039609,0 5.506147,0.537471 8.400404,3.078662 l 3.506403,3.078662 5.197158,-2.828662 c 7.536235,-4.101754 8.066685,-5.473727 3.835308,-9.919776 C 75.064055,40.40028 70.8,37.461933 67.5,35.879226 59.287894,31.940634 53.141518,31.990703 44.515157,36.066463 33.721513,41.166214 28,50.030848 28,61.654243 c 0,7.613813 1.712405,12.159089 6.679784,17.7303 4.835489,5.423289 8.446972,7.686155 14.680508,9.198445 6.633921,1.609426 5.738317,1.587203 11.840487,0.293805 z M 81.925,66.75 c 1.06,-1 1.416667,-1 1.783333,0 0.635414,1.732948 2.057758,1.561873 4.157073,-0.5 1.556881,-1.529113 2.151164,-7.401659 1.26496,-12.5 -0.216163,-1.243592 -2.932644,-0.842269 -3.384411,0.5 -0.327008,0.97159 -0.795203,0.94085 -2.102091,-0.138012 -1.452497,-1.199065 -1.958792,-1.136957 -3.719265,0.456249 -1.399504,1.266533 -1.855818,2.569672 -1.456679,4.159971 0.390111,1.554326 0.07994,2.508062 -0.943357,2.90074 -1.975418,0.758039 -1.932202,2.263134 0.130425,4.542311 1.957496,2.16301 2.511145,2.238049 4.270012,0.578741 z M 82.5,60 c 0.339919,-0.55 1.041476,-1 1.559017,-1 C 84.576558,59 85,59.45 85,60 85,60.55 84.298442,61 83.440983,61 82.583524,61 82.160081,60.55 82.5,60 Z"
       id="path5251"
       inkscape:connector-curvature="0" />
    <path
       style="fill:#8e39a4"
       d="m 53,106.66816 c -1.375,-0.64318 -4.525,-2.348 -7,-3.7885 C 43.525,101.43915 36.55,97.475667 30.5,94.071908 24.45,90.66815 18.825,87.099557 18,86.141701 16.741229,84.680222 16.545921,80.679729 16.785542,61.266027 l 0.285542,-23.13412 7.214458,-4.204519 C 43.994237,22.441345 54.285412,17 56.300183,17 c 1.221806,0 7.841594,3.216846 14.710641,7.148548 C 77.879871,28.080249 85.525,32.427562 88,33.809243 96.570274,38.593642 96,36.584085 96,62 96,82.350091 95.819529,84.850497 94.25,86.246098 90.377625,89.689354 57.264079,108.34542 55.782119,107.91878 55.626953,107.87411 54.375,107.31133 53,106.66816 Z M 68.434633,87.476708 C 72.414764,85.7997 81,77.64332 81,75.539016 81,74.910457 78.174345,72.886457 74.720767,71.041239 l -6.279233,-3.354941 -2.842547,2.634384 C 60.666003,74.892416 51.893122,75.127124 47.298075,70.810301 45.37615,69.004746 45,67.628572 45,62.402609 45,56.758157 45.297566,55.85628 48.076923,53.076923 50.639048,50.514798 51.939402,50 55.849079,50 c 3.734618,0 5.434993,0.609773 8.310985,2.980408 l 3.615752,2.980408 4.862092,-2.571332 C 78.273356,50.40916 81,48.171387 81,46.526665 81,43.992918 74.156938,37.956981 68,35.059989 58.814338,30.737907 52.581678,30.842871 43.3214,35.475599 32.648568,40.814999 27,49.874997 27,61.654243 c 0,8.105864 1.87442,12.595707 7.79611,18.674212 7.587351,7.788274 12.742086,9.831869 23.20389,9.199183 3.575,-0.2162 8.270585,-1.139119 10.434633,-2.05093 z M 81.925,67.75 c 1.06,-1 1.416667,-1 1.783333,0 0.710414,1.937493 2.560706,1.45882 5.228857,-1.352714 2.08878,-2.201026 2.259267,-2.853061 1.192589,-4.561084 -0.972192,-1.556727 -0.980983,-2.310564 -0.04017,-3.444177 0.908955,-1.095223 0.928299,-2.057301 0.07885,-3.921639 -1.159747,-2.545367 -3.555936,-3.27049 -4.698472,-1.421828 -0.445721,0.721193 -1.073627,0.695356 -2.011195,-0.08276 -2.320264,-1.925648 -6.624647,1.861486 -6.005917,5.284198 0.273418,1.5125 0.04425,2.75 -0.509262,2.75 -1.946077,0 -2.097248,2.921036 -0.28027,5.415586 2.065699,2.836022 3.330056,3.156677 5.261655,1.334414 z"
       id="path5249"
       inkscape:connector-curvature="0" />
    <path
       style="fill:#7a2c8e"
       d="M 49,104.39217 C 39.798794,99.109178 35.334347,96.57378 29,93.033998 19.77588,87.879343 17,85.93427 17,84.625537 c 0,-1.189603 0.412498,-1.492238 8.245304,-6.049299 l 4.745304,-2.760778 5.369915,5.412986 c 6.896276,6.95159 13.570156,9.318949 23.843275,8.457688 7.927285,-0.664595 13.654962,-3.483366 18.65905,-9.182708 4.563006,-5.196976 4.134443,-6.655315 -3.043733,-10.357388 l -6.180885,-3.18773 -3.233502,3.134033 c -2.335819,2.263965 -4.437152,3.256565 -7.569115,3.575399 -5.183321,0.527661 -11.19465,-2.147594 -11.611972,-5.16774 -0.315182,-2.28096 3.040973,-4.13533 25.273413,-13.964271 3.29838,-1.458211 6.984203,-3.57867 8.190718,-4.712131 1.206514,-1.133462 5.013865,-3.795191 8.460779,-5.914953 4.56297,-2.806108 6.478358,-3.521629 7.04397,-2.631379 0.919317,1.446966 0.858878,37.876069 -0.07004,42.219202 C 94.474652,86.525341 90.247369,89.480793 73,98.963121 69.975,100.62622 65.48196,103.11487 63.015467,104.49347 57.366032,107.6511 54.641658,107.63141 49,104.39217 Z M 89.514749,66.749551 c 2.701017,-2.504906 2.842897,-2.947221 1.589277,-4.954587 -0.979125,-1.567827 -1.048487,-2.313477 -0.240266,-2.582884 1.586846,-0.528949 1.416221,-3.367339 -0.354382,-5.895228 -1.869085,-2.668493 -7.689875,-2.592176 -11.849558,0.155361 -2.333032,1.541004 -2.739261,2.380583 -2.275,4.701885 C 76.695902,59.729508 76.511652,61 75.975,61 c -1.489711,0 -1.160978,3.786529 0.556267,6.407375 2.247802,3.430579 8.940645,3.091478 12.983482,-0.657824 z"
       id="path5247"
       inkscape:connector-curvature="0" />
    <path
       style="fill:#642075"
       d="M 51.961779,105.15476 C 50.0578,104.13969 44.9,101.26707 40.5,98.771174 36.1,96.275275 29.575,92.573177 26,90.54429 c -3.575,-2.028887 -6.889211,-4.068063 -7.364914,-4.531501 -0.833903,-0.812406 4.749236,-4.863884 9.998742,-7.255719 2.322464,-1.058185 2.859126,-0.800231 6.469303,3.109562 5.72775,6.203108 11.602924,8.549677 21.396869,8.545998 9.435796,-0.0035 14.365408,-2.064989 21.515182,-8.997129 l 4.515182,-4.377743 5.484818,3.293527 C 91.031832,82.142726 93.5,84.211924 93.5,84.929504 c 0,1.256056 -2.482233,2.82199 -24.131523,15.223546 -12.280179,7.03456 -13.13366,7.2798 -17.406698,5.00171 z m 0.332297,-32.505642 c -3.69456,-1.324262 -5.754578,-3.104864 -4.988633,-4.311986 0.292148,-0.460422 2.555263,-1.932152 5.029143,-3.27051 l 4.497964,-2.433377 4.584211,2.431918 c 4.995561,2.650139 5.195543,3.442832 1.520188,6.025755 -3.403165,2.391636 -6.892432,2.902492 -10.642873,1.5582 z"
       id="path5245"
       inkscape:connector-curvature="0" />
  </g>
</svg>
