<?xml version="1.0" encoding="UTF-8" standalone="no"?>
<!-- Created with Inkscape (http://www.inkscape.org/) -->

<svg
   xmlns:dc="http://purl.org/dc/elements/1.1/"
   xmlns:cc="http://creativecommons.org/ns#"
   xmlns:rdf="http://www.w3.org/1999/02/22-rdf-syntax-ns#"
   xmlns:svg="http://www.w3.org/2000/svg"
   xmlns="http://www.w3.org/2000/svg"
   xmlns:xlink="http://www.w3.org/1999/xlink"
   xmlns:sodipodi="http://sodipodi.sourceforge.net/DTD/sodipodi-0.dtd"
   xmlns:inkscape="http://www.inkscape.org/namespaces/inkscape"
   id="svg3390"
   version="1.1"
   inkscape:version="0.91 r13725"
   width="76.875"
   height="76.875"
   viewBox="0 0 76.875 76.875"
   sodipodi:docname="CSS.svg">
  <metadata
     id="metadata3396">
    <rdf:RDF>
      <cc:Work
         rdf:about="">
        <dc:format>image/svg+xml</dc:format>
        <dc:type
           rdf:resource="http://purl.org/dc/dcmitype/StillImage" />
        <dc:title></dc:title>
      </cc:Work>
    </rdf:RDF>
  </metadata>
  <defs
     id="defs3394" />
  <sodipodi:namedview
     pagecolor="#ffffff"
     bordercolor="#666666"
     borderopacity="1"
     objecttolerance="10"
     gridtolerance="10"
     guidetolerance="10"
     inkscape:pageopacity="0"
     inkscape:pageshadow="2"
     inkscape:window-width="640"
     inkscape:window-height="480"
     id="namedview3392"
     showgrid="false"
     inkscape:zoom="3.1219512"
     inkscape:cx="38.4375"
     inkscape:cy="38.4375"
     inkscape:window-x="0"
     inkscape:window-y="0"
     inkscape:window-maximized="0"
     inkscape:current-layer="svg3390" />
  <image
     width="76.875"
     height="76.875"
     preserveAspectRatio="none"
     style="image-rendering:optimizeQuality"
     xlink:href="file:///media/havoc/USB%20DISK/pics/Language%20icons/CSS.png"
     id="image3398"
     x="0"
     y="0"
     sodipodi:absref="/media/havoc/USB DISK/pics/Language icons/CSS.png" />
  <g
     id="g3400">
    <path
       style="fill:#f8f9fa"
       d="M 0,38.4375 0,0 38.4375,0 76.875,0 l 0,38.4375 0,38.4375 -38.4375,0 L 0,76.875 0,38.4375 Z"
       id="path3416"
       inkscape:connector-curvature="0" />
    <path
       style="fill:#a9cde2"
       d="M 27.5,70.345781 18.4375,67.696837 18.003026,65.567169 C 17.764066,64.39585 17.265405,59.640625 16.894891,55 16.111161,45.183909 15.314216,36.266397 14.341512,26.428671 c -0.381148,-3.854857 -0.512939,-7.300169 -0.292869,-7.65625 0.560108,-0.906274 47.599496,-0.895125 48.159768,0.01141 0.22395,0.362359 0.105768,3.526421 -0.262628,7.03125 -0.801428,7.624591 -1.646387,17.005156 -2.600698,28.872417 -1.107396,13.770938 -0.617781,12.736681 -6.853348,14.476894 -2.917331,0.814168 -7.140297,2.038369 -9.384371,2.720456 -2.244074,0.682081 -4.634699,1.210837 -5.3125,1.175012 C 37.117065,73.024037 32.484375,71.8027 27.5,70.345781 Z M 45.89041,59.471975 c 3.091455,-0.833571 4.459338,-1.522251 4.787944,-2.410558 0.253019,-0.683975 0.55546,-4.591665 0.67209,-8.683755 L 51.5625,40.9375 46.049991,40.756279 c -3.875091,-0.127392 -5.439905,-0.399038 -5.268077,-0.914522 0.134439,-0.403314 2.755693,-1.853883 5.82501,-3.223485 3.069317,-1.369603 5.674536,-2.552028 5.789375,-2.627612 0.11484,-0.07558 0.364012,-1.294617 0.553715,-2.708962 L 53.29493,28.710162 45.553715,28.886331 37.8125,29.0625 37.637701,37.014687 c -0.197895,9.002878 -0.573887,8.402779 5.487299,8.757989 l 2.8125,0.164824 -0.07539,3.63789 c -0.04146,2.000839 -0.394271,3.956771 -0.784014,4.346514 -0.389743,0.389743 -2.183942,1.152163 -3.98711,1.694267 -3.351035,1.007455 -4.269042,2.340354 -3.318287,4.817983 0.406895,1.060351 0.781405,1.015961 8.117711,-0.962179 z M 23.810521,15.037404 C 23.314042,14.730563 23.127986,13.034675 23.251827,9.94493 L 23.4375,5.3125 l 14.6875,0 14.6875,0 0.185673,4.63243 c 0.123841,3.089745 -0.06221,4.785633 -0.558694,5.092474 -0.97154,0.600444 -27.657418,0.600444 -28.628958,0 z M 33.012219,10.46875 C 32.902374,9.6953125 32.601562,9.1328125 32.34375,9.21875 32.085937,9.3046875 30.890625,9.375 29.6875,9.375 c -1.770833,0 -2.1875,0.238095 -2.1875,1.25 0,1.067633 0.416667,1.25 2.855969,1.25 2.604256,0 2.838367,-0.123941 2.65625,-1.40625 z"
       id="path3414"
       inkscape:connector-curvature="0" />
    <path
       style="fill:#9a9a9a"
       d="M 32.8125,71.113706 C 18.578764,67.020425 19.100872,67.2478 18.628026,64.936363 18.389066,63.768237 17.888661,59.015625 17.516017,54.375 16.613512,43.135896 15.693754,32.843003 14.957154,25.7391 14.62505,22.53623 14.515429,19.653417 14.71355,19.33285 c 0.48085,-0.778031 46.34205,-0.778031 46.8229,0 0.198121,0.320567 0.08476,3.20338 -0.251913,6.40625 -0.844356,8.0326 -1.735553,17.963642 -2.5417,28.3234 C 57.746977,66.860256 57.739351,66.884394 54.375,67.887737 46.917623,70.111725 38.195909,72.493363 37.719236,72.435925 37.426781,72.400688 35.21875,71.805688 32.8125,71.113706 Z M 45.460814,60.478521 c 3.985591,-1.045325 5.446236,-1.713258 5.808725,-2.65625 C 51.855218,56.298667 53.116158,41.130934 52.712191,40.46875 52.554912,40.210937 50.333452,40 47.775614,40 45.217776,40 43.125,39.760942 43.125,39.468762 c 0,-0.292181 1.898437,-1.321756 4.21875,-2.287944 C 53.062119,34.799663 53.75,34.118876 53.75,30.840632 l 0,-2.715632 -4.84375,0.0019 c -2.664063,0.0011 -9.709789,0.186491 -15.657171,0.412089 l -10.813421,0.410153 0.188421,1.93166 0.188421,1.93166 5,0.157407 c 5.914261,0.18619 7.981331,0.5861 7.681335,1.486088 -0.120981,0.362941 -2.742522,1.734859 -5.82565,3.048707 l -5.605685,2.388815 -0.186447,2.76664 -0.186447,2.766641 10.152205,0.39968 c 6.998693,0.275531 10.402935,0.650411 10.959388,1.206864 0.575668,0.575669 0.670273,1.609836 0.329842,3.60567 -0.47235,2.769224 -0.519647,2.813642 -4.522941,4.247682 -3.726942,1.335045 -4.291746,1.38398 -7.1706,0.621262 -2.857202,-0.756982 -3.174616,-1.02846 -3.703978,-3.167944 C 29.212131,50.232749 28.951597,50 27.114157,50 c -1.122212,0 -2.150853,0.210937 -2.285867,0.46875 -0.135015,0.257812 -0.0813,2.150908 0.119364,4.206877 l 0.364846,3.738128 5.9375,1.677594 c 7.382585,2.08589 7.700909,2.094563 14.210814,0.387172 z M 23.808631,14.183631 c -0.950926,-0.950926 -0.873532,-7.6254491 0.09762,-8.4187616 1.112484,-0.9087645 27.832454,-0.8660359 28.395758,0.045408 0.546484,0.8842303 0.873331,6.6761392 0.454978,8.0624642 -0.288836,0.957135 -1.678745,1.057046 -14.292338,1.02738 -9.238356,-0.02173 -14.20401,-0.264484 -14.656017,-0.716491 z M 33.518929,11.09375 C 33.311656,10.320313 33.138228,9.3933219 33.133534,9.03377 33.128159,8.6231625 32.020921,8.5069438 30.15625,8.72127 c -2.449848,0.2815869 -3.002792,0.5804156 -3.163514,1.709662 -0.170384,1.197143 0.142545,1.398614 2.5,1.609558 1.48212,0.132619 3.079129,0.290262 3.548908,0.350318 0.594479,0.076 0.739577,-0.318318 0.477285,-1.297058 z"
       id="path3412"
       inkscape:connector-curvature="0" />
    <path
       style="fill:#59a2cf"
       d="M 32.8125,71.113706 C 18.578764,67.020425 19.100872,67.2478 18.628026,64.936363 18.389066,63.768237 17.888661,59.015625 17.516017,54.375 16.613512,43.135896 15.693754,32.843003 14.957154,25.7391 14.62505,22.53623 14.515429,19.653417 14.71355,19.33285 c 0.48085,-0.778031 46.34205,-0.778031 46.8229,0 0.198121,0.320567 0.08476,3.20338 -0.251913,6.40625 -0.844356,8.0326 -1.735553,17.963642 -2.5417,28.3234 C 57.746977,66.860256 57.739351,66.884394 54.375,67.887737 46.917623,70.111725 38.195909,72.493363 37.719236,72.435925 37.426781,72.400688 35.21875,71.805688 32.8125,71.113706 Z M 45.460814,60.478521 c 3.985591,-1.045325 5.446236,-1.713258 5.808725,-2.65625 C 51.855218,56.298667 53.116158,41.130934 52.712191,40.46875 52.554912,40.210937 50.333452,40 47.775614,40 45.217776,40 43.125,39.760942 43.125,39.468762 c 0,-0.292181 1.898437,-1.321756 4.21875,-2.287944 C 53.062119,34.799663 53.75,34.118876 53.75,30.840632 l 0,-2.715632 -4.84375,0.0019 c -2.664063,0.0011 -9.695313,0.185944 -15.625,0.410875 L 22.5,28.946751 l 0,2.089124 0,2.089125 5.78125,0.0096 c 5.513796,0.0091 8.171888,0.620625 7.148086,1.644427 -0.25958,0.25958 -2.92331,1.516538 -5.9194,2.793241 l -5.447436,2.32128 -0.186447,2.76664 -0.186447,2.766641 10.152205,0.39968 c 6.998693,0.275531 10.402935,0.650411 10.959388,1.206864 0.575668,0.575669 0.670273,1.609836 0.329842,3.60567 -0.47235,2.769224 -0.519647,2.813642 -4.522941,4.247682 -3.726942,1.335045 -4.291746,1.38398 -7.1706,0.621262 -2.857202,-0.756982 -3.174616,-1.02846 -3.703978,-3.167944 C 29.212131,50.232749 28.951597,50 27.114157,50 c -1.122212,0 -2.150853,0.210937 -2.285867,0.46875 -0.135015,0.257812 -0.0813,2.150908 0.119364,4.206877 l 0.364846,3.738128 5.9375,1.677594 c 7.382585,2.08589 7.700909,2.094563 14.210814,0.387172 z M 24.018912,13.549284 C 23.831963,13.062103 23.765291,11.150151 23.870753,9.3005006 L 24.0625,5.9375 l 4.0625,0 c 3.194444,0 4.0625,0.2003205 4.0625,0.9375 0,0.6150231 -0.751584,1.0088112 -2.184991,1.1448156 -2.713565,0.2574675 -3.868423,1.1692075 -3.62642,2.8629934 0.149263,1.044689 0.746892,1.366967 2.998911,1.617191 4.111679,0.456853 3.43368,1.532938 -1.101841,1.748783 -2.9307,0.139473 -3.999756,-0.03631 -4.254247,-0.699499 z m 10.19118,0.452474 C 33.351962,13.143629 34.509907,12.5 36.911886,12.5 40.223907,12.5 40.064894,11.371788 36.71875,11.129686 34.068489,10.937933 34.0625,10.931863 34.0625,8.4375 l 0,-2.5 4.0625,0 c 3.194444,0 4.0625,0.2003205 4.0625,0.9375 0,0.6561275 -0.797222,0.9951806 -2.65625,1.1296863 C 38.070312,8.1103888 36.875,8.44578 36.875,8.75 c 0,0.30422 1.195312,0.6396113 2.65625,0.7453137 C 42.113691,9.68216 42.1875,9.7482844 42.1875,11.875 l 0,2.1875 -3.77565,0.182684 c -2.076608,0.100475 -3.967399,-0.0091 -4.201758,-0.243426 z m 10,0 C 43.387962,13.179629 44.46925,12.5 46.599386,12.5 49.504663,12.5 49.345863,11.374773 46.40625,11.131478 44.120871,10.942331 44.0625,10.875237 44.0625,8.4375 l 0,-2.5 4.0625,0 c 3.194444,0 4.0625,0.2003205 4.0625,0.9375 0,0.6561275 -0.797222,0.9951806 -2.65625,1.1296863 C 48.070312,8.1103888 46.875,8.44578 46.875,8.75 c 0,0.30422 1.195312,0.6396113 2.65625,0.7453137 C 52.113691,9.68216 52.1875,9.7482844 52.1875,11.875 l 0,2.1875 -3.77565,0.182684 c -2.076607,0.100475 -3.967399,-0.0091 -4.201758,-0.243426 z"
       id="path3410"
       inkscape:connector-curvature="0" />
    <path
       style="fill:#249dd6"
       d="M 33.125,70.615806 C 31.234375,70.0091 27.372906,68.881769 24.543957,68.110625 18.583654,66.485912 19.247642,67.9091 18.135604,54.375 17.20222,43.015231 16.326923,33.372564 15.601298,26.455976 15.270584,23.303637 15,20.420824 15,20.049726 15,19.578878 22.009002,19.375 38.195965,19.375 l 23.195965,0 -0.387489,2.65625 c -0.213119,1.460937 -0.665036,6.03125 -1.00426,10.15625 -0.339224,4.125 -0.90232,10.59375 -1.251326,14.375 -0.349006,3.78125 -0.787773,8.984375 -0.975039,11.5625 -0.660739,9.096506 -0.234522,8.3946 -6.067774,9.992669 -2.828948,0.775019 -7.00199,1.937468 -9.273425,2.583225 -4.794756,1.363125 -4.794689,1.363125 -9.307617,-0.08509 z m 11.934146,-9.388727 c 2.889345,-0.762672 5.655635,-1.763093 6.147312,-2.223157 0.900266,-0.842383 2.844421,-17.188767 2.241646,-18.847672 -0.18637,-0.512911 -1.73964,-0.798893 -4.522238,-0.832617 L 44.6875,39.272266 49.199934,37.16366 c 4.836098,-2.25985 5.455473,-3.144416 5.064865,-7.233427 L 54.0625,27.8125 38.514903,27.645159 c -10.9455,-0.117807 -15.801759,0.04359 -16.40625,0.545279 -1.1392,0.945451 -1.088366,3.078468 0.114287,4.795496 0.877802,1.253237 1.501176,1.389066 6.375,1.389066 2.971133,0 5.134872,0.232974 4.80831,0.517721 -0.326563,0.284747 -2.778124,1.449767 -5.447914,2.588935 -3.695371,1.57677 -4.942452,2.422985 -5.224005,3.544778 -0.449152,1.789567 0.219693,4.726744 1.221472,5.363985 0.402433,0.255992 5.144786,0.469747 10.538561,0.47501 5.393776,0.0053 9.933795,0.220508 10.088933,0.478321 0.155137,0.257813 0.09692,1.59212 -0.129378,2.965128 -0.488044,2.961126 -2.390612,4.151744 -7.266419,4.547293 -4.369776,0.354496 -6.5625,-0.594665 -6.5625,-2.840702 0,-0.971008 -0.3375,-2.102969 -0.75,-2.515469 -1.053551,-1.053551 -4.568668,-0.934688 -5.498704,0.185939 -0.899692,1.084062 -0.599676,8.090681 0.388758,9.079115 0.341795,0.341795 3.397533,1.325658 6.790529,2.186362 3.392996,0.860704 6.314779,1.710615 6.492853,1.88869 0.178074,0.178069 0.646328,0.199994 1.040564,0.04869 0.394236,-0.151282 3.080802,-0.899061 5.970146,-1.661734 z M 24.018912,13.549284 C 23.831963,13.062103 23.765291,11.150151 23.870753,9.3005006 L 24.0625,5.9375 l 4.0625,0 c 3.194444,0 4.0625,0.2003205 4.0625,0.9375 0,0.6150231 -0.751584,1.0088112 -2.184991,1.1448156 -2.713565,0.2574675 -3.868423,1.1692075 -3.62642,2.8629934 0.149263,1.044689 0.746892,1.366967 2.998911,1.617191 4.111679,0.456853 3.43368,1.532938 -1.101841,1.748783 -2.9307,0.139473 -3.999756,-0.03631 -4.254247,-0.699499 z m 10.19118,0.452474 C 33.351962,13.143629 34.509907,12.5 36.911886,12.5 40.223907,12.5 40.064894,11.371788 36.71875,11.129686 34.068489,10.937933 34.0625,10.931863 34.0625,8.4375 l 0,-2.5 4.0625,0 c 3.194444,0 4.0625,0.2003205 4.0625,0.9375 0,0.6561275 -0.797222,0.9951806 -2.65625,1.1296863 C 38.070312,8.1103888 36.875,8.44578 36.875,8.75 c 0,0.30422 1.195312,0.6396113 2.65625,0.7453137 C 42.113691,9.68216 42.1875,9.7482844 42.1875,11.875 l 0,2.1875 -3.77565,0.182684 c -2.076608,0.100475 -3.967399,-0.0091 -4.201758,-0.243426 z m 10,0 C 43.387962,13.179629 44.46925,12.5 46.599386,12.5 49.504663,12.5 49.345863,11.374773 46.40625,11.131478 44.120871,10.942331 44.0625,10.875237 44.0625,8.4375 l 0,-2.5 4.0625,0 c 3.194444,0 4.0625,0.2003205 4.0625,0.9375 0,0.6561275 -0.797222,0.9951806 -2.65625,1.1296863 C 48.070312,8.1103888 46.875,8.44578 46.875,8.75 c 0,0.30422 1.195312,0.6396113 2.65625,0.7453137 C 52.113691,9.68216 52.1875,9.7482844 52.1875,11.875 l 0,2.1875 -3.77565,0.182684 c -2.076607,0.100475 -3.967399,-0.0091 -4.201758,-0.243426 z"
       id="path3408"
       inkscape:connector-curvature="0" />
    <path
       style="fill:#0471ba"
       d="M 28.75,69.09285 19.6875,66.440975 19.260249,64.001738 C 19.025261,62.660156 18.523467,57.765625 18.145151,53.125 17.017445,39.291955 16.195614,29.972256 15.665029,25 15.389919,22.421875 15.284966,20.101562 15.431801,19.84375 15.578634,19.585937 25.790574,19.375 38.125,19.375 c 12.334426,0 22.546366,0.210937 22.693199,0.46875 0.146835,0.257812 0.04426,2.578125 -0.227956,5.15625 -0.669361,6.339582 -1.639424,17.23712 -2.475778,27.8125 -0.380596,4.8125 -0.885487,9.845787 -1.121979,11.185081 l -0.429986,2.435088 -9.375,2.7032 c -5.15625,1.486756 -9.375,2.681968 -9.375,2.656025 0,-0.02594 -4.078125,-1.240513 -9.0625,-2.699044 z m 17.052254,-2.794919 c 3.706865,-0.992606 7.109706,-2.111768 7.561868,-2.487031 0.505371,-0.419419 0.983564,-2.910377 1.241164,-6.465347 0.230478,-3.180679 0.682571,-8.736178 1.00465,-12.345553 1.558076,-17.460556 1.810669,-21.579395 1.35154,-22.038524 -0.273407,-0.273407 -4.55315,-0.418775 -9.51054,-0.32304 L 38.4375,22.8125 38.125,25 l -0.3125,2.1875 -8.125,0.3125 -8.125,0.3125 -0.193695,2.002371 c -0.374069,3.867034 0.561154,4.560129 6.153185,4.560129 2.737906,0 4.97801,0.225691 4.97801,0.501535 0,0.275844 -1.337831,0.982612 -2.972958,1.570595 -1.635126,0.587983 -3.885126,1.623784 -5,2.301779 C 22.73576,39.838253 22.5,40.300909 22.5,42.726786 c 0,1.509837 0.36826,3.050787 0.818355,3.424333 0.450096,0.373545 3.895408,0.759546 7.65625,0.857778 l 6.837895,0.178603 0,3.75 0,3.75 -2.709089,-0.123575 C 31.785688,54.412588 30.754657,53.624109 30.504877,51.047206 30.316898,49.107876 30.241054,49.0625 27.1875,49.0625 l -3.125,0 -0.18122,4.411786 c -0.212738,5.179112 0.309967,5.897401 5.18122,7.119899 1.71875,0.431341 4.460937,1.199834 6.09375,1.707764 2.743983,0.853588 2.96875,1.077438 2.96875,2.956614 0,1.599887 0.420218,2.954999 0.885417,2.855275 0.02864,-0.0063 3.084972,-0.823301 6.791837,-1.815907 z M 24.018912,13.549284 C 23.831963,13.062103 23.765291,11.150151 23.870753,9.3005006 L 24.0625,5.9375 l 4.0625,0 c 3.194444,0 4.0625,0.2003205 4.0625,0.9375 0,0.6150231 -0.751584,1.0088112 -2.184991,1.1448156 -2.713565,0.2574675 -3.868423,1.1692075 -3.62642,2.8629934 0.149263,1.044689 0.746892,1.366967 2.998911,1.617191 4.111679,0.456853 3.43368,1.532938 -1.101841,1.748783 -2.9307,0.139473 -3.999756,-0.03631 -4.254247,-0.699499 z m 10.19118,0.452474 C 33.351962,13.143629 34.509907,12.5 36.911886,12.5 40.223907,12.5 40.064894,11.371788 36.71875,11.129686 34.068489,10.937933 34.0625,10.931863 34.0625,8.4375 l 0,-2.5 4.0625,0 c 3.194444,0 4.0625,0.2003205 4.0625,0.9375 0,0.6561275 -0.797222,0.9951806 -2.65625,1.1296863 C 38.070312,8.1103888 36.875,8.44578 36.875,8.75 c 0,0.30422 1.195312,0.6396113 2.65625,0.7453137 C 42.113691,9.68216 42.1875,9.7482844 42.1875,11.875 l 0,2.1875 -3.77565,0.182684 c -2.076608,0.100475 -3.967399,-0.0091 -4.201758,-0.243426 z m 10,0 C 43.387962,13.179629 44.46925,12.5 46.599386,12.5 49.504663,12.5 49.345863,11.374773 46.40625,11.131478 44.120871,10.942331 44.0625,10.875237 44.0625,8.4375 l 0,-2.5 4.0625,0 c 3.194444,0 4.0625,0.2003205 4.0625,0.9375 0,0.6561275 -0.797222,0.9951806 -2.65625,1.1296863 C 48.070312,8.1103888 46.875,8.44578 46.875,8.75 c 0,0.30422 1.195312,0.6396113 2.65625,0.7453137 C 52.113691,9.68216 52.1875,9.7482844 52.1875,11.875 l 0,2.1875 -3.77565,0.182684 c -2.076607,0.100475 -3.967399,-0.0091 -4.201758,-0.243426 z"
       id="path3406"
       inkscape:connector-curvature="0" />
    <path
       style="fill:#575757"
       d="M 24.018912,13.549284 C 23.831963,13.062103 23.765291,11.150151 23.870753,9.3005006 L 24.0625,5.9375 l 4.0625,0 c 3.194444,0 4.0625,0.2003205 4.0625,0.9375 0,0.6150231 -0.751584,1.0088112 -2.184991,1.1448156 -2.713565,0.2574675 -3.868423,1.1692075 -3.62642,2.8629934 0.149263,1.044689 0.746892,1.366967 2.998911,1.617191 4.111679,0.456853 3.43368,1.532938 -1.101841,1.748783 -2.9307,0.139473 -3.999756,-0.03631 -4.254247,-0.699499 z m 10.19118,0.452474 C 33.351962,13.143629 34.509907,12.5 36.911886,12.5 40.223907,12.5 40.064894,11.371788 36.71875,11.129686 34.068489,10.937933 34.0625,10.931863 34.0625,8.4375 l 0,-2.5 4.0625,0 c 3.194444,0 4.0625,0.2003205 4.0625,0.9375 0,0.6561275 -0.797222,0.9951806 -2.65625,1.1296863 C 38.070312,8.1103888 36.875,8.44578 36.875,8.75 c 0,0.30422 1.195312,0.6396113 2.65625,0.7453137 C 42.113691,9.68216 42.1875,9.7482844 42.1875,11.875 l 0,2.1875 -3.77565,0.182684 c -2.076608,0.100475 -3.967399,-0.0091 -4.201758,-0.243426 z m 10,0 C 43.387962,13.179629 44.46925,12.5 46.599386,12.5 49.504663,12.5 49.345863,11.374773 46.40625,11.131478 44.120871,10.942331 44.0625,10.875237 44.0625,8.4375 l 0,-2.5 4.0625,0 c 3.194444,0 4.0625,0.2003205 4.0625,0.9375 0,0.6561275 -0.797222,0.9951806 -2.65625,1.1296863 C 48.070312,8.1103888 46.875,8.44578 46.875,8.75 c 0,0.30422 1.195312,0.6396113 2.65625,0.7453137 C 52.113691,9.68216 52.1875,9.7482844 52.1875,11.875 l 0,2.1875 -3.77565,0.182684 c -2.076607,0.100475 -3.967399,-0.0091 -4.201758,-0.243426 z"
       id="path3404"
       inkscape:connector-curvature="0" />
    <path
       style="fill:#1f1f1f"
       d="m 24.375,10 0,-3.75 3.75,0 c 2.083333,0 3.75,0.2777775 3.75,0.625 0,0.34375 -0.964286,0.625 -2.142857,0.625 -2.344892,0 -4.107143,1.3271625 -4.107143,3.093115 0,1.546063 1.163297,2.380999 3.752509,2.693296 1.52908,0.18443 1.106186,0.293568 -1.408759,0.363566 L 24.375,13.75 l 0,-3.75 z m 12.8125,3.192559 C 40.706645,12.657566 40.601044,11.003597 37.03125,10.745314 34.457871,10.559124 34.375,10.486002 34.375,8.4015637 l 0,-2.1515637 3.75,0 c 4.266749,0 5.127548,1.0784587 1.09375,1.3703138 C 37.359722,7.7548194 36.5625,8.0938725 36.5625,8.75 c 0,0.6561275 0.797222,0.9951806 2.65625,1.1296863 2.479646,0.1794077 2.65625,0.3144587 2.65625,2.0312497 0,1.832477 -0.01288,1.838747 -3.59375,1.750373 -3.317912,-0.08188 -3.401863,-0.117862 -1.09375,-0.46875 z m 10,0 C 50.706645,12.657566 50.601044,11.003597 47.03125,10.745314 44.457871,10.559124 44.375,10.486002 44.375,8.4015637 l 0,-2.1515637 3.75,0 c 4.439318,0 5.064082,1.0971906 0.78125,1.3720056 C 46.768692,7.759165 45.9375,8.0749819 45.9375,8.75 c 0,0.6750181 0.831192,0.990835 2.96875,1.1279944 2.826552,0.1813696 2.96875,0.2786636 2.96875,2.0312496 0,1.834537 -0.01214,1.840457 -3.59375,1.752065 -3.317912,-0.08188 -3.401863,-0.117862 -1.09375,-0.46875 z"
       id="path3402"
       inkscape:connector-curvature="0" />
  </g>
</svg>
