<?xml version="1.0" encoding="UTF-8" standalone="no"?>
<!-- Created with Inkscape (http://www.inkscape.org/) -->

<svg
   xmlns:dc="http://purl.org/dc/elements/1.1/"
   xmlns:cc="http://creativecommons.org/ns#"
   xmlns:rdf="http://www.w3.org/1999/02/22-rdf-syntax-ns#"
   xmlns:svg="http://www.w3.org/2000/svg"
   xmlns="http://www.w3.org/2000/svg"
   xmlns:xlink="http://www.w3.org/1999/xlink"
   xmlns:sodipodi="http://sodipodi.sourceforge.net/DTD/sodipodi-0.dtd"
   xmlns:inkscape="http://www.inkscape.org/namespaces/inkscape"
   id="svg4135"
   version="1.1"
   inkscape:version="0.91 r13725"
   width="473"
   height="123"
   viewBox="0 0 473 123"
   sodipodi:docname="Electron.bmp.svg">
  <metadata
     id="metadata4141">
    <rdf:RDF>
      <cc:Work
         rdf:about="">
        <dc:format>image/svg+xml</dc:format>
        <dc:type
           rdf:resource="http://purl.org/dc/dcmitype/StillImage" />
        <dc:title></dc:title>
      </cc:Work>
    </rdf:RDF>
  </metadata>
  <defs
     id="defs4139" />
  <sodipodi:namedview
     pagecolor="#ffffff"
     bordercolor="#666666"
     borderopacity="1"
     objecttolerance="10"
     gridtolerance="10"
     guidetolerance="10"
     inkscape:pageopacity="0"
     inkscape:pageshadow="2"
     inkscape:window-width="640"
     inkscape:window-height="480"
     id="namedview4137"
     showgrid="false"
     inkscape:zoom="0.55391121"
     inkscape:cx="236.5"
     inkscape:cy="61.5"
     inkscape:window-x="0"
     inkscape:window-y="0"
     inkscape:window-maximized="0"
     inkscape:current-layer="svg4135" />
  <image
     width="473"
     height="123"
     preserveAspectRatio="none"
     style="image-rendering:optimizeQuality"
     xlink:href="file:///media/havoc/USB%20DISK/pics/_OpsDeps/Electron.bmp"
     id="image4143"
     x="0"
     y="0"
     sodipodi:absref="/media/havoc/USB DISK/pics/_OpsDeps/Electron.bmp" />
  <g
     id="g5132">
    <path
       style="fill:#fdfdfd"
       d="M 0,61.5 0,0 236.5,0 473,0 473,61.5 473,123 236.5,123 0,123 0,61.5 Z"
       id="path5148"
       inkscape:connector-curvature="0" />
    <path
       style="fill:#d7e3e6"
       d="M 48.436367,105.92951 C 42.458177,104.1926 34,93.418208 34,87.539838 34,85.719438 34.533282,85 35.88265,85 c 1.287242,0 2.72657,1.724913 4.55109,5.454096 C 43.850038,97.436759 48.005216,101 52.731561,101 c 2.897789,0 4.332165,-0.79267 7.544001,-4.169016 l 3.96589,-4.169016 -4.870726,-1.260148 C 48.43669,88.572981 35.525262,81.377615 26.891075,73.301344 24.184032,70.769223 21.842231,68.878053 21.687071,69.098744 20.856106,70.280665 19,75.261819 19,76.309925 c 0,0.6687 0.983388,1.660026 2.185307,2.202947 3.233698,1.460698 4.399348,5.945886 2.355817,9.064708 -2.578347,3.935057 -5.932041,5.051526 -9.045697,3.011381 C 10.46636,87.949014 9.4518719,84.805115 11.381145,80.937796 12.271515,79.153006 13,76.925276 13,75.987283 c 0,-0.937992 1.322331,-4.326978 2.938513,-7.531079 2.411078,-4.779993 2.69549,-6.016847 1.58455,-6.890922 -2.345208,-1.845183 -4.69359,-10.596468 -3.978821,-14.827146 0.976297,-5.778655 5.975907,-10.289125 13.027622,-11.753055 6.460991,-1.341297 13.67827,-0.593541 15.503985,1.606311 2.011817,2.424092 -0.0056,3.202322 -9.245882,3.566709 -7.53686,0.297213 -9.007234,0.658757 -11.25,2.766213 C 19.714123,44.67759 19,46.366255 19,49.025091 19,53.039092 20.755237,59 21.937192,59 22.34504,59 24.333078,57.211974 26.355054,55.026608 33.090099,47.747325 44.765861,40.717404 56.320742,36.984408 59.994334,35.797594 63,34.494028 63,34.087596 63,33.681164 61.892617,32.308295 60.539148,31.036778 58.321422,28.953332 57.77862,28.849058 55.045049,29.98134 46.895063,33.357175 41.489087,20.468063 49.520212,16.808837 52.662123,15.377286 56.816559,16.636864 58.396415,19.5 c 0.606972,1.1 3.017769,4.120022 5.357327,6.711159 2.339558,2.591138 4.759299,5.820737 5.377202,7.176887 0.940178,2.063465 1.505035,2.320653 3.462374,1.576474 2.592152,-0.985534 9.887722,0.810199 13.8565,3.410643 1.294174,0.847975 3.116954,3.542043 4.050622,5.986816 1.5742,4.121986 1.580699,4.833616 0.08942,9.791532 -2.024883,6.731924 -6.49893,13.248612 -9.382452,13.66604 -3.071767,0.444679 -2.828173,-1.688053 0.872807,-7.641683 3.460876,-5.567384 4.71222,-11.828678 3.002477,-15.023362 C 83.757955,42.679217 79.926598,40.557318 75.13383,39.644585 72.002111,39.048181 71.813002,39.160119 72.418654,41.251766 74.148711,47.226594 76,58.727272 76,63.5 c 0,5.177661 -2.112555,18.153672 -3.552121,21.818306 -0.626031,1.593655 -0.241658,1.77898 3.111074,1.5 3.363179,-0.279849 3.925009,-0.705554 4.650181,-3.523496 C 81.071986,79.941857 84.286635,77 87.087648,77 90.363737,77 94,80.945397 94,84.5 c 0,4.111595 -4.14122,7.932356 -7.64462,7.053059 -1.227151,-0.307996 -4.846628,0.124459 -8.043282,0.96101 C 75.115444,93.350619 71.2625,93.766424 69.75,93.43808 67.341635,92.915254 67,93.142481 67,95.267144 c 0,3.315365 -6.12023,9.394516 -10.7534,10.681216 -2.06063,0.57227 -3.9716,1.00241 -4.2466,0.95587 -0.275,-0.0465 -1.878635,-0.48516 -3.563633,-0.97472 z M 67,86.176135 C 67,85.72301 67.69768,80.686215 68.5504,74.983259 70.14927,64.290079 69.467187,51.226417 66.893534,43.25 65.670136,39.458373 66.065453,39.525048 58.944324,41.909271 47.610425,45.703971 33.04615,54.591144 27.648137,61.006318 l -2.584014,3.070927 5.257242,4.760983 C 38.733727,76.4565 49.777551,82.676825 60,85.554424 c 5.523937,1.554977 7,1.686075 7,0.621711 z M 48.57463,67.082465 c -2.276951,-2.516002 -1.667335,-6.238049 1.259793,-7.691736 5.264213,-2.614345 9.938086,2.255135 6.784375,7.068307 -1.997859,3.049118 -5.596548,3.328019 -8.044168,0.623429 z M 18.749864,83.416531 c -0.952958,-0.952958 -2.863492,0.590599 -2.153308,1.7397 0.422119,0.683003 0.981465,0.665748 1.699645,-0.05243 0.588756,-0.588756 0.792905,-1.348027 0.453663,-1.687268 z M 88,84.5 C 88,83.675 87.55,83 87,83 c -0.55,0 -1,0.675 -1,1.5 0,0.825 0.45,1.5 1,1.5 0.55,0 1,-0.675 1,-1.5 z M 53.447214,22.91459 c -0.321976,-0.520968 -1.011657,-0.683779 -1.532624,-0.361804 -0.520968,0.321976 -0.683779,1.011657 -0.361804,1.532624 0.321976,0.520968 1.011657,0.683779 1.532624,0.361804 0.520968,-0.321976 0.683779,-1.011657 0.361804,-1.532624 z M 295,82.75714 C 287.40304,80.771929 283.62884,74.210412 283.63563,63 c 0.007,-11.815094 5.24309,-18.217037 15.0146,-18.358282 9.83412,-0.14215 14.87416,6.443063 14.81599,19.358282 -0.0269,5.978078 -0.50938,8.341982 -2.37753,11.649271 -3.38731,5.996761 -9.68816,8.780431 -16.08869,7.107869 z m 9.69885,-6.952605 c 2.208,-1.776419 3.52529,-7.943499 3.10538,-14.538179 -0.35782,-5.619331 -0.80176,-6.867483 -3.16597,-8.901085 -2.94757,-2.535398 -7.45,-3.071575 -10.78866,-1.28478 -4.27892,2.290009 -6.08006,11.948137 -3.77577,20.246483 0.78967,2.84379 1.8801,4.185585 4.24443,5.222842 3.21528,1.410584 8.14047,1.056977 10.38059,-0.745281 z m -182.97111,6.501853 c -1.62725,-0.423841 -1.74998,-1.948469 -1.5,-18.633999 L 120.5,45.5 132.25,45.218265 144,44.936529 l 0,2.531736 C 144,49.964366 143.88841,50 136.07143,50 127.23245,50 125,51.18392 125,55.871429 125,60.109821 126.68365,61 134.7,61 c 6.49581,0 7.3,0.208541 7.3,1.893011 C 142,65.385724 140.12704,66 132.52662,66 c -6.98328,0 -7.34364,0.404525 -7.12662,8 l 0.1,3.5 9.25,0.287526 c 8.23988,0.256127 9.25,0.490148 9.25,2.143011 0,1.020517 -0.7118,2.12863 -1.58179,2.462474 -1.79043,0.687056 -17.98031,0.619275 -20.69047,-0.08662 z m 27.62532,-0.0717 C 147.82777,81.257643 147.75085,80.158317 147.88485,61.25 L 148,45 l 2.47523,0 2.47523,0 0.27477,16.25 0.27477,16.25 6.5,0.120204 c 3.575,0.06611 7.2875,0.178613 8.25,0.25 2.1959,0.162868 2.32725,3.694309 0.16821,4.522807 -2.23155,0.856326 -17.68145,0.728025 -19.06515,-0.158324 z m 25.01314,0 C 173.19504,81.475788 172.57815,69.874082 172.8516,53.75 L 173,45 l 12,0 12,0 0,2.5 c 0,1.692167 -0.56548,2.518762 -1.75,2.558061 -0.9625,0.03193 -5.125,0.144434 -9.25,0.25 L 178.5,50.5 l 0,5 0,5 7.79786,0.292926 c 5.81315,0.21837 7.94438,0.674755 8.37354,1.793128 0.8993,2.343543 -0.19814,2.780386 -8.45729,3.366506 L 178.5,66.5 l 0,5.5 0,5.5 7.5,0.159359 c 4.125,0.08765 8.2875,0.200147 9.25,0.25 2.20052,0.113976 2.33329,3.652833 0.16821,4.483652 -2.23695,0.858399 -19.68547,0.727176 -21.05201,-0.158324 z m 33.05224,-0.149096 C 200.96301,79.305253 196.93045,68.214395 198.95039,58.795711 201.13768,48.596748 205.09854,45 214.14268,45 219.88691,45 225,47.872459 225,51.099479 c 0,2.913528 -2.58414,3.372794 -5.60546,0.996228 -3.64005,-2.863263 -8.83633,-2.744827 -11.85127,0.270118 -2.56644,2.56644 -4.30173,11.460728 -3.07793,15.77603 1.8431,6.499041 2.81214,7.840752 6.37304,8.823966 2.97061,0.820224 4.35941,0.632749 7.85761,-1.060697 6.30949,-3.054371 8.6931,-0.49819 3.8117,4.087652 -2.73231,2.566873 -11.24672,3.747785 -15.08925,2.092815 z M 237.47895,80.75 C 237.2269,80.0625 236.90352,72.975 236.76034,65 L 236.5,50.5 l -3,-0.158107 c -1.65,-0.08696 -4.0438,-0.199459 -5.31955,-0.25 -1.81345,-0.07184 -2.24983,-0.582823 -2,-2.341893 0.31068,-2.187579 0.68714,-2.257741 13.56955,-2.529025 L 253,44.94195 l 0,2.529025 c 0,2.622619 -0.10702,2.667065 -7,2.907129 L 242.5,50.5 242.22461,66.25 C 241.9622,81.257492 241.85464,82 239.94322,82 c -1.10329,0 -2.21222,-0.5625 -2.46427,-1.25 z m 18.33835,-15.5 c -0.17452,-9.2125 -0.1418,-17.5777 0.0727,-18.589334 0.3525,-1.662471 1.32823,-1.806705 10.14741,-1.5 10.85819,0.377616 13.2995,1.573748 14.81359,7.257999 1.15801,4.347447 -0.28294,8.638953 -3.94657,11.753884 l -3.14332,2.67255 3.61945,5.958261 c 4.29498,7.070303 4.5737,9.19664 1.20552,9.19664 -1.9301,0 -3.13839,-1.295442 -6.02833,-6.463136 -3.97501,-7.107973 -6.67546,-9.580345 -9.62243,-8.809696 C 261.24201,67.169977 261,68.156536 261,74.616631 261,81.77109 260.92458,82 258.5673,82 l -2.4327,0 -0.3173,-16.75 z m 18.68622,-6.615021 c 1.14541,-1.748119 1.30119,-3.018435 0.59722,-4.870019 -0.82946,-2.181645 -1.7042,-2.570146 -6.77657,-3.009692 -3.20329,-0.277582 -6.16167,-0.309516 -6.57417,-0.07096 -0.9282,0.536786 -0.99899,8.73337 -0.0833,9.649029 C 262.03333,60.7 264.72296,61 267.64361,61 c 4.48,0 5.55257,-0.369781 6.85991,-2.365021 z M 317.22744,63.75 317.5,45.5 l 2.4361,0 c 2.04813,0 3.64071,1.99072 10,12.5 L 337.5,70.5 338,58 c 0.47182,-11.795386 0.61969,-12.517077 2.6233,-12.802948 2.80155,-0.399718 2.94215,0.72443 2.57837,20.614707 l -0.29832,16.311759 -2.65384,-0.311759 c -2.2111,-0.259748 -3.82964,-2.274929 -9.70168,-12.079155 -8.10071,-13.525335 -8.2847,-13.470511 -8.44815,2.517396 -0.0995,9.730241 -0.10479,9.75 -2.62224,9.75 l -2.52256,0 0.27256,-18.25 z"
       id="path5146"
       inkscape:connector-curvature="0" />
    <path
       style="fill:#c6d2d9"
       d="m 47.5,104.83791 c -4.094573,-2.25462 -8.81535,-7.487351 -11.069181,-12.269609 -1.278343,-2.712434 -2.096679,-5.299934 -1.818523,-5.75 1.227493,-1.986125 3.217665,-0.451424 5.367888,4.139391 C 43.486056,98.442875 47.157955,101.5 52.642502,101.5 c 3.935294,0 4.949885,-0.47871 7.947795,-3.75 3.512476,-3.832774 4.846139,-4.470883 5.872701,-2.80987 0.776431,1.256291 -5.047094,7.79344 -8.561782,9.61095 -3.303555,1.70834 -7.604259,1.82694 -10.401216,0.28683 z M 63,91.552242 C 47.980272,87.845236 33.810287,80.066814 25.677085,71.064332 l -3.75087,-4.151765 -2.060567,4.658253 -2.060567,4.658254 3.09746,2.829092 c 3.711699,3.390114 3.982021,6.762203 0.783008,9.76752 -2.984102,2.803418 -5.789299,2.757231 -8.511235,-0.140137 -2.532003,-2.695194 -2.773212,-5.511476 -0.706117,-8.244419 0.807508,-1.067622 1.482508,-3.132934 1.5,-4.589584 0.01749,-1.45665 1.401682,-5.252637 3.075979,-8.435526 2.638299,-5.015488 2.837015,-5.903005 1.490418,-6.656598 -2.164467,-1.211297 -4.535321,-7.297719 -4.530856,-11.631546 0.0048,-4.659193 3.015936,-9.567867 7.202039,-11.740576 4.577824,-2.376023 16.661626,-3.037367 19.292651,-1.055883 1.099135,0.827784 1.696197,1.807291 1.326805,2.176684 -0.369393,0.369392 -4.501681,0.743684 -9.182864,0.831761 -7.950861,0.149594 -8.713078,0.353516 -11.576805,3.097229 C 18.860168,44.550062 18,46.298075 18,48.666855 18,51.712047 20.666243,60 21.645884,60 c 0.235799,0 2.324438,-1.936227 4.64142,-4.302727 C 33.234402,48.601707 44.077043,41.878093 54.593646,38.144272 57.915378,36.964922 61.390698,36 62.316579,36 64.76116,36 64.393361,34.468442 61.059596,30.765777 58.464317,27.883316 57.879042,27.646717 56.073165,28.75 53.121064,30.553557 50.290606,30.290606 48,28 43.910119,23.910119 46.95372,17 52.845012,17 55.456528,17 59,19.559458 59,21.445762 c 0,0.433554 1.6875,2.434175 3.75,4.445825 9.532694,9.297668 14.39832,30.879658 11.243223,49.870482 C 72.544071,84.484647 71.549144,87 69.54815,87 67.572851,87 67.139932,84.96445 68.378414,81.5 70.878524,74.506349 69.019914,41.36641 66.023721,39.51466 65.011273,38.888933 49.198914,44.693326 44.646879,47.361661 37.468973,51.569242 28.376373,58.662692 26.146207,61.794672 23.643712,65.309101 23.512083,66 25.345012,66 c 0.739757,0 2.202257,0.960021 3.25,2.133381 4.962976,5.557998 18.52723,13.794114 28.595881,17.36321 2.370009,0.840112 7.713535,1.807353 11.874502,2.149424 C 77.700698,88.35592 81,87.242881 81,83.619804 81,78.880687 87.970651,76.113508 91.363063,79.50592 96.344398,84.487255 93.196585,90.154329 84.898767,91.143727 71.083067,92.791054 68.234608,92.844191 63,91.552242 Z M 19.324657,85.342009 C 20.228989,84.437678 17.987843,81.889479 16.886693,82.570027 15.507953,83.422136 15.843634,86 17.333333,86 c 0.733334,0 1.629429,-0.296096 1.991324,-0.657991 z M 89,84.559017 C 89,82.603878 87.06163,81.53837 85.8,82.8 85.235846,83.364154 85.076613,84.314945 85.446149,84.912868 86.426364,86.498889 89,86.242637 89,84.559017 Z M 54.324657,24.342009 C 55.228989,23.437678 52.987843,20.889479 51.886693,21.570027 50.507953,22.422136 50.843634,25 52.333333,25 c 0.733334,0 1.629429,-0.296096 1.991324,-0.657991 z M 208.41519,81.626256 C 201.99597,78.732132 198.3556,70.641375 199.30447,61.377604 200.35279,51.142976 205.87726,45 214.0331,45 218.16347,45 224,48.561304 224,51.081559 c 0,2.256732 -2.24633,2.531483 -3.94665,0.48272 -1.79823,-2.166732 -6.79752,-2.91289 -10.16656,-1.517387 C 205.57785,51.831713 204,55.671743 204,64.373615 c 0,6.5806 0.30914,7.840322 2.58889,10.54966 2.0611,2.449468 3.36974,3.076725 6.41896,3.076725 2.10654,0 5.18749,-0.779051 6.84655,-1.731223 5.02259,-2.882572 5.75843,0.973122 0.80511,4.218662 -3.4787,2.279334 -8.6482,2.760138 -12.24432,1.138817 z m 85,0 c -6.57984,-2.966536 -9.94821,-10.397191 -9.16065,-20.208458 0.61049,-7.605486 3.64634,-13.060611 8.36581,-15.03253 7.84935,-3.279668 15.15709,-0.4033 18.56845,7.308648 2.66083,6.01525 2.19761,17.972175 -0.85464,22.06033 -4.58373,6.139414 -11.21846,8.442104 -16.91897,5.87201 z m 12.05016,-6.0007 c 4.33522,-4.335216 4.59182,-17.740575 0.4406,-23.017992 -3.78446,-4.811165 -12.08295,-4.319451 -15.51554,0.91935 -2.35065,3.587549 -2.41452,15.772039 -0.10553,20.132739 1.97413,3.728284 2.83033,4.157001 8.51057,4.2614 3.25552,0.05983 4.87032,-0.495914 6.6699,-2.295497 z M 121.23242,80.832417 C 119.52033,79.120327 119.49111,47.908888 121.2,46.2 c 1.73775,-1.737755 20.19639,-1.632227 21.65376,0.123794 C 144.95174,48.851709 141.96755,50 133.3,50 l -8.3,0 0,5.457936 0,5.457935 7.75,0.292065 c 6.09242,0.229597 7.75,0.612887 7.75,1.792064 0,1.179177 -1.65758,1.562467 -7.75,1.792064 l -7.75,0.292065 0,6.419002 0,6.419003 8.75,0.288933 c 6.9827,0.230575 8.75,0.591899 8.75,1.788933 0,1.214714 -1.90525,1.553713 -10.01758,1.782417 -6.93824,0.195604 -10.39642,-0.09642 -11.25,-0.95 z m 27.89417,-0.179888 C 148.30298,79.660141 148.03204,74.317425 148.22467,62.867013 148.48724,47.258444 148.59268,46.5 150.5,46.5 c 1.90344,0 2.01329,0.758394 2.27518,15.708389 l 0.27518,15.708389 7.72482,0.291611 C 166.84542,78.43754 168.5,78.821286 168.5,80 c 0,2.152709 -17.63541,2.746699 -19.37341,0.652529 z m 25.10583,0.179888 c -1.87788,-1.877874 -1.72911,-33.175313 0.16516,-34.74742 0.90865,-0.75411 4.8444,-1.05933 11.25,-0.872444 9.08994,0.265201 9.85242,0.442228 9.85242,2.287447 0,1.825605 -0.76298,2.025194 -8.75,2.288933 l -8.75,0.288933 0,5.419003 0,5.419002 7.75,0.292065 c 6.09242,0.229597 7.75,0.612887 7.75,1.792064 0,1.179177 -1.65758,1.562467 -7.75,1.792064 l -7.75,0.292065 0,6.419002 0,6.419003 8.75,0.288933 c 6.9827,0.230575 8.75,0.591899 8.75,1.788933 0,1.214714 -1.90525,1.553713 -10.01758,1.782417 -6.93824,0.195604 -10.39642,-0.09642 -11.25,-0.95 z m 82.94379,-0.05621 C 255.51605,79.116047 255.53755,47.862446 257.2,46.2 c 1.48026,-1.480263 10.96824,-1.558665 16.10202,-0.133056 8.16286,2.266761 9.94049,11.66746 3.30606,17.483546 l -3.4797,3.05049 3.52292,6.251321 c 3.38079,5.999131 3.86259,9.665863 1.13239,8.618189 -0.7106,-0.272686 -2.59135,-2.852599 -4.17943,-5.733141 C 269.56269,68.406525 267.14597,66 263.82569,66 L 261,66 l 0,6.877555 c 0,7.226561 -1.46653,10.255914 -3.82379,7.898651 z m 16.60128,-20.33291 C 275.33491,59.352439 276,57.866708 276,55.47848 276,51.181101 273.96608,50 266.56574,50 L 261,50 l 0,6 0,6 5.27749,0 c 3.15808,0 6.17005,-0.625165 7.5,-1.556704 z m 44.39872,20.33291 c -1.24263,-1.24263 -1.7383,-30.147847 -0.56922,-33.194419 1.56883,-4.088314 4.36195,-1.455692 12.04335,11.351343 4.26637,7.113222 8.11538,12.711664 8.55335,12.440983 C 338.64166,71.103432 339,65.250528 339,58.367659 c 0,-11.379737 0.15866,-12.483841 1.75,-12.178267 1.56793,0.301079 1.77865,2.03751 2.02533,16.690337 0.39715,23.590095 -0.93214,24.260437 -11.89073,5.99631 -3.93538,-6.558898 -7.54435,-12.16575 -8.01992,-12.459671 C 322.38911,56.122447 322,61.253424 322,67.818538 c 0,8.684183 -0.3607,12.235925 -1.32379,13.035224 -0.9667,0.802287 -1.64108,0.781366 -2.5,-0.07756 z M 237.77641,65.818237 237.5,50.5 232.5,50 c -4.16667,-0.416667 -5,-0.833333 -5,-2.5 0,-1.86594 0.76125,-2.01902 11.35687,-2.283751 7.57168,-0.189178 11.8253,0.105015 12.76233,0.882679 C 253.94509,48.029247 251.31026,50 246.4036,50 l -4.35151,0 -0.27604,15.237389 c -0.24453,13.497722 -0.47283,15.275162 -1.99964,15.568237 -1.56135,0.299708 -1.7496,-1.110951 -2,-14.987389 z M 49.654988,67.171259 c -2.25976,-2.497006 -2.080043,-5.873409 0.382785,-7.191474 5.029563,-2.691741 9.417158,3.613914 5.002197,7.188933 -2.813141,2.277943 -3.325554,2.278185 -5.384982,0.0025 z M 80,65.732135 c 0,-0.697327 1.058065,-2.834827 2.351256,-4.75 5.009877,-7.419467 5.680934,-14.833053 1.67112,-18.461885 -1.025345,-0.927925 -4.037339,-2.241492 -6.69332,-2.919039 C 74.400582,38.854151 72.5,37.810058 72.5,36.948349 c 0,-3.546012 9.885482,-1.409021 14.409465,3.114962 C 92.353691,45.507537 92.074877,52.760859 86.05662,62.25 83.227589,66.710607 80,68.566246 80,65.732135 Z"
       id="path5144"
       inkscape:connector-curvature="0" />
    <path
       style="fill:#b6cdd2"
       d="m 48.64255,104.98211 c -1.571597,-0.47664 -3.761475,-1.6801 -4.866396,-2.67436 C 40.473813,99.33614 36.010993,92.304965 35.359443,89.047213 34.419938,84.349689 36.623079,85.32267 39.418932,90.84002 42.789335,97.49119 48.097381,102 52.557139,102 c 2.67889,0 4.493743,-0.92748 7.827035,-4 C 65.257054,93.508336 66,93.218994 66,95.812909 c 0,1.631713 -2.936035,4.933341 -7,7.871631 -2.285125,1.65217 -7.170284,2.26418 -10.35745,1.29757 z M 63.963218,91.508459 C 52.261447,89.174812 37.53934,81.680514 27.719472,73.058556 24.585526,70.306914 22.653653,66 24.553346,66 c 0.304341,0 3.566841,2.410139 7.25,5.355865 12.7206,10.173711 24.293499,15.373437 36.325321,16.321039 C 78.061979,88.459231 81,87.729719 81,84.480948 81,81.596088 84.205762,78 86.777494,78 c 0.977621,0 2.777621,0.700517 4,1.556704 4.657886,3.26251 1.099759,12.382257 -4.302054,11.026488 -1.293184,-0.324569 -4.948732,0.08644 -8.12344,0.913342 -6.611528,1.722084 -5.816713,1.721425 -14.388782,0.01193 z m 24.700949,-6.075676 c 0.83346,-2.171962 -1.282435,-4.214515 -2.79695,-2.7 C 84.587184,84.012816 85.380166,87 87,87 c 0.584523,0 1.333399,-0.705248 1.664167,-1.567217 z M 13.454545,88.545455 C 10.651024,85.741933 10.494874,84.507601 12.5,81 13.286021,79.625 13.945075,77.559375 13.964565,76.409722 14.098821,68.490126 27.312912,53.008215 40.692753,45.094404 49.626594,39.810282 61.877439,35.469878 63.423656,37.040977 64.69318,38.33093 61.650543,41 58.91052,41 c -3.189136,0 -19.962986,9.130073 -25.992274,14.147698 -6.986715,5.814403 -12.425219,12.802045 -14.059239,18.06396 -1.09593,3.529146 -0.99787,3.856205 1.994193,6.65121 C 22.58394,81.479621 24,83.54233 24,84.446664 24,86.548073 19.584306,91 17.5,91 16.625,91 14.804545,89.895455 13.454545,88.545455 Z m 6.369362,-3.881345 c 0.412141,-2.125124 -2.737134,-3.422546 -3.867629,-1.593366 -0.973605,1.575326 0.782036,4.182913 2.443807,3.629695 0.604953,-0.201395 1.245673,-1.117743 1.423822,-2.036329 z m 48.489507,-1.481178 c 0.309877,-1.549387 1.068031,-6.611887 1.684786,-11.25 1.944647,-14.624106 -2.008188,-33.286779 -8.87684,-41.910575 -1.86159,-2.337281 -2.178657,-2.403415 -5.596822,-1.16739 -3.107384,1.123644 -3.961646,1.088649 -5.998144,-0.245716 -3.467077,-2.271716 -4.113127,-5.344097 -1.783026,-8.479424 2.405374,-3.236611 6.551013,-3.921992 8.71253,-1.440404 11.729791,13.466703 13.406429,16.260747 15.97972,26.629503 2.49,10.033144 3.000712,19.425177 1.568015,28.835887 C 72.566049,83.597617 71.620157,86 69.339816,86 68.129629,86 67.884536,85.327318 68.313414,83.182932 Z M 55,23.361626 c 0,-1.98249 -3.020378,-2.946688 -4.043722,-1.290882 -1.076341,1.741556 0.725747,3.988505 2.616835,3.262826 C 54.357901,25.032419 55,24.145044 55,23.361626 Z m 67.25,57.976093 C 121.31715,80.961308 121,76.414327 121,63.416667 L 121,46 l 11,0 c 9.11111,0 11,0.257576 11,1.5 0,1.212851 -1.58889,1.5 -8.3,1.5 -5.12222,0 -8.75944,0.459438 -9.5,1.2 -1.55432,1.554321 -1.55432,9.045679 0,10.6 0.71416,0.714155 4.15556,1.2 8.5,1.2 4.10548,0 7.3,0.429268 7.3,0.980948 0,1.277463 -3.09421,1.943942 -10.5,2.261651 l -6,0.257401 -0.30507,5.331176 C 123.76507,78.342899 124.60386,79 134.62244,79 c 7.79736,0 10.52701,0.9612 6.79577,2.393011 -1.87129,0.718081 -17.36233,0.673396 -19.16821,-0.05529 z m 28,0 C 149.31715,80.961308 149,76.414327 149,63.416667 149,48.601852 149.22408,46 150.5,46 c 1.26797,0 1.5,2.366667 1.5,15.3 0,10.566667 0.37124,15.671242 1.2,16.5 0.71416,0.714155 4.15556,1.2 8.5,1.2 6.86216,0 9.29793,1.019344 5.71821,2.393011 -1.86858,0.717042 -15.36186,0.673585 -17.16821,-0.05529 z m 25,0 C 174.31715,80.961308 174,76.414327 174,63.416667 L 174,46 l 11,0 c 9.11111,0 11,0.257576 11,1.5 0,1.212851 -1.58889,1.5 -8.3,1.5 -5.12222,0 -8.75944,0.459438 -9.5,1.2 -0.66,0.66 -1.2,3.045 -1.2,5.3 0,2.255 0.54,4.64 1.2,5.3 0.70089,0.700888 4.06296,1.2 8.08333,1.2 5.06029,0 6.77395,0.331062 6.47031,1.25 -0.26353,0.797529 -2.90802,1.358868 -7.30569,1.550758 -3.95569,0.172606 -7.21749,0.811756 -7.65499,1.5 C 176.58492,68.201143 176.8779,76.477897 178.2,77.8 c 0.74056,0.740562 4.37778,1.2 9.5,1.2 7.72988,0 10.43931,0.965093 6.71821,2.393011 -1.87129,0.718081 -17.36233,0.673396 -19.16821,-0.05529 z m 31.16996,-1.223397 C 201.95779,77.393294 200,72.499532 200,64.066752 200,51.489443 204.1259,46 213.57909,46 c 4.12237,0 5.9166,0.522306 8.02539,2.336211 3.87706,3.334904 2.31119,5.392823 -2.05169,2.696413 -9.62201,-5.946726 -17.65377,1.871055 -16.22715,15.794832 0.68285,6.664619 2.6096,9.666039 7.17162,11.171638 3.08176,1.017075 4.13143,0.898861 7.70119,-0.867318 4.3872,-2.170611 6.08206,-2.026344 5.13669,0.437234 -1.63636,4.264297 -11.63015,5.768113 -16.91518,2.545312 z m 85,0.05941 C 286.84943,77.298468 285,72.509362 285,63.549211 285,51.508543 289.10815,46 298.08781,46 c 10.13791,0 14.30486,5.241305 14.3104,18 0.005,11.816069 -3.74574,17.065939 -12.66371,17.724681 -3.94163,0.291156 -5.99524,-0.09191 -8.31454,-1.550952 z M 304.9049,76.63453 c 4.01814,-3.244839 5.4788,-15.916329 2.54691,-22.09484 -2.63687,-5.556793 -9.941,-7.302529 -14.74456,-3.52405 -3.45164,2.715064 -5.02062,7.975322 -4.50499,15.103772 0.6666,9.215738 4.95549,13.46194 12.29774,12.175342 1.65,-0.289133 3.63221,-1.036234 4.4049,-1.660224 z m -66.23823,3.698806 C 238.3,79.966667 238,73.039812 238,64.940322 238,48.563792 238.19379,49 230.91821,49 228.10202,49 227,48.578115 227,47.5 c 0,-1.253333 2.05556,-1.5 12.5,-1.5 10.44444,0 12.5,0.246667 12.5,1.5 0,1.100775 -1.14444,1.5 -4.3,1.5 -2.365,0 -4.84,0.54 -5.5,1.2 -0.82523,0.825225 -1.2,5.822222 -1.2,16 0,13.52424 -0.41694,16.049724 -2.33333,14.133333 z M 257,63.5 257,46 l 8.06574,0 c 11.51796,0 14.84613,2.18762 14.90246,9.795455 0.0241,3.254221 -0.56319,4.890445 -2.42275,6.75 -1.35,1.35 -2.925,2.454545 -3.5,2.454545 -1.7675,0 -1.18828,1.919772 2.45455,8.135312 3.91458,6.679222 4.26646,8.159505 1.82749,7.688012 -0.91988,-0.177828 -3.50738,-3.43681 -5.75,-7.242183 -2.85514,-4.844729 -4.91196,-7.196359 -6.86111,-7.84454 C 261.26587,64.256602 260,66.113612 260,74.122445 260,79.569161 259.68793,81 258.5,81 257.22381,81 257,78.388889 257,63.5 Z m 17.25414,-2.75 c 2.6625,-2.033818 3.12313,-6.062521 0.99382,-8.692107 -2.25167,-2.780695 -11.25007,-4.130955 -13.74279,-2.062181 -1.51662,1.258679 -2.04809,7.425888 -0.89818,10.422501 0.75806,1.975468 11.16418,2.22846 13.64715,0.331787 z M 318,63.5 c 0,-22.934616 0.24609,-22.988755 12.50045,-2.75 3.74646,6.1875 7.17806,11.25 7.62577,11.25 0.44772,0 0.93997,-5.700692 1.0939,-12.668204 0.19971,-9.03962 0.63792,-12.78711 1.52988,-13.083333 0.96835,-0.321591 1.25,3.546801 1.25,17.168204 0,23.060484 -0.2949,23.125007 -12.47348,2.729145 -4.82699,-8.083922 -7.02685,-10.964151 -7.6378,-10 C 321.41677,56.890615 321.02373,62.7875 321.01531,69.25 321.00258,79.020972 320.74736,81 319.5,81 318.22381,81 318,78.388889 318,63.5 Z M 49.2,66.8 C 46.540206,64.140206 48.596644,60 52.577555,60 c 3.326583,0 4.962541,2.519202 3.590906,5.529614 C 54.945032,68.214748 51.282455,68.882455 49.2,66.8 Z M 80,66.066446 c 0,-0.513455 1.402622,-3.189901 3.116937,-5.947657 C 84.844055,57.340438 86.452418,53.165775 86.724,50.756305 87.135419,47.106212 86.79113,45.90522 84.580031,43.27748 83.086627,41.502671 80.550234,39.866345 78.722968,39.498861 73.333344,38.414947 72,37.905992 72,36.932612 c 0,-1.404554 6.616481,-1.119696 10.364218,0.446208 1.81499,0.758351 4.319072,2.670851 5.564628,4.25 3.444123,4.366552 2.644438,13.244335 -1.819649,20.201012 C 83.155101,66.43339 80,68.621394 80,66.066446 Z M 16.52568,58.04966 C 14.603287,54.332162 14.552369,45.766302 16.431069,42.133298 17.950887,39.194294 23.104328,36.523469 29.153612,35.539706 34.096747,34.735831 41,35.922847 41,37.576697 c 0,0.974005 -1.773363,1.295254 -6.75,1.222777 -13.220151,-0.192531 -18.728627,5.010282 -15.738639,14.865311 0.806845,2.659368 1.471861,5.397715 1.477815,6.085215 0.01953,2.25502 -1.907252,1.309103 -3.463496,-1.70034 z"
       id="path5142"
       inkscape:connector-curvature="0" />
    <path
       style="fill:#abb8c5"
       d="M 45.335914,102.77216 C 40.268136,99.171886 32.99562,87 35.912288,87 c 0.575886,0 1.934701,1.739911 3.01959,3.86647 6.408315,12.56134 14.415401,14.98088 22.803142,6.890549 3.832244,-3.696362 5.433781,-3.058367 2.305601,0.918469 -5.190178,6.598242 -12.828612,8.271202 -18.704707,4.096672 z M 60,90.491664 C 47.524822,87.103124 24,72.702623 24,68.4546 c 0,-2.461697 1.865612,-1.655435 8.306109,3.589654 7.549065,6.147898 21.622787,13.383991 29.016181,14.918853 3.002387,0.623294 8.528698,0.999078 12.280689,0.835077 L 80.424783,87.5 81.105041,84.157351 c 0.810668,-3.98346 1.543807,-4.805727 5.058301,-5.673246 5.069918,-1.251462 8.795799,5.45435 5.519817,9.934523 -0.835162,1.142152 -2.93842,1.927071 -5.75,2.145854 C 68.488788,91.921916 65.231918,91.912771 60,90.491664 Z M 88.819551,84.171672 C 89.027242,82.7602 88.610335,82 87.628568,82 c -1.944597,0 -2.967213,1.675121 -2.216655,3.631045 0.814324,2.122094 3.019614,1.177645 3.407638,-1.459373 z M 15.736409,90.225833 C 14.766434,90.018089 13.338304,88.621101 12.562786,87.121415 11.388237,84.850087 11.370121,83.90249 12.454312,81.447357 13.170169,79.826311 14.301029,76.475 14.967335,74 17.609152,64.186939 27.48903,53.114987 40.557348,45.32238 c 8.550853,-5.098854 20.529423,-9.50482 22.511129,-8.280059 2.052036,1.268228 0.550532,2.234935 -8.46783,5.451811 -13.936405,4.971155 -29.379968,17.272491 -34.647702,27.598103 -2.638366,5.171624 -2.47567,6.617047 1.123217,9.978911 2.388616,2.231302 2.92003,3.382635 2.377611,5.151209 -1.297175,4.229476 -3.788776,5.844882 -7.717364,5.003478 z m 4.076014,-5.490341 C 20.21041,82.668912 17.323609,81.276391 15.8,82.8 c -1.523609,1.523609 -0.131088,4.41041 1.935492,4.012423 0.957848,-0.184464 1.892467,-1.119083 2.076931,-2.076931 z M 68.350352,83.25 C 68.67128,81.7375 69.456959,76.45 70.096305,71.5 72.087367,56.084634 67.693111,36.602202 60.632631,29.541722 58.349327,27.258418 57.914837,27.162789 55.504818,28.413122 50.906634,30.798689 46.75,28.374557 46.75,23.307349 46.75,20.507141 50.056412,17 52.696352,17 c 0.811131,0 3.945723,2.5875 6.96576,5.75 7.498991,7.852736 11.86358,17.152986 14.027995,29.891443 1.523824,8.968318 1.57006,11.2231 0.3997,19.492166 C 72.511505,83.284953 71.594839,86 69.408174,86 68.142845,86 67.900517,85.370024 68.350352,83.25 Z M 54.823907,23.66411 c 0.393221,-2.027568 -2.531705,-3.356312 -4.048743,-1.839274 -0.787201,0.787201 -0.726777,1.52854 0.217303,2.666087 1.561588,1.881599 3.382379,1.488678 3.83144,-0.826813 z M 207.30433,80.102548 C 201.7748,76.629677 200.5,73.621081 200.5,64.043979 c 0,-7.093881 0.37771,-9.151293 2.22544,-12.122274 C 205.28381,47.808093 208.60317,46 213.59671,46 217.8943,46 223,48.502555 223,50.609013 c 0,0.85671 -0.3375,1.383924 -0.75,1.171588 -6.60055,-3.397658 -8.21884,-3.739271 -11.94737,-2.522031 -5.60712,1.830535 -7.48947,6.099615 -7.09178,16.083833 0.29536,7.415336 0.48958,8.000739 3.56654,10.75 3.76494,3.363978 7.94458,3.775618 12.28755,1.210164 3.59193,-2.121807 5.02517,-0.94823 2.24151,1.835423 -3.03681,3.036816 -9.94495,3.512694 -14.00212,0.964558 z M 293.5,81.099425 C 287.91513,78.640106 284.99019,72.632062 285.02196,63.6849 285.06346,51.998521 289.91166,46 299.31548,46 307.79024,46 312,51.9797 312,64.017541 c 0,7.60541 -1.2207,10.997935 -5.34272,14.848278 -2.75674,2.575046 -9.70375,3.754383 -13.15728,2.233606 z m 10.40881,-3.552267 c 1.54521,-0.799063 3.43537,-2.936563 4.20034,-4.75 1.79917,-4.265127 1.71477,-14.455993 -0.15154,-18.297158 -3.45422,-7.109345 -13.97241,-7.803688 -18.00589,-1.188633 -2.23162,3.659933 -2.69032,14.271434 -0.84566,19.563045 1.90703,5.47049 8.95671,7.695847 14.80275,4.672746 z m -182.46665,2.162701 c -0.27229,-0.709578 -0.37067,-8.472078 -0.21862,-17.25 L 121.5,46.5 l 10.25,0 c 12.70387,0 13.79083,1.799097 1.51042,2.5 l -8.76042,0.5 0,6 0,6 7.75,0.292064 C 136.5125,61.9527 140,62.496271 140,63 c 0,0.503729 -3.4875,1.0473 -7.75,1.207936 L 124.5,64.5 l 0,7 0,7 8.75,0.288933 C 145.42147,79.190846 144.373,81 131.96862,81 124.69954,81 121.8009,80.644739 121.44216,79.709859 Z m 28,0 c -0.27229,-0.709578 -0.37067,-8.472078 -0.21862,-17.25 C 149.59115,41.237958 151.33635,41.263189 152,62.5 l 0.5,16 7.75,0.292064 C 171.07961,79.200186 170.03508,81 158.96862,81 c -6.45249,0 -9.17276,-0.368398 -9.52646,-1.290141 z m 25,0 c -0.27229,-0.709578 -0.37067,-8.472078 -0.21862,-17.25 L 174.5,46.5 l 10.25,0 c 12.70387,0 13.79083,1.799097 1.51042,2.5 l -8.76042,0.5 0,6 0,6 7.75,0.292064 C 189.5125,61.9527 193,62.496271 193,63 c 0,0.503729 -3.4875,1.0473 -7.75,1.207936 L 177.5,64.5 l 0,7 0,7 8.75,0.288933 C 198.42147,79.190846 197.373,81 184.96862,81 177.69954,81 174.8009,80.644739 174.44216,79.709859 Z m 83.06416,0.167217 c -0.30758,-0.801547 -0.43483,-8.639295 -0.28278,-17.417217 L 257.5,46.5 264.42306,46.200365 C 275.16567,45.735418 280,48.738305 280,55.876116 c 0,2.707082 -0.82426,4.192057 -3.90612,7.037219 l -3.90613,3.606114 3.40613,5.784936 c 3.6674,6.228684 4.58354,9.917674 1.91247,7.700885 -0.82151,-0.681791 -2.83224,-3.579238 -4.4683,-6.438773 -3.90087,-6.817999 -6.18474,-8.793851 -9.69962,-8.391453 -2.78304,0.318615 -2.8443,0.461546 -3.13936,7.324956 -0.2951,6.864559 -1.55983,10.329416 -2.69275,7.377076 z m 17.59687,-19.470461 c 2.49014,-2.253542 2.41677,-6.88666 -0.1497,-9.453125 -1.70304,-1.703039 -3.08766,-1.996746 -8.25,-1.75 L 260.5,49.5 l -0.3046,5.907241 c -0.20759,4.026091 0.11085,6.191697 1,6.800497 2.03238,1.391564 11.77394,0.129987 13.90779,-1.801123 z m 43.36329,19.366626 c -0.28567,-0.744438 -0.39499,-8.53546 -0.24294,-17.313382 C 318.45089,49.335069 318.75677,46.5 319.94547,46.5 c 0.79501,0 4.9547,5.849062 9.24375,12.997916 4.28905,7.148854 8.2374,13.144291 8.77411,13.323193 0.59093,0.196978 1.08643,-4.70027 1.25625,-12.416121 0.2032,-9.232786 0.63141,-12.857968 1.55501,-13.164723 1.00621,-0.33419 1.21678,3.122892 1,16.418204 C 341.54748,77.587755 341.24894,80.5 340.04814,80.5 c -0.79852,0 -5.01591,-5.955132 -9.37198,-13.233626 C 326.32009,59.98788 322.36092,54.276938 321.87801,54.575391 321.39511,54.873845 321,60.689919 321,67.5 c 0,7.233847 -0.41871,12.640744 -1.00706,13.004365 -0.55389,0.34232 -1.24079,0.01331 -1.52646,-0.731124 z M 238.47941,78.75 C 238.22761,78.0625 237.90424,71.2 237.7608,63.5 L 237.5,49.5 232.72546,49 c -2.626,-0.275 -4.7635,-0.95 -4.75,-1.5 0.0149,-0.607273 4.5409,-1 11.52454,-1 6.98364,0 11.50964,0.392727 11.52454,1 0.0135,0.55 -2.124,1.225 -4.75,1.5 L 241.5,49.5 241.22395,64.75 c -0.16962,9.370935 -0.66361,15.25 -1.28138,15.25 -0.55294,0 -1.21136,-0.5625 -1.46316,-1.25 z M 49.447026,65.941464 C 46.996794,63.233988 48.585477,60.5 52.608986,60.5 c 2.25737,0 2.962633,0.505213 3.217778,2.305042 C 56.182391,65.313686 54.478948,68 52.532543,68 51.860131,68 50.471648,67.073659 49.447026,65.941464 Z M 81,66.083057 c 0,-0.674804 1.08604,-3.107049 2.413421,-5.404987 1.327382,-2.297939 2.951721,-6.017506 3.609642,-8.265706 C 89.044146,45.506072 85.117955,40.450713 76.25,38.540983 74.4625,38.156041 73,37.426844 73,36.920545 c 0,-1.542606 5.255878,-0.987456 9.683683,1.022834 7.588961,3.445502 9.318899,11.092715 4.661212,20.604951 C 84.633695,64.085323 81,68.40043 81,66.083057 Z M 16.52568,57.04966 C 15.686556,55.426973 15,51.841973 15,49.082993 c 0,-4.395568 0.431291,-5.447618 3.485254,-8.50158 3.896311,-3.896312 7.316779,-4.848597 15.776247,-4.392231 8.536853,0.460541 7.443785,2.165321 -1.438396,2.243365 -8.363302,0.07348 -11.867898,1.697637 -14.795932,6.856952 -1.443189,2.542959 -0.982714,6.48982 1.512085,12.960501 1.141481,2.960624 -1.381537,1.955679 -3.013578,-1.20034 z"
       id="path5140"
       inkscape:connector-curvature="0" />
    <path
       style="fill:#8da9b5"
       d="M 47.371757,103.608 C 43.93807,102.06136 37.294723,94.022451 36.35452,90.276383 35.335558,86.216515 36.674064,86.700077 38.905035,91.197806 42.791577,99.033233 47.443196,103 52.744849,103 c 2.490661,0 4.427008,-1.03899 7.896465,-4.237023 3.275747,-3.019479 4.4906,-3.697089 4.227657,-2.358067 -0.546089,2.780917 -7.02119,7.59523 -10.945883,8.1384 -1.882699,0.26056 -4.830797,-0.16033 -6.551331,-0.93531 z M 62,90.442311 C 58.425,89.632947 52.164939,87.390046 48.088754,85.458085 36.111077,79.781112 22.35644,69.13381 24.938688,67.537893 c 0.599004,-0.370205 3.670347,1.637003 6.825205,4.460463 10.038033,8.983598 29.431564,17.138317 40.196206,16.901964 7.437313,-0.163297 9.495172,-1.088207 9.878386,-4.439866 C 82.296139,80.457734 83.700601,79 87.099392,79 c 1.974859,0 3.382554,0.80591 4.568067,2.615231 1.53541,2.343332 1.560338,2.889163 0.23977,5.25 C 90.366733,89.619243 89.992408,89.713005 74,91.350667 70.693256,91.689286 65.90797,91.327057 62,90.442311 Z m 27.5,-5.928616 c 0,-2.1404 -3.090859,-3.322836 -4.639002,-1.774693 -0.50961,0.50961 -0.629536,1.700603 -0.266503,2.646653 C 85.520723,87.799365 89.5,87.092043 89.5,84.513695 Z M 13.654988,88.171259 C 11.608218,85.909605 11.537751,82.993407 13.468197,80.44113 14.275705,79.373508 14.960588,77.375 14.990159,76 15.225218,65.070109 34.683968,46.546114 53.285091,39.544671 c 7.359178,-2.769988 10.091349,-3.173992 9.501689,-1.40501 -0.208938,0.626814 -3.382676,2.150989 -7.05275,3.387055 -16.486365,5.552542 -32.74944,19.091382 -37.3252,31.072838 -1.731019,4.532609 -1.726845,4.692679 0.15633,5.994598 C 22.289451,81.168911 23,82.096629 23,84.384439 c 0,4.836788 -6.142289,7.325789 -9.345012,3.78682 z m 6.695534,-2.64232 c 0.310474,-0.809084 -0.155667,-2.191227 -1.035869,-3.071429 -1.419638,-1.419638 -1.769072,-1.431663 -3.094254,-0.10648 -0.821638,0.821638 -1.221476,2.203781 -0.888528,3.071429 0.763444,1.989503 4.267538,2.063849 5.018651,0.10648 z m 48.250482,-0.365512 c -0.317379,-0.513529 -0.01994,-2.44788 0.660972,-4.298558 C 71.010037,76.113752 70.893409,51.89671 69.09166,45.5 67.154753,38.623439 63.709173,31.976901 60.556636,29.035901 c -2.236898,-2.0868 -2.939009,-2.278198 -4.585417,-1.25 C 51.878842,30.341633 47,27.870885 47,23.242688 47,18.22263 54.97582,16.110606 57.399151,20.488958 58.004618,21.582885 60.525,24.768032 63,27.567062 c 9.163475,10.363168 13.072691,29.997059 9.853606,49.489361 -1.089285,6.595874 -2.970312,10.181794 -4.252602,8.107004 z M 54.819551,23.239784 C 55.059664,21.556796 54.639296,21 53.128568,21 c -2.393511,0 -3.529577,1.512605 -2.720205,3.621794 0.855401,2.22914 4.038251,1.231964 4.411188,-1.38201 z M 207.88562,80.001493 C 202.7569,77.291079 200.49128,72.204394 200.53583,63.5 c 0.0419,-8.187515 1.96999,-12.618184 6.76272,-15.540484 4.08466,-2.490564 8.33473,-2.480486 12.45145,0.02952 4.65113,2.835846 4.02427,4.382432 -0.76456,1.886351 -4.80182,-2.502846 -9.63156,-1.974707 -12.71057,1.389919 -2.76191,3.018102 -3.50452,5.866381 -3.46176,13.27763 0.0389,6.743819 1.94049,11.719641 5.1315,13.427416 2.81188,1.504874 9.37234,1.257152 11.61426,-0.438553 2.4796,-1.875474 3.52569,-1.915746 2.83239,-0.109039 -0.65119,1.696987 -6.43291,4.595418 -9.04239,4.53304 -1.01688,-0.02431 -3.47534,-0.903748 -5.46325,-1.954311 z M 293,80.229953 c -9.44394,-5.067176 -10.77202,-23.96013 -2.21885,-31.564699 5.05141,-4.491168 15.04399,-2.617014 18.65692,3.499188 2.89044,4.893134 3.27899,15.426096 0.77764,21.080806 C 306.84322,80.869326 299.63907,83.79217 293,80.229953 Z m 12.34104,-3.283571 c 3.36466,-2.646645 5.02256,-8.874449 4.35143,-16.345879 -0.43855,-4.882192 -1.06458,-6.434147 -3.63043,-9 -4.19795,-4.197951 -10.70963,-4.407461 -14.64587,-0.471223 -5.30208,5.302081 -5.49616,19.944578 -0.33279,25.107942 3.52344,3.523447 10.25426,3.85823 14.25766,0.70916 z M 121.66667,80.333333 C 120.41477,79.081436 120.90714,48.492859 122.2,47.2 c 0.76129,-0.76129 4.6,-1.2 10.5,-1.2 7.48986,0 9.3,0.28438 9.3,1.461067 0,1.14809 -1.87435,1.52296 -8.75,1.75 L 124.5,49.5 l -0.30507,5.331176 c -0.40967,7.1589 0.599,8.129382 8.67751,8.348982 L 139.5,63.360316 132,63.930158 124.5,64.5 l -0.2921,6.592614 c -0.20305,4.582791 0.11543,6.930834 1.04468,7.702046 0.73523,0.610188 4.69168,1.266598 8.7921,1.458689 7.18586,0.336634 7.10894,0.356439 -2.12801,0.547954 -5.27084,0.109283 -9.88334,-0.101303 -10.25,-0.46797 z m 28,0 C 149.3,79.966667 149,72.316667 149,63.333333 149,49.481481 149.22789,47 150.5,47 c 1.2683,0 1.5,2.375284 1.5,15.377555 0,11.326207 0.33943,15.659254 1.28835,16.446789 0.70859,0.588079 4.19609,1.231473 7.75,1.429765 5.96026,0.332556 5.79563,0.375483 -2.12168,0.553211 -4.72084,0.105974 -8.88334,-0.10732 -9.25,-0.473987 z m 24.77549,-0.623474 c -0.27229,-0.709578 -0.37067,-8.472078 -0.21862,-17.25 L 174.5,46.5 184.75,46.215017 c 8.55941,-0.237979 10.25,-0.03823 10.25,1.211067 0,1.192068 -1.77791,1.554758 -8.75,1.784983 L 177.5,49.5 l -0.30507,5.331176 c -0.40382,7.056692 0.6463,8.128373 8.17751,8.345411 l 6.12756,0.176587 -7,0.573413 -7,0.573413 -0.2921,6.592614 c -0.20305,4.582791 0.11543,6.930834 1.04468,7.702046 0.73523,0.610188 4.69168,1.266598 8.7921,1.458689 7.02377,0.32904 6.88913,0.360758 -2.32606,0.547954 -7.21305,0.146524 -9.91138,-0.140061 -10.27646,-1.091444 z M 338.86331,79.368243 C 338.11349,78.482888 334.35,72.555575 330.5,66.196436 326.65,59.837297 322.9375,54.454133 322.25,54.233849 321.29301,53.927218 321,56.919725 321,67 c 0,10.088889 -0.29219,13.069269 -1.25,12.75 -0.93013,-0.310044 -1.25,-4.48615 -1.25,-16.319638 0,-20.241747 0.58038,-20.565532 9.5,-5.29986 7.62282,13.046242 9.82729,16.094275 11.08007,15.320009 C 339.58603,73.137811 340,67.031966 340,59.881966 340,51.469943 340.35292,47.100083 341,47.5 c 1.25174,0.773616 1.35973,32.159639 0.11331,32.929973 -0.48768,0.301403 -1.50018,-0.176375 -2.25,-1.06173 z M 238.77698,64.923022 238.5,49.5 233.18484,49.195481 c -3.57433,-0.204783 -5.18525,-0.696067 -4.91852,-1.5 0.26835,-0.808799 4.00914,-1.286938 11.56516,-1.478232 C 249.14591,45.981437 251,46.179855 251,47.412458 c 0,1.053736 -1.36341,1.565445 -4.75,1.782751 L 241.5,49.5 241.22115,63.978853 c -0.38332,19.903091 -2.09184,20.563083 -2.44417,0.944169 z M 257.22582,63.25 257.5,46.5 l 5.95876,-0.306133 c 8.50766,-0.437083 14.07331,1.858267 15.5807,6.425689 1.48728,4.506524 -0.18451,8.886972 -4.18031,10.953282 C 273.28662,64.386025 272,65.465695 272,65.972104 c 0,0.506409 1.575,3.608072 3.5,6.892584 C 279.22488,79.220226 279.51054,80 278.11397,80 c -0.48732,0 -2.75495,-3.145852 -5.03919,-6.990782 -4.13446,-6.959327 -6.45984,-8.655306 -10.74569,-7.83717 -1.53749,0.293497 -1.87593,1.50329 -2.1229,7.588557 C 259.97918,78.353976 259.57579,80 258.43201,80 c -1.25915,0 -1.4394,-2.503022 -1.20619,-16.75 z m 18.16956,-2.163176 c 2.26823,-1.882458 2.09585,-8.332293 -0.28015,-10.482545 -1.45108,-1.313208 -3.34944,-1.636501 -8.25,-1.404987 L 260.5,49.5 l -0.3068,5.380801 c -0.46353,8.129728 -0.20307,8.416494 7.21519,7.944135 3.51031,-0.22352 7.10446,-1.00567 7.98699,-1.738112 z M 50.039869,66.548039 c -2.647683,-3.190262 1.25886,-8.204858 4.376308,-5.617606 2.164477,1.796356 1.991136,4.781212 -0.350436,6.034383 -2.477221,1.325769 -2.589319,1.314164 -4.025872,-0.416777 z M 81,65.689716 c 0,-0.341143 1.324904,-2.709416 2.944231,-5.262829 1.619327,-2.553414 3.230082,-5.944042 3.579455,-7.534729 C 87.873059,51.301471 88.60348,50 89.146843,50 91.147422,50 86.225689,61.580792 82.974768,64.522835 81.888645,65.505762 81,66.030859 81,65.689716 Z M 16.513127,55.685659 C 14.768677,51.510602 14.694477,51 15.832219,51 c 0.939635,0 3.351082,7.150032 2.648427,7.852687 -0.249916,0.249916 -1.1353,-1.175246 -1.967519,-3.167028 z M 88,47.776725 c 0,-3.112723 -5.027336,-7.754812 -9.662354,-8.921923 -2.474311,-0.623039 -4.085935,-1.506513 -3.612253,-1.980195 1.023169,-1.023169 6.578813,0.439472 9.876492,2.600193 3.225083,2.113156 5.912012,7.411303 4.483213,8.840102 C 88.304967,49.095033 88,48.943778 88,47.776725 Z M 15.683959,45.100541 c 0.71051,-2.716994 5.247914,-6.638536 9.215264,-7.964476 C 28.94193,35.784939 30,35.720144 30,36.823696 c 0,0.453032 -2.136421,1.465532 -4.747601,2.25 -3.421274,1.02784 -5.307008,2.323488 -6.75,4.637784 -2.247072,3.60389 -3.567857,4.254835 -2.81844,1.389061 z M 35.5,37 c 0.339919,-0.55 1.239919,-1 2,-1 0.760081,0 1.660081,0.45 2,1 0.351909,0.569401 -0.509288,1 -2,1 -1.490712,0 -2.351909,-0.430599 -2,-1 z m -3.6875,-0.683114 c 0.721875,-0.288871 1.584375,-0.253344 1.916667,0.07895 0.332291,0.332292 -0.258334,0.568641 -1.3125,0.52522 -1.164943,-0.04798 -1.4019,-0.284941 -0.604167,-0.604167 z"
       id="path5138"
       inkscape:connector-curvature="0" />
    <path
       style="fill:#719da6"
       d="M 64.5,90.497889 C 56.766339,88.869036 51.493383,86.893806 43.088859,82.477354 36.672643,79.105728 24.383329,69.283338 25.359627,68.30704 c 0.248209,-0.248209 3.306333,1.8683 6.795831,4.703354 C 44.325883,82.898296 59.445196,89 71.77584,89 79.223012,89 82,87.810293 82,84.619804 82,82.025319 84.830178,79 87.257312,79 89.567907,79 92,81.7776 92,84.416441 c 0,3.004538 -3.300353,5.940394 -5.789727,5.150297 -1.06318,-0.33744 -4.564973,0.072 -7.781763,0.909867 -6.600379,1.71918 -5.872314,1.718068 -13.92851,0.02128 z m 24.337492,-3.376292 c 0.735621,-0.466277 1.185621,-1.921887 1,-3.234687 C 89.585053,82.101539 88.873412,81.5 87.013695,81.5 c -2.827518,0 -3.895822,2.732176 -1.973826,5.048039 1.382879,1.666268 1.940781,1.750528 3.797623,0.573558 z M 14.07258,87.365141 c -2.472834,-3.143699 -2.490182,-3.323918 -0.582181,-6.047971 0.81972,-1.170314 1.76492,-3.855196 2.100444,-5.966404 0.816551,-5.13795 2.451719,-8.096455 8.475603,-15.334886 C 30.446072,52.349982 42.829322,44.012213 53.75,40.029641 58.2875,38.374897 62,37.40601 62,37.87656 c 0,0.470549 -3.402642,2.096557 -7.561426,3.61335 -14.507194,5.291069 -29.705244,17.384008 -34.867848,27.744004 -3.188492,6.39847 -3.220764,8.294059 -0.175179,10.289603 3.288962,2.155011 3.795171,4.964307 1.435144,7.964595 -2.517924,3.201021 -4.167062,3.171014 -6.758111,-0.122971 z m 6.303286,-1.596377 c 0.838693,-1.331803 0.708272,-2.113198 -0.565275,-3.386745 -2.995707,-2.995706 -7.465121,0.919469 -4.764428,4.173605 1.554892,1.873529 3.869544,1.531801 5.329703,-0.78686 z M 69.428996,82.25 c 3.971945,-18.579244 1.659009,-38.919114 -5.670285,-49.864258 -3.5017,-5.229236 -5.72113,-6.278998 -9.265148,-4.382297 -1.659157,0.887954 -2.779444,0.913923 -4.300838,0.0997 -4.435252,-2.373674 -3.478241,-8.491411 1.524756,-9.747083 2.084736,-0.523236 2.99731,-0.179036 4.221136,1.592103 0.858761,1.242813 3.22774,3.900399 5.264399,5.905748 11.263867,11.090706 15.795215,36.736867 10.141153,57.396089 -0.79678,2.911331 -2.555081,1.993241 -1.915173,-1 z M 56,23.664816 C 56,22.037155 53.962845,20 52.335184,20 c -0.695649,0 -1.729757,0.868749 -2.298018,1.930554 -1.469047,2.744939 1.287341,5.501327 4.03228,4.03228 C 55.131251,25.394573 56,24.360465 56,23.664816 Z m 156.26903,56.642193 c 0.97297,-0.253543 2.32297,-0.236869 3,0.03705 0.67703,0.273923 -0.11903,0.481368 -1.76903,0.460988 -1.65,-0.02038 -2.20394,-0.244498 -1.23097,-0.498042 z m 85,0 c 0.97297,-0.253543 2.32297,-0.236869 3,0.03705 0.67703,0.273923 -0.11903,0.481368 -1.76903,0.460988 -1.65,-0.02038 -2.20394,-0.244498 -1.23097,-0.498042 z M 122,63.5 122,47 l 9.75,0.201244 9.75,0.201244 -7.95262,0.344468 c -4.37393,0.189457 -8.53643,0.828997 -9.25,1.4212 -1.62407,1.34786 -1.7312,10.998023 -0.13976,12.589462 0.87682,0.876825 0.8493,1.529115 -0.11346,2.689173 -0.85635,1.031839 -1.14182,3.819042 -0.87493,8.542381 C 123.38711,76.845127 123.21317,80 122.78269,80 122.35221,80 122,72.575 122,63.5 Z m 28.17471,0.25 c 0.18736,-17.427433 0.61305,-15.810062 1.05314,4.001361 0.14968,6.738249 -0.0653,12.250749 -0.47785,12.25 C 150.3375,80.000612 150.07862,72.6875 150.17471,63.75 Z M 175,63.5 175,47 l 9.75,0.201244 9.75,0.201244 -7.95262,0.344468 c -4.37393,0.189457 -8.53643,0.828997 -9.25,1.4212 -1.62407,1.34786 -1.7312,10.998023 -0.13976,12.589462 0.87682,0.876825 0.8493,1.529115 -0.11346,2.689173 -0.85635,1.031839 -1.14182,3.819042 -0.87493,8.542381 C 176.38711,76.845127 176.21317,80 175.78269,80 175.35221,80 175,72.575 175,63.5 Z M 258.19586,63.75 258,47 l 6.75,0.180248 c 5.98083,0.159709 6.18314,0.223974 1.77539,0.563965 -2.73603,0.211044 -5.54853,0.860032 -6.25,1.442196 -1.61223,1.33803 -1.70462,11.984364 -0.11777,13.571209 0.84927,0.849277 0.86271,1.51296 0.0504,2.491689 -0.60895,0.733739 -1.26674,4.46531 -1.46176,8.292382 -0.19498,3.827071 -0.44268,-0.579189 -0.5504,-9.791689 z m 79.43342,13.5 c -1.36033,-2.630579 -1.31801,-2.75 0.97432,-2.75 1.94759,0 2.3964,0.515036 2.3964,2.75 0,1.5125 -0.43844,2.75 -0.97432,2.75 -0.53588,0 -1.61426,-1.2375 -2.3964,-2.75 z m -18.41306,-14 c -0.2161,-16.241163 0.44321,-19.286338 2.97338,-13.733208 0.9447,2.073386 0.85628,2.734056 -0.50186,3.75 -1.34612,1.006944 -1.70425,3.52666 -1.95195,13.733208 -0.29133,12.004888 -0.31191,11.856355 -0.51957,-3.75 z M 275,75 c -0.5887,-1.1 -0.84537,-2 -0.57037,-2 0.275,0 0.98167,0.9 1.57037,2 0.5887,1.1 0.84537,2 0.57037,2 -0.275,0 -0.98167,-0.9 -1.57037,-2 z m 11.07895,-6.583333 c 0.048,-1.164943 0.28494,-1.4019 0.60416,-0.604167 0.28887,0.721875 0.25335,1.584375 -0.0789,1.916667 -0.33229,0.332291 -0.56864,-0.258334 -0.52522,-1.3125 z M 201.29966,64 c 0,-3.025 0.18747,-4.2625 0.41659,-2.75 0.22913,1.5125 0.22913,3.9875 0,5.5 -0.22912,1.5125 -0.41659,0.275 -0.41659,-2.75 z M 50.046163,65.555624 C 48.220814,63.356212 49.508083,61 52.535038,61 c 2.242288,0 2.554503,0.375177 2.281384,2.741449 -0.361651,3.133305 -2.880467,4.091235 -4.770259,1.814175 z m 218.453677,0.06792 c -1.69085,-1.236377 -1.62492,-1.375331 0.96034,-2.024191 3.39377,-0.851782 3.73617,-0.588356 2.11571,1.627745 -1.07321,1.467711 -1.53042,1.526637 -3.07605,0.396446 z m 17.57911,-6.206874 c 0.048,-1.164943 0.28494,-1.4019 0.60416,-0.604167 0.28887,0.721875 0.25335,1.584375 -0.0789,1.916667 -0.33229,0.332291 -0.56864,-0.258334 -0.52522,-1.3125 z M 278.232,56 c 0,-1.925 0.2058,-2.7125 0.45733,-1.75 0.25152,0.9625 0.25152,2.5375 0,3.5 C 278.4378,58.7125 278.232,57.925 278.232,56 Z m -2.77095,-6.043034 c -1.51896,-1.678441 -1.56042,-1.932328 -0.2323,-1.422682 0.88914,0.341195 1.86228,1.26056 2.16255,2.043035 0.74711,1.946954 0.24796,1.786532 -1.93025,-0.620353 z m 14.14765,0.620353 c 0.30027,-0.782475 1.27341,-1.70184 2.16255,-2.043035 1.32812,-0.509646 1.28666,-0.255759 -0.2323,1.422682 -2.17821,2.406885 -2.67736,2.567307 -1.93025,0.620353 z m 15.79629,-0.722828 c -1.89478,-2.134007 -1.89293,-2.139179 0.34501,-0.964816 1.2375,0.649381 2.25,1.61486 2.25,2.145509 0,1.420639 -0.47868,1.202847 -2.59501,-1.180693 z m -66.78035,-0.563187 c -0.38979,-0.389783 -2.82729,-1.004657 -5.41667,-1.366387 -3.20832,-0.448194 -1.20409,-0.646705 6.29203,-0.623201 6.05,0.01897 9.2,0.213916 7,0.433213 -2.2,0.219298 -4.4275,0.818652 -4.95,1.331897 -1.13629,1.116169 -1.96972,1.180121 -2.92536,0.224478 z M 85.404988,41.75 83.5,39.5 85.75,41.404988 C 87.864445,43.195206 88.455241,44 87.654988,44 c -0.189757,0 -1.202257,-1.0125 -2.25,-2.25 z"
       id="path5136"
       inkscape:connector-curvature="0" />
    <path
       style="fill:#747698"
       d="M 61.330197,89.494121 C 51.370256,86.909964 44.549159,83.805741 36,77.966566 30.080071,73.923186 23.953056,68 25.690464,68 c 0.585556,0 1.681713,0.743519 2.435905,1.652265 4.148116,4.998174 19.083946,13.815732 29.369146,17.338451 5.082417,1.740747 19.613474,2.672164 22.773062,1.459716 C 81.22086,88.085007 82,87.159167 82,86.393011 c 0,-1.803918 0.933134,-1.763499 3.026642,0.131099 2.430966,2.199994 5.153203,0.836266 4.777453,-2.393306 C 89.431731,80.930329 86.192416,80.016371 84.316097,82.582389 83.149091,84.178366 83,84.19467 83,82.726313 c 0,-2.827672 3.74376,-4.124228 6.567058,-2.274332 4.768072,3.124161 2.18162,9.182876 -3.727921,8.732585 -1.628899,-0.124118 -5.265749,0.458579 -8.081887,1.294883 -6.235554,1.85176 -5.268753,1.909751 -16.427053,-0.985328 z m -45.567934,-0.59474 c -3.483401,-1.974565 -4.04967,-4.698278 -1.750289,-8.418755 l 2.125386,-3.438946 2.978074,2.201785 c 2.311808,1.709194 2.911684,2.853693 2.68132,5.115677 -0.363837,3.57259 -3.533909,5.957694 -6.034491,4.540239 z m 4.613603,-3.130617 c 0.838693,-1.331803 0.708272,-2.113198 -0.565275,-3.386745 -2.995707,-2.995706 -7.465121,0.919469 -4.764428,4.173605 1.554892,1.873529 3.869544,1.531801 5.329703,-0.78686 z M 69.416511,82.25 c 4.207074,-20.106032 1.712634,-39.869345 -6.45528,-51.144822 -3.055365,-4.217809 -6.344379,-5.32203 -8.734105,-2.932304 -1.591867,1.591867 -5.832841,-0.355232 -6.69579,-3.074143 -0.809809,-2.551481 0.867928,-5.77329 3.42983,-6.586406 C 53.062675,17.845332 57,19.465043 57,20.996541 c 0,0.509396 1.813283,2.721425 4.029518,4.915622 C 69.236214,34.037249 74.776775,52.00905 73.696567,67 c -0.670089,9.299391 -2.535348,18 -3.858886,18 -0.56002,0 -0.74452,-1.204677 -0.42117,-2.75 z M 55.411607,24.709245 c 1.510633,-2.394852 -1.726,-5.631485 -4.120852,-4.120852 -2.403228,1.515918 -2.615469,2.944036 -0.719326,4.840178 1.896142,1.896143 3.32426,1.683902 4.840178,-0.719326 z M 16.426238,73.024846 C 17.531103,66.769668 27.676013,54.828886 37,48.809076 46.997006,42.354747 58.524241,37.33945 61.258715,38.254537 61.941422,38.483004 60.025,39.481422 57,40.473244 40.22848,45.972206 24.867641,57.944597 18.903425,70.166093 16.38638,75.323864 15.926394,75.854702 16.426238,73.024846 Z M 50.67589,64.597766 C 50.048315,62.962331 50.78579,62 52.666667,62 53.4,62 54,62.9 54,64 c 0,2.27384 -2.507881,2.724825 -3.32411,0.597766 z"
       id="path5134"
       inkscape:connector-curvature="0" />
  </g>
</svg>
