<?xml version="1.0" encoding="UTF-8" standalone="no"?>
<!-- Created with Inkscape (http://www.inkscape.org/) -->

<svg
   xmlns:dc="http://purl.org/dc/elements/1.1/"
   xmlns:cc="http://creativecommons.org/ns#"
   xmlns:rdf="http://www.w3.org/1999/02/22-rdf-syntax-ns#"
   xmlns:svg="http://www.w3.org/2000/svg"
   xmlns="http://www.w3.org/2000/svg"
   xmlns:xlink="http://www.w3.org/1999/xlink"
   xmlns:sodipodi="http://sodipodi.sourceforge.net/DTD/sodipodi-0.dtd"
   xmlns:inkscape="http://www.inkscape.org/namespaces/inkscape"
   id="svg4145"
   version="1.1"
   inkscape:version="0.91 r13725"
   width="473"
   height="123"
   viewBox="0 0 473 123"
   sodipodi:docname="ESLint.bmp.svg">
  <metadata
     id="metadata4151">
    <rdf:RDF>
      <cc:Work
         rdf:about="">
        <dc:format>image/svg+xml</dc:format>
        <dc:type
           rdf:resource="http://purl.org/dc/dcmitype/StillImage" />
        <dc:title></dc:title>
      </cc:Work>
    </rdf:RDF>
  </metadata>
  <defs
     id="defs4149" />
  <sodipodi:namedview
     pagecolor="#ffffff"
     bordercolor="#666666"
     borderopacity="1"
     objecttolerance="10"
     gridtolerance="10"
     guidetolerance="10"
     inkscape:pageopacity="0"
     inkscape:pageshadow="2"
     inkscape:window-width="640"
     inkscape:window-height="480"
     id="namedview4147"
     showgrid="false"
     inkscape:zoom="0.55391121"
     inkscape:cx="236.5"
     inkscape:cy="61.5"
     inkscape:window-x="0"
     inkscape:window-y="0"
     inkscape:window-maximized="0"
     inkscape:current-layer="svg4145" />
  <image
     width="473"
     height="123"
     preserveAspectRatio="none"
     style="image-rendering:optimizeQuality"
     xlink:href="file:///media/havoc/USB%20DISK/pics/_OpsDeps/ESLint.bmp"
     id="image4153"
     x="0"
     y="0"
     sodipodi:absref="/media/havoc/USB DISK/pics/_OpsDeps/ESLint.bmp" />
  <g
     id="g5095">
    <path
       style="fill:#fcfcfd"
       d="M 0,61.5 0,0 236.5,0 473,0 473,61.5 473,123 236.5,123 0,123 0,61.5 Z"
       id="path5111"
       inkscape:connector-curvature="0" />
    <path
       style="fill:#a0a1e0"
       d="M 33.042822,85.570737 C 25.641374,78.798145 19.426433,72.7793 19.231842,72.195526 c -0.410701,-1.232102 6.3589,-33.702136 7.658537,-36.73377 0.675409,-1.575512 4.9985,-3.353211 19.042349,-7.83041 C 61.481119,22.674499 64.346371,22.030679 65.80065,23.167042 66.735292,23.897366 73.2375,29.622534 80.25,35.889637 90.834949,45.349455 93,47.759863 93,50.084547 93,53.71484 86.158612,85.241388 85.152492,86.247508 83.80224,87.59776 51.668618,98.002289 49.034077,97.942271 47.230069,97.901173 42.62298,94.336928 33.042822,85.570737 Z M 70.434776,68.902941 c 2.587592,-4.453382 4.451479,-8.756971 4.141973,-9.563532 -0.309506,-0.806561 -2.395052,-4.603828 -4.634546,-8.438372 L 65.870395,43.929139 56.200214,44.21457 46.530033,44.5 l -4.240394,7 c -2.332217,3.85 -4.251475,7.763391 -4.265017,8.696424 -0.02188,1.507395 5.690758,12.285449 8.243782,15.553576 0.655732,0.839404 4.012462,1.25 10.219073,1.25 l 9.242588,0 4.704711,-8.097059 z M 120,82.021162 C 118.75454,81.233857 118.5,77.921193 118.5,62.5 c 0,-15.421193 0.25454,-18.733857 1.5,-19.521162 0.825,-0.521517 5.6074,-0.955103 10.62756,-0.963525 9.61101,-0.01612 11.90866,0.945828 11.19417,4.686648 -0.28957,1.516106 -1.56524,1.843985 -8.13561,2.091058 l -7.79219,0.293019 0.30304,4.706981 L 126.5,58.5 l 6.3002,0.29902 c 4.65223,0.220805 6.46035,0.716384 6.91248,1.894608 C 140.6774,63.207659 137.15891,65 131.25897,65 l -5.35878,0 0.29991,5.75 0.2999,5.75 8,0.5 c 7.20055,0.450035 8.03023,0.711818 8.30247,2.619648 0.2148,1.5053 -0.36487,2.298388 -2,2.736345 C 137.18949,83.3237 121.66523,83.073826 120,82.021162 Z m 32.5,-0.454803 c -1.65,-0.745446 -3.9,-2.05188 -5,-2.903186 -1.99007,-1.54014 -1.98874,-1.559238 0.26703,-3.844751 l 2.26703,-2.296922 4.23297,2.242028 C 159.50061,77.535535 163.38615,77.613847 166,75 c 3.58711,-3.587109 2.30693,-5.329353 -7.7044,-10.485231 -6.74464,-3.473523 -7.95663,-4.508085 -8.99005,-7.674008 -1.70176,-5.213364 -0.0929,-10.389856 4.00582,-12.889041 7.63362,-4.654542 22.50356,-0.183627 18.33768,5.513553 -1.18786,1.624502 -1.58732,1.634993 -5.94335,0.156084 -6.22381,-2.113039 -9.98312,-0.877661 -9.52208,3.129128 0.26373,2.29194 1.47632,3.331985 7.28635,6.249515 C 170.71662,62.638939 175,67.28266 175,71.5 c 0,2.925842 -3.94322,8.658755 -7.03002,10.220689 -3.24076,1.639846 -11.68515,1.555603 -15.46998,-0.15433 z m 29.25,0.353542 C 180.18359,81.00755 180,78.968745 180,62.485494 c 0,-17.160976 0.13128,-18.485383 1.92756,-19.446724 1.06015,-0.567379 2.63515,-0.760067 3.5,-0.428195 1.33518,0.512358 1.57244,2.913636 1.57244,15.914626 0,8.421173 0.27314,16.023028 0.60699,16.893012 C 188.08363,76.660324 189.77859,77 195.5,77 c 5.9741,0 7.40512,0.310356 7.94744,1.723619 1.16404,3.03345 -2.17598,4.278704 -11.38857,4.245972 -4.70738,-0.01672 -9.34637,-0.489085 -10.30887,-1.04969 z m 28,0.390773 C 208.1861,81.901984 208,80.330577 208,67.533665 c 0,-12.135191 0.2413,-14.412285 1.58179,-14.926676 2.11715,-0.812426 2.05411,-0.82823 3.84678,0.96444 2.29751,2.297512 2.29751,25.55963 0,27.857142 -0.86428,0.864286 -1.65178,1.519228 -1.75,1.455428 -0.0982,-0.0638 -0.96607,-0.321797 -1.92857,-0.573325 z m 13.82143,-0.882103 C 222.31241,80.169557 222,77.400433 222,67.5 c 0,-13.859131 0.95089,-16.390762 5.39573,-14.365555 1.78192,0.8119 3.05065,0.686085 5.416,-0.537086 4.51628,-2.335462 6.79473,-1.984929 10.76843,1.656695 3.48833,3.196821 3.56088,3.423288 4.12484,12.876013 0.31573,5.292077 0.29015,10.753117 -0.0568,12.135645 -0.75599,3.012101 -3.08155,4.107894 -5.7206,2.695518 C 240.21633,81.045411 240,79.777585 240,70.664816 240,59.847269 239.33707,58 235.45499,58 231.24214,58 230,60.904921 230,70.757312 c 0,6.93924 -0.37311,9.472938 -1.57143,10.671259 C 227.56429,82.292857 226.47143,83 226,83 c -0.47143,0 -1.56429,-0.707143 -2.42857,-1.571429 z m 33.88312,-0.883116 C 255.19261,78.28352 255,77.34463 255,68.580638 255,60.093823 254.78477,58.955179 253,58 c -1.1,-0.588702 -2,-1.713702 -2,-2.5 0,-0.786298 0.9,-1.911298 2,-2.5 1.1,-0.588702 2,-2.093526 2,-3.344054 0,-1.250528 0.64864,-3.147195 1.44143,-4.214816 1.98817,-2.67741 4.95351,-0.795222 5.37193,3.409719 C 262.06254,51.355071 262.58659,52 264.37223,52 c 1.23503,0 3.10203,0.626304 4.14889,1.391787 1.58461,1.158695 1.68811,1.651185 0.61795,2.94064 -0.70698,0.851868 -2.49,1.688064 -3.96225,1.858212 -2.64984,0.306243 -2.67973,0.397727 -2.96599,9.075714 -0.30657,9.293867 -0.47114,8.961768 5.03917,10.169176 1.80731,0.396015 2.75,1.244961 2.75,2.476534 0,3.927365 -8.80684,4.372003 -12.54545,0.633392 z M 208.44703,46.941464 c -1.42291,-1.57229 -1.61285,-2.458075 -0.80413,-3.75 1.40502,-2.24451 5.70366,-2.68374 7.31099,-0.747028 1.05452,1.270622 0.99072,1.991154 -0.35865,4.050558 -1.99434,3.043738 -3.68651,3.16662 -6.14821,0.44647 z"
       id="path5109"
       inkscape:connector-curvature="0" />
    <path
       style="fill:#9d9d9e"
       d="M 33.673778,84.339184 C 21.104151,72.88828 19.907816,71.505246 20.510605,69.121762 c 1.19517,-4.725819 4.577081,-20.50182 5.640621,-26.312476 0.572873,-3.129892 1.560704,-6.352096 2.19518,-7.160452 C 29.508178,34.168677 60.151412,24 63.450084,24 65.230553,24 90.795892,46.304527 91.691979,48.639694 92.13313,49.789315 85.362812,83.596069 84.367975,85.211215 83.861276,86.033854 50.566407,97.016249 48.727173,96.967421 48.052228,96.949503 41.2782,91.266796 33.673778,84.339184 Z M 66.755679,77.25 c 1.087486,-0.9625 3.891355,-5.125 6.23082,-9.25 l 4.253574,-7.5 -3.24991,-6 C 72.202713,51.2 69.639079,47.02214 68.2932,45.215866 L 65.846147,41.931732 55.714048,42.215866 45.58195,42.5 l -4.755067,8 c -2.615286,4.4 -4.771225,8.636405 -4.790975,9.414234 -0.05958,2.346641 9.153773,17.966655 10.868557,18.426188 0.877544,0.235166 5.258182,0.479776 9.734751,0.543577 6.446862,0.09188 8.550337,-0.247869 10.116463,-1.633999 z m 88.519371,4.816282 c -4.66767,-1.162863 -8.44999,-3.916432 -8.076,-5.879413 0.47248,-2.479948 4.068,-2.583591 8.43478,-0.243137 4.91679,2.635243 6.63619,2.588235 9.96183,-0.272354 4.51308,-3.881995 2.93496,-6.599061 -6.49652,-11.1851 C 150.77943,60.440837 149,58.39996 149,52.903287 c 0,-5.047857 2.41598,-8.411736 7.03545,-9.795762 7.42947,-2.225923 17.23702,1.134078 15.61887,5.350917 -0.51488,1.341762 -1.34148,1.616555 -3.41676,1.135863 -7.98988,-1.850677 -9.7275,-1.815401 -11.58322,0.235153 -3.0356,3.3543 -1.31169,5.779209 6.92496,9.740878 7.75096,3.728062 10.4207,6.759616 10.4207,11.832951 0,3.483757 -1.90602,7.305117 -4.48723,8.99639 -2.80801,1.839881 -10.11091,2.694726 -14.23772,1.666605 z M 260.357,82.008419 C 256.17487,80.32072 255,77.169023 255,67.637736 c 0,-7.159639 -0.32768,-9.156855 -1.66248,-10.132886 -1.61306,-1.1795 -1.47607,-2.327792 0.65671,-5.50485 0.55383,-0.825 1.44556,-2.7375 1.98162,-4.25 1.54533,-4.360183 4.62487,-3.648401 5.40816,1.25 0.57737,3.610706 0.9247,4 3.56879,4 1.61104,0 3.21946,0.469712 3.57427,1.043805 0.97905,1.584128 -1.34502,3.799518 -4.35025,4.146834 -2.54285,0.293878 -2.69163,0.618796 -2.9728,6.492274 -0.16278,3.400601 0.0881,7.675601 0.55761,9.5 0.71491,2.778174 1.37224,3.367997 4.04598,3.630445 5.50633,0.540491 3.3165,5.389297 -2.30761,5.109601 -0.55,-0.02735 -1.96435,-0.438895 -3.143,-0.91454 z M 119.45771,80.750399 C 119.17962,80.0257 119.07537,71.347892 119.22604,61.466382 L 119.5,43.5 130.13049,43.217381 c 8.71935,-0.231811 10.73423,-0.01229 11.20751,1.221061 C 142.48444,47.425996 139.21873,49 131.87378,49 l -6.98336,0 0.30479,4.75 L 125.5,58.5 132,59 c 5.66667,0.435897 6.5,0.75641 6.5,2.5 0,1.74359 -0.83333,2.064103 -6.5,2.5 l -6.5,0.5 0,6 0,6 8,0.5 c 7.16667,0.447917 8,0.708333 8,2.5 0,1.858597 -0.76134,2.020081 -10.76833,2.284018 -8.19307,0.216094 -10.88925,-0.0311 -11.27396,-1.033619 z m 62.20896,0.582934 C 181.3,80.966667 181,72.161777 181,61.766911 l 0,-18.899756 2.75,0.316423 2.75,0.316422 0.27418,16.75 0.27418,16.75 6.72582,0.01531 c 7.39332,0.01683 9.83833,0.946117 8.90292,3.383762 C 202.17126,81.717266 200.32059,82 192.19805,82 c -5.42559,0 -10.16472,-0.3 -10.53138,-0.666667 z m 26.79751,-0.566081 C 208.1744,80.01209 208.06391,73.568028 208.21865,66.447115 L 208.5,53.5 l 2.5,0 2.5,0 0,14 c 0,13.765411 -0.0378,14.005364 -2.25447,14.320137 -1.24046,0.176147 -2.49145,-0.297416 -2.78135,-1.052885 z m 15.24467,0.608264 C 223.31898,80.985649 223,74.652544 223,67.301949 c 0,-11.007264 0.26684,-13.467114 1.51273,-13.945209 0.83201,-0.31927 2.14968,-0.05188 2.92817,0.594212 1.09698,0.910413 2.09537,0.823092 4.43761,-0.388125 5.03208,-2.60219 8.51085,-2.022343 12.04998,2.008511 l 3.13568,3.571338 -0.28209,11.178662 L 246.5,81.5 l -2.5,0 c -2.47473,0 -2.5062,-0.109309 -3.11321,-10.813213 -0.33727,-5.947267 -1.09102,-11.291017 -1.675,-11.875 -1.60856,-1.608553 -6.1805,-1.271064 -8.05108,0.594309 -1.25164,1.248166 -1.78387,4.173225 -2.16071,11.875 -0.45661,9.332104 -0.67713,10.24426 -2.54115,10.511087 -1.12263,0.1607 -2.36013,-0.0268 -2.75,-0.416667 z M 208.2,46.8 c -2.93419,-2.934188 0.97741,-6.845787 4.8,-4.8 3.24349,1.735863 1.82211,6 -2,6 -0.88,0 -2.14,-0.54 -2.8,-1.2 z"
       id="path5107"
       inkscape:connector-curvature="0" />
    <path
       style="fill:#6568d6"
       d="M 33.673778,84.339184 C 21.104151,72.88828 19.907816,71.505246 20.510605,69.121762 c 1.19517,-4.725819 4.577081,-20.50182 5.640621,-26.312476 0.572873,-3.129892 1.560704,-6.352096 2.19518,-7.160452 C 29.508178,34.168677 60.151412,24 63.450084,24 65.230553,24 90.795892,46.304527 91.691979,48.639694 92.13313,49.789315 85.362812,83.596069 84.367975,85.211215 83.861276,86.033854 50.566407,97.016249 48.727173,96.967421 48.052228,96.949503 41.2782,91.266796 33.673778,84.339184 Z M 66.755679,77.25 c 1.087486,-0.9625 3.891355,-5.125 6.23082,-9.25 l 4.253574,-7.5 -3.24991,-6 C 72.202713,51.2 69.639079,47.02214 68.2932,45.215866 L 65.846147,41.931732 55.714048,42.215866 45.58195,42.5 l -4.755067,8 c -2.615286,4.4 -4.771225,8.636405 -4.790975,9.414234 -0.05958,2.346641 9.153773,17.966655 10.868557,18.426188 0.877544,0.235166 5.258182,0.479776 9.734751,0.543577 C 63.086078,78.97588 65.189553,78.63613 66.755679,77.25 Z M 155.5,81.106794 c -3.47879,-0.884687 -7.5,-3.232389 -7.5,-4.378726 0,-1.846532 3.09688,-1.719291 7.03342,0.28898 C 162.0493,80.596285 169,77.746145 169,71.290038 c 0,-2.473413 -4.01252,-5.447853 -12.25405,-9.0838 C 151.34519,59.823565 149.50991,56.588409 150.38876,51 c 0.64607,-4.10826 3.41996,-6.685888 8.14984,-7.57322 4.54795,-0.8532 11.8337,1.491324 12.30223,3.958805 0.30451,1.603646 -0.068,1.787576 -2.49139,1.230105 -8.40848,-1.934274 -10.07556,-1.889569 -12.29484,0.329706 -1.22428,1.224283 -2.04122,3.117028 -1.86609,4.323501 0.35196,2.424713 6.90001,7.311978 11.07316,8.264673 3.23213,0.737869 7.73833,6.18868 7.73833,9.360481 0,2.514603 -2.23204,7.227839 -4.18406,8.835195 -1.80988,1.490307 -9.67363,2.30382 -13.31594,1.377548 z m 105,-0.314611 c -3.80515,-2.182251 -4.43564,-4.075864 -4.4682,-13.419738 -0.0241,-6.931483 -0.39877,-9.432111 -1.55703,-10.393383 -1.36483,-1.132711 -1.35876,-1.449771 0.0577,-3.014995 0.87063,-0.962042 1.91902,-3.005698 2.32975,-4.541457 1.0992,-4.110058 2.64674,-3.982819 3.70582,0.304693 0.76982,3.116499 1.42054,3.828728 3.7412,4.09484 3.48872,0.400056 3.03136,2.56006 -0.63397,2.994044 -3.3677,0.398744 -4.09981,3.006907 -3.43849,12.249695 C 260.7813,76.675604 262.04143,79 265.62244,79 c 2.69247,0 3.18354,1.476739 0.79577,2.393011 -2.23325,0.856981 -3.62212,0.715981 -5.91821,-0.600828 z M 120.44347,79.71328 c -0.27157,-0.707697 -0.36995,-8.920197 -0.21862,-18.25 L 120.5,44.5 l 8.92086,-0.291425 c 10.10496,-0.330107 12.3783,0.123572 10.70744,2.136831 -0.75481,0.909488 -2.77256,1.182785 -6.46921,0.87623 -3.08476,-0.255812 -6.30626,0.05435 -7.56578,0.728428 -1.89573,1.014563 -2.15279,1.87827 -1.89342,6.361937 L 124.5,59.5 130.9219,60 c 9.01104,0.701588 9.27224,2.815773 0.39569,3.202769 L 124.5,63.5 l 0,7 0,7 7.92108,0.5 c 5.06933,0.31999 8.0695,0.950026 8.33333,1.75 0.60061,1.821125 -19.61204,1.784583 -20.31094,-0.03672 z M 182,62.426676 c 0,-17.149971 0.13411,-18.547624 1.75,-18.237961 1.55762,0.298498 1.80496,2.147878 2.25,16.823324 L 186.5,77.5 192,77.759229 C 205.47605,78.39439 205.0266,81 191.44098,81 L 182,81 182,62.426676 Z m 27.43522,17.265108 c -0.2761,-0.719519 -0.37448,-6.682019 -0.21861,-13.25 C 209.4497,56.619485 209.76623,54.5 211,54.5 c 1.24382,0 1.54765,2.2629 1.77903,13.25 0.24129,11.458305 0.068,13.25 -1.28139,13.25 -0.85823,0 -1.78631,-0.588697 -2.06242,-1.308216 z M 224,68.166667 c 0,-7.058334 0.28417,-13.117501 0.63148,-13.464817 0.34732,-0.347315 1.50742,-0.162698 2.578,0.410262 1.44203,0.771751 2.80779,0.633045 5.26965,-0.535184 4.80835,-2.281714 7.29245,-1.959191 10.63206,1.380413 2.95435,2.954352 2.95705,2.968242 2.67307,13.738145 -0.24625,9.339359 -0.51824,10.825619 -2.03426,11.115983 C 242.18903,81.110444 242,80.182712 242,72.222547 242,58.67602 240.24942,55.465016 233.56113,56.743564 229.46992,57.525648 228,61.545106 228,71.95034 228,80.333333 227.85266,81 226,81 c -1.8961,0 -2,-0.666667 -2,-12.833333 z M 209.35126,45.472982 c -0.73298,-1.910119 1.2716,-3.554935 3.35715,-2.754635 1.88782,0.724426 1.18585,3.678335 -0.97292,4.094076 -0.95785,0.184465 -2.03075,-0.418284 -2.38423,-1.339441 z"
       id="path5105"
       inkscape:connector-curvature="0" />
    <path
       style="fill:#4e4fce"
       d="M 37,86.412676 C 31.225,81.189547 25.254669,75.680976 23.732598,74.171406 l -2.767402,-2.744671 3.83544,-17.897891 3.835439,-17.897891 12.931963,-4.338269 c 7.112579,-2.386048 15.079345,-4.981692 17.703925,-5.768099 l 4.771963,-1.42983 13.478037,12.034059 C 85.686441,43.418585 91,48.89652 91,50.023798 91,52.913025 84.010005,84.399717 83.210503,85.111879 82.21574,85.997969 50.478975,96.01007 48.840685,95.954636 48.103308,95.929687 42.775,91.635804 37,86.412676 Z m 40.93404,-12.64867 c 3.886278,-6.729796 7.04032,-12.917296 7.008982,-13.75 C 84.911683,59.181303 81.841512,53.325 78.120418,47 L 71.354793,35.5 56.383411,35.225064 41.412029,34.950128 34.132463,47.543839 26.852896,60.137551 32.072414,69.318776 C 34.943149,74.368449 38.356892,80.1875 39.65851,82.25 L 42.025089,86 56.446584,86 70.86808,86 77.93404,73.764006 Z M 155.5,81.106794 c -3.47879,-0.884687 -7.5,-3.232389 -7.5,-4.378726 0,-1.846532 3.09688,-1.719291 7.03342,0.28898 C 162.0493,80.596285 169,77.746145 169,71.290038 c 0,-2.473413 -4.01252,-5.447853 -12.25405,-9.0838 C 151.34519,59.823565 149.50991,56.588409 150.38876,51 c 0.64607,-4.10826 3.41996,-6.685888 8.14984,-7.57322 4.54795,-0.8532 11.8337,1.491324 12.30223,3.958805 0.30451,1.603646 -0.068,1.787576 -2.49139,1.230105 -8.40848,-1.934274 -10.07556,-1.889569 -12.29484,0.329706 -1.22428,1.224283 -2.04122,3.117028 -1.86609,4.323501 0.35196,2.424713 6.90001,7.311978 11.07316,8.264673 3.23213,0.737869 7.73833,6.18868 7.73833,9.360481 0,2.514603 -2.23204,7.227839 -4.18406,8.835195 -1.80988,1.490307 -9.67363,2.30382 -13.31594,1.377548 z m 105,-0.314611 c -3.80515,-2.182251 -4.43564,-4.075864 -4.4682,-13.419738 -0.0241,-6.931483 -0.39877,-9.432111 -1.55703,-10.393383 -1.36483,-1.132711 -1.35876,-1.449771 0.0577,-3.014995 0.87063,-0.962042 1.91902,-3.005698 2.32975,-4.541457 1.0992,-4.110058 2.64674,-3.982819 3.70582,0.304693 0.76982,3.116499 1.42054,3.828728 3.7412,4.09484 3.48872,0.400056 3.03136,2.56006 -0.63397,2.994044 -3.3677,0.398744 -4.09981,3.006907 -3.43849,12.249695 C 260.7813,76.675604 262.04143,79 265.62244,79 c 2.69247,0 3.18354,1.476739 0.79577,2.393011 -2.23325,0.856981 -3.62212,0.715981 -5.91821,-0.600828 z M 120.44347,79.71328 c -0.27157,-0.707697 -0.36995,-8.920197 -0.21862,-18.25 L 120.5,44.5 l 8.92086,-0.291425 c 10.10496,-0.330107 12.3783,0.123572 10.70744,2.136831 -0.75481,0.909488 -2.77256,1.182785 -6.46921,0.87623 -3.08476,-0.255812 -6.30626,0.05435 -7.56578,0.728428 -1.89573,1.014563 -2.15279,1.87827 -1.89342,6.361937 L 124.5,59.5 130.9219,60 c 9.01104,0.701588 9.27224,2.815773 0.39569,3.202769 L 124.5,63.5 l 0,7 0,7 7.92108,0.5 c 5.06933,0.31999 8.0695,0.950026 8.33333,1.75 0.60061,1.821125 -19.61204,1.784583 -20.31094,-0.03672 z M 182,62.426676 c 0,-17.149971 0.13411,-18.547624 1.75,-18.237961 1.55762,0.298498 1.80496,2.147878 2.25,16.823324 L 186.5,77.5 192,77.759229 C 205.47605,78.39439 205.0266,81 191.44098,81 L 182,81 182,62.426676 Z m 27.43522,17.265108 c -0.2761,-0.719519 -0.37448,-6.682019 -0.21861,-13.25 C 209.4497,56.619485 209.76623,54.5 211,54.5 c 1.24382,0 1.54765,2.2629 1.77903,13.25 0.24129,11.458305 0.068,13.25 -1.28139,13.25 -0.85823,0 -1.78631,-0.588697 -2.06242,-1.308216 z M 224,68.166667 c 0,-7.058334 0.28417,-13.117501 0.63148,-13.464817 0.34732,-0.347315 1.50742,-0.162698 2.578,0.410262 1.44203,0.771751 2.80779,0.633045 5.26965,-0.535184 4.80835,-2.281714 7.29245,-1.959191 10.63206,1.380413 2.95435,2.954352 2.95705,2.968242 2.67307,13.738145 -0.24625,9.339359 -0.51824,10.825619 -2.03426,11.115983 C 242.18903,81.110444 242,80.182712 242,72.222547 242,58.67602 240.24942,55.465016 233.56113,56.743564 229.46992,57.525648 228,61.545106 228,71.95034 228,80.333333 227.85266,81 226,81 c -1.8961,0 -2,-0.666667 -2,-12.833333 z M 209.35126,45.472982 c -0.73298,-1.910119 1.2716,-3.554935 3.35715,-2.754635 1.88782,0.724426 1.18585,3.678335 -0.97292,4.094076 -0.95785,0.184465 -2.03075,-0.418284 -2.38423,-1.339441 z"
       id="path5103"
       inkscape:connector-curvature="0" />
    <path
       style="fill:#3939c6"
       d="M 34.75,83.326019 C 21.193584,71.060511 21.118531,70.930699 23.335502,63.583361 l 1.181799,-3.916639 6.91321,12.210543 c 3.802266,6.715799 7.473308,12.978287 8.157872,13.916639 1.044933,1.432322 3.624961,1.78633 16.078139,2.206096 L 70.5,88.5 60.997527,91.75 c -5.22636,1.7875 -10.40136,3.218928 -11.5,3.180951 C 48.398887,94.892974 41.7625,89.670755 34.75,83.326019 Z M 72.25004,86.25 C 75.058604,83.099398 87.001283,61.926266 86.94784,60.192324 86.919152,59.261546 83.634852,52.875 79.649395,46 L 72.40311,33.5 56.767143,33.22494 C 38.566163,32.904758 41.503005,31.135251 31.415198,48.5 c -6.328991,10.894473 -7.878235,11.600881 -5.48282,2.5 0.506673,-1.925 1.431885,-6.067351 2.056026,-9.205225 l 1.134801,-5.705225 17.361576,-5.65511 17.361576,-5.65511 13.437369,12.099029 13.43737,12.099029 -3.661229,17.630833 -3.661228,17.630832 -4.94932,1.879659 C 71.969348,88.579684 70.138713,88.618453 72.25004,86.25 Z M 155.5,81.106794 c -3.47879,-0.884687 -7.5,-3.232389 -7.5,-4.378726 0,-1.846532 3.09688,-1.719291 7.03342,0.28898 C 162.0493,80.596285 169,77.746145 169,71.290038 c 0,-2.473413 -4.01252,-5.447853 -12.25405,-9.0838 C 151.34519,59.823565 149.50991,56.588409 150.38876,51 c 0.64607,-4.10826 3.41996,-6.685888 8.14984,-7.57322 4.54795,-0.8532 11.8337,1.491324 12.30223,3.958805 0.30451,1.603646 -0.068,1.787576 -2.49139,1.230105 -8.40848,-1.934274 -10.07556,-1.889569 -12.29484,0.329706 -1.22428,1.224283 -2.04122,3.117028 -1.86609,4.323501 0.35196,2.424713 6.90001,7.311978 11.07316,8.264673 3.23213,0.737869 7.73833,6.18868 7.73833,9.360481 0,2.514603 -2.23204,7.227839 -4.18406,8.835195 -1.80988,1.490307 -9.67363,2.30382 -13.31594,1.377548 z m 105,-0.314611 c -3.80515,-2.182251 -4.43564,-4.075864 -4.4682,-13.419738 -0.0241,-6.931483 -0.39877,-9.432111 -1.55703,-10.393383 -1.36483,-1.132711 -1.35876,-1.449771 0.0577,-3.014995 0.87063,-0.962042 1.91902,-3.005698 2.32975,-4.541457 1.0992,-4.110058 2.64674,-3.982819 3.70582,0.304693 0.76982,3.116499 1.42054,3.828728 3.7412,4.09484 3.48872,0.400056 3.03136,2.56006 -0.63397,2.994044 -3.3677,0.398744 -4.09981,3.006907 -3.43849,12.249695 C 260.7813,76.675604 262.04143,79 265.62244,79 c 2.69247,0 3.18354,1.476739 0.79577,2.393011 -2.23325,0.856981 -3.62212,0.715981 -5.91821,-0.600828 z M 120.44347,79.71328 c -0.27157,-0.707697 -0.36995,-8.920197 -0.21862,-18.25 L 120.5,44.5 l 8.92086,-0.291425 c 10.10496,-0.330107 12.3783,0.123572 10.70744,2.136831 -0.75481,0.909488 -2.77256,1.182785 -6.46921,0.87623 -3.08476,-0.255812 -6.30626,0.05435 -7.56578,0.728428 -1.89573,1.014563 -2.15279,1.87827 -1.89342,6.361937 L 124.5,59.5 130.9219,60 c 9.01104,0.701588 9.27224,2.815773 0.39569,3.202769 L 124.5,63.5 l 0,7 0,7 7.92108,0.5 c 5.06933,0.31999 8.0695,0.950026 8.33333,1.75 0.60061,1.821125 -19.61204,1.784583 -20.31094,-0.03672 z M 182,62.426676 c 0,-17.149971 0.13411,-18.547624 1.75,-18.237961 1.55762,0.298498 1.80496,2.147878 2.25,16.823324 L 186.5,77.5 192,77.759229 C 205.47605,78.39439 205.0266,81 191.44098,81 L 182,81 182,62.426676 Z m 27.43522,17.265108 c -0.2761,-0.719519 -0.37448,-6.682019 -0.21861,-13.25 C 209.4497,56.619485 209.76623,54.5 211,54.5 c 1.24382,0 1.54765,2.2629 1.77903,13.25 0.24129,11.458305 0.068,13.25 -1.28139,13.25 -0.85823,0 -1.78631,-0.588697 -2.06242,-1.308216 z M 224,68.166667 c 0,-7.058334 0.28417,-13.117501 0.63148,-13.464817 0.34732,-0.347315 1.50742,-0.162698 2.578,0.410262 1.44203,0.771751 2.80779,0.633045 5.26965,-0.535184 4.80835,-2.281714 7.29245,-1.959191 10.63206,1.380413 2.95435,2.954352 2.95705,2.968242 2.67307,13.738145 -0.24625,9.339359 -0.51824,10.825619 -2.03426,11.115983 C 242.18903,81.110444 242,80.182712 242,72.222547 242,58.67602 240.24942,55.465016 233.56113,56.743564 229.46992,57.525648 228,61.545106 228,71.95034 228,80.333333 227.85266,81 226,81 c -1.8961,0 -2,-0.666667 -2,-12.833333 z M 209.35126,45.472982 c -0.73298,-1.910119 1.2716,-3.554935 3.35715,-2.754635 1.88782,0.724426 1.18585,3.678335 -0.97292,4.094076 -0.95785,0.184465 -2.03075,-0.418284 -2.38423,-1.339441 z"
       id="path5101"
       inkscape:connector-curvature="0" />
    <path
       style="fill:#5c5c5c"
       d="m 155.5,81.106794 c -3.47879,-0.884687 -7.5,-3.232389 -7.5,-4.378726 0,-1.846532 3.09688,-1.719291 7.03342,0.28898 C 162.0493,80.596285 169,77.746145 169,71.290038 c 0,-2.473413 -4.01252,-5.447853 -12.25405,-9.0838 C 151.34519,59.823565 149.50991,56.588409 150.38876,51 c 0.64607,-4.10826 3.41996,-6.685888 8.14984,-7.57322 4.54795,-0.8532 11.8337,1.491324 12.30223,3.958805 0.30451,1.603646 -0.068,1.787576 -2.49139,1.230105 -8.40848,-1.934274 -10.07556,-1.889569 -12.29484,0.329706 -1.22428,1.224283 -2.04122,3.117028 -1.86609,4.323501 0.35196,2.424713 6.90001,7.311978 11.07316,8.264673 3.23213,0.737869 7.73833,6.18868 7.73833,9.360481 0,2.514603 -2.23204,7.227839 -4.18406,8.835195 -1.80988,1.490307 -9.67363,2.30382 -13.31594,1.377548 z m 105,-0.314611 c -3.80515,-2.182251 -4.43564,-4.075864 -4.4682,-13.419738 -0.0241,-6.931483 -0.39877,-9.432111 -1.55703,-10.393383 -1.36483,-1.132711 -1.35876,-1.449771 0.0577,-3.014995 0.87063,-0.962042 1.91902,-3.005698 2.32975,-4.541457 1.0992,-4.110058 2.64674,-3.982819 3.70582,0.304693 0.76982,3.116499 1.42054,3.828728 3.7412,4.09484 3.48872,0.400056 3.03136,2.56006 -0.63397,2.994044 -3.3677,0.398744 -4.09981,3.006907 -3.43849,12.249695 C 260.7813,76.675604 262.04143,79 265.62244,79 c 2.69247,0 3.18354,1.476739 0.79577,2.393011 -2.23325,0.856981 -3.62212,0.715981 -5.91821,-0.600828 z M 120.44347,79.71328 c -0.27157,-0.707697 -0.36995,-8.920197 -0.21862,-18.25 L 120.5,44.5 l 8.92086,-0.291425 c 10.10496,-0.330107 12.3783,0.123572 10.70744,2.136831 -0.75481,0.909488 -2.77256,1.182785 -6.46921,0.87623 -3.08476,-0.255812 -6.30626,0.05435 -7.56578,0.728428 -1.89573,1.014563 -2.15279,1.87827 -1.89342,6.361937 L 124.5,59.5 130.9219,60 c 9.01104,0.701588 9.27224,2.815773 0.39569,3.202769 L 124.5,63.5 l 0,7 0,7 7.92108,0.5 c 5.06933,0.31999 8.0695,0.950026 8.33333,1.75 0.60061,1.821125 -19.61204,1.784583 -20.31094,-0.03672 z M 182,62.426676 c 0,-17.149971 0.13411,-18.547624 1.75,-18.237961 1.55762,0.298498 1.80496,2.147878 2.25,16.823324 L 186.5,77.5 192,77.759229 C 205.47605,78.39439 205.0266,81 191.44098,81 L 182,81 182,62.426676 Z m 27.43522,17.265108 c -0.2761,-0.719519 -0.37448,-6.682019 -0.21861,-13.25 C 209.4497,56.619485 209.76623,54.5 211,54.5 c 1.24382,0 1.54765,2.2629 1.77903,13.25 0.24129,11.458305 0.068,13.25 -1.28139,13.25 -0.85823,0 -1.78631,-0.588697 -2.06242,-1.308216 z M 224,68.166667 c 0,-7.058334 0.28417,-13.117501 0.63148,-13.464817 0.34732,-0.347315 1.50742,-0.162698 2.578,0.410262 1.44203,0.771751 2.80779,0.633045 5.26965,-0.535184 4.80835,-2.281714 7.29245,-1.959191 10.63206,1.380413 2.95435,2.954352 2.95705,2.968242 2.67307,13.738145 -0.24625,9.339359 -0.51824,10.825619 -2.03426,11.115983 C 242.18903,81.110444 242,80.182712 242,72.222547 242,58.67602 240.24942,55.465016 233.56113,56.743564 229.46992,57.525648 228,61.545106 228,71.95034 228,80.333333 227.85266,81 226,81 c -1.8961,0 -2,-0.666667 -2,-12.833333 z M 209.35126,45.472982 c -0.73298,-1.910119 1.2716,-3.554935 3.35715,-2.754635 1.88782,0.724426 1.18585,3.678335 -0.97292,4.094076 -0.95785,0.184465 -2.03075,-0.418284 -2.38423,-1.339441 z"
       id="path5099"
       inkscape:connector-curvature="0" />
    <path
       style="fill:#363636"
       d="m 121,62.5 0,-17.5 9.25,0.146651 9.25,0.14665 -7.01774,0.650787 c -3.85975,0.357933 -7.57225,0.993498 -8.25,1.412366 -1.63834,1.012554 -1.6242,11.828085 0.0177,13.568546 1,1.06 1,1.416667 0,1.783333 -1.66846,0.611768 -1.7114,14.430272 -0.05,16.091667 0.93333,0.933333 0.71111,1.2 -1,1.2 -2.18286,0 -2.2,-0.136364 -2.2,-17.5 z m 31.25,16.279505 C 151.0125,78.182682 150,77.313138 150,76.847186 c 0,-1.405132 1.6417,-0.961097 4.13922,1.119545 2.57257,2.143167 1.67235,2.530456 -1.88922,0.812774 z m 15.06291,-1.584224 c 2.6792,-2.796485 3.41842,-6.493124 1.80687,-9.035718 -1.18013,-1.861927 -6.33188,-4.785296 -13.26996,-7.530053 -2.77384,-1.097354 -3.81325,-2.186544 -4.32945,-4.536774 -0.95408,-4.343898 0.26758,-8.908882 2.73797,-10.230995 3.16671,-1.694771 12.70145,-1.330521 14.58932,0.557346 1.98401,1.984007 0.44175,2.017609 -4.16964,0.09085 -3.9282,-1.641306 -6.04164,-1.234805 -9.42802,1.813391 -5.30148,4.772042 -0.46382,10.828589 12.00148,15.02536 2.537,0.854146 5.15362,6.901132 4.35798,10.071228 C 170.87692,76.338551 167.65147,80 165.81291,80 c -0.6529,0 0.0221,-1.262123 1.5,-2.804719 z M 183,62.5 c 0,-11 0.37143,-17.5 1,-17.5 0.62577,0 1,6.1 1,16.3 0,11.344444 0.36483,16.664826 1.2,17.5 0.93333,0.933333 0.71111,1.2 -1,1.2 -2.18286,0 -2.2,-0.136364 -2.2,-17.5 z m 27.66667,16.833333 C 209.56684,78.233506 209.88446,56 211,56 c 0.61111,0 1,4.666667 1,12 0,6.6 -0.15,12 -0.33333,12 -0.18334,0 -0.63334,-0.3 -1,-0.666667 z M 225,68 c 0,-6.6 0.3949,-12 0.87756,-12 1.72427,0 3.03027,2.531919 2.08055,4.033538 -0.51012,0.806554 -0.93438,5.628962 -0.9428,10.716462 -0.009,5.489791 -0.42182,9.25 -1.01531,9.25 -0.61111,0 -1,-4.666667 -1,-12 z m 17.83377,1.38157 c -0.38403,-10.374353 -0.46134,-10.673058 -3.36342,-12.995032 -1.63369,-1.307132 -2.44238,-2.378839 -1.79708,-2.381571 0.64531,-0.0027 2.55781,1.160035 4.25,2.583927 3.07285,2.585624 3.07673,2.602039 3.07673,13 C 245,75.315002 244.60104,80 244.11342,80 c -0.48762,0 -1.06346,-4.778293 -1.27965,-10.61843 z m 15.72293,8.395924 C 257.42107,76.156152 257,73.061485 257,66.336511 c 0,-5.070162 -0.41936,-9.477656 -0.93191,-9.794429 -0.54109,-0.334411 -0.33398,-1.722143 0.49384,-3.309017 0.78416,-1.503186 1.44827,-3.408065 1.4758,-4.233065 0.0275,-0.825 0.66698,0.230277 1.42101,2.345061 1.02478,2.874197 1.10574,4.605826 0.32061,6.858039 -1.30617,3.7469 -0.40871,18.333643 1.25104,20.333523 C 261.81278,79.479335 261.8657,80 261.17915,80 c -0.58616,0 -1.76626,-1.000128 -2.62245,-2.222506 z M 210.15,45.05 c 0.22,-0.66 0.72625,-1.16625 1.125,-1.125 1.1957,0.123693 0.96414,1.495288 -0.325,1.925 -0.66,0.22 -1.02,-0.14 -0.8,-0.8 z"
       id="path5097"
       inkscape:connector-curvature="0" />
  </g>
</svg>
