<?xml version="1.0" encoding="UTF-8" standalone="no"?>
<!-- Created with Inkscape (http://www.inkscape.org/) -->

<svg
   xmlns:dc="http://purl.org/dc/elements/1.1/"
   xmlns:cc="http://creativecommons.org/ns#"
   xmlns:rdf="http://www.w3.org/1999/02/22-rdf-syntax-ns#"
   xmlns:svg="http://www.w3.org/2000/svg"
   xmlns="http://www.w3.org/2000/svg"
   xmlns:xlink="http://www.w3.org/1999/xlink"
   xmlns:sodipodi="http://sodipodi.sourceforge.net/DTD/sodipodi-0.dtd"
   xmlns:inkscape="http://www.inkscape.org/namespaces/inkscape"
   id="svg4155"
   version="1.1"
   inkscape:version="0.91 r13725"
   width="473"
   height="123"
   viewBox="0 0 473 123"
   sodipodi:docname="ExtJS.bmp.svg">
  <metadata
     id="metadata4161">
    <rdf:RDF>
      <cc:Work
         rdf:about="">
        <dc:format>image/svg+xml</dc:format>
        <dc:type
           rdf:resource="http://purl.org/dc/dcmitype/StillImage" />
        <dc:title></dc:title>
      </cc:Work>
    </rdf:RDF>
  </metadata>
  <defs
     id="defs4159" />
  <sodipodi:namedview
     pagecolor="#ffffff"
     bordercolor="#666666"
     borderopacity="1"
     objecttolerance="10"
     gridtolerance="10"
     guidetolerance="10"
     inkscape:pageopacity="0"
     inkscape:pageshadow="2"
     inkscape:window-width="640"
     inkscape:window-height="480"
     id="namedview4157"
     showgrid="false"
     inkscape:zoom="0.55391121"
     inkscape:cx="236.5"
     inkscape:cy="61.5"
     inkscape:window-x="0"
     inkscape:window-y="0"
     inkscape:window-maximized="0"
     inkscape:current-layer="svg4155" />
  <image
     width="473"
     height="123"
     preserveAspectRatio="none"
     style="image-rendering:optimizeQuality"
     xlink:href="file:///media/havoc/USB%20DISK/pics/_OpsDeps/ExtJS.bmp"
     id="image4163"
     x="0"
     y="0"
     sodipodi:absref="/media/havoc/USB DISK/pics/_OpsDeps/ExtJS.bmp" />
  <g
     id="g5058">
    <path
       style="fill:#fcfcfd"
       d="M 0,61.5 0,0 236.5,0 473,0 473,61.5 473,123 236.5,123 0,123 0,61.5 Z"
       id="path5074"
       inkscape:connector-curvature="0" />
    <path
       style="fill:#9ba8d2"
       d="m 29.062287,89.575051 c -0.983433,-1.184964 -0.795925,-1.807972 0.984026,-3.269484 1.209434,-0.993062 2.706281,-2.401869 3.326328,-3.130682 4.146026,-4.873306 17.004065,-17.212535 17.683737,-16.970214 0.726648,0.259069 14.421811,13.433574 17.645728,16.974878 0.661158,0.726248 1.923727,1.924111 2.805709,2.661918 0.881982,0.737807 1.460154,2.087807 1.284827,3 -0.282905,1.471901 -2.692936,1.688858 -21.417094,1.928017 -17.537999,0.224009 -21.303338,0.02245 -22.313261,-1.194433 z M 184.10657,83.735258 C 179.97202,81.601402 178,76.436258 178,67.740851 c 0,-7.328473 -0.14399,-7.845096 -2.42857,-8.713693 -1.62715,-0.618642 -2.53464,-1.847956 -2.75,-3.725249 -0.29961,-2.611706 -0.6508,-2.312892 -5.17347,4.401867 l -4.85205,7.203776 3.10309,4.597904 c 4.39507,6.512252 6.27805,10.399046 5.58285,11.523912 C 171.15191,83.563215 168.73696,84 166.1153,84 c -5.1002,0 -8.17961,-2.172503 -9.56775,-6.75 -0.98922,-3.262 -2.09853,-2.793609 -4.73668,2 -2.24203,4.073831 -2.55649,4.262545 -7.58611,4.552647 -7.15128,0.412477 -7.46295,-1.132533 -1.79877,-8.916783 C 144.9417,71.428548 147,68.094504 147,67.476877 c 0,-0.617626 -2.0588,-4.340876 -4.5751,-8.273888 -2.51631,-3.933013 -4.28975,-7.612645 -3.94099,-8.17696 0.96206,-1.556639 10.14552,-1.253745 11.78806,0.3888 0.77816,0.778157 1.9899,2.803157 2.69275,4.5 C 153.66758,57.611673 154.61643,59 155.07328,59 c 0.45685,0 2.25898,-2.07602 4.00473,-4.613377 l 3.17408,-4.613378 5.62396,0.479109 C 174.69544,50.833305 178,49.774986 178,47.010052 c 0,-2.560217 5.5888,-6.149871 9,-5.780648 2.10411,0.227745 2.57918,0.90309 3,4.264716 0.43894,3.506388 0.86634,4.057094 3.5,4.509821 2.74449,0.471778 3,0.854705 3,4.496059 0,3.641433 -0.25545,4.02424 -3,4.495705 -2.85356,0.49019 -3.01509,0.780949 -3.30908,5.956375 -0.4255,7.490631 0.2441,9.396189 3.76934,10.726819 C 196.37965,76.592114 197,77.415428 197,79.713136 197,81.300911 196.46,83.14 195.8,83.8 c -1.55758,1.557583 -8.62585,1.518449 -11.69343,-0.06474 z m 29.51167,-0.02514 c -1.28899,-0.942531 -1.67707,-2.356304 -1.44113,-5.25 0.30803,-3.777919 0.48392,-3.964148 3.82289,-4.047744 5.16454,-0.129302 5.38748,-0.21398 7.00945,-2.662372 C 224.10433,70.097265 224.63273,65.385511 225,54 l 0.5,-15.5 5,0 5,0 0,18 c 0,17.257732 -0.0963,18.134954 -2.33421,21.272639 -4.31728,6.052945 -14.96614,9.287487 -19.54755,5.937477 z M 246.25,83.415558 c -3.04347,-1.330974 -3.25,-1.73885 -3.25,-6.418426 0,-5.419925 0.73596,-5.934676 5,-3.497132 3.32448,1.900445 11.39796,1.930339 12.96017,0.04799 2.10917,-2.541395 0.20182,-5.082491 -6.2177,-8.283591 -9.16826,-4.571771 -11.97324,-7.895829 -11.97324,-14.18898 0,-3.067753 0.66425,-6.088049 1.67982,-7.638003 2.51553,-3.839182 9.91112,-6.703983 17.28489,-6.695581 8.32281,0.0095 11.26606,1.889924 11.26606,7.197887 0,4.535352 -1.22966,5.266334 -5.71788,3.39905 -4.49606,-1.870545 -8.6743,-1.66789 -10.65124,0.516612 -2.52542,2.790559 -1.06476,4.90071 5.74496,8.29947 8.44492,4.214892 11.40925,7.229223 12.18291,12.388387 1.45053,9.672769 -6.51834,16.515496 -19.05875,16.365418 -3.3,-0.03949 -7.4625,-0.711387 -9.25,-1.493099 z M 108.03518,82.065741 c -1.22981,-2.297927 -1.4026,-40.93846 -0.19159,-42.8469 0.60813,-0.958363 4.06867,-1.21032 13.73468,-1 L 134.5,38.5 l 0,4 0,4 -7.5,0.5 -7.5,0.5 0,4 0,4 7,0.5 7,0.5 0.31823,3.315324 C 134.30013,64.835782 132.71124,66 125.37756,66 L 119,66 l 0,3.954687 c 0,3.683453 0.2229,3.991993 3.25,4.49863 1.7875,0.299168 5.49595,0.657059 8.24101,0.795313 5.37748,0.270835 6.30819,1.430982 5.07849,6.330465 C 134.96583,83.984343 134.87817,84 122.01613,84 110.24049,84 108.9768,83.825169 108.03518,82.065741 Z M 27.537461,77.598762 c 0.882466,-5.88471 0.03485,-8.063538 -4.081802,-10.492423 C 20.563068,65.399669 20,64.498086 20,61.573152 c 0,-3.541703 0.25299,-3.906723 5.374624,-7.754645 2.746757,-2.063658 2.847458,-2.419643 2.263882,-8.002998 -0.522598,-4.999941 -0.322968,-6.131047 1.383192,-7.837207 1.689044,-1.689044 2.814905,-1.897447 7.362917,-1.362917 4.634315,0.544672 5.659511,0.340489 7.492184,-1.492184 C 45.044559,33.955441 46,32.313862 46,31.475249 c 0,-0.838613 1.185741,-1.975568 2.634979,-2.526568 3.161349,-1.201943 6.826107,0.774425 8.581998,4.628186 1.307382,2.869392 3.587918,3.630708 9.643201,3.219211 3.704256,-0.251729 4.652849,0.09363 6.332902,2.305664 1.755722,2.311661 1.841692,3.050162 0.77106,6.623612 -1.413851,4.719014 -0.778666,6.242092 3.944023,9.457172 1.872299,1.274611 3.850167,3.035324 4.395263,3.912697 1.665622,2.680946 0.0151,6.27999 -3.829037,8.34939 -4.621483,2.487868 -5.786435,4.748926 -4.961741,9.630251 0.856996,5.072517 -0.881277,5.203498 -5.521456,0.416049 -3.350714,-3.45706 -3.383275,-3.575885 -2.196166,-8.014351 2.296408,-8.586013 0.730616,-18.629543 -3.220987,-20.660513 -1.140721,-0.586286 -3.062467,-1.965569 -4.270546,-3.065072 -1.812991,-1.650049 -3.21892,-1.925143 -8.052149,-1.575539 -6.948786,0.50263 -12.589487,4.301119 -14.364971,9.673478 -1.067751,3.230857 -0.732386,12.809301 0.639861,18.275232 0.538324,2.144253 -0.0043,3.287229 -2.967048,6.25 -5.09017,5.09017 -6.86701,4.861375 -6.021725,-0.775386 z"
       id="path5072"
       inkscape:connector-curvature="0" />
    <path
       style="fill:#7587c3"
       d="M 29.555162,89.089254 C 29.017528,88.219344 49.533479,67 50.912186,67 52.319468,67 72,87.052029 72,88.485875 72,89.789839 69.09338,90 51.059017,90 39.541476,90 29.864742,89.590164 29.555162,89.089254 Z M 186.26993,83.296878 C 181.84045,82.441288 180,78.479283 180,69.7994 180,61.594508 178.94359,58 176.5322,58 175.76362,58 174.84227,57.078406 174.48477,55.952012 173.77881,53.72773 175.46338,51 177.54299,51 c 0.71395,0 1.60377,-1.391731 1.97738,-3.092736 0.50494,-2.298962 1.58573,-3.471476 4.21105,-4.568404 4.11219,-1.718182 5.00856,-1.116447 5.44728,3.656766 0.27626,3.005621 0.74183,3.567703 3.3213,4.00982 2.54725,0.436595 3,0.963976 3,3.494554 0,2.530173 -0.45315,3.058304 -3,3.496376 -2.93072,0.5041 -3.00701,0.665273 -3.30341,6.978967 -0.40732,8.6766 0.21556,10.624082 3.79738,11.872711 3.3188,1.15694 3.83811,3.177011 1.4346,5.580517 -1.52994,1.529939 -3.59532,1.749753 -8.15864,0.868307 z m 29.48075,0.01393 c -1.89968,-0.496491 -3.30319,-4.428616 -2.41078,-6.754179 0.39258,-1.023058 1.52445,-1.291547 3.85784,-0.915117 2.67864,0.432125 3.77437,0.02967 5.80226,-2.131131 2.39382,-2.550716 2.52124,-3.329557 3,-18.337119 L 226.5,39.5 l 4,0 4,0 0,17 c 0,16.345151 -0.0925,17.129681 -2.40107,20.366528 -3.62865,5.087717 -10.76913,7.902404 -16.34825,6.444278 z M 249,82.669523 c -4.2688,-1.109436 -4.51636,-1.369099 -4.81838,-5.054037 -0.29946,-3.653584 -0.18056,-3.84218 2,-3.172396 8.78123,2.697258 13.61591,2.543105 16.39034,-0.522605 1.5761,-1.741575 1.5788,-2.04145 0.0395,-4.390741 -0.90869,-1.386826 -4.2305,-3.841596 -7.3818,-5.455045 C 246.29175,59.498552 244,56.849526 244,51.09439 c 0,-6.141201 2.4396,-9.374703 8.67628,-11.499754 7.80156,-2.65826 17.27225,-1.777106 18.61894,1.732308 1.0045,2.61769 -0.38025,5.861654 -2.17664,5.099072 -0.89022,-0.377905 -3.8693,-0.899809 -6.62017,-1.159788 -4.15059,-0.392262 -5.31924,-0.12169 -6.86852,1.590247 -3.0845,3.408336 -1.51234,6.38131 5.09492,9.634533 3.17636,1.563944 7.23769,4.206537 9.02519,5.87243 2.86905,2.673865 3.25,3.644045 3.25,8.276965 0,6.488042 -2.406,9.544319 -9.28495,11.794434 -5.53532,1.810612 -8.47116,1.857435 -14.71505,0.234686 z M 109.66667,82.333333 C 109.3,81.966667 109,72.066667 109,60.333333 L 109,39 l 11.94098,0 c 7.31008,0 12.19429,0.409857 12.59415,1.056835 0.35923,0.58126 0.38215,2.136619 0.0509,3.456354 -0.55703,2.219354 -1.146,2.421567 -7.84415,2.693165 L 118.5,46.5 l -0.3007,5.205167 -0.30071,5.205167 7.30071,0.294833 L 132.5,57.5 l 0,3 c 0,3 0,3 -7,3.5 l -7,0.5 0,5.5 0,5.5 7.65852,0.290418 c 8.18685,0.310452 9.85798,1.441719 7.80271,5.282024 C 133.036,82.801243 131.76464,83 121.63148,83 115.4175,83 110.03333,82.7 109.66667,82.333333 Z M 140,81.665783 c 0,-0.73382 1.8,-3.903802 4,-7.044406 2.2,-3.140603 4,-6.429077 4,-7.30772 0,-0.878642 -1.8,-4.44763 -4,-7.931084 -2.2,-3.483453 -4,-6.794582 -4,-7.358062 0,-1.166623 6.92148,-1.374852 8.61567,-0.259198 0.61361,0.404078 2.06968,2.616655 3.23571,4.916838 1.16602,2.300184 2.52088,4.429884 3.01079,4.732667 0.48992,0.302784 2.40885,-1.804184 4.26429,-4.682151 2.96445,-4.598127 3.82828,-5.270303 7.12354,-5.543032 4.85747,-0.402024 4.82355,0.760541 -0.25,8.568559 -2.2,3.385725 -4,6.644538 -4,7.241806 0,0.597268 1.80507,3.863887 4.01127,7.259154 2.2062,3.395267 3.85905,6.63843 3.67299,7.207029 -0.18606,0.568599 -1.80822,1.177968 -3.60481,1.354152 -3.83538,0.376119 -6.70506,-1.783432 -8.73089,-6.570335 -1.78922,-4.227838 -3.90295,-4.130246 -5.34754,0.246899 -0.63474,1.923294 -2.11977,4.173294 -3.30005,5 C 145.99368,83.393153 140,83.509489 140,81.665783 Z M 29.424387,76.445245 c 0.970325,-3.866085 -1.04592,-8.024392 -5.030799,-10.375529 -4.904754,-2.893875 -4.565466,-7.804263 0.721322,-10.439417 3.473435,-1.731305 5.185309,-5.883464 4.078429,-9.892252 -1.701406,-6.161985 1.238896,-9.529136 6.668357,-7.636415 4.065399,1.417205 9.83084,-1.028416 10.713306,-4.544439 1.257533,-5.010412 8.202407,-3.984597 9.932722,1.467145 0.876805,2.762566 5.841441,4.398195 9.489652,3.126421 5.454253,-1.901363 7.695895,0.636868 6.44608,7.298955 -0.989021,5.271934 0.06395,7.831792 4.119593,10.015061 5.457851,2.938119 6.852663,8.633733 2.456063,10.029159 -0.98787,0.313538 -2.971298,1.659181 -4.407619,2.990318 C 72.580201,70.36679 72,71.85507 72,75.18302 l 0,4.278518 -3.12876,-3.12876 -3.12876,-3.12876 1.62876,-4.780148 C 68.267058,65.794789 69,62.750936 69,61.659753 69,58.748644 65.772163,49 64.808276,49 c -0.454564,0 -2.239125,-1.35 -3.965692,-3 -2.857269,-2.73056 -3.749041,-3 -9.92918,-3 -6.147835,0 -7.100593,0.283712 -10.074547,3 -1.806519,1.65 -3.599394,3 -3.984166,3 -0.81206,0 -2.42744,4.946328 -3.273054,10.022162 -0.322728,1.93719 0.06915,5.98719 0.870848,9 1.346662,5.06083 1.319758,5.668154 -0.353408,7.977838 -0.996069,1.375 -2.610807,2.657044 -3.588308,2.848986 -1.480629,0.290737 -1.661957,-0.110471 -1.086382,-2.403741 z"
       id="path5070"
       inkscape:connector-curvature="0" />
    <path
       style="fill:#95af56"
       d="M 29.555162,89.089254 C 29.017528,88.219344 49.533479,67 50.912186,67 52.319468,67 72,87.052029 72,88.485875 72,89.789839 69.09338,90 51.059017,90 39.541476,90 29.864742,89.590164 29.555162,89.089254 Z M 185,81.709186 c -3.34899,-1.689676 -4.87545,-6.611623 -4.94356,-15.940134 -0.054,-7.391961 -0.16606,-7.758461 -2.55644,-8.358408 -1.57867,-0.396221 -2.5,-1.333693 -2.5,-2.543803 0,-1.123966 1.03371,-2.309358 2.5,-2.866841 1.74619,-0.663901 2.5,-1.704026 2.5,-3.449569 0,-1.770716 0.88291,-2.955641 3.02937,-4.065618 C 186.82706,42.520949 188,43.221133 188,47.452028 188,50.856961 189.2772,52 193.08179,52 194.46121,52 195,52.702198 195,54.5 c 0,1.942029 -0.51333,2.5 -2.3,2.5 -3.73659,0 -4.7,1.899306 -4.7,9.265741 0,7.909845 0.94052,10.251531 4.47362,11.138283 1.5775,0.395925 2.52638,1.337921 2.52638,2.508039 0,3.155727 -5.38801,4.124019 -10,1.797123 z m 30.03987,-0.161147 C 212.88546,78.952132 214.19754,76.5 217.74097,76.5 c 2.17733,0 4.10766,-0.893194 5.9863,-2.769962 2.7584,-2.755645 2.77439,-2.849975 3.09312,-18.25 L 227.14079,40 l 3.4296,0 3.42961,0 0,16.349962 0,16.349961 -2.86156,3.950274 c -3.94204,5.441826 -13.28742,8.285072 -16.09857,4.897842 z M 248.75,81.855046 C 245.48145,80.936604 245,80.415182 245,77.793672 c 0,-2.481956 0.30587,-2.877258 1.75,-2.26164 0.9625,0.410305 4.33862,0.962618 7.5025,1.22736 5.92241,0.495569 7.88312,-0.275767 9.7985,-3.854692 1.37851,-2.575763 -2.87033,-7.150503 -9.15017,-9.852017 -5.77017,-2.482261 -9.82555,-6.294383 -10.05163,-9.448706 -0.57791,-8.062985 1.80756,-11.776513 8.67586,-13.505971 9.4024,-2.36755 17.87689,-0.820105 17.27054,3.153606 -0.21286,1.394952 -0.90344,2.104462 -1.81934,1.869212 -0.81194,-0.208546 -3.53132,-0.595377 -6.04305,-0.859625 -3.83566,-0.403531 -5.03313,-0.07932 -7.47965,2.025086 -4.38518,3.771975 -2.79619,7.108019 5.37154,11.277409 3.4788,1.775829 7.40941,4.247443 8.73469,5.492474 5.3554,5.031136 3.5826,14.73291 -3.2108,17.571374 -4.80218,2.006478 -12.83328,2.566636 -17.59899,1.227504 z M 109.4927,79.781502 C 109.18403,78.526676 109.0594,69.175 109.21574,59 L 109.5,40.5 121.32379,40.217626 c 11.80839,-0.282006 11.82337,-0.2794 11.5,2 C 132.52709,44.309019 131.87243,44.541838 125,45 l -7.5,0.5 0,6 0,6 7.25,0.29381 c 6.95244,0.28175 7.25,0.394619 7.25,2.75 0,2.3515 -0.27183,2.45619 -6.37756,2.45619 -7.70826,0 -8.85335,1.042115 -8.4304,7.672306 L 117.5,75.5 l 6,0.257401 c 9.07621,0.38937 10.68307,0.938952 10.31492,3.527945 -0.30196,2.123513 -0.79736,2.226239 -12.03796,2.496156 -11.4813,0.275697 -11.73462,0.234455 -12.28426,-2 z M 141.00238,81.25 c 0.001,-0.4125 1.80131,-3.398237 4,-6.634971 2.19869,-3.236734 3.99619,-6.611734 3.99444,-7.5 C 148.99507,66.226763 147.1965,62.8 145,59.5 c -2.1965,-3.3 -3.99507,-6.3375 -3.99682,-6.75 -0.002,-0.4125 1.50208,-0.75 3.34183,-0.75 3.50271,0 5.94518,1.943025 7.06224,5.618116 0.35409,1.164964 1.49531,2.888711 2.53602,3.830548 1.81703,1.644383 2.03408,1.490671 5.46205,-3.868116 C 162.44324,52.831518 163.42402,52 165.98758,52 c 3.6882,0 3.90043,1.770291 0.68012,5.673275 -3.7708,4.57018 -6.01632,9.003515 -5.30072,10.465258 0.36658,0.748807 2.21057,3.804807 4.09775,6.791111 1.88719,2.986305 3.2031,5.798805 2.92424,6.25 -0.91654,1.483003 -6.0473,0.856504 -7.61339,-0.929644 -0.84392,-0.9625 -2.27522,-3.2125 -3.18067,-5 -2.20561,-4.354223 -4.27284,-4.095398 -6.22326,0.779173 -0.88669,2.216046 -2.42846,4.466046 -3.42616,5 -2.14057,1.145599 -6.94653,1.298453 -6.94311,0.220827 z M 30,74.434259 C 30,69.807107 28.636158,67.38033 24.970356,65.48467 22.681149,64.300876 22,63.262872 22,60.958141 c 0,-2.438161 0.652196,-3.301509 3.531163,-4.674393 4.010466,-1.912458 4.9499,-4.323416 4.217279,-10.823211 -0.31111,-2.760156 -0.01646,-5.079326 0.784499,-6.1747 1.132165,-1.548327 1.696707,-1.604572 4.809076,-0.479125 4.847623,1.752923 10.288502,-0.448371 11.795876,-4.772427 1.517512,-4.353137 5.258595,-4.171481 7.947521,0.385909 2.601024,4.408407 6.974559,6.04918 11.633592,4.364452 4.393719,-1.58879 5.570914,-0.03196 4.801491,6.349934 -0.656118,5.442101 0.609413,9.454489 3.245933,10.291288 5.133749,1.629388 8.183389,7.933473 4.48357,9.268242 -4.581714,1.652926 -7.261298,4.524353 -7.889776,8.454636 l -0.641873,4.01405 -2.028248,-2.028249 C 66.722483,73.166928 66.711747,72.951817 68.330927,67.938315 69.248917,65.095924 70,61.962049 70,60.974149 70,58.327319 65.871563,48 64.813469,48 64.313537,48 62.757626,46.7625 61.355888,45.25 58.985208,42.691994 58.249306,42.5 50.815284,42.5 c -6.916182,0 -8.221239,0.283111 -9.695041,2.103179 -0.936679,1.156749 -2.617737,2.592704 -3.735687,3.191013 -3.933409,2.105096 -5.82914,14.298645 -3.37779,21.726309 0.978877,2.966026 0.905971,3.963734 -0.43972,6.017517 C 31.29806,79.000929 30,78.599267 30,74.434259 Z"
       id="path5068"
       inkscape:connector-curvature="0" />
    <path
       style="fill:#5169b3"
       d="M 33.777494,86.443296 C 34.999872,85.587109 36,84.434408 36,83.881738 36,82.904034 49.999182,69.026015 51.002905,69.008684 51.44041,69.001129 61.856781,79.16349 68.162674,85.75 L 70.316813,88 50.9359,88 C 33.109528,88 31.733254,87.875137 33.777494,86.443296 Z M 185,81.709186 c -3.34899,-1.689676 -4.87545,-6.611623 -4.94356,-15.940134 -0.054,-7.391961 -0.16606,-7.758461 -2.55644,-8.358408 -1.57867,-0.396221 -2.5,-1.333693 -2.5,-2.543803 0,-1.123966 1.03371,-2.309358 2.5,-2.866841 1.74619,-0.663901 2.5,-1.704026 2.5,-3.449569 0,-1.770716 0.88291,-2.955641 3.02937,-4.065618 C 186.82706,42.520949 188,43.221133 188,47.452028 188,50.856961 189.2772,52 193.08179,52 194.46121,52 195,52.702198 195,54.5 c 0,1.942029 -0.51333,2.5 -2.3,2.5 -3.73659,0 -4.7,1.899306 -4.7,9.265741 0,7.909845 0.94052,10.251531 4.47362,11.138283 1.5775,0.395925 2.52638,1.337921 2.52638,2.508039 0,3.155727 -5.38801,4.124019 -10,1.797123 z m 30.03987,-0.161147 C 212.88546,78.952132 214.19754,76.5 217.74097,76.5 c 2.17733,0 4.10766,-0.893194 5.9863,-2.769962 2.7584,-2.755645 2.77439,-2.849975 3.09312,-18.25 L 227.14079,40 l 3.4296,0 3.42961,0 0,16.349962 0,16.349961 -2.86156,3.950274 c -3.94204,5.441826 -13.28742,8.285072 -16.09857,4.897842 z M 248.75,81.855046 C 245.48145,80.936604 245,80.415182 245,77.793672 c 0,-2.481956 0.30587,-2.877258 1.75,-2.26164 0.9625,0.410305 4.33862,0.962618 7.5025,1.22736 5.92241,0.495569 7.88312,-0.275767 9.7985,-3.854692 1.37851,-2.575763 -2.87033,-7.150503 -9.15017,-9.852017 -5.77017,-2.482261 -9.82555,-6.294383 -10.05163,-9.448706 -0.57791,-8.062985 1.80756,-11.776513 8.67586,-13.505971 9.4024,-2.36755 17.87689,-0.820105 17.27054,3.153606 -0.21286,1.394952 -0.90344,2.104462 -1.81934,1.869212 -0.81194,-0.208546 -3.53132,-0.595377 -6.04305,-0.859625 -3.83566,-0.403531 -5.03313,-0.07932 -7.47965,2.025086 -4.38518,3.771975 -2.79619,7.108019 5.37154,11.277409 3.4788,1.775829 7.40941,4.247443 8.73469,5.492474 5.3554,5.031136 3.5826,14.73291 -3.2108,17.571374 -4.80218,2.006478 -12.83328,2.566636 -17.59899,1.227504 z M 109.4927,79.781502 C 109.18403,78.526676 109.0594,69.175 109.21574,59 L 109.5,40.5 121.32379,40.217626 c 11.80839,-0.282006 11.82337,-0.2794 11.5,2 C 132.52709,44.309019 131.87243,44.541838 125,45 l -7.5,0.5 0,6 0,6 7.25,0.29381 c 6.95244,0.28175 7.25,0.394619 7.25,2.75 0,2.3515 -0.27183,2.45619 -6.37756,2.45619 -7.70826,0 -8.85335,1.042115 -8.4304,7.672306 L 117.5,75.5 l 6,0.257401 c 9.07621,0.38937 10.68307,0.938952 10.31492,3.527945 -0.30196,2.123513 -0.79736,2.226239 -12.03796,2.496156 -11.4813,0.275697 -11.73462,0.234455 -12.28426,-2 z M 141.00238,81.25 c 0.001,-0.4125 1.80131,-3.398237 4,-6.634971 2.19869,-3.236734 3.99619,-6.611734 3.99444,-7.5 C 148.99507,66.226763 147.1965,62.8 145,59.5 c -2.1965,-3.3 -3.99507,-6.3375 -3.99682,-6.75 -0.002,-0.4125 1.50208,-0.75 3.34183,-0.75 3.50271,0 5.94518,1.943025 7.06224,5.618116 0.35409,1.164964 1.49531,2.888711 2.53602,3.830548 1.81703,1.644383 2.03408,1.490671 5.46205,-3.868116 C 162.44324,52.831518 163.42402,52 165.98758,52 c 3.6882,0 3.90043,1.770291 0.68012,5.673275 -3.7708,4.57018 -6.01632,9.003515 -5.30072,10.465258 0.36658,0.748807 2.21057,3.804807 4.09775,6.791111 1.88719,2.986305 3.2031,5.798805 2.92424,6.25 -0.91654,1.483003 -6.0473,0.856504 -7.61339,-0.929644 -0.84392,-0.9625 -2.27522,-3.2125 -3.18067,-5 -2.20561,-4.354223 -4.27284,-4.095398 -6.22326,0.779173 -0.88669,2.216046 -2.42846,4.466046 -3.42616,5 -2.14057,1.145599 -6.94653,1.298453 -6.94311,0.220827 z M 30,74.434259 C 30,69.807107 28.636158,67.38033 24.970356,65.48467 22.681149,64.300876 22,63.262872 22,60.958141 c 0,-2.438161 0.652196,-3.301509 3.531163,-4.674393 4.010466,-1.912458 4.9499,-4.323416 4.217279,-10.823211 -0.31111,-2.760156 -0.01646,-5.079326 0.784499,-6.1747 1.132165,-1.548327 1.696707,-1.604572 4.809076,-0.479125 4.847623,1.752923 10.288502,-0.448371 11.795876,-4.772427 1.517512,-4.353137 5.258595,-4.171481 7.947521,0.385909 2.601024,4.408407 6.974559,6.04918 11.633592,4.364452 4.393719,-1.58879 5.570914,-0.03196 4.801491,6.349934 -0.656118,5.442101 0.609413,9.454489 3.245933,10.291288 5.133749,1.629388 8.183389,7.933473 4.48357,9.268242 -4.581714,1.652926 -7.261298,4.524353 -7.889776,8.454636 l -0.641873,4.01405 -2.028248,-2.028249 C 66.722483,73.166928 66.711747,72.951817 68.330927,67.938315 69.248917,65.095924 70,61.962049 70,60.974149 70,58.327319 65.871563,48 64.813469,48 64.313537,48 62.757626,46.7625 61.355888,45.25 58.985208,42.691994 58.249306,42.5 50.815284,42.5 c -6.916182,0 -8.221239,0.283111 -9.695041,2.103179 -0.936679,1.156749 -2.617737,2.592704 -3.735687,3.191013 -3.933409,2.105096 -5.82914,14.298645 -3.37779,21.726309 0.978877,2.966026 0.905971,3.963734 -0.43972,6.017517 C 31.29806,79.000929 30,78.599267 30,74.434259 Z"
       id="path5066"
       inkscape:connector-curvature="0" />
    <path
       style="fill:#415bac"
       d="M 33.777494,86.443296 C 34.999872,85.587109 36,84.434408 36,83.881738 36,82.904034 49.999182,69.026015 51.002905,69.008684 51.44041,69.001129 61.856781,79.16349 68.162674,85.75 L 70.316813,88 50.9359,88 C 33.109528,88 31.733254,87.875137 33.777494,86.443296 Z M 185.79578,80.874759 C 182.42633,79.615173 181.81956,77.763221 181.08609,66.5 180.55934,58.411216 180.2722,57.400057 178.25,56.512872 177.0125,55.969951 176,55.064159 176,54.5 c 0,-0.564159 1.0125,-1.469951 2.25,-2.012872 1.2375,-0.54292 2.39328,-1.99567 2.5684,-3.228332 0.33856,-2.383158 3.94278,-5.524427 5.34457,-4.658076 C 186.62334,44.885242 187,46.351476 187,47.859017 187,51.203994 188.64195,53 191.7,53 c 3.43219,0 2.77632,2.446178 -0.95,3.543203 L 187.5,57.5 187.20755,65.874351 C 186.89324,74.874433 188.18742,78 192.22831,78 c 1.28675,0 1.80907,0.576165 1.58646,1.75 -0.3914,2.063899 -4.11109,2.58563 -8.01899,1.124759 z M 216.25,81.337719 C 215.5625,81.060307 215,79.970833 215,78.916667 215,77.362982 215.72191,77 218.81194,77 c 3.13387,0 4.24563,-0.578112 6.25,-3.25 2.28162,-3.041459 2.45999,-4.196457 2.77978,-18 l 0.34171,-14.75 2.40829,0 2.40828,0 0,15.767865 c 0,15.078776 -0.1069,15.925188 -2.44617,19.367731 -1.84259,2.711606 -3.55571,3.879251 -6.94282,4.732135 -4.81239,1.211773 -5.42564,1.250928 -7.36101,0.469988 z m 33.90735,-0.285245 c -3.88577,-0.973895 -5.65374,-2.44028 -4.73482,-3.927131 0.43375,-0.701811 1.48541,-0.730645 3.17797,-0.08713 3.32679,1.264842 11.03018,1.229811 13.44232,-0.06113 2.59151,-1.386931 4.19988,-4.637048 3.45544,-6.982572 C 264.82456,67.871889 256.73519,62 254.48466,62 c -2.41376,0 -8.31044,-5.930304 -8.99478,-9.046074 -1.06226,-4.83643 2.16139,-10.177502 7.01012,-11.614642 7.41974,-2.199175 17.5,-1.285998 17.5,1.585335 0,0.469839 -3.17312,0.791506 -7.05137,0.714817 -6.42364,-0.127023 -7.22285,0.08312 -8.97776,2.360564 -3.93904,5.111926 -2.36469,7.923317 7.02913,12.552214 3.025,1.490599 6.50561,3.623111 7.73469,4.738915 4.92965,4.475316 3.64445,13.816857 -2.23912,16.27517 -4.26865,1.783554 -12.25366,2.509895 -16.33822,1.486175 z M 110.69848,80.365152 C 110.31432,79.980985 110,70.966667 110,60.333333 L 110,41 l 11,0 c 9.11111,0 11,0.257576 11,1.5 0,1.186275 -1.42222,1.5 -6.8,1.5 -3.95556,0 -7.30196,0.501961 -8,1.2 -1.55702,1.557025 -1.55702,11.042975 0,12.6 0.70055,0.700549 4.06074,1.2 8.07332,1.2 5.8922,0 6.82718,0.239225 6.55,1.675898 -0.26917,1.395225 -1.42458,1.635956 -6.89893,1.437405 -8.20324,-0.297526 -9.13805,0.618597 -8.72681,8.552324 L 116.5,76.5 l 8.31533,0.291498 c 7.21567,0.252949 8.27207,0.517439 7.98815,2 -0.27971,1.460561 -1.85673,1.7494 -10.86685,1.99032 -5.79681,0.155 -10.85398,-0.0325 -11.23815,-0.416666 z m 32.89864,-0.208012 c -0.28651,-0.463574 1.05286,-3.276074 2.97638,-6.25 4.38811,-6.784439 3.93003,-9.064612 -3.9646,-19.734414 -0.77521,-1.047722 -0.27075,-1.258343 2.39514,-1 2.92236,0.283198 3.72188,1.000431 5.93657,5.325582 3.49371,6.822966 5.15088,6.833062 9.02889,0.05501 C 162.45212,54.214135 163.67732,53 165.57339,53 c 2.94997,0 3.0835,1.095545 0.42661,3.5 -1.1,0.995486 -2,2.345486 -2,3 0,0.654514 -0.9,2.004514 -2,3 -1.1,0.995486 -2,2.681753 -2,3.747258 0,1.065506 0.9,3.081448 2,4.479871 1.1,1.398424 2,3.101802 2,3.785285 0,0.683483 0.675,1.802897 1.5,2.487586 2.06182,1.711162 1.88509,4 -0.30887,4 -2.80929,0 -5.49665,-2.450539 -6.73136,-6.138166 -0.83128,-2.482706 -1.79247,-3.441626 -3.67566,-3.666962 -2.09357,-0.250511 -2.75221,0.27486 -3.67956,2.935066 -1.87101,5.367174 -5.91087,8.610499 -7.50743,6.027202 z M 31,73.088894 c 0,-3.139718 -0.606823,-4.421715 -3.076725,-6.5 C 26.231076,65.165002 24.431076,64 23.923275,64 c -0.507801,0 -0.922059,-1.2375 -0.920573,-2.75 0.0021,-2.153673 0.815289,-3.183693 3.75,-4.75 L 30.5,54.5 30.792064,46.75 c 0.309998,-8.225878 0.949591,-9.028997 5.325498,-6.687083 3.165533,1.694142 10.501612,-1.531722 11.772203,-5.176542 1.307228,-3.749916 4.12434,-3.727809 6.273137,0.04923 0.914596,1.607627 3.141821,3.687736 4.949389,4.622466 2.749545,1.421845 3.824785,1.504858 6.581269,0.5081 1.812129,-0.655274 3.735591,-0.918972 4.27436,-0.585994 0.538769,0.332977 0.896734,3.400966 0.795477,6.817753 -0.217772,7.348474 0.159383,8.111868 5.304452,10.736687 5.367016,2.738047 5.339425,5.79287 -0.07486,8.28877 -3.222755,1.485638 -4.157612,2.574274 -5.046999,5.877203 -0.808806,3.003678 -1.383114,3.762286 -2.216977,2.928423 -0.833864,-0.833864 -0.684199,-2.356353 0.577742,-5.877204 0.936727,-2.613493 1.700914,-5.724263 1.698194,-6.912822 C 70.99636,57.587416 66.771018,47.94782 64.63381,46.804021 63.505759,46.200307 61.884578,44.84408 61.031185,43.790184 60.152099,42.704559 57.669518,41.631232 55.303582,41.313893 43.38973,39.71591 35.151234,44.965586 32.633114,55.759807 c -1.263753,5.417224 -1.264907,6.923144 -0.009,11.732589 1.05698,4.047619 1.156405,6.049165 0.373182,7.51263 C 31.443348,77.908631 31,77.483302 31,73.088894 Z"
       id="path5064"
       inkscape:connector-curvature="0" />
    <path
       style="fill:#3e58ab"
       d="M 33.777494,86.443296 C 34.999872,85.587109 36,84.434408 36,83.881738 36,82.904034 49.999182,69.026015 51.002905,69.008684 51.44041,69.001129 61.856781,79.16349 68.162674,85.75 L 70.316813,88 50.9359,88 C 33.109528,88 31.733254,87.875137 33.777494,86.443296 Z M 111.42019,60.5 c -8.9e-4,-11 0.14522,-15.636437 0.32467,-10.303194 0.17945,5.333244 0.18018,14.333244 0.002,20 C 111.5679,75.863563 111.42107,71.5 111.42019,60.5 Z m 33.96652,18.316688 c -0.40745,-0.65926 -0.20426,-1.377505 0.45153,-1.596101 1.95124,-0.650413 5.33224,-9.090109 4.61717,-11.525435 C 148.9514,60.572913 146.52331,56 145.30755,56 144.5884,56 144,55.612402 144,55.138672 c 0,-0.473731 1.11796,-0.647616 2.48436,-0.386413 1.83992,0.351723 2.74637,1.418195 3.49442,4.111328 0.55554,2.000027 1.01258,4.198913 1.01564,4.886413 0.004,0.790737 1.47522,1.25 4.00558,1.25 3.58312,0 4,0.256493 4,2.461045 0,1.353575 0.91194,3.310648 2.02654,4.349053 1.16756,1.087749 1.7727,2.549493 1.42768,3.448613 -0.39222,1.022099 0.11622,1.787564 1.47346,2.218335 1.13978,0.361751 2.07232,1.053996 2.07232,1.538322 0,0.484326 -1.33499,0.415214 -2.96663,-0.153582 -2.61472,-0.911495 -3.10466,-1.735698 -4.13011,-6.94798 C 157.87481,66.686281 157.46477,66 155.36989,66 153.92999,66 153,66.588626 153,67.5 c 0,0.825 -0.37877,1.5 -0.84171,1.5 -0.46294,0 -1.40248,1.871683 -2.08787,4.159296 -1.48334,4.950947 -3.56576,7.466275 -4.68371,5.657392 z M 184.2,78.8 c -0.81475,-0.814746 -1.13596,-4.747549 -1.00053,-12.25 l 0.19946,-11.05 0.55054,11.5 0.55053,11.5 4.41376,0.247089 C 194.80082,79.076655 195.50308,80 189.86667,80 187.41,80 184.86,79.46 184.2,78.8 Z M 216,78.88212 C 216,78.396952 217.69999,78 219.77776,78 c 4.44798,0 7.20912,-2.631172 8.38574,-7.991041 0.6952,-3.166808 0.73147,-3.075242 0.372,0.939068 -0.26404,2.948614 -0.0895,3.959903 0.51778,3 0.50385,-0.796415 0.92299,-2.460527 0.93141,-3.698027 0.008,-1.2375 0.45261,-2.25 0.98709,-2.25 0.56219,0 1.12219,-5.584651 1.32863,-13.25 0.32474,-12.057884 0.34977,-11.817957 0.27822,2.666721 -0.0603,12.207096 -0.38502,16.018838 -1.39325,16.354874 -0.72305,0.240985 -1.74357,1.566348 -2.26782,2.945251 -0.69822,1.836434 -1.48345,2.368434 -2.93538,1.988745 C 224.89198,78.420497 224,78.566905 224,79.03094 c 0,0.464035 -1.8,0.818859 -4,0.788496 -2.2,-0.03036 -4,-0.452156 -4,-0.93732 z m 11.54112,-1.948647 c 1.02606,-1.660205 0.10511,-1.890424 -1.33055,-0.33261 C 225.50139,77.370387 225.36233,78 225.90156,78 c 0.53922,0 1.27702,-0.479939 1.63956,-1.066531 z m 19.90001,1.598758 c -1.77073,-1.338929 -1.63447,-1.38282 1.55227,-0.5 7.46456,2.0679 16.93454,0.163241 17.10628,-3.440515 0.087,-1.824823 0.19567,-1.772728 0.85199,0.408288 0.71087,2.362289 0.79387,2.294817 1.5069,-1.224887 0.43778,-2.161044 0.30683,-5.009316 -0.31191,-6.784245 -0.62809,-1.801753 -0.6719,-2.815487 -0.10658,-2.466096 C 268.56804,64.851066 269,65.766476 269,66.559017 269,67.351558 269.45,68 270,68 c 0.55,0 1,1.35 1,3 0,1.65 -0.45,3 -1,3 -0.55,0 -1,0.878848 -1,1.952996 0,1.404986 -1.05225,2.24522 -3.75,2.994423 -5.58038,1.549749 -15.51659,1.318098 -17.80887,-0.415192 z M 119.75,78.267795 c 2.3375,-0.210535 6.1625,-0.210535 8.5,0 2.3375,0.210535 0.425,0.382791 -4.25,0.382791 -4.675,0 -6.5875,-0.172256 -4.25,-0.382791 z M 114.34941,70 c 0,-4.675 0.17226,-6.5875 0.3828,-4.25 0.21053,2.3375 0.21053,6.1625 0,8.5 -0.21054,2.3375 -0.3828,0.425 -0.3828,-4.25 z m 71.02466,-3.5 c 0.002,-6.05 0.16696,-8.396069 0.36601,-5.213487 0.19905,3.182582 0.1972,8.132582 -0.004,11 C 185.53467,75.153931 185.37181,72.55 185.37407,66.5 Z M 31.627566,71.07239 c -0.40868,-2.555746 -1.548288,-4.65147 -3.262667,-6 C 26.91586,63.932575 26.240969,63 26.865141,63 27.489314,63 28,62.55 28,62 c 0,-0.55 -1.125,-1 -2.5,-1 -3.641654,0 -3.057691,-1.660841 1.062018,-3.020468 4.373829,-1.443494 5.703507,-4.467024 5.261403,-11.963814 -0.272716,-4.624476 -0.04289,-5.538625 1.465937,-5.830904 1.469233,-0.284609 1.673469,0.115113 1.141592,2.234282 C 34.026407,44.030923 34.199369,45 34.891592,45 35.501216,45 36,44.325 36,43.5 36,42.675 36.857871,42 37.90638,42 c 1.414051,0 1.771311,0.516507 1.383369,2 -0.328412,1.255848 -1.364016,2 -2.783313,2 -1.923968,0 -2.514194,0.930001 -3.966566,6.25 -2.583211,9.46223 -2.867774,11.649974 -1.698574,13.058773 C 31.968664,66.667168 33.614659,75 32.755616,75 c -0.275,0 -0.782622,-1.767425 -1.12805,-3.92761 z M 68.638374,71.5 C 68.954956,70.675 69.390833,70 69.606989,70 69.823145,70 70,70.675 70,71.5 70,72.325 69.564123,73 69.031385,73 68.498646,73 68.321791,72.325 68.638374,71.5 Z M 266.116,68.25 c -0.0638,-1.2375 -0.6785,-2.264312 -1.366,-2.281803 -0.6875,-0.01749 -2.14781,-0.710261 -3.24513,-1.539485 -1.72205,-1.301319 -1.79048,-1.648118 -0.5,-2.533704 1.13455,-0.778573 0.92229,-0.863799 -0.8801,-0.353381 -1.59844,0.452663 -2.1545,0.315493 -1.70029,-0.419435 0.45424,-0.734981 -0.2468,-0.907727 -2.14396,-0.528296 -5.90432,1.180864 -12.94159,-9.789965 -8.88312,-13.848438 0.88143,-0.88143 1.6026,-2.063592 1.6026,-2.627025 0,-1.568918 6.79241,-3.106648 13.75,-3.112856 4.79166,-0.0043 6.25,0.332286 6.25,1.442403 0,1.177949 -0.56535,1.2509 -3.03153,0.391185 -4.07751,-1.421428 -11.17898,-0.242103 -13.27368,2.204329 C 251.72903,46.171412 251,48.702539 251,50.927613 c 0,3.376851 0.40558,4.08428 3,5.232681 1.65,0.730361 3,1.619295 3,1.975409 0,0.356115 1.23498,0.957442 2.74441,1.336283 3.22804,0.810188 5.26169,2.323877 5.24028,3.900459 C 264.97627,63.9926 264.53316,63.825 264,63 c -0.53316,-0.825 -0.97627,-0.992387 -0.98469,-0.371972 -0.008,0.620415 0.93654,1.76003 2.09991,2.532478 1.37386,0.912209 1.94024,2.09404 1.616,3.371972 C 266.28666,70.284574 266.2193,70.253645 266.116,68.25 Z M 252.10936,56.117375 c -2.12387,-1.63303 -2.33463,-2.421142 -1.88866,-7.062429 0.29148,-3.033556 0.14722,-4.664604 -0.34404,-3.889611 C 249.41134,45.899401 249.02373,47.2875 249.01531,48.25 249.00689,49.2125 248.55,50 248,50 c -0.55,0 -1,0.675 -1,1.5 0,0.825 0.45,1.5 1,1.5 0.55,0 1,0.585 1,1.3 0,1.777756 2.06962,3.704739 3.95,3.677764 1.10499,-0.01585 0.86364,-0.549975 -0.84064,-1.860389 z M 74.969747,63.098642 c 1.222019,-0.821719 0.976444,-1.41218 -1.456979,-3.503158 -3.708425,-3.186555 -2.896349,-4.071528 1.897965,-2.068335 2.916203,1.218467 3.650052,2.029847 3.40354,3.763126 -0.213936,1.504233 -1.11244,2.30342 -2.814273,2.503195 -1.923551,0.225802 -2.161107,0.06559 -1.030253,-0.694828 z M 159,62.039903 c 0,-1.067288 0.59644,-2.300383 1.32541,-2.740213 0.72898,-0.439829 1.61485,-1.58719 1.96862,-2.54969 0.35376,-0.9625 1.44482,-1.736316 2.42459,-1.719591 1.68822,0.02882 1.68987,0.08371 0.0314,1.04969 -0.9625,0.560605 -1.75,1.796912 -1.75,2.74735 0,0.950438 -0.9,2.498673 -2,3.440523 -1.90121,1.627869 -2,1.616604 -2,-0.228069 z m -35.91913,-1.124621 c -9.50489,-1.230633 -9.10809,-0.800119 -8.87963,-9.633897 L 114.40249,43.5 l 0.34082,7.75 0.34082,7.75 7.95793,0 C 129.44912,59 131,59.292327 131,60.5 c 0,0.825 -0.3375,1.442938 -0.75,1.373195 -0.4125,-0.06974 -3.63861,-0.500804 -7.16913,-0.957913 z M 68.456797,49.781023 C 67.798884,47.567589 66.720691,46.382469 65.005251,45.987178 61.49546,45.178412 61.034244,42 64.426676,42 65.842004,42 67,41.55 67,41 c 0,-0.55 0.675,-1 1.5,-1 1.179487,0 1.5,1.388889 1.5,6.5 0,3.575 -0.131942,6.5 -0.293203,6.5 -0.161262,0 -0.723762,-1.44854 -1.25,-3.218977 z M 68.921053,44.25 c -0.04342,-1.5125 -0.305921,-2.1875 -0.583334,-1.5 -0.277412,0.6875 -1.227894,1.25 -2.112182,1.25 -1.325704,0 -1.26722,0.257599 0.333333,1.468197 2.534755,1.917192 2.453398,1.959148 2.362183,-1.218197 z m 114.238987,5.5 C 183.0432,47.012206 183.40488,46 184.5,46 c 1.09007,0 1.46402,1.024826 1.36836,3.75 l -0.13164,3.75 -0.6951,-3.5 -0.6951,-3.5 -0.51322,3.5 -0.51323,3.5 -0.16003,-3.75 z M 118,42.382761 c 5.88419,-0.747467 14.00262,-0.824446 14.00136,-0.132761 -7.5e-4,0.4125 -3.71386,0.682576 -8.25136,0.600168 -4.5375,-0.08241 -7.125,-0.292741 -5.75,-0.467407 z M 43.677379,40.251502 c 1.197559,-0.204364 2.69296,-0.992807 3.323114,-1.752096 0.630153,-0.759288 1.787832,-1.134128 2.57262,-0.832976 C 50.357901,37.967581 51,37.715833 51,37.106989 51,36.498145 50.55,36 50,36 c -0.55,0 -1,-0.707996 -1,-1.573324 0,-2.391153 3.447678,-1.271624 3.806787,1.236139 0.168733,1.178312 1.55621,2.748715 3.083282,3.489785 2.56393,1.244245 2.119369,1.352111 -5.806787,1.408936 -4.720805,0.03385 -7.603461,-0.10567 -6.405903,-0.310034 z"
       id="path5062"
       inkscape:connector-curvature="0" />
    <path
       style="fill:#71930f"
       d="M 33.777494,86.443296 C 34.999872,85.587109 36,84.434408 36,83.881738 36,82.904034 49.999182,69.026015 51.002905,69.008684 51.44041,69.001129 61.856781,79.16349 68.162674,85.75 L 70.316813,88 50.9359,88 C 33.109528,88 31.733254,87.875137 33.777494,86.443296 Z"
       id="path5060"
       inkscape:connector-curvature="0" />
  </g>
</svg>
