<?xml version="1.0" encoding="UTF-8" standalone="no"?>
<!-- Created with Inkscape (http://www.inkscape.org/) -->

<svg
   xmlns:dc="http://purl.org/dc/elements/1.1/"
   xmlns:cc="http://creativecommons.org/ns#"
   xmlns:rdf="http://www.w3.org/1999/02/22-rdf-syntax-ns#"
   xmlns:svg="http://www.w3.org/2000/svg"
   xmlns="http://www.w3.org/2000/svg"
   xmlns:xlink="http://www.w3.org/1999/xlink"
   xmlns:sodipodi="http://sodipodi.sourceforge.net/DTD/sodipodi-0.dtd"
   xmlns:inkscape="http://www.inkscape.org/namespaces/inkscape"
   id="svg4175"
   version="1.1"
   inkscape:version="0.91 r13725"
   width="473"
   height="123"
   viewBox="0 0 473 123"
   sodipodi:docname="Fastclick.bmp.svg">
  <metadata
     id="metadata4181">
    <rdf:RDF>
      <cc:Work
         rdf:about="">
        <dc:format>image/svg+xml</dc:format>
        <dc:type
           rdf:resource="http://purl.org/dc/dcmitype/StillImage" />
        <dc:title></dc:title>
      </cc:Work>
    </rdf:RDF>
  </metadata>
  <defs
     id="defs4179" />
  <sodipodi:namedview
     pagecolor="#ffffff"
     bordercolor="#666666"
     borderopacity="1"
     objecttolerance="10"
     gridtolerance="10"
     guidetolerance="10"
     inkscape:pageopacity="0"
     inkscape:pageshadow="2"
     inkscape:window-width="640"
     inkscape:window-height="480"
     id="namedview4177"
     showgrid="false"
     inkscape:zoom="0.55391121"
     inkscape:cx="236.5"
     inkscape:cy="61.5"
     inkscape:window-x="0"
     inkscape:window-y="0"
     inkscape:window-maximized="0"
     inkscape:current-layer="svg4175" />
  <image
     width="473"
     height="123"
     preserveAspectRatio="none"
     style="image-rendering:optimizeQuality"
     xlink:href="file:///media/havoc/USB%20DISK/pics/_OpsDeps/Fastclick.bmp"
     id="image4183"
     x="0"
     y="0"
     sodipodi:absref="/media/havoc/USB DISK/pics/_OpsDeps/Fastclick.bmp" />
  <g
     id="g4984">
    <path
       style="fill:#fdfdfd"
       d="M 0,61.5 0,0 236.5,0 473,0 473,61.5 473,123 236.5,123 0,123 0,61.5 Z"
       id="path5000"
       inkscape:connector-curvature="0" />
    <path
       style="fill:#a1a1a1"
       d="m 333.44113,88.558569 c -2.84007,-2.108961 -0.73897,-5.162708 3.27902,-4.765755 1.63014,0.161048 3.47283,-0.320412 4.09486,-1.06991 0.70418,-0.84849 1.23549,-7.185386 1.40797,-16.792814 L 342.5,50.5 l 3,0 3,0 0.27727,15.477059 c 0.29293,16.351218 -0.36108,19.917593 -4.13759,22.562768 -2.66936,1.869689 -8.69236,1.879769 -11.19855,0.01874 z M 118.71258,79.379243 C 118.32066,78.987326 118,73.807499 118,67.868517 118,58.093823 117.81044,56.968917 116,56 c -1.1,-0.588702 -2,-1.938702 -2,-3 0,-1.061298 0.9,-2.411298 2,-3 1.1,-0.588702 2,-1.933361 2,-2.988131 C 118,41.540668 122.11576,38 128.47562,38 131.54969,38 135,40.047344 135,41.871429 c 0,1.81348 -2.50896,2.920237 -5.5144,2.432521 -2.74978,-0.446228 -3.39179,-0.17489 -3.98136,1.68268 -0.8317,2.620458 0.0905,3.722832 3.49576,4.178694 1.90777,0.255394 2.5,0.924578 2.5,2.824855 0,1.985323 -0.60822,2.594984 -3,3.007124 l -3,0.516944 -0.5,11.492876 c -0.49633,11.408627 -0.5186,11.495046 -3.03742,11.788787 -1.39559,0.16275 -2.85809,-0.02475 -3.25,-0.416667 z m 17.84181,-1.73394 C 133.8623,74.953212 133.18125,70.398367 134.97083,67.054511 136.07971,64.982536 142.8599,62 146.46122,62 c 3.0124,0 3.54829,-0.852941 2.41744,-3.847731 -0.84055,-2.226002 -1.20175,-2.311144 -6.96628,-1.6421 -5.9637,0.692161 -6.07339,0.661097 -5.74607,-1.627237 0.73805,-5.159775 12.47648,-6.814054 17.52793,-2.470184 2.64212,2.27203 2.82591,2.957319 3.15125,11.75 0.2427,6.559289 0.79943,9.84682 1.87128,11.050007 2.48442,2.788851 0.86648,5.13904 -2.97829,4.326208 -3.91947,-0.828624 -6.89791,-0.823646 -12.43409,0.02078 -3.63209,0.553999 -4.53868,0.29687 -6.75,-1.914442 z m 11.50158,-5.489545 C 150.63856,70.064505 150.16182,67 147.25389,67 c -4.12955,0 -8.13569,5.074009 -5.00389,6.337719 2.29223,0.924935 3.5103,0.676965 5.80597,-1.181961 z M 167,78.710226 c -1.375,-0.693159 -2.64651,-2.282227 -2.82558,-3.531261 -0.31279,-2.181785 -0.0772,-2.259346 6,-1.974968 5.81669,0.27219 6.35019,0.123363 6.63149,-1.849935 0.24733,-1.734918 -0.57608,-2.482778 -4.299,-3.904575 C 164.4061,64.35576 161.86111,58.598133 166.30884,53.427339 170.48307,48.574511 183,49.030342 183,54.035184 c 0,2.070355 -0.1761,2.133886 -6.47713,2.336763 -6.09132,0.196125 -5.62456,2.572891 1.20346,6.128053 6.21407,3.2355 8.07399,6.175146 6.89049,10.890587 -1.3591,5.41508 -11.40815,8.449528 -17.61682,5.319639 z m 29.36408,0.120184 C 193.14691,77.272629 192,73.708176 192,65.267398 c 0,-6.46632 -0.33366,-7.993663 -2.17431,-9.952947 L 187.65137,53 189.82569,50.685549 C 191.02156,49.412601 192,47.885746 192,47.292538 192,46.130883 194.27235,45 196.60654,45 c 0.79363,0 1.85846,1.092856 2.3663,2.428569 0.61864,1.627153 1.84796,2.534639 3.72525,2.75 2.23304,0.256171 2.80191,0.827013 2.80191,2.81161 0,1.985406 -0.60812,2.594892 -3,3.006753 -2.9798,0.513096 -3.00199,0.565972 -3.29568,7.852321 -0.3148,7.810372 0.48449,9.822321 4.10808,10.340713 2.49899,0.357505 3.52947,3.66157 1.53599,4.924894 -1.7891,1.133807 -5.83546,0.998147 -8.48431,-0.28445 z M 218,79.293772 c -0.825,-0.301584 -2.55526,-1.503557 -3.84501,-2.671053 -7.63997,-6.915742 -6.65052,-20.322575 1.82941,-24.787913 6.82153,-3.592065 18.09175,-1.501136 15.39737,2.856625 -0.8498,1.374414 -2.10122,1.728781 -5.21308,1.476193 -3.31207,-0.268839 -4.57981,0.152586 -6.63177,2.204545 -5.80326,5.803266 -1.69197,16.045599 6.25,15.57043 2.04219,-0.122185 4.27558,-0.159254 4.96308,-0.08238 1.96217,0.219413 1.46124,3.956355 -0.68426,5.104593 -2.01359,1.077641 -9.46214,1.280716 -12.06574,0.328956 z m 20.47195,-0.506275 c -0.28417,-0.740544 -0.39412,-10.108181 -0.24431,-20.816971 L 238.5,38.5 l 3,0 3,0 0,20.5 0,20.5 -2.75569,0.316971 c -1.63431,0.187986 -2.96593,-0.230938 -3.27236,-1.029474 z m 14.99195,-0.02098 c -0.2886,-0.752083 -0.39854,-7.41972 -0.24431,-14.816971 L 253.5,50.5 l 3,0 3,0 0,14.5 0,14.5 -2.75569,0.316971 C 255.09226,80.006998 253.77848,79.5863 253.4639,78.76652 Z M 275,79.293772 c -0.825,-0.301584 -2.55526,-1.503557 -3.84501,-2.671053 -7.63997,-6.915742 -6.65052,-20.322575 1.82941,-24.787913 6.82153,-3.592065 18.09175,-1.501136 15.39737,2.856625 -0.8498,1.374414 -2.10122,1.728781 -5.21308,1.476193 -3.31207,-0.268839 -4.57981,0.152586 -6.63177,2.204545 -5.80326,5.803266 -1.69197,16.045599 6.25,15.57043 2.04219,-0.122185 4.27558,-0.159254 4.96308,-0.08238 1.96217,0.219413 1.46124,3.956355 -0.68426,5.104593 -2.01359,1.077641 -9.46214,1.280716 -12.06574,0.328956 z m 20.47195,-0.506275 c -0.28417,-0.740544 -0.39412,-10.108181 -0.24431,-20.816971 L 295.5,38.5 l 3,0 3,0 0.28383,10.75 c 0.15611,5.9125 0.53737,10.75 0.84724,10.75 0.30988,0 2.60775,-2.273801 5.10639,-5.052891 3.53032,-3.926562 5.10754,-4.985375 7.07564,-4.75 1.39297,0.16659 2.68173,0.758488 2.86393,1.315328 0.18219,0.55684 -1.6956,3.329448 -4.17288,6.161351 C 311.02687,60.505692 309,63.354317 309,64.004068 c 0,0.64975 2.48372,3.925969 5.51939,7.280485 3.03566,3.354517 5.36351,6.575295 5.17299,7.157284 -0.19052,0.58199 -1.72425,1.195445 -3.40828,1.363235 -2.62674,0.261716 -3.75271,-0.482592 -7.92299,-5.237382 -2.67361,-3.048349 -5.17509,-5.548131 -5.55885,-5.555071 -0.38376,-0.0069 -0.83376,2.349881 -1,5.237381 -0.28208,4.899515 -0.48623,5.271161 -3.05795,5.566971 -1.63431,0.187986 -2.96593,-0.230938 -3.27236,-1.029474 z m 29.94209,-0.1509 c -0.31471,-0.82013 -0.42412,-2.536372 -0.24312,-3.813871 C 325.44368,72.897531 326.09902,72.5 329,72.5 c 3.33333,0 3.5,0.166667 3.5,3.5 0,3.219319 -0.26118,3.525171 -3.25688,3.813871 -2.18406,0.210483 -3.44535,-0.177311 -3.82908,-1.177274 z M 359,78.710226 c -1.375,-0.693159 -2.64651,-2.282227 -2.82558,-3.531261 -0.31279,-2.181785 -0.0772,-2.259346 6,-1.974968 5.81669,0.27219 6.35019,0.123363 6.63149,-1.849935 0.24733,-1.734918 -0.57608,-2.482778 -4.299,-3.904575 C 356.4061,64.35576 353.86111,58.598133 358.30884,53.427339 362.48307,48.574511 375,49.030342 375,54.035184 c 0,2.070355 -0.1761,2.133886 -6.47713,2.336763 -6.09132,0.196125 -5.62456,2.572891 1.20346,6.128053 6.21407,3.2355 8.07399,6.175146 6.89049,10.890587 -1.3591,5.41508 -11.40815,8.449528 -17.61682,5.319639 z M 253.40974,45.625384 C 252.2113,42.502299 253.4239,40.5 256.5137,40.5 c 2.65144,0 2.9863,0.336391 2.9863,3 0,2.530878 -0.43092,3.049566 -2.75569,3.316971 -1.75858,0.20228 -2.96514,-0.228875 -3.33457,-1.191587 z m 89,0 C 341.2113,42.502299 342.4239,40.5 345.5137,40.5 c 2.65144,0 2.9863,0.336391 2.9863,3 0,2.530878 -0.43092,3.049566 -2.75569,3.316971 -1.75858,0.20228 -2.96514,-0.228875 -3.33457,-1.191587 z"
       id="path4998"
       inkscape:connector-curvature="0" />
    <path
       style="fill:#888888"
       d="M 334.12812,88.100341 C 331.76409,86.602829 333.46808,84.5 337.04559,84.5 c 5.15326,0 5.92235,-2.501574 5.93967,-19.319551 0.0147,-14.274256 0.0219,-14.31854 2.26474,-14 2.2149,0.314566 2.25429,0.57335 2.52487,16.590136 0.27289,16.153444 0.25702,16.288435 -2.20455,18.75 -2.572,2.572003 -8.56879,3.399945 -11.4422,1.579756 z M 119,68.078025 c 0,-9.97807 -0.19582,-11.183371 -2,-12.310098 -1.1,-0.686961 -2,-1.932528 -2,-2.767927 0,-0.835399 0.9,-2.080966 2,-2.767927 1.25795,-0.785601 2,-2.332028 2,-4.167967 C 119,42.167764 123.04145,39 128.01241,39 c 4.10025,0 7.38104,2.520767 5.10864,3.925186 -0.68769,0.425015 -2.27523,0.576836 -3.52786,0.337379 -2.84573,-0.543995 -5.80431,2.255178 -5.39641,5.10565 0.21068,1.472272 1.21876,2.276473 3.30322,2.635175 1.74982,0.301116 3,1.133156 3,1.99661 0,0.8633 -1.25049,1.695837 -3,1.997303 l -3,0.516944 -0.5,11.492876 c -0.47778,10.982217 -0.59997,11.507076 -2.75,11.812428 -2.21698,0.314862 -2.25,0.157236 -2.25,-10.741526 z m 18.07156,9.181008 C 131.63588,72.85748 135.52305,64.834397 143.75394,63.46666 149.56855,62.500441 150,62.231037 150,59.566569 150,56.202004 147.16074,54.879164 141.58079,55.64398 137.72661,56.172255 137,56.00843 137,54.611173 137,52.476305 140.92895,51 146.61055,51 c 3.42359,0 5.05931,0.578946 6.9349,2.454545 2.23929,2.239287 2.45455,3.237076 2.45455,11.377556 0,6.711613 0.37175,9.231531 1.5,10.167899 0.825,0.684689 1.5,1.915864 1.5,2.735944 0,1.153458 -0.73585,1.338834 -3.25,0.818746 -4.16868,-0.86235 -6.22174,-0.86763 -11.76177,-0.03025 -3.65523,0.552492 -4.96833,0.312261 -6.91667,-1.265409 z m 10.38139,-3.419548 C 149.32139,72.988166 150,71.914084 150,69.8081 c 0,-3.44409 -1.65054,-4.271662 -5.5572,-2.786353 -4.4955,1.709185 -5.44667,3.831523 -2.87137,6.406824 1.87878,1.878785 2.55604,1.926102 5.88152,0.410914 z M 167.25,77.968838 C 166.0125,77.471424 165,76.313782 165,75.3963 c 0,-1.406133 0.7195,-1.569529 4.58079,-1.04028 5.2703,0.722374 8.41921,-0.550703 8.41921,-3.403814 0,-1.431634 -1.49469,-2.638449 -5.41532,-4.372339 -7.889,-3.48889 -9.82173,-8.433726 -5.13013,-13.125322 3.99945,-3.999454 15.80331,-3.174849 14.20422,0.992293 -0.49518,1.290423 -1.39843,1.505026 -4.15668,0.987577 C 173.7962,54.739184 171,56.103992 171,58.60805 c 0,0.749738 2.69204,2.722099 5.98232,4.383026 6.31975,3.190197 7.83892,5.600698 6.6116,10.490735 -1.1406,4.544534 -10.08898,7.001204 -16.34392,4.487027 z m 27.96877,-1.235966 C 193.28024,74.669403 193,73.278982 193,65.724504 c 0,-7.675275 -0.25275,-8.883512 -2.25,-10.755619 -2.01211,-1.886043 -2.08225,-2.233775 -0.66334,-3.288955 0.87266,-0.648961 2.12599,-2.19243 2.78518,-3.42993 1.55487,-2.918957 3.50198,-2.854611 5.4913,0.181469 0.91166,1.391362 2.77887,2.567727 4.36501,2.75 3.50565,0.402857 3.71231,3.18844 0.27185,3.664349 -4.23837,0.586283 -5,1.965456 -5,9.05412 C 198,71.231534 199.74164,75 203.13003,75 c 1.38026,0 1.91197,0.552223 1.68498,1.75 -0.54728,2.887896 -6.87772,2.876597 -9.59624,-0.01713 z m 22.28123,1.3131 c -4.39943,-1.819726 -6.85656,-5.827276 -7.29577,-11.899332 -0.71901,-9.940109 4.09783,-15.166007 13.9469,-15.131327 5.15812,0.01816 7.37408,1.173621 6.51988,3.399625 -0.48929,1.275085 -1.46188,1.482232 -4.60184,0.980132 -3.52748,-0.564066 -4.32848,-0.289602 -7.0253,2.407214 -4.29618,4.296178 -4.2944,10.101028 0.004,14.399834 2.6631,2.663097 3.55577,2.980202 7.06458,2.509572 3.0218,-0.405309 4.1602,-0.163701 4.59744,0.97573 0.31963,0.832936 -0.0469,1.912123 -0.81457,2.398192 -1.73513,1.098673 -9.70532,1.073186 -12.39572,-0.03964 z M 239,59 l 0,-20 2.5,0 2.5,0 0,20 0,20 -2.5,0 -2.5,0 0,-20 z m 15,6 0,-14 2.5,0 2.5,0 0,14 0,14 -2.5,0 -2.5,0 0,-14 z m 20.5,13.045972 c -4.39943,-1.819726 -6.85656,-5.827276 -7.29577,-11.899332 -0.71901,-9.940109 4.09783,-15.166007 13.9469,-15.131327 5.15812,0.01816 7.37408,1.173621 6.51988,3.399625 -0.48929,1.275085 -1.46188,1.482232 -4.60184,0.980132 -3.52748,-0.564066 -4.32848,-0.289602 -7.0253,2.407214 -4.29618,4.296178 -4.2944,10.101028 0.004,14.399834 2.6631,2.663097 3.55577,2.980202 7.06458,2.509572 3.0218,-0.405309 4.1602,-0.163701 4.59744,0.97573 0.31963,0.832936 -0.0469,1.912123 -0.81457,2.398192 -1.73513,1.098673 -9.70532,1.073186 -12.39572,-0.03964 z M 296,59 l 0,-20.139102 2.25,0.319551 c 2.16131,0.306956 2.26114,0.762979 2.53275,11.569551 0.15551,6.1875 0.63219,11.25 1.05928,11.25 0.42708,0 2.91328,-2.475 5.52487,-5.5 4.33179,-5.017495 7.21987,-6.579901 8.95515,-4.844612 0.36047,0.360464 -1.36453,3.019735 -3.83333,5.909492 C 310.01992,60.454638 308,63.351435 308,64.002209 c 0,0.650773 2.46262,3.904506 5.47249,7.230517 5.6735,6.269426 6.06635,7.767274 2.03717,7.767274 -1.65415,0 -3.95919,-1.82447 -7.61423,-6.026759 -2.88305,-3.314717 -5.58696,-5.677217 -6.00868,-5.25 C 301.46503,68.150459 300.98049,70.75 300.81,73.5 c -0.2673,4.311246 -0.61994,5.044018 -2.56,5.319551 L 296,79.139102 296,59 Z m 30,17 c 0,-2.642012 0.34522,-3 2.89301,-3 1.64908,0 3.14051,0.64497 3.46862,1.5 1.00342,2.614868 -0.44965,4.5 -3.46862,4.5 C 326.34522,79 326,78.642012 326,76 Z m 33.25,1.968838 C 358.0125,77.471424 357,76.313782 357,75.3963 c 0,-1.406133 0.7195,-1.569529 4.58079,-1.04028 5.2703,0.722374 8.41921,-0.550703 8.41921,-3.403814 0,-1.431634 -1.49469,-2.638449 -5.41532,-4.372339 -7.889,-3.48889 -9.82173,-8.433726 -5.13013,-13.125322 3.99945,-3.999454 15.80331,-3.174849 14.20422,0.992293 -0.49518,1.290423 -1.39843,1.505026 -4.15668,0.987577 C 365.7962,54.739184 363,56.103992 363,58.60805 c 0,0.749738 2.69204,2.722099 5.98232,4.383026 6.31975,3.190197 7.83892,5.600698 6.6116,10.490735 -1.1406,4.544534 -10.08898,7.001204 -16.34392,4.487027 z M 254,43.5 c 0,-2 0.5,-2.5 2.5,-2.5 2,0 2.5,0.5 2.5,2.5 0,2 -0.5,2.5 -2.5,2.5 -2,0 -2.5,-0.5 -2.5,-2.5 z m 89,0 c 0,-2.164862 0.40432,-2.581679 2.25,-2.319551 1.47682,0.209741 2.25,1.006825 2.25,2.319551 0,1.312726 -0.77318,2.10981 -2.25,2.319551 C 343.40432,46.081679 343,45.664862 343,43.5 Z"
       id="path4996"
       inkscape:connector-curvature="0" />
    <path
       style="fill:#878787"
       d="m 334.07389,87.589028 c -1.52732,-1.840303 0.38502,-3.124414 4.07634,-2.737218 1.45829,0.152966 3.03356,-0.313615 3.5006,-1.036846 C 342.11787,83.091734 342.725,75.525 343,67 c 0.47312,-14.666667 0.60753,-15.5 2.5,-15.5 1.90679,0 2.01281,0.75829 2.27487,16.270585 0.27289,16.153444 0.25702,16.288435 -2.20455,18.75 -2.83294,2.832947 -9.51652,3.454097 -11.49643,1.068443 z M 119.70124,78.367903 C 119.31556,77.982223 119,72.846554 119,66.955305 119,56.994478 118.84234,56.130294 116.75,54.621972 L 114.5,53 116.75,51.378028 C 118.20037,50.332487 119,48.717082 119,46.832573 119,42.504383 122.95158,39 127.8321,39 c 4.26725,0 7.61727,2.486207 5.28895,3.925186 -0.68769,0.425015 -2.27523,0.576836 -3.52786,0.337379 -2.84573,-0.543995 -5.80431,2.255178 -5.39641,5.10565 0.21068,1.472272 1.21876,2.276473 3.30322,2.635175 1.74982,0.301116 3,1.133156 3,1.99661 0,0.8633 -1.25049,1.695837 -3,1.997303 l -3,0.516944 -0.5,11.481898 c -0.40533,9.307824 -0.79326,11.53786 -2.04876,11.777447 -0.85182,0.162551 -1.86432,-0.02001 -2.25,-0.405689 z M 137.63486,76.92742 C 135.90258,75.564809 135,73.889992 135,72.038204 c 0,-4.571726 2.94486,-7.189325 9.57785,-8.513475 6.55439,-1.308459 7.92259,-3.209279 4.79645,-6.663627 -1.50385,-1.661734 -2.57299,-1.883916 -6.47981,-1.346591 -2.6767,0.368141 -4.93419,0.23027 -5.27563,-0.322199 -1.08512,-1.755757 2.42284,-3.531225 7.86939,-3.982895 4.74687,-0.393647 5.66423,-0.147847 7.93938,2.1273 2.37878,2.378785 2.57237,3.243894 2.57237,11.495384 0,6.711613 0.37175,9.231531 1.5,10.167899 0.825,0.684689 1.5,1.864789 1.5,2.622445 0,1.819766 -4.41686,1.785122 -5.93703,-0.04657 -1.0226,-1.232165 -1.64134,-1.232165 -4.59032,0 -4.70496,1.965857 -7.74551,1.783932 -10.83779,-0.648456 z m 11.14263,-3.484124 c 2.29334,-1.606315 3.0209,-5.831831 1.19811,-6.958375 C 147.53655,64.977505 140,68.388641 140,71 c 0,1.473259 3.06299,4 4.84892,4 0.93834,0 2.7062,-0.700517 3.92857,-1.556704 z m 19.33471,4.291962 C 164.4376,75.834316 165.95103,74.5 171.78174,74.5 c 3.60511,0 5.58395,-0.476161 6.23375,-1.5 1.47992,-2.331809 0.74646,-3.287076 -4.85926,-6.32874 -6.78756,-3.68293 -8.81932,-6.656199 -7.20752,-10.547441 1.40562,-3.393464 4.75256,-5.129579 9.84834,-5.108506 4.33883,0.01794 6.6293,1.205636 5.99497,3.108616 -0.29999,0.899983 -1.70143,1.24757 -4.17191,1.034726 C 173.7537,54.825544 171,56.26035 171,58.60805 c 0,0.749738 2.69204,2.722099 5.98232,4.383026 6.31975,3.190197 7.83892,5.600698 6.6116,10.490735 -1.16901,4.65772 -10.0067,7.085786 -15.48172,4.253447 z M 195.51666,76.60757 C 193.19746,74.288371 193,73.378723 193,65.01407 193,57.868259 192.68089,55.814775 191.5,55.361626 190.675,55.045044 190,53.982312 190,53 c 0,-0.982312 0.675,-2.045044 1.5,-2.361626 0.825,-0.316583 1.5,-1.216583 1.5,-2 0,-2.700435 3.25868,-2.841059 5.43183,-0.234403 1.13749,1.364411 3.19317,2.619186 4.56817,2.788388 1.41883,0.174596 2.5,0.956345 2.5,1.807641 0,0.841115 -1.09814,1.651903 -2.5,1.845818 -4.23837,0.586283 -5,1.965456 -5,9.05412 C 198,71.231534 199.74164,75 203.13003,75 c 1.38021,0 1.912,0.552265 1.6851,1.75 -0.55704,2.940538 -6.30352,2.852516 -9.29847,-0.14243 z m 21.56815,0.640876 c -9.50449,-4.865926 -9.24476,-20.776706 0.40497,-24.808622 6.09163,-2.545245 14.366,-1.50715 13.30711,1.669498 -0.3016,0.904819 -1.80422,1.242627 -4.62231,1.039155 -3.52067,-0.254201 -4.6458,0.168893 -7.175,2.6981 C 216.62963,60.216519 216,61.718079 216,65 c 0,3.281921 0.62963,4.783481 2.99958,7.153423 2.5292,2.529207 3.65433,2.952301 7.175,2.6981 2.81809,-0.203472 4.32071,0.134336 4.62231,1.039155 1.11504,3.345111 -8.05639,4.253264 -13.71208,1.357768 z m 22.3604,0.46938 c -0.2706,-0.705195 -0.36898,-9.592695 -0.21861,-19.75 0.27086,-18.296159 0.29431,-18.470796 2.5234,-18.787377 l 2.25,-0.319551 0,20.069551 C 244,78.436691 243.94298,79 241.96862,79 c -1.11727,0 -2.2528,-0.576978 -2.52341,-1.282174 z m 14.99106,-0.0233 c -0.27552,-0.718008 -0.3739,-6.905508 -0.21861,-13.75 0.27329,-12.045784 0.35443,-12.45477 2.53234,-12.764082 2.24186,-0.318395 2.25,-0.26866 2.25,13.75 C 259,78.405791 258.91421,79 256.96862,79 c -1.11727,0 -2.25682,-0.587461 -2.53235,-1.305469 z m 19.64854,-0.446085 c -9.50449,-4.865926 -9.24476,-20.776706 0.40497,-24.808622 6.09163,-2.545245 14.366,-1.50715 13.30711,1.669498 -0.3016,0.904819 -1.80422,1.242627 -4.62231,1.039155 -3.52067,-0.254201 -4.6458,0.168893 -7.175,2.6981 C 273.62963,60.216519 273,61.718079 273,65 c 0,3.281921 0.62963,4.783481 2.99958,7.153423 2.5292,2.529207 3.65433,2.952301 7.175,2.6981 2.81809,-0.203472 4.32071,0.134336 4.62231,1.039155 1.11504,3.345111 -8.05639,4.253264 -13.71208,1.357768 z m 22.38876,0.543287 C 296.18737,77.045889 296.07623,68.125131 296.2266,57.967826 296.48878,40.2578 296.58207,39.5 298.5,39.5 c 1.86473,0 2.01912,0.760917 2.28275,11.25 0.20232,8.049743 0.62902,11.236541 1.5,11.202686 0.66949,-0.02602 3.18041,-2.501022 5.57982,-5.5 3.97969,-4.974125 6.72552,-6.531262 8.45948,-4.797298 0.36047,0.360464 -1.36453,3.019735 -3.83333,5.909492 C 310.01992,60.454638 308,63.351435 308,64.002209 c 0,0.650773 2.46262,3.904506 5.47249,7.230517 3.00986,3.326011 5.23331,6.434289 4.94098,6.907284 -1.35669,2.195172 -4.88098,0.392245 -10.10052,-5.167142 -3.11228,-3.314923 -6.0039,-5.677423 -6.42582,-5.25 -0.42193,0.427422 -0.90664,3.023084 -1.07713,5.768138 -0.23677,3.811931 -0.72413,5.06965 -2.06302,5.323906 -0.96417,0.183096 -1.9872,-0.277335 -2.27341,-1.023179 z M 326.36163,77.5 c -0.9446,-2.46159 0.41434,-4.5 3,-4.5 1.33341,0 2.68341,0.675 3,1.5 0.9446,2.46159 -0.41434,4.5 -3,4.5 -1.33342,0 -2.68342,-0.675 -3,-1.5 z m 33.75057,0.235258 C 356.4376,75.834316 357.95103,74.5 363.78174,74.5 c 3.60511,0 5.58395,-0.476161 6.23375,-1.5 1.47992,-2.331809 0.74646,-3.287076 -4.85926,-6.32874 -6.78756,-3.68293 -8.81932,-6.656199 -7.20752,-10.547441 1.40562,-3.393464 4.75256,-5.129579 9.84834,-5.108506 4.33883,0.01794 6.6293,1.205636 5.99497,3.108616 -0.29999,0.899983 -1.70143,1.24757 -4.17191,1.034726 C 365.7537,54.825544 363,56.26035 363,58.60805 c 0,0.749738 2.69204,2.722099 5.98232,4.383026 6.31975,3.190197 7.83892,5.600698 6.6116,10.490735 -1.16901,4.65772 -10.0067,7.085786 -15.48172,4.253447 z M 254.38,44.547887 C 253.6046,42.527215 254.7578,41 257.05902,41 258.46273,41 259,41.692005 259,43.5 c 0,1.846208 -0.53124,2.5 -2.03138,2.5 -1.11727,0 -2.28214,-0.653451 -2.58862,-1.452113 z m 88.98419,-0.0412 C 343.01783,43.604071 343.21394,42.386061 343.8,41.8 c 1.52361,-1.523609 4.41041,-0.131088 4.01242,1.935492 -0.4433,2.301882 -3.64766,2.857428 -4.44823,0.771197 z"
       id="path4994"
       inkscape:connector-curvature="0" />
    <path
       style="fill:#757575"
       d="M 334.13112,87.657991 C 332.61607,85.832471 333.70491,85 337.60765,85 c 1.80087,0 3.63837,-0.5625 4.08333,-1.25 C 342.13594,83.0625 342.725,75.525 343,67 c 0.47312,-14.666667 0.60753,-15.5 2.5,-15.5 1.91839,0 2,0.666667 2,16.338415 l 0,16.338415 -2.80576,2.411585 c -3.12323,2.68445 -8.75004,3.254197 -10.56312,1.069576 z M 119.70124,78.367903 C 119.31556,77.982223 119,72.846554 119,66.955305 119,56.994478 118.84234,56.130294 116.75,54.621972 L 114.5,53 l 2.25,-1.621972 c 1.45037,-1.045541 2.25,-2.660946 2.25,-4.545455 0,-5.579199 6.64019,-9.442819 12.41821,-7.225584 C 134.38514,40.745505 133.19194,43 129.62244,43 c -3.90781,0 -5.91509,1.911252 -5.4492,5.188527 0.2368,1.665785 1.15268,2.44074 3.32676,2.814863 1.74982,0.301116 3,1.133156 3,1.99661 0,0.8633 -1.25049,1.695837 -3,1.997303 l -3,0.516944 -0.5,11.481898 c -0.40533,9.307824 -0.79326,11.53786 -2.04876,11.777447 -0.85182,0.162551 -1.86432,-0.02001 -2.25,-0.405689 z M 137.63486,76.92742 C 135.90258,75.564809 135,73.889992 135,72.038204 c 0,-4.571726 2.94486,-7.189325 9.57785,-8.513475 6.57675,-1.312922 7.92161,-3.208046 4.7598,-6.707343 -1.52399,-1.686664 -2.64365,-1.938599 -6.55979,-1.476011 -5.00103,0.59074 -6.70538,-0.326714 -4.30607,-2.317964 2.21551,-1.838706 9.13876,-2.427369 12.44443,-1.058113 3.83352,1.587897 5.08378,5.309868 5.08378,15.134235 0,6.191293 0.3385,7.990523 1.6404,8.7191 C 159.54388,76.883872 158.63215,79 156.26972,79 c -0.88673,0 -2.42178,-0.732627 -3.41123,-1.628061 -1.66199,-1.50408 -2.06025,-1.50408 -5.22987,0 -4.54042,2.154574 -6.81836,2.053252 -9.99376,-0.444519 z m 11.19973,-3.524113 c 3.35603,-2.350656 2.64992,-6.790446 -1.14923,-7.225966 C 144.2818,65.787169 140,68.375466 140,70.823053 c 0,4.075608 4.72814,5.456522 8.83459,2.580254 z m 19.27761,4.331951 c -3.76625,-1.948356 -2.51052,-3.266637 2.76879,-2.906706 3.52335,0.240214 5.27468,-0.127081 6.51367,-1.366072 2.40777,-2.407771 1.67434,-3.58295 -4.23843,-6.79122 -6.78756,-3.68293 -8.81932,-6.656199 -7.20752,-10.547441 1.88791,-4.557807 9.26867,-6.6834 14.14504,-4.073646 C 183.04979,53.632196 181.41281,55 176.56343,55 c -8.10084,0 -8.43733,4.539012 -0.57859,7.804956 8.60756,3.577142 10.34657,10.193114 3.73832,14.222325 -3.67318,2.23963 -8.12544,2.511106 -11.61096,0.707977 z m 27.34235,-1.189803 C 193.20904,74.299952 193,73.317874 193,65.01407 193,57.868259 192.68089,55.814775 191.5,55.361626 190.675,55.045044 190,53.982312 190,53 c 0,-0.982312 0.675,-2.045044 1.5,-2.361626 0.825,-0.316583 1.5,-1.216583 1.5,-2 C 193,47.44266 194.97205,46 196.60654,46 c 0.24363,0 0.85846,1.092856 1.3663,2.428569 0.61864,1.627153 1.84796,2.534639 3.72525,2.75 3.8084,0.436894 3.66751,3.152672 -0.19809,3.818601 -2.99837,0.51653 -3.00016,0.521012 -3.29184,8.247383 C 197.89258,71.603969 198.98112,75 201.97617,75 c 2.46696,0 3.67796,1.97158 1.90195,3.096491 -2.49079,1.577634 -5.92775,0.944784 -8.42357,-1.551036 z m 21.63026,0.702991 c -6.61496,-3.3866 -9.13418,-13.374812 -5.05918,-20.058622 3.16695,-5.194407 11.99732,-7.853461 17.06812,-5.139651 C 232.08464,53.650852 230.39321,55 225.39553,55 218.94565,55 216,58.135162 216,65 c 0,7.085912 2.90084,10 9.95455,10 5.22822,0 6.45917,1.173032 3.11119,2.964816 -2.91092,1.557876 -8.15067,1.244578 -11.98093,-0.71637 z m 22.38876,0.543287 C 239.18737,77.045889 239.07623,68.125131 239.2266,57.967826 239.48878,40.2578 239.58207,39.5 241.5,39.5 c 1.93158,0 2,0.666667 2,19.486305 0,17.776137 -0.15385,19.515934 -1.75302,19.823907 -0.96417,0.18568 -1.9872,-0.272635 -2.27341,-1.018479 z m 14.99107,-0.02329 c -0.29113,-0.758662 -0.40227,-6.97942 -0.24698,-13.823912 C 254.48274,52.26078 254.62227,51.5 256.5,51.5 c 1.90113,0 2,0.666667 2,13.486305 0,12.057908 -0.18567,13.522062 -1.75302,13.823907 -0.96417,0.18568 -1.99122,-0.283118 -2.28234,-1.041774 z m 19.62017,-0.519992 c -6.61496,-3.3866 -9.13418,-13.374812 -5.05918,-20.058622 3.16695,-5.194407 11.99732,-7.853461 17.06812,-5.139651 C 289.08464,53.650852 287.39321,55 282.39553,55 275.94565,55 273,58.135162 273,65 c 0,7.085912 2.90084,10 9.95455,10 5.22822,0 6.45917,1.173032 3.11119,2.964816 -2.91092,1.557876 -8.15067,1.244578 -11.98093,-0.71637 z m 22.38876,0.543287 C 296.18737,77.045889 296.07623,68.125131 296.2266,57.967826 296.48878,40.2578 296.58207,39.5 298.5,39.5 c 1.86034,0 2.03492,0.833333 2.5,11.933565 0.56259,13.427493 0.0896,13.17511 7.57384,4.041631 C 311.95835,51.344846 316,49.506035 316,52.09655 c 0,0.603103 -1.8,3.141458 -4,5.64079 -2.2,2.499332 -4,5.291057 -4,6.203833 0,0.912776 2.25,4.184036 5,7.269467 5.43724,6.100447 6.08464,7.78936 2.98582,7.78936 -1.16919,0 -4.37741,-2.517108 -7.64739,-6 -3.09827,-3.3 -5.99443,-6 -6.43592,-6 -0.44149,0 -0.93766,2.583127 -1.10261,5.740282 -0.23678,4.532074 -0.66887,5.810502 -2.05292,6.073906 -0.96417,0.183494 -1.9872,-0.276611 -2.27341,-1.022455 z m 29.91497,-0.221596 c -0.99567,-2.594671 0.39988,-4.739185 2.85699,-4.390274 C 330.89826,73.414553 331.5,74.167272 331.5,76 c 0,1.832728 -0.60174,2.585447 -2.25447,2.820137 -1.35228,0.192025 -2.49559,-0.308199 -2.85699,-1.25 z m 33.72366,0.165121 c -3.76625,-1.948356 -2.51052,-3.266637 2.76879,-2.906706 3.52335,0.240214 5.27468,-0.127081 6.51367,-1.366072 2.40777,-2.407771 1.67434,-3.58295 -4.23843,-6.79122 -6.78756,-3.68293 -8.81932,-6.656199 -7.20752,-10.547441 1.88791,-4.557807 9.26867,-6.6834 14.14504,-4.073646 C 375.04979,53.632196 373.41281,55 368.56343,55 c -8.10084,0 -8.43733,4.539012 -0.57859,7.804956 8.60756,3.577142 10.34657,10.193114 3.73832,14.222325 -3.67318,2.23963 -8.12544,2.511106 -11.61096,0.707977 z M 254.36419,44.506689 C 254.01783,43.604071 254.21394,42.386061 254.8,41.8 c 1.52361,-1.523609 4.41041,-0.131088 4.01242,1.935492 -0.4433,2.301882 -3.64766,2.857428 -4.44823,0.771197 z m 89,0 C 343.01783,43.604071 343.21394,42.386061 343.8,41.8 c 1.52361,-1.523609 4.41041,-0.131088 4.01242,1.935492 -0.4433,2.301882 -3.64766,2.857428 -4.44823,0.771197 z"
       id="path4992"
       inkscape:connector-curvature="0" />
    <path
       style="fill:#6f6f6f"
       d="M 335.25,88.337719 C 332.59307,87.265623 333.98459,85 337.3,85 c 5.37577,0 5.69848,-0.957061 5.71531,-16.95 0.0158,-15.036806 0.58714,-17.800269 3.45265,-16.70067 1.48289,0.569038 1.63411,2.442282 1.35092,16.734632 L 347.5,84.177831 l -2.80576,2.411084 c -2.60959,2.242501 -6.45572,2.954696 -9.44424,1.748804 z M 119.62583,77.467305 C 119.28162,76.570321 119,71.521163 119,66.246953 c 0,-7.51978 -0.3572,-9.984168 -1.65499,-11.418212 -1.49479,-1.651724 -1.50556,-1.998137 -0.11129,-3.578741 0.84903,-0.9625 1.85333,-3.207016 2.23177,-4.987814 1.14247,-5.376047 6.91308,-8.589088 11.95272,-6.655197 C 134.38514,40.745505 133.19194,43 129.62244,43 c -3.90781,0 -5.91509,1.911252 -5.4492,5.188527 0.2368,1.665785 1.15268,2.44074 3.32676,2.814863 1.74982,0.301116 3,1.133156 3,1.99661 0,0.8633 -1.25049,1.695837 -3,1.997303 l -3,0.516944 -0.5,11.481898 c -0.41584,9.549219 -0.77339,11.534091 -2.12417,11.791969 -0.8933,0.170539 -1.9058,-0.423826 -2.25,-1.320809 z m 19.68954,0.525715 C 136.99246,77.057099 135,74.115287 135,71.621505 c 0,-3.200882 4.48034,-6.790918 10.02867,-8.035843 4.43811,-0.995816 5.53304,-1.649529 5.79809,-3.461697 0.58417,-3.993868 -1.6542,-5.421581 -7.54649,-4.813442 -6.42529,0.663148 -7.48967,-1.602933 -1.53027,-3.257942 4.79931,-1.332835 6.57523,-1.31715 9.65317,0.08525 3.34564,1.524375 4.59683,5.59673 4.59683,14.961697 0,6.386783 0.31727,7.9801 1.75,8.788498 1.41467,0.798208 1.50707,1.232697 0.48219,2.267502 -1.02953,1.039504 -1.88374,0.948391 -4.54498,-0.484783 -2.99545,-1.613155 -3.5312,-1.632409 -6.23219,-0.223972 -3.30368,1.722711 -4.94614,1.832935 -8.13965,0.546242 z m 10.07929,-4.292334 c 1.18217,-0.864423 1.66452,-2.286931 1.44113,-4.25 -0.27228,-2.392621 -0.86812,-3.011711 -3.15043,-3.273345 -5.41459,-0.620709 -9.69624,4.411783 -6.48536,7.622659 1.58302,1.583021 5.96658,1.529896 8.19466,-0.09931 z m 19.61059,4.405789 c -1.37211,-0.381791 -2.6392,-1.444238 -2.81575,-2.360993 -0.27715,-1.439122 0.3686,-1.585153 4.72699,-1.068967 C 176.43232,75.329784 179,74.117927 179,70.861377 179,69.642118 177.66439,68.361832 175.25,67.266701 167.97629,63.96746 166,62.11299 166,58.586893 c 0,-4.1324 2.62772,-6.593144 7.77823,-7.283973 4.09414,-0.549139 8.70918,1.09942 7.69076,2.747253 C 181.14613,54.572578 178.93862,55 176.56343,55 c -8.10084,0 -8.43733,4.539012 -0.57859,7.804956 8.60756,3.577142 10.34657,10.193114 3.73832,14.222325 -3.29405,2.008467 -6.29298,2.310431 -10.71791,1.079194 z m 27.36529,-1.46417 c -2.54821,-2.191883 -2.77252,-3.017358 -3.18943,-11.737503 -0.33764,-7.061949 -0.84787,-9.691785 -2.06478,-10.642305 -1.48129,-1.157015 -1.47012,-1.376146 0.13367,-2.62274 0.9625,-0.748133 1.75,-1.8573 1.75,-2.464816 0,-0.607515 0.90425,-1.588515 2.00945,-2.179999 1.70513,-0.912557 2.1516,-0.701536 2.94809,1.393385 0.63379,1.666991 1.84864,2.573205 3.74055,2.790242 3.8084,0.436894 3.66751,3.152672 -0.19809,3.818601 -2.99837,0.51653 -3.00016,0.521012 -3.29184,8.247383 C 197.89258,71.603969 198.98112,75 201.97617,75 c 2.46696,0 3.67796,1.97158 1.90195,3.096491 -2.31374,1.465495 -4.63624,1.015638 -7.50758,-1.454186 z m 20.93379,0.401698 c -3.9046,-2.380787 -5.95039,-5.415065 -6.80354,-10.090866 -0.81445,-4.463733 1.74662,-11.230002 5.07643,-13.411777 3.30425,-2.165028 10.60886,-3.047324 13.30093,-1.606571 C 232.06699,53.641401 230.52337,55 225.39553,55 218.94565,55 216,58.135162 216,65 c 0,7.085912 2.90084,10 9.95455,10 5.22822,0 6.45917,1.173032 3.11119,2.964816 -3.02996,1.621586 -8.26378,1.211825 -11.76141,-0.920813 z M 240.2125,77.8125 C 239.35395,76.953953 239,71.439567 239,58.922445 c 0,-14.709318 0.25898,-17.892491 1.54238,-18.957619 3.03104,-2.515534 3.50762,0.365126 3.23034,19.525389 -0.26908,18.593189 -0.76046,21.122043 -3.56022,18.322285 z m 15,0 c -1.94083,-1.940835 -1.65677,-24.198903 0.32988,-25.847674 2.87825,-2.388735 3.52802,0.32659 3.23876,13.534516 -0.2769,12.643518 -0.94232,14.939475 -3.56864,12.313158 z m 19.09183,-0.768497 c -3.9046,-2.380787 -5.95039,-5.415065 -6.80354,-10.090866 -0.81445,-4.463733 1.74662,-11.230002 5.07643,-13.411777 3.30425,-2.165028 10.60886,-3.047324 13.30093,-1.606571 C 289.06699,53.641401 287.52337,55 282.39553,55 275.94565,55 273,58.135162 273,65 c 0,7.085912 2.90084,10 9.95455,10 5.22822,0 6.45917,1.173032 3.11119,2.964816 -3.02996,1.621586 -8.26378,1.211825 -11.76141,-0.920813 z m 22.3215,0.423302 c -0.96641,-2.518423 -0.70947,-35.786839 0.28856,-37.363022 0.48607,-0.767645 1.60418,-1.119268 2.48469,-0.781385 C 300.7389,39.837038 301,41.817894 301,51.468615 301,57.810877 301.34989,63 301.77754,63 c 0.42765,0 3.15418,-2.7 6.05896,-6 4.89879,-5.565315 8.1635,-7.526278 8.1635,-4.90345 0,0.603103 -1.8,3.141458 -4,5.64079 -2.2,2.499332 -4,5.291057 -4,6.203833 0,0.912776 2.25,4.184036 5,7.269467 5.40179,6.060678 6.08191,7.78936 3.06458,7.78936 -1.12682,0 -4.33885,-2.720626 -7.6881,-6.511904 -3.16397,-3.581547 -6.09225,-6.169047 -6.50729,-5.75 -0.41504,0.419047 -0.8929,3.232689 -1.06191,6.252538 -0.23022,4.113635 -0.71461,5.567993 -1.93145,5.799092 -0.8933,0.169652 -1.9058,-0.425438 -2.25,-1.322421 z m 30.03283,0.08557 c -0.96061,-2.503322 0.40188,-4.686298 2.71862,-4.355744 C 330.89408,73.413547 331.5,74.213609 331.5,76 c 0,2.913686 -3.84579,4.147233 -4.84134,1.552872 z m 34.34659,0.553603 c -1.37211,-0.381791 -2.6392,-1.444238 -2.81575,-2.360993 -0.27715,-1.439122 0.3686,-1.585153 4.72699,-1.068967 C 368.43232,75.329784 371,74.117927 371,70.861377 371,69.642118 369.66439,68.361832 367.25,67.266701 359.97629,63.96746 358,62.11299 358,58.586893 c 0,-4.1324 2.62772,-6.593144 7.77823,-7.283973 4.09414,-0.549139 8.70918,1.09942 7.69076,2.747253 C 373.14613,54.572578 370.93862,55 368.56343,55 c -8.10084,0 -8.43733,4.539012 -0.57859,7.804956 8.60756,3.577142 10.34657,10.193114 3.73832,14.222325 -3.29405,2.008467 -6.29298,2.310431 -10.71791,1.079194 z M 255.11011,44.632679 c -0.8645,-1.041662 -0.76448,-1.674636 0.41994,-2.657619 1.91131,-1.586242 4.04413,0.08628 3.13412,2.457723 -0.7407,1.930238 -2.05658,2.004249 -3.55406,0.199896 z m 88.60824,0.07573 c -0.29332,-0.764376 -0.17036,-1.977041 0.27325,-2.694809 1.12175,-1.815045 4.23204,-0.413366 3.82082,1.721893 -0.41574,2.158771 -3.36965,2.860738 -4.09407,0.972916 z"
       id="path4990"
       inkscape:connector-curvature="0" />
    <path
       style="fill:#5c5c5c"
       d="M 335.25,88.337719 C 332.59307,87.265623 333.98459,85 337.3,85 c 5.37577,0 5.69848,-0.957061 5.71531,-16.95 0.015,-14.281127 0.65603,-17.98919 2.87289,-16.619098 1.1953,0.738735 1.6308,30.05303 0.49062,33.024296 -1.18847,3.097112 -7.56348,5.321167 -11.12882,3.882521 z M 119.62321,77.460477 C 119.28044,76.567248 119,71.521163 119,66.246953 c 0,-7.51978 -0.3572,-9.984168 -1.65499,-11.418212 -1.49479,-1.651724 -1.50556,-1.998137 -0.11129,-3.578741 0.84903,-0.9625 1.85333,-3.207016 2.23177,-4.987814 1.19324,-5.614991 6.97375,-8.703032 11.62826,-6.212013 C 133.85348,41.527134 132.51658,43 128.41623,43 c -2.83628,0 -3.65027,0.485371 -4.48179,2.672449 -1.36753,3.59687 -0.60494,5.119966 2.7565,5.50543 3.81467,0.437437 3.67894,3.152587 -0.19094,3.819424 l -3,0.516944 -0.5,11.412478 c -0.3139,7.164801 -0.91939,11.551181 -1.62679,11.785141 -0.61974,0.204964 -1.40724,-0.358161 -1.75,-1.251389 z m 19.69216,0.532543 C 136.99246,77.057099 135,74.115287 135,71.621505 c 0,-3.200882 4.48034,-6.790918 10.02867,-8.035843 4.43811,-0.995816 5.53304,-1.649529 5.79809,-3.461697 0.57648,-3.941325 -1.64745,-5.386495 -7.53747,-4.898049 C 139.40315,55.548185 138,55.321344 138,54.370817 c 0,-1.736307 7.44272,-3.652126 11.08244,-2.852711 4.67611,1.027047 5.91756,3.833139 5.91756,13.37566 0,6.501742 0.38632,8.87563 1.67637,10.301122 2.63159,2.90787 0.28717,4.487359 -3.41474,2.300588 -2.70609,-1.598523 -3.14621,-1.606524 -6.04053,-0.109811 -3.47465,1.796812 -4.71673,1.892234 -7.90573,0.607355 z m 10.07929,-4.292334 c 1.18217,-0.864423 1.66452,-2.286931 1.44113,-4.25 -0.39117,-3.437369 -3.28422,-4.336007 -7.85888,-2.441122 -3.3677,1.394949 -4.35073,3.42343 -2.93814,6.062878 1.21651,2.273069 6.61106,2.635311 9.35589,0.628244 z m 19.61059,4.405789 c -1.37211,-0.381791 -2.6392,-1.444238 -2.81575,-2.360993 -0.27715,-1.439122 0.3686,-1.585153 4.72699,-1.068967 C 176.43232,75.329784 179,74.117927 179,70.861377 179,69.642118 177.66439,68.361832 175.25,67.266701 167.97629,63.96746 166,62.11299 166,58.586893 c 0,-3.981813 2.48521,-6.466817 7.23882,-7.238222 3.51402,-0.570248 7.76118,0.899894 7.76118,2.686513 0,0.530649 -1.9125,0.971707 -4.25,0.980129 -8.85763,0.03191 -9.11213,4.064811 -0.51655,8.185658 6.08631,2.917867 7.591,5.378041 6.33937,10.364927 -1.02653,4.08999 -7.45505,6.241387 -13.56757,4.540577 z m 27.42809,-1.410156 c -2.62329,-2.256455 -2.83265,-3.015538 -3.25223,-11.791517 -0.33764,-7.061949 -0.84787,-9.691785 -2.06478,-10.642305 -1.46231,-1.142193 -1.46749,-1.38161 -0.0544,-2.512497 0.85909,-0.6875 1.85746,-2.0375 2.21862,-3 0.87878,-2.342004 3.43346,-2.226294 4.20045,0.190253 0.40738,1.283563 1.6994,2.045089 3.81738,2.25 4.37064,0.422852 4.33598,3.200346 -0.0452,3.622866 -3.95548,0.381465 -4.7593,2.668999 -3.97545,11.313452 C 197.86616,72.615597 199.1877,75 202.19577,75 c 1.31838,0 1.84274,0.567375 1.61734,1.75 -0.50854,2.668182 -4.24703,2.640988 -7.37977,-0.05368 z m 20.87099,0.347684 c -3.9046,-2.380787 -5.95039,-5.415065 -6.80354,-10.090866 -0.80846,-4.430951 1.73915,-11.225107 5.0136,-13.37061 3.29653,-2.159968 9.78373,-3.028532 12.35235,-1.653843 C 231.36238,53.79949 230.30997,55 225.17431,55 218.54185,55 215.5,58.144249 215.5,65 c 0,6.855751 3.04185,10 9.67431,10 3.44201,0 4.82569,0.396656 4.82569,1.383369 0,3.017156 -8.13648,3.440547 -12.69567,0.660634 z m 22.85575,0.716078 c -1.7724,-1.772401 -1.60622,-36.144931 0.18193,-37.62896 0.7381,-0.612573 1.6381,-0.817673 2,-0.455778 0.9743,0.974301 0.7998,38.11898 -0.18193,38.725721 -0.46195,0.285504 -1.36195,-0.0029 -2,-0.640983 z m 15,0 c -1.73636,-1.736366 -1.57713,-24.169074 0.18193,-25.62896 0.7381,-0.612573 1.6381,-0.817673 2,-0.455778 0.972,0.972001 0.80082,26.118347 -0.18193,26.725721 -0.46195,0.285504 -1.36195,-0.0029 -2,-0.640983 z m 19.14425,-0.716078 c -3.9046,-2.380787 -5.95039,-5.415065 -6.80354,-10.090866 -0.80846,-4.430951 1.73915,-11.225107 5.0136,-13.37061 3.29653,-2.159968 9.78373,-3.028532 12.35235,-1.653843 C 288.36238,53.79949 287.30997,55 282.17431,55 275.54185,55 272.5,58.144249 272.5,65 c 0,6.855751 3.04185,10 9.67431,10 3.44201,0 4.82569,0.396656 4.82569,1.383369 0,3.017156 -8.13648,3.440547 -12.69567,0.660634 z m 22.31888,0.416474 c -0.95832,-2.497324 -0.70848,-35.7775 0.2803,-37.338592 C 298.97946,36.844365 300,40.429582 300,51 c 0,6.826182 0.4094,11.13499 1.09845,11.560848 0.62162,0.384181 3.57513,-2.055982 6.80381,-5.621256 3.58914,-3.963315 6.15073,-6.024876 6.90611,-5.558025 0.83316,0.51492 -0.17828,2.435029 -3.3038,6.271941 -2.47751,3.041406 -4.50457,5.9803 -4.50457,6.530877 0,0.550576 2.46262,3.72233 5.47249,7.048341 3.00986,3.326011 5.23331,6.434289 4.94098,6.907284 -1.22596,1.983648 -3.60901,0.492446 -9.04295,-5.658659 -3.16725,-3.585256 -6.2338,-6.362724 -6.81457,-6.17215 C 300.97518,66.499774 300.275,69.285634 300,72.5 c -0.49072,5.735796 -2.14612,8.167564 -3.37679,4.960477 z M 326.63837,77.5 C 325.78184,75.267921 326.97206,73 329,73 c 2.02794,0 3.21816,2.267921 2.36163,4.5 -0.31659,0.825 -1.37932,1.5 -2.36163,1.5 -0.98231,0 -2.04504,-0.675 -2.36163,-1.5 z m 34.36688,0.606475 c -1.37211,-0.381791 -2.6392,-1.444238 -2.81575,-2.360993 -0.27715,-1.439122 0.3686,-1.585153 4.72699,-1.068967 C 368.43232,75.329784 371,74.117927 371,70.861377 371,69.642118 369.66439,68.361832 367.25,67.266701 359.97629,63.96746 358,62.11299 358,58.586893 c 0,-3.981813 2.48521,-6.466817 7.23882,-7.238222 3.51402,-0.570248 7.76118,0.899894 7.76118,2.686513 0,0.530649 -1.9125,0.971707 -4.25,0.980129 -8.85763,0.03191 -9.11213,4.064811 -0.51655,8.185658 6.08631,2.917867 7.591,5.378041 6.33937,10.364927 -1.02653,4.08999 -7.45505,6.241387 -13.56757,4.540577 z M 255.14529,44.67506 c -0.90806,-1.09414 -0.83407,-1.688464 0.33055,-2.655005 1.22418,-1.015983 1.6192,-0.935963 2.14511,0.434538 0.89712,2.337848 -0.98055,4.021964 -2.47566,2.220467 z m 88.55422,-0.01574 c -0.28296,-0.737376 -0.12484,-1.971114 0.35137,-2.741641 1.16692,-1.888118 3.45714,0.316059 2.61329,2.515108 -0.73691,1.920348 -2.26974,2.037473 -2.96466,0.226533 z"
       id="path4988"
       inkscape:connector-curvature="0" />
    <path
       style="fill:#181818"
       d="m 335,87 c 0,-0.55 1.28026,-1 2.84501,-1 C 343.34124,86 344,83.975868 344,67.087926 c 0,-11.760622 0.2863,-15.15856 1.25,-14.835315 0.92936,0.311728 1.25,4.460398 1.25,16.173477 0,15.350744 -0.0605,15.80311 -2.36078,17.664056 C 341.68144,88.078465 335,88.743637 335,87 Z M 120,67.140037 c 0,-10.260988 -0.15432,-11.13472 -2.22251,-12.583333 L 115.55499,53 l 2.2225,-1.556704 C 119.21816,50.434211 120,48.851197 120,46.943296 120,42.949829 123.16127,40 127.44098,40 c 1.89254,0 3.7191,0.45 4.05902,1 0.35935,0.581433 -0.63247,1 -2.36955,1 -4.00722,0 -6.31367,2.477833 -5.93445,6.375432 0.25041,2.57372 0.78881,3.180352 3.054,3.44099 1.5125,0.174033 2.75,0.706643 2.75,1.183578 0,0.476935 -1.2375,1.009545 -2.75,1.183578 L 123.5,54.5 123,65.919601 c -0.34481,7.875161 -0.88798,11.548017 -1.75,11.833334 -0.94944,0.31425 -1.25,-2.237604 -1.25,-10.612898 z m 18.22251,9.303259 c -1.37135,-0.960527 -2.21665,-2.588166 -2.2072,-4.25 0.0185,-3.252711 0.79417,-4.530428 3.66895,-6.043592 3.5732,-1.880787 4.78563,-1.307159 1.9506,0.922876 C 140.18569,68.212499 139,69.980356 139,71.001152 139,73.610218 141.69173,76 144.63045,76 c 1.40374,0 2.21831,0.435699 1.86955,1 -0.93937,1.519934 -5.77721,1.194564 -8.27749,-0.556704 z m 14.2448,-0.226565 c -1.69303,-1.429864 -1.86655,-2.185076 -1.0384,-4.5195 1.20598,-3.399485 -0.0625,-5.85633 -3.52355,-6.824808 -2.09017,-0.584867 -2.13673,-0.686125 -0.35536,-0.772743 4.57994,-0.222697 5.84948,-4.700196 2.33046,-8.219219 -1.75273,-1.752729 -2.87763,-2.015632 -6.5,-1.519131 -4.52701,0.620496 -6.10894,-0.664854 -2.13046,-1.731044 4.23565,-1.135111 8.52853,-0.630206 10.88922,1.280729 2.12172,1.717498 2.39513,2.856715 2.69998,11.25 0.18656,5.136442 0.74906,9.766485 1.25,10.288985 2.64082,2.754479 -0.48484,3.41616 -3.62189,0.766731 z M 168.25,76.968838 c -3.54173,-1.423601 -2.63263,-2.209278 1.70783,-1.475963 4.78308,0.808096 7.70614,0.0035 9.03965,-2.488157 1.56084,-2.916467 0.27025,-4.643816 -5.51692,-7.383911 C 165.76059,61.965575 164.26539,58.6437 168.45455,54.454545 170.23964,52.66945 171.99635,52 174.89553,52 c 2.19254,0 4.26455,0.45 4.60447,1 0.37171,0.601441 -0.93795,1 -3.286,1 -4.44442,0 -7.6691,2.650461 -6.60343,5.427556 0.36234,0.944235 3.03509,2.767699 5.93944,4.052141 2.90435,1.284442 5.80701,3.318878 6.45035,4.520967 3.4513,6.448816 -5.49757,12.285391 -13.75036,8.968174 z M 196,76 c -1.70823,-1.708234 -2,-3.333333 -2,-11.139757 0,-7.519677 -0.3102,-9.38087 -1.75,-10.5 -1.57625,-1.225193 -1.59492,-1.484348 -0.18803,-2.610243 0.85909,-0.6875 1.86841,-2.066022 2.24294,-3.063382 C 195.04233,46.72291 197,47.278893 197,49.452028 197,50.928013 199.13802,52 202.08179,52 203.1368,52 204,52.45 204,53 c 0,0.55 -0.8632,1 -1.91821,1 C 197.42005,54 197,54.79409 197,63.606989 c 0,7.059678 0.31772,8.710736 2,10.393011 1.1,1.1 2.70156,2 3.55902,2 0.85746,0 1.2809,0.45 0.94098,1 -1.04413,1.689444 -5.39001,1.109994 -7.5,-1 z m 20.75566,0.245209 C 208.76684,71.291896 209.25853,56.87906 217.5343,53.421222 221.46827,51.777504 227.59891,51.542009 228.5,53 c 0.37397,0.605098 -1.01526,1 -3.51791,1 -3.23796,0 -4.77058,0.634641 -7.05901,2.923077 C 215.44853,59.397627 215,60.636977 215,65 c 0,4.363023 0.44853,5.602373 2.92308,8.076923 2.41652,2.416519 3.75956,2.925731 7.75,2.93839 3.48516,0.01106 4.40996,0.284773 3.32692,0.984687 -2.37127,1.532431 -9.23816,1.109128 -12.24434,-0.754791 z M 240,59 c 0,-16.222222 0.2193,-19 1.5,-19 1.2807,0 1.5,2.777778 1.5,19 0,16.222222 -0.2193,19 -1.5,19 -1.2807,0 -1.5,-2.777778 -1.5,-19 z m 15,6 c 0,-10.888889 0.24359,-13 1.5,-13 1.25641,0 1.5,2.111111 1.5,13 0,10.888889 -0.24359,13 -1.5,13 -1.25641,0 -1.5,-2.111111 -1.5,-13 z m 18.75566,11.245209 C 265.76684,71.291896 266.25853,56.87906 274.5343,53.421222 278.46827,51.777504 284.59891,51.542009 285.5,53 c 0.37397,0.605098 -1.01526,1 -3.51791,1 -3.23796,0 -4.77058,0.634641 -7.05901,2.923077 C 272.44853,59.397627 272,60.636977 272,65 c 0,4.363023 0.44853,5.602373 2.92308,8.076923 2.41652,2.416519 3.75956,2.925731 7.75,2.93839 3.48516,0.01106 4.40996,0.284773 3.32692,0.984687 -2.37127,1.532431 -9.23816,1.109128 -12.24434,-0.754791 z M 297,59 c 0,-14.887155 0.2791,-19.07436 1.25,-18.753252 0.86792,0.28705 1.40283,4.056888 1.75,12.333333 0.61869,14.7494 -0.0675,24.62137 -1.75,25.175149 C 297.27917,78.074779 297,73.886099 297,59 Z m 11.13384,12.323988 -6.02534,-6.676013 3.83441,-4.573987 c 2.10893,-2.515694 4.78728,-5.433729 5.95189,-6.484524 3.58661,-3.236112 3.46032,-0.990546 -0.17274,3.071608 -6.42748,7.1866 -6.4318,7.458324 -0.22502,14.162383 3.02663,3.269122 5.50296,6.221213 5.50296,6.560202 0,2.197578 -3.68964,-0.324143 -8.86616,-6.059669 z M 327,76 c 0,-1.333333 0.66667,-2 2,-2 1.33333,0 2,0.666667 2,2 0,1.333333 -0.66667,2 -2,2 -1.33333,0 -2,-0.666667 -2,-2 z m 33.25,0.968838 c -3.54173,-1.423601 -2.63263,-2.209278 1.70783,-1.475963 4.78308,0.808096 7.70614,0.0035 9.03965,-2.488157 1.56084,-2.916467 0.27025,-4.643816 -5.51692,-7.383911 C 357.76059,61.965575 356.26539,58.6437 360.45455,54.454545 362.23964,52.66945 363.99635,52 366.89553,52 c 2.19254,0 4.26455,0.45 4.60447,1 0.37171,0.601441 -0.93795,1 -3.286,1 -4.44442,0 -7.6691,2.650461 -6.60343,5.427556 0.36234,0.944235 3.03509,2.767699 5.93944,4.052141 2.90435,1.284442 5.80701,3.318878 6.45035,4.520967 3.4513,6.448816 -5.49757,12.285391 -13.75036,8.968174 z M 255,43.5 c 0,-0.825 0.675,-1.5 1.5,-1.5 0.825,0 1.5,0.675 1.5,1.5 0,0.825 -0.675,1.5 -1.5,1.5 -0.825,0 -1.5,-0.675 -1.5,-1.5 z m 89,0 c 0,-0.916667 0.48375,-1.505417 1.075,-1.308333 0.59125,0.197083 1.075,0.785833 1.075,1.308333 0,0.5225 -0.48375,1.11125 -1.075,1.308333 C 344.48375,45.005417 344,44.416667 344,43.5 Z"
       id="path4986"
       inkscape:connector-curvature="0" />
  </g>
</svg>
