<?xml version="1.0" encoding="UTF-8" standalone="no"?>
<!-- Created with Inkscape (http://www.inkscape.org/) -->

<svg
   xmlns:dc="http://purl.org/dc/elements/1.1/"
   xmlns:cc="http://creativecommons.org/ns#"
   xmlns:rdf="http://www.w3.org/1999/02/22-rdf-syntax-ns#"
   xmlns:svg="http://www.w3.org/2000/svg"
   xmlns="http://www.w3.org/2000/svg"
   xmlns:xlink="http://www.w3.org/1999/xlink"
   xmlns:sodipodi="http://sodipodi.sourceforge.net/DTD/sodipodi-0.dtd"
   xmlns:inkscape="http://www.inkscape.org/namespaces/inkscape"
   id="svg4165"
   version="1.1"
   inkscape:version="0.91 r13725"
   width="110"
   height="123"
   viewBox="0 0 110 123"
   sodipodi:docname="F#.bmp.svg">
  <metadata
     id="metadata4171">
    <rdf:RDF>
      <cc:Work
         rdf:about="">
        <dc:format>image/svg+xml</dc:format>
        <dc:type
           rdf:resource="http://purl.org/dc/dcmitype/StillImage" />
        <dc:title></dc:title>
      </cc:Work>
    </rdf:RDF>
  </metadata>
  <defs
     id="defs4169" />
  <sodipodi:namedview
     pagecolor="#ffffff"
     bordercolor="#666666"
     borderopacity="1"
     objecttolerance="10"
     gridtolerance="10"
     guidetolerance="10"
     inkscape:pageopacity="0"
     inkscape:pageshadow="2"
     inkscape:window-width="640"
     inkscape:window-height="480"
     id="namedview4167"
     showgrid="false"
     inkscape:zoom="1.9186992"
     inkscape:cx="55"
     inkscape:cy="61.5"
     inkscape:window-x="0"
     inkscape:window-y="0"
     inkscape:window-maximized="0"
     inkscape:current-layer="svg4165" />
  <image
     width="110"
     height="123"
     preserveAspectRatio="none"
     style="image-rendering:optimizeQuality"
     xlink:href="file:///media/havoc/USB%20DISK/pics/_OpsDeps/F%23.bmp"
     id="image4173"
     x="0"
     y="0"
     sodipodi:absref="/media/havoc/USB DISK/pics/_OpsDeps/F#.bmp" />
  <g
     id="g5021">
    <path
       style="fill:#fcfbfc"
       d="M 0,61.5 0,0 l 55,0 55,0 0,61.5 0,61.5 -55,0 -55,0 0,-61.5 z"
       id="path5037"
       inkscape:connector-curvature="0" />
    <path
       style="fill:#c9a9d0"
       d="M 44.305487,100.63458 C 19.320693,94.27018 6.4374563,65.252551 18.011216,41.410541 21.659454,33.895151 29.897854,25.874433 37.747356,22.195887 42.949875,19.757808 44.599745,19.5 55,19.5 c 10.43943,0 12.038206,0.252139 17.335894,2.734 8.133152,3.810219 13.353044,8.217245 17.701196,14.94468 13.78905,21.334341 6.1326,49.214801 -16.600653,60.450184 -6.185311,3.056946 -8.464982,3.635206 -15.590535,3.954706 -4.920368,0.22062 -10.477964,-0.16888 -13.540415,-0.94899 z M 35.174747,58.647475 C 34.267875,56.773787 34.130609,57.009971 34.098089,60.5 c -0.03101,3.327876 0.14364,3.688718 1.039386,2.147475 0.751701,-1.293397 0.76295,-2.500676 0.03727,-4 z M 74,52.972368 C 74,52.472089 73.327585,52.3208 72.505744,52.63617 71.683903,52.95154 71.264997,53.619757 71.574842,54.121097 72.222903,55.169682 74,54.327922 74,52.972368 Z M 64,53 c 0,-0.55 -0.198442,-1 -0.440983,-1 -0.242541,0 -0.719098,0.45 -1.059017,1 -0.339919,0.55 -0.141476,1 0.440983,1 C 63.523442,54 64,53.55 64,53 Z M 35.361626,45.5 C 35.678209,44.675 35.501354,44 34.968615,44 34.435877,44 34,44.675 34,45.5 c 0,0.825 0.176855,1.5 0.393011,1.5 0.216156,0 0.652033,-0.675 0.968615,-1.5 z"
       id="path5035"
       inkscape:connector-curvature="0" />
    <path
       style="fill:#ba8fc4"
       d="M 43.929349,99.632634 C 29.109714,95.636833 17.546488,82.440381 15.0229,66.643348 12.185154,48.879764 21.283743,31.391977 37.5,23.441623 43.126977,20.682882 44.246047,20.5 55.5,20.5 c 11.733734,0 12.138086,0.07489 18.223203,3.375043 7.747064,4.201481 15.54983,12.331634 19.072091,19.872313 2.377507,5.089919 2.688083,6.962281 2.695886,16.252644 0.0081,9.679902 -0.23351,11.011379 -3.093817,17.047367 -5.354375,11.299116 -12.822392,18.053307 -24.198741,21.885722 -6.97355,2.349221 -17.071454,2.640281 -24.269273,0.699545 z M 35.393011,76.418213 C 35.726855,75.548229 36,71.970686 36,68.468116 l 0,-6.368308 5.511501,-0.299904 c 7.13734,-0.388373 7.13734,-2.211435 0,-2.599808 L 36,58.900192 l 0,-6.902378 0,-6.902379 6.25,-0.297718 C 50.922628,44.384599 49.692321,42.5 40.75,42.5 l -7.25,0 -0.273074,17.75 c -0.248938,16.181104 0.374739,20.836387 2.166085,16.168213 z M 62.935103,65 c 0.481021,0 0.643962,-1.719415 0.362091,-3.820922 -0.594095,-4.429308 1.621002,-7.475415 5.077452,-6.982295 2.940551,0.419518 3.304447,4.393419 0.722148,7.886167 -1.233978,1.669044 -1.674763,3.059845 -1.085227,3.424199 0.546021,0.337459 0.75697,2.498903 0.468776,4.803207 -0.459044,3.67036 -0.387448,3.879783 0.577646,1.689644 0.6059,-1.375 1.688681,-3.683293 2.406179,-5.12954 0.717499,-1.446248 1.079282,-3.807915 0.803964,-5.248149 -0.708315,-3.705313 2.099132,-7.612567 5.504921,-7.661453 L 80.5,53.921716 77.333947,52.544429 c -2.977606,-1.295309 -3.140038,-1.635225 -2.72899,-5.710858 0.326897,-3.241264 0.19769,-3.829457 -0.512611,-2.333571 -0.522319,1.1 -1.201851,3.183729 -1.51007,4.630508 -0.578523,2.715583 -3.539292,4.206953 -6.270922,3.158728 -1.166215,-0.447519 -1.348249,-1.557528 -0.826263,-5.038385 0.462408,-3.083557 0.336273,-4.258482 -0.407805,-3.798616 C 64.484779,43.818424 64,45.02106 64,46.124758 64,49.478482 62.078933,52 59.523833,52 58.200644,52 56.839919,52.45 56.5,53 c -0.339919,0.55 0.253424,1 1.318538,1 4.212161,0 5.110464,5.022551 1.613771,9.022839 -0.82458,0.943337 -1.003903,2.052302 -0.471232,2.914181 0.472943,0.765238 0.667305,3.004961 0.431916,4.977161 C 59.007637,74.142868 59.119162,74.026921 60.512766,69.75 61.364031,67.1375 62.454083,65 62.935103,65 Z"
       id="path5033"
       inkscape:connector-curvature="0" />
    <path
       style="fill:#b48abc"
       d="M 45.617739,99.951516 C 34.472713,97.151893 23.110712,87.737923 18.180056,77.218065 15.760162,72.055072 15.5,70.383655 15.5,60 15.5,49.210202 15.68527,48.1328 18.5,42.554089 22.51127,34.603872 29.868737,27.433208 37.938252,23.609367 44.043456,20.716339 45.265343,20.5 55.5,20.5 c 10.018939,0 11.507672,0.249303 16.692195,2.795267 8.820565,4.331517 15.195131,10.686181 19.541921,19.480907 C 95.250138,49.890035 95.5,50.996176 95.5,59.447786 95.5,70.328542 93.531948,76.760348 87.915302,84.2354 82.822412,91.013398 77.167331,95.415442 70.15528,98.060205 63.714807,100.48938 51.505311,101.43047 45.617739,99.951516 Z M 35.792064,69.669746 36.084129,62 42.042064,62 C 46.580213,62 48,61.654439 48,60.549904 c 0,-1.063896 -1.531381,-1.529969 -5.75,-1.75 L 36.5,58.5 36.205375,51.796707 35.91075,45.093414 42.705375,44.796707 C 52.105143,44.386239 50.909874,42.5 41.25,42.5 l -7.75,0 -0.273445,17.841148 c -0.216046,14.096045 -0.0061,17.752691 1,17.419746 0.847842,-0.280564 1.371057,-2.984734 1.565509,-8.091148 z M 61.155107,69.75 c 1.125469,-3.556598 1.816252,-4.303815 4.233945,-4.57984 2.875444,-0.328287 2.88662,-0.30827 2.372837,4.25 -0.677122,6.007405 1.598931,6.271188 2.846029,0.32984 C 71.369331,66.122524 71.90281,65.453652 74.25,65.183578 77.361939,64.82551 78.038292,63 75.059017,63 72.459918,63 71.932729,61.89862 72.864023,58.414319 73.440176,56.258725 74.383913,55.369828 76.488987,55 c 3.80133,-0.667834 4.546397,-3 0.958422,-3 -2.654625,0 -2.704334,-0.108873 -2.09141,-4.580641 0.787833,-5.747873 -1.18996,-5.649916 -2.814273,0.139386 C 71.572445,51.013409 71.069495,51.5 68.467961,51.5 c -2.877756,0 -2.957749,-0.12917 -2.631972,-4.25 0.43517,-5.50458 -1.288487,-5.50458 -2.443907,0 C 62.58521,51.094049 62.189567,51.529931 59.25,51.813358 55.293949,52.194793 54.689497,55 58.563358,55 c 2.289607,0 2.529894,0.347082 2.25,3.25 C 60.598407,60.479375 59.793413,61.809996 58.25,62.487128 55.620357,63.640816 55.28821,65 57.635924,65 c 1.363583,0 1.533243,0.749139 1.01913,4.5 -0.780103,5.691476 0.730327,5.842516 2.500053,0.25 z M 63.4535,61.73942 C 62.415954,59.035618 64.788869,55 67.416232,55 c 3.127224,0 3.690661,0.948104 2.725167,4.585681 -0.576724,2.172854 -1.457822,2.994963 -3.463148,3.23129 -1.618389,0.190727 -2.902755,-0.238445 -3.224751,-1.077551 z"
       id="path5031"
       inkscape:connector-curvature="0" />
    <path
       style="fill:#9c5ca9"
       d="M 47.045302,99.907636 C 35.197528,97.585173 24.144401,88.748462 18.693133,77.240752 15.763262,71.055751 15.500306,69.675536 15.503706,60.5 15.508205,48.357645 17.811599,41.650336 24.551255,34.154216 40.655964,16.241903 67.146428,15.225337 83.77963,31.881339 92.690627,40.80455 97.430511,55.251786 95.158583,66.564552 91.776887,83.40326 80.747964,95.225928 64.465038,99.467091 58.039531,101.14072 53.873261,101.24609 47.045302,99.907636 Z M 36,70.421081 36.5,62.5 42.75,62.202283 C 47.30884,61.985123 49,61.52451 49,60.5 49,59.47549 47.30884,59.014877 42.75,58.797717 L 36.5,58.5 l 0,-6.5 0,-6.5 6.75,-0.29569 C 48.437746,44.977056 50,44.563016 50,43.415377 50,42.18281 48.472509,41.972573 41.25,42.211067 L 32.5,42.5 32.224854,59.46328 C 31.938023,77.147026 32.178545,79.437579 34.250526,78.754239 35.049859,78.490619 35.680132,75.488481 36,70.421081 Z m 25.282355,-0.197037 c 0.543698,-2.749295 1.461074,-4.325224 2.757268,-4.73662 3.243769,-1.029532 4.112408,0.315956 3.375681,5.228801 -0.541688,3.612238 -0.400315,4.445445 0.692472,4.081183 0.755217,-0.251739 1.827419,-1.99664 2.382673,-3.877558 C 71.938289,66.015298 72.807586,65 75.559017,65 c 3.067122,0 3.22042,-1.7502 0.190983,-2.180449 -1.464749,-0.208028 -2.364041,-1.124012 -2.576764,-2.624593 -0.414682,-2.925233 1.283673,-4.98946 4.431033,-5.385597 3.114158,-0.391959 3.238729,-2.134959 0.204748,-2.864834 C 75.855072,51.474472 75.5,50.747982 75.5,47.220197 75.5,42.026712 73.927745,41.335767 72.723422,46 c -1.139234,4.412155 -2.443485,6 -4.928378,6 -1.691452,0 -1.914497,-0.582434 -1.627555,-4.25 0.394733,-5.04529 -1.243919,-6.514019 -2.510311,-2.25 -1.531902,5.158004 -2.265945,5.990797 -5.568732,6.317886 -3.611875,0.3577 -3.75273,2.488327 -0.198969,3.009678 2.824316,0.414339 3.689357,2.606619 2.263421,5.736206 C 59.403835,62.207784 58.222953,63 56.521439,63 c -3.127,0 -3.344114,1.74406 -0.271439,2.180449 2.03192,0.288579 2.219859,0.78999 1.939022,5.17321 -0.391758,6.114447 1.877315,6.019369 3.093333,-0.129615 z M 63.774718,61.75 C 62.763351,58.87196 64.567549,55.501348 67.289546,55.183578 69.680019,54.90451 70,55.205549 70,57.733578 70,59.31011 69.46,61.14 68.8,61.8 c -1.567323,1.567323 -4.467081,1.538471 -5.025282,-0.05 z"
       id="path5029"
       inkscape:connector-curvature="0" />
    <path
       style="fill:#842f97"
       d="M 45.745923,98.978148 C 34.877206,96.231816 24.467412,87.727545 19.439618,77.487237 16.72704,71.962421 16.5,70.649201 16.5,60.484207 16.5,50.084148 16.681173,49.100107 19.74128,42.879206 23.644394,34.944551 30.792399,27.92475 38.781935,24.180056 43.846002,21.806529 45.700927,21.5 55,21.5 c 9.389202,0 11.127351,0.293795 16.430134,2.777145 11.873559,5.560512 18.92311,14.063342 22.154021,26.721116 4.690706,18.376828 -6.017297,39.495861 -23.337496,46.027754 -6.483636,2.445147 -18.698112,3.418355 -24.500736,1.952133 z M 37,70.377555 37,63 41.918213,63 C 47.678589,63 50,62.2819 50,60.5 50,58.7181 47.678589,58 41.918213,58 L 37,58 l 0,-5.95431 0,-5.95431 6.75,-0.29569 C 49.73477,45.533522 50.5,45.273265 50.5,43.5 c 0,-1.819664 -0.764726,-2.026525 -8.481113,-2.294177 -7.115112,-0.246795 -8.685485,-0.01468 -9.75,1.44113 C 31.367049,43.88029 31,49.079235 31,60.619701 31,74.195739 31.263223,77.120366 32.605946,78.463089 35.513315,81.370458 37,78.634798 37,70.377555 Z M 60.952231,73.75 c 0.500145,-1.2375 1.174071,-3.4875 1.497613,-5 0.416848,-1.948682 1.205092,-2.75 2.705132,-2.75 1.930534,0 2.063103,0.392284 1.506042,4.456492 -1.02039,7.444556 2.76445,7.251254 4.856742,-0.248047 0.888482,-3.184543 1.490084,-3.752714 4.258445,-4.021803 C 78.190307,65.951987 79,65.386873 79,63.936642 79,62.524191 78.305346,62 76.433578,62 c -2.209776,0 -2.522451,-0.382158 -2.25,-2.75 C 74.421133,57.18543 75.123118,56.413806 77,56.154182 82.179318,55.437741 83.325942,51 78.331738,51 c -2.348915,0 -2.424758,-0.196894 -1.766552,-4.586123 0.661656,-4.412237 0.59767,-4.573378 -1.687598,-4.25 -1.897236,0.26847 -2.55511,1.19154 -3.26854,4.586123 -0.68864,3.276624 -1.348886,4.25 -2.882799,4.25 -1.740662,0 -1.923119,-0.495561 -1.458321,-3.960883 0.343299,-2.559491 0.08302,-4.332893 -0.735653,-5.012331 C 64.895931,40.668741 63.483778,42.320277 62.279906,47 61.511376,49.987455 60.875798,50.573221 57.939761,51 55.333333,51.378868 54.5,51.98453 54.5,53.5 c 0,1.448966 0.774053,2.08876 2.809459,2.32216 2.393391,0.274449 2.76363,0.718033 2.5,2.995252 -0.242079,2.091069 -0.962662,2.785132 -3.309459,3.187661 -3.597246,0.61701 -4.050324,3.346315 -0.635708,3.829455 2.162227,0.305938 2.309952,0.67435 1.72848,4.310672 -0.349696,2.18688 -0.37457,4.398842 -0.05527,4.915472 0.991442,1.604188 2.465308,1.038477 3.414733,-1.310672 z M 64.346742,59.837845 C 64.691014,58.55203 64.978835,57.1625 64.986345,56.75 64.993855,56.3375 65.92989,56 67.066422,56 c 3.187669,0 2.307197,5.376487 -0.956025,5.837845 -2.070658,0.292752 -2.306057,0.02581 -1.763655,-2 z"
       id="path5027"
       inkscape:connector-curvature="0" />
    <path
       style="fill:#781a8e"
       d="M 46.760099,98.442163 C 34.341826,95.432279 25.941358,88.707015 20.272343,77.236543 16.731583,70.072302 16.502661,69.048034 16.543352,60.551863 16.57734,53.455027 17.098421,50.205709 18.955979,45.507372 21.975176,37.870895 30.592604,29.016371 38.704487,25.215513 43.908147,22.777315 45.62335,22.5 55.5,22.5 c 10.172131,0 11.433928,0.219756 16.765654,2.919928 24.303844,12.308315 28.865146,44.498326 9.037264,63.77781 -4.474638,4.350879 -12.814072,8.382031 -20.26257,9.79461 -6.454653,1.224102 -7.055334,1.200962 -14.280249,-0.550185 z M 37,71.5 l 0.5,-8 6.16043,-0.295392 c 6.273461,-0.300813 8.016372,-1.491486 6.284693,-4.293401 -0.563499,-0.911761 -2.908118,-1.465246 -6.65748,-1.571605 L 37.5,57.175422 l 0,-5.337711 0,-5.337711 4.913791,0.317299 C 49.516447,47.27594 52,46.439291 52,43.587937 52,42.282259 51.288196,40.940833 50.418213,40.606989 47.919817,39.648264 36.392845,39.900142 33.5651,40.975249 L 31,41.950498 31,60.308582 c 0,10.096947 0.318982,18.677067 0.708849,19.066934 0.389867,0.389867 1.627367,0.577367 2.75,0.416667 C 36.269456,79.533001 36.556474,78.596416 37,71.5 Z m 23.690983,4.25 c 0.444959,-0.6875 1.263315,-2.788933 1.818568,-4.66985 C 64.06406,65.814261 66,65.968174 66,71.35765 c 0,2.488374 0.409391,4.777334 0.909758,5.086577 1.979663,1.223499 4.171361,-0.88074 5.208853,-5.000996 0.968974,-3.848143 1.44224,-4.366272 4.236117,-4.637683 C 78.961539,66.552309 79.5,66.072007 79.5,64 c 0,-1.958554 -0.572144,-2.566268 -2.641742,-2.805976 -2.06332,-0.238981 -2.530432,-0.731629 -2.133369,-2.25 C 75.043455,57.725827 76.096457,57 77.545203,57 79.74309,57 83,54.688476 83,53.128571 83,51.752357 80.598288,50 78.712102,50 77.069634,50 76.910403,49.489796 77.48726,46.075407 78.044793,42.775396 77.831116,41.979983 76.144604,41.07739 73.787075,39.815679 71,41.93513 71,44.989641 71,47.837075 69.920049,50 68.498322,50 c -0.952799,0 -1.084513,-0.900905 -0.506442,-3.463997 0.538106,-2.385894 0.367944,-4.019855 -0.546742,-5.25 -1.97698,-2.658805 -4.748987,-0.489508 -5.83722,4.568049 C 60.826113,49.48749 60.377685,50 57.980363,50 c -5.512498,0 -6.50831,6.019127 -1.128235,6.819551 3.658689,0.544324 2.688156,3.856509 -1.352128,4.614471 -2.582346,0.484451 -3.5,1.169097 -3.5,2.611291 0,1.075078 0.675,2.010937 1.5,2.079687 1.335095,0.111258 2.71983,0.377916 3.894689,0.75 0.217079,0.06875 0.02716,1.754601 -0.422055,3.746335 -0.449209,1.991734 -0.578674,4.241734 -0.2877,5 0.659837,1.719507 2.92926,1.792396 4.006049,0.128665 z M 65.393011,59.418213 C 65.726855,58.548229 66,57.648229 66,57.418213 66,57.188196 66.632871,57 67.40638,57 c 0.914051,0 1.223291,0.700137 0.883369,2 -0.287656,1.1 -1.193673,2 -2.013369,2 -0.948169,0 -1.269536,-0.575451 -0.883369,-1.581787 z"
       id="path5025"
       inkscape:connector-curvature="0" />
    <path
       style="fill:#6d117b"
       d="M 45.024244,97.461241 C 34.261328,94.442536 25.743972,87.310201 20.398837,76.840213 17.158852,70.49377 16.049804,58.823789 17.900672,50.553237 19.329631,44.167976 25.465657,34 27.889985,34 28.844693,34 30.9192,35.35 32.5,37 c 2.199708,2.296 2.486535,3 1.222275,3 C 30.658049,40 30,43.624126 30,60.5 30,77.525756 30.649969,81 33.835184,81 37.06295,81 38,78.817578 38,71.3 l 0,-7.3 4.918213,0 C 49.335505,64 51,63.279153 51,60.5 51,57.720847 49.335505,57 42.918213,57 L 38,57 38,52 c 0,-4.535969 0.211303,-5 2.27682,-5 1.490694,0 4.675212,2.416913 9.22318,7 4.159567,4.191687 6.304166,7 5.345625,7 -0.880404,0 -2.160936,0.675 -2.845625,1.5 -1.546484,1.863399 0.255387,4.5 3.07533,4.5 1.608818,0 1.758742,0.605378 1.238264,5 -0.579972,4.896958 -0.537274,5 2.071866,5 1.995944,0 2.916059,-0.689655 3.668961,-2.75 2.055713,-5.625537 2.305559,-5.777484 2.87752,-1.75 0.527684,3.715699 0.816822,4.02244 4.068059,4.315726 2.578506,0.2326 4.750599,1.539123 8.25,4.962408 2.6125,2.555675 4.75,4.983569 4.75,5.395319 0,1.62115 -4.80065,5.21976 -10.706308,8.025544 -7.742527,3.678483 -18.053941,4.56647 -26.269448,2.262244 z"
       id="path5023"
       inkscape:connector-curvature="0" />
  </g>
</svg>
