<?xml version="1.0" encoding="UTF-8" standalone="no"?>
<!-- Created with Inkscape (http://www.inkscape.org/) -->

<svg
   xmlns:dc="http://purl.org/dc/elements/1.1/"
   xmlns:cc="http://creativecommons.org/ns#"
   xmlns:rdf="http://www.w3.org/1999/02/22-rdf-syntax-ns#"
   xmlns:svg="http://www.w3.org/2000/svg"
   xmlns="http://www.w3.org/2000/svg"
   xmlns:xlink="http://www.w3.org/1999/xlink"
   xmlns:sodipodi="http://sodipodi.sourceforge.net/DTD/sodipodi-0.dtd"
   xmlns:inkscape="http://www.inkscape.org/namespaces/inkscape"
   id="svg4185"
   version="1.1"
   inkscape:version="0.91 r13725"
   width="473"
   height="123"
   viewBox="0 0 473 123"
   sodipodi:docname="Handlebars.bmp.svg">
  <metadata
     id="metadata4191">
    <rdf:RDF>
      <cc:Work
         rdf:about="">
        <dc:format>image/svg+xml</dc:format>
        <dc:type
           rdf:resource="http://purl.org/dc/dcmitype/StillImage" />
        <dc:title></dc:title>
      </cc:Work>
    </rdf:RDF>
  </metadata>
  <defs
     id="defs4189" />
  <sodipodi:namedview
     pagecolor="#ffffff"
     bordercolor="#666666"
     borderopacity="1"
     objecttolerance="10"
     gridtolerance="10"
     guidetolerance="10"
     inkscape:pageopacity="0"
     inkscape:pageshadow="2"
     inkscape:window-width="640"
     inkscape:window-height="480"
     id="namedview4187"
     showgrid="false"
     inkscape:zoom="0.55391121"
     inkscape:cx="236.5"
     inkscape:cy="61.5"
     inkscape:window-x="0"
     inkscape:window-y="0"
     inkscape:window-maximized="0"
     inkscape:current-layer="svg4185" />
  <image
     width="473"
     height="123"
     preserveAspectRatio="none"
     style="image-rendering:optimizeQuality"
     xlink:href="file:///media/havoc/USB%20DISK/pics/_OpsDeps/Handlebars.bmp"
     id="image4193"
     x="0"
     y="0"
     sodipodi:absref="/media/havoc/USB DISK/pics/_OpsDeps/Handlebars.bmp" />
  <g
     id="g4947">
    <path
       style="fill:#fdfdfd"
       d="M 0,61.5 0,0 236.5,0 473,0 473,61.5 473,123 236.5,123 0,123 0,61.5 Z"
       id="path4963"
       inkscape:connector-curvature="0" />
    <path
       style="fill:#a3a3a3"
       d="M 134,86.064873 C 124.6703,83.216621 118.97081,77.764069 116.95972,69.762871 113.84344,57.364617 120.87301,46.013412 131.67327,46.003738 137.14698,45.998835 142,49.829327 142,54.154635 c 0,5.782273 -4.0658,9.36414 -5.5,4.845365 -1.14503,-3.607684 -5.5,-1.9593 -5.5,2.081787 0,2.097812 4.16048,4.918028 7.25,4.914475 4.21468,-0.0048 7.40608,-2.053023 17.75,-11.391563 5.28122,-4.767914 11.32168,-9.0808 15.95135,-11.389271 6.89335,-3.43719 8.09154,-3.711838 16,-3.667493 7.21203,0.04044 9.33043,0.455836 13.54865,2.656753 2.75,1.43485 6.30952,3.988076 7.91005,5.673836 l 2.91004,3.065017 3.7949,-3.428458 C 222.97505,41.31743 227.48282,39.597389 237,39.545945 c 12.1677,-0.06577 19.48096,3.474327 33.19163,16.066928 4.0196,3.69182 8.65837,7.537531 10.30837,8.546025 3.97444,2.429212 8.98107,2.360034 11.5,-0.158898 2.14041,-2.140411 2.34518,-2.936889 1.39301,-5.418213 C 292.61438,56.552707 289,56.511238 289,58.531385 c 0,2.418268 -3.10427,3.046503 -4.64461,0.939965 -2.27155,-3.106534 -1.64269,-7.337901 1.56769,-10.548273 5.28465,-5.284649 14.74005,-3.357097 20.28749,4.135754 1.04196,1.407356 2.14539,5.007356 2.45206,8 C 310.30888,77.12381 299.43286,87 280.09526,87 269.95328,87 264.08,85.352424 246.87487,77.680989 226.25683,68.487803 223.04146,67.543182 212.5,67.58224 c -10.59165,0.03924 -14.1747,1.091881 -34.37487,10.098749 -7.90618,3.525213 -16.88823,7.064123 -19.9601,7.864245 C 152.31332,87.06941 138.27899,87.371201 134,86.064873 Z"
       id="path4961"
       inkscape:connector-curvature="0" />
    <path
       style="fill:#838383"
       d="M 133.99353,85.065659 C 119.89743,80.777822 113.15605,66.267838 119.53178,53.938544 124.45744,44.413364 141,44.856451 141,54.513563 c 0,4.06158 -1.49912,5.249703 -3.89175,3.084398 -2.3754,-2.1497 -4.8149,-2.014613 -6.07307,0.336298 -1.52387,2.847389 -1.29954,3.892287 1.41937,6.611196 3.17995,3.179958 8.56982,3.276834 12.89108,0.231702 1.7349,-1.222563 7.11453,-5.705522 11.95473,-9.96213 4.89923,-4.308524 11.76094,-9.196773 15.47897,-11.027157 5.88196,-2.895676 7.6354,-3.286086 14.69964,-3.272916 9.41171,0.01755 15.15296,2.183641 20.82709,7.857771 1.995,1.995001 3.93311,3.627275 4.3069,3.627275 0.3738,0 2.81633,-1.998629 5.42784,-4.441398 12.08514,-11.304227 29.46086,-9.718877 46.15347,4.211013 3.77679,3.151712 9.44063,7.887161 12.58631,10.523221 5.17687,4.338179 6.13675,4.765057 10.1188,4.5 3.43317,-0.228523 4.84396,-0.890453 6.42368,-3.013943 1.69818,-2.282731 1.83867,-3.128518 0.87206,-5.25 -1.3173,-2.891146 -4.62428,-3.371352 -6.02164,-0.874401 C 286.70606,60.276625 284,58.546345 284,54.98593 c 0,-10.175983 16.3372,-10.764454 21.65867,-0.780153 2.4767,4.646859 2.43182,15.104372 -0.0866,20.179095 -2.0864,4.204161 -8.62013,8.97812 -14.53754,10.622044 -5.25665,1.460359 -17.82591,1.198439 -24.37729,-0.507978 C 263.4876,83.673354 255.17441,80.370434 248.18347,77.159117 228.51127,68.122607 223.04051,66.493891 212.5,66.53569 c -10.58884,0.04199 -16.44063,1.784142 -35.68347,10.623427 -6.99094,3.211317 -15.30413,6.514237 -18.47376,7.339821 -5.99764,1.562187 -20.00493,1.888202 -24.34924,0.566721 z"
       id="path4959"
       inkscape:connector-curvature="0" />
    <path
       style="fill:#7a7a7a"
       d="m 136,85.060527 c -7.68299,-1.557398 -14.80723,-6.764092 -16.93339,-12.375627 -1.81812,-4.798546 -1.31681,-14.762283 0.92799,-18.44404 2.50006,-4.100433 7.55395,-7.232263 11.67867,-7.237122 6.05095,-0.0071 11.65014,7.27285 8.22673,10.696262 -0.8,0.8 -1.61818,0.581818 -3,-0.8 -2.30989,-2.30989 -3.287,-2.37014 -5.32857,-0.328571 -3.33943,3.339432 -1.346,8.687806 3.88107,10.412895 4.98298,1.644532 10.0423,-0.986992 21.0475,-10.947513 12.18534,-11.028643 20.8183,-15.347353 30.76892,-15.39241 8.75717,-0.03965 15.27557,2.537266 21.27712,8.41148 l 4.04604,3.960196 3.45396,-3.595668 c 9.43998,-9.827283 23.96834,-11.689182 37.56974,-4.814794 2.81368,1.422082 9.74663,6.644978 15.40655,11.606434 12.03801,10.55244 15.57964,12.404445 20.5711,10.757116 5.32966,-1.758947 7.16974,-7.06354 3.57783,-10.314177 -2.35518,-2.131405 -2.68391,-2.094474 -5.17706,0.581613 -1.77016,1.900045 -2.22515,2.012902 -3.02364,0.75 -1.54012,-2.435861 -1.11302,-4.709449 1.44286,-7.680837 1.96964,-2.289842 3.22895,-2.805764 6.84861,-2.805764 7.96857,0 12.07715,3.678925 13.69769,12.265266 2.75464,14.59526 -6.6725,24.816285 -23.93247,25.947899 -10.2366,0.671141 -17.73451,-1.260843 -35.16109,-9.059942 C 229.0864,68.248519 221.62185,66 212.5,66 203.39359,66 196.00401,68.227771 177.26258,76.623191 157.67322,85.39845 147.71367,87.434971 136,85.060527 Z"
       id="path4957"
       inkscape:connector-curvature="0" />
    <path
       style="fill:#5f5f5f"
       d="M 136.62159,84.998902 C 125.34089,82.987503 118,74.831882 118,64.310598 c 0,-9.084332 3.55807,-14.75711 10.17689,-16.225451 6.90522,-1.531877 13.90507,2.930527 12.33865,7.86589 C 139.74367,58.382972 138.69821,58.546224 137,56.5 c -2.83118,-3.411367 -7,-1.002378 -7,4.045012 0,5.773945 6.66779,8.91353 13.0694,6.153838 1.88683,-0.8134 7.0306,-4.745054 11.4306,-8.737008 15.40531,-13.976658 23.10844,-17.570866 35.89879,-16.750031 8.32755,0.53443 14.96253,3.652742 18.79144,8.831613 C 210.39247,51.669541 211.77702,53 212.26701,53 c 0.48998,0 2.87008,-1.979198 5.2891,-4.398217 5.33888,-5.338876 11.4451,-7.610289 20.37203,-7.578048 11.16291,0.04032 18.3514,3.858592 33.57186,17.832207 10.10908,9.280955 15.6632,11.163322 20.86514,7.071478 C 296.63508,62.568684 295.63582,55 290.92244,55 c -0.92265,0 -2.23775,0.675 -2.92244,1.5 -1.99501,2.403842 -3,1.752845 -3,-1.943296 C 285,50.099129 287.90941,48 294.08765,48 302.32107,48 307,53.890534 307,64.255992 307,81.705121 288.82405,90.036914 265.21809,83.40867 262.31305,82.59297 254.15359,79.276788 247.08596,76.039375 229.52965,67.997491 222.64823,66 212.5,66 c -9.98674,0 -17.01425,1.997205 -33.38549,9.488092 -6.42369,2.939249 -14.36483,6.245995 -17.64697,7.348326 -7.15228,2.402142 -18.13894,3.358373 -24.84595,2.162484 z"
       id="path4955"
       inkscape:connector-curvature="0" />
    <path
       style="fill:#454545"
       d="m 132.76485,83.404418 c -12.44089,-3.826151 -17.90473,-16.878017 -12.14591,-29.013827 4.07587,-8.589257 19.30677,-8.306586 19.36575,0.359409 0.0157,2.31519 -1.38946,3.022125 -2.48469,1.25 -1.16032,-1.877437 -6.36321,-1.124111 -7.54985,1.093141 C 127.23704,62.162647 131.73261,68 138.34996,68 c 5.05833,0 8.32664,-2.094713 20.30495,-13.013778 17.79208,-16.218709 35.63118,-18.394942 48.78801,-5.951759 l 5.18478,4.903548 5.1779,-4.938673 c 6.48311,-6.183569 13.52821,-8.557327 22.6253,-7.623305 8.73282,0.896621 16.49518,5.15749 28.37939,15.577832 C 280.9412,67.59053 281.61473,68 286.97971,68 c 7.16957,0 11.74751,-7.221921 7.19155,-11.345012 C 292.13993,54.816661 288.45494,54.454867 287.5,56 286.37411,57.821732 285,57.03716 285,54.57258 285,51.463096 289.33836,48 293.23373,48 c 4.34705,0 9.64252,2.86001 11.32709,6.117611 3.61998,7.000263 2.64213,17.110883 -2.21291,22.88077 -4.99808,5.939882 -9.5382,7.498451 -21.84791,7.500124 -12.63663,0.0017 -15.7226,-0.828112 -33.7573,-9.077483 -28.72212,-13.137967 -38.37538,-13.472073 -63.2427,-2.18887 -19.63294,8.908178 -28.89833,11.758322 -38,11.689253 -4.4,-0.03339 -10.13082,-0.716034 -12.73515,-1.516987 z"
       id="path4953"
       inkscape:connector-curvature="0" />
    <path
       style="fill:#363636"
       d="m 136.90296,84.03915 c -2.52838,-0.456277 -5.94908,-1.528757 -7.60156,-2.383289 -4.39418,-2.272322 -9.10413,-8.087376 -9.87391,-12.190663 -1.0277,-5.478117 0.0678,-13.310289 2.27839,-16.28969 4.28225,-5.771468 14.99496,-6.120956 17.52338,-0.571677 1.43606,3.151803 0.80316,3.612135 -2.9951,2.178452 -2.69361,-1.016722 -3.42202,-0.922246 -5.18406,0.672377 -5.26528,4.765015 -0.5479,13.04534 7.43205,13.04534 4.85661,0 6.8038,-1.252537 20.6424,-13.278261 4.6065,-4.003043 10.85045,-8.503043 13.87545,-10 4.82661,-2.388502 6.66314,-2.720585 15,-2.712317 10.8414,0.01075 13.73963,1.113964 19.77351,7.52677 2.04957,2.178286 4.1953,3.96126 4.76828,3.962164 0.57299,9.04e-4 3.01388,-2.007766 5.42421,-4.463713 C 223.20469,44.196804 228.94885,42 237.66741,42 c 10.84956,0 17.94221,3.677861 32.83259,17.025175 9.01929,8.08464 13.42878,10.43907 17.88253,9.54832 6.66709,-1.333419 10.10712,-9.010415 5.78873,-12.918507 -2.31293,-2.093173 -4.02959,-2.093173 -6.34252,0 -1.46966,1.330027 -1.852,1.379115 -1.94722,0.25 C 285.45996,50.906108 287.69239,49 293.96862,49 302.03464,49 306,54.028143 306,64.255992 c 0,8.333552 -3.14418,13.545926 -10.38486,17.215835 -5.27963,2.675965 -6.82229,2.978592 -15,2.942595 -11.08195,-0.04878 -16.32147,-1.515021 -33.78578,-9.454701 C 228.97915,66.844601 222.62114,65 212.5,65 c -9.96423,0 -16.46211,1.845349 -33.10573,9.401776 -6.58118,2.987941 -14.64968,6.334028 -17.93002,7.435749 -7.05512,2.369504 -18.12999,3.362234 -24.56129,2.201625 z"
       id="path4951"
       inkscape:connector-curvature="0" />
    <path
       style="fill:#242424"
       d="m 134.14375,82.853688 c -5.1578,-1.484425 -10.8301,-5.672943 -12.5279,-9.250804 C 116.14328,62.070311 121.35461,49 131.42538,49 135.40965,49 139,51.491661 139,54.256704 c 0,1.667008 -0.26667,1.876629 -1.2,0.943296 -1.98905,-1.989045 -6.5283,-1.425992 -8.2433,1.022506 -2.33954,3.340165 -1.88746,6.600577 1.36638,9.854417 C 133.28149,68.43534 134.7092,69 138.31389,69 c 5.12071,0 8.29721,-2.000563 21.83334,-13.750644 11.61958,-10.086411 17.16623,-12.66415 27.35277,-12.711875 7.0423,-0.03299 8.64289,0.31859 13.37025,2.936896 2.95364,1.635907 6.49455,4.448407 7.86869,6.25 1.37414,1.801593 3.0287,3.275623 3.6768,3.275623 0.6481,0 2.95719,-1.83813 5.13131,-4.084734 6.23269,-6.440482 10.69379,-8.365019 19.45295,-8.392088 11.46162,-0.03542 18.47873,3.494485 32.44259,16.320001 9.18073,8.432318 12.11927,10.148534 17.38433,10.153083 7.66607,0.0066 12.52386,-7.195042 8.61638,-12.773756 -1.715,-2.448498 -6.25425,-3.011551 -8.2433,-1.022506 -0.93333,0.933333 -1.2,0.822222 -1.2,-0.5 0,-2.827764 3.70474,-5.7 7.35212,-5.7 8.0387,0 13.70389,8.47233 12.23133,18.292052 -1.59324,10.624548 -9.42235,15.998561 -24.10768,16.547861 -10.70368,0.400368 -17.03191,-1.397543 -36.796,-10.454097 -28.02705,-12.842906 -37.80463,-12.543234 -69.12076,2.118474 -13.18452,6.17278 -21.57498,8.505355 -30.23533,8.405522 -4.30302,-0.0496 -9.33399,-0.52486 -11.17993,-1.056124 z"
       id="path4949"
       inkscape:connector-curvature="0" />
  </g>
</svg>
