<?xml version="1.0" encoding="UTF-8" standalone="no"?>
<!-- Created with Inkscape (http://www.inkscape.org/) -->

<svg
   xmlns:dc="http://purl.org/dc/elements/1.1/"
   xmlns:cc="http://creativecommons.org/ns#"
   xmlns:rdf="http://www.w3.org/1999/02/22-rdf-syntax-ns#"
   xmlns:svg="http://www.w3.org/2000/svg"
   xmlns="http://www.w3.org/2000/svg"
   xmlns:xlink="http://www.w3.org/1999/xlink"
   xmlns:sodipodi="http://sodipodi.sourceforge.net/DTD/sodipodi-0.dtd"
   xmlns:inkscape="http://www.inkscape.org/namespaces/inkscape"
   id="svg4195"
   version="1.1"
   inkscape:version="0.91 r13725"
   width="473"
   height="123"
   viewBox="0 0 473 123"
   sodipodi:docname="HtmlCssJavascript.bmp.svg">
  <metadata
     id="metadata4201">
    <rdf:RDF>
      <cc:Work
         rdf:about="">
        <dc:format>image/svg+xml</dc:format>
        <dc:type
           rdf:resource="http://purl.org/dc/dcmitype/StillImage" />
        <dc:title></dc:title>
      </cc:Work>
    </rdf:RDF>
  </metadata>
  <defs
     id="defs4199" />
  <sodipodi:namedview
     pagecolor="#ffffff"
     bordercolor="#666666"
     borderopacity="1"
     objecttolerance="10"
     gridtolerance="10"
     guidetolerance="10"
     inkscape:pageopacity="0"
     inkscape:pageshadow="2"
     inkscape:window-width="640"
     inkscape:window-height="480"
     id="namedview4197"
     showgrid="false"
     inkscape:zoom="0.55391121"
     inkscape:cx="236.5"
     inkscape:cy="61.5"
     inkscape:window-x="0"
     inkscape:window-y="0"
     inkscape:window-maximized="0"
     inkscape:current-layer="svg4195" />
  <image
     width="473"
     height="123"
     preserveAspectRatio="none"
     style="image-rendering:optimizeQuality"
     xlink:href="file:///media/havoc/USB%20DISK/pics/_OpsDeps/HtmlCssJavascript.bmp"
     id="image4203"
     x="0"
     y="0"
     sodipodi:absref="/media/havoc/USB DISK/pics/_OpsDeps/HtmlCssJavascript.bmp" />
  <g
     id="g4910">
    <path
       style="fill:#fcfcfb"
       d="M 0,61.5 0,0 236.5,0 473,0 473,61.5 473,123 236.5,123 0,123 0,61.5 Z"
       id="path4926"
       inkscape:connector-curvature="0" />
    <path
       style="fill:#f6dbab"
       d="m 230,113.55325 -14.5,-4.23831 -0.69516,-3.40747 C 214.4225,104.03336 213.62465,96.425 213.03183,89 c -1.25397,-15.705745 -2.52909,-29.973765 -4.08541,-45.714127 -0.60984,-6.16777 -0.8207,-11.68027 -0.46859,-12.25 0.88609,-1.433727 76.15825,-1.433727 77.04434,0 0.35211,0.56973 0.15667,5.85723 -0.43431,11.75 -1.47992,14.756537 -2.76715,29.18545 -4.07823,45.714127 -0.61078,7.7 -1.42531,15.53042 -1.81007,17.40092 l -0.69956,3.40093 -15,4.32033 c -8.25,2.37618 -15.9,4.28636 -17,4.24485 -1.1,-0.0415 -8.525,-1.98271 -16.5,-4.31378 z m 29.42466,-17.39809 c 4.94632,-1.333714 7.13494,-2.435602 7.66071,-3.856892 0.40483,-1.094361 0.88873,-7.346664 1.07534,-13.894008 L 268.5,66.5 l -7,-0.189517 c -3.85,-0.104234 -7.7875,-0.216734 -8.75,-0.25 -3.8423,-0.132797 -1.3203,-2.348355 7,-6.149462 C 269.33586,55.531746 271,54.03285 271,49.778091 l 0,-2.839649 -12.25,0.280779 L 246.5,47.5 246.22392,59.605913 c -0.20568,9.019161 0.057,12.382363 1.03032,13.190122 0.71851,0.596314 3.76775,1.223653 6.77607,1.394087 5.32585,0.301729 5.47773,0.392605 5.77528,3.455696 0.40684,4.188106 -1.03992,9.503657 -2.84782,10.463189 -0.80177,0.425538 -3.59527,1.536231 -6.20777,2.468207 -4.07394,1.453327 -4.75,2.078428 -4.75,4.391977 0,4.768896 0.10296,4.777992 13.42466,1.185969 z M 139.9483,116.61497 c -0.30036,-0.30037 -5.88708,-1.92323 -12.41493,-3.60637 -16.17977,-4.17177 -16.97482,-4.60935 -17.28932,-9.5157 C 110.10328,101.2968 109.34388,92.75 108.5565,84.5 104.6547,43.617992 103.69098,31.247666 104.28688,29.694786 104.88243,28.142813 108.14463,28 143,28 c 34.85537,0 38.11757,0.142813 38.71312,1.694786 0.5959,1.55288 -0.36782,13.923206 -4.26962,54.805214 -0.78738,8.25 -1.54678,16.7968 -1.68755,18.9929 -0.31346,4.89008 -1.03389,5.28989 -17.33823,9.62212 -13.03788,3.46429 -17.6341,4.33527 -18.46942,3.49995 z m 11.79674,-20.680637 c 4.23956,-1.136117 8.21461,-2.485878 8.83345,-2.99947 1.36941,-1.136512 3.9256,-24.310213 2.86996,-26.018276 -0.56733,-0.917951 -4.62663,-1.057058 -16.52853,-0.566407 C 128.52455,67.108522 128,66.905727 128,59.03556 c 0,-3.415692 0.44832,-4.99362 1.53755,-5.411595 0.84565,-0.324507 9.11976,-0.303743 18.38691,0.04614 l 16.84936,0.636154 0.71426,-3.251967 c 0.41525,-1.890628 0.28478,-3.681435 -0.31167,-4.277879 -0.6842,-0.684209 -8.25341,-0.779546 -22.72533,-0.286237 l -21.69943,0.739675 0.59873,5.135074 c 0.3293,2.82429 0.89372,8.332174 1.25427,12.239743 l 0.65553,7.104669 15.58659,0.695339 c 8.57262,0.382436 15.791,0.899763 16.04086,1.149616 1.01649,1.016493 -0.0878,12.041306 -1.33238,13.30185 -0.73643,0.745879 -3.85616,1.941285 -6.93273,2.656458 -4.69378,1.091104 -6.352,1.072119 -10.30645,-0.117994 C 131.20926,87.857685 130.0389,86.716332 130.01531,83.25 130.00273,81.40145 129.44417,81 126.88478,81 l -3.11523,0 0.71173,5.75 c 0.39145,3.1625 0.78782,5.832015 0.88081,5.932256 0.093,0.100241 3.75506,1.143226 8.13791,2.317744 4.38285,1.174518 8.16334,2.330003 8.40108,2.567744 0.70679,0.706792 1.76882,0.530568 9.84396,-1.633411 z M 314.46087,110.75861 C 314.1939,110.0629 314.09349,92.395108 314.23773,71.496844 L 314.5,33.5 l 39,0 39,0 0,39 0,39 -38.77687,0.26177 c -30.5358,0.20613 -38.88003,-0.007 -39.26226,-1.00316 z M 224.09135,25.056457 c -0.78783,-0.486908 -1.08585,-3.21896 -0.88843,-8.144569 L 223.5,9.5 l 23.5,0 23.5,0 0.29708,7.411888 c 0.20301,5.065162 -0.0922,7.652465 -0.93237,8.171728 -1.57447,0.973071 -44.19587,0.947782 -45.77336,-0.02716 z m 14.7282,-7.306132 c -0.28044,-1.974323 -0.80914,-2.20771 -4.31955,-1.906809 -4.67551,0.400769 -4.94011,0.567195 -4.15492,2.613356 C 230.74559,19.500588 232.26444,20 235.03817,20 c 3.68067,0 4.06818,-0.230545 3.78138,-2.249675 z m -127.40006,4.90046 c -0.28476,-0.742068 -0.38314,-4.454568 -0.21862,-8.25 0.29244,-6.746335 0.36234,-6.9080276 3.1235,-7.224384 2.16868,-0.2484734 2.95026,0.1578009 3.36663,1.75 0.68763,2.629488 1.92123,2.664424 2.59875,0.073599 0.49294,-1.884991 1.36401,-2 15.14802,-2 12.25935,0 14.72079,0.2496136 15.21717,1.5431716 0.53037,1.3821156 0.77598,1.3768233 2.35339,-0.050708 1.31222,-1.187549 3.38392,-1.5172197 8.12644,-1.2931716 L 167.5,7.5 168,12 c 0.4676,4.208421 0.70745,4.52007 3.70158,4.809747 3.58617,0.346956 5.27156,3.312767 3.25995,5.736603 -1.66779,2.009573 -19.87168,1.851358 -20.65099,-0.179483 C 153.61308,20.549318 150.5553,20.625976 149,22.5 c -3.03309,3.654656 -7,0.943937 -7,-4.783333 0,-5.4176 -2.35436,-4.349516 -3,1.360987 -0.48529,4.292205 -0.603,4.422346 -4,4.422346 -3.40741,0 -3.51323,-0.119048 -4,-4.5 -0.34568,-3.111111 -0.96296,-4.5 -2,-4.5 -1.03704,0 -1.65432,1.388889 -2,4.5 -0.45022,4.051948 -0.78121,4.53222 -3.32437,4.823599 -2.16868,0.248473 -2.95026,-0.157801 -3.36663,-1.75 -0.68763,-2.629488 -1.92123,-2.664424 -2.59875,-0.0736 -0.60824,2.325904 -5.45553,2.827361 -6.29076,0.650785 z"
       id="path4924"
       inkscape:connector-curvature="0" />
    <path
       style="fill:#a9cde2"
       d="m 230,113.55325 -14.5,-4.23831 -0.69516,-3.40747 C 214.4225,104.03336 213.62465,96.425 213.03183,89 c -1.25397,-15.705745 -2.52909,-29.973765 -4.08541,-45.714127 -0.60984,-6.16777 -0.8207,-11.68027 -0.46859,-12.25 0.88609,-1.433727 76.15825,-1.433727 77.04434,0 0.35211,0.56973 0.15667,5.85723 -0.43431,11.75 -1.47992,14.756537 -2.76715,29.18545 -4.07823,45.714127 -0.61078,7.7 -1.42531,15.53042 -1.81007,17.40092 l -0.69956,3.40093 -15,4.32033 c -8.25,2.37618 -15.9,4.28636 -17,4.24485 -1.1,-0.0415 -8.525,-1.98271 -16.5,-4.31378 z m 29.42466,-17.39809 c 4.94632,-1.333714 7.13494,-2.435602 7.66071,-3.856892 0.40483,-1.094361 0.88873,-7.346664 1.07534,-13.894008 L 268.5,66.5 l -7,-0.189517 c -3.85,-0.104234 -7.7875,-0.216734 -8.75,-0.25 -3.8423,-0.132797 -1.3203,-2.348355 7,-6.149462 C 269.33586,55.531746 271,54.03285 271,49.778091 l 0,-2.839649 -12.25,0.280779 L 246.5,47.5 246.22392,59.605913 c -0.20568,9.019161 0.057,12.382363 1.03032,13.190122 0.71851,0.596314 3.76775,1.223653 6.77607,1.394087 5.32585,0.301729 5.47773,0.392605 5.77528,3.455696 0.40684,4.188106 -1.03992,9.503657 -2.84782,10.463189 -0.80177,0.425538 -3.59527,1.536231 -6.20777,2.468207 -4.07394,1.453327 -4.75,2.078428 -4.75,4.391977 0,4.768896 0.10296,4.777992 13.42466,1.185969 z M 137.5,114.54246 c -2.2,-0.71481 -5.8,-1.7923 -8,-2.39443 -12.76216,-3.49293 -16.12556,-4.66732 -17.25,-6.02311 -0.6875,-0.82895 -1.25,-3.66889 -1.25,-6.31097 0,-2.642085 -0.64651,-11.218577 -1.43669,-19.05887 -4.48711,-44.521673 -4.78714,-48.780459 -3.54225,-50.280458 1.83269,-2.208256 72.12519,-2.208256 73.95788,0 1.24489,1.499999 0.94486,5.758785 -3.54225,50.280458 C 175.64651,88.595373 175,97.171865 175,99.81395 c 0,2.64208 -0.5625,5.49078 -1.25,6.33044 -0.6875,0.83965 -4.175,2.33189 -7.75,3.31608 -3.575,0.98418 -10.16508,2.8582 -14.64461,4.16448 -9.24268,2.69526 -8.52931,2.64802 -13.85539,0.91751 z m 18.61203,-18.467584 6.61204,-2.070009 0.65217,-5.54903 c 0.3587,-3.051967 0.9374,-9.567149 1.28599,-14.478184 l 0.63381,-8.929154 -17.39802,-0.27425 L 130.5,64.5 130.19521,59.75 129.89042,55 l 17.9478,0 C 167.64287,55 167,55.220817 167,48.418213 L 167,45 143.46862,45 c -18.37289,0 -23.64064,0.28469 -24.02973,1.298662 -0.27409,0.714265 0.0775,7.126765 0.78138,14.25 L 121.5,73.5 l 16,0.5 16,0.5 0.29667,5.088823 c 0.34263,5.877184 -0.3801,6.775148 -6.8358,8.493276 -3.59558,0.956932 -5.43073,0.912688 -9.46087,-0.228096 -4.58629,-1.29821 -5.04137,-1.702378 -5.5,-4.88466 C 131.51416,79.59827 131.37254,79.5 127,79.5 l -4.5,0 0.30245,6.5 c 0.16635,3.575 0.84135,7.040178 1.5,7.700395 0.65865,0.660217 4.34755,2.10024 8.19755,3.200052 8.20009,2.342481 14.15802,2.134168 23.61203,-0.825571 z M 315.46034,108.75725 C 315.19297,108.06048 315.09251,91.292559 315.2371,71.4952 L 315.5,35.5 l 38,0 38,0 0,37 0,37 -37.77676,0.26205 c -29.75968,0.20644 -37.87993,-0.007 -38.2629,-1.0048 z M 224.09135,25.056457 c -0.78783,-0.486908 -1.08585,-3.21896 -0.88843,-8.144569 L 223.5,9.5 l 23.5,0 23.5,0 0.29708,7.411888 c 0.20301,5.065162 -0.0922,7.652465 -0.93237,8.171728 -1.57447,0.973071 -44.19587,0.947782 -45.77336,-0.02716 z m 14.7282,-7.306132 c -0.28044,-1.974323 -0.80914,-2.20771 -4.31955,-1.906809 -4.67551,0.400769 -4.94011,0.567195 -4.15492,2.613356 C 230.74559,19.500588 232.26444,20 235.03817,20 c 3.68067,0 4.06818,-0.230545 3.78138,-2.249675 z m -127.40006,4.90046 c -0.28476,-0.742068 -0.38314,-4.454568 -0.21862,-8.25 0.29244,-6.746335 0.36234,-6.9080276 3.1235,-7.224384 2.16868,-0.2484734 2.95026,0.1578009 3.36663,1.75 0.68763,2.629488 1.92123,2.664424 2.59875,0.073599 0.49294,-1.884991 1.36401,-2 15.14802,-2 12.25935,0 14.72079,0.2496136 15.21717,1.5431716 0.53037,1.3821156 0.77598,1.3768233 2.35339,-0.050708 1.31222,-1.187549 3.38392,-1.5172197 8.12644,-1.2931716 L 167.5,7.5 168,12 c 0.4676,4.208421 0.70745,4.52007 3.70158,4.809747 3.58617,0.346956 5.27156,3.312767 3.25995,5.736603 -1.66779,2.009573 -19.87168,1.851358 -20.65099,-0.179483 C 153.61308,20.549318 150.5553,20.625976 149,22.5 c -3.03309,3.654656 -7,0.943937 -7,-4.783333 0,-5.4176 -2.35436,-4.349516 -3,1.360987 -0.48529,4.292205 -0.603,4.422346 -4,4.422346 -3.40741,0 -3.51323,-0.119048 -4,-4.5 -0.34568,-3.111111 -0.96296,-4.5 -2,-4.5 -1.03704,0 -1.65432,1.388889 -2,4.5 -0.45022,4.051948 -0.78121,4.53222 -3.32437,4.823599 -2.16868,0.248473 -2.95026,-0.157801 -3.36663,-1.75 -0.68763,-2.629488 -1.92123,-2.664424 -2.59875,-0.0736 -0.60824,2.325904 -5.45553,2.827361 -6.29076,0.650785 z"
       id="path4922"
       inkscape:connector-curvature="0" />
    <path
       style="fill:#ebcc44"
       d="m 231.01468,112.54924 -14.48531,-4.24232 -0.67785,-3.40346 C 215.47871,103.03156 214.66706,95.2 214.04786,87.5 c -1.40187,-17.432912 -2.8299,-33.204914 -4.10312,-45.31744 -0.53868,-5.124592 -0.72005,-9.737092 -0.40306,-10.25 0.73696,-1.192433 74.14257,-1.252474 74.87879,-0.06125 0.29617,0.479223 0.12893,4.641723 -0.37166,9.25 -1.11446,10.259315 -2.59611,26.79672 -4.06567,45.378686 -0.60895,7.7 -1.41677,15.753764 -1.79516,17.897234 L 277.5,108.29447 269,110.6548 c -4.675,1.29819 -10.3,2.8538 -12.5,3.45691 -2.2,0.60311 -5.03367,1.49971 -6.29705,1.99243 -3.08299,1.20238 -2.70644,1.27214 -19.18827,-3.5549 z M 258.5,97.97571 c 4.4,-1.187871 8.58269,-2.717112 9.29486,-3.398312 1.36373,-1.304423 3.78248,-25.630499 2.80239,-28.184554 C 270.20973,65.382981 268.10648,65 262.94805,65 c -8.93859,0 -8.74954,-1.219984 0.81156,-5.23713 3.95292,-1.660843 7.38229,-3.749424 7.62082,-4.641292 1.54071,-5.760856 1.53485,-7.063442 -0.0389,-8.637151 -1.4929,-1.492904 -3.98739,-1.590115 -24.7509,-0.964541 -25.42326,0.765966 -26.80756,1.109816 -25.01845,6.214397 0.95793,2.733121 1.09181,2.77161 11.35952,3.265717 11.8673,0.571083 11.87103,0.899 0.0683,6 -9.27133,4.006945 -10,4.584876 -10,7.931315 0,5.661171 1.0366,6.014379 18.5,6.303652 l 16,0.265033 0.32368,3.388373 c 0.61603,6.448785 -0.32149,7.823662 -6.57502,9.642323 C 241.76722,91.2881 234,89.473042 234,84.5 c 0,-3.00732 -2.25003,-4.716641 -5.68953,-4.322258 -2.64424,0.303198 -2.82853,0.638157 -3.11588,5.663213 -0.42914,7.504472 1.06972,9.366052 8.92424,11.083933 3.50964,0.767603 7.95617,1.96249 9.88117,2.655304 1.925,0.692818 4.175,1.101178 5,0.907478 0.825,-0.19371 5.1,-1.324089 9.5,-2.51196 z m -121,16.56675 c -2.2,-0.71481 -5.8,-1.7923 -8,-2.39443 -12.76216,-3.49293 -16.12556,-4.66732 -17.25,-6.02311 -0.6875,-0.82895 -1.25,-3.66889 -1.25,-6.31097 0,-2.642085 -0.64651,-11.218577 -1.43669,-19.05887 -4.48711,-44.521673 -4.78714,-48.780459 -3.54225,-50.280458 1.83269,-2.208256 72.12519,-2.208256 73.95788,0 1.24489,1.499999 0.94486,5.758785 -3.54225,50.280458 C 175.64651,88.595373 175,97.171865 175,99.81395 c 0,2.64208 -0.5625,5.49078 -1.25,6.33044 -0.6875,0.83965 -4.175,2.33189 -7.75,3.31608 -3.575,0.98418 -10.16508,2.8582 -14.64461,4.16448 -9.24268,2.69526 -8.52931,2.64802 -13.85539,0.91751 z m 18.61203,-18.467584 6.61204,-2.070009 0.65217,-5.54903 c 0.3587,-3.051967 0.9374,-9.567149 1.28599,-14.478184 l 0.63381,-8.929154 -17.39802,-0.27425 L 130.5,64.5 130.19521,59.75 129.89042,55 l 17.9478,0 C 167.64287,55 167,55.220817 167,48.418213 L 167,45 143.46862,45 c -18.37289,0 -23.64064,0.28469 -24.02973,1.298662 -0.27409,0.714265 0.0775,7.126765 0.78138,14.25 L 121.5,73.5 l 16,0.5 16,0.5 0.29667,5.088823 c 0.34263,5.877184 -0.3801,6.775148 -6.8358,8.493276 -3.59558,0.956932 -5.43073,0.912688 -9.46087,-0.228096 -4.58629,-1.29821 -5.04137,-1.702378 -5.5,-4.88466 C 131.51416,79.59827 131.37254,79.5 127,79.5 l -4.5,0 0.30245,6.5 c 0.16635,3.575 0.84135,7.040178 1.5,7.700395 0.65865,0.660217 4.34755,2.10024 8.19755,3.200052 8.20009,2.342481 14.15802,2.134168 23.61203,-0.825571 z M 315.46034,108.75725 C 315.19297,108.06048 315.09251,91.292559 315.2371,71.4952 L 315.5,35.5 l 38,0 38,0 0,37 0,37 -37.77676,0.26205 c -29.75968,0.20644 -37.87993,-0.007 -38.2629,-1.0048 z M 257.25,24.361097 C 256.5625,24.070827 256,23.233333 256,22.5 c 0,-0.733333 0.5625,-1.561574 1.25,-1.840536 0.93991,-0.381378 0.87789,-0.765062 -0.25,-1.546647 -1.71547,-1.188757 -2.15648,-6.002842 -0.7203,-7.862817 1.1801,-1.5283254 12.32306,-1.7017654 13.24737,-0.206195 0.35481,0.574093 0.0854,1.718164 -0.5986,2.542382 -0.94203,1.135079 -0.96291,1.77937 -0.0861,2.656195 C 269.47907,16.879072 270,18.885 270,20.7 c 0,3.144239 -0.177,3.300645 -3.75,3.313655 -2.0625,0.0075 -4.65,0.207503 -5.75,0.44443 -1.1,0.236926 -2.5625,0.193282 -3.25,-0.09699 z M 224.20431,17.25 224.5,10.5 l 6.4863,0 c 5.38238,0 6.54367,0.297839 6.82333,1.75 C 238.0788,13.647673 237.44161,14 234.64475,14 231.41469,14 228,16.029354 228,17.948984 c 0,1.52321 2.51282,2.888071 5.927,3.219311 1.88044,0.182438 3.60363,0.894205 3.82932,1.581705 0.3025,0.92148 -1.46327,1.25 -6.71868,1.25 l -7.12902,0 0.29569,-6.75 z M 240,23.2 c 0,-0.44 0.52093,-1.320928 1.15762,-1.957618 0.87682,-0.876825 0.86027,-1.515896 -0.0682,-2.634676 -0.67422,-0.812382 -1.08265,-2.968954 -0.90762,-4.792382 0.31704,-3.302959 0.34022,-3.316459 6.21398,-3.619577 6.49896,-0.3353813 8.70773,0.769716 6.60425,3.304253 -0.99621,1.20036 -1.03444,1.865557 -0.15762,2.742382 C 253.47907,16.879072 254,18.885 254,20.7 l 0,3.3 -7,0 c -3.85,0 -7,-0.36 -7,-0.8 z M 112.41459,21.638028 c -0.28745,-0.749084 -0.38582,-4.007211 -0.21861,-7.240281 0.24069,-4.6537693 0.66796,-5.9475713 2.05111,-6.2107917 1.12957,-0.2149647 2.09282,0.5768707 2.72525,2.2402817 1.23814,3.256577 2.8064,3.284909 4.02766,0.07276 1.02786,-2.7034652 2.89173,-3.2082657 4.8,-1.3 0.93333,0.933333 1.46667,0.933333 2.4,0 1.49733,-1.4973317 12.01465,-1.5853464 13.48713,-0.1128677 0.78285,0.782843 1.2752,0.782843 1.75902,0 1.00193,-1.6211532 4.64631,-1.3134282 6.72511,0.5678553 1.70342,1.5415764 1.9607,1.5355694 3.75434,-0.087653 1.05907,-0.9584523 2.74657,-1.5860444 3.75,-1.3946491 2.64317,0.5041662 3.29442,13.5178545 0.7258,14.5035265 -1.06692,0.409413 -2.21668,-0.0568 -3.11659,-1.263732 -0.78429,-1.051864 -1.89158,-1.784191 -2.46065,-1.627393 -0.56907,0.156797 -1.59168,-0.177186 -2.27247,-0.742185 -0.90661,-0.752424 -1.55117,-0.33947 -2.40909,1.543463 -1.40087,3.074591 -3.53627,2.711791 -3.91229,-0.664693 -0.14833,-1.33192 -0.50573,-3.881512 -0.79421,-5.665761 -0.51284,-3.171931 -0.57794,-3.209079 -2.92671,-1.670106 -1.7844,1.169185 -2.48028,2.646453 -2.7058,5.744089 C 137.53419,22.030382 137.21846,22.5 135,22.5 c -2.19888,0 -2.53694,-0.481789 -2.80671,-4 -0.27776,-3.622572 -3.0036,-7.401862 -5.39339,-7.477764 -0.38505,-0.01223 -0.83505,2.560891 -1,5.718046 -0.23636,4.524195 -0.67002,5.810718 -2.04699,6.072763 -1.12957,0.214964 -2.09282,-0.576871 -2.72525,-2.240282 C 119.78952,17.316186 118.22126,17.287854 117,20.5 c -1.02257,2.689553 -3.73199,3.361992 -4.58541,1.138028 z m 50.02021,0.05265 C 162.13623,20.912637 162.02877,17.626446 162.19598,14.38803 162.46034,9.2680074 162.76087,8.5 164.5,8.5 c 1.62963,0 2.09259,0.8333333 2.5,4.5 0.47153,4.243734 0.68853,4.518103 3.81066,4.817882 2.75654,0.264678 3.25866,0.68311 3,2.5 -0.26767,1.880175 -1.03866,2.223996 -5.57184,2.484765 -3.82601,0.22009 -5.40926,-0.08324 -5.80402,-1.111971 z"
       id="path4920"
       inkscape:connector-curvature="0" />
    <path
       style="fill:#38a0d4"
       d="m 231.01468,112.54924 -14.48531,-4.24232 -0.67785,-3.40346 C 215.47871,103.03156 214.66706,95.2 214.04786,87.5 c -1.40187,-17.432912 -2.8299,-33.204914 -4.10312,-45.31744 -0.53868,-5.124592 -0.72005,-9.737092 -0.40306,-10.25 0.73696,-1.192433 74.14257,-1.252474 74.87879,-0.06125 0.29617,0.479223 0.12893,4.641723 -0.37166,9.25 -1.11446,10.259315 -2.59611,26.79672 -4.06567,45.378686 -0.60895,7.7 -1.41677,15.753764 -1.79516,17.897234 L 277.5,108.29447 269,110.6548 c -4.675,1.29819 -10.3,2.8538 -12.5,3.45691 -2.2,0.60311 -5.03367,1.49971 -6.29705,1.99243 -3.08299,1.20238 -2.70644,1.27214 -19.18827,-3.5549 z M 258.5,97.97571 c 4.4,-1.187871 8.58269,-2.717112 9.29486,-3.398312 1.36373,-1.304423 3.78248,-25.630499 2.80239,-28.184554 C 270.20973,65.382981 268.10648,65 262.94805,65 c -8.93859,0 -8.74954,-1.219984 0.81156,-5.23713 3.95292,-1.660843 7.38229,-3.749424 7.62082,-4.641292 1.54071,-5.760856 1.53485,-7.063442 -0.0389,-8.637151 -1.4929,-1.492904 -3.98739,-1.590115 -24.7509,-0.964541 -25.42326,0.765966 -26.80756,1.109816 -25.01845,6.214397 0.95793,2.733121 1.09181,2.77161 11.35952,3.265717 11.8673,0.571083 11.87103,0.899 0.0683,6 -9.27133,4.006945 -10,4.584876 -10,7.931315 0,5.661171 1.0366,6.014379 18.5,6.303652 l 16,0.265033 0.32368,3.388373 c 0.61603,6.448785 -0.32149,7.823662 -6.57502,9.642323 C 241.76722,91.2881 234,89.473042 234,84.5 c 0,-3.00732 -2.25003,-4.716641 -5.68953,-4.322258 -2.64424,0.303198 -2.82853,0.638157 -3.11588,5.663213 -0.42914,7.504472 1.06972,9.366052 8.92424,11.083933 3.50964,0.767603 7.95617,1.96249 9.88117,2.655304 1.925,0.692818 4.175,1.101178 5,0.907478 0.825,-0.19371 5.1,-1.324089 9.5,-2.51196 z m -119.59892,16.59203 c -0.23774,-0.23774 -4.02524,-1.38902 -8.41667,-2.55841 C 111.0758,106.84104 112,107.2804 112,103.22205 c 0,-1.99981 -0.675,-10.517883 -1.5,-18.929039 -0.825,-8.411156 -2.175,-22.174866 -3,-30.586022 -0.825,-8.411156 -1.5,-17.186156 -1.5,-19.5 L 106,30 l 37,0 37,0 0,4.206989 c 0,2.313844 -0.68998,11.201344 -1.53328,19.75 -0.8433,8.548656 -2.1964,22.293011 -3.00688,30.543011 -0.81048,8.25 -1.4705,16.65557 -1.46672,18.67904 0.007,3.58702 -0.12444,3.7157 -5.24312,5.1445 -2.8875,0.806 -9.43259,2.63793 -14.54464,4.07095 -8.61841,2.41595 -14.26041,3.21713 -15.30428,2.17325 z m 12.8673,-16.629752 c 12.16257,-3.24374 11.76812,-2.710677 13.22537,-17.872931 1.05182,-10.943911 1.03339,-13.327434 -0.11374,-14.709641 -1.20731,-1.454712 -3.21794,-1.576694 -17.02742,-1.033031 -17.45413,0.68715 -18.24183,0.441666 -17.67082,-5.507061 L 130.5,55.5 l 16.0693,0.374739 c 8.83812,0.206107 17.01424,0.07483 18.16915,-0.291727 1.49713,-0.475169 2.29705,-1.833657 2.78687,-4.73286 1.2093,-7.157802 1.04639,-7.198498 -25.4312,-6.353157 -22.67149,0.723825 -23.09433,0.77635 -23.10557,2.870162 -0.006,1.173063 0.51786,7.645343 1.16477,14.382843 l 1.17622,12.25 7.58523,0.006 c 4.17188,0.0033 11.29773,0.294994 15.83523,0.648217 l 8.25,0.642224 0,4.902809 c 0,4.689429 -0.15763,4.968673 -3.62192,6.416145 -4.58095,1.914042 -10.28982,2.013447 -13.99967,0.243768 -2.15527,-1.028115 -2.95713,-2.187809 -3.19177,-4.616112 C 131.87965,79.065925 131.77293,79 126.93664,79 122.17168,79 122,79.099476 122,81.860429 c 0,1.573236 0.28416,4.933611 0.63147,7.467501 0.6909,5.040658 0.50436,4.920052 13.86853,8.966811 6.62612,2.006429 6.3865,2.012029 15.26838,-0.356753 z m 189.49316,6.322092 c -3.66517,-1.82441 -5.00609,-4.65802 -3.22171,-6.808068 1.59233,-1.918645 4.59255,-1.852386 5.34871,0.118125 0.89364,2.32879 4.85177,1.345697 6.32169,-1.570137 0.7985,-1.58396 1.26569,-6.828604 1.27503,-14.313358 L 351,69.873283 l 3.25,0.313359 3.25,0.313358 0.28692,12 c 0.35239,14.73806 -1.14097,19.91433 -6.3764,22.10183 -4.19091,1.75108 -6.07182,1.68774 -10.14898,-0.34175 z m 26.76619,-0.33266 c -6.56249,-2.97681 -7.95122,-6.093896 -3.59852,-8.077121 2.01784,-0.919389 2.8874,-0.746414 5.13486,1.021439 4.40304,3.463432 9.43593,2.339464 9.43593,-2.107275 0,-1.238686 -1.54453,-2.49446 -4.75,-3.861967 C 367.24521,87.914136 363,83.439162 363,79.043615 c 0,-7.05814 7.4866,-11.336036 15.88236,-9.075292 4.55914,1.22765 5.86764,3.545458 3.48676,6.176295 -2.06157,2.278013 -3.19152,2.326081 -5.50313,0.234101 -2.52127,-2.281717 -5.07737,-1.040825 -4.68296,2.273403 0.24594,2.066621 1.54153,3.323316 5.78147,5.607903 6.89237,3.713781 7.97189,5.168149 7.97189,10.739975 0,5.34545 -1.39211,7.45681 -6.25676,9.48939 -4.69195,1.96043 -6.25763,1.88491 -11.6519,-0.56197 z M 257.25,24.361097 C 256.5625,24.070827 256,23.233333 256,22.5 c 0,-0.733333 0.5625,-1.561574 1.25,-1.840536 0.93991,-0.381378 0.87789,-0.765062 -0.25,-1.546647 -1.71547,-1.188757 -2.15648,-6.002842 -0.7203,-7.862817 1.1801,-1.5283254 12.32306,-1.7017654 13.24737,-0.206195 0.35481,0.574093 0.0854,1.718164 -0.5986,2.542382 -0.94203,1.135079 -0.96291,1.77937 -0.0861,2.656195 C 269.47907,16.879072 270,18.885 270,20.7 c 0,3.144239 -0.177,3.300645 -3.75,3.313655 -2.0625,0.0075 -4.65,0.207503 -5.75,0.44443 -1.1,0.236926 -2.5625,0.193282 -3.25,-0.09699 z M 224.20431,17.25 224.5,10.5 l 6.4863,0 c 5.38238,0 6.54367,0.297839 6.82333,1.75 C 238.0788,13.647673 237.44161,14 234.64475,14 231.41469,14 228,16.029354 228,17.948984 c 0,1.52321 2.51282,2.888071 5.927,3.219311 1.88044,0.182438 3.60363,0.894205 3.82932,1.581705 0.3025,0.92148 -1.46327,1.25 -6.71868,1.25 l -7.12902,0 0.29569,-6.75 z M 240,23.2 c 0,-0.44 0.52093,-1.320928 1.15762,-1.957618 0.87682,-0.876825 0.86027,-1.515896 -0.0682,-2.634676 -0.67422,-0.812382 -1.08265,-2.968954 -0.90762,-4.792382 0.31704,-3.302959 0.34022,-3.316459 6.21398,-3.619577 6.49896,-0.3353813 8.70773,0.769716 6.60425,3.304253 -0.99621,1.20036 -1.03444,1.865557 -0.15762,2.742382 C 253.47907,16.879072 254,18.885 254,20.7 l 0,3.3 -7,0 c -3.85,0 -7,-0.36 -7,-0.8 z M 112.41459,21.638028 c -0.28745,-0.749084 -0.38582,-4.007211 -0.21861,-7.240281 0.24069,-4.6537693 0.66796,-5.9475713 2.05111,-6.2107917 1.12957,-0.2149647 2.09282,0.5768707 2.72525,2.2402817 1.23814,3.256577 2.8064,3.284909 4.02766,0.07276 1.02786,-2.7034652 2.89173,-3.2082657 4.8,-1.3 0.93333,0.933333 1.46667,0.933333 2.4,0 1.49733,-1.4973317 12.01465,-1.5853464 13.48713,-0.1128677 0.78285,0.782843 1.2752,0.782843 1.75902,0 1.00193,-1.6211532 4.64631,-1.3134282 6.72511,0.5678553 1.70342,1.5415764 1.9607,1.5355694 3.75434,-0.087653 1.05907,-0.9584523 2.74657,-1.5860444 3.75,-1.3946491 2.64317,0.5041662 3.29442,13.5178545 0.7258,14.5035265 -1.06692,0.409413 -2.21668,-0.0568 -3.11659,-1.263732 -0.78429,-1.051864 -1.89158,-1.784191 -2.46065,-1.627393 -0.56907,0.156797 -1.59168,-0.177186 -2.27247,-0.742185 -0.90661,-0.752424 -1.55117,-0.33947 -2.40909,1.543463 -1.40087,3.074591 -3.53627,2.711791 -3.91229,-0.664693 -0.14833,-1.33192 -0.50573,-3.881512 -0.79421,-5.665761 -0.51284,-3.171931 -0.57794,-3.209079 -2.92671,-1.670106 -1.7844,1.169185 -2.48028,2.646453 -2.7058,5.744089 C 137.53419,22.030382 137.21846,22.5 135,22.5 c -2.19888,0 -2.53694,-0.481789 -2.80671,-4 -0.27776,-3.622572 -3.0036,-7.401862 -5.39339,-7.477764 -0.38505,-0.01223 -0.83505,2.560891 -1,5.718046 -0.23636,4.524195 -0.67002,5.810718 -2.04699,6.072763 -1.12957,0.214964 -2.09282,-0.576871 -2.72525,-2.240282 C 119.78952,17.316186 118.22126,17.287854 117,20.5 c -1.02257,2.689553 -3.73199,3.361992 -4.58541,1.138028 z m 50.02021,0.05265 C 162.13623,20.912637 162.02877,17.626446 162.19598,14.38803 162.46034,9.2680074 162.76087,8.5 164.5,8.5 c 1.62963,0 2.09259,0.8333333 2.5,4.5 0.47153,4.243734 0.68853,4.518103 3.81066,4.817882 2.75654,0.264678 3.25866,0.68311 3,2.5 -0.26767,1.880175 -1.03866,2.223996 -5.57184,2.484765 -3.82601,0.22009 -5.40926,-0.08324 -5.80402,-1.111971 z"
       id="path4918"
       inkscape:connector-curvature="0" />
    <path
       style="fill:#e6572b"
       d="m 232.01468,111.54924 -14.48531,-4.24232 -0.67785,-3.40346 C 216.47871,102.03156 215.66428,94.2 215.04167,86.5 213.53151,67.823171 212.0447,51.250625 211.00702,41.528155 c -0.46796,-4.384514 -0.63442,-8.322014 -0.36991,-8.75 0.61739,-0.998967 72.10332,-1.026663 72.67201,-0.02815 0.23493,0.4125 0.0708,4.125 -0.36473,8.25 -1.07098,10.143332 -2.62308,27.579392 -3.96125,44.5 -0.60895,7.7 -1.41677,15.753265 -1.79516,17.896135 l -0.68798,3.89614 -15,4.32512 c -8.25,2.37881 -15,4.29115 -15,4.24964 0,-0.0415 -6.51839,-1.98451 -14.48532,-4.31779 z m 28.64619,-5.13077 c 5.41152,-1.41984 10.33523,-3.21503 10.94157,-3.98933 0.60634,-0.77429 1.37955,-5.575099 1.71825,-10.668468 0.3387,-5.09337 1.10149,-14.660672 1.6951,-21.260672 2.39829,-26.665251 2.73332,-32.033474 2.04571,-32.778503 -0.39518,-0.428176 -7.20818,-0.653176 -15.14,-0.5 L 247.5,37.5 247,41 l -0.5,3.5 -13,0.5 -13,0.5 -0.30991,3.203794 c -0.59824,6.184393 0.81083,7.184785 10.57437,7.507484 L 239.5,56.5 l -5.19617,2.349988 c -12.02526,5.438469 -11.7764,5.227943 -12.10199,10.2376 -0.19241,2.960581 0.1833,4.987157 1.05937,5.714234 0.77067,0.639595 6.08718,1.250184 12.29816,1.412413 L 246.5,76.5 l 0,6 0,6 -4.33454,-0.19772 C 236.8571,88.060141 235.20745,86.798574 234.8078,82.675529 234.50704,79.572602 234.38569,79.5 229.5,79.5 l -5,0 -0.29838,6.867805 C 223.88229,93.718122 225.39673,97 229.10793,97 c 0.98888,0 2.83164,0.398414 4.09502,0.885364 1.26338,0.48695 4.88455,1.634945 8.04705,2.551096 5.56655,1.6126 5.75,1.77577 5.75,5.11464 0,4.27847 0.53135,4.31221 13.66087,0.86737 z m -121.75979,8.14927 c -0.23774,-0.23774 -4.02524,-1.38902 -8.41667,-2.55841 C 111.0758,106.84104 112,107.2804 112,103.22205 c 0,-1.99981 -0.675,-10.517883 -1.5,-18.929039 -0.825,-8.411156 -2.175,-22.174866 -3,-30.586022 -0.825,-8.411156 -1.5,-17.186156 -1.5,-19.5 L 106,30 l 37,0 37,0 0,4.206989 c 0,2.313844 -0.68998,11.201344 -1.53328,19.75 -0.8433,8.548656 -2.1964,22.293011 -3.00688,30.543011 -0.81048,8.25 -1.4705,16.65557 -1.46672,18.67904 0.007,3.58702 -0.12444,3.7157 -5.24312,5.1445 -2.8875,0.806 -9.43259,2.63793 -14.54464,4.07095 -8.61841,2.41595 -14.26041,3.21713 -15.30428,2.17325 z m 12.8673,-16.629752 c 12.16257,-3.24374 11.76812,-2.710677 13.22537,-17.872931 1.05182,-10.943911 1.03339,-13.327434 -0.11374,-14.709641 -1.20731,-1.454712 -3.21794,-1.576694 -17.02742,-1.033031 -17.45413,0.68715 -18.24183,0.441666 -17.67082,-5.507061 L 130.5,55.5 l 16.0693,0.374739 c 8.83812,0.206107 17.01424,0.07483 18.16915,-0.291727 1.49713,-0.475169 2.29705,-1.833657 2.78687,-4.73286 1.2093,-7.157802 1.04639,-7.198498 -25.4312,-6.353157 -22.67149,0.723825 -23.09433,0.77635 -23.10557,2.870162 -0.006,1.173063 0.51786,7.645343 1.16477,14.382843 l 1.17622,12.25 7.58523,0.006 c 4.17188,0.0033 11.29773,0.294994 15.83523,0.648217 l 8.25,0.642224 0,4.902809 c 0,4.689429 -0.15763,4.968673 -3.62192,6.416145 -4.58095,1.914042 -10.28982,2.013447 -13.99967,0.243768 -2.15527,-1.028115 -2.95713,-2.187809 -3.19177,-4.616112 C 131.87965,79.065925 131.77293,79 126.93664,79 122.17168,79 122,79.099476 122,81.860429 c 0,1.573236 0.28416,4.933611 0.63147,7.467501 0.6909,5.040658 0.50436,4.920052 13.86853,8.966811 6.62612,2.006429 6.3865,2.012029 15.26838,-0.356753 z m 189.49316,6.322092 c -3.66517,-1.82441 -5.00609,-4.65802 -3.22171,-6.808068 1.59233,-1.918645 4.59255,-1.852386 5.34871,0.118125 0.89364,2.32879 4.85177,1.345697 6.32169,-1.570137 0.7985,-1.58396 1.26569,-6.828604 1.27503,-14.313358 L 351,69.873283 l 3.25,0.313359 3.25,0.313358 0.28692,12 c 0.35239,14.73806 -1.14097,19.91433 -6.3764,22.10183 -4.19091,1.75108 -6.07182,1.68774 -10.14898,-0.34175 z m 26.76619,-0.33266 c -6.56249,-2.97681 -7.95122,-6.093896 -3.59852,-8.077121 2.01784,-0.919389 2.8874,-0.746414 5.13486,1.021439 4.40304,3.463432 9.43593,2.339464 9.43593,-2.107275 0,-1.238686 -1.54453,-2.49446 -4.75,-3.861967 C 367.24521,87.914136 363,83.439162 363,79.043615 c 0,-7.05814 7.4866,-11.336036 15.88236,-9.075292 4.55914,1.22765 5.86764,3.545458 3.48676,6.176295 -2.06157,2.278013 -3.19152,2.326081 -5.50313,0.234101 -2.52127,-2.281717 -5.07737,-1.040825 -4.68296,2.273403 0.24594,2.066621 1.54153,3.323316 5.78147,5.607903 6.89237,3.713781 7.97189,5.168149 7.97189,10.739975 0,5.34545 -1.39211,7.45681 -6.25676,9.48939 -4.69195,1.96043 -6.25763,1.88491 -11.6519,-0.56197 z M 224.43026,22.678854 c -0.29912,-0.779489 -0.40579,-3.838613 -0.23706,-6.798053 L 224.5,10.5 l 6.5,0 c 5.11111,0 6.5,0.320513 6.5,1.5 0,0.984037 -1.20253,1.614098 -3.49599,1.831705 -4.3417,0.411948 -6.18947,1.870732 -5.80227,4.58079 0.23882,1.671502 1.19503,2.187146 4.79826,2.587505 6.57869,0.730965 5.49389,2.452701 -1.76294,2.798053 -4.68913,0.223156 -6.39961,-0.05809 -6.8068,-1.119199 z m 16.30589,0.723959 C 239.42074,22.087406 241.1508,21 244.55902,21 249.20746,21 248.95338,19.199636 244.25,18.810365 240.59339,18.50773 240.5,18.40038 240.5,14.5 l 0,-4 6.5,0 c 5.11111,0 6.5,0.320513 6.5,1.5 0,1.011491 -1.22127,1.601078 -3.75,1.810365 C 247.6875,13.981066 246,14.516402 246,15 c 0,0.483598 1.6875,1.018934 3.75,1.189635 3.55993,0.294634 3.75,0.487763 3.75,3.810365 l 0,3.5 -6.04104,0.292294 c -3.32257,0.160761 -6.34784,-0.0145 -6.72281,-0.389481 z m 15.49183,-0.604859 c 0.23464,-0.713875 2.07933,-1.437618 4.09932,-1.608319 4.78562,-0.404414 4.7344,-1.981034 -0.0773,-2.37927 C 256.59339,18.50773 256.5,18.40038 256.5,14.5 l 0,-4 6.5,0 c 5.11111,0 6.5,0.320513 6.5,1.5 0,1.049804 -1.27555,1.592289 -4.25,1.807498 C 262.9125,13.976622 261,14.513248 261,15 c 0,0.486752 1.9125,1.023378 4.25,1.192502 4.13191,0.298954 4.25,0.404753 4.25,3.807498 l 0,3.5 -6.84932,0.297954 c -5.26461,0.229017 -6.75061,-0.0024 -6.4227,-1 z M 112.41459,21.638028 c -0.28745,-0.749084 -0.38582,-4.007211 -0.21861,-7.240281 0.24069,-4.6537693 0.66796,-5.9475713 2.05111,-6.2107917 1.12957,-0.2149647 2.09282,0.5768707 2.72525,2.2402817 C 117.51033,11.842257 118.42277,13 119,13 c 0.57723,0 1.48967,-1.157743 2.02766,-2.572763 0.63351,-1.6662497 1.59375,-2.4542121 2.72525,-2.236305 C 125.21648,8.4727897 125.5,9.6589039 125.5,15.5 c 0,5.841096 -0.28352,7.02721 -1.74709,7.309068 -1.1315,0.217907 -2.09174,-0.570055 -2.72525,-2.236305 -1.22831,-3.230723 -2.35442,-3.249195 -4.4357,-0.07276 -1.81966,2.777141 -3.38476,3.20352 -4.17737,1.138028 z m 20.25208,0.695305 C 132.3,21.966667 132,19.996554 132,17.955305 c 0,-2.701677 -0.59176,-4.104277 -2.17518,-5.155627 -1.42661,-0.947236 -1.95363,-2.021632 -1.53139,-3.1219721 0.93594,-2.4390078 12.4772,-2.4390078 13.41314,0 0.42224,1.1003401 -0.10478,2.1747361 -1.53139,3.1219721 C 138.70087,13.778583 138,15.267945 138,17.421972 c 0,4.283068 -3.10359,7.141104 -5.33333,4.911361 z m 11.9755,-0.103291 C 143.82242,20.903649 143.6162,10.430015 144.38534,9.1855235 145.56739,7.2729269 148.6298,7.8205002 150.33864,10.25 l 1.58257,2.25 1.87316,-2.355339 c 1.11175,-1.3979449 2.65206,-2.205335 3.78939,-1.9863052 C 159.25358,8.479934 159.5,9.424036 159.5,15.5 c 0,5.948917 -0.26733,7.024094 -1.82088,7.323278 -1.15746,0.222909 -2.01016,-0.373169 -2.34042,-1.636076 -0.33313,-1.273893 -1.5943,-2.144486 -3.51493,-2.426375 -2.43252,-0.357018 -3.16253,-2.9e-5 -3.88483,1.899772 -0.8842,2.325619 -2.38721,3.041136 -3.29677,1.569443 z m 18.46782,-0.597511 c -0.73674,-0.887724 -1.09582,-3.759855 -0.91241,-7.298158 C 162.46022,9.2674738 162.76309,8.5 164.5,8.5 c 1.62921,0 2.0927,0.8333333 2.5,4.494868 0.45221,4.065274 0.78672,4.544083 3.5,5.00982 2.1559,0.370063 3,1.074923 3,2.505133 0,1.654365 -0.77409,2.040489 -4.58759,2.288337 -3.10567,0.201845 -4.98001,-0.174685 -5.80242,-1.165627 z"
       id="path4916"
       inkscape:connector-curvature="0" />
    <path
       style="fill:#0471ba"
       d="m 232.01468,111.54924 -14.48531,-4.24232 -0.67785,-3.40346 C 216.47871,102.03156 215.66428,94.2 215.04167,86.5 213.53151,67.823171 212.0447,51.250625 211.00702,41.528155 c -0.46796,-4.384514 -0.63442,-8.322014 -0.36991,-8.75 0.61739,-0.998967 72.10332,-1.026663 72.67201,-0.02815 0.23493,0.4125 0.0708,4.125 -0.36473,8.25 -1.07098,10.143332 -2.62308,27.579392 -3.96125,44.5 -0.60895,7.7 -1.41677,15.753265 -1.79516,17.896135 l -0.68798,3.89614 -15,4.32512 c -8.25,2.37881 -15,4.29115 -15,4.24964 0,-0.0415 -6.51839,-1.98451 -14.48532,-4.31779 z m 28.64619,-5.13077 c 5.41152,-1.41984 10.33523,-3.21503 10.94157,-3.98933 0.60634,-0.77429 1.37955,-5.575099 1.71825,-10.668468 0.3387,-5.09337 1.10149,-14.660672 1.6951,-21.260672 2.39829,-26.665251 2.73332,-32.033474 2.04571,-32.778503 -0.39518,-0.428176 -7.20818,-0.653176 -15.14,-0.5 L 247.5,37.5 247,41 l -0.5,3.5 -13,0.5 -13,0.5 -0.30991,3.203794 c -0.59824,6.184393 0.81083,7.184785 10.57437,7.507484 L 239.5,56.5 l -5.19617,2.349988 c -12.02526,5.438469 -11.7764,5.227943 -12.10199,10.2376 -0.19241,2.960581 0.1833,4.987157 1.05937,5.714234 0.77067,0.639595 6.08718,1.250184 12.29816,1.412413 L 246.5,76.5 l 0,6 0,6 -4.33454,-0.19772 C 236.8571,88.060141 235.20745,86.798574 234.8078,82.675529 234.50704,79.572602 234.38569,79.5 229.5,79.5 l -5,0 -0.29838,6.867805 C 223.88229,93.718122 225.39673,97 229.10793,97 c 0.98888,0 2.83164,0.398414 4.09502,0.885364 1.26338,0.48695 4.88455,1.634945 8.04705,2.551096 5.56655,1.6126 5.75,1.77577 5.75,5.11464 0,4.27847 0.53135,4.31221 13.66087,0.86737 z M 342,104.29056 c -2.34672,-0.86287 -5,-3.46859 -5,-4.910364 0,-0.720406 0.93743,-1.811528 2.08319,-2.424716 1.63896,-0.877147 2.45541,-0.778028 3.82874,0.464816 2.09093,1.892272 5.65553,2.065639 6.77905,0.329704 C 350.13594,97.0625 350.725,90.65 351,83.5 l 0.5,-13 2.5,0 2.5,0 0,14.838567 0,14.838563 -2.80576,2.41144 c -2.73226,2.34825 -7.89364,3.09945 -11.69424,1.70199 z m 24.68776,-1.33337 c -2.8934,-1.5702 -3.73698,-2.59767 -3.5,-4.263009 0.39134,-2.750058 4.18555,-3.463725 6.43828,-1.210999 1.04904,1.049037 2.90449,1.515616 5.24834,1.319768 3.28748,-0.274695 3.62562,-0.580518 3.62562,-3.279085 0,-2.629364 -0.65576,-3.290515 -5.62798,-5.674274 -9.6992,-4.649936 -12.47183,-11.403629 -6.94894,-16.926514 C 368.39598,70.450171 369.63815,70 373.98882,70 380.01928,70 383,71.318321 383,73.985494 c 0,3.078996 -3.0086,4.12098 -6.30617,2.184045 -2.67791,-1.572962 -2.91868,-1.56562 -4.16231,0.126937 -2.09818,2.855611 -0.66384,5.551402 4.06721,7.644171 C 383.18116,86.85237 386,90.138014 386,94.898782 c 0,6.154998 -3.26198,9.315798 -10.08056,9.767898 -4.08406,0.27079 -6.3588,-0.15044 -9.23168,-1.70949 z M 224.43026,22.678854 c -0.29912,-0.779489 -0.40579,-3.838613 -0.23706,-6.798053 L 224.5,10.5 l 6.5,0 c 5.11111,0 6.5,0.320513 6.5,1.5 0,0.984037 -1.20253,1.614098 -3.49599,1.831705 -4.3417,0.411948 -6.18947,1.870732 -5.80227,4.58079 0.23882,1.671502 1.19503,2.187146 4.79826,2.587505 6.57869,0.730965 5.49389,2.452701 -1.76294,2.798053 -4.68913,0.223156 -6.39961,-0.05809 -6.8068,-1.119199 z m 16.30589,0.723959 C 239.42074,22.087406 241.1508,21 244.55902,21 249.20746,21 248.95338,19.199636 244.25,18.810365 240.59339,18.50773 240.5,18.40038 240.5,14.5 l 0,-4 6.5,0 c 5.11111,0 6.5,0.320513 6.5,1.5 0,1.011491 -1.22127,1.601078 -3.75,1.810365 C 247.6875,13.981066 246,14.516402 246,15 c 0,0.483598 1.6875,1.018934 3.75,1.189635 3.55993,0.294634 3.75,0.487763 3.75,3.810365 l 0,3.5 -6.04104,0.292294 c -3.32257,0.160761 -6.34784,-0.0145 -6.72281,-0.389481 z m 15.49183,-0.604859 c 0.23464,-0.713875 2.07933,-1.437618 4.09932,-1.608319 4.78562,-0.404414 4.7344,-1.981034 -0.0773,-2.37927 C 256.59339,18.50773 256.5,18.40038 256.5,14.5 l 0,-4 6.5,0 c 5.11111,0 6.5,0.320513 6.5,1.5 0,1.049804 -1.27555,1.592289 -4.25,1.807498 C 262.9125,13.976622 261,14.513248 261,15 c 0,0.486752 1.9125,1.023378 4.25,1.192502 4.13191,0.298954 4.25,0.404753 4.25,3.807498 l 0,3.5 -6.84932,0.297954 c -5.26461,0.229017 -6.75061,-0.0024 -6.4227,-1 z M 112.41459,21.638028 c -0.28745,-0.749084 -0.38582,-4.007211 -0.21861,-7.240281 0.24069,-4.6537693 0.66796,-5.9475713 2.05111,-6.2107917 1.12957,-0.2149647 2.09282,0.5768707 2.72525,2.2402817 C 117.51033,11.842257 118.42277,13 119,13 c 0.57723,0 1.48967,-1.157743 2.02766,-2.572763 0.63351,-1.6662497 1.59375,-2.4542121 2.72525,-2.236305 C 125.21648,8.4727897 125.5,9.6589039 125.5,15.5 c 0,5.841096 -0.28352,7.02721 -1.74709,7.309068 -1.1315,0.217907 -2.09174,-0.570055 -2.72525,-2.236305 -1.22831,-3.230723 -2.35442,-3.249195 -4.4357,-0.07276 -1.81966,2.777141 -3.38476,3.20352 -4.17737,1.138028 z m 20.25208,0.695305 C 132.3,21.966667 132,19.996554 132,17.955305 c 0,-2.701677 -0.59176,-4.104277 -2.17518,-5.155627 -1.42661,-0.947236 -1.95363,-2.021632 -1.53139,-3.1219721 0.93594,-2.4390078 12.4772,-2.4390078 13.41314,0 0.42224,1.1003401 -0.10478,2.1747361 -1.53139,3.1219721 C 138.70087,13.778583 138,15.267945 138,17.421972 c 0,4.283068 -3.10359,7.141104 -5.33333,4.911361 z m 11.9755,-0.103291 C 143.82242,20.903649 143.6162,10.430015 144.38534,9.1855235 145.56739,7.2729269 148.6298,7.8205002 150.33864,10.25 l 1.58257,2.25 1.87316,-2.355339 c 1.11175,-1.3979449 2.65206,-2.205335 3.78939,-1.9863052 C 159.25358,8.479934 159.5,9.424036 159.5,15.5 c 0,5.948917 -0.26733,7.024094 -1.82088,7.323278 -1.15746,0.222909 -2.01016,-0.373169 -2.34042,-1.636076 -0.33313,-1.273893 -1.5943,-2.144486 -3.51493,-2.426375 -2.43252,-0.357018 -3.16253,-2.9e-5 -3.88483,1.899772 -0.8842,2.325619 -2.38721,3.041136 -3.29677,1.569443 z m 18.46782,-0.597511 c -0.73674,-0.887724 -1.09582,-3.759855 -0.91241,-7.298158 C 162.46022,9.2674738 162.76309,8.5 164.5,8.5 c 1.62921,0 2.0927,0.8333333 2.5,4.494868 0.45221,4.065274 0.78672,4.544083 3.5,5.00982 2.1559,0.370063 3,1.074923 3,2.505133 0,1.654365 -0.77409,2.040489 -4.58759,2.288337 -3.10567,0.201845 -4.98001,-0.174685 -5.80242,-1.165627 z"
       id="path4914"
       inkscape:connector-curvature="0" />
    <path
       style="fill:#403f39"
       d="m 342,104.29056 c -2.34672,-0.86287 -5,-3.46859 -5,-4.910364 0,-0.720406 0.93743,-1.811528 2.08319,-2.424716 1.63896,-0.877147 2.45541,-0.778028 3.82874,0.464816 2.09093,1.892272 5.65553,2.065639 6.77905,0.329704 C 350.13594,97.0625 350.725,90.65 351,83.5 l 0.5,-13 2.5,0 2.5,0 0,14.838567 0,14.838563 -2.80576,2.41144 c -2.73226,2.34825 -7.89364,3.09945 -11.69424,1.70199 z m 24.68776,-1.33337 c -2.8934,-1.5702 -3.73698,-2.59767 -3.5,-4.263009 0.39134,-2.750058 4.18555,-3.463725 6.43828,-1.210999 1.04904,1.049037 2.90449,1.515616 5.24834,1.319768 3.28748,-0.274695 3.62562,-0.580518 3.62562,-3.279085 0,-2.629364 -0.65576,-3.290515 -5.62798,-5.674274 -9.6992,-4.649936 -12.47183,-11.403629 -6.94894,-16.926514 C 368.39598,70.450171 369.63815,70 373.98882,70 380.01928,70 383,71.318321 383,73.985494 c 0,3.078996 -3.0086,4.12098 -6.30617,2.184045 -2.67791,-1.572962 -2.91868,-1.56562 -4.16231,0.126937 -2.09818,2.855611 -0.66384,5.551402 4.06721,7.644171 C 383.18116,86.85237 386,90.138014 386,94.898782 c 0,6.154998 -3.26198,9.315798 -10.08056,9.767898 -4.08406,0.27079 -6.3588,-0.15044 -9.23168,-1.70949 z M 224.43026,22.678854 c -0.29912,-0.779489 -0.40579,-3.838613 -0.23706,-6.798053 L 224.5,10.5 l 6.5,0 c 5.11111,0 6.5,0.320513 6.5,1.5 0,0.984037 -1.20253,1.614098 -3.49599,1.831705 -4.3417,0.411948 -6.18947,1.870732 -5.80227,4.58079 0.23882,1.671502 1.19503,2.187146 4.79826,2.587505 6.57869,0.730965 5.49389,2.452701 -1.76294,2.798053 -4.68913,0.223156 -6.39961,-0.05809 -6.8068,-1.119199 z m 16.30589,0.723959 C 239.42074,22.087406 241.1508,21 244.55902,21 249.20746,21 248.95338,19.199636 244.25,18.810365 240.59339,18.50773 240.5,18.40038 240.5,14.5 l 0,-4 6.5,0 c 5.11111,0 6.5,0.320513 6.5,1.5 0,1.011491 -1.22127,1.601078 -3.75,1.810365 C 247.6875,13.981066 246,14.516402 246,15 c 0,0.483598 1.6875,1.018934 3.75,1.189635 3.55993,0.294634 3.75,0.487763 3.75,3.810365 l 0,3.5 -6.04104,0.292294 c -3.32257,0.160761 -6.34784,-0.0145 -6.72281,-0.389481 z m 15.49183,-0.604859 c 0.23464,-0.713875 2.07933,-1.437618 4.09932,-1.608319 4.78562,-0.404414 4.7344,-1.981034 -0.0773,-2.37927 C 256.59339,18.50773 256.5,18.40038 256.5,14.5 l 0,-4 6.5,0 c 5.11111,0 6.5,0.320513 6.5,1.5 0,1.049804 -1.27555,1.592289 -4.25,1.807498 C 262.9125,13.976622 261,14.513248 261,15 c 0,0.486752 1.9125,1.023378 4.25,1.192502 4.13191,0.298954 4.25,0.404753 4.25,3.807498 l 0,3.5 -6.84932,0.297954 c -5.26461,0.229017 -6.75061,-0.0024 -6.4227,-1 z M 112.41459,21.638028 c -0.28745,-0.749084 -0.38582,-4.007211 -0.21861,-7.240281 0.24069,-4.6537693 0.66796,-5.9475713 2.05111,-6.2107917 1.12957,-0.2149647 2.09282,0.5768707 2.72525,2.2402817 C 117.51033,11.842257 118.42277,13 119,13 c 0.57723,0 1.48967,-1.157743 2.02766,-2.572763 0.63351,-1.6662497 1.59375,-2.4542121 2.72525,-2.236305 C 125.21648,8.4727897 125.5,9.6589039 125.5,15.5 c 0,5.841096 -0.28352,7.02721 -1.74709,7.309068 -1.1315,0.217907 -2.09174,-0.570055 -2.72525,-2.236305 -1.22831,-3.230723 -2.35442,-3.249195 -4.4357,-0.07276 -1.81966,2.777141 -3.38476,3.20352 -4.17737,1.138028 z m 20.25208,0.695305 C 132.3,21.966667 132,19.996554 132,17.955305 c 0,-2.701677 -0.59176,-4.104277 -2.17518,-5.155627 -1.42661,-0.947236 -1.95363,-2.021632 -1.53139,-3.1219721 0.93594,-2.4390078 12.4772,-2.4390078 13.41314,0 0.42224,1.1003401 -0.10478,2.1747361 -1.53139,3.1219721 C 138.70087,13.778583 138,15.267945 138,17.421972 c 0,4.283068 -3.10359,7.141104 -5.33333,4.911361 z m 11.9755,-0.103291 C 143.82242,20.903649 143.6162,10.430015 144.38534,9.1855235 145.56739,7.2729269 148.6298,7.8205002 150.33864,10.25 l 1.58257,2.25 1.87316,-2.355339 c 1.11175,-1.3979449 2.65206,-2.205335 3.78939,-1.9863052 C 159.25358,8.479934 159.5,9.424036 159.5,15.5 c 0,5.948917 -0.26733,7.024094 -1.82088,7.323278 -1.15746,0.222909 -2.01016,-0.373169 -2.34042,-1.636076 -0.33313,-1.273893 -1.5943,-2.144486 -3.51493,-2.426375 -2.43252,-0.357018 -3.16253,-2.9e-5 -3.88483,1.899772 -0.8842,2.325619 -2.38721,3.041136 -3.29677,1.569443 z m 18.46782,-0.597511 c -0.73674,-0.887724 -1.09582,-3.759855 -0.91241,-7.298158 C 162.46022,9.2674738 162.76309,8.5 164.5,8.5 c 1.62921,0 2.0927,0.8333333 2.5,4.494868 0.45221,4.065274 0.78672,4.544083 3.5,5.00982 2.1559,0.370063 3,1.074923 3,2.505133 0,1.654365 -0.77409,2.040489 -4.58759,2.288337 -3.10567,0.201845 -4.98001,-0.174685 -5.80242,-1.165627 z"
       id="path4912"
       inkscape:connector-curvature="0" />
  </g>
</svg>
