<?xml version="1.0" encoding="UTF-8" standalone="no"?>
<!-- Created with Inkscape (http://www.inkscape.org/) -->

<svg
   xmlns:dc="http://purl.org/dc/elements/1.1/"
   xmlns:cc="http://creativecommons.org/ns#"
   xmlns:rdf="http://www.w3.org/1999/02/22-rdf-syntax-ns#"
   xmlns:svg="http://www.w3.org/2000/svg"
   xmlns="http://www.w3.org/2000/svg"
   xmlns:xlink="http://www.w3.org/1999/xlink"
   xmlns:sodipodi="http://sodipodi.sourceforge.net/DTD/sodipodi-0.dtd"
   xmlns:inkscape="http://www.inkscape.org/namespaces/inkscape"
   id="svg3490"
   version="1.1"
   inkscape:version="0.91 r13725"
   width="73.125"
   height="76.875"
   viewBox="0 0 73.125 76.875"
   sodipodi:docname="Javascript.svg">
  <metadata
     id="metadata3496">
    <rdf:RDF>
      <cc:Work
         rdf:about="">
        <dc:format>image/svg+xml</dc:format>
        <dc:type
           rdf:resource="http://purl.org/dc/dcmitype/StillImage" />
        <dc:title></dc:title>
      </cc:Work>
    </rdf:RDF>
  </metadata>
  <defs
     id="defs3494" />
  <sodipodi:namedview
     pagecolor="#ffffff"
     bordercolor="#666666"
     borderopacity="1"
     objecttolerance="10"
     gridtolerance="10"
     guidetolerance="10"
     inkscape:pageopacity="0"
     inkscape:pageshadow="2"
     inkscape:window-width="640"
     inkscape:window-height="480"
     id="namedview3492"
     showgrid="false"
     inkscape:zoom="3.0699187"
     inkscape:cx="36.5625"
     inkscape:cy="38.4375"
     inkscape:window-x="0"
     inkscape:window-y="0"
     inkscape:window-maximized="0"
     inkscape:current-layer="svg3490" />
  <image
     width="73.125"
     height="76.875"
     preserveAspectRatio="none"
     style="image-rendering:optimizeQuality"
     xlink:href="file:///media/havoc/USB%20DISK/pics/Language%20icons/Javascript.png"
     id="image3498"
     x="0"
     y="0"
     sodipodi:absref="/media/havoc/USB DISK/pics/Language icons/Javascript.png" />
  <g
     id="g3641">
    <path
       style="fill:#fdfdfb"
       d="M 0,38.4375 0,0 36.5625,0 73.125,0 l 0,38.4375 0,38.4375 -36.5625,0 L 0,76.875 0,38.4375 Z"
       id="path3657"
       inkscape:connector-curvature="0" />
    <path
       style="fill:#f8edac"
       d="M 5.911377,67.96875 C 5.7467114,67.539062 5.6852259,53.6875 5.7747425,37.1875 l 0.1627575,-30 30,-0.1637794 C 63.585863,6.87278 65.998738,6.9433844 66.71875,7.9244269 67.732425,9.3055994 67.859337,65.660744 66.853013,67.541088 66.227144,68.710525 65.226506,68.75 36.208394,68.75 12.786636,68.75 6.1451384,68.578738 5.911377,67.96875 Z"
       id="path3655"
       inkscape:connector-curvature="0" />
    <path
       style="fill:#f3dd5c"
       d="M 6.5386637,67.349881 C 6.3726675,66.916819 6.3101231,53.34375 6.3996763,37.1875 L 6.5625,7.8125 l 29.6875,0 29.6875,0 0,30 0,30 -29.548513,0.162381 c -23.304964,0.128069 -29.6122851,-0.0037 -29.8503233,-0.625 z"
       id="path3653"
       inkscape:connector-curvature="0" />
    <path
       style="fill:#f0d53e"
       d="M 7.1012787,66.5625 C 6.9695187,66.21875 6.9350169,53 7.0246075,37.1875 L 7.1875,8.4375 l 29.0625,0 29.0625,0 0,29.231394 0,29.231393 -28.985829,0.143607 C 17.445887,67.137438 7.2573262,66.969612 7.1012787,66.5625 Z"
       id="path3651"
       inkscape:connector-curvature="0" />
    <path
       style="fill:#ccb63f"
       d="m 26.485263,63.5462 c -1.073731,-0.403538 -2.746447,-1.684043 -3.717147,-2.845572 l -1.764911,-2.111872 2.008258,-1.794378 c 2.41333,-2.156311 3.616188,-2.244643 5.570095,-0.409043 1.155066,1.085129 1.705553,1.239957 2.540281,0.714474 C 32.035623,56.524558 32.232037,54.926194 32.5,45.884702 l 0.3125,-10.544246 1.71875,-0.603379 c 1.105092,-0.387951 2.332408,-0.387773 3.4375,4.99e-4 l 1.71875,0.603877 0.162916,10.923023 c 0.140225,9.401722 0.0097,11.225953 -0.9375,13.098066 -2.21797,4.383958 -7.322437,6.102333 -12.427653,4.183658 z m 21.188529,0 C 44.911185,62.539637 41.875,59.752964 41.875,58.223952 c 0,-1.257621 2.949709,-3.848952 4.381259,-3.848952 0.412938,0 1.586413,0.703125 2.607722,1.5625 C 51.454399,58.117193 55,57.942202 55,55.63466 55,54.286457 54.259941,53.704292 50.625,52.193083 42.632683,48.870317 40.292668,41.671198 45.563545,36.621377 c 3.190786,-3.056966 10.352559,-3.034818 13.428907,0.04153 2.20624,2.20624 2.053767,3.599816 -0.571372,5.222241 -2.060059,1.273186 -2.303404,1.296912 -3.72801,0.363474 -2.154192,-1.411482 -4.06807,-1.296915 -4.06807,0.243518 0,0.906265 1.140761,1.81867 4.21875,3.374251 6.219792,3.143412 7.34375,4.589134 7.34375,9.446107 0,3.357674 -0.238261,4.220016 -1.5625,5.655197 -2.975681,3.224972 -8.279013,4.280834 -12.951208,2.578503 z"
       id="path3649"
       inkscape:connector-curvature="0" />
    <path
       style="fill:#a4953f"
       d="M 26.5625,62.867725 C 25.53125,62.40938 23.984375,61.270465 23.125,60.336801 l -1.5625,-1.697571 1.875,-1.504011 c 2.159137,-1.731928 3.581241,-1.90568 4.6875,-0.572719 1.034452,1.246438 4.135879,1.212127 4.620632,-0.05112 C 32.954284,55.967643 33.125,51.242643 33.125,46.011383 33.125,35.975651 33.380744,35 36.011383,35 39.387071,35 39.375,34.959313 39.375,46.336942 c 0,11.959064 -0.513259,14.101317 -3.86864,16.147036 -2.378469,1.450109 -6.177807,1.613128 -8.94386,0.383747 z m 21.315201,0.233256 C 45.596259,62.418266 42.5,59.495217 42.5,58.024118 c 0,-0.619249 0.871537,-1.567707 1.955773,-2.128387 1.848971,-0.95614 2.049779,-0.941866 3.677275,0.261393 2.757872,2.038983 6.553728,2.064357 7.193668,0.04809 0.53262,-1.678139 -0.854722,-3.19917 -3.895555,-4.270943 C 46.485464,50.191105 43.125,46.445491 43.125,42.676121 c 0,-2.242224 2.741676,-6.31132 4.772741,-7.08353 2.87874,-1.094495 7.376655,-0.70429 9.666082,0.838555 2.560139,1.725277 2.70026,3.315972 0.440702,5.002976 -1.607189,1.19994 -1.756611,1.208274 -3.318211,0.185074 -1.991891,-1.305137 -4.284417,-1.083627 -4.575289,0.442078 -0.316447,1.659859 0.781065,2.653419 5.231588,4.73607 4.790808,2.24189 6.526575,4.607516 6.530051,8.899619 0.005,6.19896 -6.507768,9.644543 -13.994963,7.404018 z"
       id="path3647"
       inkscape:connector-curvature="0" />
    <path
       style="fill:#58543f"
       d="M 26.887852,62.427478 C 24.872227,61.623269 23.125,60.0225 23.125,58.980041 c 0,-0.454423 0.694848,-1.281507 1.544107,-1.837963 1.450884,-0.950656 1.645482,-0.931997 3.223205,0.30904 1.084477,0.853049 2.142318,1.183886 2.987143,0.934221 C 33.48628,57.614961 33.75,56.490194 33.75,46.142451 l 0,-9.868636 1.561103,-0.391812 C 38.65174,35.043557 38.75,35.348744 38.75,46.562959 c 0,12.07024 -0.546018,14.19554 -4.019932,15.647034 -2.488236,1.039651 -5.567547,1.125051 -7.842216,0.217485 z m 21.327872,0.02881 C 45.619012,61.416236 43.125,59.322583 43.125,58.182763 c 0,-0.608916 0.742589,-1.445466 1.650197,-1.859 1.43511,-0.653879 1.83831,-0.575158 3.093431,0.603966 1.808623,1.699114 6.015902,1.955598 7.513464,0.458036 1.97267,-1.972669 0.665547,-4.056686 -3.820084,-6.090569 -4.749988,-2.153747 -7.001023,-4.355735 -7.573772,-7.40875 -0.514654,-2.743342 1.120682,-6.08747 3.605153,-7.37224 3.5183,-1.819383 10.398607,-0.641022 11.393373,1.951295 0.552379,1.439476 0.570736,1.408025 -1.423895,2.439489 -1.595527,0.825079 -1.903501,0.826997 -2.576528,0.01605 C 54.565922,40.414468 53.277365,40 52.122879,40 c -1.726637,0 -2.169765,0.281695 -2.497547,1.587684 -0.529272,2.108785 0.734908,3.42761 5.565583,5.806159 2.395802,1.179655 4.288504,2.61249 4.965335,3.758915 2.468138,4.180562 0.419894,10.131671 -3.90625,11.349486 -2.690941,0.757506 -6.076605,0.738137 -8.034276,-0.04596 z"
       id="path3645"
       inkscape:connector-curvature="0" />
    <path
       style="fill:#3e3e3f"
       d="M 27.187258,61.633804 C 24.416642,60.426313 23.490044,59.1188 24.69579,58.11812 c 0.789194,-0.654973 1.332944,-0.597533 3.038507,0.320974 2.90229,1.562986 5.216556,0.880352 6.369389,-1.878765 C 34.737603,55.043153 35,51.847699 35,45.645074 l 0,-8.770074 1.5625,0 1.5625,0 0,9.707574 c 0,11.373884 -0.588049,13.568487 -4.019932,15.002419 -2.662394,1.112419 -4.44842,1.12502 -6.91781,0.04881 z m 21.653466,0.230889 C 46.771842,60.989091 43.75,58.768957 43.75,58.124558 c 0,-1.072829 2.582246,-1.368832 3.63854,-0.417086 1.469215,1.323799 4.112118,1.876869 6.673031,1.396439 1.660458,-0.311504 2.275195,-0.794501 2.585677,-2.031557 0.7206,-2.871103 -0.433033,-4.694445 -3.857609,-6.097033 -6.934317,-2.840056 -9.428935,-6.46144 -7.398505,-10.740253 1.309729,-2.760049 2.066988,-3.292575 5.315189,-3.737791 3.227496,-0.442377 7.418677,0.99991 7.418677,2.552947 0,1.472197 -1.625499,1.820413 -3.235078,0.69302 C 51.969686,37.697831 48.75,39.116048 48.75,42.447776 c 0,2.14677 1.160642,3.221645 6.287041,5.822459 3.527173,1.789466 4.124943,2.356488 4.829155,4.580756 1.09897,3.471119 -0.04548,7.081289 -2.638847,8.324242 -2.378838,1.140133 -6.517793,1.480392 -8.386625,0.68946 z"
       id="path3643"
       inkscape:connector-curvature="0" />
  </g>
</svg>
