<?xml version="1.0" encoding="UTF-8" standalone="no"?>
<!-- Created with Inkscape (http://www.inkscape.org/) -->

<svg
   xmlns:dc="http://purl.org/dc/elements/1.1/"
   xmlns:cc="http://creativecommons.org/ns#"
   xmlns:rdf="http://www.w3.org/1999/02/22-rdf-syntax-ns#"
   xmlns:svg="http://www.w3.org/2000/svg"
   xmlns="http://www.w3.org/2000/svg"
   xmlns:xlink="http://www.w3.org/1999/xlink"
   xmlns:sodipodi="http://sodipodi.sourceforge.net/DTD/sodipodi-0.dtd"
   xmlns:inkscape="http://www.inkscape.org/namespaces/inkscape"
   id="svg4205"
   version="1.1"
   inkscape:version="0.91 r13725"
   width="473"
   height="123"
   viewBox="0 0 473 123"
   sodipodi:docname="JQuery.bmp.svg">
  <metadata
     id="metadata4211">
    <rdf:RDF>
      <cc:Work
         rdf:about="">
        <dc:format>image/svg+xml</dc:format>
        <dc:type
           rdf:resource="http://purl.org/dc/dcmitype/StillImage" />
        <dc:title></dc:title>
      </cc:Work>
    </rdf:RDF>
  </metadata>
  <defs
     id="defs4209" />
  <sodipodi:namedview
     pagecolor="#ffffff"
     bordercolor="#666666"
     borderopacity="1"
     objecttolerance="10"
     gridtolerance="10"
     guidetolerance="10"
     inkscape:pageopacity="0"
     inkscape:pageshadow="2"
     inkscape:window-width="640"
     inkscape:window-height="480"
     id="namedview4207"
     showgrid="false"
     inkscape:zoom="0.55391121"
     inkscape:cx="236.5"
     inkscape:cy="61.5"
     inkscape:window-x="0"
     inkscape:window-y="0"
     inkscape:window-maximized="0"
     inkscape:current-layer="svg4205" />
  <image
     width="473"
     height="123"
     preserveAspectRatio="none"
     style="image-rendering:optimizeQuality"
     xlink:href="file:///media/havoc/USB%20DISK/pics/_OpsDeps/JQuery.bmp"
     id="image4213"
     x="0"
     y="0"
     sodipodi:absref="/media/havoc/USB DISK/pics/_OpsDeps/JQuery.bmp" />
  <g
     id="g4873">
    <path
       style="fill:#fcfdfd"
       d="M 0,61.5 0,0 236.5,0 473,0 473,61.5 473,123 236.5,123 0,123 0,61.5 Z"
       id="path4889"
       inkscape:connector-curvature="0" />
    <path
       style="fill:#adc9dd"
       d="M 55,92.064873 C 45.37555,89.126638 36.284076,81.353759 31.786748,72.218387 28.954215,66.464697 28.5,64.502679 28.5,58.021027 c 0,-6.175771 0.449557,-8.323935 2.513375,-12.009908 1.382357,-2.468884 3.248744,-4.6305 4.147527,-4.803589 1.410914,-0.271718 1.623992,0.819621 1.559782,7.98888 -0.124961,13.952389 5.625991,22.900314 18.95097,29.485875 6.589287,3.256603 8.482398,3.739146 14.695983,3.745923 5.348823,0.0058 8.458631,-0.583434 12.436101,-2.356477 3.842337,-1.712803 5.605434,-2.062559 6.398654,-1.269339 C 91.58084,81.18084 83.434295,88.655338 75.30201,91.556065 71.219858,93.012139 59.097973,93.315937 55,92.064873 Z m 50.66667,-0.73154 c -0.9882,-0.988197 -0.80787,-5.200988 0.31222,-7.293891 0.53839,-1.005991 2.25383,-2.273521 3.81209,-2.816733 2.42139,-0.844102 3.02438,-1.840514 4.14847,-6.855184 0.7234,-3.227139 1.96897,-8.342525 2.76794,-11.367525 0.79897,-3.025 1.66896,-6.625 1.93332,-8 0.26435,-1.375 0.67791,-3.476652 0.91902,-4.670338 0.53457,-2.646542 4.94017,-3.850498 8.76655,-2.395712 3.05084,1.159929 3.27565,2.388302 1.17443,6.417116 -0.83699,1.604809 -1.14707,3.458443 -0.70937,4.240564 0.53205,0.95072 1.18903,-0.0039 2.0805,-3.023136 3.83635,-12.992933 18.30658,-20.049176 29.75233,-14.508386 8.02051,3.882665 10.01195,12.216871 5.78315,24.20257 -1.12437,3.186799 -1.17408,4.263439 -0.22397,4.85064 1.7867,1.104239 2.81665,0.107825 2.81665,-2.72493 0,-3.596401 3.05458,-16.665139 4.23951,-18.138388 1.48646,-1.848135 8.68543,-1.609166 9.42296,0.312794 0.32984,0.859537 -0.17577,5.151897 -1.12357,9.538579 -2.00822,9.294609 -1.6366,11.160861 2.13373,10.715598 2.50863,-0.296261 2.80164,-0.87234 4.48462,-8.816971 2.67476,-12.62641 3.0214,-13.174663 8.09741,-12.80727 L 200.5,48.5 l -0.22793,5.5 -0.22792,5.5 2.23204,-4 c 5.6569,-10.137616 23.93865,-11.638175 27.81372,-2.282938 1.31022,3.163151 0.57736,11.274003 -1.21366,13.432051 C 228.09794,67.586911 225.19333,68 219.37756,68 208.81208,68 208.2965,69.813988 218.75,70.207936 L 226.5,70.5 l 0,4.490378 0,4.490379 -4.7787,0.873045 c -2.62829,0.480174 -7.75381,0.554438 -11.39005,0.16503 C 201.99324,79.625906 199,77.107849 199,70.986438 199,68.504767 198.60463,67.126321 198,67.5 c -0.55,0.339919 -1,1.874326 -1,3.409794 0,1.535468 -0.47319,4.149143 -1.05153,5.808167 -0.98203,2.817058 -1.46117,3.054343 -7.25,3.590422 -9.20015,0.851989 -15.62439,-0.477724 -18.25659,-3.778817 l -2.1765,-2.729589 -1.03218,2.960897 c -0.97457,2.795679 -1.42281,2.999389 -8.03302,3.650743 -10.87926,1.072014 -21.83843,-0.236348 -25.12187,-2.999176 -2.79242,-2.349668 -4.99881,-7.898637 -5.1804,-13.028461 L 128.79582,61.5 l -0.83495,3 c -0.45922,1.65 -1.58528,6.375 -2.50235,10.5 -1.97119,8.866464 -4.78826,14.373578 -8.13183,15.897012 -2.6463,1.205735 -10.59323,1.503112 -11.66002,0.436321 z M 155.18126,62 c 2.14879,-7.532849 1.41873,-10.560325 -2.80203,-11.619667 -4.79776,-1.204161 -9.29192,3.665462 -10.11401,10.958974 -0.79008,7.009577 -0.15347,7.81663 5.88715,7.46334 L 153.3271,68.5 155.18126,62 Z m 63.08777,-4.655937 c -0.67703,-0.273923 -2.02703,-0.290597 -3,-0.03705 -0.97297,0.253544 -0.41903,0.477663 1.23097,0.498042 1.65,0.02038 2.44606,-0.187065 1.76903,-0.460988 z m 11.16526,21.345305 c -0.60876,-1.586412 4.23652,-26.205193 5.6933,-28.927561 1.31635,-2.459915 4.7499,-3.071527 14.39993,-2.56503 C 259.00216,47.694069 262,49.352335 262,54.095971 c 0,1.532297 0.51175,3.102272 1.13721,3.488832 1.21732,0.752343 2.79069,-0.990987 8.42472,-9.334803 l 3.54498,-5.25 5.44654,0 C 285.28666,43 286,43.255378 286,44.949868 c 0,2.074481 -4.86639,9.864431 -7.55759,12.097927 -2.55866,2.123501 -7.679,9.76823 -10.96763,16.374798 L 264.44956,79.5 l -5.18809,0.300987 -5.1881,0.300988 0.0415,-6.300988 c 0.0228,-3.465543 -0.44369,-7.567782 -1.03668,-9.116087 C 252.48518,63.136596 252,60.774096 252,59.4349 252,57.273062 251.56452,57 248.11685,57 l -3.88314,0 -1.7009,7.75 c -0.93549,4.2625 -2.01528,9.325 -2.39954,11.25 -0.66828,3.347878 -0.90412,3.513265 -5.42616,3.805208 -3.37864,0.218125 -4.8831,-0.100249 -5.27282,-1.11584 z M 66.139461,71.911955 C 58.767313,69.660244 52.730132,64.493079 48.977798,57.223451 46.183652,51.810178 46.451895,41.368118 49.470796,38.03227 c 2.753787,-3.042901 3.832072,-2.063517 4.033583,3.66362 0.274972,7.814941 3.851241,14.020459 10.836897,18.80411 5.544865,3.797023 6.204539,3.994153 13,3.884778 3.937298,-0.06337 8.283724,-0.288372 9.658724,-0.5 1.954647,-0.300842 2.5,0.04725 2.5,1.595713 0,4.793959 -15.105738,8.952767 -23.360539,6.431464 z M 72.379122,53.563424 C 66.182216,50.866359 61.772837,42.025543 63.397019,35.554286 64.341288,31.792017 68,32.02875 68,35.852117 c 0,7.00265 9.848133,14.819654 17.147375,13.610813 3.687184,-0.610642 5.289749,0.256858 4.036642,2.185112 -2.203796,3.391153 -11.087598,4.403708 -16.804895,1.915382 z"
       id="path4887"
       inkscape:connector-curvature="0" />
    <path
       style="fill:#99b8d0"
       d="m 52.415384,90.392847 c -2.246539,-0.797092 -6.746539,-3.591531 -10,-6.209865 -11.5518,-9.296704 -16.649927,-25.702489 -11.2284,-36.133014 3.148982,-6.058355 5.292668,-6.662709 4.571892,-1.288922 -1.764342,13.154156 5.975079,26.032855 19.729502,32.83066 6.38602,3.156142 8.325391,3.642394 14.684681,3.681838 5.432815,0.0337 8.600813,-0.518594 12.254589,-2.1364 6.199371,-2.744937 7.692827,-1.489977 3.363482,2.826353 C 80.1553,89.582384 73.703275,91.990867 64.5,91.911284 60.1,91.873236 54.661923,91.189939 52.415384,90.392847 Z M 107.25,91.337719 C 104.08457,90.060441 106.9213,82 110.53624,82 c 2.02282,0 3.19084,-2.731224 4.96783,-11.616439 C 117.20534,61.876911 118.82474,57 119.94813,57 c 0.38802,0 0.50674,-1.354121 0.26383,-3.009159 C 119.62975,50.023955 121.46824,48 125.65383,48 c 4.24263,0 5.32029,2.237569 3.01349,6.256949 -0.92176,1.606064 -1.41972,3.334654 -1.10659,3.84131 0.92308,1.493586 -3.4547,21.697968 -5.76752,26.618272 -2.73106,5.810092 -9.22558,8.766897 -14.54321,6.621188 z M 137,78.248446 c -13.20849,-6.59838 -6.50913,-33.137488 9.54298,-37.803965 5.78769,-1.682525 8.95549,-1.283458 14.6708,1.848171 6.74574,3.696236 8.56524,12.003897 4.79957,21.914339 -1.72705,4.545218 -1.79239,5.337162 -0.5,6.060417 1.9574,1.095415 1.90466,6.17172 -0.0848,8.161163 C 163.05097,80.806176 141.85112,80.671853 137,78.248446 Z M 155.27935,64 c 2.43982,-7.541552 1.97222,-12.127406 -1.40061,-13.735758 C 147.76797,47.350278 141,54.45779 141,63.789102 c 0,5.170812 1.48107,6.357578 7.4938,6.004702 L 153.5,69.5 155.27935,64 Z M 174,78.705994 c -4.63183,-2.342822 -5.47808,-5.899146 -3.71803,-15.624816 2.52468,-13.950819 3.84112,-16.020052 9.3175,-14.645568 2.44852,0.614539 2.56181,0.916981 2.00697,5.357847 -0.32342,2.588599 -0.87126,7.294043 -1.21743,10.456543 l -0.62939,5.75 3.60114,0 c 2.93237,0 3.68605,-0.417849 4.05838,-2.25 3.50506,-17.247741 4.66428,-19.75 9.14954,-19.75 4.30845,0 4.60812,1.987498 1.93105,12.807195 C 197.12488,66.363805 196,72.248202 196,73.883632 c 0,4.982914 -2.10656,6.118236 -11.32143,6.101626 -4.57795,-0.0083 -9.2792,-0.571449 -10.67857,-1.279264 z m 29.27684,-0.678713 c -4.08433,-2.490319 -4.91844,-5.826942 -3.36919,-13.477636 1.54637,-7.636507 4.8399,-12.724865 9.75311,-15.068104 4.64067,-2.213258 12.0756,-2.492203 15.63978,-0.586776 3.5562,1.901159 5.8573,7.02175 5.05493,11.248617 C 229.08567,66.832667 228.80768,67 218.96482,67 211.83244,67 210,67.294082 210,68.438727 c 0,1.435674 3.65409,2.257393 12.5,2.810958 3.90964,0.24466 3.99362,0.328503 3.71758,3.711337 -0.15534,1.903562 -0.83034,3.809172 -1.5,4.234687 -0.66967,0.425516 -5.04258,0.778874 -9.71758,0.78524 -6.7041,0.0091 -9.181,-0.403646 -11.72316,-1.953668 z m 16.22753,-20.034344 c 0.34231,-0.553884 -0.0821,-1.277415 -0.94322,-1.607847 -2.13904,-0.820827 -6.78522,0.443336 -6.04303,1.644227 0.79098,1.279836 6.19016,1.25172 6.98625,-0.03638 z m 10.82329,20.41854 c -0.77985,-2.032244 4.19288,-27.128836 5.74627,-29.000556 C 236.93397,48.374635 239.80855,48 246.89994,48 257.59236,48 261,49.323153 261,53.474917 261,56.73125 261.98612,59 263.4015,59 c 1.12167,0 6.21626,-6.193854 10.07591,-12.25 1.52032,-2.385518 2.40006,-2.75 6.6376,-2.75 7.5288,0 7.30176,0.634452 -6.41542,17.927353 -2.64022,3.328466 -5.87025,8.470849 -7.17783,11.427517 C 264.1027,78.824803 262.68002,80 258.47723,80 c -3.10528,0 -3.64652,-1.072151 -3.95343,-7.831537 -0.5057,-11.137463 -1.55875,-15.139132 -4.15543,-15.790856 -1.3026,-0.326933 -3.44214,-0.324923 -4.75454,0.0045 -2.15215,0.540157 -2.58452,1.642764 -4.40875,11.242996 -1.11242,5.854258 -2.62614,11.02665 -3.36383,11.494205 -2.26298,1.434303 -6.85769,1.001471 -7.51359,-0.707797 z M 64.385352,70.382837 C 54.745254,66.963956 47.988255,57.69827 48.014742,47.934276 c 0.0243,-8.956561 4.165125,-14.20065 4.595863,-5.820362 0.498217,9.693137 5.260858,16.253568 15.604777,21.495228 4.299219,2.178579 6.054327,2.520931 10.713085,2.089696 C 81.99281,65.415188 85.5125,64.864427 86.75,64.474925 88.465113,63.935093 89,64.161992 89,65.429373 c 0,1.028676 -2.001818,2.594617 -5.25,4.106863 -6.035637,2.809993 -12.973316,3.1133 -19.364648,0.846601 z M 72.346396,52.549663 C 67.828314,50.583961 64,44.518953 64,39.326882 c 0,-4.442085 1.614139,-6.709156 2.591842,-3.640264 3.137169,9.84719 8.717798,14.646715 17.030411,14.646715 4.683838,0 5.57241,0.956935 2.443488,2.631483 -2.696639,1.443198 -9.95268,1.223627 -13.719345,-0.415153 z"
       id="path4885"
       inkscape:connector-curvature="0" />
    <path
       style="fill:#9fa1a5"
       d="M 56.5,91.120269 C 38.702278,86.420664 25.476556,66.124173 30.45158,51.145778 c 2.790153,-8.400363 4.208649,-8.341801 4.756596,0.196371 0.835133,13.013141 7.906802,22.974789 20.567059,28.972199 C 61.596356,83.071926 63.578369,83.5 70.525043,83.5 c 5.746171,0 9.2277,-0.541381 12.260195,-1.906472 8.580455,-3.862528 5.244553,1.895327 -4.01924,6.937315 -3.973299,2.162541 -6.726908,2.859428 -12.198826,3.087296 C 62.680227,91.780004 58.15,91.555963 56.5,91.120269 Z m 51.25,0.220587 C 104.07485,90.317056 106.55571,82 110.53624,82 c 2.07924,0 3.30011,-2.962174 5.3599,-13.004525 1.02302,-4.987722 2.53904,-9.839635 3.36892,-10.78203 0.93434,-1.061029 1.3291,-2.877392 1.03675,-4.770327 -0.59678,-3.864054 1.44218,-5.6876 5.88287,-5.261349 4.03025,0.386855 4.99569,3.637866 1.97681,6.656738 -1.30132,1.301322 -1.62655,2.296435 -0.96631,2.956668 1.09792,1.097924 0.0257,7.546825 -3.38871,20.38061 -1.38493,5.205617 -2.88917,8.479014 -4.67429,10.171734 -2.62434,2.488515 -8.06148,3.918398 -11.38218,2.993337 z M 137,78.248446 c -4.20864,-2.102452 -6.9963,-7.207772 -6.99845,-12.816945 -0.006,-16.379252 13.44761,-28.863026 26.82467,-24.890469 10.09453,2.997756 13.38132,11.094764 9.31963,22.958968 -1.7794,5.197627 -1.85963,6.148471 -0.59997,7.110243 1.9209,1.466633 1.85519,5.84583 -0.11731,7.818328 C 163.05097,80.806176 141.85112,80.671853 137,78.248446 Z M 154.73293,66.25 c 0.89699,-2.0625 1.66153,-6.201043 1.69898,-9.196763 0.0608,-4.862298 -0.21227,-5.605724 -2.54468,-6.928163 C 148.09638,46.841745 141,54.270398 141,63.615724 141,68.802647 142.35991,70 148.25103,70 c 4.64903,0 4.91893,-0.15615 6.4819,-3.75 z m 19.15512,12.250358 c -4.58626,-2.492588 -5.35911,-6.207964 -3.37564,-16.227972 0.95507,-4.824812 2.10472,-9.74638 2.55476,-10.936817 0.95566,-2.527861 4.04267,-3.75287 7.05106,-2.798045 1.89651,0.60193 2.04772,1.158499 1.44464,5.317388 C 181.19239,56.40971 180.6351,61.0875 180.32445,64.25 l -0.56483,5.75 3.60114,0 c 2.92875,0 3.68879,-0.420107 4.07058,-2.25 3.23869,-15.522905 4.06195,-18.017636 6.27917,-19.027868 3.17178,-1.445162 7.76256,0.609697 6.81651,3.051112 -0.75463,1.947449 -1.93611,7.345414 -3.93737,17.989256 -0.75103,3.994375 -1.92104,7.931875 -2.60002,8.75 -1.66542,2.006698 -16.40337,1.997796 -20.10158,-0.01214 z M 204,78.248446 c -4.88104,-2.438352 -5.9164,-6.921718 -3.54786,-15.363129 2.27168,-8.096191 3.93,-10.525142 8.95061,-13.10996 8.20253,-4.222998 17.06563,-2.23821 20.40405,4.569249 1.07863,2.199445 1.0732,3.493323 -0.0311,7.410065 L 228.43781,66.5 219.2189,66.787526 C 212.06575,67.010623 210,67.392606 210,68.492213 c 0,1.530909 3.41767,2.350085 11.5,2.756417 l 5,0.25137 -0.28242,3.461022 c -0.15534,1.903562 -0.83034,3.809172 -1.5,4.234687 C 222.27335,80.748803 207.66842,80.081026 204,78.248446 Z M 219.25,57.5 c -0.37193,-1.487724 -6.51307,-1.210797 -7.02222,0.316658 -0.32345,0.970359 0.57518,1.233372 3.41667,1 C 217.765,58.642496 219.3875,58.05 219.25,57.5 Z m 11.10898,20.993103 c -0.731,-1.904955 4.34149,-27.42726 5.80048,-29.185246 C 236.91627,48.395967 240.16805,48 246.89994,48 258.33508,48 261,49.21608 261,54.434259 c 0,1.826468 0.62585,3.840263 1.39078,4.475099 1.48453,1.232052 4.15824,-1.591606 10.09328,-10.659358 2.64219,-4.03684 3.02582,-4.25 7.64883,-4.25 7.50844,0 7.27819,0.641598 -6.43363,17.927777 -2.6404,3.328699 -5.93574,8.531358 -7.32296,11.561464 -2.60864,5.698015 -5.12588,7.359791 -9.1931,6.068905 -1.60831,-0.510459 -2.06346,-1.831045 -2.52987,-7.340294 -1.08018,-12.759252 -1.90054,-15.68207 -4.50504,-16.050732 -5.59048,-0.79132 -6.7286,0.326826 -8.48947,8.340492 C 240.74647,68.659689 240,73.13691 240,74.456992 c 0,1.320083 -0.70714,3.107294 -1.57143,3.971579 -2.01478,2.014785 -7.30497,2.05709 -8.06959,0.06453 z M 68.5,71.112551 C 56.914957,68.144423 49.247859,59.774694 48.243776,49 47.817784,44.428729 49.22501,39 50.835958,39 c 0.487003,0 1.155361,2.278888 1.485239,5.064196 0.859711,7.258914 4.239885,12.586592 11.002267,17.341278 5.818891,4.09131 5.83087,4.094526 15.250432,4.094526 5.184832,0 9.426773,0.362804 9.426535,0.80623 -6.68e-4,1.248898 -8.131684,4.548098 -12.542912,5.089349 C 73.280884,71.66265 70.15,71.535287 68.5,71.112551 Z m 4.950423,-18.519147 c -4.121622,-1.795267 -8.226318,-6.881898 -9.035936,-11.197537 -1.00272,-5.344953 1.066582,-6.573607 3.055247,-1.814061 0.883598,2.114748 2.37688,4.696851 3.318404,5.738005 2.701813,2.987715 8.786331,5.677287 12.922024,5.711992 3.549249,0.02979 3.66661,0.125009 1.848708,1.5 -2.389787,1.807545 -8.034136,1.83626 -12.108447,0.0616 z"
       id="path4883"
       inkscape:connector-curvature="0" />
    <path
       style="fill:#5c94bd"
       d="M 56.5,91.120269 C 38.702278,86.420664 25.476556,66.124173 30.45158,51.145778 c 2.790153,-8.400363 4.208649,-8.341801 4.756596,0.196371 0.835133,13.013141 7.906802,22.974789 20.567059,28.972199 C 61.596356,83.071926 63.578369,83.5 70.525043,83.5 c 5.746171,0 9.2277,-0.541381 12.260195,-1.906472 8.580455,-3.862528 5.244553,1.895327 -4.01924,6.937315 -3.973299,2.162541 -6.726908,2.859428 -12.198826,3.087296 C 62.680227,91.780004 58.15,91.555963 56.5,91.120269 Z m 50.93363,-1.432628 c -1.04661,-2.727427 -0.002,-5.128005 2.82055,-6.480738 3.55586,-1.704277 4.35882,-3.355075 6.23735,-12.823342 C 118.76099,58.944963 119.29415,58 123.47856,58 125.41535,58 127,58.491812 127,59.092916 c 0,0.601104 -0.89477,5.483635 -1.98838,10.850068 -3.26981,16.045237 -5.59805,19.789473 -12.9158,20.770989 -3.11647,0.418007 -4.19943,0.179605 -4.66219,-1.026332 z m 28.91946,-12.613985 c -1.95128,-1.189824 -3.6142,-3.334791 -4.37684,-5.645622 -1.50085,-4.547614 -0.66692,-14.157694 1.62299,-18.703114 6.33164,-12.568158 21.18579,-16.139887 30.09036,-7.235323 2.87991,2.879915 3.3104,3.972217 3.3104,8.399676 0,2.799101 -0.89025,7.432233 -1.97834,10.295849 -1.9592,5.156184 -1.95953,5.224105 -0.0341,7.017884 1.91504,1.784139 1.8319,3.83674 -0.26521,6.546994 -0.67976,0.878511 -4.57142,1.248889 -13.09476,1.246262 -10.19233,-0.0031 -12.62972,-0.309938 -15.27447,-1.922606 z m 17.52985,-7.432602 c 1.60101,-1.929101 4.09341,-10.570115 4.10624,-14.236066 0.0184,-5.266652 -5.08756,-8.226377 -10.37819,-6.01581 -6.02944,2.51926 -9.91111,15.411734 -5.956,19.782081 2.02036,2.232481 10.49483,2.558068 12.22795,0.469795 z m 18.60923,6.94203 c -2.91187,-2.911878 -3.06801,-5.315073 -0.99187,-15.266626 2.32256,-11.132707 3.02873,-12.503514 6.25019,-12.132834 2.53193,0.29134 2.73221,0.632917 2.53094,4.316376 -0.12022,2.2 -0.34522,6.925 -0.5,10.5 l -0.28143,6.5 4,0 c 3.84899,0 4.0342,-0.151006 4.90604,-4 3.84248,-16.963967 3.85863,-17 7.62055,-17 2.85483,0 3.44772,0.35618 3.32914,2 -0.23536,3.262936 -4.55166,23.872625 -5.34047,25.5 -0.55112,1.137004 -2.94181,1.569605 -9.87899,1.787629 -8.61087,0.270626 -9.29925,0.140297 -11.6441,-2.204545 z M 204.5,77.845268 c -1.1,-0.601654 -2.5625,-1.798978 -3.25,-2.660721 -2.97414,-3.727922 0.008,-17.288437 4.87104,-22.151736 5.95216,-5.952165 16.71676,-6.391147 21.36155,-0.871129 2.79418,3.320689 2.98305,4.621462 1.46483,10.088318 l -1.04143,3.75 -8.98438,0 c -7.23489,0 -9.10149,0.305178 -9.58578,1.567217 -0.98288,2.561358 0.83511,3.388209 8.95963,4.074983 8.07321,0.682436 8.86299,1.32469 6.66936,5.423541 -0.90402,1.689176 -2.13941,1.930406 -9.75,1.90385 C 210.42167,78.952867 205.6,78.446921 204.5,77.845268 Z M 220.52707,58.956195 C 221.48386,57.408075 219.07445,55 216.56868,55 c -2.86739,0 -6.06681,2.384985 -5.16244,3.848296 0.88825,1.437218 8.24548,1.524254 9.12083,0.107899 z M 231.00793,76.75 c 0.01,-2.753784 4.67499,-25.427943 5.50981,-26.778711 C 236.8479,49.43708 241.76138,49 247.43657,49 c 10.85638,0 13.11813,0.858596 12.38613,4.701961 -0.28822,1.513269 -1.6859,1.877228 -8.82497,2.298039 l -8.48252,0.5 -2.02505,10 c -1.11379,5.5 -2.38127,10.5625 -2.81663,11.25 -0.43536,0.6875 -2.11501,1.25 -3.73255,1.25 -2.38559,0 -2.93948,-0.424903 -2.93305,-2.25 z m 24.63587,-4.5 c -0.32004,-3.7125 -0.87005,-8.4375 -1.22225,-10.5 -0.63207,-3.701421 -0.59786,-3.75 2.6403,-3.75 1.80437,0 4.10636,0.747241 5.11554,1.660536 1.00918,0.913295 1.97181,1.475795 2.13918,1.25 7.92141,-10.686694 10.01139,-13.629511 10.41187,-14.660536 0.28613,-0.736621 2.28976,-1.25 4.87855,-1.25 6.49901,0 6.47713,0.05362 -6.91022,16.931022 -2.64178,3.330485 -5.74319,8.195975 -6.89201,10.812202 -2.38303,5.426869 -3.26529,6.220115 -6.94191,6.241463 -2.53361,0.01471 -2.66,-0.24971 -3.21905,-6.734687 z M 68.5,71.112551 C 56.914957,68.144423 49.247859,59.774694 48.243776,49 47.817784,44.428729 49.22501,39 50.835958,39 c 0.487003,0 1.155361,2.278888 1.485239,5.064196 0.859711,7.258914 4.239885,12.586592 11.002267,17.341278 5.818891,4.09131 5.83087,4.094526 15.250432,4.094526 5.184832,0 9.426773,0.362804 9.426535,0.80623 -6.68e-4,1.248898 -8.131684,4.548098 -12.542912,5.089349 C 73.280884,71.66265 70.15,71.535287 68.5,71.112551 Z M 121.18358,52.25 c 0.25228,-2.192593 0.89852,-2.816519 3.18824,-3.078178 3.52942,-0.403324 5.04126,0.951305 4.16013,3.727515 C 128.02192,54.506287 127.04286,55 124.36619,55 c -3.22717,0 -3.47445,-0.213666 -3.18261,-2.75 z m -47.733157,0.343404 c -4.121622,-1.795267 -8.226318,-6.881898 -9.035936,-11.197537 -1.00272,-5.344953 1.066582,-6.573607 3.055247,-1.814061 0.883598,2.114748 2.37688,4.696851 3.318404,5.738005 2.701813,2.987715 8.786331,5.677287 12.922024,5.711992 3.549249,0.02979 3.66661,0.125009 1.848708,1.5 -2.389787,1.807545 -8.034136,1.83626 -12.108447,0.0616 z"
       id="path4881"
       inkscape:connector-curvature="0" />
    <path
       style="fill:#1c6ca4"
       d="M 56.5,90.120269 C 41.962569,86.281565 30.646265,72.317553 30.577191,58.132226 30.557627,54.114349 31.1144,50.514528 31.989646,49 c 1.400996,-2.424288 1.466484,-2.311976 2.162406,3.708513 1.456286,12.598479 8.241858,21.905783 20.324073,27.877137 10.359218,5.119803 19.179019,5.682966 29.023875,1.853236 2,-0.778017 2,-0.778017 0,1.497958 -4.817071,5.481767 -18.119799,8.528301 -27,6.183425 z m 50.93363,-0.432628 c -1.04661,-2.727427 -0.002,-5.128005 2.82055,-6.480738 3.55586,-1.704277 4.35882,-3.355075 6.23735,-12.823342 C 118.76099,58.944963 119.29415,58 123.47856,58 125.41535,58 127,58.491812 127,59.092916 c 0,0.601104 -0.89477,5.483635 -1.98838,10.850068 -3.26981,16.045237 -5.59805,19.789473 -12.9158,20.770989 -3.11647,0.418007 -4.19943,0.179605 -4.66219,-1.026332 z m 28.91946,-12.613985 c -1.95128,-1.189824 -3.6142,-3.334791 -4.37684,-5.645622 -1.50085,-4.547614 -0.66692,-14.157694 1.62299,-18.703114 6.33164,-12.568158 21.18579,-16.139887 30.09036,-7.235323 2.87991,2.879915 3.3104,3.972217 3.3104,8.399676 0,2.799101 -0.89025,7.432233 -1.97834,10.295849 -1.9592,5.156184 -1.95953,5.224105 -0.0341,7.017884 1.91504,1.784139 1.8319,3.83674 -0.26521,6.546994 -0.67976,0.878511 -4.57142,1.248889 -13.09476,1.246262 -10.19233,-0.0031 -12.62972,-0.309938 -15.27447,-1.922606 z m 17.52985,-7.432602 c 1.60101,-1.929101 4.09341,-10.570115 4.10624,-14.236066 0.0184,-5.266652 -5.08756,-8.226377 -10.37819,-6.01581 -6.02944,2.51926 -9.91111,15.411734 -5.956,19.782081 2.02036,2.232481 10.49483,2.558068 12.22795,0.469795 z m 18.60923,6.94203 c -2.91187,-2.911878 -3.06801,-5.315073 -0.99187,-15.266626 2.32256,-11.132707 3.02873,-12.503514 6.25019,-12.132834 2.53193,0.29134 2.73221,0.632917 2.53094,4.316376 -0.12022,2.2 -0.34522,6.925 -0.5,10.5 l -0.28143,6.5 4,0 c 3.84899,0 4.0342,-0.151006 4.90604,-4 3.84248,-16.963967 3.85863,-17 7.62055,-17 2.85483,0 3.44772,0.35618 3.32914,2 -0.23536,3.262936 -4.55166,23.872625 -5.34047,25.5 -0.55112,1.137004 -2.94181,1.569605 -9.87899,1.787629 -8.61087,0.270626 -9.29925,0.140297 -11.6441,-2.204545 z M 204.5,77.845268 c -1.1,-0.601654 -2.5625,-1.798978 -3.25,-2.660721 -2.97414,-3.727922 0.008,-17.288437 4.87104,-22.151736 5.95216,-5.952165 16.71676,-6.391147 21.36155,-0.871129 2.79418,3.320689 2.98305,4.621462 1.46483,10.088318 l -1.04143,3.75 -8.98438,0 c -7.23489,0 -9.10149,0.305178 -9.58578,1.567217 -0.98288,2.561358 0.83511,3.388209 8.95963,4.074983 8.07321,0.682436 8.86299,1.32469 6.66936,5.423541 -0.90402,1.689176 -2.13941,1.930406 -9.75,1.90385 C 210.42167,78.952867 205.6,78.446921 204.5,77.845268 Z M 220.52707,58.956195 C 221.48386,57.408075 219.07445,55 216.56868,55 c -2.86739,0 -6.06681,2.384985 -5.16244,3.848296 0.88825,1.437218 8.24548,1.524254 9.12083,0.107899 z M 231.00793,76.75 c 0.01,-2.753784 4.67499,-25.427943 5.50981,-26.778711 C 236.8479,49.43708 241.76138,49 247.43657,49 c 10.85638,0 13.11813,0.858596 12.38613,4.701961 -0.28822,1.513269 -1.6859,1.877228 -8.82497,2.298039 l -8.48252,0.5 -2.02505,10 c -1.11379,5.5 -2.38127,10.5625 -2.81663,11.25 -0.43536,0.6875 -2.11501,1.25 -3.73255,1.25 -2.38559,0 -2.93948,-0.424903 -2.93305,-2.25 z m 24.63587,-4.5 c -0.32004,-3.7125 -0.87005,-8.4375 -1.22225,-10.5 -0.63207,-3.701421 -0.59786,-3.75 2.6403,-3.75 1.80437,0 4.10636,0.747241 5.11554,1.660536 1.00918,0.913295 1.97181,1.475795 2.13918,1.25 7.92141,-10.686694 10.01139,-13.629511 10.41187,-14.660536 0.28613,-0.736621 2.28976,-1.25 4.87855,-1.25 6.49901,0 6.47713,0.05362 -6.91022,16.931022 -2.64178,3.330485 -5.74319,8.195975 -6.89201,10.812202 -2.38303,5.426869 -3.26529,6.220115 -6.94191,6.241463 -2.53361,0.01471 -2.66,-0.24971 -3.21905,-6.734687 z M 65.640066,69.416768 C 59.464023,67.457947 51.61166,59.865794 50.088673,54.380715 48.779656,49.666254 48.673113,43.320062 49.890351,42.567767 c 0.489692,-0.302647 1.202262,1.112365 1.583487,3.14447 1.450845,7.733668 4.919509,12.362525 13.388897,17.867191 3.494111,2.270993 5.883321,2.944774 12,3.38412 6.54192,0.469889 7.339376,0.718742 5.560238,1.73512 -3.576154,2.042969 -11.532335,2.383395 -16.782907,0.7181 z M 121.18358,52.25 c 0.25228,-2.192593 0.89852,-2.816519 3.18824,-3.078178 3.52942,-0.403324 5.04126,0.951305 4.16013,3.727515 C 128.02192,54.506287 127.04286,55 124.36619,55 c -3.22717,0 -3.47445,-0.213666 -3.18261,-2.75 z M 73.396258,51.570629 c -3.613862,-1.573147 -7.007126,-5.943719 -7.86608,-10.131624 -0.53957,-2.630719 -0.467874,-2.741387 0.683511,-1.055041 3.67612,5.38414 6.682967,8.124599 11.245446,10.249165 4.596363,2.140346 4.776326,2.344743 2.040865,2.31796 -1.65,-0.01616 -4.396684,-0.637362 -6.103742,-1.38046 z"
       id="path4879"
       inkscape:connector-curvature="0" />
    <path
       style="fill:#595d65"
       d="m 107.43363,89.687641 c -1.04661,-2.727427 -0.002,-5.128005 2.82055,-6.480738 3.55586,-1.704277 4.35882,-3.355075 6.23735,-12.823342 C 118.76099,58.944963 119.29415,58 123.47856,58 125.41535,58 127,58.491812 127,59.092916 c 0,0.601104 -0.89477,5.483635 -1.98838,10.850068 -3.26981,16.045237 -5.59805,19.789473 -12.9158,20.770989 -3.11647,0.418007 -4.19943,0.179605 -4.66219,-1.026332 z m 28.91946,-12.613985 c -1.95128,-1.189824 -3.6142,-3.334791 -4.37684,-5.645622 -1.50085,-4.547614 -0.66692,-14.157694 1.62299,-18.703114 6.33164,-12.568158 21.18579,-16.139887 30.09036,-7.235323 2.87991,2.879915 3.3104,3.972217 3.3104,8.399676 0,2.799101 -0.89025,7.432233 -1.97834,10.295849 -1.9592,5.156184 -1.95953,5.224105 -0.0341,7.017884 1.91504,1.784139 1.8319,3.83674 -0.26521,6.546994 -0.67976,0.878511 -4.57142,1.248889 -13.09476,1.246262 -10.19233,-0.0031 -12.62972,-0.309938 -15.27447,-1.922606 z m 17.52985,-7.432602 c 1.60101,-1.929101 4.09341,-10.570115 4.10624,-14.236066 0.0184,-5.266652 -5.08756,-8.226377 -10.37819,-6.01581 -6.02944,2.51926 -9.91111,15.411734 -5.956,19.782081 2.02036,2.232481 10.49483,2.558068 12.22795,0.469795 z m 18.60923,6.94203 c -2.91187,-2.911878 -3.06801,-5.315073 -0.99187,-15.266626 2.32256,-11.132707 3.02873,-12.503514 6.25019,-12.132834 2.53193,0.29134 2.73221,0.632917 2.53094,4.316376 -0.12022,2.2 -0.34522,6.925 -0.5,10.5 l -0.28143,6.5 4,0 c 3.84899,0 4.0342,-0.151006 4.90604,-4 3.84248,-16.963967 3.85863,-17 7.62055,-17 2.85483,0 3.44772,0.35618 3.32914,2 -0.23536,3.262936 -4.55166,23.872625 -5.34047,25.5 -0.55112,1.137004 -2.94181,1.569605 -9.87899,1.787629 -8.61087,0.270626 -9.29925,0.140297 -11.6441,-2.204545 z M 204.5,77.845268 c -1.1,-0.601654 -2.5625,-1.798978 -3.25,-2.660721 -2.97414,-3.727922 0.008,-17.288437 4.87104,-22.151736 5.95216,-5.952165 16.71676,-6.391147 21.36155,-0.871129 2.79418,3.320689 2.98305,4.621462 1.46483,10.088318 l -1.04143,3.75 -8.98438,0 c -7.23489,0 -9.10149,0.305178 -9.58578,1.567217 -0.98288,2.561358 0.83511,3.388209 8.95963,4.074983 8.07321,0.682436 8.86299,1.32469 6.66936,5.423541 -0.90402,1.689176 -2.13941,1.930406 -9.75,1.90385 C 210.42167,78.952867 205.6,78.446921 204.5,77.845268 Z M 220.52707,58.956195 C 221.48386,57.408075 219.07445,55 216.56868,55 c -2.86739,0 -6.06681,2.384985 -5.16244,3.848296 0.88825,1.437218 8.24548,1.524254 9.12083,0.107899 z M 231.00793,76.75 c 0.01,-2.753784 4.67499,-25.427943 5.50981,-26.778711 C 236.8479,49.43708 241.76138,49 247.43657,49 c 10.85638,0 13.11813,0.858596 12.38613,4.701961 -0.28822,1.513269 -1.6859,1.877228 -8.82497,2.298039 l -8.48252,0.5 -2.02505,10 c -1.11379,5.5 -2.38127,10.5625 -2.81663,11.25 -0.43536,0.6875 -2.11501,1.25 -3.73255,1.25 -2.38559,0 -2.93948,-0.424903 -2.93305,-2.25 z m 24.63587,-4.5 c -0.32004,-3.7125 -0.87005,-8.4375 -1.22225,-10.5 -0.63207,-3.701421 -0.59786,-3.75 2.6403,-3.75 1.80437,0 4.10636,0.747241 5.11554,1.660536 1.00918,0.913295 1.97181,1.475795 2.13918,1.25 7.92141,-10.686694 10.01139,-13.629511 10.41187,-14.660536 0.28613,-0.736621 2.28976,-1.25 4.87855,-1.25 6.49901,0 6.47713,0.05362 -6.91022,16.931022 -2.64178,3.330485 -5.74319,8.195975 -6.89201,10.812202 -2.38303,5.426869 -3.26529,6.220115 -6.94191,6.241463 -2.53361,0.01471 -2.66,-0.24971 -3.21905,-6.734687 z m -134.46022,-20 c 0.25228,-2.192593 0.89852,-2.816519 3.18824,-3.078178 3.52942,-0.403324 5.04126,0.951305 4.16013,3.727515 C 128.02192,54.506287 127.04286,55 124.36619,55 c -3.22717,0 -3.47445,-0.213666 -3.18261,-2.75 z"
       id="path4877"
       inkscape:connector-curvature="0" />
    <path
       style="fill:#161e2a"
       d="m 108.66667,89.333333 c -1.6799,-1.679899 -0.50551,-4.493554 2.28102,-5.464941 3.22737,-1.125069 5.01273,-4.892551 7.04592,-14.868392 0.61654,-3.025 1.32876,-6.5125 1.58273,-7.75 0.3544,-1.726868 1.15484,-2.25 3.44271,-2.25 1.63952,0 2.98087,0.1125 2.98078,0.25 -4.1e-4,0.597727 -3.06157,15.572379 -3.83293,18.75 -1.46798,6.047353 -3.92467,9.719908 -7.28574,10.891583 -3.6498,1.272327 -5.26883,1.387414 -6.21449,0.44175 z M 139,77.293772 c -8.27742,-3.025857 -9.13769,-18.036475 -1.62253,-28.310954 2.70296,-3.695398 4.34182,-4.844311 9.0085,-6.31535 5.38349,-1.696997 5.98771,-1.704086 10.7389,-0.125992 8.76836,2.91238 10.95296,9.97299 6.74918,21.813266 -2.01245,5.668244 -2.03267,6.056101 -0.37876,7.265471 1.23979,0.906558 1.56124,2.018425 1.10689,3.828679 L 163.9619,78 152.23095,77.921053 C 145.77893,77.877632 139.825,77.595355 139,77.293772 Z m 15.88294,-6.652718 c 1.77683,-2.140951 4.09435,-10.740047 4.10624,-15.236066 0.008,-2.887066 -0.6027,-4.650242 -2.06905,-5.977273 -2.80594,-2.539341 -9.07814,-2.489603 -11.98149,0.09501 -5.72433,5.095914 -8.00203,17.918609 -3.71613,20.920569 2.8018,1.962463 12.08432,2.096843 13.66043,0.197758 z m 18.45013,4.782928 c -2.13441,-2.134413 -2.47955,-3.205848 -2.01331,-6.25 C 173.79273,53.027598 174.8739,50 178.16685,50 c 1.92164,0 2.0317,0.354449 1.31968,4.25 -0.42724,2.3375 -0.82399,7.175 -0.88167,10.75 l -0.10486,6.5 5,0 5,0 0.88033,-4 c 3.34557,-15.201367 4.04695,-17 6.62926,-17 1.65962,0 2.38409,0.485767 2.17169,1.45615 -1.24059,5.668007 -4.89109,23.964387 -5.14639,25.79385 -0.0192,0.1375 -3.88034,0.25 -8.58034,0.25 -7.84907,0 -8.75538,-0.209926 -11.12148,-2.576018 z m 30.12148,0.121473 c -2.78531,-2.78531 -2.97269,-4.722124 -1.20455,-12.45056 1.57415,-6.880494 5.6796,-11.460305 11.73493,-13.090838 9.51059,-2.560935 16.24588,2.711342 14.02067,10.975153 l -1.06268,3.946494 -9.22146,0.287148 c -9.18068,0.285878 -9.22283,0.299029 -9.53174,2.9735 -0.27186,2.353671 0.16159,2.817384 3.5,3.744423 2.09565,0.581939 5.99592,1.060581 8.66727,1.063648 4.01683,0.0046 4.75199,0.279194 4.25,1.587364 C 224.27314,75.451771 224,76.576771 224,77.081787 224,77.586804 219.92955,78 214.95455,78 c -8.27049,0 -9.25575,-0.210294 -11.5,-2.454545 z m 17.44026,-15.918707 c 2.65299,-3.196656 -2.05273,-6.55688 -7.32816,-5.232832 -2.47622,0.621492 -4.20299,3.76745 -3.07218,5.597135 0.9342,1.511563 9.08032,1.226221 10.40034,-0.364303 z m 11.10656,17.689674 c 0.001,-0.845401 2.3668,-13.743866 3.83156,-20.893485 C 237.13249,50.079644 237.27068,50 246.97723,50 256.56353,50 259,50.506861 259,52.501104 c 0,0.910889 -2.31522,1.392265 -7.92047,1.646814 -4.35626,0.197828 -8.18814,0.62736 -8.5153,0.954515 -0.85922,0.859224 -3.51016,11.40158 -4.35701,17.327172 -0.65333,4.571478 -0.99437,5.10153 -3.46593,5.386817 -1.50771,0.174033 -2.74067,-0.05097 -2.73992,-0.5 z M 256.67355,71.75 c -0.27341,-3.4375 -0.81288,-7.7125 -1.19883,-9.5 -0.66968,-3.101609 -0.56445,-3.25 2.30479,-3.25 1.74996,0 3.24708,0.626913 3.58212,1.5 0.31658,0.825 1.21,1.5 1.98538,1.5 1.3095,0 7.07869,-6.86452 11.13577,-13.25 1.34756,-2.120947 2.52742,-2.75 5.15791,-2.75 l 3.41067,0 -1.45974,2.822833 c -0.80286,1.552558 -2.19076,3.429519 -3.08422,4.171024 -3.03853,2.521756 -10.44518,12.939918 -13.49575,18.983061 C 262.56502,76.823673 261.50243,78 259.57093,78 c -2.22465,0 -2.43665,-0.457312 -2.89738,-6.25 z M 122.17595,52.32489 C 122.40377,51.141922 123.40197,50.5 125.0137,50.5 c 3.55827,0 3.25042,2.912517 -0.35145,3.32489 -2.29455,0.2627 -2.77047,-0.02442 -2.4863,-1.5 z"
       id="path4875"
       inkscape:connector-curvature="0" />
  </g>
</svg>
