<?xml version="1.0" encoding="UTF-8" standalone="no"?>
<!-- Created with Inkscape (http://www.inkscape.org/) -->

<svg
   xmlns:dc="http://purl.org/dc/elements/1.1/"
   xmlns:cc="http://creativecommons.org/ns#"
   xmlns:rdf="http://www.w3.org/1999/02/22-rdf-syntax-ns#"
   xmlns:svg="http://www.w3.org/2000/svg"
   xmlns="http://www.w3.org/2000/svg"
   xmlns:xlink="http://www.w3.org/1999/xlink"
   xmlns:sodipodi="http://sodipodi.sourceforge.net/DTD/sodipodi-0.dtd"
   xmlns:inkscape="http://www.inkscape.org/namespaces/inkscape"
   id="svg3500"
   version="1.1"
   inkscape:version="0.91 r13725"
   width="78.75"
   height="76.875"
   viewBox="0 0 78.75 76.875"
   sodipodi:docname="JSX.svg">
  <metadata
     id="metadata3506">
    <rdf:RDF>
      <cc:Work
         rdf:about="">
        <dc:format>image/svg+xml</dc:format>
        <dc:type
           rdf:resource="http://purl.org/dc/dcmitype/StillImage" />
        <dc:title></dc:title>
      </cc:Work>
    </rdf:RDF>
  </metadata>
  <defs
     id="defs3504" />
  <sodipodi:namedview
     pagecolor="#ffffff"
     bordercolor="#666666"
     borderopacity="1"
     objecttolerance="10"
     gridtolerance="10"
     guidetolerance="10"
     inkscape:pageopacity="0"
     inkscape:pageshadow="2"
     inkscape:window-width="640"
     inkscape:window-height="480"
     id="namedview3502"
     showgrid="false"
     inkscape:zoom="3.0699187"
     inkscape:cx="39.375"
     inkscape:cy="38.4375"
     inkscape:window-x="0"
     inkscape:window-y="0"
     inkscape:window-maximized="0"
     inkscape:current-layer="svg3500" />
  <image
     width="78.75"
     height="76.875"
     preserveAspectRatio="none"
     style="image-rendering:optimizeQuality"
     xlink:href="file:///media/havoc/USB%20DISK/pics/Language%20icons/JSX.png"
     id="image3508"
     x="0"
     y="0"
     sodipodi:absref="/media/havoc/USB DISK/pics/Language icons/JSX.png" />
  <g
     id="g3604">
    <path
       style="fill:#fdfdfd"
       d="M 0,38.4375 0,0 39.375,0 78.75,0 l 0,38.4375 0,38.4375 -39.375,0 -39.375,0 0,-38.4375 z"
       id="path3620"
       inkscape:connector-curvature="0" />
    <path
       style="fill:#e3e3e3"
       d="m 15.125,70.5 c -0.534073,-0.534075 -0.75,-4.402775 -0.75,-13.4375 l 0,-12.6875 -4.5625,0 C 7.0972225,44.375 4.9463471,44.071347 4.5,43.625 3.7082723,42.833272 3.3791727,21.068595 4.129368,19.113617 4.4309636,18.327672 5.5200535,18.125 9.4418681,18.125 l 4.9331319,0 0,-6.125 c 0,-3.9305556 0.268708,-6.3937075 0.75,-6.875 1.078525,-1.0785253 53.671475,-1.0785253 54.75,0 0.5577,0.5576983 0.75,7.001262 0.75,25.130682 l 0,24.380682 -8.306818,8.306817 -8.306818,8.306819 -19.068182,0 C 20.945707,71.25 15.675556,71.050556 15.125,70.5 Z m 34.25,-11.625 c 0,-4.902778 0.251412,-7.626412 0.75,-8.125 C 50.623588,50.251412 53.347222,50 58.25,50 l 7.375,0 0,-20.3125 0,-20.3125 -22.8125,0 -22.8125,0 0,4.375 0,4.375 15.558132,0 c 13.610425,0 15.605625,0.123764 15.9375,0.988617 0.750195,1.954978 0.421096,23.719655 -0.370632,24.511383 -0.542181,0.542181 -4.958333,0.75 -15.9375,0.75 l -15.1875,0 0,10.9375 0,10.9375 14.6875,0 14.6875,0 0,-7.375 z M 58.75,59.0625 62.776388,55 58.575695,55 54.375,55 l 0,4.0625 c 0,2.234375 0.07844,4.0625 0.174305,4.0625 0.09587,0 1.986181,-1.828125 4.200695,-4.0625 z M 46.875,31.25 l 0,-8.125 -19.0625,0 -19.0625,0 0,8.125 0,8.125 19.0625,0 19.0625,0 0,-8.125 z M 12.524347,36.757149 C 11.823456,36.004831 11.25,34.914269 11.25,34.333677 c 0,-1.478096 1.630737,-2.668343 3.121671,-2.278455 1.13592,0.29705 1.253329,0.02293 1.253329,-2.926235 0,-1.789693 0.3375,-3.591487 0.75,-4.003987 1.162564,-1.162564 2.831612,-0.889213 3.90206,0.639066 0.535117,0.763987 0.97294,1.040687 0.97294,0.614889 0,-0.425798 0.964209,-1.233978 2.142686,-1.795954 1.815433,-0.86572 2.437115,-0.89982 4.07045,-0.22327 1.919413,0.795046 2.525041,2.016595 2.486505,5.015269 -0.01104,0.859375 0.165867,2.459874 0.393134,3.556665 0.900873,4.347609 -5.587661,7.129624 -8.638931,3.704016 l -1.326572,-1.489319 -1.171499,1.489319 c -1.549777,1.970223 -4.902267,2.031171 -6.681426,0.121468 z m 8.809424,-5.915665 c -0.588021,-1.011638 -0.673105,-0.926555 -0.689765,0.689766 -0.01386,1.344579 0.167739,1.657005 0.67076,1.153984 0.49434,-0.49434 0.499725,-1.016711 0.01901,-1.84375 z m 9.924841,6.677065 c -0.807771,-0.510732 -0.814822,-0.855827 -0.05408,-2.64668 0.936001,-2.203417 1.03941,-4.581473 0.340632,-7.833419 -0.504535,-2.347989 0.731554,-3.249481 3.02594,-2.206846 0.934785,0.424795 1.71188,0.402402 2.460143,-0.07089 0.802443,-0.507562 1.385058,-0.503174 2.1875,0.01647 1.225811,0.793817 1.240987,1.526917 0.0909,4.390735 -0.683246,1.701338 -0.635363,2.335162 0.339779,4.49764 0.624308,1.384468 0.967413,2.954213 0.762455,3.488324 C 39.970682,38.303635 37.44213,38.44213 36.375,37.375 c -0.583333,-0.583333 -0.916667,-0.583333 -1.5,0 -0.894377,0.894377 -2.338234,0.95169 -3.616387,0.143549 z"
       id="path3618"
       inkscape:connector-curvature="0" />
    <path
       style="fill:#cfcfcf"
       d="M 15.297004,69.84375 C 15.138184,69.414062 14.936074,63.4375 14.84787,56.5625 l -0.16037,-12.5 -5,-0.3125 -5,-0.3125 -0.1701334,-12.142034 c -0.1302555,-9.29604 0.016239,-12.260319 0.625,-12.64668 0.4373234,-0.277555 2.8243571,-0.508952 5.3045194,-0.514215 l 4.509385,-0.0096 0.178115,-6.40625 0.178114,-6.40625 27.1875,0 27.1875,0 0.163631,24.671412 0.163631,24.671412 -7.967113,7.984839 -7.967113,7.984837 -19.247384,0 c -14.827232,0 -19.313698,-0.179412 -19.536148,-0.78125 z M 50,58.75 l 0.3125,-7.8125 7.8125,-0.3125 7.8125,-0.3125 0,-20.625 0,-20.625 -23.125,0 -23.125,0 -0.183631,4.53125 -0.183631,4.53125 15.183631,0.0096 c 8.350997,0.0053 15.541441,0.23666 15.978764,0.514215 0.608761,0.386362 0.755256,3.35064 0.625,12.64668 L 50.9375,43.4375 35.3125,43.75 19.6875,44.0625 19.515534,54.66455 c -0.09458,5.831127 -0.03114,10.969044 0.140989,11.4176 0.247777,0.645694 3.407578,0.780637 15.171966,0.64795 L 49.6875,66.5625 50,58.75 Z m 8.890565,0.798012 c 2.328939,-2.311093 4.234435,-4.43279 4.234435,-4.714881 0,-0.282091 -2.039063,-0.430259 -4.53125,-0.329262 L 54.0625,54.6875 53.878869,59.21875 c -0.100997,2.492187 0.03257,4.53125 0.296815,4.53125 0.264245,0 2.385942,-1.890894 4.714881,-4.201988 z M 47.1875,31.25 l 0,-8.4375 -19.375,0 -19.375,0 -0.1764625,7.777832 c -0.097054,4.277807 -0.034006,8.14907 0.1401094,8.602805 0.2546437,0.663591 4.0793541,0.792637 19.5514621,0.659669 L 47.1875,39.6875 l 0,-8.4375 z m -34.783061,4.727356 c -1.067635,-2.343203 -0.254176,-3.703553 1.95092,-3.262534 l 1.836109,0.367222 0.185516,-3.884772 C 16.552607,25.519652 16.645819,25.3125 18.125,25.3125 c 1.518772,0 1.567647,0.137697 1.746417,4.920216 C 20.092844,36.156441 19.28739,37.5 15.514734,37.5 13.56048,37.5 12.965486,37.208721 12.404439,35.977356 Z M 22,36.75 c -0.4125,-0.4125 -0.75,-1.340625 -0.75,-2.0625 0,-0.721875 0.3375,-1.65 0.75,-2.0625 0.583333,-0.583333 0.583333,-0.916667 0,-1.5 -1.157145,-1.157145 -0.888574,-4.111426 0.5,-5.5 1.363916,-1.363916 3.766546,-1.619614 5.666088,-0.60301 1.328521,0.711002 1.736014,4.35301 0.487044,4.35301 -0.431901,0 -0.306373,0.459116 0.3125,1.142963 1.372916,1.517055 1.315552,4.658834 -0.108595,5.947669 C 27.521722,37.674076 23.107152,37.857152 22,36.75 Z m 9.528946,0.07071 c -0.230904,-0.37361 0.07001,-1.765553 0.668698,-3.093206 1.018405,-2.258418 1.022207,-2.579657 0.05902,-4.986907 -0.566232,-1.415146 -0.867146,-2.835703 -0.668701,-3.156794 0.507744,-0.821546 2.394701,-0.726139 3.287038,0.166198 0.583333,0.583333 0.916667,0.583333 1.5,0 0.934994,-0.934994 2.787699,-0.974146 3.346054,-0.07071 0.230903,0.37361 -0.04812,1.717027 -0.620072,2.98537 -0.988206,2.19145 -0.978291,2.443678 0.199474,5.074299 0.681653,1.522521 1.10131,2.991605 0.932571,3.26463 -0.56746,0.918169 -3.289745,0.506696 -3.951971,-0.59734 -0.624815,-1.041667 -0.687297,-1.041667 -1.312112,0 -0.730033,1.21708 -2.790522,1.465332 -3.439998,0.414459 z"
       id="path3616"
       inkscape:connector-curvature="0" />
    <path
       style="fill:#a4a4a4"
       d="M 15.75,69.875 C 15.215927,69.340925 15,65.472225 15,56.4375 l 0,-12.6875 -4.5625,0 C 7.7222225,43.75 5.5713471,43.446347 5.125,43 4.2757766,42.150777 4.0455721,20.860872 4.8715622,19.561416 5.1540286,19.117038 7.2556731,18.73421 10.018242,18.623916 L 14.6875,18.4375 14.868824,12.533828 C 14.968552,9.2868075 15.354552,6.26337 15.726602,5.8150776 16.671039,4.6770997 68.11455,4.6145511 69.25,5.75 69.807025,6.3070237 70,12.612374 70,30.255682 l 0,23.755682 -8.306818,8.306818 -8.306818,8.306818 -18.443182,0 C 21.431818,70.625 16.299446,70.424444 15.75,69.875 Z M 50,59.5 c 0,-4.902778 0.251412,-7.626412 0.75,-8.125 0.498588,-0.498588 3.222222,-0.75 8.125,-0.75 l 7.375,0 0,-20.945016 0,-20.9450152 L 42.65625,8.8987344 19.0625,9.0625 18.869327,12.466596 c -0.106245,1.872253 -0.03057,4.05194 0.168158,4.84375 l 0.36133,1.439654 15.546224,0 c 13.599567,0 15.593728,0.123792 15.925593,0.988617 0.208652,0.54374 0.379368,5.853052 0.379368,11.798472 0,8.234551 -0.198121,10.97428 -0.831611,11.500031 -0.543712,0.451241 -6.11528,0.748199 -16.09375,0.857778 L 19.0625,44.0625 18.890534,54.66455 c -0.09458,5.831127 -0.03309,10.963937 0.136634,11.40625 0.239973,0.625356 3.718222,0.8042 15.640716,0.8042 L 50,66.875 50,59.5 Z m 9.234393,0.329053 c 2.483583,-2.500272 4.515607,-4.750272 4.515607,-5 0,-0.249729 -2.25,-0.454053 -5,-0.454053 l -5,0 0,5 c 0,2.75 0.217976,5 0.484393,5 0.266415,0 2.516415,-2.045676 5,-4.545947 z M 47.5,31.25 l 0,-8.75 -19.6875,0 -19.6875,0 0,8.75 0,8.75 19.6875,0 19.6875,0 0,-8.75 z m -34.375,5 c -1.498672,-1.498672 -1.555719,-2.09322 -0.300776,-3.134729 0.776807,-0.644693 1.174142,-0.584237 2.1875,0.332838 1.222362,1.106223 1.238276,1.068152 1.238276,-2.962214 0,-4.533858 1.040246,-6.331735 2.8125,-4.860895 1.143432,0.948964 1.293951,7.529976 0.218935,9.572338 C 17.887132,37.846296 15.183567,38.308567 13.125,36.25 Z m 9.375,0 c -1.559617,-1.559618 -1.57386,-2.287154 -0.06324,-3.230551 1.15914,-0.723894 1.156653,-0.781863 -0.106886,-2.49089 -1.090913,-1.475539 -1.180151,-1.998835 -0.56944,-3.339202 1.420395,-3.117426 6.354157,-3.30096 7.31547,-0.272131 0.587063,1.849672 -0.878719,2.716833 -2.346709,1.38832 -0.611521,-0.553419 -1.32107,-0.787454 -1.576775,-0.520079 -0.255705,0.267376 0.08105,0.804714 0.748343,1.194085 C 28.146619,30.290029 30,32.434038 30,33.721591 30,35.58935 27.787669,37.5 25.625,37.5 24.583333,37.5 23.194444,36.944444 22.5,36.25 Z m 3.75,-2.463114 c 0,-0.737413 -1.218971,-1.526248 -1.666667,-1.078553 -0.447695,0.447696 0.34114,1.666667 1.078553,1.666667 0.323463,0 0.588114,-0.264651 0.588114,-0.588114 z m 5.85053,2.774345 c -0.198132,-0.516322 0.06468,-2.000742 0.584022,-3.298709 0.826764,-2.066286 0.832586,-2.625539 0.04679,-4.494396 -1.38327,-3.289832 -0.231288,-4.928787 1.93893,-2.758569 0.92941,0.92941 1.10779,0.920659 2.246911,-0.110231 1.959611,-1.773424 2.888485,-0.34803 1.841174,2.825355 -0.729143,2.209323 -0.695781,2.807883 0.276708,4.964477 0.608198,1.348743 0.916893,2.757941 0.685989,3.131551 -0.679806,1.099949 -2.078121,0.782161 -3.123114,-0.709775 L 35.625,34.721868 34.65206,36.110934 c -1.131859,1.615954 -2.042552,1.776675 -2.55153,0.450297 z"
       id="path3614"
       inkscape:connector-curvature="0" />
    <path
       style="fill:#6b6b6b"
       d="M 15.922004,69.21875 C 15.763184,68.789062 15.561074,62.8125 15.47287,55.9375 l -0.16037,-12.5 -5,-0.3125 -5,-0.3125 L 5.1424592,31.09375 4.9724184,19.375 l 4.6247629,0 c 3.0397077,0 4.8566057,-0.279353 5.3012167,-0.815078 0.37205,-0.448292 0.75805,-3.471729 0.857778,-6.71875 L 15.9375,5.9375 l 26.5625,0 26.5625,0 0.163813,24.046233 0.163806,24.046234 -7.967292,7.985016 L 53.455536,70 34.833152,70 C 20.50592,70 16.144167,69.819806 15.922004,69.21875 Z M 50.625,59.375 50.9375,51.5625 58.75,51.25 l 7.8125,-0.3125 0,-21.25 0,-21.25 -23.75,0 -23.75,0 -0.184376,4.945732 c -0.131767,3.534535 0.04657,5.092236 0.625,5.459179 0.445157,0.282396 7.635894,0.517755 15.979417,0.523018 L 50.652582,19.375 50.482541,31.09375 50.3125,42.8125 34.6875,43.125 19.0625,43.4375 18.891278,54.666489 c -0.09417,6.175943 -0.03079,11.594936 0.140837,12.042205 0.246997,0.643662 3.540423,0.77835 15.796223,0.646006 L 50.3125,67.1875 50.625,59.375 Z m 8.892422,0.795912 C 62.18909,57.514914 64.375,54.972715 64.375,54.521579 c 0,-0.628258 -1.280019,-0.777978 -5.46875,-0.639662 L 53.4375,54.0625 53.256917,59.53125 C 53.121793,63.623319 53.275648,65 53.868089,65 c 0.435466,0 2.977666,-2.173088 5.649333,-4.829088 z M 47.8125,31.25 l 0,-9.0625 -20,0 -20,0 -0.1752594,8.405968 c -0.096393,4.623282 -0.033387,8.775681 0.1400119,9.227551 0.2531813,0.659779 4.2265465,0.789079 20.1752595,0.656532 L 47.8125,40.3125 l 0,-9.0625 z M 13.25,36.125 c -1.814653,-1.814653 -0.122297,-3.756905 1.776353,-2.038651 1.496088,1.353941 1.750688,0.790862 1.988969,-4.398849 0.130402,-2.840143 0.399642,-3.75 1.109678,-3.75 0.722205,0 0.979879,0.966126 1.122038,4.206982 0.230063,5.244848 -0.477734,6.730518 -3.206528,6.730518 -1.122281,0 -2.37801,-0.3375 -2.79051,-0.75 z m 9.375,0 c -1.833337,-1.833337 -0.115375,-3.750641 1.804151,-2.013494 0.991988,0.897737 1.371375,0.956591 1.991867,0.308995 0.609036,-0.635642 0.527903,-0.947147 -0.394975,-1.516483 -4.568101,-2.81812 -5.415422,-5.171749 -2.540107,-7.055727 2.068043,-1.355034 4.85804,-0.538264 5.151283,1.508036 0.202467,1.412847 -0.742076,1.913664 -1.449719,0.768673 -0.499694,-0.808522 -2.8125,-0.814969 -2.8125,-0.0078 0,0.339438 1.125,1.327342 2.5,2.195341 2.731305,1.724197 3.296413,3.801801 1.517857,5.580357 C 27.233369,37.052345 23.694766,37.194766 22.625,36.125 Z m 9.589028,0.167924 c -0.197858,-0.320142 0.121391,-1.591025 0.709445,-2.824185 0.894112,-1.874974 0.946979,-2.58007 0.322857,-4.306048 C 32.835849,28.027525 32.5,26.767158 32.5,26.361876 c 0,-1.12423 1.734142,-0.877586 2.417701,0.343865 0.569931,1.018413 0.677588,1.014881 1.866673,-0.06123 1.915956,-1.733917 2.732424,-0.734279 1.504103,1.841539 -0.892084,1.870719 -0.926589,2.480242 -0.237488,4.195087 0.443434,1.103497 0.955544,2.498546 1.138022,3.100109 0.486555,1.60399 -1.329108,1.381506 -2.550278,-0.3125 L 35.625,34.0625 34.611267,35.46875 c -1.085478,1.505776 -1.819929,1.758281 -2.397239,0.824174 z"
       id="path3612"
       inkscape:connector-curvature="0" />
    <path
       style="fill:#545454"
       d="m 16.375,69.25 c -0.534073,-0.534075 -0.75,-4.402775 -0.75,-13.4375 l 0,-12.6875 -4.5625,0 C 8.3472225,43.125 6.1963471,42.821347 5.75,42.375 4.9014661,41.526466 4.6725274,21.482796 5.4965622,20.186416 5.7790286,19.742037 7.8806731,19.35921 10.643242,19.248916 L 15.3125,19.0625 15.493824,13.158828 C 15.593552,9.9118075 15.979552,6.88837 16.351602,6.4400775 17.295725,5.3024781 67.489987,5.2399889 68.625,6.375 c 0.55635,0.5563531 0.75,6.731096 0.75,23.914934 l 0,23.164933 -8.289629,8.272567 L 52.795742,70 34.960371,70 C 21.921749,70 16.923291,69.798287 16.375,69.25 Z m 34.25,-9.125 c 0,-4.902778 0.251412,-7.626412 0.75,-8.125 0.498588,-0.498588 3.222222,-0.75 8.125,-0.75 l 7.375,0 0,-21.569839 0,-21.5698404 -24.21875,0.16359 L 18.4375,8.4375 18.247871,12.480717 c -0.104295,2.223769 -0.02863,4.684706 0.168158,5.46875 l 0.357786,1.425533 15.546224,0 c 13.599567,0 15.593728,0.123792 15.925593,0.988617 0.208652,0.54374 0.379368,5.571802 0.379368,11.173472 0,7.714365 -0.20172,10.352268 -0.831611,10.875031 -0.543712,0.451241 -6.11528,0.748199 -16.09375,0.857778 L 18.4375,43.4375 18.266278,54.666489 c -0.09417,6.175943 -0.03269,11.590005 0.136634,12.031249 C 18.642374,67.321769 22.255857,67.5 34.667884,67.5 l 15.957116,0 0,-7.375 z m 9.205695,0.357549 C 62.673812,57.654201 65,54.982326 65,54.545049 65,53.957443 63.450794,53.75 59.0625,53.75 l -5.9375,0 0,5.9375 c 0,4.279519 0.21451,5.9375 0.768195,5.9375 0.422507,0 3.094382,-2.314106 5.9375,-5.142451 z M 48.125,31.25 l 0,-9.375 -20.3125,0 -20.3125,0 0,9.375 0,9.375 20.3125,0 20.3125,0 0,-9.375 z M 14.21875,36.194831 C 13.617188,35.847262 13.125,35.154987 13.125,34.656444 c 0,-1.036043 0.986331,-1.213705 1.5625,-0.281444 0.212449,0.34375 0.778698,0.625 1.258329,0.625 0.641697,0 0.920877,-1.114422 1.056865,-4.21875 0.142422,-3.251197 0.399818,-4.21875 1.122306,-4.21875 0.740056,0 0.9375,0.881973 0.9375,4.187759 0,2.303268 -0.28125,4.451345 -0.625,4.773504 -1.077736,1.010044 -3.080639,1.328641 -4.21875,0.671068 z m 9.375,0.02022 C 22.992187,35.85636 22.5,35.154987 22.5,34.656444 c 0,-1.174008 0.573524,-1.146763 1.942654,0.09228 0.606969,0.549299 1.402552,0.81395 1.767963,0.588114 1.232283,-0.761592 0.679636,-2.761117 -0.990575,-3.583986 -0.910227,-0.448445 -2.031507,-1.390898 -2.491733,-2.094341 -0.708908,-1.083547 -0.689365,-1.489444 0.127898,-2.65625 1.109537,-1.584085 4.084857,-1.866318 5.222614,-0.495405 0.931363,1.122223 -0.344022,2.102941 -1.383278,1.063685 -1.068699,-1.068699 -2.320543,-0.82608 -2.320543,0.449743 0,0.636398 1.037619,1.816753 2.335233,2.656467 1.284377,0.831148 2.417506,1.938397 2.518064,2.460552 0.444752,2.309411 -3.400524,4.409806 -5.634547,3.077744 z M 32.5,35.593962 c 0,-0.36082 0.442242,-1.511239 0.982761,-2.556486 0.892253,-1.725429 0.89272,-2.125485 0.0051,-4.343963 -1.044264,-2.609874 -0.299524,-3.390917 1.287027,-1.349763 0.809669,1.041667 0.890635,1.041667 1.700304,0 0.79676,-1.025063 2.274846,-1.512515 2.274846,-0.750212 0,0.188945 -0.448057,1.209983 -0.995682,2.268973 -0.919291,1.777713 -0.911788,2.11148 0.0978,4.350335 1.306409,2.897097 0.683798,3.956848 -1.044479,1.777816 L 35.575759,33.4375 34.586647,34.84375 C 33.544948,36.324764 32.5,36.700454 32.5,35.593962 Z"
       id="path3610"
       inkscape:connector-curvature="0" />
    <path
       style="fill:#2f2f2f"
       d="M 16.25,56.6875 C 16.25,47.652777 16.034072,43.784073 15.5,43.25 15.053653,42.803653 12.902777,42.5 10.1875,42.5 l -4.5625,0 0,-11.25 0,-11.25 4.1035881,0 C 16.104437,20 16.25,19.832103 16.25,12.47801 l 0,-6.22801 26.25,0 26.25,0 0,23.915629 0,23.915628 -7.665275,7.646872 -7.665276,7.646871 -18.584724,0 -18.584725,0 0,-12.6875 z M 50.5,67.375 c 0.498587,-0.498588 0.75,-3.222225 0.75,-8.125 l 0,-7.375 7.375,0 c 4.902775,0 7.626412,-0.251413 8.125,-0.75 1.073806,-1.073804 1.073806,-41.8011962 0,-42.875 C 66.1939,7.6939013 60.066915,7.5 43.051117,7.5 30.429232,7.5 19.657357,7.6707156 19.113617,7.8793681 18.321246,8.1834294 18.125,9.2956563 18.125,13.482378 c 0,4.524802 0.161733,5.310199 1.208912,5.870632 C 20.069142,19.746494 26.313839,20 35.271412,20 L 50,20 l 0,11.25 0,11.25 -14.948883,0 c -8.221885,0 -15.39376,0.170716 -15.9375,0.379368 -0.85426,0.32781 -0.988617,2.019535 -0.988617,12.447916 0,9.070047 0.194106,12.146872 0.78125,12.383791 0.429687,0.173381 7.545312,0.337444 15.8125,0.364581 C 45.633761,68.111469 49.955384,67.919619 50.5,67.375 Z m 9.433963,-6.996188 c 3.339499,-3.353444 5.663556,-6.167643 5.419518,-6.5625 -0.59815,-0.96783 -11.12802,-0.916773 -12.103481,0.05869 -0.796818,0.796818 -1.086934,11.204731 -0.333333,11.958331 0.753356,0.753357 1.115746,0.471675 7.017296,-5.454519 z M 48,40.5 C 49.043276,39.456724 49.043276,23.043276 48,22 46.927559,20.927559 8.6974413,20.927559 7.625,22 c -1.0432762,1.043276 -1.0432762,17.456724 0,18.5 1.0724413,1.072441 39.302559,1.072441 40.375,0 z M 13.340673,35.285545 c -0.538506,-1.403322 0.394488,-2.031677 1.11226,-0.749089 0.759847,1.357772 2.164823,1.4104 2.667699,0.09993 C 17.329284,34.092643 17.5,31.983268 17.5,29.948883 17.5,27.899627 17.778737,26.25 18.125,26.25 c 0.902379,0 0.78974,8.33526 -0.125,9.25 -1.079714,1.079714 -4.218139,0.935262 -4.659327,-0.214455 z m 9.575994,0.547788 C 22.287299,35.203966 22.417349,33.75 23.10301,33.75 c 0.331656,0 0.904051,0.5625 1.27199,1.25 0.517501,0.966959 0.475306,1.25 -0.186344,1.25 -0.470427,0 -1.042823,-0.1875 -1.271989,-0.416667 z m 3.60119,-0.565476 C 27.058036,34.727679 27.5,34.058991 27.5,33.781885 c 0,-0.624149 -1.569967,-1.953344 -3.347907,-2.834466 -1.888929,-0.936126 -2.119127,-3.77849 -0.381337,-4.708527 1.6677,-0.892526 4.354244,-0.291004 4.354244,0.974924 0,0.829322 -0.173586,0.826262 -1.474286,-0.02599 -1.256625,-0.823372 -1.581175,-0.837195 -2.198283,-0.09362 -1.055535,1.271841 -0.31757,2.559768 2.137545,3.730531 1.545166,0.736838 2.160024,1.44211 2.160024,2.477654 0,1.620331 -1.061398,2.947612 -2.357143,2.947612 -0.67316,0 -0.646329,-0.210814 0.125,-0.982143 z m 6.46424,0.630906 c -0.237735,-0.237734 0.0043,-1.276429 0.537857,-2.308212 0.92733,-1.793257 0.910889,-2.5628 -0.130115,-6.090551 -0.447576,-1.516744 -0.424735,-1.530471 0.780004,-0.46875 1.55179,1.367572 2.458509,1.387994 2.965501,0.06679 0.792792,-2.065983 1.079604,-0.248039 0.300701,1.905978 -0.694224,1.919845 -0.655822,2.532719 0.281913,4.499171 1.239115,2.598452 0.855772,3.665591 -0.580274,1.615349 -1.203644,-1.718444 -2.402275,-1.748162 -3.147505,-0.07804 -0.316712,0.709777 -0.770348,1.095994 -1.008082,0.858259 z"
       id="path3608"
       inkscape:connector-curvature="0" />
    <path
       style="fill:#171717"
       d="M 16.547004,68.59375 C 16.388184,68.164062 16.186074,62.1875 16.09787,55.3125 l -0.16037,-12.5 -5,-0.3125 -5,-0.3125 0,-10.9375 0,-10.9375 5,-0.3125 5,-0.3125 0.3125,-6.5625 0.3125,-6.5625 25.9375,0 25.9375,0 0.163994,23.421046 0.164,23.421045 -7.96748,7.985205 -7.967478,7.985204 -17.997384,0 C 21.00592,69.375 16.76886,69.193975 16.547004,68.59375 Z M 51.25,60 l 0.3125,-7.8125 7.8125,-0.3125 7.8125,-0.3125 0,-21.875 0,-21.875 -24.333512,-0.1636963 c -19.051838,-0.128165 -24.442185,0.00749 -24.83418,0.625 -0.86613,1.3644076 -0.614725,10.2443653 0.311803,11.0133163 0.543712,0.451241 6.11528,0.748199 16.09375,0.857778 L 49.6875,20.3125 l 0,10.9375 0,10.9375 -15.595032,0.167444 c -11.519932,0.12369 -15.722851,0.368666 -16.08418,0.9375 -0.574537,0.904485 -0.687114,22.389312 -0.124991,23.854175 0.339943,0.885881 2.230965,0.980025 16.71875,0.832369 L 50.9375,67.8125 51.25,60 Z m 8.919281,0.768886 c 7.294038,-7.327992 7.242231,-7.737286 -0.950531,-7.5095 L 52.8125,53.4375 52.634386,59.84375 c -0.161975,5.825731 -0.07584,6.40625 0.95053,6.40625 0.620755,0 3.583719,-2.4665 6.584365,-5.481114 z M 48.4375,31.25 l 0,-9.6875 -20.625,0 -20.625,0 -0.1741881,9.033759 c -0.095804,4.968568 -0.032837,9.402108 0.1399194,9.852311 0.2518818,0.656393 4.3722997,0.785903 20.7991887,0.653741 L 48.4375,40.9375 l 0,-9.6875 z M 22.8125,35 c -0.212449,-0.34375 -0.08842,-0.625 0.275614,-0.625 0.364037,0 0.661886,0.28125 0.661886,0.625 0,0.34375 -0.124026,0.625 -0.275614,0.625 -0.151589,0 -0.449437,-0.28125 -0.661886,-0.625 z M 37.002294,34.346576 C 36.582707,33.674709 35.876166,33.125 35.432204,33.125 34.926352,33.125 34.625,32.308345 34.625,30.9375 c 0,-1.719052 0.249936,-2.1875 1.167117,-2.1875 0.872725,0 1.069546,0.30742 0.780297,1.218763 -0.212751,0.67032 0.07028,2.102707 0.628968,3.183082 1.135533,2.195878 0.986115,3.092542 -0.199088,1.194731 z M 17.509571,31.09375 C 17.504121,28.691536 17.769116,26.875 18.125,26.875 c 0.800821,0 0.800821,6.260819 0,7.5 -0.424301,0.656559 -0.608727,-0.326734 -0.615429,-3.28125 z M 27.5,33.882841 C 27.5,32.967517 26.673767,31.994103 25,30.9375 22.335949,29.255759 22.177761,28.965747 23.125,27.5 c 0.477909,-0.739512 0.60788,-0.598968 0.615429,0.665492 0.0073,1.214862 0.543892,1.857792 2.21633,2.655323 2.442536,1.164764 3.33404,2.638386 2.25123,3.721196 C 27.68067,35.06933 27.5,34.901117 27.5,33.882841 Z"
       id="path3606"
       inkscape:connector-curvature="0" />
  </g>
</svg>
