<?xml version="1.0" encoding="UTF-8" standalone="no"?>
<!-- Created with Inkscape (http://www.inkscape.org/) -->

<svg
   xmlns:dc="http://purl.org/dc/elements/1.1/"
   xmlns:cc="http://creativecommons.org/ns#"
   xmlns:rdf="http://www.w3.org/1999/02/22-rdf-syntax-ns#"
   xmlns:svg="http://www.w3.org/2000/svg"
   xmlns="http://www.w3.org/2000/svg"
   xmlns:xlink="http://www.w3.org/1999/xlink"
   xmlns:sodipodi="http://sodipodi.sourceforge.net/DTD/sodipodi-0.dtd"
   xmlns:inkscape="http://www.inkscape.org/namespaces/inkscape"
   id="svg4215"
   version="1.1"
   inkscape:version="0.91 r13725"
   width="473"
   height="123"
   viewBox="0 0 473 123"
   sodipodi:docname="Less.bmp.svg">
  <metadata
     id="metadata4221">
    <rdf:RDF>
      <cc:Work
         rdf:about="">
        <dc:format>image/svg+xml</dc:format>
        <dc:type
           rdf:resource="http://purl.org/dc/dcmitype/StillImage" />
        <dc:title></dc:title>
      </cc:Work>
    </rdf:RDF>
  </metadata>
  <defs
     id="defs4219" />
  <sodipodi:namedview
     pagecolor="#ffffff"
     bordercolor="#666666"
     borderopacity="1"
     objecttolerance="10"
     gridtolerance="10"
     guidetolerance="10"
     inkscape:pageopacity="0"
     inkscape:pageshadow="2"
     inkscape:window-width="640"
     inkscape:window-height="480"
     id="namedview4217"
     showgrid="false"
     inkscape:zoom="0.55391121"
     inkscape:cx="236.5"
     inkscape:cy="61.5"
     inkscape:window-x="0"
     inkscape:window-y="0"
     inkscape:window-maximized="0"
     inkscape:current-layer="svg4215" />
  <image
     width="473"
     height="123"
     preserveAspectRatio="none"
     style="image-rendering:optimizeQuality"
     xlink:href="file:///media/havoc/USB%20DISK/pics/_OpsDeps/Less.bmp"
     id="image4223"
     x="0"
     y="0"
     sodipodi:absref="/media/havoc/USB DISK/pics/_OpsDeps/Less.bmp" />
  <g
     id="g4836">
    <path
       style="fill:#fbfcfc"
       d="M 0,61.5 0,0 236.5,0 473,0 473,61.5 473,123 236.5,123 0,123 0,61.5 Z"
       id="path4852"
       inkscape:connector-curvature="0" />
    <path
       style="fill:#a6b3c4"
       d="m 114.76257,94.434612 c -4.435,-2.406408 -5.56865,-5.841138 -5.00522,-15.164925 C 110.36222,69.260005 112,69.308805 112,79.336511 c 0,8.278294 1.40217,11.097926 6.59857,13.269122 4.15364,1.735502 4.40143,1.732115 4.40143,-0.06018 0,-0.8 -1.125,-2.579546 -2.5,-3.954546 C 118.28401,86.374922 118,85.250658 118,78.694678 118,71.605354 116.59677,65 115.09074,65 c -0.39249,0 -1.76964,-0.98383 -3.06032,-2.18629 l -2.34671,-2.18629 3.09572,-2.584422 C 116.85981,54.636545 118,51.322534 118,42.869159 c 0,-8.005815 1.00972,-10.528643 4.8108,-12.020009 L 125.5,29.794034 123.16742,28.898692 C 119.922,27.652968 116.32776,28.767866 113.98418,31.747236 112.4132,33.744419 112,35.803483 112,41.634859 112,45.685686 111.60918,49 111.13151,49 c -0.47767,0 -1.10816,-3.4875 -1.40108,-7.75 -0.60232,-8.764853 0.29974,-11.078141 5.5739,-14.294003 3.68252,-2.245372 11.87566,-2.648972 13.52133,-0.666069 0.67595,0.814476 1.18182,10.195743 1.37244,25.45188 0.20825,16.666715 0.66268,24.522153 1.46494,25.323107 0.63966,0.638635 3.21918,1.392912 5.73224,1.676171 5.80444,0.654245 7.34966,-1.72442 3.30553,-5.088427 L 138.11293,71.5 137.80647,48.820649 137.5,26.141298 189,25.807957 c 55.75348,-0.360872 54.99969,-0.425878 58.92116,5.081325 1.65763,2.327922 2.07884,4.42824 2.07884,10.365865 0,9.221284 1.20652,12.844916 5.02854,15.102641 4.02252,2.376162 4.03289,6.126056 0.0233,8.427246 C 250.89174,67.172602 250,69.852868 250,79.96913 l 0,8.875024 -4.18,3.577923 L 241.64,96 179.57,95.959962 c -52.95182,-0.03416 -62.47213,-0.258232 -64.80743,-1.52535 z m 125.69177,-1.851086 c 5.30862,-2.218082 6.64263,-5.21448 7.41062,-16.645406 0.63949,-9.518216 0.84584,-10.252022 3.40787,-12.11833 3.42495,-2.494902 3.40942,-3.29139 -0.1333,-6.834104 -2.65106,-2.65106 -2.89693,-3.557563 -3.35854,-12.382712 -0.55634,-10.636154 -1.81817,-13.547308 -6.75916,-15.593933 -4.51188,-1.868879 -5.95097,-0.02909 -2.5991,3.322777 2.34604,2.34604 2.57727,3.305008 2.57727,10.688469 0,8.927364 0.81122,11.230558 5.29838,15.043014 3.24677,2.758583 3.3086,2.568068 -2.19582,6.765647 -2.16953,1.654446 -2.45527,2.804021 -3.00581,12.092705 -0.53496,9.025874 -0.87917,10.483742 -2.85256,12.081696 -1.2343,0.99948 -2.24419,2.532605 -2.24419,3.406944 0,1.940706 0.20509,1.948682 4.45434,0.173233 z M 169.82276,77.850075 c 1.46253,-0.53892 2.19778,-1.502933 1.98529,-2.602989 -0.28532,-1.477016 -1.26635,-1.696233 -6.34632,-1.41812 -5.00193,0.273841 -6.31282,-0.0069 -7.82293,-1.675596 -0.99776,-1.102509 -1.65719,-2.825544 -1.46539,-3.828966 0.29805,-1.559361 1.53767,-1.86647 8.53282,-2.11396 9.14277,-0.323475 10.09107,-1.146952 8.86247,-7.695936 -0.84053,-4.480406 -3.63196,-7.788351 -8.37841,-9.9287 -3.84819,-1.735291 -4.08055,-1.727938 -8.60223,0.272214 -3.68126,1.628394 -5.05221,2.94804 -6.59567,6.348829 -2.47686,5.457393 -2.48419,12.112919 -0.0193,17.543149 1.06103,2.3375 2.06365,4.256775 2.22804,4.265056 0.16439,0.0083 2.08958,0.638244 4.27821,1.399917 3.89078,1.354048 8.68679,1.151008 13.34344,-0.564898 z M 156.31672,60.382988 c -0.34127,-0.889357 -0.20381,-2.801857 0.30547,-4.25 0.75744,-2.153776 1.55162,-2.632988 4.36355,-2.632988 2.65882,0 3.7673,0.587458 4.89308,2.593177 C 168.16925,60.173851 166.81549,62 161.5,62 c -3.28005,0 -4.73721,-0.454587 -5.18328,-1.617012 z m 39.94274,18.56182 c 4.39074,-1.219353 7.07868,-4.756595 6.95374,-9.150894 C 203.10428,65.962871 201.39957,64.197517 194.72138,61 190.48524,58.971734 189.5,58.028266 189.5,56 c 0,-2.410931 0.2125,-2.492446 5.96446,-2.287986 5.92786,0.210712 7.85612,-0.71301 6.86734,-3.289745 -0.84225,-2.194857 -9.74359,-3.771499 -13.77723,-2.440279 -6.20626,2.048251 -9.19351,8.087109 -6.49484,13.129617 0.58285,1.089068 3.62035,3.204932 6.75,4.70192 4.59806,2.199362 5.75036,3.239557 6.00333,5.419256 0.2562,2.207611 -0.17171,2.81913 -2.35643,3.367457 -1.46821,0.368499 -4.27084,0.178526 -6.22806,-0.422161 C 182.17487,72.933962 181,73.334292 181,75.959678 c 0,3.11863 8.67082,4.814859 15.25946,2.98513 z m 33.88438,-2.874119 c 1.87048,-2.309936 2.26412,-3.90044 1.87374,-7.570689 -0.31973,-3.006032 -1.92095,-4.488133 -7.99468,-7.399972 -4.49736,-2.156098 -5.5229,-3.107549 -5.5229,-5.123893 0,-2.385667 0.22558,-2.469984 6.17434,-2.307777 7.16764,0.195442 8.97318,-1.542753 4.58749,-4.416369 -6.12639,-4.014168 -16.46252,-1.195872 -18.70487,5.100159 -1.6614,4.664836 0.28827,7.812113 6.94448,11.210229 4.78185,2.441222 6.06206,3.600443 6.31162,5.715121 0.25484,2.159499 -0.1833,2.777323 -2.35643,3.322742 -1.46821,0.368499 -4.27084,0.178526 -6.22806,-0.422161 C 211.17487,72.933962 210,73.334292 210,75.959678 c 0,4.313299 16.66666,4.405148 20.14384,0.111011 z"
       id="path4850"
       inkscape:connector-curvature="0" />
    <path
       style="fill:#9da6b3"
       d="M 125.25,95.337719 C 124.5625,95.060307 124,93.761666 124,92.45185 c 0,-1.324914 -0.85179,-2.837346 -1.91991,-3.408989 -2.7295,-1.460784 -4.42093,-7.451532 -3.80066,-13.461319 0.60864,-5.897151 -1.05095,-10.853711 -4.19805,-12.537989 -2.62522,-1.404975 -2.67191,-3.657145 -0.1043,-5.031288 3.28225,-1.756608 4.42345,-5.074426 4.98626,-14.49666 0.52555,-8.798402 0.60314,-9.026122 3.74814,-11 3.63152,-2.27923 4.09282,-3.924305 1.53852,-5.486543 -1.45975,-0.892798 -1.25243,-1.025432 1.25,-0.79969 L 128.5,26.5 129,51 c 0.275,13.475 0.88121,25.090257 1.34714,25.811683 1.33774,2.071307 5.19796,3.136395 9.08259,2.506007 C 142.51837,78.816473 143,78.367001 143,75.985789 c 0,-1.877725 -0.61305,-2.912843 -1.92894,-3.256957 -1.82033,-0.476024 -1.94703,-1.76369 -2.25,-22.866631 -0.17658,-12.299211 -0.31583,-22.442434 -0.30943,-22.540496 0.006,-0.09806 21.92444,-0.323062 48.70678,-0.5 48.48702,-0.32033 48.69297,-0.313043 48.18605,1.704828 -0.33545,1.335286 0.36149,2.844411 2.04322,4.424314 2.32701,2.186111 2.55265,3.11068 2.55606,10.473467 0.004,8.354898 1.99875,13.871939 5.50198,15.216256 2.32152,0.890848 1.77609,2.774965 -1.50572,5.201309 -2.85036,2.10736 -3.00028,2.578141 -3.00558,9.438058 -0.007,8.796073 -1.43088,14.348096 -4.03817,15.74348 C 235.86373,89.608115 235,91.111402 235,92.428195 c 0,1.296805 -0.7118,2.630972 -1.58179,2.964816 -1.88982,0.725192 -106.36632,0.671787 -108.16821,-0.05529 z M 169.85078,78.902175 C 171.84693,78.206314 173,77.129485 173,75.961192 c 0,-2.740121 -1.87627,-3.452742 -8.1681,-3.102304 -4.84961,0.27011 -5.82433,0.02378 -6.75,-1.705854 C 156.06974,67.393273 156.72688,67 165.02144,67 c 7.51823,0 8.09071,-0.15203 9.12565,-2.423474 2.62797,-5.767775 -1.72375,-14.485629 -8.52798,-17.084187 -4.48519,-1.712911 -4.61781,-1.70384 -9.28268,0.634962 -6.49323,3.255473 -8.4492,6.293615 -9.0149,14.002492 -0.38868,5.296572 -0.076,7.128064 1.8555,10.866806 1.27764,2.473129 3.44797,5.053995 4.82297,5.735258 3.10896,1.540376 11.65714,1.632227 15.85078,0.170318 z M 157,59.434259 c 0,-4.943489 5.82288,-7.502251 7.96482,-3.5 C 167.07028,59.868345 166.29626,61 161.5,61 158.08269,61 157,60.623285 157,59.434259 Z m 42.88313,18.935048 c 3.19201,-2.235774 5.34796,-7.641216 4.2164,-10.571475 -1.28935,-3.338904 -5.11649,-6.562966 -9.64394,-8.124267 -2.83957,-0.979234 -4.05089,-2.011272 -4.29337,-3.657928 -0.32944,-2.237245 -0.18903,-2.277003 5.69177,-1.611666 5.47902,0.61988 6.1325,0.489787 7.15717,-1.424825 1.53124,-2.861144 0.0897,-4.411012 -5.57904,-5.99815 -5.84768,-1.63725 -11.28625,-0.131496 -14.85842,4.113791 -4.92128,5.848609 -2.19187,12.535648 6.50441,15.935753 3.49922,1.368138 4.42189,2.223471 4.42189,4.099174 0,2.065975 -0.44935,2.354282 -3.5,2.245631 -1.925,-0.06856 -4.85,-0.29356 -6.5,-0.5 -2.64163,-0.330508 -3.03788,-0.04596 -3.31714,2.382044 -0.40674,3.536534 2.0435,4.59376 10.84463,4.679225 4.50045,0.0437 7.25048,-0.44301 8.85564,-1.567307 z m 29,0 c 1.28047,-0.89688 2.9687,-3.163773 3.75161,-5.037537 1.25479,-3.003147 1.23312,-3.807979 -0.18291,-6.792035 -1.50551,-3.172623 -3.96778,-4.884402 -10.71685,-7.450394 C 219.92336,58.400564 219,57.322313 219,55.895585 c 0,-2.038978 0.31707,-2.118045 5.94177,-1.481683 5.4693,0.618781 6.0365,0.495226 7.13312,-1.55383 1.01741,-1.90105 0.87949,-2.478591 -0.94459,-3.955648 -5.28166,-4.276826 -15.05433,-3.160283 -19.59757,2.239053 -4.91477,5.840862 -2.30366,12.178716 6.59449,16.006596 3.97101,1.708284 4.9133,2.564173 4.67334,4.244823 -0.31042,2.174178 -2.37926,2.471522 -10.30056,1.480449 -2.64163,-0.330508 -3.03788,-0.04596 -3.31714,2.382044 -0.40674,3.536534 2.0435,4.59376 10.84463,4.679225 4.50045,0.0437 7.25048,-0.44301 8.85564,-1.567307 z"
       id="path4848"
       inkscape:connector-curvature="0" />
    <path
       style="fill:#72869f"
       d="m 125,93.148314 c 0,-1.018427 -1.35,-3.264331 -3,-4.990898 -2.82647,-2.957635 -3,-3.606277 -3,-11.214056 0,-8.640524 -0.88053,-11.274946 -4.79868,-14.356965 l -2.48106,-1.951603 2.51151,-2.067396 c 3.80792,-3.134553 4.76694,-5.792206 4.78188,-13.251655 0.0184,-9.160869 0.62075,-10.902478 4.57868,-13.237715 2.42979,-1.43361 3.19679,-2.463997 2.73328,-3.671878 -0.44804,-1.16758 -0.215,-1.536329 0.76504,-1.210531 1.14348,0.38013 1.50368,5.137629 1.90935,25.21863 0.57549,28.487058 0.3768,27.914432 9.5,27.379128 4.4567,-0.261497 5.0378,-0.561343 5.34787,-2.759471 0.24197,-1.715374 -0.43174,-3.087738 -2.21313,-4.508167 l -2.561,-2.04207 L 138.96018,48.991834 138.84662,27.5 186.42331,27.240303 C 232.81637,26.987067 234,27.028529 234,28.906897 c 0,1.059459 1.2375,2.827277 2.75,3.928483 2.61928,1.90702 2.76655,2.459866 3.09814,11.630578 0.34193,9.456727 0.409,9.687495 3.76195,12.943839 l 3.41381,3.315453 -3.22935,2.490397 c -3.17993,2.452277 -3.23751,2.644754 -3.76195,12.574204 -0.49015,9.280076 -0.75179,10.312391 -3.2826,12.951696 -1.5125,1.57734 -2.75,3.630767 -2.75,4.563172 C 234,94.87769 230.06796,95 179.5,95 127.12176,95 125,94.927911 125,93.148314 Z m 44.41004,-13.54628 c 4.16767,-1.741365 4.98073,-3.003349 3.5987,-5.585695 -0.95717,-1.78849 -1.71984,-1.950234 -6.53016,-1.384876 C 160.57899,73.324844 158,72.195291 158,68.917998 c 0,-1.610894 1.01589,-1.872878 8.25,-2.127556 L 174.5,66.5 l 0.27144,-5 c 0.44391,-8.176859 -4.51351,-14.184827 -12.48334,-15.128738 -4.88672,-0.57876 -10.88324,2.819509 -13.434,7.613136 -2.48336,4.666964 -2.46219,15.216836 0.04,19.913461 3.35302,6.293746 12.81117,8.92345 20.51598,5.704175 z M 157.47282,59.956024 C 156.64862,58.622432 159.63676,54 161.32305,54 163.30521,54 165,56.16634 165,58.7 c 0,1.954391 -0.51706,2.3 -3.44098,2.3 -1.89254,0 -3.73133,-0.469789 -4.0862,-1.043976 z m 41.1701,19.409131 c 9.58982,-4.550668 7.15125,-17.139799 -3.8519,-19.88541 -3.62312,-0.904075 -5.5073,-3.16347 -3.9428,-4.727969 0.88462,-0.884614 2.26816,-0.868 5.7727,0.06932 5.32203,1.423425 7.37908,0.44925 7.37908,-3.494569 0,-1.82602 -0.86043,-2.788091 -3.46788,-3.877556 C 190.63257,43.312678 180,48.149026 180,56.788248 c 0,5.018935 1.55498,7.031525 7.73217,10.007618 3.08698,1.487274 5.78745,3.236167 6.00103,3.88643 0.71994,2.191899 -3.08934,3.268473 -7.55459,2.135072 -4.80283,-1.219088 -7.48046,0.128398 -6.97687,3.511031 0.61671,4.142469 13.02621,6.08086 19.44118,3.036756 z m 29,0 c 9.45291,-4.485699 7.12485,-17.500155 -3.54987,-19.844717 -3.80729,-0.836221 -5.86529,-3.148196 -4.24483,-4.768662 0.88462,-0.884614 2.26816,-0.868 5.7727,0.06932 C 230.94295,56.244523 233,55.270348 233,51.326529 233,46.712453 221.33037,44.226438 215.01104,47.494289 210.96356,49.587323 209,52.797405 209,57.321296 c 0,3.025257 0.66458,4.497098 3.02706,6.703982 1.66488,1.555234 4.33379,3.114704 5.9309,3.465489 1.59712,0.350785 3.48045,1.332561 4.1852,2.181724 1.0656,1.283973 0.95578,1.781993 -0.65221,2.957787 -1.06346,0.777619 -2.47702,1.20531 -3.14124,0.950423 -0.66423,-0.254887 -2.77589,-0.757629 -4.6926,-1.117204 -2.86849,-0.538132 -3.67639,-0.295993 -4.56742,1.368922 -0.59539,1.112483 -0.8331,2.672664 -0.52826,3.467068 1.3213,3.443244 13.41868,4.752847 19.08149,2.065668 z"
       id="path4846"
       inkscape:connector-curvature="0" />
    <path
       style="fill:#5b718f"
       d="M 125.67527,94.341934 C 125.30387,93.970537 125,92.97879 125,92.138052 c 0,-0.840738 -1.22227,-2.804394 -2.71617,-4.36368 -2.46285,-2.570666 -2.76595,-3.726354 -3.25,-12.392033 -0.49969,-8.945735 -0.71502,-9.712773 -3.36684,-11.993091 l -2.83302,-2.436125 3.03369,-3.455181 c 3.27715,-3.732459 4.00659,-6.471832 4.38643,-16.472818 0.20834,-5.485719 0.57335,-6.637447 2.38926,-7.539042 1.17884,-0.585291 2.82923,-1.633399 3.66753,-2.329128 1.35652,-1.125811 1.56076,1.259731 1.85665,21.685826 C 128.56271,80.122883 128.51752,80 138.15499,80 L 144,80 l 0,-3.378028 c 0,-2.362551 -0.65589,-3.813519 -2.18183,-4.826709 -2.1366,-1.418652 -2.17914,-1.892752 -2.05213,-22.871972 L 139.89573,27.5 l 46.80214,0 46.80213,0 0.3096,2.174039 c 0.17028,1.195722 1.36371,2.864721 2.65207,3.708887 2.136,1.399561 2.37314,2.371084 2.6904,11.022148 0.33558,9.150545 0.46356,9.606544 3.60562,12.846655 l 3.25769,3.359354 -2.91449,2.792261 c -2.74733,2.632102 -2.93418,3.327893 -3.25769,12.130572 -0.31201,8.489764 -0.58425,9.593999 -2.99596,12.152197 -1.45902,1.547638 -2.81513,3.713887 -3.01358,4.813887 -0.35482,1.966787 -1.25028,2.004294 -53.92197,2.258601 -29.45863,0.142231 -53.86503,-0.04527 -54.23642,-0.416667 z M 170.53212,79.551027 C 172.83345,78.589469 174,77.436143 174,76.122455 c 0,-2.600553 -2.77788,-5.309992 -4.85537,-4.735746 -0.90455,0.250029 -2.67916,0.752621 -3.94359,1.116872 C 162.82421,73.188287 158,70.825681 158,68.976947 158,68.429299 161.24191,68 165.37756,68 c 8.85129,0 10.1564,-1.06245 10.04886,-8.180454 -0.0918,-6.077809 -2.45172,-9.527282 -8.64401,-12.63497 -4.19682,-2.106238 -4.99314,-2.201724 -8.81419,-1.056907 -8.45322,2.532645 -12.66214,9.978996 -11.36803,20.112127 0.87062,6.817095 2.73817,10.38602 6.69836,12.800688 3.87974,2.365619 12.20357,2.612212 17.23357,0.510543 z M 158,59.081787 C 158,56.664975 159.42766,55 161.5,55 c 2.07234,0 3.5,1.664975 3.5,4.081787 C 165,59.586804 163.425,60 161.5,60 159.575,60 158,59.586804 158,59.081787 Z m 44.10409,18.127747 C 204.21101,74.851476 205,72.943573 205,70.20673 c 0,-5.080209 -1.90103,-7.452253 -8.46215,-10.558798 -7.42418,-3.51518 -7.25834,-5.043989 0.4501,-4.14933 5.7969,0.672801 6.01935,0.612398 6.97195,-1.89313 0.5412,-1.423457 0.73491,-3.23722 0.43046,-4.030584 -0.5994,-1.562009 -8.45576,-4.588571 -11.8185,-4.552926 -3.90651,0.04141 -10.40093,3.74682 -12.00554,6.849795 -3.37079,6.518382 -1.05851,11.714105 6.88752,15.476374 C 193.61032,70.263088 194.86608,73 190.04705,73 c -1.62412,0 -4.08579,-0.51616 -5.47038,-1.147022 -3.26709,-1.488583 -5.80219,0.415256 -5.37723,4.038255 0.45044,3.840245 4.08149,5.238458 12.65465,4.872935 6.85349,-0.292203 7.55121,-0.53417 10.25,-3.554634 z m 29,0 C 233.21101,74.851476 234,72.943573 234,70.20673 c 0,-5.129269 -2.21052,-7.882804 -8.59495,-10.706301 -7.36441,-3.256891 -7.12558,-4.896492 0.5829,-4.001827 5.7969,0.672801 6.01935,0.612398 6.97195,-1.89313 1.7449,-4.589438 -0.76065,-6.91035 -8.85792,-8.205155 -5.22185,-0.835007 -12.41063,2.36207 -14.53098,6.462387 -3.37567,6.527829 -1.06737,11.721179 6.88284,15.485427 8.4342,3.993408 6.56587,7.646313 -2.32551,4.546762 -3.95346,-1.378185 -6.36836,0.249569 -5.92889,3.99634 0.45044,3.840245 4.08149,5.238458 12.65465,4.872935 6.85349,-0.292203 7.55121,-0.53417 10.25,-3.554634 z"
       id="path4844"
       inkscape:connector-curvature="0" />
    <path
       style="fill:#345582"
       d="m 126,92.083407 c 0,-1.054127 -1.2375,-2.817482 -2.75,-3.918567 -2.61465,-1.903439 -2.77613,-2.503735 -3.28089,-12.19656 -0.50113,-9.623108 -0.68797,-10.329699 -3.33301,-12.604872 l -2.80213,-2.410285 3.08302,-3.511358 C 119.83479,54.118576 120,53.482707 120,45.575988 c 0,-8.938056 1.37801,-12.137383 5.5,-12.769354 1.93705,-0.296983 2.01574,0.396522 2.5,22.033674 0.49216,21.990045 0.53701,22.370249 2.86078,24.25 2.7096,2.191854 11.00222,2.646689 12.93922,0.709692 2.1881,-2.188095 1.44842,-6.729691 -1.3,-7.981954 L 140,70.67897 140,49.339485 140,28 l 46.5,0 c 41.94367,0 46.5,0.156658 46.5,1.59879 0,0.879335 1.35,2.859879 3,4.40121 2.88264,2.692792 3,3.138178 3,11.385433 0,8.058716 0.1772,8.781337 2.90088,11.829665 l 2.90088,3.24665 -2.90088,3.303922 C 239.16289,66.884075 239,67.571058 239,76.000318 239,84.574689 238.88029,85.053501 236,88 c -1.65,1.687926 -3,3.728441 -3,4.534478 C 233,93.803579 225.82949,94 179.5,94 127.44274,94 126,93.948315 126,92.083407 Z m 43.90259,-11.661109 c 4.50994,-1.804519 5.44076,-3.389022 4.08527,-6.954224 -0.90653,-2.384349 -1.30458,-2.50041 -7.6871,-2.241316 -5.73842,0.232946 -6.78389,0.01516 -7.08924,-1.476758 -0.31536,-1.540823 0.52316,-1.75 7.01516,-1.75 4.40147,0 7.85699,-0.483665 8.57332,-1.2 0.66,-0.66 1.19832,-3.4725 1.19626,-6.25 -0.005,-6.448735 -2.60093,-10.797508 -8.12985,-13.618152 -6.99185,-3.566975 -14.05936,-1.572191 -19.30027,5.447447 -2.99041,4.005324 -3.44268,16.723406 -0.76886,21.620705 3.85564,7.061896 13.50228,9.864551 22.10531,6.422298 z M 158.59105,59.147322 c -0.28984,-0.468973 0.0685,-1.667089 0.79638,-2.66248 C 161.04429,54.218943 164,55.169736 164,57.968615 164,59.455662 163.3459,60 161.55902,60 c -1.34254,0 -2.67813,-0.383705 -2.96797,-0.852678 z m 39.09385,21.786066 c 7.07651,-2.681216 10.06225,-9.533659 6.79636,-15.598038 -1.20603,-2.239469 -3.56601,-4.208227 -7.14129,-5.957445 -5.61772,-2.748497 -7.22096,-5.066819 -2.72331,-3.93798 7.38766,1.854184 8.17286,1.821869 9.35392,-0.384952 2.87587,-5.373617 -2.15718,-10.050324 -10.81945,-10.053419 -8.63297,-0.0031 -14.42386,4.904738 -14.42386,12.224328 0,4.813403 3.52335,8.834309 9.86251,11.255255 7.26853,2.775879 5.37998,4.818284 -2.93508,3.17419 -4.33828,-0.857783 -5.11203,-0.750379 -6.30019,0.874526 -1.69359,2.316121 -1.73743,4.922546 -0.10451,6.21343 3.77805,2.986688 13.33566,4.122153 18.4349,2.190105 z m 29.59722,-0.295372 c 4.32044,-1.828647 6.68739,-4.675283 7.36635,-8.8592 0.88872,-5.476548 -1.79629,-9.512001 -8.21866,-12.352276 C 223.44342,58.105814 221,56.569545 221,56.01261 c 0,-1.265672 0.12151,-1.262613 5.70633,0.143661 4.10089,1.032617 4.73643,0.958706 5.94282,-0.69113 3.44361,-4.709426 0.1542,-9.145317 -7.54771,-10.178361 -6.01619,-0.80694 -10.40661,0.405096 -13.92388,3.84388 C 208.49995,51.748522 208,52.975896 208,56.931566 c 0,5.517185 2.79373,8.840997 9.75,11.599972 7.06277,2.801214 5.13136,4.750403 -3.0953,3.123789 -4.33828,-0.857783 -5.11203,-0.750379 -6.30019,0.874526 -1.69359,2.316121 -1.73743,4.922546 -0.10451,6.21343 4.00878,3.169091 13.73382,4.137263 19.03212,1.894733 z"
       id="path4842"
       inkscape:connector-curvature="0" />
    <path
       style="fill:#284979"
       d="m 126,91.787565 c 0,-1.21684 -1.22345,-3.187982 -2.71878,-4.380317 -2.55349,-2.036077 -2.75108,-2.7784 -3.25,-12.209623 -0.45815,-8.660451 -0.8453,-10.375706 -2.81453,-12.469593 -2.06697,-2.197816 -2.13179,-2.553606 -0.68406,-3.755109 C 119.74777,56.304588 121,52.177583 121,44.24966 121,36.147256 121.87988,34 125.2,34 c 1.66914,0 1.80041,1.363177 1.80558,18.75 0.008,26.628344 0.84375,28.620144 11.77047,28.049127 L 144.5,80.5 l 0.30794,-4.259149 c 0.24371,-3.37059 -0.0692,-4.398491 -1.5,-4.927059 C 142.31358,70.946442 141.275,70.320205 141,69.922154 140.725,69.524103 140.63057,60.153779 140.79015,49.099213 L 141.0803,29 186.54015,29 C 222.75985,29 232,29.259627 232,30.277316 c 0,0.702523 1.35,2.46192 3,3.90977 2.89443,2.539822 3,2.933507 3,11.187888 0,8.013776 0.18353,8.764467 2.8989,11.857102 l 2.89891,3.301669 -2.39891,2.788891 C 239.25522,65.814817 239,67.059403 239,75.020967 c 0,8.47342 -0.14682,9.076656 -3,12.326252 -1.65,1.879246 -3,4.144904 -3,5.034796 C 233,93.8525 228.12279,94 179.5,94 l -53.5,0 0,-2.212435 z m 45,-11.539119 c 3.9199,-1.95821 5.0146,-5.478633 2.69153,-8.655621 -1.25919,-1.722051 -1.84307,-1.792096 -6.06879,-0.728047 -3.68792,0.928627 -5.14527,0.908828 -6.89915,-0.09373 -1.96381,-1.122551 -1.31762,-1.305181 5.53097,-1.563195 6.98489,-0.26315 7.91547,-0.537713 9.37567,-2.766264 2.12006,-3.235616 1.38953,-11.591817 -1.33461,-15.266082 -2.63499,-3.554019 -9.06097,-7.138629 -12.83373,-7.159058 -5.34409,-0.02894 -11.69768,3.969536 -14.27491,8.98355 -4.5696,8.890223 -1.55643,23.167356 5.69864,27.001493 4.68402,2.475397 13.41525,2.59443 18.11438,0.246953 z M 159.63837,57.5 c 0.31659,-0.825 1.15432,-1.5 1.86163,-1.5 0.70731,0 1.54504,0.675 1.86163,1.5 0.41462,1.080479 -0.10605,1.5 -1.86163,1.5 -1.75558,0 -2.27625,-0.419521 -1.86163,-1.5 z m 40.00455,22.865155 C 203.57715,78.49824 206,74.530262 206,69.953952 c 0,-5.014165 -2.7918,-8.569988 -8.92839,-11.371804 -5.93735,-2.710848 -5.38244,-3.354774 1.19324,-1.384651 3.70759,1.11082 4.13218,1.030419 5.86602,-1.110784 C 205.15889,54.817158 206,52.456283 206,50.840324 206,48.353004 205.34793,47.606231 201.75,45.97307 190.28986,40.771122 178,46.248553 178,56.558133 c 0,5.439715 3.33358,9.640039 9.52844,12.005878 7.46005,2.84902 5.23218,4.64298 -2.78356,2.241408 -3.55961,-1.066486 -4.135,-0.992377 -5.36602,0.69113 C 178.62049,72.53369 178,74.667974 178,76.239404 c 0,2.267017 0.67127,3.148905 3.25,4.269728 4.46518,1.94075 14.15961,1.864863 18.39292,-0.143977 z m 27.83029,0.645031 c 4.55951,-1.733523 7.52721,-5.838576 7.52305,-10.406209 -0.006,-6.2108 -2.86974,-10.069072 -8.98138,-12.099034 -6.32838,-2.101952 -5.84901,-3.204213 0.67867,-1.560523 4.45294,1.121264 4.88775,1.055932 6.53831,-0.982424 0.97248,-1.20096 1.76814,-3.431957 1.76814,-4.95777 0,-3.759469 -3.78379,-6.083599 -10.96442,-6.734716 -9.94915,-0.902157 -17.02325,4.457361 -17.03184,12.903765 -0.005,4.783079 3.64161,9.143966 9.5247,11.390736 7.46005,2.84902 5.23218,4.64298 -2.78356,2.241408 -3.55961,-1.066486 -4.135,-0.992377 -5.36602,0.69113 C 207.62049,72.53369 207,74.667974 207,76.239404 c 0,2.267017 0.67127,3.148905 3.25,4.269728 3.78979,1.647201 13.46806,1.928759 17.22321,0.501054 z"
       id="path4840"
       inkscape:connector-curvature="0" />
    <path
       style="fill:#193255"
       d="M 126.67542,93.342085 C 126.30394,92.970605 126,92.005768 126,91.198004 c 0,-0.807764 -1.125,-2.511277 -2.5,-3.785584 -2.29356,-2.125596 -2.5,-3.02765 -2.5,-10.923688 0,-8.993569 0.15391,-9.199323 4.25,-5.68164 0.9625,0.826586 1.75,2.367754 1.75,3.424819 0,1.057064 1.31538,3.23732 2.92308,4.845012 2.50592,2.505924 3.69042,2.923077 8.3,2.923077 6.1425,0 7.76587,-1.133763 7.80353,-5.45 l 0.0266,-3.05 1.70157,2.744338 c 3.7913,6.114702 15.74309,8.256724 23.74521,4.255662 3.33121,-1.665603 4.00064,-2.501596 4.00383,-5 0.004,-3.225222 1.05206,-5.5 2.53375,-5.5 0.5083,0 0.42515,1.085078 -0.18593,2.426258 -1.95398,4.288498 -0.38897,7.202654 4.82152,8.978048 C 185.24888,82.281938 189.15904,83 191.36241,83 c 4.36087,0 12.48145,-3.429538 13.32487,-5.627441 0.39052,-1.017694 0.9965,-0.772986 2.35147,0.949575 C 209.12648,80.976249 214.97188,83 220.5503,83 228.13916,83 236,76.973101 236,71.154725 c 0,-1.12018 0.45,-2.314806 1,-2.654725 0.63708,-0.393737 1,2.505532 1,7.988732 0,7.779325 -0.22872,8.818732 -2.37902,10.811569 -1.30846,1.212641 -2.55207,3.103654 -2.76357,4.202251 -0.37781,1.962439 -1.30579,2.001983 -52.94556,2.256199 -28.90856,0.142313 -52.86495,-0.04519 -53.23643,-0.416666 z M 187.8125,70.316886 c 0.72187,-0.288871 1.58437,-0.253344 1.91667,0.07895 0.33229,0.332292 -0.25834,0.568641 -1.3125,0.52522 -1.16495,-0.04798 -1.4019,-0.284941 -0.60417,-0.604167 z"
       id="path4838"
       inkscape:connector-curvature="0" />
  </g>
</svg>
