<?xml version="1.0" encoding="UTF-8" standalone="no"?>
<!-- Created with Inkscape (http://www.inkscape.org/) -->

<svg
   xmlns:dc="http://purl.org/dc/elements/1.1/"
   xmlns:cc="http://creativecommons.org/ns#"
   xmlns:rdf="http://www.w3.org/1999/02/22-rdf-syntax-ns#"
   xmlns:svg="http://www.w3.org/2000/svg"
   xmlns="http://www.w3.org/2000/svg"
   xmlns:xlink="http://www.w3.org/1999/xlink"
   xmlns:sodipodi="http://sodipodi.sourceforge.net/DTD/sodipodi-0.dtd"
   xmlns:inkscape="http://www.inkscape.org/namespaces/inkscape"
   id="svg4225"
   version="1.1"
   inkscape:version="0.91 r13725"
   width="133"
   height="123"
   viewBox="0 0 133 123"
   sodipodi:docname="NET.bmp.svg">
  <metadata
     id="metadata4231">
    <rdf:RDF>
      <cc:Work
         rdf:about="">
        <dc:format>image/svg+xml</dc:format>
        <dc:type
           rdf:resource="http://purl.org/dc/dcmitype/StillImage" />
        <dc:title></dc:title>
      </cc:Work>
    </rdf:RDF>
  </metadata>
  <defs
     id="defs4229" />
  <sodipodi:namedview
     pagecolor="#ffffff"
     bordercolor="#666666"
     borderopacity="1"
     objecttolerance="10"
     gridtolerance="10"
     guidetolerance="10"
     inkscape:pageopacity="0"
     inkscape:pageshadow="2"
     inkscape:window-width="640"
     inkscape:window-height="480"
     id="namedview4227"
     showgrid="false"
     inkscape:zoom="1.9186992"
     inkscape:cx="66.5"
     inkscape:cy="61.5"
     inkscape:window-x="0"
     inkscape:window-y="0"
     inkscape:window-maximized="0"
     inkscape:current-layer="svg4225" />
  <image
     width="133"
     height="123"
     preserveAspectRatio="none"
     style="image-rendering:optimizeQuality"
     xlink:href="file:///media/havoc/USB%20DISK/pics/_OpsDeps/NET.bmp"
     id="image4233"
     x="0"
     y="0"
     sodipodi:absref="/media/havoc/USB DISK/pics/_OpsDeps/NET.bmp" />
  <g
     id="g4799">
    <path
       style="fill:#f5f6f7"
       d="M 0,61.5 0,0 66.5,0 133,0 133,61.5 133,123 66.5,123 0,123 0,61.5 Z"
       id="path4815"
       inkscape:connector-curvature="0" />
    <path
       style="fill:#a4d0e3"
       d="M 1.25,119.33772 C -1.5415458,118.21131 1.118521,112 4.3924668,112 c 2.1251049,0 3.6689769,3.93174 2.4541832,6.25 -0.8906592,1.6997 -3.0432162,2.11805 -5.59665,1.08772 z m 12.251167,-1.52466 C 13.188443,116.54088 13.060248,106.725 13.216289,96 L 13.5,76.5 17.604814,76.199596 c 4.100791,-0.300109 4.109122,-0.293423 8.5,6.820903 2.417352,3.916718 5.070186,8.187625 5.895186,9.490904 0.825,1.303279 3.075,4.862172 5,7.908647 1.925,3.04648 3.82547,5.54826 4.223267,5.5595 0.397797,0.0112 0.847797,-6.61705 1,-14.72955 L 42.5,76.5 l 3,0 3,0 0,21.5 0,21.5 -3.68737,0.30663 C 40.804799,120.13991 41.814182,121.40445 23.41492,93 L 20.5,88.5 20,104 l -0.5,15.5 -2.715122,0.31306 c -2.13927,0.24666 -2.835714,-0.17752 -3.283711,-2 z m 42.958274,0.94184 C 56.183191,118.035 56.079306,108.23315 56.228584,96.973 L 56.5,76.5 l 11.5,0 11.5,0 0,3 0,3 -7.75,0.292064 -7.75,0.292065 0,5.412245 0,5.412246 6.75,0.29569 6.75,0.29569 0,3 0,3 -6.796504,0.29675 -6.796504,0.29675 0.296504,6.20325 L 64.5,113.5 l 8,0.5 c 7.733333,0.48333 8,0.58333 8,3 l 0,2.5 -11.769143,0.2819 c -8.980558,0.21511 -11.888152,-0.0282 -12.271416,-1.027 z m 39.575743,-0.68916 C 95.441107,116.9557 95,109.07258 95,99.565741 L 95,83 90.035184,83 c -5.26097,0 -7.712586,-2.071144 -6.424609,-5.427558 0.903142,-2.353551 29.875705,-2.353551 30.778855,0 C 115.6774,80.928856 113.22579,83 107.96482,83 L 103,83 l 0,16.918213 c 0,9.305017 -0.27314,17.630017 -0.60699,18.499997 -0.85022,2.21564 -5.109801,1.97949 -6.357826,-0.35247 z M 28.25,72.269359 c -0.6875,-0.239814 -1.260006,-1.411026 -1.272236,-2.602692 -0.02194,-2.137945 -0.04676,-2.134771 -1.872041,0.239424 -2.308001,3.002078 -4.844071,2.247362 -6.412685,-1.908369 C 17.243629,64.157798 16,64.15885 16,68 c 0,1.65 -0.45,3 -1,3 -1.187582,0 -1.120255,0.467688 -1.331518,-9.24934 L 13.5,54.001319 9.5,53.985347 C 2.7342481,53.95833 2.2425624,53.102844 4.8029662,45.812954 6.0224689,42.340829 7.0186542,38.6 7.0167111,37.5 7.0147681,36.4 7.9072481,34.15 9,32.5 c 1.092752,-1.65 1.989787,-3.513968 1.993411,-4.142151 0.01193,-2.06804 8.854116,-16.783436 12.323417,-20.5089534 5.922202,-6.3595705 8.474178,-7.13393425 24.180434,-7.33723672 7.701506,-0.0996886 15.736064,0.27936567 17.854574,0.84234282 2.118509,0.5629773 5.987648,2.9438747 8.598087,5.2908833 3.993853,3.590817 5.32517,5.798404 8.398164,13.925811 C 84.356639,25.882883 86,31.265839 86,32.532821 86,35.45796 86.963314,38 88.071805,38 89.61846,38 91.273347,33.706818 93.070108,25.033182 95.855128,11.58884 96.635114,9.1671719 99.309777,5.6605075 102.48937,1.4918449 107.37491,0 117.84697,0 c 7.88162,0 8.13348,0.07391521 8.76018,2.5709084 1.80956,7.209832 -4.97171,23.4577996 -15.63878,37.4706406 -8.67831,11.400297 -8.66899,11.396215 -26.933531,11.802275 C 65.553078,52.254713 61.989707,51.466643 58.53914,46.205234 56.150575,42.56316 51,28.218935 51,25.208915 51,22.353188 47.507738,13.014528 46.437091,13.007238 43.351177,12.986224 36,26.332184 36,31.955631 c 0,2.98761 -4.188861,12.385568 -6.784667,15.221801 -1.347756,1.472587 -4.649259,3.623327 -7.336674,4.779422 -4.662881,2.005917 -4.822915,2.203483 -3.501401,4.322568 0.761644,1.221318 1.679939,3.490046 2.040656,5.041617 0.86433,3.717789 2.065082,3.13902 4.815381,-2.321039 1.550308,-3.077765 2.898809,-4.5 4.266705,-4.5 1.823291,0 2.025372,0.762388 2.287164,8.62875 0.289634,8.702928 -0.314716,10.264665 -3.537164,9.140609 z M 40.249684,71.325366 C 38.566135,70.15099 37.661447,70.036085 36.657674,70.869142 34.689659,72.502449 34,71.23892 34,66 c 0,-5.239146 0.689657,-6.502452 2.657991,-4.868879 0.93939,0.779624 1.720588,0.799576 2.603888,0.0665 1.90795,-1.583458 6.962136,-1.886458 7.466563,-0.447623 0.241023,0.6875 -0.258443,1.25 -1.109925,1.25 -1.950704,0 -3.806032,3.347769 -3.007942,5.427558 C 42.942446,68.292401 44.215833,69 45.440322,69 c 2.73833,0 3.587208,0.764684 2.883788,2.597766 -0.710632,1.851877 -5.248599,1.698784 -8.074426,-0.2724 z M 58.188561,70.961045 C 56.888954,69.750276 56,67.719368 56,65.961045 c 0,-4.326152 -1.751359,-3.616847 -2.691151,1.089924 -1.144566,5.732347 -2.755269,4.953688 -3.107645,-1.502323 l -0.298795,-5.474356 5.298795,-0.111939 c 5.979516,-0.12632 9.336739,-0.08871 14.048796,0.157386 1.7875,0.09336 3.925,-0.0079 4.75,-0.225 1.033203,-0.271896 1.431285,0.274893 1.279192,1.757046 -0.121444,1.18348 0.435731,2.696661 1.238167,3.362624 1.500256,1.245101 1.482315,1.265988 2.896693,-3.372217 0.647958,-2.124863 6.454349,-2.854324 9.726521,-1.221949 C 91.752337,61.72316 92,61.691804 92,60.058214 92,57.713568 95.742402,53 97.603965,53 c 1.854279,0 3.052745,2.976097 1.567991,3.893725 C 98.556243,57.274257 97.751051,60.828841 97.38264,64.7928 96.830468,70.733948 96.405491,72 94.963389,72 c -0.962176,0 -2.0343,-0.742408 -2.382498,-1.649797 -0.562971,-1.46708 -0.886523,-1.411705 -2.92144,0.5 -2.692188,2.52918 -4.717511,2.688254 -8.608523,0.676133 -2.510478,-1.298219 -2.995359,-1.298219 -4.072785,0 C 76.305475,72.336851 74.671088,73 73.34617,73 70.577166,73 69.033511,70.215357 71.095924,68.940716 72.200828,68.257847 72.230495,67.830495 71.241641,66.841641 70.252786,65.852786 70,65.853563 70,66.845455 70,68.954107 65.223467,73 62.734016,73 61.437725,73 59.39227,72.08247 58.188561,70.961045 Z m 6.758388,-3.397123 c 0.899427,-1.083743 0.912858,-1.957359 0.05474,-3.560765 -1.941139,-3.627051 -5.159904,-0.463799 -3.617648,3.555256 0.704151,1.834989 2.042856,1.837059 3.562907,0.0055 z m 22.874143,-0.873445 c 0.514503,-2.671599 -1.736747,-5.005366 -3.453771,-3.580363 -1.45875,1.210654 -1.824685,4.099189 -0.666085,5.257789 1.217753,1.217752 3.761776,0.181937 4.119856,-1.677426 z m 13.527138,5.063961 C 100.04743,69.649685 99.220099,60.629858 100.10957,58.25 100.57208,57.0125 101.62806,56 102.4562,56 c 1.69117,0 2.17415,1.751481 2.96432,10.75 0.4999,5.692899 0.37717,6.25 -1.37684,6.25 -1.0591,0 -2.27206,-0.560503 -2.69545,-1.245562 z M 34.5,57 C 33.770798,55.820126 34.716667,54 36.059017,54 36.576558,54 37,54.9 37,56 c 0,2.109085 -1.454882,2.691037 -2.5,1 z"
       id="path4813"
       inkscape:connector-curvature="0" />
    <path
       style="fill:#a3a2a3"
       d="m 1.25,119.33772 c -1.8837346,-0.7601 -1.50186562,-3.79981 0.7312424,-5.82074 1.6213719,-1.46733 2.2571077,-1.56406 3.5,-0.53255 3.7351287,3.09988 0.3399503,8.19781 -4.2312424,6.35329 z M 14.447199,118.723 c -0.269517,-0.70235 -0.367893,-10.48985 -0.218615,-21.75 L 14.5,76.5 17.66993,76.192613 c 3.455799,-0.335107 2.207799,-1.934722 17.960846,23.021192 2.678073,4.242595 5.194694,7.730095 5.592491,7.750005 0.397797,0.0199 0.847797,-6.55296 1,-14.606368 0.234017,-12.382364 0.53392,-14.804549 1.94291,-15.692011 1.208034,-0.760888 2.101677,-0.688021 3.25,0.265002 2.255509,1.871906 2.382036,40.162217 0.138865,42.023887 -3.51939,2.92083 -5.840267,0.87281 -15.246771,-13.45432 -5.05545,-7.7 -9.872908,-14.9 -10.705462,-16 -1.373732,-1.815025 -1.517853,-0.608065 -1.558271,13.05 -0.04462,15.07694 -0.558112,17.45 -3.775923,17.45 -0.732261,0 -1.551899,-0.57465 -1.821416,-1.277 z M 57.2,118.8 c -1.694677,-1.69468 -1.694677,-39.905323 0,-41.6 1.862307,-1.862307 20.206154,-1.620467 21.789431,0.287265 C 81.574602,80.602206 79.457314,82 72.15383,82 c -8.170066,0 -9.409861,0.992409 -8.964939,7.176095 L 63.5,93.5 l 6,0.503933 c 6.886702,0.578407 8.5,1.344445 8.5,4.036032 0,2.157285 -1.915795,2.802355 -9.5,3.198725 l -5,0.26131 0,6 0,6 7.661138,0.29046 C 79.502044,114.1067 82.375475,115.63773 80,118.5 c -1.59735,1.92469 -20.921052,2.17895 -22.8,0.3 z m 40.05,0.54923 C 96.315778,118.96366 96,114.312 96,100.93572 96,80.824161 96.674027,82.438942 88,81.769943 85.250674,81.557897 84.432457,81.025005 84.185081,79.285346 83.754613,76.2581 85.918403,75.862195 100.98782,76.210973 c 11.24309,0.260218 12.52331,0.474049 12.84378,2.145247 0.52164,2.720221 -1.17154,3.888657 -5.54754,3.828264 -2.13286,-0.02944 -4.40855,0.274421 -5.05708,0.675237 -0.81735,0.505149 -1.2632,6.234236 -1.45307,18.671669 -0.28428,18.6219 -0.50161,19.4779 -4.52391,17.81784 z m -56,-48.33827 c -3.988252,-2.431684 -4.517003,-7.010109 -1.087032,-9.412554 2.830381,-1.982476 4.038284,-1.134213 2.667863,1.873535 C 41.439635,66.525282 42.370227,69 44.909598,69 c 2.521628,0 3.766262,1.957818 1.968517,3.096491 C 45.01128,73.278925 44.950506,73.267203 41.25,71.01096 Z m 18.568671,0.453045 C 58.34394,70.66325 56.863262,69.144536 56.528275,68.089085 55.667829,65.37806 56.952472,61 58.608408,61 c 0.765376,0 1.71165,0.0069 2.102831,0.01525 0.391181,0.0084 0.58177,1.808388 0.423531,4 C 60.88372,68.492292 61.11563,69 62.954916,69 c 2.66224,0 3.631011,-2.418614 2.214253,-5.528059 -1.432723,-3.144486 0.281648,-4.27892 2.893844,-1.914915 C 69.182473,62.570123 70,62.8225 70,62.154988 70,61.519744 70.9,61 72,61 c 1.1,0 2,0.605256 2,1.345012 C 74,63.658476 77.059652,67 78.262318,67 c 0.332661,0 0.747227,-1.192112 0.92126,-2.649138 0.325371,-2.724057 3.166773,-5.333845 4.430899,-4.069719 0.390722,0.390723 0.199383,1.831974 -0.425199,3.202781 C 81.664692,66.830026 82.667595,69 85.738658,69 c 2.368212,0 2.49143,-0.247901 1.988168,-4 -0.618534,-4.611509 1.040051,-5.418046 3.59875,-1.75 1.534418,2.199679 1.570693,2.15495 1.621972,-2 0.03621,-2.933747 0.702836,-4.900384 2.152452,-6.35 2.726995,-2.726995 4.863589,-1.119513 3.09666,2.329794 C 97.55705,58.478407 96.913643,62.2 96.766866,65.5 c -0.202287,4.548059 -0.629851,6 -1.766866,6 -0.89903,0 -1.62851,-1.11977 -1.820756,-2.794907 l -0.320755,-2.794908 -2.006797,2.551229 c -3.399605,4.321897 -5.510816,4.937259 -9.289658,2.707688 -3.287865,-1.939888 -3.346509,-1.940183 -5.260207,-0.02648 -1.175628,1.175629 -2.596003,1.681728 -3.61855,1.289339 C 70.579212,71.624551 70.511144,70.124822 72.543172,69.34506 73.90888,68.820989 73.891056,68.5371 72.388184,66.876445 70.212526,64.472369 69,64.490612 69,66.92742 c 0,1.718205 -4.308788,6.135124 -5.884859,6.032542 -0.338327,-0.02202 -1.821739,-0.695201 -3.29647,-1.495957 z M 27.170943,68.75 26.284703,65.5 24.981836,68.25 C 24.26526,69.7625 23.101719,71 22.396189,71 20.768743,71 18,67.103191 18,64.812678 18,63.854407 17.1,62.588702 16,62 13.812144,60.829095 13.271153,56.568486 15.161952,55.399908 16.567236,54.531395 20,58.496583 20,60.988339 c 0,0.971724 0.631545,2.290907 1.403433,2.931517 1.141479,0.947344 1.841675,0.270253 3.751346,-3.627555 C 26.791842,56.950907 28.1078,55.5 29.501346,55.5 c 1.740328,0 2.03822,0.770113 2.304774,5.958332 C 32.176506,68.667544 31.450506,72 29.50954,72 28.710744,72 27.658376,70.5375 27.170943,68.75 Z m 74.382617,2 c -0.86522,-2.81887 -1.46903,-10.806704 -0.92422,-12.22647 0.80226,-2.090637 3.3465,-1.924872 3.47599,0.22647 0.0579,0.9625 0.19037,3.55 0.29432,5.75 0.10395,2.2 0.5547,4.7875 1.00166,5.75 0.63827,1.37444 0.35376,1.75 -1.32571,1.75 -1.1761,0 -2.31102,-0.5625 -2.52204,-1.25 z M 50.604785,69.412469 c -1.202006,-3.132376 -0.636611,-8.186279 0.985457,-8.808725 2.394087,-0.918697 3.563521,0.240431 2.412462,2.391203 C 53.451217,64.025411 53,65.996543 53,67.375242 c 0,2.972418 -1.535265,4.278222 -2.395215,2.037227 z M 35,66 c 0,-2.490712 0.39517,-3.873806 1,-3.5 0.55,0.339919 1,1.914919 1,3.5 0,1.585081 -0.45,3.160081 -1,3.5 -0.60483,0.373806 -1,-1.009288 -1,-3.5 z M 4.556822,52.09194 C 4.1762174,51.476109 5.2452306,48.42358 6.9324068,45.308542 8.6195831,42.193504 10,38.836462 10,37.84845 10,35.464828 15.159009,22.652035 18.394528,17 21.405729,11.739819 27.31477,5.1745391 31.309258,2.6510016 33.41644,1.3197794 35.703681,0.95418275 40.461325,1.1881195 c 3.488545,0.1715343 6.097957,0.7098369 5.798694,1.1962281 -0.304303,0.4945816 0.950891,0.5860151 2.847933,0.2074551 1.865626,-0.3722909 6.143152,-0.9312611 9.505613,-1.2421558 5.711629,-0.5281 6.317528,-0.37737657 9.215895,2.2925449 C 74.846854,10.106485 85,27.779892 85,33.530659 c 0,1.697895 0.679752,3.96059 1.51056,5.028211 1.46042,1.8767 1.626686,1.810777 5.009178,-1.986098 3.69452,-4.147128 5.668797,-9.455635 5.977594,-16.072772 0.102666,-2.2 0.257766,-5.629626 0.344667,-7.621391 0.115568,-2.648828 1.191671,-4.7861915 4.006921,-7.9585866 L 105.69785,0.58282737 115.912,0.1725729 126.12615,-0.23768158 124.47893,3.6311592 c -0.90597,2.1278624 -2.045,6.5928818 -2.53117,9.9222648 C 120.42217,24.000934 112.52865,38.331138 103.52435,47 l -3.635434,3.5 -18.026487,0 -18.026487,0 -2.861503,-3.202578 C 58.273764,44.274842 54.776553,34.818782 53.440804,26.92733 53.121733,25.042298 52.027327,21.475 51.00879,19 49.990253,16.525 48.906807,13.702293 48.601133,12.727319 47.649739,9.6927613 45.073584,9.5553201 42.123451,12.381726 40.18985,14.234234 38.693153,17.48402 37.112689,23.261623 31.129502,45.133978 30.351344,46.648422 23.364362,50.01848 17.902908,52.652724 5.732638,53.99445 4.556822,52.09194 Z"
       id="path4811"
       inkscape:connector-curvature="0" />
    <path
       style="fill:#5eadd1"
       d="m 0.33304929,117.42553 c -0.41873423,-1.0912 0.0227306,-2.21251 1.21403391,-3.08362 C 4.0536815,112.50904 5.5,113.14621 5.5,116.08333 c 0,2.98564 -4.1251085,4.0572 -5.16695071,1.3422 z m 15.14511171,0.37815 c -0.28759,-0.74944 -0.400327,-10.12436 -0.250526,-20.833154 L 15.5,77.5 18.103667,77.197698 c 2.5747,-0.298938 4.244727,1.801394 12.403349,15.599239 C 34.389198,99.362476 41.230743,109 42.009346,109 c 0.535051,0 1.058485,-6.78379 1.215261,-15.75 C 43.486738,78.258464 43.596313,77.5 45.5,77.5 c 1.934959,0 2,0.666667 2,20.5 l 0,20.5 -2.717378,0.31327 c -2.483507,0.28632 -3.434145,-0.7895 -11.045568,-12.5 C 29.15655,99.265974 24.380168,91.8125 23.122873,89.75 21.865577,87.6875 20.43473,86 19.943212,86 c -0.491518,0 -1.017316,7.275473 -1.168441,16.16772 -0.201233,11.8407 -0.609171,16.2789 -1.524245,16.58316 -0.687211,0.22849 -1.484775,-0.19775 -1.772365,-0.9472 z m 41.981143,-0.0491 c -0.277219,-0.72242 -0.38147,-10.07522 -0.231669,-20.784014 L 57.5,77.5 67.767885,77.214819 c 8.752976,-0.243105 10.360514,-0.04379 10.895717,1.350925 0.947906,2.470204 -1.452218,3.401991 -8.806613,3.418943 C 62.559314,82.001509 62,82.465314 62,88.5 c 0,5.87661 0.654484,6.498482 6.856989,6.515313 6.36412,0.01727 8.72067,1.036948 7.820113,3.383762 C 76.202029,99.637095 74.606459,100 69.638374,100 c -4.935719,0 -6.565049,0.36654 -7.031385,1.58179 -0.857977,2.23585 -0.726355,10.68223 0.188902,12.1222 0.463011,0.72845 3.912936,1.3209 8.734688,1.5 C 77.81628,115.43746 79.5,115.81691 79.5,117 c 0,2.07239 -21.255758,2.80006 -22.040696,0.75454 z m 40.049597,0.0786 C 97.238219,117.09992 96.900482,108.85 96.758375,99.5 L 96.5,82.5 91.311357,81.978024 C 85.523471,81.395764 84.480774,80.795465 85.345077,78.543128 85.836973,77.261266 88.14888,77 99,77 c 10.85112,0 13.16303,0.261266 13.65492,1.543128 0.86431,2.252337 -0.17839,2.852636 -5.96628,3.434896 L 101.5,82.5 101,100.41823 c -0.36487,13.0755 -0.83769,18.03037 -1.749474,18.33316 -0.687211,0.22821 -1.470942,-0.185 -1.741625,-0.91823 z M 28.683333,70.35 C 28.3075,69.974167 28,68.391667 28,66.833333 28,64.981481 27.480392,64 26.5,64 c -1.843586,0 -1.844235,0.06812 0.04234,-4.447095 2.232702,-5.343609 3.904934,-3.998948 4.259228,3.424894 0.28374,5.945453 -0.57082,8.919618 -2.118237,7.372201 z m 73.983337,-0.01667 c -0.36667,-0.366666 -0.60051,-3.179166 -0.51965,-6.25 l 0.14702,-5.58333 0.68021,6 c 0.73147,6.452169 0.71042,6.85134 -0.30758,5.833333 z M 20.6875,69.354167 C 19.093901,67.760567 20.083836,65.5 22.375295,65.5 c 1.934317,0 2.241477,0.361742 1.654497,1.948501 -0.790257,2.136268 -2.268719,2.979239 -3.342292,1.905666 z M 94,63.7 c 0,-5.959993 1.070807,-8.7 3.4,-8.7 0.555556,0 0.466667,0.533333 -0.2,1.2 -0.679365,0.679365 -1.2,3.933333 -1.2,7.5 0,3.533333 -0.439153,6.3 -1,6.3 -0.560847,0 -1,-2.766667 -1,-6.3 z M 39.464874,67.943165 C 38.670148,66.657271 39.730701,62 40.818251,62 c 0.429081,0 0.596275,1.575 0.371542,3.5 -0.436605,3.739837 -0.696246,4.107592 -1.724919,2.443165 z m 18,0 C 56.593582,66.533385 57.779093,62 59.019052,62 59.558573,62 60,63.575 60,65.5 c 0,3.406579 -1.215646,4.578128 -2.535126,2.443165 z M 72,64.5 C 71.282451,63.635407 71.185262,63 71.770566,63 c 0.558501,0 1.274478,0.675 1.59106,1.5 0.316583,0.825 0.419828,1.5 0.229434,1.5 C 73.400666,66 72.684689,65.325 72,64.5 Z M 80,63 c 0,-0.55 0.45,-1 1,-1 0.55,0 1,0.45 1,1 0,0.55 -0.45,1 -1,1 -0.55,0 -1,-0.45 -1,-1 z M 15.666667,60.333333 C 14.646345,59.313011 14.874292,56 15.964816,56 c 1.257074,0 3.152741,3.549109 2.333334,4.368517 -0.815636,0.815635 -1.793742,0.802558 -2.631483,-0.03518 z M 4.4098992,51.854214 C 4.1101021,51.369132 5.2452306,48.42358 6.9324068,45.308542 8.6195831,42.193504 10,38.836462 10,37.84845 10,35.464828 15.159009,22.652035 18.394528,17 21.405729,11.739819 27.31477,5.1745391 31.309258,2.6510016 33.41644,1.3197794 35.703681,0.95418275 40.461325,1.1881195 c 3.488545,0.1715343 6.097957,0.7098369 5.798694,1.1962281 -0.304303,0.4945816 0.950891,0.5860151 2.847933,0.2074551 1.865626,-0.3722909 6.143152,-0.9312611 9.505613,-1.2421558 5.711629,-0.5281 6.317528,-0.37737657 9.215895,2.2925449 C 74.846854,10.106485 85,27.779892 85,33.530659 c 0,1.697895 0.679752,3.96059 1.51056,5.028211 1.46042,1.8767 1.626686,1.810777 5.009178,-1.986098 3.69452,-4.147128 5.668797,-9.455635 5.977594,-16.072772 0.102666,-2.2 0.257766,-5.629626 0.344667,-7.621391 0.115568,-2.648828 1.191671,-4.7861915 4.006921,-7.9585866 L 105.69785,0.58282737 115.912,0.1725729 126.12615,-0.23768158 124.47893,3.6311592 c -0.90597,2.1278624 -2.045,6.5928818 -2.53117,9.9222648 -0.48617,3.329383 -1.9819,8.536098 -3.32385,11.570478 -3.06289,6.925743 -10.58322,17.755174 -15.05843,21.684459 -3.10111,2.722812 -4.27917,3.058497 -13.038169,3.715186 C 85.231345,50.920602 77.0276,51.042305 72.296765,50.794 64.179601,50.367958 63.538077,50.166631 60.904092,47.21869 58.275836,44.277161 54.759134,34.715869 53.440804,26.92733 53.121733,25.042298 52.027327,21.475 51.00879,19 49.990253,16.525 48.906807,13.702293 48.601133,12.727319 47.649739,9.6927613 45.073584,9.5553201 42.123451,12.381726 40.18985,14.234234 38.693153,17.48402 37.112689,23.261623 31.194863,44.895044 30.281684,46.717513 23.864362,49.701861 19.240697,51.852077 5.3578389,53.388013 4.4098992,51.854214 Z"
       id="path4809"
       inkscape:connector-curvature="0" />
    <path
       style="fill:#1a97c9"
       d="m 0.33304929,117.42553 c -0.41873423,-1.0912 0.0227306,-2.21251 1.21403391,-3.08362 C 4.0536815,112.50904 5.5,113.14621 5.5,116.08333 c 0,2.98564 -4.1251085,4.0572 -5.16695071,1.3422 z m 15.14511171,0.37815 c -0.28759,-0.74944 -0.400327,-10.12436 -0.250526,-20.833154 L 15.5,77.5 18.103667,77.197698 c 2.5747,-0.298938 4.244727,1.801394 12.403349,15.599239 C 34.389198,99.362476 41.230743,109 42.009346,109 c 0.535051,0 1.058485,-6.78379 1.215261,-15.75 C 43.486738,78.258464 43.596313,77.5 45.5,77.5 c 1.934959,0 2,0.666667 2,20.5 l 0,20.5 -2.717378,0.31327 c -2.483507,0.28632 -3.434145,-0.7895 -11.045568,-12.5 C 29.15655,99.265974 24.380168,91.8125 23.122873,89.75 21.865577,87.6875 20.43473,86 19.943212,86 c -0.491518,0 -1.017316,7.275473 -1.168441,16.16772 -0.201233,11.8407 -0.609171,16.2789 -1.524245,16.58316 -0.687211,0.22849 -1.484775,-0.19775 -1.772365,-0.9472 z m 41.981143,-0.0491 c -0.277219,-0.72242 -0.38147,-10.07522 -0.231669,-20.784014 L 57.5,77.5 67.767885,77.214819 c 8.752976,-0.243105 10.360514,-0.04379 10.895717,1.350925 0.947906,2.470204 -1.452218,3.401991 -8.806613,3.418943 C 62.559314,82.001509 62,82.465314 62,88.5 c 0,5.87661 0.654484,6.498482 6.856989,6.515313 6.36412,0.01727 8.72067,1.036948 7.820113,3.383762 C 76.202029,99.637095 74.606459,100 69.638374,100 c -4.935719,0 -6.565049,0.36654 -7.031385,1.58179 -0.857977,2.23585 -0.726355,10.68223 0.188902,12.1222 0.463011,0.72845 3.912936,1.3209 8.734688,1.5 C 77.81628,115.43746 79.5,115.81691 79.5,117 c 0,2.07239 -21.255758,2.80006 -22.040696,0.75454 z m 40.049597,0.0786 C 97.238219,117.09992 96.900482,108.85 96.758375,99.5 L 96.5,82.5 91.311357,81.978024 C 85.523471,81.395764 84.480774,80.795465 85.345077,78.543128 85.836973,77.261266 88.14888,77 99,77 c 10.85112,0 13.16303,0.261266 13.65492,1.543128 0.86431,2.252337 -0.17839,2.852636 -5.96628,3.434896 L 101.5,82.5 101,100.41823 c -0.36487,13.0755 -0.83769,18.03037 -1.749474,18.33316 -0.687211,0.22821 -1.470942,-0.185 -1.741625,-0.91823 z M 28.683333,70.35 C 28.3075,69.974167 28,68.391667 28,66.833333 28,64.981481 27.480392,64 26.5,64 c -1.843586,0 -1.844235,0.06812 0.04234,-4.447095 2.232702,-5.343609 3.904934,-3.998948 4.259228,3.424894 0.28374,5.945453 -0.57082,8.919618 -2.118237,7.372201 z m 73.983337,-0.01667 c -0.36667,-0.366666 -0.60051,-3.179166 -0.51965,-6.25 l 0.14702,-5.58333 0.68021,6 c 0.73147,6.452169 0.71042,6.85134 -0.30758,5.833333 z M 20.6875,69.354167 C 19.093901,67.760567 20.083836,65.5 22.375295,65.5 c 1.934317,0 2.241477,0.361742 1.654497,1.948501 -0.790257,2.136268 -2.268719,2.979239 -3.342292,1.905666 z M 94,63.7 c 0,-5.959993 1.070807,-8.7 3.4,-8.7 0.555556,0 0.466667,0.533333 -0.2,1.2 -0.679365,0.679365 -1.2,3.933333 -1.2,7.5 0,3.533333 -0.439153,6.3 -1,6.3 -0.560847,0 -1,-2.766667 -1,-6.3 z M 39.464874,67.943165 C 38.670148,66.657271 39.730701,62 40.818251,62 c 0.429081,0 0.596275,1.575 0.371542,3.5 -0.436605,3.739837 -0.696246,4.107592 -1.724919,2.443165 z m 18,0 C 56.593582,66.533385 57.779093,62 59.019052,62 59.558573,62 60,63.575 60,65.5 c 0,3.406579 -1.215646,4.578128 -2.535126,2.443165 z M 72,64.5 C 71.282451,63.635407 71.185262,63 71.770566,63 c 0.558501,0 1.274478,0.675 1.59106,1.5 0.316583,0.825 0.419828,1.5 0.229434,1.5 C 73.400666,66 72.684689,65.325 72,64.5 Z M 80,63 c 0,-0.55 0.45,-1 1,-1 0.55,0 1,0.45 1,1 0,0.55 -0.45,1 -1,1 -0.55,0 -1,-0.45 -1,-1 z M 15.666667,60.333333 C 14.646345,59.313011 14.874292,56 15.964816,56 c 1.257074,0 3.152741,3.549109 2.333334,4.368517 -0.815636,0.815635 -1.793742,0.802558 -2.631483,-0.03518 z M 6,50.640768 c 0,-0.747577 1.35,-3.889074 3,-6.981104 1.65,-3.09203 3,-6.248172 3,-7.01365 0,-1.527251 2.547962,-7.803731 7.011799,-17.272403 C 21.643846,13.790526 27.048767,7.2733986 32.798443,2.75 35.524513,0.6053398 41.607953,0.46509616 43.642857,2.5 45.522637,4.3797798 50.711669,4.3797798 54,2.5 58.225432,0.08452487 63.708579,0.61360276 66.954488,3.75 69.891105,6.5875389 75,15.493645 75,17.775377 c 0,0.710209 1.555626,2.846915 3.456946,4.748236 3.203589,3.203589 3.927042,4.876744 6.259422,14.476387 2.773736,11.416181 14.775757,-6.151207 16.719732,-24.47271 0.4341,-4.0913139 1.30763,-6.6900524 2.77312,-8.2499996 1.17668,-1.2525097 1.72347,-2.3305321 1.21509,-2.3956052 -3.03787,-0.3888564 6.34974,-1.66412451 12.98068,-1.76337041 C 125.84853,0.00690645 126.22161,0.10215358 124.79622,1.75 121.89563,5.1032687 118,15.234386 118,19.424499 c 0,5.007006 -3.1245,11.548726 -9.86151,20.646903 C 101.33399,49.260729 99.406223,50 82.248094,50 74.418921,50 66.869514,49.501871 65.041655,48.864676 61.122714,47.498526 59,43.143706 59,36.470016 c 0,-5.63899 -2.619539,-14.101459 -5.417222,-17.500438 -1.145528,-1.391732 -2.938621,-4.429232 -3.984652,-6.75 -2.14751,-4.7645544 -3.90437,-5.2121712 -7.606403,-1.937977 -4.845912,4.285878 -6.685757,7.999386 -7.367393,14.870207 -0.944369,9.519129 -3.884899,17.964053 -7.34564,21.095981 -0.998061,0.903232 -3.831563,2.557101 -6.296673,3.675264 C 15.682915,52.326702 6,52.790564 6,50.640768 Z"
       id="path4807"
       inkscape:connector-curvature="0" />
    <path
       style="fill:#616061"
       d="m 0.33304929,117.42553 c -0.41873423,-1.0912 0.0227306,-2.21251 1.21403391,-3.08362 C 4.0536815,112.50904 5.5,113.14621 5.5,116.08333 c 0,2.98564 -4.1251085,4.0572 -5.16695071,1.3422 z m 15.14511171,0.37815 c -0.28759,-0.74944 -0.400327,-10.12436 -0.250526,-20.833154 L 15.5,77.5 18.103667,77.197698 c 2.5747,-0.298938 4.244727,1.801394 12.403349,15.599239 C 34.389198,99.362476 41.230743,109 42.009346,109 c 0.535051,0 1.058485,-6.78379 1.215261,-15.75 C 43.486738,78.258464 43.596313,77.5 45.5,77.5 c 1.934959,0 2,0.666667 2,20.5 l 0,20.5 -2.717378,0.31327 c -2.483507,0.28632 -3.434145,-0.7895 -11.045568,-12.5 C 29.15655,99.265974 24.380168,91.8125 23.122873,89.75 21.865577,87.6875 20.43473,86 19.943212,86 c -0.491518,0 -1.017316,7.275473 -1.168441,16.16772 -0.201233,11.8407 -0.609171,16.2789 -1.524245,16.58316 -0.687211,0.22849 -1.484775,-0.19775 -1.772365,-0.9472 z m 41.981143,-0.0491 c -0.277219,-0.72242 -0.38147,-10.07522 -0.231669,-20.784014 L 57.5,77.5 67.767885,77.214819 c 8.752976,-0.243105 10.360514,-0.04379 10.895717,1.350925 0.947906,2.470204 -1.452218,3.401991 -8.806613,3.418943 C 62.559314,82.001509 62,82.465314 62,88.5 c 0,5.87661 0.654484,6.498482 6.856989,6.515313 6.36412,0.01727 8.72067,1.036948 7.820113,3.383762 C 76.202029,99.637095 74.606459,100 69.638374,100 c -4.935719,0 -6.565049,0.36654 -7.031385,1.58179 -0.857977,2.23585 -0.726355,10.68223 0.188902,12.1222 0.463011,0.72845 3.912936,1.3209 8.734688,1.5 C 77.81628,115.43746 79.5,115.81691 79.5,117 c 0,2.07239 -21.255758,2.80006 -22.040696,0.75454 z m 40.049597,0.0786 C 97.238219,117.09992 96.900482,108.85 96.758375,99.5 L 96.5,82.5 91.311357,81.978024 C 85.523471,81.395764 84.480774,80.795465 85.345077,78.543128 85.836973,77.261266 88.14888,77 99,77 c 10.85112,0 13.16303,0.261266 13.65492,1.543128 0.86431,2.252337 -0.17839,2.852636 -5.96628,3.434896 L 101.5,82.5 101,100.41823 c -0.36487,13.0755 -0.83769,18.03037 -1.749474,18.33316 -0.687211,0.22821 -1.470942,-0.185 -1.741625,-0.91823 z M 28.683333,70.35 C 28.3075,69.974167 28,68.391667 28,66.833333 28,64.981481 27.480392,64 26.5,64 c -1.843586,0 -1.844235,0.06812 0.04234,-4.447095 2.232702,-5.343609 3.904934,-3.998948 4.259228,3.424894 0.28374,5.945453 -0.57082,8.919618 -2.118237,7.372201 z m 73.983337,-0.01667 c -0.36667,-0.366666 -0.60051,-3.179166 -0.51965,-6.25 l 0.14702,-5.58333 0.68021,6 c 0.73147,6.452169 0.71042,6.85134 -0.30758,5.833333 z M 20.6875,69.354167 C 19.093901,67.760567 20.083836,65.5 22.375295,65.5 c 1.934317,0 2.241477,0.361742 1.654497,1.948501 -0.790257,2.136268 -2.268719,2.979239 -3.342292,1.905666 z M 94,63.7 c 0,-5.959993 1.070807,-8.7 3.4,-8.7 0.555556,0 0.466667,0.533333 -0.2,1.2 -0.679365,0.679365 -1.2,3.933333 -1.2,7.5 0,3.533333 -0.439153,6.3 -1,6.3 -0.560847,0 -1,-2.766667 -1,-6.3 z M 39.464874,67.943165 C 38.670148,66.657271 39.730701,62 40.818251,62 c 0.429081,0 0.596275,1.575 0.371542,3.5 -0.436605,3.739837 -0.696246,4.107592 -1.724919,2.443165 z m 18,0 C 56.593582,66.533385 57.779093,62 59.019052,62 59.558573,62 60,63.575 60,65.5 c 0,3.406579 -1.215646,4.578128 -2.535126,2.443165 z M 72,64.5 C 71.282451,63.635407 71.185262,63 71.770566,63 c 0.558501,0 1.274478,0.675 1.59106,1.5 0.316583,0.825 0.419828,1.5 0.229434,1.5 C 73.400666,66 72.684689,65.325 72,64.5 Z M 80,63 c 0,-0.55 0.45,-1 1,-1 0.55,0 1,0.45 1,1 0,0.55 -0.45,1 -1,1 -0.55,0 -1,-0.45 -1,-1 z M 15.666667,60.333333 C 14.646345,59.313011 14.874292,56 15.964816,56 c 1.257074,0 3.152741,3.549109 2.333334,4.368517 -0.815636,0.815635 -1.793742,0.802558 -2.631483,-0.03518 z M 6.665769,51.25 C 6.0599799,50.245408 10.773763,39.171731 18.079308,24.437172 23.969508,12.557224 31.383981,3 34.710217,3 35.484516,3 35.839919,2.55 35.5,2 35.122002,1.3883869 36.555532,1.0306621 39.190983,1.0789474 c 2.369959,0.043421 3.714648,0.3165439 2.988198,0.6069397 -0.873072,0.3490071 -0.410583,1.000229 1.364307,1.9210527 C 47.099272,5.4517029 48.351849,5.3713097 53,3 c 8.983268,-4.5829213 16.37366,-0.6030389 16.615073,8.947568 0.206665,8.175924 1.517029,13.437167 5.118784,20.552432 5.506811,10.8787 8.107433,13.210404 7.528487,6.75 l -0.336055,-3.75 1.493726,2.606731 c 0.82155,1.433702 2.609797,3.338008 3.973883,4.231791 2.468,1.617096 2.496394,1.597803 5.793129,-3.93641 C 95.009162,35.343303 97.175,31.60949 98,30.104749 c 0.825,-1.50474 2.50545,-4.115957 3.73434,-5.802702 1.22889,-1.686746 3.71605,-5.932239 5.52703,-9.434429 2.65541,-5.1352232 3.96484,-6.6010189 6.76565,-7.5735688 C 117.22924,6.1821179 117.32458,6.0365898 115.25,5.4274178 113.73083,4.9813354 113,3.9925863 113,2.3833686 c 0,-2.27971805 0.29355,-2.3816274 6.75,-2.34333097 6.46166,0.03832732 6.63613,0.10187767 4.08446,1.48768587 -1.80145,0.9783591 -3.20397,3.0686945 -4.32646,6.4482002 -0.91351,2.7503033 -2.07651,5.2574023 -2.58446,5.5713313 C 116.41559,13.861183 116,14.93079 116,15.924158 c 0,0.993369 -0.83143,2.879311 -1.84762,4.190983 -1.0162,1.311673 -2.11736,4.411274 -2.44704,6.888003 -0.83635,6.283183 -3.97981,12.921626 -8.56867,18.095565 L 99.233079,49.5 87.535417,49.838048 C 81.101703,50.023974 74.86176,49.929045 73.668878,49.627095 70.453754,48.813263 65.686602,40.65842 62.63102,30.745384 60.509951,23.864129 58.97776,20.915771 55.470761,16.967078 53.016799,14.204049 50.28023,10.831126 49.389496,9.4716941 48.498762,8.1122624 46.860836,7 45.749661,7 42.663583,7 36.726201,13.951548 30.723038,24.593326 27.954304,29.501447 27.285714,31.763472 27.285714,36.222753 27.285714,45.490389 20.817449,52 11.608677,52 9.1388233,52 6.9145147,51.6625 6.665769,51.25 Z M 120.26903,1.3440633 c -0.67703,-0.2739231 -2.02703,-0.2905974 -3,-0.037054 -0.97297,0.2535434 -0.41903,0.4776623 1.23097,0.498042 1.65,0.02038 2.44606,-0.1870649 1.76903,-0.460988 z"
       id="path4805"
       inkscape:connector-curvature="0" />
    <path
       style="fill:#0b6a9e"
       d="M 0.6018212,117.40475 C 0.31178182,116.64892 0.89855227,115.58948 1.9057555,115.05044 3.8553809,114.00703 5,114.56176 5,116.55004 c 0,1.76703 -3.7671592,2.49912 -4.3981788,0.85471 z M 16,98 c 0,-19.445711 0.05638,-20 2.034291,-20 1.452355,0 3.425589,2.216992 6.897889,7.75 11.483672,18.2989 16.383601,25.31147 17.440516,24.96015 0.758937,-0.25227 1.217091,-5.65782 1.402075,-16.542433 C 44.003522,80.707909 44.296627,78 45.524771,78 46.775902,78 47,81.038147 47,98 l 0,20 -2.404978,0 c -1.804917,0 -3.111656,-1.18516 -5.237261,-4.75 -3.902585,-6.545 -4.064509,-6.79846 -11.09713,-17.37047 C 24.828978,90.720788 21.876992,86.08154 21.700661,85.57009 21.52433,85.058639 20.619546,84.932016 19.69003,85.288705 18.200572,85.860264 18,87.839832 18,101.96862 18,111.98954 17.625082,118 17,118 c -0.633333,0 -1,-7.33333 -1,-20 z m 42,0 0,-20 10.083333,0 c 7.62058,0 9.982319,0.3053 9.669746,1.25 -0.270324,0.81701 -3.033561,1.350507 -7.977202,1.540154 -8.682428,0.333073 -8.754826,0.418548 -8.005724,9.451739 l 0.470384,5.67221 6.550034,0.292949 c 9.192795,0.411145 9.578063,2.601113 0.527019,2.995717 L 62.5,99.5 61.865781,106 c -0.920741,9.43652 -0.404063,10 9.169403,10 C 75.678395,116 79,116.41703 79,117 c 0,0.60317 -4.166667,1 -10.5,1 L 58,118 58,98 Z m 39.984687,2.75 c -0.0084,-9.4875 -0.354621,-17.783605 -0.769332,-18.435788 -0.41471,-0.652184 -2.960143,-1.327184 -5.656518,-1.5 C 88.769621,80.635445 86.478955,79.961172 86.244836,79.25 85.92961,78.292456 88.913865,78 99,78 c 10.08613,0 13.07039,0.292456 12.75516,1.25 -0.23412,0.711172 -2.52478,1.385445 -5.314,1.564212 -2.69637,0.172816 -5.2418,0.847816 -5.65652,1.5 C 100.36993,82.966395 100.02373,91.2625 100.01531,100.75 100.00571,111.57312 99.627428,118 99,118 c -0.627428,0 -1.005705,-6.42688 -1.015313,-17.25 z M 28,59.5 c 0,-0.825 0.45,-1.5 1,-1.5 0.55,0 1,0.675 1,1.5 0,0.825 -0.45,1.5 -1,1.5 -0.55,0 -1,-0.675 -1,-1.5 z M 6.590952,51.128944 C 6.0545648,50.235159 11.096648,38.520503 18.079308,24.437172 23.969508,12.557224 31.383981,3 34.710217,3 35.484516,3 35.839919,2.55 35.5,2 35.122002,1.3883869 36.555532,1.0306621 39.190983,1.0789474 c 2.369959,0.043421 3.714648,0.3165439 2.988198,0.6069397 -0.873072,0.3490071 -0.410583,1.000229 1.364307,1.9210527 C 47.099272,5.4517029 48.351849,5.3713097 53,3 c 8.983268,-4.5829213 16.37366,-0.6030389 16.615073,8.947568 0.206665,8.175924 1.517029,13.437167 5.118784,20.552432 5.506811,10.8787 8.107433,13.210404 7.528487,6.75 l -0.336055,-3.75 1.493726,2.606731 c 0.82155,1.433702 2.609797,3.338008 3.973883,4.231791 2.468,1.617096 2.496394,1.597803 5.793129,-3.93641 C 95.009162,35.343303 97.175,31.60949 98,30.104749 c 0.825,-1.50474 2.50545,-4.115957 3.73434,-5.802702 1.22889,-1.686746 3.71605,-5.932239 5.52703,-9.434429 2.65541,-5.1352232 3.96484,-6.6010189 6.76565,-7.5735688 C 117.22924,6.1821179 117.32458,6.0365898 115.25,5.4274178 113.73083,4.9813354 113,3.9925863 113,2.3833686 c 0,-2.27971805 0.29355,-2.3816274 6.75,-2.34333097 6.46166,0.03832732 6.63613,0.10187767 4.08446,1.48768587 -1.80145,0.9783591 -3.20397,3.0686945 -4.32646,6.4482002 -0.91351,2.7503033 -2.07651,5.2574023 -2.58446,5.5713313 C 116.41559,13.861183 116,14.93079 116,15.924158 c 0,0.993369 -0.83143,2.879311 -1.84762,4.190983 -1.0162,1.311673 -2.11736,4.411274 -2.44704,6.888003 -0.83218,6.251901 -3.983,12.934933 -8.43521,17.891467 L 99.5,49.091803 87.89632,49.691034 c -6.382024,0.329576 -12.682024,0.326492 -14,-0.0069 C 70.45303,48.813293 65.777277,40.952593 62.63102,30.745384 60.509951,23.864129 58.97776,20.915771 55.470761,16.967078 53.016799,14.204049 50.28023,10.831126 49.389496,9.4716941 48.498762,8.1122624 46.860836,7 45.749661,7 c -3.086078,0 -9.02346,6.951548 -15.026623,17.593326 -2.778253,4.924995 -3.437324,7.163693 -3.437324,11.675724 0,4.782205 -0.462837,6.166777 -3.228901,9.659217 -1.775895,2.242251 -4.202681,4.274236 -5.392857,4.515522 -4.340133,0.879882 -11.7052998,1.297862 -12.073004,0.685155 z M 120.26903,1.3440633 c -0.67703,-0.2739231 -2.02703,-0.2905974 -3,-0.037054 -0.97297,0.2535434 -0.41903,0.4776623 1.23097,0.498042 1.65,0.02038 2.44606,-0.1870649 1.76903,-0.460988 z"
       id="path4803"
       inkscape:connector-curvature="0" />
    <path
       style="fill:#262525"
       d="M 0.6018212,117.40475 C 0.31178182,116.64892 0.89855227,115.58948 1.9057555,115.05044 3.8553809,114.00703 5,114.56176 5,116.55004 c 0,1.76703 -3.7671592,2.49912 -4.3981788,0.85471 z M 16,98 c 0,-19.445711 0.05638,-20 2.034291,-20 1.452355,0 3.425589,2.216992 6.897889,7.75 11.483672,18.2989 16.383601,25.31147 17.440516,24.96015 0.758937,-0.25227 1.217091,-5.65782 1.402075,-16.542433 C 44.003522,80.707909 44.296627,78 45.524771,78 46.775902,78 47,81.038147 47,98 l 0,20 -2.404978,0 c -1.804917,0 -3.111656,-1.18516 -5.237261,-4.75 -3.902585,-6.545 -4.064509,-6.79846 -11.09713,-17.37047 C 24.828978,90.720788 21.876992,86.08154 21.700661,85.57009 21.52433,85.058639 20.619546,84.932016 19.69003,85.288705 18.200572,85.860264 18,87.839832 18,101.96862 18,111.98954 17.625082,118 17,118 c -0.633333,0 -1,-7.33333 -1,-20 z m 42,0 0,-20 10.083333,0 c 7.62058,0 9.982319,0.3053 9.669746,1.25 -0.270324,0.81701 -3.033561,1.350507 -7.977202,1.540154 -8.682428,0.333073 -8.754826,0.418548 -8.005724,9.451739 l 0.470384,5.67221 6.550034,0.292949 c 9.192795,0.411145 9.578063,2.601113 0.527019,2.995717 L 62.5,99.5 61.865781,106 c -0.920741,9.43652 -0.404063,10 9.169403,10 C 75.678395,116 79,116.41703 79,117 c 0,0.60317 -4.166667,1 -10.5,1 L 58,118 58,98 Z m 39.984687,2.75 c -0.0084,-9.4875 -0.354621,-17.783605 -0.769332,-18.435788 -0.41471,-0.652184 -2.960143,-1.327184 -5.656518,-1.5 C 88.769621,80.635445 86.478955,79.961172 86.244836,79.25 85.92961,78.292456 88.913865,78 99,78 c 10.08613,0 13.07039,0.292456 12.75516,1.25 -0.23412,0.711172 -2.52478,1.385445 -5.314,1.564212 -2.69637,0.172816 -5.2418,0.847816 -5.65652,1.5 C 100.36993,82.966395 100.02373,91.2625 100.01531,100.75 100.00571,111.57312 99.627428,118 99,118 c -0.627428,0 -1.005705,-6.42688 -1.015313,-17.25 z M 28,59.5 c 0,-0.825 0.45,-1.5 1,-1.5 0.55,0 1,0.675 1,1.5 0,0.825 -0.45,1.5 -1,1.5 -0.55,0 -1,-0.675 -1,-1.5 z"
       id="path4801"
       inkscape:connector-curvature="0" />
  </g>
</svg>
