<?xml version="1.0" encoding="UTF-8" standalone="no"?>
<!-- Created with Inkscape (http://www.inkscape.org/) -->

<svg
   xmlns:dc="http://purl.org/dc/elements/1.1/"
   xmlns:cc="http://creativecommons.org/ns#"
   xmlns:rdf="http://www.w3.org/1999/02/22-rdf-syntax-ns#"
   xmlns:svg="http://www.w3.org/2000/svg"
   xmlns="http://www.w3.org/2000/svg"
   xmlns:xlink="http://www.w3.org/1999/xlink"
   xmlns:sodipodi="http://sodipodi.sourceforge.net/DTD/sodipodi-0.dtd"
   xmlns:inkscape="http://www.inkscape.org/namespaces/inkscape"
   id="svg4235"
   version="1.1"
   inkscape:version="0.91 r13725"
   width="473"
   height="123"
   viewBox="0 0 473 123"
   sodipodi:docname="Node.bmp.svg">
  <metadata
     id="metadata4241">
    <rdf:RDF>
      <cc:Work
         rdf:about="">
        <dc:format>image/svg+xml</dc:format>
        <dc:type
           rdf:resource="http://purl.org/dc/dcmitype/StillImage" />
        <dc:title></dc:title>
      </cc:Work>
    </rdf:RDF>
  </metadata>
  <defs
     id="defs4239" />
  <sodipodi:namedview
     pagecolor="#ffffff"
     bordercolor="#666666"
     borderopacity="1"
     objecttolerance="10"
     gridtolerance="10"
     guidetolerance="10"
     inkscape:pageopacity="0"
     inkscape:pageshadow="2"
     inkscape:window-width="640"
     inkscape:window-height="480"
     id="namedview4237"
     showgrid="false"
     inkscape:zoom="0.55391121"
     inkscape:cx="236.5"
     inkscape:cy="61.5"
     inkscape:window-x="0"
     inkscape:window-y="0"
     inkscape:window-maximized="0"
     inkscape:current-layer="svg4235" />
  <image
     width="473"
     height="123"
     preserveAspectRatio="none"
     style="image-rendering:optimizeQuality"
     xlink:href="file:///media/havoc/USB%20DISK/pics/_OpsDeps/Node.bmp"
     id="image4243"
     x="0"
     y="0"
     sodipodi:absref="/media/havoc/USB DISK/pics/_OpsDeps/Node.bmp" />
  <g
     id="g4762">
    <path
       style="fill:#fdfdfd"
       d="M 0,61.5 0,0 236.5,0 473,0 473,61.5 473,123 236.5,123 0,123 0,61.5 Z"
       id="path4778"
       inkscape:connector-curvature="0" />
    <path
       style="fill:#d0d2d0"
       d="m 170.39077,88.871957 c -6.59546,-3.50224 -11.52299,-6.750886 -12.62546,-8.323777 -1.12431,-1.604065 -0.90325,-19.421924 0.26813,-21.610655 0.56839,-1.062046 2.70589,-2.841463 4.75,-3.95426 2.04411,-1.112798 6.09566,-3.367091 9.00345,-5.009541 l 5.28688,-2.986272 9.21312,5.308 9.21311,5.308001 0.28096,11.608137 0.28095,11.608137 -2.78095,1.938085 C 190.10225,84.973092 177.5676,92 176.79467,92 c -0.28222,0 -3.16398,-1.407619 -6.4039,-3.128043 z m 44.50971,0.14624 c -2.42026,-1.639991 -4.768,-2.989991 -5.2172,-3 -0.4492,-0.01001 -2.3617,-1.196607 -4.25,-2.636886 L 202,80.762622 202.0153,70.131311 c 0.008,-5.847221 0.34592,-11.141652 0.75,-11.765402 0.40408,-0.62375 2.42219,-2.08625 4.48469,-3.25 2.0625,-1.16375 5.4375,-3.063863 7.5,-4.222473 2.0625,-1.15861 4.32583,-2.57477 5.02961,-3.147022 0.89041,-0.723995 2.031,-0.698103 3.75,0.08512 L 226,48.957122 226,37.101006 c 0,-14.840093 0.60587,-15.690309 8.27655,-11.614462 2.8729,1.526526 5.78595,3.47755 6.47345,4.335609 0.92428,1.153578 1.25,8.006985 1.25,26.300882 l 0,24.740777 -2.75,1.916043 C 233.75819,86.606233 223.26004,92 221.30438,92 c -1.10188,0 -3.98363,-1.341811 -6.4039,-2.981803 z m 9.16526,-15.053381 c 2.8596,-1.53041 2.57936,-6.349859 -0.44947,-7.729888 -1.84413,-0.840239 -2.8628,-0.750553 -4.5,0.396189 -2.54204,1.780514 -2.70303,4.063038 -0.46128,6.540142 1.90495,2.104946 2.73337,2.226446 5.41075,0.793557 z M 263,90.007091 c -1.925,-1.03354 -5.3486,-2.827469 -7.608,-3.986507 C 247.37372,81.907328 247,81.177644 247,69.635359 c 0,-12.232787 -0.59927,-11.357449 12.88701,-18.823631 1.98714,-1.100111 4.04049,-2.407795 4.56299,-2.905965 1.65948,-1.582202 3.44762,-1.016673 11.84659,3.746665 C 285.79563,57.03965 287,58.260245 287,62.5 c 0,1.714757 -0.5625,3.807345 -1.25,4.650195 -1.96533,2.409425 -10.739,7.068005 -12.23224,6.494993 -0.74169,-0.284614 -2.60354,-0.181838 -4.13744,0.22839 -2.76055,0.738285 -2.7321,0.778371 2.79821,3.942496 9.29673,5.319051 9.58243,6.517304 2.51979,10.568221 -6.07569,3.484827 -7.78786,3.72234 -11.69832,1.622796 z M 142.67178,84.663505 137,81.521618 136.9847,75.010809 c -0.008,-3.580945 -0.34592,-7.012657 -0.75,-7.626028 -1.20466,-1.828609 -5.01534,-2.572539 -7.19692,-1.404996 C 127.29004,66.915142 127,68.051243 127,73.961793 l 0,6.891426 -5.37173,3.07339 C 118.67382,85.616974 115.29882,87 114.12827,87 112.05615,87 112,86.62153 112,72.654988 112,60.22803 112.23399,58.110513 113.75,56.818208 116.43212,54.531866 130.01083,47 131.45061,47 c 0.7012,0 5.33195,2.257639 10.29055,5.016976 10.40939,5.792567 10.26697,5.502624 10.24519,20.858024 -0.015,10.551103 -0.54764,13.742674 -2.41311,14.458522 -0.67632,0.259529 -3.78198,-0.941978 -6.90146,-2.670017 z"
       id="path4776"
       inkscape:connector-curvature="0" />
    <path
       style="fill:#b0ccac"
       d="M 170.39077,87.888553 C 167.15085,86.177257 163.0375,83.679356 161.25,82.337662 l -3.25,-2.439445 0,-9.367321 c 0,-5.152027 0.2805,-10.098294 0.62333,-10.991705 0.34284,-0.893412 2.25534,-2.514217 4.25,-3.60179 1.99467,-1.087572 5.99653,-3.316235 8.89302,-4.952584 l 5.26635,-2.97518 8.88126,5.049618 c 5.85321,3.327966 9.08198,5.798188 9.46999,7.245181 0.32381,1.20756 0.59489,5.908064 0.6024,10.445564 0.0111,6.695506 -0.33374,8.597386 -1.82999,10.093644 C 192.4954,82.504602 177.95043,91 176.76766,91 c -0.26737,0 -3.13697,-1.400151 -6.37689,-3.111447 z m 43.19205,-0.34284 c -3.25445,-1.866555 -7.19195,-4.512328 -8.75,-5.879495 C 202.12224,79.287722 202,78.797811 202,70.312736 c 0,-6.184028 0.44493,-9.502952 1.47019,-10.966707 0.8086,-1.15444 5.18689,-4.204735 9.72954,-6.778432 7.01621,-3.975127 8.60818,-4.520518 10.57687,-3.623523 C 225.05123,49.524833 226.29793,50 226.54705,50 226.79617,50 227,44.360877 227,37.468615 227,23.217129 227.37916,22.565724 233.60549,26.120244 241.5259,30.64189 241,28.513968 241,56.039978 l 0,24.730002 -2.4362,1.596259 c -2.54531,1.667752 -8.29282,5.000099 -12.5638,7.284357 -3.73524,1.997729 -5.90545,1.629848 -12.41718,-2.104883 z m 11.19467,-13.102417 c 5.67013,-3.971514 0.17872,-12.023372 -6.01545,-8.820241 -3.37596,1.745775 -3.60249,4.853421 -0.58773,8.062494 2.56187,2.726984 3.61858,2.848246 6.60318,0.757747 z m 38.21204,14.617485 c -1.91924,-1.057071 -4.61253,-2.43406 -5.9851,-3.059977 -1.37256,-0.625916 -3.96006,-2.255055 -5.75,-3.620308 L 248,79.898217 248,69.604096 c 0,-8.568966 0.29328,-10.544121 1.75,-11.785888 C 252.06256,55.84689 265.92097,48 267.08995,48 c 0.50285,0 4.71969,2.1375 9.37077,4.75 12.7928,7.185684 13.52124,11.72666 2.84129,17.712093 -3.70391,2.075807 -5.19159,2.449701 -6.50565,1.635044 -1.09761,-0.680466 -1.91899,-0.707736 -2.30902,-0.07666 C 270.15439,72.559215 268.50929,73 266.83158,73 c -2.89732,0 -3.02989,-0.175629 -2.64179,-3.5 0.28179,-2.413692 0.005,-3.5 -0.89059,-3.5 -0.80305,0 -1.2992,1.259832 -1.2992,3.298972 0,3.497011 -0.5636,2.999681 12.25,10.809575 2.6125,1.592319 4.75,3.32533 4.75,3.851136 0,1.033649 -7.23438,5.457948 -10.51047,6.427841 -1.14049,0.337644 -3.52048,-0.236472 -5.5,-1.326743 z M 272,67 c 0,-0.55 -0.47656,-1 -1.05902,-1 -0.58246,0 -0.7809,0.45 -0.44098,1 0.33992,0.55 0.81648,1 1.05902,1 C 271.80156,68 272,67.55 272,67 Z M 145.96577,85.611169 c -1.39382,-0.611143 -3.98132,-2.154311 -5.75,-3.429263 C 137.13644,79.962161 137,79.57486 137,73.053226 c 0,-6.621525 -0.0831,-6.845013 -2.9941,-8.050782 -2.52399,-1.04547 -3.38756,-0.982393 -5.5,0.401733 -2.26326,1.482945 -2.506,2.293282 -2.50692,8.368876 l -0.001,6.726947 -4.89637,2.75 c -5.59167,3.140518 -7.63019,3.420862 -8.49461,1.168213 C 112.27314,83.548229 112,77.748082 112,71.528996 112,62.17992 112.30309,59.879125 113.75,58.244321 115.78613,55.943787 129.55007,48 131.5,48 c 1.47713,0 15.02011,7.491148 17.75,9.818208 1.4968,1.275927 1.75,3.332563 1.75,14.214335 0,13.962788 -0.58142,15.531024 -5.03423,13.578626 z"
       id="path4774"
       inkscape:connector-curvature="0" />
    <path
       style="fill:#a0a4a0"
       d="m 212,86.123177 -8.5,-4.866647 0,-11.322519 0,-11.32252 9,-5.259562 c 4.95,-2.89276 9.45,-5.098515 10,-4.90168 0.55,0.196836 1.7875,0.674198 2.75,1.060806 1.60731,0.645608 1.75125,-0.263864 1.76531,-11.154066 0.0191,-14.76281 0.42158,-15.574426 6.17741,-12.456146 8.06462,4.369089 7.80728,3.37843 7.80728,30.054953 0,21.336235 -0.17681,23.893658 -1.75,25.312184 -2.79772,2.52267 -15.57208,9.732511 -17.23413,9.726932 C 221.18214,90.992114 216.675,88.799833 212,86.123177 Z M 225.17126,74.345012 C 226.22247,73.393679 227,71.319402 227,69.466333 c 0,-2.637659 -0.5443,-3.449147 -2.9941,-4.463889 -2.52399,-1.04547 -3.38756,-0.982393 -5.5,0.401733 -3.27127,2.143419 -3.41862,6.843124 -0.28339,9.039119 2.84547,1.993048 4.66631,1.967294 6.94875,-0.09828 z M 172.5,88.443151 c -1.65,-0.849491 -5.37627,-2.975143 -8.2806,-4.723673 l -5.2806,-3.179145 0.2806,-11.01363 0.2806,-11.013629 4,-2.15894 c 2.2,-1.187416 6.16733,-3.321787 8.81628,-4.743045 l 4.81629,-2.584107 3.87546,1.977115 c 3.9756,2.028198 10.51738,6.14634 12.74197,8.021245 0.84476,0.711974 1.25,4.260546 1.25,10.94599 0,11.276417 0.42614,10.650653 -11.5,16.88693 -6.92517,3.621226 -7.01859,3.634687 -11,1.584889 z m 84,-3.197047 -8,-4.746104 -0.29407,-9 c -0.16174,-4.95 -0.0541,-9.959053 0.23924,-11.131228 0.34844,-1.392421 3.65423,-3.90569 9.5362,-7.25 C 262.93295,50.303447 267.17326,48 267.40428,48 c 0.80401,0 15.10764,8.336602 16.84572,9.818208 0.98919,0.843221 1.75,2.878632 1.75,4.681792 0,3.442199 -1.27383,4.885527 -7.397,8.381224 -4.17382,2.382824 -5.24066,2.041075 -5.76832,-1.847806 -0.19413,-1.4307 -1.48959,-3.110567 -3.08468,-4 -2.46994,-1.377255 -3.03006,-1.377446 -5.5,-0.0019 -4.16384,2.318943 -4.18817,6.194799 -0.0573,9.126376 4.91106,3.485259 6.96063,4.723007 10.55729,6.375605 4.23507,1.945937 4.10516,3.813277 -0.48213,6.930425 -5.35611,3.63957 -8.57109,3.238266 -17.76787,-2.217845 z M 113.22254,71.757169 113.5,57.514339 l 3.67035,-2.00717 c 11.89605,-6.505478 13.91198,-7.499786 15.06124,-7.428565 0.69763,0.04323 3.29341,1.377994 5.76841,2.966139 2.475,1.588144 6.1875,3.811918 8.25,4.94172 l 3.75,2.054185 0,13.979676 c 0,15.890862 -0.0177,15.917472 -7.61867,11.462999 l -4.29438,-2.516677 -0.29348,-7.198909 c -0.27021,-6.628446 -0.50599,-7.317885 -2.9754,-8.700305 -2.01309,-1.126966 -3.38472,-1.255073 -5.5,-0.513685 -2.69895,0.94596 -2.83051,1.294381 -3.1124,8.242736 l -0.29433,7.255026 -4.70567,2.955245 c -8.26053,5.187762 -8.30219,5.12906 -7.98313,-11.249585 z m 151.83051,-0.193247 c -0.88467,-1.06596 -0.90716,-1.968009 -0.0873,-3.5 1.32367,-2.473306 2.36685,-2.588427 4.46278,-0.492493 1.88603,1.886033 1.95289,2.647114 0.37143,4.228571 -1.59902,1.599021 -3.29391,1.51473 -4.74695,-0.236078 z"
       id="path4772"
       inkscape:connector-curvature="0" />
    <path
       style="fill:#84b677"
       d="M 167.42242,85.25 159.5,80.5 l 0,-10.991355 0,-10.991355 4,-2.161048 c 2.2,-1.188576 6.17504,-3.327894 8.83341,-4.75404 l 4.83341,-2.592993 7.16659,4.135072 C 195.42757,59.545533 195,58.868567 195,70.032543 c 0,6.57221 -0.40503,10.050144 -1.25,10.733526 C 191.94172,82.228547 177.14552,90 176.16936,90 c -0.45348,0 -4.38961,-2.1375 -8.74694,-4.75 z M 218,88.650084 c -6.21885,-3.327319 -13.5651,-7.979529 -14.23469,-9.014495 -1.26998,-1.962986 -0.87601,-18.110542 0.48469,-19.865653 0.6875,-0.886778 3.05,-2.611409 5.25,-3.832514 2.2,-1.221104 5.91376,-3.296728 8.25279,-4.612497 3.29863,-1.855566 4.68614,-2.160386 6.18426,-1.358616 C 227.7685,52.016841 228,51.366876 228,38.559017 c 0,-6.842541 0.41707,-12.698744 0.92681,-13.013785 0.50975,-0.315041 3.09725,0.702112 5.75,2.260339 l 4.82319,2.833141 0.26806,24.306415 c 0.18799,17.045044 -0.0715,24.715603 -0.86868,25.676114 -1.4982,1.805223 -15.2564,9.3805 -17.02249,9.372598 C 221.1196,89.990451 219.375,89.385761 218,88.650084 Z m 6.31574,-12.799788 c 2.96462,-1.560453 3.65098,-2.790379 3.66895,-6.574616 0.0123,-2.592803 -0.58408,-3.534275 -3.04496,-4.806849 -2.8397,-1.468465 -3.29019,-1.448772 -6.25,0.273219 -4.46114,2.59544 -4.90215,6.876505 -1.02776,9.976923 3.26783,2.615036 3.69648,2.687918 6.65377,1.131323 z M 264,88.622891 c -1.375,-0.743223 -5.2,-2.894189 -8.5,-4.779925 l -6,-3.428611 0,-10.933404 0,-10.933403 5,-2.7753 c 2.75,-1.526415 5.96879,-3.196856 7.15286,-3.712091 1.18407,-0.515235 2.44813,-1.414548 2.80902,-1.998474 1.15367,-1.866687 3.44771,-1.167584 11.60157,3.535563 8.78348,5.066303 10.72221,7.382993 9.12046,10.898466 -0.83216,1.826386 -10.1427,8.195347 -10.62611,7.268885 -0.0759,-0.145528 -0.57594,-1.600676 -1.11113,-3.233662 -0.53519,-1.632986 -2.16925,-3.640463 -3.63125,-4.461059 -2.32369,-1.304254 -2.9967,-1.310817 -5.34853,-0.05216 -3.66683,1.962428 -4.95493,5.588493 -3.02924,8.527461 0.81993,1.251371 4.90173,4.158107 9.07067,6.459413 8.13241,4.489188 8.42635,5.45598 2.56451,8.434659 -4.54026,2.307123 -6.51718,2.565032 -9.07283,1.18364 z M 113.66667,84.333333 C 112.40486,83.071525 112.92188,60.478464 114.25,58.842791 115.80713,56.92507 129.69864,49 131.503,49 c 0.73001,0 5.07798,2.16069 9.66215,4.801534 l 8.33485,4.801534 0.27903,13.198466 c 0.3184,15.061317 0.24784,15.162372 -7.44117,10.656312 L 138,79.915692 l 0,-6.842836 c 0,-6.169495 -0.24254,-7.001755 -2.46482,-8.457846 -3.29303,-2.157681 -5.70719,-2.03506 -8.34662,0.423945 C 125.37622,66.727411 125,68.181326 125,73.496801 l 0,6.418891 -4.33786,2.542154 c -4.50297,2.638921 -5.86648,3.004477 -6.99547,1.875487 z M 265,69.430449 c 0,-2.092735 0.41752,-2.510254 2.25,-2.25 1.44596,0.205359 2.36419,1.123594 2.56955,2.569551 0.26025,1.832481 -0.15726,2.25 -2.25,2.25 C 265.47682,72 265,71.523184 265,69.430449 Z"
       id="path4770"
       inkscape:connector-curvature="0" />
    <path
       style="fill:#649f56"
       d="M 219,89.179715 C 216.1632,87.894239 207.49785,82.659775 205.75,81.175814 204.29415,79.939768 204,77.970088 204,69.457668 l 0,-10.232357 9.02782,-5.132951 c 7.26992,-4.133462 9.39904,-4.934279 10.93426,-4.112655 C 227.76243,52.013591 228,51.347992 228,38.666667 c 0,-6.783334 0.27981,-12.613141 0.62179,-12.955128 1.21965,-1.219649 10.3325,4.256997 10.89336,6.5467 0.30202,1.232969 0.42216,12.591761 0.26699,25.241761 l -0.28214,23 -7.92242,4.75 C 223.75178,89.942073 221.93502,90.509698 219,89.179715 Z M 225.53518,75.38499 C 227.45018,74.130236 228,72.909094 228,69.91067 c 0,-3.290762 -0.44932,-4.091661 -3.04998,-5.436515 -7.49132,-3.873912 -13.89532,5.277313 -7.31516,10.453265 3.17233,2.495353 4.65887,2.581451 7.90032,0.45757 z M 257.99986,85.119503 249.5,80.26284 249.20593,71.38142 c -0.16174,-4.884781 -0.0643,-9.799705 0.2165,-10.922054 0.29945,-1.196826 2.90207,-3.326017 6.29407,-5.149157 3.18093,-1.709688 7.14668,-3.892621 8.81278,-4.850963 l 3.02928,-1.74244 8.32536,4.837367 c 11.48612,6.673886 12.45803,10.466688 4.00195,15.617223 C 274.38466,72.522138 274,72.548281 274,69.571429 c 0,-2.908515 -2.21511,-5.336331 -5.65698,-6.200184 -3.11284,-0.781273 -7.69621,2.337467 -8.17338,5.561546 -0.45321,3.062256 2.04911,5.525507 10.02551,9.86898 3.73531,2.034026 6.79448,4.224027 6.79816,4.86667 0.007,1.238772 -5.1392,4.695888 -8.49345,5.705622 -1.34036,0.403493 -4.80391,-0.999924 -10.5,-4.25456 z m -88.50824,0.745021 c -9.77861,-5.086893 -9.59888,-4.772339 -9.27456,-16.231881 L 160.5,59.634887 165,57.04026 c 2.475,-1.427044 6.38974,-3.427976 8.69943,-4.446514 l 4.19943,-1.851888 7.80057,4.401397 7.80057,4.401396 0,10.388786 0,10.388786 -7.05713,3.710286 c -10.13915,5.330659 -10.21086,5.338409 -16.95125,1.832015 z m -55.88463,-2.446311 c -0.82935,-2.161255 -0.63588,-21.489323 0.23723,-23.699145 0.80819,-2.045527 15.56469,-10.75855 18.02084,-10.640464 0.89922,0.04323 3.65994,1.389634 6.13494,2.992006 2.475,1.602372 5.747,3.414333 7.27111,4.02658 1.52411,0.612248 3.21161,1.936261 3.75,2.942252 C 149.5595,60.045433 150,66.087224 150,72.465643 150,85.340885 149.48097,86.334319 144.185,83.595666 138.8076,80.814903 138,79.364184 138,72.485275 c 0,-5.450889 -0.32124,-6.59687 -2.22251,-7.928571 -3.02666,-2.119957 -5.97338,-1.954505 -8.58893,0.482251 C 125.37986,66.724014 125,68.182844 125,73.443933 l 0,6.366023 -4.42807,2.595022 c -5.15359,3.020202 -6.13974,3.163665 -6.96494,1.013235 z M 266,69.5 c 0,-1.029958 0.6554,-1.52043 1.75,-1.309629 2.10784,0.405933 1.97493,2.180682 -0.19718,2.632953 C 266.64684,71.011966 266,70.460727 266,69.5 Z"
       id="path4768"
       inkscape:connector-curvature="0" />
    <path
       style="fill:#5c5c5c"
       d="M 219,89.179715 C 216.1632,87.894239 207.49785,82.659775 205.75,81.175814 204.29415,79.939768 204,77.970088 204,69.457668 l 0,-10.232357 9.02782,-5.132951 c 7.26992,-4.133462 9.39904,-4.934279 10.93426,-4.112655 C 227.76243,52.013591 228,51.347992 228,38.666667 c 0,-6.783334 0.27981,-12.613141 0.62179,-12.955128 1.21965,-1.219649 10.3325,4.256997 10.89336,6.5467 0.30202,1.232969 0.42216,12.591761 0.26699,25.241761 l -0.28214,23 -7.92242,4.75 C 223.75178,89.942073 221.93502,90.509698 219,89.179715 Z M 225.53518,75.38499 C 227.45018,74.130236 228,72.909094 228,69.91067 c 0,-3.290762 -0.44932,-4.091661 -3.04998,-5.436515 -7.49132,-3.873912 -13.89532,5.277313 -7.31516,10.453265 3.17233,2.495353 4.65887,2.581451 7.90032,0.45757 z M 257.99986,85.119503 249.5,80.26284 249.20593,71.38142 c -0.16174,-4.884781 -0.0643,-9.799705 0.2165,-10.922054 0.29945,-1.196826 2.90207,-3.326017 6.29407,-5.149157 3.18093,-1.709688 7.14668,-3.892621 8.81278,-4.850963 l 3.02928,-1.74244 8.32536,4.837367 c 11.48612,6.673886 12.45803,10.466688 4.00195,15.617223 C 274.38466,72.522138 274,72.548281 274,69.571429 c 0,-2.908515 -2.21511,-5.336331 -5.65698,-6.200184 -3.11284,-0.781273 -7.69621,2.337467 -8.17338,5.561546 -0.45321,3.062256 2.04911,5.525507 10.02551,9.86898 3.73531,2.034026 6.79448,4.224027 6.79816,4.86667 0.007,1.238772 -5.1392,4.695888 -8.49345,5.705622 -1.34036,0.403493 -4.80391,-0.999924 -10.5,-4.25456 z m -144.39287,-1.70129 c -0.82935,-2.161255 -0.63588,-21.489323 0.23723,-23.699145 0.80819,-2.045527 15.56469,-10.75855 18.02084,-10.640464 0.89922,0.04323 3.65994,1.389634 6.13494,2.992006 2.475,1.602372 5.747,3.414333 7.27111,4.02658 1.52411,0.612248 3.21161,1.936261 3.75,2.942252 C 149.5595,60.045433 150,66.087224 150,72.465643 150,85.340885 149.48097,86.334319 144.185,83.595666 138.8076,80.814903 138,79.364184 138,72.485275 c 0,-5.450889 -0.32124,-6.59687 -2.22251,-7.928571 -3.02666,-2.119957 -5.97338,-1.954505 -8.58893,0.482251 C 125.37986,66.724014 125,68.182844 125,73.443933 l 0,6.366023 -4.42807,2.595022 c -5.15359,3.020202 -6.13974,3.163665 -6.96494,1.013235 z"
       id="path4766"
       inkscape:connector-curvature="0" />
    <path
       style="fill:#313131"
       d="m 214.96813,85.743971 c -10.73207,-6.293451 -10.08115,-5.204714 -9.7559,-16.317848 l 0.28777,-9.832661 8,-4.64583 c 7.55191,-4.385609 8.15568,-4.567976 10.77937,-3.255865 1.52865,0.764482 3.21615,1.120019 3.75,0.790083 C 228.56876,52.148487 229,46.602952 229,40 c 0,-6.535081 0.35941,-12.104096 0.7987,-12.375589 0.43928,-0.271493 2.57678,0.503435 4.75,1.722062 l 3.9513,2.215685 0.28234,22.468921 C 238.93762,66.388986 238.84463,77.4 238.57569,78.5 c -0.26893,1.1 -2.19598,2.890868 -4.28233,3.979706 -2.08635,1.088838 -4.91836,2.755114 -6.29336,3.702835 -4.53577,3.126286 -7.09996,3.039992 -13.03187,-0.43857 z M 226.36514,75.92742 C 228.4952,74.251918 229,73.015594 229,69.474337 c 0,-4.05591 -0.26991,-4.508582 -3.6425,-6.108982 -3.49292,-1.657498 -3.79064,-1.649159 -7.25,0.203083 -3.06723,1.642283 -3.65538,2.516668 -3.92722,5.838408 -0.26826,3.278162 0.13403,4.278116 2.5,6.214037 3.52108,2.881066 6.30006,2.969024 9.68486,0.306537 z m 31.13486,7.78017 -7,-4.243167 0,-9.928942 0,-9.928942 8.32142,-4.79553 8.32142,-4.79553 4.67858,2.659321 c 2.57322,1.462627 6.36608,3.494647 8.42858,4.5156 3.07241,1.520867 3.75,2.391865 3.75,4.820394 0,2.368155 -0.80024,3.469286 -3.98013,5.476661 -4.83878,3.054587 -4.80403,3.052833 -5.20032,0.262545 -0.19714,-1.388068 -1.7286,-3.00446 -3.99775,-4.219453 -3.51073,-1.879786 -3.83962,-1.892475 -7.22374,-0.278699 -4.00128,1.908075 -5.47621,5.525397 -3.77519,9.258739 0.59971,1.316221 4.4968,4.345376 8.79681,6.837637 l 7.72011,4.474533 -3.41989,2.084883 c -4.87751,2.973494 -7.50302,2.598897 -15.4199,-2.20005 z M 114.80157,73.25 c -0.23389,-5.9125 -0.24177,-11.501842 -0.0175,-12.42076 0.22427,-0.918918 4.03184,-3.776492 8.46126,-6.350165 l 8.05351,-4.679405 4.10059,2.290617 c 2.25532,1.259839 6.12558,3.472908 8.60058,4.91793 l 4.5,2.627312 0.2843,11.347935 c 0.16558,6.609065 -0.13183,11.76407 -0.7122,12.344433 -0.662,0.661998 -2.35189,0.05721 -5.0343,-1.8017 L 139,78.727998 l 0,-6.843675 0,-6.843675 -3.76562,-1.921075 c -3.4729,-1.771745 -3.9976,-1.800892 -6.75,-0.374965 -4.10618,2.127279 -4.45159,2.890058 -4.46907,9.869391 -0.0149,5.945244 -0.1203,6.186756 -3.81906,8.75 C 118.10419,82.8138 116.13023,84 115.80967,84 c -0.32056,0 -0.7742,-4.8375 -1.0081,-10.75 z"
       id="path4764"
       inkscape:connector-curvature="0" />
  </g>
</svg>
