<?xml version="1.0" encoding="UTF-8" standalone="no"?>
<!-- Created with Inkscape (http://www.inkscape.org/) -->

<svg
   xmlns:dc="http://purl.org/dc/elements/1.1/"
   xmlns:cc="http://creativecommons.org/ns#"
   xmlns:rdf="http://www.w3.org/1999/02/22-rdf-syntax-ns#"
   xmlns:svg="http://www.w3.org/2000/svg"
   xmlns="http://www.w3.org/2000/svg"
   xmlns:xlink="http://www.w3.org/1999/xlink"
   xmlns:sodipodi="http://sodipodi.sourceforge.net/DTD/sodipodi-0.dtd"
   xmlns:inkscape="http://www.inkscape.org/namespaces/inkscape"
   id="svg4245"
   version="1.1"
   inkscape:version="0.91 r13725"
   width="473"
   height="123"
   viewBox="0 0 473 123"
   sodipodi:docname="Overthrow.bmp.svg">
  <metadata
     id="metadata4251">
    <rdf:RDF>
      <cc:Work
         rdf:about="">
        <dc:format>image/svg+xml</dc:format>
        <dc:type
           rdf:resource="http://purl.org/dc/dcmitype/StillImage" />
        <dc:title></dc:title>
      </cc:Work>
    </rdf:RDF>
  </metadata>
  <defs
     id="defs4249" />
  <sodipodi:namedview
     pagecolor="#ffffff"
     bordercolor="#666666"
     borderopacity="1"
     objecttolerance="10"
     gridtolerance="10"
     guidetolerance="10"
     inkscape:pageopacity="0"
     inkscape:pageshadow="2"
     inkscape:window-width="640"
     inkscape:window-height="480"
     id="namedview4247"
     showgrid="false"
     inkscape:zoom="0.55391121"
     inkscape:cx="236.5"
     inkscape:cy="61.5"
     inkscape:window-x="0"
     inkscape:window-y="0"
     inkscape:window-maximized="0"
     inkscape:current-layer="svg4245" />
  <image
     width="473"
     height="123"
     preserveAspectRatio="none"
     style="image-rendering:optimizeQuality"
     xlink:href="file:///media/havoc/USB%20DISK/pics/_OpsDeps/Overthrow.bmp"
     id="image4253"
     x="0"
     y="0"
     sodipodi:absref="/media/havoc/USB DISK/pics/_OpsDeps/Overthrow.bmp" />
  <g
     id="g4725">
    <path
       style="fill:#fdfdfd"
       d="M 0,61.5 0,0 236.5,0 473,0 473,61.5 473,123 236.5,123 0,123 0,61.5 Z"
       id="path4741"
       inkscape:connector-curvature="0" />
    <path
       style="fill:#a2a2a2"
       d="m 380.44113,88.558569 c -2.84007,-2.108961 -0.73897,-5.162708 3.27902,-4.765755 1.63014,0.161048 3.47283,-0.320412 4.09486,-1.06991 0.70418,-0.84849 1.23549,-7.185386 1.40797,-16.792814 L 389.5,50.5 l 3,0 3,0 0.27727,15.477059 c 0.29293,16.351218 -0.36108,19.917593 -4.13759,22.562768 -2.66936,1.869689 -8.69236,1.879769 -11.19855,0.01874 z M 123.29855,78.040484 c -4.29058,-2.616119 -6.29933,-6.841416 -6.29481,-13.240824 0.007,-9.270096 5.31594,-14.803643 14.1966,-14.795922 10.83154,0.0094 17.03778,11.310584 12.35984,22.506484 -2.89466,6.927894 -13.308,9.770139 -20.26163,5.530262 z m 11.78297,-5.905414 c 1.87688,-1.519799 2.3031,-2.840244 2.3031,-7.13507 0,-4.294826 -0.42622,-5.615271 -2.3031,-7.13507 C 133.81482,56.839219 131.97814,56 131,56 c -0.97814,0 -2.81482,0.839219 -4.08152,1.86493 -3.33953,2.704188 -3.33953,11.565952 0,14.27014 2.91617,2.361377 5.24687,2.361377 8.16304,0 z M 156.57799,77.75 c -2.34323,-3.591169 -9.70375,-24.979878 -9.11993,-26.501296 0.31947,-0.832539 1.61812,-1.256534 3.26404,-1.065675 2.43843,0.282758 3.07505,1.234431 5.89811,8.816971 1.74055,4.675 3.55055,8.431856 4.02221,8.34857 0.47167,-0.08329 2.11471,-3.435828 3.6512,-7.450092 1.53649,-4.014263 3.27909,-7.88362 3.87244,-8.598569 1.45047,-1.747703 4.76217,-1.650524 5.45698,0.160129 0.53734,1.40028 -7.92502,24.709422 -9.90758,27.289962 -1.54902,2.016221 -5.53367,1.457949 -7.13747,-1 z M 183.5,78.13944 c -5.32279,-3.287859 -6.84775,-5.798971 -7.29749,-12.016577 -0.50256,-6.947787 1.36024,-11.275763 6.09604,-14.163347 4.76525,-2.905545 9.99658,-2.561129 13.88617,0.914227 2.84855,2.545174 3.22194,3.488435 3.26578,8.25 L 199.5,66.5 l -7.75,0.292064 c -7.62667,0.287417 -8.8795,0.970491 -6.98469,3.808232 1.65013,2.471298 5.30172,3.459697 10.32154,2.793795 4.93494,-0.654642 5.07884,-0.603444 4.75111,1.690378 C 199.15999,79.829733 189.23953,81.68472 183.5,78.13944 Z M 193,59.535184 c 0,-2.378249 -3.85132,-3.923955 -6.62649,-2.659504 C 182.2418,58.758214 183.39766,61 188.5,61 c 3.28529,0 4.5,-0.395404 4.5,-1.464816 z m 14.4639,19.231336 c -0.2886,-0.752083 -0.39854,-7.41972 -0.24431,-14.816971 0.27493,-13.186536 0.32549,-13.455939 2.58545,-13.776313 1.26778,-0.17972 2.92651,0.189007 3.68608,0.819394 1.01994,0.846473 1.9239,0.855628 3.45723,0.03501 1.14191,-0.61113 3.69695,-0.979857 5.67787,-0.819394 2.7481,0.222607 3.87092,-0.182241 4.73773,-1.708249 2.40355,-4.231415 6.204,-4.766569 7.60889,-1.071431 0.61864,1.627153 1.84796,2.534639 3.72525,2.75 2.23304,0.256171 2.80191,0.827013 2.80191,2.81161 0,1.985406 -0.60812,2.594892 -3,3.006753 -2.9798,0.513096 -3.00199,0.565972 -3.29568,7.852321 -0.3148,7.810372 0.48449,9.822321 4.10808,10.340713 2.49899,0.357505 3.52947,3.66157 1.53599,4.924894 -3.45644,2.190445 -9.97597,0.09532 -11.73812,-3.772185 C 228.49962,74.002445 228,69.382168 228,65.075392 c 0,-9.45295 -0.93036,-10.709777 -6.76487,-9.138707 -6.24437,1.681434 -7.11441,3.328945 -7.44475,14.097433 L 213.5,79.5 l -2.75569,0.316971 c -1.65205,0.190027 -2.96583,-0.230671 -3.28041,-1.050451 z m 40.00805,0.02098 c -0.28417,-0.740544 -0.39412,-10.108181 -0.24431,-20.816971 L 247.5,38.5 l 3,0 3,0 0.29806,6.854063 c 0.2853,6.560477 0.39238,6.823326 2.5,6.13648 6.11303,-1.992156 9.54335,-1.740046 12.17844,0.89505 2.53548,2.535474 2.57988,2.82161 2.3044,14.849848 -0.27654,12.074001 -0.31799,12.269803 -2.66781,12.602051 -1.3128,0.185621 -2.76841,-0.264379 -3.23469,-1 -0.46627,-0.735621 -0.85467,-5.964115 -0.86309,-11.618877 -0.0171,-11.487378 -0.63125,-12.502823 -5.91057,-9.77278 -3.57509,1.848751 -4.01317,3.263197 -4.35289,14.054165 -0.24924,7.917039 -0.28043,8.003287 -3.00754,8.316971 -1.63431,0.187986 -2.96593,-0.230938 -3.27236,-1.029474 z m 31.99195,-0.02098 c -0.2886,-0.752083 -0.39854,-7.41972 -0.24431,-14.816971 0.27493,-13.186536 0.32549,-13.455939 2.58545,-13.776313 1.26778,-0.17972 2.87726,0.148137 3.57664,0.728571 0.89543,0.743141 2.16674,0.717459 4.2975,-0.08681 3.9363,-1.485789 6.55592,-0.474184 6.14096,2.371428 -0.21735,1.490471 -1.3095,2.450301 -3.40147,2.989357 -5.34893,1.378303 -6.30688,3.381169 -6.62829,13.858338 L 285.5,79.5 l -2.75569,0.316971 c -1.65205,0.190027 -2.96583,-0.230671 -3.28041,-1.050451 z m 24.83465,-0.726036 c -4.29058,-2.616119 -6.29933,-6.841416 -6.29481,-13.240824 0.007,-9.270096 5.31594,-14.803643 14.1966,-14.795922 10.83154,0.0094 17.03778,11.310584 12.35984,22.506484 -2.89466,6.927894 -13.308,9.770139 -20.26163,5.530262 z m 11.78297,-5.905414 c 1.87688,-1.519799 2.3031,-2.840244 2.3031,-7.13507 0,-4.294826 -0.42622,-5.615271 -2.3031,-7.13507 C 314.81482,56.839219 312.97814,56 312,56 c -0.97814,0 -2.81482,0.839219 -4.08152,1.86493 -1.87688,1.519799 -2.3031,2.840244 -2.3031,7.13507 0,4.294826 0.42622,5.615271 2.3031,7.13507 2.91617,2.361377 5.24687,2.361377 8.16304,0 z M 335.15663,78.25 c -1.82778,-3.500589 -7.363,-25.269835 -6.79901,-26.739569 0.70188,-1.829064 4.00956,-1.988221 5.41241,-0.260431 0.55821,0.6875 1.80522,4.175 2.77114,7.75 0.96592,3.575 2.06815,6.856351 2.44941,7.291891 0.38126,0.435539 1.69091,-2.568903 2.91033,-6.67654 2.42241,-8.159919 3.79599,-9.938002 7.29405,-9.442115 2.3539,0.333691 3.07275,1.898098 5.82543,12.677706 0.61108,2.393018 1.41464,4.047358 1.78569,3.676312 0.37104,-0.371046 1.80397,-4.128969 3.18427,-8.350941 C 362.23056,51.324151 362.76841,50.5 365,50.5 c 3.72012,0 3.53701,2.415507 -1.25081,16.5 -3.66364,10.777478 -4.56683,12.545029 -6.55423,12.826764 -3.46504,0.491205 -4.81874,-1.236029 -6.75257,-8.615822 -0.96721,-3.691018 -2.06182,-7.062837 -2.43247,-7.49293 -0.37064,-0.430093 -1.49372,2.044907 -2.49572,5.5 -1.002,3.455093 -2.43798,7.294488 -3.19107,8.531988 -1.6482,2.708408 -5.85998,3.00226 -7.1665,0.5 z m 37.25741,0.386597 c -0.31471,-0.82013 -0.42412,-2.536372 -0.24312,-3.813871 C 372.44368,72.897531 373.09902,72.5 376,72.5 c 3.33333,0 3.5,0.166667 3.5,3.5 0,3.219319 -0.26118,3.525171 -3.25688,3.813871 -2.18406,0.210483 -3.44535,-0.177311 -3.82908,-1.177274 z M 406,78.710226 c -1.375,-0.693159 -2.64651,-2.282227 -2.82558,-3.531261 -0.31279,-2.181785 -0.0772,-2.259346 6,-1.974968 5.81669,0.27219 6.35019,0.123363 6.63149,-1.849935 0.24733,-1.734918 -0.57608,-2.482778 -4.299,-3.904575 C 403.4061,64.35576 400.86111,58.598133 405.30884,53.427339 409.48307,48.574511 422,49.030342 422,54.035184 c 0,2.070355 -0.1761,2.133886 -6.47713,2.336763 -6.09132,0.196125 -5.62456,2.572891 1.20346,6.128053 6.21407,3.2355 8.07399,6.175146 6.89049,10.890587 -1.3591,5.41508 -11.40815,8.449528 -17.61682,5.319639 z M 389.40974,45.625384 C 388.2113,42.502299 389.4239,40.5 392.5137,40.5 c 2.65144,0 2.9863,0.336391 2.9863,3 0,2.530878 -0.43092,3.049566 -2.75569,3.316971 -1.75858,0.20228 -2.96514,-0.228875 -3.33457,-1.191587 z"
       id="path4739"
       inkscape:connector-curvature="0" />
    <path
       style="fill:#8a8a8a"
       d="m 381.10428,88.085612 c -2.3808,-1.507517 -0.5241,-4.229085 2.38675,-3.498508 4.93601,1.238862 5.50754,-0.463985 5.52428,-16.459549 0.008,-8.045155 0.39985,-15.234332 0.86983,-15.975948 0.46998,-0.741616 1.70059,-1.185894 2.73469,-0.987284 1.73454,0.33314 1.90146,1.620348 2.15504,16.618978 0.27288,16.139924 0.25688,16.275855 -2.20455,18.737284 -2.58067,2.580669 -8.5708,3.398277 -11.46604,1.565027 z m -257.34171,-10.651 C 120.00846,75.397653 118,71.06375 118,65 c 0,-9.135727 4.51682,-14 13,-14 8.34946,0 13.23077,5.16511 13.23077,14 0,5.764157 -2.34735,10.491806 -6.19804,12.483073 -3.70007,1.913381 -10.69829,1.889615 -14.27016,-0.04846 z m 11.78288,-4.889157 C 137.50866,70.582251 138,69.071829 138,65 138,60.928171 137.50866,59.417749 135.54545,57.454545 134.19545,56.104545 132.15,55 131,55 c -1.15,0 -3.19545,1.104545 -4.54545,2.454545 C 124.49134,59.417749 124,60.928171 124,65 c 0,4.071829 0.49134,5.582251 2.45455,7.545455 C 127.80455,73.895455 129.85,75 131,75 c 1.15,0 3.19545,-1.104545 4.54545,-2.454545 z m 21.77321,5.255103 C 156.08974,76.218339 147.98047,54.003147 147.99187,52.25 c 0.004,-0.6875 1.09591,-1.25 2.42542,-1.25 1.97066,0 2.74175,0.877639 4.17334,4.75 4.34646,11.756945 5.2278,13.740735 6.04189,13.599456 0.47712,-0.0828 2.44293,-4.132798 4.36847,-9 2.81422,-7.113482 3.94218,-8.912141 5.75,-9.169007 3.20181,-0.45493 2.89199,1.375308 -2.5933,15.319551 -4.18656,10.642728 -5.00937,12.033995 -7.27468,12.300558 -1.40481,0.165307 -3.00877,-0.284693 -3.56435,-1 z m 26.04805,-0.71862 C 178.57731,74.161504 177,71.224722 177,65.227834 c 0,-6.397819 2.00082,-10.659778 5.96727,-12.710907 6.95531,-3.596731 14.11503,-0.63871 16.07539,6.641506 C 200.73376,65.438702 200.12236,66 191.5904,66 c -7.78874,0 -9.14578,0.674803 -8.08408,4.019916 1.02556,3.231262 5.91851,5.188882 11.04704,4.419812 3.72407,-0.55846 4.44664,-0.400597 4.44664,0.971479 0,3.695192 -10.47702,4.814872 -15.63329,1.670731 z m 10.12052,-16.061271 c 0.89647,-1.450518 -1.1964,-4.793585 -3.4484,-5.508342 -3.44709,-1.094066 -8.12116,2.927418 -6.48306,5.577917 0.75655,1.224121 9.16833,1.165192 9.93146,-0.06958 z m 14.14005,16.450418 c -0.80464,-2.096858 -0.82152,-22.801329 -0.0203,-24.889298 0.76482,-1.993084 3.76047,-2.04888 5.37776,-0.100164 1.08623,1.308831 1.47633,1.308831 3.34495,0 C 219.47124,50.2812 223,50.555434 223,53 c 0,1.314212 -0.66667,2 -1.94424,2 -1.06933,0 -3.20683,1.084391 -4.75,2.409759 -2.61461,2.245588 -2.83982,3.046086 -3.30576,11.75 -0.45886,8.571771 -0.67465,9.36516 -2.62272,9.643113 -1.25203,0.17864 -2.38002,-0.367631 -2.75,-1.331787 z m 23.59149,-0.738213 C 229.28024,74.669403 229,73.278982 229,65.724504 c 0,-7.675275 -0.25275,-8.883512 -2.25,-10.755619 -2.01211,-1.886043 -2.08225,-2.233775 -0.66334,-3.288955 0.87266,-0.648961 2.12599,-2.19243 2.78518,-3.42993 1.53774,-2.886814 4.37364,-2.888097 5.64103,-0.0026 0.60423,1.375683 2.1508,2.446193 3.98713,2.75982 3.67467,0.627599 4.02933,3.350347 0.5,3.838549 -4.23837,0.586283 -5,1.965456 -5,9.05412 C 234,71.231534 235.74164,75 239.13003,75 c 1.38026,0 1.91197,0.552223 1.68498,1.75 -0.54728,2.887896 -6.87772,2.876597 -9.59624,-0.01713 z M 248,59 l 0,-20 2.5,0 c 2.42276,0 2.5,0.211111 2.5,6.833333 0,3.758334 0.28205,7.115387 0.62678,7.460118 0.34474,0.344731 1.89739,-0.03027 3.45034,-0.833333 5.9196,-3.061144 12.02599,-0.896545 13.44062,4.764446 0.31273,1.25149 0.43668,6.550436 0.27543,11.775436 -0.28973,9.388487 -0.32252,9.5 -2.79317,9.5 -2.46298,0 -2.5037,-0.13328 -2.7498,-9 -0.30135,-10.857319 -0.75355,-13.095442 -2.80491,-13.882622 -2.2865,-0.877411 -6.86686,1.817687 -8.2506,4.85468 C 253.53761,61.914184 253,66.672932 253,71.047053 253,78.86353 252.9571,79 250.5,79 l -2.5,0 0,-20 z m 31.62728,18.471085 c -0.80464,-2.096858 -0.82152,-22.801329 -0.0203,-24.889298 0.76482,-1.993084 3.76047,-2.04888 5.37776,-0.100164 1.08623,1.308831 1.47633,1.308831 3.34495,0 C 291.47124,50.2812 295,50.555434 295,53 c 0,1.314212 -0.66667,2 -1.94424,2 -1.06933,0 -3.20683,1.084391 -4.75,2.409759 -2.61461,2.245588 -2.83982,3.046086 -3.30576,11.75 -0.45886,8.571771 -0.67465,9.36516 -2.62272,9.643113 -1.25203,0.17864 -2.38002,-0.367631 -2.75,-1.331787 z m 25.13529,-0.03647 C 301.00846,75.397653 299,71.06375 299,65 c 0,-9.135727 4.51682,-14 13,-14 8.34946,0 13.23077,5.16511 13.23077,14 0,5.764157 -2.34735,10.491806 -6.19804,12.483073 -3.70007,1.913381 -10.69829,1.889615 -14.27016,-0.04846 z m 11.78288,-4.889157 C 318.50866,70.582251 319,69.071829 319,65 319,60.928171 318.50866,59.417749 316.54545,57.454545 315.19545,56.104545 313.15,55 312,55 c -1.15,0 -3.19545,1.104545 -4.54545,2.454545 C 305.49134,59.417749 305,60.928171 305,65 c 0,4.071829 0.49134,5.582251 2.45455,7.545455 C 308.80455,73.895455 310.85,75 312,75 c 1.15,0 3.19545,-1.104545 4.54545,-2.454545 z m 18.09206,1.76139 C 332.07799,66.425123 329,54.666408 329,52.770099 c 0,-2.325792 3.63836,-2.340956 4.82253,-0.0201 0.4911,0.9625 1.7035,4.805178 2.69424,8.539284 0.99074,3.734106 2.14899,7.004142 2.57389,7.266746 0.4249,0.262605 2.04083,-3.467573 3.59094,-8.289283 2.55598,-7.950489 3.07017,-8.795796 5.52244,-9.078735 2.84318,-0.32804 3.33714,0.711746 6.56161,13.811988 0.47382,1.925 1.24483,3.5 1.71337,3.5 0.46854,0 2.01493,-3.385024 3.43643,-7.522275 C 362.92751,52.211189 363.61258,51 365.55902,51 c 2.03673,0 1.80713,2.350306 -1.12311,11.496591 C 359.36876,78.312884 359.03638,79 356.45248,79 c -2.81053,0 -3.54109,-1.269769 -5.90399,-10.261546 -0.97726,-3.71885 -2.1332,-6.981789 -2.56875,-7.250976 -0.43555,-0.269187 -2.07168,3.448509 -3.63583,8.261546 -2.55596,7.864937 -3.1123,8.782044 -5.49466,9.057821 -2.36987,0.274331 -2.81616,-0.202503 -4.21174,-4.5 z M 372.63837,77.5 C 371.65017,74.92477 373.08802,73 376,73 c 1.55397,0 3.04057,0.663337 3.36163,1.5 0.9882,2.57523 -0.44965,4.5 -3.36163,4.5 -1.55397,0 -3.04057,-0.663337 -3.36163,-1.5 z M 406.25,77.968838 C 405.0125,77.471424 404,76.313782 404,75.3963 c 0,-1.406133 0.7195,-1.569529 4.58079,-1.04028 5.2703,0.722374 8.41921,-0.550703 8.41921,-3.403814 0,-1.431634 -1.49469,-2.638449 -5.41532,-4.372339 -7.889,-3.48889 -9.82173,-8.433726 -5.13013,-13.125322 3.99945,-3.999454 15.80331,-3.174849 14.20422,0.992293 -0.49518,1.290423 -1.39843,1.505026 -4.15668,0.987577 C 412.7962,54.739184 410,56.103992 410,58.60805 c 0,0.749738 2.69204,2.722099 5.98232,4.383026 6.31975,3.190197 7.83892,5.600698 6.6116,10.490735 -1.1406,4.544534 -10.08898,7.001204 -16.34392,4.487027 z m -16.5302,-33.25665 c -0.7929,-2.066257 0.7554,-3.959904 2.90003,-3.546886 2.65685,0.511663 2.46124,4.25179 -0.24255,4.63757 -1.1675,0.16658 -2.36337,-0.324228 -2.65748,-1.090684 z"
       id="path4737"
       inkscape:connector-curvature="0" />
    <path
       style="fill:#898989"
       d="m 381.07389,87.589028 c -1.52732,-1.840303 0.38502,-3.124414 4.07634,-2.737218 1.45829,0.152966 3.03356,-0.313615 3.5006,-1.036846 C 389.11787,83.091734 389.725,75.525 390,67 c 0.47312,-14.666667 0.60753,-15.5 2.5,-15.5 1.90679,0 2.01281,0.75829 2.27487,16.270585 0.27289,16.153444 0.25702,16.288435 -2.20455,18.75 -2.83294,2.832947 -9.51652,3.454097 -11.49643,1.068443 z M 124.29855,77.040484 c -8.67664,-5.290456 -8.31477,-19.878017 0.60757,-24.491935 3.80504,-1.967666 9.35685,-1.98104 13.12661,-0.03162 8.29512,4.289571 8.29512,20.676575 0,24.966146 -4.03014,2.084068 -9.90059,1.894891 -13.73418,-0.442589 z m 11.46683,-4.036533 c 2.77356,-2.583961 3.74246,-7.935143 2.2536,-12.446448 -1.95603,-5.926829 -7.30526,-7.362129 -11.56443,-3.102958 C 124.49134,59.417749 124,60.928171 124,65 c 0,4.071829 0.49134,5.582251 2.45455,7.545455 2.97328,2.973285 6.42887,3.14345 9.31083,0.458496 z m 21.25524,3.811656 C 153.94363,69.663922 148.17563,52.524835 148.60953,51.822784 148.88921,51.370253 149.95426,51 150.97631,51 c 1.30376,0 2.38228,1.417412 3.61432,4.75 4.30102,11.63404 5.19915,13.679926 6.14358,13.994737 0.55251,0.184171 2.21598,-2.945553 3.6966,-6.954941 C 167.6226,54.146676 169.51551,51 171.52305,51 c 2.2833,0 1.73066,2.545324 -3.36536,15.5 -4.29149,10.909455 -4.96677,12.028682 -7.43063,12.315607 -2.04903,0.238617 -2.95319,-0.249267 -3.70644,-2 z m 26.96378,0.349587 c -6.78197,-3.571234 -9.13102,-13.684061 -4.70438,-20.252742 5.94523,-8.822137 17.12441,-7.551648 19.76264,2.245981 C 200.73376,65.438702 200.12236,66 191.5904,66 c -7.78874,0 -9.14578,0.674803 -8.08408,4.019916 1.02259,3.221898 6.07273,5.270297 11.12539,4.512603 C 198.22862,73.99313 199,74.157525 199,75.463478 c 0,3.588815 -9.40727,4.654939 -15.0156,1.701716 z m 9.68593,-16.748471 c 0.96724,-2.520577 -2.98066,-5.806635 -6.05049,-5.036158 -2.71139,0.680516 -5.12433,3.994132 -4.10707,5.640102 1.04458,1.690163 9.46945,1.189241 10.15756,-0.603944 z m 15.03091,17.95118 C 208.31556,77.982223 208,71.877544 208,64.801949 c 0,-10.651345 0.26448,-12.96621 1.53725,-13.454615 0.84548,-0.324443 2.30798,0.105041 3.25,0.954408 1.48377,1.337849 2.04697,1.3588 4.21275,0.156717 3.65294,-2.02751 6,-1.815671 6,0.541541 0,1.314212 -0.66667,2 -1.94424,2 -1.06933,0 -3.20683,1.084391 -4.75,2.409759 -2.6141,2.24515 -2.83991,3.047107 -3.30576,11.740145 -0.39462,7.363899 -0.82642,9.392441 -2.04876,9.624811 -0.85182,0.161933 -1.86432,-0.02113 -2.25,-0.406812 z M 231.51666,76.60757 C 229.19746,74.288371 229,73.378723 229,65.01407 229,57.868259 228.68089,55.814775 227.5,55.361626 226.675,55.045044 226,53.982312 226,53 c 0,-0.982312 0.675,-2.045044 1.5,-2.361626 0.825,-0.316583 1.5,-1.234403 1.5,-2.039602 0,-1.252802 3.82792,-3.412256 4.32536,-2.440078 1.73195,3.384823 2.86465,4.42521 5.28158,4.851127 3.57967,0.630816 3.85897,3.356568 0.39306,3.835997 -4.23837,0.586283 -5,1.965456 -5,9.05412 C 234,71.231534 235.74164,75 239.13003,75 c 1.38021,0 1.912,0.552265 1.6851,1.75 -0.55704,2.940538 -6.30352,2.852516 -9.29847,-0.14243 z m 16.92855,1.110256 c -0.2706,-0.705195 -0.36898,-9.592695 -0.21861,-19.75 0.27086,-18.296159 0.29431,-18.470796 2.5234,-18.787377 2.14976,-0.305314 2.25,-0.0072 2.25,6.690983 0,3.855794 0.40316,7.259704 0.89592,7.564244 0.49276,0.304541 2.18026,-0.116129 3.75,-0.934822 3.94331,-2.056614 7.98362,-1.87131 10.32864,0.47371 2.73748,2.737476 3.15545,5.112208 2.81861,16.014009 -0.25841,8.363438 -0.51612,9.531239 -2.17334,9.848393 -2.93505,0.561698 -3.58804,-1.605793 -3.60452,-11.964521 C 264.9974,55.608438 264.04823,53.908953 258.95375,56.019159 254.49006,57.868079 253,61.604941 253,70.95034 253,78.374789 252.84222,79 250.96862,79 c -1.11727,0 -2.2528,-0.576978 -2.52341,-1.282174 z m 32.25603,0.650077 C 280.31556,77.982223 280,71.877544 280,64.801949 c 0,-10.651345 0.26448,-12.96621 1.53725,-13.454615 0.84548,-0.324443 2.30798,0.105041 3.25,0.954408 1.48377,1.337849 2.04697,1.3588 4.21275,0.156717 3.65294,-2.02751 6,-1.815671 6,0.541541 0,1.314212 -0.66667,2 -1.94424,2 -1.06933,0 -3.20683,1.084391 -4.75,2.409759 -2.6141,2.24515 -2.83991,3.047107 -3.30576,11.740145 -0.39462,7.363899 -0.82642,9.392441 -2.04876,9.624811 -0.85182,0.161933 -1.86432,-0.02113 -2.25,-0.406812 z m 24.59731,-1.327419 c -8.67664,-5.290456 -8.31477,-19.878017 0.60757,-24.491935 6.3904,-3.304606 14.71211,-1.121283 17.69234,4.641847 3.5616,6.88738 1.21848,17.301549 -4.56573,20.292677 -4.03014,2.084068 -9.90059,1.894891 -13.73418,-0.442589 z m 11.46683,-4.036533 c 2.77356,-2.583961 3.74246,-7.935143 2.2536,-12.446448 -1.95603,-5.926829 -7.30526,-7.362129 -11.56443,-3.102958 C 305.49134,59.417749 305,60.928171 305,65 c 0,4.071829 0.49134,5.582251 2.45455,7.545455 2.97328,2.973285 6.42887,3.14345 9.31083,0.458496 z m 19.41726,4.306733 c -1.77807,-3.379415 -7.30268,-24.307443 -6.68188,-25.311918 1.08289,-1.752148 3.51058,-1.074314 4.48135,1.251234 0.51658,1.2375 1.88883,5.555607 3.04944,9.595793 1.16061,4.040186 2.34813,7.107865 2.63893,6.817063 0.2908,-0.290802 1.76273,-4.496408 3.27095,-9.345793 2.46233,-7.917138 3.00884,-8.848906 5.35444,-9.129051 2.73275,-0.326383 3.27823,0.835574 6.45216,13.743969 0.46412,1.887589 1.31319,3.588426 1.88683,3.779638 0.57363,0.191211 2.35296,-3.60318 3.95405,-8.431981 2.02941,-6.12056 3.44111,-8.877563 4.66109,-9.102962 2.40784,-0.444865 2.24945,1.757554 -0.81409,11.319915 -5.24983,16.386511 -5.38139,16.647339 -8.22664,16.309773 -2.32971,-0.276401 -2.80452,-1.125532 -4.85478,-8.682045 -1.24989,-4.606625 -2.57757,-8.656625 -2.95041,-9 -0.77912,-0.717549 -0.98445,-0.255211 -4.38593,9.875681 -2.00989,5.986199 -2.95863,7.562709 -4.70049,7.810684 -1.32216,0.188227 -2.55784,-0.403006 -3.13502,-1.5 z M 373.36163,77.5 c -0.9446,-2.46159 0.41434,-4.5 3,-4.5 1.33341,0 2.68341,0.675 3,1.5 0.9446,2.46159 -0.41434,4.5 -3,4.5 -1.33342,0 -2.68342,-0.675 -3,-1.5 z m 33.75057,0.235258 C 403.4376,75.834316 404.95103,74.5 410.78174,74.5 c 3.60511,0 5.58395,-0.476161 6.23375,-1.5 1.47992,-2.331809 0.74646,-3.287076 -4.85926,-6.32874 -6.78756,-3.68293 -8.81932,-6.656199 -7.20752,-10.547441 1.40562,-3.393464 4.75256,-5.129579 9.84834,-5.108506 4.33883,0.01794 6.6293,1.205636 5.99497,3.108616 -0.29999,0.899983 -1.70143,1.24757 -4.17191,1.034726 C 412.7537,54.825544 410,56.26035 410,58.60805 c 0,0.749738 2.69204,2.722099 5.98232,4.383026 6.31975,3.190197 7.83892,5.600698 6.6116,10.490735 -1.16901,4.65772 -10.0067,7.085786 -15.48172,4.253447 z M 390.36419,44.506689 C 390.01783,43.604071 390.21394,42.386061 390.8,41.8 c 1.52361,-1.523609 4.41041,-0.131088 4.01242,1.935492 -0.4433,2.301882 -3.64766,2.857428 -4.44823,0.771197 z"
       id="path4735"
       inkscape:connector-curvature="0" />
    <path
       style="fill:#747474"
       d="M 381.13112,87.657991 C 379.61607,85.832471 380.70491,85 384.60765,85 c 1.80087,0 3.63837,-0.5625 4.08333,-1.25 C 389.13594,83.0625 389.725,75.525 390,67 c 0.47312,-14.666667 0.60753,-15.5 2.5,-15.5 1.91839,0 2,0.666667 2,16.338415 l 0,16.338415 -2.80576,2.411585 c -3.12323,2.68445 -8.75004,3.254197 -10.56312,1.069576 z M 124.29855,77.040484 c -8.67664,-5.290456 -8.31477,-19.878017 0.60757,-24.491935 9.06757,-4.689027 19.0864,1.846984 19.0864,12.451451 0,10.933756 -10.74006,17.500005 -19.69397,12.040484 z m 11.46683,-4.036533 c 4.70117,-4.379799 3.47909,-15.490609 -1.91235,-17.386679 -7.94362,-2.793621 -13.79777,6.787552 -9.37407,15.342041 2.32594,4.49787 7.62314,5.457506 11.28642,2.044638 z M 156.99073,76.75 c -3.91016,-9.103841 -8.78513,-24.355598 -8.02714,-25.11359 1.98037,-1.980371 3.9678,0.633265 7.06457,9.2905 1.78504,4.9902 3.79921,9.07309 4.47593,9.07309 0.67673,0 2.65924,-3.785749 4.4056,-8.412775 3.28113,-8.693473 5.41549,-11.662044 7.14288,-9.934651 0.92542,0.925415 -7.01164,23.156598 -9.3174,26.097426 -1.56337,1.993968 -4.69247,1.449249 -5.74444,-1 z m 26.99367,0.415194 c -6.78197,-3.571234 -9.13102,-13.684061 -4.70438,-20.252742 4.60354,-6.831203 11.03889,-7.793547 16.38258,-2.449857 2.92573,2.925737 3.41412,4.049814 3.15,7.25 L 198.5,65.5 190.57892,66 c -5.05163,0.318873 -8.06984,0.951077 -8.33173,1.745192 -0.22586,0.684856 1.00059,2.656437 2.72545,4.381292 2.96792,2.967923 3.42812,3.101777 8.58173,2.496072 C 197.87786,74.114415 199,74.273265 199,75.393439 199,76.987842 194.02628,79 190.08518,79 c -1.43901,0 -4.18436,-0.825663 -6.10078,-1.834806 z m 9.66827,-16.702439 C 194.45299,58.377146 191.21589,55 188.41644,55 185.63651,55 183,57.468572 183,60.071429 183,61.720652 183.72878,62 188.03138,62 c 3.60404,0 5.19874,-0.436101 5.62129,-1.537245 z m 15.04857,17.905148 C 208.31556,77.982223 208,71.877544 208,64.801949 c 0,-11.015558 0.23639,-12.955432 1.64461,-13.495814 0.98116,-0.376509 2.14604,0.05465 2.8876,1.068804 1.16911,1.598857 1.45832,1.597222 4.86541,-0.02751 2.64016,-1.259005 3.92145,-1.428358 4.72526,-0.624551 C 223.55459,53.154593 222.38831,55 220.05177,55 c -1.00661,0 -2.89255,0.858628 -4.19099,1.908063 -2.11525,1.709616 -2.41278,2.930632 -2.86078,11.740003 -0.39754,7.817211 -0.81737,9.892301 -2.04876,10.126506 -0.85182,0.162012 -1.86432,-0.02099 -2.25,-0.406669 z M 231.51666,76.60757 C 229.19746,74.288371 229,73.378723 229,65.01407 229,57.868259 228.68089,55.814775 227.5,55.361626 226.675,55.045044 226,53.982312 226,53 c 0,-0.982312 0.675,-2.045044 1.5,-2.361626 0.825,-0.316583 1.5,-1.216583 1.5,-2 C 229,47.44266 230.97205,46 232.60654,46 c 0.24363,0 0.85846,1.092856 1.3663,2.428569 0.61864,1.627153 1.84796,2.534639 3.72525,2.75 3.8085,0.436906 3.6676,3.152802 -0.19809,3.818099 -2.96064,0.509536 -3.00395,0.607791 -3.30091,7.488904 -0.40029,9.275334 0.17148,11.099356 3.88507,12.393923 3.85013,1.342161 3.35652,3.512254 -0.89451,3.932621 -2.30945,0.228372 -3.83157,-0.363132 -5.67299,-2.204546 z m 16.95691,1.184163 C 248.18737,77.045889 248.07623,68.125131 248.2266,57.967826 248.48878,40.2578 248.58207,39.5 250.5,39.5 c 1.78907,0 2.03099,0.764603 2.29381,7.25 0.16159,3.9875 0.67266,7.25 1.13569,7.25 0.46304,0 2.13082,-0.672228 3.70619,-1.493839 3.914,-2.041293 6.61412,-1.8841 9.72945,0.566419 2.5726,2.023609 2.63486,2.343329 2.63486,13.531385 0,9.584172 -0.26191,11.559308 -1.60092,12.073137 C 265.79044,79.678131 265.0315,77.047905 265.01531,66.95 264.99961,57.157911 264.25227,55 260.87673,55 c -0.94781,0 -3.09126,1.151083 -4.76325,2.557963 -2.92976,2.465235 -3.05036,2.890768 -3.32672,11.738573 -0.24426,7.81981 -0.5466,9.230314 -2.03978,9.515943 -0.96417,0.184434 -1.9872,-0.274902 -2.27341,-1.020746 z m 32.22767,0.57617 C 280.31556,77.982223 280,71.877544 280,64.801949 c 0,-11.015558 0.23639,-12.955432 1.64461,-13.495814 0.98116,-0.376509 2.14604,0.05465 2.8876,1.068804 1.16911,1.598857 1.45832,1.597222 4.86541,-0.02751 2.64016,-1.259005 3.92145,-1.428358 4.72526,-0.624551 C 295.55459,53.154593 294.38831,55 292.05177,55 c -1.00661,0 -2.89255,0.858628 -4.19099,1.908063 -2.11525,1.709616 -2.41278,2.930632 -2.86078,11.740003 -0.39754,7.817211 -0.81737,9.892301 -2.04876,10.126506 -0.85182,0.162012 -1.86432,-0.02099 -2.25,-0.406669 z m 24.59731,-1.327419 c -8.67664,-5.290456 -8.31477,-19.878017 0.60757,-24.491935 9.06757,-4.689027 19.0864,1.846984 19.0864,12.451451 0,10.933756 -10.74006,17.500005 -19.69397,12.040484 z m 11.46683,-4.036533 c 4.70117,-4.379799 3.47909,-15.490609 -1.91235,-17.386679 -7.94362,-2.793621 -13.79777,6.787552 -9.37407,15.342041 2.32594,4.49787 7.62314,5.457506 11.28642,2.044638 z M 336.15016,77.25 c -0.50611,-0.9625 -2.36212,-6.862329 -4.12445,-13.11073 -2.32401,-8.239822 -2.90305,-11.661926 -2.10784,-12.457143 1.80484,-1.80484 3.69903,1.132826 5.95748,9.239344 1.13717,4.081809 2.4988,7.852677 3.02583,8.379707 0.61098,0.610981 2.01456,-2.440872 3.87312,-8.421471 2.08366,-6.704938 3.41724,-9.477741 4.67651,-9.723487 2.65764,-0.518637 3.44569,0.798086 5.84651,9.768755 1.21147,4.526689 2.63728,8.307898 3.16845,8.402685 0.53118,0.09479 2.33118,-3.87766 4,-8.82766 2.01769,-5.984789 3.53677,-9 4.53423,-9 2.17124,0 1.55107,3.613677 -2.77839,16.189678 C 358.86114,77.450988 358.26414,78.5 356.06937,78.5 c -2.2004,0 -2.6476,-0.79766 -4.72147,-8.42147 -1.25996,-4.631809 -2.7172,-8.847825 -3.2383,-9.368925 -0.5966,-0.596607 -1.92135,2.135493 -3.57745,7.377952 -1.44649,4.578974 -3.11308,8.907491 -3.70352,9.618925 -1.5048,1.813182 -3.5921,1.609523 -4.67847,-0.456482 z m 37.23838,0.320137 c -0.99567,-2.594671 0.39988,-4.739185 2.85699,-4.390274 C 377.89826,73.414553 378.5,74.167272 378.5,76 c 0,1.832728 -0.60174,2.585447 -2.25447,2.820137 -1.35228,0.192025 -2.49559,-0.308199 -2.85699,-1.25 z m 33.72366,0.221267 c -3.74151,-2.023534 -2.52635,-3.323863 2.76879,-2.962852 3.52335,0.240214 5.27468,-0.127081 6.51367,-1.366072 2.40777,-2.407771 1.67434,-3.58295 -4.23843,-6.79122 -6.78756,-3.68293 -8.81932,-6.656199 -7.20752,-10.547441 1.88791,-4.557807 9.26867,-6.6834 14.14504,-4.073646 C 422.04979,53.632196 420.41281,55 415.56343,55 c -7.9064,0 -8.48126,4.720256 -0.92625,7.60554 4.73596,1.808679 8.36282,5.483564 8.36282,8.473555 0,0.995158 -1.02735,3.003741 -2.283,4.463519 -2.70621,3.146162 -9.78277,4.315874 -13.6048,2.24879 z M 390.36419,44.506689 C 390.01783,43.604071 390.21394,42.386061 390.8,41.8 c 1.52361,-1.523609 4.41041,-0.131088 4.01242,1.935492 -0.4433,2.301882 -3.64766,2.857428 -4.44823,0.771197 z"
       id="path4733"
       inkscape:connector-curvature="0" />
    <path
       style="fill:#707070"
       d="M 382.25,88.337719 C 379.59307,87.265623 380.98459,85 384.3,85 c 5.37577,0 5.69848,-0.957061 5.71531,-16.95 0.0158,-15.036806 0.58714,-17.800269 3.45265,-16.70067 1.48289,0.569038 1.63411,2.442282 1.35092,16.734632 L 394.5,84.177831 l -2.80576,2.411084 c -2.60959,2.242501 -6.45572,2.954696 -9.44424,1.748804 z M 125.21639,77.495002 C 121.68553,75.960855 118.04392,69.616891 118.04392,65 c 0,-4.797885 3.63859,-10.969399 7.39192,-12.537639 9.65448,-4.033899 18.55668,1.980787 18.55668,12.537639 0,10.585436 -9.15273,16.676331 -18.77613,12.495002 z m 11.32906,-4.949547 C 138.50866,70.582251 139,69.071829 139,65 c 0,-4.071829 -0.49134,-5.582251 -2.45455,-7.545455 -3.94164,-3.941647 -9.59951,-3.184462 -12.08244,1.616976 -1.87101,3.618146 -1.8648,8.250828 0.016,11.887792 2.46792,4.772439 8.13523,5.517406 12.06649,1.586142 z M 158.23909,77.75 C 156.89818,76.083528 149,54.439613 149,52.431497 c 0,-0.957088 0.68006,-1.447178 1.72807,-1.24535 1.11913,0.215525 2.71584,2.972334 4.53119,7.823325 4.71003,12.586216 4.66643,12.508862 6.14514,10.902468 0.71484,-0.776567 2.76939,-5.130704 4.56567,-9.675859 3.36142,-8.505485 4.53085,-10.135161 6.12725,-8.538756 0.56408,0.56408 -0.88633,5.566476 -3.72951,12.862867 C 163.40858,77.286967 162.4752,79 160.5,79 c -0.69031,0 -1.70772,-0.5625 -2.26091,-1.25 z m 27.1761,-0.171412 c -6.92488,-3.015094 -9.82288,-10.604072 -6.936,-18.163257 1.92343,-5.036443 4.60583,-7.230314 9.8885,-8.087574 3.14596,-0.510518 4.01371,-0.146355 7.16837,3.008302 3.0533,3.053302 3.54246,4.154562 3.27654,7.376536 L 198.5,65.5 190.57892,66 c -5.05163,0.318873 -8.06984,0.951077 -8.33173,1.745192 -0.22586,0.684856 1.00182,2.657661 2.72817,4.384011 2.94619,2.94619 3.47285,3.104344 8.58173,2.577061 6.27928,-0.64808 7.68839,1.315306 2.29369,3.195911 -4.06219,1.416085 -6.62235,1.3367 -10.43559,-0.323587 z m 9.11199,-16.622564 c 0.35487,-0.574187 -0.0789,-2.149187 -0.96404,-3.5 C 190.69448,53.077888 183,54.983019 183,60.071429 183,61.739889 183.73384,62 188.44098,62 c 2.99254,0 5.73133,-0.469789 6.0862,-1.043976 z m 14.09865,16.511281 c -0.80358,-2.094095 -0.81926,-22.799669 -0.0188,-24.885518 0.79383,-2.068695 3.04712,-2.022282 4.22757,0.08708 0.86882,1.55249 1.19333,1.545783 4.65351,-0.09618 2.50195,-1.187252 4.04988,-1.434732 4.72862,-0.755998 1.3517,1.35174 0.10608,3.183311 -2.16496,3.183311 -1.00661,0 -2.89255,0.858628 -4.19099,1.908063 -2.11525,1.709616 -2.41278,2.930632 -2.86078,11.740003 -0.40814,8.025613 -0.79839,9.888725 -2.12417,10.141029 -0.8933,0.169999 -1.9058,-0.424807 -2.25,-1.32179 z m 23.80852,-0.770116 c -2.62449,-2.257495 -2.83362,-3.015529 -3.25324,-11.792387 -0.33764,-7.061949 -0.84787,-9.691785 -2.06478,-10.642305 -1.47429,-1.151548 -1.47689,-1.372347 -0.0297,-2.512497 0.87266,-0.6875 2.12599,-2.2625 2.78518,-3.5 1.55222,-2.913984 2.94833,-2.853194 4.101,0.178569 0.61864,1.627153 1.84796,2.534639 3.72525,2.75 3.8085,0.436906 3.6676,3.152802 -0.19809,3.818099 -2.96064,0.509536 -3.00395,0.607791 -3.30091,7.488904 -0.40029,9.275334 0.17148,11.099356 3.88507,12.393923 3.60759,1.25761 3.44247,3.479501 -0.29171,3.925389 -1.59287,0.190201 -3.60834,-0.602617 -5.3581,-2.107695 z M 249.2125,77.8125 c -1.91392,-1.913922 -1.69294,-36.168879 0.2437,-37.776145 2.52728,-2.09746 3.5438,-0.130856 3.5438,6.855995 0,3.725874 0.2744,7.048715 0.60977,7.384091 0.33538,0.335375 2.24122,-0.264625 4.23519,-1.333334 4.6067,-2.469043 6.25035,-2.44258 9.55108,0.153777 2.64845,2.083274 2.66393,2.172519 2.38486,13.75 C 269.55029,76.413699 269.23145,78.5 268,78.5 c -1.20635,0 -1.59788,-2.055556 -2,-10.5 -0.275,-5.775 -0.86406,-11.0625 -1.30902,-11.75 -1.32051,-2.040311 -5.32377,-1.429863 -8.5775,1.307963 -2.92618,2.462225 -3.0507,2.898973 -3.32672,11.66911 -0.28264,8.980143 -1.13416,11.025524 -3.57426,8.585427 z m 31.41333,-0.345195 c -0.80358,-2.094095 -0.81926,-22.799669 -0.0188,-24.885518 0.79383,-2.068695 3.04712,-2.022282 4.22757,0.08708 0.86882,1.55249 1.19333,1.545783 4.65351,-0.09618 2.50195,-1.187252 4.04988,-1.434732 4.72862,-0.755998 1.3517,1.35174 0.10608,3.183311 -2.16496,3.183311 -1.00661,0 -2.89255,0.858628 -4.19099,1.908063 -2.11525,1.709616 -2.41278,2.930632 -2.86078,11.740003 -0.40814,8.025613 -0.79839,9.888725 -2.12417,10.141029 -0.8933,0.169999 -1.9058,-0.424807 -2.25,-1.32179 z m 25.59056,0.0277 C 302.68553,75.960855 299.04392,69.616891 299.04392,65 c 0,-4.797885 3.63859,-10.969399 7.39192,-12.537639 9.65448,-4.033899 18.55668,1.980787 18.55668,12.537639 0,10.585436 -9.15273,16.676331 -18.77613,12.495002 z m 11.32906,-4.949547 C 319.50866,70.582251 320,69.071829 320,65 c 0,-4.071829 -0.49134,-5.582251 -2.45455,-7.545455 -3.94164,-3.941647 -9.59951,-3.184462 -12.08244,1.616976 -1.87101,3.618146 -1.8648,8.250828 0.0159,11.887792 2.46792,4.772439 8.13523,5.517406 12.06649,1.586142 z m 19.83748,5.689232 c -1.67235,-1.09989 -8.44123,-25.566521 -7.3708,-26.642305 1.66426,-1.672574 3.66284,1.301411 5.48148,8.156672 3.38571,12.762303 4.25554,12.845444 7.85207,0.75052 2.37223,-7.977683 4.60524,-10.948656 6.67411,-8.879782 0.59116,0.591161 2.06605,4.82119 3.27753,9.400064 1.21147,4.578875 2.73008,8.498383 3.37468,8.710018 0.71525,0.234832 2.17397,-2.900152 3.74303,-8.044315 2.52778,-8.2873 4.74022,-11.861412 6.04028,-9.757862 0.34836,0.563648 -1.29908,6.772999 -3.66097,13.798559 C 359.24595,76.28114 358.15981,78.5 356.54156,78.5 c -2.08248,0 -3.1023,-2.161551 -6.01546,-12.75 -0.87008,-3.1625 -1.99982,-5.75 -2.51053,-5.75 -0.51071,0 -2.09515,3.692917 -3.52098,8.206482 -3.21897,10.189836 -4.37893,11.8255 -7.11166,10.028205 z m 36.27573,-0.681815 c -0.96061,-2.503322 0.40188,-4.686298 2.71862,-4.355744 C 377.89408,73.413547 378.5,74.213609 378.5,76 c 0,2.913686 -3.84579,4.147233 -4.84134,1.552872 z m 34.34659,0.602651 c -1.37211,-0.408767 -2.6392,-1.493286 -2.81575,-2.410041 -0.27715,-1.439122 0.3686,-1.585153 4.72699,-1.068967 C 415.43232,75.329784 418,74.117927 418,70.861377 418,69.642118 416.66439,68.361832 414.25,67.266701 406.97629,63.96746 405,62.11299 405,58.586893 c 0,-4.1324 2.62772,-6.593144 7.77823,-7.283973 4.09414,-0.549139 8.70918,1.09942 7.69076,2.747253 C 420.14613,54.572578 417.93862,55 415.56343,55 c -7.9064,0 -8.48126,4.720256 -0.92625,7.60554 4.73596,1.808679 8.36282,5.483564 8.36282,8.473555 0,0.995158 -1.0132,2.987297 -2.25156,4.426975 -2.42635,2.820798 -8.16385,4.013689 -12.74319,2.649453 z m -17.2869,-33.447115 c -0.29332,-0.764376 -0.17036,-1.977041 0.27325,-2.694809 1.12175,-1.815045 4.23204,-0.413366 3.82082,1.721893 -0.41574,2.158771 -3.36965,2.860738 -4.09407,0.972916 z"
       id="path4731"
       inkscape:connector-curvature="0" />
    <path
       style="fill:#5d5d5d"
       d="M 382.25,88.383565 C 379.62126,87.226433 380.97019,85 384.3,85 c 5.37577,0 5.69848,-0.957061 5.71531,-16.95 0.015,-14.281127 0.65603,-17.98919 2.87289,-16.619098 0.73997,0.457331 1.1118,5.981294 1.1118,16.517331 0,13.594019 -0.24721,16.132666 -1.75,17.971397 -1.72636,2.11227 -7.54303,3.54546 -10,2.463935 z M 125.21639,77.495002 c -2.25776,-0.98099 -3.89107,-2.765136 -5.22803,-5.710858 -2.53132,-5.577216 -2.47809,-8.389198 0.26164,-13.822254 1.80909,-3.587536 3.08283,-4.749789 6.5,-5.931056 3.73813,-1.292221 4.75617,-1.292221 8.45271,0 10.29447,3.598697 11.26506,20.672123 1.44021,25.334321 -4.17532,1.981322 -7.08912,2.014433 -11.42653,0.129847 z m 11.32906,-4.949547 C 138.50866,70.582251 139,69.071829 139,65 c 0,-6.19298 -3.04562,-10 -8,-10 -4.95438,0 -8,3.80702 -8,10 0,6.19298 3.04562,10 8,10 1.94837,0 3.99822,-0.907308 5.54545,-2.454545 z m 21.72923,5.247434 C 156.93695,76.132096 149,54.491452 149,52.504821 149,51.677169 149.43963,51 149.97695,51 c 1.43292,0 3.43898,3.650736 6.04443,11 4.06176,11.457081 4.53264,11.379117 9.8921,-1.637818 3.39473,-8.245034 6.14585,-11.751622 6.03758,-7.695515 -0.0269,1.008333 -2.17261,7.228749 -4.76821,13.823145 -4.64165,11.792604 -6.55667,14.222457 -8.90817,11.303077 z m 26.7964,-0.496357 c -7.26954,-3.808778 -9.64569,-10.948427 -6.22065,-18.691298 4.91563,-11.112612 18.66814,-9.060909 19.40353,2.894766 l 0.24604,4 -8.25,0.290442 c -7.49364,0.263815 -8.25,0.474263 -8.25,2.295455 0,1.102757 1.15757,3.16258 2.57237,4.577386 2.28174,2.281738 3.18561,2.52152 8,2.122273 C 196.53635,74.456832 198,74.67881 198,75.60871 c 0,3.077897 -8.22612,4.151786 -12.92892,1.687822 z m 9.4561,-16.340508 c 0.35487,-0.574187 -0.0789,-2.149187 -0.96404,-3.5 C 192.36843,55.632666 191.06418,55 188.5,55 c -2.56418,0 -3.86843,0.632666 -5.06314,2.456024 C 181.15556,60.937722 182.33921,62 188.5,62 c 2.96008,0 5.67231,-0.469789 6.02718,-1.043976 z m 14.09603,16.504453 C 207.59074,74.769917 207.95319,53.612914 209.05937,52 c 0.88141,-1.285167 1.25029,-1.184451 2.5756,0.703218 l 1.54685,2.203218 3.56946,-1.913119 c 1.96321,-1.052215 3.9473,-1.679605 4.40909,-1.3942 C 222.76836,52.592905 221.98653,55 220.05576,55 c -1.06933,0 -3.20683,1.084391 -4.75,2.409759 -2.61049,2.24205 -2.84056,3.05429 -3.30576,11.670884 -0.47465,8.791637 -1.88025,12.279761 -3.37679,8.379834 z m 23.81013,-0.764158 c -2.62329,-2.256455 -2.83265,-3.015538 -3.25223,-11.791517 -0.33981,-7.107372 -0.84004,-9.667155 -2.06478,-10.56588 -1.4783,-1.084785 -1.46296,-1.342044 0.17963,-3.012497 0.98778,-1.004534 2.41072,-2.721929 3.16208,-3.816434 1.33126,-1.93922 1.39737,-1.921436 2.59032,0.696805 0.88421,1.940626 2.08895,2.771019 4.33792,2.99001 4.29709,0.418423 4.19231,3.199199 -0.13628,3.616552 l -3.25,0.313359 0,8.736641 C 234,72.924504 234.7964,75 238.27332,75 c 2.62907,0 1.80796,3.413763 -0.91498,3.804015 -1.16667,0.167207 -3.38292,-0.781255 -4.925,-2.107696 z m 16.74287,1.079887 C 247.4039,76.003898 247.53872,41.627715 249.32379,40.146238 251.70409,38.17077 253,41.009829 253,48.2 c 0,3.74 0.21114,6.8 0.46921,6.8 0.25806,0 2.27377,-0.940595 4.47936,-2.090212 3.10375,-1.617766 4.6364,-1.882451 6.7808,-1.171031 4.36336,1.447581 5.30625,4.499888 5.02326,16.261243 -0.20582,8.554385 -0.53058,10.5 -1.75263,10.5 -1.20635,0 -1.59788,-2.055556 -2,-10.5 -0.275,-5.775 -0.86406,-11.0625 -1.30902,-11.75 -1.34221,-2.073836 -6.20784,-1.427099 -9.04496,1.202251 C 253.18807,59.730206 253,60.503339 253,68.329806 c 0,8.756375 -1.30065,11.969541 -3.82379,9.4464 z m 31.447,-0.315729 C 279.59074,74.769917 279.95319,53.612914 281.05937,52 c 0.88141,-1.285167 1.25029,-1.184451 2.5756,0.703218 l 1.54685,2.203218 3.56946,-1.913119 c 1.96321,-1.052215 3.9473,-1.679605 4.40909,-1.3942 C 294.76836,52.592905 293.98653,55 292.05576,55 c -1.06933,0 -3.20683,1.084391 -4.75,2.409759 -2.61049,2.24205 -2.84056,3.05429 -3.30576,11.670884 -0.47465,8.791637 -1.88025,12.279761 -3.37679,8.379834 z m 25.59318,0.03453 c -2.25776,-0.98099 -3.89107,-2.765136 -5.22803,-5.710858 -2.53132,-5.577216 -2.47809,-8.389198 0.26164,-13.822254 1.80909,-3.587536 3.08283,-4.749789 6.5,-5.931056 3.73813,-1.292221 4.75617,-1.292221 8.45271,0 10.29447,3.598697 11.26506,20.672123 1.44021,25.334321 -4.17532,1.981322 -7.08912,2.014433 -11.42653,0.129847 z M 317.54545,72.54546 C 319.50866,70.582251 320,69.071829 320,65 c 0,-6.19298 -3.04562,-10 -8,-10 -4.95438,0 -8,3.80702 -8,10 0,6.19298 3.04562,10 8,10 1.94837,0 3.99822,-0.907308 5.54545,-2.454545 z m 19.83748,5.688289 C 335.653,77.097443 328.9433,52.666524 330.05452,51.55 c 1.57404,-1.581559 2.80132,0.55686 5.3491,9.320285 1.3226,4.54927 2.68035,8.547021 3.01722,8.883891 1.18396,1.183954 2.57235,-1.398006 4.72683,-8.790357 3.83075,-13.143904 6.21118,-13.012982 9.85388,0.541956 C 354.37777,66.626843 355.79946,70 356.58162,70 c 0.75648,0 2.36193,-3.490225 3.8509,-8.371773 C 362.87376,53.624641 366,48.470195 366,52.448733 c 0,3.508406 -7.40598,25.493078 -8.76332,26.013938 -2.70749,1.038962 -3.02162,0.440579 -6.70917,-12.780153 -0.99224,-3.557449 -2.08975,-5.666901 -2.82506,-5.429875 -0.66135,0.213184 -2.55245,4.37803 -4.20245,9.255214 -2.96614,8.767536 -3.9396,10.156152 -6.11707,8.725887 z M 373.63837,77.5 C 372.78184,75.267921 373.97206,73 376,73 c 2.02794,0 3.21816,2.267921 2.36163,4.5 -0.31659,0.825 -1.37932,1.5 -2.36163,1.5 -0.98231,0 -2.04504,-0.675 -2.36163,-1.5 z m 34.36688,0.606475 c -1.37211,-0.381791 -2.6392,-1.444238 -2.81575,-2.360993 -0.27715,-1.439122 0.3686,-1.585153 4.72699,-1.068967 C 415.43232,75.329784 418,74.117927 418,70.861377 418,69.642118 416.66439,68.361832 414.25,67.266701 406.97629,63.96746 405,62.11299 405,58.586893 c 0,-3.981813 2.48521,-6.466817 7.23882,-7.238222 3.51402,-0.570248 7.76118,0.899894 7.76118,2.686513 0,0.530649 -1.9125,0.971707 -4.25,0.980129 -8.85763,0.03191 -9.11213,4.064811 -0.51655,8.185658 6.08631,2.917867 7.591,5.378041 6.33937,10.364927 -1.02653,4.08999 -7.45505,6.241387 -13.56757,4.540577 z M 390.69951,44.659316 c -0.28296,-0.737376 -0.12484,-1.971114 0.35137,-2.741641 1.16692,-1.888118 3.45714,0.316059 2.61329,2.515108 -0.73691,1.920348 -2.26974,2.037473 -2.96466,0.226533 z"
       id="path4729"
       inkscape:connector-curvature="0" />
    <path
       style="fill:#181818"
       d="m 382,87 c 0,-0.55 1.28026,-1 2.84501,-1 C 390.34124,86 391,83.975868 391,67.087926 c 0,-11.760622 0.2863,-15.15856 1.25,-14.835315 0.92936,0.311728 1.25,4.460398 1.25,16.173477 0,15.350744 -0.0605,15.80311 -2.36078,17.664056 C 388.68144,88.078465 382,88.743637 382,87 Z M 124.76257,76.434612 c -7.80215,-4.233403 -7.67165,-18.844669 0.2047,-22.917685 3.73865,-1.933331 8.32681,-1.933331 12.06546,0 7.9902,4.131892 7.9902,18.834254 0,22.966146 -3.67964,1.902818 -8.71058,1.882948 -12.27016,-0.04846 z m 11.71661,-2.822884 c 3.01324,-3.013239 4.06815,-8.423278 2.54335,-13.043447 -2.904,-8.799216 -13.14106,-8.799216 -16.04506,0 C 120.53634,67.964976 124.71353,76 131,76 c 1.92508,0 3.99172,-0.900811 5.47918,-2.388272 z m 21.83156,3.181161 c -1.04919,-1.349292 -8.3732,-21.567267 -8.42884,-23.267889 -0.0892,-2.726649 2.01528,-1.072107 3.42313,2.691249 0.88139,2.356063 2.55566,6.871251 3.7206,10.033751 1.16494,3.1625 2.71351,5.75 3.44127,5.75 0.73666,0 2.95662,-4.100292 5.00809,-9.25 3.70498,-9.30046 5.01763,-11.590715 6.05093,-10.557415 0.98181,0.981809 -9.23444,25.29295 -10.75799,25.600304 -0.79852,0.161088 -1.90425,-0.288912 -2.45719,-1 z M 185.5,77.099425 c -6.76818,-2.980392 -9.66197,-13.333251 -5.55521,-19.874351 3.68444,-5.868446 10.52505,-6.909083 15.13213,-2.301997 2.14117,2.141163 2.92308,3.879892 2.92308,6.5 L 198,65 l -7.37756,0 c -8.78418,0 -10.89617,1.407098 -8.2268,5.481067 2.87052,4.380964 6.12493,5.856494 11.34036,5.141641 3.46318,-0.474683 4.39074,-0.349449 3.56056,0.480729 -1.46667,1.46667 -9.23772,2.122783 -11.79656,0.995988 z m 9.16284,-15.663195 c 0.94894,-2.472888 -1.34863,-6.319264 -4.20257,-7.035558 -3.52173,-0.883897 -7.26853,0.987207 -8.02683,4.008484 C 181.49094,62.164392 182.61161,63 188.5904,63 c 4.04102,0 5.62932,-0.409019 6.07244,-1.56377 z M 209,65.083333 C 209,57.8875 209.39825,52 209.88499,52 c 1.53562,0 4.24228,4.98834 3.40657,6.278246 -0.43536,0.671965 -1.01656,5.236152 -1.29156,10.142638 -0.32912,5.872023 -0.92721,9.061845 -1.75,9.333333 C 209.29268,78.070095 209,75.103306 209,65.083333 Z M 232,76 c -1.70823,-1.708234 -2,-3.333333 -2,-11.139757 0,-7.519677 -0.3102,-9.38087 -1.75,-10.5 -1.57625,-1.225193 -1.59492,-1.484348 -0.18803,-2.610243 0.85909,-0.6875 1.86841,-2.066022 2.24294,-3.063382 C 231.04233,46.72291 233,47.278893 233,49.452028 233,50.928013 235.13802,52 238.08179,52 239.1368,52 240,52.45 240,53 c 0,0.55 -0.8632,1 -1.91821,1 C 233.42005,54 233,54.79409 233,63.606989 c 0,7.059678 0.31772,8.710736 2,10.393011 1.1,1.1 2.70156,2 3.55902,2 0.85746,0 1.2809,0.45 0.94098,1 -1.04413,1.689444 -5.39001,1.109994 -7.5,-1 z m 17,-17 c 0,-16.222222 0.2193,-19 1.5,-19 1.20056,0 1.5,1.503487 1.5,7.531385 0,5.850281 0.34283,7.662941 1.53589,8.120759 1.38118,0.530009 1.38118,0.825484 0,2.933432 C 252.45776,60.231004 252,63.473484 252,69.464817 252,76.38498 251.71617,78 250.5,78 249.2193,78 249,75.222222 249,59 Z m 17.66667,18.333333 C 266.3,76.966667 266,72.007019 266,66.311895 c 0,-10.07467 -0.0676,-10.385585 -2.5,-11.493849 -1.87016,-0.852101 -3.12984,-0.852101 -5,0 -1.375,0.626492 -2.5,0.770956 -2.5,0.32103 C 256,54.095408 260.55555,52 262.82455,52 c 0.95174,0 2.73057,0.700517 3.95294,1.556704 2.07651,1.45444 2.22251,2.30844 2.22251,13 0,10.471378 -0.46962,12.640343 -2.33333,10.776629 z M 281,65.083333 C 281,57.8875 281.39825,52 281.88499,52 c 1.53562,0 4.24228,4.98834 3.40657,6.278246 -0.43536,0.671965 -1.01656,5.236152 -1.29156,10.142638 -0.32912,5.872023 -0.92721,9.061845 -1.75,9.333333 C 281.29268,78.070095 281,75.103306 281,65.083333 Z m 24.76257,11.351279 c -7.80215,-4.233403 -7.67165,-18.844669 0.2047,-22.917685 5.99244,-3.098812 13.68371,-1.026326 16.5158,4.45034 3.32425,6.428379 1.11011,15.640388 -4.45034,18.515806 -3.67964,1.902818 -8.71058,1.882948 -12.27016,-0.04846 z m 11.71661,-2.822884 c 3.01324,-3.013239 4.06815,-8.423278 2.54335,-13.043447 -2.904,-8.799216 -13.14106,-8.799216 -16.04506,0 C 301.53634,67.964976 305.71353,76 312,76 c 1.92508,0 3.99172,-0.900811 5.47918,-2.388272 z M 335.10877,71.25 c -4.56488,-15.594233 -5.26345,-18.428648 -4.68462,-19.007485 1.18615,-1.186152 2.45161,1.357317 4.85466,9.757485 3.19288,11.161115 4.78023,11.535373 7.64098,1.801551 1.18025,-4.015853 2.57148,-8.314051 3.09162,-9.551551 1.52011,-3.616588 3.79008,-2.713209 5.02552,2 5.10076,19.459521 5.67676,19.71012 10.3432,4.5 1.47646,-4.8125 3.11994,-8.75 3.65218,-8.75 1.34991,0 1.41848,-0.300437 -3.10448,13.60201 -5.07935,15.612664 -6.2694,15.957449 -9.97663,2.89044 -3.33458,-11.753551 -4.95228,-12.225031 -7.87099,-2.294001 C 341.15955,76.136121 340.28831,78 338.56378,78 c -0.96422,0 -2.16691,-2.34967 -3.45501,-6.75 z M 374,76 c 0,-1.333333 0.66667,-2 2,-2 1.33333,0 2,0.666667 2,2 0,1.333333 -0.66667,2 -2,2 -1.33333,0 -2,-0.666667 -2,-2 z m 33.25,0.968838 c -3.69504,-1.485225 -2.56704,-2.07978 2.63626,-1.389539 4.15771,0.55154 5.20142,0.333024 7,-1.465557 3.44682,-3.446826 2.71826,-4.790008 -4.60035,-8.481248 -7.58415,-3.825164 -8.97236,-7.036953 -4.83136,-11.177949 C 409.23964,52.66945 410.99635,52 413.89553,52 c 2.19254,0 4.26455,0.45 4.60447,1 0.37171,0.601441 -0.93795,1 -3.286,1 -4.44442,0 -7.6691,2.650461 -6.60343,5.427556 0.36234,0.944235 3.07114,2.783645 6.01956,4.087576 6.26278,2.769696 8.37064,5.993003 6.54268,10.004946 -1.81893,3.992106 -8.4714,5.639961 -13.92281,3.44876 z M 217.44113,53.581635 C 219.63081,51.797479 222,51.49521 222,53 c 0,0.55 -0.6382,1 -1.41821,1 -0.78002,0 -2.24252,0.261736 -3.25,0.581635 -1.67622,0.532239 -1.66694,0.447314 0.10934,-1 z m 72,0 C 291.63081,51.797479 294,51.49521 294,53 c 0,0.55 -0.6382,1 -1.41821,1 -0.78002,0 -2.24252,0.261736 -3.25,0.581635 -1.67622,0.532239 -1.66694,0.447314 0.10934,-1 z M 391,43.5 c 0,-0.916667 0.48375,-1.505417 1.075,-1.308333 0.59125,0.197083 1.075,0.785833 1.075,1.308333 0,0.5225 -0.48375,1.11125 -1.075,1.308333 C 391.48375,45.005417 391,44.416667 391,43.5 Z"
       id="path4727"
       inkscape:connector-curvature="0" />
  </g>
</svg>
