<?xml version="1.0" encoding="UTF-8" standalone="no"?>
<!-- Created with Inkscape (http://www.inkscape.org/) -->

<svg
   xmlns:dc="http://purl.org/dc/elements/1.1/"
   xmlns:cc="http://creativecommons.org/ns#"
   xmlns:rdf="http://www.w3.org/1999/02/22-rdf-syntax-ns#"
   xmlns:svg="http://www.w3.org/2000/svg"
   xmlns="http://www.w3.org/2000/svg"
   xmlns:xlink="http://www.w3.org/1999/xlink"
   xmlns:sodipodi="http://sodipodi.sourceforge.net/DTD/sodipodi-0.dtd"
   xmlns:inkscape="http://www.inkscape.org/namespaces/inkscape"
   id="svg4255"
   version="1.1"
   inkscape:version="0.91 r13725"
   width="473"
   height="123"
   viewBox="0 0 473 123"
   sodipodi:docname="Preact.bmp.svg">
  <metadata
     id="metadata4261">
    <rdf:RDF>
      <cc:Work
         rdf:about="">
        <dc:format>image/svg+xml</dc:format>
        <dc:type
           rdf:resource="http://purl.org/dc/dcmitype/StillImage" />
        <dc:title></dc:title>
      </cc:Work>
    </rdf:RDF>
  </metadata>
  <defs
     id="defs4259" />
  <sodipodi:namedview
     pagecolor="#ffffff"
     bordercolor="#666666"
     borderopacity="1"
     objecttolerance="10"
     gridtolerance="10"
     guidetolerance="10"
     inkscape:pageopacity="0"
     inkscape:pageshadow="2"
     inkscape:window-width="640"
     inkscape:window-height="480"
     id="namedview4257"
     showgrid="false"
     inkscape:zoom="0.55391121"
     inkscape:cx="236.5"
     inkscape:cy="61.5"
     inkscape:window-x="0"
     inkscape:window-y="0"
     inkscape:window-maximized="0"
     inkscape:current-layer="svg4255" />
  <image
     width="473"
     height="123"
     preserveAspectRatio="none"
     style="image-rendering:optimizeQuality"
     xlink:href="file:///media/havoc/USB%20DISK/pics/_OpsDeps/Preact.bmp"
     id="image4263"
     x="0"
     y="0"
     sodipodi:absref="/media/havoc/USB DISK/pics/_OpsDeps/Preact.bmp" />
  <g
     id="g4688">
    <path
       style="fill:#fdfdfd"
       d="M 0,61.5 0,0 236.5,0 473,0 473,61.5 473,123 236.5,123 0,123 0,61.5 Z"
       id="path4704"
       inkscape:connector-curvature="0" />
    <path
       style="fill:#d5cce4"
       d="M 49.5,106.95109 C 45.65,104.78937 40.025,101.63233 37,99.935463 33.975,98.238593 28.959278,95.421439 25.853951,93.675122 15.175175,87.669787 15.926971,90.095748 16.232609,62.628165 L 16.5,38.597782 23,34.804076 C 32.540483,29.2358 38.701006,25.794891 43.840122,23.164 c 2.509695,-1.2848 5.643013,-3.185474 6.962927,-4.223719 1.319915,-1.038245 3.870528,-2.16362 5.668029,-2.500833 3.567009,-0.669175 3.958153,-0.490172 21.028922,9.62366 5.5,3.258557 12.8125,7.281884 16.25,8.940726 l 6.25,3.016078 0,24.867599 c 0,27.769853 0.57162,25.583471 -7.79096,29.799379 C 89.619068,93.992597 84.575,96.821815 81,98.974041 c -3.575,2.152229 -8.525,4.920919 -11,6.152659 -2.475,1.23174 -5.573186,3.05712 -6.884859,4.05641 -3.399916,2.59021 -5.697728,2.21351 -13.615141,-2.23202 z M 61.488011,65.037773 C 62.278286,62.547837 60.423858,59 58.332112,59 56.742851,59 53,62.582251 53,64.10332 c 0,1.206577 3.222524,2.831997 5.682612,2.866271 1.307766,0.01822 2.432241,-0.756102 2.805399,-1.931818 z m -1.758844,-18.64194 c -0.332292,-0.332291 -1.194792,-0.367818 -1.916667,-0.07895 -0.797733,0.319226 -0.560776,0.556183 0.604167,0.604167 1.054166,0.04342 1.644791,-0.192928 1.3125,-0.52522 z m 92.306013,35.669908 c -0.56935,-1.063842 -1.03742,-6.126342 -1.04015,-11.25 l -0.005,-9.315741 -2.39731,3 c -2.24162,2.805174 -2.93942,3.032471 -10.74503,3.5 l -8.34773,0.5 -0.5,7 c -0.44048,6.166667 -0.7381,7 -2.5,7 -1.92381,0 -2,-0.666667 -2,-17.5 l 0,-17.5 10.5,-0.30058 10.5,-0.300579 2.61492,3.100997 2.61491,3.100997 0.61009,-3.050417 L 151.95,47 l 10.80249,0 c 12.42163,0 14.53568,0.89208 16.33339,6.892317 0.95067,3.173049 0.85981,4.419875 -0.53653,7.362452 -1.33929,2.822338 -1.4771,4.325445 -0.6779,7.393864 0.89914,3.452138 1.48658,9.732471 1.22544,13.101367 -0.14007,1.807027 -3.77215,1.538629 -4.4899,-0.331787 C 174.27314,80.548229 174,77.873746 174,75.474917 174,69.742973 171.61635,68 163.77749,68 L 158,68 l 0,5.4349 c 0,9.051916 -3.23461,13.732269 -5.96482,8.630841 z M 142.77749,62.443296 C 145.25554,60.707605 145.85834,55.258344 143.8,53.2 143.10196,52.501961 139.75556,52 135.8,52 l -6.8,0 0,5.333333 c 0,2.933334 0.3,5.633334 0.66667,6 1.31565,1.315651 10.88968,0.665711 13.11082,-0.890037 z M 170.75,62.01096 C 173.2461,60.489056 174,59.338245 174,57.049882 174,53.161349 171.71536,52 164.06574,52 L 158,52 l 0,5.416667 c 0,3.39766 0.46592,5.604671 1.25,5.921052 2.88565,1.164384 8.47112,0.519987 11.5,-1.326759 z M 182.22625,82.25 c -0.70757,-1.466899 -0.9313,-20.320689 -0.37973,-32 L 182,47 194.5,47 C 206.09784,47 207,47.136624 207,48.893011 207,51.50263 205.14597,52 195.41821,52 L 187,52 l 0,4.5 0,4.5 8.42857,0 c 8.79232,0 12.12894,1.383576 10.92195,4.528939 C 205.90912,66.679214 203.73774,67 196.39301,67 L 187,67 l 0,5.5 0,5.5 9.25,-1.7e-4 9.25,-1.7e-4 3.25,-7.05988 C 210.5375,67.056846 212,63.387843 212,62.786441 212,61.795465 215.89019,52.6881 217.88884,49 c 0.44709,-0.825 1.96033,-1.63808 3.36277,-1.806845 2.27977,-0.27434 2.73131,0.255336 4.26244,5 0.9419,2.918765 2.25453,6.206845 2.91696,7.306845 0.66242,1.1 2.25011,4.925 3.52819,8.5 1.27808,3.575 2.96293,7.539112 3.7441,8.809137 1.93816,3.151067 1.32184,6.690863 -1.16496,6.690863 -1.94155,0 -3.67175,-2.425022 -5.52946,-7.75 C 228.08533,73.102704 227.78765,73 221.03817,73 l -7.01133,0 -1.55156,3.713402 C 209.5088,83.813199 209.07054,84 195.3802,84 184.64479,84 182.9624,83.776176 182.22625,82.25 Z M 224.51389,66.977531 C 225.31737,65.677474 222.14878,56 220.91963,56 220.41383,56 220,56.579851 220,57.288558 c 0,0.708707 -0.89643,3.046855 -1.99207,5.195885 -1.53029,3.001581 -1.70415,4.090177 -0.75,4.696129 1.78399,1.132961 6.51203,1.000658 7.25596,-0.203041 z m 17.17094,13.937101 c -3.87334,-2.565594 -4.913,-3.943883 -6.17144,-8.181501 C 233.71989,66.69378 233.63773,63.873397 235.09875,58.5 238.58813,45.666554 256.69308,41.353492 264.43996,51.510174 267.86628,56.002304 267.90352,60 264.51905,60 262.70254,60 261.869,59.326228 261.40667,57.484184 260.1438,52.452483 253.88232,49.797901 247.5,51.588386 c -1.1,0.308592 -3.2375,2.174911 -4.75,4.147374 -3.52404,4.595726 -3.85477,12.740616 -0.72311,17.807756 4.64394,7.514051 16.3417,6.929728 18.94097,-0.946132 1.58342,-4.797795 3.66487,-6.393224 5.69381,-4.364286 3.01066,3.01066 -1.66275,11.211161 -8.34593,14.644716 C 257.1144,83.495016 253.92905,84 251.23719,84 c -3.79505,0 -5.94049,-0.692965 -9.55236,-3.085368 z M 277.2,82.8 c -0.82523,-0.825225 -1.2,-5.822222 -1.2,-16 l 0,-14.8 -3.91821,0 C 266.87347,52 265,51.178054 265,48.893011 265,47.129555 265.91988,47 278.44098,47 c 9.06228,0 13.67287,0.375194 14.15278,1.151704 C 293.69201,49.928706 290.04013,52 285.80887,52 L 282,52 l 0,14.065741 c 0,16.02543 -1.22792,20.306337 -4.8,16.734259 z"
       id="path4702"
       inkscape:connector-curvature="0" />
    <path
       style="fill:#c5b8dc"
       d="M 48.5,105.37293 C 44.1,102.86185 38.475,99.646449 36,98.227595 33.525,96.808742 29.025,94.308401 26,92.671284 16.272456,87.406778 17,89.813422 17,62.900175 l 0,-23.78985 5.970045,-3.305163 C 41.918894,25.314617 48.857612,21.354086 51.889547,19.298282 56.112544,16.434879 59.498151,16.393805 64,19.15136 c 1.925,1.179136 5.075,3.054743 7,4.168016 1.925,1.113272 6.425,3.737042 10,5.8306 3.575,2.093559 8.89117,4.987384 11.813712,6.430722 3.000728,1.481953 5.645775,3.55904 6.076574,4.771777 0.841918,2.370075 0.541618,43.711354 -0.337639,46.481649 -0.302999,0.954665 -3.363799,3.204137 -6.801777,4.998826 -8.803223,4.595448 -25.863148,14.33317 -28.76172,16.41705 -3.585943,2.57805 -5.647951,2.16861 -14.48915,-2.87707 z m -7,-17.319248 C 42.919608,87.481759 41.709954,87.13941 37.331602,86.873967 32.479218,86.579785 31.385266,86.766685 32.204047,87.75 33.358216,89.136099 38.4041,89.300939 41.5,88.053682 Z M 83.332291,87.75 c 1.423321,-1.037678 0.648964,-1.186479 -4.558871,-0.876033 -4.434247,0.264332 -5.687082,0.610188 -4.27342,1.179715 3.03752,1.223737 6.92034,1.090234 8.832291,-0.303682 z M 29.566055,83.25 C 29.239984,81.7375 29.414727,78.925 29.954372,77 30.848706,73.809771 30.805639,73.671802 29.467773,75.44113 27.357616,78.231812 27.562398,86 29.746122,86 c 0.227034,0 0.146003,-1.2375 -0.180067,-2.75 z m 30.036836,-0.927016 c 3.088619,0.501214 3.241621,0.400903 2.122301,-1.391414 C 60.163727,78.431268 56.536603,78.463397 54,81 c -2.597161,2.597161 -2.542794,3.360862 0.137153,1.926598 1.175433,-0.629073 3.635016,-0.900699 5.465738,-0.603614 z m -6.061772,-6.256453 c -0.362534,-0.586592 -1.420095,-1.052219 -2.350136,-1.034728 -1.484648,0.02792 -1.455849,0.209693 0.236016,1.489668 2.055076,1.55476 3.203454,1.30764 2.11412,-0.45494 z m 12,-0.133062 c 1.089334,-1.76258 -0.05904,-2.0097 -2.11412,-0.45494 -1.691865,1.279975 -1.720664,1.461745 -0.236016,1.489668 0.930041,0.01749 1.987602,-0.448136 2.350136,-1.034728 z M 45.979944,70.475834 c -0.69572,-0.838291 -1.470881,-1.31823 -1.72258,-1.066531 C 43.563866,70.1028 44.972907,72 46.181462,72 c 0.663093,0 0.587231,-0.573782 -0.201518,-1.524166 z M 72,70.5 c 0.694433,-0.83674 0.802716,-1.5 0.244889,-1.5 -0.55,0 -1.5602,0.675 -2.244889,1.5 -0.694433,0.83674 -0.802716,1.5 -0.244889,1.5 0.55,0 1.5602,-0.675 2.244889,-1.5 z M 83.1125,68.7125 C 82.295833,67.895833 82,68.00774 82,69.133333 82,71.12119 83.344703,72.465892 83.841667,70.975 84.0525,70.3425 83.724375,69.324375 83.1125,68.7125 Z M 38.934923,66.272731 c 1.689281,0.441757 1.790064,0.259766 0.76506,-1.381526 C 38.702396,63.293814 38.944089,62.607167 41.259734,60.45998 42.76688,59.062475 44,57.633832 44,57.285217 44,56.936602 42.958497,57.629813 41.685549,58.825686 38.72994,61.602336 36.648438,61.579866 34.674424,58.75 33.811188,57.5125 33.0813,57.0074 33.052452,57.627555 33.023603,58.247711 33.675,59.315311 34.5,60 c 1.824273,1.514012 1.952063,5.093049 0.25,7.001772 -1.062888,1.191941 -0.98884,1.204212 0.494674,0.08198 0.95957,-0.725888 2.620182,-1.090846 3.690249,-0.811017 z M 61.8,66.8 C 64.402606,64.197394 61.838761,58 58.159464,58 56.420228,58 52,61.836154 52,63.345573 52,66.965697 59.123368,69.476632 61.8,66.8 Z M 80,63.5 C 80,61.666667 79.466667,61 78,61 c -1.466667,0 -2,0.666667 -2,2.5 0,1.833333 0.533333,2.5 2,2.5 1.466667,0 2,-0.666667 2,-2.5 z m -7,-6 C 72.315311,56.675 71.305111,56 70.755111,56 70.197284,56 70.305567,56.66326 71,57.5 71.684689,58.325 72.694889,59 73.244889,59 73.802716,59 73.694433,58.33674 73,57.5 Z M 83.654923,57.45687 C 84.585199,55.032613 83.287138,54.59496 82.045837,56.914354 81.27186,58.360542 81.256642,59 81.996201,59 c 0.586613,0 1.333038,-0.694408 1.658722,-1.543128 z M 29.773882,49.00729 C 27.773576,41.1267 32.388058,38.42203 43.5,40.96205 c 3.601963,0.823354 3.80684,0.771225 2.05887,-0.523857 -2.789696,-2.066904 -13.367766,-1.921117 -15.730129,0.216793 -2.03115,1.838164 -2.448836,7.317837 -0.793557,10.410753 1.602057,2.993471 1.847446,2.309673 0.738698,-2.058449 z M 52,51.5 c 0.694433,-0.83674 0.802716,-1.5 0.244889,-1.5 -0.55,0 -1.5602,0.675 -2.244889,1.5 -0.694433,0.83674 -0.802716,1.5 -0.244889,1.5 0.55,0 1.5602,-0.675 2.244889,-1.5 z m 15,1.035184 C 67,52.279535 65.9875,51.530861 64.75,50.871464 62.709778,49.78434 62.627959,49.827677 63.872445,51.33628 65.15027,52.885299 67,53.594367 67,52.535184 Z M 61,47 c 0,-1.555556 -0.666667,-2 -3,-2 -3.862908,0 -4.068864,2.705236 -0.25,3.283746 1.5125,0.229124 2.8625,0.484014 3,0.566422 C 60.8875,48.932576 61,48.1 61,47 Z M 85.343806,39.75 C 84.750521,38.786542 73.107072,38.902832 70.566937,39.897586 69.477579,40.324195 72.38127,40.620863 77.21976,40.577301 81.941998,40.534785 85.597818,40.1625 85.343806,39.75 Z M 245.96144,82.201663 C 244.05765,81.212578 241.49438,79.75863 240.26529,78.970668 237.57523,77.246083 235,70.185048 235,64.533751 c 0,-4.908658 3.47917,-12.173997 7.08658,-14.798445 3.04239,-2.213396 9.3699,-3.247454 14.25902,-2.330249 4.17367,0.782986 9.6544,6.053883 9.6544,9.284781 0,3.064402 -2.77839,3.023244 -3.95007,-0.05851 C 260.71286,53.114554 256.19475,50 252.43024,50 c -5.06855,0 -7.76595,1.433933 -10.7223,5.699941 -6.86682,9.908829 -0.63528,24.314577 10.50994,24.296321 3.82664,-0.0063 8.4773,-3.542614 9.75658,-7.418868 C 262.78409,70.124196 263.75923,69 265.07755,69 c 4.69656,0 -0.57059,9.680398 -7.07175,12.997043 -4.84808,2.473306 -7.58799,2.519854 -12.04436,0.20462 z M 153.17621,81.776206 C 152.37408,80.974077 152,75.586203 152,64.835184 c 0,-18.861827 -0.32426,-18.403568 12.42701,-17.562558 9.79633,0.646117 11.23478,1.172659 13.10998,4.798895 1.97181,3.813079 1.83146,6.849564 -0.47859,10.353818 -1.69593,2.572666 -1.76573,3.23994 -0.57896,5.534893 1.99817,3.864045 2.33767,13.539768 0.47507,13.539768 -1.02065,0 -1.61169,-1.563395 -1.98144,-5.241218 C 174.23248,68.892401 172.5222,67.5 164.21466,67.5 l -6.71466,0 -0.29373,6.663845 c -0.30579,6.937593 -1.82853,9.813892 -4.03006,7.612361 z M 172.75,61.694447 C 174.04972,60.514256 175,58.481905 175,56.88239 175,52.690967 171.77395,51 163.77749,51 L 157,51 l 0,6.442502 0,6.442502 4.25,0.356244 c 5.89866,0.494437 8.87717,-0.165186 11.5,-2.546801 z m 10.47894,20.134494 C 182.36462,80.964619 182,76.081779 182,65.371429 c 0,-18.904821 -0.35412,-18.377263 12.32143,-18.356116 9.27307,0.01547 12.50367,0.840631 11.24767,2.872884 C 205.14345,50.576904 201.28921,51 195.44098,51 L 186,51 l 0,5.5 0,5.5 9.5,0 c 5.66667,0 9.5,0.403509 9.5,1 0,0.55 0.1125,1.3375 0.25,1.75 0.1375,0.4125 -4.025,0.975 -9.25,1.25 l -9.5,0.5 -0.29772,6.25 -0.29771,6.25 10.02437,0 10.02438,0 2.11098,-4.25 c 1.16104,-2.3375 2.93669,-6.581627 3.94588,-9.431394 5.51701,-15.579018 9.64313,-20.789093 11.93359,-15.068606 10.83114,27.05113 12.21978,30.986452 11.26939,31.936838 -1.57521,1.575214 -3.03016,0.155988 -4.34744,-4.240695 -0.65418,-2.183441 -1.75108,-4.436033 -2.43755,-5.00576 -0.68648,-0.569727 -4.28406,-0.901883 -7.99461,-0.738125 L 213.68709,72.5 l -2.68943,5 -2.68942,5 -11.92518,0.278941 c -8.42402,0.197046 -12.28599,-0.08187 -13.15412,-0.95 z m 42.22402,-17.043108 c -1.20169,-5.471279 -3.0656,-10.156714 -4.18946,-10.531333 -0.59082,-0.196939 -1.63083,1.352732 -2.31115,3.443714 -0.68031,2.090982 -1.8479,4.689414 -2.59464,5.774292 C 213.83395,67.139065 214.63675,68 220.57946,68 l 5.57945,0 -0.70595,-3.214167 z M 125.63948,81.306147 C 125.28777,80.954433 125,73.337058 125,64.378646 l 0,-16.28802 3.60669,-0.676618 c 4.18217,-0.784581 14.67696,0.132246 17.24479,1.506507 2.73866,1.465688 5.53271,7.412632 4.81889,10.256703 -0.34216,1.363261 -1.73648,3.681085 -3.09849,5.150719 C 145.3208,66.756899 144.42701,67 137.74775,67 c -4.38158,0 -7.83217,0.48442 -8.54775,1.2 -0.66,0.66 -1.2,3.783442 -1.2,6.940983 0,5.372564 -0.87301,7.652674 -2.36052,6.165164 z M 143.36514,62.92742 C 145.2419,61.451161 146,59.923697 146,57.618549 c 0,-5.751112 -1.56687,-6.754364 -10.02198,-6.416961 L 128.5,51.5 l -0.3046,5.907241 c -0.35895,6.961436 0.22315,7.555902 7.41974,7.577446 3.67754,0.01101 5.85566,-0.567182 7.75,-2.057267 z M 277.6875,81.354167 C 277.30937,80.976042 277,73.991667 277,65.833333 L 277,51 l -4.94098,0 c -5.02298,0 -7.43626,-1.513571 -4.93714,-3.096491 1.79369,-1.136099 20.96255,-1.136099 22.75624,0 C 292.28181,49.425983 290.03955,51 285.46703,51 l -4.41494,0 -0.27604,15.16783 c -0.25796,14.173737 -0.90748,17.36741 -3.08855,15.186337 z"
       id="path4700"
       inkscape:connector-curvature="0" />
    <path
       style="fill:#b8a8d6"
       d="m 52.769888,107.4896 c -2.03191,-1.38072 -4.723871,-2.95317 -5.982135,-3.49435 C 45.529489,103.45408 41.575,101.22695 38,99.046066 34.425,96.865187 28.805305,93.652055 25.511789,91.905772 c -3.293517,-1.746283 -6.541705,-3.90197 -7.218197,-4.790416 -0.887032,-1.16495 -1.238853,-7.915467 -1.261789,-24.210368 -0.03427,-24.349834 -0.03255,-24.35818 5.48876,-26.605299 1.08869,-0.443087 5.471946,-2.829279 9.740569,-5.30265 C 47.308116,22.278353 48.704581,21.479405 52.793566,19.25 c 2.269717,-1.2375 4.707185,-2.246653 5.416596,-2.242563 1.174033,0.0068 5.962844,2.634138 23.289838,12.77791 3.3,1.931925 8.5875,4.792082 11.75,6.355905 l 5.75,2.843315 0,23.852729 c 0,26.76423 0.528595,24.844486 -8,29.054282 -2.475,1.221683 -7.425,3.951484 -11,6.066224 -3.575,2.114738 -8.525,4.867188 -11,6.116548 -2.475,1.24935 -5.573186,3.09373 -6.884859,4.0986 -3.178809,2.4353 -4.945913,2.30608 -9.345253,-0.68335 z m -8.92418,-19.904296 c 1.459861,-0.778083 5.237569,-2.403634 8.394908,-3.612335 5.465954,-2.092492 5.933414,-2.120496 9.770236,-0.585304 5.301211,2.121125 5.795474,2.034432 2.624007,-0.460245 -3.513772,-2.763933 -3.285085,-3.87923 1.522961,-7.42742 2.235866,-1.65 5.447828,-4.4625 7.137694,-6.25 1.689866,-1.7875 3.58937,-3.25 4.22112,-3.25 1.865227,0 7.201707,7.327868 8.505456,11.679394 C 88.243657,85.094323 83.642479,88.312239 74,86.087257 67.632157,84.617891 67.000153,84.810177 71,87 c 1.985533,1.087034 5.525883,1.934306 8.181906,1.958084 4.050083,0.03626 4.960995,-0.350028 6.75,-2.862454 C 87.069358,84.498226 88,82.461984 88,81.570647 88,78.26275 83.987498,68.679544 82.027738,67.306875 79.317894,65.408826 79.47,62.418581 82.456963,58.868777 c 1.35133,-1.605964 3.221588,-5.345606 4.156131,-8.310315 1.437241,-4.559454 1.501437,-5.867747 0.416448,-8.487142 -2.258378,-5.452207 -10.193052,-5.481728 -21.511288,-0.08003 -6.2832,2.998695 -7.167962,3.175551 -10.271704,2.053224 -3.338861,-1.207348 -6.098957,-0.692578 -2.889678,0.538938 2.407717,0.923928 2.000875,3.693979 -0.795538,5.41655 -1.339301,0.825 -4.996856,3.742021 -8.127899,6.482268 l -5.692807,4.982268 -3.25104,-3.760898 C 31.253135,53.959614 30,50.371973 30,44.850249 c 0,-4.396743 3.651083,-5.433028 12.5,-3.547868 3.85,0.820199 7.179503,1.320696 7.398896,1.112215 1.055034,-1.002556 -8.949868,-4.37328 -13.038112,-4.392634 -11.734769,-0.05555 -12.33764,8.634695 -1.669895,24.071155 0.845905,1.224043 0.64664,2.266549 -0.86013,4.5 -1.078601,1.598786 -2.912363,4.308008 -4.075026,6.020493 -1.162663,1.712486 -2.406493,4.673086 -2.764065,6.579113 -0.535128,2.852478 -0.178159,4.026411 2.017993,6.63639 C 31.779418,88.526565 32.850686,89 36.684602,89 c 2.478747,0 5.701245,-0.636613 7.161106,-1.414696 z m -11.04872,-1.236698 c -4.294336,-1.203204 -3.35534,-11.212639 1.58838,-16.931679 l 3.297558,-3.814712 2.532947,1.948892 c 9.537404,7.338243 13.677022,11.13995 13.492177,12.390835 -0.501172,3.391532 -15.390774,7.953361 -20.911062,6.406664 z M 50.631793,74.031651 C 47.954279,71.938062 44.359038,68.820577 42.642368,67.103906 38.81468,63.276218 39.097227,62.679654 48.493471,54.75 c 9.283396,-7.83442 9.912079,-7.763468 21.837164,2.464516 6.377489,5.469886 6.420828,6.14858 0.736802,11.538451 C 59.821626,79.416794 58.090719,79.8639 50.631793,74.031651 Z M 62.234687,66.615219 C 63.590841,64.556645 63.016933,61.016933 61,59 c -2.506676,-2.506676 -3.099774,-2.495958 -6.420368,0.116022 -1.923752,1.513223 -2.603135,2.85977 -2.384859,4.726828 0.514775,4.40321 7.664853,6.377594 10.039914,2.772369 z M 73.729536,58.25 C 68.132178,52.582222 65.449616,50.278409 63.75,49.679467 c -2.271085,-0.800327 -2.256207,-4.338186 0.02337,-5.55818 3.768636,-2.016913 14.717328,-4.251813 17.902312,-3.654306 4.522091,0.848349 5.902425,3.66009 4.346404,8.853625 C 84.730981,53.629945 79.38819,61 77.55532,61 76.944847,61 75.223244,59.7625 73.729536,58.25 Z M 184.22439,82.159842 c -0.9685,-0.614633 -1.20926,-4.763979 -1,-17.234687 L 183.5,48.5 194.25,48.216168 c 6.91756,-0.182644 10.75,0.08474 10.75,0.75 C 205,49.600308 201.56782,50 196.12244,50 185.80662,50 184.7237,50.710759 185.18889,57.176095 L 185.5,61.5 194.98971,62 c 7.92389,0.4175 9.54358,0.782645 9.81619,2.21299 0.28742,1.507987 -0.84826,1.747337 -9.4897,2 L 185.5,66.5 185.19493,71.831176 C 184.75797,79.466942 185.50226,80 196.6008,80 l 9.3559,0 3.52165,-7.521934 C 211.41526,68.341003 213,64.409962 213,63.742419 213,62.73189 215.49443,56.988651 218.96868,50 c 1.68409,-3.387655 3.8169,-2.162623 5.56367,3.195631 0.95107,2.917403 2.33296,6.429369 3.07088,7.804369 1.65007,3.074636 7.34041,18.124276 7.37305,19.5 0.013,0.55 -0.52597,1 -1.19781,1 -0.67184,0 -1.96824,-2.025 -2.88088,-4.5 l -1.65937,-4.5 -8.05488,-0.289405 -8.05489,-0.289404 -1.97016,4.45388 c -1.08359,2.449635 -2.88291,4.942367 -3.99849,5.539405 -2.34141,1.253088 -21.03242,1.453046 -22.93541,0.245366 z M 225.66707,67.425219 C 226.55442,65.112824 222.94806,54 221.31029,54 c -0.75518,0 -1.63816,0.7875 -1.96217,1.75 -0.32402,0.9625 -1.4795,3.671721 -2.56774,6.020491 -1.08825,2.34877 -1.72315,4.93627 -1.41089,5.75 0.81602,2.126523 9.47574,2.046404 10.29758,-0.09527 z m 17.13598,12.664835 c -5.65918,-3.588948 -7.17396,-7.520042 -6.62709,-17.198346 0.35966,-6.365094 0.67877,-7.2131 3.94238,-10.476718 6.48576,-6.485753 17.78393,-6.611464 23.0558,-0.256536 1.52463,1.83785 2.78416,4.129046 2.79896,5.091546 0.0444,2.887615 -2.63709,1.975405 -4.02209,-1.36827 -1.48985,-3.596828 -6.2778,-6.872569 -10.05313,-6.877992 -3.11376,-0.0045 -8.42114,3.426162 -11.28927,7.297269 -3.06346,4.134759 -2.85011,12.957728 0.43286,17.900533 C 243.86245,78.448779 246.66035,80 251.5,80 c 5.4209,0 8.56995,-1.997364 10.59413,-6.719595 C 263.10327,70.926182 264.39492,69 264.96446,69 c 1.98526,0 1.01646,4.869219 -1.58358,7.959192 -5.69593,6.769233 -13.07128,7.891373 -20.57783,3.130862 z M 152.63029,79.75 c -0.92535,-3.452906 -0.71227,-29.07231 0.25447,-30.597786 0.65026,-1.026063 3.29379,-1.264768 11.07452,-1 9.31807,0.317082 10.38901,0.556207 12.13055,2.70857 2.35897,2.915455 2.46578,8.36161 0.23089,11.772495 -1.35478,2.067653 -1.44817,2.932988 -0.48329,4.478006 0.65779,1.053302 1.48395,4.670152 1.8359,8.037446 0.52358,5.009284 0.38419,6.037968 -0.76671,5.658207 -0.909,-0.299942 -1.5133,-2.286354 -1.70817,-5.61494 C 174.80214,68.422387 172.83768,67 163.88448,67 156.15956,67 156,67.183786 156,76.081787 156,80.453993 155.63862,82 154.61663,82 c -0.76085,0 -1.65471,-1.0125 -1.98634,-2.25 z m 19.50283,-17.035963 c 4.21835,-3.546974 4.4987,-6.23606 1.01349,-9.721275 C 170.50191,50.348065 169.47035,50 164.27692,50 c -3.2376,0 -6.41584,0.538918 -7.07692,1.2 -1.24961,1.24961 -1.64848,9.467715 -0.59301,12.218213 1.00712,2.624506 12.16947,2.118246 15.52613,-0.704176 z M 277.52303,79.790898 C 277.22846,78.530904 276.87776,71.425 276.74372,64 L 276.5,50.5 271.75,50.195209 C 269.1375,50.027574 267,49.465074 267,48.945209 267,48.404109 272.1304,48 279,48 c 7.33333,0 12,0.388889 12,1 0,0.55 -1.935,1 -4.3,1 -2.365,0 -4.84,0.54 -5.5,1.2 -0.82098,0.820982 -1.2,5.697996 -1.2,15.440983 0,8.128559 -0.41663,14.498475 -0.97068,14.840898 -0.53388,0.329954 -1.21171,-0.430989 -1.50629,-1.690983 z m -152.01816,0.08239 c -0.30838,-0.803633 -0.43564,-8.19138 -0.28278,-16.417217 L 125.5,48.5 l 8.86358,-0.290589 c 10.1216,-0.331834 12.68045,0.718042 15.33924,6.293581 1.57757,3.308205 1.54794,3.519698 -1.04142,7.432477 -2.94517,4.450456 -4.19531,4.936252 -13.6614,5.308751 l -6.5,0.25578 -0.30491,6 c -0.30662,6.033846 -1.6234,9.153366 -2.69022,6.373285 z m 19.04014,-16.923023 c 2.71114,-2.995778 2.44955,-8.726494 -0.50764,-11.121085 -1.89754,-1.536538 -3.65936,-1.855665 -8.95,-1.62116 L 128.5,50.5 128.19598,56.388028 C 127.75762,64.877724 127.86578,65 135.81363,65 c 5.66202,0 7.20399,-0.361984 8.73138,-2.049738 z"
       id="path4698"
       inkscape:connector-curvature="0" />
    <path
       style="fill:#a893cf"
       d="M 52.945781,107.23099 C 50.500601,105.70804 47.375,103.88843 46,103.18742 44.625,102.4864 40.575,100.16434 37,98.027285 33.425,95.890227 28.394586,93.168226 25.821303,91.978392 17.563203,88.160017 17.569839,88.178454 17.148318,67.880966 16.943501,58.018395 17.085037,47.474958 17.462842,44.451105 18.14553,38.987055 18.184717,38.934806 23.824881,35.968332 26.946196,34.326659 31.75,31.662197 34.5,30.047305 c 5.199254,-3.053176 14.513842,-8.317898 19.887088,-11.240433 3.808546,-2.071486 4.868394,-1.782989 13.925584,3.790624 3.95303,2.432616 9.437328,5.584935 12.187328,7.005153 2.75,1.420219 7.925,4.234343 11.5,6.25361 l 6.5,3.671393 0.282542,21.986174 c 0.155398,12.092396 0.04283,22.96477 -0.250143,24.160832 C 98.1541,87.219047 94.449406,89.773229 85.749858,94.487516 79.012436,98.138525 70.125,103.10764 66,105.52998 c -4.125,2.42235 -7.749399,4.41907 -8.054219,4.43715 -0.304821,0.0181 -2.554821,-1.21318 -5,-2.73614 z m -3.230874,-21.669992 8.154189,-3.439003 8.277726,3.439003 C 71.967714,87.979302 75.969741,89 79.630715,89 c 4.886105,0 5.341176,-0.218451 7.402261,-3.553357 l 2.196096,-3.553356 -2.225078,-6.196644 c -1.223793,-3.408154 -3.400207,-7.450512 -4.836476,-8.983018 -2.190432,-2.337201 -2.412093,-3.062617 -1.375039,-4.5 3.686279,-5.109273 5.358871,-8.182766 6.789633,-12.476379 1.49637,-4.490499 1.47839,-4.947805 -0.314536,-8 -1.855131,-3.158089 -2.071153,-3.236922 -8.834603,-3.223987 -5.484652,0.01049 -8.12123,0.584974 -12.621048,2.75 C 58.666381,44.701242 57.387308,44.681213 49,41 39.627875,36.886548 32.097005,36.792519 28.977365,40.75 c -2.985546,3.787373 -2.175898,8.680499 2.734559,16.526358 L 35.60709,63.5 31.678266,69.771661 c -2.413317,3.852426 -4.116551,7.937173 -4.415491,10.589363 -0.429305,3.808779 -0.162905,4.572374 2.260137,6.478339 4.140655,3.257039 10.373828,2.862414 20.191995,-1.278365 z M 31.2,84.8 C 30.54,84.14 30,82.420692 30,80.979315 30,77.375224 35.117401,67.570598 37.198985,67.1865 c 0.951178,-0.175512 4.982257,2.465387 9.158426,6 6.811692,5.765261 7.32836,6.460291 5.949926,8.003942 C 48.843131,85.069863 34.006987,87.606987 31.2,84.8 Z m 39.793526,0.265659 C 67.15422,83.897795 62,81.049626 62,80.095929 c 0,-0.46899 2.497917,-2.779839 5.550927,-5.135219 3.05301,-2.35538 5.993843,-5.110104 6.535184,-6.121609 C 74.627452,67.827595 76.0996,67 77.357552,67 c 4.754536,0 10.763953,13.738816 7.650389,17.490432 -1.349805,1.626415 -9.463813,1.959458 -14.014415,0.575227 z M 52.897129,75.146012 C 47.388608,70.991887 40,64.33443 40,63.525138 40,61.401297 55.547043,49 58.209623,49 c 1.576811,0 14.181052,9.785913 16.025064,12.441834 1.575276,2.268861 0.544807,4.211511 -4.274412,8.058166 -12.585981,10.046011 -11.642542,9.733838 -17.063146,5.646012 z m 8.536741,-7.473998 c 2.317778,-1.694801 2.336332,-6.16347 0.03614,-8.70515 -2.302346,-2.544064 -4.287986,-2.486497 -7.155561,0.20745 -2.925227,2.748109 -2.964245,6.257144 -0.09194,8.268982 2.721304,1.906075 4.826145,1.972833 7.211364,0.228718 z M 33.734361,55.816674 C 30.60629,50.992472 29.273205,45.38039 30.710518,43.086759 c 1.401553,-2.236568 8.979325,-2.523502 15.624716,-0.591634 4.827171,1.403297 8.704936,3.91092 7.557267,4.887037 -0.215876,0.183607 -3.630524,3.097732 -7.588108,6.475834 C 42.346809,57.236098 38.509857,60 37.777833,60 37.045808,60 35.226246,58.117503 33.734361,55.816674 Z M 69.5,53.884761 c -3.85,-3.300736 -7,-6.534067 -7,-7.18518 0,-3.507605 18.625291,-7.500341 21.984107,-4.712771 1.823895,1.513698 1.960815,6.72645 0.251151,9.561705 C 80.574001,58.449419 79.34337,59.982068 78,59.936727 c -0.825,-0.02785 -4.65,-2.75123 -8.5,-6.051966 z m 174.25232,26.336566 c -3.9722,-2.27683 -5.01361,-3.519521 -6.37579,-7.60808 -2.0078,-6.026383 -1.32928,-14.858158 1.42548,-18.554416 2.34908,-3.151931 7.73805,-6.413598 9.43849,-5.712633 0.77967,0.321399 0.42284,0.774389 -0.93661,1.18904 -1.20787,0.368413 -3.79537,2.722548 -5.75,5.231411 C 238.44104,58.762128 238,60.028344 238,64.96983 c 0,4.452102 0.5314,6.367822 2.52031,9.08589 3.70945,5.069375 5.32087,5.94428 10.94831,5.94428 6.01569,0 8.99441,-1.779092 10.99488,-6.566876 1.47408,-3.527972 3.5365,-4.631719 3.5365,-1.892631 0,2.360428 -4.02392,7.276067 -7.76119,9.481113 -4.54518,2.68172 -8.82412,2.445338 -14.48649,-0.800279 z m -90.28655,0.550068 c -0.28606,-0.745453 -0.39538,-8.311475 -0.24294,-16.813382 L 153.5,48.5 l 9.55877,0.112474 c 5.25733,0.06186 10.52546,0.629829 11.70697,1.262153 3.31169,1.772361 3.97234,7.467414 1.39766,12.048422 -1.79581,3.195227 -1.90562,4.003972 -0.76751,5.652819 1.57272,2.278484 2.69183,12.251883 1.46019,13.013077 C 176.38524,80.879944 176,79.127163 176,76.693876 176,72.013622 173.11789,67 170.42742,67 169.64234,67 169,66.55 169,66 c 0,-0.55 0.3421,-1 0.76022,-1 0.41812,0 1.99312,-1.143211 3.5,-2.540469 3.28052,-3.041874 3.4866,-6.240384 0.63559,-9.864861 -1.99743,-2.539319 -2.49213,-2.660323 -9.75,-2.384859 L 156.5,50.5 l -0.29998,6.33731 c -0.1849,3.906 0.16331,6.895549 0.90761,7.792382 0.91469,1.102127 0.92681,1.735865 0.05,2.61269 -0.63669,0.63669 -1.15762,3.96606 -1.15762,7.398601 0,5.854934 -1.36907,9.166771 -2.53423,6.130412 z m 30.2009,0.561938 C 183.3,80.966667 183,73.589812 183,64.940322 c 0,-11.717146 0.31867,-15.820637 1.25,-16.096213 0.6875,-0.203428 5.525,-0.147992 10.75,0.123191 l 9.5,0.49306 -9.5,0.51982 -9.5,0.51982 0,6 0,6 9.82098,0.287068 c 7.14984,0.208991 9.71201,0.616964 9.42036,1.5 -0.25976,0.786438 -3.71303,1.388743 -9.82098,1.712932 l -9.42036,0.5 0,6.5 0,6.5 10.5,0.279447 10.5,0.279447 2.89452,-6.279447 C 210.9865,70.325751 212.86521,65.7 213.56943,63.5 c 0.70421,-2.2 2.21418,-5.782649 3.35548,-7.961442 C 218.06621,53.359765 219,51.04541 219,50.395547 c 0,-1.69993 2.55846,-2.437092 3.87814,-1.117402 0.61703,0.61702 1.12186,1.952662 1.12186,2.968093 0,1.015431 1.575,5.210302 3.5,9.321934 1.925,4.111632 3.5,8.045676 3.5,8.74232 0,0.696643 0.9,3.031922 2,5.189508 1.1,2.157586 2,4.502735 2,5.211442 0,2.44548 -1.76084,1.279159 -2.96127,-1.961442 -2.33513,-6.30382 -2.21363,-6.230893 -10.89712,-6.540491 -8.07816,-0.288015 -8.15771,-0.266711 -9.33544,2.5 C 208.93679,81.450209 207.70653,82 195.49235,82 189.35489,82 184.03333,81.7 183.66667,81.333333 Z M 226.39178,68.175107 C 227.19611,66.873673 224.01011,55.662276 222.36357,54 c -1.3199,-1.332505 -1.64648,-1.283247 -2.92469,0.44113 C 218.6475,55.508751 218,57.030636 218,57.823096 c 0,0.79246 -0.94376,2.967874 -2.09725,4.834254 C 212.85464,67.589296 213.85703,69 220.4096,69 c 3.0098,0 5.70178,-0.371202 5.98218,-0.824893 z M 277.77605,65.75 277.5,50.5 l -5,-0.509422 -5,-0.509422 5.86342,-0.680031 c 3.22487,-0.374017 8.17487,-0.376332 11,-0.0051 L 289.5,49.470865 285,49.985433 280.5,50.5 280.22395,65.75 C 280.06562,74.497148 279.5437,81 279,81 c -0.5437,0 -1.06562,-6.502852 -1.22395,-15.25 z M 126.0524,73.5 c -0.38758,-10.741816 0.0286,-23.930289 0.77658,-24.607962 0.36906,-0.334378 4.85924,-0.334378 9.97818,0 8.3847,0.547706 9.49751,0.855743 11.22776,3.107962 1.05633,1.375 1.93061,3.755722 1.94284,5.290493 C 150.00602,60.836545 146.23968,66 143.62485,66 c -1.83516,0 -1.77876,-0.229916 0.68806,-2.804719 3.04962,-3.183123 3.36673,-5.980327 1.16141,-10.244941 C 143.98097,50.062512 143.78195,50 136.08131,50 c -6.25149,0 -7.992,0.324878 -8.47432,1.581787 -1.01785,2.652463 -0.67606,12.257493 0.46118,12.960347 0.59067,0.365051 0.73644,1.397256 0.32608,2.309017 C 127.9861,67.758018 127.34904,71.2 126.97857,74.5 l -0.6736,6 -0.25257,-7 z M 261.98667,55.190064 c -1.23156,-2.191249 -3.41987,-4.539433 -4.86293,-5.218188 -1.72346,-0.810645 -2.15927,-1.401122 -1.27011,-1.720865 2.9508,-1.061106 11.48124,7.814117 9.45658,9.838784 -0.77915,0.779142 -1.71463,-0.03705 -3.32354,-2.899731 z"
       id="path4696"
       inkscape:connector-curvature="0" />
    <path
       style="fill:#8c6fc2"
       d="m 52.769888,106.4896 c -2.03191,-1.38072 -4.723871,-2.97681 -5.982135,-3.54687 C 45.529489,102.37267 41.575,100.14875 38,98.000678 34.425,95.852608 29.236141,92.98063 26.469201,91.618504 17.593211,87.248976 17.924916,88.4242 18.230841,62.430166 L 18.5,39.560154 29.5,33.37803 C 53.831551,19.703424 57.038925,18 58.455271,18 c 0.81085,0 5.877625,2.632544 11.259501,5.850097 10.608037,6.342013 11.66541,6.934317 21.641885,12.123052 L 98.034544,39.446298 97.767272,63.473149 97.5,87.5 l -7,3.730216 c -7.574764,4.036501 -11.916163,6.4851 -23.5,13.254264 -4.125,2.4105 -8.183039,4.41261 -9.017865,4.44912 -0.834827,0.0365 -3.180338,-1.06328 -5.212247,-2.444 z m -3.837915,-20.070084 8.945776,-3.580483 9.054446,3.580483 c 11.549066,4.566955 15.963886,4.68113 19.478911,0.503759 C 87.834998,85.231076 89,82.772735 89,81.460295 89,78.179488 85.26718,68.947519 82.924951,66.435549 80.470157,63.802856 80.45636,63.905785 83.95985,58.714598 85.587768,56.302481 87.477512,52.243339 88.159281,49.694281 89.224337,45.712157 89.165436,44.570134 87.74093,41.582914 84.931262,35.690979 77.218709,35.521065 65.310185,41.088746 61.885454,42.689936 58.595871,44 58,44 57.404129,44 53.920413,42.599171 50.258408,40.887047 41.315274,36.705797 33.523807,35.976039 29.75,38.966205 27.465966,40.775953 27,41.922826 27,45.734723 c 0,4.464368 2.868123,10.988281 6.846751,15.573813 1.239845,1.428972 1.322571,2.163529 0.394169,3.5 -8.139309,11.716855 -9.558319,18.725896 -4.610421,22.77265 4.067023,3.32631 8.800053,3.04145 19.301474,-1.16167 z M 32.2,84.8 c -2.634026,-2.634026 -0.742352,-11.125351 3.575577,-16.05 2.052862,-2.341314 2.385596,-2.264266 6.477803,1.5 1.943226,1.7875 5.168038,4.575634 7.166248,6.195853 3.533122,2.864779 3.582266,2.996698 1.785645,4.793319 C 49.266744,83.177701 40.303782,85.967867 35.95,85.988131 34.5475,85.994659 32.86,85.46 32.2,84.8 Z m 37.979953,-0.702693 c -7.945473,-2.744152 -8.34243,-3.562737 -3.660938,-7.549413 2.189542,-1.864575 5.410659,-4.836373 7.158038,-6.603996 1.801268,-1.822136 3.794838,-2.976794 4.603681,-2.666412 1.863725,0.715179 6.291456,8.361973 7.150337,12.348802 1.354724,6.288467 -4.780842,8.087171 -15.251118,4.471019 z m -14.358524,-7.41208 c -0.726786,-0.723125 -2.054376,-1.735625 -2.9502,-2.25 C 49.530784,72.51717 41,64.71173 41,63.573368 41,61.605942 55.793694,49 58.102565,49 c 1.137684,0 15.207487,11.859149 16.256186,13.702005 0.965213,1.696151 1.117371,1.52579 -8.622216,9.653716 -7.266357,6.063955 -7.895685,6.338756 -9.915106,4.329506 z m 4.655495,-7.856666 c 5.472229,-2.493315 3.898181,-11.040096 -2.142486,-11.633295 -2.387993,-0.234503 -3.590753,0.315127 -5.218804,2.384859 -2.965176,3.76961 -2.648329,6.124481 1.134366,8.430835 3.850192,2.347508 3.088611,2.247512 6.226924,0.817601 z M 34.443758,55.918843 C 31.046395,51.016447 30.386196,43.473067 33.196486,41.667629 36.182194,39.749495 53.803297,44.444245 52.813779,46.894218 52.461787,47.765725 38.344075,60 37.690394,60 37.460278,60 35.999292,58.163479 34.443758,55.918843 Z m 37.080583,-1.014387 c -2.736613,-2.702108 -5.774113,-5.166343 -6.75,-5.476078 C 63.798453,49.118644 63,48.01363 63,46.972793 c 0,-1.459664 1.510534,-2.358989 6.605335,-3.932613 11.574263,-3.574926 17.251462,-2.074163 15.991178,4.227254 -0.721571,3.607855 -6.528571,12.766738 -8.014928,12.641256 -0.594872,-0.05022 -3.320632,-2.302126 -6.057244,-5.004234 z M 249.76166,81.292739 c 1.24391,-0.239193 3.04391,-0.230112 4,0.02018 0.95609,0.250292 -0.0617,0.445996 -2.26166,0.434897 -2.2,-0.0111 -2.98225,-0.215885 -1.73834,-0.455078 z M 153.68333,80.35 c -1.16043,-1.160436 -0.80071,-30.159423 0.3832,-30.891119 0.58659,-0.362533 1.27642,-0.449264 1.53295,-0.192734 0.25653,0.256529 0.47888,7.114304 0.4941,15.239499 0.0254,13.554731 -0.59849,17.656106 -2.41025,15.844354 z m 79.39562,-0.933333 c 0.048,-1.164943 0.28494,-1.4019 0.60416,-0.604167 0.28887,0.721875 0.25335,1.584375 -0.0789,1.916667 -0.3323,0.332291 -0.56864,-0.258334 -0.52522,-1.3125 z m -24.03092,-2.339053 c -0.0264,-0.782313 0.73947,-3.135895 1.70197,-5.230183 1.24198,-2.702399 2.18545,-3.619021 3.25,-3.157518 2.84473,1.233245 9.79197,1.491791 11.76153,0.437714 1.46909,-0.786235 1.84833,-1.769958 1.48124,-3.842218 -0.34046,-1.921914 -0.16869,-2.475403 0.55409,-1.785409 0.57613,0.55 1.33721,2.575 1.69128,4.5 l 0.64377,3.5 -8.80302,0 -8.80303,0 -1.7149,3.5 c -0.94319,1.925 -1.73651,2.859926 -1.76293,2.077614 z m 30.61864,0.255719 C 239.3,76.966667 239,76.011567 239,75.210889 c 0,-1.180643 0.28349,-1.2205 1.5,-0.210889 0.825,0.684689 1.5,1.639789 1.5,2.122445 0,1.035519 -1.38365,1.160574 -2.33333,0.210888 z M 263,73.618034 c 0,-0.825 0.45,-1.778115 1,-2.118034 0.55,-0.339919 1,0.05697 1,0.881966 0,0.825 -0.45,1.778115 -1,2.118034 -0.55,0.339919 -1,-0.05697 -1,-0.881966 z M 126,66 c 0,-0.55 0.45,-1 1,-1 0.55,0 1,0.45 1,1 0,0.55 -0.45,1 -1,1 -0.55,0 -1,-0.45 -1,-1 z m 46,-1.5 c 0.68469,-0.825 1.69489,-1.5 2.24489,-1.5 0.55783,0 0.44954,0.66326 -0.24489,1.5 -0.68469,0.825 -1.69489,1.5 -2.24489,1.5 -0.55783,0 -0.44954,-0.66326 0.24489,-1.5 z m 11.99782,-0.143011 c -0.002,-1.706753 0.80703,-1.83139 10,-1.540576 C 206.11048,63.199591 207.41649,65 195.58179,65 c -4.63002,0 -9.13002,0.273145 -10,0.606989 -1.0921,0.419079 -1.58246,0.03211 -1.58397,-1.25 z m -38.52291,-1.329261 c 1.37935,-1.524172 1.6764,-3.101172 1.30744,-6.941039 l -0.47743,-4.968769 1.84754,2.348769 C 149.16861,54.758512 150,56.550202 150,57.448222 150,59.394647 146.03409,65 144.65695,65 c -0.53181,0 -0.16373,-0.887522 0.81796,-1.972272 z M 215,60.618034 c 0,-0.825 0.45,-1.778115 1,-2.118034 0.55,-0.339919 1,0.05697 1,0.881966 0,0.825 -0.45,1.778115 -1,2.118034 -0.55,0.339919 -1,-0.05697 -1,-0.881966 z m 48.72917,-3.222201 C 263.32812,56.994792 263,55.976667 263,55.133333 c 0,-1.125593 0.29583,-1.2375 1.1125,-0.420833 0.61187,0.611875 0.94,1.63 0.72917,2.2625 -0.21084,0.6325 -0.71146,0.821875 -1.1125,0.420833 z M 239,55.214005 c 0,-0.497217 0.96548,-1.761274 2.14551,-2.809017 2.13061,-1.89176 2.13752,-1.889751 0.99462,0.289318 C 240.86524,55.125039 239,56.621743 239,55.214005 Z M 174.02006,51.524166 C 173.23131,50.573782 173.15544,50 173.81854,50 c 1.20855,0 2.61759,1.8972 1.9241,2.590697 -0.2517,0.251699 -1.02686,-0.22824 -1.72258,-1.066531 z M 221.25,52.279762 C 219.74873,51.743593 219.56585,49 221.03138,49 c 1.03152,0 2.5471,2.802378 1.84216,3.406223 -0.20545,0.175982 -0.93604,0.119075 -1.62354,-0.126461 z M 277.63837,50.5 c -0.35062,-0.913711 -0.002,-1.5 0.89301,-1.5 0.80774,0 1.46862,0.675 1.46862,1.5 0,0.825 -0.40186,1.5 -0.89301,1.5 -0.49116,0 -1.15203,-0.675 -1.46862,-1.5 z"
       id="path4694"
       inkscape:connector-curvature="0" />
    <path
       style="fill:#724db7"
       d="M 46,101.9278 C 40.225,98.630854 34.825,95.496633 34,94.962861 33.175,94.429089 29.669619,92.538682 26.210265,90.761957 22.373389,88.791337 19.728346,86.745441 19.427723,85.515774 19.15668,84.407098 19.06206,73.630819 19.217458,61.568486 L 19.5,39.636971 25.248525,36.568486 c 10.12152,-5.402731 23.145354,-12.823005 26.73361,-15.231358 4.466808,-2.998019 7.647221,-2.953026 12.247977,0.173269 2.03191,1.380719 4.723871,2.953176 5.982135,3.49435 1.258264,0.541174 5.212753,2.773736 8.787753,4.96125 3.575,2.187514 8.975,5.227556 12,6.75565 3.025,1.528094 5.830609,3.228353 6.234687,3.778353 1.349098,1.836288 0.90217,43.947851 -0.484687,45.669447 -1.143313,1.419269 -5.746068,4.149933 -17.673521,10.485122 -2.432937,1.292239 -5.132937,2.939172 -6,3.659851 -0.867063,0.72068 -3.491568,2.13927 -5.832232,3.15242 -2.340664,1.01315 -4.758264,2.44759 -5.372444,3.18763 C 59.916515,109.01045 56.759093,108.07016 46,101.9278 Z M 44.5,89.036734 c 0.55,-0.391037 3.81524,-1.740163 7.256088,-2.998057 l 6.256088,-2.287081 8.243912,3.345423 c 5.315753,2.157161 9.960203,3.355646 13.075941,3.374202 4.211722,0.02509 5.206621,-0.390462 7.75,-3.236998 C 88.686913,85.438046 90,83.092427 90,82.021736 90,78.954187 85.964338,68.964338 83.885198,66.885198 81.904848,64.904848 81.304032,61 82.979676,61 c 1.230579,0 4.390385,-6.137374 6.091904,-11.832464 1.148164,-3.842974 1.086722,-4.718114 -0.543827,-7.74586 -2.332458,-4.331112 -6.716262,-5.713449 -13.836673,-4.363091 -2.790666,0.529239 -6.032828,1.590542 -7.204805,2.358451 -1.171978,0.767909 -3.936418,1.937154 -6.143201,2.598323 -3.674004,1.100758 -4.595451,0.950463 -10.927703,-1.782394 -8.924651,-3.851678 -14.417327,-4.676814 -18.837653,-2.829884 -7.834058,3.273278 -7.255508,11.858057 1.670554,24.788383 0.920683,1.333705 0.832165,2.073986 -0.418504,3.5 C 29.619993,69.351253 26,77.572905 26,81.203088 c 0,3.841507 2.396204,7.101995 6.5,8.844476 2.103671,0.893224 10.292072,0.203467 12,-1.01083 z M 32.062911,83.575803 c -2.275328,-2.741602 1.873955,-14.080999 5.599589,-15.302877 0.639375,-0.209693 2.737264,1.105616 4.661975,2.922907 1.924711,1.817292 4.891798,4.410384 6.593525,5.762428 2.754676,2.188623 2.928992,2.623319 1.589225,3.963085 -3.508849,3.508849 -16.217321,5.337819 -18.444314,2.654457 z m 37.736267,-0.161375 c -2.585453,-0.795448 -5.00009,-1.930494 -5.365861,-2.522323 -0.365771,-0.59183 1.051159,-2.497166 3.148733,-4.23408 C 69.679625,74.921111 72.53197,72.2625 73.920595,70.75 75.309221,69.2375 76.940226,68 77.545052,68 c 1.34399,0 6.24554,7.31747 7.050873,10.526171 0.321565,1.281217 0.288706,3.261963 -0.07302,4.401657 -0.54667,1.722407 -1.448067,2.060415 -5.340294,2.00252 -2.575436,-0.03831 -6.797982,-0.720472 -9.383434,-1.51592 z M 50.445422,71.75 C 41.797414,65.037463 40.995603,63.778978 43.542038,60.914786 45.952046,58.204046 57.058377,50 58.318068,50 59.192572,50 61.87139,52.080429 70.25,59.266603 72.3125,61.03557 74,62.950438 74,63.521866 74,64.756425 59.655711,77 58.209331,77 57.659253,77 54.165494,74.6375 50.445422,71.75 Z M 62.50887,68.617172 C 65.008048,66.789729 65.028554,60.79402 62.545012,58.049738 58.631775,53.725659 51,57.339023 51,63.515876 c 0,5.523821 6.805613,8.540402 11.50887,5.101296 z M 35.275948,56.15937 C 34.120856,54.597023 32.619278,51.461303 31.93911,49.191102 30.313267,43.764524 31.684665,41.969695 37.372445,42.080172 42.38425,42.17752 51.5,45.085009 51.5,46.586188 51.5,47.527696 38.803824,59 37.761876,59 37.549708,59 36.431041,57.721716 35.275948,56.15937 Z m 36.248393,-2.254914 c -2.736613,-2.702108 -5.774113,-5.166343 -6.75,-5.476078 C 61.899384,47.515903 62.70627,46.383892 67.550242,44.533963 77.108227,40.883735 85,41.261761 85,45.369829 85,48.286359 83.055342,54 82.06269,54 c -0.407913,0 -1.254244,1.125 -1.880736,2.5 -0.626492,1.375 -1.711224,2.45891 -2.410515,2.40869 -0.699292,-0.05022 -3.510486,-2.302126 -6.247098,-5.004234 z M 154.32653,64.5 c 0.009,-11.879908 0.13267,-13.24502 0.59266,-6.562846 0.31945,4.640435 0.31411,11.390435 -0.0118,15 -0.38587,4.273018 -0.58852,1.32923 -0.58081,-8.437154 z m -6.24758,-7.083333 c 0.048,-1.164943 0.28494,-1.4019 0.60416,-0.604167 0.28887,0.721875 0.25335,1.584375 -0.0789,1.916667 -0.3323,0.332291 -0.56864,-0.258334 -0.52522,-1.3125 z"
       id="path4692"
       inkscape:connector-curvature="0" />
    <path
       style="fill:#6236af"
       d="M 51.5,103.91804 C 47.65,101.7745 41.890835,98.553529 38.701855,96.760341 35.512875,94.967154 30.630038,92.279973 27.851104,90.788829 19.411249,86.260099 20,88.347656 20,62.950862 l 0,-22.804248 5.25,-2.580615 c 2.8875,-1.419339 8.175,-4.384374 11.75,-6.588968 3.575,-2.204593 8.3,-4.908115 10.5,-6.007826 2.2,-1.09971 5.463642,-2.934754 7.252539,-4.077873 l 3.252538,-2.0784 4.747462,2.813784 C 71.64419,26.89673 83.265424,33.499645 90.810195,37.568425 L 96.5,40.63685 96.78298,61.568425 c 0.155639,11.512366 0.04549,21.900561 -0.244782,23.084877 -0.343049,1.399657 -2.717058,3.259358 -6.78298,5.313507 -8.960217,4.526799 -14.637905,7.69094 -16.349638,9.111553 -0.818125,0.678983 -3.606568,2.275958 -6.19654,3.548828 -2.589972,1.27287 -5.60904,2.96094 -6.70904,3.75127 -1.810775,1.30099 -2.662286,1.06821 -9,-2.46042 z M 45.527494,89.625023 C 49.397287,86.927502 58.792953,84.565247 61.233958,85.67611 72.01755,90.583553 73.413079,91 79.0745,91 c 5.241275,0 6.341691,-0.346034 8.497382,-2.672063 1.362011,-1.469634 2.726157,-3.667239 3.031436,-4.883566 0.902831,-3.597164 -3.718898,-15.635552 -7.070693,-18.417294 -1.455921,-1.208308 -1.427503,-1.515454 0.317091,-3.427168 2.304574,-2.525335 4.319873,-6.592265 6.158215,-12.427444 1.230355,-3.905337 1.179926,-4.668163 -0.516896,-7.81897 -1.034144,-1.92029 -2.766248,-3.965601 -3.84912,-4.545136 C 82.321093,35.031108 71.096258,36.453147 65.354773,39.378472 58.837292,42.699173 57.412435,42.664822 49.655825,39 44.718311,36.667137 41.920876,36 37.076234,36 c -5.552545,0 -6.547971,0.317891 -9.153157,2.923077 -4.61675,4.61675 -3.993965,9.783044 2.48528,20.616574 l 2.416007,4.039652 -3.451302,5.642847 c -2.176842,3.559116 -3.670489,7.493529 -4.044869,10.654585 -0.548159,4.628347 -0.359805,5.2455 2.462197,8.067501 C 30.556891,90.710737 31.447672,91 37.200571,91 c 3.768525,0 7.157116,-0.559539 8.326923,-1.374977 z M 32.459899,82.935115 C 30.952245,80.49568 35.383842,69 37.831901,69 c 0.755702,0 2.329092,1.321413 10.436611,8.765198 0.972682,0.893052 1.620516,2.067719 1.439631,2.610372 -0.906106,2.718319 -15.785486,4.926337 -17.248244,2.559545 z M 70.5,82.78678 C 64.662372,80.733248 64.66382,80.087609 70.516858,75.269068 73.532586,72.786355 76,70.360159 76,69.877522 c 0,-0.482637 0.5625,-0.861091 1.25,-0.84101 1.987194,0.05805 6.75,8.414633 6.75,11.843221 0,3.10749 -0.0215,3.119944 -5.25,3.04132 -2.8875,-0.04342 -6.6,-0.553844 -8.25,-1.134273 z m -16.322771,-9.3218 c -1.827524,-1.300059 -5.109667,-3.978097 -7.293651,-5.951196 l -3.97088,-3.587451 2.293651,-2.868327 C 47.868955,57.728282 56.505801,51 58.117438,51 c 1.631028,0 14.841726,11.3008 14.863691,12.714816 0.01038,0.668149 -0.84072,1.674856 -1.891332,2.237126 -1.050611,0.56227 -3.348207,2.330507 -5.105769,3.929414 -7.856844,7.147612 -7.113835,6.922093 -11.806799,3.583624 z m 8.600265,-4.021684 C 67.651681,66.029282 64.310752,55 58.402411,55 54.611453,55 50,59.668024 50,63.505487 c 0,5.95391 7.667437,9.517032 12.777494,5.937809 z M 36.247355,55.7004 C 33.689326,52.89738 31.502017,46.740105 32.313283,44.625982 32.739882,43.514283 34.154912,43 36.787114,43 c 4.268816,0 14.251047,2.673614 14.145679,3.788741 -0.03696,0.391192 -2.90449,3.051439 -6.372282,5.911659 L 38.255435,57.900801 36.247355,55.7004 Z M 71.5,52.864924 C 68.75,50.202604 65.9375,48.018865 65.25,48.012171 64.5625,48.005477 64,47.609299 64,47.131775 64,45.844046 74.977069,43 79.947273,43 l 4.316065,0 -0.506597,3.75 C 83.211795,50.783872 79.139647,57.98246 77.5,57.810427 c -0.55,-0.05771 -3.25,-2.283182 -6,-4.945503 z"
       id="path4690"
       inkscape:connector-curvature="0" />
  </g>
</svg>
