<?xml version="1.0" encoding="UTF-8" standalone="no"?>
<!-- Created with Inkscape (http://www.inkscape.org/) -->

<svg
   xmlns:dc="http://purl.org/dc/elements/1.1/"
   xmlns:cc="http://creativecommons.org/ns#"
   xmlns:rdf="http://www.w3.org/1999/02/22-rdf-syntax-ns#"
   xmlns:svg="http://www.w3.org/2000/svg"
   xmlns="http://www.w3.org/2000/svg"
   xmlns:xlink="http://www.w3.org/1999/xlink"
   xmlns:sodipodi="http://sodipodi.sourceforge.net/DTD/sodipodi-0.dtd"
   xmlns:inkscape="http://www.inkscape.org/namespaces/inkscape"
   id="svg4265"
   version="1.1"
   inkscape:version="0.91 r13725"
   width="473"
   height="123"
   viewBox="0 0 473 123"
   sodipodi:docname="React.bmp.svg">
  <metadata
     id="metadata4271">
    <rdf:RDF>
      <cc:Work
         rdf:about="">
        <dc:format>image/svg+xml</dc:format>
        <dc:type
           rdf:resource="http://purl.org/dc/dcmitype/StillImage" />
        <dc:title></dc:title>
      </cc:Work>
    </rdf:RDF>
  </metadata>
  <defs
     id="defs4269" />
  <sodipodi:namedview
     pagecolor="#ffffff"
     bordercolor="#666666"
     borderopacity="1"
     objecttolerance="10"
     gridtolerance="10"
     guidetolerance="10"
     inkscape:pageopacity="0"
     inkscape:pageshadow="2"
     inkscape:window-width="640"
     inkscape:window-height="480"
     id="namedview4267"
     showgrid="false"
     inkscape:zoom="0.55391121"
     inkscape:cx="236.5"
     inkscape:cy="61.5"
     inkscape:window-x="0"
     inkscape:window-y="0"
     inkscape:window-maximized="0"
     inkscape:current-layer="svg4265" />
  <image
     width="473"
     height="123"
     preserveAspectRatio="none"
     style="image-rendering:optimizeQuality"
     xlink:href="file:///media/havoc/USB%20DISK/pics/_OpsDeps/React.bmp"
     id="image4273"
     x="0"
     y="0"
     sodipodi:absref="/media/havoc/USB DISK/pics/_OpsDeps/React.bmp" />
  <g
     id="g4651">
    <path
       style="fill:#fdfdfd"
       d="M 0,61.5 0,0 236.5,0 473,0 473,61.5 473,123 236.5,123 0,123 0,61.5 Z"
       id="path4667"
       inkscape:connector-curvature="0" />
    <path
       style="fill:#d0eef6"
       d="M 34.034018,113.24845 C 28.042892,110.22617 26.47703,106.13594 26.648059,93.95538 L 26.796117,83.41076 20.91099,81.128751 C 17.432387,79.779893 13.226019,77.097496 10.624367,74.568979 3.4648012,67.610678 3.2883421,60.946952 10.083704,54.15159 c 2.17046,-2.17046 6.892415,-5.229762 10.493233,-6.798448 l 6.546941,-2.852156 -0.674442,-7.197296 c -0.863662,-9.216563 0.725374,-16.138925 4.544662,-19.798036 2.684118,-2.571547 3.29374,-2.709719 10.377285,-2.352016 7.004867,0.35373 7.956474,0.683856 13.751417,4.770561 6.9291,4.886534 5.736049,4.999528 14.917543,-1.412836 3.588057,-2.505902 5.444428,-3.047475 11.49291,-3.352909 8.865015,-0.447663 11.030294,0.600635 13.698181,6.631837 1.760454,3.979798 1.959902,5.889025 1.44078,13.791924 l -0.602531,9.172681 4.300847,1.642508 c 22.54503,8.610026 23.6881,24.900118 2.42379,34.541818 l -6.69862,3.037298 0.598705,8.483729 c 0.47309,6.703738 0.236747,9.431501 -1.126451,13.000991 C 93.055727,112.03941 90.065107,114 82.543204,114 c -5.790087,0 -6.652791,-0.32082 -13.44514,-5 -3.991933,-2.75 -7.437932,-5 -7.657776,-5 -0.219843,0 -2.771344,1.79561 -5.670002,3.99025 -5.253382,3.97745 -12.265336,7.01115 -16.198425,7.0082 -1.139523,-8.6e-4 -3.631553,-0.78836 -5.537843,-1.75 z m 14.868089,-10.01729 c 6.678143,-4.143263 6.977333,-5.179607 3.067219,-10.624343 -3.413209,-4.752809 -4.003151,-5.050244 -12.086068,-6.093511 -4.550495,-0.587335 -4.625829,-0.550451 -5.25,2.570404 -1.435762,7.178809 -0.175624,15.2557 2.679303,17.17307 1.85629,1.24669 6.771796,-0.0366 11.589546,-3.02562 z m 38.199178,1.66755 c 1.850219,-1.85021 2.058859,-3.03553 1.746198,-9.920465 -0.195299,-4.300551 -0.604862,-8.068958 -0.910142,-8.374237 -0.30528,-0.30528 -3.003569,-0.278586 -5.996198,0.05932 -4.799615,0.541937 -5.942231,1.144936 -9.691143,5.114359 -2.3375,2.474992 -4.249987,5.00001 -4.249971,5.61115 3.9e-5,1.461195 6.17177,6.347263 10.264919,8.126583 4.490748,1.95216 6.40078,1.81885 8.836337,-0.61671 z M 62.5,90 c 0.339919,-0.55 -0.110081,-1 -1,-1 -0.889919,0 -1.339919,0.45 -1,1 0.339919,0.55 0.789919,1 1,1 0.210081,0 0.660081,-0.45 1,-1 z M 70.561081,79.234687 C 72.345228,77.999353 79,66.352484 79,64.465289 79,63.49009 77.389119,59.811675 75.420264,56.291033 71.179423,48.707701 69.182964,47.68272 59.664579,48.202071 52.011407,48.61965 51.630325,48.919259 46.386904,58.641059 L 43.5,63.993653 l 2.905463,5.565955 c 5.360613,10.269247 5.608532,10.44251 14.917117,10.425079 4.497581,-0.0084 8.654906,-0.345922 9.238501,-0.75 z M 56.448661,74.448541 C 52.546093,72.522518 50,68.198065 50,63.495708 50,60.626079 50.759981,59.040019 53.4,56.4 c 4.898555,-4.898555 11.301445,-4.898555 16.2,0 2.624542,2.624542 3.4,4.2324 3.4,7.04966 0,5.133618 -2.540378,9.460351 -6.534299,11.129118 -4.274427,1.785969 -6.184688,1.761133 -10.01704,-0.130237 z M 40.808333,76.925 C 40.61125,76.33375 40.0225,75.85 39.5,75.85 c -0.5225,0 -1.11125,0.48375 -1.308333,1.075 C 37.994583,77.51625 38.583333,78 39.5,78 c 0.916667,0 1.505417,-0.48375 1.308333,-1.075 z M 85,77.059017 C 85,75.382594 83.226456,74.967482 82.63617,76.505744 82.287868,77.413403 82.639301,78 83.531385,78 84.339123,78 85,77.576558 85,77.059017 Z m -53.027157,-6.706788 2.34087,-5.647771 -1.85591,-5.459998 c -1.020751,-3.002999 -2.518137,-5.714118 -3.327526,-6.02471 -0.809389,-0.310591 -4.250944,0.876301 -7.647899,2.637539 -11.187403,5.800393 -11.055555,11.068563 0.42278,16.892711 3.522837,1.7875 6.702531,3.25 7.065987,3.25 0.363455,0 1.714219,-2.541497 3.001698,-5.647771 z m 74.612087,-0.712544 c 4.1481,-3.309851 4.44881,-6.696854 0.90885,-10.236818 -2.6485,-2.648499 -9.922325,-6.343916 -12.559766,-6.380905 C 93.609699,53.003389 89,61.71849 89,64.240813 c 0,0.386188 1.101069,3.191874 2.446821,6.234857 l 2.446821,5.532697 4.638109,-1.821867 c 2.550959,-1.002027 6.174889,-3.048093 8.053179,-4.546815 z M 40.749864,50.416531 c -0.952958,-0.952958 -2.863492,0.590599 -2.153308,1.7397 0.422119,0.683003 0.981465,0.665748 1.699645,-0.05243 0.588756,-0.588756 0.792905,-1.348027 0.453663,-1.687268 z M 85,51.5 C 85,50.675 84.339123,50 83.531385,50 82.636792,50 82.28775,50.586289 82.638374,51.5 82.954956,52.325 83.615833,53 84.106989,53 84.598145,53 85,52.325 85,51.5 Z M 51.220158,36.71098 C 55.687812,31.653883 55.86769,30.017617 52.25,27.34299 45.162035,22.102722 38.48598,20.504577 36.032549,23.460781 c -1.685918,2.031407 -2.411952,8.523504 -1.576363,14.095612 l 0.702408,4.683997 6.170703,-0.659215 c 5.64715,-0.603284 6.486339,-1.016495 9.890861,-4.870195 z M 88.369714,39.75 c 1.183191,-4.415061 0.654886,-13.269866 -0.926418,-15.527494 -2.187672,-3.123339 -7.003553,-2.889548 -12.497515,0.606702 -7.5122,4.780618 -7.700161,5.375167 -3.505719,11.08914 3.042674,4.144951 4.258339,5.03045 7.352664,5.355731 8.472779,0.890673 8.950221,0.814693 9.576988,-1.524079 z M 63,39 c 0,-0.55 -0.675,-1 -1.5,-1 -0.825,0 -1.5,0.45 -1.5,1 0,0.55 0.675,1 1.5,1 0.825,0 1.5,-0.45 1.5,-1 z m 116.42371,44.980654 c -5.97657,-2.958412 -8.77598,-8.433749 -8.22271,-16.082694 0.8611,-11.904618 10.54723,-18.557248 21.13294,-14.51453 5.56504,2.125308 8.92496,7.619116 8.47408,13.855951 L 200.5,71.5 l -9.75,0.286212 c -7.68931,0.22572 -9.75,0.590715 -9.75,1.726947 0,2.769846 4.68195,4.805334 9.2711,4.030634 C 199.16323,76.042704 199.5,76.132333 199.5,80 c 0,3.105989 -0.39401,3.634364 -3.5,4.693558 -5.37138,1.831729 -12.01265,1.546105 -16.57629,-0.712904 z M 190.75603,62.75 c -0.62741,-1.909883 -7.19057,-2.136259 -8.71407,-0.300564 C 180.90747,63.816416 181.37146,64 185.96089,64 c 3.71696,0 5.08834,-0.357492 4.79514,-1.25 z m 17.46904,21.305208 c -3.90209,-2.449887 -5.58907,-6.286891 -4.83692,-11.001457 0.86797,-5.440584 4.48736,-8.26259 12.33046,-9.613956 6.63662,-1.143489 6.71784,-1.193993 3.80439,-2.365669 -2.23349,-0.898225 -4.06914,-0.922234 -7.34989,-0.09613 C 207.3199,62.200047 205,61.204771 205,57.900608 c 0,-4.499302 11.51247,-7.384632 18.24338,-4.572276 6.44492,2.692857 7.82606,6.30582 7.51997,19.671668 L 230.5,84.5 226,84.709153 c -2.475,0.115034 -6.75,0.477584 -9.5,0.805667 -4.01439,0.478928 -5.64556,0.191206 -8.27493,-1.459612 z M 220,76 c 2.30197,-2.301968 2.63922,-5 0.625,-5 -3.43053,0 -7.84432,1.407971 -8.32282,2.654925 C 211.59584,75.495598 213.79776,78 216.12244,78 217.1551,78 218.9,77.1 220,76 Z m 23.39411,8.091449 c -5.68416,-2.58137 -8.81709,-8.977364 -8.17716,-16.693983 0.48203,-5.812651 2.43079,-9.300535 7.17159,-12.835677 3.66165,-2.730439 14.45954,-2.914239 17.35334,-0.295387 1.82183,1.648732 2.01131,1.624229 4.00513,-0.517896 1.15106,-1.236678 2.24137,-3.598506 2.42291,-5.248506 0.29697,-2.699033 0.68121,-3 3.83008,-3 3.2381,0 3.53741,0.261905 4,3.5 0.47312,3.311828 0.74194,3.526882 5,4 4.01896,0.446551 4.53382,0.793917 4.81638,3.249515 0.25244,2.193871 -0.21542,2.951701 -2.3151,3.75 C 280.05396,60.549782 277.7741,61 276.4349,61 274.10795,61 274,61.284545 274,67.418213 274,75.599123 274.57251,77 277.91586,77 c 4.17671,0 6.50678,2.179919 5.71255,5.344409 C 283.01971,84.769649 282.53392,85 278.028,85 268.10081,85 266,82.290693 266,69.488131 c 0,-7.019298 -0.29309,-8.574622 -1.76421,-9.361942 -1.2017,-0.64313 -2.33958,-0.523465 -3.56872,0.375303 -1.30216,0.952164 -2.69011,1.06229 -4.98578,0.395595 -4.1994,-1.21956 -8.32398,-0.245302 -10.18005,2.404602 -2.19531,3.134249 -1.88492,8.940825 0.65022,12.16373 2.05655,2.614488 2.42567,2.70577 8.3679,2.069411 5.23239,-0.560341 6.31593,-0.40645 6.84495,0.972165 2.37742,6.195452 -8.90458,9.701466 -17.9702,5.584454 z M 139.62724,83.470992 C 139.28226,82.57198 139,73.564062 139,63.453396 c 0,-17.861418 0.0618,-18.416109 2.17841,-19.548877 2.67592,-1.432108 16.1175,-0.663685 20.05757,1.146643 5.85128,2.688468 7.89835,9.596067 4.87158,16.438581 l -2.02967,4.588419 4.09208,7.898283 c 4.7501,9.168349 4.60176,11.296786 -0.75511,10.834399 -3.33384,-0.287765 -3.87719,-0.825864 -7.31842,-7.24764 -2.67439,-4.990762 -4.48101,-7.191393 -6.43982,-7.844329 -4.70789,-1.569297 -5.53908,-0.508289 -5.86183,7.482553 L 147.5,84.5 l -3.62276,0.30278 c -2.62452,0.21935 -3.79559,-0.147617 -4.25,-1.331788 z M 156.42857,59.428571 C 160.00098,55.856166 157.59829,52 151.8,52 c -3.73913,0 -3.8,0.0614 -3.8,3.833333 0,2.108334 0.3,4.133334 0.66667,4.5 1.24768,1.247685 6.18497,0.672173 7.7619,-0.904762 z"
       id="path4665"
       inkscape:connector-curvature="0" />
    <path
       style="fill:#afe6f4"
       d="m 35.034018,112.24845 c -5.97591,-3.01461 -7.56542,-7.13478 -7.334303,-19.011295 l 0.199714,-10.262844 -6.69618,-3.036193 C 6.9538835,73.477147 2.5419302,64.451565 9.5574242,56.114125 12.399814,52.736137 18.747425,48.836704 24.358825,47.021404 l 3.858825,-1.248339 -0.686491,-8.241243 c -0.798416,-9.584879 0.458583,-15.612473 3.992884,-19.146774 2.010997,-2.010997 3.372374,-2.383576 8.680502,-2.375664 6.445734,0.0096 11.562172,2.201457 18.963527,8.123852 l 2.668073,2.13493 4.331927,-3.509555 C 72.764937,17.414094 76.24805,16 82.815481,16 c 10.507453,0 14.068768,5.845086 12.8037,21.01435 l -0.66203,7.938314 7.271429,3.45712 c 9.17485,4.362087 13.73792,8.921549 14.48223,14.470791 0.8864,6.608613 -2.70087,11.026584 -13.16248,16.210518 l -8.504842,4.214314 0.61522,8.667275 C 96.386487,102.22568 95.194254,106.81731 90.856523,110.46727 88.469078,112.47618 86.756963,113 82.578311,113 c -4.425674,0 -6.233325,-0.62377 -11.302559,-3.90017 -3.318877,-2.14509 -6.340201,-4.39509 -6.714054,-5 -1.196334,-1.93571 -3.39071,-1.20359 -10.042852,3.35064 -5.664883,3.87834 -11.750373,6.52925 -15.018846,6.5424 -0.55,0.002 -2.559692,-0.78278 -4.465982,-1.74442 z m 11.749226,-6.64405 c 2.594216,-1.31758 5.972526,-3.56302 7.507357,-4.98988 3.233468,-3.005989 2.985082,-3.867241 -2.950769,-10.231453 -3.378815,-3.622647 -4.543853,-4.203287 -9.703654,-4.836178 -3.941933,-0.483509 -6.236209,-0.346858 -7,0.416933 C 33.965364,86.634636 33.5,90.597203 33.5,95.638353 c 0,7.766807 0.213326,8.711097 2.360784,10.449997 3.094488,2.50577 5.221485,2.41153 10.92246,-0.48395 z m 41.144176,-0.23926 c 1.626722,-2.06804 2.069643,-4.05792 2.058925,-9.249999 -0.0075,-3.638327 -0.294662,-7.664612 -0.638116,-8.947298 -0.595212,-2.222922 -0.910733,-2.299686 -6.736345,-1.638908 -7.58742,0.860613 -7.951353,1.063071 -12.675142,7.051254 l -3.85117,4.881996 2.207214,2.375363 c 3.203673,3.447732 11.774055,8.142162 14.884634,8.153072 1.708896,0.006 3.42715,-0.94375 4.75,-2.62548 z M 65,88.345012 C 65,87.474522 63.765196,87 61.5,87 c -3.849772,0 -4.428608,1.316418 -1.837686,4.179355 1.553353,1.716435 1.78277,1.727824 3.5,0.173753 C 64.173041,90.438412 65,89.084769 65,88.345012 Z m 8.943766,-11.42608 c 1.62597,-2.244587 3.919476,-6.070703 5.096679,-8.502479 l 2.140368,-4.421412 -3.689195,-6.74752 C 71.821852,46.877546 72.006538,47 62.036142,47 56.641238,47 52.773921,47.470739 51.76688,48.25 49.1695,50.259884 43.005375,61.280326 43.002571,63.919143 43,66.338288 47.870787,75.949847 50.771689,79.25 52.030381,80.681925 54.007357,81 61.648715,81 l 9.33874,0 2.956311,-4.081068 z M 55.127301,71.903972 C 50.080646,67.202298 50.090221,60.784761 55.150243,56.527032 59.588791,52.792241 64.297889,53.097889 68.6,57.4 c 3.779557,3.779557 4.297402,6.963936 1.88965,11.620016 C 68.587822,72.697744 66.172797,74 61.254303,74 58.700162,74 56.609399,73.284757 55.127301,71.903972 Z M 43,78.722506 C 43,77.046757 40.144713,73 38.962348,73 37.317259,73 36.602794,78.134547 38.114653,79.092021 40.173126,80.395672 43,80.181854 43,78.722506 Z M 85.217056,78.75 C 86.39005,77.833206 86.582871,76.900229 85.94041,75.25 85.458631,74.0125 84.611504,73 84.057904,73 83.165274,73 80,78.031438 80,79.45034 c 0,1.035829 3.616934,0.550291 5.217056,-0.70034 z m -54.511696,-3 C 32.059537,73.968655 35,65.749102 35,63.745081 35,62.816651 33.904057,59.578905 32.564571,56.55009 l -2.435428,-5.506936 -3.950884,1.393953 C 17.099573,55.640253 12,59.95693 12,64.438692 c 0,3.037099 5.743287,8.267558 11.581217,10.547109 5.954746,2.325165 5.938798,2.323454 7.124143,0.764199 z m 69.74896,-1.187379 c 14.18474,-6.273165 14.05874,-14.271972 -0.32955,-20.920104 -2.956379,-1.366 -5.944185,-2.265308 -6.63957,-1.998464 -1.947018,0.747141 -5.725538,12.022323 -4.901436,14.625989 C 90.211094,71.411428 92.998717,77 93.935949,77 c 0.553863,0 3.48713,-1.096821 6.518371,-2.437379 z M 41.47432,53.04966 C 43.508628,49.115742 43.466491,49 40,49 c -2.463768,0 -3,0.411111 -3,2.3 0,1.898992 1.593785,4.7 2.67432,4.7 0.150876,0 0.960876,-1.327653 1.8,-2.95034 z m 44.943745,-3.180258 c -0.660605,-1.07224 -5.434776,-1.65138 -6.005167,-0.728468 -0.296652,0.479993 0.479796,2.303998 1.72544,4.053344 l 2.264808,3.18063 1.201715,-2.937454 c 0.660943,-1.6156 1.026885,-3.221223 0.813204,-3.568052 z M 49.297086,40.904428 c 0.149934,-0.222435 1.997063,-2.569397 4.10473,-5.21547 l 3.832121,-4.811041 -2.34991,-2.501365 c -5.094408,-5.422748 -13.288685,-8.933598 -17.29541,-7.410244 -3.486391,1.325524 -4.929138,6.030391 -4.346463,14.174032 0.282432,3.947357 1.043612,7.418239 1.718299,7.835219 1.108533,0.685111 13.705415,-1.134688 14.336633,-2.071131 z m 39.131485,1.524143 C 90.824213,40.032929 90.633473,26.003874 88.163792,22.953947 86.194593,20.52209 82.428661,20.104991 78,21.82825 c -4.334773,1.686726 -11.001234,7.1122 -10.970158,8.928022 0.01641,0.959051 1.779685,3.768604 3.918382,6.243452 3.366786,3.895962 4.671012,4.650279 9.720158,5.621784 3.20739,0.617134 5.911975,1.179758 6.010189,1.250277 0.09821,0.07052 0.885715,-0.578928 1.75,-1.443214 z M 65,39.622445 C 65,38.864789 64.28728,37.653384 63.416177,36.930433 61.559189,35.38927 58.696669,36.715086 58.176676,39.357183 57.925234,40.634764 58.647783,41 61.426676,41 63.795134,41 65,40.535511 65,39.622445 Z M 180.01993,83.312982 C 174.65391,80.517486 172,75.781125 172,69 c 0,-6.802905 2.68102,-11.566083 8.01993,-14.248446 9.70028,-4.873587 20.6403,1.793528 19.78685,12.058586 L 199.5,70.5 l -8.99247,0.292469 c -4.94586,0.160858 -9.37806,0.67806 -9.84934,1.149337 -1.52718,1.527182 0.33038,4.810818 3.45324,6.10435 2.37698,0.984577 4.1444,1.007461 8.05702,0.10432 C 197.69178,76.875539 199,77.217571 199,79.936572 c 0,2.941656 -2.57575,4.263162 -9.24027,4.740782 -4.75688,0.340907 -7.09523,0.01335 -9.7398,-1.364372 z M 192.98469,64.25 c -0.093,-4.555622 -9.57654,-6.061787 -12.19903,-1.937439 C 179.30764,64.637029 180.07943,65 186.5,65 c 3.575,0 6.49311,-0.3375 6.48469,-0.75 z m 15.90336,19.30775 c -3.63697,-2.05657 -5.43685,-6.791218 -4.29399,-11.295516 1.26151,-4.971981 4.86252,-7.311937 12.28879,-7.985328 6.64223,-0.602296 7.43824,-1.817704 2.70182,-4.125322 -2.13024,-1.037867 -3.72538,-1.104745 -6.92616,-0.290387 -3.19635,0.813231 -4.45623,0.761393 -5.44525,-0.224042 -4.63723,-4.620383 7.98369,-8.67084 16.25244,-5.215933 5.41765,2.263638 6.64849,5.837372 6.31797,18.344238 L 229.5,83.5 l -4,0.20635 c -2.2,0.113493 -6.25,0.458802 -9,0.767355 -3.45469,0.387619 -5.80725,0.104532 -7.61195,-0.915955 z m 11.6574,-7.012295 c 1.35,-1.35 2.45455,-3.375 2.45455,-4.5 0,-1.64405 -0.63779,-2.042562 -3.25,-2.030713 -6.67505,0.03028 -10.58201,4.010393 -7.22852,7.36388 2.30684,2.306845 5.18256,2.008245 8.02397,-0.833167 z M 243,82.818567 c -11.16449,-7.523062 -8.4771,-26.578135 4.13919,-29.349139 7.84158,-1.722299 16.39816,2.421794 12.67921,6.140748 -1.05252,1.05252 -2.18902,1.143921 -4.8247,0.388018 -8.31574,-2.384925 -13.98072,4.451051 -11.04931,13.333305 1.39518,4.227424 4.71612,5.804443 11.44763,5.436151 5.28292,-0.289036 6.43799,0.714978 4.25584,3.699257 -1.00395,1.372985 -2.9798,1.998116 -7.26348,2.298063 -4.94442,0.346214 -6.44346,0.0353 -9.38438,-1.946403 z M 140.71258,83.379243 C 139.42108,82.087747 139.8751,46.524898 141.2,45.2 c 1.64466,-1.644657 14.0768,-1.533287 18.08212,0.161984 7.93887,3.360164 9.83717,11.366421 4.47756,18.88456 -1.00582,1.410907 -0.96798,2.179595 0.19692,4 4.08996,6.391474 7.16799,12.986399 6.66855,14.287907 -1.10619,2.882681 -5.40943,1.676902 -8.0891,-2.266586 C 161.14122,78.215192 160,76.147158 160,75.672236 c 0,-0.474922 -0.94742,-2.194019 -2.10537,-3.820215 -1.83765,-2.580743 -2.6324,-2.918273 -6.25,-2.65437 L 147.5,69.5 l -0.5,7 c -0.47112,6.595614 -0.64659,7.017095 -3.03742,7.29591 -1.39559,0.16275 -2.85809,-0.02475 -3.25,-0.416667 z m 16.06491,-22.935947 c 5.06575,-3.548188 1.61668,-9.739137 -5.15041,-9.244788 -4.00655,0.292687 -4.13633,0.414082 -4.44371,4.156653 -0.17415,2.120339 -0.0758,4.482839 0.21861,5.25 0.72375,1.886058 6.59645,1.784668 9.37551,-0.161865 z m 112.72909,21.15419 C 267.20706,79.29797 267,78.356494 267,70.200442 267,62.579967 266.7143,61.051423 265,59.5 c -2.42635,-2.195817 -2.47569,-2.881458 -0.35959,-4.99755 0.90222,-0.902224 1.93073,-3.071866 2.28556,-4.821428 0.50176,-2.473971 1.22351,-3.248941 3.24712,-3.48659 2.27655,-0.267354 2.71381,0.170357 3.49638,3.5 0.82045,3.490808 1.20657,3.831514 4.66831,4.119261 C 284.95325,54.363587 284.04291,60 277.33862,60 l -3.41649,0 0.28894,8.738747 c 0.25977,7.856875 0.49076,8.76904 2.28893,9.038935 5.88642,0.883516 6.62938,1.296198 6.31492,3.507664 -0.27269,1.917707 -1.01797,2.255151 -5.55834,2.516685 -4.48785,0.258509 -5.60462,-0.05916 -7.75,-2.204545 z"
       id="path4663"
       inkscape:connector-curvature="0" />
    <path
       style="fill:#88ddf3"
       d="M 33.897883,110.71537 C 29.057719,107.461 27.877347,103.35774 28.514083,92 l 0.532588,-9.5 -7.52857,-3.373946 C 10.66978,74.264353 5.7697006,68.038039 7.4676693,61.272793 8.4988467,57.164255 14.989256,51.618024 22.130634,48.742893 L 28.5,46.178574 28.160144,36.686634 c -0.591187,-16.51148 3.933147,-22.338449 15.466319,-19.919341 4.698016,0.98542 7.450131,2.504117 16.454456,9.080051 1.626245,1.18766 2.352991,0.935755 6.131989,-2.125472 5.904862,-4.783312 10.078965,-6.743352 15.590856,-7.321024 5.826998,-0.610697 9.097631,0.982877 11.520195,5.613063 1.541403,2.946046 1.743276,5.081976 1.30313,13.787862 -0.459423,9.087169 -0.320765,10.366254 1.176041,10.84868 0.933278,0.3008 4.47087,1.861747 7.86132,3.468772 18.27411,8.661682 16.0294,22.636963 -4.879608,30.379803 l -4.715159,1.746076 0.603819,9.192288 c 0.682049,10.383228 -0.361081,14.981028 -4.221677,18.607868 -4.907047,4.60993 -15.318545,2.40072 -23.806036,-5.0514 C 64.770388,103.34724 62.680666,102 62.001962,102 c -0.678704,0 -3.374789,1.57148 -5.9913,3.49217 -5.855495,4.29833 -12.653593,7.45667 -16.112779,7.48587 -1.431164,0.0121 -4.131164,-1.00612 -6,-2.26267 z m 11.858463,-3.69128 c 5.021018,-2.27908 10.850706,-6.5577 11.601782,-8.514973 C 58.026689,96.766875 50.441754,87.118453 47.534672,86.013182 46.344028,85.5605 42.841933,84.87428 39.752239,84.488248 l -5.617627,-0.701876 -1.170208,4.345823 c -0.643615,2.390203 -0.977778,7.006155 -0.742585,10.257671 0.35515,4.909894 0.890488,6.309984 3.158667,8.260994 3.293679,2.8331 4.834435,2.88852 10.37586,0.37323 z m 42.443561,-1.07015 c 3.00596,-3.00596 3.040204,-3.15765 2.601194,-11.521884 -0.244677,-4.661702 -0.932799,-8.963754 -1.529161,-9.560116 -0.779058,-0.779058 -3.054879,-0.751911 -8.084443,0.09643 -6.591313,1.11177 -7.239235,1.46427 -11.093823,6.035584 -2.251521,2.67017 -4.07976,5.674122 -4.062753,6.675448 0.05359,3.155278 12.349655,11.175478 17.296002,11.281458 1.004808,0.0215 3.197651,-1.33159 4.872984,-3.00692 z M 65.481568,90.387787 C 67.661122,87.061367 66.68374,86 61.440983,86 c -5.122524,0 -5.88519,1.83381 -2.33453,5.613314 2.415885,2.571592 4.09917,2.248003 6.375115,-1.225527 z M 72.9042,79.872454 c 1.090161,-1.17015 3.615419,-5.235738 5.611685,-9.034638 L 82.14546,63.930723 78.477927,57.215362 C 72.537022,46.337388 72.049141,46 62.259945,46 57.644659,46 53.013524,46.457578 51.968533,47.016841 49.499617,48.338165 42,61.185518 42,64.093616 42,66.611334 47.131055,76.304981 50.287258,79.75 52.141422,81.773833 53.282118,82 61.635359,82 69.819908,82 71.157334,81.747495 72.9042,79.872454 Z m -13.620066,-6.6477 c -1.218726,-0.1952 -3.400889,-1.76323 -4.84925,-3.48451 -7.499144,-8.912225 5.385711,-20.073495 13.642039,-11.817167 6.69245,6.69245 0.857184,16.847289 -8.792789,15.301677 z M 44,79.368034 C 44,77.469855 40.19523,71 39.078956,71 38.138243,71 36,75.569113 36,77.579277 c 0,1.535225 3.185392,3.246334 6.25,3.357337 0.977676,0.03541 1.75,-0.656846 1.75,-1.56858 z M 83.875,80.375 C 86.350721,79.879856 87,79.242889 87,77.309259 87,74.462622 85.345397,71 83.98514,71 82.991819,71 79,78.174792 79,79.960162 c 0,1.209279 0.63333,1.263172 4.875,0.414838 z m -50.106223,-9.261807 2.55239,-6.386807 -1.842693,-5.421113 c -2.683009,-7.893282 -3.487213,-8.713816 -7.75558,-7.913066 -4.535542,0.850873 -12.712314,6.285744 -14.6246,9.720561 -2.8734758,5.161291 1.505071,10.507156 12.362396,15.093523 2.22162,0.938461 4.650497,1.613461 5.397503,1.5 0.747007,-0.11346 2.506769,-3.080354 3.910584,-6.593098 z m 68.957283,3.244922 c 9.99558,-4.746768 11.94577,-10.711549 5.42753,-16.600387 -4.07471,-3.681257 -11.811778,-7.177438 -14.610295,-6.602015 -0.979829,0.20147 -2.714167,2.93666 -4.180933,6.593666 l -2.506524,6.24938 2.147039,5.738476 c 3.501812,9.359433 3.644053,9.407328 13.723183,4.62088 z M 42.01096,53.75 c 2.951286,-4.84046 2.610299,-5.922263 -1.752643,-5.560365 -4.157135,0.344826 -4.961494,1.830669 -3.323417,6.139139 1.339016,3.52188 2.668251,3.37032 5.07606,-0.578774 z m 43.953856,1.315741 c 1.207877,-2.256938 1.36487,-5.76275 0.285184,-6.368466 -0.4125,-0.231417 -1.997382,-0.719028 -3.521959,-1.08358 -3.780344,-0.903943 -4.384393,1.159551 -1.680801,5.741798 2.437035,4.130467 3.43632,4.478001 4.917576,1.710248 z M 48.581294,42.204774 c 0.683145,-0.387626 3.14265,-3.095592 5.465567,-6.017704 l 4.223484,-5.31293 -3.182395,-3.283399 c -4.489711,-4.632206 -11.222176,-7.782227 -15.820441,-7.40215 -5.511215,0.455538 -7.573639,4.788645 -6.914896,14.528043 0.268461,3.969149 0.810043,7.737532 1.203516,8.374185 0.748772,1.211539 12.555478,0.515288 15.025165,-0.886045 z M 90.10911,41.25 c 0.582785,-1.5125 0.902412,-5.972698 0.710283,-9.91155 C 90.402958,22.801093 88.546618,20 83.305174,20 77.621488,20 66,27.20658 66,30.73108 c 0,0.854311 2.03721,3.937873 4.527133,6.852359 4.685348,5.484257 5.304672,5.738056 15.247618,6.248458 2.722186,0.139738 3.453544,-0.295918 4.334359,-2.581897 z M 66.427358,41.117537 C 67.164234,39.925247 63.197204,35 61.5,35 59.802796,35 55.835766,39.925247 56.572642,41.117537 56.872608,41.602892 59.089919,42 61.5,42 c 2.410081,0 4.627392,-0.397108 4.927358,-0.882463 z M 180.01993,83.312982 C 172.55528,79.424183 169.64987,69.11499 173.75155,61.071085 180.41057,48.011954 200.74258,52.253966 199.7724,66.5 l -0.2724,4 -9.92015,0.5 c -5.8949,0.297117 -10.06733,0.945781 -10.28287,1.598619 -0.1995,0.604241 0.51318,2.179241 1.58373,3.5 1.69016,2.085176 2.71498,2.378579 7.78288,2.228213 3.21002,-0.09524 6.73619,-0.320243 7.83593,-0.5 2.52355,-0.412489 3.28549,3.27678 1.05846,5.125045 -2.66841,2.214588 -13.55016,2.438641 -17.53805,0.361105 z M 193,64.19113 c 0,-0.444879 -0.62227,-1.659879 -1.38283,-2.7 C 189.05171,57.982657 180,59.643307 180,63.622445 180,64.651231 181.64567,65 186.5,65 c 3.575,0 6.5,-0.363992 6.5,-0.80887 z m 16.11007,19.458579 c -4.74585,-2.720213 -6.30576,-8.436818 -3.68507,-13.504684 1.75678,-3.397231 5.47202,-5.169825 12.325,-5.880438 5.8685,-0.608527 6.44111,-1.438036 2.68952,-3.896172 -2.15824,-1.414133 -3.29718,-1.506628 -7.25,-0.588782 -3.61944,0.840435 -4.98314,0.802141 -5.97626,-0.167821 -4.73833,-4.627796 8.63096,-8.677695 16.42966,-4.976967 5.3996,2.562279 6.46875,5.71894 6.14075,18.130615 L 229.5,83.5 225,83.73147 c -2.475,0.127309 -6.525,0.46921 -9,0.75978 -2.877,0.337766 -5.36197,0.03425 -6.88993,-0.841541 z M 220.36514,76.92742 C 221.91877,75.705337 223,73.858732 223,72.42742 223,70.285927 222.55505,70 219.22251,70 c -6.60205,0 -10.94544,5.31466 -6.47251,7.919901 2.66528,1.552382 4.72038,1.284541 7.61514,-0.992481 z m 23.70594,6.377959 c -1.8859,-0.992959 -4.31123,-3.009358 -5.38963,-4.480887 -2.44405,-3.335034 -3.29971,-11.421111 -1.71628,-16.21895 2.31465,-7.013465 11.70667,-11.189067 19.43225,-8.639395 2.878,0.949823 3.60258,1.699356 3.60258,3.726628 0,2.49284 -0.0972,2.525522 -5.50442,1.84994 -5.20107,-0.649831 -5.66949,-0.52265 -8.5,2.307854 -3.41698,3.416981 -3.99104,8.323752 -1.53049,13.081921 1.72049,3.327062 5.09207,4.406423 10.99785,3.520797 3.27329,-0.490861 4.38441,-0.293476 4.82601,0.857319 1.82854,4.765091 -9.46934,7.547977 -16.21787,3.994773 z m -103.3585,0.07386 C 140.32066,82.987326 140,74.471767 140,64.455778 c 0,-15.004053 0.26534,-18.431101 1.5068,-19.461425 2.22687,-1.848131 16.56144,-0.834884 19.99241,1.413175 3.98375,2.610248 5.96873,8.087253 4.59398,12.67577 -0.60631,2.023696 -1.73624,4.205496 -2.51094,4.848444 -1.18256,0.981434 -0.68077,2.537092 3.12744,9.695784 4.7258,8.883587 4.75792,10.859677 0.16588,10.207139 -1.72679,-0.245381 -3.2942,-2.066438 -5.87515,-6.825896 -3.76578,-6.944355 -7.3752,-9.633488 -11.5305,-8.590575 -2.1988,0.551862 -2.40528,1.156748 -2.67627,7.839904 -0.28054,6.918672 -0.4069,7.255109 -2.83107,7.537812 -1.39559,0.16275 -2.85809,-0.02475 -3.25,-0.416667 z m 16.06491,-22.935947 c 5.06575,-3.548188 1.61668,-9.739137 -5.15041,-9.244788 -4.00655,0.292687 -4.13633,0.414082 -4.44371,4.156653 -0.17415,2.120339 -0.0758,4.482839 0.21861,5.25 0.72375,1.886058 6.59645,1.784668 9.37551,-0.161865 z M 269.45455,81.545455 C 267.21652,79.307429 267,78.306492 267,70.198464 267,62.741359 266.67718,60.933802 265,59 c -2.428,-2.799505 -2.42295,-2.526542 -0.0871,-4.711045 1.05209,-0.983925 2.06459,-3.138955 2.25,-4.788955 0.24986,-2.223507 0.92064,-3.082861 2.59158,-3.320137 2.27919,-0.323646 2.59428,0.110347 3.68106,5.070137 0.53529,2.442955 1.05056,2.75 4.61491,2.75 2.72051,0 4.20596,0.504586 4.61373,1.567217 0.84243,2.195349 -0.92621,3.628272 -5.36332,4.345283 L 273.5,60.526694 273.20691,66.584922 C 272.80911,74.807671 274.10838,78 277.8528,78 c 3.28273,0 5.65844,2.225347 4.79046,4.487265 C 282.23058,83.562706 280.59518,84 276.98593,84 c -4.05689,0 -5.56996,-0.493124 -7.53138,-2.454545 z"
       id="path4661"
       inkscape:connector-curvature="0" />
    <path
       style="fill:#6bd5f2"
       d="m 34.300825,110.04187 c -4.196724,-2.5589 -5.549071,-7.66341 -5.12696,-19.351987 L 29.5,81.658969 24.459046,79.579485 C 13.573012,75.088799 8.0129904,69.892398 8.0037381,64.20034 7.9941851,58.323373 15.043828,51.806909 24.982338,48.505867 L 29.76364,46.917773 29.63182,34.88309 29.5,22.848408 l 3.404508,-3.04816 c 3.163729,-2.832584 3.796693,-3.007683 8.949861,-2.475829 5.397175,0.557037 7.238093,1.510459 17.352265,8.986836 l 2.706635,2.000739 4.494786,-3.683139 c 5.862589,-4.803951 12.109169,-7.579572 17.119439,-7.606893 8.329096,-0.04542 10.896343,4.850872 10.333466,19.708143 -0.292332,7.716181 -0.07577,9.674865 1.13904,10.301954 0.825,0.425868 4.509715,2.182393 8.18826,3.903389 C 111.60845,54.874813 115,58.69734 115,64.248142 c 0,3.530533 -0.60311,4.672573 -4.3774,8.288981 -2.67785,2.56583 -6.85161,5.14065 -10.750003,6.631752 L 93.5,81.606338 93.841501,92.553169 C 94.158869,102.72642 94.015158,103.74734 91.807868,107 87.099246,113.93863 79.103622,113.26133 68.229714,105.00272 65.331056,102.80122 62.240463,101 61.361729,101 c -0.878735,0 -3.202678,1.40919 -5.164318,3.13153 -4.267013,3.74649 -12.721647,7.84658 -16.197411,7.85496 -1.375,0.003 -3.939629,-0.87176 -5.699175,-1.94462 z m 13.630854,-3.00702 C 53.474729,104.207 59.358022,98.419878 58.330847,96.805674 51.599108,86.226761 49.859834,85.036316 38.838822,83.46438 c -5.623763,-0.802123 -6.535106,0.336439 -7.476182,9.340165 -0.651293,6.231236 0.65483,12.070065 3.289357,14.704595 2.091666,2.09167 8.713587,1.85516 13.279682,-0.47429 z m 41.012544,0.0209 c 2.548496,-2.5485 3.468601,-7.831989 2.679193,-15.384642 -0.879038,-8.410175 -1.672478,-9.009479 -10.205194,-7.708221 -6.568953,1.001781 -7.158829,1.31964 -11.684103,6.296064 -6.378176,7.014053 -6.116474,8.829368 2.08,14.428079 7.334231,5.00974 13.619909,5.87891 17.130104,2.36872 z M 67,89.616694 c 1.333333,-2.370577 1.333333,-2.773519 0,-3.626484 -1.881729,-1.203785 -9.034896,-1.254093 -10.894427,-0.07662 -1.153356,0.730316 -1.01715,1.493413 0.787855,4.413972 1.200255,1.942054 2.727748,3.736858 3.394427,3.988454 C 62.030669,94.973731 65.257674,92.714433 67,89.616694 Z M 72.844433,81.25 c 1.136301,-0.9625 3.893064,-5.177841 6.12614,-9.367425 l 4.060139,-7.617425 -3.55473,-6.882575 C 73.301248,45.427216 73.469259,45.552228 63.035392,45.149666 55.97385,44.877216 53.415436,45.153001 51.527245,46.390191 48.489705,48.380464 41,61.044545 41,64.190343 41,66.822488 48.212812,79.825116 50.740685,81.75 51.778714,82.540422 55.76405,83 61.580346,83 c 7.306367,0 9.622989,-0.359913 11.264087,-1.75 z M 58.356999,72.029953 C 52.907501,69.77605 51.361945,62.547146 55.454545,58.454545 60.75228,53.156811 70,56.86067 70,64.280231 c 0,5.586017 -6.46698,9.890517 -11.643001,7.749722 z M 45,79.732135 C 45,77.26785 40.511522,70 38.989629,70 37.54027,70 34.841306,75.87807 35.189319,78.27669 35.499289,80.41311 38.1799,81.697854 42.75,81.90032 44.451221,81.97569 45,81.446863 45,79.732135 Z M 87.25,80.32563 C 89.199199,79.172577 86.680532,70 84.414719,70 82.643799,70 78,77.288532 78,80.068026 c 0,1.923376 0.371802,2.046247 4.25,1.404519 2.3375,-0.386788 4.5875,-0.9029 5,-1.146915 z M 31.672913,77.75 c 0.504791,-0.6875 1.987634,-3.921264 3.295206,-7.186143 l 2.377403,-5.936143 -2.520873,-7.063857 C 31.857762,49.250199 30.628242,48.700988 22.431276,52.027893 16.915265,54.266678 10,60.677604 10,63.552541 c 0,4.797105 5.304974,9.801587 14.46069,13.641586 4.943482,2.073347 6.036193,2.157566 7.212223,0.555873 z M 102.67153,75.375528 C 116.08527,69.029814 116.19287,59.750421 102.92958,53.122674 96.255563,49.787629 92.830735,49.236835 91.285323,51.25 c -0.527761,0.6875 -1.950968,3.964207 -3.162683,7.281572 -2.062664,5.647048 -2.104924,6.268628 -0.662878,9.75 0.847131,2.045135 2.212904,5.342797 3.035051,7.328138 1.336949,3.228496 1.782371,3.537537 4.217691,2.926311 1.497583,-0.37587 5.079144,-1.798091 7.959026,-3.160493 z M 43.451334,53.096037 c 2.859956,-5.643851 2.098209,-7.174994 -3.169167,-6.370155 -4.765956,0.728223 -5.830713,2.49987 -4.390806,7.30585 1.703754,5.686623 4.37151,5.356435 7.559973,-0.935695 z m 43.388151,2.35691 c 1.902372,-4.175252 1.467681,-7.343165 -1.089485,-7.939883 -8.008755,-1.868853 -9.434786,-0.142195 -5.296572,6.413161 2.966651,4.69948 4.746569,5.125006 6.386057,1.526722 z M 48.316426,43.069795 c 3.206552,-1.219129 10.988267,-11.717676 9.975902,-13.458791 -2.762859,-4.7517 -13.901276,-10.85433 -19.013262,-10.41718 -6.794844,0.58106 -9.955882,9.647955 -7.268752,20.84917 l 1.24905,5.206623 6.381475,-0.653801 c 3.509811,-0.359591 7.413825,-1.0463 8.675587,-1.526021 z M 91.063044,40.765874 C 91.690116,38.437105 92.02456,33.726642 91.806252,30.29818 91.132562,19.718089 85.266829,16.272416 75.987966,21.006139 71.033678,23.533628 65,28.781124 65,30.562383 c 0,0.745359 1.85762,3.839161 4.128043,6.875116 3.322755,4.443106 4.834606,5.637585 7.75,6.123102 1.992077,0.331752 4.071957,0.755807 4.621957,0.942345 0.55,0.186538 2.670155,0.374686 4.711456,0.418107 3.538561,0.07527 3.764568,-0.118296 4.851588,-4.155179 z M 67.6727,41.410546 C 68.058692,40.404667 67.126105,38.664567 65.13266,36.671121 61.645446,33.183907 60.253746,33.440143 56.679469,38.227499 54.005874,41.808488 55.231947,43 61.590402,43 65.669119,43 67.218101,42.595213 67.6727,41.410546 Z M 180.01993,83.312982 C 172.55528,79.424183 169.64987,69.11499 173.75155,61.071085 180.41057,48.011954 200.74258,52.253966 199.7724,66.5 l -0.2724,4 -9.92015,0.5 c -5.8949,0.297117 -10.06733,0.945781 -10.28287,1.598619 -0.1995,0.604241 0.51318,2.179241 1.58373,3.5 1.69016,2.085176 2.71498,2.378579 7.78288,2.228213 3.21002,-0.09524 6.73619,-0.320243 7.83593,-0.5 2.52355,-0.412489 3.28549,3.27678 1.05846,5.125045 -2.66841,2.214588 -13.55016,2.438641 -17.53805,0.361105 z M 193,64.19113 c 0,-0.444879 -0.62227,-1.659879 -1.38283,-2.7 C 189.05171,57.982657 180,59.643307 180,63.622445 180,64.651231 181.64567,65 186.5,65 c 3.575,0 6.5,-0.363992 6.5,-0.80887 z m 16.11007,19.458579 c -4.74585,-2.720213 -6.30576,-8.436818 -3.68507,-13.504684 1.75678,-3.397231 5.47202,-5.169825 12.325,-5.880438 5.8685,-0.608527 6.44111,-1.438036 2.68952,-3.896172 -2.15824,-1.414133 -3.29718,-1.506628 -7.25,-0.588782 -3.61944,0.840435 -4.98314,0.802141 -5.97626,-0.167821 -4.73833,-4.627796 8.63096,-8.677695 16.42966,-4.976967 5.3996,2.562279 6.46875,5.71894 6.14075,18.130615 L 229.5,83.5 225,83.73147 c -2.475,0.127309 -6.525,0.46921 -9,0.75978 -2.877,0.337766 -5.36197,0.03425 -6.88993,-0.841541 z M 220.36514,76.92742 C 221.91877,75.705337 223,73.858732 223,72.42742 223,70.285927 222.55505,70 219.22251,70 c -6.60205,0 -10.94544,5.31466 -6.47251,7.919901 2.66528,1.552382 4.72038,1.284541 7.61514,-0.992481 z m 23.70594,6.377959 c -1.8859,-0.992959 -4.31123,-3.009358 -5.38963,-4.480887 -2.44405,-3.335034 -3.29971,-11.421111 -1.71628,-16.21895 2.31465,-7.013465 11.70667,-11.189067 19.43225,-8.639395 2.878,0.949823 3.60258,1.699356 3.60258,3.726628 0,2.49284 -0.0972,2.525522 -5.50442,1.84994 -5.20107,-0.649831 -5.66949,-0.52265 -8.5,2.307854 -3.41698,3.416981 -3.99104,8.323752 -1.53049,13.081921 1.72049,3.327062 5.09207,4.406423 10.99785,3.520797 3.27329,-0.490861 4.38441,-0.293476 4.82601,0.857319 1.82854,4.765091 -9.46934,7.547977 -16.21787,3.994773 z m -103.3585,0.07386 C 140.32066,82.987326 140,74.471767 140,64.455778 c 0,-15.004053 0.26534,-18.431101 1.5068,-19.461425 2.22687,-1.848131 16.56144,-0.834884 19.99241,1.413175 3.98375,2.610248 5.96873,8.087253 4.59398,12.67577 -0.60631,2.023696 -1.73624,4.205496 -2.51094,4.848444 -1.18256,0.981434 -0.68077,2.537092 3.12744,9.695784 4.7258,8.883587 4.75792,10.859677 0.16588,10.207139 -1.72679,-0.245381 -3.2942,-2.066438 -5.87515,-6.825896 -3.76578,-6.944355 -7.3752,-9.633488 -11.5305,-8.590575 -2.1988,0.551862 -2.40528,1.156748 -2.67627,7.839904 -0.28054,6.918672 -0.4069,7.255109 -2.83107,7.537812 -1.39559,0.16275 -2.85809,-0.02475 -3.25,-0.416667 z m 16.06491,-22.935947 c 5.06575,-3.548188 1.61668,-9.739137 -5.15041,-9.244788 -4.00655,0.292687 -4.13633,0.414082 -4.44371,4.156653 -0.17415,2.120339 -0.0758,4.482839 0.21861,5.25 0.72375,1.886058 6.59645,1.784668 9.37551,-0.161865 z M 269.45455,81.545455 C 267.21652,79.307429 267,78.306492 267,70.198464 267,62.741359 266.67718,60.933802 265,59 c -2.428,-2.799505 -2.42295,-2.526542 -0.0871,-4.711045 1.05209,-0.983925 2.06459,-3.138955 2.25,-4.788955 0.24986,-2.223507 0.92064,-3.082861 2.59158,-3.320137 2.27919,-0.323646 2.59428,0.110347 3.68106,5.070137 0.53529,2.442955 1.05056,2.75 4.61491,2.75 2.72051,0 4.20596,0.504586 4.61373,1.567217 0.84243,2.195349 -0.92621,3.628272 -5.36332,4.345283 L 273.5,60.526694 273.20691,66.584922 C 272.80911,74.807671 274.10838,78 277.8528,78 c 3.28273,0 5.65844,2.225347 4.79046,4.487265 C 282.23058,83.562706 280.59518,84 276.98593,84 c -4.05689,0 -5.56996,-0.493124 -7.53138,-2.454545 z"
       id="path4659"
       inkscape:connector-curvature="0" />
    <path
       style="fill:#9f9f9f"
       d="M 180.01993,83.312982 C 172.55528,79.424183 169.64987,69.11499 173.75155,61.071085 180.41057,48.011954 200.74258,52.253966 199.7724,66.5 l -0.2724,4 -9.92015,0.5 c -5.8949,0.297117 -10.06733,0.945781 -10.28287,1.598619 -0.1995,0.604241 0.51318,2.179241 1.58373,3.5 1.69016,2.085176 2.71498,2.378579 7.78288,2.228213 3.21002,-0.09524 6.73619,-0.320243 7.83593,-0.5 2.52355,-0.412489 3.28549,3.27678 1.05846,5.125045 -2.66841,2.214588 -13.55016,2.438641 -17.53805,0.361105 z M 193,64.19113 c 0,-0.444879 -0.62227,-1.659879 -1.38283,-2.7 C 189.05171,57.982657 180,59.643307 180,63.622445 180,64.651231 181.64567,65 186.5,65 c 3.575,0 6.5,-0.363992 6.5,-0.80887 z m 16.11007,19.458579 c -4.74585,-2.720213 -6.30576,-8.436818 -3.68507,-13.504684 1.75678,-3.397231 5.47202,-5.169825 12.325,-5.880438 5.8685,-0.608527 6.44111,-1.438036 2.68952,-3.896172 -2.15824,-1.414133 -3.29718,-1.506628 -7.25,-0.588782 -3.61944,0.840435 -4.98314,0.802141 -5.97626,-0.167821 -4.73833,-4.627796 8.63096,-8.677695 16.42966,-4.976967 5.3996,2.562279 6.46875,5.71894 6.14075,18.130615 L 229.5,83.5 225,83.73147 c -2.475,0.127309 -6.525,0.46921 -9,0.75978 -2.877,0.337766 -5.36197,0.03425 -6.88993,-0.841541 z M 220.36514,76.92742 C 221.91877,75.705337 223,73.858732 223,72.42742 223,70.285927 222.55505,70 219.22251,70 c -6.60205,0 -10.94544,5.31466 -6.47251,7.919901 2.66528,1.552382 4.72038,1.284541 7.61514,-0.992481 z m 23.70594,6.377959 c -1.8859,-0.992959 -4.31123,-3.009358 -5.38963,-4.480887 -2.44405,-3.335034 -3.29971,-11.421111 -1.71628,-16.21895 2.31465,-7.013465 11.70667,-11.189067 19.43225,-8.639395 2.878,0.949823 3.60258,1.699356 3.60258,3.726628 0,2.49284 -0.0972,2.525522 -5.50442,1.84994 -5.20107,-0.649831 -5.66949,-0.52265 -8.5,2.307854 -3.41698,3.416981 -3.99104,8.323752 -1.53049,13.081921 1.72049,3.327062 5.09207,4.406423 10.99785,3.520797 3.27329,-0.490861 4.38441,-0.293476 4.82601,0.857319 1.82854,4.765091 -9.46934,7.547977 -16.21787,3.994773 z m -103.3585,0.07386 C 140.32066,82.987326 140,74.471767 140,64.455778 c 0,-15.004053 0.26534,-18.431101 1.5068,-19.461425 2.22687,-1.848131 16.56144,-0.834884 19.99241,1.413175 3.98375,2.610248 5.96873,8.087253 4.59398,12.67577 -0.60631,2.023696 -1.73624,4.205496 -2.51094,4.848444 -1.18256,0.981434 -0.68077,2.537092 3.12744,9.695784 4.7258,8.883587 4.75792,10.859677 0.16588,10.207139 -1.72679,-0.245381 -3.2942,-2.066438 -5.87515,-6.825896 -3.76578,-6.944355 -7.3752,-9.633488 -11.5305,-8.590575 -2.1988,0.551862 -2.40528,1.156748 -2.67627,7.839904 -0.28054,6.918672 -0.4069,7.255109 -2.83107,7.537812 -1.39559,0.16275 -2.85809,-0.02475 -3.25,-0.416667 z m 16.06491,-22.935947 c 5.06575,-3.548188 1.61668,-9.739137 -5.15041,-9.244788 -4.00655,0.292687 -4.13633,0.414082 -4.44371,4.156653 -0.17415,2.120339 -0.0758,4.482839 0.21861,5.25 0.72375,1.886058 6.59645,1.784668 9.37551,-0.161865 z M 269.45455,81.545455 C 267.21652,79.307429 267,78.306492 267,70.198464 267,62.741359 266.67718,60.933802 265,59 c -2.428,-2.799505 -2.42295,-2.526542 -0.0871,-4.711045 1.05209,-0.983925 2.06459,-3.138955 2.25,-4.788955 0.24986,-2.223507 0.92064,-3.082861 2.59158,-3.320137 2.27919,-0.323646 2.59428,0.110347 3.68106,5.070137 0.53529,2.442955 1.05056,2.75 4.61491,2.75 2.72051,0 4.20596,0.504586 4.61373,1.567217 0.84243,2.195349 -0.92621,3.628272 -5.36332,4.345283 L 273.5,60.526694 273.20691,66.584922 C 272.80911,74.807671 274.10838,78 277.8528,78 c 3.28273,0 5.65844,2.225347 4.79046,4.487265 C 282.23058,83.562706 280.59518,84 276.98593,84 c -4.05689,0 -5.56996,-0.493124 -7.53138,-2.454545 z"
       id="path4657"
       inkscape:connector-curvature="0" />
    <path
       style="fill:#5c5c5c"
       d="m 180.07727,82.241591 c -6.92629,-3.837014 -9.34172,-14.546066 -4.81407,-21.343708 7.03239,-10.558186 22.90255,-7.592609 23.14854,4.325651 L 198.5,69.5 l -8,0.251852 c -13.60075,0.428172 -15.20751,1.694483 -9.4524,7.449591 2.98435,2.984352 3.19187,3.033381 10,2.362525 4.14932,-0.408863 6.9524,-0.306844 6.9524,0.253035 0,1.992499 -3.15669,3.384967 -8.71264,3.843293 -4.4638,0.368232 -6.57013,0.04378 -9.21009,-1.418705 z m 12.34094,-15.84858 c 2.40549,-0.923073 1.89222,-4.003663 -1.05307,-6.320431 -3.68665,-2.899921 -6.98999,-2.601572 -10.54386,0.952296 -2.47709,2.477092 -2.80318,3.292011 -1.80063,4.5 1.25149,1.507954 10.2164,2.088862 13.39756,0.868135 z m 15.91028,15.213122 C 206.10378,79.692517 205.54545,78.367212 205.54545,75 c 0,-5.997093 3.27473,-8.607374 11.96608,-9.538138 5.95251,-0.63746 6.56594,-0.911326 6.292,-2.80906 C 223.3356,59.411184 219.31286,57.843683 213.25,58.540511 208.93682,59.03624 208,58.870287 208,57.6105 c 0,-2.009712 7.26379,-3.971197 11.65528,-3.147347 1.83526,0.344296 4.57611,1.691056 6.09078,2.9928 2.65016,2.277616 2.76669,2.784574 3.09235,13.452886 0.2928,9.591999 0.11528,11.171703 -1.31722,11.721403 -0.91059,0.349428 -2.12266,0.168289 -2.69348,-0.402531 -0.71714,-0.717139 -2.07702,-0.603662 -4.40066,0.367217 -4.94125,2.064583 -8.92755,1.738788 -12.09856,-0.988795 z m 13.21696,-4.060678 C 223.07689,76.014021 224,73.945567 224,72.045455 224,69.076488 223.88001,69 219.22251,69 213.74688,69 210,71.123992 210,74.227963 c 0,5.603274 7.19286,7.670084 11.54545,3.317492 z m 22.64691,4.778957 c -4.70298,-2.317692 -7.54645,-8.287525 -6.94228,-14.575243 0.87945,-9.152637 8.02958,-14.806688 16.62042,-13.142806 3.23972,0.627472 4.71685,1.43703 4.95939,2.718055 0.30701,1.62156 -0.15004,1.750119 -4.11052,1.156208 -8.44827,-1.266896 -13.58539,4.026012 -12.41034,12.786684 0.39217,2.923858 1.41678,4.960257 3.31902,6.596492 2.40993,2.072935 3.41128,2.289409 8.06183,1.742827 4.3763,-0.514348 5.31012,-0.354425 5.31012,0.909386 0,3.425959 -9.23642,4.553966 -14.80764,1.808397 z m -102.49112,0.04349 C 140.42042,81.087086 140.88336,47.516637 142.2,46.2 c 1.73301,-1.733009 12.07354,-1.474478 16.80894,0.420253 2.22717,0.891139 4.51481,2.48987 5.08364,3.552736 1.82496,3.409976 1.32214,9.774802 -1.02278,12.946478 -2.15109,2.909494 -2.1531,2.955045 -0.24976,5.656823 C 165.62545,72.758554 169,79.684544 169,81.460162 169,82.318947 168.13954,83 167.05453,83 c -1.3916,0 -2.99218,-1.991882 -5.62198,-6.996404 -3.24417,-6.173669 -4.14348,-7.136314 -7.6476,-8.186174 -5.93212,-1.777306 -7.18211,-0.528741 -7.78495,7.776075 -0.37422,5.155346 -0.88961,6.962015 -2.04876,7.181879 -0.85182,0.16157 -1.86432,-0.02179 -2.25,-0.407473 z M 158,61 c 2.52431,-2.52431 2.57662,-7.168189 0.10594,-9.40413 -1.36959,-1.239461 -3.2387,-1.628509 -6.75,-1.404988 L 146.5,50.5 146.19019,55.37294 C 145.74884,62.314762 146.22307,63 151.46862,63 154.66667,63 156.58849,62.411512 158,61 Z M 270,81 C 268.28437,79.284367 268,77.666667 268,69.622445 268,62.506791 267.63819,59.944617 266.5,59 265.675,58.315311 265,57.328068 265,56.806127 c 0,-0.521941 0.675,-1.623984 1.5,-2.448984 0.825,-0.825 1.5,-2.817857 1.5,-4.428572 C 268,47.666667 268.45528,47 270,47 c 1.53664,0 2,0.666667 2,2.877555 0,3.552317 1.48636,4.862098 6.00401,5.29074 4.52672,0.429502 4.52396,2.24184 -0.004,2.637674 -4.75112,0.41534 -6,2.459359 -6,9.820061 0,8.481541 1.1983,11.369819 4.72525,11.389283 3.43663,0.01896 5.75709,1.395228 4.84385,2.872884 C 280.35797,83.847844 272.22332,83.223321 270,81 Z"
       id="path4655"
       inkscape:connector-curvature="0" />
    <path
       style="fill:#232323"
       d="m 180.01457,80.808485 c -4.41568,-3.000664 -5.98124,-6.10855 -5.99983,-11.910602 -0.0292,-9.10941 7.79384,-15.425455 16.07246,-12.976366 4.7342,1.400534 6.96239,4.029333 7.62922,9.000867 L 198.26334,69 l -9.50923,0 c -11.13822,0 -12.84192,0.959575 -10.73495,6.046255 1.90778,4.605796 6.06947,6.313274 13.39504,5.495787 4.87304,-0.543802 5.83967,-0.429312 4.85069,0.574523 -0.67932,0.689514 -3.82932,1.435186 -7,1.657049 -4.82442,0.337579 -6.3335,0.01699 -9.25032,-1.965129 z m 13.40364,-13.415474 c 3.82106,-1.466279 0.23235,-8.689658 -4.9653,-9.994185 -3.57943,-0.89838 -8.29457,1.394307 -10.11754,4.919543 -1.45787,2.819205 -1.44081,3.131364 0.23828,4.359146 1.83587,1.34242 11.9415,1.829504 14.84456,0.715496 z m 15.4653,13.713746 C 207.10225,79.664379 206.54545,78.210088 206.54545,75 c 0,-5.648539 2.83089,-8 9.63108,-8 8.74522,0 11.54599,-3.702511 6.07347,-8.028891 -2.33642,-1.847092 -3.55,-2.081054 -8.06946,-1.555681 -3.00519,0.349344 -5.08136,0.233107 -4.77216,-0.267176 0.93532,-1.513385 7.98607,-2.154237 11.87804,-1.079612 5.37787,1.4849 6.71358,4.744149 6.71358,16.3817 0,9.35625 -0.44099,10.708671 -2.74164,8.408023 -0.85551,-0.855515 -2.00866,-0.730203 -4.60113,0.5 -4.57118,2.169169 -8.89839,2.076696 -11.77372,-0.251606 z m 13.25771,-3.094134 c 2.32009,-2.320087 2.91717,-3.716149 2.67308,-6.25 -0.30502,-3.16634 -0.46354,-3.271346 -5.3715,-3.558196 C 210.80115,67.699357 205.92911,73.929108 211,79 c 2.988,2.987995 7.57211,2.581733 11.14122,-0.987377 z m 22.8888,3.708066 c -8.43009,-4.265675 -9.34733,-19.190546 -1.49557,-24.335216 2.95697,-1.937483 11.80482,-2.446199 13.4762,-0.774826 0.66035,0.660349 -0.84822,0.977442 -4.48303,0.942307 -4.69141,-0.04535 -5.87683,0.34531 -8.25295,2.719773 -2.42255,2.420851 -2.77467,3.541691 -2.77467,8.832029 0,5.629189 0.24146,6.275044 3.40158,9.098612 3.07947,2.751507 3.86069,2.984934 8.25,2.465086 4.91781,-0.582443 6.71915,0.596946 2.59842,1.70126 -3.60953,0.967318 -8.05792,0.697998 -10.71998,-0.649025 z M 142.44283,80.711612 c -0.27192,-0.708614 -0.3703,-8.696114 -0.21862,-17.75 L 142.5,46.5 148,46.178318 c 6.4643,-0.378082 11.98686,1.044695 14.39845,3.709468 2.638,2.914958 2.37029,9.665026 -0.50469,12.725302 -2.25837,2.403924 -2.28212,2.592793 -0.65276,5.190803 3.60421,5.746901 7.11916,13.169277 6.52014,13.768299 -1.16676,1.166763 -2.79334,-0.693004 -5.77891,-6.607386 -3.49115,-6.915929 -5.40222,-8.177636 -11.76627,-7.768205 L 145.5,67.5 l -0.29381,7.25 c -0.2673,6.595869 -1.49971,9.254638 -2.76336,5.961612 z M 158.36514,61.92742 c 3.32754,-2.617446 3.61243,-7.949845 0.5864,-10.975878 -1.67572,-1.675722 -3.08591,-1.994151 -7.75,-1.75 L 145.5,49.5 145.18771,54.433729 C 144.65021,62.925289 145.29017,64 150.88419,64 c 3.38847,0 5.63862,-0.623399 7.48095,-2.07258 z M 270.65499,80.171259 C 269.37454,78.756376 269,76.31735 269,69.393766 c 0,-6.28665 -0.44076,-9.578024 -1.48162,-11.064067 -1.30883,-1.868617 -1.30883,-2.258718 0,-3.344951 C 268.33327,54.308448 269,52.460211 269,50.877555 269,49.2949 269.45,48 270,48 c 0.55,0 1,0.929584 1,2.065741 0,3.980273 1.86253,5.927825 5.78518,6.049258 l 3.71482,0.114999 -3.76104,0.729378 c -2.06858,0.401157 -4.09358,1.063013 -4.5,1.47079 C 271.83253,58.837942 271.5,63.114248 271.5,67.933067 271.5,77.469042 272.56202,80 276.56343,80 c 1.27519,0 2.59665,0.45 2.93657,1 1.16847,1.890621 -7.08376,1.117422 -8.84501,-0.828741 z"
       id="path4653"
       inkscape:connector-curvature="0" />
  </g>
</svg>
