<?xml version="1.0" encoding="UTF-8" standalone="no"?>
<!-- Created with Inkscape (http://www.inkscape.org/) -->

<svg
   xmlns:dc="http://purl.org/dc/elements/1.1/"
   xmlns:cc="http://creativecommons.org/ns#"
   xmlns:rdf="http://www.w3.org/1999/02/22-rdf-syntax-ns#"
   xmlns:svg="http://www.w3.org/2000/svg"
   xmlns="http://www.w3.org/2000/svg"
   xmlns:xlink="http://www.w3.org/1999/xlink"
   xmlns:sodipodi="http://sodipodi.sourceforge.net/DTD/sodipodi-0.dtd"
   xmlns:inkscape="http://www.inkscape.org/namespaces/inkscape"
   id="svg4275"
   version="1.1"
   inkscape:version="0.91 r13725"
   width="473"
   height="123"
   viewBox="0 0 473 123"
   sodipodi:docname="Sass.bmp.svg">
  <metadata
     id="metadata4281">
    <rdf:RDF>
      <cc:Work
         rdf:about="">
        <dc:format>image/svg+xml</dc:format>
        <dc:type
           rdf:resource="http://purl.org/dc/dcmitype/StillImage" />
        <dc:title></dc:title>
      </cc:Work>
    </rdf:RDF>
  </metadata>
  <defs
     id="defs4279" />
  <sodipodi:namedview
     pagecolor="#ffffff"
     bordercolor="#666666"
     borderopacity="1"
     objecttolerance="10"
     gridtolerance="10"
     guidetolerance="10"
     inkscape:pageopacity="0"
     inkscape:pageshadow="2"
     inkscape:window-width="640"
     inkscape:window-height="480"
     id="namedview4277"
     showgrid="false"
     inkscape:zoom="0.55391121"
     inkscape:cx="236.5"
     inkscape:cy="61.5"
     inkscape:window-x="0"
     inkscape:window-y="0"
     inkscape:window-maximized="0"
     inkscape:current-layer="svg4275" />
  <image
     width="473"
     height="123"
     preserveAspectRatio="none"
     style="image-rendering:optimizeQuality"
     xlink:href="file:///media/havoc/USB%20DISK/pics/_OpsDeps/Sass.bmp"
     id="image4283"
     x="0"
     y="0"
     sodipodi:absref="/media/havoc/USB DISK/pics/_OpsDeps/Sass.bmp" />
  <g
     id="g4614">
    <path
       style="fill:#fdfdfd"
       d="M 0,61.5 0,0 236.5,0 473,0 473,61.5 473,123 236.5,123 0,123 0,61.5 Z"
       id="path4630"
       inkscape:connector-curvature="0" />
    <path
       style="fill:#efd8e4"
       d="m 115.26258,108.90642 c -5.36476,-1.58599 -7.7668,-8.78639 -5.20125,-15.59132 1.46085,-3.87477 6.27377,-8.650935 13.09941,-12.999356 3.15957,-2.012874 5.49132,-4.069706 5.18167,-4.570738 -0.30966,-0.501031 -2.91693,-2.416747 -5.79393,-4.257144 C 109.91259,63.404778 103.0798,52.94028 105.25833,45.007769 108.72531,32.383706 124.17714,19.218484 145.35792,10.842228 152.88054,7.8672954 154.41297,7.6176685 165.5,7.5611609 c 10.6063,-0.054058 12.54729,0.2083979 16.71229,2.2597909 8.64126,4.2560912 11.53741,12.4996282 7.84371,22.3261422 -3.07195,8.172438 -8.7402,14.09335 -17.75914,18.550753 -6.88467,3.402589 -8.4456,3.773151 -17.18468,4.079613 -10.84418,0.380285 -15.37615,-1.121937 -18.07727,-5.992111 -2.36492,-4.264002 -0.29712,-5.411148 4.88504,-2.710056 3.40437,1.774455 5.2859,2.08975 9.89202,1.657641 8.01879,-0.752258 16.20415,-4.114742 21.61866,-8.880783 C 178.90998,34.029028 181,30.375733 181,25.621088 c 0,-4.351158 -1.59176,-5.966882 -7.5111,-7.624195 -13.70857,-3.838163 -45.66519,10.743396 -53.2389,24.292503 -2.46808,4.415315 -2.8621,9.981793 -0.95006,13.421969 1.16399,2.094272 8.30751,8.599231 15.30224,13.934372 l 3.18814,2.431708 4.85484,-2.65799 C 145.31532,67.95756 149.075,65.29334 151,63.498965 155.61258,59.199383 158.11764,58 162.48529,58 c 3.15297,0 3.79516,0.426968 5.00796,3.329606 0.76516,1.831284 2.0922,3.911384 2.94897,4.622445 0.85678,0.711061 1.57394,2.700238 1.5937,4.420394 0.0315,2.742418 0.44243,2.261509 3.33708,-3.905274 1.81565,-3.868056 3.61205,-8.271473 3.99201,-9.78537 0.79038,-3.149108 4.51757,-5.00036 8.20439,-4.075027 2.72151,0.683057 2.76409,0.823853 2.46228,8.143226 -0.11907,2.8875 0.19817,5.25 0.70498,5.25 0.87847,0 3.4833,-5.165392 6.66382,-13.214409 1.58941,-4.022359 4.64706,-5.492443 9.09952,-4.374947 2.73208,0.68571 3.15874,2.726534 1.48846,7.119713 -0.70729,1.860316 -0.65835,3.839412 0.16272,6.579887 1.15138,3.842961 1.24415,3.904428 4.76154,3.154543 1.973,-0.420633 6.40236,-0.71038 9.84301,-0.643883 7.20953,0.139339 12.93901,3.190374 16.27957,8.669118 C 242.91538,79.653618 240.17401,89 234.42742,89 231.68774,89 231.20242,86.90682 233.5,85 234.325,84.315311 235,82.655627 235,81.311814 235,74.972932 230.22689,72 220.04966,72 L 213,72 l 0,3.923275 C 213,82.409014 205.99374,89 199.09935,89 c -1.80825,0 -3.39852,-0.695178 -4.00324,-1.75 -0.92278,-1.609582 -1.13799,-1.56078 -2.68219,0.608214 -3.24391,4.556401 -13.4796,7.676105 -16.21392,4.941786 -2.00552,-2.005522 -1.36966,-4.407699 2.34299,-8.851456 5.10743,-6.113198 5.62681,-7.372857 4.38417,-10.633069 -1.04804,-2.74965 -1.19908,-2.569989 -6.46053,7.684525 -4.92012,9.589248 -9.07644,15 -11.52239,15 -0.51933,0 -1.87585,-0.931606 -3.01448,-2.070236 l -2.07023,-2.070237 -2.38202,2.570237 C 154.67254,97.456376 150.0438,97.848556 147.79659,95.25 145.49267,92.585858 144,87.252298 144,81.68411 c 0,-2.759594 -0.32842,-4.689027 -0.72981,-4.28763 -0.4014,0.401397 -0.7714,3.963897 -0.82223,7.916667 -0.10289,8.002004 -2.20635,13.277451 -7.10638,17.822693 -5.6831,5.27161 -13.83857,7.61545 -20.079,5.77058 z m 14.0811,-14.194216 c 3.27188,-3.085785 5.83295,-9.868912 4.30358,-11.398281 -0.67449,-0.674487 -7.02527,3.94559 -10.39726,7.563819 -1.2375,1.327867 -2.25,3.473593 -2.25,4.768281 0,3.530235 4.09653,3.071754 8.34368,-0.933819 z m 29.10501,-20.169619 c 1.38009,-3.804886 2.34281,-7.08442 2.13937,-7.287855 C 159.2822,65.948867 154,77.249597 154,81.349223 c 0,3.34896 1.71921,0.718521 4.44869,-6.806638 z m 42.47497,-2.55902 c 0.56572,-0.956693 0.43437,-2.380321 -0.35584,-3.856843 -1.24005,-2.317062 -1.27964,-2.294176 -3.96871,2.294367 -1.81412,3.095575 -2.49458,5.332904 -2.04895,6.736958 0.64417,2.029579 0.75027,2.002711 3.072,-0.777931 1.32263,-1.584064 2.8083,-3.562512 3.3015,-4.396551 z"
       id="path4628"
       inkscape:connector-curvature="0" />
    <path
       style="fill:#eac8d9"
       d="m 114.30775,107.80527 c -1.20574,-0.58265 -2.87029,-2.75394 -3.699,-4.82509 -2.94549,-7.361486 1.46925,-14.840697 13.09328,-22.181934 3.46388,-2.187641 6.29403,-4.27469 6.28922,-4.637888 -0.005,-0.363197 -2.61018,-2.336129 -5.78972,-4.384293 -7.80816,-5.029787 -15.04125,-12.348605 -17.42317,-17.629675 -1.7027,-3.775122 -1.81173,-4.9568 -0.82055,-8.893137 3.3675,-13.37353 21.11974,-27.573165 44.04219,-35.228386 9.41083,-3.142858 23.53211,-3.157208 30.77824,-0.031277 7.24008,3.123318 9.68612,6.774928 9.70614,14.489943 0.0192,7.400657 -2.2338,12.334483 -8.45548,18.516467 -10.248,10.182611 -28.2058,14.826245 -38.77785,10.027401 -3.90326,-1.771764 -7.40549,-6.206297 -6.00642,-7.605363 0.31323,-0.313231 1.93898,0.138671 3.61278,1.004226 C 142.69172,47.374824 146.4318,48 150.2722,48 167.91336,48 184.57489,34.395317 181.57447,22.440675 180.28294,17.294815 167.81616,15.342658 156.12204,18.455113 143.06332,21.930762 125.31905,32.990533 119.95107,41 117.07966,45.284373 116.7071,53.316046 119.21377,56.894812 121.5401,60.216117 135.91631,72 137.64193,72 c 2.60061,0 9.77243,-4.205946 14.68105,-8.60977 C 159.30666,57.124755 167,56.378971 167,61.967457 c 0,0.947412 0.9,2.537057 2,3.532543 2.24083,2.027923 2.54723,5.631758 0.88438,10.401823 -2.13273,6.117942 0.11696,4.371631 3.21289,-2.494001 5.62525,-12.474693 6.65629,-14.881151 7.35023,-17.155498 0.79215,-2.59624 5.09543,-4.044902 7.45728,-2.510429 1.14638,0.744796 1.51191,2.262925 1.29914,5.395596 -0.35905,5.286367 0.55914,9.50034 1.79916,8.257154 1.65522,-1.659442 5.76055,-10.041966 6.44562,-13.161095 0.89668,-4.082549 2.70497,-5.438708 6.73598,-5.051781 L 207.5,49.5 l -0.31819,5.878257 c -0.41377,7.643726 1.25574,11.975315 4.20008,10.897269 C 212.54685,65.848987 217.17174,65.5 221.65942,65.5 c 7.6018,0 8.4219,0.209413 12,3.064238 4.73391,3.776991 7.78117,9.544192 6.89935,13.057631 -0.88545,3.527901 -5.40297,7.933928 -6.75177,6.585129 -0.71794,-0.717942 -0.53977,-1.750432 0.57727,-3.345234 2.44169,-3.485995 1.97821,-6.720734 -1.41743,-9.892741 -3.37451,-3.15226 -11.15788,-4.718568 -17.51831,-3.525345 -2.89191,0.542526 -3.54318,1.090753 -3.40189,2.863651 0.33604,4.216611 -0.0651,5.561197 -2.53502,8.496489 -3.05112,3.626054 -8.89314,6.527255 -11.48632,5.704213 -1.05765,-0.335685 -2.22795,-1.571177 -2.60068,-2.745537 -0.66223,-2.086499 -0.72291,-2.073121 -2.66033,0.586524 -4.37557,6.006699 -15.88257,8.823567 -16.56369,4.054728 -0.17989,-1.259446 1.13465,-3.812707 3.29299,-6.39607 5.19521,-6.218269 5.60844,-7.277098 4.24735,-10.883054 -0.65246,-1.728561 -1.56832,-3.015495 -2.03525,-2.859853 -0.46692,0.155642 -3.40422,5.206456 -6.52732,11.22403 -3.96931,7.648035 -6.52431,11.403069 -8.489,12.476123 -2.67309,1.459954 -2.91047,1.41347 -4.85055,-0.94987 l -2.0399,-2.484947 -1.69087,2.088127 c -6.42458,7.934028 -13.41911,2.207543 -13.2355,-10.836033 0.0448,-3.180209 -0.24575,-5.775308 -0.64558,-5.766886 -2.09349,0.0441 -2.73211,2.220697 -2.78279,9.484687 -0.0645,9.243913 -1.35516,12.379973 -7.30866,17.7586 -5.73125,5.17784 -14.40546,7.16691 -19.82777,4.54667 z M 129.7425,95.75 C 133.15622,92.210863 135,88.242719 135,84.4349 c 0,-3.177027 -1.2151,-3.071007 -6.50339,0.567434 C 123.18493,88.656865 120,92.930886 120,96.40437 120,98.674782 120.41395,99 123.30383,99 c 2.4177,0 4.14465,-0.871702 6.43867,-3.25 z m 30.21868,-22.574939 c 1.22225,-3.478716 1.97541,-6.571808 1.67368,-6.873538 -3.07807,-3.078071 -10.26424,13.09621 -8.17718,18.40479 0.59237,1.50674 0.99123,1.23377 2.49321,-1.706313 0.98341,-1.925 2.78804,-6.346222 4.01029,-9.824939 z m 41.39217,-4.39444 c -0.46934,-1.612206 -1.2653,-3.009885 -1.76879,-3.105953 -0.5035,-0.09607 -2.18983,1.899022 -3.74742,4.433532 -2.48005,4.035561 -2.6974,4.994218 -1.74907,7.714604 l 1.0829,3.106403 3.51786,-4.60865 c 3.01042,-3.943865 3.39477,-5.031481 2.66452,-7.539936 z"
       id="path4626"
       inkscape:connector-curvature="0" />
    <path
       style="fill:#e2b0c9"
       d="m 116.26258,107.79363 c -2.07216,-0.5404 -3.78185,-1.8971 -4.75,-3.7693 -4.10269,-7.933729 0.42671,-15.512718 14.38371,-24.068087 l 5.39629,-3.307821 -2.50195,-2.074211 c -1.37608,-1.140816 -5.26371,-4.048958 -8.63918,-6.462538 -3.37547,-2.413579 -7.82792,-6.452935 -9.89434,-8.976345 -3.43732,-4.197511 -3.75352,-5.100722 -3.71495,-10.611674 0.0337,-4.813264 0.59315,-6.884538 2.7842,-10.30795 6.83862,-10.685028 22.58185,-21.612995 39.39171,-27.343269 9.49487,-3.236681 26.81735,-3.3393943 32.78193,-0.19438 5.1567,2.719032 7.02668,4.887921 8.49349,9.851126 3.56113,12.049734 -9.46863,27.994137 -26.49349,32.419843 -6.81536,1.77169 -17.55322,1.315919 -21.18618,-0.899251 C 136.1912,48.316543 135.89412,44.009565 142,47.5 c 8.95223,5.11756 31.27473,-3.11829 38.01604,-14.025957 2.77107,-4.483685 3.09344,-10.590606 0.69872,-13.236732 C 178.64149,17.946373 172.67004,16 167.71475,16 c -13.38253,0 -38.23646,12.286579 -47.06236,23.265354 -2.39633,2.980851 -3.11479,4.979193 -3.44841,9.591381 -0.39428,5.450895 -0.20701,6.070217 2.90836,9.618431 1.83137,2.085821 6.43818,6.272553 10.23735,9.303847 l 6.90758,5.511445 5.2695,-2.584404 c 2.89823,-1.421423 7.58036,-4.636776 10.40474,-7.145229 C 156.79983,60.12521 158.87267,59 161.33338,59 164.99311,59 167,60.498585 167,63.231385 c 0,1.007261 0.64021,2.077055 1.42268,2.377319 0.78248,0.300263 1.67847,1.212511 1.9911,2.027216 0.538,1.402004 -0.59391,8.063958 -1.98689,11.694006 C 168.05933,80.28777 168.27189,81 168.9253,81 c 1.13,0 4.16208,-6.028218 9.80812,-19.5 2.83344,-6.760753 3.06236,-7.010807 6.69788,-7.316192 l 3.76416,-0.316191 -0.26188,4.816191 C 188.53862,65.947363 188.86073,68 190.3955,68 191.7975,68 198,56.351103 198,53.717997 c 0,-3.459979 5.65794,-5.852984 8.9353,-3.779149 1.2245,0.774839 1.23937,1.501869 0.10125,4.950404 -1.1327,3.432129 -1.11381,4.613309 0.12522,7.826464 1.18992,3.085818 1.90951,3.740051 3.89874,3.544632 1.34172,-0.131809 5.87306,-0.284001 10.06964,-0.338205 6.58024,-0.08499 8.19311,0.256833 11.7215,2.484209 7.17076,4.526702 9.2333,12.059735 4.73342,17.287884 -2.98651,3.469854 -4.2782,2.546812 -2.16219,-1.545104 4.09334,-7.91565 -7.0706,-15.50036 -19.60001,-13.316118 -4.11483,0.717335 -4.30814,0.905097 -4.01678,3.901481 0.41845,4.303318 -2.02447,8.606787 -6.3267,11.145164 -5.05842,2.984541 -8.27635,2.784578 -9.56093,-0.594117 l -1.03203,-2.714459 -2.53739,3.242177 C 189.64122,89.273223 183.32161,93 180.16228,93 c -1.05456,0 -2.4802,-0.67815 -3.16809,-1.507 -1.28311,-1.546058 0.0705,-4.116973 6.16425,-11.70767 1.97693,-2.46258 2.06703,-3.089397 0.97029,-6.75 C 183.46377,70.815899 182.48763,69 181.95953,69 c -0.5281,0 -3.01465,4.158848 -5.52566,9.241884 C 168.87513,93.543015 165.15895,96.911801 161.53278,91.75 l -1.58063,-2.25 -2.54855,3.25 c -2.85688,3.643182 -6.23662,4.231155 -8.62219,1.5 -2.56432,-2.935816 -4.06629,-9.196795 -3.45151,-14.387667 0.62194,-5.251355 0.25402,-5.660053 -3.02673,-3.362128 -1.87816,1.315515 -2.0212,1.937144 -1.16186,5.049397 1.65335,5.98796 -0.58772,13.894507 -5.42616,19.143598 -2.24942,2.44033 -4.89911,4.87007 -5.88821,5.39942 -3.15295,1.68741 -10.21884,2.57349 -13.56436,1.70101 z m 11.43309,-9.749627 c 1.75761,-1.071687 3.94021,-3.084847 4.85022,-4.47369 C 135.34909,89.292087 136.34288,81 134.05242,81 c -2.07735,0 -12.12776,8.638999 -13.55881,11.6547 -3.13736,6.611501 0.6049,9.41184 7.20206,5.389303 z m 28.90335,-15.235491 c 3.01397,-5.828366 6.32217,-16.739184 5.27215,-17.38813 -2.42875,-1.501056 -6.80152,4.895393 -8.72138,12.75758 -1.83549,7.516687 0.40284,10.521622 3.44923,4.63055 z m 43.57972,-7.872077 c 2.46924,-3.16946 2.58693,-3.731685 1.50481,-7.189001 -0.64567,-2.062852 -1.61432,-3.603844 -2.15257,-3.424427 -0.53825,0.179417 -2.25037,2.490722 -3.8047,5.136234 -2.18681,3.722012 -2.67507,5.514706 -2.15857,7.92539 0.96411,4.499835 1.57524,5.135427 2.8248,2.937867 0.60912,-1.071236 2.31292,-3.494964 3.78623,-5.386063 z M 205,78.377555 c 0,-1.88218 -1.6463,-1.741677 -2.39301,0.204232 -1.05872,2.758981 -0.6972,3.737967 0.89301,2.418213 0.825,-0.684689 1.5,-1.864789 1.5,-2.622445 z"
       id="path4624"
       inkscape:connector-curvature="0" />
    <path
       style="fill:#d68fb3"
       d="m 115.20557,106.9524 c -1.26194,-0.50645 -2.94138,-2.46919 -3.73209,-4.36164 -1.25939,-3.014138 -1.24969,-3.973592 0.0782,-7.737313 1.9467,-5.517558 4.32142,-7.979194 12.6631,-13.126617 C 127.94667,79.424006 131,76.985173 131,76.3072 c 0,-0.677973 -2.5875,-2.997208 -5.75,-5.153855 -13.78461,-9.400334 -20.12878,-17.655437 -18.74366,-24.389489 2.03796,-9.908017 12.65696,-20.822056 28.18752,-28.9707 13.30073,-6.978689 20.04987,-8.890882 31.57133,-8.9449102 8.30975,-0.038967 10.46313,0.304277 14.44803,2.3029812 6.66108,3.341003 8.80114,6.695477 8.72441,13.675246 -0.14004,12.739044 -10.42255,23.351629 -26.93763,27.802325 -9.79621,2.64001 -18.64384,1.291608 -22.90499,-3.490782 C 137.96579,47.309499 137.92106,47 139.286,47 c 0.87778,0 1.87408,0.45 2.214,1 1.0969,1.774818 15.57963,1.16397 21.21182,-0.894666 17.29902,-6.323011 26.388,-23.786388 15.27746,-29.35378 -11.8613,-5.943591 -39.50259,3.07379 -54.59771,17.811342 -7.74023,7.556883 -9.40497,16.336472 -4.32274,22.797483 C 122.04064,62.138414 135.73263,73 137.52337,73 c 2.62932,0 11.05107,-4.736954 15.93152,-8.960954 2.55993,-2.215608 5.76067,-4.306028 7.11275,-4.645379 2.85214,-0.715842 5.43236,1.028288 5.43236,3.672074 0,1.001468 0.99131,2.515192 2.20291,3.36383 2.1005,1.471248 2.14699,1.813726 1,7.366899 C 167.79019,80.636193 167.69255,83 168.82274,83 c 0.93284,0 3.30937,-4.689727 8.6148,-17 5.01543,-11.637363 4.91782,-11.5 8.17145,-11.5 2.83883,0 2.88528,0.08869 2.57371,4.913791 C 187.79062,65.485745 188.60711,69 190.40993,69 c 1.16987,0 4.07138,-5.150428 9.01365,-16 0.80944,-1.77694 2.06723,-2.590441 4.34884,-2.812704 l 3.21002,-0.312704 -0.61404,5.874853 c -0.78633,7.523181 1.48946,12.891134 4.95735,11.693028 1.19584,-0.413144 5.32425,-0.917255 9.17425,-1.120245 5.89716,-0.310928 7.62698,-0.0077 10.97962,1.924731 3.92883,2.264534 8.47189,8.647128 8.50393,11.947277 0.009,0.93183 -1.13571,2.95683 -2.54389,4.5 -2.03028,2.224885 -2.34083,2.353556 -1.5,0.621505 1.72729,-3.558142 1.22526,-6.966297 -1.50394,-10.209759 -3.71611,-4.416355 -11.75552,-6.192021 -20.29872,-4.483382 -2.86601,0.573203 -3.10116,0.924639 -2.96383,4.429546 0.19546,4.98812 -2.22601,8.513683 -7.6611,11.154251 -3.6509,1.773748 -4.65923,1.91636 -5.95368,0.842058 -2.36427,-1.962169 -1.90135,-4.32546 1.94161,-9.912136 1.925,-2.798458 3.5,-5.629504 3.5,-6.291214 0,-2.356237 -2.41944,-7.844825 -3.45089,-7.828461 -0.57701,0.0092 -2.48034,2.673808 -4.22962,5.921454 -2.87592,5.339346 -3.07456,6.250002 -2.07421,9.509431 0.95596,3.114808 0.83211,3.974759 -0.91144,6.328545 C 189.43167,88.693979 184.16271,92 180.82073,92 c -3.68784,0 -4.66901,-2.443399 -2.20768,-5.497793 1.03782,-1.287893 3.16707,-3.938609 4.73166,-5.890481 l 2.84472,-3.548857 -1.73058,-4.531435 C 183.50704,70.039145 182.36654,68 181.9244,68 c -0.44214,0 -3.60818,5.425471 -7.03565,12.056603 -6.82426,13.20292 -9.16413,15.556492 -11.99287,12.063138 -0.95597,-1.180575 -1.99863,-2.702979 -2.31701,-3.38312 -0.44481,-0.950234 -0.71009,-0.958758 -1.14548,-0.03681 -2.87759,6.09345 -7.66307,7.913844 -11.0284,4.195196 -1.55488,-1.718118 -1.90499,-3.647881 -1.90499,-10.5 0,-8.696415 -0.46596,-9.490849 -4,-6.819787 -1.69177,1.278656 -2.00377,2.699317 -2.02445,9.218197 -0.0174,5.499873 -0.54993,8.70877 -1.85959,11.206578 -4.63319,8.836505 -15.73771,14.031685 -23.41039,10.952395 z m 14.531,-9.570906 c 4.12007,-3.135068 5.22369,-5.250287 5.95323,-11.410123 C 136.19101,81.739448 136.02737,81 134.58963,81 c -2.91479,0 -7.04006,2.680124 -11.3915,7.40088 C 119.96401,91.909485 119,93.745009 119,96.394324 c 0,1.891455 0.5625,3.675336 1.25,3.964186 2.08298,0.87516 6.06724,-0.375161 9.48657,-2.977016 z M 156.68101,83.75 c 3.39175,-5.867894 6.81595,-17.65304 5.5089,-18.960091 C 159.32163,61.92163 152,74.553845 152,82.370846 c 0,5.600974 1.91465,6.165084 4.68101,1.379154 z M 206,77.389216 c 0,-2.248046 -2.55386,-1.59135 -3.94897,1.015431 -1.87906,3.511062 -0.24879,5.557801 2.10831,2.6469 C 205.1717,79.801334 206,78.153285 206,77.389216 Z"
       id="path4622"
       inkscape:connector-curvature="0" />
    <path
       style="fill:#cf78a3"
       d="m 114.26243,105.47126 c -2.94064,-2.05971 -3.75213,-7.086307 -1.86885,-11.576255 1.80543,-4.304364 6.30075,-8.429051 13.96636,-12.814873 C 129.46197,79.30533 132,77.228012 132,76.46387 132,75.699729 129.4125,73.316383 126.25,71.167547 111.84876,61.382278 106.2518,54.080423 107.44292,46.631601 109.4138,34.306383 128.18833,18.797898 149.5,11.890839 c 9.90017,-3.2086215 24.97462,-3.2028043 31.67061,0.01222 5.18341,2.488772 7.83316,6.63692 7.82381,12.248068 C 188.96823,39.880517 172.32704,53 152.40155,53 148.02667,53 141,50.969251 141,49.704887 c 0,-0.134064 3.29464,-0.07738 7.32143,0.125962 11.75557,0.59363 21.76816,-3.687674 29.97707,-12.817953 13.10794,-14.579186 1.36924,-26.10914 -20.89667,-20.525064 -15.84216,3.973063 -33.6615,14.982912 -39.00566,24.100026 -3.14903,5.372226 -3.29854,13.336146 -0.32866,17.506948 C 120.82622,61.96906 135.87678,74 137.96472,74 140.21619,74 150.42146,67.755399 155.14696,63.486195 157.71794,61.163472 159.99089,60 161.95757,60 c 2.58176,0 3.03412,0.438771 3.60841,3.5 0.37606,2.004572 1.24995,3.5 2.04531,3.5 1.72596,0 1.81986,4.359261 0.22255,10.331446 -0.64139,2.398082 -0.84986,5.184434 -0.46326,6.191893 1.16812,3.044059 3.03388,0.183838 9.47643,-14.527389 5.35868,-12.236285 6.16669,-13.526612 8.65698,-13.824465 2.70316,-0.323314 2.73671,-0.259989 2.11874,4 -0.75515,5.205706 0.44884,10.21825 2.55171,10.623438 C 191.73427,70.095476 199,57.716791 199,54.758754 c 0,-2.12784 3.56711,-4.992602 5.6756,-4.558092 1.17863,0.242888 1.7039,1.070335 1.48396,2.337653 -1.21112,6.978764 -1.11151,9.223394 0.55303,12.461685 1.31854,2.565157 2.33171,3.397345 3.79324,3.115665 1.09679,-0.211384 5.48542,-0.583268 9.7525,-0.826409 6.73629,-0.383837 8.23188,-0.149407 11.35302,1.779562 3.97029,2.453774 7.40539,7.337619 7.33688,10.431182 -0.0324,1.463308 -0.50101,1.070357 -1.74626,-1.464345 -3.31608,-6.749848 -13.18904,-10.354126 -22.70197,-8.287709 -3.62459,0.787341 -3.98367,1.144963 -3.82601,3.810471 0.0957,1.617871 -0.0264,3.958224 -0.27136,5.200785 C 209.89275,81.345753 202.63073,87 199.81858,87 c -4.1968,0 -3.49693,-6.018868 1.3405,-11.528403 3.03482,-3.456468 3.09172,-3.69314 1.86764,-7.76834 -0.6944,-2.311791 -1.41745,-4.758171 -1.60678,-5.436398 -0.6587,-2.359657 -2.96943,-0.195728 -6.23266,5.836721 -2.79933,5.17485 -3.1886,6.704781 -2.63882,10.370999 0.47507,3.168 0.2081,4.96733 -1.01369,6.832017 -1.87462,2.861033 -10.05459,7.091645 -12.15408,6.285994 -1.90078,-0.729398 -1.73441,-4.056431 0.28603,-5.720145 0.9167,-0.754845 2.89635,-3.064854 4.39922,-5.133353 l 2.73249,-3.760909 -1.79584,-4.739091 c -0.98771,-2.606501 -2.41499,-4.864874 -3.17174,-5.018609 -0.86412,-0.175547 -2.78915,2.800122 -5.17538,8 C 168.96996,91.968114 164.44362,96.579923 162.14984,90 c -1.24186,-3.562428 -2.86927,-3.86307 -4.05983,-0.75 -1.34679,3.521607 -4.65412,6.023121 -6.98517,5.283275 -3.21874,-1.021588 -5.71038,-10.10607 -4.298,-15.670423 1.40555,-5.537405 0.29744,-6.696588 -3.98869,-4.172545 -3.24829,1.912871 -3.31115,2.08064 -2.98556,7.968288 0.61867,11.187715 -3.20141,18.787055 -11.29122,22.461745 -4.94482,2.24612 -11.34848,2.40349 -14.27894,0.35092 z M 130.72823,97.25 c 4.34303,-4.010428 6.91062,-10.568498 5.82742,-14.884288 -0.75323,-3.001107 -2.61047,-2.987467 -7.42936,0.05456 C 117.91253,89.499211 114.08361,101 122.9406,101 c 2.91769,0 4.60813,-0.814 7.78763,-3.75 z m 27.68485,-15.235665 c 1.47741,-3.292116 3.37439,-8.303024 4.2155,-11.135351 1.37556,-4.632007 1.3742,-5.304779 -0.0135,-6.692506 -1.39043,-1.390428 -1.88493,-1.180084 -5.00628,2.129516 C 154.41387,69.703574 151,78.048014 151,82.469649 151,84.936454 152.88267,88 154.39862,88 c 0.73054,0 2.53705,-2.693549 4.01446,-5.985665 z m 27.39836,3.94671 C 188.21205,83.724537 188.65495,82 186.82874,82 185.16847,82 182,85.054454 182,86.654988 c 0,1.902411 1.27345,1.670557 3.81144,-0.693943 z m 19.82708,-5.863168 C 206.99622,77.374608 206.42802,75 204.41869,75 c -1.66486,0 -4.75047,5.654149 -3.86632,7.084736 1.0297,1.666097 3.80557,0.58173 5.08615,-1.986859 z"
       id="path4620"
       inkscape:connector-curvature="0" />
    <path
       style="fill:#c96597"
       d="m 116.24187,105.96583 c -5.26368,-2.11514 -5.35899,-10.484976 -0.18646,-16.376156 1.62622,-1.85216 6.10402,-5.269168 9.95067,-7.59335 C 129.85274,79.672141 133,77.176351 133,76.450123 c 0,-0.726228 -1.83482,-2.587099 -4.07738,-4.135269 -19.15593,-13.224456 -24.00813,-21.010373 -19.29001,-30.953065 5.59471,-11.789979 28.06833,-26.530764 46.46286,-30.475684 7.57651,-1.6248697 20.52136,-0.632394 25.6097,1.963485 5.6435,2.8791 8.09014,8.934883 6.36992,15.766496 -2.59687,10.313089 -11.6002,18.638028 -24.07509,22.261061 -4.22822,1.227985 -7.87459,1.51565 -14.5,1.143918 -4.92239,-0.276181 -4.88976,-0.293401 2.10172,-1.109355 11.18047,-1.30484 17.53867,-4.181623 24.85893,-11.247498 7.64245,-7.376867 9.56122,-12.282777 7.10404,-18.163636 -1.65321,-3.956691 -5.59392,-6.131648 -12.93203,-7.137447 -6.48791,-0.889268 -17.79546,2.067138 -29.13266,7.616856 -16.45183,8.053404 -25.39803,16.903357 -26.27098,25.98837 -0.70429,7.329656 1.44634,10.878629 11.77057,19.423793 C 132.05506,71.576467 136.62065,75 137.14534,75 c 0.52469,0 2.28163,-0.686556 3.90432,-1.52568 C 142.67235,72.635196 144,72.337964 144,72.813805 c 0,0.475841 -1.18131,1.403407 -2.62514,2.061259 -2.51389,1.145406 -2.59776,1.438264 -1.97913,6.910515 1.31303,11.614539 -4.06518,20.805901 -13.90757,23.768021 -5.45264,1.641 -6.11491,1.67053 -9.24629,0.41223 z m 14.14787,-7.449532 C 134.75352,95.187883 137,90.447415 137,84.567486 c 0,-3.335638 -0.45057,-4.803154 -1.61147,-5.248633 -3.36301,-1.290511 -14.47403,7.510548 -17.049,13.504551 -1.44864,3.372119 -0.99778,7.022465 1.04525,8.462856 1.91281,1.34857 7.42394,-0.0386 11.00496,-2.769962 z m 18.43729,-6.705614 c -0.77222,-1.363902 -1.31366,-5.58861 -1.32139,-10.310684 -0.007,-4.4 -0.35174,-8.524065 -0.76561,-9.16459 -0.46623,-0.721554 0.48625,-1.931278 2.50374,-3.179951 1.79093,-1.108449 4.57792,-3.396884 6.19332,-5.085411 C 157.55894,61.852152 159.29375,61 161.68709,61 163.81525,61 165,61.486835 165,62.361328 c 0,0.920125 -0.82679,1.203276 -2.55107,0.873661 -3.36921,-0.644067 -6.65108,2.482861 -9.46075,9.014116 C 149.48382,80.395212 150.31643,89 154.60902,89 c 1.485,0 3.35132,-3.687726 7.3383,-14.5 2.13603,-5.792704 2.9237,-6.940486 4.56695,-6.654931 1.09215,0.189788 2.14359,0.497653 2.33654,0.684144 0.19295,0.18649 -0.45331,3.749957 -1.43612,7.918814 -1.34099,5.688198 -1.5015,7.865161 -0.64319,8.723475 0.85832,0.858313 1.52864,0.824292 2.68612,-0.136328 2.08837,-1.733197 1.93976,-0.823001 -0.5564,3.407666 C 166.2821,92.881926 163.4764,93.131993 162.65,89 c -0.80787,-4.039372 -2.8129,-3.777255 -5.737,0.75 -2.91837,4.518381 -6.21829,5.359355 -8.08597,2.060684 z m 29.87482,-1.442167 c -0.34732,-0.347316 -0.14297,-1.544272 0.4541,-2.659903 0.97957,-1.830353 1.17628,-1.866337 2.0145,-0.368517 1.29606,2.315922 2.53469,2.081107 5.41472,-1.026503 2.86949,-3.096231 2.80566,-5.977231 -0.12142,-5.48002 -1.58293,0.268886 -1.72134,0.08466 -0.71375,-0.95 1.73613,-1.782758 1.56758,-3.976886 -0.71446,-9.300669 -2.3774,-5.546254 -4.48118,-5.845429 -6.53525,-0.929365 -0.8396,2.009447 -1.75943,3.420651 -2.04408,3.136008 -0.28464,-0.284643 0.84627,-3.464021 2.51313,-7.065285 C 180.6362,62.123 182,58.702629 182,58.123439 c 0,-1.306962 3.9462,-3.510576 4.78484,-2.671928 0.33746,0.337454 0.48954,2.630198 0.33797,5.094988 -0.58795,9.56093 2.40045,13.444222 6.31304,8.203501 0.92388,-1.2375 0.75415,-0.622506 -0.37718,1.366653 -1.59924,2.811871 -1.92022,4.614327 -1.44243,8.100145 0.77374,5.645089 -0.55693,8.202137 -5.60984,10.779936 -4.04727,2.064764 -6.20614,2.470196 -7.30455,1.371783 z M 198.01531,83.75 c 0.008,-1.2375 0.45153,-2.925 0.98469,-3.75 0.75538,-1.168875 0.97275,-0.892937 0.98469,1.25 0.0193,3.469617 3.18368,3.775406 5.45861,0.527494 C 207.5385,78.786165 207.50756,74 205.39301,74 c -1.0091,0 -1.39535,-0.551525 -1.03814,-1.482385 0.48313,-1.259013 -0.21167,-4.00997 -2.8567,-11.310739 -0.33467,-0.923725 -0.98802,-1.015086 -2.28714,-0.319818 -1.73828,0.930302 -1.74998,0.754348 -0.26483,-3.982397 1.14053,-3.637622 2.16462,-5.113843 3.85037,-5.550278 3.09895,-0.80231 3.3218,-0.366964 2.09204,4.086879 -0.85256,3.087689 -0.71989,4.722091 0.6854,8.443771 0.95842,2.538232 2.18123,4.903535 2.71736,5.25623 0.53613,0.352695 1.15675,2.758663 1.37916,5.346597 0.37303,4.340499 0.12458,4.969222 -3.20428,8.108737 -4.29838,4.053895 -8.47456,4.623869 -8.45094,1.153403 z M 172,81.059017 c 0,-0.517541 0.44485,-1.215913 0.98855,-1.551938 0.56686,-0.350339 0.7345,0.05106 0.39301,0.940983 C 172.71677,82.180479 172,82.497449 172,81.059017 Z m 2.56429,-5.352145 c 0.37553,-0.986221 0.93469,-1.541221 1.24258,-1.233333 0.30789,0.307887 6.4e-4,1.114794 -0.68278,1.793128 -0.98762,0.980267 -1.10248,0.865403 -0.5598,-0.559795 z m 58.12741,-4.001209 c -2.26081,-1.757592 -4.60029,-2.287129 -12,-2.716182 -8.33507,-0.483287 -8.79381,-0.609325 -4.92232,-1.352391 6.61904,-1.270411 13.46934,0.07102 17.36111,3.39967 3.94441,3.373674 3.63909,3.839119 -0.43879,0.668903 z"
       id="path4618"
       inkscape:connector-curvature="0" />
    <path
       style="fill:#c75e93"
       d="m 114.88046,103.88046 c -3.08795,-3.08795 -1.99895,-10.265983 2.12956,-14.036797 3.17943,-2.903958 3.88718,-2.613966 1.45818,0.597467 -0.80751,1.067621 -1.4682,3.864288 -1.4682,6.214816 0,5.213104 2.04798,6.679834 7.99841,5.728314 5.69243,-0.91025 11.65153,-7.672126 12.53184,-14.220057 0.85085,-6.328846 1.2975,-7.349092 1.38523,-3.164203 0.12436,5.932642 -1.77929,10.628513 -6.03313,14.882353 -6.06144,6.061447 -14.14356,7.856437 -18.00189,3.998107 z M 149.87244,91.342756 C 148.92374,90.197182 148.5,86.778986 148.5,80.271584 l 0,-9.413928 3.40761,-2.599936 3.40761,-2.599935 -1.58744,2.921107 C 148.53653,78.131452 148.77469,90 154.15763,90 c 1.74196,0 1.88131,0.248148 0.84237,1.5 -1.62351,1.956209 -3.423,1.901025 -5.12756,-0.157244 z M 163.58276,90.35507 C 163.26224,89.519815 163,87.475084 163,85.811224 c 0,-2.289219 -0.36793,-2.884012 -1.51237,-2.444852 -1.19645,0.459121 -1.37759,0.04339 -0.86719,-1.990226 1.74495,-6.952425 4.09263,-11.889789 5.81084,-12.220687 1.54909,-0.298327 1.73919,0.09603 1.20274,2.495105 -2.3836,10.659833 -2.62097,13.853461 -1.11284,14.972381 1.66567,1.2358 1.08807,3.929288 -1.01574,4.736594 -0.73696,0.282797 -1.60216,-0.169214 -1.92268,-1.004469 z M 198.07895,83.75 c 0.0528,-1.503442 0.2684,-1.752295 0.64994,-0.75 0.31405,0.825 1.06602,1.830609 1.67105,2.234687 0.67854,0.453168 0.42949,0.740555 -0.64994,0.75 -1.17572,0.01029 -1.72409,-0.723045 -1.67105,-2.234687 z m -8.29933,-1.701839 C 190.04974,80.207738 189.78581,79 189.1135,79 188.50107,79 188,78.160009 188,77.133353 188,73.980106 183.81658,65 182.34762,65 c -1.0044,0 -1.20482,-0.756748 -0.72834,-2.75 2.09846,-8.778362 4.87959,-8.408087 4.88433,0.650292 0.003,4.808013 0.47886,7.458489 1.57232,8.748714 0.86278,1.018047 2.17674,3.781841 2.9199,6.141765 1.17092,3.7183 1.15009,4.491885 -0.15619,5.798161 -1.34319,1.343188 -1.45866,1.175349 -1.06002,-1.540771 z m 18.05221,-4.733371 c 0.2549,-2.18342 -0.0726,-3.845584 -0.85281,-4.327757 -1.50752,-0.931699 -3.9427,-7.547062 -3.96396,-10.768418 C 203.00678,60.963854 202.325,59.678209 201.5,59.361626 198.75262,58.307359 199.98577,52 202.93926,52 c 1.46978,0 1.66096,0.777491 1.29096,5.25 -0.34388,4.156734 0.10753,6.434043 2.16773,10.935923 2.54666,5.564895 3.38593,11.211579 1.81104,12.184914 -0.43506,0.268879 -0.60478,-1.106342 -0.37716,-3.056047 z M 135.75,78.242607 C 133.59835,77.764012 133.412,75 135.53138,75 c 0.84227,0 1.79786,0.694408 2.12354,1.543128 0.72239,1.88252 0.3623,2.203779 -1.90492,1.699479 z m -8.27502,-8.037098 C 112.14085,58.897947 108.65575,54.817895 108.75445,48.289177 c 0.0388,-2.565047 0.73701,-5.174748 1.65629,-6.190548 C 111.28483,41.132768 112,39.845447 112,39.237914 112,35.68907 128.05391,23.079754 139.5,17.63843 151.60942,11.881764 155.17343,11 166.3319,11 c 15.68081,0 21.23451,3.790433 21.10682,14.40553 -0.10017,8.326891 -6.63309,16.923474 -16.51627,21.733531 -7.42801,3.615148 -13.52981,5.06087 -19.43815,4.605548 l -4.9843,-0.384113 5.60078,-0.180248 c 11.01499,-0.354492 21.0519,-5.325527 28.63135,-14.180405 2.68739,-3.139616 3.53066,-5.145949 3.97586,-9.459489 C 185.6951,17.976199 180.7135,14 167.7439,14 157.46469,14 144.90722,18.008676 134.23058,24.69834 131.3324,26.514253 128.70486,28 128.39159,28 c -1.10471,0 -8.46459,7.497838 -11.11727,11.325654 -2.28957,3.303855 -2.68608,4.90894 -2.68608,10.873275 l 0,6.997251 6.01321,5.65191 c 3.30727,3.108551 7.56241,6.865303 9.45588,8.348339 5.12465,4.01382 3.20629,3.277692 -2.58235,-0.99092 z M 160.75,61.337719 c 0.6875,-0.277412 1.8125,-0.277412 2.5,0 0.6875,0.277413 0.125,0.504386 -1.25,0.504386 -1.375,0 -1.9375,-0.226973 -1.25,-0.504386 z"
       id="path4616"
       inkscape:connector-curvature="0" />
  </g>
</svg>
