<?xml version="1.0" encoding="UTF-8" standalone="no"?>
<!-- Created with Inkscape (http://www.inkscape.org/) -->

<svg
   xmlns:dc="http://purl.org/dc/elements/1.1/"
   xmlns:cc="http://creativecommons.org/ns#"
   xmlns:rdf="http://www.w3.org/1999/02/22-rdf-syntax-ns#"
   xmlns:svg="http://www.w3.org/2000/svg"
   xmlns="http://www.w3.org/2000/svg"
   xmlns:xlink="http://www.w3.org/1999/xlink"
   xmlns:sodipodi="http://sodipodi.sourceforge.net/DTD/sodipodi-0.dtd"
   xmlns:inkscape="http://www.inkscape.org/namespaces/inkscape"
   id="svg4285"
   version="1.1"
   inkscape:version="0.91 r13725"
   width="473"
   height="123"
   viewBox="0 0 473 123"
   sodipodi:docname="Topcoat.bmp.svg">
  <metadata
     id="metadata4291">
    <rdf:RDF>
      <cc:Work
         rdf:about="">
        <dc:format>image/svg+xml</dc:format>
        <dc:type
           rdf:resource="http://purl.org/dc/dcmitype/StillImage" />
        <dc:title></dc:title>
      </cc:Work>
    </rdf:RDF>
  </metadata>
  <defs
     id="defs4289" />
  <sodipodi:namedview
     pagecolor="#ffffff"
     bordercolor="#666666"
     borderopacity="1"
     objecttolerance="10"
     gridtolerance="10"
     guidetolerance="10"
     inkscape:pageopacity="0"
     inkscape:pageshadow="2"
     inkscape:window-width="640"
     inkscape:window-height="480"
     id="namedview4287"
     showgrid="false"
     inkscape:zoom="0.55391121"
     inkscape:cx="236.5"
     inkscape:cy="61.5"
     inkscape:window-x="0"
     inkscape:window-y="0"
     inkscape:window-maximized="0"
     inkscape:current-layer="svg4285" />
  <image
     width="473"
     height="123"
     preserveAspectRatio="none"
     style="image-rendering:optimizeQuality"
     xlink:href="file:///media/havoc/USB%20DISK/pics/_OpsDeps/Topcoat.bmp"
     id="image4293"
     x="0"
     y="0"
     sodipodi:absref="/media/havoc/USB DISK/pics/_OpsDeps/Topcoat.bmp" />
  <g
     id="g4577">
    <path
       style="fill:#fdfdfd"
       d="M 0,61.5 0,0 236.5,0 473,0 473,61.5 473,123 236.5,123 0,123 0,61.5 Z"
       id="path4593"
       inkscape:connector-curvature="0" />
    <path
       style="fill:#e8e8e8"
       d="m 179.04762,100.05059 c -1.10189,-0.697057 -1.55091,-3.890898 -1.86065,-13.234686 L 176.77871,74.5 l -4.63935,4.627673 c -5.13387,5.120934 -9.88194,6.59846 -17.22024,5.358663 C 143.50711,82.558289 136.73915,67.687511 141.87843,55.832905 144.78223,49.134801 152.22902,44 159.03922,44 c 4.59361,0 11.36986,3.509747 14.73597,7.63247 l 3.15775,3.86753 0.0335,-4.05 c 0.0184,-2.2275 0.57353,-4.59 1.23353,-5.25 1.47102,-1.471016 7.23957,-1.570302 9.85671,-0.16965 1.41426,0.756887 2.71067,0.624183 4.8846,-0.5 3.72055,-1.92397 7.35446,-1.945883 10.98923,-0.06627 3.43043,1.773942 8.06946,7.097703 8.06946,9.260526 0,0.903009 0.95985,0.146837 2.25709,-1.778145 C 216.99173,48.888538 225.95136,44 230.65403,44 c 3.46538,0 10.64569,3.057898 11.88362,5.060915 0.44287,0.71659 1.40735,0.400473 2.81785,-0.923582 3.51059,-3.295445 10.65521,-4.750307 15.78317,-3.213933 5.65233,1.693479 11.29618,7.410323 12.93403,13.101314 0.70838,2.461407 1.39,4.620967 1.5147,4.799022 0.12471,0.178055 1.73106,-0.457215 3.56967,-1.411712 1.83861,-0.954496 5.36793,-2.297439 7.84293,-2.984318 3.78654,-1.050866 4.04275,-1.263048 1.61602,-1.338289 -1.58619,-0.04918 -4.68258,0.449456 -6.88087,1.10808 -3.70759,1.11082 -4.13218,1.030419 -5.86602,-1.110784 C 274.84111,55.817158 274,53.452981 274,51.832986 c 0,-2.529431 0.63572,-3.226657 4.50099,-4.936449 7.26424,-3.213318 13.35933,-3.518606 18.4454,-0.923885 2.51202,1.281535 4.58243,1.806199 4.93926,1.251657 0.33789,-0.52511 1.62685,-1.270723 2.86435,-1.656915 1.7245,-0.538175 2.25,-1.45716 2.25,-3.934782 C 307,37.228709 308.56295,36 314.16482,36 319.3646,36 321,37.539471 321,42.434259 321,44.61165 321.44875,45 323.96482,45 327.22901,45 329,47.234314 329,51.352471 c 0,4.154961 -1.03957,5.564327 -4.59655,6.23162 L 321,58.222582 l 0,7.388709 C 321,72.228322 321.20034,73 322.91821,73 c 3.48446,0 4.97127,1.135082 6.1449,4.691233 1.49569,4.531968 -0.13068,6.336628 -6.34147,7.036674 -8.24596,0.92944 -13.54433,-2.310721 -15.76592,-9.641479 -0.70372,-2.322134 -0.7926,-2.196516 -0.86977,1.229313 C 305.94941,82.377216 304.59338,84 299.66482,84 c -2.34565,0 -4.78575,-0.520928 -5.42244,-1.157618 -0.85301,-0.853011 -1.51074,-0.864552 -2.49961,-0.04386 -4.46768,3.707845 -15.65703,1.678529 -17.90105,-3.24656 -1.45161,-3.185934 -1.68583,-3.164795 -5.25703,0.474456 -5.30313,5.404198 -13.62818,6.387193 -20.98144,2.477425 l -4.69463,-2.496158 -3.03809,2.246158 C 237.42328,84.063174 235.51207,84.5 230.04312,84.5 c -5.75515,0 -7.36146,-0.407082 -10.54537,-2.672467 -2.06583,-1.469857 -4.53617,-3.861696 -5.48966,-5.315197 l -1.7336,-2.64273 -2.1365,3.621099 c -2.76969,4.694271 -9.78231,7.981693 -15.18381,7.117959 l -3.77678,-0.603931 -0.46348,5.747633 c -0.60723,7.530207 -1.06455,9.22397 -2.78429,10.312294 -1.85166,1.17179 -7.02038,1.16361 -8.88201,-0.0141 z M 161.96482,71.065741 C 163.38346,68.414974 163.27146,59.671455 161.8,58.2 c -1.80186,-1.801862 -4.59814,-1.445703 -5.76482,0.734259 -1.30465,2.437766 -1.33441,8.148507 -0.0599,11.500641 1.16893,3.074526 4.4943,3.424765 5.98957,0.630841 z m 35.20644,0.279271 C 198.49821,70.144137 199,68.257004 199,64.467457 c 0,-5.978813 -1.59879,-8.035955 -5.48701,-7.060072 -2.37642,0.596443 -2.51299,1.001033 -2.51299,7.445 0,3.747855 0.3,7.114282 0.66667,7.480948 1.1629,1.162901 3.61375,0.722863 5.50459,-0.988321 z m 37.66272,0.289426 c 2.01576,-1.118174 2.35661,-2.129714 2.5,-7.419307 L 237.5,58.090514 233.82486,57.470007 c -6.56258,-1.10802 -8.65376,1.412907 -7.90543,9.529993 0.27742,3.009095 2.78858,6.013373 4.98556,5.964565 0.87725,-0.01949 2.6453,-0.618047 3.92899,-1.330127 z M 258.8,71.8 c 0.67859,-0.678595 1.2,-3.9291 1.2,-7.480948 0,-5.874344 -0.16268,-6.321778 -2.51299,-6.911667 C 253.6371,56.441119 252,58.495718 252,64.293704 c 0,6.888328 3.52587,10.780423 6.8,7.506296 z m 32.0189,-1.545056 c 0.25546,-1.798424 -0.0429,-2.115687 -1.5,-1.594765 -4.56082,1.630574 -5.29692,4.76296 -0.97454,4.147007 1.35065,-0.192472 2.27473,-1.145568 2.47454,-2.552242 z M 124.25,83.337719 C 123.31528,82.960551 123,78.314327 123,64.916667 L 123,47 118.08179,47 C 110.5457,47 110,46.561105 110,40.5 c 0,-3.89767 0.41545,-5.445445 1.58179,-5.893011 2.57799,-0.989267 34.78583,-0.660077 36.41821,0.372223 1.95928,1.23903 1.88314,9.848194 -0.0982,11.102634 -0.77099,0.48814 -3.53931,0.894419 -6.15181,0.902841 L 137,47 l 0,17.3 c 0,12.122222 -0.35915,17.659152 -1.2,18.5 -1.17255,1.172546 -9.06601,1.540032 -11.55,0.537719 z"
       id="path4591"
       inkscape:connector-curvature="0" />
    <path
       style="fill:#cfcfcf"
       d="m 182.25,98.310674 c 0.9625,-0.251527 2.5375,-0.251527 3.5,0 0.9625,0.251528 0.175,0.457323 -1.75,0.457323 -1.925,0 -2.7125,-0.205795 -1.75,-0.457323 z m -3.74822,-3.508027 C 178.24006,94.086191 177.90759,88.1 177.76296,81.5 l -0.26296,-12 -1.86105,3.743914 c -6.94684,13.97507 -25.67911,14.398501 -32.64818,0.737992 -2.62592,-5.147218 -2.65639,-13.756862 -0.0667,-18.833152 2.75485,-5.399955 8.96997,-9.399182 15.37789,-9.895173 4.44856,-0.34433 5.86364,0.02556 9.81475,2.565509 3.00859,1.934056 5.27274,4.389293 6.5,7.048581 1.03579,2.244403 2.19928,4.092342 2.58553,4.106531 0.38626,0.01419 0.83626,-2.786702 1,-6.224202 L 178.5,46.5 l 3.81979,-0.314526 c 2.10088,-0.172989 4.43106,0.192783 5.17816,0.812827 1.0225,0.8486 2.10566,0.740923 4.38056,-0.435474 6.818,-3.525725 14.91836,-0.514128 18.54709,6.895538 1.75338,3.580299 2.02169,3.760717 3,2.017205 C 216.62334,49.77664 224.40891,45 230.5,45 c 3.96967,0 10.08661,2.438893 11.22676,4.476234 0.70666,1.262728 1.41212,1.086101 4.53406,-1.135193 10.29025,-7.32162 24.23063,-1.57692 27.68555,11.408959 0.62189,2.3375 1.29369,4.25 1.49288,4.25 0.19919,0 2.76934,-1.120604 5.71145,-2.490231 2.94212,-1.369627 6.3993,-2.494627 7.68263,-2.5 1.42478,-0.006 2.16719,-0.496496 1.90663,-1.259769 -0.41249,-1.208378 -3.21903,-1.366876 -10.64219,-0.601014 -3.02557,0.312153 -3.5504,-0.0055 -4.74056,-2.868825 -1.21966,-2.934323 -1.15209,-3.393351 0.762,-5.176592 4.82259,-4.492929 17.59436,-5.170115 22.942,-1.216434 2.3076,1.706085 2.84609,1.796818 3.32087,0.55956 0.31167,-0.812191 1.67473,-1.897994 3.02902,-2.412895 1.9224,-0.730897 2.53105,-1.76919 2.77562,-4.734992 L 308.5,37.5 l 5.5,0 5.5,0 0.30471,4.192896 c 0.29416,4.047728 0.43265,4.203529 4,4.5 3.49717,0.290639 3.71215,0.511897 4.00982,4.126892 C 328.19818,54.979074 326.69239,57 322.83711,57 l -2.91799,0 0.29044,8.25 c 0.27984,7.948805 0.38171,8.262625 2.79044,8.595818 3.30398,0.457031 4.66291,1.674989 5.47385,4.905998 C 329.349,82.238695 326.99449,84 321.45809,84 311.06706,84 307.78563,80.320885 307.24206,68.061089 306.64429,54.578833 305.55058,55.281307 305.00177,69.5 l -0.50177,13 -4.3239,0.311109 c -2.37815,0.17111 -4.89823,-0.165535 -5.60018,-0.748099 -0.91611,-0.760306 -2.19134,-0.602708 -4.51898,0.558473 -4.47145,2.230649 -11.84041,1.364149 -14.30732,-1.682367 -1.00612,-1.242504 -2.23362,-2.974601 -2.72778,-3.849107 -0.75925,-1.343649 -1.53526,-0.970239 -5.00834,2.409991 -4.02598,3.918349 -4.25735,4 -11.33485,4 -6.28906,0 -7.66166,-0.341751 -10.59596,-2.638185 l -3.37098,-2.638186 -2.11718,2.461371 c -1.6817,1.955089 -3.38264,2.576119 -8.26942,3.019236 -8.02735,0.727895 -14.20893,-2.022578 -17.69894,-7.875084 l -2.38363,-3.997177 -2.37127,4.234561 c -3.27721,5.85237 -7.88842,8.223752 -14.57347,7.494624 l -5.2022,-0.567396 -0.2978,6.253118 L 189.5,95.5 l -5.26118,0.302647 c -3.638,0.209275 -5.408,-0.09924 -5.73704,-1 z M 162.4433,71.777494 c 2.11661,-3.021893 2.0564,-11.567854 -0.0983,-13.948753 -4.50026,-4.972738 -9.51244,1.134788 -7.91579,9.645686 1.164,6.204632 5.17404,8.357781 8.01408,4.303067 z m 35.24225,0.04819 C 199.52607,70.096603 200,68.592576 200,64.480674 c 0,-6.129242 -2.33972,-9.134592 -6.17834,-7.936026 -3.3105,1.03367 -3.78913,2.184945 -3.80635,9.155662 -0.012,4.860826 0.36275,6.42051 1.73469,7.219591 2.53945,1.479096 3.35677,1.328425 5.93555,-1.094215 z M 235.25362,72.25 c 3.09818,-1.670109 3.24813,-2.023911 3.28477,-7.75 0.0211,-3.3 0.44287,-6.9 0.93723,-8 0.80009,-1.780279 0.71469,-1.850222 -0.77743,-0.636653 -1.13056,0.919511 -2.84618,1.143871 -5.26992,0.689174 C 227.60278,55.459653 225,57.82397 225,64.208602 c 0,3.924153 0.52156,5.717669 2.17431,7.476947 2.60679,2.774794 3.82153,2.859661 8.07931,0.564451 z m 24.18968,-0.472506 c 2.09114,-2.985524 2.08168,-12.109656 -0.0147,-14.206065 -5.95199,-5.95199 -12.09074,7.901467 -6.25426,14.11412 2.72309,2.898589 4.28707,2.921528 6.26899,0.09195 z M 290.8,72.8 c 0.66,-0.66 1.2,-2.01 1.2,-3 0,-2.24904 -4.20042,-2.468363 -5.98943,-0.312735 -2.64949,3.192443 1.81898,6.283182 4.78943,3.312735 z M 124.062,81.115851 C 123.43526,79.94478 123,72.341982 123,62.565741 L 123,46 117.53518,46 C 111.64136,46 110,44.642016 110,39.765741 110,35.329819 111.34952,35 129.5,35 c 18.62852,0 19.5,0.245802 19.5,5.5 0,4.347047 -1.6094,5.5 -7.67744,5.5 l -5.27744,0 -0.27256,18.25 -0.27256,18.25 -5.188,0.300109 c -4.33179,0.250581 -5.36327,-0.02738 -6.25,-1.684258 z"
       id="path4589"
       inkscape:connector-curvature="0" />
    <path
       style="fill:#b3b3b3"
       d="M 179.75,94.919901 C 178.16448,93.996423 178,91.762307 178,71.15031 178,54.788958 178.337,48.063005 179.2,47.2 c 1.62357,-1.623569 5.87123,-1.460827 8.21796,0.314858 1.122,0.848985 2.367,1.097369 3,0.598519 0.59512,-0.469002 2.75162,-1.390361 4.79222,-2.047464 3.18934,-1.027015 4.32668,-0.922022 8.10185,0.747912 3.47933,1.539075 4.87536,2.941821 6.71999,6.752326 2.09671,4.331215 2.43476,4.616898 3.39815,2.871765 2.54931,-4.617895 8.47867,-9.216566 13.40832,-10.399171 4.45334,-1.068339 5.5119,-0.977337 9.5839,0.823901 4.91399,2.173689 5.46243,3.42908 3.02091,6.914848 -1.22545,1.749572 -2.55541,2.229274 -6.25,2.254309 -6.82414,0.04624 -8.6933,1.853686 -8.6933,8.406256 0,7.102555 2.38529,10.005795 7.47973,9.103908 1.93615,-0.342763 4.52739,-0.717427 5.75831,-0.832587 1.75787,-0.164457 2.0973,-0.638482 1.58206,-2.20938 -1.25495,-3.826186 -0.54527,-11.138233 1.46145,-15.05765 2.30251,-4.497136 6.07076,-7.583722 11.40336,-9.340518 8.26547,-2.723012 18.66672,3.912976 21.00029,13.398168 0.67657,2.75 1.35942,5.185245 1.51745,5.411656 0.15803,0.226411 2.42708,-0.748301 5.04234,-2.166027 2.61526,-1.417726 6.44251,-2.890552 8.50501,-3.272947 4.21231,-0.780977 4.73668,-1.874259 1.68285,-3.50862 -1.57245,-0.841551 -3.13883,-0.741149 -6.54527,0.419544 -4.22536,1.439723 -4.58846,1.415516 -6.43285,-0.428878 -4.35898,-4.358981 -1.27474,-7.834901 8.88547,-10.013877 5.21388,-1.118178 10.47726,0.226494 14.24965,3.640459 1.4825,1.341648 1.72795,1.335878 2.26097,-0.05315 0.32886,-0.856999 1.73446,-1.990288 3.12355,-2.518421 C 307.35509,46.294697 308,45.325944 308,43.21588 c 0,-4.57673 1.98552,-6.410115 6.53988,-6.038772 3.79833,0.3097 3.97294,0.478379 4.27381,4.128718 0.17253,2.093205 0.84753,3.968119 1.5,4.166478 0.65247,0.198358 2.44896,0.638121 3.99219,0.977251 2.59999,0.571354 2.78344,0.926037 2.5,4.833522 -0.27996,3.859531 -0.55986,4.245758 -3.30263,4.557156 -3.90862,0.44376 -4.46958,1.503136 -4.48794,8.475508 -0.0187,7.120275 1.0234,9.242001 4.92251,10.021823 3.08398,0.616796 4.89805,4.041799 3.73966,7.060539 -0.81051,2.112141 -7.62234,2.897835 -12.14735,1.401106 -5.66558,-1.873988 -7.58354,-5.760776 -8.38016,-16.982545 -0.42193,-5.943729 -1.08852,-9.301153 -1.89997,-9.569679 -0.95732,-0.316798 -1.25,2.645257 -1.25,12.65063 l 0,13.064281 -2.6938,0.6761 c -1.73398,0.435201 -3.68571,0.106823 -5.47765,-0.921612 -1.53112,-0.878743 -3.00732,-1.236143 -3.28044,-0.794223 -0.27312,0.441921 -2.45803,1.35266 -4.85534,2.023866 -5.86314,1.641579 -10.82088,-0.339675 -13.39234,-5.351955 l -1.82702,-3.561237 -3.86135,3.978602 c -5.88624,6.064979 -13.16522,7.27342 -20.68489,3.434061 -1.41506,-0.722493 -3.15766,-2.018296 -3.87245,-2.879561 C 242.41788,76.593665 241,76.55236 241,78.476947 c 0,2.664608 -4.81856,4.838164 -10.90917,4.920913 -6.93819,0.09427 -12.50188,-3.03216 -15.58544,-8.757993 -1.07811,-2.001927 -2.19537,-3.62356 -2.48279,-3.603629 -0.28743,0.01993 -1.4226,1.93243 -2.5226,4.25 -1.46285,3.082056 -3.20858,4.826989 -6.5,6.497032 -4.26312,2.16308 -5.73061,2.241587 -11.25,0.601855 -1.51745,-0.450814 -1.75,0.210422 -1.75,4.976059 0,3.662993 -0.52409,6.020048 -1.57143,7.067387 -1.77527,1.775275 -6.0579,2.017732 -8.67857,0.49133 z m 18.42126,-22.574889 c 1.39371,-1.261288 1.82874,-3.116803 1.82874,-7.8 0,-3.44612 -0.52704,-6.672052 -1.2,-7.345012 -1.54692,-1.546918 -6.05308,-1.546918 -7.6,0 -1.65972,1.659716 -1.61694,15.465093 0.05,16.137719 2.49321,1.006033 5.13068,0.627744 6.92126,-0.992707 z m 61.93963,0.02138 c 1.78761,-2.153935 1.78761,-12.578839 0,-14.732774 -1.89791,-2.286842 -6.78836,-2.104778 -8.07571,0.300646 -1.66951,3.119507 -1.27674,12.141335 0.61981,14.237 2.05331,2.268884 5.65657,2.363185 7.4559,0.195128 z M 291.81336,70.25 c 0.25686,-2.66401 -0.0387,-3.25 -1.63922,-3.25 -2.98339,0 -6.62921,3.371717 -5.84777,5.408113 0.47667,1.2422 1.5641,1.632488 3.91675,1.405758 2.86537,-0.276141 3.29455,-0.704551 3.57024,-3.563871 z M 154.01873,82.976638 c -6.41661,-1.508899 -12.99296,-10.90909 -13.01315,-18.600911 -0.01,-3.650131 2.95723,-10.727473 5.69475,-13.584823 1.44245,-1.505593 4.79997,-3.460635 7.46115,-4.344539 4.46469,-1.482931 5.22413,-1.479019 9.82949,0.05063 13.1131,4.355472 17.10372,21.677147 7.30573,31.711201 -5.0711,5.193272 -9.85585,6.513787 -17.27797,4.768437 z m 8.94609,-10.910897 C 164.38964,69.403428 164.27065,58.670649 162.8,57.2 c -1.9753,-1.975296 -6.59508,-1.451419 -7.84815,0.889968 -1.63849,3.061541 -1.36406,10.631981 0.48787,13.458377 1.95823,2.988632 6.0519,3.270097 7.5251,0.517396 z M 125.7047,81.75 C 124.26513,80.677335 123.98974,78.017308 123.76357,63 L 123.5,45.5 117.5,45 c -5.94585,-0.495487 -6.00287,-0.529922 -6.31823,-3.815324 -0.56577,-5.894199 0.29566,-6.186354 18.19067,-6.169363 8.87016,0.0084 16.7212,0.391725 17.44676,0.851786 0.82661,0.524129 1.20001,2.292086 1,4.734687 L 147.5,44.5 142,45 136.5,45.5 136,63.288632 c -0.5384,19.154838 -0.69502,19.663957 -6.05887,19.696055 -1.40738,0.0084 -3.31377,-0.547187 -4.23643,-1.234687 z"
       id="path4587"
       inkscape:connector-curvature="0" />
    <path
       style="fill:#8c8c8c"
       d="M 179.47111,93.785316 C 179.19029,93.0535 179.08191,82.339925 179.23026,69.977371 L 179.5,47.5 l 2.39924,-0.339108 c 1.31958,-0.18651 3.4643,0.230894 4.76604,0.927564 1.97688,1.057992 2.94636,0.990299 5.88469,-0.410892 4.57196,-2.180219 8.21688,-2.117164 12.03007,0.208114 C 207.39556,49.602582 211,55.22568 211,57.901129 c 0,2.057261 1.94426,1.107297 3.37931,-1.651129 4.29728,-8.260167 15.34578,-12.512003 22.67035,-8.72432 3.33696,1.725608 3.63281,3.054952 1.3919,6.254287 -1.30364,1.861215 -2.17467,2.126439 -5.32768,1.622252 -3.05994,-0.489303 -4.28849,-0.156092 -6.52849,1.770673 -2.24971,1.935122 -2.77226,3.234324 -2.82972,7.035549 -0.12216,8.080385 5.17057,12.774547 10.92879,9.69284 2.29804,-1.229875 2.70413,-1.139618 4.42295,0.983039 2.38214,2.941822 2.36595,3.377323 -0.2124,5.710692 -1.62695,1.472375 -3.61403,1.903875 -8.75,1.900085 C 222.3793,82.489368 218.09947,80.037568 214.87968,73.75 213.8235,71.6875 212.61935,70 212.2038,70 c -0.41556,0 -1.64391,1.890787 -2.72968,4.20175 -2.7256,5.801218 -6.48203,8.315009 -12.29745,8.229424 C 194.6045,82.39332 191.825,82.16832 191,81.931174 189.80967,81.589014 189.39678,82.841899 189,88 l -0.5,6.5 -4.25915,0.307945 c -2.85502,0.206424 -4.42748,-0.130709 -4.76974,-1.022629 z m 19.122,-21.287522 c 2.21821,-2.218209 2.46843,-3.207494 2.20455,-8.716306 -0.26808,-5.596555 -0.57095,-6.366517 -3.04766,-7.747795 -2.47136,-1.378294 -3.02864,-1.378256 -5.5,3.8e-4 -2.52515,1.408643 -2.7744,2.092811 -3.04838,8.367805 -0.23284,5.332807 0.0757,7.247128 1.40499,8.715927 2.32552,2.569666 5.00483,2.361665 7.9865,-0.620011 z m -47.54059,8.284736 c -10.08855,-5.417421 -12.25276,-21.783583 -3.88984,-29.415557 8.11545,-7.406128 17.96335,-6.890122 24.71001,1.294744 5.95609,7.225776 5.42095,18.031252 -1.2417,25.072108 -3.67188,3.880314 -4.74224,4.42502 -9.63099,4.901214 -4.54518,0.442728 -6.2721,0.121124 -9.94748,-1.852509 z m 11.8749,-8.417389 C 165.79981,68.71349 165.84172,59.841717 163,57 c -2.35456,-2.354565 -4.86874,-2.547683 -7.55887,-0.580611 -2.77966,2.032535 -2.80463,13.416478 -0.0361,16.475623 2.55654,2.824953 5.02002,2.651429 7.52243,-0.529871 z M 249.5,81.643801 c -9.31231,-4.34647 -13.00588,-15.880984 -8.20878,-25.634907 7.5245,-15.299549 28.12239,-11.784435 31.69159,5.408301 l 1.16536,5.61349 2.67591,-1.90095 C 280.48959,62.525785 286.76205,60 289.56311,60 c 2.89035,0 3.99196,-1.626254 2.40054,-3.543805 -1.43864,-1.733445 -5.45828,-1.876932 -9.83532,-0.351088 C 278.29895,57.440036 276,56.022557 276,52.326529 c 0,-1.856082 0.884,-2.804655 3.75,-4.023905 8.07982,-3.437313 16.29303,-2.570478 20.19528,2.131439 1.73946,2.095925 2.71509,1.972699 3.34132,-0.422023 0.28593,-1.093377 1.65994,-2.421414 3.05336,-2.951192 1.99947,-0.760197 2.59952,-1.763963 2.84676,-4.76204 C 309.49921,38.509595 309.51137,38.5 314,38.5 c 4.5,0 4.5,0 5,4 0.46061,3.684848 0.77576,4.039394 4,4.5 2.94655,0.420936 3.55096,0.944417 3.82226,3.310472 C 327.24081,53.96074 325.46851,56 321.87756,56 L 319,56 l 0,8.3 c 0,8.770051 0.81878,10.7 4.53948,10.7 1.35579,0 2.59168,0.992447 3.37395,2.709346 1.06112,2.328893 0.98661,2.890582 -0.53061,4 -2.07583,1.517879 -8.19622,1.692297 -11.76542,0.335289 -4.47491,-1.701356 -6.07046,-5.559177 -6.6174,-15.999943 -0.45069,-8.603489 -0.69832,-9.573117 -2.51119,-9.832949 -1.9256,-0.275988 -2.01072,0.256026 -2,12.5 L 303.5,81.5 l -3.31532,0.318231 c -1.82343,0.175026 -3.94618,-0.205327 -4.71721,-0.845231 -1.07974,-0.896101 -2.4336,-0.769448 -5.89154,0.551153 C 281.73665,84.518 274,80.962079 274,74.365141 c 0,-3.171295 -1.08845,-2.97487 -3.5,0.63162 -1.1,1.645057 -3.26743,3.929366 -4.81652,5.076244 -3.59977,2.665115 -12.07619,3.487851 -16.18348,1.570796 z M 260,73 c 1.56789,-1.567889 2,-3.333333 2,-8.171259 C 262,57.968582 260.30379,55 256.38397,55 252.46347,55 250,58.686619 250,64.553703 250,73.204275 255.3104,77.689598 260,73 Z m 31.42857,0.428571 c 1.69743,-1.697432 2.12488,-5.968489 0.6863,-6.857578 -1.4993,-0.92662 -7.09764,1.528289 -8.20537,3.598113 -2.15348,4.023809 4.06086,6.71768 7.51907,3.259465 z M 125.49923,80.807945 C 125.23386,80.088575 124.90048,71.85 124.75838,62.5 l -0.25838,-17 -6,-0.5 -6,-0.5 0,-4 0,-4 17.22505,-0.273507 17.22505,-0.273507 0.60998,2.430366 c 1.10411,4.399129 -0.97574,6.478131 -6.81743,6.814643 L 135.5,45.5 l -0.5,18 -0.5,18 -4.25915,0.307945 c -2.82835,0.204495 -4.42123,-0.131439 -4.74162,-1 z"
       id="path4585"
       inkscape:connector-curvature="0" />
    <path
       style="fill:#6f6f6f"
       d="m 179.44807,92.725273 c -0.26904,-0.701099 -0.36741,-10.938599 -0.21861,-22.75 L 179.5,48.5 l 3.39514,-0.324183 c 2.00682,-0.191621 3.72053,0.202321 4.1909,0.963394 0.63459,1.026794 1.52349,0.94055 4.38879,-0.425817 7.95083,-3.791487 15.137,-1.02763 18.07542,6.951948 2.48655,6.752491 2.87554,6.934437 4.95701,2.318569 3.59406,-7.97022 10.86988,-11.995783 19.22937,-10.639225 5.15392,0.836367 6.69105,2.599709 4.71966,5.414252 -1.24587,1.778728 -2.40242,2.156614 -6.10703,1.995382 -3.88697,-0.169169 -4.92728,0.216355 -6.95968,2.579154 -1.59618,1.855669 -2.38505,4.004633 -2.37593,6.47229 0.0218,5.893855 0.98501,8.030292 4.63854,10.288297 3.03199,1.873872 3.77993,1.969589 6.52042,0.834442 2.74972,-1.138973 3.24968,-1.07147 4.47496,0.604198 0.75866,1.037534 1.22759,2.354622 1.04207,2.926862 -0.59811,1.844817 -5.69109,3.707104 -10.13817,3.707104 -7.59601,0 -12.40031,-3.624848 -15.44898,-11.656254 l -1.78852,-4.711679 -2.27857,5.614049 c -1.25322,3.087728 -3.65593,6.773018 -5.33937,8.189533 -2.73241,2.299178 -3.76538,2.539126 -9.62841,2.236584 L 188.5,81.5 l -0.29772,6.25 -0.29771,6.25 -3.98367,0 c -2.30566,0 -4.18971,-0.536944 -4.47283,-1.274727 z m 20.66171,-21.402901 c 1.67884,-2.716415 2.02998,-4.516039 1.65092,-8.460992 -0.5682,-5.913434 -2.4804,-8.194713 -6.86891,-8.194713 -4.67594,0 -6.89179,3.218373 -6.89179,10.009858 0,6.227101 1.19762,9.091104 4.27808,10.230639 3.28143,1.21388 5.49104,0.20248 7.8317,-3.584792 z M 151,80.206909 c -5.15527,-2.820832 -7.96353,-8.381743 -7.98355,-15.809026 -0.0268,-9.960265 5.66529,-16.38646 15.19208,-17.151244 6.14874,-0.493603 10.59826,1.876094 14.60298,7.777158 2.03652,3.000871 2.3119,4.433375 2.0139,10.476203 -0.36353,7.371474 -1.74716,10.254239 -6.72325,14.007708 -3.68481,2.779457 -12.63184,3.145245 -17.10216,0.699201 z m 11.54261,-6.489905 c 5.03746,-4.333041 4.33723,-16.083832 -1.10624,-18.56404 -3.96652,-1.80727 -7.14635,0.05628 -8.46742,4.962364 -1.44601,5.370055 -0.4834,10.461132 2.55187,13.4964 2.95601,2.956007 3.69474,2.967083 7.02179,0.105276 z M 249.5,81.040514 c -2.8047,-1.167755 -7.17315,-6.012192 -8.43638,-9.355614 -1.48708,-3.935869 -1.32492,-10.81691 0.34906,-14.812776 3.76641,-8.990556 14.49482,-12.663042 22.58732,-7.731957 15.09501,9.197998 9.72393,33.00916 -7.39788,32.796447 C 253.79595,81.901751 250.6,81.498506 249.5,81.040514 Z M 259.05611,75 C 260.84017,75 263,68.978272 263,64.004205 c 0,-4.076294 -0.49081,-5.585925 -2.45455,-7.54966 -3.19722,-3.197227 -5.05771,-3.09613 -8.62237,0.468532 C 249.63678,59.209376 249,60.74511 249,63.972737 c 0,6.602041 4.21157,12.786403 7.83179,11.500365 C 257.56427,75.212896 258.56521,75 259.05611,75 Z m 18.60026,4.75 c -3.26868,-2.995535 -4.39079,-10.798589 -1.87045,-13.006929 2.965,-2.597957 8.56237,-5.099406 12.71408,-5.68188 3.17157,-0.444964 4.06592,-1.025182 4.31828,-2.801518 0.49701,-3.498327 -3.52954,-4.880419 -9.41652,-3.232169 -4.29088,1.201373 -4.79587,1.154004 -6.05501,-0.567973 -0.75554,-1.033261 -1.22191,-2.346854 -1.03639,-2.919094 C 277.04788,49.265636 282.69398,47.5 289.23077,47.5 c 6.26778,0 6.95565,0.224803 10,3.268117 L 302.5,54.036234 302.84811,67.518117 303.19623,81 l -3.11168,0 c -1.71143,0 -3.94314,-0.519252 -4.95936,-1.153892 -1.46013,-0.911864 -2.34295,-0.806989 -4.20894,0.5 -3.50369,2.454079 -10.26316,2.150202 -13.25988,-0.596108 z m 12.38645,-4.772918 C 294.98603,72.331557 294.9083,66 289.93261,66 c -5.3993,0 -9.21672,6.570248 -5.18261,8.919901 2.23456,1.301512 2.95326,1.309277 5.29282,0.05718 z m 22.29383,4.636071 c -2.59735,-2.234147 -2.80884,-3.01785 -3.30576,-12.25 C 308.48232,57.171623 307.86211,55 305.5,55 304.73992,55 303.86326,54.587762 303.55186,54.083916 302.64208,52.611862 304.8134,48 306.41623,48 c 1.89042,0 2.83092,-1.583588 3.54327,-5.966035 C 310.48922,38.775041 310.805,38.5 314.01696,38.5 c 3.24993,0 3.50524,0.233973 3.81474,3.495985 C 318.26213,46.53246 319.57082,48 323.1858,48 c 2.71557,0 2.91691,0.249032 2.62756,3.25 C 325.53639,54.122573 325.09354,54.558066 322,55 l -3.5,0.5 -0.2898,8.210201 c -0.25268,7.158695 -0.0286,8.471444 1.75,10.25 C 321.08209,75.08209 322.86968,76 323.93261,76 c 2.00349,0 3.66527,3.223587 2.57292,4.991051 C 326.16257,81.545973 323.45862,82 320.49675,82 c -4.23445,0 -5.97819,-0.51005 -8.1601,-2.386847 z M 125.47699,79.75 c -0.25313,-0.6875 -0.57651,-8.9 -0.71861,-18.25 L 124.5,44.5 118.5,44 c -5.88889,-0.490741 -6,-0.555556 -6,-3.5 l 0,-3 17.31514,-0.273894 17.31514,-0.273893 -0.31514,3.273893 c -0.30497,3.168197 -0.47574,3.28403 -5.28975,3.587858 -2.73603,0.172681 -5.54853,0.790281 -6.25,1.372445 C 134.33107,45.970124 134,50.755842 134,63.622445 L 134,81 l -4.03138,0 c -2.31298,0 -4.22757,-0.532821 -4.49163,-1.25 z"
       id="path4583"
       inkscape:connector-curvature="0" />
    <path
       style="fill:#565656"
       d="m 180.47258,92.789145 c -0.28252,-0.736229 -0.39192,-11.002471 -0.24312,-22.813872 L 180.5,48.5 l 2.44397,-0.34497 c 1.4775,-0.20855 2.94302,0.337511 3.70592,1.380847 1.18641,1.622507 1.53331,1.598262 5.79513,-0.40503 5.6123,-2.638092 7.18683,-2.652668 11.36516,-0.105212 8.48223,5.171474 9.13141,21.865834 1.14772,29.514697 -3.16984,3.036906 -7.19756,3.634266 -13.65958,2.025885 l -3.20168,-0.796889 -0.29832,6.865336 L 187.5,93.5 l -3.25688,0.313871 c -2.03946,0.196547 -3.44888,-0.186493 -3.77054,-1.024726 z m 18.7227,-19.476236 C 201.68828,70.92446 202,69.924202 202,64.312909 202,59.333333 201.57759,57.577585 200,56 197.60749,53.607494 193.28518,53.411527 190.22251,55.556704 188.25671,56.933603 188,57.992916 188,64.727963 c 0,5.682099 0.42001,8.078662 1.65499,9.443296 2.36388,2.612058 6.28632,2.259152 9.54029,-0.85835 z M 154.5,81.267236 c -6.0802,-1.522364 -11.4343,-9.170099 -11.47804,-16.395112 -0.0627,-10.362687 9.33883,-19.152628 18.62249,-17.411003 4.86272,0.912252 11.0829,6.812634 12.42116,11.782554 1.83641,6.819895 0.3575,13.097919 -4.14646,17.601881 -4.60134,4.601344 -9.30938,5.951447 -15.41915,4.42168 z m 9.42742,-7.902095 c 3.00878,-3.825042 2.94924,-13.803072 -0.10173,-17.05069 -3.95026,-4.204857 -9.99916,-2.4558 -11.44621,3.309705 -1.0223,4.073196 0.18652,12.238803 2.12969,14.385975 2.58204,2.85312 6.8992,2.557469 9.41825,-0.64499 z m 60.69188,7.600436 c -11.84487,-3.546505 -14.44373,-21.745968 -4.29078,-30.047707 2.84171,-2.32357 9.98159,-4.307908 12.88089,-3.579895 1.25982,0.316341 3.19059,1.242207 4.29059,2.057478 1.90477,1.411728 1.91676,1.566764 0.25181,3.2559 -1.20325,1.220736 -2.954,1.686526 -5.61653,1.494286 -2.92658,-0.211306 -4.56166,0.317047 -6.7161,2.170225 -2.49846,2.149077 -2.84775,3.135048 -2.84775,8.038447 0,4.805176 0.40686,6.013594 2.90138,8.617304 3.04253,3.175721 6.21086,3.803232 9.72011,1.92514 2.26384,-1.211574 3.7629,0.09553 3.79177,3.306241 0.0265,2.951231 -8.35317,4.562716 -14.36539,2.762581 z m 24.69956,-0.980904 c -4.8377,-2.459311 -6.82712,-5.117392 -8.49368,-11.348505 -2.32568,-8.695449 3.06379,-18.22523 11.66979,-20.634759 3.91102,-1.095019 5.13271,-1.033413 9.03114,0.455414 2.71686,1.037576 5.59422,3.145311 7.24109,5.304272 2.39645,3.141597 2.7328,4.475029 2.7328,10.833795 0,5.762936 -0.42318,7.818802 -2.06179,10.016395 -5.17178,6.93606 -12.95592,9.015015 -20.11935,5.373388 z M 260.69339,73.75 c 3.78785,-4.173645 3.5838,-15.611712 -0.32955,-18.473224 -2.62538,-1.919724 -6.45484,-1.53991 -9.04939,0.897538 -3.1804,2.98783 -3.3204,12.604215 -0.24636,16.921316 2.5662,3.60389 6.69375,3.8845 9.6253,0.65437 z m 18.67069,7.126819 C 276.70202,79.529983 275,75.915069 275,71.607935 c 0,-4.818169 4.27323,-8.019833 13.5,-10.114705 3.87129,-0.878949 5.07013,-1.611835 5.31068,-3.246561 0.55396,-3.764593 -5.91397,-5.240399 -13.65374,-3.115412 -0.73868,0.202809 -1.86368,-0.445113 -2.5,-1.439826 -1.55708,-2.434084 0.90017,-4.225094 7.9664,-5.806446 4.71738,-1.055704 5.84961,-0.975461 9.50697,0.673776 C 300.96631,51.19043 302,54.261421 302,68.967881 302,80.64968 301.93678,81 299.82874,81 c -1.19419,0 -2.98266,-0.73431 -3.97438,-1.631799 -1.65904,-1.501415 -1.99929,-1.503259 -4.25834,-0.02308 -3.21046,2.103577 -9.536,2.895666 -12.23194,1.531693 z m 13.05127,-6.783279 c 1.10052,-1.216066 1.60932,-3.11727 1.40498,-5.25 -0.29786,-3.10904 -0.55808,-3.332131 -3.71027,-3.180872 -2.14051,0.102714 -4.32665,1.099381 -5.93141,2.704139 -2.22491,2.224906 -2.39699,2.85858 -1.3815,5.087331 0.9085,1.99394 1.88979,2.545862 4.52642,2.545862 2.04141,0 4.04555,-0.750391 5.09178,-1.90646 z M 315.5,81.054643 c -4.62705,-1.893816 -5.72252,-4.517903 -6.37558,-15.27215 -0.5711,-9.404456 -0.81655,-10.366785 -2.87442,-11.269621 -3.13071,-1.373516 -2.80811,-4.172901 0.68929,-5.98148 2.33806,-1.209053 3.00285,-2.288212 3.25,-5.27568 0.28376,-3.429949 0.59261,-3.782892 3.56071,-4.06907 2.92202,-0.281735 3.25,-0.04803 3.25,2.315741 C 317,45.761216 318.7349,48 322.03518,48 324.66276,48 325,48.341245 325,51 c 0,2.439907 -0.42007,3.002859 -2.25,3.015313 -4.60531,0.03134 -5.25639,1.346349 -5.15585,10.413415 0.1027,9.26154 0.99504,11.272011 5.22048,11.761911 2.9596,0.343138 4.2671,3.508895 2.03376,4.924221 -1.67614,1.062216 -6.68484,1.029953 -9.34839,-0.06022 z M 126.71406,80.380727 C 126.32133,79.987994 126,71.855529 126,62.308582 l 0,-17.358084 -2.5651,-0.975249 C 122.0241,43.438862 119.0991,43 116.9349,43 113.22946,43 113,42.825061 113,40 l 0,-3 16.5,0 16.5,0 0,3 c 0,2.869175 -0.1879,3 -4.30887,3 -7.55088,0 -7.62932,0.19789 -7.92756,20 L 133.5,80.5 l -3.03594,0.297393 c -1.66977,0.163567 -3.35727,-0.02393 -3.75,-0.416666 z"
       id="path4581"
       inkscape:connector-curvature="0" />
    <path
       style="fill:#454545"
       d="m 181,71 c 0,-21.812307 0.0183,-22 2.13976,-22 1.17686,0 2.7108,0.780945 3.40873,1.735433 1.19283,1.63128 1.50769,1.601272 5.2464,-0.5 C 193.98247,49.005945 196.74589,48 197.93581,48 c 11.68509,0 16.44247,20.515033 6.88155,29.674978 -2.93272,2.809724 -5.22754,3.155145 -14.31736,2.155082 l -3,-0.33006 -0.29569,6.75 c -0.2954,6.74341 -0.29857,6.75 -3.25,6.75 L 181,93 181,71 Z m 19.05637,2.777139 C 202.66434,70.921782 203,69.833308 203,64.231684 c 0,-5.458898 -0.35155,-6.67414 -2.57347,-8.896059 -2.1193,-2.119305 -3.20006,-2.471783 -6.12402,-1.997289 C 188.18358,54.331301 187,56.234763 187,65.082407 c 0,7.205611 0.19215,7.92358 2.63486,9.845013 3.77906,2.972608 6.97836,2.619483 10.42151,-1.150281 z M 152,79.207434 c -9.92666,-5.433103 -10.7825,-21.706532 -1.47691,-28.082825 6.91132,-4.735706 13.68098,-3.769311 19.97691,2.851777 2.76219,2.904846 3,3.724444 3,10.339277 0,7.639225 -1.16995,10.248642 -6.34537,14.152465 -3.6176,2.728763 -10.87306,3.082714 -15.15463,0.739306 z m 12.41111,-5.284159 C 166.59551,71.327255 167,69.864287 167,64.559638 c 0,-5.459421 -0.347,-6.633912 -2.63636,-8.923274 -4.37592,-4.37592 -10.28294,-3.175212 -12.25846,2.49175 -4.35376,12.489203 4.99297,24.486114 12.30593,15.795161 z M 224.5,80.284169 C 219.17951,78.997064 215,72.3096 215,65.083587 215,54.937125 221.06571,48.5 230.62673,48.5 c 9.18738,0 10.03501,4.795844 0.87804,4.967955 -7.45289,0.140081 -10.20932,4.347897 -9.65014,14.731359 0.0868,1.61135 1.45529,3.947999 3.39537,5.797387 3.1754,3.026956 5.3318,3.41161 10.72626,1.913323 0.90823,-0.252256 1.60152,0.403638 1.80181,1.704613 0.25852,1.679182 -0.32863,2.245475 -2.85126,2.75 -3.48659,0.697319 -7.33443,0.667623 -10.42681,-0.08047 z m 26,-0.248376 c -5.27521,-2.20882 -9.5,-9.04922 -9.5,-15.38155 0,-14.638401 16.72621,-21.876936 26.23541,-11.353792 5.21049,5.766079 5.0902,17.760546 -0.22911,22.84396 -4.80999,4.596689 -11.2154,6.106772 -16.5063,3.891382 z m 10.95953,-5.775575 C 263.66292,71.883966 264,70.617421 264,64.714764 c 0,-5.892443 -0.32937,-7.13504 -2.45455,-9.260219 -3.30245,-3.302451 -7.01515,-3.138691 -10.62237,0.468532 -2.47053,2.470529 -2.92308,3.71677 -2.92308,8.04966 0,11.082148 7.44572,16.77311 13.45953,10.287481 z m 18.43512,6.078313 c -2.4529,-0.656203 -4.07269,-4.538354 -3.7159,-8.905924 0.29824,-3.650909 0.71016,-4.129593 5.75056,-6.682607 2.98613,-1.5125 6.60863,-2.75 8.05,-2.75 5.21978,0 6.79451,-4.791641 2.49959,-7.605785 -1.76097,-1.153827 -3.64541,-1.471364 -6.25,-1.053149 -7.7061,1.237354 -7.7289,1.235135 -7.7289,-0.751846 0,-3.5556 9.97597,-5.713663 16.26987,-3.519598 4.87109,1.698072 6.58676,6.487063 7.05053,19.680378 0.39223,11.158356 0.37689,11.25 -1.88373,11.25 -1.25356,0 -3.05433,-0.701491 -4.00172,-1.558868 -1.56637,-1.417546 -2.07078,-1.372217 -5.56393,0.5 -3.62986,1.945487 -6.83135,2.37252 -10.47637,1.397399 z m 12.91679,-5.377486 c 2.53974,-2.366132 2.97506,-8.063422 0.75677,-9.904437 -1.99674,-1.657143 -8.08184,0.140486 -10.56641,3.121475 -2.37067,2.844316 -2.43255,3.761916 -0.4451,6.599411 2.02297,2.888187 7.25121,2.981768 10.25474,0.183551 z m 20.57316,3.693352 c -2.52043,-2.167985 -2.75554,-3.019872 -3.10488,-11.25 C 309.77838,55.593111 309.38632,54 306.98095,54 305.5346,54 305,53.325319 305,51.5 c 0,-1.740741 0.54667,-2.5 1.8,-2.5 2.70946,0 4.2,-2.022873 4.2,-5.7 0,-3 0.27273,-3.3 3,-3.3 2.81959,0 3,0.23411 3,3.893011 C 317,48.026146 318.07766,49 322.65134,49 c 2.00792,0 2.42613,0.433985 2.16821,2.25 C 324.57488,52.972743 323.67982,53.617168 321,54 l -3.5,0.5 -0.28922,9.377923 C 316.8946,74.130136 318.06188,77 322.548,77 c 2.17258,0 3.92448,2.194187 2.71643,3.402234 C 324.93566,80.731005 322.74176,81 320.3891,81 c -3.04595,0 -5.06273,-0.675361 -7.0045,-2.345603 z M 127,63.434259 c 0,-9.50684 -0.44111,-17.389957 -1.03518,-18.5 C 125.13523,43.384164 123.84426,43 119.46482,43 114.30235,43 114,42.861685 114,40.5 l 0,-2.5 16.06955,0 16.06955,0 -0.31955,2.25 c -0.28044,1.97464 -0.98998,2.28796 -5.79772,2.560173 -3.013,0.170595 -5.81861,0.845595 -6.23469,1.5 -0.41608,0.654405 -0.76341,8.952327 -0.77183,18.439827 L 133,80 l -3,0 -3,0 0,-16.565741 z"
       id="path4579"
       inkscape:connector-curvature="0" />
  </g>
</svg>
