<?xml version="1.0" encoding="UTF-8" standalone="no"?>
<!-- Created with Inkscape (http://www.inkscape.org/) -->

<svg
   xmlns:dc="http://purl.org/dc/elements/1.1/"
   xmlns:cc="http://creativecommons.org/ns#"
   xmlns:rdf="http://www.w3.org/1999/02/22-rdf-syntax-ns#"
   xmlns:svg="http://www.w3.org/2000/svg"
   xmlns="http://www.w3.org/2000/svg"
   xmlns:xlink="http://www.w3.org/1999/xlink"
   xmlns:sodipodi="http://sodipodi.sourceforge.net/DTD/sodipodi-0.dtd"
   xmlns:inkscape="http://www.inkscape.org/namespaces/inkscape"
   id="svg3495"
   version="1.1"
   inkscape:version="0.91 r13725"
   width="295.625"
   height="76.875"
   viewBox="0 0 295.625 76.875"
   sodipodi:docname="Typescript.svg">
  <metadata
     id="metadata3501">
    <rdf:RDF>
      <cc:Work
         rdf:about="">
        <dc:format>image/svg+xml</dc:format>
        <dc:type
           rdf:resource="http://purl.org/dc/dcmitype/StillImage" />
        <dc:title></dc:title>
      </cc:Work>
    </rdf:RDF>
  </metadata>
  <defs
     id="defs3499" />
  <sodipodi:namedview
     pagecolor="#ffffff"
     bordercolor="#666666"
     borderopacity="1"
     objecttolerance="10"
     gridtolerance="10"
     guidetolerance="10"
     inkscape:pageopacity="0"
     inkscape:pageshadow="2"
     inkscape:window-width="640"
     inkscape:window-height="480"
     id="namedview3497"
     showgrid="false"
     inkscape:zoom="0.88625793"
     inkscape:cx="147.8125"
     inkscape:cy="38.4375"
     inkscape:window-x="0"
     inkscape:window-y="0"
     inkscape:window-maximized="0"
     inkscape:current-layer="svg3495" />
  <image
     width="295.625"
     height="76.875"
     preserveAspectRatio="none"
     style="image-rendering:optimizeQuality"
     xlink:href="file:///media/havoc/USB%20DISK/pics/Language%20icons/Typescript.png"
     id="image3503"
     x="0"
     y="0"
     sodipodi:absref="/media/havoc/USB DISK/pics/Language icons/Typescript.png" />
  <g
     id="g3599">
    <path
       style="fill:#fdfdfd"
       d="M 0,38.4375 0,0 147.8125,0 295.625,0 l 0,38.4375 0,38.4375 -147.8125,0 L 0,76.875 0,38.4375 Z"
       id="path3615"
       inkscape:connector-curvature="0" />
    <path
       style="fill:#d3e7f5"
       d="M 79.844175,65.194256 C 78.678225,64.889525 77.873963,62.7139 78.2311,60.830684 c 0.155088,-0.817784 0.877762,-1.19812 2.538894,-1.336181 2.659362,-0.221029 4.452493,-2.068501 5.544168,-5.712208 C 86.957,51.636694 86.683187,50.663416 82.196856,39.14731 79.553581,32.362219 77.54725,26.403355 77.738337,25.90539 77.961675,25.323376 78.979962,25 80.589337,25 c 3.001176,0 3.059513,0.09384 6.915013,11.12324 1.477669,4.227157 2.885294,7.461532 3.128056,7.1875 0.242763,-0.274032 1.772231,-4.15449 3.398819,-8.62324 1.626587,-4.46875 3.25935,-8.490784 3.628356,-8.937853 1.005138,-1.217755 5.091549,-0.706075 5.352419,0.670204 0.19504,1.02897 -9.943475,27.437843 -12.411725,32.330149 -1.4105,2.79575 -3.450775,4.68795 -6.369981,5.907669 -2.388275,0.997887 -2.546844,1.017287 -4.386119,0.536587 z m 25.302885,-0.715143 c -0.61537,-0.390613 -0.7538,-4.783948 -0.625,-19.834182 l 0.16544,-19.332431 2.15991,-0.205445 c 1.48654,-0.141396 2.40135,0.124742 2.93435,0.853658 0.72208,0.987498 0.95913,0.969696 3.50617,-0.263305 3.52243,-1.705182 7.00275,-1.677257 10.4493,0.08384 3.37155,1.722776 4.73923,3.555908 5.80226,7.776901 l 0.8174,3.24565 1.08656,-3.059278 c 1.39773,-3.935409 3.79321,-6.752539 6.96819,-8.194733 4.79035,-2.175954 10.22756,-1.235776 13.59533,2.350842 1.96419,2.091824 3.61803,6.352474 3.61803,9.320804 0,3.634306 -0.98303,4.028564 -10.04464,4.028564 -7.55624,0 -8.08036,0.07797 -8.08036,1.202047 0,0.661126 0.72008,2.057812 1.60017,3.103747 2.09139,2.485473 5.00435,3.033166 8.87734,1.669111 1.628,-0.573374 3.42507,-1.193626 3.99349,-1.378339 1.22742,-0.39886 2.07051,1.656902 1.54241,3.760996 -0.71329,2.841966 -8.43693,4.884392 -13.40843,3.545705 -5.06564,-1.364033 -8.56247,-5.892978 -9.6732,-12.528267 l -0.26155,-1.5625 -0.0851,1.607413 c -0.50157,9.47236 -10.89459,16.067754 -18.05386,11.456944 l -1.40625,-0.905673 0,5.907265 c 0,4.536908 -0.22784,6.135101 -0.98214,6.889407 -1.05478,1.054788 -3.21208,1.276119 -4.4958,0.461256 z m 14.15367,-17.046874 c 2.74377,-0.956485 4.02397,-3.69378 4.08607,-8.736768 C 123.46051,32.709737 121.52865,30 117.1875,30 c -4.36054,0 -6.5625,3.010866 -6.5625,8.973274 0,4.961945 0.92071,7.189298 3.42235,8.279262 2.35121,1.024418 2.78743,1.03934 5.25338,0.179703 z M 148.75,34.034091 C 148.75,32.336874 145.83542,30 143.71864,30 c -2.3039,0 -5.3019,1.941887 -5.77173,3.738514 C 137.63426,34.934096 137.90784,35 143.18351,35 147.7876,35 148.75,34.833002 148.75,34.034091 Z m 76.60714,29.983765 c -0.75501,-0.755012 -0.98214,-2.355248 -0.98214,-6.919642 0,-5.397727 -0.0893,-5.848214 -0.98214,-4.955357 -1.14177,1.14177 -2.3633,1.242634 -4.05895,0.335153 -1.1359,-0.607913 -1.20891,-1.43434 -1.20891,-13.683132 0,-11.3107 0.13085,-13.086354 0.98862,-13.41551 1.84701,-0.708762 3.94709,-0.382995 4.60532,0.714382 0.62482,1.041667 0.6873,1.041667 1.31212,0 0.85201,-1.420444 4.68701,-1.486548 5.46619,-0.09422 0.50294,0.898696 0.81881,0.867171 3.13116,-0.3125 8.4366,-4.304035 16.99659,2.100981 16.99659,12.717712 0,10.745278 -9.00836,18.265221 -16.99977,14.190966 l -2.26407,-1.15429 -0.21184,6.177899 c -0.22383,6.528188 -0.60884,7.351151 -3.44843,7.371113 -0.74888,0.005 -1.80357,-0.432394 -2.34375,-0.972575 z m 16.26804,-17.826734 c 1.76229,-1.655594 2.99839,-7.043068 2.37651,-10.357958 C 243.41422,32.701685 240.70027,30 238.14204,30 c -2.65482,0 -5.2435,1.440661 -6.14536,3.420036 -0.91379,2.005553 -0.98644,9.964154 -0.10597,11.609325 1.69576,3.168544 6.93302,3.793586 9.73447,1.161761 z m -80.06268,6.864239 c -2.90996,-0.662393 -4.69149,-2.506924 -4.67793,-4.843351 0.0186,-3.194551 0.78149,-3.563373 4.26832,-2.063374 4.35896,1.875172 8.45177,1.803523 10.43802,-0.182727 2.9322,-2.932204 1.57613,-5.793945 -4.36674,-9.215217 -9.77501,-5.627403 -12.46072,-10.850279 -8.7955,-17.104501 2.48728,-4.244228 9.11757,-6.730133 15.00464,-5.625712 3.98728,0.748016 5.89707,4.09215 3.89816,6.825827 -0.73249,1.001736 -0.97134,1.010925 -3.10493,0.119456 -3.62575,-1.514934 -7.72786,-1.271258 -9.56745,0.568329 -2.94571,2.945708 -1.69582,5.325086 4.83553,9.205292 5.00424,2.972966 8.47664,6.242966 9.04839,8.520973 0.30561,1.21768 0.62693,0.583028 1.55494,-3.07121 1.78247,-7.018884 5.61097,-10.816367 11.73249,-11.637436 3.23663,-0.434123 7.92738,0.295394 9.03753,1.405541 0.76053,0.760534 0.98873,0.755381 1.64649,-0.03717 0.96359,-1.161055 3.97835,-1.196163 4.9235,-0.05733 0.60327,0.726904 1.07895,0.677702 3.02118,-0.3125 4.31979,-2.202358 7.28496,-1.089492 6.9338,2.602346 -0.19939,2.096323 -0.29684,2.169113 -3.31006,2.472413 -2.67333,0.269088 -3.30279,0.607512 -4.53125,2.436177 -1.30032,1.935643 -1.42663,2.830921 -1.42663,10.111603 0,8.274977 -0.48844,9.952216 -2.89823,9.952216 -1.58263,0 -3.35177,-1.239621 -3.35177,-2.348556 0,-0.873515 -0.15752,-0.829691 -0.91743,0.255239 -0.90036,1.285443 -5.1079,2.721709 -7.95308,2.714831 -5.38543,-0.01302 -10.50924,-3.887379 -12.40515,-9.380131 -0.993,-2.876872 -1.18903,-3.12703 -1.21766,-1.553883 -0.0498,2.737981 -2.09309,6.808209 -4.1526,8.272152 -3.45755,2.457696 -8.39771,3.170062 -13.66658,1.970709 z m 36.12898,-6.000904 c 2.61924,-0.938822 3.07829,-0.95923 3.58418,-0.159341 0.37383,0.59108 0.5836,-2.083747 0.58977,-7.520116 l 0.01,-8.4375 -2.03125,-0.131644 c -1.11719,-0.0724 -3.29688,-0.29539 -4.84375,-0.495522 -5.5341,-0.715994 -9.22765,3.63112 -8.56233,10.07742 0.39852,3.86134 1.35525,5.53948 3.86422,6.777986 2.45611,1.212416 3.75098,1.192916 7.38959,-0.111283 z M 257.5,52.655279 c -3.61012,-1.803458 -4.37291,-4.187523 -4.37403,-13.670904 L 253.125,30.78125 251.30027,30.416304 C 248.00421,29.757092 248.25384,25 251.58449,25 c 1.37593,0 1.54051,-0.262323 1.54051,-2.455357 0,-2.718548 1.10007,-4.201335 3.57845,-4.823367 C 258.84904,17.182768 260,18.78382 260,22.306956 L 260,25 l 2.47801,0 c 2.38088,0 3.77199,1.120884 3.77199,3.039269 0,1.29736 -2.04643,2.585731 -4.10714,2.585731 l -2.14286,0 0,8.10301 c 0,8.892465 0.3212,9.640154 3.85139,8.965315 1.28326,-0.245311 1.7432,-0.02375 2.06672,0.995573 1.32272,4.167533 -3.48289,6.431802 -8.41811,3.966381 z M 70.982144,52.142857 C 70.142894,51.303606 70,48.939394 70,35.892857 L 70,20.625 l -4.330356,0 C 61.081407,20.625 59.375,19.777847 59.375,17.5 c 0,-2.855347 1.213439,-3.125 14.0625,-3.125 12.849063,0 14.0625,0.269653 14.0625,3.125 0,2.277847 -1.706406,3.125 -6.294644,3.125 l -4.330356,0 0,15.267857 c 0,16.537368 -0.138594,17.232143 -3.4375,17.232143 -0.810269,0 -1.915181,-0.441964 -2.455356,-0.982143 z M 219.6875,19.878159 c -1.62143,-0.919452 -2.16615,-1.763589 -2.17793,-3.375042 -0.0228,-3.119868 4.71309,-4.565198 6.51749,-1.989051 1.33481,1.905708 1.22649,2.789205 -0.56115,4.576843 -1.72491,1.724907 -2.01741,1.785851 -3.77841,0.78725 z"
       id="path3613"
       inkscape:connector-curvature="0" />
    <path
       style="fill:#acd2ed"
       d="m 79.40355,64.0969 c -0.412225,-0.4967 -0.6576,-1.551388 -0.545275,-2.343749 0.153056,-1.079709 0.673988,-1.492337 2.079225,-1.646949 2.466138,-0.271338 4.311556,-2.066485 5.604381,-5.4517 1.0518,-2.754099 1.051638,-2.755331 -1.1218,-8.548249 -1.195562,-3.186564 -3.340275,-8.717917 -4.766025,-12.291896 -1.425744,-3.573978 -2.439681,-6.895778 -2.253187,-7.381778 0.228706,-0.595984 1.09645,-0.820391 2.665643,-0.689357 l 2.326563,0.194278 2.372894,6.875 c 3.7639,10.905171 4.3488,12.326107 4.845581,11.771798 0.257206,-0.286989 1.642781,-3.756173 3.079056,-7.709298 4.121669,-11.34425 4.066275,-11.25 6.611784,-11.25 1.62904,0 2.19761,0.267858 2.19761,1.035306 0,1.146118 -10.051319,27.191562 -12.022087,31.152194 -1.660826,3.33773 -3.475669,5.237425 -6.022988,6.304575 -2.681113,1.123194 -4.107188,1.1175 -5.051375,-0.02019 z m 25.61844,-0.930812 c -0.96844,-1.809542 -0.87323,-35.81485 0.10301,-36.791088 1.2572,-1.257197 4.3197,-0.930976 4.69391,0.5 0.40725,1.557322 0.70838,1.559681 2.34901,0.01839 2.78404,-2.615477 9.19194,-2.610405 12.87222,0.01019 3.94873,2.811745 5.7371,10.877682 3.83278,17.28675 -2.12331,7.146128 -9.85778,10.846956 -16.06042,7.684669 -1.34849,-0.6875 -2.53296,-1.25 -2.63215,-1.25 -0.0992,0 -0.18035,2.75625 -0.18035,6.125 0,3.930556 -0.26871,6.393706 -0.75,6.875 -1.1482,1.1482 -3.50481,0.892412 -4.22801,-0.458913 z m 15.75279,-15.758561 c 2.91214,-1.525551 4.41349,-10.735133 2.37232,-14.552293 -2.54794,-4.764868 -9.43688,-4.552656 -11.94723,0.36803 -1.50066,2.941541 -1.61702,9.157137 -0.22193,11.854951 1.66947,3.228383 6.07918,4.276844 9.79684,2.329312 z m 104.91718,16.110654 c -0.50447,-0.607856 -0.66292,-6.192242 -0.54528,-19.21875 l 0.16582,-18.361931 2.29066,-0.190813 c 1.86113,-0.155033 2.36773,0.05199 2.70162,1.104001 l 0.41096,1.294816 1.98588,-1.416502 c 1.62106,-1.156281 2.81076,-1.416502 6.47609,-1.416502 4.12916,0 4.65062,0.150767 6.48506,1.875 3.03065,2.848562 4.30856,6.178482 4.3174,11.25 0.0168,9.611198 -5.80756,15.6426 -13.92936,14.424661 -1.55298,-0.232884 -3.16228,-0.831515 -3.57623,-1.330293 -1.49543,-1.80188 -1.84958,-0.802732 -1.84958,5.218132 0,3.930556 -0.26871,6.393706 -0.75,6.875 -1.00876,1.008762 -3.30587,0.9501 -4.18304,-0.106819 z m 15.77828,-16.555014 c 3.18092,-2.809953 4.23993,-10.447529 1.97927,-14.274525 -2.6782,-4.533843 -9.43925,-4.297078 -11.87643,0.4159 -1.32844,2.568914 -1.28401,10.512723 0.0696,12.44528 2.1551,3.076839 7.13388,3.792861 9.82755,1.413345 z M 139.1277,52.475981 c -4.7236,-1.413525 -7.85227,-6.762028 -7.84637,-13.413481 0.007,-7.895729 4.28999,-13.383558 10.87116,-13.92932 4.42332,-0.366816 6.10062,0.09373 8.7212,2.394629 3.289,2.887783 5.33897,10.384532 3.37631,12.347191 -0.50814,0.508146 -3.43056,0.75 -9.0625,0.75 -8.23344,0 -8.3125,0.01354 -8.3125,1.423434 0,1.505693 1.48279,4.020322 3.09632,5.250988 1.87225,1.427997 4.85985,1.522566 8.56664,0.271164 1.98948,-0.671647 3.83545,-1.086321 4.10215,-0.921496 0.88458,0.546705 0.50192,3.142038 -0.60886,4.129424 -2.30216,2.046425 -8.85624,2.908615 -12.90355,1.697467 z m 9.97902,-18.569731 c -0.5225,-2.224096 -3.1244,-4.53125 -5.11011,-4.53125 -2.32486,0 -5.10599,1.665139 -6.1486,3.681339 -0.50774,0.98185 -0.74687,1.961464 -0.53142,2.176921 0.21546,0.215457 3.04723,0.39174 6.29283,0.39174 l 5.90109,0 -0.40379,-1.71875 z M 161.25,52.424633 c -3.0753,-0.931116 -3.75,-1.655613 -3.75,-4.026776 0,-2.631864 0.73509,-3.071229 3.09587,-1.850419 4.94209,2.555649 11.3038,1.698873 12.48205,-1.681042 1.11609,-3.201603 -0.6574,-5.840912 -5.89042,-8.766129 C 160.14215,32.161971 157.5,29.049272 157.5,24.6875 c 0,-3.990589 2.65101,-7.519811 7.01971,-9.34517 3.96068,-1.654879 11.13872,-1.020931 12.48925,1.103021 0.65514,1.030325 0.60956,4.032625 -0.0676,4.451114 -0.30723,0.18988 -1.56382,-0.07477 -2.79242,-0.588114 -4.4441,-1.856865 -9.19585,-0.872209 -10.96018,2.271168 -1.50295,2.677685 -0.10009,4.949803 4.82078,7.807916 4.89341,2.842163 8.58537,6.008055 9.84339,8.440808 2.06908,4.001156 0.2452,9.927586 -3.83046,12.446476 -2.62831,1.624389 -9.23952,2.219599 -12.7725,1.149914 z m 26.87946,-0.295247 c -6.01509,-2.60848 -9.17789,-9.528741 -7.51775,-16.448968 1.58457,-6.605261 6.70316,-10.753312 13.34294,-10.812976 4.61892,-0.04151 6.98285,1.169929 6.98285,3.57848 0,2.036289 0.30114,1.974562 -5.9375,1.21704 -2.1512,-0.261207 -3.28213,-0.04831 -4.80979,0.905428 -3.24264,2.024416 -4.25755,4.137496 -4.2169,8.779699 0.0443,5.05289 1.22931,7.071267 4.99659,8.510004 2.56936,0.981246 2.94841,0.980735 5.97143,-0.008 3.81968,-1.249355 4.89454,-0.707478 3.94829,1.990483 -1.05852,3.018064 -8.1467,4.289506 -12.76016,2.288854 z m 69.5034,0.05399 C 254.44448,50.798086 253.75,48.343118 253.75,38.457574 l 0,-8.457574 -1.48598,0 c -3.29831,0 -3.90481,-3.822405 -0.69389,-4.373182 1.69076,-0.290019 1.88559,-0.572141 2.06002,-2.983006 0.14405,-1.99106 0.56984,-2.909837 1.68802,-3.642498 2.63893,-1.729094 3.70621,-0.971653 4.05683,2.879104 l 0.3125,3.432082 2.80691,0.3125 c 2.05445,0.228726 2.86413,0.613757 3.02036,1.436274 C 265.85697,28.862927 264.41904,30 261.79847,30 l -2.42347,0 0,8.360972 c 0,9.191396 0.12693,9.525211 3.75251,9.869212 1.66998,0.15845 2.22966,0.520414 2.3745,1.535662 0.43218,3.029339 -3.6058,4.269868 -7.86915,2.417525 z M 71.375,51.75 c -0.542944,-0.542943 -0.75,-5.021936 -0.75,-16.22371 l 0,-15.473709 -4.778063,-0.182541 c -3.739234,-0.142853 -4.927532,-0.420339 -5.465552,-1.27629 -0.500261,-0.795881 -0.4996,-1.391619 0.0024,-2.1875 0.61915,-0.981556 1.958164,-1.09375 13.053687,-1.09375 11.095525,0 12.434538,0.112194 13.053688,1.09375 0.502025,0.795881 0.502687,1.391619 0.0025,2.1875 -0.538019,0.855951 -1.726313,1.133437 -5.46555,1.27629 L 76.25,20.052581 l 0,15.473709 C 76.25,51.775649 76.129975,52.5 73.4375,52.5 c -0.721875,0 -1.65,-0.3375 -2.0625,-0.75 z m 131.89296,0.226577 c -0.60967,-0.386941 -0.7551,-3.475121 -0.625,-13.27168 l 0.16954,-12.767397 2.07849,-0.199372 c 1.64013,-0.157325 2.1466,0.06111 2.40147,1.035741 0.31339,1.198398 0.38889,1.19039 2.53998,-0.269378 3.72795,-2.529852 7.3013,-1.821079 6.93636,1.375826 -0.17903,1.568288 -0.49547,1.830365 -2.3938,1.982552 -5.54109,0.444222 -6.875,3.116852 -6.875,13.774779 0,7.471788 -0.39084,8.87331 -2.46875,8.852781 -0.53281,-0.0052 -1.32629,-0.236497 -1.76329,-0.513852 z m 15.76125,-0.275458 c -0.16861,-0.439385 -0.23009,-6.415948 -0.13664,-13.28125 l 0.16993,-12.482369 2.1875,0 2.1875,0 0.16972,12.419735 c 0.11796,8.632682 -0.0483,12.68243 -0.54528,13.28125 -0.89962,1.083973 -3.62457,1.126294 -4.03273,0.06263 z m 0.13016,-32.844082 c -1.4937,-1.650516 -1.27373,-3.671385 0.52813,-4.85201 1.44742,-0.948386 1.67758,-0.948386 3.125,0 1.97018,1.290914 2.05356,3.705142 0.17343,5.022033 -1.79972,1.260577 -2.56256,1.226683 -3.82656,-0.170023 z"
       id="path3611"
       inkscape:connector-curvature="0" />
    <path
       style="fill:#93c5e8"
       d="m 79.064275,63.130594 c -0.546469,-1.721765 -0.04219,-2.30028 2.405519,-2.759466 1.159725,-0.217566 2.541075,-0.882262 3.069662,-1.477102 C 85.734119,57.549619 87.5,53.351587 87.5,51.855916 c 0,-0.614036 -2.070869,-6.468194 -4.601931,-13.00924 -3.250038,-8.399085 -4.406744,-12.087999 -3.9375,-12.557243 0.907718,-0.907719 3.352606,-0.838227 3.971293,0.112878 0.278101,0.42752 1.948782,4.857208 3.712625,9.84375 1.763844,4.986541 3.451344,9.036331 3.75,8.999531 0.298657,-0.0368 1.993957,-3.971291 3.767325,-8.743316 3.686907,-9.921202 4.189119,-10.880878 5.687232,-10.867705 3.126276,0.02749 3.020736,0.56397 -3.211657,16.326162 -6.8403,17.299619 -8.246656,19.974161 -11.253275,21.400892 -3.020306,1.433231 -5.82415,1.330731 -6.319837,-0.231031 z m 26.352395,0.202737 C 105.1875,63.104169 105,54.696758 105,44.650201 c 0,-16.08007 0.11833,-18.311874 0.98862,-18.645833 1.86138,-0.714279 2.79269,-0.378389 3.40322,1.227418 l 0.6109,1.606787 1.60018,-1.258705 c 6.00112,-4.720478 14.36392,-2.359596 16.78223,4.737748 1.75709,5.156798 0.78328,12.873308 -2.04786,16.227056 -3.33148,3.946479 -10.24238,5.28685 -14.1108,2.736795 -1.00981,-0.665663 -2.0645,-1.069086 -2.34375,-0.896496 -0.27926,0.17259 -0.50774,3.250326 -0.50774,6.839415 l 0,6.525614 -1.77083,0 c -0.97396,0 -1.95834,-0.1875 -2.1875,-0.416669 z m 15.9681,-16.249115 c 3.12029,-2.778558 4.07969,-10.602281 1.76553,-14.397623 -3.56611,-5.84861 -11.20194,-4.332949 -13.14566,2.609323 -1.50524,5.376206 0.0921,10.705551 3.80561,12.697316 1.93724,1.039039 5.9242,0.560564 7.57452,-0.909016 z M 225.625,45.036886 c 0,-12.472143 0.22029,-18.849261 0.66052,-19.12134 C 227.33911,25.26439 230,26.184091 230,27.199407 c 0,1.27014 0.98365,1.159937 3.00843,-0.337051 2.73269,-2.020369 7.37152,-2.235974 10.73899,-0.499131 4.17889,2.155339 5.60435,5.105486 5.6173,11.625599 0.0143,7.219477 -1.89393,11.306798 -6.36493,13.63306 -2.48205,1.291407 -7.9118,1.117648 -10.28448,-0.329116 -1.0847,-0.661407 -2.13939,-1.035356 -2.34375,-0.830997 C 230.1672,50.666131 230,53.739583 230,57.291667 l 0,6.458333 -2.1875,0 -2.1875,0 0,-18.713114 z m 16.2529,2.147989 c 2.02548,-1.833037 3.31194,-6.137175 2.99101,-10.007123 -0.34371,-4.144755 -1.8955,-6.514178 -5.05345,-7.716103 -1.99192,-0.758129 -2.49513,-0.723842 -4.58004,0.312073 -3.50625,1.742125 -4.82227,3.951002 -5.11765,8.589711 -0.29491,4.631654 0.82037,7.621002 3.47952,9.32629 2.10837,1.352078 6.52637,1.082724 8.28061,-0.504848 z M 138.75,52.085857 c -2.31892,-0.962413 -4.50543,-3.01631 -5.6965,-5.351005 -1.09324,-2.142936 -1.26017,-3.430651 -1.0796,-8.328243 0.19783,-5.365712 0.35468,-5.970553 2.12483,-8.193736 1.05118,-1.320205 3.14983,-3.033186 4.66368,-3.806623 7.64353,-3.905138 15.61259,1.329047 15.61259,10.254552 l 0,3.339198 -8.36098,0 c -9.62405,0 -10.42714,0.345847 -8.94398,3.851639 0.48534,1.147223 1.48091,2.61906 2.21237,3.270748 1.84359,1.642531 6.69363,2.019999 9.71801,0.756332 3.21781,-1.344489 3.49958,-1.286443 3.49958,0.720939 0,1.108666 -0.50227,2.041933 -1.40625,2.612965 -1.46564,0.925821 -10.65131,1.575643 -12.34375,0.873234 z m 10.42705,-16.84649 c 0.72011,-1.876578 -0.66635,-4.262926 -3.19479,-5.498808 -2.41258,-1.179255 -2.48105,-1.179255 -4.63362,0 -2.67088,1.463197 -4.77768,4.190628 -4.26635,5.523138 0.56478,1.471798 11.5291,1.449742 12.09476,-0.02433 z m 11.76045,16.808377 c -2.07996,-0.511261 -2.8125,-1.471516 -2.8125,-3.686772 0,-1.161034 0.13472,-2.110972 0.29937,-2.110972 0.16466,0 2.08534,0.586287 4.26816,1.302859 3.35961,1.10288 4.36541,1.196062 6.55275,0.607072 4.32413,-1.164369 5.82946,-5.05722 3.23233,-8.358947 -0.69982,-0.889673 -3.5473,-2.966665 -6.32775,-4.615536 -6.1876,-3.669408 -8.02581,-6.072252 -8.02252,-10.486782 C 158.13207,18.343576 162.23071,15 170.01619,15 c 5.61702,0 6.85881,0.626344 6.85881,3.45949 0,2.473262 -0.11711,2.509979 -3.82767,1.200014 -5.13178,-1.811708 -10.54733,0.523485 -10.54733,4.54802 0,2.672723 1.41053,4.18305 6.98058,7.474476 6.49829,3.839939 8.64442,6.603607 8.64442,11.131847 0,6.401744 -4.01075,9.736149 -11.5625,9.612681 -2.40625,-0.03934 -4.9375,-0.209794 -5.625,-0.378784 z m 25.88833,-0.999743 c -5.11232,-2.703462 -7.49869,-10.008593 -5.47548,-16.761474 2.04863,-6.837728 9.5725,-10.672193 16.9309,-8.628664 2.13016,0.591575 2.34375,0.847565 2.34375,2.809015 0,2.505892 0.11399,2.471995 -3.72633,1.10803 -2.90559,-1.031975 -3.00891,-1.023888 -5.98867,0.46875 -3.66449,1.835641 -5.42923,4.840295 -5.42923,9.243815 0,7.271573 5.81724,11.287235 12.37925,8.545448 2.38328,-0.995795 3.12035,-0.452267 2.65606,1.958623 -0.5727,2.97379 -8.98307,3.745672 -13.69025,1.256457 z m 69.40927,-0.341745 -1.8601,-1.860102 0,-8.985577 c 0,-9.547267 -0.26658,-10.485577 -2.97901,-10.485577 -1.24422,0 -1.44762,-0.272394 -1.28125,-1.715783 0.15638,-1.356805 0.59005,-1.782421 2.07276,-2.034289 1.73588,-0.294874 1.89819,-0.550145 2.1875,-3.440467 0.29806,-2.97766 0.40482,-3.130897 2.3098,-3.315278 l 1.99731,-0.193317 0.19019,3.318317 0.1902,3.318317 2.8125,0.3125 c 2.51199,0.279109 2.83363,0.496147 3.01026,2.03125 0.18616,1.617901 0.0531,1.71875 -2.26722,1.71875 -3.73009,0 -4.00067,0.698072 -3.7634,9.709162 0.22932,8.709409 0.6678,9.665838 4.43133,9.665838 1.5917,0 1.77446,0.196406 1.59929,1.71875 -0.18459,1.604242 -0.41736,1.731371 -3.49391,1.908179 -2.94872,0.169463 -3.49221,-0.0066 -5.15625,-1.670673 z M 71.25,36.375 c 0,-11.222223 -0.206987,-15.706989 -0.75,-16.25 -0.44635,-0.446347 -2.597225,-0.75 -5.3125,-0.75 l -4.5625,0 0,-1.875 0,-1.875 12.8125,0 12.8125,0 0,1.875 0,1.875 -4.5625,0 c -2.715275,0 -4.86615,0.303653 -5.3125,0.75 -0.543013,0.543011 -0.75,5.027777 -0.75,16.25 l 0,15.5 -2.1875,0 -2.1875,0 0,-15.5 z m 131.62937,14.511383 c -0.65616,-1.709919 -0.4219,-22.764094 0.26762,-24.052471 0.93729,-1.751342 3.01312,-1.526718 3.74776,0.405542 l 0.61382,1.614454 1.91867,-1.614454 c 2.50981,-2.111867 6.52692,-2.281158 7.15523,-0.30154 0.56201,1.770737 -0.51725,2.69365 -3.2614,2.788944 -4.66113,0.161864 -6.43724,4.32932 -6.44258,15.116892 l -0.003,7.03125 -1.80813,0 c -1.07223,0 -1.96254,-0.402367 -2.1875,-0.988617 z m 16.14922,0.188121 c -0.16895,-0.440273 -0.23043,-6.105227 -0.13663,-12.588787 0.14535,-10.047416 0.31951,-11.882168 1.17934,-12.423971 0.55484,-0.349624 1.4689,-0.459122 2.03125,-0.243328 0.90066,0.345616 1.02245,1.920844 1.02245,13.224466 l 0,12.832116 -1.89461,0 c -1.04205,0 -2.03285,-0.360223 -2.2018,-0.800496 z m -0.39115,-33.259465 c -0.58729,-1.288957 -0.51385,-1.777558 0.42276,-2.8125 1.94172,-2.145578 4.6898,-1.231489 4.6898,1.559961 0,3.003021 -3.88169,3.954006 -5.11256,1.252539 z"
       id="path3609"
       inkscape:connector-curvature="0" />
    <path
       style="fill:#5ba8dd"
       d="M 80.15625,63.961075 C 79.726562,63.787694 79.375,62.966144 79.375,62.135417 c 0,-1.234686 0.3169,-1.510417 1.735931,-1.510417 2.605325,0 4.200231,-1.459446 5.73955,-5.252084 l 1.388125,-3.420128 -2.183637,-5.820144 C 84.853969,42.931565 82.719031,37.424035 81.310663,33.893689 79.9023,30.363342 78.75,27.19928 78.75,26.862439 78.75,26.525597 79.5983,26.25 80.635112,26.25 c 2.2209,0 2.440025,0.403448 6.279957,11.5625 1.41945,4.125 2.808812,7.741132 3.087475,8.035849 0.692887,0.732812 1.3011,-0.544961 4.724143,-9.924809 1.628007,-4.461072 3.233694,-8.462603 3.568194,-8.89229 0.789957,-1.014766 3.580119,-1.014605 3.580119,2.06e-4 0,1.26869 -11.698756,30.34833 -13.160938,32.714188 -1.888631,3.055868 -6.185775,5.172568 -8.557812,4.215431 z m 25.23609,-1.165881 c -0.504,-1.3134 -0.51601,-34.245675 -0.013,-35.556577 0.62962,-1.640755 3.31262,-1.222583 4.01538,0.625837 l 0.61382,1.614454 1.91889,-1.614636 c 2.40769,-2.025939 4.17129,-2.472897 8.2218,-2.083695 2.74425,0.263689 3.54107,0.666813 5.52764,2.79653 4.25435,4.56088 4.61116,13.234427 0.78715,19.134379 -3.01641,4.653933 -10.3469,6.148692 -14.62879,2.982955 -0.98152,-0.725693 -1.92742,-1.319441 -2.10196,-1.319441 -0.17453,0 -0.39686,3.164062 -0.49405,7.03125 l -0.17672,7.03125 -1.63891,0.190063 c -1.06793,0.123843 -1.7756,-0.166144 -2.03125,-0.832369 z m 15.65573,-14.997671 c 2.42873,-1.591365 3.56673,-4.569132 3.57707,-9.360023 0.0106,-4.903276 -1.06711,-7.233272 -4.06191,-8.781945 -3.78407,-1.956814 -8.63737,-0.175776 -10.28834,3.775556 -1.35773,3.249498 -1.16705,9.560524 0.36475,12.072986 2.22171,3.644023 6.80565,4.654062 10.40843,2.293426 z m 104.87589,15.205071 c -0.17541,-0.457119 -0.24412,-8.843143 -0.1527,-18.63561 l 0.16624,-17.804484 1.76523,-0.202249 c 1.35543,-0.155296 1.84391,0.09862 2.10414,1.09375 0.42817,1.637294 0.85642,1.624901 3.03375,-0.08779 2.70269,-2.125933 8.64074,-2.323966 11.53438,-0.38467 3.30036,2.211876 5.00219,6.111173 4.98953,11.432139 -0.0208,8.748986 -5.05032,14.550123 -12.06087,13.911286 -1.72757,-0.157425 -3.77945,-0.843906 -4.81845,-1.612075 -0.99528,-0.73584 -1.9524,-1.337892 -2.12694,-1.337892 -0.17453,0 -0.39686,3.164062 -0.49405,7.03125 l -0.17672,7.03125 -1.72231,0.198106 c -1.01239,0.11645 -1.85375,-0.144469 -2.04123,-0.633012 z m 15.73178,-15.308659 c 3.31282,-2.17064 4.74069,-10.742223 2.50324,-15.027106 -2.02461,-3.877271 -6.74112,-5.000461 -10.4637,-2.49182 -2.95707,1.992775 -3.67547,3.799835 -3.68607,9.271954 -0.008,3.942878 0.22296,5.054629 1.34403,6.479831 2.60642,3.313522 6.83537,4.038894 10.3025,1.767141 z M 139.6875,52.088149 c -0.6875,-0.187273 -2.19468,-1.052631 -3.34928,-1.923018 -6.82405,-5.144249 -5.74086,-19.102055 1.79556,-23.137354 3.47959,-1.863111 8.99453,-1.749905 11.71837,0.240545 2.43308,1.777986 4.15892,5.609182 4.18675,9.294178 l 0.0236,3.125 -8.75,0.3125 -8.75,0.3125 -0.18476,1.584013 c -0.29445,2.524393 2.30688,5.783674 5.40354,6.770261 2.40179,0.765205 3.06807,0.727485 6.39034,-0.361783 2.03994,-0.668832 3.84835,-1.076694 4.01868,-0.906359 0.91382,0.913813 0.0806,2.687745 -1.6933,3.605064 -2.03539,1.052539 -8.53342,1.704449 -10.8095,1.084453 z m 10.0697,-16.731904 c 0.18863,-0.491566 -0.115,-1.858846 -0.67474,-3.038402 -1.81681,-3.828648 -6.36645,-4.720706 -9.71331,-1.90451 -2.04881,1.723958 -3.38969,4.268285 -2.77424,5.264114 0.19463,0.314904 3.15859,0.572553 6.58659,0.572553 4.82807,0 6.31002,-0.201425 6.5757,-0.893755 z m 11.92159,16.548183 c -2.54632,-0.821931 -3.55379,-1.84713 -3.55379,-3.616317 0,-1.304177 0.22973,-1.50134 1.40625,-1.2069 0.77344,0.193563 2.72531,0.691747 4.33749,1.107075 1.9846,0.511271 3.80118,0.572527 5.625,0.189678 2.24117,-0.470459 2.88231,-0.95116 3.816,-2.861104 1.01558,-2.077474 1.03511,-2.504165 0.20545,-4.489823 -0.56542,-1.353224 -1.9537,-2.847602 -3.62224,-3.899052 -8.13497,-5.12634 -9.41558,-6.090083 -10.53753,-7.930173 -3.9876,-6.539945 1.75541,-14.212197 10.62076,-14.188598 4.44385,0.01183 6.52431,1.043734 6.79203,3.368833 0.19258,1.672656 0.093,1.759744 -1.5625,1.365697 -6.96743,-1.658455 -11.27548,-0.696625 -12.74244,2.844921 -1.27286,3.072974 0.30697,5.443599 5.75648,8.637917 5.20959,3.053687 7.74639,5.20395 9.02355,7.64863 1.98637,3.802227 0.26604,9.78189 -3.43585,11.942572 -2.22974,1.301432 -9.45722,1.948964 -12.12866,1.086644 z m 26.87358,-0.271857 c -2.97838,-1.109775 -4.61718,-2.571629 -6.0667,-5.411642 -2.83787,-5.560213 -2.05888,-11.899696 2.03354,-16.548923 2.65386,-3.01495 5.17625,-4.037812 9.97135,-4.04352 4.27563,-0.0051 6.13444,0.863463 6.13444,2.866405 0,1.48847 -0.16904,1.608545 -1.71875,1.220878 -4.3079,-1.077637 -5.95313,-1.078106 -8.33867,-0.0024 -3.65702,1.64909 -5.26301,4.634364 -5.22132,9.705607 0.0419,5.094237 1.52591,7.499158 5.58391,9.048923 2.56237,0.978575 3.03005,0.986042 5.74649,0.09176 3.07653,-1.012834 3.94834,-0.915052 3.94834,0.442839 0,2.763863 -7.39178,4.374181 -12.07263,2.630053 z m 69.88513,0.276581 c -0.6875,-0.281388 -1.8125,-1.135945 -2.5,-1.899016 -1.09932,-1.220157 -1.28767,-2.528129 -1.5625,-10.850504 l -0.3125,-9.463105 -1.875,-0.323151 c -1.34335,-0.231523 -1.875,-0.674105 -1.875,-1.560876 0,-0.887057 0.53122,-1.328913 1.875,-1.559586 1.73911,-0.298535 1.88879,-0.536525 2.06534,-3.283643 0.1421,-2.211152 0.51088,-3.133327 1.45509,-3.638654 2.13415,-1.142158 2.95943,-0.283355 3.16453,3.29305 l 0.19004,3.313833 2.8125,0.3125 c 2.29167,0.254629 2.8125,0.543981 2.8125,1.5625 0,1.018519 -0.52083,1.307871 -2.8125,1.5625 l -2.8125,0.3125 -0.17444,8.28835 c -0.20235,9.614187 0.15736,10.77415 3.34105,10.77415 1.45116,0 2.31761,0.345251 2.57955,1.02788 0.80026,2.08544 -3.20753,3.426121 -6.37116,2.131272 z M 71.561856,51.135607 C 71.393531,50.682898 71.184194,43.421875 71.096656,35 L 70.9375,19.6875 l -5,-0.3125 c -4.833333,-0.302083 -5,-0.364583 -5,-1.875 l 0,-1.5625 12.5,0 12.5,0 0,1.5625 c 0,1.510417 -0.166669,1.572917 -5,1.875 l -5,0.3125 -0.3125,15.9375 -0.3125,15.9375 -1.722306,0.198107 c -1.008338,0.115983 -1.849169,-0.143105 -2.028338,-0.625 z m 131.858554,-0.01727 c -0.1782,-0.464382 -0.24725,-6.179421 -0.15345,-12.700085 l 0.17054,-11.855753 1.5625,0 c 1.14452,0 1.61592,0.376175 1.76222,1.40625 0.25755,1.813451 0.4593,1.780243 3.06064,-0.503754 2.88138,-2.529885 6.01021,-2.435088 6.3124,0.191254 0.18363,1.59583 0.0354,1.71875 -2.07234,1.71875 -5.44929,0 -6.7597,2.508509 -7.18283,13.75 -0.30747,8.168742 -0.36247,8.443873 -1.72663,8.637586 -0.77498,0.110047 -1.55485,-0.179864 -1.73305,-0.644247 z m 16.39762,0.366358 C 219.57436,51.241031 219.375,45.444861 219.375,38.604319 l 0,-12.437347 1.71875,0.197764 1.71875,0.197764 0,12.5 c 0,12.107691 -0.0401,12.505731 -1.27572,12.682614 -0.70164,0.100438 -1.47508,-0.01675 -1.71875,-0.260417 z m 0.0257,-32.784758 C 217.81221,17.516677 219.05487,13.75 221.47677,13.75 c 0.65296,0 2.27323,2.004637 2.27323,2.8125 0,0.887871 -1.65729,2.826257 -2.38839,2.793494 -0.23326,-0.01045 -0.9163,-0.305678 -1.51786,-0.656056 z"
       id="path3607"
       inkscape:connector-curvature="0" />
    <path
       style="fill:#2d8fd3"
       d="m 79.764906,62.788844 c -0.225894,-0.588675 0.05094,-1.095803 0.714381,-1.308587 4.252413,-1.363903 4.719851,-1.765466 6.511263,-5.593624 l 1.821056,-3.891509 -3.121975,-8.028812 c -1.717087,-4.415847 -3.840318,-9.839953 -4.7183,-12.053571 -1.979187,-4.990041 -1.977168,-5.16634 0.05637,-4.923005 1.751838,0.209623 2.227369,1.256572 6.831969,15.041514 0.940381,2.815254 1.967438,4.84375 2.452444,4.84375 0.458969,0 1.277625,-1.195313 1.819244,-2.65625 0.541618,-1.460938 2.182068,-5.890625 3.64545,-9.84375 2.221525,-6.001159 2.8928,-7.220465 4.066931,-7.387219 0.805506,-0.114399 1.406256,0.129251 1.406256,0.570335 0,1.35581 -11.401987,29.537934 -12.955087,32.020901 -2.141319,3.423358 -7.652288,5.497127 -8.530007,3.209827 z M 105.625,45 l 0,-18.125 1.5625,0 c 1.13,0 1.5625,0.335792 1.5625,1.213114 0,2.039404 1.18501,2.098443 3.38303,0.168549 4.0023,-3.514063 9.93573,-3.149013 13.42584,0.826016 2.31999,2.642309 2.86994,4.431849 2.87487,9.354821 0.008,8.050643 -3.67085,12.842241 -10.2136,13.302688 -3.01809,0.212398 -3.88028,0.01123 -5.91936,-1.381116 -1.3127,-0.896349 -2.64864,-1.467855 -2.96875,-1.270013 -0.32012,0.197842 -0.58203,3.436863 -0.58203,7.197827 l 0,6.838114 -1.5625,0 -1.5625,0 0,-18.125 z m 15.36253,3.196451 c 2.66194,-1.623257 4.16529,-5.09909 4.19888,-9.708135 0.033,-4.527564 -1.25965,-7.392734 -4.123,-9.138619 -2.54119,-1.549451 -4.24197,-1.541629 -7.3299,0.03371 -3.3816,1.725168 -4.98351,4.999613 -4.98351,10.186764 0,3.123559 0.31083,4.456218 1.42501,6.109543 2.52942,3.753396 7.05652,4.807132 10.81252,2.516734 z M 226.25,45 l 0,-18.125 1.5625,0 c 1.09849,0 1.5625,0.340277 1.5625,1.145833 0,1.910933 0.68246,1.998955 2.82544,0.36442 5.74252,-4.380029 13.06551,-2.821105 15.63492,3.328373 1.4111,3.377209 1.19735,10.823546 -0.40875,14.240383 -1.97592,4.203594 -4.33245,5.608491 -9.40751,5.608491 -3.51754,0 -4.413,-0.229795 -5.73498,-1.471731 -0.86162,-0.809451 -1.86866,-1.28504 -2.23785,-1.056864 -0.41218,0.254738 -0.67127,3.054206 -0.67127,7.252981 l 0,6.838114 -1.5625,0 -1.5625,0 0,-18.125 z m 14.96703,3.454549 c 3.97855,-2.057388 5.82512,-11.087198 3.26466,-15.9643 -2.34207,-4.461103 -7.95988,-5.465968 -11.92157,-2.132426 -2.47726,2.084476 -3.37053,5.107241 -3.07176,10.394639 0.2332,4.1271 0.38547,4.514349 2.55812,6.505431 1.83314,1.679946 2.8347,2.117107 4.85038,2.117107 1.39712,0 3.3412,-0.414203 4.32017,-0.920451 z M 138.76285,51.177478 C 134.60866,49.520006 132.5,45.515806 132.5,39.284726 c 0,-7.406217 2.63525,-11.388194 8.59948,-12.994195 3.01726,-0.812464 7.12636,-0.03228 9.14504,1.736361 1.80865,1.58462 3.47648,5.736275 3.49175,8.691858 l 0.0137,2.65625 -8.07388,0 c -4.44064,0 -8.51876,0.170716 -9.0625,0.379368 -2.19873,0.843731 -0.27203,6.432858 2.88002,8.35461 2.4593,1.499398 7.53777,1.66824 9.88136,0.328522 2.17119,-1.241164 2.61762,-1.153505 2.38722,0.46875 -0.13725,0.966336 -0.88403,1.639611 -2.38722,2.152224 -2.64871,0.903254 -8.48258,0.968674 -10.61215,0.119003 z m 11.21226,-15.209985 c 0.94128,-1.134172 0.39483,-2.931942 -1.61847,-5.324612 -2.88062,-3.423413 -7.67489,-2.983367 -10.80145,0.991418 -1.27855,1.625405 -1.71539,3.997165 -0.88852,4.824034 0.22916,0.229167 3.14785,0.416667 6.48597,0.416667 4.54332,0 6.25867,-0.228172 6.82247,-0.907508 z m 10.80614,15.208269 C 159.10927,50.692996 158.75,50.277943 158.75,48.829134 l 0,-1.760127 3.56767,1.204441 c 6.81844,2.301888 12.05733,0.05635 12.05733,-5.168116 0,-3.193633 -1.59757,-4.928399 -7.94931,-8.632 -5.87593,-3.426158 -7.67569,-5.759922 -7.67569,-9.953123 0,-5.61351 4.19377,-8.895209 11.36742,-8.895209 4.31459,0 6.13258,0.769237 6.13258,2.594851 0,1.0989 -0.26685,1.23911 -1.71875,0.903075 -6.83629,-1.58222 -10.54197,-0.64412 -12.32864,3.12102 -1.50426,3.169981 -0.17313,5.772556 4.32651,8.459019 8.87538,5.29896 10.9645,7.641065 10.96854,12.296823 0.003,3.78569 -1.46824,6.252189 -4.57036,7.6606 -2.83839,1.288671 -8.61847,1.533928 -12.14605,0.515375 z m 28.07497,0.251599 c -2.17652,-0.414613 -5.96958,-4.54728 -6.83997,-7.452374 -2.45109,-8.181018 1.67233,-16.017515 9.32984,-17.73119 4.38044,-0.9803 8.65391,-0.0034 8.65391,1.978187 0,1.054085 -0.26496,1.220052 -1.40625,0.880837 -3.8623,-1.14796 -5.81487,-1.055308 -8.54534,0.405486 -3.60985,1.931257 -5.35621,5.186447 -5.29334,9.866693 0.0902,6.710625 3.57709,10.266042 9.61993,9.808852 1.89062,-0.143042 3.95821,-0.480838 4.59464,-0.750657 1.83206,-0.77672 1.03978,1.679433 -0.85018,2.635643 -1.49543,0.756604 -6.21467,0.939257 -9.26324,0.358523 z m 68.87133,-0.267995 C 255.47662,50.043546 255,47.891812 255,38.845592 255,29.73723 254.71275,28.75 252.0625,28.75 c -2.14512,0 -1.7352,-1.528861 0.59375,-2.214502 1.8749,-0.551968 2.05531,-0.83854 2.34375,-3.722998 0.26508,-2.650776 0.5259,-3.155308 1.71875,-3.324719 1.29856,-0.184425 1.40625,0.04124 1.40625,2.94676 0,3.513841 0.90438,4.440459 4.33391,4.440459 1.28653,0 1.91609,0.308032 1.91609,0.9375 0,0.668859 -0.68056,0.9375 -2.375,0.9375 -1.30625,0 -2.7125,0.3375 -3.125,0.75 -0.50814,0.508146 -0.75,3.430556 -0.75,9.0625 0,7.479167 0.12531,8.437813 1.25,9.5625 0.7077,0.707699 2.08333,1.25 3.17083,1.25 1.49173,0 1.87448,0.244336 1.71336,1.09375 -0.24689,1.301554 -4.41101,1.741843 -6.53164,0.690616 z M 71.875,35.75 c 0,-11.222223 -0.206987,-15.706989 -0.75,-16.25 -0.44635,-0.446347 -2.597225,-0.75 -5.3125,-0.75 -4.145833,0 -4.5625,-0.114155 -4.5625,-1.25 0,-1.207265 0.416667,-1.25 12.1875,-1.25 11.770831,0 12.1875,0.04274 12.1875,1.25 0,1.135845 -0.416669,1.25 -4.5625,1.25 -2.715275,0 -4.86615,0.303653 -5.3125,0.75 C 75.206987,20.043011 75,24.527777 75,35.75 l 0,15.5 -1.5625,0 -1.5625,0 0,-15.5 z m 131.875,3.3125 c 0,-11.631278 0.0552,-12.1875 1.20849,-12.1875 0.8439,0 1.26815,0.503981 1.40625,1.670551 0.2607,2.202188 1.33579,2.477916 2.34065,0.600309 1.50326,-2.808876 6.91961,-4.097178 6.91961,-1.64586 0,0.946403 -0.41744,1.250568 -1.71875,1.252336 -0.94531,0.0013 -2.59769,0.53829 -3.67194,1.193345 -2.91295,1.77624 -3.98431,5.602126 -3.98431,14.228156 0,6.659496 -0.0736,7.076163 -1.25,7.076163 -1.20726,0 -1.25,-0.416667 -1.25,-12.1875 z m 15.90291,11.385239 c -0.16932,-0.441244 -0.2308,-5.855307 -0.13664,-12.03125 0.16942,-11.109938 0.18614,-11.231107 1.57748,-11.428708 l 1.40625,-0.19972 0,12.23097 c 0,11.877292 -0.0367,12.230969 -1.26961,12.230969 -0.6983,0 -1.40816,-0.361018 -1.57748,-0.802261 z m 0.16512,-32.088042 c -0.66423,-0.664232 -0.5333,-3.230137 0.18756,-3.675654 0.34683,-0.21435 1.20693,-0.206806 1.91134,0.01676 1.75198,0.556056 1.45119,3.657156 -0.38015,3.919306 -0.70164,0.100437 -1.47508,-0.01675 -1.71875,-0.260417 z"
       id="path3605"
       inkscape:connector-curvature="0" />
    <path
       style="fill:#1884cf"
       d="m 80.634775,63.131044 c -1.110306,-0.686208 -0.212381,-1.877032 1.433363,-1.900921 0.753149,-0.01093 1.848693,-0.384098 2.434537,-0.829257 C 85.837531,59.386567 88.75,53.662722 88.75,52.053642 c 0,-0.661278 -1.964994,-6.245432 -4.36665,-12.409233 -2.401656,-6.1638 -4.370406,-11.558472 -4.375,-11.988159 -0.01337,-1.249539 1.758194,-0.901726 2.503875,0.491591 0.374662,0.700062 1.909569,4.8485 3.410906,9.21875 1.501344,4.37025 2.927582,8.451903 3.169431,9.070341 1.005444,2.571063 2.381651,0.485475 5.879519,-8.910176 3.196063,-8.584961 4.891057,-11.621955 5.914939,-10.598065 0.35678,0.356776 -9.941989,26.923448 -11.972339,30.883809 -0.704919,1.375 -1.803787,2.952361 -2.441925,3.505247 -1.60275,1.388622 -4.878719,2.406153 -5.837981,1.813297 z M 106.25,45 c 0,-17.011943 0.0723,-18.202869 1.09375,-18.008193 0.60156,0.114654 1.18363,0.838402 1.29347,1.608328 0.26754,1.875209 1.84012,1.775194 3.95561,-0.251573 3.38218,-3.240335 10.93651,-2.424089 13.47912,1.456419 1.81202,2.76549 2.67633,8.12011 1.91922,11.89004 -0.89833,4.473092 -2.6833,7.042923 -6.12121,8.812733 -3.31017,1.704045 -6.73097,1.542158 -9.41982,-0.445788 -3.24965,-2.402575 -3.36106,-2.235289 -3.70014,5.556173 -0.26962,6.195303 -0.46259,7.209311 -1.40625,7.38958 C 106.32232,63.202837 106.25,62.012124 106.25,45 Z m 15.32331,3.487893 c 2.63278,-1.725069 3.67493,-4.549316 3.7086,-10.050393 0.0239,-3.915051 -0.22688,-5.379883 -1.15597,-6.750695 -3.47684,-5.129843 -11.3211,-4.684749 -14.11981,0.801176 -1.76162,3.453055 -1.75706,10.745227 0.008,13.641116 2.25822,3.70391 7.78456,4.83168 11.55866,2.358796 z M 226.53257,62.33488 c -0.16676,-0.434566 -0.22825,-8.516767 -0.13663,-17.960446 0.1483,-15.287822 0.27818,-17.191795 1.18471,-17.366148 0.6552,-0.126017 1.16074,0.372315 1.41816,1.397946 0.50794,2.023821 1.17328,2.002837 3.96299,-0.124982 1.90252,-1.451119 2.86138,-1.71875 6.15794,-1.71875 3.29611,0 4.16873,0.243484 5.59985,1.5625 6.28705,5.794542 5.01077,18.665421 -2.21959,22.383953 -3.52563,1.813213 -7.35897,1.496738 -10.13183,-0.836473 -3.01269,-2.535011 -3.61817,-1.421496 -3.61817,6.654048 0,5.688344 -0.15629,6.798472 -0.95711,6.798472 -0.52642,0 -1.09356,-0.355556 -1.26032,-0.79012 z m 15.77575,-14.314897 c 2.64375,-2.469308 3.54703,-4.880624 3.58959,-9.582483 0.062,-6.852574 -2.71625,-10.315771 -8.27107,-10.310164 -2.95283,0.003 -6.01678,1.868975 -7.39107,4.501275 -1.60908,3.082042 -1.51142,11.191472 0.16227,13.474381 2.92148,3.984879 8.70045,4.915019 11.91028,1.916991 z M 139.7527,51.225981 c -8.29815,-2.4832 -9.82533,-17.29328 -2.36965,-22.98001 1.8937,-1.444395 2.80735,-1.683471 6.43351,-1.683471 3.81583,0 4.41085,0.176756 6.1257,1.819676 2.03686,1.951443 4.02669,6.935324 3.69687,9.25948 -0.19759,1.392387 -0.38001,1.424317 -9.10788,1.594255 l -8.90625,0.17341 0,2.252818 c 0,3.171506 2.03306,6.140303 5.02465,7.3373 3.11113,1.244829 4.71921,1.255997 8.11926,0.05639 2.89363,-1.020933 3.70773,-0.846344 2.55125,0.547131 -1.5179,1.828964 -7.89105,2.723178 -11.56746,1.623023 z m 10.47744,-17.13209 c -0.23552,-7.059172 -10.55817,-8.065969 -13.76438,-1.342477 -1.8194,3.815335 -1.18286,4.188437 6.80377,3.987915 l 7.04297,-0.176829 -0.0824,-2.468609 z m 11.8582,17.097477 c -2.42778,-0.576644 -3.74564,-1.901703 -3.03499,-3.051568 0.16908,-0.273569 1.3653,-0.119908 2.65828,0.341468 2.95308,1.053756 7.72236,1.124825 9.86833,0.147054 1.83326,-0.835288 3.42125,-3.450503 3.4177,-5.628534 -0.004,-2.448196 -2.32774,-5.407772 -5.66189,-7.211048 -8.21349,-4.44228 -10.83464,-7.45514 -10.37895,-11.929996 0.51589,-5.065947 6.04385,-8.69299 12.32857,-8.089108 3.20554,0.308013 5.45365,1.683452 4.71225,2.88306 -0.27557,0.445878 -0.99185,0.441424 -2.29912,-0.01429 -1.04436,-0.364068 -3.47602,-0.531151 -5.40368,-0.371295 -2.9588,0.245368 -3.78057,0.599267 -5.27483,2.271631 -3.50212,3.919554 -2.02207,7.335241 4.98347,11.500899 5.30071,3.151927 8.59668,6.335219 9.24851,8.93232 0.85529,3.407704 -1.08503,7.767488 -4.16597,9.360702 -2.30831,1.193672 -7.78654,1.621418 -10.99768,0.85871 z m 26.97416,-0.248996 c -5.3999,-1.895929 -8.60592,-8.374421 -7.13982,-14.427643 1.57465,-6.501438 4.90881,-9.5373 11.06179,-10.072118 3.86342,-0.335809 7.29185,0.58879 6.83195,1.842485 -0.15684,0.427572 -0.67189,0.653381 -1.14455,0.501798 -0.47265,-0.151583 -2.26562,-0.383413 -3.98437,-0.515177 -2.49891,-0.191573 -3.55176,0.05147 -5.25503,1.213106 -3.32306,2.266316 -4.49746,4.299711 -4.87258,8.436504 -0.4996,5.509779 1.24368,9.175015 5.19526,10.92299 2.84578,1.25882 5.75177,1.331383 8.5261,0.212899 0.76269,-0.307484 1.09375,-0.145839 1.09375,0.534038 0,0.594275 -0.91519,1.229152 -2.34375,1.625883 -3.07806,0.854819 -4.93376,0.790834 -7.96875,-0.274765 z m 69.31229,0.04016 c -1.06575,-0.463944 -2.1777,-1.366999 -2.471,-2.006786 -0.29332,-0.639788 -0.68697,-5.37997 -0.87479,-10.533738 l -0.3415,-9.370484 -1.83956,-0.317013 c -2.36858,-0.408178 -2.36858,-1.47622 0,-1.882738 1.69777,-0.291389 1.85423,-0.544015 2.0299,-3.277505 0.13987,-2.176423 0.51522,-3.135649 1.41552,-3.617479 1.46169,-0.782271 1.71247,-0.301428 1.96786,3.773208 l 0.17628,2.8125 2.8125,0.3125 c 1.54687,0.171875 2.8125,0.59375 2.8125,0.9375 0,0.34375 -1.26563,0.765625 -2.8125,0.9375 l -2.8125,0.3125 -0.17999,8.4375 c -0.099,4.640625 -0.0354,9.022095 0.14126,9.736601 0.34867,1.409962 2.71634,2.75158 4.91189,2.783276 1.34516,0.01942 1.34892,0.04099 0.16363,0.9375 -1.47906,1.118709 -2.57506,1.124116 -5.0995,0.02516 z M 72.188519,50.514942 C 72.019281,50.059849 71.809194,42.796875 71.721656,34.375 L 71.5625,19.0625 l -5,-0.3125 c -3.888887,-0.243056 -5,-0.520833 -5,-1.25 0,-0.800439 1.736113,-0.9375 11.875,-0.9375 10.138887,0 11.875,0.137061 11.875,0.9375 0,0.729167 -1.111113,1.006944 -5,1.25 l -5,0.3125 L 75,34.991963 c -0.285256,14.540588 -0.408025,15.947815 -1.408138,16.139941 -0.602606,0.115763 -1.234106,-0.16187 -1.403343,-0.616962 z m 131.859341,-0.01523 c -0.18029,-0.46983 -0.25075,-5.90728 -0.15659,-12.083224 C 204.03596,28.927931 204.20781,27.1875 205,27.1875 c 0.5257,0 1.03244,0.686338 1.15364,1.5625 0.11887,0.859375 0.5019,1.910481 0.85117,2.335791 0.35997,0.43834 0.41635,1.250495 0.13017,1.875 -0.27767,0.60594 -0.6607,4.876033 -0.85117,9.489095 -0.24347,5.896535 -0.57822,8.464107 -1.12723,8.645724 -0.4295,0.142086 -0.92843,-0.126068 -1.10872,-0.595898 z m 16.25,0 c -0.18029,-0.46983 -0.25075,-5.90728 -0.15659,-12.083224 0.14469,-9.488556 0.31654,-11.228987 1.10873,-11.228987 0.80029,0 0.9375,1.730324 0.9375,11.822917 0,8.900123 -0.19306,11.887268 -0.78092,12.083224 -0.4295,0.143168 -0.92843,-0.124099 -1.10872,-0.593929 z m -11.0091,-21.588569 c 0.80369,-1.501714 4.05846,-2.949438 5.43949,-2.419489 1.70429,0.653997 0.60449,1.929191 -1.96663,2.280257 -1.34701,0.183926 -2.82874,0.569429 -3.29273,0.856673 -0.67365,0.417048 -0.70993,0.272511 -0.18013,-0.717441 z m 10.31296,-11.721818 c -0.21598,-0.56284 -0.10398,-1.312067 0.2489,-1.664948 1.01882,-1.018815 2.96188,-0.332165 2.96188,1.046683 0,1.589794 -2.6427,2.09867 -3.21078,0.618265 z"
       id="path3603"
       inkscape:connector-curvature="0" />
    <path
       style="fill:#0279cb"
       d="m 80.625,62.5 c 0,-0.34375 0.540919,-0.625 1.202044,-0.625 2.016281,0 4.820269,-2.921705 6.297856,-6.562259 L 89.526788,51.858712 87.52535,46.710606 C 86.424556,43.879148 84.306819,38.46875 82.819262,34.6875 c -1.490418,-3.788526 -2.425231,-6.976713 -2.082268,-7.101563 1.12405,-0.409182 1.700975,0.782832 4.958506,10.244964 3.595519,10.4439 4.096881,11.405713 5.300887,10.169217 0.668069,-0.686097 6.083994,-14.62679 7.417926,-19.093868 C 98.645269,28.132813 99.26725,27.5 99.796488,27.5 c 0.529242,0 0.821812,0.351563 0.650172,0.78125 -0.624029,1.562203 -7.489754,19.029684 -9.294854,23.647584 -2.438381,6.237967 -3.837443,8.446673 -6.302343,9.949542 C 82.659306,63.213731 80.625,63.513075 80.625,62.5 Z M 106.25,45 c 0,-15.138889 0.12649,-17.5 0.9375,-17.5 0.51563,0 0.9375,0.548524 0.9375,1.218944 0,0.670419 0.43027,1.459734 0.95615,1.754033 0.85821,0.480274 0.85821,0.769515 0,2.823482 -1.37129,3.281977 -1.23734,9.327154 0.27224,12.286195 1.2212,2.39374 1.2212,2.409739 0,2.729088 -1.12807,0.294998 -1.22839,0.887507 -1.22839,7.254745 0,5.746456 -0.16051,6.933513 -0.9375,6.933513 -0.81101,0 -0.9375,-2.361111 -0.9375,-17.5 z m 120.625,0 c 0,-15.138889 0.12649,-17.5 0.9375,-17.5 0.57216,0 0.9375,0.582848 0.9375,1.495632 0,0.822597 0.41178,1.653649 0.91507,1.84678 0.80238,0.3079 0.80285,0.566303 0.004,2.098118 -1.20318,2.306699 -1.19108,10.568394 0.0186,12.68447 1.15068,2.012908 1.15068,2.5 0,2.5 -0.77899,0 -0.9375,1.215277 -0.9375,7.1875 0,5.972222 -0.15852,7.1875 -0.9375,7.1875 -0.81102,0 -0.9375,-2.361111 -0.9375,-17.5 z m -112.90479,5.629182 c -2.4294,-0.980206 -2.12803,-1.744283 0.3511,-0.890154 4.09223,1.40989 8.09646,-0.283082 10.1495,-4.291175 1.84615,-3.604185 1.94616,-10.497522 0.19552,-13.476085 -2.107,-3.584864 -7.25105,-5.433949 -10.48867,-3.770264 -1.05874,0.544043 -1.20695,0.533138 -0.66032,-0.04859 1.16087,-1.235407 5.09706,-1.839601 7.55794,-1.160121 5.34274,1.475203 7.9722,7.590135 6.41636,14.921567 -0.92323,4.350473 -2.94471,7.191438 -6.03613,8.483118 -2.27919,0.952303 -5.45563,1.050625 -7.4853,0.231698 z m 25.71729,0.211868 c -1.83347,-0.495177 -4.71491,-3.357793 -5.70198,-5.664726 -1.38996,-3.248566 -1.09803,-10.037509 0.55601,-12.930063 5.36089,-9.375016 18.58347,-6.318194 18.58347,4.296165 l 0,2.207574 -8.28125,0.0096 c -4.55469,0.0053 -8.67418,0.258366 -9.15443,0.562449 -1.16657,0.738653 -0.55896,4.417586 1.19953,7.26289 1.03764,1.678936 2.05926,2.369457 4.59715,3.107241 2.89076,0.840368 3.61272,0.84335 6.32811,0.02614 3.36315,-1.01216 4.33702,-0.869542 2.12955,0.311862 -1.5386,0.823435 -8.24613,1.353762 -10.25616,0.810898 z m 10.98022,-14.330021 c 0.67955,-0.818811 0.66584,-1.433638 -0.0797,-3.573376 C 149.52374,29.883262 146.39035,27.5 143.43885,27.5 c -4.35874,0 -9.93726,6.503945 -7.79378,9.086689 1.14092,1.374726 13.87215,1.310606 15.02265,-0.07566 z m 10.90241,14.228112 c -1.11784,-0.261161 -1.95859,-0.909955 -2.09464,-1.6164 -0.18008,-0.9351 0.013,-1.080849 0.92987,-0.701972 4.44381,1.836274 9.85792,1.871587 12.24426,0.07986 0.59792,-0.448931 1.52785,-1.871068 2.06654,-3.160307 0.93175,-2.230005 0.90926,-2.483098 -0.46213,-5.201206 -1.18394,-2.346592 -2.2233,-3.28829 -5.81653,-5.269973 -2.40625,-1.327059 -5.42969,-3.517114 -6.71875,-4.866789 -1.94144,-2.032727 -2.34375,-2.901394 -2.34375,-5.060633 0,-5.442118 4.07486,-8.691723 10.89903,-8.691723 4.00425,0 5.35097,0.426905 5.35097,1.696236 0,0.651793 -0.33333,0.797022 -1.09375,0.476543 -0.60156,-0.253526 -2.5,-0.580442 -4.21875,-0.726479 -3.98393,-0.338504 -7.05836,1.166376 -8.71896,4.267781 -1.17827,2.20059 -1.1821,2.358332 -0.11457,4.725681 0.85047,1.886012 2.13662,3.078145 5.59396,5.185068 5.84018,3.559036 7.3529,4.736548 8.69054,6.764784 2.21006,3.351039 1.0207,8.797592 -2.41231,11.046987 -1.85725,1.216918 -8.52691,1.812798 -11.78103,1.05254 z m 26.83638,-0.328986 c -4.2625,-1.94447 -7.0097,-7.535957 -6.28834,-12.798901 0.81925,-5.977035 4.0696,-9.670331 9.38437,-10.663238 3.72557,-0.696012 8.91766,0.340115 7.71765,1.540122 -0.19972,0.199725 -0.93123,0.0591 -1.62557,-0.3125 -3.03066,-1.621959 -8.64331,0.09466 -11.28342,3.451017 -2.85548,3.63015 -3.15234,10.273741 -0.64199,14.367366 2.04039,3.327271 6.9664,4.892407 11.83079,3.758984 1.7065,-0.397621 2.02839,-0.342981 1.46391,0.248492 -1.1054,1.158251 -8.30343,1.436874 -10.5574,0.408658 z m 45.33675,-0.341777 -1.55576,-1.311615 2.36661,0.952055 c 4.84136,1.947621 10.42016,-1.687266 11.4501,-7.460354 1.85388,-10.391566 -3.65222,-16.78196 -11.94171,-13.859574 -0.6875,0.242372 -0.41059,-0.04265 0.61536,-0.633381 2.47236,-1.423573 6.92759,-1.325822 8.9669,0.196742 3.34593,2.498102 4.1552,4.307204 4.36119,9.749364 0.16487,4.356034 -0.0198,5.520872 -1.25,7.886796 -1.92834,3.70841 -4.10305,5.181738 -8.14302,5.516765 -2.71026,0.224755 -3.59732,0.03589 -4.86967,-1.036799 z m 23.41583,-0.352469 c -1.491,-1.491005 -1.53409,-1.794683 -1.53409,-10.8125 0,-9.924623 -0.23626,-10.750437 -3.09375,-10.813685 -1.4038,-0.03108 -1.33303,-0.124186 0.59375,-0.78125 2.02966,-0.692148 2.21005,-0.967962 2.5,-3.822508 0.42658,-4.199622 1.875,-4.61526 1.875,-0.538049 0,3.686636 0.72115,4.519755 4.03125,4.657147 l 2.53125,0.105065 -2.49208,0.254007 c -3.98356,0.406026 -4.07042,0.618705 -4.07042,9.96598 0,10.247117 0.67318,12.038831 4.53125,12.060313 0.94531,0.0053 1.71875,0.290821 1.71875,0.634571 0,0.34375 -1.13778,0.625 -2.52841,0.625 -1.85115,0 -2.93933,-0.410921 -4.0625,-1.534091 z M 72.5,35.125 c 0,-11.222223 -0.206987,-15.706989 -0.75,-16.25 -0.44635,-0.446347 -2.597225,-0.75 -5.3125,-0.75 -2.625,0 -4.5625,-0.265411 -4.5625,-0.625 0,-0.394144 4.270831,-0.625 11.5625,-0.625 7.291669,0 11.5625,0.230856 11.5625,0.625 0,0.359589 -1.9375,0.625 -4.5625,0.625 -2.715275,0 -4.86615,0.303653 -5.3125,0.75 -0.543013,0.543011 -0.75,5.027777 -0.75,16.25 0,13.361111 -0.129369,15.5 -0.9375,15.5 -0.808131,0 -0.9375,-2.138889 -0.9375,-15.5 z m 131.875,3.9375 c 0,-7.291667 0.23086,-11.5625 0.625,-11.5625 0.34375,0 0.625,0.7875 0.625,1.75 0,0.9625 0.31619,2.066191 0.70265,2.452647 0.52019,0.520198 0.52019,1.226027 0,2.718265 -0.38646,1.108589 -0.70265,5.208023 -0.70265,9.109852 0,4.312824 -0.24504,7.094236 -0.625,7.094236 -0.39414,0 -0.625,-4.270833 -0.625,-11.5625 z m 16.25,0 c 0,-7.291667 0.23086,-11.5625 0.625,-11.5625 0.39414,0 0.625,4.270833 0.625,11.5625 0,7.291667 -0.23086,11.5625 -0.625,11.5625 -0.39414,0 -0.625,-4.270833 -0.625,-11.5625 z M 210.90071,27.863522 C 212.24635,26.767088 215,26.522897 215,27.5 c 0,0.34375 -0.68012,0.625 -1.51138,0.625 -0.83126,0 -2.02658,0.163585 -2.65625,0.363522 -1.04764,0.332649 -1.04184,0.279571 0.0683,-0.625 z m 9.30918,-10.718033 c -0.52091,-1.357476 0.80153,-2.634072 1.7481,-1.6875 0.80002,0.800021 0.3044,2.667011 -0.70799,2.667011 -0.36532,0 -0.83338,-0.44078 -1.04011,-0.979511 z"
       id="path3601"
       inkscape:connector-curvature="0" />
  </g>
</svg>
