<?xml version="1.0" encoding="UTF-8" standalone="no"?>
<!-- Created with Inkscape (http://www.inkscape.org/) -->

<svg
   xmlns:dc="http://purl.org/dc/elements/1.1/"
   xmlns:cc="http://creativecommons.org/ns#"
   xmlns:rdf="http://www.w3.org/1999/02/22-rdf-syntax-ns#"
   xmlns:svg="http://www.w3.org/2000/svg"
   xmlns="http://www.w3.org/2000/svg"
   xmlns:xlink="http://www.w3.org/1999/xlink"
   xmlns:sodipodi="http://sodipodi.sourceforge.net/DTD/sodipodi-0.dtd"
   xmlns:inkscape="http://www.inkscape.org/namespaces/inkscape"
   id="svg3505"
   version="1.1"
   inkscape:version="0.91 r13725"
   width="76.875"
   height="76.875"
   viewBox="0 0 76.875 76.875"
   sodipodi:docname="TypescriptS.svg">
  <metadata
     id="metadata3511">
    <rdf:RDF>
      <cc:Work
         rdf:about="">
        <dc:format>image/svg+xml</dc:format>
        <dc:type
           rdf:resource="http://purl.org/dc/dcmitype/StillImage" />
        <dc:title></dc:title>
      </cc:Work>
    </rdf:RDF>
  </metadata>
  <defs
     id="defs3509" />
  <sodipodi:namedview
     pagecolor="#ffffff"
     bordercolor="#666666"
     borderopacity="1"
     objecttolerance="10"
     gridtolerance="10"
     guidetolerance="10"
     inkscape:pageopacity="0"
     inkscape:pageshadow="2"
     inkscape:window-width="640"
     inkscape:window-height="480"
     id="namedview3507"
     showgrid="false"
     inkscape:zoom="3.0699187"
     inkscape:cx="38.4375"
     inkscape:cy="38.4375"
     inkscape:window-x="0"
     inkscape:window-y="0"
     inkscape:window-maximized="0"
     inkscape:current-layer="svg3505" />
  <image
     width="76.875"
     height="76.875"
     preserveAspectRatio="none"
     style="image-rendering:optimizeQuality"
     xlink:href="file:///media/havoc/USB%20DISK/pics/Language%20icons/TypescriptS.png"
     id="image3513"
     x="0"
     y="0"
     sodipodi:absref="/media/havoc/USB DISK/pics/Language icons/TypescriptS.png" />
  <g
     id="g3562">
    <path
       style="fill:#fdfdfd"
       d="M 0,38.4375 0,0 38.4375,0 76.875,0 l 0,38.4375 0,38.4375 -38.4375,0 L 0,76.875 0,38.4375 Z"
       id="path3578"
       inkscape:connector-curvature="0" />
    <path
       style="fill:#e1eef8"
       d="M 8.25,68 C 7.169905,66.919906 7.169905,8.705095 8.25,7.625 c 1.080095,-1.080095 59.294906,-1.080095 60.375,0 1.080094,1.080095 1.080094,59.294906 0,60.375 -1.080094,1.080094 -59.294905,1.080094 -60.375,0 z m 25.5,-16.9375 c 0,-7.090278 0.228016,-10.415516 0.75,-10.9375 0.4125,-0.4125 2.1,-0.75 3.75,-0.75 2.583333,0 3,-0.173611 3,-1.25 0,-1.192529 -0.416667,-1.25 -9.0625,-1.25 -8.645833,0 -9.0625,0.05747 -9.0625,1.25 0,1.076389 0.416667,1.25 3,1.25 1.65,0 3.3375,0.3375 3.75,0.75 0.521984,0.521984 0.75,3.847222 0.75,10.9375 l 0,10.1875 1.5625,0 1.5625,0 0,-10.1875 z m 26.202047,8.569441 c 1.646591,-1.385515 1.922953,-2.04157 1.922953,-4.564895 0,-2.51122 -0.300271,-3.232755 -2.03125,-4.880997 -1.117188,-1.063787 -3.483749,-2.549492 -5.259026,-3.301565 -2.272883,-0.962878 -3.443977,-1.88936 -3.958588,-3.13174 -1.507315,-3.638983 2.175135,-6.241283 5.84855,-4.133032 1.569695,0.900881 1.989639,0.93382 2.71083,0.212629 1.519988,-1.519988 -1.14457,-3.199095 -5.137308,-3.237343 -2.890674,-0.02769 -3.646742,0.221689 -5.112337,1.686252 -1.297424,1.29651 -1.719962,2.326477 -1.719962,4.192537 0,3.135602 2.289524,5.672025 7.113354,7.880447 1.894234,0.867209 3.659507,1.915711 3.922829,2.330005 0.81246,1.278272 0.548342,4.05104 -0.484235,5.083618 -1.430264,1.430264 -5.97575,1.275965 -7.940549,-0.269547 C 48.381914,56.361364 46.25,56.337294 46.25,57.457922 c 0,0.611242 2.592257,2.927466 3.75,3.350685 0.515625,0.18849 2.533109,0.364913 4.483297,0.392051 2.944992,0.04098 3.871624,-0.224824 5.46875,-1.568717 z"
       id="path3576"
       inkscape:connector-curvature="0" />
    <path
       style="fill:#d1e6f4"
       d="M 8.4136406,67.349819 C 8.2476575,66.916794 8.1851231,53.34375 8.2746763,37.1875 L 8.4375,7.8125 l 30,0 30,0 0,30 0,30 -29.861036,0.162319 c -23.555041,0.128043 -29.9247665,-0.0037 -30.1628234,-0.625 z M 34.375,50.9375 34.6875,40.3125 38.125,40 c 3.166667,-0.287879 3.4375,-0.435606 3.4375,-1.875 l 0,-1.5625 -9.375,0 -9.375,0 0,1.5625 c 0,1.439394 0.270833,1.587121 3.4375,1.875 l 3.4375,0.3125 0.161936,10 c 0.08906,5.5 0.298403,10.370398 0.465196,10.823107 0.1777,0.48231 1.016357,0.741083 2.025564,0.625 L 34.0625,61.5625 34.375,50.9375 Z M 58.375891,61.003521 C 61.089209,59.869824 62.5,57.784949 62.5,54.908887 c 0,-3.19543 -2.446527,-5.906756 -7.291279,-8.08045 -4.113955,-1.845806 -5.524626,-3.93729 -4.143975,-6.143923 0.741103,-1.184469 4.434964,-1.684804 5.389728,-0.73004 0.978536,0.978536 2.902659,0.81932 3.322564,-0.274933 0.914615,-2.38345 -4.01197,-4.477027 -8.005072,-3.401797 -4.816494,1.296947 -6.488534,6.734879 -3.2531,10.579974 0.904127,1.074493 3.424335,2.760926 5.600463,3.74763 4.256639,1.930052 5.392659,3.678041 4.036825,6.211439 -0.99306,1.85555 -6.805925,1.895507 -8.468654,0.05821 -1.333552,-1.473558 -1.504737,-1.490404 -3.074613,-0.302563 -1.182816,0.894975 -1.182816,0.926519 0,2.253015 2.588431,2.902852 7.743744,3.857423 11.763004,2.178069 z"
       id="path3574"
       inkscape:connector-curvature="0" />
    <path
       style="fill:#a4ceeb"
       d="M 8.875,67.375 C 7.7952275,66.295225 7.7952275,9.3297725 8.875,8.25 9.9547725,7.1702275 66.920225,7.1702275 68,8.25 c 1.079775,1.0797725 1.079775,58.045225 0,59.125 -1.079775,1.079775 -58.0452275,1.079775 -59.125,0 z m 25.5,-15.6875 c 0,-7.090278 0.228016,-10.415516 0.75,-10.9375 0.4125,-0.4125 2.1,-0.75 3.75,-0.75 2.916667,0 3,-0.05208 3,-1.875 l 0,-1.875 -9.6875,0 -9.6875,0 0,1.875 c 0,1.822917 0.08333,1.875 3,1.875 1.65,0 3.3375,0.3375 3.75,0.75 0.521984,0.521984 0.75,3.847222 0.75,10.9375 l 0,10.1875 2.1875,0 2.1875,0 0,-10.1875 z m 25.01251,9.243531 C 61.745997,59.711409 62.5,58.229283 62.5,54.812875 c 0,-3.704061 -1.732829,-5.793417 -6.656298,-8.025824 -4.306598,-1.952705 -5.653799,-3.556242 -4.616355,-5.494723 0.955966,-1.786239 2.955057,-2.187284 4.818095,-0.966575 1.268744,0.831313 1.923479,0.911236 3.094398,0.377729 3.048087,-1.388801 0.710634,-4.257163 -3.98213,-4.886595 -5.634581,-0.755756 -9.849072,3.57652 -8.349226,8.582564 0.855662,2.855942 2.302545,4.17884 7.150815,6.538049 3.276235,1.594244 3.884626,2.151141 4.063069,3.719179 0.383834,3.372898 -4.339852,4.757513 -7.567912,2.218321 -1.970925,-1.550329 -3.089179,-1.577676 -4.419155,-0.108069 -0.96691,1.068424 -0.942951,1.226935 0.372203,2.462458 0.7731,0.72629 2.108618,1.600843 2.967817,1.943453 2.383738,0.950525 7.967237,0.815674 10.012189,-0.241811 z"
       id="path3572"
       inkscape:connector-curvature="0" />
    <path
       style="fill:#58a7dc"
       d="M 9.0386181,66.724944 C 8.8725713,66.29185 8.8100169,53 8.8996075,37.1875 L 9.0625,8.4375 l 29.375,0 29.375,0 0,29.375 0,29.375 -29.235989,0.162444 c -23.054857,0.128093 -29.2998191,-0.0037 -29.5378929,-0.625 z M 35,51.5625 35.3125,40.9375 38.75,40.625 l 3.4375,-0.3125 0,-2.1875 0,-2.1875 -10,0 -10,0 0,2.1875 0,2.1875 3.4375,0.3125 3.4375,0.3125 0.161936,10 c 0.08906,5.5 0.297741,10.368675 0.463726,10.819277 0.194671,0.528475 1.135491,0.750317 2.650565,0.625 L 34.6875,62.1875 35,51.5625 Z M 59.368098,61.566069 C 62.018616,60.195433 63.125,58.234934 63.125,54.908887 c 0,-3.867106 -2.091561,-6.372494 -7.253306,-8.688412 -2.483125,-1.114102 -4.031323,-2.219981 -4.302046,-3.072953 -0.867968,-2.734726 2.473447,-4.207244 4.789928,-2.110857 0.937018,0.847989 1.432611,0.905849 2.723003,0.317908 2.391448,-1.089617 2.644378,-2.571343 0.721293,-4.22551 -4.01062,-3.44979 -10.891319,-2.192814 -13.135353,2.399586 -2.152041,4.404137 0.303211,8.80938 6.39928,11.481667 3.203743,1.404399 5.057201,2.894033 5.057201,4.064497 0,2.417619 -5.886742,3.303126 -7.8125,1.175187 C 49.690321,55.5625 48.732668,55.008945 48.184382,55.019877 46.800243,55.047476 45,56.515271 45,57.616206 c 0,1.147812 2.314537,3.35989 4.375321,4.181636 2.374626,0.946889 7.964195,0.817246 9.992777,-0.231773 z"
       id="path3570"
       inkscape:connector-curvature="0" />
    <path
       style="fill:#2e91d3"
       d="m 9.375,37.8125 0,-29.0625 29.0625,0 29.0625,0 0,29.0625 0,29.0625 -29.0625,0 -29.0625,0 0,-29.0625 z m 25.5,24.5625 c 0.521984,-0.521984 0.75,-3.847223 0.75,-10.9375 l 0,-10.1875 3,0 c 3.39001,0 4.5,-0.770826 4.5,-3.125 C 43.125,35.23332 42.308381,35 32.1875,35 22.066619,35 21.25,35.23332 21.25,38.125 c 0,2.354174 1.10999,3.125 4.5,3.125 l 3,0 0,10.1875 c 0,7.090277 0.228016,10.415516 0.75,10.9375 0.968803,0.968806 4.406197,0.968806 5.375,0 z M 58.977636,62.263237 C 62.152267,60.936793 63.75,58.484205 63.75,54.937461 c 0,-3.979499 -2.518338,-6.937131 -8.001489,-9.397255 -3.354957,-1.505267 -3.931362,-1.994119 -3.761552,-3.190188 0.245998,-1.732696 3.031649,-2.271254 4.236817,-0.819117 1.098555,1.323679 1.896009,1.217927 4.088724,-0.542214 l 1.875,-1.505104 -1.309695,-1.773042 c -3.827026,-5.180959 -13.490365,-3.492216 -15.187451,2.654125 -1.248996,4.523489 1.445708,8.560463 7.539657,11.295265 3.628336,1.6283 4.512644,2.605485 3.871005,4.277569 -0.562192,1.465051 -5.380588,1.243243 -6.788516,-0.3125 -0.622179,-0.6875 -1.519414,-1.25 -1.993857,-1.25 -1.448085,0 -3.943643,1.954061 -3.943643,3.087935 0,1.277203 2.522987,3.767668 4.873919,4.811092 2.325625,1.032192 7.245571,1.026735 9.728717,-0.01079 z"
       id="path3568"
       inkscape:connector-curvature="0" />
    <path
       style="fill:#1986cf"
       d="M 9.6635944,66.100069 C 9.4974819,65.666906 9.4349056,52.65625 9.5245356,37.1875 L 9.6875,9.0625 l 28.75,0 28.75,0 0,28.75 0,28.75 -28.610942,0.162569 c -22.554663,0.12815 -28.6748724,-0.0044 -28.9129636,-0.625 z M 35.625,52.1875 35.9375,41.5625 39.375,41.25 l 3.4375,-0.3125 0,-2.8125 0,-2.8125 -10.625,0 -10.625,0 0,2.8125 0,2.8125 L 25,41.25 l 3.4375,0.3125 0.161936,10 c 0.08906,5.5 0.297133,10.367089 0.462375,10.815755 0.204036,0.554001 1.255079,0.754545 3.275564,0.625001 L 35.3125,62.8125 35.625,52.1875 Z M 59.993098,62.191069 C 62.798419,60.740381 63.75,58.895889 63.75,54.908887 c 0,-4.544624 -1.80442,-6.868663 -7.219198,-9.298109 -3.94098,-1.768197 -5.093296,-3.048284 -3.856961,-4.284619 0.963367,-0.963367 2.026125,-0.878257 2.951159,0.236341 1.770011,2.132732 6.557182,-0.04321 6.151622,-2.796138 -0.376699,-2.557023 -3.210036,-4.054333 -7.696533,-4.067325 -4.706503,-0.01363 -7.027365,1.33695 -8.373005,4.8725 -1.879002,4.936911 0.720225,9.36286 7.232662,12.31574 3.425065,1.552999 3.9968,2.038887 3.824884,3.250579 -0.277131,1.95326 -3.82975,2.340026 -5.739267,0.624823 -0.735825,-0.660947 -1.694555,-1.403955 -2.130511,-1.65113 C 47.800149,53.490884 43.75,56.106429 43.75,57.434043 c 0,1.301721 2.832336,4.128678 5,4.990502 2.430328,0.966255 9.194714,0.825786 11.243098,-0.233476 z"
       id="path3566"
       inkscape:connector-curvature="0" />
    <path
       style="fill:#0079cb"
       d="m 10,37.8125 0,-28.4375 28.4375,0 28.4375,0 0,28.4375 0,28.4375 -28.4375,0 L 10,66.25 10,37.8125 Z M 35.5,63 c 0.521984,-0.521984 0.75,-3.847223 0.75,-10.9375 l 0,-10.1875 3,0 c 1.65,0 3.3375,-0.3375 3.75,-0.75 0.970291,-0.970291 0.970291,-5.029709 0,-6 -1.051348,-1.051348 -20.573652,-1.051348 -21.625,0 -0.970291,0.970291 -0.970291,5.029709 0,6 0.4125,0.4125 2.1,0.75 3.75,0.75 l 3,0 0,10.1875 c 0,7.090277 0.228016,10.415516 0.75,10.9375 0.971451,0.97145 5.653549,0.97145 6.625,0 z M 60.012019,62.493868 C 62.974006,60.982775 64.375,58.515724 64.375,54.810964 c 0,-3.978323 -1.967072,-6.582194 -6.75244,-8.938404 -4.827433,-2.376922 -5.644906,-3.100214 -4.639837,-4.105283 0.560298,-0.560298 1.223451,-0.46845 2.81807,0.39031 1.940507,1.045032 2.220794,1.05299 4.035484,0.114577 4.866423,-2.516525 2.236201,-7.151223 -4.686595,-8.258223 -1.81705,-0.290558 -3.26368,-0.05083 -5.402475,0.895257 -2.402735,1.062844 -3.150937,1.81202 -4.217364,4.222854 -1.116558,2.524165 -1.196772,3.263396 -0.578159,5.328142 1.032578,3.446439 3.034745,5.466663 7.599288,7.667825 4.561703,2.199792 5.237378,3.706435 1.792082,3.996048 -1.606821,0.135071 -2.539268,-0.166833 -3.378117,-1.09375 -1.410149,-1.558197 -3.004007,-1.623265 -5.380154,-0.219641 -2.393732,1.414013 -2.753347,2.614583 -1.357915,4.533388 2.988454,4.109311 10.83522,5.675073 15.785151,3.149804 z"
       id="path3564"
       inkscape:connector-curvature="0" />
  </g>
</svg>
