<?xml version="1.0" encoding="UTF-8" standalone="no"?>
<!-- Created with Inkscape (http://www.inkscape.org/) -->

<svg
   xmlns:dc="http://purl.org/dc/elements/1.1/"
   xmlns:cc="http://creativecommons.org/ns#"
   xmlns:rdf="http://www.w3.org/1999/02/22-rdf-syntax-ns#"
   xmlns:svg="http://www.w3.org/2000/svg"
   xmlns="http://www.w3.org/2000/svg"
   xmlns:xlink="http://www.w3.org/1999/xlink"
   xmlns:sodipodi="http://sodipodi.sourceforge.net/DTD/sodipodi-0.dtd"
   xmlns:inkscape="http://www.inkscape.org/namespaces/inkscape"
   id="svg4295"
   version="1.1"
   inkscape:version="0.91 r13725"
   width="473"
   height="123"
   viewBox="0 0 473 123"
   sodipodi:docname="Uglify.bmp.svg">
  <metadata
     id="metadata4301">
    <rdf:RDF>
      <cc:Work
         rdf:about="">
        <dc:format>image/svg+xml</dc:format>
        <dc:type
           rdf:resource="http://purl.org/dc/dcmitype/StillImage" />
        <dc:title></dc:title>
      </cc:Work>
    </rdf:RDF>
  </metadata>
  <defs
     id="defs4299" />
  <sodipodi:namedview
     pagecolor="#ffffff"
     bordercolor="#666666"
     borderopacity="1"
     objecttolerance="10"
     gridtolerance="10"
     guidetolerance="10"
     inkscape:pageopacity="0"
     inkscape:pageshadow="2"
     inkscape:window-width="640"
     inkscape:window-height="480"
     id="namedview4297"
     showgrid="false"
     inkscape:zoom="0.55391121"
     inkscape:cx="236.5"
     inkscape:cy="61.5"
     inkscape:window-x="0"
     inkscape:window-y="0"
     inkscape:window-maximized="0"
     inkscape:current-layer="svg4295" />
  <image
     width="473"
     height="123"
     preserveAspectRatio="none"
     style="image-rendering:optimizeQuality"
     xlink:href="file:///media/havoc/USB%20DISK/pics/_OpsDeps/Uglify.bmp"
     id="image4303"
     x="0"
     y="0"
     sodipodi:absref="/media/havoc/USB DISK/pics/_OpsDeps/Uglify.bmp" />
  <g
     id="g4540">
    <path
       style="fill:#fcfdfd"
       d="M 0,61.5 0,0 236.5,0 473,0 473,61.5 473,123 236.5,123 0,123 0,61.5 Z"
       id="path4556"
       inkscape:connector-curvature="0" />
    <path
       style="fill:#aacbdf"
       d="M 157.32874,91.542239 C 152.30662,89.357651 150.13024,82.796656 153.5,80 c 0.825,-0.684689 1.5,-2.674789 1.5,-4.422445 0,-1.747655 0.52937,-3.706922 1.17637,-4.353926 0.90183,-0.901829 0.78514,-1.60868 -0.5,-3.028741 -2.50012,-2.762605 -2.15393,-9.085613 0.6922,-12.642704 2.26363,-2.829083 2.74691,-2.964799 11.99865,-3.369438 C 178.57868,51.736132 181,52.497269 181,56.15383 c 0,1.049917 -0.675,2.167961 -1.5,2.484544 -0.94078,0.36101 -1.5,1.889754 -1.5,4.100538 0,2.731511 -0.78597,4.266201 -3.49183,6.818155 l -3.49183,3.293221 3.48873,1.151384 c 6.66318,2.199048 8.4515,8.519624 3.93065,13.892346 -4.08343,4.852881 -14.2843,6.616043 -21.10698,3.648221 z M 170.75561,83.25 C 171.0438,82.37362 169.81437,82 166.64235,82 c -4.35888,0 -6.33725,0.971768 -4.90144,2.407575 1.13939,1.139388 8.57327,0.184806 9.0147,-1.157575 z m -2.344,-19.540755 c 0.79303,-1.257225 0.64858,-2.077624 -0.5826,-3.308806 C 165.82041,58.391835 164,59.338839 164,62.39235 c 0,3.944517 2.31773,4.636376 4.41161,1.316895 z m 61.56817,27.252982 c -1.6146,-3.016911 -0.30311,-5.7323 3.13312,-6.487024 1.66223,-0.365087 3.28712,-1.354058 3.61086,-2.197713 C 237.41708,80.470734 235.33423,71.579306 233.3792,68 c -0.75102,-1.375 -1.8188,-3.767369 -2.37283,-5.316376 -0.82195,-2.298056 -1.51335,-2.75815 -3.75686,-2.5 L 224.5,60.5 l -0.29012,9.445876 c -0.15956,5.195232 -0.77716,10.032732 -1.37244,10.75 C 221.48031,82.331118 216.79499,82.394995 215.2,80.8 214.43936,80.039363 214,76.207819 214,70.335184 214,62.093823 213.77907,60.952127 212,60 c -1.1,-0.588702 -2,-1.88479 -2,-2.880196 0,-0.995406 0.9,-2.624318 2,-3.619804 1.1,-0.995486 2,-2.865231 2,-4.154988 0,-4.989639 6.98798,-8.320253 14.5,-6.91099 2.52044,0.472837 3.5,1.180781 3.5,2.529504 C 232,48.557311 230.82356,50 227.89301,50 226.30186,50 225,50.45 225,51 c 0,0.55 1.9125,1.006145 4.25,1.013655 7.57275,0.02433 8.44079,0.626607 10.93779,7.589047 C 241.44967,63.121216 242.75203,66 243.08193,66 c 0.32989,0 1.15292,-2.471546 1.82894,-5.492325 1.6909,-7.55574 6.68914,-10.714293 11.44812,-7.234443 1.62961,1.191598 1.54093,1.752605 -1.38311,8.75 C 253.25749,66.135454 251.38815,71.075 250.8218,73 c -0.56636,1.925 -1.3743,3.95 -1.79544,4.5 -0.42115,0.55 -1.33125,2.8 -2.02246,5 -0.69122,2.2 -1.9863,4.833571 -2.87797,5.852379 -4.14185,4.732438 -12.21323,6.221541 -14.14615,2.609848 z m 22.40975,-1.389501 c -1.1676,-3.042732 0.0609,-6.065775 2.61047,-6.423541 1.375,-0.192949 2.83061,-0.867949 3.23469,-1.5 0.40408,-0.632052 0.74158,-8.821685 0.75,-18.199185 C 259.00137,44.878483 259.25047,44 264.5,44 c 5.23659,0 5.5005,0.910233 5.49442,18.95 -0.006,18.372164 -0.83485,22.992724 -4.66372,26.004514 -3.16592,2.490313 -12.05974,2.915179 -12.94117,0.618212 z m -126.31845,-9.26014 c -6.59273,-3.485039 -7.53194,-5.913713 -7.90155,-20.432461 -0.23115,-9.079654 0.0311,-13.416905 0.87244,-14.430697 1.35177,-1.628788 7.51493,-1.9754 8.44235,-0.474793 0.3313,0.536049 0.69536,6.422331 0.80902,13.080627 0.1825,10.690454 0.43363,12.271958 2.14779,13.525365 2.46131,1.799734 4.65511,1.800251 7.11774,0.0017 1.69563,-1.2384 2.00437,-3.040618 2.44113,-14.25 L 140.5,44.5 143.81532,44.181769 C 149.49176,43.636901 150,44.818248 150,58.557345 c 0,6.771851 -0.42205,13.422531 -0.93789,14.779289 -2.64841,6.96584 -15.58481,10.891011 -22.99103,6.975952 z M 184.75,80.919901 C 183.18606,80.00899 183,77.989858 183,61.928871 l 0,-17.971749 2.5,-1.139076 c 1.87016,-0.852101 3.12984,-0.852101 5,0 l 2.5,1.139076 0,18.41445 c 0,15.86908 -0.21865,18.498353 -1.58179,19.021439 -2.26696,0.869915 -4.65303,0.700623 -6.66821,-0.47311 z m 13.83427,-0.478491 c -1.29264,-1.29264 -1.49003,-3.705107 -1.15677,-14.138242 0.2638,-8.258521 0.81087,-12.832458 1.59264,-13.315616 0.88477,-0.546815 0.74994,-1.408828 -0.52461,-3.354037 -2.09145,-3.191945 -1.41306,-5.334173 2.11382,-6.675091 5.0714,-1.928142 9.81552,3.784222 5.86542,7.062514 -1.36697,1.134485 -1.36697,1.440699 0,2.951185 1.19759,1.323315 1.52523,4.399799 1.52523,14.321434 0,11.469462 -0.17858,12.731648 -1.93426,13.671259 -2.76891,1.481876 -5.67984,1.278227 -7.48147,-0.523406 z m 79.23171,0.418304 c -3.28224,-1.201354 -4.82756,-6.27671 -2.59181,-8.512454 1.19019,-1.190195 2.19358,-1.227853 5.94953,-0.223288 8.35895,2.235679 10.86699,-1.473587 3.43049,-5.073534 C 277.0584,63.397584 275,60.833802 275,55.088218 c 0,-4.172374 0.45853,-5.436084 2.75,-7.578998 3.45587,-3.231823 5.93115,-3.86625 12.84695,-3.292737 6.82998,0.566395 9.03191,2.413241 7.67259,6.435303 -0.91036,2.69363 -1.27789,2.848214 -6.77192,2.848214 -3.47796,0 -5.96728,0.460839 -6.20291,1.148322 -0.21648,0.631577 2.09968,2.574827 5.14701,4.318331 6.92467,3.961898 8.55828,6.268028 8.55828,12.081539 0,5.054039 -2.11789,7.916024 -7.3151,9.885196 -3.42352,1.297137 -10.22236,1.26102 -13.86892,-0.07367 z"
       id="path4554"
       inkscape:connector-curvature="0" />
    <path
       style="fill:#8db6d3"
       d="m 158.50116,90.933981 c -5.57618,-1.662557 -7.11927,-6.607166 -3.49846,-11.210289 1.10149,-1.400314 1.74184,-3.225837 1.423,-4.056718 -0.31884,-0.830881 -0.075,-2.453693 0.5418,-3.60625 0.87679,-1.638289 0.78449,-2.576726 -0.423,-4.300647 -2.45839,-3.509845 -1.97806,-9.003929 1.03475,-11.835763 2.25528,-2.119805 3.66835,-2.460358 11.25,-2.711271 9.65154,-0.319416 12.45205,0.624045 10.41439,3.50849 -1.7092,2.419472 -1.99232,3.202657 -2.69968,7.467889 C 175.85679,68.332983 171.23088,72 166.69098,72 c -3.02628,0 -4.36695,1.526629 -2.10345,2.395215 0.86683,0.332632 3.70439,0.604785 6.3057,0.604785 11.84797,0 12.40962,12.923692 0.68989,15.874754 -5.16903,1.301577 -8.85911,1.318283 -13.08196,0.05923 z M 171.5,83.5 c 0,-1.665108 -0.75351,-2.043623 -4.5,-2.260519 -5.20087,-0.301095 -7.56697,0.840648 -6.6569,3.212242 0.50129,1.306342 1.73932,1.590019 5.89572,1.350924 C 170.73245,85.544153 171.5,85.208222 171.5,83.5 Z m -3.07143,-18.071429 c 2.0084,-2.0084 1.99271,-3.864436 -0.0499,-5.907091 -3.27337,-3.273377 -7.05289,0.46874 -5.28077,5.22852 0.97849,2.62815 3.10983,2.899458 5.33072,0.678571 z m 63.2381,25.904762 c -1.76133,-1.761327 -0.52792,-4.947231 2.33344,-6.027271 5.58637,-2.108621 5.22417,-6.539016 -1.8461,-22.581316 -1.94481,-4.412735 -2.31523,-4.724883 -4.8793,-4.111742 -1.52609,0.364932 -3.11221,0.852854 -3.52471,1.084271 -0.4125,0.231418 -0.75,4.863877 -0.75,10.294354 0,8.995337 -0.1779,9.930059 -2,10.508371 -1.1,0.349126 -2.9,0.349126 -4,0 -1.82481,-0.579172 -2,-1.513034 -2,-10.661007 0,-9.185228 -0.16776,-10.070103 -2,-10.549244 -1.1,-0.287656 -2,-1.354695 -2,-2.371197 0,-1.016501 0.9,-2.32985 2,-2.918552 1.27152,-0.680495 2,-2.093823 2,-3.880196 0,-4.974033 5.64602,-7.971596 12.56866,-6.672901 2.93352,0.550331 3.50092,1.050664 3.24343,2.860058 -0.20898,1.468481 -1.13807,2.307294 -2.81209,2.538857 -1.375,0.1902 -3.08157,0.823628 -3.79238,1.407619 -2.1265,1.747099 0.22672,3.023284 5.98973,3.248306 2.91646,0.113876 5.58789,0.27257 5.93651,0.352652 0.55581,0.127677 3.63463,7.411116 5.23981,12.395605 1.06281,3.300285 2.43375,1.742681 4.52444,-5.140466 1.7043,-5.611032 2.5432,-7.00348 4.51794,-7.499108 3.92339,-0.984708 5.83545,0.247279 5.08303,3.275109 -0.89758,3.611936 -5.73368,16.188197 -11.12086,28.919746 -1.82425,4.311243 -10.25985,7.979754 -12.71155,5.528052 z M 253.36163,88.5 C 252.49805,86.249564 253.70131,84 255.76862,84 259.61118,84 260,82.208155 260,64.5 260,46.425967 260.34112,45 264.66482,45 c 3.6204,0 4.33805,2.957171 4.29163,17.684259 C 268.88611,84.997864 266.93363,90 258.2943,90 c -2.95046,0 -4.54289,-0.484251 -4.93267,-1.5 z M 127.5,80.040514 c -1.1,-0.457992 -3.35,-2.257678 -5,-3.999302 -2.95698,-3.121177 -3.00477,-3.345637 -3.33258,-15.651936 -0.36445,-13.681802 0.26948,-15.710313 4.74698,-15.189834 L 126.5,45.5 127.01663,58.342769 C 127.58143,72.383175 128.30629,74 134.03614,74 139.19956,74 140.44755,71.069497 141,57.647556 L 141.5,45.5 l 2.5856,-0.300558 c 4.47665,-0.520381 5.11144,1.508891 4.74698,15.175009 -0.31155,11.682057 -0.49065,12.641638 -2.83258,15.176914 -4.43302,4.798995 -12.8502,6.841481 -18.5,4.489149 z M 185.2,79.8 c -0.8379,-0.837895 -1.2,-6.258848 -1.2,-17.964816 0,-15.249895 0.16612,-16.85372 1.83833,-17.748659 1.01108,-0.541114 2.81108,-0.729462 4,-0.418553 2.11329,0.55264 2.16167,0.963125 2.16167,18.341671 0,15.287242 -0.22149,17.861373 -1.58179,18.383368 C 188.04426,81.303983 186.53214,81.132143 185.2,79.8 Z m 14.09969,-0.220064 c -0.43983,-0.781035 -0.57469,-6.968535 -0.29969,-13.75 0.48428,-11.942198 0.57249,-12.340212 2.80504,-12.6567 C 206.31979,52.533223 207,54.333489 207,66.922445 c 0,7.749209 -0.40368,12.081237 -1.2,12.877555 -1.64303,1.643034 -5.52514,1.511608 -6.50031,-0.220064 z m 79.03825,0.421433 c -4.17399,-1.683175 -4.12674,-8.792372 0.05,-7.518153 1.16165,0.354394 3.97738,0.893852 6.25718,1.198796 3.62425,0.484776 4.23148,0.282254 4.83262,-1.611772 0.71051,-2.238619 -0.83156,-5.017775 -2.85015,-5.136631 C 286.0074,66.897095 283.475,65.399524 281,63.605675 c -4.19047,-3.037199 -4.52048,-3.608425 -4.79778,-8.30451 -0.27103,-4.589893 -0.0171,-5.27917 2.82672,-7.672065 2.49988,-2.103505 4.15872,-2.62637 8.29779,-2.615445 8.85787,0.02338 11.96228,1.87959 9.73744,5.822287 -0.70735,1.253521 -2.37303,1.664058 -6.75159,1.664058 -5.1816,0 -5.84577,0.232816 -6.11833,2.144711 -0.24254,1.70125 0.8947,2.816189 5.5,5.392187 C 297.0294,64.139854 298,65.384892 298,70.69113 c 0,4.681015 -2.08322,7.629612 -6.60503,9.348804 -3.07732,1.169993 -10.11153,1.149218 -13.05703,-0.03857 z M 200.0496,49.241243 c -3.32115,-2.689296 -1.7892,-5.430076 2.81933,-5.044023 4.16874,0.349214 5.53937,3.299836 2.54868,5.486683 -2.3257,1.700595 -2.76605,1.664283 -5.36801,-0.44266 z"
       id="path4552"
       inkscape:connector-curvature="0" />
    <path
       style="fill:#619dc7"
       d="m 157,89.712454 c -2.98274,-1.50099 -3.95448,-6.963976 -1.69978,-9.555994 2.20567,-2.535658 2.95346,-11.238232 1.16841,-13.59759 -2.16758,-2.864956 -1.79514,-6.017383 1.12026,-9.482145 C 160.14208,54.042434 160.30759,54 169.58889,54 176.91587,54 179,54.305065 179,55.377555 c 0,0.757656 -0.675,1.937756 -1.5,2.622445 -0.85858,0.712561 -1.5,2.893118 -1.5,5.099392 0,4.448936 -2.69303,6.840458 -8.82531,7.837231 -2.36531,0.384471 -3.77094,1.205368 -3.98725,2.328591 C 162.90942,74.708836 163.62632,75 167.45879,75 c 2.533,0 6.16599,0.652038 8.07333,1.448973 2.90547,1.213986 3.46788,1.954437 3.46788,4.565742 0,4.407803 -1.63645,6.935436 -5.54837,8.569943 -4.18254,1.747576 -13.09525,1.81681 -16.45163,0.127796 z m 12.68083,-3.32465 c 2.66969,-0.716001 3.75027,-3.163439 2.21398,-5.014552 C 169.36863,78.329397 159,80.459028 159,84.021738 c 0,2.332219 5.91847,3.643306 10.68083,2.366066 z M 168.8,65.8 c 2.10025,-2.10025 1.46541,-6.764228 -1.05,-7.714058 -4.40267,-1.662465 -7.11225,2.200522 -5.14301,7.332271 0.71537,1.86423 4.47857,2.096224 6.19301,0.381787 z m 62.58542,23.76201 c -0.75279,-1.961734 0.28758,-3.218884 3.08021,-3.722021 1.08109,-0.194777 2.62431,-1.527673 3.42937,-2.961991 1.30627,-2.327284 1.26605,-3.241005 -0.37388,-8.492925 C 236.51043,71.148283 235.12986,67.6 234.4532,66.5 c -0.67667,-1.1 -1.76535,-3.6875 -2.4193,-5.75 -0.65395,-2.0625 -1.58293,-3.75 -2.0644,-3.75 -1.46583,0 -6.42258,2.394123 -7.20419,3.479646 -0.40408,0.561195 -0.74158,5.182854 -0.75,10.270354 L 222,80 l -2.89301,0 c -3.56062,0 -3.69253,-0.374327 -4.02196,-11.412976 -0.22863,-7.660855 -0.56095,-9.151815 -2.36556,-10.613104 l -2.09957,-1.700127 2.14702,-1.14905 c 1.28714,-0.688861 2.41091,-2.555711 2.80593,-4.661358 C 216.42815,45.904204 219.29157,44 225.29206,44 c 4.45073,0 4.82091,0.183441 4.52749,2.243569 -0.22881,1.60651 -1.1714,2.390158 -3.31955,2.759821 -2.15547,0.370921 -3,1.076509 -3,2.506431 0,1.744424 0.77712,2.027081 6.29332,2.289021 6.9823,0.331558 6.49746,-0.175039 10.18856,10.64592 0.92768,2.719618 2.18377,5.110454 2.79131,5.312967 0.62491,0.208305 2.04827,-2.807608 3.27758,-6.944762 2.2969,-7.730049 3.09116,-8.773099 6.69923,-8.797654 2.91946,-0.01987 2.8657,1.874812 -0.2691,9.484687 -1.3594,3.3 -2.47649,6.45 -2.48243,7 -0.006,0.55 -0.72869,2.35 -1.60612,4 -0.87743,1.65 -2.22017,5.063698 -2.98387,7.585996 -1.73222,5.721041 -4.11777,7.931196 -9.31266,8.627977 -3.22154,0.432099 -4.19378,0.19433 -4.7104,-1.151963 z m 23.28125,-0.228677 C 253.23098,87.897651 254.04069,85 255.87756,85 259.86135,85 260.4777,82.485249 261,64.100195 L 261.5,46.5 l 3,0 3,0 0,18.833714 0,18.833714 -3.26578,2.916286 c -3.06994,2.741414 -7.93244,3.884732 -9.56755,2.249619 z M 125.8728,78.316287 C 120.85117,75.199753 120,72.332382 120,58.532349 l 0,-12.659066 3.25,0.313359 L 126.5,46.5 127,59.289371 c 0.52828,13.512737 0.70824,13.985985 5.83705,15.349725 1.5406,0.409642 3.24457,-0.05488 5,-1.363061 C 140.4149,71.354971 140.51598,70.895446 141,58.895778 L 141.5,46.5 l 3.25,-0.313358 3.25,-0.313359 0,12.516305 c 0,14.091307 -0.75397,16.677686 -5.71514,19.604846 -4.22479,2.492685 -12.64806,2.657872 -16.41206,0.321853 z m 59.83978,1.062956 C 185.32066,78.987326 185,71.077544 185,61.801949 c 0,-14.691138 0.21084,-16.945627 1.63592,-17.492481 0.89976,-0.345269 2.36226,-0.169602 3.25,0.390371 1.38155,0.871457 1.61408,3.451526 1.61408,17.909147 l 0,16.891014 -2.53742,0.29591 c -1.39559,0.16275 -2.85809,-0.02475 -3.25,-0.416667 z m 13.74722,-0.623415 c -0.29086,-0.757962 -0.4008,-6.525599 -0.24432,-12.816971 L 199.5,54.5 l 3,0 3,0 0,12.5 0,12.5 -2.75569,0.316971 c -1.66088,0.191043 -2.96578,-0.230535 -3.28451,-1.061143 z m 78.2902,0.164073 c -0.9625,-0.560605 -1.75,-2.17438 -1.75,-3.586168 0,-2.300343 0.28556,-2.495454 2.75,-1.878964 6.84108,1.711323 8.93822,1.714153 10.63802,0.01435 2.66399,-2.663996 1.59816,-4.508378 -4.88802,-8.458494 -6.59692,-4.017555 -8.97817,-7.557071 -8.01976,-11.920659 1.07233,-4.882298 4.70591,-7.375685 10.74849,-7.375685 6.76321,0 9.77127,0.970673 9.77127,3.153102 0,3.022593 -1.86745,4.007995 -5.6279,2.969685 -3.93079,-1.085343 -6.93194,-0.426499 -7.74833,1.700994 -0.97383,2.537752 0.25518,3.933736 6.47226,7.351596 6.5701,3.611926 7.33007,4.6868 7.34718,10.391552 0.0171,5.709893 -4.03443,8.645092 -11.94321,8.652413 -3.3,0.0031 -6.7875,-0.453122 -7.75,-1.013727 z m -77.51168,-30.08158 c -1.97615,-1.97615 -1.44398,-3.748599 1.3349,-4.446053 2.9902,-0.750493 4.76521,0.604201 4.26034,3.251512 -0.4215,2.210218 -3.84803,2.941754 -5.59524,1.194541 z"
       id="path4550"
       inkscape:connector-curvature="0" />
    <path
       style="fill:#4b8cbb"
       d="m 156.10129,88.101285 c -2.59793,-2.597924 -2.68237,-5.265441 -0.23674,-7.478702 2.56792,-2.323941 3.58064,-11.1489 1.60335,-13.971874 -3.12222,-4.457595 -1.07397,-10.042908 4.24204,-11.567522 C 164.84479,54.184125 179,54.847783 179,55.893821 c 0,0.343797 -0.9,1.187145 -2,1.874106 -1.44125,0.900074 -2,2.332028 -2,5.125537 0,4.420866 -2.89717,7.095362 -7.71482,7.121849 -3.71903,0.02045 -5.56,1.315779 -5.12285,3.604514 0.29541,1.546642 1.56041,1.983535 7.13106,2.46284 7.36807,0.633959 8.24285,1.111449 9.20893,5.026601 0.48057,1.947532 0.0158,3.339392 -1.83249,5.488193 -2.27825,2.648616 -3.11597,2.907971 -10.4718,3.242017 -7.0689,0.321015 -8.23897,0.119583 -10.09674,-1.738193 z M 169.25,86.947419 c 3.01219,-0.836526 3.75,-1.517132 3.75,-3.459239 0,-3.254828 -3.16061,-4.805789 -8.09468,-3.972184 -6.6325,1.120553 -8.65143,5.429358 -3.51622,7.504298 2.83299,1.144703 3.49884,1.13853 7.8609,-0.07288 z m 0.17857,-20.518848 c 2.28949,-2.289487 2.01516,-7.120725 -0.48015,-8.456178 -3.22327,-1.725042 -6.29681,-0.790378 -7.35717,2.237317 -2.05912,5.879489 3.64808,10.408108 7.83732,6.218861 z M 232,88.569551 c 0,-0.786747 0.96735,-1.574247 2.14967,-1.75 1.18232,-0.175753 3.05921,-1.542342 4.17085,-3.036865 2.3146,-3.111802 2.07003,-4.312283 -4.0049,-19.658362 C 232.49203,59.517702 231,55.580202 231,55.374324 231,55.168446 232.04219,55 233.31599,55 c 1.85581,0 2.74065,1.043137 4.4533,5.25 1.17552,2.8875 2.43211,6.4875 2.79242,8 0.36031,1.5125 1.29097,2.75 2.06814,2.75 1.61116,0 2.60152,-2.095411 4.84446,-10.25 1.46469,-5.325098 1.7972,-5.75 4.49976,-5.75 l 2.91821,0 -1.87317,5.25 c -1.03024,2.8875 -2.806,7.6125 -3.94614,10.5 -1.14013,2.8875 -2.96755,7.6125 -4.06092,10.5 -1.09338,2.8875 -2.94323,6.0375 -4.11079,7 C 238.28165,90.409534 232,90.635042 232,88.569551 Z M 254.5,88 c -0.9178,-1.485032 0.35671,-3 2.52383,-3 3.59094,0 4.45342,-3.726395 4.97617,-21.5 0.47549,-16.166667 0.59804,-17 2.5,-17 1.91653,0 2.01136,0.757387 2.27216,18.146939 l 0.27216,18.146939 -2.61105,3.103061 C 262.46907,88.231259 260.99178,89 258.47012,89 256.62647,89 254.83992,88.55 254.5,88 Z M 129.76162,79.314052 c -1.50611,-0.24456 -4.10634,-1.812615 -5.77829,-3.484568 l -3.03991,-3.039915 0.27829,-13.144785 C 121.48392,47.259431 121.61555,46.5 123.5,46.5 c 1.8663,0 2.04059,0.869051 2.60715,13 0.33394,7.15 0.67144,13.100944 0.75,13.22432 0.47572,0.747039 6.29419,3.27568 7.53743,3.27568 0.82164,0 2.75649,-1.084379 4.29966,-2.409731 2.73041,-2.345015 2.81919,-2.741143 3.30576,-14.75 L 142.5,46.5 l 2.5,0 2.5,0 -0.015,12.126649 c -0.0163,13.184197 -0.80612,15.950814 -5.31336,18.612286 -3.08026,1.818855 -8.45423,2.717452 -12.41002,2.075117 z M 280,79.109325 c -1.53518,-0.424515 -2.62332,-1.543835 -2.81955,-2.900319 -0.36319,-2.510642 0.24476,-2.653943 4.68798,-1.105028 4.17508,1.455443 7.45336,0.531793 9.11193,-2.567279 1.18009,-2.205016 1.12159,-2.766561 -0.47157,-4.526983 -1.00032,-1.105344 -2.31152,-2.039592 -2.91378,-2.076107 C 286.99276,65.897095 284.475,64.400057 282,62.60686 c -3.88963,-2.818128 -4.54083,-3.808529 -4.80106,-7.301756 -0.25946,-3.483104 0.13103,-4.40497 2.82673,-6.67325 2.29452,-1.930709 4.23957,-2.628216 7.30106,-2.618199 6.03482,0.01975 8.67327,0.945733 8.67327,3.043959 0,2.525666 -1.05287,2.945378 -5.09928,2.032763 C 285.79873,49.939691 283,51.287212 283,54.894385 c 0,2.562571 0.77007,3.389481 5.75,6.174412 7.02559,3.928926 8.25,5.364098 8.25,9.670082 0,6.717949 -8.26297,10.786462 -17,8.370446 z m -94.60293,-1.51697 c -0.29709,-0.774204 -0.39547,-8.311704 -0.21862,-16.75 L 185.5,45.5 l 2.5,0 2.5,0 0.27418,16.75 0.27418,16.75 -2.55557,0 c -1.40556,0 -2.79863,-0.63344 -3.09572,-1.407645 z M 200,67 l 0,-12 2.5,0 2.5,0 0,12 0,12 -2.5,0 -2.5,0 0,-12 z m 16,1.90638 c 0,-9.252615 -0.16664,-10.137197 -2,-10.616631 -1.1,-0.287656 -2,-0.904695 -2,-1.371197 0,-0.466501 0.9,-1.32985 2,-1.918552 1.29256,-0.691755 2,-2.093823 2,-3.963755 C 216,46.631957 218.31737,45 224.57143,45 227.63394,45 230,45.449533 230,46.031385 c 0,1.080147 -0.72704,1.413082 -5.25,2.404144 -2.1081,0.461924 -2.75,1.187507 -2.75,3.108523 0,1.991544 0.62384,2.630716 3.03906,3.113761 3.5,0.699999 3.43857,2.522162 -0.1132,3.357681 -2.34766,0.552264 -2.43505,0.899703 -2.71084,10.777583 L 221.93003,79 218.96502,79 216,79 216,68.90638 Z M 200,47 c 0,-1.466667 0.66667,-2 2.5,-2 1.83333,0 2.5,0.533333 2.5,2 0,1.466667 -0.66667,2 -2.5,2 -1.83333,0 -2.5,-0.533333 -2.5,-2 z"
       id="path4548"
       inkscape:connector-curvature="0" />
    <path
       style="fill:#3383c1"
       d="m 159.52197,89.180103 c -4.32126,-1.004318 -5.73309,-5.403116 -2.65468,-8.271095 1.23814,-1.153504 2.15517,-3.067419 2.03784,-4.253144 -0.11733,-1.185725 0.12366,-3.368909 0.53554,-4.851519 0.51468,-1.852656 0.25014,-3.407684 -0.8459,-4.972507 -1.97501,-2.819712 -2.00114,-6.710467 -0.0623,-9.273894 1.22748,-1.622896 2.98893,-2.000779 10.7182,-2.299378 8.08427,-0.312313 9.02889,-0.179765 7.49932,1.052299 -1.15499,0.930343 -1.75,2.809318 -1.75,5.526325 0,4.866801 -2.72606,7.224658 -9.37972,8.112817 -3.3061,0.441313 -4.18338,0.994281 -4.43962,2.798381 C 160.79246,75.481589 164.07574,77 170.37397,77 c 2.33407,0 5.04338,0.584691 6.02069,1.299314 2.48252,1.815266 1.73268,6.536765 -1.40884,8.870975 -2.76126,2.051669 -10.79256,3.095485 -15.46385,2.009814 z m 12.54377,-2.215287 C 174.22786,85.807686 174.63712,82.03712 172.8,80.2 171.32854,78.728545 162.58503,78.616536 159.93426,80.035184 157.77214,81.192314 157.36288,84.96288 159.2,86.8 c 1.47146,1.471455 10.21497,1.583464 12.86574,0.164816 z M 170.75,66.254137 C 174.84391,60.894729 166.90854,52.491461 162.2,57.2 c -1.90727,1.907265 -1.51802,9.510995 0.55,10.744078 2.21564,1.321098 6.37036,0.443443 8,-1.689941 z m 62.56562,22.096906 c 0.35693,-0.356927 1.65583,-1.150935 2.88644,-1.764463 3.56991,-1.77979 5.47419,-5.941205 4.00769,-8.757954 C 239.54295,76.547881 238.36262,73.475 237.5868,71 236.81098,68.525 235.2384,64.1375 234.09219,61.25 232.02125,56.033003 232.0207,56 234.00408,56 235.10183,56 236,56.494492 236,57.098871 c 0,0.604379 0.63619,2.516879 1.41376,4.25 0.77756,1.733121 1.93746,4.838629 2.57755,6.901129 1.77201,5.709786 4.53046,5.099468 6.46995,-1.431501 C 247.30757,63.968673 248,61.093526 248,60.429283 c 0,-2.186005 3.77478,-6.012115 4.86315,-4.929283 0.94842,0.943594 -2.92594,12.847379 -6.34672,19.5 -0.70703,1.375 -1.59357,3.941368 -1.97011,5.70304 C 243.42064,85.969741 240.39454,89 236.26075,89 c -1.97674,0 -3.30205,-0.292031 -2.94513,-0.648957 z M 255,87.069551 c 0,-0.511747 1.0125,-1.074247 2.25,-1.25 4.4928,-0.63808 5.74673,-5.670321 5.74845,-23.069551 C 262.99976,49.417357 263.23022,47 264.5,47 265.77862,47 266,49.697499 266,65.277494 266,86.524163 265.54166,88 258.9433,88 256.77448,88 255,87.581298 255,87.069551 Z M 126.8728,77.316287 C 121.94346,74.257031 121,71.24958 121,58.595708 121,47.666667 121.11499,47 123,47 c 1.85414,0 2.00174,0.674619 2.02386,9.25 0.0404,15.66669 1.87097,19.654328 9.05183,19.718197 2.57563,0.02291 4.25372,-0.689099 6,-2.54577 2.23779,-2.379264 2.44999,-3.494841 2.75806,-14.5 C 143.14072,47.956466 143.32123,47 145.08375,47 c 1.78526,0 1.91473,0.837391 1.89401,12.25 -0.0241,13.256664 -0.4499,14.498898 -6.19258,18.06442 -3.42913,2.129086 -10.48329,2.130033 -13.91238,0.0019 z m 59.79387,1.017046 c -0.82727,-0.827262 -0.89268,-31.773993 -0.0689,-32.597765 0.32877,-0.328771 1.22877,-0.355626 2,-0.05968 2.01161,0.77193 2.07892,33.32411 0.0689,33.32411 -0.73334,0 -1.63334,-0.3 -2,-0.666667 z m 14.06232,-0.02796 c -0.25162,-0.442952 -0.23488,-5.88956 0.0372,-12.103572 0.42544,-9.716734 0.72138,-11.254546 2.11425,-10.986305 C 204.26095,55.481354 204.5,57.220755 204.5,67 c 0,9.885283 -0.22923,11.516755 -1.65676,11.791673 -0.91122,0.175485 -1.86264,-0.04335 -2.11425,-0.486305 z M 217,69.490213 c 0,-8.070457 -0.28458,-9.753457 -1.88027,-11.119728 -1.84037,-1.575768 -1.84037,-1.649849 0,-3.490212 C 216.15388,53.846123 217,51.900517 217,50.556704 217,47.485861 220.42836,45 224.66349,45 c 4.27523,0 5.28272,1.860758 1.42521,2.63226 -1.67412,0.334823 -3.54112,1.207943 -4.14889,1.940267 C 220.39466,51.434315 221.75364,55 224.00837,55 c 1.03048,0 2.15171,0.45 2.49163,1 0.33992,0.55 -0.21852,1 -1.24098,1 C 221.71601,57 221,59.051028 221,69.2 c 0,9.133333 -0.13605,9.8 -2,9.8 -1.85979,0 -2,-0.666667 -2,-9.509787 z m 61.56224,7.929167 c -1.78952,-1.789518 -1.09046,-4.096353 0.77679,-2.563329 1.1058,0.907874 5.16313,1.478458 8.88792,1.249912 2.2563,-0.138443 4.99419,-4.366109 4.18804,-6.466892 C 291.79586,68.025644 283.6633,62 282.10486,62 280.24743,62 278,58.082914 278,54.845573 278,49.504684 281.25378,47 288.19201,47 c 3.43395,0 5.98937,0.513624 6.67687,1.342009 1.69892,2.047073 0.37938,2.593163 -4.78737,1.981239 -5.0442,-0.597412 -8.09715,1.105088 -8.0662,4.498181 0.0237,2.600287 1.0319,3.586668 7.48469,7.322866 5.82758,3.374197 6.00863,3.605599 6.30019,8.052288 0.27971,4.265794 0.0669,4.722437 -3.11803,6.690836 -4.17046,2.577483 -11.78743,2.864449 -14.11992,0.531961 z M 201,47.106989 c 0,-1.12404 2.60112,-2.172536 3.40223,-1.371421 C 205.606,46.939331 204.94919,48 203,48 c -1.1,0 -2,-0.401855 -2,-0.893011 z"
       id="path4546"
       inkscape:connector-curvature="0" />
    <path
       style="fill:#3482ba"
       d="m 159.52197,89.180103 c -4.26321,-0.990825 -5.73499,-5.401348 -2.73506,-8.19621 l 2.17079,-2.022395 -0.60335,3.01677 C 157.47534,86.373301 159.32142,88 165.18819,88 171.24672,88 174,86.645458 174,83.664816 c 0,-3.304268 -1.87328,-4.66304 -6.45,-4.678471 -5.77836,-0.01948 -8.29216,-0.89237 -8.86367,-3.077803 -0.6778,-2.59194 1.0066,-3.451398 1.80906,-0.923063 C 161.05301,76.742395 161.99684,77 167.87626,77 c 3.95126,0 7.47693,0.537771 8.5184,1.299314 2.48252,1.815266 1.73268,6.536765 -1.40884,8.870975 -2.76126,2.051669 -10.79256,3.095485 -15.46385,2.009814 z M 255,87.069551 c 0,-0.511747 1.0125,-1.074247 2.25,-1.25 4.4928,-0.63808 5.74673,-5.670321 5.74845,-23.069551 0.001,-13.434131 0.22535,-15.75 1.52362,-15.75 1.3183,0 1.48564,2.510027 1.25,18.75 -0.20468,14.105757 -0.58169,18.780962 -1.52207,18.875 -0.6875,0.06875 -1.7,0.18125 -2.25,0.25 -0.55,0.06875 -1,0.8 -1,1.625 0,1 -1,1.5 -3,1.5 -1.65,0 -3,-0.418702 -3,-0.930449 z m -15.43571,-3.362679 c 0.37553,-0.986221 0.93469,-1.541221 1.24258,-1.233333 0.30789,0.307887 6.4e-4,1.114794 -0.68278,1.793128 -0.98762,0.980267 -1.10248,0.865403 -0.5598,-0.559795 z m 2.55481,-2.893617 c -0.54765,-1.440437 -1.47349,-2.914247 -2.05742,-3.275133 C 239.47776,77.177236 239,76.178424 239,75.318538 c 0,-1.260399 0.28422,-1.327547 1.46638,-0.346442 2.61869,2.17332 3.76968,0.586237 6.09992,-8.411043 1.26026,-4.866021 2.95522,-9.511149 3.76658,-10.322507 1.72917,-1.729163 3.83211,-0.832067 3.01866,1.287735 -0.30861,0.804228 -1.01427,1.182165 -1.56813,0.83986 -1.0792,-0.666983 -2.74291,1.347952 -2.7681,3.352474 -0.008,0.674165 0.65432,0.961654 1.48349,0.643471 1.20917,-0.464002 1.1168,0.26672 -0.47804,3.781385 -1.08726,2.396091 -1.98672,5.088929 -1.9988,5.984084 C 248.00988,73.022711 247.325,74.315311 246.5,75 c -0.825,0.684689 -1.50689,2.202289 -1.51531,3.372445 -0.008,1.170155 -0.43259,2.787307 -0.94259,3.593671 -0.74735,1.181646 -1.12047,0.957957 -1.923,-1.152861 z M 130,78.127808 c 0,-0.479705 1.71357,-1.146203 3.80794,-1.481105 4.76414,-0.761817 8.07807,-4.199735 8.91959,-9.253307 0.58561,-3.516798 0.71207,-3.651577 1.30733,-1.393396 0.52505,1.99184 0.80793,1.382048 1.39167,-3 0.97752,-7.338008 0.42414,-13.570134 -1.17653,-13.25 -0.6875,0.1375 -1.25,-0.425 -1.25,-1.25 0,-0.833333 0.88889,-1.5 2,-1.5 1.87751,0 2,0.666667 2,10.88519 0,12.499729 -1.16813,16.322566 -5.85936,19.175473 C 137.94433,79.004459 130,79.765434 130,78.127808 Z M 186.5,78 c -0.33992,-0.55 0.30852,-1 1.44098,-1 1.13246,0 2.05902,0.45 2.05902,1 0,0.55 -0.64844,1 -1.44098,1 -0.79254,0 -1.7191,-0.45 -2.05902,-1 z m 14.18022,0.25 c -0.24079,-0.4125 -0.11147,-5.925 0.28739,-12.25 l 0.7252,-11.5 0.15359,11.25 c 0.12912,9.456929 0.40208,11.25 1.71262,11.25 0.85746,0 1.2809,0.45 0.94098,1 -0.72422,1.171819 -3.18755,1.333041 -3.81978,0.25 z m 16.43809,-9 c 0.0806,-6.638473 0.36193,-8.792607 0.88169,-6.75 l 0.76337,3 0.11832,-3.1849 c 0.21324,-5.740382 1.65105,-8.127078 4.56086,-7.570833 C 226.54634,55.337594 227.88502,57 225.25902,57 221.71601,57 221,59.051028 221,69.2 c 0,9.133333 -0.13605,9.8 -2,9.8 -1.87134,0 -1.99239,-0.627228 -1.88169,-9.75 z m 61.44393,8.16938 c -2.14622,-2.146219 -0.86692,-4.005086 1.36578,-1.984523 4.65102,4.209119 14.94091,-1.074208 12.17128,-6.249323 -0.53409,-0.997956 -3.02509,-3.112794 -5.53555,-4.69964 -2.70373,-1.709012 -4.1977,-3.251943 -3.66477,-3.784871 1.31806,-1.318066 5.07067,0.163181 7.75715,3.06194 1.28913,1.390995 2.34387,1.958272 2.34387,1.260615 0,-1.014144 0.30074,-1.018871 1.5,-0.02358 1.6598,1.377508 2.13356,8.509596 0.49813,7.498843 -0.55103,-0.340556 -1.47919,0.636228 -2.06256,2.170631 -0.58338,1.534402 -1.59504,3.12959 -2.24813,3.544861 -2.20719,1.403452 -10.46842,0.861828 -12.1252,-0.794955 z M 122.71561,73.095708 C 121.36041,70.801537 121,67.755441 121,58.595708 121,47.88154 121.14404,47 122.89467,47 c 1.73239,0 1.92511,1.010254 2.25,11.794677 0.28563,9.480902 0.729,12.374426 2.26013,14.75 l 1.9048,2.955323 -2.32436,-2 c -2.02429,-1.741793 -2.24198,-1.774069 -1.68619,-0.25 1.01893,2.794092 -0.70647,2.023177 -2.58344,-1.154292 z M 124,66.440983 c 0,-0.857459 -0.45734,-1.276365 -1.01631,-0.930902 -0.55897,0.345464 -0.75742,1.047021 -0.44098,1.559017 C 123.39994,68.456142 124,68.197509 124,66.440983 Z M 122.69299,55.269032 C 122.43945,54.296064 122.21533,54.85 122.19495,56.5 c -0.0204,1.65 0.18706,2.446064 0.46099,1.769032 0.27392,-0.677033 0.29059,-2.027033 0.037,-3 z M 189.3605,64 c 0,-5.225 0.16854,-7.3625 0.37454,-4.75 0.206,2.6125 0.206,6.8875 0,9.5 -0.206,2.6125 -0.37454,0.475 -0.37454,-4.75 z M 160,70.128571 c 0,-1.249285 -0.675,-2.946428 -1.5,-3.771428 -1.8967,-1.896703 -1.88056,-6.269892 0.0325,-8.799199 1.22748,-1.622896 2.98893,-2.000779 10.7182,-2.299378 8.08427,-0.312313 9.02889,-0.179765 7.49932,1.052299 -1.15964,0.934088 -1.75,2.811116 -1.75,5.564076 0,3.613937 -0.42284,4.412269 -3.25,6.136019 -1.7875,1.08986 -4.6225,1.983246 -6.3,1.985302 -1.6775,0.0021 -3.59,0.543738 -4.25,1.203738 -0.93333,0.933333 -1.2,0.695238 -1.2,-1.071429 z m 10.77705,-3.911426 c 1.21589,-1.593246 1.45384,-9.199507 0.28121,-8.989195 -0.30704,0.05507 -1.83043,-0.256177 -3.38531,-0.691658 C 163.89019,55.476838 160,57.572114 160,60.66898 160,61.951041 159.5125,63 158.91667,63 c -0.59584,0 -0.92209,0.48375 -0.725,1.075 0.19708,0.59125 0.68458,1.04125 1.08333,1 0.39875,-0.04125 1.664,0.863996 2.81166,2.011658 2.37854,2.378537 6.52851,1.963313 8.69039,-0.869513 z m 66.46122,3.156637 C 236.66424,67.793202 235.46148,64.7 234.56547,62.5 c -1.00086,-2.457421 -1.13479,-3.397634 -0.34729,-2.438029 0.705,0.859084 2.013,1.835849 2.90667,2.170589 1.79343,0.671765 3.06985,6.477323 1.89988,8.641222 -0.53431,0.98821 -1.0357,0.567212 -1.78646,-1.5 z m 41.4284,-10.040449 c -1.64123,-1.64123 -0.60256,-8.044935 1.64778,-10.159019 3.40082,-3.1949 14.68555,-2.98535 14.68555,0.272702 0,1.253064 -9.8572,1.377309 -11.84417,0.14929 -0.51107,-0.315857 -1.42935,0.02834 -2.04062,0.764877 -0.8287,0.998517 -0.69757,2.168721 0.5155,4.600367 1.3659,2.738027 1.4057,3.401306 0.24809,4.134515 -1.67334,1.059863 -2.34027,1.109127 -3.21213,0.237268 z M 215,55 c 1.1,-1.1 2,-3.099483 2,-4.443296 0,-1.391215 0.95701,-3.113612 2.22251,-4 2.55053,-1.78646 8.33647,-2.079303 9.32971,-0.472203 0.45279,0.73263 -0.74476,0.980352 -3.69098,0.763504 L 220.5,46.527008 218.07735,51.763504 C 216.7449,54.643577 215.0574,57 214.32735,57 213.44843,57 213.67568,56.324321 215,55 Z m -14,-7.893011 c 0,-1.12404 2.60112,-2.172536 3.40223,-1.371421 C 205.606,46.939331 204.94919,48 203,48 c -1.1,0 -2,-0.401855 -2,-0.893011 z"
       id="path4544"
       inkscape:connector-curvature="0" />
    <path
       style="fill:#327eb8"
       d="m 161.8125,88.316886 c 0.72187,-0.288871 1.58437,-0.253344 1.91667,0.07895 0.33229,0.332292 -0.25834,0.568641 -1.3125,0.52522 -1.16495,-0.04798 -1.4019,-0.284941 -0.60417,-0.604167 z m 6,0 c 0.72187,-0.288871 1.58437,-0.253344 1.91667,0.07895 0.33229,0.332292 -0.25834,0.568641 -1.3125,0.52522 -1.16495,-0.04798 -1.4019,-0.284941 -0.60417,-0.604167 z m 5.99711,-3.811738 c 0.22056,-1.889286 1.02863,-3.955935 1.79571,-4.592552 2.20046,-1.826227 1.81041,4.401202 -0.40103,6.402524 -1.69886,1.537444 -1.77408,1.439822 -1.39468,-1.809972 z m 81.27372,3.135528 C 256.27776,86.610631 261,86.084085 261,86.980948 261,87.541427 259.575,88 257.83333,88 c -1.74166,0 -2.97916,-0.161696 -2.75,-0.359324 z M 156.19495,84.5 c 0.0204,-1.65 0.2445,-2.203936 0.49804,-1.230968 0.25354,0.972967 0.23687,2.322967 -0.0371,3 C 156.38201,86.946064 156.17457,86.15 156.19495,84.5 Z m 85.84049,-4.75 c -0.0195,-1.5125 -0.4373,-2.75 -0.92845,-2.75 -0.49116,0 -1.19282,-0.7875 -1.55925,-1.75 -0.53418,-1.403147 -0.41665,-1.502248 0.59301,-0.5 0.69259,0.6875 2.06925,1.25 3.05925,1.25 2.145,0 2.19622,0.682907 0.3,4 l -1.42913,2.5 -0.0354,-2.75 z m 22.04351,-0.333333 c 0.048,-1.164943 0.28494,-1.4019 0.60416,-0.604167 0.28887,0.721875 0.25335,1.584375 -0.0789,1.916667 -0.33229,0.332291 -0.56864,-0.258334 -0.52522,-1.3125 z M 131.5,78.010942 c -1.60487,-0.698417 -1.24595,-0.884257 1.81672,-0.940657 2.4961,-0.04597 5.00468,-0.97638 7.25,-2.688974 3.8715,-2.952939 4.72427,-1.864487 1.04537,1.334279 -2.84975,2.477822 -7.34703,3.498666 -10.11209,2.295352 z m 69.28203,0.195384 C 200.62691,77.817847 200.75136,73.225 201.05858,68 l 0.55859,-9.5 0.19141,9.166667 c 0.12716,6.089275 0.59409,9.30089 1.39086,9.566479 0.75863,0.252877 0.58664,0.634964 -0.46798,1.03966 -0.91707,0.351915 -1.79432,0.321999 -1.94943,-0.06648 z m 80.80047,-0.07464 c -1.60463,-0.347427 -3.03338,-1.205435 -3.175,-1.906685 -0.14163,-0.70125 -0.0288,-0.81375 0.25083,-0.25 0.72284,1.457533 10.69113,1.273705 12.20092,-0.225 1.00932,-1.001912 1.13452,-0.922235 0.63082,0.401458 -0.96934,2.54737 -4.25505,3.204087 -9.90757,1.980227 z M 163.25,77.310674 c 0.9625,-0.251527 2.5375,-0.251527 3.5,0 0.9625,0.251528 0.175,0.457323 -1.75,0.457323 -1.925,0 -2.7125,-0.205795 -1.75,-0.457323 z m 24.5625,0.0062 c 0.72187,-0.288871 1.58437,-0.253344 1.91667,0.07895 0.33229,0.332292 -0.25834,0.568641 -1.3125,0.52522 -1.16495,-0.04798 -1.4019,-0.284941 -0.60417,-0.604167 z m 29.9375,0.02083 C 218.6258,76.984328 219,74.014327 219,67.416667 219,62.2375 219.3392,58 219.75378,58 c 0.41458,0 0.75208,4.498899 0.75,9.997553 -0.004,9.355184 -0.13229,9.992638 -2.00378,9.921053 -1.1,-0.04207 -1.4375,-0.303474 -0.75,-0.580887 z M 246.01531,71.75 C 246.00689,70.2375 246.45,69 247,69 c 1.26441,0 1.26441,2.043466 0,4 -0.75538,1.168875 -0.97275,0.892937 -0.98469,-1.25 z m -123.93636,-2.5 c 0.0434,-1.5125 0.30685,-2.184696 0.58541,-1.493769 0.27855,0.690926 0.91803,1.001869 1.42105,0.690983 C 124.58843,68.136327 125,68.808524 125,69.940983 125,71.104554 124.34766,72 123.5,72 c -0.98884,0 -1.4731,-0.937135 -1.42105,-2.75 z m 23.17323,-2.75 c 0.0111,-2.2 0.21589,-2.982253 0.45508,-1.738341 0.23919,1.243913 0.23011,3.043913 -0.0202,4 C 145.43679,69.717747 145.24108,68.7 145.25218,66.5 Z M 294.116,69.331787 c -0.0638,-0.642516 -0.40723,-1.992516 -0.76318,-3 -0.50214,-1.42127 -0.36907,-1.575457 0.59378,-0.688007 0.68253,0.629079 1.02596,1.979079 0.76318,3 -0.26278,1.020921 -0.52998,1.330524 -0.59378,0.688007 z M 172,62.559017 C 172,60.051558 172.45,58 173,58 c 0.55,0 1,1.773442 1,3.940983 0,2.167541 -0.45,4.219098 -1,4.559017 -0.61081,0.377502 -1,-1.156282 -1,-3.940983 z m 65.07895,2.85765 c 0.048,-1.164943 0.28494,-1.4019 0.60416,-0.604167 0.28887,0.721875 0.25335,1.584375 -0.0789,1.916667 -0.3323,0.332291 -0.56864,-0.258334 -0.52522,-1.3125 z M 122.25218,62.5 c 0.0111,-2.2 0.21589,-2.982253 0.45508,-1.738341 0.23919,1.243913 0.23011,3.043913 -0.0202,4 C 122.43679,65.717747 122.24108,64.7 122.25218,62.5 Z M 288.25,64.915664 c -2.45672,-0.929421 -2.98041,-1.924612 -1,-1.900351 1.58802,0.01945 4.34503,1.733775 3.72104,2.313754 -0.25907,0.240797 -1.48354,0.05477 -2.72104,-0.413403 z M 124.10596,57.5 c -0.20419,-5.350021 -0.54488,-7.171882 -1.02854,-5.5 -0.69363,2.397721 -0.74439,2.363248 -1.24072,-0.842628 -0.35626,-2.301108 -0.0864,-3.508054 0.86603,-3.873539 0.76094,-0.292001 1.60746,-0.306972 1.88117,-0.03327 0.2737,0.273702 0.34683,4.491795 0.1625,9.373538 L 124.41127,65.5 l -0.30531,-8 z M 157,61.29815 C 157,60.170037 160.39623,56 161.31501,56 c 0.71609,0 0.67699,0.408001 -0.11501,1.2 -0.66,0.66 -1.2,1.935 -1.2,2.833333 0,0.898334 -0.675,1.633334 -1.5,1.633334 -0.825,0 -1.5,-0.165833 -1.5,-0.368517 z m 121.53451,-3.189419 c -0.50182,-1.581102 -0.30127,-2.636306 0.60848,-3.201531 1.74888,-1.086577 2.14623,0.136732 1.02709,3.162059 l -0.88704,2.397894 -0.74853,-2.358422 z M 221.8125,56.316886 c 0.72187,-0.288871 1.58437,-0.253344 1.91667,0.07895 0.33229,0.332292 -0.25834,0.568641 -1.3125,0.52522 -1.16495,-0.04798 -1.4019,-0.284941 -0.60417,-0.604167 z M 264.15789,55 c 0,-1.375 0.22698,-1.9375 0.50439,-1.25 0.27741,0.6875 0.27741,1.8125 0,2.5 -0.27741,0.6875 -0.50439,0.125 -0.50439,-1.25 z M 278.5,52 c 0.33992,-0.55 0.81648,-1 1.05902,-1 0.24254,0 0.44098,0.45 0.44098,1 0,0.55 -0.47656,1 -1.05902,1 -0.58246,0 -0.7809,-0.45 -0.44098,-1 z m -61.3341,-2.060681 c 0.18376,-1.255465 0.86119,-2.456108 1.50541,-2.668096 0.7465,-0.245641 0.97473,0.366303 0.6293,1.687256 -0.76697,2.932903 -2.53962,3.747388 -2.13471,0.98084 z M 144.25,49.281721 C 142.53242,48.665608 142.67184,47 144.44098,47 c 1.65637,0 2.96732,1.648963 1.82533,2.295956 -0.42147,0.238784 -1.32881,0.232379 -2.01631,-0.01423 z m 138.3622,-0.0029 c -0.30681,-0.306804 -0.3185,-0.945059 -0.026,-1.418345 C 283.63355,46.165872 293,47.295653 293,49.116631 c 0,1.312927 -2.7711,1.070084 -3.22191,-0.28235 -0.2889,-0.866715 -1.18621,-0.887659 -3.49832,-0.08165 -1.71036,0.596236 -3.36077,0.833043 -3.66757,0.526239 z M 264,47.940983 c 0,-0.582459 0.45,-0.780902 1,-0.440983 0.55,0.339919 1,0.816476 1,1.059017 C 266,48.801558 265.55,49 265,49 c -0.55,0 -1,-0.476558 -1,-1.059017 z M 201,47 c 0,-0.55 0.675,-1 1.5,-1 0.825,0 1.5,0.45 1.5,1 0,0.55 -0.675,1 -1.5,1 -0.825,0 -1.5,-0.45 -1.5,-1 z m 22.25,-0.689326 c 0.9625,-0.251527 2.5375,-0.251527 3.5,0 0.9625,0.251528 0.175,0.457323 -1.75,0.457323 -1.925,0 -2.7125,-0.205795 -1.75,-0.457323 z"
       id="path4542"
       inkscape:connector-curvature="0" />
  </g>
</svg>
