<?xml version="1.0" encoding="UTF-8" standalone="no"?>
<!-- Created with Inkscape (http://www.inkscape.org/) -->

<svg
   xmlns:dc="http://purl.org/dc/elements/1.1/"
   xmlns:cc="http://creativecommons.org/ns#"
   xmlns:rdf="http://www.w3.org/1999/02/22-rdf-syntax-ns#"
   xmlns:svg="http://www.w3.org/2000/svg"
   xmlns="http://www.w3.org/2000/svg"
   xmlns:xlink="http://www.w3.org/1999/xlink"
   xmlns:sodipodi="http://sodipodi.sourceforge.net/DTD/sodipodi-0.dtd"
   xmlns:inkscape="http://www.inkscape.org/namespaces/inkscape"
   id="svg4305"
   version="1.1"
   inkscape:version="0.91 r13725"
   width="139"
   height="123"
   viewBox="0 0 139 123"
   sodipodi:docname="VBNet.bmp.svg">
  <metadata
     id="metadata4311">
    <rdf:RDF>
      <cc:Work
         rdf:about="">
        <dc:format>image/svg+xml</dc:format>
        <dc:type
           rdf:resource="http://purl.org/dc/dcmitype/StillImage" />
        <dc:title></dc:title>
      </cc:Work>
    </rdf:RDF>
  </metadata>
  <defs
     id="defs4309" />
  <sodipodi:namedview
     pagecolor="#ffffff"
     bordercolor="#666666"
     borderopacity="1"
     objecttolerance="10"
     gridtolerance="10"
     guidetolerance="10"
     inkscape:pageopacity="0"
     inkscape:pageshadow="2"
     inkscape:window-width="640"
     inkscape:window-height="480"
     id="namedview4307"
     showgrid="false"
     inkscape:zoom="1.8848921"
     inkscape:cx="69.5"
     inkscape:cy="61.5"
     inkscape:window-x="0"
     inkscape:window-y="0"
     inkscape:window-maximized="0"
     inkscape:current-layer="svg4305" />
  <image
     width="139"
     height="123"
     preserveAspectRatio="none"
     style="image-rendering:optimizeQuality"
     xlink:href="file:///media/havoc/USB%20DISK/pics/_OpsDeps/VBNet.bmp"
     id="image4313"
     x="0"
     y="0"
     sodipodi:absref="/media/havoc/USB DISK/pics/_OpsDeps/VBNet.bmp" />
  <g
     id="g4503">
    <path
       style="fill:#fdfdfd"
       d="M 0,61.5 0,0 69.5,0 139,0 139,61.5 139,123 69.5,123 0,123 0,61.5 Z"
       id="path4519"
       inkscape:connector-curvature="0" />
    <path
       style="fill:#e9d6e9"
       d="M 16.307002,79.800558 C 15.745008,79.085251 14.071878,72.875 12.588936,66 10.696382,57.226021 9.3125085,53.005097 7.9463381,51.839707 6.8758522,50.926546 6,49.677909 6,49.064957 c 0,-2.721811 8.977004,-3.529216 10.570592,-0.950736 0.303433,0.490964 1.612434,5.053613 2.908892,10.13922 L 21.836679,67.5 24.494378,61.744034 c 1.603638,-3.473112 2.589113,-7.240874 2.484768,-9.5 -0.09511,-2.059219 -0.129329,-4.234756 -0.07604,-4.834528 0.06496,-0.731069 4.347183,-1.060668 12.992257,-1 10.99522,0.07716 13.192232,0.359203 14.910063,1.91409 3.107123,2.812399 3.570767,6.373626 1.325285,10.179435 l -1.954976,3.313437 2.412132,2.26608 C 58.271806,65.664526 59,67.436385 59,69.951808 59,76.900027 53.475786,81 44.113906,81 35.706153,81 36.00157,81.540111 35.987791,66.143011 L 35.975581,52.5 32.687966,60 c -6.507722,14.845997 -9.963829,20.473946 -12.773562,20.800558 -1.422078,0.165307 -3.045409,-0.284693 -3.607402,-1 z M 49,74 c 1.1,-1.1 2,-2.675 2,-3.5 0,-1.653327 -3.454121,-5.5 -4.938727,-5.5 -0.5163,0 -1.237604,1.99305 -1.602897,4.429001 C 43.467371,76.037498 45.209303,77.790697 49,74 Z M 48.423442,56.690481 c 0.755104,-1.197088 0.755104,-2.183874 0,-3.380962 C 46.342291,50.010208 45,50.673026 45,55 c 0,4.326974 1.342291,4.989792 3.423442,1.690481 z M 60.03877,79.072442 C 58.643468,76.465297 59.71268,74.110217 62.623287,73.379701 66.828041,72.324375 69.763436,76.836564 66.8,79.8 c -1.834835,1.834835 -5.607124,1.428909 -6.76123,-0.727558 z m 10.360857,0.526587 c -0.295682,-0.770535 -0.05656,-4.003182 0.531385,-7.18366 1.691148,-9.148264 1.398651,-19.453828 -0.593492,-20.910519 -1.013027,-0.740743 -1.408048,-1.878673 -1.011182,-2.91289 0.520086,-1.355321 1.703271,-1.636283 5.872978,-1.394607 l 5.22168,0.302647 4.539502,7.726883 c 2.496726,4.249786 4.877002,7.737286 5.289502,7.75 C 90.6625,62.989597 91,60.075 91,56.5 c 0,-5.166667 0.410256,-6.910256 2,-8.5 2.150975,-2.150975 3.729207,-2.45811 5.819747,-1.132564 1.052057,0.667076 1.102198,2.033101 0.247198,6.734687 -0.589902,3.243832 -1.338803,10.292298 -1.664224,15.663256 -0.477874,7.887112 -0.928446,9.945613 -2.342592,10.702441 -2.639997,1.412883 -5.439668,-1.073769 -10.166025,-9.029406 -2.27891,-3.835974 -4.472479,-7.177835 -4.874597,-7.426358 -0.402118,-0.248523 -1.021656,3.022097 -1.376752,7.268042 -0.463201,5.538573 -1.123067,8.073101 -2.335322,8.969902 -2.248517,1.663407 -5.240907,1.586938 -5.907806,-0.150971 z m 31.523453,-1.522106 c -3.544359,-3.544356 -3.922245,-8.925984 -0.96708,-13.772589 3.08833,-5.065016 6.12537,-6.5328 12.71219,-6.143745 l 5.74633,0.339411 0.77089,-4.42748 c 0.81997,-4.70935 2.01222,-6.032588 5.4576,-6.057207 2.69045,-0.01922 3.34558,1.650863 2.65812,6.776237 -0.49191,3.667469 -0.32511,4.068594 1.81843,4.373144 3.69671,0.525222 3.66495,3.728403 -0.0443,4.470258 C 127.0993,64.230141 127,64.423554 127,69.625 c 0,5.305556 0.0388,5.375 3,5.375 2.31543,0 3,0.448354 3,1.964816 C 133,79.441007 130.14968,81 125.62245,81 120.92082,81 119,78.163575 119,71.22079 c 0,-5.333685 -2.2e-4,-5.334046 -2.25,-3.752702 -1.2375,0.869823 -3.94322,2.039226 -6.01272,2.598674 -3.32863,0.899827 -3.64148,1.24373 -2.71177,2.980911 0.86689,1.619795 1.72285,1.856295 4.88713,1.350306 5.12701,-0.819843 6.35039,1.118861 2.69184,4.26581 -4.02557,3.462652 -9.88315,3.211391 -13.6814,-0.586866 z"
       id="path4517"
       inkscape:connector-curvature="0" />
    <path
       style="fill:#d1a7d1"
       d="M 16.566585,78.312921 C 16.210519,77.385028 14.82641,71.466472 13.490787,65.160574 11.821118,57.277534 10.398385,52.988512 8.9371919,51.433144 L 6.8120008,49.170982 8.9437731,48.030092 C 11.493419,46.665563 14.65503,47.486901 15.914959,49.841099 16.721456,51.348053 18.538019,57.972473 20.414643,66.25 20.757547,67.7625 21.431678,69 21.912712,69 23.458446,69 28,56.122213 28,51.739214 l 0,-4.239744 10.75,-0.216435 c 6.146072,-0.123742 11.963777,0.264457 13.584125,0.906431 4.770279,1.889961 5.374549,6.565564 1.53568,11.882497 -0.907851,1.257397 -0.608163,2.09877 1.497613,4.204546 2.829149,2.829149 3.466768,7.296283 1.552091,10.873891 -1.485751,2.77615 -6.91387,4.852614 -12.63739,4.834287 -7.66491,-0.02454 -7.677484,-0.05001 -7.00911,-14.195535 0.32223,-6.819699 0.217935,-12.994787 -0.231765,-13.722418 -1.025683,-1.659591 -3.036446,-0.513074 -3.055619,1.742283 -0.0182,2.141259 -9.556101,22.058883 -11.695125,24.422478 -2.024767,2.237342 -4.881021,2.277974 -5.723915,0.08143 z m 32.97887,-3.767466 C 50.895455,73.195455 52,71.375 52,70.5 52,68.525396 47.593277,64 45.670455,64 44.217422,64 43,68.083975 43,72.958333 c 0,4.790591 2.689777,5.442799 6.545455,1.587122 z M 49.049847,57.906859 C 50.433011,55.322394 49.5631,51.430059 47.41839,50.607057 44.839685,49.617515 44,50.833902 44,55.559017 44,59.306825 44.30668,60 45.964816,60 c 1.080649,0 2.468913,-0.941913 3.085031,-2.093141 z m 11.94855,20.59121 c -1.111141,-1.338844 -1.074437,-1.8506 0.225999,-3.151036 2.212546,-2.212546 5.990719,-0.866848 5.5839,1.988857 -0.380593,2.671606 -3.962534,3.388117 -5.809899,1.162179 z m 10.508019,0.512313 c -0.336389,-0.54429 -0.137947,-3.551937 0.440983,-6.68366 C 73.282242,65.105896 73.315481,51.313012 72,50.5 69.848914,49.170556 71.181012,48 74.845012,48 c 4.488705,0 5.249897,0.735107 11.122816,10.741649 2.337599,3.982906 4.651129,6.993849 5.141176,6.690983 C 91.599052,65.129766 92,61.565667 92,57.512412 c 0,-5.366262 0.427167,-7.796722 1.571429,-8.940983 1.78066,-1.780661 2.388748,-1.883193 4.232644,-0.71368 1.008849,0.639874 1.075202,1.824935 0.293095,5.234687 -0.556038,2.42416 -1.296468,9.212689 -1.6454,15.08562 C 95.55467,83.277272 93.51724,83.453301 85.028703,69.164977 78.728238,58.559725 78.37376,58.52783 77.750984,68.510161 c -0.292368,4.686299 -1.086044,9.188636 -1.763726,10.005192 -1.413511,1.703177 -3.585842,1.943169 -4.480842,0.495029 z m 30.948134,-1.464927 c -4.178998,-4.178994 -2.720985,-13.144147 2.76224,-16.984751 2.5712,-1.800932 8.00843,-2.045723 10.91287,-0.49131 C 118.89952,61.551776 121,59.610709 121,55.568685 c 0,-4.02462 2.05297,-6.90195 4.5661,-6.399591 1.64945,0.329717 1.88396,1.091462 1.59439,5.178953 -0.29536,4.169265 -0.0678,4.863424 1.75,5.338797 2.82728,0.73935 2.63139,2.156636 -0.46056,3.332194 -2.38073,0.905152 -2.53015,1.351762 -2.25,6.725249 0.28411,5.449493 0.44638,5.772548 3.05007,6.072135 1.5125,0.174033 2.75,0.7207 2.75,1.214817 C 132,78.361577 128.48843,80 125.63717,80 121.35391,80 120,77.595264 120,69.987588 120,66.209333 119.55,62.839919 119,62.5 118.45,62.160081 118,62.378978 118,62.986438 118,64.974819 113.14417,69 110.74545,69 c -3.52371,0 -4.82008,1.742107 -3.48189,4.679104 0.98214,2.155575 1.54483,2.360115 4.92267,1.789433 C 115.24377,74.951968 116,75.132089 116,76.376918 c 0,4.143779 -9.73076,4.98323 -13.54545,1.168537 z m 7.91021,-14.580694 c -1.33167,-1.331672 -3.86028,1.424457 -2.83253,3.087395 0.49971,0.808542 1.16614,0.678044 2.29324,-0.449052 1.10919,-1.109194 1.27199,-1.905643 0.53929,-2.638343 z"
       id="path4515"
       inkscape:connector-curvature="0" />
    <path
       style="fill:#bb88c9"
       d="M 105.39966,78.57206 C 101.82031,77.013878 101,75.386037 101,69.841289 c 0,-3.100191 0.66788,-4.663012 2.98148,-6.976615 2.51221,-2.512206 3.6373,-2.932938 7.14816,-2.673077 5.55632,0.41126 7.39031,3.096694 4.00958,5.871053 C 113.84078,67.128192 111.85854,68 110.73423,68 c -1.97441,0 -1.98299,-0.06764 -0.25121,-1.981242 1.48145,-1.636976 1.57034,-2.249531 0.51161,-3.525229 -2.22273,-2.678221 -4.63293,0.604454 -4.76705,6.492687 -0.13923,6.112242 1.67357,8.414042 5.89613,7.486612 3.9044,-0.85755 3.69035,1.047741 -0.27293,2.429347 -1.73208,0.603804 -3.19458,1.080211 -3.25,1.058683 -0.0554,-0.02153 -1.49593,-0.646487 -3.20112,-1.388798 z M 17,78.439956 C 17,75.699642 11.554251,54.059678 10.418089,52.285183 8.4133608,49.154135 8.6508872,48 11.3,48 c 3.554352,0 4.466665,1.598213 6.80233,11.916495 1.193136,5.270928 2.545629,9.998421 3.005539,10.50554 1.27552,1.406449 7.147289,-12.022113 7.679728,-17.563311 C 29.142079,49.169553 29.657114,48 30.927229,48 35.888034,48 34.736896,53.059554 25.921232,70.002682 22.604511,76.377202 20.937905,78.57983 19.25,78.819551 18.0125,78.995304 17,78.824486 17,78.439956 Z M 37.978218,78.25 C 37.966238,77.8375 37.914893,70.975 37.864117,63 l -0.09232,-14.5 2.963851,-0.302152 2.963852,-0.302153 -0.09975,6.272574 c -0.106593,6.702878 1.162162,8.2454 4.614859,5.610635 2.835113,-2.163484 3.251402,-6.312893 0.872049,-8.692246 C 46.405515,48.405515 46.459819,48 49.5,48 c 2.968461,0 6.5,3.218197 6.5,5.923275 0,1.057801 -1.133891,3.270827 -2.519758,4.917837 l -2.519758,2.994562 2.908569,2.071084 c 3.370356,2.399904 4.539462,5.888567 3.175542,9.475948 C 56.052792,75.991346 51.40265,79 48.362569,79 46.939458,79 47.11108,78.493495 49.312909,76.195281 53.883611,71.424496 52.471996,65.445041 46.334157,63.577603 45.142943,63.215176 43.932048,63.300932 43.643278,63.768171 42.809521,65.117218 42.694216,75.321654 43.49094,77.25 44.088504,78.696311 43.674802,79 41.106989,79 39.398145,79 37.990198,78.6625 37.978218,78.25 Z M 61.5,78 C 60.576695,76.506062 61.861375,75 64.059017,75 65.333333,75 66,75.686937 66,77 c 0,2.121059 -3.347411,2.864928 -4.5,1 z m 10.854296,-2.25 c 1.506495,-8.422773 1.920202,-23.714323 0.681947,-25.20633 -1.034139,-1.246062 -0.970454,-1.631685 0.353369,-2.139684 3.71441,-1.425353 6.123343,0.599784 11.403743,9.586875 C 87.7047,62.945887 90.46095,67 90.918355,67 92.091254,67 93,61.753517 93,54.981989 c 0,-4.461749 0.377569,-5.912898 1.667217,-6.407783 2.704964,-1.037992 3.491726,0.771929 2.398035,5.5166 C 96.506254,56.515863 96.031001,62.55 96.009133,67.5 95.943084,82.45117 94.003553,82.647573 85.414589,68.572835 82.194866,63.296675 79.096925,59.132385 78.530274,59.318858 77.963623,59.50533 77.275,63.447371 77,68.078949 76.467891,77.040789 75.80905,79 73.327484,79 72.121135,79 71.903185,78.272146 72.354296,75.75 Z m 49.292544,2.487592 C 120.83019,76.916228 120.87263,59.701426 121.70413,55 c 0.63283,-3.578123 1.24807,-4.564319 3.00322,-4.813962 2.3843,-0.33913 2.40281,0.167192 0.63853,17.462191 C 124.77971,73.198294 126.10023,77 128.5942,77 c 0.83811,0 1.24572,0.45 0.9058,1 -0.72053,1.165847 -7.15908,1.360641 -7.85316,0.237592 z"
       id="path4513"
       inkscape:connector-curvature="0" />
    <path
       style="fill:#c987bb"
       d="M 17,78.370405 C 17,75.682212 11.537546,54.033587 10.418089,52.285183 8.5916798,49.432639 8.6190646,48 10.5,48 c 3.129742,0 5.341862,3.938628 7.529664,13.40639 C 19.248949,66.682876 20.664716,71 21.175813,71 c 1.630508,0 7.127478,-13.101009 7.611784,-18.141276 0.474352,-4.936682 1.895148,-6.150846 4.095358,-3.499755 1.457953,1.756726 0.01596,5.893328 -6.764266,19.404516 C 22.187367,76.597557 20.514518,79 18.990883,79 17.895897,79 17,78.716682 17,78.370405 Z m 20.978218,-0.01342 C 37.504183,59.706287 37.937555,48.471 39.139469,48.251253 42.018685,47.724844 42.847145,49.57586 42.836645,56.511807 42.81494,70.850547 42.480608,78 41.831787,78 c -0.367516,0 -1.380016,0.273145 -2.25,0.606989 -0.869983,0.333844 -1.591589,0.221344 -1.603569,-0.25 z M 49.25,76.314043 c 4.483174,-4.76599 3.336174,-10.560935 -2.5,-12.630659 -2.42247,-0.859097 -2.187046,-2.163222 0.621519,-3.44289 1.304335,-0.594295 2.665226,-2.250761 3.024202,-3.681035 C 51.073753,53.857965 49.644009,50 47.964816,50 47.434167,50 47,49.541427 47,48.980948 c 0,-1.161993 4.807218,-0.25084 6.75,1.279384 C 55.665034,51.768701 55.236393,56.763607 53,59 c -2.647668,2.647668 -2.544724,3.221151 1.056107,5.883361 2.570217,1.900243 3.00744,2.828542 2.75,5.838717 C 56.482928,74.500937 53.795244,77.191431 49,78.53635 l -2.5,0.701174 2.75,-2.923481 z m 12.230369,1.654193 c -0.388357,-0.628375 -0.235562,-1.613043 0.339546,-2.188151 1.343899,-1.343899 4.477138,-0.171685 3.930377,1.470441 -0.556604,1.671686 -3.386371,2.147328 -4.269923,0.71771 z M 72.354296,75.75 c 1.456699,-8.144364 1.918972,-23.715806 0.746013,-25.129135 -1.562514,-1.882714 0.02509,-2.878481 3.28488,-2.060325 1.795232,0.450575 4.038693,3.238435 8.149508,10.127075 4.044073,6.776796 5.98081,9.196878 6.74694,8.430748 0.591028,-0.591028 1.274456,-4.882409 1.518728,-9.536402 0.306433,-5.838308 0.861361,-8.621911 1.789858,-8.978209 2.250591,-0.863633 2.526318,0.96404 1.445646,9.58256 C 95.466141,62.729983 95,68.998692 95,72.116777 95,76.276696 94.593708,77.941931 93.473907,78.371639 91.968371,78.949368 91.349244,78.129432 82.442299,63.76202 80.826802,61.156131 79.000356,58.830378 78.38353,58.59368 77.630595,58.304752 77.029056,61.337123 76.553125,67.820781 75.899183,76.729504 75.123471,78.940585 72.636501,78.984687 72.161576,78.993109 72.034584,77.5375 72.354296,75.75 Z M 103.1161,77.116097 C 101.57776,75.577755 101,73.750369 101,70.423077 c 0,-3.767126 0.53873,-5.115654 3.04487,-7.621795 2.87272,-2.872716 5.401,-3.322343 3.23578,-0.575448 -0.55239,0.700791 -1.28641,3.437226 -1.63116,6.080966 -0.5549,4.255434 -0.33651,5.097087 1.90393,7.337527 2.06818,2.068187 2.80161,2.305916 4.01282,1.3007 0.81515,-0.676516 1.77122,-0.940903 2.12459,-0.587528 1.06441,1.064409 -0.31145,1.781929 -4.49215,2.342677 -3.15895,0.423706 -4.3973,0.101205 -6.08258,-1.584079 z m 18.53074,1.121495 c -0.81667,-1.321398 -0.7742,-18.536777 0.0573,-23.224477 0.57043,-3.215905 1.32725,-4.589055 2.67178,-4.847572 1.78522,-0.343251 1.84062,0.251003 1.14605,12.293285 -0.65199,11.30405 -0.54221,12.861315 1.02908,14.597572 1.70593,1.885035 1.66565,1.9436 -1.33704,1.9436 -1.70278,0 -3.308,-0.343084 -3.56716,-0.762408 z M 110.48302,66.018758 c 1.48086,-1.636329 1.57008,-2.24985 0.51249,-3.524166 -1.68955,-2.035781 -0.69207,-2.886234 2.45792,-2.095636 3.88396,0.974811 3.50432,5.071522 -0.60265,6.503219 -4.25091,1.481874 -4.44334,1.410078 -2.36776,-0.883417 z"
       id="path4511"
       inkscape:connector-curvature="0" />
    <path
       style="fill:#b379c2"
       d="M 17.144137,75.25 C 16.631014,73.1875 15.233042,67.120129 14.037532,61.766953 12.842023,56.413777 11.444506,51.77472 10.931939,51.457936 9.3109554,50.456113 9.9228451,49 11.964816,49 c 2.592623,0 3.634809,2.155797 6.137101,12.694802 2.45748,10.350268 2.651704,10.754564 4.449657,9.262395 2.107088,-1.748727 7.670365,-17.015868 7.1646,-19.661605 -0.553718,-2.89659 0.991118,-4.016871 2.902884,-2.105106 1.228244,1.228244 1.232682,1.978275 0.03184,5.381809 C 29.889135,62.399981 20.972343,79 19.529427,79 c -0.845734,0 -1.842009,-1.566281 -2.38529,-3.75 z m 45.302012,2.662868 c -1.030521,-1.667419 1.287209,-3.57951 2.666719,-2.2 C 66.266792,76.866792 65.544589,79 64,79 63.514919,79 62.815686,78.51079 62.446149,77.912868 Z m 10.123367,0.199612 c -0.271993,-0.440095 -0.0055,-2.557942 0.592289,-4.706326 0.597753,-2.148385 1.143381,-8.517403 1.212509,-14.153374 0.119512,-9.743856 0.230158,-10.247356 2.252479,-10.25 1.623114,-0.0021 3.469392,2.247061 7.795945,9.49722 3.118034,5.225 6.323477,9.5 7.123207,9.5 1.137111,0 1.457031,-1.580298 1.46771,-7.25 0.01645,-8.732559 0.718501,-11.75 2.733819,-11.75 1.196669,0 1.38023,0.786405 0.875319,3.75 -0.351391,2.0625 -0.930142,8.60704 -1.286115,14.543421 -0.534745,8.917662 -0.912402,10.742353 -2.173102,10.499564 -0.839232,-0.161621 -4.152397,-4.568661 -7.362587,-9.793421 -3.21019,-5.22476 -6.444176,-9.633602 -7.186635,-9.797426 -1.027697,-0.226762 -1.518639,2.081865 -2.056728,9.671633 -0.5029,7.093436 -1.108775,10.123747 -2.100189,10.504188 -0.766363,0.294081 -1.615927,0.174616 -1.887921,-0.265479 z m 31.313994,-1.005723 c -4.270019,-3.457653 -2.13054,-14.201955 3.17734,-15.956327 1.11243,-0.367684 1.18673,-0.154974 0.3273,0.936949 -0.61152,0.776941 -1.39679,3.59666 -1.74505,6.26604 -0.58879,4.513097 -0.41576,5.056528 2.46761,7.75 L 111.21151,79 l -2.49497,0 c -1.37223,0 -3.5471,-0.85196 -4.83303,-1.893243 z m 18.15167,-0.04102 c -2.41003,-4.50319 -0.14919,-25.868316 2.84236,-26.860539 1.14691,-0.380401 1.25507,1.666362 0.64605,12.225352 -0.65362,11.332255 -0.54425,12.889137 1.02745,14.625846 1.69939,1.877808 1.67025,1.9436 -0.86087,1.9436 -1.56667,0 -3.03594,-0.777554 -3.65499,-1.934259 z M 38.431088,63.504451 c 0.06738,-14.17381 0.116958,-14.495647 2.233585,-14.5 1.968677,-0.004 2.199178,0.606715 2.545763,6.745549 0.2096,3.7125 -0.01489,7.578717 -0.498876,8.591594 -0.483981,1.012876 -0.729575,4.501196 -0.545763,7.751822 0.306332,5.417337 0.161663,5.910076 -1.734709,5.908406 -1.999821,-0.0018 -2.066612,-0.485906 -2,-14.497371 z M 50.92742,75.365141 C 52.067339,73.915969 53,71.645514 53,70.319687 53,67.764804 48.967757,63 46.805673,63 c -0.70688,0 -0.05233,-1.143211 1.454545,-2.540469 2.874797,-2.665662 3.501508,-6.167715 1.704598,-9.525272 C 49.116155,49.34852 49.260301,49 50.764816,49 55.137471,49 56.573837,55.426163 53,59 c -2.641777,2.641777 -2.542293,3.222948 1,5.841879 4.028414,2.978335 4.196193,8.072035 0.365141,11.085541 -3.92574,3.087988 -6.037347,2.74261 -3.437721,-0.562279 z m 60.49755,-11.868084 c -0.0771,-3.595658 0.27315,-3.933867 2.99324,-2.890068 2.05051,0.786854 2.05051,4.999168 0,5.786022 -2.6337,1.010646 -2.91527,0.738226 -2.99324,-2.895954 z"
       id="path4509"
       inkscape:connector-curvature="0" />
    <path
       style="fill:#b36bb4"
       d="M 18.256805,77.762331 C 17.702101,77.068049 16.257404,71.775 15.046368,66 13.835331,60.225 12.204474,54.193363 11.422241,52.596362 9.6255072,48.928162 9.6134719,49 12.024751,49 c 2.427002,0 3.460831,2.392057 5.980098,13.836653 1.009318,4.585159 2.085255,8.586785 2.390971,8.892501 1.271565,1.271564 3.715099,-2.393737 6.623297,-9.934947 1.701713,-4.412688 2.968089,-8.984075 2.81417,-10.158638 C 29.554035,49.504583 29.993905,49 32.130842,49 c 2.123051,0 0.05977,6.961136 -5.200843,17.546726 -5.640779,11.350568 -7.07922,13.210666 -8.673194,11.215605 z m 44.340961,0.502101 C 61.394002,77.060669 62.050814,76 64,76 c 1.1,0 2,0.401855 2,0.893011 0,1.12404 -2.601119,2.172536 -3.402234,1.371421 z M 104.1138,77.25 c -2.98818,-2.480962 -3.56011,-7.042677 -1.40303,-11.190449 0.98408,-1.892247 2.39543,-3.631813 3.13634,-3.865702 1.06252,-0.335417 1.11534,0.0078 0.25,1.624708 C 105.4937,64.946035 105,67.719588 105,69.982007 c 0,3.163746 0.61093,4.67968 2.64602,6.565742 C 110.09144,78.814083 110.13774,79 108.25681,79 c -1.11938,0 -2.98374,-0.7875 -4.14301,-1.75 z m 18.45763,0.178571 c -2.84093,-2.840931 -1.01941,-27.77109 1.92857,-26.39527 1.04341,0.486959 0.99723,7.748748 -0.1062,16.700435 -0.48377,3.924685 -0.25154,5.834431 0.92849,7.635381 2.30355,3.515671 0.24586,5.056178 -2.75086,2.059454 z M 38.431088,63.504451 C 38.496714,49.700077 38.595364,49.008691 40.5,49.004468 c 1.828412,-0.0041 1.988854,0.61757 1.870083,7.245549 -0.07146,3.987491 -0.183955,10.512483 -0.25,14.499983 -0.104327,6.298722 -0.358744,7.25 -1.938995,7.25 -1.678066,0 -1.813577,-1.122459 -1.75,-14.495549 z M 50.031803,77.25 c 0.01749,-0.4125 0.692492,-1.623508 1.5,-2.69113 C 52.339312,73.491249 53,71.639435 53,70.443729 53,67.717159 49.376069,63 47.281397,63 c -1.139666,0 -0.84397,-0.676052 1.07258,-2.452251 2.790321,-2.585982 3.405853,-6.259477 1.610839,-9.61349 -1.189847,-2.22325 -0.01162,-2.564861 3.100925,-0.899075 C 55.850005,51.525276 55.559695,56.125566 52.5,59 c -3.123222,2.934115 -3.133904,3.808492 -0.0608,4.976883 5.009011,1.904423 5.759655,9.369573 1.259113,12.521875 -2.340936,1.639654 -3.716131,1.921422 -3.66651,0.751242 z M 72.419854,76.351424 C 73.756897,72.873085 75.20958,57.545709 74.614019,53.200614 74.058073,49.144549 74.163714,48.884086 76.244033,49.18173 77.467501,49.356778 79.302242,50.85 80.321234,52.5 86.580898,62.635943 90.627825,68.411049 91.5,68.452488 92.05,68.478619 92.610661,65.575 92.745913,62 c 0.365892,-9.671277 1.110453,-13 2.907808,-13 1.217365,0 1.399928,0.608253 0.825392,2.75 -0.405736,1.5125 -1.01702,7.925 -1.358408,14.25 -0.48682,9.019473 -0.929343,11.5 -2.051587,11.5 -0.786986,0 -4.057523,-4.275 -7.267861,-9.5 -8.230136,-13.394996 -9.537206,-13.136216 -10.048227,1.989395 -0.217798,6.446556 -0.51702,7.539805 -2.148939,7.851424 -1.488885,0.284306 -1.743123,-0.03544 -1.184237,-1.489395 z M 111.7866,63.99935 c -0.543,-3.699672 0.26287,-4.422499 2.81608,-2.525886 1.48604,1.103886 1.66507,1.788535 0.82588,3.158448 -1.76656,2.883771 -3.16143,2.6415 -3.64196,-0.632562 z"
       id="path4507"
       inkscape:connector-curvature="0" />
    <path
       style="fill:#a752a8"
       d="M 16.99121,72.25 C 14.667315,60.636446 12.970847,53.814044 11.91747,51.845792 c -0.593731,-1.109397 -0.807337,-2.289258 -0.474681,-2.621915 1.553827,-1.553826 3.785086,3.275294 5.925547,12.824678 1.681799,7.503126 2.79234,10.539914 3.936736,10.765059 1.313325,0.258378 1.398568,0.74272 0.48399,2.75 C 19.945491,79.609811 18.226336,78.422485 16.99121,72.25 Z M 39.222543,63.832039 C 39.423115,53.590126 39.846384,49.548975 40.75,49.248705 42.163142,48.779122 42.455421,59.527322 41.348286,71.25 40.233496,83.053738 38.934863,78.522048 39.222543,63.832039 Z M 63,77 c 0,-0.55 0.45,-1 1,-1 0.55,0 1,0.45 1,1 0,0.55 -0.45,1 -1,1 -0.55,0 -1,-0.45 -1,-1 z m 10.609536,-3 c 1.24811,-7.889344 2.431809,-10.082745 1.946866,-3.607551 -0.242716,3.240847 -0.940232,6.390847 -1.550037,7 C 73.19479,78.203155 73.088433,77.293915 73.609536,74 Z m 29.947164,1.777494 c -2.00039,-2.855959 -1.99479,-7.852993 0.0116,-10.336364 1.47289,-1.823057 1.53523,-1.696552 1.02482,2.079762 -0.34684,2.566162 -0.01,5.049618 0.93172,6.864306 C 107.26067,77.731055 107.30024,78 106.0567,78 c -0.51881,0 -1.64381,-1.000128 -2.5,-2.222506 z m 18.76728,0.624399 c -1.67969,-4.377211 1.07546,-27.727757 2.98932,-25.335226 0.19066,0.238333 -0.0978,5.119157 -0.64106,10.846274 -0.68773,7.250386 -0.66247,11.274596 0.0832,13.25 C 125.62392,77.463899 125.55331,78 124.38175,78 c -0.79449,0 -1.72048,-0.719148 -2.05777,-1.598107 z M 85.865099,66.94124 C 80.330264,58.048733 79.337446,56.949475 77.302185,57.460292 75.189568,57.990526 75,57.712025 75,54.078069 75,46.284863 77.092526,47.650811 84.837899,60.5 c 3.727538,6.1838 5.314945,7.981974 6.992214,7.920599 C 93.734724,68.350905 94,68.870482 94,72.670599 94,75.05177 93.578311,77 93.062914,77 92.547517,77 89.3085,72.473558 85.865099,66.94124 Z m -32.773885,6.226949 c 0.655656,-1.880817 0.646498,-3.727858 -0.02727,-5.5 C 51.994565,64.855506 52.786101,64.186101 54.8,66.2 c 2.404535,2.404535 0.934512,9.8 -1.94798,9.8 -0.41139,0 -0.303752,-1.274315 0.239194,-2.831811 z M 113,63.377555 c 0,-2.169587 0.24876,-2.415989 1.44056,-1.426887 0.79231,0.657557 1.19416,1.837657 0.89301,2.622445 C 114.43225,66.921928 113,66.188146 113,63.377555 Z M 94.346087,56.5 c 0.0917,-4.170457 0.558133,-6.858523 1.153913,-6.65 0.55,0.1925 0.861618,0.832646 0.692484,1.422547 -0.169133,0.589901 -0.688394,3.582401 -1.153912,6.65 L 94.192175,63.5 l 0.153912,-7 z M 29.475832,58 c 0.273272,-1.375 0.503003,-4 0.510513,-5.833333 0.0091,-2.232502 0.426467,-3.186846 1.263655,-2.889768 1.551043,0.550392 1.263977,3.620594 -0.741876,7.934455 C 29.317326,59.772327 29.088912,59.946829 29.475832,58 Z M 51.5,54.5 c 0,-4.827687 0.805558,-5.666094 2.464959,-2.565475 0.687648,1.284883 0.707775,2.79605 0.05994,4.5 C 52.547497,60.320373 51.5,59.517801 51.5,54.5 Z"
       id="path4505"
       inkscape:connector-curvature="0" />
  </g>
</svg>
