<?xml version="1.0" encoding="UTF-8" standalone="no"?>
<!-- Created with Inkscape (http://www.inkscape.org/) -->

<svg
   xmlns:dc="http://purl.org/dc/elements/1.1/"
   xmlns:cc="http://creativecommons.org/ns#"
   xmlns:rdf="http://www.w3.org/1999/02/22-rdf-syntax-ns#"
   xmlns:svg="http://www.w3.org/2000/svg"
   xmlns="http://www.w3.org/2000/svg"
   xmlns:xlink="http://www.w3.org/1999/xlink"
   xmlns:sodipodi="http://sodipodi.sourceforge.net/DTD/sodipodi-0.dtd"
   xmlns:inkscape="http://www.inkscape.org/namespaces/inkscape"
   id="svg4315"
   version="1.1"
   inkscape:version="0.91 r13725"
   width="473"
   height="123"
   viewBox="0 0 473 123"
   sodipodi:docname="Vue.bmp.svg">
  <metadata
     id="metadata4321">
    <rdf:RDF>
      <cc:Work
         rdf:about="">
        <dc:format>image/svg+xml</dc:format>
        <dc:type
           rdf:resource="http://purl.org/dc/dcmitype/StillImage" />
        <dc:title></dc:title>
      </cc:Work>
    </rdf:RDF>
  </metadata>
  <defs
     id="defs4319" />
  <sodipodi:namedview
     pagecolor="#ffffff"
     bordercolor="#666666"
     borderopacity="1"
     objecttolerance="10"
     gridtolerance="10"
     guidetolerance="10"
     inkscape:pageopacity="0"
     inkscape:pageshadow="2"
     inkscape:window-width="640"
     inkscape:window-height="480"
     id="namedview4317"
     showgrid="false"
     inkscape:zoom="0.55391121"
     inkscape:cx="236.5"
     inkscape:cy="61.5"
     inkscape:window-x="0"
     inkscape:window-y="0"
     inkscape:window-maximized="0"
     inkscape:current-layer="svg4315" />
  <image
     width="473"
     height="123"
     preserveAspectRatio="none"
     style="image-rendering:optimizeQuality"
     xlink:href="file:///media/havoc/USB%20DISK/pics/_OpsDeps/Vue.bmp"
     id="image4323"
     x="0"
     y="0"
     sodipodi:absref="/media/havoc/USB DISK/pics/_OpsDeps/Vue.bmp" />
  <g
     id="g4466">
    <path
       style="fill:#fdfdfd"
       d="M 0,61.5 0,0 236.5,0 473,0 473,61.5 473,123 236.5,123 0,123 0,61.5 Z"
       id="path4482"
       inkscape:connector-curvature="0" />
    <path
       style="fill:#9aa3ab"
       d="M 51.448502,92.799439 C 48.808753,88.234748 43.639735,79.325 39.961796,73 21.705522,41.604449 14,27.784043 14,26.435656 c 0,-1.263662 2.543923,-1.442434 17.207897,-1.20927 L 48.415795,25.5 l 4.119897,7 c 2.265944,3.85 4.529121,6.950335 5.029283,6.889633 0.500163,-0.0607 2.734101,-3.210701 4.964308,-7 L 66.584205,25.5 83.792103,25.226386 C 98.578663,24.991273 101,25.164845 101,26.459923 101,27.84173 96.119971,36.529108 68.677558,84 c -5.24616,9.075 -10.188957,16.63475 -10.983992,16.79944 -0.905512,0.18758 -3.238502,-2.801011 -6.245064,-8.000001 z M 140.70455,87.75 c -1.49411,-1.524915 -4.60645,-10.086048 -9.65786,-26.565917 -7.80872,-25.475433 -8.01922,-27.284403 -3.25776,-27.995352 3.05762,-0.456544 4.2852,2.188915 10.23709,22.061269 2.92393,9.7625 5.66595,17.75 6.09337,17.75 0.42742,0 1.51029,-2.5875 2.40638,-5.75 5.34518,-18.864385 10.15255,-32.659634 11.72423,-33.643867 2.19223,-1.372842 5.11907,0.229404 5.54173,3.033727 0.16046,1.064583 -3.08255,12.718626 -7.20668,25.897873 -5.40542,17.273764 -8.09969,24.450738 -9.65252,25.712267 -2.79574,2.271269 -3.57391,2.208795 -6.22798,-0.5 z m 33.69652,0.399672 c -2.25441,-1.054139 -5.17941,-3.431554 -6.5,-5.283144 -2.16477,-3.035209 -2.4338,-4.576849 -2.73365,-15.664564 C 164.81996,54.353533 165.42349,52 169.06574,52 172.76351,52 174,55.770967 174,67.048192 c 0,9.79041 0.17741,10.769848 2.31445,12.777494 2.90368,2.727864 6.65684,2.781357 9.49699,0.135359 1.20371,-1.121425 2.24958,-2.133925 2.32415,-2.25 0.0746,-0.116075 0.41207,-5.564059 0.75,-12.106632 0.50687,-9.813413 0.92073,-12.088004 2.36441,-12.994885 1.2725,-0.799348 2.2275,-0.798661 3.5,0.0025 2.48019,1.561548 3.09537,23.852505 0.78175,28.326553 -3.9144,7.569614 -13.42371,10.814771 -21.13068,7.211074 z m 38.25412,0.391679 c -8.27425,-2.950176 -11.17752,-8.500721 -10.4419,-19.963123 0.51514,-8.026971 2.21982,-11.446719 7.25821,-14.560617 3.94886,-2.440525 12.28926,-2.709805 16.49932,-0.5327 6.23808,3.225838 9.76663,12.214466 6.65756,16.959502 -1.52291,2.324253 -2.25022,2.501462 -11.36612,2.769367 -8.53219,0.250751 -9.78272,0.514141 -10.09118,2.125431 -0.19365,1.011566 0.66708,2.924066 1.91273,4.25 2.57949,2.745743 8.01505,3.227708 13.60503,1.206343 2.82878,-1.022899 3.57871,-0.956574 4.97531,0.440022 1.49521,1.495212 1.50343,1.859725 0.0905,4.01609 -2.80801,4.285561 -11.90963,5.85322 -19.09948,3.289685 z M 225,64.828741 C 225,61.605731 222.12437,59 218.56752,59 214.41939,59 211,61.510798 211,64.556704 211,66.91507 211.24332,67 218,67 c 6.51738,0 7,-0.1497 7,-2.171259 z"
       id="path4480"
       inkscape:connector-curvature="0" />
    <path
       style="fill:#61ac8f"
       d="M 56.362868,98.839948 C 49.490503,88.2127 15.286359,27.313641 15.864937,26.735063 16.298898,26.301102 23.583656,26.070684 32.053288,26.223022 L 47.45262,26.5 51.956979,34.25 C 54.434376,38.5125 56.928736,42 57.5,42 c 0.571264,0 3.065624,-3.4875 5.543021,-7.75 L 67.54738,26.5 82.946712,26.223022 c 8.469632,-0.152338 15.75439,0.07808 16.188351,0.512041 C 99.827057,27.427057 60.677058,96.722942 58.1877,99.2123 57.571747,99.828253 56.915368,99.69432 56.362868,98.839948 Z M 175.05854,86.793665 c -7.39677,-3.819854 -8.49676,-6.186829 -8.88103,-19.110273 -0.35248,-11.854233 0.66137,-15.449923 3.99553,-14.170484 1.33832,0.51356 1.68177,2.684308 1.97362,12.474077 0.32541,10.915299 0.545,12.056314 2.77765,14.432666 3.58037,3.810803 9.04534,3.593559 12.4868,-0.496376 C 189.8466,77.028861 190,76.206547 190,66.045719 190,57.664933 190.33609,54.965958 191.5,54 c 1.20015,-0.996037 1.81573,-0.982857 3.07945,0.06593 1.31234,1.089153 1.52373,3.296529 1.25,13.053021 -0.28006,9.981698 -0.63857,12.155646 -2.39124,14.499832 -5.16311,6.905647 -11.54745,8.703185 -18.37967,5.174878 z m 38.59665,0.792913 c -5.29146,-1.94891 -8.47668,-5.213559 -9.77763,-10.021448 -1.40025,-5.174921 -0.55196,-14.886914 1.58519,-18.14862 5.35603,-8.174336 18.31535,-8.599246 24.44895,-0.801631 2.39454,3.044156 2.87222,10.489634 0.78418,12.222558 -0.71727,0.59528 -5.55477,1.21288 -10.75,1.372445 L 210.5,72.5 l -0.32647,2.854148 c -0.72543,6.341977 7.44536,10.27737 15.09743,7.271553 4.3599,-1.712621 6.46999,-0.998969 5.38745,1.82209 -1.30729,3.406729 -11.27825,5.247365 -17.00322,3.138787 z M 226.29511,64.62859 c -0.60274,-8.447253 -13.26873,-9.955266 -16.03371,-1.908975 -1.67344,4.869836 -0.85046,5.385852 8.0849,5.069271 L 226.5,67.5 226.29511,64.62859 Z m -85.12023,22.082127 c -1.09144,-1.315102 -4.26698,-10.868512 -12.66367,-38.097802 -3.14153,-10.187551 -3.4655,-12.087199 -2.26595,-13.286745 2.90635,-2.906354 4.30515,-0.230443 10.16253,19.441056 3.2316,10.853025 6.4367,20.341536 7.12244,21.085579 1.41889,1.53952 0.6347,3.602564 8.49665,-22.352805 5.57433,-18.403055 6.92286,-20.978832 9.58799,-18.313703 1.48649,1.486491 0.98692,3.630071 -6.28411,26.964286 -7.48076,24.007264 -8.03407,25.36533 -10.45047,25.649975 -1.40331,0.165307 -3.07075,-0.325122 -3.70541,-1.089841 z"
       id="path4478"
       inkscape:connector-curvature="0" />
    <path
       style="fill:#6b7884"
       d="M 52.754331,90.316169 C 50.271999,86.017276 43.8254,74.85 38.428555,65.5 33.031711,56.15 26.001895,44.023091 22.806743,38.551312 19.611591,33.079534 17.335466,28.270271 17.748688,27.864061 c 0.413221,-0.40621 7.25672,-0.8793 15.207774,-1.051312 L 47.412925,26.5 51.937131,34.25 C 54.425445,38.5125 56.928736,42 57.5,42 c 0.571264,0 3.074823,-3.4875 5.563463,-7.75 l 4.5248,-7.75 13.955869,0.274403 c 7.675727,0.150922 14.556546,0.488949 15.290708,0.751171 1.49879,0.535327 2.166452,-0.766849 -13.317799,25.974426 -5.414018,9.35 -13.189957,22.85 -17.279865,30 -4.089908,7.15 -7.781193,13.367276 -8.202855,13.816169 -0.421663,0.448893 -2.797658,-2.701107 -5.27999,-7 z M 175.05854,86.793665 c -7.39677,-3.819854 -8.49676,-6.186829 -8.88103,-19.110273 -0.35248,-11.854233 0.66137,-15.449923 3.99553,-14.170484 1.33832,0.51356 1.68177,2.684308 1.97362,12.474077 0.32541,10.915299 0.545,12.056314 2.77765,14.432666 3.58037,3.810803 9.04534,3.593559 12.4868,-0.496376 C 189.8466,77.028861 190,76.206547 190,66.045719 190,57.664933 190.33609,54.965958 191.5,54 c 1.20015,-0.996037 1.81573,-0.982857 3.07945,0.06593 1.31234,1.089153 1.52373,3.296529 1.25,13.053021 -0.28006,9.981698 -0.63857,12.155646 -2.39124,14.499832 -5.16311,6.905647 -11.54745,8.703185 -18.37967,5.174878 z m 38.59665,0.792913 c -5.29146,-1.94891 -8.47668,-5.213559 -9.77763,-10.021448 -1.40025,-5.174921 -0.55196,-14.886914 1.58519,-18.14862 5.35603,-8.174336 18.31535,-8.599246 24.44895,-0.801631 2.39454,3.044156 2.87222,10.489634 0.78418,12.222558 -0.71727,0.59528 -5.55477,1.21288 -10.75,1.372445 L 210.5,72.5 l -0.32647,2.854148 c -0.72543,6.341977 7.44536,10.27737 15.09743,7.271553 4.3599,-1.712621 6.46999,-0.998969 5.38745,1.82209 -1.30729,3.406729 -11.27825,5.247365 -17.00322,3.138787 z M 226.29511,64.62859 c -0.60274,-8.447253 -13.26873,-9.955266 -16.03371,-1.908975 -1.67344,4.869836 -0.85046,5.385852 8.0849,5.069271 L 226.5,67.5 226.29511,64.62859 Z m -85.12023,22.082127 c -1.09144,-1.315102 -4.26698,-10.868512 -12.66367,-38.097802 -3.14153,-10.187551 -3.4655,-12.087199 -2.26595,-13.286745 2.90635,-2.906354 4.30515,-0.230443 10.16253,19.441056 3.2316,10.853025 6.4367,20.341536 7.12244,21.085579 1.41889,1.53952 0.6347,3.602564 8.49665,-22.352805 5.57433,-18.403055 6.92286,-20.978832 9.58799,-18.313703 1.48649,1.486491 0.98692,3.630071 -6.28411,26.964286 -7.48076,24.007264 -8.03407,25.36533 -10.45047,25.649975 -1.40331,0.165307 -3.07075,-0.325122 -3.70541,-1.089841 z"
       id="path4476"
       inkscape:connector-curvature="0" />
    <path
       style="fill:#3dad7c"
       d="M 52.754331,90.316169 C 50.271999,86.017276 43.8254,74.85 38.428555,65.5 33.031711,56.15 26.016216,44.047313 22.838567,38.605139 19.660919,33.162966 17.298851,28.325466 17.589529,27.855139 17.880207,27.384813 24.604383,27 32.532142,27 l 14.414108,0 4.614396,8 c 2.537918,4.4 5.210627,8 5.939354,8 0.728727,0 3.401436,-3.6 5.939354,-8 l 4.614396,-8 14.414108,0 c 7.927759,0 14.638526,0.363116 14.912815,0.806924 0.274288,0.443808 -0.520337,2.581308 -1.765833,4.75 C 94.369343,34.725616 88.922992,44.15 83.511836,53.5 c -5.411155,9.35 -13.184752,22.85 -17.27466,30 -4.089908,7.15 -7.781193,13.367276 -8.202855,13.816169 -0.421663,0.448893 -2.797658,-2.701107 -5.27999,-7 z m 89.521009,-3.124841 c -1.89345,-1.202931 -16.71009,-48.616014 -15.87369,-50.795627 1.03664,-2.701442 3.51427,-1.421045 4.55568,2.354299 5.69103,20.631222 11.78954,38.75 13.04267,38.75 1.25313,0 7.35164,-18.118778 13.04267,-38.75 0.74676,-2.707187 1.57987,-3.75 2.99587,-3.75 1.23371,0 1.96146,0.678648 1.96146,1.829121 0,3.306996 -14.85585,49.463258 -16.19324,50.311472 -1.61361,1.023392 -1.99188,1.028827 -3.53142,0.05074 z m 32.74459,-0.942882 c -1.91403,-0.961645 -4.50153,-3.277493 -5.75,-5.146329 C 167.24195,78.066416 167,76.490858 167,66.320732 c 0,-9.515126 0.26276,-11.484332 1.60092,-11.997834 2.66532,-1.022777 3.36775,1.676703 3.38377,13.004025 0.015,10.624383 0.07,10.881605 2.93839,13.75 3.87845,3.878452 7.97246,3.880938 12.31114,0.0075 L 190.5,78.168798 190.83505,66.027454 c 0.29487,-10.685448 0.5347,-12.102475 2,-11.817198 1.44848,0.282002 1.66495,1.969486 1.66495,12.979091 0,12.110146 -0.10763,12.771471 -2.5,15.361678 -2.80193,3.033631 -7.77748,5.449764 -11.21788,5.447421 -1.25517,-8.55e-4 -3.84815,-0.788355 -5.76219,-1.75 z m 38.62262,0.776088 c -3.50444,-1.114867 -6.39674,-3.648504 -8.24493,-7.222514 -1.90133,-3.676776 -1.81006,-15.103763 0.15093,-18.895902 3.63988,-7.038749 15.3236,-9.408913 21.35666,-4.332422 3.79495,3.193239 5.83079,9.182563 4.17371,12.278837 C 230.04121,70.791513 229.10144,71 221.39907,71 211.82195,71 209,72.001487 209,75.400325 c 0,6.475326 8.07836,10.567869 15.73137,7.969604 5.50957,-1.870549 7.91236,-0.493048 3.81869,2.189227 -3.08957,2.024362 -10.77555,2.779878 -14.90751,1.465378 z m 13.16957,-21.757873 c 0.70919,-7.346825 -9.8331,-11.336586 -15.35757,-5.812116 -2.35547,2.355465 -3.33299,7.333682 -1.75073,8.915938 0.38709,0.387098 4.32459,0.574598 8.75,0.416666 L 226.5,68.5 l 0.31212,-3.233339 z"
       id="path4474"
       inkscape:connector-curvature="0" />
    <path
       style="fill:#4f5f6e"
       d="m 142.27534,87.191328 c -1.89345,-1.202931 -16.71009,-48.616014 -15.87369,-50.795627 1.03664,-2.701442 3.51427,-1.421045 4.55568,2.354299 5.69103,20.631222 11.78954,38.75 13.04267,38.75 1.25313,0 7.35164,-18.118778 13.04267,-38.75 0.74676,-2.707187 1.57987,-3.75 2.99587,-3.75 1.23371,0 1.96146,0.678648 1.96146,1.829121 0,3.306996 -14.85585,49.463258 -16.19324,50.311472 -1.61361,1.023392 -1.99188,1.028827 -3.53142,0.05074 z m 32.74459,-0.942882 c -1.91403,-0.961645 -4.50153,-3.277493 -5.75,-5.146329 C 167.24195,78.066416 167,76.490858 167,66.320732 c 0,-9.515126 0.26276,-11.484332 1.60092,-11.997834 2.66532,-1.022777 3.36775,1.676703 3.38377,13.004025 0.015,10.624383 0.07,10.881605 2.93839,13.75 3.87845,3.878452 7.97246,3.880938 12.31114,0.0075 L 190.5,78.168798 190.83505,66.027454 c 0.29487,-10.685448 0.5347,-12.102475 2,-11.817198 1.44848,0.282002 1.66495,1.969486 1.66495,12.979091 0,12.110146 -0.10763,12.771471 -2.5,15.361678 -2.80193,3.033631 -7.77748,5.449764 -11.21788,5.447421 -1.25517,-8.55e-4 -3.84815,-0.788355 -5.76219,-1.75 z m 38.62262,0.776088 c -3.50444,-1.114867 -6.39674,-3.648504 -8.24493,-7.222514 -1.90133,-3.676776 -1.81006,-15.103763 0.15093,-18.895902 3.63988,-7.038749 15.3236,-9.408913 21.35666,-4.332422 3.79495,3.193239 5.83079,9.182563 4.17371,12.278837 C 230.04121,70.791513 229.10144,71 221.39907,71 211.82195,71 209,72.001487 209,75.400325 c 0,6.475326 8.07836,10.567869 15.73137,7.969604 5.50957,-1.870549 7.91236,-0.493048 3.81869,2.189227 -3.08957,2.024362 -10.77555,2.779878 -14.90751,1.465378 z m 13.16957,-21.757873 c 0.70919,-7.346825 -9.8331,-11.336586 -15.35757,-5.812116 -2.35547,2.355465 -3.33299,7.333682 -1.75073,8.915938 0.38709,0.387098 4.32459,0.574598 8.75,0.416666 L 226.5,68.5 226.81212,65.266661 Z M 44.131116,48.982458 C 37.459002,37.42281 32,27.74781 32,27.482458 32,27.217106 35.362906,27 39.473125,27 l 7.473125,0 4.614396,8 c 2.537918,4.4 5.210627,8 5.939354,8 0.728727,0 3.401436,-3.6 5.939354,-8 l 4.614396,-8 7.473125,0 C 79.637094,27 83,27.20761 83,27.461356 83,29.160127 58.552709,70 57.535802,70 56.835338,70 50.80323,60.542106 44.131116,48.982458 Z"
       id="path4472"
       inkscape:connector-curvature="0" />
    <path
       style="fill:#334a5a"
       d="M 141.71362,86.307186 C 141.45232,85.863234 139.64922,80.325 137.70674,74 c -1.94247,-6.325 -5.31971,-17.271359 -7.50497,-24.325242 -3.24121,-10.462459 -3.70995,-12.926255 -2.54435,-13.373539 0.78586,-0.301563 1.56769,-0.380204 1.73739,-0.174758 0.16971,0.205447 2.92175,9.148539 6.11565,19.873539 6.46553,21.711008 6.96753,23 8.95734,23 0.76858,0 1.61764,-0.7875 1.88679,-1.75 4.25242,-15.206916 12.16595,-40.97482 12.80641,-41.7 0.5278,-0.597625 1.21284,-0.576156 1.84688,0.05788 0.67717,0.677172 -1.54855,9.19193 -6.78322,25.95 -6.77471,21.688311 -8.06797,24.982195 -9.91352,25.249307 -1.16733,0.168952 -2.33622,-0.05605 -2.59752,-0.5 z m 33.70482,-0.276039 c -1.14486,-0.463144 -3.28236,-2.269146 -4.75,-4.013339 C 168.1037,78.969793 168,78.38318 168,66.923275 168,56.991475 168.25054,55 169.5,55 c 1.2394,0 1.50256,1.867663 1.51474,10.75 0.0171,12.437253 0.92456,14.978276 6.28683,17.603227 3.22447,1.578445 4.22916,1.669579 6.77601,0.61464 C 190.0112,81.510078 191,78.98524 191,66.291817 c 0,-10.358066 0.16529,-11.405996 1.75,-11.094706 1.53983,0.302474 1.74953,1.662389 1.74611,11.323324 -0.004,12.140483 -1.24544,15.718846 -6.53594,18.844024 -2.94036,1.736911 -9.08836,2.063724 -12.54173,0.666688 z m 35.94827,-0.949209 C 206.04033,81.834067 205,79.437034 205,70.412352 205,61.42988 206.43985,58.375265 212.03864,55.48002 220.20851,51.255214 231,57.074158 231,65.704292 231,70.31048 229.49256,71 219.42244,71 c -10.66338,0 -12.29993,0.949177 -10.77916,6.251782 1.39735,4.872277 6.7085,8.05786 12.35672,7.411455 2.475,-0.283249 5.5125,-0.825836 6.75,-1.205749 3.51606,-1.079431 2.67855,1.197468 -0.89922,2.444687 -4.89509,1.706436 -11.95362,1.332525 -15.48407,-0.820237 z m 14.69903,-16.117122 c 2.12669,-1.13817 2.55509,-4.936272 0.90462,-8.020207 C 225.75918,58.681505 220.94692,56 218.09671,56 c -7.07048,0 -13.48409,9.927649 -8.34671,12.919901 2.29593,1.337258 13.84159,1.369042 16.31574,0.04492 z M 56.262343,67.73899 C 52.933528,63.461801 33.960458,28.872998 34.48105,28.030663 c 0.763957,-1.23611 9.462304,-1.352873 11.356151,-0.15244 0.73546,0.466178 3.224381,4.171787 5.530935,8.234687 C 54.319826,41.312189 56.135881,43.5 57.5,43.5 c 1.364119,0 3.180174,-2.187811 6.131864,-7.38709 2.306554,-4.0629 4.795475,-7.768509 5.530935,-8.234687 1.887665,-1.196515 10.591047,-1.085525 11.351404,0.144757 0.586893,0.949613 -20.822093,39.431239 -22.521681,40.481642 -0.42125,0.260346 -1.19983,-0.08419 -1.730179,-0.765632 z"
       id="path4470"
       inkscape:connector-curvature="0" />
    <path
       style="fill:#283b4d"
       d="m 176.07108,85.248446 c -6.24828,-3.186078 -7.52852,-6.085264 -7.91515,-17.924401 -0.2202,-6.742755 0.0498,-10.929793 0.75,-11.629975 0.79209,-0.792093 1.09561,1.514244 1.09965,8.35593 0.007,11.358561 1.1952,16.176174 4.66372,18.904514 3.12179,2.455597 8.96625,2.689484 12.11391,0.484782 C 190.92036,80.541523 192,76.839164 192,65.54966 192,59.18322 192.39653,55 193,55 c 0.60377,0 1,4.199624 1,10.598871 0,13.032922 -1.42702,16.782241 -7.42414,19.506023 -5.07895,2.306768 -6.23156,2.322518 -10.50478,0.143552 z M 218.75,86.337719 c 0.6875,-0.277412 1.8125,-0.277412 2.5,0 0.6875,0.277413 0.125,0.504386 -1.25,0.504386 -1.375,0 -1.9375,-0.226973 -1.25,-0.504386 z M 139.06769,75.75 C 137.30773,70.1125 133.87251,59.152413 131.43388,51.39425 126.5625,35.896647 126.58581,36 127.96146,36 c 0.5288,0 1.46763,1.9125 2.08629,4.25 0.61866,2.3375 2.18253,7.625 3.47527,11.75 1.29273,4.125 3.75676,12.140148 5.4756,17.811439 2.75032,9.074577 3.37389,10.274082 5.19861,10 1.48673,-0.223314 2.45585,-1.584769 3.42491,-4.811439 0.74332,-2.475 3.6311,-12.136179 6.41729,-21.469287 5.15765,-17.276915 5.53796,-18.28666 6.51825,-17.306364 0.52552,0.525522 -2.27055,10.241801 -9.57582,33.275651 -1.74434,5.5 -3.60001,11.4625 -4.1237,13.25 -0.62308,2.126727 -1.58092,3.25 -2.77136,3.25 -1.43247,0 -2.49942,-2.178902 -5.01911,-10.25 z m 71.44599,8.0821 C 203.63777,78.42351 203.05585,63.299576 209.51974,58 c 1.75023,-1.434966 1.75983,-1.39161 0.22144,1 -1.15527,1.796014 -1.60811,4.893553 -1.60811,11 0,9.615751 1.1664,12.354665 6.19241,14.540868 2.50944,1.091553 2.73139,1.389049 1.05938,1.41999 -1.16333,0.02153 -3.35536,-0.936413 -4.87118,-2.128758 z M 225.5,84.684837 c 1.65,-0.770618 3.1875,-1.239959 3.41667,-1.04298 0.72121,0.619917 -0.3213,1.174863 -3.41872,1.81984 l -2.99795,0.624264 3,-1.401124 z m 2.95649,-17.486743 c 0.84652,-3.854175 -1.48666,-8.607528 -5.21906,-10.632706 -1.50559,-0.816922 -2.12993,-1.50333 -1.38743,-1.52535 0.7425,-0.02202 2.88,1.489962 4.75,3.359962 2.58642,2.58642 3.4,4.247316 3.4,6.940983 0,1.947541 -0.49812,3.848838 -1.10693,4.225105 -0.7671,0.474093 -0.90113,-0.252893 -0.43658,-2.367994 z"
       id="path4468"
       inkscape:connector-curvature="0" />
  </g>
</svg>
