<?xml version="1.0" encoding="UTF-8" standalone="no"?>
<!-- Created with Inkscape (http://www.inkscape.org/) -->

<svg
   xmlns:dc="http://purl.org/dc/elements/1.1/"
   xmlns:cc="http://creativecommons.org/ns#"
   xmlns:rdf="http://www.w3.org/1999/02/22-rdf-syntax-ns#"
   xmlns:svg="http://www.w3.org/2000/svg"
   xmlns="http://www.w3.org/2000/svg"
   xmlns:xlink="http://www.w3.org/1999/xlink"
   xmlns:sodipodi="http://sodipodi.sourceforge.net/DTD/sodipodi-0.dtd"
   xmlns:inkscape="http://www.inkscape.org/namespaces/inkscape"
   id="svg3515"
   version="1.1"
   inkscape:version="0.91 r13725"
   width="165"
   height="76.875"
   viewBox="0 0 165 76.875"
   sodipodi:docname="WebComponents.svg">
  <metadata
     id="metadata3521">
    <rdf:RDF>
      <cc:Work
         rdf:about="">
        <dc:format>image/svg+xml</dc:format>
        <dc:type
           rdf:resource="http://purl.org/dc/dcmitype/StillImage" />
        <dc:title></dc:title>
      </cc:Work>
    </rdf:RDF>
  </metadata>
  <defs
     id="defs3519" />
  <sodipodi:namedview
     pagecolor="#ffffff"
     bordercolor="#666666"
     borderopacity="1"
     objecttolerance="10"
     gridtolerance="10"
     guidetolerance="10"
     inkscape:pageopacity="0"
     inkscape:pageshadow="2"
     inkscape:window-width="640"
     inkscape:window-height="480"
     id="namedview3517"
     showgrid="false"
     inkscape:zoom="1.5878788"
     inkscape:cx="82.5"
     inkscape:cy="38.4375"
     inkscape:window-x="0"
     inkscape:window-y="0"
     inkscape:window-maximized="0"
     inkscape:current-layer="svg3515" />
  <image
     width="165"
     height="76.875"
     preserveAspectRatio="none"
     style="image-rendering:optimizeQuality"
     xlink:href="file:///media/havoc/USB%20DISK/pics/Language%20icons/WebComponents.png"
     id="image3523"
     x="0"
     y="0"
     sodipodi:absref="/media/havoc/USB DISK/pics/Language icons/WebComponents.png" />
  <g
     id="g3525">
    <path
       style="fill:#fdfdfd"
       d="M 0,38.4375 0,0 82.5,0 165,0 l 0,38.4375 0,38.4375 -82.5,0 -82.5,0 0,-38.4375 z"
       id="path3541"
       inkscape:connector-curvature="0" />
    <path
       style="fill:#d0d0d0"
       d="m 86.295244,74.630769 c -4.289,-1.153044 -4.713875,-1.527444 -5.690075,-5.014107 -0.655231,-2.340237 -0.652694,-2.951018 0.01394,-3.363025 0.448019,-0.276893 5.273294,-1.704637 10.722819,-3.172756 9.902305,-2.667715 9.908585,-2.670554 10.479985,-4.740022 0.31447,-1.13889 1.34592,-5.046357 2.29212,-8.683261 l 1.72035,-6.612552 -6.186718,-6.210024 C 96.244975,33.41951 93.085119,30.625 92.625763,30.625 c -0.459357,0 -4.560388,1.125 -9.113413,2.5 -10.35655,3.127648 -10.810356,3.13609 -12.027219,0.223734 -1.242043,-2.972631 -0.843293,-4.265676 2.48345,-8.053234 3.0707,-3.496044 7.637681,-6.253952 12.500288,-7.548671 9.563169,-2.546291 21.659361,1.075845 29.381701,8.798184 l 3.95807,3.958071 13.06443,-3.386917 c 7.18544,-1.862804 13.89588,-3.311936 14.9121,-3.220292 1.7656,0.159224 1.92462,0.430357 3.5801,6.104125 1.9228,6.58996 2.08157,7.852317 1.06652,8.479657 -0.38127,0.235636 -6.8841,2.172588 -14.45073,4.304338 l -13.75753,3.87591 -1.42207,5.625667 c -0.78215,3.094118 -2.17413,7.109761 -3.0933,8.923652 -5.42484,10.705413 -20.697029,16.840057 -33.412916,13.421545 z M 59.6875,59.748659 C 54.841515,58.212053 51.514956,56.034407 46.954659,51.413436 l -4.60784,-4.669148 -14.378575,3.869118 C 15.998939,53.834216 13.452939,54.342611 12.773671,53.647513 12.324873,53.188256 11.26832,50.079795 10.425777,46.739823 9.25123,42.083736 9.0593425,40.443638 9.60319,39.709012 10.097176,39.041737 36.262737,30.625 37.843143,30.625 c 0.06158,0 0.286779,-1.275506 0.500458,-2.834457 1.496254,-10.916367 11.116888,-21.8904977 22.190983,-25.3129641 5.01561,-1.55008171 8.291216,-1.54958477 13.314728,0.00202 5.056182,1.561697 6.109688,2.3554487 6.685513,5.037136 0.856919,3.9907804 0.784819,4.0407394 -9.474363,6.5648434 -5.223881,1.28525 -9.69158,2.509867 -9.928225,2.72137 -0.966685,0.863985 -4.822706,17.140462 -4.294517,18.127393 0.297837,0.556515 3.195877,3.453007 6.440086,6.436651 l 5.898563,5.424806 9.79125,-2.770899 C 84.3528,42.496905 89.151231,41.25 89.630787,41.25 c 1.001557,0 2.244213,3.129016 2.244213,5.650944 0,2.2005 -6.01835,7.91406 -10.751506,10.207004 -6.873357,3.329755 -15.796338,4.428981 -21.435994,2.640711 z M 4.0571842,56.241399 C 3.1226504,54.729291 1.25,46.654729 1.25,44.137279 1.25,41.15747 1.8226064,40.625 5.0270271,40.625 c 1.5885554,0 1.8837285,0.311757 2.5149466,2.65625 0.3933344,1.460937 1.2442963,4.34375 1.8910269,6.40625 0.6467304,2.0625 1.1795014,4.214674 1.1839364,4.782609 0.01316,1.685933 -5.6649247,3.219152 -6.5597528,1.77129 z M 155.29804,36.851613 C 154.68031,35.852091 151.875,25.065214 151.875,23.689429 c 0,-1.313345 2.1704,-2.439429 4.70172,-2.439429 1.31915,0 1.64974,0.53393 2.80557,4.53125 0.72062,2.492187 1.57628,5.346656 1.90147,6.343264 0.32518,0.996608 0.59124,2.287401 0.59124,2.868428 0,1.877991 -5.58887,3.457425 -6.57696,1.858671 z"
       id="path3539"
       inkscape:connector-curvature="0" />
    <path
       style="fill:#afafaf"
       d="m 85.3125,73.878894 c -2.783056,-0.949707 -3.225138,-1.356069 -4.040156,-3.713738 -0.627556,-1.815368 -0.712963,-2.849537 -0.271763,-3.290737 0.353875,-0.353875 4.281319,-1.632844 8.727663,-2.842163 13.419266,-3.64978 11.620696,-2.106192 14.298526,-12.271412 l 2.32458,-8.82425 -6.13817,-6.161285 c -3.375986,-3.388707 -6.569786,-6.298277 -7.097324,-6.465711 -0.527537,-0.167435 -5.005087,0.933925 -9.9501,2.447465 -4.945012,1.51354 -9.329675,2.621904 -9.743687,2.463031 C 72.51015,34.870158 71.25,32.241609 71.25,30.689366 c 0,-1.733809 3.418569,-6.057264 6.717744,-8.495912 4.526787,-3.346069 10.403193,-4.939509 16.637856,-4.511507 8.91864,0.612255 15.6358,3.683045 21.76008,9.94774 1.61049,1.647422 3.32705,2.995313 3.81456,2.995313 0.48752,0 6.85707,-1.529158 14.15456,-3.398129 7.29749,-1.86897 13.66382,-3.246301 14.1474,-3.060735 0.48357,0.185566 1.15563,1.363161 1.49346,2.616878 0.33782,1.253717 1.04095,3.685736 1.56252,5.404486 0.52156,1.71875 0.95133,3.749717 0.95506,4.513261 0.007,1.53091 0.21788,1.453701 -17.49324,6.418629 -12.15687,3.407913 -11.61776,3.118444 -12.07932,6.485934 -1.11135,8.108156 -5.36395,15.817601 -10.9196,19.79592 -7.0773,5.067937 -19.065005,7.079162 -26.68858,4.47765 z M 58.263826,58.767893 C 54.109011,57.272802 49.637169,54.008203 45.71293,49.605305 L 42.66112,46.181251 28.191222,50.076288 C 18.069601,52.800846 13.523781,53.773781 13.063953,53.313953 11.953843,52.203843 9.2302394,40.519761 9.9206431,39.829357 10.258926,39.491074 16.811772,37.340558 24.482522,35.050434 l 13.946819,-4.163862 0.410227,-2.787036 C 40.337069,17.925698 47.290708,8.9915406 57.5,4.1242867 c 3.618554,-1.7251368 4.677194,-1.9357285 9.6875,-1.927103 4.549831,0.00783 6.251738,0.2911443 8.903919,1.4822129 2.812875,1.2632322 3.383293,1.820896 4.01325,3.9234965 0.601944,2.0091163 0.5742,2.6005979 -0.153919,3.2809759 -0.488537,0.456504 -4.685125,1.749093 -9.32575,2.872418 -4.640625,1.123327 -8.853222,2.261353 -9.361327,2.528947 -0.544341,0.286679 -1.893291,4.166215 -3.283904,9.444401 l -2.360078,8.957865 6.371839,6.148214 c 7.402514,7.142718 5.757033,6.86406 18.854464,3.192962 8.425994,-2.361733 8.681925,-2.39485 9.53125,-1.233332 0.480012,0.656462 0.872756,2.236592 0.872756,3.511398 0,2.018964 -0.454481,2.7332 -3.524688,5.539197 -6.110993,5.585104 -12.821168,8.168619 -21.12,8.131513 -3.328949,-0.01488 -6.163909,-0.425968 -8.341486,-1.209559 z M 4.0789641,55.46875 C 2.9094238,51.910783 1.25,44.912644 1.25,43.538414 c 0,-1.27215 0.4282824,-1.85837 1.71875,-2.352572 1.0694558,-0.409564 2.0668413,-0.440843 2.6401843,-0.0828 0.9010813,0.562711 4.3624263,10.659865 4.3814532,12.781216 0.01778,1.982492 -5.3110853,3.410834 -5.9114234,1.58449 z m 151.7263959,-18.75 c -0.74945,-0.979616 -3.32517,-10.924504 -3.3138,-12.79463 0.0104,-1.714366 3.55063,-2.987575 4.8829,-1.756097 0.76085,0.703296 3.87554,10.912599 3.87554,12.703225 0,0.449644 -0.97534,1.225059 -2.16743,1.723144 -2.62203,1.095554 -2.53668,1.092315 -3.27721,0.124358 z"
       id="path3537"
       inkscape:connector-curvature="0" />
    <path
       style="fill:#909090"
       d="m 89.0625,74.38505 c -4.980469,-0.798806 -6.527019,-1.647475 -7.575613,-4.157119 -0.789418,-1.889343 -0.811012,-2.417175 -0.126018,-3.080462 0.454643,-0.440238 5.002225,-1.935369 10.105719,-3.3225 5.1035,-1.38714 9.612502,-2.798771 10.019992,-3.136962 0.4075,-0.338191 1.71302,-4.426448 2.90116,-9.085016 l 2.16027,-8.470124 -6.54409,-6.566433 C 96.404675,32.954895 92.949406,30 92.325544,30 c -0.623863,0 -4.798313,1.125 -9.276563,2.5 -4.478244,1.375 -8.557506,2.5 -9.065019,2.5 -0.507506,0 -1.335587,-0.988063 -1.840168,-2.195696 -1.176094,-2.814788 -0.397444,-4.468685 4.072112,-8.649433 4.617169,-4.318823 7.870644,-5.594206 15.066994,-5.906365 10.44697,-0.453164 17.01052,1.953126 23.96719,8.786716 l 4.38515,4.307557 13.87984,-3.570917 c 7.63391,-1.964005 14.26353,-3.423684 14.73248,-3.243733 1.10318,0.42333 4.55936,12.289954 3.8005,13.048815 -0.31008,0.310073 -6.84121,2.361671 -14.51363,4.559108 -7.67242,2.197437 -14.18958,4.373589 -14.48257,4.835894 -0.293,0.462305 -0.53703,1.599473 -0.54229,2.52704 -0.0185,3.262645 -3.08728,11.401908 -5.48701,14.553164 -5.81366,7.634313 -17.608429,11.993181 -27.96006,10.3329 z M 61.504195,59.355833 c -1.407068,-0.278965 -3.516443,-0.912614 -4.6875,-1.408109 -3.056217,-1.293137 -9.312664,-6.279133 -11.504195,-9.168122 -1.03125,-1.359446 -2.349424,-2.484744 -2.929275,-2.500661 -0.579851,-0.01592 -6.873296,1.532826 -13.985432,3.441652 -7.112136,1.908826 -13.528337,3.385389 -14.258225,3.28125 -1.12067,-0.159895 -1.569732,-1.145194 -2.887311,-6.335126 -1.4181295,-5.586 -1.4689551,-6.212202 -0.558009,-6.875 0.551229,-0.401069 7.076786,-2.51866 14.501238,-4.705756 L 38.69449,31.109422 39.116297,28.210961 C 40.149114,21.113932 43.32184,15.355386 49.117666,10.058328 54.66617,4.9873082 59.188981,2.9625869 65.712244,2.6294552 74.521306,2.1795913 80,4.6167874 80,8.9853613 l 0,2.1103617 -6.71875,1.662352 c -3.695313,0.914294 -8.155637,2.070329 -9.911831,2.568966 l -3.193081,0.906615 -2.383951,9.115006 -2.383951,9.115007 6.614955,6.614955 6.614953,6.614955 10.212081,-2.87124 c 11.286387,-3.173294 11.515175,-3.155109 12.184337,0.968453 0.340707,2.099524 0.130713,2.497692 -2.846875,5.397955 -6.761937,6.586332 -17.72785,9.942672 -26.683692,8.167086 z M 4.4825991,55.161882 C 4.1705242,54.557222 3.263417,51.565577 2.4668054,48.513782 1.0559943,43.109009 1.0488437,42.942819 2.1911663,42.107532 2.8361765,41.635889 4.0013722,41.25 4.7804903,41.25 c 1.2213642,0 1.5971353,0.624437 2.7267991,4.53125 0.7206219,2.492187 1.5810112,5.360225 1.9119775,6.373418 0.6948581,2.127184 0.0045,3.084717 -2.6755132,3.71087 -1.2555786,0.293353 -1.8405328,0.111319 -2.2611546,-0.703656 z M 155.92304,36.226613 c -0.78247,-1.266064 -3.45904,-12.106315 -3.17313,-12.851369 0.30584,-0.79702 3.98431,-1.849355 4.53601,-1.29766 0.17684,0.176845 1.1382,3.086421 2.13636,6.465725 l 1.81483,6.144191 -1.3128,1.09375 c -1.46415,1.21986 -3.39011,1.434229 -4.00127,0.445363 z"
       id="path3535"
       inkscape:connector-curvature="0" />
    <path
       style="fill:#6e6e6e"
       d="m 86.25,73.678425 c -1.203125,-0.362956 -2.663744,-1.087 -3.245825,-1.608981 -1.061094,-0.951544 -2.143519,-4.388438 -1.564469,-4.967488 0.169763,-0.169756 4.71985,-1.522969 10.111306,-3.007131 5.39145,-1.484163 10.036388,-2.942345 10.322078,-3.240403 0.2857,-0.298057 1.53042,-4.47219 2.76606,-9.275851 l 2.24661,-8.733929 -6.40619,-6.42807 C 96.956163,32.881134 93.649056,29.858032 93.130437,29.698569 92.611825,29.539105 88.109375,30.662776 83.125,32.195616 l -9.0625,2.78698 -1.09375,-1.310538 C 72.367187,32.951262 71.875,31.731751 71.875,30.962034 c 0,-2.250268 3.503944,-6.455262 7.567688,-9.081785 4.574,-2.95632 9.209456,-4.024114 15.579281,-3.588745 8.875071,0.606602 16.039571,4.108116 21.938861,10.722212 l 2.27333,2.548784 14.28916,-3.55865 c 10.967,-2.731277 14.44829,-3.385173 14.97356,-2.8125 0.93566,1.020111 3.52339,10.151489 3.26402,11.517816 -0.16387,0.863245 -3.32945,2.000826 -14.54752,5.227792 l -14.33809,4.124459 -0.7439,4.313041 c -1.31441,7.620677 -3.1218,11.357061 -7.69923,15.916517 -5.7137,5.691256 -10.3448,7.560456 -19.43216,7.843194 -3.609375,0.112293 -7.546875,-0.09279 -8.75,-0.455744 z M 57.932791,58.142519 c -4.01709,-1.569575 -6.872367,-3.708167 -11.378943,-8.522788 l -3.758652,-4.015574 -14.51117,3.876016 C 20.302882,51.611982 13.613273,53.196606 13.418227,53.00156 13.223181,52.806514 12.33866,49.910302 11.452624,46.565534 10.167609,41.714621 10.005829,40.382669 10.653062,39.982657 11.099338,39.706843 17.392779,37.728469 24.638486,35.586271 31.884194,33.444073 38.12514,31.449299 38.507255,31.153439 38.88937,30.85758 39.361973,29.28171 39.557484,27.651507 41.102363,14.770032 54.558299,2.5 67.139894,2.5 c 3.815812,0 9.037512,1.4222586 10.971593,2.9883821 0.861407,0.6975246 1.400232,1.8915404 1.468369,3.2538698 L 79.6875,10.894269 70.403875,13.190582 C 65.297881,14.453553 60.773418,15.86953 60.349512,16.337197 59.487465,17.288236 55.625,31.679747 55.625,33.940688 c 0,1.79177 11.723681,13.560139 13.5062,13.557687 0.649719,-8.75e-4 5.195331,-1.125893 10.101375,-2.5 C 84.138619,43.624269 88.538212,42.5 89.009456,42.5 c 1.070669,0 1.615544,1.367864 1.615544,4.055699 0,3.706068 -7.549125,9.428693 -15.582188,11.812098 C 70.315125,59.7705 61.812856,59.658555 57.932791,58.142519 Z M 4.772632,55.137746 C 3.8129902,53.585013 1.2630398,42.86196 1.7400154,42.384984 c 0.3078555,-0.307855 1.3621427,-0.618855 2.3428603,-0.69111 1.713193,-0.126222 1.8500292,0.07697 3.4891487,5.181126 2.00111,6.231382 2.1590319,7.854632 0.8143587,8.370632 -1.3792312,0.52926 -3.2545748,0.473274 -3.6137511,-0.107886 z M 156.02303,36.388381 C 155.48457,35.517146 153.125,25.765689 153.125,24.411647 c 0,-1.425916 2.92244,-2.989203 3.85142,-2.060221 0.61609,0.616081 3.6164,10.61753 3.63547,12.118683 0.008,0.602503 -0.80672,1.318403 -1.95515,1.71875 -2.34557,0.817667 -2.25588,0.810872 -2.63372,0.199522 z"
       id="path3533"
       inkscape:connector-curvature="0" />
    <path
       style="fill:#505050"
       d="m 88.4375,73.949275 c -4.305319,-0.966894 -5.463125,-1.657113 -6.353237,-3.787456 -0.518069,-1.239907 -0.683457,-2.437625 -0.378694,-2.742388 0.297587,-0.297587 4.95915,-1.762275 10.359025,-3.254856 5.399875,-1.492581 9.959266,-2.855101 10.131986,-3.027817 0.77667,-0.776672 4.70312,-17.574344 4.3604,-18.654157 -0.43626,-1.374538 -12.422474,-12.690498 -13.762686,-12.9931 -0.482313,-0.108899 -4.664344,0.945788 -9.2934,2.34375 -4.629057,1.397962 -8.823219,2.541749 -9.320357,2.541749 -0.497137,0 -1.241418,-0.814868 -1.653949,-1.810818 -0.998025,-2.40944 0.137131,-4.596686 4.352662,-8.386811 6.0922,-5.477411 14.077581,-7.163773 23.108425,-4.880065 7.401515,1.871688 10.336445,3.483707 15.203105,8.350364 l 4.26608,4.266086 13.41911,-3.456879 C 140.25647,26.555595 146.80812,25 147.43519,25 c 0.90043,0 1.50873,1.248299 2.89364,5.93798 0.96445,3.265889 1.57961,6.111912 1.36703,6.324496 -0.21259,0.212583 -6.64009,2.177582 -14.28334,4.366663 -7.64324,2.189082 -14.07803,4.194622 -14.29952,4.456755 -0.22149,0.262133 -0.84714,2.585981 -1.39033,5.164106 -2.50765,11.901994 -7.93261,18.133031 -18.78618,21.577537 -4.61619,1.465 -10.829921,1.945738 -14.49899,1.121738 z M 59.533515,58.462297 c -3.991962,-1.247056 -8.424952,-4.348576 -12.610326,-8.822754 -2.065474,-2.207999 -4.116596,-4.012529 -4.558048,-4.010069 -0.441453,0.0024 -6.98738,1.67866 -14.546504,3.724887 -7.559125,2.046227 -13.939335,3.520776 -14.178243,3.276776 C 13.020061,51.997583 10.625,43.10784 10.625,41.438902 c 0,-1.52435 -0.7087375,-1.26013 19.321965,-7.203277 l 9.009465,-2.673125 0.773394,-3.75 C 41.085165,21.240789 42.946323,17.285461 46.564716,13.287008 55.35852,3.5695388 66.040256,0.31134463 75.6091,4.4277502 c 2.501963,1.0763174 3.255831,1.752841 3.684487,3.3064685 0.355607,1.2888601 0.301663,2.1916251 -0.158581,2.6539703 -0.383631,0.385379 -4.494381,1.620714 -9.135006,2.74519 -4.640625,1.124477 -8.866366,2.261736 -9.390534,2.527244 -0.590166,0.298936 -1.86732,3.983955 -3.354302,9.678285 l -2.401267,9.195545 6.849084,6.849084 6.849081,6.849084 10.255219,-2.864833 c 9.471438,-2.64588 10.314925,-2.784165 11.036469,-1.809354 1.623544,2.193429 0.928769,4.245728 -2.551669,7.537382 -5.692437,5.383668 -13.178075,8.317559 -21.017144,8.237374 -2.248087,-0.02299 -5.28173,-0.414897 -6.741422,-0.870893 z M 4.4805549,53.645087 C 2.6707739,47.849 1.7624961,43.69467 2.1081299,42.793962 c 0.2525616,-0.658164 0.9668209,-0.934608 2.0788008,-0.804569 1.5546394,0.181805 1.8417046,0.680209 3.4885593,6.056851 0.9869863,3.22231 1.5622063,6.08522 1.2782656,6.362023 -0.2839406,0.276804 -1.2602575,0.686909 -2.1695925,0.911344 -1.4654867,0.3617 -1.7272204,0.171442 -2.3036082,-1.674524 z M 156.06171,35.78125 c -0.14413,-0.257813 -0.90267,-3.100035 -1.68565,-6.31605 -1.52225,-6.252536 -1.31049,-7.181039 1.5537,-6.81253 0.99399,0.127888 1.59025,1.345942 2.98355,6.094891 1.62786,5.548442 1.67148,5.986111 0.66954,6.71875 -1.18813,0.86878 -3.11515,1.041137 -3.52114,0.314939 z"
       id="path3531"
       inkscape:connector-curvature="0" />
    <path
       style="fill:#2e2e2e"
       d="m 85.952606,72.904931 c -2.608419,-0.786237 -4.570437,-3.21915 -3.933868,-4.878012 0.220312,-0.574125 3.823137,-1.8425 9.598824,-3.379263 5.085375,-1.353087 9.743978,-2.882031 10.352458,-3.397656 0.69134,-0.58585 1.92194,-4.209192 3.28077,-9.65984 l 2.17445,-8.72234 -6.36887,-6.48645 c -3.502876,-3.567547 -6.838058,-6.741643 -7.411507,-7.053546 -0.724338,-0.39397 -3.871694,0.294557 -10.309669,2.255382 -8.605613,2.621028 -9.322988,2.745943 -10.051113,1.750179 -1.245225,-1.702949 -0.926306,-3.518734 1.102575,-6.277584 5.362563,-7.291954 15.676906,-9.996735 27.039444,-7.090686 6.45896,1.651922 8.19272,2.656349 13.16981,7.629697 2.35586,2.354103 4.74649,4.277456 5.3125,4.274117 0.566,-0.0033 7.05885,-1.553271 14.42855,-3.444293 7.3697,-1.891023 13.5961,-3.224229 13.83644,-2.96268 0.24034,0.26155 1.14248,2.955743 2.00476,5.987098 l 1.56776,5.511554 -1.34171,0.574531 c -0.73794,0.315992 -6.94321,2.140012 -13.78949,4.053379 -6.84627,1.913366 -12.96346,3.754836 -13.59374,4.092154 -0.76219,0.407908 -1.14598,1.3165 -1.14598,2.712984 0,2.771397 -2.23667,10.022382 -4.07322,13.204794 -2.94682,5.106331 -8.45131,9.1268 -15.25897,11.145106 -3.985129,1.181494 -12.917597,1.268382 -16.590204,0.161375 z M 62.642431,58.728866 C 57.286824,57.963821 52.716894,55.309291 47.455966,49.907523 L 42.724433,45.049321 28.73962,48.794484 c -7.691647,2.05984 -14.28617,3.629521 -14.654495,3.488182 -0.933429,-0.358191 -3.668594,-11.074197 -2.997802,-11.744989 0.298428,-0.298428 6.704446,-2.379513 14.235596,-4.624633 7.531149,-2.245121 13.910111,-4.423701 14.17547,-4.841291 0.265358,-0.417589 0.486777,-1.657225 0.49204,-2.754747 0.0053,-1.097521 0.762464,-4.050646 1.682665,-6.5625 1.450023,-3.958091 2.345828,-5.240775 6.71875,-9.62043 6.20406,-6.2136113 10.474822,-8.4459892 16.970268,-8.8705607 4.525882,-0.2958317 10.049413,0.8237399 12.285719,2.4902096 0.596931,0.4448263 1.256938,1.6830326 1.466681,2.7515688 l 0.381357,1.9427933 -9.310907,2.318359 c -5.121,1.275096 -9.64736,2.526298 -10.058583,2.780447 -0.758605,0.468844 -5.109875,16.212246 -5.120558,18.526774 -0.0072,1.565834 12.363454,14.051333 13.92211,14.051333 0.60175,0 5.314756,-1.174381 10.473344,-2.609735 5.650375,-1.572192 9.589587,-2.379749 9.9083,-2.03125 0.290969,0.318167 0.720737,1.389396 0.955044,2.380511 0.375231,1.587273 0.0525,2.162003 -2.707856,4.822662 -6.354125,6.124562 -16.165576,9.291434 -24.914332,8.041678 z M 4.3622053,52.381947 c -0.3886,-1.481946 -1.1332138,-4.191864 -1.6546972,-6.022042 -0.5214835,-1.830177 -0.851243,-3.424504 -0.7327989,-3.542948 0.1184442,-0.118444 0.9541554,-0.40078 1.857136,-0.627414 1.5799135,-0.396533 1.6945129,-0.239467 3.0410367,4.167948 0.7695893,2.519005 1.4364606,5.423759 1.4819362,6.455009 0.070399,1.596464 -0.1675368,1.903886 -1.6016925,2.069447 -1.5117282,0.174516 -1.756795,-0.08173 -2.3909203,-2.5 z M 156.51893,35.554502 c -0.6359,-1.028906 -2.74581,-9.40542 -2.75822,-10.950358 -0.0119,-1.476657 2.45929,-2.538952 3.18284,-1.368232 0.23417,0.378903 1.06772,3.077692 1.85233,5.99731 1.38769,5.163752 1.39473,5.331672 0.25838,6.162587 -1.41686,1.036036 -1.97164,1.070761 -2.53533,0.158693 z"
       id="path3529"
       inkscape:connector-curvature="0" />
    <path
       style="fill:#010101"
       d="m 88.863187,73.050881 c -1.828368,-0.30415 -3.864112,-0.841887 -4.523868,-1.194975 -1.135482,-0.607693 -2.322494,-3.456068 -1.699769,-4.078794 0.159319,-0.159318 4.694794,-1.507293 10.078831,-2.995493 5.384044,-1.488206 9.929539,-2.846206 10.101109,-3.017776 0.47978,-0.479784 4.6681,-16.908911 4.67469,-18.337002 C 107.50266,41.59098 94.474875,28.75 92.603831,28.75 c -0.791043,0 -5.247118,1.150266 -9.9024,2.556146 -4.655275,1.405881 -8.6909,2.319943 -8.96805,2.03125 -0.550156,-0.573067 -0.797887,-1.820462 -0.682431,-3.436286 0.119194,-1.668156 5.284113,-6.542403 8.914194,-8.412521 6.253419,-3.221585 18.288696,-2.684683 25.809866,1.151395 1.39562,0.711817 4.50624,3.273435 6.91249,5.692485 l 4.375,4.398273 14.25419,-3.621591 c 7.83982,-1.991877 14.38256,-3.493232 14.53945,-3.336347 0.54555,0.545554 3.32601,10.753377 3.01404,11.065352 -0.1727,0.172701 -6.55454,2.072148 -14.18185,4.220993 -8.89598,2.506267 -14.14936,4.291997 -14.65309,4.980877 -0.43188,0.590637 -0.78524,1.979448 -0.78524,3.086246 0,2.737554 -2.00807,8.986991 -3.95541,12.309878 -3.48975,5.954806 -10.85235,10.5071 -18.85709,11.659331 -4.947612,0.712182 -5.027131,0.711813 -9.574312,-0.04463 z M 61.464841,58.136808 c -5.19771,-1.103751 -12.0315,-5.740562 -15.527341,-10.535492 -1.252489,-1.717927 -2.356532,-2.576674 -3.32537,-2.586542 -0.797704,-0.0081 -7.213905,1.532101 -14.258225,3.422726 -7.044321,1.890625 -13.181156,3.4375 -13.637411,3.4375 -0.847155,0 -3.759393,-9.433803 -3.319566,-10.753284 0.125089,-0.375267 6.54154,-2.553095 14.25878,-4.839619 l 14.031347,-4.157316 0.963805,-4.696248 c 0.530092,-2.582936 1.721924,-6.245786 2.648514,-8.139668 C 45.513045,14.764285 52.499417,8.0157275 57.296291,5.7684001 60.500984,4.2670072 61.686764,4.0625 67.1875,4.0625 c 5,0 6.75,0.25 8.75,1.25 2.065556,1.0327794 2.5,1.5690262 2.5,3.0858431 0,1.8286439 -0.03063,1.8435319 -7.8125,3.7965099 -4.296875,1.078366 -8.575481,2.153409 -9.508014,2.388983 -1.890913,0.477677 -2.768079,2.749572 -5.536841,14.340649 l -1.459971,6.111984 6.835504,6.856766 c 3.759528,3.771221 7.239747,6.856765 7.733828,6.856765 0.494075,0 4.914494,-1.125 9.823157,-2.5 4.908662,-1.375 9.330287,-2.5 9.825831,-2.5 1.413594,0 1.871362,3.024131 0.723056,4.776667 -1.655763,2.527007 -8.192044,6.915634 -12.34195,8.286702 -4.553406,1.504375 -11.545944,2.111019 -15.254759,1.323439 z M 5.3246347,54.207467 C 3.9765521,50.096256 2.5097102,43.614924 2.8154081,43.120295 3.0262578,42.779133 3.6797959,42.5 4.2677148,42.5 c 0.8094934,0 1.4234978,1.284971 2.5297189,5.294122 0.8034263,2.911767 1.4516625,5.499405 1.440525,5.750307 -0.03885,0.875219 -2.6489643,1.46925 -2.913324,0.663038 z M 156.56791,34.84375 c -0.14732,-0.429688 -0.82869,-3.022638 -1.51416,-5.762113 -1.24859,-4.989961 -1.10099,-5.918543 0.94534,-5.947066 0.60205,-0.0084 3.40675,9.121937 3.38435,11.017311 -0.004,0.39291 -0.45332,0.885097 -0.99706,1.09375 -1.36264,0.522894 -1.51278,0.489712 -1.81847,-0.401882 z"
       id="path3527"
       inkscape:connector-curvature="0" />
  </g>
</svg>
