<?xml version="1.0" encoding="UTF-8" standalone="no"?>
<!-- Created with Inkscape (http://www.inkscape.org/) -->

<svg
   xmlns:dc="http://purl.org/dc/elements/1.1/"
   xmlns:cc="http://creativecommons.org/ns#"
   xmlns:rdf="http://www.w3.org/1999/02/22-rdf-syntax-ns#"
   xmlns:svg="http://www.w3.org/2000/svg"
   xmlns="http://www.w3.org/2000/svg"
   xmlns:xlink="http://www.w3.org/1999/xlink"
   xmlns:sodipodi="http://sodipodi.sourceforge.net/DTD/sodipodi-0.dtd"
   xmlns:inkscape="http://www.inkscape.org/namespaces/inkscape"
   id="svg4325"
   version="1.1"
   inkscape:version="0.91 r13725"
   width="473"
   height="123"
   viewBox="0 0 473 123"
   sodipodi:docname="Webpack.bmp.svg">
  <metadata
     id="metadata4331">
    <rdf:RDF>
      <cc:Work
         rdf:about="">
        <dc:format>image/svg+xml</dc:format>
        <dc:type
           rdf:resource="http://purl.org/dc/dcmitype/StillImage" />
        <dc:title></dc:title>
      </cc:Work>
    </rdf:RDF>
  </metadata>
  <defs
     id="defs4329" />
  <sodipodi:namedview
     pagecolor="#ffffff"
     bordercolor="#666666"
     borderopacity="1"
     objecttolerance="10"
     gridtolerance="10"
     guidetolerance="10"
     inkscape:pageopacity="0"
     inkscape:pageshadow="2"
     inkscape:window-width="640"
     inkscape:window-height="480"
     id="namedview4327"
     showgrid="false"
     inkscape:zoom="0.55391121"
     inkscape:cx="236.5"
     inkscape:cy="61.5"
     inkscape:window-x="0"
     inkscape:window-y="0"
     inkscape:window-maximized="0"
     inkscape:current-layer="svg4325" />
  <image
     width="473"
     height="123"
     preserveAspectRatio="none"
     style="image-rendering:optimizeQuality"
     xlink:href="file:///media/havoc/USB%20DISK/pics/_OpsDeps/Webpack.bmp"
     id="image4333"
     x="0"
     y="0"
     sodipodi:absref="/media/havoc/USB DISK/pics/_OpsDeps/Webpack.bmp" />
  <g
     id="g4429">
    <path
       style="fill:#fbfcfc"
       d="M 0,61.5 0,0 236.5,0 473,0 473,61.5 473,123 236.5,123 0,123 0,61.5 Z"
       id="path4445"
       inkscape:connector-curvature="0" />
    <path
       style="fill:#98d2f0"
       d="M 44,99.5 C 41.012094,97.575 38.223507,96 37.80314,96 37.382772,96 34.522183,94.390117 31.446276,92.422483 28.370368,90.454849 24.53663,88.385828 22.926858,87.824658 21.271119,87.247464 20.006257,86.086819 20.014408,85.152175 20.029417,83.431054 28.794536,78 31.557226,78 32.965312,78 32.965262,77.788493 31.556704,75.777494 29.755434,73.205821 29.289414,54.5572 31,53.5 31.55,53.160081 32,51.783524 32,50.440983 32,48.519672 31.480328,48 29.559017,48 c -1.342541,0 -2.723312,-0.456818 -3.068381,-1.015151 -0.345069,-0.558334 -2.171627,-1.660372 -4.059017,-2.448974 -1.88739,-0.788602 -3.42684,-2.019284 -3.420999,-2.734848 0.01006,-1.231998 9.403917,-7.108252 20.570835,-12.86792 2.794801,-1.441501 6.502885,-3.46057 8.240189,-4.486821 2.436104,-1.439042 3.43006,-1.594582 4.344751,-0.679891 0.866603,0.866603 1.542538,0.890132 2.509811,0.08737 0.888118,-0.737073 1.735183,-0.770618 2.573794,-0.101926 0.6875,0.548199 4.85,2.898494 9.25,5.222878 13.3183,7.035647 20.464122,11.462785 20.48253,12.689791 C 87.005855,43.219298 78.338603,48 75.496492,48 74.25811,48 72.684689,47.325 72,46.5 71.315311,45.675 70.247711,45.023603 69.627555,45.052452 69.0074,45.0813 69.5125,45.811188 70.75,46.674424 71.9875,47.53766 73,48.8962 73,49.693401 c 0,0.797201 0.675,2.124456 1.5,2.949456 1.13559,1.13559 1.5,3.957125 1.5,11.61412 0,8.920364 -0.24957,10.379776 -2.11449,12.364892 -2.096314,2.231425 -2.096893,2.24617 -0.06729,1.715416 C 76.277202,77.694247 86,82.721422 86,84.635876 c 0,0.72491 -1.0125,1.964274 -2.25,2.754141 -3.216398,2.052954 -12.560862,7.268336 -17.25,9.627663 -2.2,1.106924 -5.524339,2.98332 -7.38742,4.16976 -3.156763,2.01029 -3.472149,2.04131 -4.631733,0.45548 -1.086327,-1.48564 -1.318828,-1.50752 -1.831195,-0.17231 C 51.769862,103.76331 49.986799,103.35708 44,99.5 Z M 55.352307,86.761028 c -0.685365,-1.108944 -3.12935,-0.930796 -3.87938,0.282777 -0.354809,0.574093 -0.09712,1.704083 0.572631,2.51109 1.060628,1.277978 1.382841,1.241494 2.497415,-0.282777 0.703822,-0.962534 1.068022,-2.092524 0.809334,-2.51109 z m 6.174154,-2.5679 c -0.307887,-0.307887 -1.114794,-6.34e-4 -1.793128,0.682784 -0.980267,0.987616 -0.865403,1.10248 0.559795,0.559795 0.986221,-0.375531 1.541221,-0.934692 1.233333,-1.242579 z m 5.914669,-2.724931 c 1.067621,-0.807509 1.517621,-1.453885 1,-1.436394 -0.517622,0.01749 -1.814638,0.692492 -2.88226,1.5 -1.067621,0.807509 -1.517621,1.453885 -1,1.436394 0.517622,-0.01749 1.814638,-0.692492 2.88226,-1.5 z M 39.5,81 c -0.339919,-0.55 -1.068034,-1 -1.618034,-1 -0.55,0 -0.721885,0.45 -0.381966,1 0.339919,0.55 1.068034,1 1.618034,1 0.55,0 0.721885,-0.45 0.381966,-1 z m -3,-35 c 0.782182,-1.265597 -0.541628,-1.265597 -2.5,0 -1.292687,0.835399 -1.266292,0.971491 0.190983,0.984687 C 35.121024,46.993109 36.160081,46.55 36.5,46 Z M 44,42 c 0,-0.55 -0.423442,-1 -0.940983,-1 -0.517541,0 -1.219098,0.45 -1.559017,1 -0.339919,0.55 0.08352,1 0.940983,1 C 43.298442,43 44,42.55 44,42 Z m 20.5,0 c -0.339919,-0.55 -1.068034,-1 -1.618034,-1 -0.55,0 -0.721885,0.45 -0.381966,1 0.339919,0.55 1.068034,1 1.618034,1 0.55,0 0.721885,-0.45 0.381966,-1 z m -9.594588,-5.75 c -0.736712,-0.9625 -1.378339,-1.849027 -1.425838,-1.970061 -0.0475,-0.121033 -0.84543,0.666467 -1.773181,1.75 C 50.080063,37.929356 50.131192,38 53.132232,38 c 2.808046,0 2.981573,-0.171259 1.77318,-1.75 z M 222.25,89.337719 C 221.35656,88.977209 221,85.702524 221,77.85765 c 0,-10.554984 -1.04988,-13.460001 -2.49182,-6.894873 -0.44266,2.015414 -2.11771,3.926321 -5.32694,6.077023 -4.29343,2.877288 -5.13688,3.083385 -10.18124,2.487809 -3.025,-0.357155 -7.70771,-0.596526 -10.40603,-0.531936 -5.93026,0.141953 -6.55842,-0.645376 -6.57866,-8.245673 -0.008,-3.1625 -0.21102,-5.75 -0.45021,-5.75 -0.2392,0 -1.58245,0.436296 -2.985,0.969546 l -2.5501,0.969546 2.52376,2.523764 c 1.98792,1.987915 2.31184,2.919758 1.52561,4.388837 -2.03615,3.804583 -6.25493,5.612772 -13.13791,5.630968 -5.77162,0.01526 -6.97145,-0.327459 -10,-2.856404 -4.2814,-3.575126 -5.66469,-5.98217 -6.49463,-11.301273 -1.26758,-8.123904 4.24814,-17.102709 11.75463,-19.134893 7.22194,-1.955146 15.45729,1.911303 18.4612,8.667423 1.0035,2.256979 1.18899,1.183605 1.27143,-7.357514 0.0531,-5.5 0.47174,-10.591692 0.93033,-11.314871 0.53882,-0.849693 2.39076,-1.203475 5.23469,-1 L 196.5,35.5 l 0.31,5 c 0.17049,2.75 0.63864,5.333147 1.04032,5.740328 0.40169,0.40718 2.16605,0.328569 3.92082,-0.174691 6.51164,-1.867515 13.91708,2.00434 17.08817,8.934363 l 1.60156,3.5 0.51956,-5.5 0.51957,-5.5 7.5,-0.534868 c 4.125,-0.294178 7.99223,-0.839807 8.59385,-1.212509 1.92959,-1.195387 8.80734,1.335198 12.05317,4.434817 1.73085,1.652893 3.68751,4.935731 4.34812,7.295196 l 1.20111,4.289936 4.15187,-2.37424 c 2.28354,-1.305833 5.64094,-2.379662 7.4609,-2.386287 2.07383,-0.0075 3.06448,-0.407704 2.65393,-1.071998 -0.41266,-0.667695 -2.58035,-0.819409 -5.85748,-0.409958 -4.88612,0.610481 -5.27263,0.495822 -6.35791,-1.886096 -1.57992,-3.467545 0.80755,-6.075837 6.87798,-7.514149 3.65215,-0.865328 5.65133,-0.788857 9.5,0.363387 4.18274,1.252258 5.25494,2.136213 7.55565,6.229132 2.63757,4.692168 2.69686,4.729166 3.6439,2.27371 2.40436,-6.233936 11.28445,-10.432921 18.5916,-8.791113 5.12929,1.152474 6.58698,2.410305 6.568,5.667485 -0.0278,4.777422 -1.32826,5.71595 -6.1403,4.431541 -5.46387,-1.45839 -9.37714,0.29217 -10.32769,4.61998 -1.32581,6.036389 2.90384,9.585393 10.13194,8.501473 5.124,-0.768391 6.31018,0.144375 6.33605,4.875588 0.0125,2.295507 -0.65872,3.082653 -3.71941,4.361492 -7.5469,3.153296 -17.26516,-0.07956 -21.01666,-6.991357 L 283.52742,68.5 l -0.28792,3 c -0.71219,7.420823 -0.33063,7.140913 -10.73054,7.871954 -10.93397,0.768582 -14.40799,-0.342242 -17.05028,-5.451855 l -1.57517,-3.046048 -3.828,4.312975 L 246.2275,79.5 239.11375,79.443875 232,79.38775 l 0,4.106125 c 0,2.258369 -0.54,4.646125 -1.2,5.306125 -1.19172,1.191724 -6.15554,1.503904 -8.55,0.537719 z m -46.30285,-20.46914 c 4.21014,-1.467661 2.28264,-2.832174 -4.03048,-2.853266 -5.15504,-0.01722 -6.41543,0.67879 -4.78555,2.642678 1.36066,1.639489 4.50184,1.714523 8.81603,0.210588 z m 32.23783,-1.133637 c 1.22393,-1.926941 0.95035,-8.180525 -0.43498,-9.942837 -2.37709,-3.023951 -5.50396,-3.129054 -8.35227,-0.280743 -2.21049,2.210487 -2.53943,3.228017 -2.03948,6.308824 0.32784,2.020289 1.39386,4.265171 2.36892,4.988627 2.01766,1.497026 7.24654,0.833125 8.45781,-1.073871 z m 32.15729,1.325025 c 4.56378,-1.735145 4.36489,-10.540772 -0.2944,-13.034349 -1.50636,-0.806179 -2.64283,-0.782671 -4.29787,0.0889 -3.07694,1.62037 -3.71937,2.809669 -3.71937,6.88548 0,3.879793 0.72835,5.418033 2.96937,6.271109 2.20192,0.838191 2.62645,0.821413 5.34227,-0.211142 z m 31.25149,-0.211671 C 272.22728,67.823229 269.59079,65 268,65 c -0.33976,0 -1.4475,0.606733 -2.46165,1.348296 C 263.1145,68.120658 264.38139,70 268,70 c 1.58508,0 3.20227,-0.518267 3.59376,-1.151704 z M 173.75,56.75 c -0.22917,-0.6875 -1.69167,-1.25 -3.25,-1.25 -1.55833,0 -3.02083,0.5625 -3.25,1.25 -0.28283,0.848485 0.76111,1.25 3.25,1.25 2.48889,0 3.53283,-0.401515 3.25,-1.25 z M 17,63.5 C 17,42.372203 17.02576,42.321906 24.647008,48.56695 L 29,52.133899 29,63.37582 C 29,70.886999 28.585175,75.125294 27.75,76.14716 26.35529,77.853637 19.407545,82 17.94284,82 17.386363,82 17,74.418952 17,63.5 Z m 66,16.271601 c -1.925,-1.207088 -3.830609,-2.662007 -4.234687,-3.233153 -0.404078,-0.571146 -0.741578,-6.49674 -0.75,-13.167986 L 78,51.240924 82.41827,47.620484 C 89.7176,41.639232 90,42.234688 90,63.606989 90,84.231666 90.024062,84.1761 83,79.771601 Z m 32.61282,-2.969155 C 114.78672,75.536101 113.6203,72.25 113.02079,69.5 c -0.59951,-2.75 -1.73726,-6.392349 -2.52835,-8.09411 -0.79108,-1.70176 -1.73746,-5.63926 -2.10306,-8.75 L 107.72464,47 l 5.06678,0 5.06678,0 1.09742,5.25 c 1.09841,5.254766 2.55875,8.606026 3.3645,7.72104 C 122.556,59.711968 123.59297,56.8 124.6245,53.5 l 1.8755,-6 4.69728,-0.302638 4.69728,-0.302638 1.07844,4.302638 C 137.56614,53.563813 138.79121,57.075 139.69538,59 l 1.64394,3.5 1.21164,-5 c 2.38378,-9.836908 2.88048,-10.5 7.86527,-10.5 2.45616,0 4.73434,0.434608 5.06263,0.965797 0.5957,0.963864 -1.77691,10.745141 -3.52551,14.534203 -0.50764,1.1 -1.72743,5.15 -2.71065,9 l -1.78767,7 -5.68544,0.298648 -5.68544,0.298649 -1.61054,-5.798649 c -2.89155,-10.410823 -2.46047,-10.315129 -5.6805,-1.261016 L 126.49482,78.5 l -4.68999,0.302446 c -3.97711,0.256474 -4.9183,-0.04753 -6.19201,-2 z m 196.45145,0.317653 c -1.36413,-2.548915 -1.42089,-36.051907 -0.0671,-39.612636 0.89075,-2.342833 1.45104,-2.589904 5.25,-2.315099 L 321.5,35.5 l 0.28753,9.25 c 0.15814,5.0875 0.69773,9.25 1.1991,9.25 0.50138,0 2.129,-1.596106 3.61694,-3.546903 2.54308,-3.334141 3.0063,-3.529093 7.72229,-3.25 5.52248,0.326821 6.70404,1.624484 3.96878,4.358752 C 334.98224,54.873048 331,60.264254 331,61.437422 c 0,0.639327 2.025,3.945357 4.5,7.346733 2.475,3.401376 4.5,7.114931 4.5,8.252342 0,1.866472 -0.51167,2.038564 -5.25,1.765763 -5.05743,-0.291173 -5.36004,-0.475811 -8.25,-5.033846 -1.65,-2.602372 -3.31284,-4.739872 -3.69521,-4.75 -0.38236,-0.01013 -0.83236,2.119086 -1,4.731586 L 321.5,78.5 l -4.18573,0.304357 c -3.34339,0.243109 -4.39989,-0.09583 -5.25,-1.684258 z"
       id="path4443"
       inkscape:connector-curvature="0" />
    <path
       style="fill:#a0a0a0"
       d="m 222.71241,88.75 c -1.35949,-1.017679 -1.72027,-3.387356 -1.94113,-12.75 -0.27021,-11.454663 -0.2769,-11.483012 -1.69731,-7.190772 -0.78432,2.370076 -2.71728,5.39574 -4.29547,6.7237 -3.16523,2.663363 -10.19651,4.944794 -11.93268,3.871781 -0.60943,-0.376643 -4.31154,-0.734284 -8.22693,-0.794757 L 187.5,78.5 187.24077,73 c -0.14258,-3.025 -0.49338,-6.531341 -0.77956,-7.791868 -0.4688,-2.064876 -0.67304,-2.139158 -2.0622,-0.75 C 183.25376,65.603378 180.68902,66 174.42857,66 167.65137,66 166,66.290154 166,67.480948 c 0,2.182259 4.76334,2.997159 9.73957,1.666221 7.3791,-1.973609 11.05347,2.172806 6.0534,6.831078 -5.21402,4.857602 -15.70148,4.797001 -21.30518,-0.12311 -4.47092,-3.925521 -5.81154,-7.702639 -5.29051,-14.905749 0.39961,-5.524557 0.80584,-6.423095 4.63506,-10.252321 C 163.89142,46.637987 164.2408,46.5 170.45916,46.5 c 5.97102,0 6.68269,0.245151 9.97489,3.436083 2.06644,2.002867 3.8081,4.837792 4.17558,6.796628 1.07782,5.745223 1.87045,2.574666 2.39037,-9.561536 L 187.5,35.5 190.81532,35.181769 C 195.48079,34.733942 197,36.396252 197,41.948983 l 0,4.704093 6.9391,-0.07654 c 6.59787,-0.07277 7.11401,0.09274 10.49625,3.366 2.04602,1.980093 4.15175,5.37862 4.95679,8 L 220.79177,62.5 220.9112,56 c 0.15364,-8.361957 0.75415,-9.22651 6.19978,-8.925758 2.41396,0.133318 6.29174,-0.09175 8.61729,-0.50015 2.32555,-0.4084 5.59486,-0.442395 7.26512,-0.07554 3.94272,0.865967 9.81982,7.10324 10.61213,11.262497 0.82387,4.324942 1.65327,4.661276 5.58436,2.264555 2.12055,-1.292864 5.06115,-2.019467 8.18256,-2.021862 4.36837,-0.0034 4.73401,-0.170543 3.53433,-1.616071 -1.05139,-1.266847 -2.44511,-1.482228 -6.50427,-1.005153 -3.86268,0.453981 -5.46913,0.242132 -6.36691,-0.839628 -4.63404,-5.583675 8.32543,-10.92584 17.35374,-7.153574 2.33925,0.977403 3.98727,2.757197 5.55853,6.00299 2.12272,4.384954 4.05214,5.30561 4.05214,1.933551 0,-2.799512 6.9842,-8.200938 11.47479,-8.874343 6.03336,-0.904759 12.35475,1.021155 13.10018,3.991185 0.8994,3.583462 -1.24479,6.905112 -3.91059,6.058057 -5.81101,-1.846445 -7.78071,-1.740092 -10.22037,0.551845 -3.13966,2.949561 -3.2873,8.10411 -0.3172,11.074217 1.80491,1.804902 2.92257,2.044686 7.38421,1.584204 5.7683,-0.595341 7.48898,0.315876 7.48898,3.965929 0,3.382285 -4.14563,5.608767 -10.44332,5.608767 -6.71949,0 -11.99624,-3.008634 -14.09766,-8.038025 -1.80423,-4.318132 -2.38833,-3.891829 -3.29464,2.40456 L 281.46659,78.5 l -4.9833,0.19486 c -2.74081,0.107173 -7.14257,0.291276 -9.78169,0.409116 -5.06591,0.226201 -8.97223,-1.75927 -11.12427,-5.654161 -0.59253,-1.072398 -1.19926,-2.146749 -1.3483,-2.387447 -0.14903,-0.240698 -2.1946,1.450279 -4.54572,3.757725 -4.51666,4.432765 -8.86923,5.569244 -14.93331,3.899166 -2.70132,-0.743956 -2.75,-0.678629 -2.75,3.69026 0,6.640393 -4.64803,9.813523 -9.28759,6.340481 z m 48.4363,-18.829585 c 1.92269,-1.028995 1.93578,-1.169577 0.27927,-3 C 269.44779,64.732332 266.95591,64.444087 265.2,66.2 c -1.72567,1.725666 -1.47745,3.580847 0.55,4.110674 2.90723,0.759738 3.30343,0.731097 5.39871,-0.390259 z M 207.8,68.8 c 0.66,-0.66 1.2,-3.334483 1.2,-5.943296 0,-3.76797 -0.457,-5.063389 -2.22251,-6.3 -3.02869,-2.121383 -5.37963,-1.954563 -7.89437,0.560175 -1.72806,1.728063 -2.02357,2.944659 -1.6089,6.623681 0.27939,2.478741 1.11949,4.894255 1.86688,5.367808 1.99599,1.264669 7.27382,1.076709 8.6589,-0.308368 z m 34.0589,0.308368 c 0.74739,-0.473553 1.58749,-2.889067 1.86688,-5.367808 0.41467,-3.679022 0.11916,-4.895618 -1.6089,-6.623681 -2.51474,-2.514738 -4.86568,-2.681558 -7.89437,-0.560175 -2.9148,2.0416 -3.2475,10.746913 -0.47251,12.363197 2.14897,1.251662 6.27938,1.347661 8.1089,0.188467 z M 173.81477,57.25 c -0.4102,-2.16303 -5.72967,-2.990787 -6.94095,-1.080076 C 165.38159,58.523811 165.91994,59 170.07332,59 c 3.33912,0 4.01351,-0.315433 3.74145,-1.75 z M 46.5,82.99222 C 44.85,81.973167 41.025,79.805802 38,78.175853 L 32.5,75.21231 32.216168,64.606155 C 32.025788,57.492083 32.288542,54 33.014205,54 c 0.595027,0 3.533226,1.568114 6.529329,3.484699 2.996104,1.916584 7.04041,4.150275 8.987347,4.963757 l 3.539885,1.479059 -0.285383,10.205028 C 51.625387,79.853862 51.060637,84.449053 50.5,84.591307 49.95,84.730862 48.15,84.011273 46.5,82.99222 Z M 55.21372,73.867514 55.5,63.5 l 3,-1.505217 c 1.65,-0.82787 5.36926,-2.96537 8.265023,-4.75 5.990888,-3.692127 6.783065,-3.864831 7.627988,-1.662996 1.131207,2.947879 0.647933,16.982323 -0.643011,18.673255 -1.491722,1.953918 -12.961983,8.509074 -16.398446,9.371572 l -2.424115,0.608414 0.286281,-10.367514 z m 61.43596,3.639307 c -0.87789,-0.877889 -2.1056,-3.488561 -2.72824,-5.801492 -0.62264,-2.312931 -2.00203,-6.692493 -3.0653,-9.73236 -1.06327,-3.039867 -2.02838,-7.539867 -2.14468,-10 L 108.5,47.5 l 4.41667,0 c 3.85459,0 4.50726,0.318153 5.12859,2.5 2.31603,8.132921 3.35285,11 3.97791,11 0.38668,0 1.50154,-2.5875 2.47748,-5.75 2.33371,-7.56232 3.11516,-8.410896 7.41376,-8.050564 3.30835,0.277324 3.6869,0.64851 4.89582,4.800564 0.72063,2.475 2.03069,6.075 2.91125,8 l 1.60101,3.5 0.89528,-3.5 c 1.66606,-6.513351 3.03223,-10.494926 4.03169,-11.75 1.43888,-1.806856 7.68076,-1.595421 8.4022,0.284611 0.63047,1.642987 -1.04389,9.046524 -3.15836,13.965389 -0.70929,1.65 -1.85824,5.592817 -2.55323,8.761816 -0.69499,3.168999 -1.83256,6.233998 -2.52794,6.811109 -0.69538,0.577111 -3.21008,0.909294 -5.58823,0.738184 L 136.5,78.5 134.14936,71.183974 c -1.29285,-4.023815 -2.59013,-7.076536 -2.88284,-6.783826 -0.29271,0.29271 -1.51963,3.584921 -2.72649,7.316026 L 126.34574,78.5 l -4.04995,0.301492 c -2.70184,0.201134 -4.58126,-0.229824 -5.64611,-1.294671 z M 312.4472,77.723 c -0.26952,-0.70235 -0.36789,-10.48985 -0.21862,-21.75 L 312.5,35.5 315.81532,35.181769 C 321.18778,34.66608 322,36.102901 322,46.122445 322,51.0051 322.41936,55 322.93191,55 c 0.51254,0 1.95336,-1.4625 3.20182,-3.25 3.01088,-4.310901 3.70922,-4.716714 8.14765,-4.734687 5.42411,-0.02197 5.63895,2.034416 0.81076,7.76036 C 332.84146,57.444845 331,60.327665 331,61.181939 c 0,0.854274 2.04703,4.605878 4.54895,8.336897 2.50192,3.731019 4.31604,7.390606 4.03138,8.132417 C 339.26451,78.474286 337.49142,79 335.03138,79 c -4.5574,0 -6.90237,-1.818523 -9.55603,-7.410713 C 323.2082,66.811632 322,67.05871 322,72.3 c 0,2.365 -0.54,4.84 -1.2,5.5 -1.59552,1.595524 -7.7327,1.538948 -8.3528,-0.077 z M 43.004876,55.959504 c -4.672319,-2.711638 -8.606726,-5.274333 -8.743127,-5.694877 -0.244035,-0.752395 4.461173,-3.943387 8.093092,-5.488597 1.020162,-0.434031 3.114629,-1.686196 4.65437,-2.782589 3.777423,-2.689762 8.338291,-2.508927 12.775977,0.506559 2.023495,1.375 4.042842,2.5 4.487439,2.5 1.409812,0 6.729417,4.331207 6.679045,5.438058 C 70.890252,51.787674 55.18674,61.018574 53.07758,60.944877 52.209911,60.91456 47.677194,58.671142 43.004876,55.959504 Z"
       id="path4441"
       inkscape:connector-curvature="0" />
    <path
       style="fill:#5494c6"
       d="m 222.46856,86.778671 c -0.28345,-0.73866 -0.39233,-9.65354 -0.24196,-19.810845 L 222.5,48.5 l 7,-0.322889 c 14.44052,-0.666097 15.4672,-0.55579 18.14976,1.950005 3.87845,3.62289 5.35024,7.246681 5.35024,13.173186 0,4.408914 -0.54874,6.157139 -2.9908,9.528298 -3.42375,4.726355 -6.00946,5.657597 -13.54854,4.879495 l -5.36151,-0.553356 -0.29957,5.17263 L 230.5,87.5 l -3.75804,0.310844 c -2.45808,0.203319 -3.9363,-0.153724 -4.2734,-1.032173 z M 243.4433,68.777494 c 2.21257,-3.158898 1.96489,-8.988846 -0.51588,-12.142635 -2.38501,-3.032053 -6.29515,-3.466444 -9.70491,-1.078155 C 231.39484,56.836849 231,58.067758 231,62.485275 231,69.020282 232.63096,71 238.01472,71 c 2.86746,0 4.2757,-0.576544 5.42858,-2.222506 z M 46.5,82.99222 C 44.85,81.973167 41.025,79.805802 38,78.175853 L 32.5,75.21231 32.216168,64.606155 C 32.025788,57.492083 32.288542,54 33.014205,54 c 0.595027,0 3.533226,1.568114 6.529329,3.484699 2.996104,1.916584 7.04041,4.150275 8.987347,4.963757 l 3.539885,1.479059 -0.285383,10.205028 C 51.625387,79.853862 51.060637,84.449053 50.5,84.591307 49.95,84.730862 48.15,84.011273 46.5,82.99222 Z M 55.21372,73.867514 55.5,63.5 l 3,-1.505217 c 1.65,-0.82787 5.36926,-2.96537 8.265023,-4.75 5.990888,-3.692127 6.783065,-3.864831 7.627988,-1.662996 1.131207,2.947879 0.647933,16.982323 -0.643011,18.673255 -1.491722,1.953918 -12.961983,8.509074 -16.398446,9.371572 l -2.424115,0.608414 0.286281,-10.367514 z m 112.72341,4.122535 c -12.10428,-2.087253 -16.43987,-19.332227 -6.87611,-27.349942 5.33138,-4.469529 13.72109,-4.339918 19.0285,0.293968 2.59574,2.266336 3.26624,3.713022 3.67042,7.9194 L 184.25446,64 175.70902,64 C 166.48691,64 164,64.520787 164,66.452001 c 0,3.707749 7.95741,5.831697 13.5,3.603345 1.1,-0.442246 2.7875,-0.394785 3.75,0.105469 6.02128,3.129524 -4.54193,9.341691 -13.31287,7.829234 z M 176,58.934259 C 176,56.029454 173.78713,54 170.6198,54 c -3.50794,0 -7.32091,3.056559 -6.15874,4.936987 C 165.32755,60.33901 176,60.336487 176,58.934259 Z m -59.99934,14.877376 c -1.0762,-2.371399 -1.96662,-4.932088 -1.9787,-5.690419 -0.0121,-0.758331 -1.20904,-4.884505 -2.65993,-9.169275 -3.09979,-9.15438 -2.74612,-11.213037 1.84955,-10.765812 2.75582,0.268181 3.35245,0.823368 4.09853,3.813871 1.55615,6.237476 3.83355,12 4.74251,12 0.48796,0 1.94502,-3.4875 3.23791,-7.75 2.12687,-7.012039 2.6116,-7.780686 5.09056,-8.072258 3.6136,-0.425026 5.23491,1.068535 5.95116,5.482244 0.82525,5.085434 3.97102,12.395397 5.16775,12.008534 0.55,-0.177797 1.57601,-3.200551 2.28002,-6.717232 C 145.34825,51.117604 147.25105,48 150.46404,48 c 3.42852,0 3.75209,1.126454 2.05912,7.168355 C 151.70148,58.10076 150.03444,64.1 148.81861,68.5 c -1.21582,4.4 -2.68489,8.342446 -3.2646,8.760992 -1.7236,1.244435 -7.78952,0.358192 -8.6309,-1.260992 -0.4287,-0.825 -1.59928,-4.172061 -2.60128,-7.437913 -1.00201,-3.265852 -2.31494,-6.092722 -2.91763,-6.281933 -0.6041,-0.189654 -2.20141,3.147847 -3.55974,7.437913 -2.45159,7.742916 -2.48255,7.783495 -6.1755,8.093568 -3.5087,0.294602 -3.8185,0.07598 -5.6683,-4 z m 72.4885,3.0207 C 188.19552,76.06713 188.07783,66.679316 188.22764,55.970526 L 188.5,36.5 l 2.89149,-0.330076 c 3.68907,-0.421122 4.57412,1.039458 4.5932,7.580076 0.0163,5.577946 0.31477,5.847043 4.65534,4.196759 1.52363,-0.579282 4.49699,-0.761508 6.60746,-0.404947 11.59447,1.958874 15.44441,18.82991 6.22823,27.293079 -3.48644,3.201578 -3.87834,3.313639 -9.80367,2.803249 -3.39463,-0.292403 -6.62205,-0.563118 -7.17205,-0.601589 -0.55,-0.03847 -2.45732,0.212881 -4.23848,0.558559 -2.29547,0.445493 -3.39394,0.223382 -3.77236,-0.762775 z m 19.93941,-7.403764 C 209.4671,68.390039 210,66.035458 210,62.485275 210,58.067758 209.60516,56.836849 207.77749,55.556704 202.32414,51.737024 196,55.439473 196,62.451808 196,68.320013 198.18999,71 202.98528,71 c 2.18654,0 4.55586,-0.684001 5.44329,-1.571429 z m 50.31679,6.211239 C 250.88263,68.352877 256.747,58.144707 268.1656,59.241891 272.26158,59.635462 273,59.442054 273,57.975652 c 0,-2.955821 -2.60953,-4.185996 -8.10341,-3.82007 -4.15103,0.276485 -5.39043,-0.0123 -6.28377,-1.464151 -1.51955,-2.469593 1.11145,-4.340097 7.21453,-5.129142 6.46478,-0.835809 10.26305,0.469095 12.95359,4.450232 2.08638,3.087182 2.25697,4.318127 2,14.431272 L 280.5,77.5 l -9.61757,0.237401 c -8.86471,0.218817 -9.8148,0.05462 -12.13707,-2.097591 z m 13.73766,-5.621052 c 1.49731,-1.654509 1.57767,-2.24071 0.48724,-3.554597 -2.55859,-3.082904 -4.93496,-3.717308 -7.53732,-2.01218 C 261.20616,67.221473 262.85982,72 268.04501,72 c 1.45476,0 3.45186,-0.891559 4.43801,-1.981242 z m 18.72743,5.968153 C 287.73746,73.869451 284,66.815036 284,62.377257 c 0,-3.343982 3.39939,-9.759654 6.43743,-12.149378 3.37638,-2.65586 9.54244,-3.510462 14.23538,-1.972993 3.07895,1.008701 3.82719,1.741752 3.82719,3.749475 0,2.398269 -0.21584,2.483281 -5.53196,2.178899 -4.77066,-0.273149 -5.90602,0.02992 -8.25,2.202252 -3.40301,3.1538 -3.64401,8.167592 -0.57984,12.063053 1.93882,2.464813 2.65112,2.687192 7.63885,2.384859 4.46504,-0.27065 5.70984,0.0078 6.6118,1.479226 3.05853,4.989465 -10.32582,7.852226 -17.1784,3.674261 z m 22.26031,0.797487 c -0.28352,-0.73884 -0.39293,-10.105082 -0.24312,-20.813872 L 313.5,36.5 l 3.5,0 3.5,0 0.28498,10.25 c 0.33029,11.87928 1.15102,12.65196 6.10764,5.75 2.69852,-3.75763 3.7713,-4.5 6.50285,-4.5 1.79916,0 3.55492,0.283723 3.90169,0.630495 0.34677,0.346772 -1.41155,3.229687 -3.90737,6.406479 -5.15873,6.566238 -5.17888,6.399477 1.97989,16.389464 1.94165,2.70954 3.30122,5.29704 3.02128,5.75 C 338.11101,77.629397 336.40327,78 334.59597,78 c -3.62864,0 -5.1057,-1.326207 -8.63154,-7.75 -3.26638,-5.951064 -4.79912,-5.505891 -5.16453,1.5 -0.29664,5.687417 -0.33535,5.753416 -3.55678,6.063871 -2.04445,0.197029 -3.44877,-0.186207 -3.77236,-1.029473 z M 43.004876,55.959504 c -4.672319,-2.711638 -8.606726,-5.274333 -8.743127,-5.694877 -0.244035,-0.752395 4.461173,-3.943387 8.093092,-5.488597 1.020162,-0.434031 3.114629,-1.686196 4.65437,-2.782589 3.777423,-2.689762 8.338291,-2.508927 12.775977,0.506559 2.023495,1.375 4.042842,2.5 4.487439,2.5 1.409812,0 6.729417,4.331207 6.679045,5.438058 C 70.890252,51.787674 55.18674,61.018574 53.07758,60.944877 52.209911,60.91456 47.677194,58.671142 43.004876,55.959504 Z"
       id="path4439"
       inkscape:connector-curvature="0" />
    <path
       style="fill:#1b74b9"
       d="m 222.46856,86.778671 c -0.28345,-0.73866 -0.39233,-9.65354 -0.24196,-19.810845 L 222.5,48.5 l 7,-0.322889 c 14.44052,-0.666097 15.4672,-0.55579 18.14976,1.950005 3.87845,3.62289 5.35024,7.246681 5.35024,13.173186 0,4.408914 -0.54874,6.157139 -2.9908,9.528298 -3.42375,4.726355 -6.00946,5.657597 -13.54854,4.879495 l -5.36151,-0.553356 -0.29957,5.17263 L 230.5,87.5 l -3.75804,0.310844 c -2.45808,0.203319 -3.9363,-0.153724 -4.2734,-1.032173 z M 243.4433,68.777494 c 2.21257,-3.158898 1.96489,-8.988846 -0.51588,-12.142635 -2.38501,-3.032053 -6.29515,-3.466444 -9.70491,-1.078155 C 231.39484,56.836849 231,58.067758 231,62.485275 231,69.020282 232.63096,71 238.01472,71 c 2.86746,0 4.2757,-0.576544 5.42858,-2.222506 z M 47.5,81.879523 c -1.1,-0.487108 -4.7,-2.37388 -8,-4.192825 l -6,-3.307174 -0.287526,-9.189762 c -0.158139,-5.054369 0.06686,-9.188605 0.5,-9.187191 0.433139,0.0014 3.397562,1.576414 6.587606,3.5 C 43.490124,61.426157 46.495481,63 46.978651,63 c 0.483171,0 1.585635,0.707143 2.44992,1.571429 C 50.590897,65.733754 51,68.191605 51,74.012412 c 0,4.328255 -0.3375,8.068276 -0.75,8.311158 -0.4125,0.242882 -1.65,0.04306 -2.75,-0.444047 z M 56,75.0651 C 56,67.67892 57.208864,63 59.117187,63 c 0.641678,0 4.044321,-1.81739 7.561428,-4.038644 L 73.073356,54.922712 72.786678,64.585113 72.5,74.247514 65.663363,78.123757 C 61.903213,80.255691 58.190713,82 57.413363,82 56.331415,82 56,80.373857 56,75.0651 Z m 111.93713,2.924949 c -12.10428,-2.087253 -16.43987,-19.332227 -6.87611,-27.349942 5.33138,-4.469529 13.72109,-4.339918 19.0285,0.293968 2.59574,2.266336 3.26624,3.713022 3.67042,7.9194 L 184.25446,64 175.70902,64 C 166.48691,64 164,64.520787 164,66.452001 c 0,3.707749 7.95741,5.831697 13.5,3.603345 1.1,-0.442246 2.7875,-0.394785 3.75,0.105469 6.02128,3.129524 -4.54193,9.341691 -13.31287,7.829234 z M 176,58.934259 C 176,56.029454 173.78713,54 170.6198,54 c -3.50794,0 -7.32091,3.056559 -6.15874,4.936987 C 165.32755,60.33901 176,60.336487 176,58.934259 Z m -59.99934,14.877376 c -1.0762,-2.371399 -1.96662,-4.932088 -1.9787,-5.690419 -0.0121,-0.758331 -1.20904,-4.884505 -2.65993,-9.169275 -3.09979,-9.15438 -2.74612,-11.213037 1.84955,-10.765812 2.75582,0.268181 3.35245,0.823368 4.09853,3.813871 1.55615,6.237476 3.83355,12 4.74251,12 0.48796,0 1.94502,-3.4875 3.23791,-7.75 2.12687,-7.012039 2.6116,-7.780686 5.09056,-8.072258 3.6136,-0.425026 5.23491,1.068535 5.95116,5.482244 0.82525,5.085434 3.97102,12.395397 5.16775,12.008534 0.55,-0.177797 1.57601,-3.200551 2.28002,-6.717232 C 145.34825,51.117604 147.25105,48 150.46404,48 c 3.42852,0 3.75209,1.126454 2.05912,7.168355 C 151.70148,58.10076 150.03444,64.1 148.81861,68.5 c -1.21582,4.4 -2.68489,8.342446 -3.2646,8.760992 -1.7236,1.244435 -7.78952,0.358192 -8.6309,-1.260992 -0.4287,-0.825 -1.59928,-4.172061 -2.60128,-7.437913 -1.00201,-3.265852 -2.31494,-6.092722 -2.91763,-6.281933 -0.6041,-0.189654 -2.20141,3.147847 -3.55974,7.437913 -2.45159,7.742916 -2.48255,7.783495 -6.1755,8.093568 -3.5087,0.294602 -3.8185,0.07598 -5.6683,-4 z m 72.4885,3.0207 C 188.19552,76.06713 188.07783,66.679316 188.22764,55.970526 L 188.5,36.5 l 2.89149,-0.330076 c 3.68907,-0.421122 4.57412,1.039458 4.5932,7.580076 0.0163,5.577946 0.31477,5.847043 4.65534,4.196759 1.52363,-0.579282 4.49699,-0.761508 6.60746,-0.404947 11.59447,1.958874 15.44441,18.82991 6.22823,27.293079 -3.48644,3.201578 -3.87834,3.313639 -9.80367,2.803249 -3.39463,-0.292403 -6.62205,-0.563118 -7.17205,-0.601589 -0.55,-0.03847 -2.45732,0.212881 -4.23848,0.558559 -2.29547,0.445493 -3.39394,0.223382 -3.77236,-0.762775 z m 19.93941,-7.403764 C 209.4671,68.390039 210,66.035458 210,62.485275 210,58.067758 209.60516,56.836849 207.77749,55.556704 202.32414,51.737024 196,55.439473 196,62.451808 196,68.320013 198.18999,71 202.98528,71 c 2.18654,0 4.55586,-0.684001 5.44329,-1.571429 z m 50.31679,6.211239 C 250.88263,68.352877 256.747,58.144707 268.1656,59.241891 272.26158,59.635462 273,59.442054 273,57.975652 c 0,-2.955821 -2.60953,-4.185996 -8.10341,-3.82007 -4.15103,0.276485 -5.39043,-0.0123 -6.28377,-1.464151 -1.51955,-2.469593 1.11145,-4.340097 7.21453,-5.129142 6.46478,-0.835809 10.26305,0.469095 12.95359,4.450232 2.08638,3.087182 2.25697,4.318127 2,14.431272 L 280.5,77.5 l -9.61757,0.237401 c -8.86471,0.218817 -9.8148,0.05462 -12.13707,-2.097591 z m 13.73766,-5.621052 c 1.49731,-1.654509 1.57767,-2.24071 0.48724,-3.554597 -2.55859,-3.082904 -4.93496,-3.717308 -7.53732,-2.01218 C 261.20616,67.221473 262.85982,72 268.04501,72 c 1.45476,0 3.45186,-0.891559 4.43801,-1.981242 z m 18.72743,5.968153 C 287.73746,73.869451 284,66.815036 284,62.377257 c 0,-3.343982 3.39939,-9.759654 6.43743,-12.149378 3.37638,-2.65586 9.54244,-3.510462 14.23538,-1.972993 3.07895,1.008701 3.82719,1.741752 3.82719,3.749475 0,2.398269 -0.21584,2.483281 -5.53196,2.178899 -4.77066,-0.273149 -5.90602,0.02992 -8.25,2.202252 -3.40301,3.1538 -3.64401,8.167592 -0.57984,12.063053 1.93882,2.464813 2.65112,2.687192 7.63885,2.384859 4.46504,-0.27065 5.70984,0.0078 6.6118,1.479226 3.05853,4.989465 -10.32582,7.852226 -17.1784,3.674261 z m 22.26031,0.797487 c -0.28352,-0.73884 -0.39293,-10.105082 -0.24312,-20.813872 L 313.5,36.5 l 3.5,0 3.5,0 0.28498,10.25 c 0.33029,11.87928 1.15102,12.65196 6.10764,5.75 2.69852,-3.75763 3.7713,-4.5 6.50285,-4.5 1.79916,0 3.55492,0.283723 3.90169,0.630495 0.34677,0.346772 -1.41155,3.229687 -3.90737,6.406479 -5.15873,6.566238 -5.17888,6.399477 1.97989,16.389464 1.94165,2.70954 3.30122,5.29704 3.02128,5.75 C 338.11101,77.629397 336.40327,78 334.59597,78 c -3.62864,0 -5.1057,-1.326207 -8.63154,-7.75 -3.26638,-5.951064 -4.79912,-5.505891 -5.16453,1.5 -0.29664,5.687417 -0.33535,5.753416 -3.55678,6.063871 -2.04445,0.197029 -3.44877,-0.186207 -3.77236,-1.029473 z M 48.5,57.568814 C 46.3,56.28781 42.593723,54.140805 40.263829,52.797692 l -4.236172,-2.442023 2.945679,-2.177835 C 40.59346,46.980026 42.282776,46 42.727373,46 c 0.444597,0 2.463944,-1.125 4.487439,-2.5 4.445798,-3.020998 7.667913,-3.166689 11.058059,-0.5 1.398423,1.1 2.897422,2 3.331108,2 0.433686,0 2.510392,1.193258 4.614902,2.651685 l 3.826382,2.651684 -5.272632,2.972638 C 61.872684,54.910958 58.825,56.814473 58,57.506042 c -2.864737,2.401408 -5.454236,2.418519 -9.5,0.06277 z"
       id="path4437"
       inkscape:connector-curvature="0" />
    <path
       style="fill:#5d5e5e"
       d="m 222.46856,86.778671 c -0.28345,-0.73866 -0.39233,-9.65354 -0.24196,-19.810845 L 222.5,48.5 l 7,-0.322889 c 14.44052,-0.666097 15.4672,-0.55579 18.14976,1.950005 3.87845,3.62289 5.35024,7.246681 5.35024,13.173186 0,4.408914 -0.54874,6.157139 -2.9908,9.528298 -3.42375,4.726355 -6.00946,5.657597 -13.54854,4.879495 l -5.36151,-0.553356 -0.29957,5.17263 L 230.5,87.5 l -3.75804,0.310844 c -2.45808,0.203319 -3.9363,-0.153724 -4.2734,-1.032173 z M 243.4433,68.777494 c 2.21257,-3.158898 1.96489,-8.988846 -0.51588,-12.142635 -2.38501,-3.032053 -6.29515,-3.466444 -9.70491,-1.078155 C 231.39484,56.836849 231,58.067758 231,62.485275 231,69.020282 232.63096,71 238.01472,71 c 2.86746,0 4.2757,-0.576544 5.42858,-2.222506 z m -75.50617,9.212555 c -12.10428,-2.087253 -16.43987,-19.332227 -6.87611,-27.349942 5.33138,-4.469529 13.72109,-4.339918 19.0285,0.293968 2.59574,2.266336 3.26624,3.713022 3.67042,7.9194 L 184.25446,64 175.70902,64 C 166.48691,64 164,64.520787 164,66.452001 c 0,3.707749 7.95741,5.831697 13.5,3.603345 1.1,-0.442246 2.7875,-0.394785 3.75,0.105469 6.02128,3.129524 -4.54193,9.341691 -13.31287,7.829234 z M 176,58.934259 C 176,56.029454 173.78713,54 170.6198,54 c -3.50794,0 -7.32091,3.056559 -6.15874,4.936987 C 165.32755,60.33901 176,60.336487 176,58.934259 Z m -59.99934,14.877376 c -1.0762,-2.371399 -1.96662,-4.932088 -1.9787,-5.690419 -0.0121,-0.758331 -1.20904,-4.884505 -2.65993,-9.169275 -3.09979,-9.15438 -2.74612,-11.213037 1.84955,-10.765812 2.75582,0.268181 3.35245,0.823368 4.09853,3.813871 1.55615,6.237476 3.83355,12 4.74251,12 0.48796,0 1.94502,-3.4875 3.23791,-7.75 2.12687,-7.012039 2.6116,-7.780686 5.09056,-8.072258 3.6136,-0.425026 5.23491,1.068535 5.95116,5.482244 0.82525,5.085434 3.97102,12.395397 5.16775,12.008534 0.55,-0.177797 1.57601,-3.200551 2.28002,-6.717232 C 145.34825,51.117604 147.25105,48 150.46404,48 c 3.42852,0 3.75209,1.126454 2.05912,7.168355 C 151.70148,58.10076 150.03444,64.1 148.81861,68.5 c -1.21582,4.4 -2.68489,8.342446 -3.2646,8.760992 -1.7236,1.244435 -7.78952,0.358192 -8.6309,-1.260992 -0.4287,-0.825 -1.59928,-4.172061 -2.60128,-7.437913 -1.00201,-3.265852 -2.31494,-6.092722 -2.91763,-6.281933 -0.6041,-0.189654 -2.20141,3.147847 -3.55974,7.437913 -2.45159,7.742916 -2.48255,7.783495 -6.1755,8.093568 -3.5087,0.294602 -3.8185,0.07598 -5.6683,-4 z m 72.4885,3.0207 C 188.19552,76.06713 188.07783,66.679316 188.22764,55.970526 L 188.5,36.5 l 2.89149,-0.330076 c 3.68907,-0.421122 4.57412,1.039458 4.5932,7.580076 0.0163,5.577946 0.31477,5.847043 4.65534,4.196759 1.52363,-0.579282 4.49699,-0.761508 6.60746,-0.404947 11.59447,1.958874 15.44441,18.82991 6.22823,27.293079 -3.48644,3.201578 -3.87834,3.313639 -9.80367,2.803249 -3.39463,-0.292403 -6.62205,-0.563118 -7.17205,-0.601589 -0.55,-0.03847 -2.45732,0.212881 -4.23848,0.558559 -2.29547,0.445493 -3.39394,0.223382 -3.77236,-0.762775 z m 19.93941,-7.403764 C 209.4671,68.390039 210,66.035458 210,62.485275 210,58.067758 209.60516,56.836849 207.77749,55.556704 202.32414,51.737024 196,55.439473 196,62.451808 196,68.320013 198.18999,71 202.98528,71 c 2.18654,0 4.55586,-0.684001 5.44329,-1.571429 z m 50.31679,6.211239 C 250.88263,68.352877 256.747,58.144707 268.1656,59.241891 272.26158,59.635462 273,59.442054 273,57.975652 c 0,-2.955821 -2.60953,-4.185996 -8.10341,-3.82007 -4.15103,0.276485 -5.39043,-0.0123 -6.28377,-1.464151 -1.51955,-2.469593 1.11145,-4.340097 7.21453,-5.129142 6.46478,-0.835809 10.26305,0.469095 12.95359,4.450232 2.08638,3.087182 2.25697,4.318127 2,14.431272 L 280.5,77.5 l -9.61757,0.237401 c -8.86471,0.218817 -9.8148,0.05462 -12.13707,-2.097591 z m 13.73766,-5.621052 c 1.49731,-1.654509 1.57767,-2.24071 0.48724,-3.554597 -2.55859,-3.082904 -4.93496,-3.717308 -7.53732,-2.01218 C 261.20616,67.221473 262.85982,72 268.04501,72 c 1.45476,0 3.45186,-0.891559 4.43801,-1.981242 z m 18.72743,5.968153 C 287.73746,73.869451 284,66.815036 284,62.377257 c 0,-3.343982 3.39939,-9.759654 6.43743,-12.149378 3.37638,-2.65586 9.54244,-3.510462 14.23538,-1.972993 3.07895,1.008701 3.82719,1.741752 3.82719,3.749475 0,2.398269 -0.21584,2.483281 -5.53196,2.178899 -4.77066,-0.273149 -5.90602,0.02992 -8.25,2.202252 -3.40301,3.1538 -3.64401,8.167592 -0.57984,12.063053 1.93882,2.464813 2.65112,2.687192 7.63885,2.384859 4.46504,-0.27065 5.70984,0.0078 6.6118,1.479226 3.05853,4.989465 -10.32582,7.852226 -17.1784,3.674261 z m 22.26031,0.797487 c -0.28352,-0.73884 -0.39293,-10.105082 -0.24312,-20.813872 L 313.5,36.5 l 3.5,0 3.5,0 0.28498,10.25 c 0.33029,11.87928 1.15102,12.65196 6.10764,5.75 2.69852,-3.75763 3.7713,-4.5 6.50285,-4.5 1.79916,0 3.55492,0.283723 3.90169,0.630495 0.34677,0.346772 -1.41155,3.229687 -3.90737,6.406479 -5.15873,6.566238 -5.17888,6.399477 1.97989,16.389464 1.94165,2.70954 3.30122,5.29704 3.02128,5.75 C 338.11101,77.629397 336.40327,78 334.59597,78 c -3.62864,0 -5.1057,-1.326207 -8.63154,-7.75 -3.26638,-5.951064 -4.79912,-5.505891 -5.16453,1.5 -0.29664,5.687417 -0.33535,5.753416 -3.55678,6.063871 -2.04445,0.197029 -3.44877,-0.186207 -3.77236,-1.029473 z"
       id="path4435"
       inkscape:connector-curvature="0" />
    <path
       style="fill:#2c2e2e"
       d="M 225.2282,87.222153 222.9564,86.855185 223.2282,68.177592 223.5,49.5 227,49.653718 c 1.925,0.08455 5.525,-0.244796 8,-0.731869 6.51891,-1.282902 10.33321,-0.05917 13.91914,4.465656 2.49352,3.146384 3.08086,4.822093 3.08086,8.789838 0,5.835414 -2.7725,11.827757 -6.36094,13.748233 -1.82806,0.97835 -4.3817,1.172075 -9.09062,0.689632 L 230,75.944301 l 0,5.420861 c 0,5.693441 -0.6727,6.519126 -4.7718,5.856991 z m 17.48301,-16.022511 c 0.66617,-0.423353 1.88423,-2.380488 2.70681,-4.349189 3.92335,-9.389898 -5.16898,-17.76719 -12.78316,-11.777873 -2.26825,1.784205 -2.63486,2.827742 -2.63486,7.5 0,6.760746 2.20181,9.434763 7.75,9.412107 2.0625,-0.0084 4.29505,-0.361692 4.96121,-0.785045 z m -75.50217,5.825693 C 160.91854,75.516265 157,69.97812 157,62.596713 c 0,-5.548789 1.285,-8.372031 5.26251,-11.562087 2.47351,-1.983824 4.15084,-2.449808 8.58732,-2.38568 5.01283,0.07246 5.81465,0.40844 8.83178,3.700689 C 182.1095,54.998922 183,56.904091 183,59.449103 l 0,3.478473 -9.75,0.286212 c -9.16518,0.269044 -9.76868,0.417483 -10.06149,2.474719 -0.17794,1.250145 0.62663,3.126638 1.87647,4.376471 1.99863,1.998634 2.82601,2.130145 9.56149,1.519792 C 180.84251,71.021488 182,71.154582 182,72.432619 c 0,3.151819 -9.06459,5.966452 -14.79096,4.592716 z m 9.66502,-16.926338 c 1.13883,-0.721373 1.05912,-1.403536 -0.46561,-3.984688 C 174.81729,53.420684 174.00558,53 170.3994,53 c -3.37866,0 -4.49008,0.489444 -5.86038,2.580788 -2.68726,4.101275 -1.42194,5.421384 5.1796,5.403899 3.17976,-0.0084 6.39971,-0.406983 7.15544,-0.88569 z M 202.5,77.258537 c -1.1,-0.198898 -3.02159,-0.869344 -4.27021,-1.489879 -1.7052,-0.847449 -2.56383,-0.834619 -3.45,0.05155 C 194.13091,76.469093 192.565,77 191.3,77 l -2.3,0 0,-20.066422 0,-20.066423 2.75,0.316423 c 2.58843,0.297832 2.7663,0.639556 3.02738,5.816422 0.40355,8.001451 0.43356,8.037921 5.24966,6.37864 5.14239,-1.771699 9.56372,-1.019761 13.37189,2.274166 6.27153,5.424649 5.33096,19.745467 -1.53832,23.421791 -3.13128,1.675814 -7.07811,2.596654 -9.36061,2.18394 z M 209,70 c 2.90831,-2.908311 2.80618,-11.512963 -0.17431,-14.685549 -2.97908,-3.171081 -8.12335,-3.107703 -11.37114,0.140094 -3.69441,3.694404 -3.13365,13.056651 0.94515,15.780142 C 200.67635,72.754843 206.9793,72.020696 209,70 Z m 87.27505,6.94597 c -5.53212,-1.171842 -8.04482,-3.539818 -9.85725,-9.289503 -1.59517,-5.060468 -1.59321,-5.630286 0.034,-9.891058 2.41131,-6.313917 6.42509,-9.051123 13.27237,-9.051123 3.5563,0 5.95036,0.531666 6.96559,1.546896 2.51721,2.517206 0.72273,3.69344 -4.66185,3.055717 -4.51759,-0.535043 -5.16423,-0.334412 -7.97214,2.473491 -3.47251,3.472509 -3.98077,7.520161 -1.53757,12.244783 1.73726,3.359486 4.86892,4.444499 10.60679,3.67489 4.15261,-0.556982 6.31965,1.245303 4.13007,3.43489 -1.59036,1.590353 -7.44273,2.550301 -10.98,1.801017 z M 117.07728,72.814646 C 114.83558,67.878723 110,52.589956 110,50.438252 110,49.511762 111.05134,49 112.95469,49 c 2.61882,0 3.03409,0.423248 3.6532,3.723436 1.14571,6.107153 4.1553,13.776564 5.40613,13.776564 0.642,0 2.06851,-2.925 3.17002,-6.5 3.35656,-10.893834 3.52227,-11.167206 6.55632,-10.815607 2.3873,0.276652 2.8623,0.943782 3.84833,5.404981 C 137.06368,61.262805 140.07632,68 141.58546,68 c 1.49359,0 2.0579,-1.438954 2.98264,-7.605539 C 145.75317,52.491825 147.60833,49 150.62183,49 c 2.9844,0 3.0074,-0.2669 -1.20643,14 -1.38079,4.675 -2.83746,9.625 -3.23705,11 -0.61356,2.111323 -1.3287,2.5 -4.59981,2.5 l -3.87331,0 -1.90765,-6.963853 c -3.32711,-12.145547 -5.09234,-12.341186 -8.74756,-0.969488 -2.29785,7.148821 -2.82014,7.964456 -5.28161,8.247987 -2.36599,0.272533 -2.99386,-0.262832 -4.69113,-4 z m 142.20389,2.23268 c -3.02456,-2.817807 -3.83412,-7.554475 -1.81725,-10.632601 2.16394,-3.302592 6.08388,-4.715633 11.1904,-4.03386 5.77482,0.770999 7.62584,-1.389291 4.26014,-4.971919 -2.03855,-2.169935 -3.13097,-2.497596 -7.63186,-2.289106 -5.79066,0.268236 -7.16006,-0.357641 -5.40622,-2.470885 1.49772,-1.804648 7.60295,-2.769985 12.49639,-1.975888 6.23191,1.011298 7.715,4.484481 7.39158,17.309947 L 279.5,76.466028 l -9.05797,0.270221 c -7.84037,0.233897 -9.34064,0.0069 -11.16086,-1.688923 z m 13.73508,-3.8594 c 2.83397,-2.294813 2.08082,-5.108654 -2.01497,-7.528096 -2.87275,-1.696976 -3.12976,-1.697008 -6.00128,-7.59e-4 -2.16998,1.281838 -3,2.528765 -3,4.506846 0,4.703998 6.67706,6.535669 11.01625,3.022009 z M 314,57 l 0,-20.132845 2.75,0.316423 2.75,0.316422 0.28383,10.75 c 0.31822,12.052196 1.11513,13.101379 5.69665,7.5 1.46204,-1.7875 3.29764,-4.0375 4.0791,-5 C 330.80335,49.218102 336,48.193132 336,49.479714 c 0,0.263842 -1.79806,2.851342 -3.9957,5.75 -2.19763,2.898657 -3.99763,5.631734 -4,6.073503 -0.002,0.44177 2.0207,3.905322 4.4957,7.696783 2.475,3.791461 4.5,7.142513 4.5,7.446783 0,0.746983 -3.44921,0.701807 -5.4646,-0.07157 -0.8955,-0.343635 -2.68367,-2.706135 -3.9737,-5.25 -1.29004,-2.543866 -3.28479,-5.473964 -4.43277,-6.511329 -2.54029,-2.295522 -2.9534,-1.508371 -3.35155,6.386119 -0.26108,5.176866 -0.43895,5.51859 -3.02738,5.816422 L 314,77.132845 314,57 Z"
       id="path4433"
       inkscape:connector-curvature="0" />
    <path
       style="fill:#171919"
       d="M 224.66667,86.333333 C 224.3,85.966667 224,77.641667 224,67.833333 224,51.32716 224.13396,50 225.8,50 c 0.99,0 2.33091,0.530907 2.97979,1.179794 0.87041,0.870401 1.77514,0.894181 3.45,0.09068 4.09906,-1.966496 5.88165,-2.276448 9.59968,-1.669168 8.4703,1.38349 12.41461,14.456705 6.64425,22.022038 -3.49277,4.579259 -9.00304,6.188537 -13.40161,3.913947 C 230.12094,72.976942 229,73.979594 229,80.968615 229,86.150564 228.7418,87 227.16667,87 c -1.00834,0 -2.13334,-0.3 -2.5,-0.666667 z m 17.12854,-13.975441 c 1.32564,-0.355088 3.14702,-2.284492 4.31166,-4.56737 2.4037,-4.711644 1.88276,-8.460965 -1.78048,-12.814477 C 242.32544,52.59805 241.02712,52 237.86565,52 c -5.77922,0 -8.86998,3.388431 -8.852,9.704545 0.008,2.6375 0.27157,5.756617 0.5868,6.931371 0.95175,3.546836 6.51249,5.244038 12.19476,3.721976 z m -76.47889,2.698729 C 160.18436,72.726636 158,68.838889 158,62.034975 c 0,-4.362523 0.46985,-5.57704 3.39043,-8.763946 3.1385,-3.424697 3.80784,-3.6996 9.00783,-3.6996 5.07116,0 5.90837,0.318564 8.60957,3.276003 C 182.28525,56.435743 183.1924,62 180.5,62 c -0.85615,0 -1.5,-0.899514 -1.5,-2.09563 0,-1.152596 -0.93064,-3.402596 -2.06809,-5 C 175.19267,52.461833 174.17322,52 170.5208,52 c -3.62201,0 -4.77281,0.510783 -6.93191,3.076725 -2.8973,3.443245 -3.05963,4.052536 -1.49625,5.615916 0.79019,0.790187 0.76195,1.710544 -0.10202,3.324877 -2.61528,4.886701 5.83015,10.699095 12.76401,8.784564 5.77753,-1.595254 7.23066,-0.448013 2.53521,2.001538 -5.10785,2.664691 -6.59251,2.696061 -11.97352,0.253001 z M 200,75.5 c -2.92545,-1.67234 -6,-1.928552 -6,-0.5 0,0.55 -0.9,1 -2,1 -1.92982,0 -2,-0.666667 -2,-19 0,-18.333333 0.0702,-19 2,-19 1.80952,0 2,0.666667 2,7 0,6.074074 0.2381,7 1.8,7 0.99,0 2.33654,-0.536538 2.99231,-1.192308 0.65577,-0.655769 3.46307,-1.192307 6.23846,-1.192307 4.32658,0 5.4952,0.44905 8.19519,3.149038 2.86745,2.867447 3.14832,3.711792 3.14094,9.442308 -0.01,7.671806 -1.26153,10.188706 -6.3605,12.790003 C 205.40137,77.346046 203.40496,77.446454 200,75.5 Z m 10.28975,-4.389749 c 0.6137,-0.613701 1.30007,-4.009512 1.52528,-7.546247 0.37251,-5.850189 0.17785,-6.662037 -2.15733,-8.997216 -1.863,-1.862992 -3.60748,-2.562589 -6.36225,-2.551475 -2.0875,0.0084 -4.27153,0.345922 -4.85341,0.75 -5.7768,4.011608 -5.91428,16.823831 -0.20658,19.251597 2.79517,1.188924 10.54133,0.6063 12.05429,-0.906659 z m 51.09254,4.020238 c -1.71474,-1.067106 -3.41631,-3.129894 -3.78126,-4.583972 -0.92181,-3.672778 1.32883,-7.963211 4.40559,-8.398469 2.43351,-0.344259 2.44806,-0.307943 0.66568,1.661566 -2.76894,3.059644 -1.83865,7.204856 2.13598,9.517574 3.23321,1.88131 3.38649,1.882861 6.75577,0.06838 4.35892,-2.347434 5.1927,-4.864583 2.73595,-8.259767 -1.83756,-2.53948 -1.84135,-2.69976 -0.10363,-4.385806 2.29353,-2.225333 2.26408,-2.894914 -0.26895,-6.115141 C 272.09125,52.300552 271.1559,52 265.72742,52 c -4.72994,0 -5.85659,-0.270833 -4.93992,-1.1875 0.67364,-0.673644 4.00675,-1.1875 7.70265,-1.1875 5.27922,0 6.79038,0.367547 7.966,1.9375 1.92761,2.574191 2.74015,8.401337 2.35744,16.906334 L 278.5,75.437669 274,75.596171 c -2.475,0.08718 -5.625,0.454604 -7,0.816506 -1.66716,0.438801 -3.53862,0.01166 -5.61771,-1.282188 z m 32.40649,-0.273804 c -4.3107,-1.901418 -4.84164,-2.526709 -6.24528,-7.355046 -1.36068,-4.680562 -1.36707,-5.750244 -0.0566,-9.4646 1.76811,-5.011348 4.76739,-7.661713 9.53304,-8.424043 3.94839,-0.631596 9.17106,0.460095 9.69307,2.026136 0.21879,0.656361 -1.59053,0.869717 -4.98693,0.588061 -5.13418,-0.425766 -5.45207,-0.303337 -8.63998,3.327496 -2.97044,3.383142 -3.25707,4.236411 -2.79629,8.324422 0.764,6.778136 4.34085,9.54202 11.40517,8.812918 6.15268,-0.635013 7.48686,1.351716 2.15577,3.210146 -4.12304,1.437297 -4.52889,1.395127 -10.062,-1.04549 z M 117.74942,72.600719 c -0.89155,-1.869605 -1.94523,-5.127557 -2.34151,-7.239893 -0.39627,-2.112336 -1.54028,-5.645159 -2.54224,-7.850718 -2.53941,-5.589862 -2.42724,-7.728966 0.38433,-7.329659 1.54321,0.219171 2.34431,1.104874 2.55024,2.819551 0.16513,1.375 1.21508,5.5375 2.33323,9.25 1.53543,5.097945 2.47594,6.75 3.84278,6.75 C 123.8753,69 125,67.122417 125,63.952139 c 0,-1.036357 0.64751,-3.362052 1.43891,-5.168212 0.7914,-1.80616 1.69997,-4.521427 2.01905,-6.033927 0.43932,-2.082482 1.16748,-2.75 2.99982,-2.75 2.12672,0 2.50011,0.575086 3.08401,4.75 0.36538,2.6125 1.75614,7.1125 3.09057,10 3.68487,7.97351 6.46223,6.760955 7.75279,-3.384761 C 146.15768,55.292078 148.57344,50 150.57324,50 c 1.79835,0 1.80283,-0.06286 -0.48321,6.781545 -1.78388,5.340932 -3.01758,9.847038 -4.5088,16.468455 -0.52602,2.335675 -1.12876,2.75 -4.00054,2.75 -3.25544,0 -3.42714,-0.195274 -4.61606,-5.25 -0.67917,-2.8875 -1.90668,-6.959399 -2.72779,-9.048664 -2.34958,-5.978315 -4.29781,-4.552267 -7.58044,5.548664 -2.44397,7.520296 -3.15577,8.75 -5.06479,8.75 -1.54138,0 -2.7173,-1.040362 -3.84219,-3.399281 z M 315,56.926676 c 0,-17.625548 0.13284,-19.047991 1.75,-18.739573 1.50575,0.28717 1.81979,1.896213 2.25,11.528421 0.275,6.157068 0.35195,14.589875 0.171,18.739572 C 318.88055,75.115723 318.61685,76 316.921,76 315.09348,76 315,75.07186 315,56.926676 Z m 15.65499,17.244583 C 329.74474,73.165452 329,72.009031 329,71.601435 329,71.193838 327.65,68.898193 326,66.5 324.35,64.101807 323,61.864013 323,61.527125 323,59.956723 331.23301,50 332.53154,50 c 2.12205,0 1.8706,0.672641 -2.03154,5.434695 -3.59682,4.38945 -4.25835,6.746511 -2.48592,8.857511 1.76663,2.104089 5.55685,8.139959 6.25299,9.957794 0.89937,2.348532 -1.46202,2.297056 -3.61208,-0.07874 z"
       id="path4431"
       inkscape:connector-curvature="0" />
  </g>
</svg>
