<?xml version="1.0" encoding="UTF-8" standalone="no"?>
<!-- Created with Inkscape (http://www.inkscape.org/) -->

<svg
   xmlns:dc="http://purl.org/dc/elements/1.1/"
   xmlns:cc="http://creativecommons.org/ns#"
   xmlns:rdf="http://www.w3.org/1999/02/22-rdf-syntax-ns#"
   xmlns:svg="http://www.w3.org/2000/svg"
   xmlns="http://www.w3.org/2000/svg"
   xmlns:xlink="http://www.w3.org/1999/xlink"
   xmlns:sodipodi="http://sodipodi.sourceforge.net/DTD/sodipodi-0.dtd"
   xmlns:inkscape="http://www.inkscape.org/namespaces/inkscape"
   id="svg4335"
   version="1.1"
   inkscape:version="0.91 r13725"
   width="110"
   height="123"
   viewBox="0 0 110 123"
   sodipodi:docname="Xaml.bmp.svg">
  <metadata
     id="metadata4341">
    <rdf:RDF>
      <cc:Work
         rdf:about="">
        <dc:format>image/svg+xml</dc:format>
        <dc:type
           rdf:resource="http://purl.org/dc/dcmitype/StillImage" />
        <dc:title></dc:title>
      </cc:Work>
    </rdf:RDF>
  </metadata>
  <defs
     id="defs4339" />
  <sodipodi:namedview
     pagecolor="#ffffff"
     bordercolor="#666666"
     borderopacity="1"
     objecttolerance="10"
     gridtolerance="10"
     guidetolerance="10"
     inkscape:pageopacity="0"
     inkscape:pageshadow="2"
     inkscape:window-width="640"
     inkscape:window-height="480"
     id="namedview4337"
     showgrid="false"
     inkscape:zoom="1.9186992"
     inkscape:cx="55"
     inkscape:cy="61.5"
     inkscape:window-x="0"
     inkscape:window-y="0"
     inkscape:window-maximized="0"
     inkscape:current-layer="svg4335" />
  <image
     width="110"
     height="123"
     preserveAspectRatio="none"
     style="image-rendering:optimizeQuality"
     xlink:href="file:///media/havoc/USB%20DISK/pics/_OpsDeps/Xaml.bmp"
     id="image4343"
     x="0"
     y="0"
     sodipodi:absref="/media/havoc/USB DISK/pics/_OpsDeps/Xaml.bmp" />
  <g
     id="g4392">
    <path
       style="fill-opacity:1"
       d="M 21.666667,104.33333 C 21.3,103.96667 21,99.016667 21,93.333333 21,84.679739 20.748778,83 19.454545,83 c -0.85,0 -2.65,-1.104545 -4,-2.454545 C 13.066008,78.156917 13,77.686308 13,63.045455 13,49.333333 13.177241,47.822759 15,46 c 1.1,-1.1 2.9,-2 4,-2 1.915612,0 2,-0.666667 2,-15.8 0,-10.955556 0.367932,-16.167932 1.2,-17 C 23.065671,10.334329 29.988157,10 47.046708,10 L 70.693416,10 80.346708,21.028912 90,32.057823 90,38.028912 C 90,43.333333 90.223298,44 92,44 c 1.1,0 2.9,0.9 4,2 1.822759,1.822759 2,3.333333 2,17.045455 0,14.640853 -0.06601,15.111462 -2.454545,17.5 -1.35,1.35 -3.15,2.454545 -4,2.454545 C 90.26091,83 90,84.590021 90,92.418213 90,97.598229 89.726855,102.54823 89.393011,103.41821 88.856369,104.81668 84.935268,105 55.559678,105 37.285188,105 22.033333,104.7 21.666667,104.33333 Z M 86,91.5 86,83 55.5,83 25,83 l 0,8.5 0,8.5 30.5,0 30.5,0 0,-8.5 z m -59.920699,-22.691449 1.321941,-3.191449 1.302247,3.191449 C 29.667153,71.170225 30.64058,72 32.447449,72 l 2.441713,0 -2.108307,-5.073152 -2.108307,-5.073152 2.163726,-4.453599 C 35.479742,51.959043 35.478887,52 32.948973,52 c -1.424067,0 -2.528946,1.143824 -3.614488,3.74189 L 27.771023,59.483781 26.278558,55.74189 C 25.132053,52.86739 24.227466,52 22.3762,52 l -2.409892,0 2.626823,5.183784 2.626822,5.183784 -2.109977,4.342968 C 20.544094,71.991894 20.54374,72 22.87868,72 c 1.169657,0 2.377586,-1.204468 3.200621,-3.191449 z M 42.289749,70 c 0.345435,-1.320946 1.364016,-2 3,-2 1.635984,0 2.654565,0.679054 3,2 0.31947,1.221656 1.364016,2 2.684019,2 1.593364,0 2.021773,-0.459681 1.630944,-1.75 C 47.842836,54.528705 46.810992,52 45.157757,52 c -1.35237,0 -2.458442,2.295202 -4.819065,10 l -3.063834,10 2.245939,0 c 1.404936,0 2.441785,-0.74891 2.768952,-2 z m 2.02598,-8.677081 c 1.065221,-3.470805 1.166574,-3.540927 1.80672,-1.25 C 47.258807,64.13967 47.079158,65 45.093601,65 43.359432,65 43.289156,64.6678 44.315729,61.322919 Z M 60.638567,65.75 60.080761,59.5 l 2.062414,6.303528 c 2.636381,8.057787 4.5314,7.974964 6.944836,-0.303528 l 1.749186,-6 0.0814,6.25 C 70.981801,70.60271 71.335349,72 72.5,72 73.733333,72 74,70.222222 74,62 74,52.094183 73.97726,52 71.585284,52 c -2.185739,0 -2.586045,0.726743 -4.221512,7.664022 l -1.806796,7.664023 -1.890518,-7.664023 C 61.968198,52.779402 61.533092,52 59.38797,52 57.029875,52 57,52.125105 57,62 c 0,9.48932 0.10715,10 2.098187,10 1.966608,0 2.063206,-0.39194 1.54038,-6.25 z M 91,70.5 C 91,69.416667 89.888889,69 87,69 l -4,0 0,-8.5 C 83,52.666667 82.843137,52 81,52 c -1.866667,0 -2,0.666667 -2,10 l 0,10 6,0 c 4.666667,0 6,-0.333333 6,-1.5 z M 86,39.538933 86,35.077866 77.25,34.788933 68.5,34.5 68.215017,24.25 67.930034,14 46.465017,14 25,14 l 0,15 0,15 30.5,0 30.5,0 0,-4.461067 z"
       id="path4408"
       inkscape:connector-curvature="0" />
    <path
       style="fill-opacity:1"
       d="M 21.666667,104.33333 C 21.3,103.96667 21,99.016667 21,93.333333 21,84.679739 20.748778,83 19.454545,83 c -0.85,0 -2.65,-1.104545 -4,-2.454545 C 13.066008,78.156917 13,77.686308 13,63.045455 13,49.333333 13.177241,47.822759 15,46 c 1.1,-1.1 2.9,-2 4,-2 1.915612,0 2,-0.666667 2,-15.8 0,-10.955556 0.367932,-16.167932 1.2,-17 C 23.065648,10.334352 29.986366,10 47.038647,10 L 70.677293,10 80.338647,21.070571 90,32.141142 90,38.070571 C 90,43.333333 90.224867,44 92,44 c 1.1,0 2.9,0.9 4,2 1.822759,1.822759 2,3.333333 2,17.045455 0,14.640853 -0.06601,15.111462 -2.454545,17.5 -1.35,1.35 -3.15,2.454545 -4,2.454545 C 90.26091,83 90,84.590021 90,92.418213 90,97.598229 89.726855,102.54823 89.393011,103.41821 88.856369,104.81668 84.935268,105 55.559678,105 37.285188,105 22.033333,104.7 21.666667,104.33333 Z M 86,91.5 86,83 55.5,83 25,83 l 0,8.5 0,8.5 30.5,0 30.5,0 0,-8.5 z m -59.920699,-22.691449 1.321941,-3.191449 1.302247,3.191449 C 29.667153,71.170225 30.64058,72 32.447449,72 l 2.441713,0 -2.108307,-5.073152 -2.108307,-5.073152 2.163726,-4.453599 C 35.479742,51.959043 35.478887,52 32.948973,52 c -1.424067,0 -2.528946,1.143824 -3.614488,3.74189 L 27.771023,59.483781 26.278558,55.74189 C 25.132053,52.86739 24.227466,52 22.3762,52 l -2.409892,0 2.626823,5.183784 2.626822,5.183784 -2.109977,4.342968 C 20.544094,71.991894 20.54374,72 22.87868,72 c 1.169657,0 2.377586,-1.204468 3.200621,-3.191449 z M 42.289749,70 c 0.345435,-1.320946 1.364016,-2 3,-2 1.635984,0 2.654565,0.679054 3,2 0.31947,1.221656 1.364016,2 2.684019,2 1.593364,0 2.021773,-0.459681 1.630944,-1.75 C 47.842836,54.528705 46.810992,52 45.157757,52 c -1.35237,0 -2.458442,2.295202 -4.819065,10 l -3.063834,10 2.245939,0 c 1.404936,0 2.441785,-0.74891 2.768952,-2 z m 2.02598,-8.677081 c 1.065221,-3.470805 1.166574,-3.540927 1.80672,-1.25 C 47.258807,64.13967 47.079158,65 45.093601,65 43.359432,65 43.289156,64.6678 44.315729,61.322919 Z M 60.626557,65.75 60.05674,59.5 l 2.02592,6.312869 c 2.607416,8.12484 4.571065,8.037141 7.005351,-0.312869 l 1.749186,-6 0.0814,6.25 C 70.981801,70.60271 71.335349,72 72.5,72 73.733333,72 74,70.222222 74,62 74,52.094183 73.97726,52 71.585284,52 c -2.185739,0 -2.586045,0.726743 -4.221512,7.664022 l -1.806796,7.664023 -1.890518,-7.664023 C 61.968198,52.779402 61.533092,52 59.38797,52 57.029875,52 57,52.125105 57,62 c 0,9.48932 0.10715,10 2.098187,10 1.96789,0 2.062801,-0.388124 1.52837,-6.25 z M 91,70.5 C 91,69.416667 89.888889,69 87,69 l -4,0 0,-8.5 C 83,52.666667 82.843137,52 81,52 c -1.866667,0 -2,0.666667 -2,10 l 0,10 6,0 c 4.666667,0 6,-0.333333 6,-1.5 z M 86,39.538933 86,35.077866 77.25,34.788933 68.5,34.5 68.215017,24.25 67.930034,14 46.465017,14 25,14 l 0,15 0,15 30.5,0 30.5,0 0,-4.461067 z"
       id="path4406"
       inkscape:connector-curvature="0" />
    <path
       style="fill-opacity:1"
       d="M 21.606989,103.41821 C 21.273145,102.54823 21,97.598229 21,92.418213 21,84.590021 20.73909,83 19.454545,83 c -0.85,0 -2.65,-1.104545 -4,-2.454545 C 13.066008,78.156917 13,77.686308 13,63.045455 13,49.333333 13.177241,47.822759 15,46 c 1.1,-1.1 2.9,-2 4,-2 1.915612,0 2,-0.666667 2,-15.8 0,-10.955556 0.367932,-16.167932 1.2,-17 C 23.065648,10.334352 29.986366,10 47.038647,10 L 70.677293,10 80.338647,21.070571 90,32.141142 l 0,5.804429 c 0,5.656421 0.07692,5.819813 3.016501,6.407729 C 97.304991,45.210998 98,47.966385 98,64.110554 c 0,13.510007 -0.08258,14.062935 -2.454545,16.434901 -1.35,1.35 -3.15,2.454545 -4,2.454545 C 90.26091,83 90,84.590021 90,92.418213 90,97.598229 89.726855,102.54823 89.393011,103.41821 88.856339,104.81676 84.930008,105 55.5,105 26.069992,105 22.143661,104.81676 21.606989,103.41821 Z M 86,91.5 86,83 55.5,83 25,83 l 0,8.5 0,8.5 30.5,0 30.5,0 0,-8.5 z m -59.920699,-22.691449 1.321941,-3.191449 1.302247,3.191449 C 29.68088,71.203867 30.632013,72 32.516288,72 l 2.510552,0 -1.622132,-3.75 C 30.766682,62.151485 30.735281,61.439216 32.916006,57.164642 35.482264,52.13436 35.483122,52 32.948973,52 c -1.424067,0 -2.528946,1.143824 -3.614488,3.74189 L 27.771023,59.483781 26.278558,55.74189 C 25.132053,52.86739 24.227466,52 22.3762,52 l -2.409892,0 2.549682,5.031555 2.549682,5.031555 -2.032836,4.595563 C 20.565872,72.235655 20.572673,72 22.87868,72 c 1.169657,0 2.377586,-1.204468 3.200621,-3.191449 z M 42.289749,70 c 0.345435,-1.320946 1.364016,-2 3,-2 1.635984,0 2.654565,0.679054 3,2 0.31947,1.221656 1.364016,2 2.684019,2 1.593364,0 2.021773,-0.459681 1.630944,-1.75 C 47.842836,54.528705 46.810992,52 45.157757,52 c -1.35237,0 -2.458442,2.295202 -4.819065,10 l -3.063834,10 2.245939,0 c 1.404936,0 2.441785,-0.74891 2.768952,-2 z m 2.02598,-8.677081 c 1.065221,-3.470805 1.166574,-3.540927 1.80672,-1.25 C 47.258807,64.13967 47.079158,65 45.093601,65 43.359432,65 43.289156,64.6678 44.315729,61.322919 Z M 60.626557,65.75 60.05674,59.5 l 2.02592,6.312869 c 2.607416,8.12484 4.571065,8.037141 7.005351,-0.312869 l 1.749186,-6 0.0814,6.25 C 70.981801,70.60271 71.335349,72 72.5,72 73.733333,72 74,70.222222 74,62 74,52.041757 73.98972,52 71.538544,52 c -2.56851,0 -3.208011,1.381935 -5.28359,11.417607 l -0.81024,3.917608 -1.807641,-7.667608 C 62.000768,52.726771 61.600553,52 59.414716,52 57.022742,52 57,52.094183 57,62 c 0,9.48932 0.10715,10 2.098187,10 1.96789,0 2.062801,-0.388124 1.52837,-6.25 z M 91,70.5 C 91,69.416667 89.888889,69 87,69 l -4,0 0,-8.5 C 83,52.666667 82.843137,52 81,52 c -1.866667,0 -2,0.666667 -2,10 l 0,10 6,0 c 4.666667,0 6,-0.333333 6,-1.5 z M 86,39.538933 86,35.077866 77.25,34.788933 68.5,34.5 68.215017,24.25 67.930034,14 46.465017,14 25,14 l 0,15 0,15 30.5,0 30.5,0 0,-4.461067 z"
       id="path4404"
       inkscape:connector-curvature="0" />
    <path
       style="fill-opacity:1"
       d="M 21.606989,103.41821 C 21.273145,102.54823 21,97.606803 21,92.437265 21,83.22231 20.950548,83.025692 18.476671,82.404789 13.659536,81.195765 13,78.832121 13,62.777494 13,49.333333 13.180455,47.819545 15,46 c 1.1,-1.1 2.9,-2 4,-2 1.915612,0 2,-0.666667 2,-15.8 0,-10.955556 0.367932,-16.167932 1.2,-17 C 23.065648,10.334352 29.986366,10 47.038647,10 L 70.677293,10 80.338647,21.070571 90,32.141142 l 0,5.804429 c 0,5.656421 0.07692,5.819813 3.016501,6.407729 C 97.257262,45.201452 98,47.980548 98,63 98,77.747489 97.236996,80.67282 93.005733,82.147846 L 90,83.19565 90,92.516038 C 90,97.642251 89.726855,102.54823 89.393011,103.41821 88.856339,104.81676 84.930008,105 55.5,105 26.069992,105 22.143661,104.81676 21.606989,103.41821 Z M 86,92 86,83 55.5,83 25,83 l 0,9 0,9 30.5,0 30.5,0 0,-9 z m -59.920699,-23.191449 1.321941,-3.191449 1.302247,3.191449 C 29.68088,71.203867 30.632013,72 32.516288,72 l 2.510552,0 -1.604229,-3.75 c -0.882326,-2.0625 -1.823927,-4.27971 -2.092447,-4.927133 -0.26852,-0.647423 0.447344,-3.292126 1.590809,-5.877118 C 35.455477,51.716082 35.455886,52 32.913136,52 c -1.400433,0 -2.459335,0.986789 -3.219238,3 -0.622805,1.65 -1.429122,3 -1.791815,3 C 27.53939,58 26.683452,56.65 26,55 25.108355,52.847379 24.08072,52 22.361834,52 l -2.395526,0 2.549682,5.031555 2.549682,5.031555 -2.032836,4.595563 C 20.565872,72.235655 20.572673,72 22.87868,72 c 1.169657,0 2.377586,-1.204468 3.200621,-3.191449 z M 42.289749,70 c 0.345435,-1.320946 1.364016,-2 3,-2 1.635984,0 2.654565,0.679054 3,2 C 48.734727,71.7016 53,73.070723 53,71.511958 c 0,-0.268424 -1.371128,-4.768424 -3.046951,-10 C 45.795685,48.533522 44.380671,48.604989 40.290085,62 l -3.053813,10 2.265232,0 c 1.424229,0 2.45941,-0.742532 2.788245,-2 z M 44.26112,61.500853 C 45.503328,57.453368 45.51373,57.45462 46.33136,61.75 46.851827,64.484254 46.651439,65 45.068601,65 43.380578,65 43.297582,64.640345 44.26112,61.500853 Z M 60.682981,65.75 60.10763,59.5 62.108105,65.812869 C 64.68395,73.941423 66.652804,73.853171 69.088011,65.5 l 1.749186,-6 0.0814,6.25 C 70.981801,70.60271 71.335349,72 72.5,72 73.733333,72 74,70.222222 74,62 74,52.041757 73.989722,52 71.538544,52 68.982124,52 69.052167,51.85462 66.238834,63 65.359633,66.483067 65.346722,66.464925 63.56996,59.25 61.973674,52.767932 61.531167,52 59.392281,52 57.028725,52 57,52.120074 57,62 c 0,9.535551 0.09889,10 2.129166,10 2.006482,0 2.096014,-0.360132 1.553815,-6.25 z M 91,70.5 C 91,69.416667 89.888889,69 87,69 l -4,0 0,-8.5 C 83,52.666667 82.843137,52 81,52 c -1.866667,0 -2,0.666667 -2,10 l 0,10 6,0 c 4.666667,0 6,-0.333333 6,-1.5 z M 86,39.538933 86,35.077866 77.25,34.788933 68.5,34.5 68.215017,24.25 67.930034,14 46.465017,14 25,14 l 0,15 0,15 30.5,0 30.5,0 0,-4.461067 z"
       id="path4402"
       inkscape:connector-curvature="0" />
    <path
       style="fill-opacity:1"
       d="M 21.606989,103.41821 C 21.273145,102.54823 21,97.373229 21,91.918213 21,82.066834 20.983536,82 18.556704,82 13.943383,82 13,78.917347 13,63.842593 13,47.969934 13.706036,45.208793 17.983499,44.3533 L 21,43.75 21,28.075 C 21,17.216667 21.36874,12.03126 22.2,11.2 23.065742,10.334258 29.993688,10 47.071595,10 L 70.743191,10 80.371595,21.159608 90,32.319216 l 0,5.633596 c 0,5.492918 0.08116,5.657487 3.25,6.590391 L 96.5,45.5 96.774713,62.36776 C 97.067515,80.346231 96.69711,82 92.377555,82 90.028035,82 90,82.121454 90,92.3 c 0,6.677778 -0.422006,10.72201 -1.2,11.5 -0.884393,0.88439 -9.798447,1.2 -33.893011,1.2 -28.88926,0 -32.763633,-0.18404 -33.3,-1.58179 z M 86,91.5 86,82 55.5,82 25,82 l 0,9.5 0,9.5 30.5,0 30.5,0 0,-9.5 z m -59.920699,-22.691449 1.321941,-3.191449 1.302247,3.191449 C 29.68088,71.203867 30.632013,72 32.516288,72 l 2.510552,0 -1.604229,-3.75 c -0.882326,-2.0625 -1.823927,-4.27971 -2.092447,-4.927133 -0.26852,-0.647423 0.447344,-3.292126 1.590809,-5.877118 C 35.447209,51.734774 35.442109,52 33.02568,52 c -1.21442,0 -2.618632,1.245963 -3.648327,3.237174 l -1.674008,3.237174 -1.533099,-3.237174 C 25.08674,52.949326 23.952267,52 22.301728,52 l -2.33542,0 2.549682,5.031555 2.549682,5.031555 -2.032836,4.595563 C 20.565872,72.235655 20.572673,72 22.87868,72 c 1.169657,0 2.377586,-1.204468 3.200621,-3.191449 z M 42.289749,70 c 0.345435,-1.320946 1.364016,-2 3,-2 1.635984,0 2.654565,0.679054 3,2 C 48.734727,71.7016 53,73.070723 53,71.511958 c 0,-0.268424 -1.371128,-4.768424 -3.046951,-10 C 45.795685,48.533522 44.380671,48.604989 40.290085,62 l -3.053813,10 2.265232,0 c 1.424229,0 2.45941,-0.742532 2.788245,-2 z M 44.26112,61.500853 C 45.503328,57.453368 45.51373,57.45462 46.33136,61.75 46.851827,64.484254 46.651439,65 45.068601,65 43.380578,65 43.297582,64.640345 44.26112,61.500853 Z M 60.682981,65.75 60.10763,59.5 62.108105,65.812869 C 64.609083,73.705168 66.533819,73.757225 69.027068,66 l 1.767755,-5.5 0.102589,5.75 C 70.975893,70.64885 71.352474,72 72.5,72 73.733333,72 74,70.222222 74,62 74,52.041757 73.989722,52 71.538544,52 68.982124,52 69.052167,51.85462 66.238834,63 65.359633,66.483067 65.346722,66.464925 63.56996,59.25 61.973674,52.767932 61.531167,52 59.392281,52 57.028725,52 57,52.120074 57,62 c 0,9.535551 0.09889,10 2.129166,10 2.006482,0 2.096014,-0.360132 1.553815,-6.25 z M 91,70.5 C 91,69.416667 89.888889,69 87,69 l -4,0 0,-8.5 C 83,52.666667 82.843137,52 81,52 c -1.866667,0 -2,0.666667 -2,10 l 0,10 6,0 c 4.666667,0 6,-0.333333 6,-1.5 z M 86,39.538933 86,35.077866 77.25,34.788933 68.5,34.5 68.215017,24.25 67.930034,14 46.465017,14 25,14 l 0,15 0,15 30.5,0 30.5,0 0,-4.461067 z"
       id="path4400"
       inkscape:connector-curvature="0" />
    <path
       style="fill-opacity:1"
       d="M 22.2,103.8 C 21.423015,103.02301 21,98.992538 21,92.366422 L 21,82.132845 18.273171,81.816422 C 13.913994,81.310582 13.018819,78.132216 13.114422,63.5 13.219569,47.406986 13.620089,45.779984 17.781023,44.543203 L 21,43.586407 21,27.993203 C 21,17.19849 21.369275,12.030725 22.2,11.2 23.065524,10.334476 29.976808,10 46.995637,10 L 70.591273,10 80.295637,21.174485 90,32.348971 l 0,5.618718 c 0,5.476134 0.08247,5.642998 3.25,6.575514 L 96.5,45.5 96.774713,62.36776 C 97.067515,80.346231 96.69711,82 92.377555,82 90.028035,82 90,82.121454 90,92.3 c 0,6.677778 -0.422006,10.72201 -1.2,11.5 -1.71703,1.71703 -64.88297,1.71703 -66.6,0 z M 86,91.5 86,82 55.5,82 25,82 l 0,9.5 0,9.5 30.5,0 30.5,0 0,-9.5 z m -59.920699,-22.691449 1.321941,-3.191449 1.302247,3.191449 C 29.678263,71.197455 30.633683,72 32.502868,72 c 3.020678,0 3.024352,-0.04624 0.410736,-5.169351 -2.176892,-4.26706 -2.071536,-5.03956 1.919729,-14.075967 C 35.016667,52.339607 34.240723,52 33.109013,52 c -1.308369,0 -2.667234,1.178801 -3.73166,3.237174 l -1.674008,3.237174 -1.533099,-3.237174 C 25.08674,52.949326 23.952267,52 22.301728,52 l -2.33542,0 2.505314,4.943998 2.505313,4.943999 -1.988467,4.638907 C 20.567477,72.174846 20.570984,72 22.87868,72 c 1.169657,0 2.377586,-1.204468 3.200621,-3.191449 z M 42.289749,70 c 0.345435,-1.320946 1.364016,-2 3,-2 1.635984,0 2.654565,0.679054 3,2 C 48.734727,71.7016 53,73.070723 53,71.511958 c 0,-0.268424 -1.371128,-4.768424 -3.046951,-10 C 45.795685,48.533522 44.380671,48.604989 40.290085,62 l -3.053813,10 2.265232,0 c 1.424229,0 2.45941,-0.742532 2.788245,-2 z M 44.26112,61.500853 C 45.503328,57.453368 45.51373,57.45462 46.33136,61.75 46.851827,64.484254 46.651439,65 45.068601,65 43.380578,65 43.297582,64.640345 44.26112,61.500853 Z M 60.682981,65.75 60.10763,59.5 62.108105,65.812869 C 64.609083,73.705168 66.533819,73.757225 69.027068,66 l 1.767755,-5.5 0.102589,5.75 C 70.975893,70.64885 71.352474,72 72.5,72 73.733333,72 74,70.222222 74,62 74,52.041757 73.989722,52 71.538544,52 68.982124,52 69.052167,51.85462 66.238834,63 65.359633,66.483067 65.346722,66.464925 63.56996,59.25 61.973674,52.767932 61.531167,52 59.392281,52 57.028725,52 57,52.120074 57,62 c 0,9.535551 0.09889,10 2.129166,10 2.006482,0 2.096014,-0.360132 1.553815,-6.25 z M 91,70.5 C 91,69.416667 89.888889,69 87,69 l -4,0 0,-8.5 C 83,52.666667 82.843137,52 81,52 c -1.866667,0 -2,0.666667 -2,10 l 0,10 6,0 c 4.666667,0 6,-0.333333 6,-1.5 z M 86,39.538933 86,35.077866 77.25,34.788933 68.5,34.5 68.215017,24.25 67.930034,14 46.465017,14 25,14 l 0,15 0,15 30.5,0 30.5,0 0,-4.461067 z"
       id="path4398"
       inkscape:connector-curvature="0" />
    <path
       style="fill-opacity:1"
       d="M 22.2,103.8 C 21.422006,103.02201 21,98.977778 21,92.3 21,82.121454 20.971965,82 18.622445,82 14.30289,82 13.932485,80.346231 14.225287,62.36776 L 14.5,45.5 17.75,44.543203 21,43.586407 21,27.993203 C 21,17.19849 21.369275,12.030725 22.2,11.2 23.065524,10.334476 29.976808,10 46.995637,10 L 70.591273,10 80.295637,21.174485 90,32.348971 l 0,5.618718 c 0,5.476134 0.08247,5.642998 3.25,6.575514 L 96.5,45.5 96.774713,62.36776 C 97.067515,80.346231 96.69711,82 92.377555,82 90.028035,82 90,82.121454 90,92.3 c 0,6.677778 -0.422006,10.72201 -1.2,11.5 -1.71703,1.71703 -64.88297,1.71703 -66.6,0 z M 86,91.5 86,82 55.5,82 25,82 l 0,9.5 0,9.5 30.5,0 30.5,0 0,-9.5 z m -59.920699,-22.691449 1.321941,-3.191449 1.302247,3.191449 C 29.678263,71.197455 30.633683,72 32.502868,72 c 3.018557,0 3.022677,-0.04952 0.427346,-5.136792 -1.989601,-3.89994 -2.00472,-4.21801 -0.390276,-8.210162 C 33.463669,56.368871 34.443218,53.9375 34.716713,53.25 35.018609,52.49111 34.396257,52 33.132669,52 c -1.335038,0 -2.681538,1.160716 -3.755316,3.237174 l -1.674008,3.237174 -1.533099,-3.237174 C 25.08674,52.949326 23.952267,52 22.301728,52 l -2.33542,0 2.505314,4.943998 2.505313,4.943999 -1.988467,4.638907 C 20.567477,72.174846 20.570984,72 22.87868,72 c 1.169657,0 2.377586,-1.204468 3.200621,-3.191449 z M 42.289749,70 c 0.345435,-1.320946 1.364016,-2 3,-2 1.635984,0 2.654565,0.679054 3,2 C 48.779352,71.872244 53,72.994529 53,71.252473 c 0,-0.41114 -1.387109,-4.91114 -3.082464,-10 C 47.544001,54.127953 46.418996,52 45.025944,52 c -1.031178,0 -2.067876,0.96753 -2.410849,2.25 -0.330946,1.2375 -1.694891,5.7375 -3.030989,10 l -2.429269,7.75 2.30595,0 c 1.464946,0 2.496698,-0.729421 2.828962,-2 z m 1.780536,-6.75 C 44.108942,62.2875 44.527314,60.6 45,59.5 c 0.832003,-1.936175 0.861672,-1.930807 0.929715,0.168213 0.03866,1.192516 0.34343,2.880016 0.677274,3.75 C 47.0053,64.456196 46.66151,65 45.606989,65 44.716415,65 44.031334,64.219829 44.070285,63.25 Z m 16.660645,2.5 -0.553984,-6.25 1.965817,6.312869 C 64.601706,73.709326 66.532347,73.761805 69.027068,66 l 1.767755,-5.5 0.102589,5.75 C 70.975893,70.64885 71.352474,72 72.5,72 73.733333,72 74,70.222222 74,62 74,52.041757 73.989722,52 71.538544,52 68.982124,52 69.052167,51.85462 66.238834,63 65.359633,66.483067 65.346722,66.464925 63.56996,59.25 61.973674,52.767932 61.531167,52 59.392281,52 57.028725,52 57,52.120074 57,62 c 0,9.554974 0.09535,10 2.142456,10 2.020505,0 2.110923,-0.355759 1.588474,-6.25 z M 91,70.5 C 91,69.416667 89.888889,69 87,69 l -4,0 0,-8.5 C 83,52.666667 82.843137,52 81,52 c -1.866667,0 -2,0.666667 -2,10 l 0,10 6,0 c 4.666667,0 6,-0.333333 6,-1.5 z M 86,39.538933 86,35.077866 77.25,34.788933 68.5,34.5 68.215017,24.25 67.930034,14 46.465017,14 25,14 l 0,15 0,15 30.5,0 30.5,0 0,-4.461067 z"
       id="path4396"
       inkscape:connector-curvature="0" />
    <path
       style="fill-opacity:1"
       d="M 22.2,103.8 C 21.422006,103.02201 21,98.977778 21,92.3 21,82.121454 20.971965,82 18.622445,82 14.30289,82 13.932485,80.346231 14.225287,62.36776 L 14.5,45.5 17.75,44.543203 21,43.586407 21,27.993203 C 21,17.19849 21.369275,12.030725 22.2,11.2 23.065524,10.334476 29.976808,10 46.995637,10 L 70.591273,10 80.295637,21.174485 90,32.348971 l 0,5.618718 c 0,5.476134 0.08247,5.642998 3.25,6.575514 L 96.5,45.5 96.774713,62.36776 C 97.067515,80.346231 96.69711,82 92.377555,82 90.028035,82 90,82.121454 90,92.3 c 0,6.677778 -0.422006,10.72201 -1.2,11.5 -1.71703,1.71703 -64.88297,1.71703 -66.6,0 z M 86,91.5 86,82 55.5,82 25,82 l 0,9.5 0,9.5 30.5,0 30.5,0 0,-9.5 z m -59.920699,-22.691449 1.321941,-3.191449 1.302247,3.191449 C 29.678263,71.197455 30.633683,72 32.502868,72 c 3.018557,0 3.022677,-0.04952 0.427346,-5.136792 -1.989601,-3.89994 -2.00472,-4.21801 -0.390276,-8.210162 C 33.463669,56.368871 34.443218,53.9375 34.716713,53.25 35.018609,52.49111 34.396257,52 33.132669,52 c -1.335038,0 -2.681538,1.160716 -3.755316,3.237174 l -1.674008,3.237174 -1.533099,-3.237174 C 25.08674,52.949326 23.952267,52 22.301728,52 l -2.33542,0 2.505314,4.943998 2.505313,4.943999 -1.988467,4.638907 C 20.567477,72.174846 20.570984,72 22.87868,72 c 1.169657,0 2.377586,-1.204468 3.200621,-3.191449 z M 42.289749,70 c 0.345435,-1.320946 1.364016,-2 3,-2 1.635984,0 2.654565,0.679054 3,2 C 48.779352,71.872244 53,72.994529 53,71.252473 c 0,-0.41114 -1.387109,-4.91114 -3.082464,-10 C 47.544001,54.127953 46.418996,52 45.025944,52 c -1.031178,0 -2.067876,0.96753 -2.410849,2.25 -0.330946,1.2375 -1.694891,5.7375 -3.030989,10 l -2.429269,7.75 2.30595,0 c 1.464946,0 2.496698,-0.729421 2.828962,-2 z m 1.780536,-6.75 C 44.108942,62.2875 44.527314,60.6 45,59.5 c 0.832003,-1.936175 0.861672,-1.930807 0.929715,0.168213 0.03866,1.192516 0.34343,2.880016 0.677274,3.75 C 47.0053,64.456196 46.66151,65 45.606989,65 44.716415,65 44.031334,64.219829 44.070285,63.25 Z m 16.660645,2.5 -0.553984,-6.25 1.965817,6.312869 C 64.601706,73.709326 66.532347,73.761805 69.027068,66 l 1.767755,-5.5 0.102589,5.75 C 70.975893,70.64885 71.352474,72 72.5,72 73.733333,72 74,70.222222 74,62 74,52.041757 73.989722,52 71.538544,52 68.982124,52 69.052167,51.85462 66.238834,63 65.359633,66.483067 65.346722,66.464925 63.56996,59.25 61.973674,52.767932 61.531167,52 59.392281,52 57.028725,52 57,52.120074 57,62 c 0,9.554974 0.09535,10 2.142456,10 2.020505,0 2.110923,-0.355759 1.588474,-6.25 z M 91,70.5 C 91,69.416667 89.888889,69 87,69 l -4,0 0,-8.5 C 83,52.666667 82.843137,52 81,52 c -1.866667,0 -2,0.666667 -2,10 l 0,10 6,0 c 4.666667,0 6,-0.333333 6,-1.5 z M 86,39.538933 86,35.077866 77.25,34.788933 68.5,34.5 68.215017,24.25 67.930034,14 46.465017,14 25,14 l 0,15 0,15 30.5,0 30.5,0 0,-4.461067 z"
       id="path4394"
       inkscape:connector-curvature="0" />
  </g>
</svg>
