<?xml version="1.0" encoding="UTF-8" standalone="no"?>
<!-- Created with Inkscape (http://www.inkscape.org/) -->

<svg
   xmlns:dc="http://purl.org/dc/elements/1.1/"
   xmlns:cc="http://creativecommons.org/ns#"
   xmlns:rdf="http://www.w3.org/1999/02/22-rdf-syntax-ns#"
   xmlns:svg="http://www.w3.org/2000/svg"
   xmlns="http://www.w3.org/2000/svg"
   xmlns:xlink="http://www.w3.org/1999/xlink"
   xmlns:sodipodi="http://sodipodi.sourceforge.net/DTD/sodipodi-0.dtd"
   xmlns:inkscape="http://www.inkscape.org/namespaces/inkscape"
   id="svg4345"
   version="1.1"
   inkscape:version="0.91 r13725"
   width="110"
   height="123"
   viewBox="0 0 110 123"
   sodipodi:docname="XML.bmp.svg">
  <metadata
     id="metadata4351">
    <rdf:RDF>
      <cc:Work
         rdf:about="">
        <dc:format>image/svg+xml</dc:format>
        <dc:type
           rdf:resource="http://purl.org/dc/dcmitype/StillImage" />
        <dc:title></dc:title>
      </cc:Work>
    </rdf:RDF>
  </metadata>
  <defs
     id="defs4349" />
  <sodipodi:namedview
     pagecolor="#ffffff"
     bordercolor="#666666"
     borderopacity="1"
     objecttolerance="10"
     gridtolerance="10"
     guidetolerance="10"
     inkscape:pageopacity="0"
     inkscape:pageshadow="2"
     inkscape:window-width="640"
     inkscape:window-height="480"
     id="namedview4347"
     showgrid="false"
     inkscape:zoom="1.9186992"
     inkscape:cx="55"
     inkscape:cy="61.5"
     inkscape:window-x="0"
     inkscape:window-y="0"
     inkscape:window-maximized="0"
     inkscape:current-layer="svg4345" />
  <image
     width="110"
     height="123"
     preserveAspectRatio="none"
     style="image-rendering:optimizeQuality"
     xlink:href="file:///media/havoc/USB%20DISK/pics/_OpsDeps/XML.bmp"
     id="image4353"
     x="0"
     y="0"
     sodipodi:absref="/media/havoc/USB DISK/pics/_OpsDeps/XML.bmp" />
  <g
     id="g4355">
    <path
       style="fill-opacity:1"
       d="M 21.213215,104.81322 C 20.427325,104.02732 20,100.14819 20,93.8 20,85.627451 19.743352,84 18.454545,84 c -0.85,0 -2.65,-1.104545 -4,-2.454545 C 12.069273,79.160182 12,78.672573 12,64.267961 12,48.005599 12.866787,45 17.556704,45 L 20,45 20,29.2 C 20,18.244444 20.367932,13.032068 21.2,12.2 22.065862,11.334138 29.00309,11 46.113904,11 L 69.827808,11 79.413904,21.902085 89,32.80417 89,38.902085 C 89,44.702122 89.119353,45 91.443296,45 96.162293,45 97,47.973289 97,64.722506 97,78.666667 96.825451,80.174549 95,82 c -1.1,1.1 -2.884776,2 -3.966168,2 -1.815356,0 -1.987939,0.824563 -2.25,10.75 L 88.5,105.5 55.463215,105.76322 c -24.859396,0.19806 -33.337084,-0.0371 -34.25,-0.95 z M 85,92.5 85,84 54.5,84 24,84 l 0,8.5 0,8.5 30.5,0 30.5,0 0,-8.5 z M 27.597458,71.229938 29.694916,66.5 32.046724,71.25 C 34.015411,75.226203 34.854784,76 37.199266,76 38.73967,76 40,75.738219 40,75.418264 40,75.09831 38.421287,72.142865 36.491748,68.850608 L 32.983496,62.864688 36.460348,56.932344 39.937199,51 36.988924,51 c -2.450194,0 -3.305614,0.70044 -5.063451,4.146084 l -2.115174,4.146085 -1.856258,-4.146085 C 26.350987,51.565548 25.671654,51 22.973783,51 l -3.124001,0 3.075109,5.677582 C 24.616201,59.800252 26,62.762033 26,63.259317 c 0,0.497285 -1.56087,3.567373 -3.4686,6.822419 L 19.062801,76 22.2814,75.979938 c 2.868762,-0.01788 3.446578,-0.534172 5.316058,-4.75 z M 48.352017,70.75 c 0.346829,-2.8875 0.686711,-7.5 0.755292,-10.25 0.06858,-2.75 0.329351,-4.1 0.579488,-3 0.250136,1.1 1.372233,5.4875 2.493548,9.75 1.806153,6.865801 2.304578,7.75 4.36869,7.75 2.051534,0 2.635889,-1.003064 4.89045,-8.394614 1.408283,-4.617038 2.647665,-9.004538 2.754181,-9.75 0.106517,-0.745462 0.444017,3.144614 0.75,8.644614 0.55192,9.920668 0.577427,10.00244 3.215126,10.307621 l 2.658793,0.307621 -0.468529,-10.307621 C 69.683684,51.169422 69.628469,51 65.523293,51 62.137974,51 62.053043,51.106267 60.042345,57.857813 58.919055,61.62961 58,65.30461 58,66.02448 58,68.827232 56.412557,65.513838 54.475868,58.668725 52.468444,51.573604 52.410196,51.496862 48.80272,51.194339 l -3.644899,-0.305661 -0.537376,5.305661 C 44.324888,59.112453 43.86556,64.7625 43.599717,68.75 43.130311,75.790805 43.182803,76 45.418891,76 47.4498,76 47.795807,75.380682 48.352017,70.75 Z M 91,73.5 C 91,71.166667 90.666667,71 86,71 l -5,0 0,-10 0,-10 -3,0 -3,0 0,12.5 0,12.5 8,0 c 7.866667,0 8,-0.04167 8,-2.5 z M 85,40.538933 85,36.077866 76.25,35.788933 67.5,35.5 67.215017,25.25 66.930034,15 45.465017,15 24,15 l 0,15 0,15 30.5,0 30.5,0 0,-4.461067 z"
       id="path4371"
       inkscape:connector-curvature="0" />
    <path
       style="fill-opacity:1"
       d="M 21.213215,104.81322 C 20.427325,104.02732 20,100.14819 20,93.8 20,85.627451 19.743352,84 18.454545,84 c -0.85,0 -2.65,-1.104545 -4,-2.454545 C 12.069273,79.160182 12,78.672573 12,64.267961 12,48.005599 12.866787,45 17.556704,45 L 20,45 20,29.2 C 20,18.244444 20.367932,13.032068 21.2,12.2 22.065862,11.334138 29.00309,11 46.113904,11 L 69.827808,11 79.413904,21.902085 89,32.80417 89,38.902085 C 89,44.702122 89.119353,45 91.443296,45 96.134537,45 97,48.004166 97,64.288248 c 0,8.163779 -0.446257,15.677074 -0.991683,16.696211 -0.545426,1.019138 -2.330531,2.147037 -3.9669,2.506444 l -2.975218,0.653468 -0.2831,10.677814 L 88.5,105.5 55.463215,105.76322 c -24.859396,0.19806 -33.337084,-0.0371 -34.25,-0.95 z M 85,92.5 85,84 54.5,84 24,84 l 0,8.5 0,8.5 30.5,0 30.5,0 0,-8.5 z m -57.348981,-21.25 2.021156,-4.75 2.363178,4.75 c 1.976859,3.973497 2.821027,4.75 5.163913,4.75 1.540404,0 2.799577,-0.3375 2.798163,-0.75 -0.0014,-0.4125 -1.557236,-3.3282 -3.457382,-6.479332 L 33.085236,63.041335 36.488318,57.020668 39.8914,51 36.966024,51 c -2.423343,0 -3.288368,0.711523 -5.040551,4.146084 l -2.115174,4.146085 -1.856258,-4.146085 C 26.350987,51.565548 25.671654,51 22.973783,51 l -3.124001,0 3.075109,5.677582 C 24.616201,59.800252 26,62.762033 26,63.259317 c 0,0.497285 -1.56087,3.567373 -3.4686,6.822419 L 19.062801,76 l 3.283532,0 c 2.966858,0 3.478458,-0.458104 5.304686,-4.75 z m 20.713057,0.110429 c 0.349758,-2.551764 0.688125,-7.164264 0.751925,-10.25 C 49.179802,58.024693 49.43666,56.4 49.686797,57.5 c 0.250136,1.1 1.372233,5.4875 2.493548,9.75 1.806153,6.865801 2.304578,7.75 4.36869,7.75 2.051534,0 2.635889,-1.003064 4.89045,-8.394614 1.408283,-4.617038 2.647665,-9.004538 2.754181,-9.75 0.106517,-0.745462 0.444017,3.144614 0.75,8.644614 0.550424,9.893766 0.584299,10.003241 3.188709,10.305072 L 70.76475,76.110144 70.305621,64.805072 C 70.0531,58.587282 69.670155,52.9375 69.454631,52.25 69.239107,51.5625 67.491728,51 65.571565,51 62.141567,51 62.044593,51.115802 60.04018,57.605335 58.918081,61.238269 58,64.913269 58,65.772002 c 0,3.040694 -1.522135,-0.02734 -3.524132,-7.103277 -2.007424,-7.095121 -2.065672,-7.171863 -5.673148,-7.474386 l -3.644899,-0.305661 -0.537376,5.305661 C 44.324888,59.112453 43.86556,64.7625 43.599717,68.75 43.130121,75.793666 43.18199,76 45.422258,76 c 1.985145,0 2.394351,-0.645364 2.941818,-4.639571 z M 91,73.5 C 91,71.166667 90.666667,71 86,71 l -5,0 0,-10 0,-10 -3,0 -3,0 0,12.5 0,12.5 8,0 c 7.866667,0 8,-0.04167 8,-2.5 z M 85,40.538933 85,36.077866 76.25,35.788933 67.5,35.5 67.215017,25.25 66.930034,15 45.465017,15 24,15 l 0,15 0,15 30.5,0 30.5,0 0,-4.461067 z"
       id="path4369"
       inkscape:connector-curvature="0" />
    <path
       style="fill-opacity:1"
       d="M 21.2,104.8 C 20.429932,104.02993 20,100.08889 20,93.8 20,85.627451 19.743352,84 18.454545,84 c -0.85,0 -2.65,-1.104545 -4,-2.454545 C 12.069273,79.160182 12,78.672573 12,64.267961 12,48.005599 12.866787,45 17.556704,45 L 20,45 20,29.2 C 20,18.244444 20.367932,13.032068 21.2,12.2 22.065862,11.334138 29.00309,11 46.113904,11 L 69.827808,11 79.413904,21.902085 89,32.80417 89,38.902085 C 89,44.702122 89.119353,45 91.443296,45 96.134537,45 97,48.004166 97,64.288248 c 0,8.163779 -0.446257,15.677074 -0.991683,16.696211 -0.545426,1.019138 -2.345426,2.150309 -4,2.513714 L 89,84.158911 l 0,9.720544 c 0,6.227095 -0.431266,10.151815 -1.2,10.920545 -1.71703,1.71703 -64.88297,1.71703 -66.6,0 z M 85,92.5 85,84 54.5,84 24,84 l 0,8.5 0,8.5 30.5,0 30.5,0 0,-8.5 z m -57.348981,-21.25 2.021156,-4.75 2.363178,4.75 c 1.976859,3.973497 2.821027,4.75 5.163913,4.75 1.540404,0 2.799577,-0.3375 2.798163,-0.75 -0.0014,-0.4125 -1.591721,-3.385447 -3.534016,-6.606549 -2.202889,-3.65327 -3.207223,-6.286725 -2.669625,-7 0.474001,-0.628898 2.083278,-3.280951 3.57617,-5.893451 l 2.71435,-4.75 -3.058333,0 c -2.510659,0 -3.357216,0.626765 -4.727366,3.5 C 31.380641,56.425 30.346266,58 30,58 29.653734,58 28.619359,56.425 27.701391,54.5 26.325513,51.614753 25.489392,51 22.94107,51 l -3.091288,0 3.075109,5.677582 C 24.616201,59.800252 26,62.762033 26,63.259317 c 0,0.497285 -1.56087,3.567373 -3.4686,6.822419 L 19.062801,76 l 3.283532,0 c 2.966858,0 3.478458,-0.458104 5.304686,-4.75 z m 20.707133,1 c 0.34091,-2.0625 0.67699,-6.675 0.746844,-10.25 0.06985,-3.575 0.331664,-5.6 0.581801,-4.5 0.250136,1.1 1.372233,5.4875 2.493548,9.75 1.815017,6.899495 2.297562,7.75 4.39706,7.75 2.099882,0 2.643334,-0.958827 4.959396,-8.75 1.430599,-4.8125 2.759538,-9.2 2.953197,-9.75 0.193659,-0.55 0.387634,3.6125 0.431055,9.25 L 65,76 l 2.930488,0 2.930487,0 -0.512308,-11.25 C 70.066898,58.5625 69.662301,52.9375 69.449564,52.25 69.236827,51.5625 67.491728,51 65.571565,51 62.141567,51 62.044593,51.115802 60.04018,57.605335 58.918081,61.238269 58,64.913269 58,65.772002 c 0,3.040694 -1.522135,-0.02734 -3.524132,-7.103277 -2.008676,-7.099548 -2.06351,-7.17168 -5.682356,-7.474935 -3.618959,-0.303264 -3.659138,-0.264789 -4.177096,4 -0.287643,2.368416 -0.754923,8.01871 -1.0384,12.55621 -0.507774,8.127726 -0.480763,8.25 1.822443,8.25 1.924663,0 2.447406,-0.662776 2.957693,-3.75 z M 91,73.5 C 91,71.166667 90.666667,71 86,71 l -5,0 0,-10 0,-10 -3,0 -3,0 0,12.5 0,12.5 8,0 c 7.866667,0 8,-0.04167 8,-2.5 z M 85,40.538933 85,36.077866 76.25,35.788933 67.5,35.5 67.215017,25.25 66.930034,15 45.465017,15 24,15 l 0,15 0,15 30.5,0 30.5,0 0,-4.461067 z"
       id="path4367"
       inkscape:connector-curvature="0" />
    <path
       style="fill-opacity:1"
       d="M 21.2,104.8 C 20.43025,104.03025 20,100.09312 20,93.819052 20,84.195916 19.959287,84.027886 17.476671,83.404789 12.67263,82.199051 12,79.815806 12,64 12,48.024443 12.884523,45 17.556704,45 L 20,45 20,29.2 C 20,18.244444 20.367932,13.032068 21.2,12.2 22.065722,11.334278 28.992132,11 46.064593,11 L 69.729186,11 79.364593,21.897594 89,32.795187 89,38.897594 C 89,44.702394 89.119156,45 91.443296,45 96.157804,45 97,47.978394 97,64.651078 97,81.04573 96.630991,82.301559 91.430073,83.606907 89.065757,84.200312 89,84.479068 89,93.908408 89,100.11298 88.568242,104.03176 87.8,104.8 c -1.71703,1.71703 -64.88297,1.71703 -66.6,0 z M 85,92.5 85,84 54.5,84 24,84 l 0,8.5 0,8.5 30.5,0 30.5,0 0,-8.5 z m -57.348981,-21.25 2.021156,-4.75 2.363178,4.75 c 1.976859,3.973497 2.821027,4.75 5.163913,4.75 1.540404,0 2.799577,-0.3375 2.798163,-0.75 -0.0014,-0.4125 -1.591721,-3.385447 -3.534016,-6.606549 -2.202889,-3.65327 -3.207223,-6.286725 -2.669625,-7 C 34.267789,61.014553 35.877066,58.3625 37.369958,55.75 L 40.084308,51 36.743042,51 C 33.83219,51 33.238744,51.450861 32.13616,54.5 31.440071,56.425 30.533017,58 30.120484,58 29.707951,58 28.619359,56.425 27.701391,54.5 26.32836,51.620723 25.487039,51 22.957537,51 l -3.07482,0 3.234149,6.067884 C 26.7209,63.829745 26.924022,62.467189 20.779065,72.75 l -1.942184,3.25 3.396492,0 c 3.101617,0 3.571963,-0.412382 5.417646,-4.75 z m 20.707133,1 c 0.34091,-2.0625 0.67699,-6.675 0.746844,-10.25 0.06985,-3.575 0.331664,-5.6 0.581801,-4.5 0.250136,1.1 1.372233,5.4875 2.493548,9.75 1.815017,6.899495 2.297562,7.75 4.39706,7.75 2.099882,0 2.643334,-0.958827 4.959396,-8.75 1.430599,-4.8125 2.759538,-9.2 2.953197,-9.75 0.193659,-0.55 0.387634,3.6125 0.431055,9.25 L 65,76 l 2.930488,0 2.930487,0 -0.512308,-11.25 C 70.066898,58.5625 69.662301,52.9375 69.449564,52.25 69.236827,51.5625 67.491728,51 65.571565,51 62.141567,51 62.044593,51.115802 60.04018,57.605335 58.918081,61.238269 58,64.913269 58,65.772002 c 0,3.012382 -1.439126,0.07367 -3.459982,-7.065317 -2.025095,-7.153967 -2.06694,-7.208925 -5.720316,-7.512895 -3.649775,-0.30367 -3.684635,-0.270496 -4.203286,4 -0.287643,2.368416 -0.754923,8.01871 -1.0384,12.55621 -0.507774,8.127726 -0.480763,8.25 1.822443,8.25 1.924663,0 2.447406,-0.662776 2.957693,-3.75 z M 91,73.5 C 91,71.166667 90.666667,71 86,71 l -5,0 0,-10 0,-10 -3,0 -3,0 0,12.5 0,12.5 8,0 c 7.866667,0 8,-0.04167 8,-2.5 z M 85,40.538933 85,36.077866 76.25,35.788933 67.5,35.5 67.215017,25.25 66.930034,15 45.465017,15 24,15 l 0,15 0,15 30.5,0 30.5,0 0,-4.461067 z"
       id="path4365"
       inkscape:connector-curvature="0" />
    <path
       style="fill-opacity:1"
       d="M 21.2,104.8 C 20.422006,104.02201 20,99.977778 20,93.3 20,83.043745 19.989623,83 17.556704,83 c -4.640526,0 -5.558161,-3.058667 -5.541962,-18.472506 0.0165,-15.696 0.869701,-18.834647 5.258429,-19.343916 L 20,44.867155 20,29.133578 C 20,18.229684 20.36836,13.03164 21.2,12.2 22.065717,11.334283 28.99174,11 46.062832,11 L 69.725663,11 79.362832,21.945909 89,32.891818 89,38.945909 C 89,44.699472 89.121286,45 91.443296,45 96.157804,45 97,47.978394 97,64.651078 97,81.155135 96.439829,83 91.428571,83 89.014332,83 89,83.060784 89,93.3 c 0,6.677778 -0.422006,10.72201 -1.2,11.5 -1.71703,1.71703 -64.88297,1.71703 -66.6,0 z M 85,92 85,83 54.5,83 24,83 l 0,9 0,9 30.5,0 30.5,0 0,-9 z m -57.348981,-20.75 2.021156,-4.75 2.363178,4.75 c 1.976859,3.973497 2.821027,4.75 5.163913,4.75 1.540404,0 2.799577,-0.3375 2.798163,-0.75 -0.0014,-0.4125 -1.591721,-3.385447 -3.534016,-6.606549 -2.202889,-3.65327 -3.207223,-6.286725 -2.669625,-7 C 34.267789,61.014553 35.877066,58.3625 37.369958,55.75 L 40.084308,51 36.743042,51 C 33.83219,51 33.238744,51.450861 32.13616,54.5 31.440071,56.425 30.533017,58 30.120484,58 29.707951,58 28.619359,56.425 27.701391,54.5 26.32836,51.620723 25.487039,51 22.957537,51 l -3.07482,0 3.234149,6.067884 C 26.7209,63.829745 26.924022,62.467189 20.779065,72.75 l -1.942184,3.25 3.396492,0 c 3.101617,0 3.571963,-0.412382 5.417646,-4.75 z M 48.375,72.875 c 0.34375,-1.71875 0.677201,-6.33125 0.741001,-10.25 0.0638,-3.91875 0.320659,-6.225 0.570796,-5.125 0.250136,1.1 1.372233,5.4875 2.493548,9.75 1.814967,6.899305 2.297602,7.75 4.396899,7.75 2.097413,0 2.649023,-0.967453 4.988968,-8.75 1.446953,-4.8125 2.775965,-9.2 2.953359,-9.75 0.177394,-0.55 0.358061,3.6125 0.401482,9.25 L 65,76 l 3.135924,0 3.135924,0 -0.635924,-4.639571 C 70.286166,68.808665 70,63.183665 70,58.860429 L 70,51 l -3.95982,0 -3.95982,0 -2.04018,6.605335 C 58.918081,61.238269 58,64.913269 58,65.772002 c 0,3.012382 -1.439126,0.07367 -3.459982,-7.065317 -2.025095,-7.153967 -2.06694,-7.208925 -5.720316,-7.512895 -3.649775,-0.30367 -3.684635,-0.270496 -4.203286,4 -0.287643,2.368416 -0.754923,8.01871 -1.0384,12.55621 -0.508117,8.133224 -0.482238,8.25 1.828286,8.25 1.824942,0 2.482036,-0.69169 2.968698,-3.125 z M 91,73.5 C 91,71.166667 90.666667,71 86,71 l -5,0 0,-10 0,-10 -3,0 -3,0 0,12.5 0,12.5 8,0 c 7.866667,0 8,-0.04167 8,-2.5 z M 85,40.538933 85,36.077866 76.25,35.788933 67.5,35.5 67.215017,25.25 66.930034,15 45.465017,15 24,15 l 0,15 0,15 30.5,0 30.5,0 0,-4.461067 z"
       id="path4363"
       inkscape:connector-curvature="0" />
    <path
       style="fill-opacity:1"
       d="M 21.2,104.8 C 20.422006,104.02201 20,99.977778 20,93.3 20,83.121454 19.971965,83 17.622445,83 13.299788,83 12.525592,80.675603 12.157803,66.593323 11.729941,50.2109 12.474054,46.835267 16.798023,45.543203 L 20,44.586407 20,28.993203 C 20,18.19849 20.369275,13.030725 21.2,12.2 22.065717,11.334283 28.99174,11 46.062832,11 L 69.725663,11 79.362832,21.945909 89,32.891818 89,38.945909 C 89,44.721914 89.113775,45 91.476947,45 c 4.870879,0 5.700555,3.17807 5.344416,20.471754 C 96.478503,82.120616 96.214365,82.950901 91.25,82.984687 89.063289,82.999569 89,83.289722 89,93.3 c 0,6.677778 -0.422006,10.72201 -1.2,11.5 -1.71703,1.71703 -64.88297,1.71703 -66.6,0 z M 85,92 85,83 54.5,83 24,83 l 0,9 0,9 30.5,0 30.5,0 0,-9 z m -57.267791,-20.75 1.981934,-4.75 2.342194,4.75 c 2.073721,4.205534 2.713112,4.75 5.578128,4.75 l 3.235933,0 -3.905505,-6.683316 c -2.231637,-3.8189 -3.563441,-7.140488 -3.107395,-7.75 C 34.296459,60.980008 35.877066,58.3625 37.369958,55.75 L 40.084308,51 36.743042,51 C 33.83219,51 33.238744,51.450861 32.13616,54.5 31.440071,56.425 30.533017,58 30.120484,58 29.707951,58 28.619359,56.425 27.701391,54.5 26.324102,51.611795 25.490567,51 22.932845,51 c -1.704731,0 -2.946933,0.3375 -2.760449,0.75 0.186485,0.4125 1.622865,3.194 3.191956,6.181112 3.163789,6.022972 3.36692,4.858619 -2.585287,14.818888 l -1.942184,3.25 3.456697,0 c 3.178947,0 3.615949,-0.38167 5.438631,-4.75 z M 48.375,72.875 c 0.34375,-1.71875 0.662491,-6.33125 0.708313,-10.25 l 0.08331,-7.125 1.447895,6 c 3.210787,13.305324 3.295748,13.5 5.891717,13.5 2.186677,0 2.691752,-0.873404 5.059974,-8.75 1.446953,-4.8125 2.775965,-9.2 2.953359,-9.75 0.177394,-0.55 0.358061,3.6125 0.401482,9.25 L 65,76 l 3.135924,0 3.135924,0 -0.635924,-4.639571 C 70.286166,68.808665 70,63.183665 70,58.860429 L 70,51 l -3.95982,0 -3.95982,0 -2.04018,6.605335 C 58.918081,61.238269 58,64.913269 58,65.772002 c 0,3.012382 -1.439126,0.07367 -3.459982,-7.065317 -2.025095,-7.153967 -2.06694,-7.208925 -5.720316,-7.512895 -3.649775,-0.30367 -3.684635,-0.270496 -4.203286,4 -0.287643,2.368416 -0.754923,8.01871 -1.0384,12.55621 -0.508117,8.133224 -0.482238,8.25 1.828286,8.25 1.824942,0 2.482036,-0.69169 2.968698,-3.125 z M 91,73.5 C 91,71.166667 90.666667,71 86,71 l -5,0 0,-10 0,-10 -3,0 -3,0 0,12.5 0,12.5 8,0 c 7.866667,0 8,-0.04167 8,-2.5 z M 85,40.538933 85,36.077866 76.25,35.788933 67.5,35.5 67.215017,25.25 66.930034,15 45.465017,15 24,15 l 0,15 0,15 30.5,0 30.5,0 0,-4.461067 z"
       id="path4361"
       inkscape:connector-curvature="0" />
    <path
       style="fill-opacity:1"
       d="M 21.2,104.8 C 20.422006,104.02201 20,99.977778 20,93.3 20,83.121454 19.971965,83 17.622445,83 13.30289,83 12.932485,81.346231 13.225287,63.36776 L 13.5,46.5 16.75,45.543203 20,44.586407 20,28.993203 C 20,18.19849 20.369275,13.030725 21.2,12.2 22.065717,11.334283 28.99174,11 46.062832,11 L 69.725663,11 79.362832,21.945909 89,32.891818 89,38.945909 C 89,44.699472 89.121286,45 91.443296,45 96.115477,45 97,48.024443 97,64 97,79.975557 96.115477,83 91.443296,83 89.010377,83 89,83.043745 89,93.3 c 0,6.677778 -0.422006,10.72201 -1.2,11.5 -1.71703,1.71703 -64.88297,1.71703 -66.6,0 z M 85,92 85,83 54.5,83 24,83 l 0,9 0,9 30.5,0 30.5,0 0,-9 z m -57.417654,-20.576448 1.747761,-4.576448 2.584947,4.572378 c 2.230565,3.945531 3.026366,4.572935 5.804778,4.576448 L 40.939664,76 37.472403,70.25 c -1.906994,-3.1625 -3.468418,-6.388614 -3.469832,-7.169143 -0.0014,-0.780529 1.351276,-3.818029 3.005978,-6.75 L 40.017099,51 36.586101,51 C 33.551648,51 33.021601,51.404519 32,54.5 31.364693,56.425 30.51314,58 30.10766,58 29.702181,58 28.619359,56.425 27.701391,54.5 26.324102,51.611795 25.490567,51 22.932845,51 c -1.704731,0 -2.946933,0.3375 -2.760449,0.75 0.186485,0.4125 1.622865,3.194 3.191956,6.181112 3.163789,6.022972 3.36692,4.858619 -2.585287,14.818888 l -1.942184,3.25 3.498852,0 c 3.234177,0 3.631063,-0.346191 5.246613,-4.576448 z M 48.369714,73.75 c 0.331637,-1.2375 0.65001,-5.625 0.707496,-9.75 l 0.104519,-7.5 1.464131,5.5 c 0.805273,3.025 1.906728,7.1875 2.44768,9.25 0.795818,3.034237 1.4472,3.75 3.412698,3.75 2.186677,0 2.691752,-0.873404 5.059974,-8.75 1.446953,-4.8125 2.775965,-9.2 2.953359,-9.75 0.177394,-0.55 0.358061,3.6125 0.401482,9.25 L 65,76 l 3.139291,0 3.139291,0 -0.630599,-5.25 c -0.346829,-2.8875 -0.63451,-8.5125 -0.639291,-12.5 L 70,51 l -3.993797,0 -3.993797,0 -2.206537,7.5 c -1.213595,4.125 -2.476274,7.5 -2.805953,7.5 -0.329678,0 -1.43985,-3.375 -2.467047,-7.5 L 52.665237,51 48.893892,51 c -3.68926,0 -3.782579,0.09251 -4.287412,4.25 -0.283837,2.3375 -0.771939,7.9625 -1.084672,12.5 -0.565546,8.205612 -0.555656,8.25 1.838162,8.25 1.65058,0 2.596218,-0.706932 3.009744,-2.25 z M 91,73.5 C 91,71.166667 90.666667,71 86,71 l -5,0 0,-10 0,-10 -3,0 -3,0 0,12.5 0,12.5 8,0 c 7.866667,0 8,-0.04167 8,-2.5 z M 85,40.538933 85,36.077866 76.25,35.788933 67.5,35.5 67.215017,25.25 66.930034,15 45.465017,15 24,15 l 0,15 0,15 30.5,0 30.5,0 0,-4.461067 z"
       id="path4359"
       inkscape:connector-curvature="0" />
    <path
       style="fill-opacity:1"
       d="M 21.2,104.8 C 20.422006,104.02201 20,99.977778 20,93.3 20,83.121454 19.971965,83 17.622445,83 13.30289,83 12.932485,81.346231 13.225287,63.36776 L 13.5,46.5 16.75,45.543203 20,44.586407 20,28.993203 C 20,18.19849 20.369275,13.030725 21.2,12.2 22.065557,11.334443 28.979327,11 46.00697,11 L 69.613939,11 79.30697,21.934255 89,32.86851 89,38.934255 C 89,44.700177 89.12077,45 91.443296,45 96.115477,45 97,48.024443 97,64 97,79.975557 96.115477,83 91.443296,83 89.010377,83 89,83.043745 89,93.3 c 0,6.677778 -0.422006,10.72201 -1.2,11.5 -1.71703,1.71703 -64.88297,1.71703 -66.6,0 z M 85,92 85,83 54.5,83 24,83 l 0,9 0,9 30.5,0 30.5,0 0,-9 z m -57.405513,-20.608238 1.759902,-4.608238 2.341972,4.608238 C 33.797763,75.526636 34.39279,76 37.488999,76 l 3.450665,0 -3.467261,-5.75 c -1.906994,-3.1625 -3.468418,-6.388614 -3.469832,-7.169143 -0.0014,-0.780529 1.351276,-3.818029 3.005978,-6.75 L 40.017099,51 36.586101,51 C 33.551648,51 33.021601,51.404519 32,54.5 31.364693,56.425 30.51314,58 30.10766,58 29.702181,58 28.619359,56.425 27.701391,54.5 26.324102,51.611795 25.490567,51 22.932845,51 c -1.704731,0 -2.946933,0.3375 -2.760449,0.75 0.186485,0.4125 1.622865,3.194 3.191956,6.181112 3.163789,6.022972 3.36692,4.858619 -2.585287,14.818888 l -1.942184,3.25 3.498852,0 c 3.237693,0 3.630213,-0.343965 5.258754,-4.608238 z M 48.369714,73.75 C 48.701351,72.5125 49.00845,68.125 49.052156,64 l 0.07947,-7.5 1.470342,5.5 c 0.808689,3.025 1.921418,7.1875 2.472733,9.25 0.809682,3.029066 1.469393,3.75 3.431541,3.75 2.186677,0 2.691752,-0.873404 5.059974,-8.75 1.446953,-4.8125 2.775965,-9.2 2.953359,-9.75 0.177394,-0.55 0.358061,3.6125 0.401482,9.25 L 65,76 l 3.142456,0 3.142457,0 -0.642457,-6.146691 C 70.289105,66.472629 70,60.847629 70,57.353309 L 70,51 66.006203,51 62.012406,51 59.822,58.445173 c -1.204724,4.094845 -2.453175,7.282773 -2.774337,7.084285 -0.321161,-0.198489 -1.45722,-3.548817 -2.524574,-7.445174 L 52.582444,51 48.836535,51 c -4.334429,0 -4.320515,-0.04118 -5.321846,15.75 l -0.58655,9.25 2.419299,0 c 1.663577,0 2.607653,-0.702838 3.022276,-2.25 z M 91,73.5 C 91,71.166667 90.666667,71 86,71 l -5,0 0,-10 0,-10 -3,0 -3,0 0,12.5 0,12.5 8,0 c 7.866667,0 8,-0.04167 8,-2.5 z M 85,40.538933 85,36.077866 76.25,35.788933 67.5,35.5 67.215017,25.25 66.930034,15 45.465017,15 24,15 l 0,15 0,15 30.5,0 30.5,0 0,-4.461067 z"
       id="path4357"
       inkscape:connector-curvature="0" />
  </g>
</svg>
