<?xml version="1.0" encoding="UTF-8" standalone="no"?>
<!-- Created with Inkscape (http://www.inkscape.org/) -->

<svg
   xmlns:dc="http://purl.org/dc/elements/1.1/"
   xmlns:cc="http://creativecommons.org/ns#"
   xmlns:rdf="http://www.w3.org/1999/02/22-rdf-syntax-ns#"
   xmlns:svg="http://www.w3.org/2000/svg"
   xmlns="http://www.w3.org/2000/svg"
   xmlns:xlink="http://www.w3.org/1999/xlink"
   xmlns:sodipodi="http://sodipodi.sourceforge.net/DTD/sodipodi-0.dtd"
   xmlns:inkscape="http://www.inkscape.org/namespaces/inkscape"
   id="svg3968"
   version="1.1"
   inkscape:version="0.91 r13725"
   width="95"
   height="90"
   viewBox="0 0 95 90"
   sodipodi:docname="Desktop.svg">
  <metadata
     id="metadata3974">
    <rdf:RDF>
      <cc:Work
         rdf:about="">
        <dc:format>image/svg+xml</dc:format>
        <dc:type
           rdf:resource="http://purl.org/dc/dcmitype/StillImage" />
        <dc:title></dc:title>
      </cc:Work>
    </rdf:RDF>
  </metadata>
  <defs
     id="defs3972" />
  <sodipodi:namedview
     pagecolor="#ffffff"
     bordercolor="#666666"
     borderopacity="1"
     objecttolerance="10"
     gridtolerance="10"
     guidetolerance="10"
     inkscape:pageopacity="0"
     inkscape:pageshadow="2"
     inkscape:window-width="640"
     inkscape:window-height="480"
     id="namedview3970"
     showgrid="false"
     inkscape:zoom="2.6222222"
     inkscape:cx="47.5"
     inkscape:cy="45"
     inkscape:window-x="869"
     inkscape:window-y="35"
     inkscape:window-maximized="0"
     inkscape:current-layer="svg3968" />
  <image
     width="95"
     height="90"
     preserveAspectRatio="none"
     xlink:href="file:///media/havoc/USB%20DISK/pics/_legend/Desktop.png"
     id="image3976"
     x="0"
     y="0"
     sodipodi:absref="/media/havoc/USB DISK/pics/_legend/Desktop.png" />
  <path
     style="fill:#000000"
     d="M 31.041667,83.333331 C 30.084694,82.376362 30.772619,81.172494 33.125,79.6875 c 2.421212,-1.528444 2.5,-1.686269 2.5,-5.007837 l 0,-3.429663 12.1875,0 12.1875,0 0,3.429663 c 0,3.321568 0.07879,3.479393 2.5,5.007837 2.6809,1.692381 2.91915,2.14335 1.75,3.3125 -0.812938,0.812938 -32.411553,1.130112 -33.208333,0.333331 z M 11.106594,65.628769 C 9.0148637,64.998769 7.7024681,63.738906 6.8774262,61.568882 6.4975187,60.569649 6.25,50.557426 6.25,36.189239 6.25,10.323245 6.3538081,9.4643063 9.75848,7.1590025 11.485534,5.9896138 13.029066,5.9295421 45.9375,5.750973 64.84375,5.6483832 81.218431,5.7299149 82.325681,5.9321544 c 1.107257,0.2022396 3.005694,1.3037612 4.21875,2.447825 L 88.75,10.460096 l 0,25.568386 c 0,22.626662 -0.117263,25.735797 -1.019181,27.023474 -2.223031,3.173819 -2.582788,3.202063 -40.054495,3.144325 C 28.501221,66.166719 12.044843,65.91135 11.106594,65.628769 Z M 51.25,62.1875 l 0,-2.8125 -2.8125,0 -2.8125,0 0,2.395833 c 0,1.317711 0.1875,2.583336 0.416667,2.812498 C 46.270833,64.8125 47.536458,65 48.854167,65 l 2.395833,0 0,-2.8125 z m 30.625,-7.789958 1.5625,-1.199662 0.190362,-18.00519 c 0.1047,-9.902854 0.02334,-18.910211 -0.1808,-20.016349 C 82.684194,11.042754 84.548281,11.25 48.131474,11.25 29.965392,11.25 14.646954,11.424708 14.090501,11.638238 11.525032,12.622701 11.25,14.739829 11.25,33.503718 l 0,17.940793 1.594307,2.090245 1.594307,2.090244 32.936943,-0.0139 c 31.505268,-0.01329 33.004862,-0.06604 34.499443,-1.21356 z"
     id="path3978"
     inkscape:connector-curvature="0" />
</svg>
