<?xml version="1.0" encoding="UTF-8" standalone="no"?>
<!-- Created with Inkscape (http://www.inkscape.org/) -->

<svg
   xmlns:dc="http://purl.org/dc/elements/1.1/"
   xmlns:cc="http://creativecommons.org/ns#"
   xmlns:rdf="http://www.w3.org/1999/02/22-rdf-syntax-ns#"
   xmlns:svg="http://www.w3.org/2000/svg"
   xmlns="http://www.w3.org/2000/svg"
   xmlns:xlink="http://www.w3.org/1999/xlink"
   xmlns:sodipodi="http://sodipodi.sourceforge.net/DTD/sodipodi-0.dtd"
   xmlns:inkscape="http://www.inkscape.org/namespaces/inkscape"
   id="svg4083"
   version="1.1"
   inkscape:version="0.91 r13725"
   width="95"
   height="89.375"
   viewBox="0 0 95 89.375"
   sodipodi:docname="Enterprise.svg">
  <metadata
     id="metadata4089">
    <rdf:RDF>
      <cc:Work
         rdf:about="">
        <dc:format>image/svg+xml</dc:format>
        <dc:type
           rdf:resource="http://purl.org/dc/dcmitype/StillImage" />
        <dc:title></dc:title>
      </cc:Work>
    </rdf:RDF>
  </metadata>
  <defs
     id="defs4087" />
  <sodipodi:namedview
     pagecolor="#ffffff"
     bordercolor="#666666"
     borderopacity="1"
     objecttolerance="10"
     gridtolerance="10"
     guidetolerance="10"
     inkscape:pageopacity="0"
     inkscape:pageshadow="2"
     inkscape:window-width="640"
     inkscape:window-height="480"
     id="namedview4085"
     showgrid="false"
     inkscape:zoom="2.6405594"
     inkscape:cx="47.5"
     inkscape:cy="44.6875"
     inkscape:window-x="901"
     inkscape:window-y="8"
     inkscape:window-maximized="0"
     inkscape:current-layer="svg4083" />
  <image
     width="95"
     height="89.375"
     preserveAspectRatio="none"
     xlink:href="file:///media/havoc/USB%20DISK/pics/_legend/Enterprise.png"
     id="image4091"
     x="0"
     y="0"
     sodipodi:absref="/media/havoc/USB DISK/pics/_legend/Enterprise.png" />
  <g
     id="g4093">
    <path
       style="fill-opacity:1"
       d="M 41.5625,83.126275 C 31.575849,81.631375 23.29874,76.804581 16.737312,68.649475 6.7344269,56.217031 5.5644763,38.609094 13.832223,24.927437 19.571161,15.430512 28.387256,9.0709413 39.185878,6.6383456 56.604056,2.7145688 75.016569,12.029504 82.603663,28.603512 c 3.4533,7.543736 4.349387,15.112004 2.767925,23.377583 C 81.456175,72.445119 62.106347,86.201481 41.5625,83.126275 Z M 54.464316,64.857181 C 54.172569,60.121751 54.634377,59.375 57.854617,59.375 l 2.770383,0 0,4.375 0,4.375 3.125,0 3.125,0 0,-19.330687 0,-19.330687 -5.78125,1.896895 c -3.179688,1.043291 -7.398438,2.467285 -9.375,3.164431 l -3.59375,1.267536 0,3.353756 0,3.353756 -6.5625,0 -6.5625,0 0,8.4375 c 0,7.788202 -0.08884,8.4375 -1.154507,8.4375 -1.030252,0 -1.198112,-0.756746 -1.559658,-7.03125 -0.222833,-3.867188 -0.406429,-10.335938 -0.407993,-14.375 L 31.875,30.625 l -2.120967,0 -2.120967,0 -0.376812,10.46875 c -0.207247,5.757812 -0.525841,14.200612 -0.707987,18.761776 L 26.217092,68.14855 40.431742,67.980525 54.646392,67.8125 54.464316,64.857181 Z M 39.821288,57.112954 C 39.575829,56.867496 39.375,55.571564 39.375,54.233105 c 0,-2.429934 0.0035,-2.433273 2.34375,-2.239583 2.285379,0.189147 2.34375,0.256241 2.34375,2.693978 0,2.326873 -0.131401,2.512872 -1.897462,2.685871 -1.043605,0.102229 -2.098292,-0.01496 -2.34375,-0.260417 z M 51.666667,56.458333 C 51.4375,56.229167 51.25,55.104167 51.25,53.958333 c 0,-2.013889 0.08333,-2.083333 2.5,-2.083333 2.5,0 2.5,0 2.5,2.5 0,2.416667 -0.06944,2.5 -2.083333,2.5 -1.145834,0 -2.270834,-0.1875 -2.5,-0.416667 z m 7.5,0 C 58.9375,56.229167 58.75,55.104167 58.75,53.958333 c 0,-2.013889 0.08333,-2.083333 2.5,-2.083333 2.5,0 2.5,0 2.5,2.5 0,2.416667 -0.06944,2.5 -2.083333,2.5 -1.145834,0 -2.270834,-0.1875 -2.5,-0.416667 z M 39.375,47.5 c 0,-2.5 0,-2.5 2.5,-2.5 2.5,0 2.5,0 2.5,2.5 0,2.5 0,2.5 -2.5,2.5 -2.5,0 -2.5,0 -2.5,-2.5 z m 12.291667,2.083333 C 51.4375,49.354167 51.25,48.229167 51.25,47.083333 51.25,45.069444 51.333333,45 53.75,45 c 2.5,0 2.5,0 2.5,2.5 0,2.416667 -0.06944,2.5 -2.083333,2.5 -1.145834,0 -2.270834,-0.1875 -2.5,-0.416667 z m 7.5,0 C 58.9375,49.354167 58.75,48.229167 58.75,47.083333 58.75,45.069444 58.833333,45 61.25,45 c 2.5,0 2.5,0 2.5,2.5 0,2.416667 -0.06944,2.5 -2.083333,2.5 -1.145834,0 -2.270834,-0.1875 -2.5,-0.416667 z M 51.368522,40.78125 c 0.183444,-2.216473 0.321255,-2.354284 2.537728,-2.537728 l 2.34375,-0.193979 0,2.537729 0,2.537728 -2.537728,0 -2.537729,0 0.193979,-2.34375 z m 7.5,0 c 0.183444,-2.216473 0.321255,-2.354284 2.537728,-2.537728 l 2.34375,-0.193979 0,2.537729 0,2.537728 -2.537728,0 -2.537729,0 0.193979,-2.34375 z M 34.77392,24.024757 c 1.327469,-0.238196 2.944584,-0.889648 3.59359,-1.447671 1.320251,-1.135167 2.88249,-4.459417 2.88249,-6.133578 0,-0.866238 -0.219081,-0.771971 -1.042754,0.448676 -0.573514,0.849923 -1.11464,1.64113 -1.202502,1.758235 -0.08786,0.117105 -1.649723,0.54379 -3.470804,0.948189 -2.656211,0.589853 -3.592676,1.153167 -4.734998,2.848258 C 30.015774,23.609009 29.375,25.208603 29.375,26.001518 l 0,1.441664 1.49267,-1.49267 c 0.820969,-0.820969 2.578781,-1.687558 3.90625,-1.925754 z"
       id="path4109"
       inkscape:connector-curvature="0" />
    <path
       style="fill-opacity:1"
       d="M 41.861105,83.169631 C 30.315132,81.581925 20.274706,74.861856 14.006743,64.526662 4.3829768,48.658121 7.1776031,29.203072 20.920557,16.395509 28.47991,9.3506713 36.587499,6.108903 46.875,6.0177892 c 9.527094,-0.084379 17.255325,2.527192 24.187631,8.1736318 6.151781,5.010695 9.485469,9.382182 12.156957,15.9415 7.621825,18.713902 -0.521838,40.164579 -18.809751,49.545523 -5.612929,2.8792 -15.672635,4.436731 -22.548732,3.491187 z M 55,63.75 l 0,-4.375 2.8125,0 2.8125,0 0,4.375 0,4.375 3.125,0 3.125,0 0,-19.330687 0,-19.330687 -5.78125,1.896895 c -3.179688,1.043291 -7.398438,2.467285 -9.375,3.164431 l -3.59375,1.267536 0,3.353756 0,3.353756 -6.5625,0 -6.5625,0 0,8.4375 c 0,7.78364 -0.08933,8.4375 -1.15278,8.4375 -1.047381,0 -1.190032,-0.814303 -1.560214,-8.90625 -0.224089,-4.898438 -0.408462,-11.367188 -0.40972,-14.375 L 31.875,30.625 l -2.123473,0 -2.123472,0 -0.358323,8.28125 c -0.197078,4.554687 -0.513109,12.992187 -0.702293,18.75 L 26.22347,68.125 l 14.388265,0 L 55,68.125 55,63.75 Z M 39.621276,56.615296 c -0.186721,-0.486588 -0.248207,-1.6819 -0.136635,-2.65625 0.179702,-1.569317 0.45257,-1.771546 2.390359,-1.771546 2.030679,0 2.202026,0.152123 2.390114,2.121959 0.121854,1.27616 -0.127267,2.33111 -0.625,2.64668 -1.306704,0.82847 -3.646272,0.630048 -4.018838,-0.340843 z M 51.666667,56.458333 C 51.4375,56.229167 51.25,55.104167 51.25,53.958333 c 0,-2.013889 0.08333,-2.083333 2.5,-2.083333 2.5,0 2.5,0 2.5,2.5 0,2.416667 -0.06944,2.5 -2.083333,2.5 -1.145834,0 -2.270834,-0.1875 -2.5,-0.416667 z m 7.326792,-0.475379 c -0.188271,-0.490626 -0.249757,-1.545313 -0.136635,-2.34375 0.167317,-1.18096 0.642788,-1.487882 2.549426,-1.645682 l 2.34375,-0.193979 0,2.537729 c 0,2.48789 -0.04334,2.537728 -2.207116,2.537728 -1.33534,0 -2.342322,-0.352344 -2.549425,-0.892046 z m -19.172171,-6.37 C 39.575829,49.367496 39.375,48.229167 39.375,47.083333 39.375,45.064282 39.453303,45 41.912728,45 l 2.537729,0 -0.193979,2.34375 c -0.173967,2.10196 -0.389727,2.362925 -2.09144,2.529621 -1.043605,0.102229 -2.098292,-0.01496 -2.34375,-0.260417 z m 11.845379,-0.02962 C 51.4375,49.354167 51.25,48.229167 51.25,47.083333 51.25,45.069444 51.333333,45 53.75,45 c 2.5,0 2.5,0 2.5,2.5 0,2.416667 -0.06944,2.5 -2.083333,2.5 -1.145834,0 -2.270834,-0.1875 -2.5,-0.416667 z m 7.326792,-0.47538 c -0.188271,-0.490625 -0.249757,-1.545313 -0.136635,-2.34375 0.167317,-1.180959 0.642788,-1.487881 2.549426,-1.645682 l 2.34375,-0.193978 0,2.537728 C 63.75,49.950162 63.706656,50 61.542884,50 60.207544,50 59.200562,49.647656 58.993459,49.107954 Z M 51.368522,40.78125 c 0.183444,-2.216473 0.321255,-2.354284 2.537728,-2.537728 l 2.34375,-0.193979 0,2.537729 0,2.537728 -2.537728,0 -2.537729,0 0.193979,-2.34375 z m 7.624937,1.451704 c -0.188271,-0.490626 -0.249757,-1.545313 -0.136635,-2.34375 0.167317,-1.18096 0.642788,-1.487881 2.549426,-1.645682 l 2.34375,-0.193979 0,2.537729 c 0,2.48789 -0.04334,2.537728 -2.207116,2.537728 -1.33534,0 -2.342322,-0.352344 -2.549425,-0.892046 z M 34.77392,24.024757 C 38.422826,23.37001 41.25,20.201577 41.25,16.766971 l 0,-1.420103 -1.057523,1.545316 c -1.419821,2.074732 -1.834358,2.305928 -4.980445,2.777713 -3.09914,0.464745 -5.837032,3.345655 -5.837032,6.141938 l 0,1.631347 1.49267,-1.49267 c 0.820969,-0.820969 2.578781,-1.687558 3.90625,-1.925755 z"
       id="path4107"
       inkscape:connector-curvature="0" />
    <path
       style="fill-opacity:1"
       d="M 42.8125,83.317162 C 34.120434,82.4119 25.445731,77.973244 18.971859,71.118425 4.1975702,55.474777 5.0430794,31.211501 20.878716,16.398041 28.451319,9.3142413 36.458819,6.1359091 46.875,6.0796094 57.739297,6.0208875 65.626269,9.0760412 73.434169,16.367754 c 5.076344,4.74075 7.770125,8.553842 9.9088,14.026095 C 92.89635,54.83817 76.01795,81.607838 50,83.276837 c -2.578125,0.165382 -5.8125,0.183532 -7.1875,0.04031 z M 55,63.75 l 0,-4.375 2.8125,0 2.8125,0 0,4.375 0,4.375 3.125,0 3.125,0 0,-19.441868 c 0,-18.269461 -0.06596,-19.414948 -1.09375,-18.995451 -1.160981,0.473858 -17.234697,5.922088 -17.5,5.931674 -0.08594,0.0031 -0.15625,1.55252 -0.15625,3.443145 l 0,3.4375 -6.5625,0 -6.5625,0 0,8.4375 c 0,7.782682 -0.08944,8.4375 -1.152418,8.4375 -1.051175,0 -1.188445,-0.832353 -1.5625,-9.474371 C 32.059537,44.689724 31.875,38.220974 31.875,35.525629 l 0,-4.900629 -2.125844,0 -2.125845,0 -0.354684,7.03125 c -0.195075,3.867187 -0.507188,12.304687 -0.693584,18.75 l -0.338901,11.71875 14.381929,0 L 55,68.125 55,63.75 Z M 39.493522,54.53125 c 0.184146,-2.224956 0.304852,-2.34375 2.381478,-2.34375 2.076626,0 2.197332,0.118794 2.381478,2.34375 l 0.193979,2.34375 -2.575457,0 -2.575457,0 0.193979,-2.34375 z m 12.173145,1.927083 C 51.4375,56.229167 51.25,55.104167 51.25,53.958333 c 0,-2.013889 0.08333,-2.083333 2.5,-2.083333 2.5,0 2.5,0 2.5,2.5 0,2.416667 -0.06944,2.5 -2.083333,2.5 -1.145834,0 -2.270834,-0.1875 -2.5,-0.416667 z m 7.326792,-0.475379 c -0.188271,-0.490626 -0.249757,-1.545313 -0.136635,-2.34375 0.167317,-1.18096 0.642788,-1.487882 2.549426,-1.645682 l 2.34375,-0.193979 0,2.537729 c 0,2.48789 -0.04334,2.537728 -2.207116,2.537728 -1.33534,0 -2.342322,-0.352344 -2.549425,-0.892046 z m -19.172171,-6.37 C 39.575829,49.367496 39.375,48.229167 39.375,47.083333 39.375,45.064282 39.453303,45 41.912728,45 l 2.537729,0 -0.193979,2.34375 c -0.173967,2.10196 -0.389727,2.362925 -2.09144,2.529621 -1.043605,0.102229 -2.098292,-0.01496 -2.34375,-0.260417 z m 11.875,0 C 51.450829,49.367496 51.25,48.229167 51.25,47.083333 51.25,45.064282 51.328303,45 53.787728,45 l 2.537729,0 -0.193979,2.34375 c -0.173967,2.10196 -0.389727,2.362925 -2.09144,2.529621 -1.043605,0.102229 -2.098292,-0.01496 -2.34375,-0.260417 z m 7.297171,-0.505 c -0.188271,-0.490626 -0.249757,-1.545313 -0.136635,-2.34375 0.167317,-1.18096 0.642788,-1.487882 2.549426,-1.645682 l 2.34375,-0.193979 0,2.537729 C 63.75,49.950162 63.706656,50 61.542884,50 60.207544,50 59.200562,49.647656 58.993459,49.107954 Z M 51.368522,40.78125 c 0.183444,-2.216473 0.321255,-2.354284 2.537728,-2.537728 l 2.34375,-0.193979 0,2.537729 0,2.537728 -2.537728,0 -2.537729,0 0.193979,-2.34375 z m 7.624937,1.451704 c -0.188271,-0.490626 -0.249757,-1.545313 -0.136635,-2.34375 0.167317,-1.18096 0.642788,-1.487881 2.549426,-1.645682 l 2.34375,-0.193979 0,2.537729 c 0,2.48789 -0.04334,2.537728 -2.207116,2.537728 -1.33534,0 -2.342322,-0.352344 -2.549425,-0.892046 z M 34.808577,24.020616 c 1.317097,-0.210613 2.840132,-0.709223 3.384525,-1.108024 C 39.545901,21.921584 41.25,18.495644 41.25,16.766971 l 0,-1.420103 -1.057523,1.545316 c -1.419821,2.074732 -1.834358,2.305928 -4.980445,2.777713 C 32.063916,20.141986 29.375,23.026491 29.375,25.931509 l 0,1.751019 1.519429,-1.639491 c 0.902073,-0.973352 2.492422,-1.795078 3.914148,-2.022421 z"
       id="path4105"
       inkscape:connector-curvature="0" />
    <path
       style="fill-opacity:1"
       d="M 43.125,83.35235 C 25.488615,81.3833 11.013541,67.149894 8.8184444,49.61856 7.2214856,36.864304 11.780253,24.723712 21.513341,15.810391 35.986774,2.5559776 58.661987,2.7007862 73.198825,16.140465 c 7.937419,7.338342 11.684437,14.951419 12.795306,25.997082 0.668882,6.650863 -1.8197,16.827228 -5.569281,22.774059 -3.792156,6.01435 -10.976963,12.339388 -17.29985,15.229657 -5.260014,2.404418 -14.269324,3.850906 -20,3.211087 z M 55,63.75 l 0,-4.375 2.8125,0 2.8125,0 0,4.375 0,4.375 3.4375,0 3.4375,0 0,-19.375 c 0,-10.65625 -0.1572,-19.375 -0.349338,-19.375 -0.449393,0 -10.759288,3.407522 -15.431912,5.100401 l -3.59375,1.302005 0,3.361297 0,3.361297 -6.5625,0 -6.5625,0 0,8.4375 c 0,7.863853 -0.08049,8.4375 -1.183919,8.4375 -1.114297,0 -1.210858,-0.845338 -1.642017,-14.375 l -0.458098,-14.375 -2.051877,0 -2.051878,0 -0.346694,5.15625 c -0.190683,2.835937 -0.493684,11.273437 -0.673338,18.75 l -0.326643,13.59375 14.367232,0 L 55,68.125 55,63.75 Z M 39.493522,54.53125 c 0.184146,-2.224956 0.304852,-2.34375 2.381478,-2.34375 2.076626,0 2.197332,0.118794 2.381478,2.34375 l 0.193979,2.34375 -2.575457,0 -2.575457,0 0.193979,-2.34375 z m 12.202766,1.956704 C 51.450829,56.242496 51.25,55.104167 51.25,53.958333 c 0,-2.019051 0.0783,-2.083333 2.537728,-2.083333 l 2.537729,0 -0.193979,2.34375 c -0.173967,2.10196 -0.389727,2.362925 -2.09144,2.529621 -1.043605,0.102229 -2.098292,-0.01496 -2.34375,-0.260417 z m 7.320253,-1.136057 c -0.635392,-2.5316 0.06173,-3.476897 2.564071,-3.476897 2.211863,0 2.241994,0.03444 2.050869,2.34375 -0.176625,2.134021 -0.373825,2.361132 -2.203786,2.537999 -1.708979,0.165175 -2.069879,-0.0451 -2.411154,-1.404852 z M 39.821288,49.612954 C 39.575829,49.367496 39.375,48.229167 39.375,47.083333 39.375,45.064282 39.453303,45 41.912728,45 l 2.537729,0 -0.193979,2.34375 c -0.173967,2.10196 -0.389727,2.362925 -2.09144,2.529621 -1.043605,0.102229 -2.098292,-0.01496 -2.34375,-0.260417 z m 11.875,0 C 51.450829,49.367496 51.25,48.229167 51.25,47.083333 51.25,45.064282 51.328303,45 53.787728,45 l 2.537729,0 -0.193979,2.34375 c -0.173967,2.10196 -0.389727,2.362925 -2.09144,2.529621 -1.043605,0.102229 -2.098292,-0.01496 -2.34375,-0.260417 z m 7.320253,-1.136057 C 58.381149,45.945297 59.078268,45 61.580612,45 c 2.211863,0 2.241994,0.03444 2.050869,2.34375 -0.176625,2.134021 -0.373825,2.361132 -2.203786,2.537999 -1.708979,0.165175 -2.069879,-0.0451 -2.411154,-1.404852 z M 51.368522,40.78125 c 0.183444,-2.216473 0.321255,-2.354284 2.537728,-2.537728 l 2.34375,-0.193979 0,2.537729 0,2.537728 -2.537728,0 -2.537729,0 0.193979,-2.34375 z m 7.684554,1.703501 c -0.217634,-0.352137 -0.211885,-1.477137 0.01278,-2.5 0.356013,-1.620924 0.683008,-1.859751 2.546308,-1.859751 2.077478,0 2.137841,0.07059 2.137841,2.5 0,2.432309 -0.05825,2.5 -2.150614,2.5 -1.182839,0 -2.328678,-0.288113 -2.54631,-0.640249 z M 34.775856,24.021292 c 1.326404,-0.239703 2.867171,-0.670329 3.423926,-0.956947 1.274381,-0.656053 3.055544,-4.345571 3.033587,-6.283801 -0.01636,-1.444009 -0.03413,-1.439827 -1.085137,0.255447 -1.114727,1.798045 -1.482707,1.980972 -5.266806,2.618188 C 31.998967,20.139564 29.375,23.051171 29.375,25.764217 l 0,1.918311 1.494606,-1.612706 c 0.847508,-0.914477 2.53874,-1.801399 3.90625,-2.04853 z"
       id="path4103"
       inkscape:connector-curvature="0" />
    <path
       style="fill-opacity:1"
       d="M 43.4375,83.326775 C 30.920483,82.258375 18.138236,73.357187 12.590272,61.845652 9.5452081,55.527415 8.7446594,51.820355 8.7652788,44.133444 8.784565,36.943397 9.4408344,34.099539 12.584979,27.58127 14.539742,23.528761 16.187519,21.267962 19.897904,17.547717 27.713386,9.7114669 36.304884,6.0955697 47.1875,6.0623656 57.392832,6.0312281 65.940625,9.3931144 73.450306,16.391645 84.789594,26.959124 88.773481,42.426058 83.958275,57.1875 81.057869,66.078962 74.150044,74.079931 64.903587,79.257537 59.908839,82.054375 50.166706,83.90115 43.4375,83.326775 Z M 55,63.75 l 0,-4.375 2.8125,0 2.8125,0 0,4.375 0,4.375 3.4375,0 3.4375,0 0,-19.375 c 0,-10.65625 -0.140231,-19.375 -0.311625,-19.375 -0.4271,0 -13.128947,4.157756 -16.407125,5.370621 l -2.65625,0.982764 0,3.385808 0,3.385807 -6.5625,0 -6.5625,0 0,8.4375 c 0,7.845831 -0.08252,8.4375 -1.176777,8.4375 -1.104957,0 -1.204787,-0.877321 -1.635723,-14.375 l -0.458946,-14.375 -2.075981,0 c -1.975116,0 -2.091639,0.129059 -2.398232,2.65625 -0.177237,1.460937 -0.463311,9.898437 -0.635719,18.75 l -0.313469,16.09375 14.347423,0 L 55,68.125 55,63.75 Z M 39.493522,54.53125 c 0.184146,-2.224956 0.304852,-2.34375 2.381478,-2.34375 2.076626,0 2.197332,0.118794 2.381478,2.34375 l 0.193979,2.34375 -2.575457,0 -2.575457,0 0.193979,-2.34375 z m 12.202766,1.956704 C 51.450829,56.242496 51.25,55.104167 51.25,53.958333 c 0,-2.019051 0.0783,-2.083333 2.537728,-2.083333 l 2.537729,0 -0.193979,2.34375 c -0.173967,2.10196 -0.389727,2.362925 -2.09144,2.529621 -1.043605,0.102229 -2.098292,-0.01496 -2.34375,-0.260417 z M 59.375,54.414599 c 0,-2.493934 0.04001,-2.539599 2.225228,-2.539599 2.189191,0 2.222085,0.03796 2.031253,2.34375 -0.177093,2.139737 -0.370793,2.360798 -2.225231,2.539599 -1.990536,0.191923 -2.03125,0.144946 -2.03125,-2.34375 z M 39.821288,49.612954 C 39.575829,49.367496 39.375,48.229167 39.375,47.083333 39.375,45.064282 39.453303,45 41.912728,45 l 2.537729,0 -0.193979,2.34375 c -0.173967,2.10196 -0.389727,2.362925 -2.09144,2.529621 -1.043605,0.102229 -2.098292,-0.01496 -2.34375,-0.260417 z m 11.875,0 C 51.450829,49.367496 51.25,48.229167 51.25,47.083333 51.25,45.064282 51.328303,45 53.787728,45 l 2.537729,0 -0.193979,2.34375 c -0.173967,2.10196 -0.389727,2.362925 -2.09144,2.529621 -1.043605,0.102229 -2.098292,-0.01496 -2.34375,-0.260417 z M 59.375,47.539599 C 59.375,45.045665 59.415013,45 61.600228,45 c 2.189191,0 2.222085,0.03796 2.031253,2.34375 -0.177093,2.139737 -0.370793,2.360798 -2.225231,2.539599 -1.990536,0.191923 -2.03125,0.144946 -2.03125,-2.34375 z M 51.368522,40.78125 c 0.183444,-2.216473 0.321255,-2.354284 2.537728,-2.537728 l 2.34375,-0.193979 0,2.537729 0,2.537728 -2.537728,0 -2.537729,0 0.193979,-2.34375 z M 59.375,40.625 c 0,-2.440476 0.05208,-2.5 2.1875,-2.5 2.135419,0 2.1875,0.05953 2.1875,2.5 0,2.440476 -0.05206,2.5 -2.1875,2.5 -2.135417,0 -2.1875,-0.05952 -2.1875,-2.5 z M 34.913797,23.995414 c 1.250537,-0.22547 2.72923,-0.644451 3.285985,-0.931069 C 39.433499,22.429226 41.25,18.751518 41.25,16.888841 c 0,-1.267365 -0.105109,-1.234832 -1.547072,0.478843 -1.113765,1.323634 -2.295362,1.938937 -4.21875,2.196863 -3.335485,0.44729 -6.109178,3.242032 -6.109178,6.155541 l 0,1.950366 1.632547,-1.632547 c 0.897902,-0.897901 2.655714,-1.817023 3.90625,-2.042493 z"
       id="path4101"
       inkscape:connector-curvature="0" />
    <path
       style="fill-opacity:1"
       d="M 42.5,83.060231 C 29.949024,81.669369 18.119411,73.245888 12.545803,61.730831 9.3090238,55.043655 8.5274569,50.823221 8.9266425,42.1875 9.1933644,36.417427 9.5471394,34.579756 11.127879,30.753271 15.015568,21.342367 21.515552,14.266648 30.162545,10.032612 44.90201,2.8153724 61.777848,5.3553354 73.678931,16.582213 90.097594,32.070749 89.944781,57.821475 73.343269,73.145506 65.025875,80.822875 54.075345,84.342981 42.5,83.060231 Z M 55,63.727587 55,59.375 l 2.8125,0 2.8125,0 0,4.375 0,4.375 3.4375,0 3.4375,0 0,-19.375 c 0,-10.65625 -0.210938,-19.37291 -0.46875,-19.370356 -0.503838,0.005 -11.876191,3.764815 -16.25,5.372425 l -2.65625,0.976316 0,3.385808 0,3.385807 -6.5625,0 -6.5625,0 0,8.4375 c 0,8.020833 -0.06173,8.4375 -1.25,8.4375 -1.134866,0 -1.250192,-0.417361 -1.252082,-4.53125 -0.0011,-2.492188 -0.185802,-8.960938 -0.41035,-14.375 L 31.6793,30.625 l -2.077742,0 c -1.653702,0 -2.135827,0.286997 -2.362347,1.40625 -0.156532,0.773437 -0.437387,9.28125 -0.624122,18.90625 l -0.339518,17.5 L 40.637786,68.258837 55,68.080175 55,63.727587 Z M 39.375,54.667884 c 0,-2.452368 0.957735,-3.158613 3.438897,-2.535881 1.290784,0.323966 1.561103,0.768535 1.561103,2.567404 0,2.121525 -0.06213,2.175593 -2.5,2.175593 -2.444708,0 -2.5,-0.04881 -2.5,-2.207116 z m 12.133777,1.354989 c -0.196696,-0.512581 -0.265075,-1.585232 -0.151953,-2.383669 0.168057,-1.186183 0.641693,-1.487621 2.589546,-1.648074 l 2.38387,-0.19637 -0.19637,2.38387 c -0.18004,2.185627 -0.365646,2.400184 -2.231917,2.580039 -1.365039,0.131552 -2.15335,-0.110819 -2.393176,-0.735796 z M 59.375,54.414599 c 0,-2.493934 0.04001,-2.539599 2.225228,-2.539599 2.189191,0 2.222085,0.03796 2.031253,2.34375 -0.177093,2.139737 -0.370793,2.360798 -2.225231,2.539599 -1.990536,0.191923 -2.03125,0.144946 -2.03125,-2.34375 z M 39.821288,49.612954 C 39.575829,49.367496 39.375,48.229167 39.375,47.083333 39.375,45.064282 39.453303,45 41.912728,45 l 2.537729,0 -0.193979,2.34375 c -0.173967,2.10196 -0.389727,2.362925 -2.09144,2.529621 -1.043605,0.102229 -2.098292,-0.01496 -2.34375,-0.260417 z M 52.03125,49.599687 C 51.601562,49.418818 51.25,48.309896 51.25,47.135417 51.25,45.055472 51.315924,45 53.787728,45 l 2.537729,0 -0.193979,2.34375 c -0.164885,1.992236 -0.428321,2.361826 -1.756478,2.46427 -0.859375,0.06629 -1.914063,-0.02746 -2.34375,-0.208333 z m 7.78911,0.01234 C 59.575412,49.367079 59.375,48.229167 59.375,47.083333 59.375,45.112319 59.494969,45 61.600228,45 c 2.189191,0 2.222085,0.03796 2.031253,2.34375 -0.164037,1.981963 -0.438781,2.372298 -1.779871,2.528694 -0.872239,0.101719 -1.786302,-0.01547 -2.03125,-0.260417 z m -8.326901,-7.37907 c -0.188271,-0.490626 -0.249757,-1.545313 -0.136635,-2.34375 0.167317,-1.18096 0.642788,-1.487881 2.549426,-1.645682 l 2.34375,-0.193979 0,2.537729 c 0,2.48789 -0.04335,2.537728 -2.207116,2.537728 -1.33534,0 -2.342322,-0.352344 -2.549425,-0.892046 z M 59.375,40.625 c 0,-2.440476 0.05208,-2.5 2.1875,-2.5 2.135419,0 2.1875,0.05953 2.1875,2.5 0,2.440476 -0.05206,2.5 -2.1875,2.5 -2.135417,0 -2.1875,-0.05952 -2.1875,-2.5 z M 35,24.054434 c 1.203125,-0.248778 2.643027,-0.690574 3.199782,-0.981768 1.235763,-0.64633 3.050218,-4.324845 3.050218,-6.183825 0,-1.251299 -0.129051,-1.20638 -1.618059,0.563206 -1.241068,1.474926 -2.129339,1.922953 -3.8125,1.922953 -3.008704,0 -6.444441,3.361093 -6.444441,6.304432 l 0,2.054432 1.71875,-1.613553 C 32.039062,25.232857 33.796875,24.303212 35,24.054434 Z"
       id="path4099"
       inkscape:connector-curvature="0" />
    <path
       style="fill-opacity:1"
       d="M 36.38946,81.871631 C 23.573917,78.089312 13.000412,67.083387 9.696895,54.087438 8.4745388,49.278719 8.4844013,40.035808 9.716955,35.287562 13.673981,20.043661 25.688783,9.0926794 41.291295,6.50889 c 5.470286,-0.9058839 6.480279,-0.9047086 11.875,0.013819 8.905603,1.516305 15.171592,4.7358092 21.277267,10.9323952 3.704107,3.759253 5.408644,6.108643 7.346776,10.126166 3.104562,6.435394 3.924699,9.948645 3.920343,16.79373 -0.0044,7.19602 -0.892956,11.181538 -3.85765,17.306586 -4.539693,9.379001 -12.952993,16.597751 -23.290792,19.983902 -5.764068,1.888018 -16.14704,1.984549 -22.172779,0.206143 z M 55,64.0625 l 0,-4.6875 2.8125,0 2.8125,0 0,4.720162 0,4.720163 3.28125,-0.188913 L 67.1875,68.4375 67.352656,48.90625 C 67.443488,38.164062 67.29115,29.375 67.014131,29.375 c -0.492737,0 -15.634405,5.050569 -17.795381,5.935726 -0.851079,0.34861 -1.09375,1.195853 -1.09375,3.818642 l 0,3.370632 -6.5625,0 -6.5625,0 0,8.4375 c 0,8.020833 -0.06173,8.4375 -1.25,8.4375 -1.143721,0 -1.25,-0.416667 -1.25,-4.900629 0,-2.695345 -0.184537,-9.164095 -0.410082,-14.375 L 31.679836,30.625 l -2.402418,0 -2.402418,0 0,8.65018 c 0,4.757599 -0.184793,13.335724 -0.410651,19.0625 L 26.053698,68.75 l 14.473151,0 14.473151,0 0,-4.6875 z m -15.625,-9.375 c 0,-2.135417 0.05953,-2.1875 2.5,-2.1875 2.440476,0 2.5,0.05208 2.5,2.1875 0,2.135417 -0.05953,2.1875 -2.5,2.1875 -2.440476,0 -2.5,-0.05208 -2.5,-2.1875 z m 12.133777,1.335373 c -0.196696,-0.512581 -0.265075,-1.585232 -0.151953,-2.383669 0.168057,-1.186183 0.641693,-1.487621 2.589546,-1.648074 l 2.38387,-0.19637 -0.19637,2.38387 c -0.18004,2.185627 -0.365646,2.400184 -2.231917,2.580039 -1.365039,0.131552 -2.15335,-0.110819 -2.393176,-0.735796 z M 59.375,54.414599 c 0,-2.493934 0.04001,-2.539599 2.225228,-2.539599 2.189191,0 2.222085,0.03796 2.031253,2.34375 -0.177093,2.139737 -0.370793,2.360798 -2.225231,2.539599 -1.990536,0.191923 -2.03125,0.144946 -2.03125,-2.34375 z m -20,-7.227099 c 0,-2.135417 0.05953,-2.1875 2.5,-2.1875 2.440476,0 2.5,0.05208 2.5,2.1875 0,2.135417 -0.05953,2.1875 -2.5,2.1875 -2.440476,0 -2.5,-0.05208 -2.5,-2.1875 z m 11.875,0 c 0,-2.135417 0.05953,-2.1875 2.5,-2.1875 2.440476,0 2.5,0.05208 2.5,2.1875 0,2.135417 -0.05953,2.1875 -2.5,2.1875 -2.440476,0 -2.5,-0.05208 -2.5,-2.1875 z m 8.125,0 C 59.375,45.104167 59.479167,45 61.5625,45 c 2.083331,0 2.1875,0.104167 2.1875,2.1875 0,2.083333 -0.104169,2.1875 -2.1875,2.1875 -2.083333,0 -2.1875,-0.104167 -2.1875,-2.1875 z m -7.881541,-4.954546 c -0.188271,-0.490626 -0.249757,-1.545313 -0.136635,-2.34375 0.167317,-1.18096 0.642788,-1.487881 2.549426,-1.645682 l 2.34375,-0.193979 0,2.537729 c 0,2.48789 -0.04335,2.537728 -2.207116,2.537728 -1.33534,0 -2.342322,-0.352344 -2.549425,-0.892046 z M 59.375,40.585401 c 0,-2.488696 0.04071,-2.535673 2.03125,-2.34375 1.854438,0.178802 2.048137,0.399862 2.225231,2.539599 0.190832,2.305796 0.157938,2.34375 -2.031253,2.34375 -2.185215,0 -2.225228,-0.04566 -2.225228,-2.539599 z M 35.801075,23.84955 c 3.119728,-0.785556 4.704132,-2.627068 5.272216,-6.127762 l 0.353318,-2.177243 -1.915228,1.915228 C 38.178219,18.792934 36.992708,19.375 35.610577,19.375 32.850203,19.375 29.375,22.854373 29.375,25.618059 l 0,1.993058 1.817597,-1.529408 c 0.999679,-0.841174 3.073494,-1.845645 4.608478,-2.232159 z"
       id="path4097"
       inkscape:connector-curvature="0" />
    <path
       style="fill-opacity:1"
       d="M 36.788496,81.930194 C 25.742788,78.949525 15.16991,69.394756 11.211158,58.815801 9.17731,53.380759 8.5779,48.980644 8.9459494,42.1875 9.3625031,34.499113 10.956619,29.602582 15.021316,23.526234 22.594676,12.204756 33.830381,6.1272659 47.1875,6.1272659 c 16.0304,0 29.678856,9.2658061 36.009369,24.4464151 1.69615,4.067388 2.018169,5.71292 2.272719,11.613819 0.373712,8.663314 -0.418069,12.884419 -3.683851,19.63927 -4.552256,9.415755 -13.826718,17.146586 -24.092086,20.082218 -5.533678,1.582487 -15.083464,1.592175 -20.905155,0.02119 z M 55,64.0625 l 0,-4.6875 2.8125,0 2.8125,0 0,4.720162 0,4.720163 3.28125,-0.188913 L 67.1875,68.4375 67.352656,48.90625 C 67.483125,33.477025 67.352031,29.383334 66.727656,29.41468 66.293069,29.436504 62,30.79393 57.1875,32.431181 l -8.75,2.976822 -0.18744,3.545998 -0.18744,3.545999 -6.53131,0 -6.53131,0 0,8.4375 c 0,8.020833 -0.06173,8.4375 -1.25,8.4375 -1.143721,0 -1.25,-0.416667 -1.25,-4.900629 0,-2.695345 -0.184537,-9.164095 -0.410082,-14.375 L 31.679836,30.625 l -2.402418,0 -2.402418,0 -0.0016,6.40625 c -8.75e-4,3.523437 -0.186169,12.101562 -0.411702,19.0625 L 26.051597,68.75 l 14.474201,0 14.474202,0 0,-4.6875 z m -15.625,-9.375 c 0,-2.135417 0.05953,-2.1875 2.5,-2.1875 2.440476,0 2.5,0.05208 2.5,2.1875 0,2.135417 -0.05953,2.1875 -2.5,2.1875 -2.440476,0 -2.5,-0.05208 -2.5,-2.1875 z m 12.133777,1.335373 c -0.196696,-0.512581 -0.265075,-1.585232 -0.151953,-2.383669 0.168057,-1.186183 0.641693,-1.487621 2.589546,-1.648074 l 2.38387,-0.19637 -0.19637,2.38387 c -0.18004,2.185627 -0.365646,2.400184 -2.231917,2.580039 -1.365039,0.131552 -2.15335,-0.110819 -2.393176,-0.735796 z M 59.375,54.414599 c 0,-2.493934 0.04001,-2.539599 2.225228,-2.539599 2.189191,0 2.222085,0.03796 2.031253,2.34375 -0.177093,2.139737 -0.370793,2.360798 -2.225231,2.539599 -1.990536,0.191923 -2.03125,0.144946 -2.03125,-2.34375 z m -20,-7.227099 c 0,-2.135417 0.05953,-2.1875 2.5,-2.1875 2.440476,0 2.5,0.05208 2.5,2.1875 0,2.135417 -0.05953,2.1875 -2.5,2.1875 -2.440476,0 -2.5,-0.05208 -2.5,-2.1875 z m 11.991651,0.15625 c 0.178801,-1.854439 0.399862,-2.048135 2.539599,-2.225228 2.305796,-0.190838 2.34375,-0.157943 2.34375,2.03125 0,2.185215 -0.04566,2.225228 -2.539599,2.225228 -2.488696,0 -2.535673,-0.04071 -2.34375,-2.03125 z M 59.375,47.1875 C 59.375,45.104167 59.479167,45 61.5625,45 c 2.083331,0 2.1875,0.104167 2.1875,2.1875 0,2.083333 -0.104169,2.1875 -2.1875,2.1875 -2.083333,0 -2.1875,-0.104167 -2.1875,-2.1875 z M 51.493459,42.232954 C 51.305188,41.742328 51.243702,40.687641 51.356824,39.889204 51.527299,38.685957 51.936887,38.4375 53.75,38.4375 c 2.076626,0 2.197332,0.118794 2.381478,2.34375 0.191128,2.309313 0.160995,2.34375 -2.050866,2.34375 -1.368021,0 -2.378547,-0.348428 -2.587153,-0.892046 z M 59.375,40.585401 c 0,-2.488696 0.04071,-2.535673 2.03125,-2.34375 1.854438,0.178802 2.048137,0.399862 2.225231,2.539599 0.190832,2.305796 0.157938,2.34375 -2.031253,2.34375 -2.185215,0 -2.225228,-0.04566 -2.225228,-2.539599 z M 35.337875,24.028234 C 38.993106,22.965629 41.25,20.404087 41.25,17.318056 l 0,-1.596902 -1.826923,1.826923 C 38.315269,18.655884 36.938651,19.375 35.925759,19.375 c -2.167796,0 -5.022983,1.705712 -5.833737,3.485124 -0.351721,0.771943 -0.840738,2.483274 -1.086705,3.802955 l -0.447211,2.399421 1.712548,-2.029518 c 1.162422,-1.37757 2.790181,-2.342795 5.067221,-3.004748 z"
       id="path4095"
       inkscape:connector-curvature="0" />
  </g>
</svg>
