<?xml version="1.0" encoding="UTF-8" standalone="no"?>
<!-- Created with Inkscape (http://www.inkscape.org/) -->

<svg
   xmlns:dc="http://purl.org/dc/elements/1.1/"
   xmlns:cc="http://creativecommons.org/ns#"
   xmlns:rdf="http://www.w3.org/1999/02/22-rdf-syntax-ns#"
   xmlns:svg="http://www.w3.org/2000/svg"
   xmlns="http://www.w3.org/2000/svg"
   xmlns:xlink="http://www.w3.org/1999/xlink"
   xmlns:sodipodi="http://sodipodi.sourceforge.net/DTD/sodipodi-0.dtd"
   xmlns:inkscape="http://www.inkscape.org/namespaces/inkscape"
   id="svg4260"
   version="1.1"
   inkscape:version="0.91 r13725"
   width="473"
   height="123"
   viewBox="0 0 473 123"
   sodipodi:docname="Hyperloop.bmp.svg">
  <metadata
     id="metadata4266">
    <rdf:RDF>
      <cc:Work
         rdf:about="">
        <dc:format>image/svg+xml</dc:format>
        <dc:type
           rdf:resource="http://purl.org/dc/dcmitype/StillImage" />
        <dc:title></dc:title>
      </cc:Work>
    </rdf:RDF>
  </metadata>
  <defs
     id="defs4264" />
  <sodipodi:namedview
     pagecolor="#ffffff"
     bordercolor="#666666"
     borderopacity="1"
     objecttolerance="10"
     gridtolerance="10"
     guidetolerance="10"
     inkscape:pageopacity="0"
     inkscape:pageshadow="2"
     inkscape:window-width="640"
     inkscape:window-height="480"
     id="namedview4262"
     showgrid="false"
     inkscape:zoom="0.55391121"
     inkscape:cx="236.5"
     inkscape:cy="61.5"
     inkscape:window-x="978"
     inkscape:window-y="8"
     inkscape:window-maximized="0"
     inkscape:current-layer="svg4260" />
  <image
     width="473"
     height="123"
     preserveAspectRatio="none"
     style="image-rendering:optimizeQuality"
     xlink:href="file:///media/havoc/USB%20DISK/pics/_legend/Hyperloop.bmp"
     id="image4268"
     x="0"
     y="0"
     sodipodi:absref="/media/havoc/USB DISK/pics/_legend/Hyperloop.bmp" />
  <g
     id="g4270">
    <path
       style="fill:#fcfcfc"
       d="M 0,61.5 0,0 236.5,0 473,0 473,61.5 473,123 236.5,123 0,123 0,61.5 Z"
       id="path4286"
       inkscape:connector-curvature="0" />
    <path
       style="fill:#b0b0b0"
       d="M 48.624765,97.530892 C 43.79098,95.807895 38.762818,91.018034 36.484791,85.966272 35.380597,83.517607 33.751267,81.76034 32.028107,81.159643 27.882622,79.714519 21.896485,73.980395 19.864982,69.508577 c -4.688295,-10.320042 0.383052,-23.160116 11.046587,-27.9687 2.559926,-1.154366 4.320063,-2.76558 4.928788,-4.51177 1.445124,-4.145485 7.179248,-10.131622 11.651066,-12.163125 7.843169,-3.563076 16.674235,-1.736243 23.224323,4.804285 2.31866,2.315276 4.509872,5.381487 4.869361,6.813802 0.451966,1.800779 2.128134,3.351404 5.433073,5.026143 5.852587,2.965731 10.379769,8.268824 12.000396,14.057137 2.745946,9.807553 -3.048348,21.303847 -12.766236,25.329128 -1.946892,0.80643 -3.645897,2.650871 -4.800593,5.21153 -4.631689,10.271251 -16.21842,15.205293 -26.826982,11.423885 z m 13.47043,-10.81606 c 4.034556,-2.718888 4.843527,-5.282118 1.95628,-6.198495 -1.134247,-0.359995 -3.320199,-1.713018 -4.857672,-3.006716 l -2.795405,-2.352179 -4.251614,2.855417 c -2.338388,1.57048 -4.758987,3.024542 -5.379109,3.231249 -3.455512,1.151838 4.4836,7.745185 9.334442,7.752154 1.431164,0.0021 4.128049,-1.024588 5.993078,-2.28143 z M 37.878196,67.75 c 1.141661,-1.7875 2.616233,-3.98982 3.276826,-4.894044 0.986654,-1.35054 0.735313,-2.197574 -1.407872,-4.744604 -1.434922,-1.705309 -2.895369,-4.002989 -3.245438,-5.105956 -0.876447,-2.761441 -2.959353,-2.510352 -5.45086,0.657086 -3.913427,4.975116 -3.913427,9.69992 0,14.675036 2.747596,3.493003 4.306849,3.358823 6.827344,-0.587518 z m 43.402189,0.07887 c 2.637811,-3.536505 2.640534,-10.115119 0.0057,-13.657746 C 79.201691,51.3687 75,49.975006 75,52.086058 c 0,0.673838 -1.125,2.700111 -2.5,4.502829 -3.00226,3.936166 -3.059315,4.594965 -0.591375,6.82842 1.049744,0.950005 2.462962,3.06557 3.140486,4.701256 1.463059,3.532139 3.449527,3.439789 6.231274,-0.28969 z M 62.792124,41.844628 c 3.679255,-2.337879 3.700285,-3.387847 0.121375,-6.059889 -4.126656,-3.080994 -8.899402,-3.29583 -12.906577,-0.580966 -1.921193,1.30161 -3.592182,3.025738 -3.713309,3.831395 -0.121128,0.805658 1.900757,2.85854 4.493077,4.561962 4.197194,2.757989 4.932314,2.946141 6.71331,1.718257 1.1,-0.75838 3.481456,-2.320221 5.292124,-3.470759 z M 251.40454,76.096118 C 246.1739,73.720622 243,68.72366 243,62.864101 c 0,-11.055922 12.55477,-18.481475 21.75914,-12.869503 10.17703,6.205009 9.58311,21.223881 -1.0298,26.041582 -5.26799,2.391387 -7.17078,2.400641 -12.3248,0.05994 z m 11.67238,-7.019195 C 265.07192,67.081926 266,65.152497 266,63 c 0,-4.013567 -4.70941,-9 -8.5,-9 -3.79059,0 -8.5,4.986433 -8.5,9 0,4.013567 4.70941,9 8.5,9 1.59987,0 3.81475,-1.160907 5.57692,-2.923077 z m 18.90748,7.071466 c -5.04978,-2.683453 -7.98518,-7.482066 -7.98066,-13.046272 0.009,-11.223838 10.67318,-18.196448 20.61482,-13.47883 10.86122,5.153982 10.90625,21.511471 0.0728,26.429909 -5.29599,2.4044 -8.31881,2.427045 -12.70693,0.09519 z m 12.29413,-6.982474 c 0.98201,-0.982011 2.05156,-3.425198 2.37679,-5.429304 0.50898,-3.136526 0.16718,-4.067955 -2.45508,-6.69022 -3.92,-3.919996 -7.44197,-3.958508 -11.27716,-0.123314 -3.97435,3.974347 -3.93387,8.219976 0.11698,12.270833 2.55553,2.555525 3.55113,2.937852 6.24653,2.398772 1.76356,-0.352711 4.00993,-1.444757 4.99194,-2.426767 z m -172.81534,6.598753 c -0.29033,-0.756583 -0.40082,-6.975645 -0.24553,-13.820137 L 121.5,49.5 l 2.5,0 c 2.22222,0 2.55556,0.5 3,4.5 0.5,4.5 0.5,4.5 4.5,4.5 4,0 4,0 4.5,-4.5 0.44444,-4 0.77778,-4.5 3,-4.5 l 2.5,0 0,13.5 0,13.5 -2.5,0 c -2.30303,0 -2.53939,-0.433333 -3,-5.5 l -0.5,-5.5 -4,0 -4,0 -0.5,5.5 c -0.43314,4.764587 -0.80145,5.542806 -2.75447,5.820137 -1.24214,0.176384 -2.4915,-0.297557 -2.78234,-1.055469 z m 31.24566,0.610848 C 152.31898,75.985649 152,73.334483 152,70.484036 152,66.483959 151.20138,63.796497 148.5,58.706028 144.29779,50.787405 144.11132,49 147.48746,49 c 1.83376,0 3.18334,1.102359 5.13547,4.194733 l 2.64802,4.194733 2.11452,-3.718926 c 2.26522,-3.983961 6.2595,-5.863031 7.65683,-3.602089 0.53097,0.859123 -0.49325,3.685655 -2.85733,7.885347 C 159.45372,62.805752 158.37059,66.052884 158,70.5 c -0.42334,5.080086 -0.81295,6.044797 -2.54115,6.292183 -1.12263,0.1607 -2.36013,-0.0268 -2.75,-0.416667 z m 15.75434,-0.610848 c -0.29033,-0.756583 -0.40082,-6.975645 -0.24553,-13.820137 L 168.5,49.5 l 5.74568,-0.299775 c 5.01584,-0.261696 6.06379,0.01833 8.25,2.204546 4.95055,4.950551 2.41833,13.052496 -4.51974,14.461124 -3.31215,0.672462 -3.4995,0.939628 -3.97594,5.66991 -0.42376,4.20729 -0.84375,5.013007 -2.75447,5.284332 -1.24214,0.176384 -2.4915,-0.297557 -2.78234,-1.055469 z M 179,57.5 c 0,-1.603839 -3.39088,-3.775786 -4.36852,-2.79815 C 174.28417,55.049166 174,56.308333 174,57.5 c 0,1.191667 0.28417,2.450834 0.63148,2.79815 C 175.60912,61.275786 179,59.103839 179,57.5 Z m 9.4532,18.238633 c -0.28484,-0.742264 -0.39083,-6.94961 -0.23554,-13.794102 L 188.5,49.5 l 7.5,0 c 6.83333,0 7.5,0.177778 7.5,2 0,1.62963 -0.83333,2.092593 -4.5,2.5 -3.66667,0.407407 -4.5,0.87037 -4.5,2.5 0,1.62963 0.83333,2.092593 4.5,2.5 4,0.444444 4.5,0.777778 4.5,3 0,2.222222 -0.5,2.555556 -4.5,3 -4,0.444444 -4.5,0.777778 -4.5,3 0,2.222222 0.5,2.555556 4.5,3 4,0.444444 4.5,0.777778 4.5,3 0,2.410249 -0.2608,2.510558 -7.26446,2.794101 -5.387,0.218093 -7.39831,-0.05469 -7.78234,-1.055468 z m 20.77599,0.09055 C 207.54717,74.147167 207.52181,51.878193 209.2,50.2 c 0.66,-0.66 3.38045,-1.2 6.04545,-1.2 3.81123,0 5.36937,0.523907 7.3,2.454545 3.06943,3.069429 3.20856,7.677804 0.35287,11.688246 l -2.10167,2.951532 2.60167,3.931398 C 226.71134,75.032032 226.7418,77 223.50627,77 c -1.77248,0 -3.35826,-1.193453 -5.48288,-4.126404 -3.03865,-4.194735 -3.60444,-4.045236 -4.22435,1.116188 -0.33329,2.774939 -2.68695,3.722307 -4.56985,1.839403 z m 9.19937,-17.197275 c 0.83919,-1.369913 0.66016,-2.054562 -0.82588,-3.158448 C 215.26124,53.734157 214,54.405926 214,57.39235 c 0,3.984445 2.345,4.640815 4.42856,1.239562 z m 12.02615,17.110672 c -0.28566,-0.744437 -0.39234,-6.953561 -0.23705,-13.798053 L 230.5,49.5 l 2.5,0 c 2.47619,0 2.50476,0.1 3,10.5 l 0.5,10.5 3.5,0.5 c 2.93333,0.419048 3.5,0.904762 3.5,3 0,2.368825 -0.32862,2.515639 -6.26294,2.798053 -4.55938,0.216981 -6.40423,-0.07011 -6.78235,-1.055469 z m 75.00848,0.02208 c -0.29033,-0.756583 -0.40082,-6.975645 -0.24553,-13.820137 L 305.5,49.5 l 4.94824,-0.312887 c 5.89981,-0.373058 9.00077,1.068474 10.59909,4.927163 2.19475,5.298584 -0.96378,10.809315 -6.81521,11.890587 -2.45545,0.453737 -2.78275,1.010701 -3.23212,5.5 -0.42436,4.239481 -0.84105,5.043567 -2.75447,5.315274 -1.24214,0.176384 -2.4915,-0.297557 -2.78234,-1.055469 z m 10.01392,-17.565606 c 0.67154,-1.750013 -2.12551,-4.534396 -3.62443,-3.608012 -0.97101,0.600119 -1.15837,4.769927 -0.25491,5.673382 0.94019,0.940194 3.18451,-0.25469 3.87934,-2.06537 z"
       id="path4284"
       inkscape:connector-curvature="0" />
    <path
       style="fill:#8f8f8f"
       d="M 49.683804,96.608385 C 43.799254,94.421494 38.800292,89.637006 37.032637,84.5 36.273972,82.295234 34.814352,81.012717 31.526263,79.661739 20.811026,75.259167 16.108557,62.425901 21.435752,52.124243 c 1.993373,-3.854758 6.568242,-8.194626 10.301504,-9.772339 2.234496,-0.944318 4.000367,-2.87402 5.700838,-6.229738 6.542606,-12.911211 21.094997,-15.959424 31.464947,-6.590798 2.068816,1.869051 4.550074,5.101605 5.513906,7.183453 1.319811,2.850752 3.027556,4.402341 6.917738,6.285179 14.897608,7.210406 14.957568,27.822295 0.103704,35.64956 -4.076536,2.148136 -5.536163,3.658136 -7.5,7.758832 -4.413015,9.214832 -14.964946,13.652328 -24.254585,10.199993 z M 60.315741,88.875037 C 66.279416,85.803553 68.95361,80.625457 65.25,79.320733 64.2875,78.981659 61.974855,77.5751 60.110789,76.195045 c -2.746372,-2.033267 -3.694734,-2.284293 -5,-1.323472 -0.885934,0.652145 -2.881982,1.960328 -4.435662,2.907073 -5.934523,3.616239 -6.248963,3.982133 -5.081298,5.912785 C 47.245585,86.422495 52.984386,90 55.713625,90 c 1.329822,0 3.400774,-0.506233 4.602116,-1.124963 z M 40.333155,69.60823 C 43.490888,66.260057 51.546082,63 56.661265,63 c 1.264044,0 4.12337,-0.730263 6.354057,-1.622807 3.83369,-1.533939 4.169049,-1.520315 6.123879,0.248782 1.137446,1.029375 3.189205,3.784638 4.559463,6.122808 2.850696,4.864344 4.070426,5.190363 7.150904,1.911345 5.11725,-5.447063 4.684303,-13.350228 -0.993045,-18.127402 -3.618265,-3.04457 -5.432162,-3.194169 -6.839731,-0.564101 -1.609598,3.00756 -8.938071,6.800739 -14.516792,7.513814 -2.75,0.351506 -6.943697,1.335889 -9.319328,2.187516 -4.195636,1.504072 -4.39172,1.480854 -6.847317,-0.810771 C 40.94296,58.561633 38.940011,55.8125 37.882358,53.75 35.557935,49.217207 33.975677,49.051762 30.657994,52.994604 27.432739,56.827602 26.657156,59.35895 27.436001,63.51055 28.038213,66.720615 33.772667,73 36.101948,73 c 0.567796,0 2.471839,-1.526296 4.231207,-3.39177 z M 58.435927,46.0708 c 0.960247,-1.061061 3.279991,-2.657174 5.154988,-3.546918 4.214461,-1.999892 4.291245,-3.603806 0.332013,-6.93528 C 58.376386,30.921494 52.773283,30.980326 47.75,35.758414 c -3.818428,3.632044 -3.503791,5.816383 1.182151,8.206972 2.162684,1.103319 4.214241,2.462465 4.559017,3.020324 0.976448,1.579926 3.030989,1.199782 4.944759,-0.91491 z M 252.44533,76.094547 c -1.13007,-0.487072 -3.49257,-2.523261 -5.25,-4.524863 C 244.51212,68.513683 244,67.128416 244,62.926481 c 0,-4.40163 0.45171,-5.488189 3.75288,-9.027215 C 256.77969,44.222051 271,50.037802 271,63.406757 c 0,4.024039 -0.52434,5.232808 -3.78725,8.730823 -3.1222,3.347161 -4.57093,4.128833 -8.25,4.451344 -2.45451,0.215165 -5.38735,-0.0073 -6.51742,-0.494377 z m 9.08261,-4.289232 C 264.39394,70.49948 267,66.305957 267,63 c 0,-3.305957 -2.60606,-7.49948 -5.47206,-8.805315 -3.4147,-1.555845 -5.02408,-1.506599 -8.43675,0.258157 -5.47665,2.832087 -6.44,11.066392 -1.78932,15.294295 3.70213,3.365574 6.23694,3.875749 10.22607,2.058178 z m 22.43842,4.42701 c -5.87189,-2.80388 -8.96744,-7.364621 -8.96262,-13.204831 0.0106,-12.823214 13.84736,-18.643063 22.87079,-9.619628 C 301.23166,56.764995 301.5,57.474954 301.5,63 c 0,5.48629 -0.28193,6.248595 -3.50177,9.468441 -2.66971,2.669703 -4.57062,3.619919 -8,3.998992 -2.47403,0.27347 -5.18837,0.167671 -6.03187,-0.235108 z m 10.65096,-6.34254 c 2.92755,-2.750287 3.72459,-6.323766 2.34371,-10.507863 C 295.86177,56.051127 291.86288,53 288.59671,53 c -2.91659,0 -6.76366,2.422172 -8.17171,5.145025 -5.10548,9.872915 6.21384,19.240148 14.19232,11.74476 z M 122,63 c 0,-12.211275 0.11802,-13 1.94521,-13 1.61115,0 1.99755,0.815724 2.25,4.75 l 0.30479,4.75 5,0 5,0 0.30479,-4.75 c 0.25245,-3.934276 0.63885,-4.75 2.25,-4.75 1.82719,0 1.94521,0.788725 1.94521,13 0,12.222441 -0.11664,13 -1.9501,13 -1.67259,0 -1.99277,-0.818241 -2.25,-5.75 L 136.5,64.5 l -5,0 -5,0 -0.2999,5.75 C 125.94287,75.181759 125.62269,76 123.9501,76 122.11664,76 122,75.222441 122,63 Z m 31,7.975036 C 153,67.22271 152.11358,64.189875 149.5,59 c -4.00335,-7.949596 -4.19991,-9 -1.68414,-9 1.07715,0 2.73042,1.627243 4.06398,4 1.23647,2.2 2.60954,4 3.05126,4 0.44172,0 1.99431,-1.8 3.4502,-4 2.63468,-3.981262 5.6187,-5.327263 5.6187,-2.534423 0,0.806068 -1.575,4.330938 -3.5,7.833046 -2.72685,4.960893 -3.5,7.50885 -3.5,11.534423 C 157,75.333333 156.74195,76 155,76 c -1.73466,0 -2,-0.666667 -2,-5.024964 z M 169,63 l 0,-13 5.32569,0 c 4.2739,0 5.75509,0.457084 7.5,2.314451 4.42471,4.709887 2.02476,10.83987 -5.15215,13.159736 -2.90505,0.939026 -3.19933,1.427678 -3.47833,5.775813 -0.25245,3.934276 -0.63885,4.75 -2.25,4.75 C 169.11802,76 169,75.211275 169,63 Z m 8.77749,-2.556704 c 2.79134,-1.955126 2.8275,-3.906138 0.10771,-5.811153 C 174.90485,52.544624 173,53.639596 173,57.440322 c 0,4.84344 1.13305,5.55564 4.77749,3.002974 z M 189,63 l 0,-13 7,0 c 5.43761,0 7,0.322569 7,1.445209 0,1.014664 -1.41508,1.536009 -4.75,1.75 -4.54338,0.291533 -4.75,0.435288 -4.75,3.304791 0,2.869503 0.20662,3.013258 4.75,3.304791 3.88407,0.249227 4.75,0.649418 4.75,2.195209 0,1.545791 -0.86593,1.945982 -4.75,2.195209 -4.70385,0.30183 -4.75,0.338797 -4.75,3.804791 0,3.406227 0.12033,3.513396 4.49106,4 3.23528,0.360192 4.58396,0.989328 4.82332,2.25 0.29108,1.533044 -0.54464,1.75 -6.74106,1.75 L 189,76 189,63 Z m 20.4341,11.688857 c -0.27673,-0.721128 -0.3751,-6.458628 -0.21862,-12.75 L 209.5,50.5 l 4.87193,-0.309771 c 3.93176,-0.249992 5.33083,0.121353 7.25,1.924314 2.99726,2.815788 3.18051,7.849288 0.37807,10.385457 -2.62245,2.373281 -2.52293,3.947847 0.5,7.911113 C 225.506,74.352175 225.66758,76 223.04804,76 c -1.1894,0 -3.16701,-1.766015 -5.0622,-4.520577 -1.71063,-2.486317 -3.53225,-4.259759 -4.04804,-3.940983 C 213.42201,67.857217 213,69.891476 213,72.059017 213,74.931343 212.58474,76 211.46862,76 c -0.84227,0 -1.7578,-0.590014 -2.03452,-1.311143 z m 8.73716,-14.343845 c 2.41363,-2.184304 2.30873,-3.895407 -0.35311,-5.759831 -1.60892,-1.12693 -2.52798,-1.240962 -3.5,-0.434259 -1.64594,1.36601 -1.71151,5.055723 -0.11815,6.649078 1.54825,1.548254 1.78806,1.520779 3.97126,-0.454988 z M 231,63 c 0,-12.25877 0.11211,-13 1.96617,-13 1.81535,0 1.98794,0.824563 2.25,10.75 L 235.5,71.5 238.98865,72 c 2.27268,0.325725 3.6053,1.109963 3.82332,2.25 0.28903,1.511307 -0.4937,1.75 -5.73865,1.75 L 231,76 231,63 Z m 75,0 0,-13 5.42742,0 c 4.67226,0 5.71579,0.36661 7.5,2.634859 3.88153,4.934563 1.65803,10.60537 -5.00241,12.758126 -3.19267,1.031918 -3.44569,1.429244 -3.7298,5.857015 -0.25245,3.934276 -0.63885,4.75 -2.25,4.75 C 306.11802,76 306,75.211275 306,63 Z m 7.94809,-1.97222 C 316.74932,59.528606 317.16227,57.162273 315,55 c -2.68093,-2.680933 -5,-1.549079 -5,2.440322 0,4.491681 0.83717,5.252376 3.94809,3.587458 z"
       id="path4282"
       inkscape:connector-curvature="0" />
    <path
       style="fill:#808080"
       d="M 48.029753,95.416525 C 43.23896,93.338558 41.176589,91.27451 38.379171,85.758095 36.601298,82.252189 35.00038,80.609272 32.237256,79.455047 27.897044,77.642035 23.423489,73.652401 21.410724,69.79966 18.5021,64.232112 20.265163,52.684529 24.788138,47.678513 c 0.941524,-1.042076 3.845719,-2.97678 6.453767,-4.299342 3.505906,-1.777873 5.148823,-3.378791 6.303048,-6.141915 C 40.872624,29.271069 47.067098,25 55.293056,25 c 7.766346,0 13.342578,3.195447 17.441759,9.994959 2.279915,3.781806 4.617194,6.124293 7.91775,7.935393 10.928824,5.99693 14.21586,16.260341 8.669525,27.069648 -2.292653,4.468175 -3.810179,6.029513 -8.088961,8.322497 -3.915328,2.098209 -5.661073,3.766188 -6.803048,6.5 -1.963193,4.69975 -6.04662,9.045818 -10.147962,10.800664 -4.186716,1.791376 -11.871165,1.693674 -16.252366,-0.206636 z M 61.988956,88.505711 C 65.267838,86.810135 68,83.35262 68,80.898814 68,79.987919 66.682532,78.696928 65.072294,78.029945 63.462056,77.362963 61.367312,75.958369 60.417307,74.908625 58.167561,72.422684 55.770953,72.490281 53.404988,75.10641 52.357244,76.264935 49.8125,78.074081 47.75,79.126734 c -4.317618,2.203613 -4.659806,3.700659 -1.5,6.562383 5.067294,4.589268 10.448678,5.552303 15.738956,2.816594 z M 45.997154,68.498241 c 0.636801,0.393565 2.050952,-0.246128 3.14853,-1.42424 1.592587,-1.709441 2.683327,-2.009104 5.434372,-1.493005 2.248932,0.421903 3.998225,0.183963 5.047074,-0.686505 0.882864,-0.732711 3.102815,-1.847056 4.933226,-2.476321 3.039572,-1.044956 3.539643,-0.917646 5.76967,1.468855 1.342908,1.437136 3.17958,4.075475 4.081493,5.862975 2.089974,4.142118 3.83576,4.103424 7.085375,-0.157041 5.369412,-7.039661 3.928755,-15.405353 -3.455737,-20.066978 l -4.111697,-2.5956 -2.613437,3.105894 c -2.021524,2.402444 -3.150953,2.970987 -4.98669,2.510246 -1.71778,-0.431135 -2.554183,-0.105529 -3.02835,1.178916 -0.998266,2.704146 -2.442249,3.268194 -6.652904,2.598756 -2.374629,-0.377535 -4.113913,-0.188492 -4.535045,0.492914 -0.375718,0.607925 -2.290599,1.776964 -4.25529,2.597865 -3.466531,1.448409 -3.646941,1.412592 -6.100793,-1.211213 C 40.366206,56.716691 38.490394,54.0375 37.588481,52.25 36.686568,50.4625 35.363637,49 34.648634,49 c -1.485976,0 -4.863324,3.460485 -6.523671,6.684259 -2.736205,5.312689 0.127977,14.106974 5.37274,16.496648 C 34.939988,72.838056 36,74.159078 36,75.299352 c 0,1.553558 0.949135,0.959109 4.420565,-2.768626 2.618742,-2.812092 4.89176,-4.455732 5.576589,-4.032485 z M 65,70.622445 C 65,70.414789 64.325,69.684689 63.5,69 62.271492,67.980429 62,68.048765 62,69.377555 62,70.2699 62.675,71 63.5,71 64.325,71 65,70.8301 65,70.622445 Z M 59.075686,46.412682 C 60.409059,44.989658 62.9625,43.21262 64.75,42.463709 c 3.819203,-1.600135 4.101384,-3.339621 1,-6.164432 -6.575784,-5.989373 -15.64005,-5.57744 -20.189296,0.917518 -2.426468,3.464269 -1.821409,5.036042 3.243593,8.42594 5.844586,3.911658 7.230281,4.01553 10.271389,0.769947 z M 253.64255,75.982106 c -10.56229,-3.20335 -12.89587,-16.918085 -4.06108,-23.867529 8.28792,-6.519278 20.19428,-1.112783 21.1165,9.588671 0.83312,9.667673 -7.96704,17.035198 -17.05542,14.278858 z m 10.43437,-5.905183 C 270.30087,63.852972 266.12101,53 257.5,53 c -9.55901,0 -13.17162,13.862634 -4.79607,18.403886 4.41708,2.394958 8.07824,1.967786 11.37299,-1.326963 z M 283.5,75.588356 c -1.65,-0.733348 -4.125,-2.551988 -5.5,-4.041422 -2.07354,-2.246108 -2.5,-3.706627 -2.5,-8.561835 0,-5.081558 0.37827,-6.248604 2.86748,-8.846778 5.67715,-5.925671 12.65447,-6.515061 18.53633,-1.565804 8.11493,6.828263 5.33733,20.599841 -4.71809,23.39265 -4.59692,1.276759 -5.00511,1.259051 -8.68572,-0.376811 z m 9.35497,-4.01336 c 5.72793,-2.962023 6.8696,-11.004269 2.22195,-15.651919 C 288.85311,49.699263 279,54.036516 279,63 c 0,3.25776 0.63058,4.784425 2.92308,7.076923 3.25068,3.250683 6.6436,3.715638 10.93189,1.498073 z M 122.46601,74.772015 C 122.17173,74.00515 122.059,68.230229 122.21548,61.938857 122.44866,52.564103 122.77067,50.5 124,50.5 c 1.03704,0 1.65432,1.388889 2,4.5 l 0.5,4.5 5,0 5,0 0.5,-4.5 c 0.34568,-3.111111 0.96296,-4.5 2,-4.5 1.25333,0 1.5,2.055556 1.5,12.5 0,10.444444 -0.24667,12.5 -1.5,12.5 -1.09091,0 -1.63636,-1.5 -2,-5.5 l -0.5,-5.5 -5,0 -5,0 -0.5,5.422355 c -0.47992,5.204541 -2.39129,7.827498 -3.53399,4.84966 z m 31.22149,0.582152 C 153.30937,74.976042 153,72.416537 153,69.666379 c 0,-3.850814 -0.81809,-6.488612 -3.55873,-11.474603 -2.65733,-4.834409 -3.26864,-6.75515 -2.41347,-7.583046 0.84511,-0.818158 1.58121,-0.503128 2.80873,1.202057 0.91491,1.270933 2.6197,3.500809 3.78842,4.95528 l 2.12495,2.644493 2.17023,-4.254002 c 2.1333,-4.181619 4.4923,-6.077464 5.86015,-4.709609 0.38172,0.381715 -0.99244,3.924807 -3.05369,7.873539 -2.5938,4.968939 -3.82144,8.694944 -3.98715,12.101343 -0.22314,4.586696 -1.43655,6.547729 -3.05194,4.932336 z m 15.77851,-0.582152 C 169.17173,74.00515 169.059,68.230229 169.21548,61.938857 L 169.5,50.5 l 4.74103,-0.304425 c 3.96075,-0.254322 5.15396,0.108501 7.25,2.204546 4.58679,4.586788 2.22896,11.096538 -4.51509,12.465774 -3.30153,0.670304 -3.50103,0.950914 -3.97594,5.592365 -0.48539,4.743904 -2.44911,7.140908 -3.53399,4.313755 z m 8.59973,-13.807199 c 2.59533,-1.388976 2.50913,-5.58679 -0.14388,-7.006636 C 174.78307,52.27835 173,53.489715 173,57.301949 c 0,4.787436 1.2609,5.699154 5.06574,3.662867 z m 11.36836,13.724041 c -0.27673,-0.721128 -0.3751,-6.458628 -0.21862,-12.75 L 189.5,50.5 l 6.25,-0.297717 c 5.00385,-0.238358 6.25,-5.91e-4 6.25,1.192502 0,1.038298 -1.28885,1.583471 -4.25,1.797717 -3.98722,0.288485 -4.25,0.492988 -4.25,3.307498 0,2.814815 0.27778,3.030864 4.5,3.5 3.11111,0.345679 4.5,0.962963 4.5,2 0,1.037037 -1.38889,1.654321 -4.5,2 -4.38095,0.486772 -4.5,0.592593 -4.5,4 0,3.359592 0.16975,3.522656 4.23143,4.064761 4.69293,0.626357 5.79083,1.281191 4.80969,2.868708 -0.98054,1.586548 -12.48674,1.371811 -13.10702,-0.244612 z m 21.02432,0.06338 c -0.2901,-0.755988 -0.39942,-6.52201 -0.24294,-12.813382 L 210.5,50.5 l 4.23852,-0.306937 c 3.4349,-0.248742 4.71469,0.169236 6.75,2.204546 3.21201,3.21201 3.18716,6.645935 -0.0761,10.524154 l -2.58762,3.075214 3.08889,4.200241 c 2.981,4.053529 2.97027,6.462942 -0.0237,5.314065 C 221.09555,75.206427 219.33907,73.166675 217.9867,70.9785 214.80648,65.832783 213,65.819192 213,70.940983 c 0,3.985283 -1.57087,6.340895 -2.54158,3.811256 z M 218.8,60.8 c 3.01916,-3.019164 -0.46268,-8.910893 -4.37814,-7.408388 -1.44486,0.554443 -2.02644,6.670473 -0.75519,7.941721 1.06133,1.06133 3.8259,0.774102 5.13333,-0.533333 z m 12.6341,13.888857 c -0.27673,-0.721128 -0.3751,-6.458628 -0.21862,-12.75 C 231.44866,52.564103 231.77067,50.5 233,50.5 c 1.20589,0 1.59804,2.051341 2,10.462066 l 0.5,10.462067 3.30075,0.672013 c 3.86241,0.786366 4.6423,1.377963 3.74037,2.837323 -0.9699,1.569326 -10.49142,1.359632 -11.10702,-0.244612 z m 75.03191,0.08316 C 306.17173,74.00515 306.059,68.230229 306.21548,61.938857 L 306.5,50.5 l 4.33168,-0.311489 c 5.11708,-0.367967 8.6399,1.569952 9.56672,5.262696 0.90939,3.623314 -1.78454,8.377478 -5.16659,9.117829 -1.50249,0.328905 -3.26868,0.761464 -3.92484,0.961242 -0.65617,0.199778 -1.33117,2.489517 -1.5,5.088308 -0.29834,4.592189 -2.24427,7.01135 -3.34096,4.153429 z m 8.96256,-14.343444 c 2.0084,-2.0084 1.99271,-3.864436 -0.0499,-5.907091 -2.35105,-2.351056 -4.82335,-1.485549 -5.20319,1.821543 -0.62265,5.421148 1.93127,7.407421 5.25314,4.085548 z"
       id="path4280"
       inkscape:connector-curvature="0" />
    <path
       style="fill:#6d6d6d"
       d="M 49.529778,95.405643 C 44.339366,93.505518 40.496366,89.727214 38.285899,84.35105 37.113994,81.500816 35.881275,80.006208 34.70034,80.003748 30.096155,79.994159 24.096869,74.869424 21.547728,68.768471 19.59467,64.094146 19.59097,60.410768 21.533801,54.904199 c 1.9235,-5.451781 4.701444,-8.458295 10.580851,-11.451444 3.487217,-1.775308 4.756948,-3.060753 5.197075,-5.261392 1.273071,-6.365354 10.139076,-13.11876 17.28905,-13.169401 7.655681,-0.05422 15.61031,4.940332 18.587478,11.670714 1.289777,2.915755 2.858688,4.738048 4.631163,5.379103 5.340689,1.931579 7.568282,3.496996 10.267894,7.215649 3.74201,5.154534 4.500656,10.426289 2.407371,16.728579 -2.118417,6.377956 -5.260245,10.12359 -10.457464,12.46721 -3.164068,1.426795 -4.543109,2.872004 -6.100881,6.393606 -2.607406,5.894475 -4.542997,7.995415 -9.436338,10.242446 -4.751911,2.182086 -9.541581,2.27371 -14.970222,0.286374 z M 59.6849,89.936382 C 63.071973,88.656657 68,84.138529 68,82.312909 68,81.590809 68.980999,81 70.179999,81 c 1.864086,0 1.569363,-0.522681 -2.033779,-3.606836 -3.293018,-2.818701 -3.969073,-3.901687 -3.093909,-4.956195 1.404107,-1.691845 0.45571,-3.293321 -2.64945,-4.473901 C 61.081287,67.460606 60,66.565402 60,65.973724 c 0,-1.401352 6.833378,-4.251641 8.583211,-3.580166 0.742361,0.28487 2.757787,3.012857 4.478726,6.062194 C 74.782876,71.505088 76.509686,74 76.899292,74 77.288898,74 79.158441,72.400006 81.053833,70.444458 84.211636,67.186433 84.5,66.381937 84.5,60.830134 84.5,54.960436 84.367364,54.653647 80.25,50.999806 77.9125,48.925456 76,46.75346 76,46.173147 76,43.611516 73.993374,44.274653 72.003851,47.493769 70.321677,50.215584 69.17917,51 66.897002,51 c -2.165451,0 -3.239937,0.658555 -4.078956,2.5 -1.599632,3.510811 -4.384521,3.182368 -5.729457,-0.675718 -0.966101,-2.771359 -0.828102,-3.472655 1.083804,-5.507786 1.204976,-1.282638 3.909132,-3.090167 6.009236,-4.016731 4.762273,-2.101109 4.862827,-4.175537 0.392651,-8.100403 C 58.114602,29.52769 51.004437,30.341443 45.375031,37.396702 43.793764,39.378484 41.825,41.001172 41,41.002675 c -0.830994,0.0015 0.507017,1.771548 3,3.968649 3.750395,3.305277 4.250132,4.141659 3,5.020933 -1.274447,0.896377 -1.086486,1.395442 1.25,3.318945 3.651455,3.006046 3.467723,4.296824 -0.8127,5.709491 -4.272397,1.410018 -6.15711,0.144666 -8.924104,-5.99143 -2.374034,-5.264667 -4.046485,-5.663683 -7.569898,-1.806039 -6.189276,6.776389 -5.965341,13.916203 0.617758,19.69624 C 33.452475,72.580152 35,74.826088 35,75.910432 c 0,3.576609 1.629192,3.069433 4.858911,-1.512607 2.445759,-3.469826 3.631246,-4.377031 5.107428,-3.908509 1.365635,0.433436 2.406232,-0.128297 3.593034,-1.939587 2.28293,-3.484191 4.746566,-3.226854 6.209385,0.648598 1.064087,2.819088 0.965001,3.456171 -0.83565,5.372876 -1.123586,1.196003 -3.791678,2.963147 -5.929094,3.926987 -2.137416,0.96384 -4.133381,2.396551 -4.435477,3.183802 -0.652475,1.700321 3.688634,6.029765 7.931463,7.91015 3.70731,1.643048 4.643145,1.682408 8.1849,0.34424 z M 254.91357,75.970359 c -7.01655,-1.925843 -11.72975,-8.806215 -10.50491,-15.335169 0.86798,-4.626706 5.24654,-9.151996 10.32848,-10.674581 3.62721,-1.086738 4.56271,-1.001078 7.88257,0.721775 4.68057,2.428999 7.2586,5.792879 8.01585,10.459275 1.37816,8.492593 -7.67993,17.036017 -15.72199,14.8287 z m 9.0097,-5.559253 C 266.53894,68.210167 267,67.131931 267,63.215825 267,56.873695 263.39774,53 257.5,53 c -8.86804,0 -12.97921,10.674632 -6.57692,17.076923 3.83133,3.831335 8.69547,3.956372 13.00019,0.334183 z m 19.40469,4.626819 c -9.59061,-4.299491 -11.06909,-16.376794 -2.80098,-22.880488 6.29189,-4.949203 15.63656,-2.677517 19.40973,4.718497 2.55915,5.016363 2.5696,6.446729 0.0845,11.580186 -3.3409,6.901391 -10.06586,9.552895 -16.69328,6.581805 z m 11.74896,-4.961002 c 3.91205,-3.912046 4.04751,-9.58716 0.33419,-14.000198 C 293.27262,53.535283 292.08733,53 288.5982,53 282.59597,53 279,56.827361 279,63.215825 c 0,3.916106 0.46106,4.994342 3.07673,7.195281 4.30472,3.622189 9.16886,3.497152 13.00019,-0.334183 z M 190.2438,74.843804 c -1.86679,-1.866793 -1.71409,-22.208608 0.17851,-23.779324 1.68777,-1.400729 11.18339,-1.01941 10.84534,0.43552 -0.12779,0.55 -2.04029,1.138374 -4.25,1.307498 C 193.17928,53.101275 193,53.266041 193,56.5 c 0,3.267456 0.14759,3.395683 4.25,3.692502 2.97445,0.215209 4.25,0.757694 4.25,1.807498 0,1.049804 -1.27555,1.592289 -4.25,1.807498 C 193.04216,64.111945 193,64.153042 193,67.950509 193,72.126221 194.06683,73 199.16512,73 c 1.95427,0 2.85782,0.436141 2.58961,1.25 -0.564,1.711445 -9.9111,2.193625 -11.51093,0.593804 z m 28.24504,-3.726451 C 216.46679,68.302809 214.4046,66 213.90619,66 213.40779,66 213,68.025 213,70.5 c 0,3.373547 -0.38319,4.5 -1.53078,4.5 -1.30634,0 -1.48961,-1.796027 -1.25,-12.25 L 210.5,50.5 l 4.23852,-0.306937 c 3.4349,-0.248742 4.71469,0.169236 6.75,2.204546 3.17223,3.172233 3.16342,5.362615 -0.0406,10.083969 l -2.55206,3.760673 2.71426,3.916676 c 1.94284,2.803529 2.40744,4.223494 1.6347,4.996228 -0.77273,0.772735 -2.12442,-0.374838 -4.756,-4.037802 z M 218.8,60.8 c 1.83712,-1.83712 1.42786,-5.607686 -0.73426,-6.764816 C 214.13165,51.929725 213,52.703743 213,57.5 c 0,4.028986 0.24074,4.5 2.3,4.5 1.265,0 2.84,-0.54 3.5,-1.2 z m 13.32863,13.85499 C 231.3173,73.677391 231.02222,69.7046 231.2151,62.355483 231.44752,53.499454 231.77628,51.5 233,51.5 c 1.21366,0 1.55513,1.902243 1.7888,9.964966 0.30225,10.428732 0.76771,11.491654 5.04453,11.519721 3.99629,0.02623 1.80742,2.493184 -2.49752,2.81482 -2.5838,0.193045 -4.43474,-0.213784 -5.20718,-1.144517 z M 122.46353,73.765554 C 122.16789,72.995135 122.05515,67.670214 122.213,61.932396 122.44626,53.453376 122.78086,51.5 124,51.5 c 1.0498,0 1.59229,1.275555 1.8075,4.25 l 0.3075,4.25 5.385,0 5.385,0 0.3075,-4.25 c 0.21521,-2.974445 0.7577,-4.25 1.8075,-4.25 1.24638,0 1.5,1.944444 1.5,11.5 0,9.555556 -0.25362,11.5 -1.5,11.5 -1.10447,0 -1.5797,-1.384338 -1.80226,-5.25 L 136.89548,64 131.5,64 l -5.39548,0 -0.30226,5.171397 c -0.29213,4.998068 -2.18451,7.602016 -3.33873,4.594157 z m 31.22397,0.588613 C 153.30937,73.976042 153,71.422412 153,68.679433 c 0,-3.844121 -0.80494,-6.426603 -3.51184,-11.266996 -1.93152,-3.45387 -3.14753,-6.504923 -2.70226,-6.780117 1.22183,-0.755128 2.58231,0.477065 5.09845,4.61768 2.72053,4.476964 3.53023,4.617049 5.78008,1 5.24632,-8.434391 7.60773,-7.626392 3.07383,1.051764 -2.02455,3.875124 -3.42566,8.230469 -3.73826,11.620387 -0.46606,5.054063 -1.68749,7.057029 -3.3125,5.432016 z m 16,0 C 168.44786,73.114528 168.90424,52.495758 170.2,51.2 c 0.66,-0.66 2.84864,-1.2 4.86364,-1.2 4.22587,0 8.95064,3.915008 8.91412,7.386364 -0.0345,3.281096 -3.27422,6.722853 -7.04989,7.489562 -3.1686,0.643434 -3.46569,1.027855 -3.92787,5.082425 -0.47403,4.158487 -1.79579,5.912522 -3.3125,4.395816 z M 178.8,60.8 c 2.88111,-2.881106 0.67391,-7.8 -3.5,-7.8 -2.05926,0 -2.3,0.471014 -2.3,4.5 0,4.028986 0.24074,4.5 2.3,4.5 1.265,0 2.84,-0.54 3.5,-1.2 z M 306.6875,74.354167 C 305.44786,73.114528 305.90424,52.495758 307.2,51.2 c 1.98946,-1.989458 7.4474,-1.40736 10.36924,1.105896 4.83938,4.162663 2.72843,10.788654 -3.98791,12.51749 -2.73295,0.703484 -3.13786,1.286566 -3.58133,5.157233 -0.47425,4.139323 -1.79841,5.887636 -3.3125,4.373548 z M 315.8,60.8 c 1.83712,-1.83712 1.42786,-5.607686 -0.73426,-6.764816 C 311.13165,51.929725 310,52.703743 310,57.5 c 0,4.028986 0.24074,4.5 2.3,4.5 1.265,0 2.84,-0.54 3.5,-1.2 z"
       id="path4278"
       inkscape:connector-curvature="0" />
    <path
       style="fill:#4d4d4d"
       d="m 50.628538,93.922448 c -1.452649,-1.142654 -3.0929,-2.921599 -3.645002,-3.953212 -0.955696,-1.785733 -0.837074,-1.805987 2.474202,-0.422448 6.842768,2.859091 12.9566,1.314808 17.858586,-4.510871 C 69.92305,81.937999 74,80.910904 74,83.352117 c 0,2.268873 -4.352483,7.968805 -7.92168,10.374086 -4.476241,3.016539 -11.746952,3.108892 -15.449782,0.196245 z M 27.706984,75.910002 C 22.89877,71.946665 21,68.202486 21,62.684519 c 0,-4.58442 2.33131,-8.721096 6.030764,-10.700983 1.785733,-0.955696 1.805987,-0.837074 0.422448,2.474202 -2.759438,6.604264 -1.441899,12.427699 3.951774,17.466576 C 34.098536,74.440682 34.950938,79 32.727844,79 32.028158,79 29.768771,77.609501 27.706984,75.910002 Z M 43.025004,77.25 C 43.050596,75.458813 50.39077,67 51.919489,67 c 0.833504,0 2.040106,3.335722 2.066856,5.713949 C 54.003933,74.277555 47.078478,79 44.767865,79 43.741326,79 43.010485,78.266166 43.025004,77.25 Z M 250.91245,73.719985 c -4.24533,-2.860932 -5.87889,-6.041979 -5.89771,-11.48467 -0.0119,-3.445117 0.62175,-4.959216 3.29729,-7.878731 2.7858,-3.039839 4.13491,-3.693114 8.49125,-4.111704 4.97889,-0.478408 5.3343,-0.34259 9.18798,3.511084 3.60563,3.605632 4.00874,4.509799 4.00874,8.99153 0,10.564335 -10.62762,16.673633 -19.08755,10.972491 z m 11.66724,-1.605453 C 271.88102,66.442593 268.15141,52.5 257.33285,52.5 c -3.69408,0 -4.9396,0.504073 -6.91229,2.797464 -3.27327,3.805403 -3.92095,7.092599 -2.265,11.495742 0.94004,2.499561 2.52586,4.27623 4.86925,5.45524 4.39104,2.209231 5.74348,2.190277 9.55488,-0.133914 z m 19.78702,1.967406 C 277.84752,71.326266 276,68.163217 276,63.181786 c 0,-7.618839 5.14995,-13.197907 12.15429,-13.167044 4.5462,0.02003 7.84601,1.861964 10.56569,5.89771 4.37041,6.485242 1.78952,15.723241 -5.20976,18.647724 -4.61464,1.928119 -7.3927,1.808896 -11.14351,-0.478238 z m 12.28966,-2.592441 c 1.24351,-0.814777 2.81684,-3.336898 3.4963,-5.604713 1.08975,-3.637281 1.00622,-4.549925 -0.70865,-7.742689 -4.88923,-9.102801 -17.45133,-7.149402 -19.06445,2.964509 -1.5359,9.629766 8.07222,15.75874 16.2768,10.382893 z M 123,63 c 0,-7.333333 0.38889,-12 1,-12 0.55,0 1,1.71 1,3.8 0,4.855202 1.40987,6.2 6.5,6.2 5.09013,0 6.5,-1.344798 6.5,-6.2 0,-2.09 0.45,-3.8 1,-3.8 0.61111,0 1,4.666667 1,12 0,7.333333 -0.38889,12 -1,12 -0.55,0 -1,-2.16 -1,-4.8 0,-5.866898 -1.20349,-7.2 -6.5,-7.2 -5.29651,0 -6.5,1.333102 -6.5,7.2 0,2.64 -0.45,4.8 -1,4.8 -0.61111,0 -1,-4.666667 -1,-12 z m 31,7.083053 c 0,-3.696051 -0.86906,-6.55511 -3.5,-11.514363 C 146.71342,51.43108 146.56346,51 147.86711,51 c 0.47692,0 2.0583,1.8 3.51419,4 1.45589,2.2 3.23283,4 3.94875,4 0.71592,0 2.31332,-1.8 3.54979,-4 1.23647,-2.2 2.66934,-4 3.18414,-4 1.40484,0 1.23096,0.53351 -2.56398,7.866711 -2.53956,4.90735 -3.5,8.0489 -3.5,11.448283 C 156,72.891747 155.55,75 155,75 c -0.55,0 -1,-2.212626 -1,-4.916947 z M 170,63 l 0,-12 4.84501,0 C 180.51088,51 183,53.03701 183,57.673753 c 0,3.458873 -2.1915,5.745341 -6.48998,6.771222 -3.70712,0.884744 -4.47528,2.047751 -4.49471,6.805025 C 172.00689,73.3125 171.55,75 171,75 c -0.61111,0 -1,-4.666667 -1,-12 z m 7.43373,-1.151757 c 4.52149,-2.06013 4.46852,-6.66049 -0.10066,-8.74235 -1.93052,-0.879603 -2.89697,-0.882789 -3.94499,-0.013 -1.70406,1.414238 -1.8262,7.068992 -0.18808,8.707112 1.45419,1.454189 1.15548,1.450785 4.23373,0.04824 z M 190,63 l 0,-12 5.75,0.160037 c 4.02391,0.111996 4.70054,0.286617 2.25401,0.581705 C 193.69834,52.26107 192,53.585087 192,56.422445 192,59.598496 193.89825,61 198.2,61 c 2.09,0 3.8,0.45 3.8,1 0,0.55 -1.71,1 -3.8,1 -4.45592,0 -6.2,1.406516 -6.2,5 0,3.593484 1.74408,5 6.2,5 2.09,0 3.8,0.45 3.8,1 0,0.555556 -2.66667,1 -6,1 l -6,0 0,-12 z m 20.65373,10.932396 c -0.40025,-0.862182 -0.59858,-6.262182 -0.44073,-12 L 210.5,51.5 l 4.35221,-0.312492 c 3.04995,-0.218989 4.92005,0.201405 6.25,1.404988 2.53246,2.291852 2.47799,7.572455 -0.10221,9.907504 -2.63071,2.380761 -2.52285,4.125728 0.5,8.088887 2.82838,3.708191 3.02792,4.412032 1.25,4.408937 -0.6875,-0.0012 -2.6,-2.024553 -4.25,-4.496346 -3.76867,-5.64568 -5.81271,-5.487541 -6.55928,0.507466 -0.36696,2.946727 -0.80951,3.952008 -1.28699,2.923452 z M 219,61 c 3.11055,-3.110547 2.49997,-5.646164 -1.92083,-7.976908 -2.09181,-1.102846 -2.60149,-1.029258 -3.75,0.541426 -1.59467,2.180832 -1.7002,4.873681 -0.29399,7.501223 C 214.36326,63.547275 216.47601,63.52399 219,61 Z m 13,2 c 0,-7.333333 0.38889,-12 1,-12 0.59864,0 1,3.933333 1,9.8 0,10.68503 0.64572,12.2 5.2,12.2 1.54,0 2.8,0.45 2.8,1 0,0.55 -2.25,1 -5,1 l -5,0 0,-12 z m 75,0 0,-12 4.9433,0 c 3.97464,0 5.24833,0.435506 6.5,2.222506 C 321.4728,57.547732 319.12085,64 314.51472,64 311.01953,64 309,66.589603 309,71.071429 309,73.232143 308.55,75 308,75 c -0.61111,0 -1,-4.666667 -1,-12 z m 8.54545,-2.454545 c 3.39724,-3.397237 3.08265,-5.124851 -1.35937,-7.465145 -1.79283,-0.944556 -2.63733,-0.950695 -3.75,-0.02726 C 307.73231,55.296976 309.13351,63 312.24545,63 c 0.465,0 1.95,-1.104545 3.3,-2.454545 z M 65.65352,69.491496 c -4.976659,-4.7011 -4.879409,-5.353088 0.861855,-5.778129 2.441377,-0.180742 3.244255,0.434407 5.250767,4.023033 C 74.099939,71.910372 74.06257,74 71.654129,74 70.978819,74 68.278545,71.971173 65.65352,69.491496 Z M 84.219996,67.15267 c 2.785715,-6.593598 1.868855,-11.299113 -3.186669,-16.354637 -6.377661,-6.377661 -5.85003,-9.823087 0.96464,-6.299084 4.343724,2.246227 8.177905,7.881762 8.736964,12.841719 0.582777,5.170388 -1.383168,9.560604 -5.637944,12.590271 l -2.93319,2.088616 2.056199,-4.866885 z M 40.541858,55.276412 c -5.285468,-7.778266 -1.809486,-9.837874 5.292931,-3.136198 4.505999,4.251757 4.499684,5.169628 -0.04293,6.239224 -2.327507,0.548031 -3.065405,0.111894 -5.25,-3.103026 z m 17.949146,-3.317371 c -0.756379,-3.443768 0.412337,-5.340576 4.636503,-7.524978 6.477155,-3.349466 7.995448,-0.148355 2.372493,5.002072 -1.925,1.763231 -3.5,3.736422 -3.5,4.38487 0,2.534859 -2.878802,1.007293 -3.508996,-1.861964 z M 38,38.344391 c 0,-2.352423 4.669754,-8.172035 8.36583,-10.425792 5.871389,-3.580197 14.451876,-1.898146 18.008723,3.530289 C 66.255383,34.319397 65.650833,34.587005 62,32.5 56.599876,29.41301 49.496642,31.244197 44.683676,36.964083 41.906811,40.2642 38,41.071031 38,38.344391 Z"
       id="path4276"
       inkscape:connector-curvature="0" />
    <path
       style="fill:#414141"
       d="m 56.166707,94.865966 c -1.273164,-0.470974 -3.294013,-1.572565 -4.490775,-2.44798 -2.122206,-1.552364 -2.095687,-1.575212 1.074068,-0.92537 4.743057,0.972392 8.738565,-0.219164 13.870615,-4.136546 5.435773,-4.149219 7.074045,-4.023329 4.419335,0.339596 -3.281625,5.393237 -10.400114,8.825017 -14.873243,7.1703 z M 27.638282,74.98727 c -6.48628,-5.69503 -7.554054,-11.986335 -3.110962,-18.329737 1.402588,-2.002475 1.459952,-1.843814 0.87537,2.421175 -0.685835,5.00371 1.506008,10.722437 5.4909,14.32628 C 33.073883,75.376793 33.725376,78 32.034796,78 31.503934,78 29.525503,76.644271 27.638282,74.98727 Z M 253.5,74.588356 c -5.40601,-2.402718 -8,-6.168348 -8,-11.613378 0,-4.187011 0.47818,-5.357253 3.43608,-8.409033 4.29106,-4.42725 8.56993,-5.368723 13.58476,-2.989032 10.32549,4.899768 9.6203,18.541383 -1.19203,23.059061 -3.92223,1.638814 -4.03597,1.638122 -7.82881,-0.04762 z m 9.35497,-2.01336 c 6.84563,-3.54001 6.84563,-15.609982 0,-19.149992 C 254.87227,49.29699 247,54.316413 247,63.534259 c 0,2.835549 0.77001,4.43575 3.4,7.065741 3.78777,3.78777 7.73811,4.41418 12.45497,1.974996 z M 283.5,74.114548 c -9.93679,-4.574722 -9.82387,-18.57432 0.18355,-22.755688 4.98253,-2.081834 9.24418,-1.060376 13.38037,3.207085 2.9579,3.05178 3.43608,4.222022 3.43608,8.409033 0,5.529933 -2.64347,9.278674 -8.21788,11.653901 -4.01115,1.709127 -3.94398,1.713061 -8.78212,-0.514331 z m 11.38927,-2.674829 C 302.31657,65.190062 298.59273,52 289.40103,52 c -7.02377,0 -11.43915,4.351178 -11.36559,11.20034 0.0999,9.299543 9.90006,14.090591 16.85383,8.239379 z m -104.45765,2.242677 c -0.27809,-0.724682 -0.37647,-6.006905 -0.21862,-11.738273 0.26025,-9.449437 0.47044,-10.455813 2.25517,-10.797736 1.67568,-0.321032 1.777,-0.146725 0.68177,1.172949 -0.70752,0.852509 -1.1432,3.041912 -0.96817,4.86534 0.30011,3.126575 0.56019,3.332831 4.56823,3.622822 2.3375,0.169124 4.25,0.70575 4.25,1.192502 0,0.486752 -1.9125,1.023378 -4.25,1.192502 L 192.5,63.5 l 0,4.5 0,4.5 4.25,0.307498 C 202.7019,73.238133 202.07399,75 195.96862,75 c -3.2403,0 -5.21138,-0.469044 -5.537,-1.317604 z m 28.14569,-3.707676 c -2.01918,-2.810544 -4.2126,-4.93218 -4.87427,-4.714746 -0.66167,0.217434 -1.47295,2.38539 -1.80285,4.81768 -0.3809,2.808417 -0.65462,0.134201 -0.75,-7.327654 -0.13081,-10.23361 0.0592,-11.75 1.47225,-11.75 1.29143,0 1.38097,0.290962 0.4389,1.426095 -0.65096,0.784352 -1.04356,3.371852 -0.87245,5.75 0.2754,3.827604 0.61233,4.358832 2.93539,4.628196 5.73024,0.664434 7.9171,-6.114443 3.12572,-9.689204 -2.12956,-1.588831 -2.35518,-2.058874 -1,-2.083407 4.45007,-0.08056 7.52239,7.252481 4.1954,10.013631 -3.54695,2.943708 -3.73854,4.924189 -0.87596,9.054889 1.50022,2.164814 2.49174,4.171956 2.20338,4.460313 -0.28836,0.288358 -2.17634,-1.775249 -4.19551,-4.585793 z m 14.08936,4.358613 C 231.59856,73.265224 231.88264,52 232.96502,52 c 0.53872,0 1.0909,4.527926 1.25,10.25 L 234.5,72.5 l 3.25,0.313358 c 1.7875,0.172348 3.25,0.734848 3.25,1.25 0,1.059528 -7.30705,1.296254 -8.33333,0.269975 z M 123,63 c 0,-6.219293 0.40962,-11 0.9425,-11 0.51838,0 1.08088,1.9125 1.25,4.25 l 0.3075,4.25 6,0 6,0 0.3075,-4.25 c 0.16912,-2.3375 0.73162,-4.25 1.25,-4.25 0.53288,0 0.9425,4.780707 0.9425,11 0,11.205106 -1.63708,15.488233 -2.19774,5.75 L 137.5,63.5 l -6,0 -6,0 -0.30226,5.25 C 124.63708,78.488233 123,74.205106 123,63 Z m 30.97729,6.25 c -0.0166,-3.460577 -0.93802,-6.448283 -3.39453,-11.006168 -1.8545,-3.440893 -3.00535,-6.482659 -2.55744,-6.75948 0.4479,-0.276821 1.86294,1.380399 3.14453,3.68271 1.28158,2.302311 2.86843,4.361003 3.52633,4.574871 0.65789,0.213868 2.35104,-1.440576 3.76254,-3.676541 4.07508,-6.45534 4.86006,-4.714192 1.02236,2.267654 C 156.90824,63.013755 156,65.883734 156,69.333046 156,71.899871 155.55,74 155,74 c -0.55,0 -1.01022,-2.1375 -1.02271,-4.75 z m 16.23996,-6.488028 c 0.26007,-10.33644 0.4432,-11.266832 2.28275,-11.597065 1.61755,-0.29038 1.76097,-0.111005 0.75,0.938028 -0.6875,0.713386 -1.25,3.246188 -1.25,5.62845 0,5.072537 1.88854,6.400136 5.90682,4.152365 3.75949,-2.103004 3.94859,-5.788056 0.44105,-8.594879 -1.92436,-1.539919 -2.3369,-2.280547 -1.27218,-2.283904 C 179.25048,50.998111 183,55.197533 183,57.640137 183,60.168338 179.01495,64 176.38555,64 173.39842,64 172,65.97699 172,70.2 c 0,2.09 -0.46474,3.8 -1.03275,3.8 -0.66584,0 -0.9323,-3.992562 -0.75,-11.238028 z m 137,0 c 0.26007,-10.33644 0.4432,-11.266832 2.28275,-11.597065 1.61755,-0.29038 1.76097,-0.111005 0.75,0.938028 -1.8558,1.925678 -1.62132,9.817348 0.31377,10.559909 2.50619,0.961715 6.32309,-1.363893 7.06049,-4.301894 0.55771,-2.222098 0.15956,-3.123048 -2.22242,-5.029042 -2.11171,-1.68973 -2.4451,-2.323326 -1.22442,-2.326941 C 315.98311,50.99962 320,55.480427 320,57.5 320,59.787158 315.86974,64 313.62742,64 310.40222,64 309,65.878747 309,70.2 c 0,2.09 -0.46474,3.8 -1.03275,3.8 -0.66584,0 -0.9323,-3.992562 -0.75,-11.238028 z M 49.388659,70.429553 C 49.724897,69.553333 50,68.648229 50,68.418213 50,68.188196 50.45,68 51,68 c 1.628986,0 1.138206,2.732988 -0.611341,3.404352 -1.179371,0.452567 -1.447452,0.191242 -1,-0.974799 z M 64.25,67.337719 C 62.559641,66.655645 62.660926,65 64.393011,65 c 0.766156,0 1.652033,0.675 1.968615,1.5 0.588456,1.53349 0.09642,1.728687 -2.111626,0.837719 z M 86.442634,63.5 c 0.842077,-4.324501 -0.830763,-9.047308 -5.011964,-14.149913 -2.009914,-2.452836 -3.378375,-4.735716 -3.041023,-5.073067 1.140905,-1.140905 5.931771,2.200451 8.779239,6.123018 3.378454,4.654034 3.624369,8.927921 0.753759,13.099962 l -2.064177,3 0.584166,-3 z M 45.595648,55.388659 c -0.452567,-1.179371 -0.191242,-1.447452 0.974799,-1 C 47.446667,54.724897 48.351771,55 48.581787,55 48.811804,55 49,55.45 49,56 c 0,1.628986 -2.732988,1.138206 -3.404352,-0.611341 z M 59.704366,54.33067 c -0.716328,-1.159042 0.952983,-4.006654 1.832925,-3.126713 0.35532,0.355321 0.21706,1.412576 -0.307245,2.349456 -0.524304,0.936881 -1.210861,1.286647 -1.52568,0.777257 z M 39,37.034796 c 0,-2.061028 6.222427,-7.906634 10.043952,-9.435705 3.807148,-1.523319 4.227221,-1.501396 7.98727,0.416837 C 59.21405,29.129524 61,30.155894 61,30.29675 61,30.437606 59.262954,30.387198 57.139897,30.184732 52.89295,29.77972 46.802875,32.346547 43.595012,35.89359 41.623207,38.073883 39,38.725376 39,37.034796 Z"
       id="path4274"
       inkscape:connector-curvature="0" />
    <path
       style="fill:#353535"
       d="m 255.5,74.9319 c -1.62866,-0.644402 -1.39657,-0.804379 1.25,-0.861615 3.37975,-0.07309 4.14515,0.38016 2,1.184341 -0.6875,0.257731 -2.15,0.112505 -3.25,-0.322726 z m 31,-0.0058 c -1.61491,-0.634275 -1.36467,-0.799057 1.29966,-0.855809 C 295.02941,73.916286 299,69.59335 299,61.876024 299,58.75529 298.34056,57.186709 296.07692,54.923077 294.46923,53.315385 293.49079,52 293.90261,52 c 1.41425,0 5.058,4.588571 6.16467,7.763146 2.06526,5.924405 -1.82827,12.720535 -8.56728,14.95414 -1.65,0.546882 -3.9,0.640846 -5,0.208808 z m -96.06838,-1.243698 c -0.8812,-2.29636 0.0194,-22.209219 0.98067,-21.682396 0.50176,0.275 0.95176,2.3 1,4.5 0.0872,3.975067 0.1142,4.001917 4.33771,4.307498 2.3375,0.169124 4.25,0.70575 4.25,1.192502 0,0.486752 -1.9125,1.023378 -4.25,1.192502 L 192.5,63.5 l -0.30479,4.75 c -0.18333,2.857132 0.11554,4.75 0.75,4.75 0.58013,0 1.05479,0.45 1.05479,1 0,1.479678 -2.9805,1.214399 -3.56838,-0.317604 z m 42.23505,0.650937 C 231.56823,73.234899 231.88517,52 233,52 c 0.60317,0 1,4.166667 1,10.5 0,6.333333 0.39683,10.5 1,10.5 0.55,0 1,0.45 1,1 0,1.124722 -2.31086,1.355808 -3.33333,0.333333 z M 123,63 c 0,-6.219293 0.40962,-11 0.9425,-11 0.51838,0 1.08088,1.9125 1.25,4.25 l 0.3075,4.25 6,0 6,0 0.3075,-4.25 c 0.16912,-2.3375 0.73162,-4.25 1.25,-4.25 0.53288,0 0.9425,4.780707 0.9425,11 0,11.205106 -1.63708,15.488233 -2.19774,5.75 L 137.5,63.5 l -6,0 -6,0 -0.30226,5.25 C 124.63708,78.488233 123,74.205106 123,63 Z m 30.98188,5.75 c -0.0135,-3.927777 -0.76972,-6.613584 -3.00243,-10.664228 -1.64138,-2.977826 -2.80365,-5.594907 -2.58282,-5.815736 0.22083,-0.22083 1.42979,1.428073 2.68658,3.664228 2.95852,5.26398 5.26946,5.254938 7.96623,-0.03117 1.14954,-2.253298 2.33199,-3.854997 2.62766,-3.559331 0.29566,0.295666 -0.86073,2.981551 -2.56976,5.968632 C 156.74086,62.448557 156,64.966158 156,68.871727 156,71.692277 155.55,74 155,74 c -0.55,0 -1.00815,-2.3625 -1.01812,-5.25 z m 16.23537,-6 c 0.16555,-6.586756 0.67066,-11.042745 1.21857,-10.75 0.51471,0.275 0.81676,2.436184 0.67124,4.802631 -0.14552,2.366446 0.24271,4.913884 0.86273,5.660972 0.77586,0.934854 0.80042,1.560381 0.0788,2.006386 C 172.47185,64.826414 172,67.116476 172,69.559017 172,72.001558 171.53526,74 170.96725,74 c -0.66589,0 -0.93231,-3.9963 -0.75,-11.25 z m 48.38504,6.659872 c -2.36397,-3.741724 -3.331,-4.503725 -5.25,-4.136884 -1.9745,0.37745 -2.35229,0.03831 -2.35229,-2.11166 0,-1.992144 0.26667,-2.294661 1.2,-1.361328 0.66,0.66 2.37,1.2 3.8,1.2 1.43,0 3.14,-0.54 3.8,-1.2 1.84547,-1.845474 1.4867,-7.533633 -0.55,-8.719901 -0.9625,-0.560605 -1.21302,-1.032966 -0.5567,-1.04969 1.35939,-0.03464 4.3067,3.808255 4.3067,5.615372 0,0.660423 -1.125,2.537755 -2.5,4.17185 -3.12811,3.717543 -3.11741,4.506353 0.11869,8.749091 1.44028,1.888303 2.22778,3.432473 1.75,3.43149 -0.47778,-9.84e-4 -2.17266,-2.065737 -3.7664,-4.58834 z M 249.24093,71.75 C 246.30491,68.615761 244.80361,64.170664 245.54342,60.802321 246.18363,57.887446 250.51013,52 252.01197,52 c 0.4588,0 -0.4812,1.315385 -2.08889,2.923077 C 247.44533,57.400822 247,58.634675 247,63.021867 c 0,4.500531 0.40515,5.554182 3.10576,8.076923 1.70816,1.595666 2.6866,2.90121 2.17431,2.90121 -0.51229,0 -1.87991,-1.0125 -3.03914,-2.25 z m 15.83599,-0.673077 C 267.55147,68.602373 268,67.363023 268,63 c 0,-4.363023 -0.44853,-5.602373 -2.92308,-8.076923 -2.31421,-2.314217 -3.82435,-2.929411 -7.25,-2.953486 -3.4739,-0.02441 -3.97575,-0.234807 -2.5456,-1.067216 4.01232,-2.335352 12.79079,3.420768 14.25576,9.347625 0.37386,1.5125 0.40608,3.840318 0.0716,5.172928 C 268.95207,68.03914 264.35086,74 262.98803,74 c -0.4588,0 0.4812,-1.315385 2.08889,-2.923077 z M 307.21725,62.75 c 0.16555,-6.586756 0.67066,-11.042745 1.21857,-10.75 0.51471,0.275 0.81676,2.436184 0.67124,4.802631 -0.14552,2.366446 0.24271,4.913884 0.86273,5.660972 0.77586,0.934854 0.80042,1.560381 0.0788,2.006386 C 309.47185,64.826414 309,67.116476 309,69.559017 309,72.001558 308.53526,74 307.96725,74 c -0.66589,0 -0.93231,-3.9963 -0.75,-11.25 z m -28.29294,7.669436 c -3.6728,-3.909518 -3.43853,-11.229488 0.49064,-15.330658 3.58198,-3.738787 8.771,-5.660569 11.30373,-4.186403 1.43015,0.832409 0.9283,1.042802 -2.5456,1.067216 -3.42565,0.02407 -4.93579,0.639269 -7.25,2.953486 C 278.48093,57.365221 278,58.65927 278,62.788218 c 0,3.485558 0.61082,5.7186 2.07258,7.576923 2.65063,3.369733 1.99553,3.400709 -1.14827,0.0543 z M 179.25,61.919901 C 180.37377,61.265366 181,59.683721 181,57.5 c 0,-2.150026 -0.64357,-3.807993 -1.75,-4.50835 -1.18175,-0.748038 -1.26293,-0.981673 -0.25,-0.719514 0.825,0.213519 2.14823,1.537783 2.94051,2.942809 1.27892,2.268019 1.24829,2.847968 -0.27305,5.169824 -0.94246,1.438377 -2.26569,2.601547 -2.94051,2.584822 -0.67482,-0.01672 -0.43945,-0.489085 0.52305,-1.04969 z m 137.17857,-0.49133 C 317.29286,60.564286 318,58.796429 318,57.5 318,56.203571 317.29286,54.435714 316.42857,53.571429 315.56429,52.707143 315.32345,52 315.89339,52 317.3187,52 319,55.373979 319,58.234259 319,60.607737 317.35784,63 315.72857,63 c -0.47928,0 -0.16428,-0.707143 0.7,-1.571429 z M 211,53 c 0,-0.55 0.47656,-1 1.05902,-1 0.58246,0 0.7809,0.45 0.44098,1 -0.33992,0.55 -0.81648,1 -1.05902,1 C 211.19844,54 211,53.55 211,53 Z"
       id="path4272"
       inkscape:connector-curvature="0" />
  </g>
</svg>
