<?xml version="1.0" encoding="UTF-8" standalone="no"?>
<!-- Created with Inkscape (http://www.inkscape.org/) -->

<svg
   xmlns:dc="http://purl.org/dc/elements/1.1/"
   xmlns:cc="http://creativecommons.org/ns#"
   xmlns:rdf="http://www.w3.org/1999/02/22-rdf-syntax-ns#"
   xmlns:svg="http://www.w3.org/2000/svg"
   xmlns="http://www.w3.org/2000/svg"
   xmlns:xlink="http://www.w3.org/1999/xlink"
   xmlns:sodipodi="http://sodipodi.sourceforge.net/DTD/sodipodi-0.dtd"
   xmlns:inkscape="http://www.inkscape.org/namespaces/inkscape"
   id="svg4358"
   version="1.1"
   inkscape:version="0.91 r13725"
   width="473"
   height="123"
   viewBox="0 0 473 123"
   sodipodi:docname="MacOS.bmp.svg">
  <metadata
     id="metadata4364">
    <rdf:RDF>
      <cc:Work
         rdf:about="">
        <dc:format>image/svg+xml</dc:format>
        <dc:type
           rdf:resource="http://purl.org/dc/dcmitype/StillImage" />
        <dc:title></dc:title>
      </cc:Work>
    </rdf:RDF>
  </metadata>
  <defs
     id="defs4362" />
  <sodipodi:namedview
     pagecolor="#ffffff"
     bordercolor="#666666"
     borderopacity="1"
     objecttolerance="10"
     gridtolerance="10"
     guidetolerance="10"
     inkscape:pageopacity="0"
     inkscape:pageshadow="2"
     inkscape:window-width="640"
     inkscape:window-height="480"
     id="namedview4360"
     showgrid="false"
     inkscape:zoom="0.55391121"
     inkscape:cx="236.5"
     inkscape:cy="61.5"
     inkscape:window-x="935"
     inkscape:window-y="28"
     inkscape:window-maximized="0"
     inkscape:current-layer="svg4358" />
  <image
     width="473"
     height="123"
     preserveAspectRatio="none"
     style="image-rendering:optimizeQuality"
     xlink:href="file:///media/havoc/USB%20DISK/pics/_legend/MacOS.bmp"
     id="image4366"
     x="0"
     y="0"
     sodipodi:absref="/media/havoc/USB DISK/pics/_legend/MacOS.bmp" />
  <g
     id="g4368">
    <path
       style="fill:#fdfdfd"
       d="M 0,61.5 0,0 236.5,0 473,0 473,61.5 473,123 236.5,123 0,123 0,61.5 Z"
       id="path4384"
       inkscape:connector-curvature="0" />
    <path
       style="fill:#e7e7e7"
       d="m 177.01993,85.248446 c -7.81438,-3.926084 -10.29531,-13.007151 -5.30326,-19.411785 4.25336,-5.456907 7.16092,-7.161965 13.04512,-7.649928 6.03901,-0.500802 7.50536,-2.129065 4.7045,-5.223978 -2.02228,-2.234597 -6.24452,-2.534007 -11.07946,-0.785673 -2.59602,0.938736 -3.582,0.905832 -4.86925,-0.162494 -2.74563,-2.278668 -1.39452,-5.32451 3.44431,-7.764588 5.5244,-2.785794 10.91165,-2.865324 16.06332,-0.237137 6.75938,3.448378 7.40061,5.316112 8.04761,23.440586 0.33898,9.495769 0.18693,16.556846 -0.37244,17.296551 -1.26713,1.675617 -6.17209,1.59148 -7.60111,-0.130386 -0.96524,-1.163047 -1.72633,-1.084323 -4.83389,0.5 -4.57446,2.332194 -6.80897,2.357793 -11.24545,0.128832 z m 12.52552,-9.702991 C 191.22343,73.867479 192,71.97525 192,69.564585 l 0,-3.526324 -4.75,0.619019 c -2.6125,0.34046 -5.3125,1.061951 -6,1.603314 -1.30246,1.025603 -1.74515,7.910922 -0.58333,9.072739 1.54949,1.549492 6.54792,0.542981 8.87878,-1.787878 z M 221.4243,86.09507 C 211.12296,83.5122 204.9831,75.521251 205.02336,64.749478 c 0.0346,-9.25074 3.54989,-15.214851 11.47664,-19.471362 6.39659,-3.434847 11.77811,-4.122934 17.2706,-2.20824 3.77468,1.315859 4.6425,3.314557 2.94371,6.779717 -0.87282,1.780353 -1.94195,2.541648 -3.25684,2.319098 -1.07661,-0.18222 -3.36053,-0.562013 -5.07538,-0.843985 -3.76189,-0.618566 -8.71166,1.722456 -10.98824,5.19695 -1.97769,3.018345 -2.23573,11.031658 -0.49087,15.244116 1.77302,4.280455 7.58023,6.585104 13.33494,5.292106 4.57785,-1.028576 6.19567,-0.331822 7.0798,3.049094 C 237.95037,82.526206 234.88939,86 232.125,86 c -1.03125,0 -3.16875,0.194905 -4.75,0.433122 -1.58125,0.238218 -4.25906,0.08609 -5.9507,-0.338052 z M 258.5,86.12248 c -3.73877,-0.964167 -10.24729,-5.069399 -13.34251,-8.415748 -3.09726,-3.348559 -7.16078,-14.724927 -7.14459,-20.002217 0.007,-2.312481 0.92018,-7.099126 2.02906,-10.636988 4.81546,-15.363488 17.81738,-22.946297 31.24989,-18.225148 7.36114,2.587231 10.73192,5.408458 14.31028,11.977193 2.68669,4.931906 2.89719,6.0979 2.88859,16 -0.0102,11.706397 -1.04946,14.751886 -7.42503,21.758162 -5.6674,6.228057 -15.24896,9.431611 -22.56569,7.544746 z m 12.43821,-10.945812 c 4.04279,-2.984972 5.98802,-6.372211 7.22384,-12.578917 3.17305,-15.936038 -5.90995,-28.896895 -17.97437,-25.648283 -7.60453,2.047687 -11.19441,8.555312 -11.17123,20.250876 0.0207,10.462725 2.29953,15.178447 8.98767,18.599049 5.0001,2.557267 8.88019,2.370456 12.93409,-0.622725 z M 301,86.362703 c -1.375,-0.240754 -4.21015,-1.174411 -6.30034,-2.074792 -3.3249,-1.432256 -3.76276,-2.009189 -3.5,-4.611636 0.41486,-4.108838 2.82066,-5.43231 7.077,-3.893195 5.32688,1.926223 11.98932,1.549419 14.53478,-0.822035 3.67986,-3.428309 2.30077,-11.207484 -2.29673,-12.955451 -10.38264,-3.947474 -14.39891,-6.898121 -17.4021,-12.784864 -2.68789,-5.268691 -2.65459,-6.217678 0.43192,-12.308597 2.05885,-4.062944 3.44266,-5.422579 7.25,-7.123318 C 309.87368,25.733151 322,27.79855 322,33.400608 c 0,3.775668 -2.23224,4.925109 -7.41713,3.81928 -4.75678,-1.014523 -9.25928,-0.602626 -11.33287,1.036752 -1.88898,1.493425 -1.5531,7.789186 0.5,9.372115 0.9625,0.742082 5.07993,3.041691 9.14985,5.110243 9.02844,4.58874 12.42027,8.961206 12.52857,16.150802 C 325.59305,79.819203 313.40748,88.535174 301,86.362703 Z M 110.33708,85.229489 c -1.32952,-0.845885 -2.2276,-38.979575 -0.96607,-41.020776 1.05192,-1.702049 6.13792,-1.505347 7.63222,0.295176 1.10128,1.326963 1.62957,1.26814 4.49048,-0.5 4.44898,-2.749622 8.3051,-2.513088 13.55536,0.831487 l 4.45093,2.835376 3.25638,-2.458933 c 1.80323,-1.361642 5.15008,-2.667132 7.5,-2.925491 3.56943,-0.392436 4.91136,0.01996 8.44663,2.595793 C 164.49866,49.104874 166,54.474784 166,70.981501 166,84.545058 165.51562,86 161,86 c -4.5664,0 -5,-1.393164 -5,-16.065141 0,-12.31046 -0.20546,-13.926346 -2.07258,-16.3 -2.20395,-2.801873 -5.45367,-3.355684 -7.93962,-1.353056 C 142.88672,54.77998 142,59.036521 142,71.424608 c 0,13.7587 -0.50699,14.938611 -6.18468,14.393623 L 132.5,85.5 131.98149,69.779513 c -0.46694,-14.156903 -0.71559,-15.869452 -2.5,-17.218197 -2.82667,-2.136535 -4.8124,-1.910746 -7.83547,0.890935 -2.61592,2.424352 -2.64602,2.609794 -2.64602,16.3 0,9.437138 -0.38221,14.229958 -1.2,15.047749 -1.33016,1.330156 -5.656,1.579108 -7.46292,0.429489 z"
       id="path4382"
       inkscape:connector-curvature="0" />
    <path
       style="fill:#d1d1d1"
       d="m 176.4572,84.195514 c -8.97118,-5.64341 -8.4921,-16.521662 1.0145,-23.03569 C 179.20533,59.971921 181.77716,59 183.18688,59 c 8.50088,0 10.98594,-2.610114 6.49867,-6.825686 -2.71653,-2.552042 -7.49764,-2.839966 -11.63462,-0.70065 -2.46437,1.274372 -3.00976,1.280869 -4.03292,0.04804 -3.28076,-3.953077 2.92395,-8.517511 11.58195,-8.520149 4.05764,-0.0012 5.92917,0.599117 9.15715,2.937458 4.90417,3.552562 5.03903,4.137039 5.43619,23.560988 l 0.3067,15 -3.08517,0.301065 c -1.89575,0.184995 -3.58954,-0.306646 -4.39339,-1.275228 -1.189,-1.432662 -1.47368,-1.426539 -3.12424,0.0672 -2.83255,2.563417 -9.82449,2.876847 -13.44,0.602479 z m 11.07074,-6.390199 C 190.53573,76.434876 193,72.26671 193,68.54966 193,66.172568 192.67665,66 188.22251,66 181.67031,66 179,68.028828 179,73.007014 c 0,5.462059 3.16397,7.242289 8.52794,4.798301 z M 220.5,85.121581 c -5.66689,-1.924074 -9.36337,-4.697445 -11.95454,-8.969154 -2.32993,-3.841051 -2.82362,-5.792657 -2.83084,-11.190504 -0.0114,-8.536324 3.01026,-14.261893 9.72183,-18.421268 6.32968,-3.922708 15.81537,-4.776834 19.5415,-1.75959 2.20979,1.789378 2.32826,2.251455 1.20776,4.710686 -1.00321,2.201815 -1.67003,2.589351 -3.46404,2.013205 -5.16688,-1.659346 -8.28884,-1.547707 -11.42312,0.408485 -4.79479,2.992562 -6.5986,7.261609 -6.08258,14.395546 0.38052,5.260668 0.83785,6.349908 3.76367,8.964126 3.13326,2.79957 3.70779,2.945528 9.70079,2.464467 5.60654,-0.450039 6.49636,-0.275756 7.42193,1.453678 0.5784,1.080763 0.81687,2.57684 0.52992,3.324615 -1.01194,2.637091 -11.19537,4.281932 -16.13228,2.605708 z m 33.94439,-1.431819 c -16.62885,-7.952028 -20.62042,-32.620798 -7.70447,-47.615299 6.31575,-7.332133 15.37223,-9.681384 24.97513,-6.478551 6.03684,2.013453 10.86192,6.493579 13.89764,12.904088 3.18086,6.716981 3.36988,20.737853 0.36875,27.351596 -6.14034,13.531785 -19.71863,19.489812 -31.53705,13.838166 z M 271,75.962099 c 4.42476,-3.090689 5.90194,-5.417783 7.56857,-11.92331 4.24077,-16.553325 -5.48563,-31.345183 -18.31857,-27.858793 -4.82361,1.310455 -6.90977,3.222809 -9.85809,9.03676 -3.46582,6.834468 -3.40176,17.724516 0.14156,24.064213 4.93438,8.828564 13.42438,11.600056 20.46653,6.68113 z m 26.60302,8.621005 c -5.62843,-2.092056 -7.09074,-3.803273 -5.6117,-6.566885 0.97455,-1.820972 1.75136,-2.106595 4.34762,-1.598576 8.76185,1.714457 12.40034,1.76854 15.37829,0.228585 3.6666,-1.896073 4.80201,-5.542878 3.21907,-10.339244 -0.98088,-2.972097 -2.21505,-3.998777 -8.29432,-6.899864 -8.66461,-4.134834 -9.60842,-4.872663 -12.42622,-9.71428 -2.79818,-4.807889 -2.77807,-8.140508 0.0796,-13.19284 3.11656,-5.510061 8.29103,-7.917098 16.98332,-7.900231 5.51249,0.0107 7.16567,0.400132 8.85039,2.084858 1.71384,1.713835 1.87522,2.438843 0.93424,4.197074 -1.04817,1.958534 -1.68104,2.074851 -8.06217,1.481787 C 304.31315,35.556025 301,37.213706 301,42.368065 c 0,4.186084 1.94256,6.019795 11.79273,11.131935 6.00695,3.117548 8.21288,4.882452 9.99912,8 4.44339,7.755122 1.2658,17.366359 -7.16945,21.685417 -5.11451,2.618755 -13.07337,3.236089 -18.01938,1.397687 z m -186.96648,-0.36217 c -0.30313,-0.490481 -0.68286,-9.628343 -0.84384,-20.306359 L 109.5,44.5 l 3.08517,-0.301065 c 1.83406,-0.178976 3.58726,0.303903 4.32327,1.190745 1.08875,1.311863 1.62128,1.258162 4.41483,-0.445197 4.63492,-2.826137 9.57329,-2.50158 14.17803,0.931802 l 3.85759,2.876285 3.97059,-2.876285 C 148.28686,42.285176 153.3429,42.083602 158.10212,45.28733 163.82927,49.142638 164.5,51.628586 164.5,69 l 0,15.5 -3.5,0 -3.5,0 L 157,69.851839 C 156.57341,57.35436 156.2237,54.898828 154.61812,53.127368 151.92625,50.15739 149.26346,49.597354 146.48622,51.417072 142.26343,54.183953 141.52522,56.818946 141,71 l -0.5,13.5 -3.7163,0.308356 c -4.64688,0.38557 -4.71522,0.145521 -5.03998,-17.702469 -0.23938,-13.155364 -0.29035,-13.428888 -2.85954,-15.345069 -2.44783,-1.825669 -2.81301,-1.84898 -5.68658,-0.362998 -1.68893,0.873376 -3.43681,2.153657 -3.88419,2.845068 C 118.86604,54.9343 118.275,62.025 118,70 l -0.5,14.5 -3.15615,0.306359 c -1.73588,0.168497 -3.40417,-0.09494 -3.70731,-0.585425 z"
       id="path4380"
       inkscape:connector-curvature="0" />
    <path
       style="fill:#b0b0b0"
       d="m 179.46237,84.840007 c -7.56595,-1.960534 -11.45108,-10.886143 -7.51246,-17.258956 3.34268,-5.408581 7.4479,-7.826465 14.42434,-8.495637 6.96605,-0.668174 7.98449,-2.08834 4.59121,-6.402196 C 189.23519,50.48354 188.04513,50 184.36168,50 c -2.47124,0 -5.41608,0.493929 -6.54409,1.097621 -1.60756,0.860344 -2.39714,0.751399 -3.65251,-0.503968 -1.46878,-1.468786 -1.43838,-1.762894 0.36667,-3.546892 2.44935,-2.420794 10.26686,-4.572816 13.5273,-3.723826 4.45589,1.160275 9.04353,4.678317 10.43102,7.999067 1.47269,3.524628 2.38279,30.456664 1.09939,32.533255 -1.01112,1.636017 -3.63539,1.413149 -5.7351,-0.487056 -1.60621,-1.453608 -2.05161,-1.470473 -4.07874,-0.154441 -3.08845,2.005054 -6.67119,2.569999 -10.31325,1.626247 z m 8.88031,-6.950279 C 191.31869,76.533766 193,73.085456 193,68.337724 l 0,-3.568171 -5.75,0.69569 c -7.0331,0.850931 -8.52273,2.172912 -8.52273,7.563541 0,5.750386 3.6327,7.586848 9.61541,4.860944 z m 71.15732,7.1726 c -8.7148,-2.114044 -15.03954,-8.278545 -18.25,-17.787613 -2.7773,-8.226116 -2.80658,-11.26204 -0.1903,-19.732581 4.79769,-15.533125 18.82325,-22.754741 32.40376,-16.684369 6.36642,2.84573 8.16087,4.52181 11.39386,10.642235 2.34545,4.440215 2.64114,6.119571 2.64114,15 0,8.893431 -0.29327,10.553285 -2.65024,15 -3.0823,5.81511 -5.79815,8.507926 -11.34822,11.251946 -4.91209,2.428597 -10.03058,3.273287 -14,2.310382 z m 12.35164,-8.80088 c 4.36063,-3.255682 6.22803,-6.679102 7.41125,-13.586717 2.69846,-15.753469 -3.95218,-27.236304 -15.70985,-27.124283 -6.55582,0.06246 -9.5144,1.897151 -12.93847,8.023492 C 248.35089,47.6241 248,49.425943 248,57 c 0,7.506258 0.3602,9.392566 2.53744,13.288068 4.53281,8.110071 14.65338,10.946398 21.3142,5.97338 z M 111.2,83.8 c -0.84792,-0.847921 -1.2,-6.696136 -1.2,-19.932612 0,-18.070356 0.0732,-18.755858 2.07166,-19.390133 1.32739,-0.421296 2.77159,-0.0241 4.01988,1.105584 1.86705,1.689658 2.11734,1.668043 6.0084,-0.518853 4.80748,-2.701956 8.38759,-2.319387 13.29046,1.420216 4.04619,3.086181 3.99543,3.086028 8.00983,0.0241 6.15188,-4.692264 11.92146,-4.141949 17.26412,1.646688 2.99355,3.243439 4.51376,12.317481 4.14457,24.738697 -0.2555,8.596478 -0.61152,10.584095 -2.05892,11.494885 -1.27339,0.80129 -2.22661,0.801463 -3.5,6.35e-4 C 157.75276,83.447599 157.42778,81.160298 157,68.55288 156.5255,54.568641 156.3796,53.719783 154.13922,51.908562 150.0074,48.568229 145.16455,49.847328 142.51035,54.979988 141.40092,57.12538 141,61.199489 141,70.327895 c 0,13.546056 -0.72289,15.460439 -5.39522,14.28776 -2.40605,-0.60388 -2.42332,-0.700861 -2.76298,-15.508589 -0.29718,-12.955873 -0.59046,-15.175427 -2.24679,-17.003988 -2.54092,-2.805136 -6.70305,-2.65906 -9.94899,0.349173 C 118.0301,54.876603 118,55.062045 118,68.752251 118,82.875908 117.47707,85 114,85 c -0.88,0 -2.14,-0.54 -2.8,-1.2 z m 104.75528,-1.261403 c -9.27545,-4.833489 -12.66052,-17.26655 -7.48291,-27.484072 2.53748,-5.007484 5.19863,-7.336502 11.81156,-10.337404 4.39047,-1.992366 8.11949,-2.169652 12.62197,-0.600078 2.65426,0.925278 3.15197,1.569048 2.89923,3.75 -0.29659,2.559293 -0.473,2.623924 -6.30513,2.310105 -4.965,-0.26716 -6.58825,0.07784 -9.41013,2 -4.25631,2.89924 -6.44941,8.624441 -5.65316,14.757891 1.10772,8.532728 6.21008,12.3546 15.8093,11.841787 4.44237,-0.237322 5.23818,-8.49e-4 5.57666,1.657077 0.61626,3.018613 -2.56572,4.571009 -9.2638,4.519536 -4.35898,-0.0335 -7.33395,-0.711014 -10.60359,-2.414842 z M 295.25,83.01096 c -3.5343,-2.154902 -4.09153,-4.067666 -1.7509,-6.01021 1.19573,-0.992373 2.10994,-0.991118 4.51769,0.0062 3.4727,1.438441 9.21936,1.72239 13.29911,0.657125 1.94319,-0.507388 3.27448,-1.832812 4.29558,-4.276645 1.34306,-3.214399 1.31389,-3.880524 -0.3159,-7.214409 -1.34983,-2.7612 -3.28507,-4.423345 -7.79558,-6.695478 -9.40708,-4.738743 -11.14849,-6.23294 -13.42113,-11.515848 l -2.1263,-4.942712 2.27372,-4.759493 C 297.16282,32.112539 302.83522,29 311.10111,29 c 6.89244,0 11.17897,2.63258 9.2605,5.68735 -0.62612,0.996958 -1.97612,1.666686 -3,1.488286 -4.62437,-0.805744 -12.0617,-0.455224 -14.11161,0.665077 -1.79266,0.979711 -2.25,2.101756 -2.25,5.520157 0,5.190515 1.89942,7.194217 10.47288,11.047844 9.53329,4.285061 12.69379,8.330762 12.69379,16.249128 0,5.419521 -3.44061,10.420938 -9.18476,13.351389 -5.34457,2.726592 -15.26139,2.727461 -19.73191,0.0017 z"
       id="path4378"
       inkscape:connector-curvature="0" />
    <path
       style="fill:#8f8f8f"
       d="M 178.41844,84.076471 C 174.51746,82.413419 171,77.14509 171,72.965381 c 0,-3.121594 0.73836,-4.657349 3.77279,-7.847197 3.83197,-4.028238 5.03479,-4.530245 13.47721,-5.624861 4.11395,-0.533401 4.75,-0.924367 4.75,-2.919737 0,-1.267128 -0.96346,-3.528706 -2.14102,-5.02573 -2.24301,-2.851531 -2.24521,-2.851748 -13.82777,-1.364796 -3.98582,0.511694 -3.67033,-2.507861 0.46823,-4.481401 7.66241,-3.653949 18.45101,-0.629538 20.40746,5.720903 0.52145,1.692591 1.12035,9.714938 1.33088,17.827438 l 0.38278,14.75 -2.45004,0 c -1.34752,0 -3.0215,-0.781526 -3.71996,-1.736725 -1.1928,-1.631247 -1.38328,-1.634139 -3.13637,-0.04762 -2.24674,2.033277 -9.0097,3.091183 -11.89575,1.860812 z m 12.44113,-7.482991 c 2.82379,-2.821999 4.21622,-10.998423 2.00353,-11.764848 -2.89914,-1.004196 -10.74252,0.410374 -12.77511,2.304019 -2.97307,2.769837 -2.88158,9.186507 0.16201,11.362736 2.88614,2.063645 7.46238,1.243293 10.60957,-1.901907 z m 29.98307,7.480118 C 211.76606,81.166615 207,74.610573 207,65.032092 c 0,-9.485421 3.18469,-14.629699 11.71016,-18.91558 8.55518,-4.300815 21.70769,-1.02789 15.74746,3.918662 -1.16826,0.969568 -1.82318,0.999269 -2.7,0.122444 -3.33871,-3.338704 -14.01687,0.825258 -16.33326,6.369177 -2.95018,7.060775 -1.00978,18.019161 3.63037,20.502495 4.08742,2.187523 7.91156,2.840766 11.16604,1.907393 2.46138,-0.705913 3.57292,-0.571563 4.71429,0.569805 1.31128,1.31128 1.31485,1.669599 0.0292,2.93666 -1.80405,1.778006 -10.51916,2.784231 -14.12165,1.63045 z m 37.11058,0.03702 c -4.12162,-1.341541 -10.45953,-5.708209 -12.24898,-8.439247 -3.05638,-4.66462 -5.70323,-13.123053 -5.70374,-18.227195 -7.3e-4,-7.371544 3.40516,-16.516496 7.78102,-20.892361 5.1741,-5.174094 9.63473,-7.042305 16.71848,-7.002064 9.52697,0.05412 15.88906,4.186599 20.08591,13.046744 1.99775,4.217549 2.4103,6.631994 2.39213,14 -0.0321,13.016092 -4.09152,20.816623 -13.29643,25.550307 -4.35117,2.237614 -11.9661,3.1884 -15.72839,1.963816 z M 269.5037,78.137203 C 279.55205,73.572251 283.68113,57.294757 278.03638,44.5 272.04796,30.926268 256.03891,31.202595 248.99939,45.001197 247.46843,48.002122 247,50.894623 247,57.347147 c 0,7.842978 0.22517,8.763754 3.25,13.289839 2.10052,3.143037 4.82811,5.658806 7.71189,7.113014 5.35647,2.70111 6.37335,2.735224 11.54181,0.387203 z M 300.5,84.375165 c -5.53654,-1.349105 -7.59685,-2.69451 -7.30089,-4.767565 0.24135,-1.690571 0.8945,-2.048473 3.30089,-1.808781 1.65,0.164351 5.31018,0.540465 8.13372,0.835809 7.25161,0.75852 10.96443,-1.29665 11.85393,-6.561542 1.06199,-6.285837 -0.8613,-8.986363 -9.6666,-13.573086 -9.38418,-4.888268 -10.04544,-5.45359 -12.34566,-10.554569 -1.60472,-3.558629 -1.67105,-4.526546 -0.53149,-7.755753 2.43528,-6.900946 7.87382,-10.514881 15.94511,-10.595598 C 317.21443,29.520821 320,30.615828 320,33.568709 c 0,2.499021 -0.0742,2.522213 -5.94299,1.858231 C 303.92338,34.28045 300,36.395057 300,43.003334 c 0,4.373564 2.08827,6.317663 11.95878,11.133175 C 320.16987,58.142439 324,63.086255 324,69.678945 c 0,3.965657 -3.70895,9.60905 -7.90082,12.021585 -3.8276,2.202888 -11.87361,3.582456 -15.59918,2.674635 z M 110.8125,67.5 c -0.10313,-9.075 -0.21563,-17.731337 -0.25,-19.236305 -0.0771,-3.376083 3.14174,-4.388663 5.16315,-1.624214 1.31374,1.796652 1.48472,1.783945 5.26421,-0.391259 5.46807,-3.147016 9.74363,-2.916573 14.21117,0.76595 l 3.65671,3.014172 4.46615,-3.014172 c 5.53939,-3.738489 9.91704,-3.894012 14.87015,-0.528289 4.73805,3.219588 5.97644,8.777153 5.58926,25.083019 L 163.5,83.5 l -2.5,0 -2.5,0 -0.5,-14.33437 -0.5,-14.334369 -3.26578,-2.915631 c -3.75732,-3.354473 -5.30421,-3.571104 -8.8606,-1.240866 -3.92366,2.570878 -4.78028,5.745993 -5.34874,19.825236 l -0.52488,13 -2.61242,0.303146 -2.61242,0.303147 -0.48881,-15.228657 -0.48881,-15.228656 -2.89877,-2.319523 C 126.46193,48.179293 124.39993,48.400065 120.4,52.4 l -3.4,3.4 0,14.1 0,14.1 -3,0 -3,0 -0.1875,-16.5 z"
       id="path4376"
       inkscape:connector-curvature="0" />
    <path
       style="fill:#707070"
       d="m 260,83.97973 c -3.8204,-0.662636 -10.42306,-4.515946 -13.35344,-7.793063 -2.45146,-2.741531 -6.64994,-14.438976 -6.63366,-18.482156 0.021,-5.217247 3.76881,-15.641093 7.16565,-19.929949 5.89522,-7.443327 16.76469,-9.964983 25.82145,-5.990432 5.24271,2.300759 7.9146,4.986652 11.1574,11.21587 3.28926,6.318479 3.37724,20.357813 0.16919,27 C 279.50798,79.976802 269.63448,85.650797 260,83.97973 Z m 9.72976,-5.546885 c 8.92946,-3.711664 13.20392,-16.317946 10.2319,-30.17601 C 277.23281,35.532652 263.28095,29.844046 253.98559,37.665582 248.66663,42.141185 247,46.754027 247,57 c 0,12.169606 2.40588,17.058082 10.5,21.334803 3.84684,2.032568 7.50516,2.061895 12.22976,0.09804 z m -158.02091,4.942671 c -1.05211,-1.052107 -0.86027,-37.163898 0.20091,-37.819743 1.39631,-0.862969 4.09024,0.48801 4.09024,2.051216 0,2.029542 1.62773,1.718079 5.78519,-1.106989 2.02349,-1.375 4.58712,-2.498318 5.69694,-2.496262 2.35537,0.0044 8.45349,3.525976 10.16959,5.872843 1.07814,1.47442 1.401,1.427648 3.51769,-0.509608 3.78381,-3.463054 8.7964,-5.59237 11.54245,-4.903155 8.05917,2.022723 10.38121,6.786631 11.05836,22.687401 C 164.34023,80.536026 163.78877,84 161.08794,84 158.34823,84 158,82.195093 158,67.994938 c 0,-12.356214 -0.0978,-12.957755 -2.58889,-15.918213 -4.22603,-5.022351 -10.72966,-3.87162 -14.02579,2.48168 -0.95463,1.840048 -1.39008,6.443164 -1.40063,14.805902 -0.0162,12.82724 -0.57051,15.053012 -3.60452,14.47312 C 134.66428,83.509467 134.45631,82.14152 134,68.181168 133.51409,53.31526 133.42956,52.830175 131,50.96437 c -3.37257,-2.59 -6.89024,-2.441669 -10.5,0.442757 l -3,2.397192 -0.5,14.84784 c -0.47126,13.994245 -0.61734,14.864638 -2.54115,15.140024 -1.12263,0.1607 -2.36013,-0.0268 -2.75,-0.416667 z m 64.50794,-0.93622 C 173.43407,80.490197 171,75.892099 171,72.584456 c 0,-3.166622 5.42297,-9.445409 9.70226,-11.233412 C 182.48069,60.60797 185.48841,60 187.38609,60 c 7.06832,0 8.12502,-1.818902 4.48158,-7.714115 -2.08324,-3.370759 -2.26165,-3.441148 -7.75,-3.057663 -3.08972,0.215886 -6.40517,0.750998 -7.36767,1.189138 -1.34862,0.613905 -1.75,0.338262 -1.75,-1.201791 0,-1.399741 1.20435,-2.480296 4.02024,-3.606989 5.32088,-2.128995 8.23583,-2.028752 13.09524,0.450334 C 198.09992,49.111947 199,52.172428 199,69.467881 199,83.549942 198.93516,84 196.90638,84 c -1.25262,0 -2.30371,-0.803397 -2.61663,-2 -0.64772,-2.476894 -1.04977,-2.476894 -4.78975,0 -3.62223,2.398911 -10.17602,2.615654 -13.28321,0.439296 z m 14.91579,-5.418033 c 2.60296,-2.602961 2.94018,-3.580642 2.67308,-7.75 L 193.5,64.5 l -6,0.280067 c -7.41008,0.345887 -9.95455,2.415973 -9.95455,8.098673 0,5.199771 1.79539,7.12126 6.65392,7.12126 3.05426,0 4.63257,-0.678096 6.93321,-2.978737 z m 25.59827,4.900829 c -9.06725,-4.786085 -12.29423,-16.930002 -7.18039,-27.02166 2.2025,-4.346426 3.39624,-5.43321 8.75,-7.965968 3.40974,-1.613087 7.41587,-2.933241 8.90249,-2.933675 3.92291,-0.0011 7.79705,2.042298 7.79705,4.112611 0,1.564186 -0.63936,1.716648 -5.0221,1.197577 C 219.86454,48.113199 213.60679,53.704211 213.53718,64 213.4605,75.3425 219.16095,80.835046 229.64942,79.524598 233.84173,79.000804 235,79.153083 235,80.228044 c 0,2.694849 -2.44088,3.771657 -8.45,3.72776 -4.03916,-0.02951 -7.30276,-0.705454 -9.81915,-2.033712 z M 295.75,82.428025 c -2.824,-1.532046 -3.65295,-3.960376 -1.58701,-4.649021 0.63964,-0.213215 3.55055,0.220425 6.46868,0.963645 5.15451,1.312806 10.76142,0.713166 13.95453,-1.492386 2.19691,-1.51746 3.3696,-7.072356 2.21669,-10.500263 -1.59058,-4.729221 -2.28801,-5.355735 -9.83357,-8.833709 -7.64204,-3.522443 -10.17958,-5.781927 -12.36347,-11.008703 -1.39191,-3.331326 -1.33815,-3.892009 0.81991,-8.549942 1.94085,-4.189126 3.01437,-5.254017 6.7253,-6.671236 C 309.69714,28.804535 320,29.823592 320,33.45185 c 0,1.949119 -1.95284,2.381845 -5.88863,1.304852 -4.0792,-1.116234 -9.95878,-0.173085 -12.36137,1.982899 -1.19134,1.069055 -1.75,3.057038 -1.75,6.227328 0,5.365875 0.97409,6.319753 12.31586,12.060315 7.97108,4.034514 10.68728,7.618986 10.67755,14.09079 -0.0134,8.893263 -7.22021,14.825351 -17.99341,14.810719 -3.85057,-0.0052 -7.62091,-0.616935 -9.25,-1.500728 z"
       id="path4374"
       inkscape:connector-curvature="0" />
    <path
       style="fill:#4b4b4b"
       d="M 178.38812,83.066496 C 174.88446,81.573607 172,77.058974 172,73.068089 c 0,-2.954061 0.77238,-4.4164 3.99444,-7.562664 3.57306,-3.488992 4.69328,-3.972801 10.61878,-4.586113 9.09604,-0.941474 10.43924,-3.919099 4.58734,-10.169312 -2.10968,-2.253279 -3.43342,-2.75 -7.32863,-2.75 -2.61464,0 -5.03201,0.45 -5.37193,1 -0.81902,1.325209 -3.5,1.286123 -3.5,-0.05103 0,-1.582226 6.43101,-3.949472 10.71788,-3.945235 4.50286,0.0044 9.98656,3.088673 11.20919,6.304436 0.48247,1.26899 1.03375,8.919119 1.22507,17.000287 0.31865,13.459437 0.20093,14.692969 -1.40214,14.692286 -0.9625,-4.11e-4 -1.75,-0.649189 -1.75,-1.44173 0,-2.587634 -2.13165,-2.837805 -5.15214,-0.604657 -3.39043,2.506655 -8.37692,3.425711 -11.45974,2.112136 z m 10.04632,-3.04157 c 5.20761,-1.97993 8.77087,-12.949795 5.17559,-15.933608 -1.92654,-1.598886 -12.02391,0.06828 -14.61484,2.413037 -2.95865,2.67754 -2.81582,10.807446 0.22732,12.938941 2.55329,1.788393 5.54163,1.977074 9.21193,0.58163 z m 34.06556,3.3298 c -4.91466,-1.001599 -10.21933,-4.761925 -12.32432,-8.736356 -3.02295,-5.707602 -2.97093,-14.652451 0.11698,-20.11837 4.07356,-7.210607 16.50702,-11.818309 22.80109,-8.449827 3.2658,1.747801 1.19128,2.833633 -4.35725,2.280648 -4.37971,-0.436495 -5.80032,-0.137555 -8.68243,1.827044 -4.94685,3.372029 -7.33978,8.010344 -7.33978,14.226948 0,10.583334 5.72421,16.292902 15.9637,15.922853 4.77974,-0.172737 7.27797,1.143745 4.07201,2.145806 -2.52485,0.78917 -8.30582,1.297475 -10.25,0.901254 z m 36.58588,-0.04556 C 256.04167,82.68966 250.18363,78.978943 247.26542,75.821609 244.33803,72.654341 241.04707,62.67701 241.05723,57 c 0.0173,-9.637234 6.53542,-21.549479 13.34933,-24.396511 8.32593,-3.478798 17.82491,-2.366585 23.46309,2.74724 5.65752,5.131373 7.49788,9.605516 7.94182,19.307611 0.37745,8.248736 0.16536,9.688872 -2.13539,14.5 -1.40496,2.937913 -3.36933,6.250904 -4.36527,7.362201 -4.47291,4.990978 -13.75257,8.105753 -20.22493,6.78862 z M 269.5,79.104137 c 6.08565,-2.817565 9.20272,-6.782211 11.07349,-14.084531 C 284.24584,50.685029 278.6018,36.85477 267.90406,33.974167 259.73303,31.773935 252.91117,35.356633 248.40101,44.216756 246.45459,48.040483 246,50.46075 246,57 c 0,11.87865 4.30587,19.3897 13.14516,22.930055 3.52779,1.412969 5.93352,1.221085 10.35484,-0.825918 z m 32,4.194894 c -4.12219,-0.507813 -7.5,-2.347407 -7.5,-4.084588 0,-1.08801 0.68311,-1.26779 2.75,-0.723745 1.5125,0.398119 5.225,0.918697 8.25,1.156842 10.13837,0.798147 15.22648,-5.398341 11.8575,-14.440492 -1.18031,-3.1679 -2.47026,-4.244355 -8.86935,-7.401438 -12.40794,-6.12164 -15.89801,-11.694849 -12.15199,-19.405269 2.59266,-5.336474 7.19822,-7.623305 15.33868,-7.616219 6.23228,0.0054 7.82516,0.579504 7.82516,2.820208 0,1.18473 -0.76087,1.333477 -3.75,0.733115 -5.55428,-1.115569 -10.43232,-0.555236 -13.25,1.522005 -1.98657,1.464532 -2.56088,2.865923 -2.79643,6.823622 -0.28445,4.779416 -0.14309,5.083227 3.5,7.522075 2.08804,1.397823 6.43035,3.836002 9.64958,5.418175 7.27919,3.577538 9.98415,7.149509 10.07715,13.307141 0.14207,9.407262 -9.19144,15.814679 -20.9303,14.368568 z M 112,65.5 c 0,-9.625 -0.0238,-17.8375 -0.0528,-18.25 -0.14559,-2.0672 2.88755,-1.044622 3.44089,1.160043 l 0.62999,2.5101 4.386,-2.960071 c 2.41229,-1.62804 5.67073,-2.957107 7.24096,-2.953483 3.11267,0.0072 7.5707,2.543597 9.79632,5.573649 1.37109,1.866658 1.48822,1.847072 4.23438,-0.708052 5.99384,-5.576891 10.77099,-6.294313 15.89387,-2.386906 C 161.75714,50.67928 163,56.186811 163,71.549221 163,82.333333 162.88356,83 161,83 c -1.90014,0 -2,-0.666667 -2,-13.352117 0,-12.244364 -0.18924,-13.632925 -2.28094,-16.736798 -3.19791,-4.745384 -6.83149,-5.843883 -11.32524,-3.423836 C 140.14046,52.316368 139,56.086188 139,70.622124 139,82.333333 138.89228,83 137,83 c -1.8789,0 -2.00264,-0.681184 -2.04355,-11.25 -0.0239,-6.1875 -0.41169,-13.152453 -0.86164,-15.477673 -0.86702,-4.48051 -4.22567,-8.181585 -7.47678,-8.239058 -2.45549,-0.04341 -8.37056,3.635821 -9.63068,5.990367 C 116.44431,55.038321 116,61.973101 116,69.434259 116,82.333333 115.90171,83 114,83 c -1.92381,0 -2,-0.666667 -2,-17.5 z"
       id="path4372"
       inkscape:connector-curvature="0" />
    <path
       style="fill:#353535"
       d="m 113.00269,82.333333 c 0.001,-0.458333 -0.11101,-8.596004 -0.25,-18.083713 -0.19436,-13.268567 0.0358,-17.250292 0.99731,-17.25 1.45656,4.43e-4 1.50316,0.696822 1.37183,20.496654 -0.0606,9.129542 -0.49506,15.128136 -1.11065,15.333333 -0.55615,0.185383 -1.00997,-0.03794 -1.00849,-0.496274 z m 22.66398,0 C 135.3,81.966667 135,75.19518 135,67.285584 c 0,-14.285809 -0.0176,-14.397413 -2.65987,-16.846168 -1.46293,-1.355797 -4.05043,-2.868726 -5.75,-3.362063 L 123.5,46.180377 l 4.01022,-0.09019 c 2.9898,-0.06724 4.70737,0.556244 6.75,2.450281 1.50688,1.397258 2.73978,2.972258 2.73978,3.5 C 137,52.568211 137.72314,53 138.60699,53 c 1.18496,0 1.38559,0.459586 0.76394,1.75 -0.46368,0.9625 -0.98618,7.7125 -1.16111,15 -0.29326,12.217144 -0.73309,14.393396 -2.54315,12.583333 z M 160,70.467881 c 0,-16.661212 -1.85255,-20.976274 -10,-23.292496 l -3.5,-0.995008 4.11514,-0.09019 c 5.19322,-0.113815 8.95046,2.684749 10.34484,7.705298 C 162.30522,58.639138 162.33861,83 161,83 c -0.61347,0 -1,-4.84404 -1,-12.532119 z m 18.357,11.540538 C 175.17379,80.723836 173,77.025279 173,72.893856 c 0,-2.974434 0.71742,-4.30928 3.82495,-7.116741 3.20776,-2.898025 4.83505,-3.561186 10.08507,-4.109921 3.44306,-0.359872 6.67184,-0.908769 7.17505,-1.21977 1.58091,-0.977059 0.9984,-5.576302 -1.14565,-9.045441 -2.80242,-4.534412 -8.04668,-5.540339 -15.43942,-2.961509 -1.32037,0.460588 -1.15046,0.176513 0.5,-0.835969 5.06071,-3.10451 15.51352,-1.258438 17.86899,3.155845 1.30636,2.448176 1.88702,31.808334 0.62278,31.48965 -0.54548,-0.1375 -0.99177,-0.6775 -0.99177,-1.2 0,-0.5225 -0.51978,-1.469782 -1.15507,-2.105072 -0.87343,-0.873428 -0.81247,-1.97503 0.25,-4.517881 1.49428,-3.576311 1.79241,-7.254088 0.79808,-9.84526 C 194.92606,63.364937 193.29333,63 188.31609,63 c -5.81765,0 -6.76464,0.2947 -9.39301,2.923077 C 176.67499,68.171169 176,69.761999 176,72.812293 c 0,5.672835 2.69189,8.642252 7.83453,8.642252 2.22642,0 3.51196,0.340837 2.85675,0.757415 -1.55319,0.987515 -5.62953,0.887963 -8.33428,-0.203541 z m 42.5846,0.04335 C 212.93728,79.622936 209,73.994199 209,64.980034 209,56.492622 211.58637,51.75003 217.98258,48.50883 223.1803,45.874945 230.29902,45.19496 233,47.074357 c 1.08781,0.756922 0.29633,0.859908 -2.88029,0.374776 -6.47513,-0.988876 -13.42002,2.474059 -16.11136,8.033618 -2.60459,5.38036 -2.59986,12.663899 0.0117,18.058699 2.52689,5.219865 7.68709,7.842294 14.38345,7.309711 5.22068,-0.415218 6.18316,0.581503 1.47148,1.523839 -3.78748,0.757496 -5.58633,0.69241 -8.9334,-0.323227 z m 34.54359,-1.142007 c -5.96385,-3.128043 -9.26775,-6.843111 -11.48814,-12.917826 -5.33953,-14.608333 0.86484,-31.240779 13.22032,-35.440535 9.82841,-3.340779 18.27669,-0.389901 24.26165,8.47429 2.69612,3.993161 3.05926,5.433999 3.37699,13.39879 0.43279,10.84928 -0.80923,15.408454 -5.66478,20.793983 -6.79269,7.534117 -15.985,9.740987 -23.70604,5.691298 z M 271.44011,79.25557 C 277.15032,76.335408 280.18183,71.372142 281.97962,62 284.47616,48.9852 278.53323,36.472258 268.4292,33.469322 c -4.54307,-1.350207 -5.52881,-1.34546 -9.47153,0.04561 -5.54761,1.957311 -8.44474,4.673397 -11.5238,10.80367 -3.45376,6.876274 -3.47324,18.698294 -0.042,25.464638 2.88293,5.68502 4.75341,7.472102 10.62607,10.152347 4.78885,2.185597 8.15174,2.015219 13.42213,-0.680017 z m 27.71724,2.80427 c -4.46011,-1.127679 -6.94141,-3.596007 -2.65735,-2.643458 13.02182,2.895361 19.74647,1.095733 21.5979,-5.779958 0.79697,-2.959729 0.78879,-5.071254 -0.0302,-7.804936 -1.30219,-4.346311 -1.03248,-4.116595 -10.95599,-9.331492 -7.83379,-4.116727 -12.15863,-8.740643 -12.06364,-12.897883 0.0264,-1.156164 0.81392,-3.663912 1.75,-5.572772 2.21385,-4.514474 9.51709,-7.500958 16.16157,-6.608884 7.56781,1.016037 6.45171,2.178161 -2.04335,2.127615 -7.63962,-0.04546 -8.21167,0.104812 -10.49808,2.757688 C 298.73301,38.261025 298,40.321605 298,43.103513 c 0,5.030832 2.72481,7.727004 12.6181,12.485484 7.78948,3.746592 10.32787,6.589296 11.11338,12.445717 1.29019,9.619061 -10.65295,17.039237 -22.57413,14.02513 z"
       id="path4370"
       inkscape:connector-curvature="0" />
  </g>
</svg>
