<?xml version="1.0" encoding="UTF-8" standalone="no"?>
<!-- Created with Inkscape (http://www.inkscape.org/) -->

<svg
   xmlns:dc="http://purl.org/dc/elements/1.1/"
   xmlns:cc="http://creativecommons.org/ns#"
   xmlns:rdf="http://www.w3.org/1999/02/22-rdf-syntax-ns#"
   xmlns:svg="http://www.w3.org/2000/svg"
   xmlns="http://www.w3.org/2000/svg"
   xmlns:xlink="http://www.w3.org/1999/xlink"
   xmlns:sodipodi="http://sodipodi.sourceforge.net/DTD/sodipodi-0.dtd"
   xmlns:inkscape="http://www.inkscape.org/namespaces/inkscape"
   id="svg4456"
   version="1.1"
   inkscape:version="0.91 r13725"
   width="40.625"
   height="89.375"
   viewBox="0 0 40.625 89.375"
   sodipodi:docname="Mobile.svg">
  <metadata
     id="metadata4462">
    <rdf:RDF>
      <cc:Work
         rdf:about="">
        <dc:format>image/svg+xml</dc:format>
        <dc:type
           rdf:resource="http://purl.org/dc/dcmitype/StillImage" />
        <dc:title></dc:title>
      </cc:Work>
    </rdf:RDF>
  </metadata>
  <defs
     id="defs4460" />
  <sodipodi:namedview
     pagecolor="#ffffff"
     bordercolor="#666666"
     borderopacity="1"
     objecttolerance="10"
     gridtolerance="10"
     guidetolerance="10"
     inkscape:pageopacity="0"
     inkscape:pageshadow="2"
     inkscape:window-width="640"
     inkscape:window-height="480"
     id="namedview4458"
     showgrid="false"
     inkscape:zoom="2.6405594"
     inkscape:cx="20.3125"
     inkscape:cy="44.6875"
     inkscape:window-x="958"
     inkscape:window-y="42"
     inkscape:window-maximized="0"
     inkscape:current-layer="svg4456" />
  <image
     width="40.625"
     height="89.375"
     preserveAspectRatio="none"
     style="image-rendering:optimizeQuality"
     xlink:href="file:///media/havoc/USB%20DISK/pics/_legend/Mobile.png"
     id="image4464"
     x="0"
     y="0"
     sodipodi:absref="/media/havoc/USB DISK/pics/_legend/Mobile.png" />
  <g
     id="g4466">
    <path
       style="fill-opacity:1"
       d="M 8.3481244,83.149944 C 5.0381841,81.765581 5,81.471869 5,57.395786 L 5,35.069704 6.5073237,33.316102 8.0146469,31.5625 18.907485,31.356147 c 13.035652,-0.246946 14.963406,0.239742 16.098016,4.064165 0.487617,1.643609 0.646693,9.079819 0.50835,23.763452 L 35.3125,80.555025 33.766353,81.996262 C 32.283261,83.378725 31.760731,83.443056 20.953852,83.573813 14.757359,83.648781 9.0847806,83.458044 8.3481244,83.149944 Z M 21.75,81.125 c 1.193054,-1.193056 0.881884,-3.510437 -0.576147,-4.29075 -1.095302,-0.586187 -1.550045,-0.485837 -2.612394,0.576513 -1.095758,1.095756 -1.179026,1.521568 -0.562252,2.875243 0.769584,1.68905 2.511169,2.078619 3.750793,0.838994 z M 32.978795,57.34375 32.8125,40.3125 20.15625,40.143309 7.5,39.974118 l 0,17.200441 0,17.200441 12.822545,0 12.822545,0 -0.166295,-17.03125 z M 24.375,35 c 0,-0.351977 -1.758538,-0.625 -4.025614,-0.625 -2.214089,0 -4.199437,0.28125 -4.411886,0.625 -0.24358,0.394121 1.24351,0.625 4.025614,0.625 2.524591,0 4.411886,-0.267359 4.411886,-0.625 z"
       id="path4482"
       inkscape:connector-curvature="0" />
    <path
       style="fill-opacity:1"
       d="M 8.3481244,83.149944 C 5.0381841,81.765581 5,81.471869 5,57.395786 L 5,35.069704 6.5073456,33.316102 8.0146919,31.5625 18.538596,31.363254 c 7.521915,-0.14241 11.236454,0.03646 13.021851,0.627053 4.02226,1.330528 4.167542,2.332197 3.944115,27.193446 l -0.192062,21.371253 -1.546147,1.44125 c -1.483095,1.382469 -2.005594,1.4468 -12.812501,1.577557 C 14.757359,83.648781 9.0847806,83.458044 8.3481244,83.149944 Z M 21.75,81.125 c 1.193054,-1.193056 0.881884,-3.510437 -0.576147,-4.29075 -1.095302,-0.586187 -1.550045,-0.485837 -2.612394,0.576513 -1.095758,1.095756 -1.179026,1.521568 -0.562252,2.875243 0.769584,1.68905 2.511169,2.078619 3.750793,0.838994 z M 32.978795,57.34375 32.8125,40.3125 20.15625,40.143309 7.5,39.974118 l 0,17.200441 0,17.200441 12.822545,0 12.822545,0 -0.166295,-17.03125 z M 24.375,35 c 0,-0.351977 -1.758538,-0.625 -4.025614,-0.625 -2.214089,0 -4.199437,0.28125 -4.411886,0.625 -0.24358,0.394121 1.24351,0.625 4.025614,0.625 2.524591,0 4.411886,-0.267359 4.411886,-0.625 z"
       id="path4480"
       inkscape:connector-curvature="0" />
    <path
       style="fill-opacity:1"
       d="M 8.3481244,83.149944 C 5.0381841,81.765581 5,81.471869 5,57.395786 L 5,35.069704 6.5034594,33.321829 8.0069181,31.573954 17.457272,31.343458 c 10.94427,-0.266932 14.659639,0.148453 16.337779,1.826593 C 34.941381,34.316381 35,35.495346 35,57.404369 c 0,22.433956 -0.03364,23.0682 -1.301221,24.53125 -1.275738,1.472469 -1.523597,1.50455 -12.65625,1.638194 C 14.797263,83.648781 9.0847806,83.458044 8.3481244,83.149944 Z M 21.75,81.125 c 1.193054,-1.193056 0.881884,-3.510437 -0.576147,-4.29075 -1.095302,-0.586187 -1.550045,-0.485837 -2.612394,0.576513 -1.095758,1.095756 -1.179026,1.521568 -0.562252,2.875243 0.769584,1.68905 2.511169,2.078619 3.750793,0.838994 z M 33.125,57.1875 33.125,40 20.3125,40 7.5,40 l 0,17.1875 0,17.1875 12.8125,0 12.8125,0 0,-17.1875 z M 24.375,35 c 0,-0.351977 -1.758538,-0.625 -4.025614,-0.625 -2.214089,0 -4.199437,0.28125 -4.411886,0.625 -0.24358,0.394121 1.24351,0.625 4.025614,0.625 2.524591,0 4.411886,-0.267359 4.411886,-0.625 z"
       id="path4478"
       inkscape:connector-curvature="0" />
    <path
       style="fill-opacity:1"
       d="M 8.3481244,83.149944 C 5.0381841,81.765581 5,81.471869 5,57.395786 L 5,35.069704 6.5034594,33.321829 8.0069181,31.573954 17.457272,31.343458 c 10.94427,-0.266932 14.659639,0.148453 16.337779,1.826593 C 34.941381,34.316381 35,35.495346 35,57.404369 c 0,22.433956 -0.03364,23.0682 -1.301221,24.53125 -1.275738,1.472469 -1.523597,1.50455 -12.65625,1.638194 C 14.797263,83.648781 9.0847806,83.458044 8.3481244,83.149944 Z M 21.75,81.125 c 1.193054,-1.193056 0.881884,-3.510437 -0.576147,-4.29075 -1.095302,-0.586187 -1.550045,-0.485837 -2.612394,0.576513 -1.095758,1.095756 -1.179026,1.521568 -0.562252,2.875243 0.769584,1.68905 2.511169,2.078619 3.750793,0.838994 z M 33.125,57.1875 33.125,40 20.3125,40 7.5,40 l 0,17.1875 0,17.1875 12.8125,0 12.8125,0 0,-17.1875 z M 24.375,35 c 0,-0.351977 -1.758538,-0.625 -4.025614,-0.625 -2.214089,0 -4.199437,0.28125 -4.411886,0.625 -0.24358,0.394121 1.24351,0.625 4.025614,0.625 2.524591,0 4.411886,-0.267359 4.411886,-0.625 z"
       id="path4476"
       inkscape:connector-curvature="0" />
    <path
       style="fill-opacity:1"
       d="M 8.3481244,83.149944 C 5.0390593,81.76595 5,81.466231 5,57.458146 L 5,35.194424 6.5566025,33.382892 8.113205,31.571361 17.510416,31.342162 C 28.463272,31.075021 31.813544,31.455059 33.658532,33.173926 34.983557,34.408375 35,34.705677 35,57.428716 c 0,22.40929 -0.03369,23.043915 -1.301221,24.506903 -1.275738,1.472469 -1.523597,1.50455 -12.65625,1.638194 C 14.797263,83.648781 9.0847806,83.458044 8.3481244,83.149944 Z M 21.75,81.125 c 1.193054,-1.193056 0.881884,-3.510437 -0.576147,-4.29075 -1.095302,-0.586187 -1.550045,-0.485837 -2.612394,0.576513 -1.095758,1.095756 -1.179026,1.521568 -0.562252,2.875243 0.769584,1.68905 2.511169,2.078619 3.750793,0.838994 z M 33.125,57.1875 33.125,40 20.3125,40 7.5,40 l 0,17.1875 0,17.1875 12.8125,0 12.8125,0 0,-17.1875 z M 24.375,35 c 0,-0.351977 -1.758538,-0.625 -4.025614,-0.625 -2.214089,0 -4.199437,0.28125 -4.411886,0.625 -0.24358,0.394121 1.24351,0.625 4.025614,0.625 2.524591,0 4.411886,-0.267359 4.411886,-0.625 z"
       id="path4474"
       inkscape:connector-curvature="0" />
    <path
       style="fill-opacity:1"
       d="M 8.3481244,83.149944 C 5.0390593,81.76595 5,81.466231 5,57.458146 L 5,35.194424 6.5600631,33.378462 8.1201256,31.5625 l 11.8264604,0 c 11.656073,0 11.849705,0.02183 13.439936,1.515196 L 35,34.592892 35,57.513315 c 0,22.323579 -0.03388,22.959529 -1.301221,24.422304 -1.275738,1.472469 -1.523597,1.50455 -12.65625,1.638194 C 14.797263,83.648781 9.0847806,83.458044 8.3481244,83.149944 Z M 21.75,81.125 c 1.193054,-1.193056 0.881884,-3.510437 -0.576147,-4.29075 -1.095302,-0.586187 -1.550045,-0.485837 -2.612394,0.576513 -1.095758,1.095756 -1.179026,1.521568 -0.562252,2.875243 0.769584,1.68905 2.511169,2.078619 3.750793,0.838994 z M 33.125,57.1875 33.125,40 20.3125,40 7.5,40 l 0,17.1875 0,17.1875 12.8125,0 12.8125,0 0,-17.1875 z M 24.375,35 c 0,-0.351977 -1.758538,-0.625 -4.025614,-0.625 -2.214089,0 -4.199437,0.28125 -4.411886,0.625 -0.24358,0.394121 1.24351,0.625 4.025614,0.625 2.524591,0 4.411886,-0.267359 4.411886,-0.625 z"
       id="path4472"
       inkscape:connector-curvature="0" />
    <path
       style="fill-opacity:1"
       d="M 8.3481244,83.149944 C 5.0390593,81.76595 5,81.466231 5,57.458146 L 5,35.194424 6.5600631,33.378462 8.1201256,31.5625 l 11.8264604,0 c 11.656073,0 11.849705,0.02183 13.439936,1.515196 L 35,34.592892 35,57.513315 c 0,22.323579 -0.03388,22.959529 -1.301221,24.422304 -1.275738,1.472469 -1.523597,1.50455 -12.65625,1.638194 C 14.797263,83.648781 9.0847806,83.458044 8.3481244,83.149944 Z M 21.75,81.125 c 1.193054,-1.193056 0.881884,-3.510437 -0.576147,-4.29075 -1.095302,-0.586187 -1.550045,-0.485837 -2.612394,0.576513 -1.095758,1.095756 -1.179026,1.521568 -0.562252,2.875243 0.769584,1.68905 2.511169,2.078619 3.750793,0.838994 z M 33.125,57.1875 33.125,40 20.3125,40 7.5,40 l 0,17.1875 0,17.1875 12.8125,0 12.8125,0 0,-17.1875 z M 24.375,35 c 0,-0.351977 -1.758538,-0.625 -4.025614,-0.625 -2.214089,0 -4.199437,0.28125 -4.411886,0.625 -0.24358,0.394121 1.24351,0.625 4.025614,0.625 2.524591,0 4.411886,-0.267359 4.411886,-0.625 z"
       id="path4470"
       inkscape:connector-curvature="0" />
    <path
       style="fill-opacity:1"
       d="M 8.3481244,83.149944 C 5.0390593,81.76595 5,81.466231 5,57.458146 l 0,-22.263722 1.5604094,-1.815962 1.56041,-1.815962 11.8267376,0 c 11.656539,0 11.849949,0.02181 13.439591,1.515196 L 35,34.592892 35,57.513315 c 0,22.323579 -0.03388,22.959529 -1.301221,24.422304 -1.275738,1.472469 -1.523597,1.50455 -12.65625,1.638194 C 14.797263,83.648781 9.0847806,83.458044 8.3481244,83.149944 Z M 21.75,81.125 c 1.193054,-1.193056 0.881884,-3.510437 -0.576147,-4.29075 -1.095302,-0.586187 -1.550045,-0.485837 -2.612394,0.576513 -1.095758,1.095756 -1.179026,1.521568 -0.562252,2.875243 0.769584,1.68905 2.511169,2.078619 3.750793,0.838994 z M 33.125,57.1875 33.125,40 20.3125,40 7.5,40 l 0,17.1875 0,17.1875 12.8125,0 12.8125,0 0,-17.1875 z M 24.375,35 c 0,-0.351977 -1.758538,-0.625 -4.025614,-0.625 -2.214089,0 -4.199437,0.28125 -4.411886,0.625 -0.24358,0.394121 1.24351,0.625 4.025614,0.625 2.524591,0 4.411886,-0.267359 4.411886,-0.625 z"
       id="path4468"
       inkscape:connector-curvature="0" />
  </g>
</svg>
