<?xml version="1.0" encoding="UTF-8" standalone="no"?>
<!-- Created with Inkscape (http://www.inkscape.org/) -->

<svg
   xmlns:dc="http://purl.org/dc/elements/1.1/"
   xmlns:cc="http://creativecommons.org/ns#"
   xmlns:rdf="http://www.w3.org/1999/02/22-rdf-syntax-ns#"
   xmlns:svg="http://www.w3.org/2000/svg"
   xmlns="http://www.w3.org/2000/svg"
   xmlns:xlink="http://www.w3.org/1999/xlink"
   xmlns:sodipodi="http://sodipodi.sourceforge.net/DTD/sodipodi-0.dtd"
   xmlns:inkscape="http://www.inkscape.org/namespaces/inkscape"
   id="svg4554"
   version="1.1"
   inkscape:version="0.91 r13725"
   width="95"
   height="89.375"
   viewBox="0 0 95 89.375"
   sodipodi:docname="SmartTV.svg">
  <metadata
     id="metadata4560">
    <rdf:RDF>
      <cc:Work
         rdf:about="">
        <dc:format>image/svg+xml</dc:format>
        <dc:type
           rdf:resource="http://purl.org/dc/dcmitype/StillImage" />
        <dc:title></dc:title>
      </cc:Work>
    </rdf:RDF>
  </metadata>
  <defs
     id="defs4558" />
  <sodipodi:namedview
     pagecolor="#ffffff"
     bordercolor="#666666"
     borderopacity="1"
     objecttolerance="10"
     gridtolerance="10"
     guidetolerance="10"
     inkscape:pageopacity="0"
     inkscape:pageshadow="2"
     inkscape:window-width="640"
     inkscape:window-height="480"
     id="namedview4556"
     showgrid="false"
     inkscape:zoom="2.6405594"
     inkscape:cx="47.5"
     inkscape:cy="44.6875"
     inkscape:window-x="0"
     inkscape:window-y="0"
     inkscape:window-maximized="0"
     inkscape:current-layer="svg4554" />
  <image
     width="95"
     height="89.375"
     preserveAspectRatio="none"
     style="image-rendering:optimizeQuality"
     xlink:href="file:///media/havoc/USB%20DISK/pics/_legend/SmartTV.png"
     id="image4562"
     x="0"
     y="0"
     sodipodi:absref="/media/havoc/USB DISK/pics/_legend/SmartTV.png" />
  <g
     id="g4564">
    <path
       style="fill-opacity:1"
       d="m 27.670001,84.243325 c -1.733518,-0.836663 -2.323234,-2.555619 -1.441778,-4.202637 0.618017,-1.154775 1.392647,-1.270563 9.565875,-1.429857 L 44.6875,78.4375 l 0.189878,-5.15625 0.189878,-5.15625 -19.096128,0 C 7.7083331,68.125 6.8204513,68.07045 5.625,66.875 4.4115381,65.661537 4.3752797,64.798325 4.3845705,37.34375 4.389833,21.789062 4.6007717,8.7530419 4.8533205,8.374815 6.2130798,6.3383869 7.9971406,6.25 47.742004,6.25 c 28.795596,0 40.136408,0.1992131 41.29109,0.7253219 l 1.591906,0.7253218 0,29.1778103 c 0,27.473246 -0.06677,29.23824 -1.142963,30.212177 C 88.471562,68.0051 86.149294,68.125 69.448406,68.125 l -18.890662,0 0.189878,5.15625 0.189878,5.15625 8.893402,0.173331 c 8.173229,0.159294 8.94786,0.275082 9.565873,1.429857 0.914194,1.708181 0.275744,3.373106 -1.625694,4.239462 -2.106456,0.959763 -38.104696,0.926706 -40.10108,-0.03681 z M 83.75,37.1875 l 0,-23.4375 -36.25,0 -36.25,0 0,23.4375 0,23.4375 36.25,0 36.25,0 0,-23.4375 z m -48,14.5625 c -3.318993,-3.318993 4.108502,-8.625 12.073511,-8.625 3.30899,0 4.802027,0.360876 7.842037,1.895469 4.174436,2.107248 5.524949,4.005066 4.376763,6.150473 -0.959323,1.792512 -2.09314,1.677785 -6.105368,-0.617778 -2.962965,-1.695237 -3.861509,-1.913651 -6.952785,-1.690048 -2.530537,0.183043 -4.264339,0.742148 -6.037197,1.946836 C 38.226544,52.658523 36.898707,52.898707 35.75,51.75 Z m -6.875,-8.125 c -0.4125,-0.4125 -0.75,-1.213216 -0.75,-1.779369 0,-1.168189 2.020472,-3.720631 2.945192,-3.720631 0.33609,0 1.120129,-0.5625 1.742308,-1.25 0.622179,-0.6875 1.384325,-1.25 1.693657,-1.25 0.309333,0 1.86235,-0.592185 3.45115,-1.315968 4.318828,-1.967453 14.633912,-1.879004 19.855193,0.170253 7.1684,2.813466 11.007494,6.614644 9.055762,8.966331 -1.175687,1.416618 -3.226899,1.116247 -5.632109,-0.82474 C 57.964576,39.980735 52.423778,38.125 47.8125,38.125 c -4.254539,0 -10.283738,1.853622 -12.540282,3.855395 C 34.562563,42.609927 33.648501,43.125 33.240968,43.125 32.833436,43.125 32.5,43.40625 32.5,43.75 c 0,0.875555 -2.718176,0.781824 -3.625,-0.125 z m -6.84375,-8.083471 c -0.429688,-0.435341 -0.772305,-1.227466 -0.761373,-1.760279 0.02283,-1.112734 1.436925,-3.15625 2.184095,-3.15625 0.277017,0 0.949137,-0.428784 1.493598,-0.952853 1.433587,-1.379894 5.625921,-4.047147 6.361223,-4.047147 0.345555,0 1.494988,-0.448191 2.554296,-0.995981 1.059308,-0.547789 4.490653,-1.394017 7.625212,-1.880506 8.553908,-1.327582 17.11724,-0.01081 23.824199,3.663406 0.6875,0.376628 1.824337,0.986458 2.526306,1.35518 2.701906,1.419227 6.536194,4.886417 6.536194,5.910419 0,2.755041 -3.257981,3.382991 -6.050737,1.166232 C 65.1495,32.323777 64.172713,31.795431 58.321637,29.433342 53.506327,27.489394 42.53353,27.562468 36.875,29.576169 c -4.227673,1.504502 -7.736745,3.389217 -9.421408,5.060216 -1.37195,1.360824 -4.463255,1.876851 -5.422342,0.905144 z"
       id="path4580"
       inkscape:connector-curvature="0" />
    <path
       style="fill-opacity:1"
       d="m 26.607143,83.392856 c -1.16025,-1.16025 -1.142432,-1.014887 -0.372612,-3.039668 l 0.60953,-1.603188 9.07797,0 9.077969,0 0,-5.3125 0,-5.3125 -19.0625,0 C 7.7083331,68.125 6.820355,68.070356 5.625,66.875 4.4116876,65.661687 4.375,64.791669 4.375,37.232143 4.375,12.253788 4.4931117,8.7211738 5.3571429,7.8571431 6.2301126,6.9841731 10.913914,6.875 47.493526,6.875 c 22.63483,0 41.599118,0.1707156 42.142855,0.3793681 C 90.5184,7.59283 90.625,10.790118 90.625,36.906428 l 0,29.272691 -1.389069,0.972943 c -1.181712,0.827701 -4.167194,0.972938 -20,0.972938 l -18.610931,0 0,5.3125 0,5.3125 9.077969,0 9.077968,0 0.609532,1.603188 c 0.769819,2.024781 0.787637,1.879418 -0.372613,3.039668 C 68.165469,84.245244 65.363906,84.375 47.8125,84.375 30.261093,84.375 27.459529,84.245244 26.607143,83.392856 Z M 83.75,37.1875 l 0,-23.4375 -36.25,0 -36.25,0 0,23.4375 0,23.4375 36.25,0 36.25,0 0,-23.4375 z M 36.09375,51.824938 C 34.565586,50.934864 34.730393,48.579281 36.421253,47.143959 39.422352,44.596414 43.624192,43.125 47.897984,43.125 c 3.421979,0 4.73997,0.333349 7.830216,1.980432 3.966212,2.11397 5.196165,3.591752 4.586954,5.511205 -0.658009,2.073204 -2.51679,2.062435 -6.235227,-0.03612 -3.059888,-1.726895 -3.95565,-1.944537 -7.074661,-1.718928 -2.552436,0.184626 -4.280674,0.740431 -6.058305,1.948363 -2.727125,1.853128 -3.232679,1.958858 -4.853211,1.014985 z m -6.875,-8.125 c -1.386477,-0.807548 -1.366023,-2.406905 0.05131,-4.012438 1.429552,-1.619368 2.674862,-2.391712 7.583616,-4.703371 3.713521,-1.748793 4.583787,-1.90359 10.733384,-1.909185 5.835158,-0.0053 7.198594,0.205938 10.64632,1.649519 7.91664,3.314739 11.433702,7.819456 7.249259,9.284976 -1.447707,0.507029 -2.060482,0.315792 -4.062504,-1.267842 C 57.924422,39.976425 52.46726,38.125 47.8125,38.125 c -4.254539,0 -10.283738,1.853622 -12.540282,3.855395 C 34.562563,42.609927 33.648501,43.125 33.240968,43.125 32.833436,43.125 32.5,43.40625 32.5,43.75 c 0,0.801821 -1.867576,0.773327 -3.28125,-0.05006 z m -7.1875,-8.158409 c -0.429688,-0.435341 -0.772305,-1.227466 -0.761373,-1.760279 0.02521,-1.228837 1.467434,-3.15625 2.361718,-3.15625 0.374711,0 0.906205,-0.384544 1.181099,-0.854544 0.274893,-0.469999 2.327931,-1.758289 4.562306,-2.862868 2.234375,-1.104579 4.544176,-2.262727 5.132891,-2.573664 2.228038,-1.176766 10.356967,-1.981892 16.538572,-1.638057 5.979671,0.332604 9.966951,1.371912 14.266037,3.718529 0.6875,0.375265 1.824337,0.983981 2.526306,1.352703 3.290494,1.728391 6.597094,4.927878 6.413094,6.205345 -0.296594,2.059095 -3.140381,2.758576 -5.234113,1.287423 C 65.603169,32.860595 64.030944,31.873747 62.5,31.168806 61.640625,30.773097 59.953125,29.996672 58.75,29.443417 56.113388,28.230977 42.520742,27.685609 39.291366,28.662693 33.870487,30.302841 28.631873,32.963122 27.1875,34.809296 c -0.933167,1.192759 -4.238426,1.662135 -5.15625,0.732233 z"
       id="path4578"
       inkscape:connector-curvature="0" />
    <path
       style="fill-opacity:1"
       d="M 27.093719,83.896681 C 26.132079,83.282356 25.90096,81.868944 26.482086,80.15625 26.947388,78.784912 27.18319,78.75 35.979618,78.75 L 45,78.75 45,73.4375 45,68.125 26.09375,68.104187 C 8.5339894,68.084875 7.0873481,67.999844 5.78125,66.910256 L 4.375,65.737131 4.375,37.28821 C 4.375,12.258885 4.4930549,8.7212306 5.3571429,7.8571431 6.2300874,6.9841981 10.868533,6.8759488 47.075893,6.8835344 69.481025,6.8882281 88.445312,7.0616556 89.21875,7.2689287 l 1.40625,0.3768607 0,29.2666646 0,29.266665 -1.389069,0.972943 c -1.181712,0.827701 -4.167194,0.972938 -20,0.972938 l -18.610931,0 0,5.3125 0,5.3125 8.962178,0 c 8.697653,0 8.980091,0.0415 9.568959,1.40625 0.848463,1.966344 0.391507,3.401225 -1.220862,3.833575 -2.000319,0.536381 -39.991753,0.449738 -40.841556,-0.09314 z M 83.601269,37.34375 83.765031,13.75 l -36.257515,0 -36.257516,0 0,23.333333 c 0,12.833334 0.189782,23.523116 0.421737,23.755071 0.231957,0.231956 16.474144,0.349143 36.09375,0.260417 L 83.4375,60.9375 83.601269,37.34375 Z M 36.09375,51.824938 c -1.574553,-0.917093 -1.345654,-3.255492 0.473504,-4.837229 0.861989,-0.74949 1.786897,-1.362709 2.055348,-1.362709 0.268453,0 1.591407,-0.5625 2.939898,-1.25 3.880547,-1.978416 9.056313,-1.70904 13.953548,0.726219 3.93966,1.959083 5.197365,3.488187 4.635693,5.636022 -0.48767,1.864853 -2.438864,1.940205 -5.394117,0.208311 -5.547843,-3.251251 -9.010424,-3.241555 -14.20841,0.03979 -2.68474,1.694802 -2.913238,1.737861 -4.455464,0.839597 z m -6.875,-8.125 c -1.386477,-0.807548 -1.366023,-2.406905 0.05132,-4.012438 1.426552,-1.615971 2.674951,-2.391569 7.535131,-4.681387 3.676116,-1.73196 4.532455,-1.881113 10.800083,-1.881113 5.921863,0 7.313071,0.211714 10.694802,1.627536 7.809655,3.269651 11.351037,7.797075 7.228243,9.240837 -1.384725,0.484916 -2.056731,0.277386 -4.062503,-1.254584 -4.126841,-3.152004 -7.014859,-4.1664 -12.725876,-4.469876 -4.73672,-0.251702 -5.761384,-0.09813 -9.309527,1.395261 -2.192835,0.922952 -4.358238,2.008896 -4.812006,2.41321 -2.895506,2.579936 -3.463106,2.750495 -5.399663,1.622554 z m -7.298568,-8.332997 c -0.664894,-0.801149 -0.673588,-1.349835 -0.04542,-2.866376 0.427287,-1.031561 1.1302,-1.875565 1.562031,-1.875565 0.431831,0 1.127846,-0.412926 1.546699,-0.917614 1.09268,-1.316599 5.314403,-3.573834 10.016504,-5.355537 3.652274,-1.383908 4.97762,-1.536972 13.125,-1.51581 9.210225,0.02393 11.623172,0.526867 17.1875,3.582486 0.6875,0.377537 1.953125,1.042256 2.8125,1.477155 2.723187,1.378104 6.365225,5.106924 6.138412,6.28467 -0.117181,0.608476 -0.984324,1.377561 -1.926993,1.709078 -1.404625,0.49398 -2.023888,0.351204 -3.431425,-0.791144 C 67.960369,34.331637 66.695312,33.541218 66.09375,33.341796 65.492187,33.142374 65,32.751206 65,32.472534 65,32.193862 62.702975,31.08003 59.895495,29.997352 55.251468,28.206426 54.166126,28.030877 47.864245,28.051367 41.229364,28.072938 39.926276,28.282594 35,30.121111 c -2.611912,0.974782 -6.938591,3.571169 -7.8125,4.688185 -1.046956,1.338203 -4.330968,1.685878 -5.267318,0.557645 z"
       id="path4576"
       inkscape:connector-curvature="0" />
    <path
       style="fill-opacity:1"
       d="m 27,83.625 c -0.964063,-0.964062 -0.964063,-3.160937 0,-4.125 0.510869,-0.510869 3.5,-0.75 9.375,-0.75 l 8.625,0 0,-5.3125 0,-5.3125 -18.953554,0 -18.9535535,0 -1.3589463,-1.446531 C 4.3801421,65.237412 4.375,65.125244 4.375,37.035611 4.375,12.235921 4.4933126,8.7209731 5.3571429,7.8571431 6.2300874,6.9841981 10.868533,6.8759488 47.075893,6.8835344 69.481025,6.8882281 88.445312,7.0616556 89.21875,7.2689287 l 1.40625,0.3768607 0,29.2666646 0,29.266665 -1.389069,0.972943 c -1.181712,0.827701 -4.167194,0.972938 -20,0.972938 l -18.610931,0 0,5.3125 0,5.3125 8.625,0 c 5.875,0 8.864131,0.239131 9.375,0.75 1.1482,1.1482 0.892412,3.504806 -0.458913,4.228013 C 66.349681,84.700125 27.979107,84.604106 27,83.625 Z M 83.75,37.5 l 0,-23.75 -36.25,0 -36.25,0 0,23.75 0,23.75 36.25,0 36.25,0 0,-23.75 z M 36.09375,51.824938 c -1.569989,-0.914435 -1.347819,-3.008636 0.500951,-4.722019 0.877086,-0.812855 1.808634,-1.477919 2.070107,-1.477919 0.261473,0 1.639646,-0.5625 3.062607,-1.25 3.680353,-1.778153 8.614524,-1.660456 12.785313,0.304975 C 59.149864,46.865166 60,47.669333 60,49.870534 c 0,2.865468 -1.716221,3.065687 -5.716935,0.666955 -4.659446,-2.793692 -8.425027,-2.807229 -12.911918,-0.04642 -3.604403,2.217811 -3.712743,2.245195 -5.277397,1.333867 z m -6.875,-8.125 c -1.983656,-1.155373 -0.884044,-3.954825 2.374272,-6.044552 5.198897,-3.334324 8.048424,-4.150097 15.338131,-4.391059 6.711265,-0.221842 7.531289,-0.118376 11.157206,1.407751 2.152454,0.905955 4.236559,1.908616 4.631347,2.228135 0.394788,0.319519 1.631856,1.313309 2.749044,2.208424 2.427475,1.944943 2.614356,3.777481 0.484206,4.748043 -1.328881,0.605478 -1.923812,0.451104 -4.218752,-1.094694 -4.913116,-3.309321 -7.416511,-4.172671 -12.994258,-4.48135 -4.764621,-0.263679 -5.747347,-0.116123 -9.375,1.407657 -2.228845,0.936216 -4.193071,1.888032 -4.364946,2.115146 -0.492757,0.651124 -3.653566,2.573592 -4.196761,2.552555 -0.269907,-0.01045 -0.982927,-0.305678 -1.584489,-0.656056 z m -7.298568,-8.332997 c -0.664894,-0.801149 -0.673588,-1.349835 -0.04542,-2.866376 0.427287,-1.031561 1.076198,-1.875565 1.442027,-1.875565 0.365829,0 1.24577,-0.521642 1.955425,-1.159205 C 26.754643,28.133967 30.069394,26.376954 35,24.3095 c 3.072506,-1.288334 4.432939,-1.441379 12.8125,-1.441379 9.561726,0 11.897669,0.473916 17.5,3.550404 0.6875,0.377537 1.953125,1.042256 2.8125,1.477155 2.38425,1.206581 6.25,4.962777 6.25,6.072874 0,1.072611 -1.814656,2.281446 -3.424819,2.281446 -0.55385,0 -1.710125,-0.703125 -2.5695,-1.5625 C 67.521306,33.828125 66.409094,33.125 65.909094,33.125 65.409094,33.125 65,32.875363 65,32.570251 c 0,-0.305111 -2.2864,-1.476399 -5.080895,-2.60286 -4.744001,-1.91231 -5.562793,-2.046759 -12.348708,-2.027709 -7.208753,0.02024 -10.356981,0.731364 -15.382897,3.474714 -0.6875,0.375265 -1.898535,1.022041 -2.691189,1.437278 -0.792654,0.415238 -1.777029,1.205317 -2.1875,1.755732 -1.121788,1.504245 -4.388444,1.964685 -5.388629,0.759535 z"
       id="path4574"
       inkscape:connector-curvature="0" />
    <path
       style="fill-opacity:1"
       d="m 27,83.625 c -0.964063,-0.964062 -0.964063,-3.160937 0,-4.125 0.510869,-0.510869 3.5,-0.75 9.375,-0.75 l 8.625,0 0,-5.3125 0,-5.3125 -18.953554,0 -18.9535535,0 -1.3589463,-1.446531 C 4.380219,65.237494 4.375,65.12385 4.375,37.087835 4.375,10.616033 4.4429139,8.8822731 5.5179629,7.9093675 6.5569156,6.9691281 10.371306,6.875 47.434051,6.875 c 26.91073,0 41.184143,0.2199694 41.982037,0.64699 C 90.584644,8.1473813 90.625,9.1372469 90.625,37.17405 l 0,29.005069 -1.389069,0.972943 c -1.181712,0.8277 -4.167194,0.972938 -20,0.972938 l -18.610931,0 0,5.3125 0,5.3125 8.625,0 c 5.875,0 8.864131,0.239131 9.375,0.75 1.1482,1.1482 0.892412,3.504806 -0.458913,4.228013 C 66.349681,84.700125 27.979107,84.604106 27,83.625 Z M 83.75,37.5 l 0,-23.75 -36.25,0 -36.25,0 0,23.75 0,23.75 36.25,0 36.25,0 0,-23.75 z M 36.09375,51.824938 c -1.569989,-0.914435 -1.347819,-3.008636 0.500951,-4.722019 0.877086,-0.812855 1.81825,-1.477919 2.091476,-1.477919 0.273227,0 1.454049,-0.492188 2.624049,-1.09375 3.183785,-1.636961 10.08116,-1.482504 13.689774,0.306562 4.0309,1.998426 5,2.90663 5,4.685812 0,3.071722 -1.38997,3.260833 -6.08999,0.82857 C 51.542946,49.127237 48.75286,48.125 47.709818,48.125 c -1.043042,0 -3.751389,0.984375 -6.018551,2.1875 -4.681062,2.484121 -4.167487,2.345354 -5.597517,1.512438 z m -6.875,-8.319967 C 28.617187,43.04832 28.134357,42.283827 28.145793,41.806098 28.169187,40.828871 30.257213,38.125 30.98847,38.125 c 0.261583,0 0.919625,-0.39525 1.462317,-0.878334 0.542692,-0.483084 2.793015,-1.608084 5.000718,-2.5 3.390604,-1.36981 4.984587,-1.621666 10.263462,-1.621666 5.262794,0 6.887074,0.255087 10.288077,1.615702 2.221242,0.888637 4.352683,1.868772 4.736537,2.178079 0.383856,0.309306 1.611981,1.294741 2.729169,2.189856 2.425612,1.94345 2.590125,3.506037 0.487594,4.631277 -1.389582,0.743684 -1.810644,0.645362 -4.218748,-0.985108 -5.04967,-3.419015 -8.518493,-4.577507 -13.787679,-4.604706 -3.872335,-0.01999 -5.654241,0.307404 -8.75,1.607653 -2.138079,0.898013 -4.028042,1.818572 -4.199917,2.045686 -0.493388,0.651957 -3.654028,2.573667 -4.196761,2.551684 -0.269907,-0.01093 -0.982927,-0.393501 -1.584489,-0.850152 z m -7.318859,-8.162479 c -0.41424,-0.499129 -0.578275,-1.458534 -0.364522,-2.132011 0.376191,-1.185272 3.701701,-4.071802 6.271207,-5.443382 0.690758,-0.368722 1.818424,-0.977438 2.505924,-1.352703 4.071947,-2.222635 8.153236,-3.305038 13.850003,-3.673173 8.692173,-0.561703 15.300664,0.59441 21.149997,3.700057 0.6875,0.365022 1.953125,1.019501 2.8125,1.4544 2.38425,1.206581 6.25,4.962777 6.25,6.072874 0,1.03858 -1.80055,2.281446 -3.30515,2.281446 -0.488025,0 -1.632881,-0.690959 -2.544119,-1.535465 C 67.6145,33.870029 64.690619,32.144404 62.02822,30.879812 52.737652,26.466953 40.812346,26.68224 32.1875,31.418525 31.5,31.796062 30.164062,32.49569 29.21875,32.973254 28.273437,33.450818 27.5,34.057058 27.5,34.320454 27.5,34.88982 24.669468,36.25 23.48462,36.25 c -0.457361,0 -1.170488,-0.408379 -1.584729,-0.907508 z"
       id="path4572"
       inkscape:connector-curvature="0" />
    <path
       style="fill-opacity:1"
       d="m 27,83.625 c -0.964063,-0.964062 -0.964063,-3.160937 0,-4.125 0.510869,-0.510869 3.5,-0.75 9.375,-0.75 l 8.625,0 0,-5.3125 0,-5.3125 -18.665713,0 C 8.3970594,68.125 7.6043025,68.074438 6.0217867,66.829638 L 4.375,65.534275 l 0,-27.940571 C 4.375,13.316848 4.502577,9.4709913 5.34794,8.2640662 L 6.32088,6.875 l 40.943148,0 c 27.027935,0 41.354016,0.2198906 42.15206,0.64699 C 90.584644,8.1473813 90.625,9.1372469 90.625,37.17405 l 0,29.005069 -1.389069,0.972943 c -1.181712,0.8277 -4.167194,0.972938 -20,0.972938 l -18.610931,0 0,5.3125 0,5.3125 8.625,0 c 5.875,0 8.864131,0.239131 9.375,0.75 1.1482,1.1482 0.892412,3.504806 -0.458913,4.228013 C 66.349681,84.700125 27.979107,84.604106 27,83.625 Z M 83.75,37.5 l 0,-23.75 -36.25,0 -36.25,0 0,23.75 0,23.75 36.25,0 36.25,0 0,-23.75 z M 36.40625,51.689063 C 33.421508,50.351726 35.143167,47.55578 40.625,44.837881 44.338266,42.996839 51.063477,42.899443 54.6875,44.634222 58.140619,46.287192 60,48.083107 60,49.76539 c 0,2.646679 -1.761383,2.785361 -6.105579,0.480717 -5.021198,-2.663799 -7.133388,-2.667986 -12.123763,-0.02404 -3.207614,1.699429 -4.224811,1.977599 -5.364408,1.466993 z m -7.1875,-8.184092 C 28.617187,43.04832 28.125,42.232344 28.125,41.691692 c 0,-1.514436 4.867361,-5.137433 9.326505,-6.942141 3.403529,-1.377479 4.971923,-1.624111 10.3125,-1.621657 6.526311,0.003 10.303393,1.015729 15.048495,4.034878 4.899181,3.117184 5.849187,5.129286 3.113144,6.593572 -1.432406,0.766601 -1.812781,0.675576 -4.218749,-1.009558 -1.454417,-1.018671 -4.175247,-2.506474 -6.046288,-3.30623 -2.970061,-1.26952 -4.120444,-1.416108 -9.0625,-1.154792 -4.194913,0.22181 -6.388844,0.665646 -8.473107,1.714123 -1.546875,0.778148 -2.953125,1.595191 -3.125,1.81565 -0.507706,0.651222 -3.663961,2.561167 -4.196761,2.539586 -0.269907,-0.01093 -0.982927,-0.393501 -1.584489,-0.850152 z m -7.319519,-8.459695 c -0.354612,-0.662598 -0.487742,-1.613877 -0.295844,-2.113954 0.380062,-0.990426 4.885182,-4.797711 5.703714,-4.82022 0.27797,-0.0076 1.208524,-0.563889 2.067899,-1.236102 0.859375,-0.672213 1.929493,-1.228459 2.37804,-1.236103 0.448547,-0.0076 2.032754,-0.568402 3.520459,-1.24613 5.312545,-2.420144 20.861488,-2.257606 25.706075,0.268712 1.00811,0.525701 2.254801,0.963807 2.770426,0.973568 0.515625,0.0098 1.640625,0.56774 2.5,1.239953 0.859375,0.672213 1.820156,1.228459 2.135069,1.236102 0.314912,0.0076 1.018037,0.416155 1.5625,0.907804 5.01875,4.531924 5.069769,4.624468 3.445287,6.248951 -1.391306,1.391306 -2.953937,1.219758 -4.843862,-0.531763 C 67.650556,33.903446 64.78885,32.185456 62.189653,30.918339 52.971514,26.424466 40.901462,26.625289 32.1875,31.41752 31.5,31.795609 30.164062,32.49569 29.21875,32.973254 28.273437,33.450818 27.5,34.057058 27.5,34.320454 27.5,34.902739 24.658272,36.25 23.430082,36.25 c -0.487356,0 -1.176239,-0.542126 -1.530851,-1.204724 z"
       id="path4570"
       inkscape:connector-curvature="0" />
    <path
       style="fill-opacity:1"
       d="m 27,83.625 c -0.964063,-0.964062 -0.964063,-3.160937 0,-4.125 0.510869,-0.510869 3.5,-0.75 9.375,-0.75 l 8.625,0 0,-5.3125 0,-5.3125 -18.665713,0 C 8.3970594,68.125 7.6043025,68.074438 6.0217867,66.829638 L 4.375,65.534275 l 0,-27.940571 C 4.375,13.316848 4.502577,9.4709913 5.34794,8.2640662 L 6.32088,6.875 l 40.943148,0 c 27.027935,0 41.354016,0.2198906 42.15206,0.64699 C 90.584644,8.1473813 90.625,9.1372469 90.625,37.17405 l 0,29.005069 -1.389069,0.972943 c -1.181712,0.8277 -4.167194,0.972938 -20,0.972938 l -18.610931,0 0,5.3125 0,5.3125 8.625,0 c 5.875,0 8.864131,0.239131 9.375,0.75 1.1482,1.1482 0.892412,3.504806 -0.458913,4.228013 C 66.349681,84.700125 27.979107,84.604106 27,83.625 Z M 83.75,37.5 l 0,-23.75 -36.25,0 -36.25,0 0,23.75 0,23.75 36.25,0 36.25,0 0,-23.75 z M 36.40625,51.703764 c -3.140174,-1.439807 -0.955306,-4.486985 5.124794,-7.147414 4.05864,-1.775912 8.285649,-1.802553 12.415593,-0.07825 C 57.987751,46.165319 60,47.92291 60,49.76539 c 0,2.646679 -1.761383,2.785361 -6.105579,0.480717 -5.119118,-2.715746 -7.385836,-2.717471 -12.271859,-0.0093 -3.124821,1.731971 -4.062976,1.995809 -5.216312,1.466991 z m -7.1875,-8.198793 C 28.617187,43.04832 28.125,42.233991 28.125,41.695351 c 0,-1.02521 3.478912,-4.190912 5.821955,-5.297799 5.948098,-2.809966 6.544954,-2.954941 13.028736,-3.164668 5.698128,-0.184313 7.090095,-0.02669 9.6107,1.088293 1.621128,0.717103 3.204393,1.303823 3.518366,1.303823 0.313972,0 1.473532,0.627756 2.576799,1.395012 5.231538,3.63822 6.045681,5.345177 3.173581,6.653794 -1.420643,0.647287 -1.931243,0.554466 -3.74573,-0.680928 -1.155476,-0.786708 -2.102788,-1.641316 -2.105136,-1.899128 -0.0023,-0.257813 -0.390394,-0.46875 -0.862322,-0.46875 -0.471928,0 -2.201368,-0.594213 -3.8432,-1.320473 -2.538388,-1.12285 -3.83643,-1.277286 -8.673199,-1.031906 -3.618221,0.183561 -6.370346,0.662668 -7.56305,1.316623 -1.03125,0.56543 -2.15625,1.041218 -2.5,1.057306 -0.34375,0.01609 -1.598751,0.861571 -2.788891,1.878851 -2.410368,2.060277 -2.972072,2.181077 -4.554859,0.97957 z m -7.349576,-8.515857 c -1.413471,-2.641095 3.44568,-6.540485 12.980967,-10.417016 3.912271,-1.590517 4.835708,-1.710764 12.962359,-1.687907 7.531391,0.02118 9.228739,0.216678 12.1875,1.403717 4.202044,1.685839 9.397519,4.413076 10.513394,5.518749 0.454237,0.450089 1.016737,0.827181 1.25,0.837984 0.887962,0.04113 2.588775,3.062627 2.238206,3.976192 -0.773944,2.016856 -3.579831,1.831061 -6.010513,-0.397991 -1.158018,-1.061962 -2.981,-2.21054 -4.866087,-3.065903 -7.322928,-3.322795 -6.923861,-3.238397 -15.3125,-3.238397 -8.388639,0 -7.989573,-0.0844 -15.3125,3.238397 -1.993615,0.904608 -3.601031,1.922117 -5.824259,3.686811 -2.195913,1.743012 -3.923569,1.795261 -4.806567,0.145364 z"
       id="path4568"
       inkscape:connector-curvature="0" />
    <path
       style="fill-opacity:1"
       d="m 27,83.625 c -0.964063,-0.964062 -0.964063,-3.160937 0,-4.125 0.511073,-0.511075 3.505407,-0.75 9.399333,-0.75 l 8.649333,0 L 44.868083,73.28125 44.6875,67.8125 25.625,67.65845 C 7.0750244,67.508544 6.5330931,67.468869 5.46875,66.182963 4.4633563,64.968269 4.375,62.620337 4.375,37.11826 4.375,10.208333 4.4125467,9.3374531 5.625,8.125 6.8491344,6.9008656 7.7083331,6.875 47.146812,6.875 c 24.653919,0 40.89355,0.2363831 41.875,0.6095306 l 1.603188,0.6095306 0,29.0410838 c 0,22.546528 -0.174712,29.154161 -0.78125,29.546717 C 89.414062,66.959963 80.484375,67.328125 70,67.5 l -19.0625,0.3125 -0.180583,5.46875 -0.180583,5.46875 8.649333,0 c 5.893927,0 8.888258,0.238925 9.399333,0.75 1.1482,1.1482 0.892412,3.504806 -0.458913,4.228013 C 66.349681,84.700125 27.979107,84.604106 27,83.625 Z M 83.75,37.5 l 0,-23.75 -36.25,0 -36.25,0 0,23.75 0,23.75 36.25,0 36.25,0 0,-23.75 z M 35.78125,51.461074 c -1.34596,-0.543106 -0.854048,-2.78625 0.917451,-4.183624 4.794915,-3.78227 12.540987,-5.034237 16.991073,-2.7462 1.17,0.601563 2.456912,1.09375 2.859804,1.09375 1.35441,0 3.561087,2.948311 3.345656,4.470085 -0.305477,2.157859 -2.623461,2.212458 -5.726413,0.134883 -3.712788,-2.48589 -8.992722,-2.516417 -12.750151,-0.07372 -2.541242,1.652058 -3.961949,1.980892 -5.63742,1.304824 z m -6.5625,-7.956103 C 28.617187,43.04832 28.125,42.262541 28.125,41.758794 28.125,40.684691 30.684859,38.125 31.759032,38.125 32.166564,38.125 32.5,37.891242 32.5,37.605539 c 0,-0.285703 1.757812,-1.340391 3.90625,-2.34375 3.638276,-1.69914 4.42076,-1.823827 11.40625,-1.817551 6.957321,0.0063 7.748727,0.132646 10.9375,1.746827 6.445581,3.262804 8.75,4.956976 8.75,6.432862 0,0.442856 -0.611475,1.233487 -1.358831,1.756956 -1.24005,0.868566 -1.567857,0.834287 -3.750001,-0.392148 C 61.076026,42.249584 60,41.415363 60,41.134912 60,40.854461 59.630952,40.625 59.179893,40.625 c -0.451058,0 -2.036408,-0.587653 -3.522999,-1.305896 -2.315566,-1.11876 -3.563883,-1.269417 -8.711144,-1.051332 -6.284539,0.26627 -9.012399,1.174858 -13.756927,4.582119 -2.442836,1.754311 -2.507879,1.765044 -3.970073,0.65508 z m -6.986607,-8.237114 c -1.351488,-1.351488 -1.256732,-1.772113 0.880711,-3.909558 2.279942,-2.279941 6.4993,-4.697417 11.887146,-6.810722 3.652179,-1.432516 4.946269,-1.595929 12.8125,-1.617919 7.608244,-0.02127 9.198547,0.155729 12.1875,1.356448 4.20685,1.68997 9.399019,4.416365 10.513394,5.520551 0.454237,0.450089 1.016737,0.827181 1.25,0.837984 0.233256,0.0108 0.914869,0.694633 1.514693,1.519625 2.108369,2.899833 -0.583593,5.009686 -3.895618,3.053226 C 68.347112,34.605891 67.5,33.88488 67.5,33.615245 67.5,33.345611 67.112562,33.125 66.639025,33.125 c -0.473531,0 -1.173038,-0.376022 -1.554462,-0.835606 -0.381419,-0.459582 -2.736168,-1.646597 -5.232776,-2.63781 -4.115543,-1.633969 -5.239415,-1.802206 -12.039287,-1.802206 -6.799872,0 -7.923744,0.168237 -12.039287,1.802206 -2.496608,0.991213 -4.851358,2.178228 -5.232778,2.63781 -0.38142,0.459584 -0.970016,0.835606 -1.307991,0.835606 -0.337974,0 -1.450116,0.703125 -2.471425,1.5625 -2.155172,1.813458 -3.166215,1.943019 -4.528876,0.580357 z"
       id="path4566"
       inkscape:connector-curvature="0" />
  </g>
</svg>
