<?xml version="1.0" encoding="UTF-8" standalone="no"?>
<!-- Created with Inkscape (http://www.inkscape.org/) -->

<svg
   xmlns:dc="http://purl.org/dc/elements/1.1/"
   xmlns:cc="http://creativecommons.org/ns#"
   xmlns:rdf="http://www.w3.org/1999/02/22-rdf-syntax-ns#"
   xmlns:svg="http://www.w3.org/2000/svg"
   xmlns="http://www.w3.org/2000/svg"
   xmlns:xlink="http://www.w3.org/1999/xlink"
   xmlns:sodipodi="http://sodipodi.sourceforge.net/DTD/sodipodi-0.dtd"
   xmlns:inkscape="http://www.inkscape.org/namespaces/inkscape"
   id="svg4652"
   version="1.1"
   inkscape:version="0.91 r13725"
   width="63.125"
   height="89.375"
   viewBox="0 0 63.125 89.375"
   sodipodi:docname="Tablet.svg">
  <metadata
     id="metadata4658">
    <rdf:RDF>
      <cc:Work
         rdf:about="">
        <dc:format>image/svg+xml</dc:format>
        <dc:type
           rdf:resource="http://purl.org/dc/dcmitype/StillImage" />
        <dc:title></dc:title>
      </cc:Work>
    </rdf:RDF>
  </metadata>
  <defs
     id="defs4656" />
  <sodipodi:namedview
     pagecolor="#ffffff"
     bordercolor="#666666"
     borderopacity="1"
     objecttolerance="10"
     gridtolerance="10"
     guidetolerance="10"
     inkscape:pageopacity="0"
     inkscape:pageshadow="2"
     inkscape:window-width="640"
     inkscape:window-height="480"
     id="namedview4654"
     showgrid="false"
     inkscape:zoom="2.6405594"
     inkscape:cx="31.5625"
     inkscape:cy="44.6875"
     inkscape:window-x="0"
     inkscape:window-y="0"
     inkscape:window-maximized="0"
     inkscape:current-layer="svg4652" />
  <image
     width="63.125"
     height="89.375"
     preserveAspectRatio="none"
     style="image-rendering:optimizeQuality"
     xlink:href="file:///media/havoc/USB%20DISK/pics/_legend/Tablet.png"
     id="image4660"
     x="0"
     y="0"
     sodipodi:absref="/media/havoc/USB DISK/pics/_legend/Tablet.png" />
  <g
     id="g4662">
    <path
       style="fill-opacity:1"
       d="M 7.8125,81.765388 C 7.125,81.368806 6.3558694,80.739044 6.1033205,80.365913 5.8507717,79.992788 5.6398342,63.883138 5.6345705,44.56669 L 5.625,9.44588 7.0140662,8.47294 C 8.2108538,7.6346775 11.621901,7.5 31.656204,7.5 l 23.253071,0 1.310571,1.6661206 c 1.299765,1.6523834 1.309156,1.9510774 1.139112,36.2280154 -0.159769,32.205564 -0.247504,34.637964 -1.286881,35.677633 -1.024453,1.024737 -2.98693,1.127918 -24.0625,1.2652 C 15.566383,82.444075 8.7082131,82.282094 7.8125,81.765387 Z M 33.096449,79.7219 c 0.412228,-0.4967 0.657603,-1.551388 0.545279,-2.34375 C 33.26721,74.73625 28.75,75.381156 28.75,78.076525 c 0,2.299063 2.894549,3.394813 4.346449,1.645375 z M 54.375,45 l 0,-28.75 -23.125,0 -23.125,0 0,28.75 0,28.75 23.125,0 23.125,0 0,-28.75 z"
       id="path4678"
       inkscape:connector-curvature="0" />
    <path
       style="fill-opacity:1"
       d="M 7.8125,81.765388 C 7.125,81.368806 6.3558694,80.739044 6.1033205,80.365913 5.8507717,79.992788 5.6398342,63.883138 5.6345705,44.56669 L 5.625,9.44588 7.0140662,8.47294 C 8.2107194,7.6347719 11.617012,7.5 31.604699,7.5 c 22.793553,0 23.222504,0.023136 24.392183,1.3156175 1.140912,1.2606935 1.190618,2.7731155 1.190618,36.2276785 0,32.674429 -0.07149,34.983592 -1.115423,36.028135 -1.024587,1.025181 -2.984161,1.128244 -24.0625,1.265538 C 15.566383,82.444075 8.7082131,82.282094 7.8125,81.765387 Z M 33.096449,79.7219 c 0.412228,-0.4967 0.657603,-1.551388 0.545279,-2.34375 C 33.26721,74.73625 28.75,75.381156 28.75,78.076525 c 0,2.299063 2.894549,3.394813 4.346449,1.645375 z M 54.375,45 l 0,-28.75 -23.125,0 -23.125,0 0,28.75 0,28.75 23.125,0 23.125,0 0,-28.75 z"
       id="path4676"
       inkscape:connector-curvature="0" />
    <path
       style="fill-opacity:1"
       d="M 7.8125,81.765388 C 7.125,81.368806 6.3558694,80.739044 6.1033205,80.365913 5.8507717,79.992788 5.6398342,64.007812 5.6345705,44.84375 5.6252271,10.826726 5.6546583,9.9703419 6.875,8.75 8.0798194,7.5451806 8.9583331,7.5 31.18076,7.5 c 21.769332,0 23.138087,0.066664 24.53125,1.1947794 l 1.47549,1.1947794 0,35.0328992 c 0,32.790411 -0.0714,35.104342 -1.115423,36.148973 -1.024587,1.025181 -2.984161,1.128244 -24.0625,1.265538 C 15.566383,82.444075 8.7082131,82.282094 7.8125,81.765387 Z M 33.096449,79.7219 c 0.412228,-0.4967 0.657603,-1.551388 0.545279,-2.34375 C 33.26721,74.73625 28.75,75.381156 28.75,78.076525 c 0,2.299063 2.894549,3.394813 4.346449,1.645375 z M 54.375,45 l 0,-28.75 -23.125,0 -23.125,0 0,28.75 0,28.75 23.125,0 23.125,0 0,-28.75 z"
       id="path4674"
       inkscape:connector-curvature="0" />
    <path
       style="fill-opacity:1"
       d="M 8.1426438,81.815837 C 7.2929731,81.470381 6.3832175,80.850181 6.1209645,80.437619 5.8587116,80.02505 5.6398342,64.007812 5.6345705,44.84375 5.6252271,10.826726 5.6546583,9.9703419 6.875,8.75 8.0798194,7.5451806 8.9583331,7.5 31.18076,7.5 c 21.769332,0 23.138087,0.066664 24.53125,1.1947794 l 1.47549,1.1947794 0,35.0328992 c 0,32.790248 -0.0714,35.104348 -1.11541,36.148973 -1.024762,1.025369 -2.95488,1.126488 -23.75,1.244294 C 18.289172,82.395219 9.1004188,82.20525 8.1426438,81.815837 Z M 33.096449,79.7219 c 0.412228,-0.4967 0.657603,-1.551388 0.545279,-2.34375 C 33.26721,74.73625 28.75,75.381156 28.75,78.076525 c 0,2.299063 2.894549,3.394813 4.346449,1.645375 z M 54.375,45 l 0,-28.75 -23.125,0 -23.125,0 0,28.75 0,28.75 23.125,0 23.125,0 0,-28.75 z"
       id="path4672"
       inkscape:connector-curvature="0" />
    <path
       style="fill-opacity:1"
       d="M 8.75,82.071594 C 8.234375,81.873756 7.3203125,81.283125 6.71875,80.759075 5.7015148,79.872919 5.625,77.364569 5.625,44.903132 5.625,10.833333 5.6548445,9.9701556 6.875,8.75 8.0798194,7.5451806 8.9583331,7.5 31.18076,7.5 c 21.770054,0 23.138041,0.066632 24.53125,1.19488 l 1.47549,1.1948806 0,35.0329074 c 0,32.789182 -0.07143,35.104382 -1.115318,36.14887 -1.024884,1.025475 -2.950628,1.125843 -23.75,1.237862 C 19.873107,82.376444 9.265625,82.269431 8.75,82.071594 Z M 33.096449,79.7219 c 0.412228,-0.4967 0.657603,-1.551388 0.545279,-2.34375 C 33.26721,74.73625 28.75,75.381156 28.75,78.076525 c 0,2.299063 2.894549,3.394813 4.346449,1.645375 z M 54.849992,44.84375 54.6875,15.9375 31.40625,15.773643 8.125,15.609786 l 0,29.070107 0,29.070107 23.443742,0 23.443742,0 -0.162492,-28.90625 z"
       id="path4670"
       inkscape:connector-curvature="0" />
    <path
       style="fill-opacity:1"
       d="M 6.6593675,80.732037 C 5.7229513,79.697306 5.625,76.294144 5.625,44.794537 5.625,10.833333 5.6549376,9.9700625 6.875,8.75 8.0796825,7.5453175 8.9583331,7.5 31.110934,7.5 c 19.792522,0 23.178915,0.1351694 24.375,0.97294 l 1.389066,0.97294 0,35.46456 c 0,26.750216 -0.18429,35.648847 -0.75,36.21456 -0.557118,0.557119 -6.881252,0.75 -24.590632,0.75 -22.3026736,0 -23.9073605,-0.07373 -24.8750005,-1.142963 z M 33.096449,79.7219 c 0.412228,-0.4967 0.657603,-1.551388 0.545279,-2.34375 C 33.26721,74.73625 28.75,75.381156 28.75,78.076525 c 0,2.299063 2.894549,3.394813 4.346449,1.645375 z M 54.849992,44.84375 54.6875,15.9375 31.40625,15.773643 8.125,15.609786 l 0,29.070107 0,29.070107 23.443742,0 23.443742,0 -0.162492,-28.90625 z"
       id="path4668"
       inkscape:connector-curvature="0" />
    <path
       style="fill-opacity:1"
       d="M 6.6593675,80.732037 C 5.7229513,79.697306 5.625,76.294144 5.625,44.794537 5.625,10.833333 5.6549376,9.9700625 6.875,8.75 8.0796825,7.5453175 8.9583331,7.5 31.110934,7.5 c 19.792522,0 23.178915,0.1351694 24.375,0.97294 l 1.389066,0.97294 0,35.232417 c 0,31.196134 -0.112516,35.344934 -0.982143,36.214559 C 55.034668,81.751044 51.931154,81.875 31.302224,81.875 9.2244481,81.875 7.6266687,81.800894 6.6593675,80.732037 Z M 33.096449,79.7219 c 0.412228,-0.4967 0.657603,-1.551388 0.545279,-2.34375 C 33.26721,74.73625 28.75,75.381156 28.75,78.076525 c 0,2.299063 2.894549,3.394813 4.346449,1.645375 z M 54.849992,44.84375 54.6875,15.9375 31.40625,15.773643 8.125,15.609786 l 0,29.070107 0,29.070107 23.443742,0 23.443742,0 -0.162492,-28.90625 z"
       id="path4666"
       inkscape:connector-curvature="0" />
    <path
       style="fill-opacity:1"
       d="M 6.6593675,80.732037 C 5.7229513,79.697306 5.625,76.294144 5.625,44.794537 5.625,10.833333 5.6549376,9.9700625 6.875,8.75 8.0796825,7.5453175 8.9583331,7.5 31.110934,7.5 c 19.792522,0 23.178915,0.1351694 24.375,0.97294 l 1.389066,0.97294 0,35.232417 c 0,31.196134 -0.112516,35.344934 -0.982143,36.214559 C 55.034668,81.751044 51.931154,81.875 31.302224,81.875 9.2244481,81.875 7.6266687,81.800894 6.6593675,80.732037 Z M 33.096449,79.7219 c 0.412228,-0.4967 0.657603,-1.551388 0.545279,-2.34375 C 33.26721,74.73625 28.75,75.381156 28.75,78.076525 c 0,2.299063 2.894549,3.394813 4.346449,1.645375 z M 55,44.6875 55,15.625 l -23.4375,0 -23.4375,0 0,29.0625 0,29.0625 23.4375,0 23.4375,0 0,-29.0625 z"
       id="path4664"
       inkscape:connector-curvature="0" />
  </g>
</svg>
