<?xml version="1.0" encoding="UTF-8" standalone="no"?>
<!-- Created with Inkscape (http://www.inkscape.org/) -->

<svg
   xmlns:dc="http://purl.org/dc/elements/1.1/"
   xmlns:cc="http://creativecommons.org/ns#"
   xmlns:rdf="http://www.w3.org/1999/02/22-rdf-syntax-ns#"
   xmlns:svg="http://www.w3.org/2000/svg"
   xmlns="http://www.w3.org/2000/svg"
   xmlns:xlink="http://www.w3.org/1999/xlink"
   xmlns:sodipodi="http://sodipodi.sourceforge.net/DTD/sodipodi-0.dtd"
   xmlns:inkscape="http://www.inkscape.org/namespaces/inkscape"
   id="svg4750"
   version="1.1"
   inkscape:version="0.91 r13725"
   width="95"
   height="89.375"
   viewBox="0 0 95 89.375"
   sodipodi:docname="Touch.svg">
  <metadata
     id="metadata4756">
    <rdf:RDF>
      <cc:Work
         rdf:about="">
        <dc:format>image/svg+xml</dc:format>
        <dc:type
           rdf:resource="http://purl.org/dc/dcmitype/StillImage" />
        <dc:title></dc:title>
      </cc:Work>
    </rdf:RDF>
  </metadata>
  <defs
     id="defs4754" />
  <sodipodi:namedview
     pagecolor="#ffffff"
     bordercolor="#666666"
     borderopacity="1"
     objecttolerance="10"
     gridtolerance="10"
     guidetolerance="10"
     inkscape:pageopacity="0"
     inkscape:pageshadow="2"
     inkscape:window-width="640"
     inkscape:window-height="480"
     id="namedview4752"
     showgrid="false"
     inkscape:zoom="2.6405594"
     inkscape:cx="47.5"
     inkscape:cy="44.6875"
     inkscape:window-x="0"
     inkscape:window-y="0"
     inkscape:window-maximized="0"
     inkscape:current-layer="svg4750" />
  <image
     width="95"
     height="89.375"
     preserveAspectRatio="none"
     style="image-rendering:optimizeQuality"
     xlink:href="file:///media/havoc/USB%20DISK/pics/_legend/Touch.png"
     id="image4758"
     x="0"
     y="0"
     sodipodi:absref="/media/havoc/USB DISK/pics/_legend/Touch.png" />
  <g
     id="g4760">
    <path
       style="fill-opacity:1"
       d="M 40.104666,71.4909 C 31.89522,59.114954 31.370642,57.647541 34.625684,56.164444 c 2.064152,-0.940491 3.604714,0.04624 6.108992,3.912827 L 42.8125,63.285412 42.976201,51.173956 C 43.152323,38.143608 43.322186,37.5 46.585089,37.5 49.266508,37.5 50,39.290447 50,45.835759 c 0,5.843088 0.04168,6.023805 1.219585,5.28819 1.928311,-1.20425 4.668686,0.03433 4.921023,2.224179 0.181946,1.578982 0.284698,1.651039 0.986241,0.691622 0.914903,-1.251206 3.708318,-1.412087 5.058727,-0.291347 0.51668,0.428809 0.939424,1.44834 0.939424,2.265625 0,1.133913 0.340575,1.485972 1.4375,1.485972 2.7648,0 2.9375,0.797366 2.9375,13.5625 l 0,12.0625 -9.84375,-0.0072 -9.84375,-0.0072 -7.707834,-11.619756 z M 8.7402488,70.092744 C 7.5424869,69.45625 5.9296875,68.008413 5.15625,66.875319 3.7514364,64.81725 3.7500024,64.787631 3.7523363,37.876323 3.7545719,12.097976 3.8081736,10.849751 4.9966237,8.9005375 5.6796969,7.7802081 7.1552081,6.3046969 8.2755375,5.6216237 10.246814,4.4197221 11.491539,4.3796726 46.875,4.3796726 c 35.383463,0 36.628187,0.040049 38.599463,1.2419511 1.120331,0.6830732 2.595837,2.1585844 3.278912,3.2789138 1.18845,1.9492135 1.24205,3.1974385 1.244288,28.9757855 C 90,64.787631 89.998563,64.81725 88.59375,66.875319 86.217637,70.356344 83.729975,71.25 76.416,71.25 l -6.416,0 0,-2.5 0,-2.5 6.517138,0 C 86.372463,66.25 85.625,68.567625 85.625,38.009676 85.625,11.129234 85.496262,9.9882525 82.368781,9.1504744 80.499863,8.649835 13.250139,8.649835 11.38122,9.1504744 8.2537381,9.9882525 8.125,11.129234 8.125,38.009676 c 0,24.228582 0.037,24.993787 1.2852719,26.580711 l 1.2852711,1.633957 12.620979,0.169075 12.620978,0.169081 0.193978,2.34375 0.193979,2.34375 -12.70373,0 C 12.458116,71.25 10.653981,71.1097 8.7402488,70.092744 Z M 31.320364,50.847658 c -2.304828,-3.479655 -2.789455,-5.716676 -2.468601,-11.394986 0.192628,-3.409055 0.626679,-4.910968 2.114948,-7.318185 2.409951,-3.898006 6.319654,-6.854385 10.793561,-8.161711 C 55.807605,19.867987 68.611306,34.655408 62.882169,48.367159 62.049528,50.359951 61.678248,50.625 59.719392,50.625 58.498726,50.625 57.5,50.473171 57.5,50.287601 c 0,-0.185569 0.521901,-1.380882 1.159779,-2.65625 C 61.415154,42.12228 60.723967,36.435527 56.778794,32.15552 53.646109,28.756959 50.773524,27.410714 46.654437,27.410714 38.484559,27.410714 32.5,33.256417 32.5,41.236738 c 0,3.197201 1.783346,8.015436 3.491374,9.432973 1.170474,0.971408 1.12154,2.230257 -0.104991,2.700921 -1.939587,0.744289 -2.668742,0.341391 -4.566019,-2.522974 z m 7.404677,-2.747617 c -2.97959,-2.97959 -3.401999,-8.945732 -0.894617,-12.635675 5.086445,-7.485378 16.149231,-5.440309 18.508092,3.421411 0.697761,2.621335 0.647635,3.279212 -0.452026,5.932582 -0.688299,1.660795 -1.713496,3.076107 -2.311653,3.191302 C 52.630849,48.191456 52.5,47.609149 52.5,43.226386 c 0,-4.805129 -0.07134,-5.050299 -1.922953,-6.608327 -2.774646,-2.33471 -6.304039,-2.237221 -8.783889,0.242629 -1.857551,1.857551 -1.859959,1.869672 -1.428474,7.1875 0.237718,2.929747 0.252913,5.326812 0.03377,5.326812 -0.219147,0 -0.97218,-0.573731 -1.673408,-1.274959 z"
       id="path4776"
       inkscape:connector-curvature="0" />
    <path
       style="fill-opacity:1"
       d="M 40.104666,71.4909 C 31.89522,59.114954 31.370642,57.647541 34.625684,56.164444 c 2.064152,-0.940491 3.604714,0.04624 6.108992,3.912827 L 42.8125,63.285412 42.976201,51.173956 C 43.152323,38.143608 43.322186,37.5 46.585089,37.5 49.266508,37.5 50,39.290447 50,45.835759 c 0,5.843088 0.04168,6.023805 1.219585,5.28819 1.928311,-1.20425 4.668686,0.03433 4.921023,2.224179 0.181946,1.578982 0.284698,1.651039 0.986241,0.691622 0.914903,-1.251206 3.708318,-1.412087 5.058727,-0.291347 0.51668,0.428809 0.939424,1.44834 0.939424,2.265625 0,1.133913 0.340575,1.485972 1.4375,1.485972 2.7648,0 2.9375,0.797366 2.9375,13.5625 l 0,12.0625 -9.84375,-0.0072 -9.84375,-0.0072 -7.707834,-11.619756 z M 8.7261813,69.84375 C 3.6688142,67.293469 3.7517488,67.832875 3.7533076,37.5 3.754613,12.096238 3.8088503,10.848641 4.9966237,8.9005375 5.6796969,7.7802081 7.1552081,6.3046969 8.2755375,5.6216237 10.246814,4.4197221 11.491539,4.3796726 46.875,4.3796726 c 35.383463,0 36.628187,0.040049 38.599463,1.2419511 1.120331,0.6830732 2.595837,2.1585844 3.278912,3.2789138 1.187775,1.9481035 1.242013,3.1957005 1.243319,28.5994625 0.0012,30.332875 0.08449,29.793469 -4.972875,32.34375 C 82.698444,71.016369 81.218775,71.25 76.117569,71.25 L 70,71.25 l 0,-2.525131 0,-2.525132 6.373981,0.100157 c 6.191656,0.09729 6.415132,0.05231 7.8125,-1.572225 l 1.438519,-1.672375 0,-25.618555 0,-25.618557 L 84.090906,10.284091 82.556819,8.75 46.875,8.75 11.193182,8.75 9.6590906,10.284091 8.125,11.818182 l 0,25.618557 0,25.618555 1.4151531,1.645212 1.4151539,1.645219 12.334846,-0.06794 12.334847,-0.06794 0,2.520075 0,2.520075 -12.055069,0 c -11.25861,0 -12.239312,-0.09291 -14.8437498,-1.40625 z M 31.320364,50.847658 c -2.304828,-3.479655 -2.789455,-5.716676 -2.468601,-11.394986 0.192628,-3.409055 0.626679,-4.910968 2.114948,-7.318185 2.409951,-3.898006 6.319654,-6.854385 10.793561,-8.161711 C 55.807605,19.867987 68.611306,34.655408 62.882169,48.367159 62.049528,50.359951 61.678248,50.625 59.719392,50.625 58.498726,50.625 57.5,50.473171 57.5,50.287601 c 0,-0.185569 0.521901,-1.380882 1.159779,-2.65625 C 61.415154,42.12228 60.723967,36.435527 56.778794,32.15552 53.646109,28.756959 50.773524,27.410714 46.654437,27.410714 38.484559,27.410714 32.5,33.256417 32.5,41.236738 c 0,3.197201 1.783346,8.015436 3.491374,9.432973 1.170474,0.971408 1.12154,2.230257 -0.104991,2.700921 -1.939587,0.744289 -2.668742,0.341391 -4.566019,-2.522974 z m 7.404677,-2.747617 c -2.97959,-2.97959 -3.401999,-8.945732 -0.894617,-12.635675 5.086445,-7.485378 16.149231,-5.440309 18.508092,3.421411 0.697761,2.621335 0.647635,3.279212 -0.452026,5.932582 -0.688299,1.660795 -1.713496,3.076107 -2.311653,3.191302 C 52.630849,48.191456 52.5,47.609149 52.5,43.226386 c 0,-4.805129 -0.07134,-5.050299 -1.922953,-6.608327 -2.774646,-2.33471 -6.304039,-2.237221 -8.783889,0.242629 -1.857551,1.857551 -1.859959,1.869672 -1.428474,7.1875 0.237718,2.929747 0.252913,5.326812 0.03377,5.326812 -0.219147,0 -0.97218,-0.573731 -1.673408,-1.274959 z"
       id="path4774"
       inkscape:connector-curvature="0" />
    <path
       style="fill-opacity:1"
       d="M 40.104666,71.4909 C 31.89522,59.114954 31.370642,57.647541 34.625684,56.164444 c 2.064152,-0.940491 3.604714,0.04624 6.108992,3.912827 L 42.8125,63.285412 42.976201,51.173956 C 43.152323,38.143608 43.322186,37.5 46.585089,37.5 49.266508,37.5 50,39.290447 50,45.835759 c 0,5.843088 0.04168,6.023805 1.219585,5.28819 1.928311,-1.20425 4.668686,0.03433 4.921023,2.224179 0.181946,1.578982 0.284698,1.651039 0.986241,0.691622 0.914903,-1.251206 3.708318,-1.412087 5.058727,-0.291347 0.51668,0.428809 0.939424,1.44834 0.939424,2.265625 0,1.133913 0.340575,1.485972 1.4375,1.485972 2.7648,0 2.9375,0.797366 2.9375,13.5625 l 0,12.0625 -9.84375,-0.0072 -9.84375,-0.0072 -7.707834,-11.619756 z M 8.7578875,69.828175 C 3.6598872,67.132288 3.7496808,67.712037 3.7523363,37.509751 3.7545706,12.097186 3.8088747,10.848601 4.9966237,8.9005375 5.6796969,7.7802081 7.1552081,6.3046969 8.2755375,5.6216237 10.246814,4.4197221 11.491539,4.3796726 46.875,4.3796726 c 35.383463,0 36.628187,0.040049 38.599463,1.2419511 1.120331,0.6830732 2.595837,2.1585844 3.278912,3.2789138 1.18775,1.9480635 1.242056,3.1966485 1.244288,28.6092135 0.0025,30.202286 0.09245,29.622537 -5.00555,32.318424 C 82.721575,71.028863 81.346613,71.25 76.1517,71.25 l -6.1517,0 0,-2.128931 0,-2.128938 6.305081,-0.214812 c 6.012657,-0.204857 6.375,-0.29615 7.8125,-1.968419 l 1.507419,-1.753606 0,-25.618555 0,-25.618557 L 84.090906,10.284091 82.556819,8.75 46.875,8.75 11.193182,8.75 9.6590906,10.284091 8.125,11.818182 l 0,25.618557 0,25.618555 1.5071206,1.753606 1.5071214,1.7536 12.242879,0.193394 12.242879,0.193387 0,2.150363 0,2.150356 -12.089198,0 C 12.164206,71.25 11.287005,71.1656 8.7578875,69.828175 Z M 31.320364,50.847658 c -2.304828,-3.479655 -2.789455,-5.716676 -2.468601,-11.394986 0.192628,-3.409055 0.626679,-4.910968 2.114948,-7.318185 2.409951,-3.898006 6.319654,-6.854385 10.793561,-8.161711 C 55.807605,19.867987 68.611306,34.655408 62.882169,48.367159 62.049528,50.359951 61.678248,50.625 59.719392,50.625 58.498726,50.625 57.5,50.473171 57.5,50.287601 c 0,-0.185569 0.521901,-1.380882 1.159779,-2.65625 C 61.415154,42.12228 60.723967,36.435527 56.778794,32.15552 53.646109,28.756959 50.773524,27.410714 46.654437,27.410714 38.484559,27.410714 32.5,33.256417 32.5,41.236738 c 0,3.197201 1.783346,8.015436 3.491374,9.432973 1.170474,0.971408 1.12154,2.230257 -0.104991,2.700921 -1.939587,0.744289 -2.668742,0.341391 -4.566019,-2.522974 z m 7.404677,-2.747617 c -2.97959,-2.97959 -3.401999,-8.945732 -0.894617,-12.635675 5.086445,-7.485378 16.149231,-5.440309 18.508092,3.421411 0.697761,2.621335 0.647635,3.279212 -0.452026,5.932582 -0.688299,1.660795 -1.713496,3.076107 -2.311653,3.191302 C 52.630849,48.191456 52.5,47.609149 52.5,43.226386 c 0,-4.805129 -0.07134,-5.050299 -1.922953,-6.608327 -2.774646,-2.33471 -6.304039,-2.237221 -8.783889,0.242629 -1.857551,1.857551 -1.859959,1.869672 -1.428474,7.1875 0.237718,2.929747 0.252913,5.326812 0.03377,5.326812 -0.219147,0 -0.97218,-0.573731 -1.673408,-1.274959 z"
       id="path4772"
       inkscape:connector-curvature="0" />
    <path
       style="fill-opacity:1"
       d="M 40.104666,71.4909 C 31.89522,59.114954 31.370642,57.647541 34.625684,56.164444 c 2.064152,-0.940491 3.604714,0.04624 6.108992,3.912827 L 42.8125,63.285412 42.976201,51.173956 C 43.152323,38.143608 43.322186,37.5 46.585089,37.5 49.266508,37.5 50,39.290447 50,45.835759 c 0,5.843088 0.04168,6.023805 1.219585,5.28819 1.928311,-1.20425 4.668686,0.03433 4.921023,2.224179 0.181946,1.578982 0.284698,1.651039 0.986241,0.691622 0.914903,-1.251206 3.708318,-1.412087 5.058727,-0.291347 0.51668,0.428809 0.939424,1.44834 0.939424,2.265625 0,1.133913 0.340575,1.485972 1.4375,1.485972 2.7648,0 2.9375,0.797366 2.9375,13.5625 l 0,12.0625 -9.84375,-0.0072 -9.84375,-0.0072 -7.707834,-11.619756 z M 10.570983,70.652675 C 7.8639081,69.832294 5.7832851,68.158419 4.7413454,65.962694 3.8845882,64.157212 3.7503172,60.280204 3.7523363,37.405544 3.7545703,12.096961 3.8090776,10.848269 4.9966237,8.9005375 5.6796969,7.7802081 7.1552081,6.3046969 8.2755375,5.6216237 10.246814,4.4197221 11.491539,4.3796726 46.875,4.3796726 c 35.383463,0 36.628187,0.040049 38.599463,1.2419511 1.120331,0.6830732 2.595837,2.1585844 3.278912,3.2789138 1.18755,1.9477315 1.242056,3.1964235 1.244288,28.5050065 0.0025,29.5665 0.01863,29.446506 -4.28295,32.109544 -1.907838,1.181112 -3.367019,1.447368 -8.995963,1.641487 L 70,71.388281 l 0,-2.198075 0,-2.198075 6.305081,-0.214812 c 6.012657,-0.204857 6.375,-0.29615 7.8125,-1.968419 l 1.507419,-1.753606 0,-25.618555 0,-25.618557 L 84.090906,10.284091 82.556819,8.75 46.875,8.75 11.193182,8.75 9.6590906,10.284091 8.125,11.818182 l 0,25.618557 0,25.618555 1.5071206,1.753606 1.5071214,1.7536 12.242879,0.193394 12.242879,0.193387 0,2.150363 0,2.150356 -11.71875,-0.05372 C 17.460937,71.166719 11.460067,70.922112 10.570983,70.652675 Z M 31.320364,50.847658 c -2.304828,-3.479655 -2.789455,-5.716676 -2.468601,-11.394986 0.192628,-3.409055 0.626679,-4.910968 2.114948,-7.318185 2.409951,-3.898006 6.319654,-6.854385 10.793561,-8.161711 C 55.807605,19.867987 68.611306,34.655408 62.882169,48.367159 62.049528,50.359951 61.678248,50.625 59.719392,50.625 58.498726,50.625 57.5,50.473171 57.5,50.287601 c 0,-0.185569 0.521901,-1.380882 1.159779,-2.65625 C 61.415154,42.12228 60.723967,36.435527 56.778794,32.15552 53.646109,28.756959 50.773524,27.410714 46.654437,27.410714 38.484559,27.410714 32.5,33.256417 32.5,41.236738 c 0,3.197201 1.783346,8.015436 3.491374,9.432973 1.170474,0.971408 1.12154,2.230257 -0.104991,2.700921 -1.939587,0.744289 -2.668742,0.341391 -4.566019,-2.522974 z m 7.404677,-2.747617 c -2.97959,-2.97959 -3.401999,-8.945732 -0.894617,-12.635675 5.086445,-7.485378 16.149231,-5.440309 18.508092,3.421411 0.697761,2.621335 0.647635,3.279212 -0.452026,5.932582 -0.688299,1.660795 -1.713496,3.076107 -2.311653,3.191302 C 52.630849,48.191456 52.5,47.609149 52.5,43.226386 c 0,-4.805129 -0.07134,-5.050299 -1.922953,-6.608327 -2.774646,-2.33471 -6.304039,-2.237221 -8.783889,0.242629 -1.857551,1.857551 -1.859959,1.869672 -1.428474,7.1875 0.237718,2.929747 0.252913,5.326812 0.03377,5.326812 -0.219147,0 -0.97218,-0.573731 -1.673408,-1.274959 z"
       id="path4770"
       inkscape:connector-curvature="0" />
    <path
       style="fill-opacity:1"
       d="M 40.104666,71.4909 C 31.89522,59.114954 31.370642,57.647541 34.625684,56.164444 c 2.064152,-0.940491 3.604714,0.04624 6.108992,3.912827 L 42.8125,63.285412 42.976201,51.173956 C 43.152323,38.143608 43.322186,37.5 46.585089,37.5 49.266508,37.5 50,39.290447 50,45.835759 c 0,5.843088 0.04168,6.023805 1.219585,5.28819 1.928311,-1.20425 4.668686,0.03433 4.921023,2.224179 0.181946,1.578982 0.284698,1.651039 0.986241,0.691622 0.914903,-1.251206 3.708318,-1.412087 5.058727,-0.291347 0.51668,0.428809 0.939424,1.44834 0.939424,2.265625 0,1.133913 0.340575,1.485972 1.4375,1.485972 2.7648,0 2.9375,0.797366 2.9375,13.5625 l 0,12.0625 -9.84375,-0.0072 -9.84375,-0.0072 -7.707834,-11.619756 z M 10.232175,70.570437 C 7.6519294,69.82245 4.4778186,66.509731 4.0399177,64.107775 3.8473709,63.051625 3.7736828,50.465596 3.8761663,36.138823 4.0564969,10.929349 4.1042022,10.033322 5.3569281,8.3263231 8.3331456,4.2708478 7.2178187,4.3769425 46.875,4.3769425 c 39.6581,0 38.542544,-0.1061366 41.518075,3.9501388 1.263069,1.7218397 1.294425,2.4333677 1.294425,29.3749997 0,26.638419 -0.044,27.669069 -1.25,29.276419 -2.380462,3.172675 -4.452119,3.909775 -11.71875,4.169569 L 70,71.388281 70,69.131637 70,66.875 l 5.271812,0 c 5.61475,0 8.189382,-0.641769 9.501125,-2.368319 0.635263,-0.83615 0.816638,-6.694536 0.832188,-26.87884 L 85.625,11.818182 84.090906,10.284091 82.556819,8.75 46.875,8.75 11.193182,8.75 9.6590906,10.284091 8.125,11.818182 8.144875,37.627841 c 0.021412,27.807109 -0.037019,27.308703 3.352995,28.59759 0.951544,0.361775 6.674846,0.649569 12.917817,0.649569 l 11.209313,0 0,2.1875 0,2.1875 -11.71875,-0.05638 c -6.445313,-0.031 -12.598646,-0.311438 -13.674075,-0.623194 z M 31.320364,50.847658 c -2.304828,-3.479655 -2.789455,-5.716676 -2.468601,-11.394986 0.192628,-3.409055 0.626679,-4.910968 2.114948,-7.318185 2.409951,-3.898006 6.319654,-6.854385 10.793561,-8.161711 C 55.807605,19.867987 68.611306,34.655408 62.882169,48.367159 62.049528,50.359951 61.678248,50.625 59.719392,50.625 58.498726,50.625 57.5,50.473171 57.5,50.287601 c 0,-0.185569 0.521901,-1.380882 1.159779,-2.65625 C 61.415154,42.12228 60.723967,36.435527 56.778794,32.15552 53.646109,28.756959 50.773524,27.410714 46.654437,27.410714 38.484559,27.410714 32.5,33.256417 32.5,41.236738 c 0,3.197201 1.783346,8.015436 3.491374,9.432973 1.170474,0.971408 1.12154,2.230257 -0.104991,2.700921 -1.939587,0.744289 -2.668742,0.341391 -4.566019,-2.522974 z m 7.404677,-2.747617 c -2.97959,-2.97959 -3.401999,-8.945732 -0.894617,-12.635675 5.086445,-7.485378 16.149231,-5.440309 18.508092,3.421411 0.697761,2.621335 0.647635,3.279212 -0.452026,5.932582 -0.688299,1.660795 -1.713496,3.076107 -2.311653,3.191302 C 52.630849,48.191456 52.5,47.609149 52.5,43.226386 c 0,-4.805129 -0.07134,-5.050299 -1.922953,-6.608327 -2.774646,-2.33471 -6.304039,-2.237221 -8.783889,0.242629 -1.857551,1.857551 -1.859959,1.869672 -1.428474,7.1875 0.237718,2.929747 0.252913,5.326812 0.03377,5.326812 -0.219147,0 -0.97218,-0.573731 -1.673408,-1.274959 z"
       id="path4768"
       inkscape:connector-curvature="0" />
    <path
       style="fill-opacity:1"
       d="M 40.104666,71.4909 C 31.89522,59.114954 31.370642,57.647541 34.625684,56.164444 c 2.064152,-0.940491 3.604714,0.04624 6.108992,3.912827 L 42.8125,63.285412 42.976201,51.173956 C 43.152323,38.143608 43.322186,37.5 46.585089,37.5 49.266508,37.5 50,39.290447 50,45.835759 c 0,5.843088 0.04168,6.023805 1.219585,5.28819 1.928311,-1.20425 4.668686,0.03433 4.921023,2.224179 0.181946,1.578982 0.284698,1.651039 0.986241,0.691622 0.914903,-1.251206 3.708318,-1.412087 5.058727,-0.291347 0.51668,0.428809 0.939424,1.44834 0.939424,2.265625 0,1.133913 0.340575,1.485972 1.4375,1.485972 2.7648,0 2.9375,0.797366 2.9375,13.5625 l 0,12.0625 -9.84375,-0.0072 -9.84375,-0.0072 -7.707834,-11.619756 z M 10.9375,70.668481 C 7.9465969,69.944981 6.3056288,68.623094 4.9631407,65.855819 3.7608156,63.377463 3.717729,62.209847 3.8865944,36.682171 4.0560238,11.069217 4.1092607,10.027598 5.3326136,8.3897538 6.0311761,7.4545069 7.5736631,6.1685862 8.7603625,5.5321524 10.788667,4.4443607 13.07329,4.375 46.875,4.375 c 33.801713,0 36.086331,0.069361 38.114637,1.1571524 1.1867,0.6364338 2.729188,1.9223545 3.42775,2.8576014 1.22335,1.6378442 1.276588,2.6794632 1.446019,28.2924172 0.169031,25.553247 0.126831,26.693348 -1.080475,29.187304 C 86.85565,69.850706 84.669525,70.806156 76.74,71.132863 L 70,71.410562 70,69.142781 70,66.875 l 5.666088,0 c 5.635631,0 7.704074,-0.552437 9.157787,-2.445838 0.569425,-0.741662 0.766381,-7.498354 0.78125,-26.801321 L 85.625,11.818182 84.090906,10.284091 82.556819,8.75 46.875,8.75 11.193182,8.75 9.6590906,10.284091 8.125,11.818182 8.144875,37.627841 C 8.1597438,56.930808 8.3566969,63.6875 8.926125,64.429162 10.58994,66.596219 12.310537,66.875 24.021412,66.875 l 11.603588,0 0,2.1875 0,2.1875 -11.40625,-0.06397 c -6.273438,-0.03519 -12.25,-0.268081 -13.28125,-0.517544 z M 31.320364,50.847658 c -2.304828,-3.479655 -2.789455,-5.716676 -2.468601,-11.394986 0.192628,-3.409055 0.626679,-4.910968 2.114948,-7.318185 2.409951,-3.898006 6.319654,-6.854385 10.793561,-8.161711 C 55.807605,19.867987 68.611306,34.655408 62.882169,48.367159 62.049528,50.359951 61.678248,50.625 59.719392,50.625 58.498726,50.625 57.5,50.473171 57.5,50.287601 c 0,-0.185569 0.521901,-1.380882 1.159779,-2.65625 C 61.415154,42.12228 60.723967,36.435527 56.778794,32.15552 53.646109,28.756959 50.773524,27.410714 46.654437,27.410714 38.484559,27.410714 32.5,33.256417 32.5,41.236738 c 0,3.197201 1.783346,8.015436 3.491374,9.432973 1.170474,0.971408 1.12154,2.230257 -0.104991,2.700921 -1.939587,0.744289 -2.668742,0.341391 -4.566019,-2.522974 z m 7.404677,-2.747617 c -2.97959,-2.97959 -3.401999,-8.945732 -0.894617,-12.635675 5.086445,-7.485378 16.149231,-5.440309 18.508092,3.421411 0.697761,2.621335 0.647635,3.279212 -0.452026,5.932582 -0.688299,1.660795 -1.713496,3.076107 -2.311653,3.191302 C 52.630849,48.191456 52.5,47.609149 52.5,43.226386 c 0,-4.805129 -0.07134,-5.050299 -1.922953,-6.608327 -2.774646,-2.33471 -6.304039,-2.237221 -8.783889,0.242629 -1.857551,1.857551 -1.859959,1.869672 -1.428474,7.1875 0.237718,2.929747 0.252913,5.326812 0.03377,5.326812 -0.219147,0 -0.97218,-0.573731 -1.673408,-1.274959 z"
       id="path4766"
       inkscape:connector-curvature="0" />
    <path
       style="fill-opacity:1"
       d="M 45.932949,80.208925 C 44.904202,78.605081 43.359375,76.252062 42.5,74.98 c -0.859375,-1.272063 -2.371829,-3.545763 -3.361009,-5.052669 -0.98918,-1.506906 -2.909673,-4.38615 -4.267762,-6.398312 -2.244828,-3.325975 -2.402792,-3.818936 -1.738018,-5.423843 0.40218,-0.970947 1.129802,-1.918302 1.61694,-2.105234 1.446037,-0.554896 3.962627,0.734549 4.732853,2.425009 C 39.877706,59.291228 40.436749,60 40.725322,60 41.013895,60 41.25,60.387438 41.25,60.860972 c 0,0.473535 0.421875,1.211097 0.9375,1.639028 0.827906,0.6871 0.9375,-0.653034 0.9375,-11.463983 0,-11.463683 0.07686,-12.283173 1.208912,-12.889027 C 48.339858,36.003073 50,38.327959 50,46.081862 c 0,5.599031 0.04301,5.776867 1.219585,5.042087 2.069696,-1.292547 4.641879,0.03749 5.104389,2.639392 0.212561,1.195788 0.423498,1.727116 0.46875,1.180731 0.04525,-0.546386 0.727802,-1.28755 1.516778,-1.647031 1.976163,-0.9004 4.815498,0.59204 4.815498,2.531172 0,1.055149 0.514738,1.564829 2.03125,2.011289 l 2.03125,0.597998 0.169463,12.34375 0.169462,12.34375 -9.861514,0 -9.861513,0 -1.870449,-2.916075 z M 10.625,70.519425 C 7.7573525,69.709481 5.131081,67.158663 4.3255423,64.400956 3.9116501,62.984019 3.7479882,52.853785 3.8707416,36.25 4.0605954,10.570112 4.0763446,10.293091 5.4564414,8.3583044 8.36631,4.2788987 7.3670444,4.375 46.875,4.375 c 39.507956,0 38.508688,-0.096101 41.418556,3.9833044 1.379563,1.9340386 1.395869,2.2185196 1.580388,27.5791956 0.10255,14.09375 0.01838,26.545076 -0.187075,27.669612 -0.5601,3.065888 -3.567957,6.120125 -6.838119,6.943563 C 81.32125,70.935306 77.805394,71.25 75.035737,71.25 L 70,71.25 l 0,-2.1875 0,-2.1875 5.666088,0 c 5.635631,0 7.704074,-0.552437 9.157787,-2.445838 0.569694,-0.742006 0.766375,-7.549415 0.78125,-27.04005 L 85.625,11.340725 83.978212,10.045363 C 82.356156,8.7694538 81.798937,8.75 46.875,8.75 11.951061,8.75 11.393842,8.7694538 9.7717869,10.045363 L 8.125,11.340725 8.144875,37.389113 C 8.15975,56.879748 8.35643,63.687156 8.926125,64.429162 10.58994,66.596219 12.310537,66.875 24.021412,66.875 l 11.603588,0 0,2.1875 0,2.1875 -11.40625,-0.05638 C 17.945312,71.162631 11.828125,70.859238 10.625,70.519425 Z M 32.015289,51.866401 C 29.635539,48.870992 28.75,45.937786 28.75,41.050661 c 0,-3.735083 0.301019,-5.180627 1.579537,-7.585188 4.387945,-8.252591 12.860979,-11.863026 21.857963,-9.313874 4.383087,1.241879 10.158918,7.417706 11.45605,12.249422 0.83335,3.104168 0.495619,8.993281 -0.675331,11.776062 -0.834655,1.983554 -1.201085,2.239584 -3.205304,2.239584 -1.244603,0 -2.262915,-0.04092 -2.262915,-0.09094 0,-0.05002 0.609256,-1.339079 1.353903,-2.864584 1.639073,-3.357849 1.800929,-9.381913 0.328576,-12.22913 C 57.991776,32.929448 53.672594,28.93975 51.373577,28.018804 49.164963,27.134073 44.935561,27.180601 41.556042,28.126808 36.447626,29.557076 32.5,35.214592 32.5,41.105419 c 0,3.436138 0.634636,5.328048 3.040337,9.063536 1.656063,2.571476 1.594637,2.893448 -0.619903,3.249302 -1.057297,0.169897 -1.891142,-0.275521 -2.905145,-1.551856 z m 6.709752,-3.76636 C 36.957329,46.332329 36.25,44.190665 36.25,40.606061 c 0,-2.552723 0.337977,-3.456364 2.030187,-5.428063 2.59642,-3.025249 2.806845,-3.1718 5.705589,-3.973667 4.75359,-1.314964 10.422831,1.804527 12.04639,6.628508 C 57.284668,41.554323 55.617947,48.125 53.42145,48.125 52.686241,48.125 52.5,47.113579 52.5,43.120867 c 0,-4.590421 -0.132533,-5.120053 -1.603078,-6.40625 -3.063828,-2.679748 -6.899931,-2.466798 -9.517881,0.528356 -1.337569,1.53029 -1.404985,1.990929 -1.007801,6.886012 0.234113,2.885308 0.246357,5.246015 0.02721,5.246015 -0.219147,0 -0.97218,-0.573731 -1.673408,-1.274959 z"
       id="path4764"
       inkscape:connector-curvature="0" />
    <path
       style="fill-opacity:1"
       d="M 45.932949,80.219644 C 44.904202,78.621694 43.5,76.410781 42.8125,75.3065 42.125,74.202219 41.063752,72.626812 40.454171,71.805606 39.84459,70.9844 37.795953,67.932925 35.901645,65.024556 c -3.133584,-4.81105 -3.380753,-5.44111 -2.740698,-6.986339 0.386924,-0.934119 1.102066,-1.851343 1.589204,-2.038275 1.446037,-0.554896 3.962627,0.734549 4.732853,2.425009 C 39.877706,59.291228 40.436749,60 40.725322,60 41.013895,60 41.25,60.387438 41.25,60.860972 c 0,0.473535 0.421875,1.211097 0.9375,1.639028 0.827906,0.6871 0.9375,-0.653034 0.9375,-11.463983 0,-11.463683 0.07686,-12.283173 1.208912,-12.889027 1.923518,-1.029436 3.642737,-0.757594 4.693148,0.742076 0.719788,1.027641 0.977885,3.019746 0.991946,7.65625 0.01384,4.563184 0.192214,5.969802 0.656056,5.173434 1.404519,-2.411412 5.524444,-0.651332 5.647439,2.412652 0.03987,0.993354 0.193576,1.353097 0.341557,0.799431 C 57.469685,51.916598 63.125,52.815214 63.125,55.957461 63.125,57.064289 63.465469,57.5 64.330356,57.5 67.225156,57.5 67.5,58.696148 67.5,71.294644 l 0,11.830356 -9.848301,0 -9.848301,0 -1.870449,-2.905356 z M 10.625,70.517694 C 9.421875,70.176931 7.7684406,69.288238 6.9507006,68.542812 3.8213406,65.6902 3.7490174,64.989738 3.7637263,37.676324 3.7764912,13.972567 3.8607431,12.004042 4.9667526,9.5679169 5.8089006,7.7129794 6.8922369,6.57276 8.6781275,5.6616666 11.136963,4.4072623 12.094724,4.375 46.875,4.375 c 34.780275,0 35.738037,0.032262 38.196875,1.2866666 1.785888,0.9110934 2.869225,2.0513128 3.711375,3.9062503 1.106006,2.4361251 1.190256,4.4046501 1.203025,28.1084071 0.01469,27.31472 -0.05863,28.024695 -3.186975,30.85752 -2.0774,1.88115 -5.628919,2.708606 -11.64305,2.712669 L 70,71.25 l 0,-2.130612 0,-2.130607 6.618806,-0.213143 C 86.450831,66.459025 85.625,69.145669 85.625,37.476123 l 0,-26.135398 -1.646788,-1.295362 C 82.356156,8.7694538 81.798937,8.75 46.875,8.75 11.951061,8.75 11.393842,8.7694538 9.7717869,10.045363 L 8.125,11.340725 l 0,26.135398 c 0,24.792044 0.06135,26.211239 1.1936044,27.610889 1.1723836,1.449257 1.4168346,1.478913 13.7499996,1.668169 l 12.556396,0.192675 0,2.151075 0,2.151069 -11.40625,-0.05637 C 17.945312,71.162631 11.828125,70.858456 10.625,70.517694 Z M 32.290347,51.981943 C 29.789547,49.371034 28.75,46.161296 28.75,41.050661 c 0,-3.715005 0.302896,-5.184156 1.553906,-7.536983 3.527062,-6.633492 10.082435,-10.488142 17.119851,-10.066709 4.139788,0.24791 5.492614,0.705889 8.898779,3.012547 6.751314,4.571995 9.737714,14.239195 6.685358,21.640976 -0.778187,1.887049 -1.18642,2.173218 -3.199938,2.24314 C 58.538581,50.387712 57.5,50.381256 57.5,50.329283 c 0,-0.05198 0.622349,-1.342635 1.382997,-2.86814 1.646929,-3.302969 1.787636,-9.351358 0.285135,-12.256872 -1.18613,-2.293722 -5.523384,-6.281965 -7.794555,-7.167341 -2.624785,-1.023226 -6.416067,-0.999734 -9.519033,0.05898 -3.850733,1.313849 -5.103173,2.318679 -7.394633,5.932702 C 32.800095,36.646425 32.5,37.720115 32.5,41.040852 c 0,3.847374 0.553995,5.408148 3.533881,9.956029 1.115485,1.702445 0.988243,2.051193 -0.879622,2.410912 -0.78258,0.150711 -1.874585,-0.392964 -2.863912,-1.42585 z m 6.42398,-4.013193 C 36.872326,46.027519 36.25,44.179765 36.25,40.651899 c 0,-2.469065 0.368756,-3.474947 2.03125,-5.54078 3.057189,-3.798897 7.127876,-5.05763 11.497778,-3.555329 5.785293,1.988889 8.306194,8.450355 5.557083,14.243676 -1.810292,3.814909 -2.911797,3.056366 -2.749197,-1.893216 0.164793,-5.016332 -0.277123,-6.602601 -2.18826,-7.854827 -2.862902,-1.875845 -6.237759,-1.558472 -8.605496,0.809265 -1.857551,1.857551 -1.859959,1.869672 -1.428474,7.1875 0.237718,2.929747 0.263869,5.326812 0.05811,5.326812 -0.205757,0 -0.974568,-0.632813 -1.70847,-1.40625 z"
       id="path4762"
       inkscape:connector-curvature="0" />
  </g>
</svg>
