<?xml version="1.0" encoding="UTF-8" standalone="no"?>
<!-- Created with Inkscape (http://www.inkscape.org/) -->

<svg
   xmlns:dc="http://purl.org/dc/elements/1.1/"
   xmlns:cc="http://creativecommons.org/ns#"
   xmlns:rdf="http://www.w3.org/1999/02/22-rdf-syntax-ns#"
   xmlns:svg="http://www.w3.org/2000/svg"
   xmlns="http://www.w3.org/2000/svg"
   xmlns:xlink="http://www.w3.org/1999/xlink"
   xmlns:sodipodi="http://sodipodi.sourceforge.net/DTD/sodipodi-0.dtd"
   xmlns:inkscape="http://www.inkscape.org/namespaces/inkscape"
   id="svg4848"
   version="1.1"
   inkscape:version="0.91 r13725"
   width="85.625"
   height="90"
   viewBox="0 0 85.625 90"
   sodipodi:docname="Wearable.svg">
  <metadata
     id="metadata4854">
    <rdf:RDF>
      <cc:Work
         rdf:about="">
        <dc:format>image/svg+xml</dc:format>
        <dc:type
           rdf:resource="http://purl.org/dc/dcmitype/StillImage" />
        <dc:title></dc:title>
      </cc:Work>
    </rdf:RDF>
  </metadata>
  <defs
     id="defs4852" />
  <sodipodi:namedview
     pagecolor="#ffffff"
     bordercolor="#666666"
     borderopacity="1"
     objecttolerance="10"
     gridtolerance="10"
     guidetolerance="10"
     inkscape:pageopacity="0"
     inkscape:pageshadow="2"
     inkscape:window-width="640"
     inkscape:window-height="480"
     id="namedview4850"
     showgrid="false"
     inkscape:zoom="2.6222222"
     inkscape:cx="42.8125"
     inkscape:cy="45"
     inkscape:window-x="0"
     inkscape:window-y="0"
     inkscape:window-maximized="0"
     inkscape:current-layer="svg4848" />
  <image
     width="85.625"
     height="90"
     preserveAspectRatio="none"
     style="image-rendering:optimizeQuality"
     xlink:href="file:///media/havoc/USB%20DISK/pics/_legend/Wearable.png"
     id="image4856"
     x="0"
     y="0"
     sodipodi:absref="/media/havoc/USB DISK/pics/_legend/Wearable.png" />
  <g
     id="g4858">
    <path
       style="fill-opacity:1"
       d="m 45,82.222569 c -1.890625,-0.425894 -5.833034,-1.619075 -8.760908,-2.651513 l -5.323408,-1.877169 -1.672067,1.248382 c -1.583833,1.1825 -1.756408,1.193112 -3.270342,0.201143 C 25.094224,78.567437 24.375,77.680794 24.375,77.173094 24.375,76.404556 22.962301,76.25 15.9375,76.25 l -8.4375,0 0,-1.5625 0,-1.5625 8.456737,0 8.456737,0 L 24.237987,65.46875 24.0625,57.8125 15.78125,57.638109 C 8.0163038,57.474591 7.5,57.386917 7.5,56.231859 7.5,55.069115 7.9566163,55 15.638399,55 c 8.005555,0 8.149663,-0.02472 8.828418,-1.514427 0.379511,-0.832934 1.354458,-1.68119 2.16655,-1.885012 1.60975,-0.404022 3.991633,0.755792 3.991633,1.943652 0,1.08276 3.113814,0.07268 8.895801,-2.885685 6.221707,-3.183346 7.566759,-3.398328 17.824535,-2.848927 8.535177,0.457139 8.54982,0.460553 10.548839,2.459573 1.100988,1.10099 3.089894,2.327801 4.419788,2.726247 C 75.18305,53.85502 77.5,55.845828 77.5,57.451453 c 0,0.634016 0.5625,1.299855 1.25,1.47964 1.013869,0.265132 1.244856,0.83972 1.222781,3.041644 -0.04319,4.307507 -0.9671,8.012426 -2.238093,8.974882 -0.891319,0.674937 -3.643194,0.907319 -11.484688,0.969806 -5.671875,0.04519 -11.015625,0.322869 -11.875,0.61705 -0.978033,0.3348 0.235017,0.402269 3.242937,0.180362 4.215764,-0.311012 5.031025,-0.193881 6.643826,0.954532 3.145287,2.239643 2.980324,5.551012 -0.3407,6.839075 C 57.462166,83.013525 51.078537,83.591844 45,82.222569 Z M 58.251842,78.793256 C 59.041454,78.473294 60.460937,78.046063 61.40625,77.84385 62.351562,77.641631 63.125,77.200294 63.125,76.863094 63.125,76.496531 60.123996,76.25 55.661886,76.25 c -4.568801,0 -7.621431,-0.256163 -7.87134,-0.660525 -0.962025,-1.556588 0.400868,-3.571469 3.505218,-5.182063 C 54.384051,68.805156 54.842663,68.75 65.077294,68.75 c 8.965562,0 10.643618,-0.147706 10.957031,-0.964456 0.203556,-0.53045 0.1723,-1.163263 -0.06946,-1.40625 C 75.723119,66.136306 71.118056,65.796875 65.731406,65.625 56.099654,65.317675 55.934132,65.28875 55.734079,63.878006 l -0.20342,-1.434494 10.985528,0.184494 c 7.126626,0.119688 10.912482,-0.03506 10.777575,-0.440506 -0.123174,-0.37019 -4.817049,-0.752405 -11.513181,-0.9375 -6.217879,-0.171875 -11.5288,-0.536927 -11.80205,-0.811227 -0.273251,-0.2743 -0.195556,-0.977425 0.172655,-1.5625 0.568013,-0.902555 2.127552,-1.111133 10.290395,-1.376273 11.762363,-0.382057 10.103682,-1.229483 -2.429947,-1.241466 -7.385524,-0.0071 -8.988475,-0.171692 -9.288671,-0.953993 -0.805027,-2.097865 0.951566,-2.801553 7.197315,-2.883227 L 65.9375,52.342627 61.25,51.523038 c -2.578125,-0.450773 -6.756199,-0.837239 -9.284609,-0.858813 -4.280924,-0.03653 -5.040002,0.175996 -11.03647,3.089944 -3.541649,1.721043 -7.308888,3.303074 -8.371642,3.515625 L 30.625,57.65625 l 0,8.273819 0,8.273819 3.59375,1.074487 c 1.976562,0.590969 4.015625,1.237369 4.53125,1.43645 5.806896,2.241988 7.040086,2.500019 12.314342,2.576625 3.163513,0.04594 6.397888,-0.178237 7.1875,-0.498194 z M 20.125,51.125 c -0.992171,-0.992171 -0.951071,-1.328369 0.34375,-2.811861 1.605099,-1.838983 4.802378,-3.314594 7.156462,-3.302858 2.863753,0.01427 7.009069,2.464171 7.271454,4.297448 0.359534,2.512066 -0.926532,3.012036 -2.895495,1.12565 -2.43134,-2.329371 -6.746197,-2.388132 -8.876171,-0.120879 -1.669558,1.777162 -1.957384,1.855116 -3,0.8125 z M 13.541667,46.458333 C 12.820714,45.737381 13.084333,44.65316 14.285491,43.399101 18.444403,39.057022 21.906882,37.5 27.403811,37.5 c 4.886179,0 8.135867,1.296871 12.002025,4.789712 2.765354,2.49833 3.087721,3.679731 1.170153,4.288343 -0.953225,0.302542 -1.743479,-0.06733 -2.96875,-1.389506 C 34.369174,41.694389 32.573496,40.940576 27.5,40.945596 c -3.992913,0.0039 -5.057946,0.246363 -7.1875,1.635953 -1.375,0.897224 -3.035778,2.230297 -3.690617,2.962383 -1.203798,1.345804 -2.318038,1.67658 -3.080216,0.914401 z m -5.6250001,-4.375 C 6.8153531,40.98202 7.7048681,38.764061 10.15625,36.499051 c 5.563898,-5.14089 9.955531,-6.825634 17.65625,-6.77339 5.038868,0.03419 6.073789,0.253556 9.931936,2.105264 3.969273,1.905042 10.380564,7.260825 10.380564,8.671584 0,0.326939 -0.446291,0.964824 -0.991759,1.417522 -0.853217,0.708106 -1.324659,0.462559 -3.374829,-1.75776 -1.310688,-1.419465 -4.016665,-3.502789 -6.01328,-4.62961 -3.225173,-1.820174 -4.280516,-2.077205 -9.458656,-2.30368 -5.533967,-0.242036 -6.031629,-0.154889 -9.849914,1.724846 -2.211806,1.088869 -5.27391,3.232204 -6.804673,4.762967 -2.9461628,2.946164 -3.0618846,3.019877 -3.7152221,2.366539 z"
       id="path4874"
       inkscape:connector-curvature="0" />
    <path
       style="fill-opacity:1"
       d="m 45.3125,82.2514 c -2.0625,-0.413125 -5.71875,-1.494638 -8.125,-2.403356 -5.739894,-2.167682 -5.959276,-2.191107 -7.96875,-0.850732 -1.605179,1.070694 -1.821997,1.0788 -3.28125,0.122663 C 25.078125,78.556888 24.375,77.680794 24.375,77.173094 24.375,76.404556 22.962301,76.25 15.9375,76.25 7.9166669,76.25 7.5,76.188269 7.5,75 c 0,-1.188269 0.4166669,-1.25 8.4375,-1.25 l 8.4375,0 0,-8.125 0,-8.125 -8.4375,0 C 7.9166669,57.5 7.5,57.438272 7.5,56.25 7.5,55.061728 7.9166669,55 15.9375,55 c 7.024801,0 8.4375,-0.154554 8.4375,-0.923092 0,-0.5077 0.668579,-1.361161 1.48573,-1.896579 1.214087,-0.795501 1.785446,-0.836928 3.125,-0.226586 0.901599,0.410795 1.63927,1.084629 1.63927,1.497409 0,1.219417 2.97462,0.326253 8.447262,-2.536387 6.31216,-3.301776 8.339557,-3.636642 18.586447,-3.069931 8.203053,0.453674 8.284104,0.472977 10.252841,2.441714 1.091431,1.091434 3.072519,2.310427 4.402413,2.708873 C 75.2027,53.860906 77.5,55.848467 77.5,57.482229 c 0,0.650945 0.5625,1.362067 1.25,1.580271 1.396281,0.443163 1.633562,3.359502 0.676219,8.311244 -0.816344,4.222444 -1.482125,4.458687 -12.629344,4.481381 -10.306487,0.021 -14.934474,0.4906 -12.70512,1.289244 0.67141,0.240525 1.871867,0.193937 2.667683,-0.103525 3.839132,-1.435013 9.048075,0.406712 9.620568,3.401537 0.582794,3.048688 -0.836362,4.010032 -8.450039,5.724113 -4.927383,1.109312 -7.419476,1.126081 -12.617467,0.08491 z M 58.251842,78.793256 C 59.041454,78.473294 60.460937,78.046063 61.40625,77.84385 62.351562,77.641631 63.125,77.200294 63.125,76.863094 63.125,76.496531 60.123996,76.25 55.661886,76.25 c -4.568801,0 -7.621431,-0.256163 -7.87134,-0.660525 -0.962025,-1.556588 0.400868,-3.571469 3.505218,-5.182063 C 54.384051,68.805156 54.842663,68.75 65.077294,68.75 c 8.965562,0 10.643618,-0.147706 10.957031,-0.964456 0.203556,-0.53045 0.1723,-1.163263 -0.06946,-1.40625 C 75.723119,66.136306 71.118056,65.796875 65.731406,65.625 56.458333,65.329119 55.9375,65.246025 55.9375,64.0625 c 0,-1.201694 0.416667,-1.25 10.781731,-1.25 14.675269,0 13.984425,-1.149995 -0.93865,-1.5625 -6.217879,-0.171875 -11.5288,-0.536927 -11.80205,-0.811227 -0.273251,-0.2743 -0.195556,-0.977425 0.172655,-1.5625 0.568013,-0.902555 2.127552,-1.111133 10.290395,-1.376273 11.762363,-0.382057 10.103681,-1.229483 -2.429947,-1.241466 -7.385524,-0.0071 -8.988475,-0.171692 -9.288671,-0.953993 -0.80674,-2.102328 0.948998,-2.802084 7.197315,-2.868517 7.933703,-0.08435 4.663728,-1.013072 -5.545278,-1.574942 l -7.1875,-0.395575 -6.231818,3.202327 c -3.4275,1.76128 -7.154062,3.375342 -8.28125,3.586804 l -2.049432,0.384476 0,8.234786 0,8.234788 7.34375,2.585068 c 6.47608,2.279644 8.023334,2.590757 13.095592,2.633157 3.163513,0.02644 6.397888,-0.2137 7.1875,-0.533657 z M 20.125,51.125 C 19.132829,50.132829 19.173929,49.796631 20.46875,48.313139 22.048727,46.502938 25.256509,45 27.540116,45 c 4.247047,0 8.96189,4.372994 6.918245,6.416639 -0.516827,0.516827 -1.183416,0.237094 -2.546148,-1.068487 -2.523108,-2.417291 -6.247297,-2.469046 -8.698255,-0.12088 -1.966504,1.884031 -2.071996,1.91469 -3.088958,0.897728 z m -6.21875,-4.663926 c -1.386483,-0.559458 -0.839872,-1.828222 1.875,-4.352144 5.207772,-4.841485 13.147754,-6.077517 19.123792,-2.977038 3.040267,1.577346 6.969958,5.205051 6.969958,6.434334 0,0.329747 -0.620406,0.796449 -1.378681,1.037116 -1.034638,0.328381 -1.611032,0.08764 -2.30978,-0.964735 -0.512105,-0.771271 -2.071387,-2.141675 -3.46507,-3.045342 C 32.55807,41.190512 31.501996,40.950234 27.5,40.950234 c -3.99752,0 -5.055489,0.240122 -7.1875,1.631315 -1.375,0.897224 -3.035778,2.230297 -3.690617,2.962384 -1.235268,1.380985 -1.415369,1.441809 -2.715633,0.917141 z M 7.9166669,42.083333 C 7.6875,41.854167 7.5,41.044342 7.5,40.283723 7.5,38.772365 13.208198,33.125 14.735836,33.125 c 0.48904,0 0.889164,-0.223007 0.889164,-0.495571 0,-1.241202 7.32646,-2.940827 12.5,-2.899808 4.656634,0.03692 5.835149,0.292501 9.545942,2.070188 2.360319,1.130731 5.619794,3.392702 7.366732,5.112275 2.695468,2.653244 3.039674,3.259132 2.463318,4.336062 -0.368484,0.68852 -0.871014,1.250336 -1.116732,1.248481 -0.245718,-0.0019 -1.76352,-1.368117 -3.372894,-3.036138 -4.262787,-4.41813 -7.706497,-5.867115 -14.751101,-6.206715 -5.553492,-0.267718 -5.979009,-0.192683 -9.925719,1.750276 -2.267917,1.116491 -5.335915,3.259827 -6.817775,4.762967 -2.863111,2.904227 -2.9538273,2.962594 -3.6001041,2.316316 z"
       id="path4872"
       inkscape:connector-curvature="0" />
    <path
       style="fill-opacity:1"
       d="m 45.166902,82.195669 c -2.48633,-0.4723 -4.876955,-1.086319 -5.3125,-1.364475 C 39.418856,80.553031 37.234375,79.720625 35,78.981406 31.724449,77.897719 30.755896,77.787262 30,78.411181 28.193346,79.902406 26.87492,79.999919 25.610824,78.735825 24.931121,78.056119 24.375,77.21875 24.375,76.875 24.375,76.4892 21.145833,76.25 15.9375,76.25 7.9166669,76.25 7.5,76.18825 7.5,75 c 0,-1.188269 0.4166669,-1.25 8.4375,-1.25 l 8.4375,0 0,-8.125 0,-8.125 -8.4375,0 C 7.9166669,57.5 7.5,57.438272 7.5,56.25 7.5,55.062038 7.9166669,55 15.895383,55 c 7.847955,0 8.421266,-0.08155 8.792328,-1.250663 0.599308,-1.888254 2.440152,-2.642096 4.339072,-1.77689 0.879019,0.400509 1.598217,1.065925 1.598217,1.478705 0,1.227771 2.986149,0.320223 8.588255,-2.610138 6.115019,-3.198655 9.876314,-3.725956 20.330094,-2.850105 5.738914,0.480824 6.959339,0.778583 8.281251,2.020458 0.852719,0.801089 1.5504,1.829375 1.5504,2.285079 0,0.526715 0.779431,0.828554 2.139544,0.828554 2.403812,0 5.985456,2.561247 5.985456,4.280217 0,0.574255 0.5625,1.395387 1.25,1.824737 1.378681,0.861002 1.590663,3.413927 0.676219,8.14379 -0.81915,4.236937 -1.437407,4.450137 -13.176219,4.543681 -10.110077,0.08056 -14.127236,0.514388 -12.734372,1.375225 0.379789,0.234725 2.294816,0.09026 4.255614,-0.321019 3.210201,-0.673344 3.7941,-0.625162 5.865671,0.484044 1.924643,1.030531 2.331837,1.607319 2.491824,3.52965 0.171838,2.064675 -0.01844,2.3969 -1.875,3.274312 -4.964346,2.346125 -12.763483,3.137213 -19.086835,1.936032 z m 13.08494,-3.402413 C 59.041454,78.473294 60.460937,78.046063 61.40625,77.84385 62.351562,77.641631 63.125,77.200294 63.125,76.863094 63.125,76.496531 60.123996,76.25 55.661886,76.25 c -4.568801,0 -7.621431,-0.256163 -7.87134,-0.660525 -0.959269,-1.552125 0.397979,-3.634287 3.30083,-5.063819 C 53.764852,69.209081 55.158222,69.031194 65,68.75 c 10.416669,-0.297619 10.9375,-0.372025 10.9375,-1.5625 0,-1.184894 -0.520831,-1.266275 -10,-1.5625 -9.479167,-0.296225 -10,-0.377606 -10,-1.5625 0,-1.201694 0.416667,-1.25 10.781731,-1.25 6.909975,0 10.706944,-0.224438 10.573481,-0.625 -0.125343,-0.376207 -4.578025,-0.692834 -11.1857,-0.795407 C 57.339057,61.255984 54.975317,61.035837 54.36325,60.298343 53.757641,59.568627 53.760104,59.178404 54.375,58.4375 55.003512,57.680189 56.960263,57.5 64.555694,57.5 c 5.17145,0 9.192681,-0.210938 8.936062,-0.46875 C 73.235138,56.773437 68.477325,56.421875 62.918838,56.25 53.333333,55.953605 52.8125,55.873081 52.8125,54.6875 c 0,-1.154974 0.522646,-1.27417 6.875,-1.567938 7.295163,-0.337369 7.536062,-0.812136 0.9375,-1.847613 -6.418753,-1.00726 -13.344825,-0.814722 -16.072546,0.446801 -1.300725,0.601562 -2.505579,1.257781 -2.677454,1.458264 -0.601964,0.702158 -7.206958,3.560356 -9.21875,3.989257 l -2.03125,0.433048 0,8.257862 0,8.257863 6.09375,2.077762 c 3.351562,1.142769 6.515625,2.317707 7.03125,2.610969 1.27154,0.7232 12.711612,0.7149 14.501842,-0.0105 z M 20.417887,51.146516 c -1.321045,-0.739293 -1.311472,-1.272532 0.05086,-2.833377 2.540061,-2.910181 7.394664,-4.133978 10.353588,-2.610037 C 33.049571,46.850198 35,48.889938 35,50.072061 c 0,1.852965 -1.263765,2.020517 -3.019537,0.400333 -0.91738,-0.846534 -2.163227,-1.713361 -2.768549,-1.926282 -1.717828,-0.604241 -4.51975,0.187719 -6.210375,1.755355 -1.133045,1.050619 -1.816735,1.274237 -2.583652,0.845049 z M 13.90625,46.461074 c -1.390341,-0.561015 -0.835992,-1.891165 1.768956,-4.24458 7.183453,-6.489818 18.026056,-6.232136 24.220983,0.575628 2.342293,2.574005 2.444913,3.225709 0.60013,3.81122 -1.034638,0.328381 -1.611032,0.08764 -2.30978,-0.964735 -0.512105,-0.771271 -2.071387,-2.141675 -3.46507,-3.045342 C 32.55807,41.190512 31.501996,40.950234 27.5,40.950234 c -3.99752,0 -5.055489,0.240122 -7.1875,1.631315 -1.375,0.897224 -3.035778,2.230297 -3.690617,2.962384 -1.235268,1.380985 -1.415369,1.441809 -2.715633,0.917141 z M 7.9112444,42.077911 C 5.9740147,40.140681 10.75047,34.879231 17.1875,31.859757 c 3.887724,-1.82365 5.008215,-2.058905 10.060316,-2.112239 3.126925,-0.03301 6.3613,0.242813 7.1875,0.612941 C 42.042372,33.768319 47.5,37.989054 47.5,40.464219 c 0,2.330302 -1.625244,1.950198 -4.537459,-1.061197 C 38.310057,34.592091 35.307919,33.4375 27.451136,33.4375 c -7.827667,0 -10.299251,0.914523 -15.202092,5.625 -2.9079028,2.793811 -3.8821521,3.471059 -4.3377996,3.015411 z"
       id="path4870"
       inkscape:connector-curvature="0" />
    <path
       style="fill-opacity:1"
       d="m 45.166902,82.195669 c -2.48633,-0.4723 -4.876955,-1.086319 -5.3125,-1.364475 C 39.418856,80.553031 37.234375,79.720625 35,78.981406 31.509145,77.826487 30.798657,77.759619 29.950787,78.506181 28.309677,79.951206 25.697734,79.59345 24.886279,77.8125 24.178686,76.2595 24.123656,76.25 15.837178,76.25 7.9166669,76.25 7.5,76.187531 7.5,75 c 0,-1.188269 0.4166669,-1.25 8.4375,-1.25 l 8.4375,0 0,-8.125 0,-8.125 -8.4375,0 C 7.9166669,57.5 7.5,57.438272 7.5,56.25 7.5,55.062038 7.9166669,55 15.895383,55 c 7.847955,0 8.421266,-0.08155 8.792328,-1.250663 0.21832,-0.687865 0.870085,-1.498381 1.448367,-1.801146 1.253281,-0.656169 3.753623,0.162141 4.221588,1.381638 0.492043,1.282242 2.984908,0.590009 8.875888,-2.464705 6.189699,-3.209612 9.314032,-3.666949 19.678149,-2.880467 6.412984,0.48665 7.547553,0.744038 8.906247,2.020466 0.856381,0.804523 1.55705,1.835619 1.55705,2.291323 0,0.523928 0.773269,0.828554 2.103212,0.828554 2.386494,0 5.108138,1.852789 5.762007,3.922553 0.241506,0.764471 0.993781,1.780238 1.671719,2.257261 1.107262,0.77911 1.188612,1.319382 0.799975,5.312498 -0.698538,7.177107 -0.848757,7.257688 -13.530169,7.257688 -6.262646,0 -11.182937,0.281306 -12.234806,0.6995 -2.731084,1.085794 -0.529254,1.454863 3.258517,0.546194 5.306907,-1.273106 9.044545,0.533169 9.044545,4.370919 0,1.564824 -0.378925,2.026199 -2.34375,2.853693 -5.643961,2.376981 -12.436351,3.047682 -18.739348,1.850363 z m 14.860164,-3.865538 c 5.491309,-1.526725 3.819897,-2.301306 -4.631267,-2.146281 -4.69956,0.08621 -7.303842,-0.106681 -7.585125,-0.561806 -0.978546,-1.583319 0.355655,-3.655931 3.280702,-5.096388 C 53.764852,69.209081 55.158222,69.031194 65,68.75 c 10.416669,-0.297619 10.9375,-0.372025 10.9375,-1.5625 0,-1.184894 -0.520831,-1.266275 -10,-1.5625 -9.479167,-0.296225 -10,-0.377606 -10,-1.5625 0,-1.201694 0.416667,-1.25 10.781731,-1.25 14.512006,0 14.037544,-1.145843 -0.646994,-1.5625 C 54.611219,60.924807 52.689809,60.46803 54.353016,58.463989 55.009057,57.673508 56.845433,57.5 64.555694,57.5 c 5.17145,0 9.192681,-0.210938 8.936062,-0.46875 C 73.235138,56.773437 68.477325,56.421875 62.918838,56.25 53.333333,55.953605 52.8125,55.873081 52.8125,54.6875 c 0,-1.155303 0.520833,-1.273674 6.875,-1.5625 7.424794,-0.337491 7.819656,-0.81618 1.516831,-1.838822 -8.460543,-1.372733 -17.270269,-0.510947 -19.329331,1.890836 -0.601964,0.702158 -7.206958,3.560356 -9.21875,3.989257 l -2.03125,0.433048 0,8.257862 0,8.257863 6.09375,2.077762 c 3.351562,1.142769 6.515625,2.317707 7.03125,2.610969 1.663668,0.946231 12.281345,0.637263 16.277066,-0.473644 z M 31.650978,50.116887 c -2.134892,-2.134893 -5.648474,-2.246183 -8.174852,-0.258933 -2.041783,1.606067 -3.199332,1.76485 -3.682719,0.505164 C 19.093654,48.539591 23.933771,45 27.127054,45 30.351208,45 35,47.977231 35,50.042078 c 0,1.788276 -1.59982,1.824011 -3.349022,0.07481 z M 13.90625,46.461074 c -1.390341,-0.561015 -0.835992,-1.891165 1.768956,-4.24458 7.221045,-6.523779 18.025547,-6.232696 24.292727,0.654469 1.882649,2.068891 1.968386,2.335576 1.047061,3.256899 -0.921324,0.921325 -1.170288,0.848684 -3.040493,-0.887124 -3.40875,-3.163791 -5.492675,-4.136138 -9.565143,-4.463036 -3.211412,-0.257782 -4.390228,-0.06266 -6.754187,1.117955 -1.575078,0.786631 -3.628836,2.228787 -4.563907,3.204791 -1.758288,1.835258 -1.87995,1.887231 -3.185014,1.360626 z M 7.5,40.49916 c 0,-3.221463 8.91802,-9.224783 15.625,-10.518243 3.327003,-0.641621 9.882024,-0.29749 11.849861,0.622104 5.400575,2.523754 7.415326,3.757478 9.772823,5.984345 1.593715,1.505407 2.752316,3.165535 2.752316,3.943721 0,2.154761 -1.923023,1.59719 -4.812324,-1.395309 -4.386077,-4.542737 -7.475862,-5.698278 -15.23654,-5.698278 -8.016734,0 -9.997722,0.766648 -15.746002,6.09375 C 8.8331638,42.19279 7.5,42.499649 7.5,40.49916 Z"
       id="path4868"
       inkscape:connector-curvature="0" />
    <path
       style="fill-opacity:1"
       d="m 45.516237,82.221844 c -2.637945,-0.461657 -5.169195,-1.077207 -5.625,-1.367888 C 39.435431,80.563275 37.234375,79.720625 35,78.981406 31.509145,77.826487 30.798657,77.759619 29.950787,78.506181 28.309677,79.951206 25.697734,79.59345 24.886279,77.8125 24.178686,76.2595 24.123656,76.25 15.837178,76.25 7.9166669,76.25 7.5,76.187531 7.5,75 c 0,-1.188269 0.4166669,-1.25 8.4375,-1.25 l 8.4375,0 0,-8.125 0,-8.125 -8.4375,0 C 7.9166669,57.5 7.5,57.438272 7.5,56.25 7.5,55.062471 7.9166669,55 15.837178,55 c 8.286478,0 8.341508,-0.0095 9.049101,-1.5625 0.910215,-1.997704 3.991532,-2.171142 5.303181,-0.2985 1.059592,1.512779 1.287837,1.452718 9.18554,-2.417139 l 5.9375,-2.909361 9.0625,0.154853 c 10.733438,0.183405 12.408525,0.551936 14.0625,3.093837 0.932594,1.433255 1.85745,2.005083 3.642262,2.251968 2.615857,0.361839 4.535707,1.759531 5.172419,3.765632 0.225,0.708914 0.973513,1.745977 1.663363,2.304584 1.12035,0.907203 1.206812,1.458892 0.809731,5.166776 -0.285238,2.663475 -0.891881,4.719819 -1.692775,5.737988 l -1.248225,1.586862 -10.53895,0 c -6.309547,0 -11.245033,0.280719 -12.298387,0.6995 -2.751335,1.093844 -0.559384,1.423219 3.598848,0.540781 5.563714,-1.1807 8.704214,0.496213 8.704214,4.647744 0,1.251194 -0.505431,1.808063 -2.34375,2.582281 -5.603465,2.359932 -11.935726,3.006082 -18.390013,1.876538 z m 14.510829,-3.891713 c 5.627197,-1.5645 3.865022,-2.384294 -4.657395,-2.1667 -7.571092,0.193313 -8.28233,-0.05919 -7.618385,-2.70455 0.240007,-0.956262 1.407412,-1.981469 3.34009,-2.933225 C 53.764852,69.209081 55.158222,69.031194 65,68.75 c 10.416669,-0.297619 10.9375,-0.372025 10.9375,-1.5625 0,-1.183525 -0.520831,-1.266619 -9.793906,-1.5625 -5.386652,-0.171875 -9.99171,-0.511306 -10.233464,-0.754294 -0.241754,-0.242987 -0.265895,-0.894343 -0.05364,-1.447456 0.33795,-0.880681 1.706868,-0.981117 11.015529,-0.8082 7.574481,0.1407 10.629387,-0.0044 10.628806,-0.505675 C 77.499506,60.983834 74.24095,60.625 64.021263,60.625 c -9.65271,0 -11.171604,-0.349577 -9.623541,-2.214878 C 54.997781,57.687096 57.085973,57.5 64.555694,57.5 c 5.17145,0 9.192681,-0.210938 8.936062,-0.46875 C 73.235138,56.773437 68.477325,56.421875 62.918838,56.25 53.333333,55.953605 52.8125,55.873081 52.8125,54.6875 c 0,-1.155068 0.522127,-1.274028 6.875,-1.566383 6.360875,-0.292724 6.734787,-0.378142 5,-1.142235 -1.03765,-0.457035 -5.363968,-0.980681 -9.6875,-1.17255 -8.494473,-0.376963 -7.868508,-0.533546 -16.5625,4.143049 -1.375,0.739628 -3.695313,1.649481 -5.15625,2.021895 l -2.65625,0.677118 0.0049,8.20705 0.0049,8.207056 1.682227,0.78125 c 0.925224,0.429687 2.029721,0.78125 2.454436,0.78125 0.424716,0 1.563957,0.327412 2.531647,0.727587 5.995399,2.479307 7.701603,2.859894 13.175124,2.938863 3.736495,0.05394 7.12387,-0.287106 9.548879,-0.961319 z M 20,49.917059 c 0,-3.098108 5.961774,-5.708811 9.884017,-4.32828 C 32.731431,46.590997 35,48.595365 35,50.108946 c 0,1.567276 -1.786223,1.442348 -3.588701,-0.250992 -0.987896,-0.92808 -2.262297,-1.392045 -3.823619,-1.392045 -1.475138,0 -2.996819,0.515194 -4.111554,1.392045 C 21.247656,51.610869 20,51.632083 20,49.917059 Z M 13.90625,46.461074 C 12.515909,45.900059 13.070258,44.569909 15.675206,42.216494 19.204125,39.028328 23.065152,37.5 27.590519,37.5 c 4.671697,0 9.705607,2.229836 12.392392,5.489373 1.641622,1.991572 1.768271,2.402303 0.982913,3.187659 -0.785356,0.785357 -1.236679,0.598719 -3.502693,-1.448488 C 34.111668,41.700698 31.461821,40.625 27.354569,40.625 c -3.68312,0 -7.092533,1.483748 -10.196823,4.437571 -1.047615,0.996836 -2.03199,1.790225 -2.1875,1.763087 -0.15551,-0.02714 -0.634308,-0.1912 -1.063996,-0.364584 z M 7.5,40.619589 c 0,-2.708047 6.285609,-7.683383 12.391585,-9.808486 3.989629,-1.388537 12.368178,-1.345523 15.531725,0.07974 5.414366,2.439312 6.785339,3.294544 9.368764,5.844359 2.691874,2.656854 3.552438,5.139802 1.7814,5.139802 -0.509588,0 -2.206086,-1.226035 -3.769994,-2.724523 C 37.885428,34.438155 35.204011,33.4375 27.494636,33.4375 c -8.065188,0 -10.03378,0.759752 -15.789502,6.09375 C 8.8864206,42.143436 7.5,42.502257 7.5,40.619589 Z"
       id="path4866"
       inkscape:connector-curvature="0" />
    <path
       style="fill-opacity:1"
       d="M 47.5,82.414425 C 43.978921,81.932269 38.984321,80.500331 34.6875,78.741112 32.171017,77.710806 30.582782,77.631506 29.721149,78.493137 28.262802,79.951481 25.696241,79.590169 24.886279,77.8125 24.178686,76.2595 24.123656,76.25 15.837178,76.25 7.9166669,76.25 7.5,76.187531 7.5,75 c 0,-1.188269 0.4166669,-1.25 8.4375,-1.25 l 8.4375,0 0,-8.125 0,-8.125 -8.4375,0 C 7.9166669,57.5 7.5,57.438272 7.5,56.25 7.5,55.062471 7.9166669,55 15.837178,55 c 8.286478,0 8.341508,-0.0095 9.049101,-1.5625 0.910215,-1.997704 3.991532,-2.171142 5.303181,-0.2985 1.059592,1.512779 1.287837,1.452718 9.18554,-2.417139 l 5.9375,-2.909361 9.0625,0.150492 c 10.712225,0.177889 12.404969,0.550828 14.0625,3.098198 0.932594,1.433255 1.85745,2.005083 3.642262,2.251968 2.615857,0.361839 4.535707,1.759531 5.172419,3.765632 0.225,0.708914 0.973513,1.745977 1.663363,2.304584 1.12035,0.907203 1.206812,1.458892 0.809731,5.166776 -0.285238,2.663475 -0.891881,4.719819 -1.692775,5.737988 l -1.248225,1.586862 -10.53895,0 c -6.551293,0 -11.204674,0.273706 -12.298387,0.723369 -1.524162,0.626637 -1.596484,0.761343 -0.54084,1.007369 0.670229,0.156206 2.692783,-0.06964 4.494565,-0.501888 5.123306,-1.229063 8.349337,0.580375 8.349337,4.683031 0,1.882513 -1.045206,2.416182 -8.125,4.148482 -5.191144,1.270181 -4.932699,1.258525 -10.625,0.479062 z m 12.673879,-4.133688 c 5.586402,-1.539893 3.648777,-2.384256 -4.891322,-2.1315 C 47.3366,76.384412 46.356941,75.900119 48.417394,72.755469 50.384824,69.752794 53.077564,69.103356 65,68.756087 75.414637,68.452731 75.9375,68.377744 75.9375,67.1875 c 0,-1.183525 -0.520831,-1.266619 -9.793906,-1.5625 -5.386652,-0.171875 -9.99171,-0.511306 -10.233464,-0.754294 -0.241754,-0.242987 -0.265895,-0.894343 -0.05364,-1.447456 0.33795,-0.880681 1.706868,-0.981117 11.015529,-0.8082 7.574481,0.1407 10.629387,-0.0044 10.628806,-0.505675 C 77.499506,60.983834 74.24095,60.625 64.021263,60.625 c -9.65271,0 -11.171604,-0.349577 -9.623541,-2.214878 C 54.997781,57.687096 57.085973,57.5 64.555694,57.5 c 5.17145,0 9.192681,-0.210938 8.936062,-0.46875 C 73.235138,56.773437 68.477325,56.421875 62.918838,56.25 53.333333,55.953605 52.8125,55.873081 52.8125,54.6875 c 0,-1.155303 0.520833,-1.273674 6.875,-1.5625 6.1688,-0.2804 6.722906,-0.399099 5.394356,-1.155555 -0.9495,-0.540629 -4.536761,-0.955705 -10.000001,-1.157083 -8.413332,-0.31012 -8.558246,-0.292467 -11.644355,1.418436 -6.296336,3.490614 -7.551603,4.076516 -10.15625,4.740478 l -2.65625,0.677118 0,8.210731 0,8.210737 1.71875,0.721775 c 0.945312,0.396975 2.421875,0.905182 3.28125,1.12935 1.572152,0.410094 2.489287,0.753313 5.9375,2.221969 2.296125,0.977969 9.834471,1.814457 12.8125,1.421732 1.203125,-0.158663 3.812621,-0.736438 5.798879,-1.283951 z M 20.019641,49.84375 c 0.02241,-1.604491 1.743679,-3.028933 5.136609,-4.250815 1.950354,-0.702374 2.737146,-0.705515 4.6875,-0.01872 C 32.511153,46.513516 35,48.560992 35,49.81606 c 0,1.463252 -1.751286,1.597889 -3.202176,0.246179 -2.339782,-2.179836 -5.209698,-2.341562 -7.942706,-0.447586 -2.892322,2.00438 -3.861081,2.062245 -3.835477,0.229097 z M 13.90625,46.461074 c -1.420663,-0.573249 -0.815424,-1.959023 1.875,-4.29306 7.294571,-6.328293 17.039374,-6.255285 23.470503,0.175844 2.519545,2.519546 2.683801,2.863445 1.793088,3.754158 -0.890712,0.890713 -1.218815,0.765262 -3.58171,-1.369472 C 34.138517,41.724956 31.464088,40.625 27.485784,40.625 c -3.790569,0 -7.711335,1.652834 -10.258966,4.324759 -1.895364,1.987835 -2.010152,2.04008 -3.320568,1.511315 z M 7.5,40.594021 c 0,-1.549181 3.098609,-4.812211 6.717294,-7.073732 9.956762,-6.222545 23.600447,-4.540249 31.251456,3.853373 2.13789,2.345395 2.667004,4.501338 1.104724,4.501338 -0.509588,0 -2.267401,-1.292393 -3.90625,-2.871983 C 37.490652,34.013619 31.39941,32.13056 23.880763,33.195331 19.01869,33.883886 15.956568,35.406174 12.093839,39.055022 8.8393119,42.129347 7.5,42.578034 7.5,40.594021 Z"
       id="path4864"
       inkscape:connector-curvature="0" />
    <path
       style="fill-opacity:1"
       d="M 47.8125,82.4332 C 44.015976,81.950138 38.970124,80.525781 34.6875,78.728225 31.89277,77.555194 30.73308,77.481206 29.798001,78.416288 28.271995,79.942294 25.713369,79.627763 24.886279,77.8125 24.178686,76.2595 24.123656,76.25 15.837178,76.25 7.9166669,76.25 7.5,76.187531 7.5,75 c 0,-1.188269 0.4166669,-1.25 8.4375,-1.25 l 8.4375,0 0,-8.125 0,-8.125 -8.4375,0 C 7.9166669,57.5 7.5,57.438272 7.5,56.25 7.5,55.062471 7.9166669,55 15.837178,55 c 8.286478,0 8.341508,-0.0095 9.049101,-1.5625 0.905273,-1.986858 4.086291,-2.189932 5.244823,-0.334826 0.825721,1.322189 2.396308,1.211907 5.452241,-0.38284 0.882286,-0.460423 1.932282,-0.838866 2.333324,-0.840983 0.401041,-0.0021 0.822916,-0.214789 0.9375,-0.472601 0.114583,-0.257813 1.614583,-1.165607 3.333333,-2.017321 2.948606,-1.461159 3.645693,-1.540873 12.349582,-1.4122 10.119974,0.149607 13.090937,0.873698 14.278437,3.479977 0.514612,1.129458 1.332931,1.607449 3.174906,1.85451 2.6948,0.361448 4.617687,1.738293 5.261756,3.767574 0.225,0.708914 0.973513,1.745977 1.663363,2.304584 1.12035,0.907203 1.206812,1.458892 0.809731,5.166776 -0.285238,2.663475 -0.891881,4.719819 -1.692775,5.737988 l -1.248225,1.586862 -10.53895,0 c -6.678318,0 -11.183468,0.269825 -12.298387,0.736575 -1.745345,0.730681 -1.747531,0.738619 -0.272927,0.991488 0.81758,0.1402 2.746546,-0.06238 4.286589,-0.450157 4.865012,-1.225025 8.2894,0.679438 8.2894,4.610119 0,1.845981 -2.256063,3.031919 -7.672599,4.033219 -1.81266,0.335087 -3.991932,0.740731 -4.842824,0.901431 -0.850893,0.1607 -3.515827,0.04169 -5.922077,-0.264475 z m 12.704505,-4.165375 c 2.87547,-0.886544 3.18707,-1.130675 2.285001,-1.790281 -0.730656,-0.534275 -2.69345,-0.656932 -6.532348,-0.408219 -8.482406,0.54955 -10.219134,-0.308044 -7.534772,-3.720656 C 50.872306,69.631381 55.045421,68.75 65.773687,68.75 75.608,68.75 77.684231,68.290638 76.1586,66.452369 75.646844,65.835738 73.143337,65.622562 66.329725,65.615431 56.887503,65.605556 55.155687,65.2495 55.842622,63.459375 c 0.355685,-0.9269 1.571919,-1.020006 11.02939,-0.844325 7.620125,0.141544 10.629394,-0.0031 10.628807,-0.510906 -0.0013,-1.189389 -2.396313,-1.461724 -12.932682,-1.47061 -10.19887,-0.0086 -11.73063,-0.343468 -10.170415,-2.223412 C 54.997339,57.687627 57.077598,57.5 64.488412,57.5 c 6.064419,0 9.200019,-0.218989 8.949088,-0.625 -0.22965,-0.371579 -4.235987,-0.628881 -9.880638,-0.634571 -9.688276,-0.0098 -11.526886,-0.364078 -10.863273,-2.093424 0.302767,-0.788997 1.685941,-1.013656 7.122323,-1.156828 6.132544,-0.161506 6.607063,-0.256956 5.213632,-1.048727 -1.011788,-0.574916 -4.4259,-0.975088 -10.042275,-1.177068 l -8.509321,-0.306018 -5.895224,3.148402 c -3.242373,1.731621 -6.809287,3.338336 -7.926474,3.570477 l -2.03125,0.422076 0,8.235268 0,8.235275 1.71875,0.742607 c 0.945312,0.408437 2.5625,0.93775 3.59375,1.17625 1.03125,0.2385 2.15625,0.6353 2.5,0.881781 2.435241,1.746112 11.040699,3.209669 15.9375,2.710531 1.546875,-0.157675 4.310777,-0.748619 6.142005,-1.313206 z M 20.112781,49.865226 c 0.213705,-1.481749 3.511467,-4.027984 6.038196,-4.662153 3.813217,-0.957057 10.992186,4.023608 8.245915,5.720897 -0.331709,0.205008 -1.737261,-0.377807 -3.12345,-1.295143 -2.930101,-1.939049 -5.959471,-1.817798 -8.101536,0.324267 -1.748832,1.748832 -3.317525,1.703774 -3.059125,-0.08787 z M 13.90625,46.461074 c -1.348413,-0.544096 -0.867695,-1.6203 1.859829,-4.163675 4.95536,-4.6208 11.197865,-5.968973 17.57581,-3.79579 3.119397,1.062886 7.908111,5.135177 7.908111,6.725005 0,1.896095 -1.350089,1.703414 -3.842579,-0.548401 C 34.137699,41.724216 31.446989,40.625 27.485784,40.625 c -3.790569,0 -7.711335,1.652834 -10.258966,4.324759 -1.895364,1.987835 -2.010152,2.04008 -3.320568,1.511315 z M 7.5,40.594021 c 0,-0.704538 0.9140625,-2.211043 2.03125,-3.34779 9.761269,-9.932162 26.823061,-9.871662 35.9375,0.127431 2.112699,2.317759 2.671098,4.501338 1.15111,4.501338 -0.484077,0 -2.179613,-1.262944 -3.767859,-2.806542 C 39.304224,35.620413 35.886932,33.915676 30.937992,33.125079 23.670228,31.964047 17.567442,33.884494 12.093839,39.055022 8.8393119,42.129347 7.5,42.578034 7.5,40.594021 Z"
       id="path4862"
       inkscape:connector-curvature="0" />
    <path
       style="fill-opacity:1"
       d="m 43.839599,81.827738 c -1.497595,-0.294425 -3.04447,-0.793632 -3.4375,-1.109357 C 40.00907,80.402663 38.703125,79.938762 37.5,79.6875 36.296875,79.436238 35.03125,79.020669 34.6875,78.764006 33.244753,77.6868 30.697185,77.5171 29.777347,78.436937 28.269544,79.944744 25.708837,79.617819 24.886279,77.8125 24.178686,76.2595 24.123656,76.25 15.837178,76.25 7.9166669,76.25 7.5,76.187531 7.5,75 c 0,-1.188269 0.4166669,-1.25 8.4375,-1.25 l 8.4375,0 0,-8.125 0,-8.125 -8.4375,0 C 7.9166669,57.5 7.5,57.438272 7.5,56.25 7.5,55.062471 7.9166669,55 15.837178,55 c 8.286478,0 8.341508,-0.0095 9.049101,-1.5625 0.91142,-2.000349 4.086843,-2.189048 5.258767,-0.3125 0.42935,0.6875 1.009664,1.25 1.289586,1.25 0.567767,0 5.749022,-2.192334 7.517467,-3.180852 5.976924,-3.340952 5.883361,-3.320887 14.951822,-3.206294 10.359441,0.130907 13.304885,0.778475 14.714798,3.235107 0.763606,1.330506 1.620169,1.853325 3.435275,2.096781 2.636581,0.35364 4.558456,1.743435 5.198187,3.759048 0.225,0.708914 0.973513,1.745977 1.663363,2.304584 1.125856,0.911659 1.207531,1.452137 0.79775,5.27867 -0.348863,3.257606 -0.804394,4.610875 -1.931507,5.737987 -1.430625,1.430625 -1.784618,1.474969 -11.775193,1.474969 -6.370495,0 -10.971477,0.275981 -12.059657,0.723369 -1.528339,0.628356 -1.598858,0.760775 -0.536888,1.008131 0.672402,0.156619 2.666545,-0.03838 4.431428,-0.43335 4.830073,-1.080925 8.408523,0.739075 8.408523,4.276569 0,1.404462 -0.446994,1.933118 -2.34375,2.77195 -4.835496,2.138462 -13.735306,2.850775 -20.066651,1.606068 z m 16.442879,-3.4084 c 3.243822,-0.943007 3.568928,-1.174457 2.622134,-1.866775 -0.779688,-0.570119 -2.861646,-0.699407 -7.472824,-0.464069 -5.479159,0.279644 -6.51632,0.176462 -7.262387,-0.722494 -0.754126,-0.908669 -0.702616,-1.273406 0.38569,-2.731075 2.227292,-2.983219 6.175537,-3.879569 17.101159,-3.882406 9.952269,-0.0025 12.031275,-0.457907 10.50235,-2.30015 -0.511756,-0.616631 -3.015263,-0.829806 -9.828875,-0.836938 -9.460379,-0.0099 -11.174639,-0.364362 -10.482702,-2.167525 0.361553,-0.942193 1.524498,-1.031218 11.029183,-0.844325 7.623344,0.149894 10.624844,0.0088 10.624407,-0.499437 -0.0012,-1.189106 -2.395588,-1.461723 -12.917282,-1.47061 -7.520051,-0.0064 -10.171475,-0.208336 -10.367355,-0.789784 -0.606457,-1.800199 1.705388,-2.30396 10.664662,-2.323873 5.7981,-0.01289 8.807293,-0.239671 8.556862,-0.644877 -0.230312,-0.372656 -4.251813,-0.625 -9.960356,-0.625 -7.864755,0 -9.716925,-0.172108 -10.374128,-0.963989 -1.358038,-1.636335 0.05554,-2.105929 6.90473,-2.293757 5.946048,-0.163061 6.413479,-0.260065 5.033454,-1.044566 -0.989838,-0.562694 -4.459921,-0.976946 -9.933116,-1.185794 l -8.411818,-0.320982 -6.316883,3.184996 c -3.474286,1.751748 -7.090321,3.345401 -8.035633,3.541452 l -1.71875,0.356455 0,8.349766 0,8.349769 1.71875,0.679306 c 0.945312,0.373613 2.5625,0.868394 3.59375,1.0995 1.03125,0.231113 2.15625,0.621863 2.5,0.868344 1.305038,0.935738 5.128274,2.088125 8.4375,2.5432 4.590297,0.631244 8.920222,0.310119 13.407478,-0.994363 z M 20.112781,49.865226 c 0.213705,-1.481749 3.511467,-4.027984 6.038196,-4.662153 3.813217,-0.957057 10.992186,4.023608 8.245915,5.720897 -0.331709,0.205008 -1.737261,-0.377807 -3.12345,-1.295143 -2.930101,-1.939049 -5.959471,-1.817798 -8.101536,0.324267 -1.748832,1.748832 -3.317525,1.703774 -3.059125,-0.08787 z M 13.90625,46.461074 c -1.379398,-0.556599 -0.847828,-1.661842 2.101651,-4.369757 6.548858,-6.012503 16.601848,-6.060514 22.837692,-0.109068 4.103701,3.916545 2.740797,6.471412 -1.438172,2.695964 C 34.137699,41.724216 31.446989,40.625 27.485784,40.625 c -3.769213,0 -7.68104,1.634652 -10.298284,4.303388 -1.967513,2.006223 -2.032488,2.036573 -3.28125,1.532686 z M 7.5,40.594021 c 0,-2.52044 6.010871,-7.338962 11.895896,-9.53616 3.810602,-1.422705 12.397606,-1.422705 16.208208,0 C 41.307847,33.187377 47.5,38.195276 47.5,40.678656 47.5,42.57822 46.119264,42.090217 42.906161,39.055022 39.158504,35.514874 36.280029,34.037118 31.412731,33.154509 24.127484,31.833442 17.506327,33.855534 11.877662,39.120491 8.6359231,42.152757 7.5,42.535112 7.5,40.594021 Z"
       id="path4860"
       inkscape:connector-curvature="0" />
  </g>
</svg>
