<?xml version="1.0" encoding="UTF-8" standalone="no"?>
<!-- Created with Inkscape (http://www.inkscape.org/) -->

<svg
   xmlns:dc="http://purl.org/dc/elements/1.1/"
   xmlns:cc="http://creativecommons.org/ns#"
   xmlns:rdf="http://www.w3.org/1999/02/22-rdf-syntax-ns#"
   xmlns:svg="http://www.w3.org/2000/svg"
   xmlns="http://www.w3.org/2000/svg"
   xmlns:xlink="http://www.w3.org/1999/xlink"
   xmlns:sodipodi="http://sodipodi.sourceforge.net/DTD/sodipodi-0.dtd"
   xmlns:inkscape="http://www.inkscape.org/namespaces/inkscape"
   id="svg3606"
   version="1.1"
   inkscape:version="0.91 r13725"
   width="291.875"
   height="76.875"
   viewBox="0 0 291.875 76.875"
   sodipodi:docname="Apache.svg">
  <metadata
     id="metadata3612">
    <rdf:RDF>
      <cc:Work
         rdf:about="">
        <dc:format>image/svg+xml</dc:format>
        <dc:type
           rdf:resource="http://purl.org/dc/dcmitype/StillImage" />
        <dc:title></dc:title>
      </cc:Work>
    </rdf:RDF>
  </metadata>
  <defs
     id="defs3610" />
  <sodipodi:namedview
     pagecolor="#ffffff"
     bordercolor="#666666"
     borderopacity="1"
     objecttolerance="10"
     gridtolerance="10"
     guidetolerance="10"
     inkscape:pageopacity="0"
     inkscape:pageshadow="2"
     inkscape:window-width="640"
     inkscape:window-height="480"
     id="namedview3608"
     showgrid="false"
     inkscape:zoom="0.89764454"
     inkscape:cx="145.9375"
     inkscape:cy="38.4375"
     inkscape:window-x="757"
     inkscape:window-y="423"
     inkscape:window-maximized="0"
     inkscape:current-layer="svg3606" />
  <image
     width="291.875"
     height="76.875"
     preserveAspectRatio="none"
     xlink:href="file:///media/havoc/USB%20DISK/pics/_Companies/Apache.png"
     id="image3614"
     x="0"
     y="0"
     sodipodi:absref="/media/havoc/USB DISK/pics/_Companies/Apache.png" />
  <g
     id="g3616">
    <path
       style="fill:#fdfcfc"
       d="M 0,38.4375 0,0 145.9375,0 291.875,0 l 0,38.4375 0,38.4375 -145.9375,0 L 0,76.875 0,38.4375 Z"
       id="path3632"
       inkscape:connector-curvature="0" />
    <path
       style="fill:#eba4a7"
       d="M 60,70.9375 C 60,70.421875 60.28125,70 60.625,70 c 0.34375,0 0.625,0.421875 0.625,0.9375 0,0.515625 -0.28125,0.9375 -0.625,0.9375 C 60.28125,71.875 60,71.453125 60,70.9375 Z m 1.079467,-2.942662 c -0.16065,-0.444038 0.09325,-1.755751 0.564222,-2.914913 1.143586,-2.814627 1.087499,-3.204925 -0.460557,-3.204925 -0.944034,0 -1.209461,-0.279899 -0.9375,-0.988617 0.208652,-0.54374 0.379368,-1.246865 0.379368,-1.5625 0,-0.315636 0.421875,-0.573883 0.9375,-0.573883 1.173425,0 1.180588,-0.638567 0.03199,-2.852496 -0.98225,-1.893286 -0.782496,-2.772504 0.629899,-2.772504 0.563889,0 0.903595,-0.642616 0.908595,-1.71875 0.01175,-2.535281 2.735513,-10.624914 5.659107,-16.807751 4.223231,-8.93134 10.378618,-18.142771 16.124318,-24.129749 3.330407,-3.470265 5.314319,-3.8224488 7.6309,-1.3546331 2.44465,2.6042551 2.071507,6.8278281 -1.175218,13.3020051 C 89.929937,25.291864 88.75,28.029261 88.75,28.499227 c 0,0.469965 -1.099156,3.179585 -2.442569,6.021378 -1.343412,2.841792 -3.212606,7.062687 -4.153762,9.379766 -0.941156,2.31708 -2.655194,5.315718 -3.808963,6.663642 -1.248225,1.458271 -1.949494,2.837164 -1.731637,3.404888 0.210431,0.548383 -0.187588,1.428222 -0.935969,2.069009 -0.716156,0.61319 -1.3021,1.608402 -1.3021,2.211583 0,1.280388 -2.025169,2.73067 -4.6875,3.35686 -1.03125,0.242553 -2.222981,0.714941 -2.648294,1.049747 -0.425306,0.334813 -1.161375,0.459825 -1.6357,0.277806 -0.578018,-0.221806 -1.129868,0.479457 -1.67345,2.126525 -0.924231,2.800457 -2.191477,4.203388 -2.650589,2.934407 z M 96.5577,53.117237 c -0.239381,-0.387334 0.139794,-1.87998 0.842625,-3.316991 0.702825,-1.43701 2.440694,-5.425246 3.861925,-8.862746 1.42123,-3.4375 3.1952,-7.718548 3.94215,-9.513439 2.15251,-5.172373 3.71536,-5.090777 5.98549,0.3125 0.82632,1.966766 1.85619,4.419689 2.28861,5.450939 0.43241,1.03125 2.11897,4.912361 3.74791,8.624691 2.05818,4.690573 2.7626,6.948801 2.30903,7.402363 -1.29708,1.297088 -2.87918,0.154252 -4.66642,-3.370804 l -1.82205,-3.59375 -4.92197,0 -4.92197,0 -1.81914,3.59375 c -1.790409,3.536969 -3.814746,4.910032 -4.82619,3.273487 z M 111.25377,41.40625 c 0.004,-1.205826 -2.63047,-7.634917 -3.12877,-7.634917 -0.4983,0 -3.13292,6.429091 -3.12877,7.634917 0.003,0.895331 0.57068,1.09375 3.12877,1.09375 2.55809,0 3.12568,-0.198419 3.12877,-1.09375 z m 10.43926,11.953448 C 121.44936,53.116031 121.25,47.368632 121.25,40.587701 c 0,-10.665847 0.13336,-12.38014 0.98862,-12.708333 C 122.78236,27.670716 125.4682,27.5 128.20716,27.5 c 5.57285,0 7.6191,0.760703 10.15589,3.775505 2.15953,2.566452 2.25944,6.7977 0.2307,9.769783 -1.79704,2.632636 -2.26771,2.818386 -8.28125,3.268206 l -5,0.374006 -0.3125,4.375 c -0.27181,3.805287 -0.47863,4.39878 -1.58822,4.557614 -0.70164,0.100438 -1.47508,-0.01675 -1.71875,-0.260417 z m 12.25431,-12.828263 c 1.88397,-0.991645 2.28202,-1.74305 2.29309,-4.328739 0.0156,-3.642234 -2.02273,-5.060426 -6.93972,-4.828397 l -3.98821,0.188201 -0.18842,3.996671 c -0.10363,2.198168 -0.0421,4.377856 0.13663,4.84375 0.40911,1.066104 6.72775,1.159585 8.68663,0.128514 z m 4.61593,12.823504 c -1.04098,-1.040987 -0.14898,-3.56118 6.33664,-17.902908 0.74255,-1.642009 1.35009,-3.384138 1.35009,-3.871399 0,-0.48726 0.63364,-1.622574 1.40808,-2.52292 1.72983,-2.011048 3.18821,-1.615955 4.22073,1.143447 1.22438,3.272183 5.6301,13.679093 6.93797,16.388438 0.67094,1.389904 1.39311,3.594504 1.60481,4.899113 0.36075,2.222995 0.2922,2.358721 -1.09119,2.160403 -0.90196,-0.129302 -1.82764,-0.940932 -2.37982,-2.086613 -2.58903,-5.371729 -2.02444,-4.983141 -7.52832,-5.181435 l -5.03593,-0.181435 -1.72442,3.618935 c -1.59983,3.357489 -3.03727,4.597737 -4.09864,3.536374 z M 152.80029,41.40625 c -0.25215,-0.601563 -0.9284,-2.359375 -1.50278,-3.90625 -0.57437,-1.546875 -1.4395,-2.8125 -1.92251,-2.8125 -0.48301,0 -1.34814,1.265625 -1.92251,2.8125 -0.57438,1.546875 -1.25063,3.304687 -1.50278,3.90625 -0.40805,0.973508 -0.0315,1.09375 3.42529,1.09375 3.45677,0 3.83334,-0.120242 3.42529,-1.09375 z m 13.98926,10.934298 c -5.28636,-3.263172 -7.69229,-9.089009 -6.19331,-14.996798 2.45942,-9.693096 13.73309,-13.090361 19.74202,-5.94916 1.2299,1.461661 1.41641,2.059812 0.8537,2.737839 -0.99929,1.204071 -1.32465,1.122217 -4.00446,-1.007429 -7.26,-5.769524 -16.15954,2.570568 -12.49133,11.706102 2.11592,5.269636 8.87369,6.935141 13.09627,3.227676 2.46909,-2.167897 4.29483,-2.066874 3.97015,0.219678 -0.12312,0.866988 -1.36933,2.190462 -3.23947,3.440294 -3.84024,2.566464 -8.20821,2.797936 -11.73357,0.621798 z m 17.9775,0.45388 c -0.21563,-0.561914 -0.39205,-6.167347 -0.39205,-12.456517 0,-11.909455 0.32238,-13.394477 2.70894,-12.478669 0.77202,0.296256 1.03247,1.512907 1.17296,5.479533 l 0.1806,5.098725 6.5625,0 6.5625,0 0.18154,-4.788211 c 0.18879,-4.979458 0.95318,-6.514049 2.87695,-5.775826 0.91669,0.351766 1.01093,1.773287 0.86047,12.979533 l -0.16896,12.584504 -1.5625,0 c -1.52778,0 -1.56944,-0.125 -1.875,-5.625 l -0.3125,-5.625 -6.5625,0 -6.5625,0 -0.3125,5.625 c -0.28558,5.140436 -0.42679,5.641307 -1.6392,5.814295 -0.78252,0.11165 -1.48751,-0.229769 -1.71875,-0.832367 z m 25.04147,0.555755 C 209.57008,53.111749 209.375,47.3439 209.375,40.532741 c 0,-14.563237 -1.07135,-13.181022 10,-12.901625 l 7.1875,0.181384 0,1.5625 c 0,1.547619 -0.0625,1.565476 -6.5625,1.875 l -6.5625,0.3125 -0.18676,3.570749 -0.18675,3.57075 6.12425,0.17925 c 5.64784,0.165307 6.12426,0.276491 6.12426,1.429251 0,1.140351 -0.52083,1.277412 -5.9375,1.5625 l -5.9375,0.3125 0,3.75 0,3.75 6.875,0.3125 c 6.83333,0.310606 6.875,0.32197 6.875,1.875 l 0,1.5625 -8.47273,0.173099 c -4.66001,0.0952 -8.66782,-0.02198 -8.90625,-0.260416 z"
       id="path3630"
       inkscape:connector-curvature="0" />
    <path
       style="fill:#f1973a"
       d="m 63.59375,61.403232 c -2.632393,-0.256853 -2.784372,-0.505423 -1.307085,-2.137808 0.86936,-0.960635 0.913816,-1.41512 0.275472,-2.816145 -0.637828,-1.399875 -0.603253,-1.759033 0.213332,-2.216017 0.5687,-0.318262 0.971893,-1.378324 0.968206,-2.545568 C 63.728862,47.008256 69.411681,33.425614 74.909469,25 81.477681,14.933919 87.291931,8.125 89.319312,8.125 c 2.527507,0 4.774863,3.885179 4.079275,7.052157 -0.510093,2.322446 -2.864468,7.521937 -4.857025,10.726454 -0.843381,1.356361 -1.407849,2.793343 -1.254375,3.193294 0.326282,0.850285 -3.160656,8.721614 -4.128625,9.319852 C 82.796356,38.640615 82.5,39.475951 82.5,40.273058 c 0,4.155621 -4.456788,10.757656 -8.90625,13.193225 -2.399125,1.313243 -2.218094,2.366263 0.3125,1.817786 1.9445,-0.421448 1.987694,-0.390204 1.011425,0.73159 -0.560906,0.644513 -1.207156,1.787277 -1.436113,2.539476 -0.589418,1.936433 -5.306412,3.295121 -9.887812,2.848097 z M 97.5,52.318505 c 0,-0.500864 1.082531,-3.407114 2.405631,-6.458333 1.323089,-3.051219 3.502779,-8.144963 4.843749,-11.319431 1.54886,-3.666622 2.78006,-5.765876 3.37562,-5.755631 0.88796,0.01527 1.84844,1.810105 4.83095,9.02739 0.71027,1.71875 2.30449,5.469019 3.54272,8.333932 1.23823,2.864912 2.25133,5.630537 2.25133,6.145833 0,1.869538 -1.60249,0.391604 -3.35921,-3.098107 l -1.79671,-3.569158 -5.46908,0 -5.46908,0 -1.79671,3.569158 C 99.112413,52.664161 97.5,54.16384 97.5,52.318505 Z M 112.01888,41.25 c -0.0927,-0.859375 -0.56676,-2.410473 -1.05338,-3.446885 -0.48662,-1.036412 -1.17722,-2.653599 -1.53466,-3.59375 -0.73928,-1.94445 -1.81425,-2.232711 -2.29573,-0.615615 -0.1791,0.601562 -0.84413,2.21875 -1.47783,3.59375 -2.62017,5.685223 -2.44947,6.055497 2.67841,5.80966 3.6951,-0.177147 3.84495,-0.248228 3.68319,-1.74716 z m 10.28581,11.471354 C 122.06836,52.485026 121.875,47.00015 121.875,40.532741 l 0,-11.758926 1.60831,-0.403659 c 2.86024,-0.717875 10.49373,0.09028 12.3517,1.307662 3.7256,2.441108 4.58155,7.249223 1.97372,11.086984 -1.70146,2.503927 -2.79851,2.871865 -9.37123,3.143003 l -3.75,0.154695 -0.3125,4.326015 c -0.28723,3.976107 -0.97909,5.424066 -2.07031,4.332839 z m 12.92352,-12.141717 c 2.28198,-1.795006 2.37536,-6.552291 0.16928,-8.624787 -1.2977,-1.219133 -2.03925,-1.365488 -6.09375,-1.202696 l -4.61624,0.185346 -0.18561,4.629009 c -0.10208,2.545956 -0.0406,5.006893 0.13664,5.46875 0.22666,0.590663 1.60074,0.839741 4.63257,0.839741 3.41427,0 4.65267,-0.269288 5.95711,-1.295363 z m 3.85575,11.955077 c -0.22309,-0.360947 0.31364,-2.344543 1.19272,-4.407991 0.87908,-2.063448 2.32285,-5.509536 3.20839,-7.657973 0.88554,-2.148438 1.98982,-4.75 2.45394,-5.78125 0.46413,-1.03125 1.17997,-2.789063 1.59076,-3.90625 1.24916,-3.397277 2.62423,-2.610853 4.91766,2.8125 1.12658,2.664062 3.13831,7.375 4.4705,10.46875 3.0181,7.008914 3.54261,9.0625 2.31465,9.0625 -0.50776,0 -1.61557,-1.651645 -2.53129,-3.773936 l -1.62838,-3.773936 -5.81376,0.180186 -5.81376,0.180186 -1.36239,3.421565 c -1.37373,3.450055 -2.25363,4.381762 -2.99904,3.175649 z M 153.56125,41.71875 c -0.90716,-3.814048 -3.26726,-8.59375 -4.24338,-8.59375 -0.35099,0 -1.19766,1.335937 -1.8815,2.96875 -0.68383,1.632812 -1.51176,3.457121 -1.83985,4.054019 -1.39467,2.537367 -0.82566,2.977231 3.85134,2.977231 4.29503,0 4.43637,-0.04832 4.11339,-1.40625 z m 13.62625,9.893843 c -8.64553,-5.189327 -8.32486,-17.905043 0.56001,-22.206133 3.11169,-1.506342 5.25376,-1.611076 8.15528,-0.398741 2.25952,0.944088 4.72221,3.091299 4.72221,4.117281 0,1.045987 -1.22763,0.70568 -3.38194,-0.9375 -1.57467,-1.201053 -2.79607,-1.5625 -5.27999,-1.5625 -2.78506,0 -3.5304,0.280578 -5.39583,2.03125 -4.45451,4.180475 -4.45451,11.757025 0,15.9375 1.91163,1.794031 2.57467,2.03125 5.67739,2.03125 2.96703,0 3.88398,-0.293828 5.90013,-1.890646 2.72408,-2.157514 4.10133,-1.437706 1.84485,0.9642 -3.40033,3.619497 -8.65254,4.40475 -12.80211,1.914039 z m 18.12607,0.150556 c -0.19665,-0.797857 -0.27733,-6.22831 -0.17931,-12.067672 0.15834,-9.431751 0.29745,-10.639916 1.24605,-10.822083 0.92666,-0.177952 1.0919,0.481963 1.25,4.992023 l 0.18219,5.197083 7.1875,0 7.1875,0 0.3125,-4.993966 c 0.25882,-4.136057 0.50274,-5.03017 1.41991,-5.20471 1.03364,-0.196702 1.0961,0.594073 0.9375,11.868967 C 204.7133,50.978126 204.54514,52.8125 203.75,52.8125 c -0.74074,0 -1.00309,-1.180556 -1.25,-5.625 l -0.3125,-5.625 -7.1875,0 -7.1875,0 -0.3125,5.575365 c -0.20024,3.572503 -0.58487,5.665276 -1.0707,5.82565 -0.41701,0.137656 -0.91909,-0.402508 -1.11573,-1.200366 z m 25.12086,0.962947 C 210.19549,52.48716 210,47.024883 210,40.587701 c 0,-10.095929 0.13583,-11.756087 0.98862,-12.083333 1.58185,-0.607014 13.60645,-0.418666 14.63115,0.229177 1.84617,1.167182 -0.34755,1.843356 -6.56408,2.02327 l -6.24319,0.180685 0,4.0625 0,4.0625 5.78125,0.179704 c 4.50281,0.139965 5.78125,0.376644 5.78125,1.070296 0,0.693652 -1.27844,0.930331 -5.78125,1.070296 l -5.78125,0.179704 0,4.375 0,4.375 6.875,0.3125 c 5.55556,0.252525 6.875,0.492424 6.875,1.25 0,0.774312 -1.36588,0.96779 -7.84682,1.111512 -4.31576,0.09571 -8.04232,-0.02148 -8.28125,-0.260416 z"
       id="path3628"
       inkscape:connector-curvature="0" />
    <path
       style="fill:#bf688d"
       d="m 63.59375,61.403232 c -2.632393,-0.256853 -2.784372,-0.505423 -1.307085,-2.137808 0.86936,-0.960635 0.913816,-1.41512 0.275472,-2.816145 -0.637828,-1.399875 -0.603253,-1.759033 0.213332,-2.216017 0.5687,-0.318262 0.971893,-1.378324 0.968206,-2.545568 C 63.728862,46.998614 69.434019,33.372813 74.917912,25 76.1562,23.109375 78.648413,20.015625 80.456163,18.125 l 3.286806,-3.4375 0.0037,2.246883 c 0.0025,1.44758 -0.435919,2.644561 -1.23175,3.364779 -0.679394,0.614843 -1.084669,1.361559 -0.900613,1.659367 0.6105,0.987812 1.350538,0.562448 2.078332,-1.194603 0.899206,-2.170886 2.398025,-3.123705 5.759143,-3.661169 2.413213,-0.385889 2.592238,-0.322141 2.160963,0.769499 -0.258619,0.654634 -1.049288,2.737119 -1.757031,4.627744 -0.70775,1.890625 -1.646682,3.961976 -2.086525,4.603001 -0.439838,0.641027 -0.6654,1.515509 -0.501244,1.943295 0.340344,0.886915 -3.108788,8.75217 -4.1092,9.370461 -0.362206,0.223858 -0.658563,1.059194 -0.658563,1.856301 0,4.155621 -4.456787,10.757656 -8.90625,13.193225 -2.399125,1.313243 -2.218093,2.366263 0.3125,1.817786 1.9445,-0.421448 1.987694,-0.390204 1.011425,0.73159 -0.560906,0.644513 -1.207156,1.787277 -1.436112,2.539476 -0.589419,1.936433 -5.306413,3.295121 -9.887813,2.848097 z M 97.5,52.318505 c 0,-0.500864 1.082531,-3.407114 2.405631,-6.458333 1.323089,-3.051219 3.502779,-8.144963 4.843749,-11.319431 1.54886,-3.666622 2.78006,-5.765876 3.37562,-5.755631 0.88796,0.01527 1.84844,1.810105 4.83095,9.02739 0.71027,1.71875 2.30449,5.469019 3.54272,8.333932 1.23823,2.864912 2.25133,5.630537 2.25133,6.145833 0,1.869538 -1.60249,0.391604 -3.35921,-3.098107 l -1.79671,-3.569158 -5.46908,0 -5.46908,0 -1.79671,3.569158 C 99.112413,52.664161 97.5,54.16384 97.5,52.318505 Z M 112.01888,41.25 c -0.0927,-0.859375 -0.56676,-2.410473 -1.05338,-3.446885 -0.48662,-1.036412 -1.17722,-2.653599 -1.53466,-3.59375 -0.73928,-1.94445 -1.81425,-2.232711 -2.29573,-0.615615 -0.1791,0.601562 -0.84413,2.21875 -1.47783,3.59375 -2.62017,5.685223 -2.44947,6.055497 2.67841,5.80966 3.6951,-0.177147 3.84495,-0.248228 3.68319,-1.74716 z m 10.28581,11.471354 C 122.06836,52.485026 121.875,47.00015 121.875,40.532741 l 0,-11.758926 1.60831,-0.403659 c 2.86024,-0.717875 10.49373,0.09028 12.3517,1.307662 3.7256,2.441108 4.58155,7.249223 1.97372,11.086984 -1.70146,2.503927 -2.79851,2.871865 -9.37123,3.143003 l -3.75,0.154695 -0.3125,4.326015 c -0.28723,3.976107 -0.97909,5.424066 -2.07031,4.332839 z m 12.92352,-12.141717 c 2.28198,-1.795006 2.37536,-6.552291 0.16928,-8.624787 -1.2977,-1.219133 -2.03925,-1.365488 -6.09375,-1.202696 l -4.61624,0.185346 -0.18561,4.629009 c -0.10208,2.545956 -0.0406,5.006893 0.13664,5.46875 0.22666,0.590663 1.60074,0.839741 4.63257,0.839741 3.41427,0 4.65267,-0.269288 5.95711,-1.295363 z m 3.85575,11.955077 c -0.22309,-0.360947 0.31364,-2.344543 1.19272,-4.407991 0.87908,-2.063448 2.32285,-5.509536 3.20839,-7.657973 0.88554,-2.148438 1.98982,-4.75 2.45394,-5.78125 0.46413,-1.03125 1.17997,-2.789063 1.59076,-3.90625 1.24916,-3.397277 2.62423,-2.610853 4.91766,2.8125 1.12658,2.664062 3.13831,7.375 4.4705,10.46875 3.0181,7.008914 3.54261,9.0625 2.31465,9.0625 -0.50776,0 -1.61557,-1.651645 -2.53129,-3.773936 l -1.62838,-3.773936 -5.81376,0.180186 -5.81376,0.180186 -1.36239,3.421565 c -1.37373,3.450055 -2.25363,4.381762 -2.99904,3.175649 z M 153.56125,41.71875 c -0.90716,-3.814048 -3.26726,-8.59375 -4.24338,-8.59375 -0.35099,0 -1.19766,1.335937 -1.8815,2.96875 -0.68383,1.632812 -1.51176,3.457121 -1.83985,4.054019 -1.39467,2.537367 -0.82566,2.977231 3.85134,2.977231 4.29503,0 4.43637,-0.04832 4.11339,-1.40625 z m 13.62625,9.893843 c -8.64553,-5.189327 -8.32486,-17.905043 0.56001,-22.206133 3.11169,-1.506342 5.25376,-1.611076 8.15528,-0.398741 2.25952,0.944088 4.72221,3.091299 4.72221,4.117281 0,1.045987 -1.22763,0.70568 -3.38194,-0.9375 -1.57467,-1.201053 -2.79607,-1.5625 -5.27999,-1.5625 -2.78506,0 -3.5304,0.280578 -5.39583,2.03125 -4.45451,4.180475 -4.45451,11.757025 0,15.9375 1.91163,1.794031 2.57467,2.03125 5.67739,2.03125 2.96703,0 3.88398,-0.293828 5.90013,-1.890646 2.72408,-2.157514 4.10133,-1.437706 1.84485,0.9642 -3.40033,3.619497 -8.65254,4.40475 -12.80211,1.914039 z m 18.12607,0.150556 c -0.19665,-0.797857 -0.27733,-6.22831 -0.17931,-12.067672 0.15834,-9.431751 0.29745,-10.639916 1.24605,-10.822083 0.92666,-0.177952 1.0919,0.481963 1.25,4.992023 l 0.18219,5.197083 7.1875,0 7.1875,0 0.3125,-4.993966 c 0.25882,-4.136057 0.50274,-5.03017 1.41991,-5.20471 1.03364,-0.196702 1.0961,0.594073 0.9375,11.868967 C 204.7133,50.978126 204.54514,52.8125 203.75,52.8125 c -0.74074,0 -1.00309,-1.180556 -1.25,-5.625 l -0.3125,-5.625 -7.1875,0 -7.1875,0 -0.3125,5.575365 c -0.20024,3.572503 -0.58487,5.665276 -1.0707,5.82565 -0.41701,0.137656 -0.91909,-0.402508 -1.11573,-1.200366 z m 25.12086,0.962947 C 210.19549,52.48716 210,47.024883 210,40.587701 c 0,-10.095929 0.13583,-11.756087 0.98862,-12.083333 1.58185,-0.607014 13.60645,-0.418666 14.63115,0.229177 1.84617,1.167182 -0.34755,1.843356 -6.56408,2.02327 l -6.24319,0.180685 0,4.0625 0,4.0625 5.78125,0.179704 c 4.50281,0.139965 5.78125,0.376644 5.78125,1.070296 0,0.693652 -1.27844,0.930331 -5.78125,1.070296 l -5.78125,0.179704 0,4.375 0,4.375 6.875,0.3125 c 5.55556,0.252525 6.875,0.492424 6.875,1.25 0,0.774312 -1.36588,0.96779 -7.84682,1.111512 -4.31576,0.09571 -8.04232,-0.02148 -8.28125,-0.260416 z"
       id="path3626"
       inkscape:connector-curvature="0" />
    <path
       style="fill:#dd5d62"
       d="m 67.057788,58.90625 c 0.342443,-1.812866 1.972962,-6.629741 3.364099,-9.938206 0.455463,-1.0832 0.819225,-2.48945 0.808363,-3.125 -0.01656,-0.968322 -0.269713,-0.871423 -1.5625,0.598058 -0.848513,0.964482 -1.54275,2.173761 -1.54275,2.687288 0,0.513527 -0.468925,1.833781 -1.042056,2.933898 -0.573132,1.100116 -1.213175,2.822934 -1.422319,3.828484 -0.209138,1.005549 -0.688781,1.931112 -1.065862,2.056807 -0.845057,0.281685 -1.571238,-2.186092 -0.786088,-2.671342 0.311481,-0.192505 0.566325,-1.412618 0.566325,-2.711364 0,-4.595119 4.759562,-17.786476 8.934069,-24.761202 2.896856,-4.840049 4.225681,-6.641934 7.137644,-9.678671 l 3.296256,-3.4375 0.0037,2.246883 c 0.0025,1.447579 -0.435919,2.644561 -1.23175,3.364779 -0.679394,0.614843 -1.084669,1.361559 -0.900613,1.659367 0.6105,0.987812 1.350538,0.562448 2.078332,-1.194603 0.899206,-2.170886 2.398025,-3.123705 5.759143,-3.661169 2.413213,-0.385889 2.592238,-0.322141 2.160963,0.769499 -0.258619,0.654634 -1.051944,2.737119 -1.762932,4.627744 -0.710987,1.890625 -1.695381,4.057944 -2.187537,4.816265 -0.492162,0.758321 -0.714656,1.670309 -0.494431,2.026641 0.220225,0.356332 -0.739907,2.83971 -2.133625,5.518617 C 83.640319,37.54043 82.5,40.038002 82.5,40.411682 c 0,1.596451 -2.646869,6.454185 -4.930075,9.048044 -1.357944,1.542703 -3.6167,3.32246 -5.019456,3.955015 C 69.869944,54.623489 69.1239,56.25 71.25,56.25 c 0.910281,0 1.25,0.416667 1.25,1.533122 0,1.239228 -0.449287,1.657897 -2.34375,2.184015 -3.302994,0.917286 -3.461856,0.862893 -3.098462,-1.060887 z M 73.011281,41.5625 c 0.836613,-1.836171 -0.152806,-2.150137 -1.114294,-0.353588 -0.784174,1.465245 -0.81295,1.916088 -0.122312,1.916088 0.288575,0 0.845044,-0.703125 1.236606,-1.5625 z M 97.5,52.179766 c 0,-0.57717 0.393869,-1.79592 0.875269,-2.708334 0.481393,-0.912413 1.626091,-3.487057 2.543761,-5.721432 4.77268,-11.620668 6.50905,-15.128139 7.35034,-14.847711 0.43121,0.143736 1.82774,2.629209 3.1034,5.523274 5.45795,12.382234 7.37723,17.037324 7.37723,17.892942 0,1.845335 -1.61241,0.345656 -3.35921,-3.124347 l -1.79671,-3.569158 -5.46908,0 -5.46908,0 -1.79671,3.569158 C 99.06135,52.765602 97.5,54.153301 97.5,52.179766 Z M 112.01328,41.130028 C 111.79434,39.015654 108.84618,32.5 108.10843,32.5 c -1.08367,0 -4.63599,9.04526 -3.97338,10.117393 0.19186,0.310435 2.08215,0.48133 4.20064,0.379767 3.76937,-0.180708 3.84808,-0.22067 3.67759,-1.867132 z m 10.29141,11.591326 c -0.23633,-0.236328 -0.42969,-5.726562 -0.42969,-12.200521 0,-8.977243 0.18541,-11.78096 0.78125,-11.813502 4.01144,-0.219091 11.51479,0.261307 12.7301,0.815038 2.063,0.939966 3.98865,4.228954 3.98865,6.812568 0,1.235295 -0.65253,3.085169 -1.55861,4.4186 -1.6564,2.437614 -2.8153,2.803186 -10.00389,3.155714 l -3.125,0.153249 -0.3125,4.326015 c -0.28723,3.976107 -0.97909,5.424066 -2.07031,4.332839 z m 12.92352,-12.141717 c 2.28198,-1.795006 2.37536,-6.552291 0.16928,-8.624787 -1.2977,-1.219133 -2.03925,-1.365488 -6.09375,-1.202696 l -4.61624,0.185346 -0.18561,4.629009 c -0.10208,2.545956 -0.0406,5.006893 0.13664,5.46875 0.22666,0.590663 1.60074,0.839741 4.63257,0.839741 3.41427,0 4.65267,-0.269288 5.95711,-1.295363 z m 3.81848,11.89479 c -0.20258,-0.32779 0.38128,-2.354569 1.29747,-4.503954 0.9162,-2.149386 2.78303,-6.579848 4.14852,-9.845473 3.46351,-8.283135 3.86249,-9.029526 4.93735,-9.236525 0.91015,-0.175279 1.8616,1.729804 6.32977,12.674025 0.70171,1.71875 1.78059,4.109375 2.39751,5.3125 0.61692,1.203125 1.21359,2.890625 1.32593,3.75 0.37487,2.867558 -1.02605,2.115961 -2.76932,-1.485744 l -1.72357,-3.561035 -5.77643,0.179639 -5.77642,0.17964 -1.25,3.267394 c -1.22857,3.211372 -2.41405,4.445444 -3.14081,3.269533 z M 153.75,42.208704 c 0,-0.503962 -0.39858,-1.8399 -0.88574,-2.96875 -0.48715,-1.12885 -1.2244,-2.966516 -1.63832,-4.083704 -1.26093,-3.403256 -2.72148,-2.509602 -4.852,2.96875 -1.98274,5.098349 -2.04034,5 2.9282,5 3.49124,0 4.44786,-0.197071 4.44786,-0.916296 z m 13.66455,9.506844 c -9.28638,-5.732307 -8.43616,-18.864093 1.46474,-22.622936 1.88862,-0.717008 3.6845,-0.977509 5.01637,-0.727648 2.07514,0.389299 6.72934,3.712944 6.72934,4.805538 0,1.025295 -1.33306,0.620723 -3.23898,-0.983002 -2.71741,-2.286553 -7.7517,-2.225907 -10.54805,0.127068 -2.43452,2.048511 -3.71297,4.909963 -3.71297,8.310432 0,3.400469 1.27845,6.261921 3.71297,8.310432 1.65226,1.390289 2.62009,1.689568 5.46379,1.689568 2.90345,0 3.83744,-0.302216 5.843,-1.890646 2.72408,-2.157514 4.10133,-1.437706 1.84485,0.9642 -3.33928,3.554505 -8.69312,4.413242 -12.57506,2.016994 z m 17.97496,0.44725 c -0.50161,-1.307167 -0.51057,-21.12009 -0.0101,-22.424181 0.20864,-0.54374 0.75976,-0.988617 1.22471,-0.988617 0.6275,0 0.89214,1.328849 1.02688,5.15625 l 0.18153,5.15625 7.1875,0 7.1875,0 0.3125,-4.993966 c 0.25882,-4.136057 0.50274,-5.03017 1.41991,-5.20471 1.03364,-0.196702 1.0961,0.594073 0.9375,11.868967 C 204.7133,50.978126 204.54514,52.8125 203.75,52.8125 c -0.74074,0 -1.00309,-1.180556 -1.25,-5.625 l -0.3125,-5.625 -7.1875,0 -7.1875,0 -0.3125,5.575365 c -0.29696,5.298128 -1.18986,7.424062 -2.11049,5.024933 z m 25.04492,0.563298 c -0.71252,-0.712515 -0.51679,-23.22642 0.20579,-23.673007 0.49215,-0.304161 9.7852,-0.505782 15.03686,-0.326237 0.3724,0.01273 0.56083,0.37471 0.41873,0.804398 -0.1754,0.530379 -2.34962,0.881599 -6.77084,1.09375 l -6.51247,0.3125 -0.18426,4.194926 -0.18427,4.194925 5.75871,0.180075 c 3.81565,0.119315 5.84336,0.435567 6.00958,0.937287 0.18175,0.548567 -1.35426,0.806891 -5.57444,0.9375 l -5.82532,0.180287 0,4.375 0,4.375 6.875,0.3125 c 5.55556,0.252525 6.875,0.492424 6.875,1.25 0,0.774312 -1.36588,0.96779 -7.84682,1.111512 -4.31576,0.09571 -8.04232,-0.02148 -8.28125,-0.260416 z"
       id="path3624"
       inkscape:connector-curvature="0" />
    <path
       style="fill:#e0622e"
       d="m 67.057788,58.90625 c 0.450656,-2.385766 2.289993,-7.523735 3.666287,-10.241347 0.633013,-1.249927 1.150144,-2.656177 1.149188,-3.125 -0.0012,-0.741065 1.013137,-3.100637 3.322881,-7.727403 0.343206,-0.6875 0.815737,-1.671875 1.050062,-2.1875 0.234325,-0.515625 0.865375,-1.78125 1.402338,-2.8125 0.536956,-1.03125 1.7347,-3.421875 2.66165,-5.3125 4.780181,-9.749723 4.729162,-9.691697 9.141406,-10.397243 2.415881,-0.386315 2.591706,-0.323346 2.148688,0.769499 -0.265382,0.654634 -0.889901,2.352766 -1.387819,3.773626 -0.497925,1.42086 -1.9383,3.790193 -3.200838,5.265184 -1.444893,1.688033 -2.011325,2.776537 -1.528575,2.937452 1.223375,0.407793 0.920594,1.452522 -1.666062,5.748616 -1.336075,2.219049 -2.305138,4.358012 -2.153469,4.753252 0.431194,1.123677 -2.529312,7.293525 -4.669062,9.730565 -1.063088,1.210793 -3.071744,2.714992 -4.463675,3.342667 C 69.866606,54.624996 69.130231,56.25 71.25,56.25 c 0.910281,0 1.25,0.416667 1.25,1.533122 0,1.239228 -0.449287,1.657897 -2.34375,2.184015 -3.302994,0.917286 -3.461856,0.862893 -3.098462,-1.060887 z M 63.57575,56.90118 c -0.183369,-0.701214 -0.07856,-1.432439 0.232925,-1.624943 0.311481,-0.192505 0.566325,-1.422509 0.566325,-2.733345 0,-4.134718 5.497606,-18.391016 9.528531,-24.709215 0.431181,-0.675852 1.959369,-3.066477 3.395969,-5.3125 1.436594,-2.246022 3.475656,-4.909734 4.53125,-5.919359 l 1.91925,-1.835682 0,2.267546 c 0,1.247151 -0.284519,2.443388 -0.632262,2.658305 -1.143263,0.706577 -5.036575,7.248652 -7.57815,12.733846 -1.372757,2.962667 -3.040119,6.409336 -3.70525,7.659264 -0.665138,1.249927 -1.208557,2.656177 -1.2076,3.125 0.0012,0.468822 -0.5359,1.977403 -1.193007,3.352403 -1.872025,3.917226 -3.740125,8.634727 -3.939425,9.948209 -0.253568,1.67114 -1.516437,1.928164 -1.918556,0.390471 z M 98.125,51.718842 c 0,-0.470211 0.412931,-1.400873 0.917625,-2.068136 0.504688,-0.667263 0.926562,-1.526558 0.9375,-1.909543 0.01094,-0.382985 0.856335,-2.49236 1.878685,-4.6875 1.70054,-3.651325 1.84689,-3.804902 1.71875,-1.803663 l -0.14006,2.1875 4.6875,0 4.6875,0 -0.16431,-2.073114 c -0.10111,-1.27575 0.0792,-1.922632 0.46875,-1.681865 0.34819,0.215188 0.63306,0.761415 0.63306,1.213837 0,0.452423 0.99491,3.005778 2.21091,5.674121 1.21601,2.668343 2.09888,5.164393 1.96195,5.546777 -0.22873,0.63874 -2.38698,-3.457911 -3.17338,-6.023506 C 114.45921,45.146756 113.57036,45 108.125,45 c -5.44132,0 -6.33586,0.147459 -6.6351,1.09375 -1.33874,4.233475 -3.3649,7.62061 -3.3649,5.625092 z M 122.64246,40.78125 122.8125,29.0625 126.875,28.863641 c 5.17912,-0.253517 8.23961,0.661848 10.26644,3.070601 2.27853,2.707884 2.2016,6.132304 -0.1981,8.818035 -1.72,1.925013 -2.07223,2.037902 -7.34375,2.35361 l -5.53709,0.331613 -0.18363,4.53125 c -0.101,2.492187 -0.45876,4.53125 -0.79504,4.53125 -0.38286,0 -0.54785,-4.380689 -0.44137,-11.71875 z m 12.31284,0.804366 c 2.10139,-1.08667 2.5447,-2.059163 2.5447,-5.582301 0,-2.091798 -0.37244,-3.001272 -1.78214,-4.351845 -1.6773,-1.606958 -2.07252,-1.696558 -6.71875,-1.523182 l -4.93661,0.184212 -0.18209,5.572144 c -0.1319,4.036212 0.0404,5.713284 0.625,6.084179 1.35816,0.861647 8.55281,0.597813 10.44989,-0.383207 z m 23.19169,9.705472 C 157.79114,50.626187 157.5,49.755541 157.5,49.35632 c 0,-0.399221 -0.58165,-1.542711 -1.29256,-2.541089 C 154.94716,45.045333 154.77653,45 149.375,45 c -5.33559,0 -5.58419,0.06338 -6.7413,1.71875 -0.66078,0.945312 -1.38841,2.492187 -1.61696,3.4375 -0.22856,0.945312 -0.69522,1.71875 -1.03703,1.71875 -0.34182,0 -0.15925,-1.054688 0.40571,-2.34375 0.56495,-1.289063 1.43217,-3.46875 1.92714,-4.84375 0.83976,-2.332782 2.31241,-4.596366 2.03307,-3.125 -0.37403,1.970127 0.12056,2.1875 4.97729,2.1875 5.22751,0 6.01929,-0.451414 4.93315,-2.8125 -0.57503,-1.25 -0.57503,-1.25 0.42409,0 0.54952,0.6875 1.17396,1.953125 1.38764,2.8125 0.21368,0.859375 0.85818,2.40625 1.4322,3.4375 1.10541,1.985892 2.10505,5.3125 1.5964,5.3125 -0.16633,0 -0.59357,-0.54401 -0.94941,-1.208912 z M 167.5,51.084207 c -3.26676,-2.08286 -4.78497,-4.145058 -5.62278,-7.637466 -1.34176,-5.593051 0.92461,-10.516279 6.1523,-13.364634 2.04539,-1.114453 3.32575,-1.398743 5.17964,-1.150085 2.3381,0.313605 7.2413,3.325857 6.54578,4.021365 -0.17993,0.179934 -1.20435,-0.410969 -2.2765,-1.313117 -2.73136,-2.298288 -7.38679,-2.306911 -10.6871,-0.01979 C 164.36911,33.299084 162.5,37.221037 162.5,40.625 c 0,0.908779 0.43942,2.941964 0.9765,4.518188 1.4022,4.115233 4.44832,6.10371 9.36959,6.116383 2.6301,0.0068 3.44238,0.186664 2.77891,0.615429 -1.67311,1.081251 -5.82226,0.677421 -8.125,-0.790793 z m 18.59375,1.054435 C 185.38708,51.427112 185.51396,29.375 186.22472,29.375 c 0.32985,0 0.68141,2.320312 0.78125,5.15625 l 0.18153,5.15625 7.8125,0 7.8125,0 0.18152,-5.15625 c 0.0999,-2.835938 0.45141,-5.15625 0.78125,-5.15625 0.36136,0 0.59973,4.595716 0.59973,11.5625 0,7.291667 -0.23086,11.5625 -0.625,11.5625 -0.36981,0 -0.625,-2.269378 -0.625,-5.558132 0,-4.491733 -0.18968,-5.630919 -0.98862,-5.9375 -1.99935,-0.767223 -13.82897,-0.414734 -14.53256,0.43303 -0.37082,0.446818 -0.75682,3.143583 -0.85777,5.992809 -0.10096,2.849226 -0.39449,4.968022 -0.6523,4.708435 z m 24.67371,-11.357392 0.17004,-11.71875 6.52025,-0.179373 c 8.88774,-0.244503 10.26712,0.710839 1.60475,1.111435 l -6.875,0.317938 -0.18381,4.540288 c -0.14852,3.66844 0.005,4.612755 0.79962,4.917667 0.89394,0.34304 0.8937,0.442991 -0.002,1.098452 -0.77826,0.569074 -0.94682,1.70628 -0.79962,5.394833 l 0.18631,4.67376 7.03125,0.176719 c 9.74197,0.24485 9.0874,1.385781 -0.79504,1.385781 l -7.82629,0 0.17004,-11.71875 z m -32.68977,8.991073 c 0.83337,-0.906027 1.78187,-1.647323 2.10778,-1.647323 0.83884,0 -0.76744,1.812029 -2.32157,2.618946 -1.16129,0.602951 -1.13827,0.498342 0.21379,-0.971623 z M 145.01914,38.75 c 0,-0.515625 0.27263,-1.359375 0.60586,-1.875 0.53854,-0.833333 0.60586,-0.833333 0.60586,0 0,0.515625 -0.27264,1.359375 -0.60586,1.875 -0.53854,0.833333 -0.60586,0.833333 -0.60586,0 z m 7.93115,-0.207367 c -0.69642,-1.770671 -0.58289,-2.675234 0.23332,-1.85902 0.37599,0.375986 0.57861,1.205674 0.45029,1.84375 -0.22505,1.118953 -0.24931,1.119495 -0.68361,0.01527 z M 105.01914,35.625 c 0,-0.515625 0.27264,-1.359375 0.60586,-1.875 0.53854,-0.833333 0.60586,-0.833333 0.60586,0 0,0.515625 -0.27263,1.359375 -0.60586,1.875 -0.53854,0.833333 -0.60586,0.833333 -0.60586,0 z M 110.3125,35 c -0.23465,-0.739311 -0.28601,-1.484826 -0.11413,-1.656701 0.17187,-0.171875 0.50448,0.29239 0.73913,1.031701 0.23465,0.739311 0.28601,1.484826 0.11413,1.656701 C 110.87976,36.203576 110.54715,35.739311 110.3125,35 Z M 147.5,32.150706 c 0,-0.363987 0.42187,-1.207737 0.9375,-1.875 0.92802,-1.200942 0.94697,-1.200942 1.875,0 1.40707,1.820871 1.14249,2.536794 -0.9375,2.536794 -1.03125,0 -1.875,-0.297807 -1.875,-0.661794 z m -40.14607,-1.659635 c 0.36121,-1.381277 1.13744,-1.44154 1.6417,-0.127454 0.50164,1.307239 0.54145,1.243526 -0.77709,1.243526 -0.8025,0 -1.06714,-0.341601 -0.86461,-1.116072 z"
       id="path3622"
       inkscape:connector-curvature="0" />
    <path
       style="fill:#d22c37"
       d="m 67.057788,58.90625 c 0.450656,-2.385766 2.289993,-7.523735 3.666287,-10.241347 0.633013,-1.249927 1.150144,-2.656177 1.149188,-3.125 -0.0012,-0.741065 1.013137,-3.100637 3.322881,-7.727403 1.178481,-2.360676 1.545794,-3.128217 2.243244,-4.6875 1.608956,-3.597131 3.017187,-5.310217 4.188912,-5.095739 1.71345,0.313638 4.622019,2.131091 4.619813,2.886744 -0.0013,0.355572 -1.095044,2.46208 -2.431119,4.681129 -1.336075,2.219048 -2.305138,4.358012 -2.153469,4.753252 0.431194,1.123677 -2.529312,7.293525 -4.669063,9.730565 -1.063087,1.210793 -3.071743,2.714992 -4.463674,3.342666 C 69.866606,54.624996 69.130231,56.25 71.25,56.25 c 0.910281,0 1.25,0.416667 1.25,1.533122 0,1.239228 -0.449287,1.657897 -2.34375,2.184015 -3.302994,0.917286 -3.461856,0.862893 -3.098462,-1.060887 z M 63.57575,56.90118 c -0.183369,-0.701214 -0.07856,-1.432439 0.232925,-1.624943 0.311481,-0.192505 0.566325,-1.422509 0.566325,-2.733345 0,-4.196949 4.665606,-16.260466 9.657644,-24.971073 0.846525,-1.477092 2.094887,-2.543797 2.998606,-2.562248 1.567831,-0.03201 -0.781444,6.783795 -5.196244,15.075526 -0.6655,1.249927 -1.209225,2.656177 -1.208268,3.125 0.0012,0.468822 -0.5359,1.977403 -1.193007,3.352403 -1.872025,3.917226 -3.740125,8.634727 -3.939425,9.948209 -0.253568,1.67114 -1.516437,1.928164 -1.918556,0.390471 z M 98.125,51.718842 c 0,-0.470211 0.412931,-1.400873 0.917625,-2.068136 0.504688,-0.667263 0.926562,-1.526558 0.9375,-1.909543 0.01094,-0.382985 0.856335,-2.49236 1.878685,-4.6875 1.70054,-3.651325 1.84689,-3.804902 1.71875,-1.803663 l -0.14006,2.1875 4.6875,0 4.6875,0 -0.16431,-2.073114 c -0.10111,-1.27575 0.0792,-1.922632 0.46875,-1.681865 0.34819,0.215188 0.63306,0.761415 0.63306,1.213837 0,0.452423 0.99491,3.005778 2.21091,5.674121 1.21601,2.668343 2.09888,5.164393 1.96195,5.546777 -0.22873,0.63874 -2.38698,-3.457911 -3.17338,-6.023506 C 114.45921,45.146756 113.57036,45 108.125,45 c -5.44132,0 -6.33586,0.147459 -6.6351,1.09375 -1.33874,4.233475 -3.3649,7.62061 -3.3649,5.625092 z M 122.64246,40.78125 122.8125,29.0625 126.875,28.863641 c 5.17912,-0.253517 8.23961,0.661848 10.26644,3.070601 2.27853,2.707884 2.2016,6.132304 -0.1981,8.818035 -1.72,1.925013 -2.07223,2.037902 -7.34375,2.35361 l -5.53709,0.331613 -0.18363,4.53125 c -0.101,2.492187 -0.45876,4.53125 -0.79504,4.53125 -0.38286,0 -0.54785,-4.380689 -0.44137,-11.71875 z m 12.31284,0.804366 c 2.10139,-1.08667 2.5447,-2.059163 2.5447,-5.582301 0,-2.091798 -0.37244,-3.001272 -1.78214,-4.351845 -1.6773,-1.606958 -2.07252,-1.696558 -6.71875,-1.523182 l -4.93661,0.184212 -0.18209,5.572144 c -0.1319,4.036212 0.0404,5.713284 0.625,6.084179 1.35816,0.861647 8.55281,0.597813 10.44989,-0.383207 z m 23.19169,9.705472 C 157.79114,50.626187 157.5,49.755541 157.5,49.35632 c 0,-0.399221 -0.58165,-1.542711 -1.29256,-2.541089 C 154.94716,45.045333 154.77653,45 149.375,45 c -5.33559,0 -5.58419,0.06338 -6.7413,1.71875 -0.66078,0.945312 -1.38841,2.492187 -1.61696,3.4375 -0.22856,0.945312 -0.69522,1.71875 -1.03703,1.71875 -0.34182,0 -0.15925,-1.054688 0.40571,-2.34375 0.56495,-1.289063 1.43217,-3.46875 1.92714,-4.84375 0.83976,-2.332782 2.31241,-4.596366 2.03307,-3.125 -0.37403,1.970127 0.12056,2.1875 4.97729,2.1875 5.22751,0 6.01929,-0.451414 4.93315,-2.8125 -0.57503,-1.25 -0.57503,-1.25 0.42409,0 0.54952,0.6875 1.17396,1.953125 1.38764,2.8125 0.21368,0.859375 0.85818,2.40625 1.4322,3.4375 1.10541,1.985892 2.10505,5.3125 1.5964,5.3125 -0.16633,0 -0.59357,-0.54401 -0.94941,-1.208912 z M 167.5,51.084207 c -3.26676,-2.08286 -4.78497,-4.145058 -5.62278,-7.637466 -1.34176,-5.593051 0.92461,-10.516279 6.1523,-13.364634 2.04539,-1.114453 3.32575,-1.398743 5.17964,-1.150085 2.3381,0.313605 7.2413,3.325857 6.54578,4.021365 -0.17993,0.179934 -1.20435,-0.410969 -2.2765,-1.313117 -2.73136,-2.298288 -7.38679,-2.306911 -10.6871,-0.01979 C 164.36911,33.299084 162.5,37.221037 162.5,40.625 c 0,0.908779 0.43942,2.941964 0.9765,4.518188 1.4022,4.115233 4.44832,6.10371 9.36959,6.116383 2.6301,0.0068 3.44238,0.186664 2.77891,0.615429 -1.67311,1.081251 -5.82226,0.677421 -8.125,-0.790793 z m 18.59375,1.054435 C 185.38708,51.427112 185.51396,29.375 186.22472,29.375 c 0.32985,0 0.68141,2.320312 0.78125,5.15625 l 0.18153,5.15625 7.8125,0 7.8125,0 0.18152,-5.15625 c 0.0999,-2.835938 0.45141,-5.15625 0.78125,-5.15625 0.36136,0 0.59973,4.595716 0.59973,11.5625 0,7.291667 -0.23086,11.5625 -0.625,11.5625 -0.36981,0 -0.625,-2.269378 -0.625,-5.558132 0,-4.491733 -0.18968,-5.630919 -0.98862,-5.9375 -1.99935,-0.767223 -13.82897,-0.414734 -14.53256,0.43303 -0.37082,0.446818 -0.75682,3.143583 -0.85777,5.992809 -0.10096,2.849226 -0.39449,4.968022 -0.6523,4.708435 z m 24.67371,-11.357392 0.17004,-11.71875 6.52025,-0.179373 c 8.88774,-0.244503 10.26712,0.710839 1.60475,1.111435 l -6.875,0.317938 -0.18381,4.540288 c -0.14852,3.66844 0.005,4.612755 0.79962,4.917667 0.89394,0.34304 0.8937,0.442991 -0.002,1.098452 -0.77826,0.569074 -0.94682,1.70628 -0.79962,5.394833 l 0.18631,4.67376 7.03125,0.176719 c 9.74197,0.24485 9.0874,1.385781 -0.79504,1.385781 l -7.82629,0 0.17004,-11.71875 z m -32.68977,8.991073 c 0.83337,-0.906027 1.78187,-1.647323 2.10778,-1.647323 0.83884,0 -0.76744,1.812029 -2.32157,2.618946 -1.16129,0.602951 -1.13827,0.498342 0.21379,-0.971623 z M 145.01914,38.75 c 0,-0.515625 0.27263,-1.359375 0.60586,-1.875 0.53854,-0.833333 0.60586,-0.833333 0.60586,0 0,0.515625 -0.27264,1.359375 -0.60586,1.875 -0.53854,0.833333 -0.60586,0.833333 -0.60586,0 z m 7.93115,-0.207367 c -0.69642,-1.770671 -0.58289,-2.675234 0.23332,-1.85902 0.37599,0.375986 0.57861,1.205674 0.45029,1.84375 -0.22505,1.118953 -0.24931,1.119495 -0.68361,0.01527 z M 105.01914,35.625 c 0,-0.515625 0.27264,-1.359375 0.60586,-1.875 0.53854,-0.833333 0.60586,-0.833333 0.60586,0 0,0.515625 -0.27263,1.359375 -0.60586,1.875 -0.53854,0.833333 -0.60586,0.833333 -0.60586,0 z M 110.3125,35 c -0.23465,-0.739311 -0.28601,-1.484826 -0.11413,-1.656701 0.17187,-0.171875 0.50448,0.29239 0.73913,1.031701 0.23465,0.739311 0.28601,1.484826 0.11413,1.656701 C 110.87976,36.203576 110.54715,35.739311 110.3125,35 Z M 147.5,32.150706 c 0,-0.363987 0.42187,-1.207737 0.9375,-1.875 0.92802,-1.200942 0.94697,-1.200942 1.875,0 1.40707,1.820871 1.14249,2.536794 -0.9375,2.536794 -1.03125,0 -1.875,-0.297807 -1.875,-0.661794 z m -40.14607,-1.659635 c 0.36121,-1.381277 1.13744,-1.44154 1.6417,-0.127454 0.50164,1.307239 0.54145,1.243526 -0.77709,1.243526 -0.8025,0 -1.06714,-0.341601 -0.86461,-1.116072 z"
       id="path3620"
       inkscape:connector-curvature="0" />
    <path
       style="fill:#ac2558"
       d="m 67.057788,58.90625 c 0.450656,-2.385766 2.289993,-7.523735 3.666287,-10.241347 0.633013,-1.249927 1.150925,-2.719692 1.150925,-3.266144 0,-0.546451 0.592425,-1.914407 1.3165,-3.039903 0.724069,-1.125496 1.157806,-1.562082 0.963862,-0.970191 -0.267956,0.817735 0.332744,1.37934 2.501432,2.338654 1.569731,0.694368 3.127975,1.093201 3.462756,0.886294 1.030869,-0.63711 -1.28685,3.373704 -3.22545,5.581646 -1.007894,1.147923 -2.971381,2.600684 -4.363312,3.228358 C 69.866606,54.624996 69.130231,56.25 71.25,56.25 c 0.910281,0 1.25,0.416667 1.25,1.533122 0,1.239228 -0.449287,1.657897 -2.34375,2.184015 -3.302994,0.917286 -3.461856,0.862893 -3.098462,-1.060887 z M 63.57575,56.90118 c -0.183369,-0.701214 -0.07856,-1.432439 0.232925,-1.624943 0.311481,-0.192505 0.566325,-1.422509 0.566325,-2.733345 0,-2.245173 2.497787,-10.960913 3.759344,-13.117788 0.500669,-0.855995 0.580175,-0.83214 0.59665,0.179007 0.01438,0.884206 0.374543,1.098645 1.487737,0.885845 1.38565,-0.264884 1.432925,-0.171785 0.835744,1.645889 -0.348137,1.059661 -1.124044,3.051655 -1.724231,4.426655 -2.309619,5.291215 -3.661156,8.796328 -3.835938,9.948209 -0.253568,1.67114 -1.516437,1.928164 -1.918556,0.390471 z"
       id="path3618"
       inkscape:connector-curvature="0" />
  </g>
</svg>
