<?xml version="1.0" encoding="UTF-8" standalone="no"?>
<!-- Created with Inkscape (http://www.inkscape.org/) -->

<svg
   xmlns:dc="http://purl.org/dc/elements/1.1/"
   xmlns:cc="http://creativecommons.org/ns#"
   xmlns:rdf="http://www.w3.org/1999/02/22-rdf-syntax-ns#"
   xmlns:svg="http://www.w3.org/2000/svg"
   xmlns="http://www.w3.org/2000/svg"
   xmlns:xlink="http://www.w3.org/1999/xlink"
   xmlns:sodipodi="http://sodipodi.sourceforge.net/DTD/sodipodi-0.dtd"
   xmlns:inkscape="http://www.inkscape.org/namespaces/inkscape"
   id="svg3406"
   version="1.1"
   inkscape:version="0.91 r13725"
   width="291.875"
   height="76.875"
   viewBox="0 0 291.875 76.875"
   sodipodi:docname="Appcelerator.svg">
  <metadata
     id="metadata3412">
    <rdf:RDF>
      <cc:Work
         rdf:about="">
        <dc:format>image/svg+xml</dc:format>
        <dc:type
           rdf:resource="http://purl.org/dc/dcmitype/StillImage" />
        <dc:title></dc:title>
      </cc:Work>
    </rdf:RDF>
  </metadata>
  <defs
     id="defs3410" />
  <sodipodi:namedview
     pagecolor="#ffffff"
     bordercolor="#666666"
     borderopacity="1"
     objecttolerance="10"
     gridtolerance="10"
     guidetolerance="10"
     inkscape:pageopacity="0"
     inkscape:pageshadow="2"
     inkscape:window-width="640"
     inkscape:window-height="480"
     id="namedview3408"
     showgrid="false"
     inkscape:zoom="0.9764454"
     inkscape:cx="145.9375"
     inkscape:cy="38.4375"
     inkscape:window-x="824"
     inkscape:window-y="78"
     inkscape:window-maximized="0"
     inkscape:current-layer="svg3406" />
  <image
     width="291.875"
     height="76.875"
     preserveAspectRatio="none"
     xlink:href="file:///media/havoc/USB%20DISK/pics/_Companies/Appcelerator.png"
     id="image3414"
     x="0"
     y="0"
     sodipodi:absref="/media/havoc/USB DISK/pics/_Companies/Appcelerator.png" />
  <g
     id="g3416">
    <path
       style="fill:#fcfcfc"
       d="M 0,38.4375 0,0 145.9375,0 291.875,0 l 0,38.4375 0,38.4375 -145.9375,0 L 0,76.875 0,38.4375 Z"
       id="path3432"
       inkscape:connector-curvature="0" />
    <path
       style="fill:#d1a8a9"
       d="M 40.75,57.375 C 38.991046,55.616046 39.051236,55.490958 54.523988,28.75 63.887656,12.567132 64.071619,12.436618 68.010406,19.182034 82.561513,44.101728 88.75,55.025159 88.75,55.789926 c 0,0.203933 -0.441963,0.812753 -0.982144,1.352931 -0.856712,0.856711 -3.873919,0.982143 -23.625,0.982143 -16.777777,0 -22.837125,-0.194269 -23.392856,-0.75 z m 24.33625,-7.212868 c 1.432994,-0.846489 1.949263,-0.913692 2.326769,-0.302875 0.755044,1.221692 9.068694,0.163921 9.328275,-1.186865 0.256356,-1.334019 -1.487619,-1.966407 -2.933213,-1.06362 -0.628375,0.392427 -1.601631,0.537319 -2.162787,0.321981 -0.8584,-0.329399 -1.020294,-1.485498 -1.020294,-7.286137 0,-6.031677 -0.154462,-7.049078 -1.2341,-8.128719 -1.6152,-1.615196 -3.331356,-2.002171 -7.848369,-1.769722 -2.952358,0.151931 -3.760742,0.416532 -3.926035,1.285075 -0.180733,0.949681 0.320241,1.09375 3.803309,1.09375 4.639976,0 6.31382,1.167182 5.970795,4.163479 -0.189212,1.652726 -0.438131,1.800587 -3.6406,2.162564 -1.890625,0.213699 -4.202802,0.747324 -5.138171,1.185834 -3.04855,1.429191 -3.764762,6.760794 -1.278767,9.519373 1.2881,1.429339 5.338263,1.432411 7.753188,0.0059 z m -5.2425,-2.087194 c -1.456081,-0.848089 -1.404121,-3.850321 0.09004,-5.202519 0.855993,-0.774663 2.024186,-1.017818 4.218746,-0.878118 3.00085,0.191027 3.0371,0.218875 3.225401,2.477563 0.149824,1.797205 -0.113082,2.496957 -1.232819,3.28125 -1.603313,1.123005 -4.657975,1.279014 -6.301369,0.321824 z m 45.60161,4.662089 c -0.59638,-0.596378 -0.57406,-20.089499 0.0234,-20.431886 0.25781,-0.147746 2.49231,-0.461097 4.96555,-0.696335 4.02944,-0.383254 4.63029,-0.29421 5.78125,0.856744 1.1019,1.101886 1.28446,2.068468 1.28446,6.800504 0,5.015485 -0.13622,5.644023 -1.50107,6.926233 -0.82559,0.775598 -2.63882,1.562784 -4.02941,1.749301 -2.38126,0.319395 -2.53936,0.470938 -2.71768,2.605018 -0.15876,1.899937 -0.44547,2.295763 -1.77523,2.450838 -0.87224,0.101719 -1.7863,-0.01547 -2.03125,-0.260417 z m 7.55322,-13.205777 c 0.17984,-3.775528 0.13502,-3.90625 -1.33939,-3.90625 -1.83824,0 -2.28419,0.99425 -2.28419,5.092631 0,3.029891 0.0472,3.109969 1.71875,2.917633 1.64719,-0.18953 1.7265,-0.360397 1.90483,-4.104014 z m 7.15037,12.867701 c -0.86091,-0.860908 -1.14572,-19.612129 -0.3052,-20.09381 0.25781,-0.147746 2.49231,-0.461097 4.96555,-0.696335 4.02944,-0.383254 4.63029,-0.29421 5.78125,0.856744 1.10189,1.101886 1.28445,2.068468 1.28445,6.800504 0,5.015485 -0.13622,5.644023 -1.50107,6.926233 -0.82559,0.775598 -2.63882,1.562784 -4.02941,1.749301 -2.38126,0.319395 -2.53936,0.470938 -2.71768,2.605018 -0.14335,1.715512 -0.49473,2.309665 -1.44664,2.446095 -0.69151,0.09911 -1.60557,-0.168078 -2.03125,-0.59375 z m 7.22463,-12.867701 c 0.16431,-3.449406 0.051,-3.90625 -0.96876,-3.90625 -1.92492,0 -2.65482,1.334527 -2.65482,4.854014 0,3.2902 0.0327,3.350251 1.71875,3.15625 1.64719,-0.18953 1.7265,-0.360397 1.90483,-4.104014 z M 91.895806,46.36696 C 89.45425,43.925401 89.432681,41.721166 91.826925,39.326923 93.153725,38.000121 94.255737,37.5 95.852537,37.5 c 2.352138,0 3.423275,-0.8408 2.126407,-1.669145 C 97.54365,35.55282 95.927056,35.322449 94.386512,35.318919 92.191469,35.313919 91.538069,35.069391 91.36615,34.188726 90.986744,32.245122 92.444844,31.25 95.672119,31.25 c 5.977001,0 7.442381,1.944459 7.449391,9.884838 0.004,5.222323 -0.64159,6.348699 -3.604035,6.282026 -1.281487,-0.02884 -3.09405,0.149688 -4.027919,0.396732 -1.387881,0.367147 -2.044137,0.102975 -3.59375,-1.446636 z m 5.865575,-2.996328 C 98.305125,43.161979 98.75,42.580798 98.75,42.079118 c 0,-1.349327 -3.3704,-0.814094 -3.634231,0.577132 -0.213707,1.126866 0.833681,1.409686 2.645612,0.714382 z M 136.25,47.030279 134.0625,45.9375 133.88437,39.906322 c -0.17383,-5.885728 -0.13788,-6.062833 1.49054,-7.34375 2.03287,-1.599058 7.76939,-1.857976 8.97517,-0.405096 1.56691,1.888008 0.52597,3.142397 -2.78112,3.351407 -3.57697,0.226065 -4.04625,0.718353 -4.05939,4.258339 -0.0116,3.131036 0.74228,3.837302 4.3723,4.096056 2.17754,0.155219 2.84556,0.46619 3.02445,1.407911 0.52169,2.74631 -4.59763,3.786632 -8.65632,1.75909 z m 12.51232,0.29194 c -2.45133,-1.240307 -3.20794,-3.366092 -2.99349,-8.410476 0.25219,-5.932004 1.48067,-7.349243 6.37041,-7.349243 2.41067,0 3.72126,0.33189 4.65792,1.179555 1.61907,1.465241 2.2445,4.534463 1.38477,6.795699 -0.61134,1.607969 -0.88311,1.712246 -4.46229,1.712246 -3.29218,0 -3.78303,0.148972 -3.6038,1.09375 0.1584,0.834985 1.01948,1.167683 3.63958,1.40625 2.96918,0.270352 3.459,0.502032 3.63167,1.717742 0.1475,1.038568 -0.23005,1.568589 -1.44694,2.03125 -2.23194,0.848582 -5.30071,0.773005 -7.17783,-0.176773 z M 153.75,36.614583 c 0,-0.486979 -0.35156,-1.011474 -0.78125,-1.165545 -1.07453,-0.385288 -3.08794,0.727467 -2.63687,1.45732 0.58489,0.946376 3.41812,0.704528 3.41812,-0.291775 z M 170,47.683607 c -0.51563,-0.18849 -1.57031,-0.918436 -2.34375,-1.622104 -1.22713,-1.116432 -1.40625,-1.895885 -1.40625,-6.119332 0,-5.812003 0.25592,-6.594212 2.5447,-7.777787 3.25514,-1.683296 8.5945,-0.608333 9.56706,1.926117 0.65306,1.701847 0.43216,5.615574 -0.36176,6.409499 -0.4125,0.4125 -2.26125,0.75 -4.10833,0.75 -2.86079,0 -3.32758,0.162039 -3.15082,1.09375 0.15433,0.813473 1.00551,1.173829 3.32165,1.40625 2.44252,0.245103 3.16367,0.573179 3.34379,1.521189 0.1263,0.664779 -0.27658,1.578842 -0.89528,2.03125 -1.12165,0.820169 -4.73193,1.031522 -6.51101,0.381169 z m 3.95291,-10.594851 c 0.22618,-0.226185 0.1029,-0.782775 -0.27396,-1.236867 -0.74213,-0.894208 -3.05395,-0.103073 -3.05395,1.045101 0,0.675755 2.68898,0.830703 3.32791,0.191766 z m 17.64668,9.567647 C 187.94166,42.998484 190.7096,37.5 196.20891,37.5 c 1.27557,0 1.91609,-0.309413 1.91609,-0.925593 0,-1.014725 -1.78769,-1.539376 -4.67034,-1.370649 -2.07412,0.121401 -2.87742,-1.452552 -1.55474,-3.046282 1.2053,-1.452299 6.94224,-1.194004 8.97381,0.404028 1.64315,1.2925 1.66475,1.407971 1.49054,7.96875 l -0.17677,6.657246 -2.5,0.116046 c -1.375,0.06383 -3.39737,0.304235 -4.49416,0.534243 -1.63067,0.34197 -2.28574,0.126627 -3.59375,-1.181386 z m 6.4086,-4.312653 c 0.1538,-0.806933 -0.20362,-1.09375 -1.36298,-1.09375 -1.70854,0 -2.58302,0.863236 -1.93562,1.910741 0.62826,1.01655 3.06413,0.41324 3.2986,-0.816991 z m 9.80431,5.059543 C 205.50762,46.14262 205,44.863829 205,40.318044 c 0,-2.559012 -0.31008,-4.753116 -0.73123,-5.174275 -0.85222,-0.852218 0.3624,-5.30961 1.76376,-6.472637 1.15506,-0.958614 2.6265,-0.241789 3.33638,1.625352 0.35735,0.939885 1.09106,1.578516 1.81354,1.578516 0.66736,0 1.33944,0.351562 1.49351,0.78125 0.45144,1.259019 -0.74239,2.96875 -2.07295,2.96875 -1.08541,0 -1.22801,0.439244 -1.22801,3.782512 0,3.640874 0.0702,3.806988 1.875,4.436141 1.09298,0.381015 1.875,1.097339 1.875,1.717488 0,2.329018 -2.70651,3.26752 -5.3125,1.842152 z m 8.76427,-0.25624 c -2.64116,-1.377188 -2.80652,-1.836856 -2.8172,-7.831435 -0.0114,-6.406189 0.72727,-7.454691 5.58041,-7.921017 2.81656,-0.270635 3.27818,-0.12259 5.00633,1.60556 1.76622,1.766216 1.90369,2.226052 1.90369,6.36785 0,5.106815 -0.55024,6.488027 -3.11249,7.81302 -2.3206,1.200028 -4.21297,1.190228 -6.56074,-0.03398 z M 221.5625,39.6875 c 0,-3.477041 -0.10859,-3.765354 -1.49182,-3.960932 -1.87809,-0.26555 -2.54897,0.780185 -2.56111,3.992182 -0.0108,2.846885 0.93482,4.165648 2.79563,3.898951 1.10001,-0.157658 1.2573,-0.649329 1.2573,-3.930201 z m -61.27009,7.048018 c -0.17902,-0.466507 -0.24773,-5.336905 -0.1527,-10.823106 l 0.17279,-9.974912 1.875,0 1.875,0 0,10.625 0,10.625 -1.72231,0.198107 c -1.02712,0.118145 -1.85367,-0.144251 -2.04778,-0.650089 z m 20.31808,-0.512636 c -0.69864,-1.305413 -0.68618,-13.251573 0.0145,-13.919034 0.17187,-0.163723 2.14062,-0.397504 4.375,-0.519513 l 4.0625,-0.221835 0,1.83527 c 0,1.541393 -0.32139,1.918551 -2.00709,2.355359 l -2.00709,0.520088 -0.18041,5.457142 c -0.17863,5.403288 -0.19695,5.459053 -1.85712,5.650849 -1.20279,0.138955 -1.88124,-0.188447 -2.4003,-1.158326 z m 47.95987,0.889145 c -0.59583,-0.59583 -0.57395,-14.460023 0.0234,-14.823435 0.25781,-0.156848 2.15625,-0.384384 4.21875,-0.505635 3.69038,-0.216952 3.75315,-0.193075 3.9481,1.501847 0.14135,1.228873 -0.12723,1.823733 -0.9375,2.076344 -2.82668,0.881259 -3.00482,1.233908 -3.3231,6.578679 -0.30117,5.057325 -0.37003,5.254381 -1.89839,5.432617 -0.87224,0.101718 -1.78631,-0.01547 -2.03125,-0.260417 z"
       id="path3430"
       inkscape:connector-curvature="0" />
    <path
       style="fill:#b5b5b5"
       d="m 41.054987,57.096654 c -0.744873,-0.744874 -0.468158,-3.014024 0.543721,-4.458684 0.53554,-0.764589 0.773334,-1.714375 0.528432,-2.110634 -0.244901,-0.39626 -0.190883,-0.566968 0.120043,-0.379354 0.310924,0.187615 5.083776,-7.432992 10.606338,-16.934682 7.604103,-13.083029 10.330735,-17.2758 11.234766,-17.2758 0.904963,0 3.615257,4.182062 11.203563,17.287415 5.5054,9.508078 10.219969,17.157533 10.476825,16.998789 0.256856,-0.158745 0.281806,0.193994 0.05544,0.783863 -0.247749,0.645625 -0.161981,0.918245 0.215488,0.684954 0.344875,-0.213144 0.656612,-0.04834 0.69275,0.366222 0.03612,0.414566 0.331762,1.795668 0.656944,3.069115 l 0.591243,2.315358 -23.247793,0.04171 C 51.946479,57.50787 41.29148,57.333146 41.054987,57.096654 Z M 63.75,51.056864 c 0,-0.278099 0.283237,-0.330585 0.629412,-0.116636 0.346182,0.21395 0.798144,-0.0507 1.004369,-0.588114 0.206225,-0.537413 0.83705,-0.95491 1.401838,-0.927772 0.654531,0.03145 0.742181,0.164121 0.241737,0.365882 C 65.614494,50.359834 66.9005,51.25 69.136269,51.25 c 1.299181,0 2.030644,-0.253806 1.801231,-0.625 -0.234988,-0.380218 0.6685,-0.621252 2.306862,-0.615429 1.969119,0.007 2.4411,0.172448 1.755638,0.615429 -0.515625,0.333223 -0.634963,0.610166 -0.265194,0.615429 0.369763,0.0053 1.334781,-0.695604 2.144475,-1.557485 1.443075,-1.536084 1.448319,-1.58537 0.265194,-2.493745 -1.3305,-1.021532 -3.776825,-0.979029 -3.586419,0.06231 0.06631,0.362633 -0.460662,0.616513 -1.171037,0.564178 -1.2297,-0.09059 -1.286288,-0.428891 -1.180763,-7.058825 0.06094,-3.830018 -0.174756,-7.497315 -0.523825,-8.149547 -1.011875,-1.890705 -3.834131,-2.681603 -8.85216,-2.480697 -4.51882,0.180919 -4.647946,0.23068 -4.836602,1.863878 l -0.193831,1.677996 4.353957,-0.115496 c 2.394674,-0.06352 4.24133,0.06597 4.103674,0.287763 -0.137663,0.221793 0.188806,0.571756 0.725475,0.777697 0.635037,0.243684 0.906594,0.97586 0.777662,2.09674 -0.184512,1.604109 -0.435943,1.743748 -3.663881,2.034802 -3.935534,0.354856 -6.626248,1.838725 -7.499622,4.135874 -0.772047,2.030639 -0.767411,4.614126 0.0083,4.614126 0.332962,0 0.451841,0.400129 0.264176,0.889176 -0.632737,1.648888 1.726794,3.173324 4.91169,3.173324 1.632812,0 2.96875,-0.227536 2.96875,-0.505636 z m -3.443801,-3.567059 c -0.215915,-0.349357 -0.593531,-0.510996 -0.839147,-0.359196 -0.900513,0.556548 -0.373444,-3.066533 0.588364,-4.044423 0.746852,-0.75934 1.676172,-0.91834 3.749997,-0.641602 2.406431,0.321123 2.7815,0.578827 2.949018,2.026233 0.134144,1.159023 -0.237037,1.95878 -1.232812,2.65625 -1.599794,1.120537 -4.617364,1.330412 -5.21542,0.362738 z m 45.139161,5.247222 c -0.59638,-0.596378 -0.57406,-20.089499 0.0234,-20.431886 0.25781,-0.147746 2.49231,-0.461097 4.96555,-0.696335 4.02944,-0.383254 4.63029,-0.29421 5.78125,0.856744 1.1019,1.101886 1.28446,2.068468 1.28446,6.800504 0,5.015485 -0.13622,5.644023 -1.50107,6.926233 -0.82559,0.775598 -2.63882,1.562784 -4.02941,1.749301 -2.38126,0.319395 -2.53936,0.470938 -2.71768,2.605018 -0.15876,1.899937 -0.44547,2.295763 -1.77523,2.450838 -0.87224,0.101719 -1.7863,-0.01547 -2.03125,-0.260417 z m 7.55322,-13.205777 c 0.17984,-3.775528 0.13502,-3.90625 -1.33939,-3.90625 -1.83824,0 -2.28419,0.99425 -2.28419,5.092631 0,3.029891 0.0472,3.109969 1.71875,2.917633 1.64719,-0.18953 1.7265,-0.360397 1.90483,-4.104014 z m 7.15037,12.867701 c -0.86091,-0.860908 -1.14572,-19.612129 -0.3052,-20.09381 0.25781,-0.147746 2.49231,-0.461097 4.96555,-0.696335 4.02944,-0.383254 4.63029,-0.29421 5.78125,0.856744 1.10189,1.101886 1.28445,2.068468 1.28445,6.800504 0,5.015485 -0.13622,5.644023 -1.50107,6.926233 -0.82559,0.775598 -2.63882,1.562784 -4.02941,1.749301 -2.38126,0.319395 -2.53936,0.470938 -2.71768,2.605018 -0.14335,1.715512 -0.49473,2.309665 -1.44664,2.446095 -0.69151,0.09911 -1.60557,-0.168078 -2.03125,-0.59375 z m 7.22463,-12.867701 c 0.16431,-3.449406 0.051,-3.90625 -0.96876,-3.90625 -1.92492,0 -2.65482,1.334527 -2.65482,4.854014 0,3.2902 0.0327,3.350251 1.71875,3.15625 1.64719,-0.18953 1.7265,-0.360397 1.90483,-4.104014 z M 91.895806,46.36696 C 89.45425,43.925401 89.432681,41.721166 91.826925,39.326923 93.153725,38.000121 94.255737,37.5 95.852537,37.5 c 2.352138,0 3.423275,-0.8408 2.126407,-1.669145 C 97.54365,35.55282 95.927056,35.322449 94.386512,35.318919 92.191469,35.313919 91.538069,35.069391 91.36615,34.188726 90.986744,32.245122 92.444844,31.25 95.672119,31.25 c 5.977001,0 7.442381,1.944459 7.449391,9.884838 0.004,5.222323 -0.64159,6.348699 -3.604035,6.282026 -1.281487,-0.02884 -3.09405,0.149688 -4.027919,0.396732 -1.387881,0.367147 -2.044137,0.102975 -3.59375,-1.446636 z m 5.865575,-2.996328 C 98.305125,43.161979 98.75,42.580798 98.75,42.079118 c 0,-1.349327 -3.3704,-0.814094 -3.634231,0.577132 -0.213707,1.126866 0.833681,1.409686 2.645612,0.714382 z M 136.25,47.030279 134.0625,45.9375 133.88437,39.906322 c -0.17383,-5.885728 -0.13788,-6.062833 1.49054,-7.34375 2.03287,-1.599058 7.76939,-1.857976 8.97517,-0.405096 1.56691,1.888008 0.52597,3.142397 -2.78112,3.351407 -3.57697,0.226065 -4.04625,0.718353 -4.05939,4.258339 -0.0116,3.131036 0.74228,3.837302 4.3723,4.096056 2.17754,0.155219 2.84556,0.46619 3.02445,1.407911 0.52169,2.74631 -4.59763,3.786632 -8.65632,1.75909 z m 12.51232,0.29194 c -2.45133,-1.240307 -3.20794,-3.366092 -2.99349,-8.410476 0.25219,-5.932004 1.48067,-7.349243 6.37041,-7.349243 2.41067,0 3.72126,0.33189 4.65792,1.179555 1.61907,1.465241 2.2445,4.534463 1.38477,6.795699 -0.61134,1.607969 -0.88311,1.712246 -4.46229,1.712246 -3.29218,0 -3.78303,0.148972 -3.6038,1.09375 0.1584,0.834985 1.01948,1.167683 3.63958,1.40625 2.96918,0.270352 3.459,0.502032 3.63167,1.717742 0.1475,1.038568 -0.23005,1.568589 -1.44694,2.03125 -2.23194,0.848582 -5.30071,0.773005 -7.17783,-0.176773 z M 153.75,36.614583 c 0,-0.486979 -0.35156,-1.011474 -0.78125,-1.165545 -1.07453,-0.385288 -3.08794,0.727467 -2.63687,1.45732 0.58489,0.946376 3.41812,0.704528 3.41812,-0.291775 z M 170,47.683607 c -0.51563,-0.18849 -1.57031,-0.918436 -2.34375,-1.622104 -1.22713,-1.116432 -1.40625,-1.895885 -1.40625,-6.119332 0,-5.812003 0.25592,-6.594212 2.5447,-7.777787 3.25514,-1.683296 8.5945,-0.608333 9.56706,1.926117 0.65306,1.701847 0.43216,5.615574 -0.36176,6.409499 -0.4125,0.4125 -2.26125,0.75 -4.10833,0.75 -2.86079,0 -3.32758,0.162039 -3.15082,1.09375 0.15433,0.813473 1.00551,1.173829 3.32165,1.40625 2.44252,0.245103 3.16367,0.573179 3.34379,1.521189 0.1263,0.664779 -0.27658,1.578842 -0.89528,2.03125 -1.12165,0.820169 -4.73193,1.031522 -6.51101,0.381169 z m 3.95291,-10.594851 c 0.22618,-0.226185 0.1029,-0.782775 -0.27396,-1.236867 -0.74213,-0.894208 -3.05395,-0.103073 -3.05395,1.045101 0,0.675755 2.68898,0.830703 3.32791,0.191766 z m 17.64668,9.567647 C 187.94166,42.998484 190.7096,37.5 196.20891,37.5 c 1.27557,0 1.91609,-0.309413 1.91609,-0.925593 0,-1.014725 -1.78769,-1.539376 -4.67034,-1.370649 -2.07412,0.121401 -2.87742,-1.452552 -1.55474,-3.046282 1.2053,-1.452299 6.94224,-1.194004 8.97381,0.404028 1.64315,1.2925 1.66475,1.407971 1.49054,7.96875 l -0.17677,6.657246 -2.5,0.116046 c -1.375,0.06383 -3.39737,0.304235 -4.49416,0.534243 -1.63067,0.34197 -2.28574,0.126627 -3.59375,-1.181386 z m 6.4086,-4.312653 c 0.1538,-0.806933 -0.20362,-1.09375 -1.36298,-1.09375 -1.70854,0 -2.58302,0.863236 -1.93562,1.910741 0.62826,1.01655 3.06413,0.41324 3.2986,-0.816991 z m 9.80431,5.059543 C 205.50762,46.14262 205,44.863829 205,40.318044 c 0,-2.559012 -0.31008,-4.753116 -0.73123,-5.174275 -0.85222,-0.852218 0.3624,-5.30961 1.76376,-6.472637 1.15506,-0.958614 2.6265,-0.241789 3.33638,1.625352 0.35735,0.939885 1.09106,1.578516 1.81354,1.578516 0.66736,0 1.33944,0.351562 1.49351,0.78125 0.45144,1.259019 -0.74239,2.96875 -2.07295,2.96875 -1.08541,0 -1.22801,0.439244 -1.22801,3.782512 0,3.640874 0.0702,3.806988 1.875,4.436141 1.09298,0.381015 1.875,1.097339 1.875,1.717488 0,2.329018 -2.70651,3.26752 -5.3125,1.842152 z m 8.76427,-0.25624 c -2.64116,-1.377188 -2.80652,-1.836856 -2.8172,-7.831435 -0.0114,-6.406189 0.72727,-7.454691 5.58041,-7.921017 2.81656,-0.270635 3.27818,-0.12259 5.00633,1.60556 1.76622,1.766216 1.90369,2.226052 1.90369,6.36785 0,5.106815 -0.55024,6.488027 -3.11249,7.81302 -2.3206,1.200028 -4.21297,1.190228 -6.56074,-0.03398 z M 221.5625,39.6875 c 0,-3.477041 -0.10859,-3.765354 -1.49182,-3.960932 -1.87809,-0.26555 -2.54897,0.780185 -2.56111,3.992182 -0.0108,2.846885 0.93482,4.165648 2.79563,3.898951 1.10001,-0.157658 1.2573,-0.649329 1.2573,-3.930201 z m -61.27009,7.048018 c -0.17902,-0.466507 -0.24773,-5.336905 -0.1527,-10.823106 l 0.17279,-9.974912 1.875,0 1.875,0 0,10.625 0,10.625 -1.72231,0.198107 c -1.02712,0.118145 -1.85367,-0.144251 -2.04778,-0.650089 z m 20.31808,-0.512636 c -0.69864,-1.305413 -0.68618,-13.251573 0.0145,-13.919034 0.17187,-0.163723 2.14062,-0.397504 4.375,-0.519513 l 4.0625,-0.221835 0,1.83527 c 0,1.541393 -0.32139,1.918551 -2.00709,2.355359 l -2.00709,0.520088 -0.18041,5.457142 c -0.17863,5.403288 -0.19695,5.459053 -1.85712,5.650849 -1.20279,0.138955 -1.88124,-0.188447 -2.4003,-1.158326 z m 47.95987,0.889145 c -0.59583,-0.59583 -0.57395,-14.460023 0.0234,-14.823435 0.25781,-0.156848 2.15625,-0.384384 4.21875,-0.505635 3.69038,-0.216952 3.75315,-0.193075 3.9481,1.501847 0.14135,1.228873 -0.12723,1.823733 -0.9375,2.076344 -2.82668,0.881259 -3.00482,1.233908 -3.3231,6.578679 -0.30117,5.057325 -0.37003,5.254381 -1.89839,5.432617 -0.87224,0.101718 -1.78631,-0.01547 -2.03125,-0.260417 z"
       id="path3428"
       inkscape:connector-curvature="0" />
    <path
       style="fill:#8c8c8c"
       d="M 41.049253,57.090919 C 40.101713,56.14338 40.775996,54.088639 43.738688,48.895408 57.659523,24.493916 62.939706,15.9375 64.077094,15.9375 c 1.605812,0 23.467856,37.314542 23.252325,39.6875 l -0.141919,1.5625 -22.857,0.163836 c -12.571346,0.09011 -23.047909,-0.02708 -23.281247,-0.260417 z m 23.770653,-6.160121 c 0.849738,-0.59518 1.491869,-0.711477 1.737144,-0.314615 0.223794,0.362106 2.254231,0.535226 4.779137,0.407481 3.453813,-0.17474 4.673688,-0.505759 5.720107,-1.552178 1.315818,-1.31582 1.31695,-1.33999 0.105637,-2.255901 C 75.689575,46.102291 74.248587,46.001414 73.304456,46.945543 71.770562,48.479435 71.25,46.710204 71.25,39.963114 c 0,-9.291608 -0.912969,-10.217573 -9.700573,-9.838684 -4.240448,0.182832 -4.367435,0.235937 -4.559691,1.90682 -0.197442,1.71595 -0.191273,1.71875 3.786794,1.71875 4.593708,0 6.319364,0.908614 6.001576,3.160017 -0.193387,1.370075 -0.5818,1.560117 -3.769125,1.844164 -5.807546,0.517555 -8.638272,3.632947 -7.724885,8.501722 0.596805,3.181245 2.313333,4.619097 5.514338,4.619097 1.470388,0 3.280054,-0.424891 4.021472,-0.944202 z M 60.125,47.375 c -1.021938,-1.021938 -0.945171,-3.309967 0.141309,-4.211665 0.49022,-0.406847 2.107408,-0.652222 3.593754,-0.545278 2.400474,0.172717 2.723881,0.379737 2.894368,1.85276 0.326425,2.82036 -4.568787,4.964827 -6.629431,2.904183 z m 45.79267,4.361201 c -0.1807,-0.470901 -0.25016,-4.921374 -0.15436,-9.889942 l 0.17419,-9.033759 2.1875,-0.116487 c 1.20313,-0.06407 2.96042,-0.307694 3.90509,-0.54139 1.1444,-0.283104 2.23942,-0.08299 3.28125,0.599646 1.46467,0.959682 1.56366,1.359973 1.56366,6.322639 0,6.712771 -0.74835,7.689144 -6.5625,8.562104 -0.89786,0.134807 -1.33804,0.799931 -1.5625,2.360988 -0.32412,2.254107 -2.19379,3.400205 -2.83233,1.736201 z M 113,43.625 c 0.42186,-0.421861 0.75,-2.443474 0.75,-4.620632 0,-4.371774 -0.95746,-5.374329 -3.52556,-3.691639 -1.26923,0.831627 -1.47444,1.471509 -1.47444,4.597512 0,1.997285 0.1875,3.818926 0.41667,4.048092 0.67909,0.679092 3.02489,0.475109 3.83333,-0.333333 z m 7.29267,8.111201 c -0.1807,-0.470901 -0.25016,-4.921374 -0.15436,-9.889942 L 120.3125,32.8125 122.5,32.681214 c 1.20313,-0.07221 3.11266,-0.316695 4.24341,-0.543306 3.53153,-0.707747 4.50659,0.811436 4.50659,7.02146 0,6.620683 -0.76501,7.609186 -6.5625,8.479644 -0.89786,0.134807 -1.33804,0.799931 -1.5625,2.360988 -0.32412,2.254107 -2.19379,3.400205 -2.83233,1.736201 z M 127.375,43.625 c 1.10709,-1.107089 0.96682,-7.667 -0.18437,-8.622403 -0.75297,-0.62491 -1.23833,-0.576301 -2.5,0.25038 -1.3735,0.899949 -1.56563,1.471486 -1.56563,4.657264 0,1.997285 0.1875,3.818926 0.41667,4.048092 0.67909,0.679092 3.02489,0.475109 3.83333,-0.333333 z m -35.220019,2.336797 c -1.363262,-1.363262 -1.596937,-2.033268 -1.273368,-3.651106 0.549037,-2.745186 1.574137,-3.568582 5.064325,-4.067831 3.339243,-0.477658 4.024856,-1.307782 2.412106,-2.920529 -0.801281,-0.80128 -1.668706,-0.977462 -3.427675,-0.69619 -2.582513,0.41296 -3.619931,-0.380307 -2.40765,-1.841019 1.090337,-1.313773 6.365019,-1.193595 8.059541,0.183628 1.24023,1.008007 1.3314,1.583261 1.16298,7.338028 l -0.18274,6.244278 -2.1875,0.09997 c -1.203125,0.05498 -2.944144,0.298072 -3.868931,0.540199 -1.336013,0.349792 -2.024432,0.09723 -3.351088,-1.229427 z m 6.588413,-2.516338 C 99.930331,42.015291 99.02985,40.625 96.916606,40.625 c -2.14985,0 -3.589662,1.826945 -2.387356,3.029253 1.010706,1.010703 3.296025,0.897475 4.214144,-0.208794 z M 137.5,47.056603 c -2.62909,-0.966702 -3.125,-2.132515 -3.125,-7.346514 0,-6.458947 0.5726,-7.323892 5.06259,-7.64732 3.70583,-0.266943 5.32682,0.395967 4.7356,1.936653 C 143.90291,34.703758 142.98773,35 141.08211,35 c -3.40567,0 -4.20711,0.805532 -4.20711,4.228588 0,4.139438 0.79197,5.146412 4.04761,5.146412 3.10157,0 4.21588,1.020991 2.49092,2.282315 -1.15419,0.843966 -4.15341,1.046476 -5.91353,0.399288 z m 11.76739,-0.235271 c -2.88003,-1.108951 -4.01815,-7.591333 -2.12733,-12.116685 0.70665,-1.691262 1.34973,-2.216441 3.12089,-2.548712 5.34162,-1.002095 8.9654,2.365916 7.28918,6.774711 -0.59382,1.561876 -0.91571,1.694354 -4.11677,1.694354 -2.52319,0 -3.57179,0.258489 -3.8354,0.945459 -0.62468,1.627894 1.00283,2.804541 3.87918,2.804541 4.56005,0 4.45947,2.379549 -0.12022,2.844026 -1.33068,0.13496 -3.17097,-0.044 -4.08953,-0.397693 z m 4.88465,-9.641791 c 0.40723,-1.061232 -0.78725,-2.804541 -1.92162,-2.804541 -1.43032,0 -3.06695,1.672277 -2.66408,2.72212 0.5103,1.329838 4.08239,1.394041 4.5857,0.08242 z m 15.53546,9.598752 c -2.34117,-1.280519 -2.8125,-2.524987 -2.8125,-7.425882 0,-5.913691 0.9823,-7.164911 5.625,-7.164911 4.20224,0 5.74547,1.481933 5.49796,5.279551 l -0.18546,2.845449 -3.6257,0.188393 c -2.47054,0.128371 -3.73736,0.479379 -3.97618,1.10171 -0.58326,1.519988 1.03352,2.772397 3.57902,2.772397 2.77606,0 3.77585,1.07437 2.12389,2.282315 -1.37915,1.008459 -4.49284,1.068961 -6.22603,0.120977 z m 5.12116,-9.681173 C 175.1611,36.178697 173.63136,34.375 172.5,34.375 c -0.21235,0 -0.90742,0.381204 -1.54459,0.84712 -1.69099,1.236481 -0.80432,2.90288 1.54459,2.90288 1.19979,0 2.06144,-0.383633 2.30866,-1.02788 z m 17.50804,9.142846 c -3.61821,-2.84608 -1.08284,-8.114966 3.90489,-8.114966 2.09665,0 2.52841,-0.209699 2.52841,-1.22801 0,-1.634873 -2.13696,-2.701046 -4.41218,-2.201326 -1.39507,0.30641 -1.93613,0.150393 -2.24191,-0.646469 -0.61171,-1.594095 0.96198,-2.256877 4.7165,-1.986426 4.69308,0.338058 5.14836,1.12846 4.92719,8.553948 l -0.1771,5.945783 -2.1875,0.04797 c -1.20313,0.02638 -2.9028,0.253218 -3.77705,0.504078 -1.16594,0.334555 -2.04039,0.101478 -3.28125,-0.874583 z m 5.44468,-2.244334 c 0.54374,-0.208653 0.98862,-1.052403 0.98862,-1.875 0,-1.231004 -0.31821,-1.495632 -1.79848,-1.495632 -2.03824,0 -3.51955,1.394757 -2.97856,2.804541 0.37486,0.976858 2.06128,1.228855 3.78842,0.566091 z m 9.39771,1.970277 c -1.35032,-1.350323 -1.53409,-2.084035 -1.53409,-6.125 0,-2.525 -0.27098,-4.861887 -0.60218,-5.193081 -0.38622,-0.386229 -0.295,-1.495667 0.2544,-3.09375 1.00224,-2.915326 2.88633,-3.41975 3.47022,-0.929078 0.23142,0.987115 0.87472,1.636046 1.74693,1.762219 1.8751,0.271249 1.74602,1.879797 -0.21053,2.623678 -1.51625,0.576475 -1.58245,0.803497 -1.40625,4.821819 0.15999,3.648631 0.35335,4.246962 1.43491,4.440238 1.90411,0.340268 2.48807,1.174306 1.58448,2.263057 -1.16352,1.401958 -2.98501,1.182782 -4.73789,-0.570102 z m 9.24716,0.32316 c -2.03095,-1.270508 -2.03125,-1.271474 -2.03125,-6.54774 0,-5.6816 0.55032,-6.885041 3.48531,-7.621677 2.37799,-0.596836 5.75829,0.293939 6.80923,1.794365 0.63958,0.913131 0.95546,2.831837 0.95546,5.803603 0,3.855312 -0.19381,4.621563 -1.47288,5.823184 -2.12963,2.000682 -5.26038,2.303119 -7.74587,0.748265 z M 221.75,43.625 c 1.12092,-1.120924 0.95354,-7.082169 -0.23214,-8.267857 -1.2514,-1.251403 -2.07295,-1.239144 -3.4999,0.05222 -1.28848,1.166066 -1.58034,5.730551 -0.49597,7.756721 0.7232,1.351324 3.07981,1.607112 4.22801,0.458912 z m -60.83184,2.487484 c -0.18043,-0.470195 -0.24989,-5.061293 -0.15435,-10.202441 0.16487,-8.872978 0.23715,-9.347543 1.42369,-9.347543 1.19787,0 1.25,0.416667 1.25,9.991441 0,9.025314 -0.10594,10.011843 -1.09564,10.202441 -0.6026,0.116051 -1.24327,-0.173703 -1.4237,-0.643898 z m 20.77011,0.367455 C 181.44722,46.238889 181.25,42.996816 181.25,39.275332 l 0,-6.766335 2.34375,0.02287 c 1.28906,0.01258 2.89547,-0.05976 3.56981,-0.160749 1.61676,-0.242134 2.0998,1.876301 0.53888,2.363365 -2.83141,0.883505 -3.00909,1.234562 -3.32744,6.574169 -0.24259,4.068965 -0.52904,5.282667 -1.28048,5.425529 -0.53238,0.101216 -1.1652,-0.01319 -1.40625,-0.254243 z m 47.34836,-0.384485 c -0.18402,-0.47956 -0.25349,-3.664409 -0.15436,-7.077441 L 229.0625,32.8125 231.25,32.668067 c 1.20312,-0.07944 2.73922,-0.220062 3.41356,-0.3125 2.27898,-0.312403 1.87303,1.882913 -0.53417,2.888707 l -2.20246,0.920244 -0.18221,5.192078 c -0.15321,4.365522 -0.35664,5.225408 -1.27786,5.401433 -0.6026,0.115145 -1.2462,-0.183014 -1.43023,-0.662575 z"
       id="path3426"
       inkscape:connector-curvature="0" />
    <path
       style="fill:#a75d60"
       d="m 41.183532,56.482411 c -1.005509,-1.211564 -0.992579,-1.237088 12.419384,-24.515367 5.021217,-8.715 9.520878,-15.995647 9.999246,-16.179215 0.478369,-0.183568 1.241576,0.05626 1.696013,0.532956 C 66.791069,17.886798 87.5,54.604648 87.5,55.685604 c 0,0.580613 -0.444875,1.226375 -0.988619,1.435028 C 85.967644,57.329284 75.736456,57.5 63.775413,57.5 44.446183,57.5 41.934152,57.386852 41.183532,56.482411 Z M 64.8906,51.109401 c 0.604131,-0.604133 1.030375,-0.600247 2.021025,0.01843 0.939081,0.586464 1.863231,0.620364 3.667475,0.134531 1.326619,-0.357222 2.866206,-0.475216 3.421294,-0.262208 1.235468,0.474096 4.124606,-1.315639 4.124606,-2.555067 0,-1.289155 -2.220094,-2.299911 -4.558138,-2.075213 L 71.5625,46.5625 71.406937,40.625 c -0.08556,-3.265625 -0.300574,-6.565197 -0.477806,-7.332382 -0.537362,-2.326084 -3.474856,-3.367831 -8.917017,-3.162314 -4.747113,0.179269 -4.827791,0.209805 -5.022378,1.900946 -0.197545,1.716846 -0.193326,1.71875 3.809383,1.71875 3.161793,0 4.236918,0.253892 5.0963,1.203497 1.983375,2.191611 1.055287,3.447824 -2.804863,3.796503 -5.877964,0.530945 -8.5364,3.339629 -7.884168,8.32976 0.47158,3.607985 1.883583,4.79524 5.70298,4.79524 1.768594,0 3.560151,-0.34452 3.981232,-0.765599 z m -4.533457,-3.966544 c -2.20927,-2.209269 -10e-4,-4.84036 3.800301,-4.52799 2.077156,0.170689 2.431225,0.423722 2.596987,1.85595 0.34305,2.963964 -4.205506,4.86382 -6.397288,2.67204 z M 106.25,42.500375 l 0,-9.374625 2.03125,0.03794 c 1.11719,0.02087 2.94789,-0.152223 4.06823,-0.384653 3.31889,-0.688548 3.90052,0.303136 3.90052,6.650497 0,6.229949 -0.35377,6.723485 -5.3125,7.411228 -2.36498,0.328008 -2.51047,0.473315 -2.69398,2.690484 -0.12689,1.533161 -0.50516,2.34375 -1.09375,2.34375 -0.74304,0 -0.89977,-1.632997 -0.89977,-9.374625 z m 7.16978,1.490557 c 0.76983,-0.769822 0.96564,-1.992346 0.8259,-5.15625 L 114.0625,34.6875 112.09129,34.496129 c -1.47732,-0.143423 -2.22115,0.165464 -2.96875,1.232816 -1.18306,1.689065 -1.34953,7.419069 -0.24754,8.521055 1.06084,1.060838 3.35569,0.930024 4.54478,-0.259067 z m 7.62189,7.467401 C 120.8125,51.229167 120.625,47.010586 120.625,42.083708 l 0,-8.957958 2.03125,0.03794 c 1.11719,0.02087 2.94789,-0.152223 4.06823,-0.384653 3.26609,-0.677594 3.902,0.336313 3.89095,6.203735 -0.005,2.793847 -0.2162,5.38918 -0.46875,5.767407 -0.76634,1.147703 -3.08344,2.124817 -5.03872,2.124817 -1.95167,0 -2.60796,0.8779 -2.60796,3.488617 0,1.472707 -0.61711,1.935944 -1.45833,1.094716 z m 6.72619,-7.440476 c 0.99684,-0.996843 1.38771,-6.60872 0.60277,-8.65424 -0.49684,-1.294752 -3.27615,-1.267856 -4.72767,0.04575 -1.34536,1.217534 -1.62925,7.604344 -0.39296,8.840632 1.05172,1.051718 3.3522,0.933512 4.51786,-0.232143 z m -35.206691,1.66831 C 89.696625,42.821623 91.817094,38.75 96.173475,38.75 c 2.667125,0 4.071155,-1.135266 3.439569,-2.78116 -0.558994,-1.456718 -2.962207,-2.267757 -5.321482,-1.795902 -1.515068,0.303013 -1.893468,0.193266 -1.669893,-0.484322 0.413425,-1.252944 6.087125,-1.50153 7.680051,-0.336492 1.08065,0.790377 1.2406,1.651915 1.25,6.733332 l 0.0108,5.826988 -2.187501,0.106775 c -1.203125,0.05873 -2.933413,0.302827 -3.845082,0.542446 -1.242737,0.326634 -1.985731,0.107521 -2.96875,-0.875497 z m 6.4608,-1.891377 C 100.69055,41.951026 99.79,40 97.270381,40 94.907994,40 93.75,40.949131 93.75,42.885417 c 0,2.299365 3.472044,2.898265 5.271969,0.909373 z M 136.875,46.083472 c -1.47167,-0.757706 -1.57292,-1.137578 -1.74175,-6.534673 -0.20817,-6.654775 0.25306,-7.25661 5.30792,-6.925925 3.92232,0.256595 4.42067,1.752126 0.58385,1.752126 -3.42985,0 -4.77502,1.49658 -4.77502,5.3125 0,3.81592 1.34517,5.3125 4.77502,5.3125 1.98367,0 2.75237,0.233473 2.57224,0.78125 -0.35504,1.079654 -4.8222,1.280491 -6.72226,0.302222 z m 11.45514,-0.821511 c -1.51384,-1.513842 -1.5946,-1.900247 -1.31332,-6.283269 0.16484,-2.568626 0.59779,-4.9683 0.96209,-5.332608 0.36432,-0.364308 1.93108,-0.805379 3.48172,-0.980158 2.42838,-0.273714 3.0426,-0.09452 4.42935,1.292238 1.58307,1.583066 2.04886,3.759028 1.11806,5.222978 -0.26005,0.409003 -1.9846,0.830878 -3.83231,0.9375 -4.07142,0.23494 -5.36597,1.556481 -3.52134,3.594773 C 150.48945,44.636142 151.58674,45 153.53437,45 c 2.70754,0 3.60321,0.775668 1.72701,1.495632 -2.34015,0.898001 -5.33209,0.365474 -6.93124,-1.233671 z m 5.9732,-7.079448 c 1.16875,-0.740176 0.42529,-3.569247 -1.03857,-3.952054 -1.51871,-0.397152 -3.83363,0.521023 -4.28605,1.699985 -0.8248,2.149388 2.95945,3.749952 5.32462,2.252069 z m 15.07166,7.901238 c -1.45459,-0.748657 -1.57528,-1.169938 -1.74759,-6.100223 -0.16746,-4.791329 -0.0566,-5.40026 1.16298,-6.389778 1.67095,-1.355698 5.46803,-1.418361 7.32054,-0.12081 1.07719,0.754488 1.38907,1.589771 1.38907,3.720177 l 0,2.747236 -3.90625,0.186074 c -3.43653,0.163698 -3.92904,0.345805 -4.09576,1.514419 C 169.21367,43.633745 170.98241,45 173.84672,45 c 1.72631,0 2.42741,0.243381 2.25054,0.78125 -0.35499,1.079519 -4.822,1.280534 -6.72226,0.302501 z M 174.875,38 c 1.15963,-1.159628 0.89673,-2.250043 -0.8125,-3.369973 -1.44742,-0.948386 -1.67758,-0.948386 -3.125,0 -2.54972,1.670641 -1.62081,4.119973 1.5625,4.119973 0.89375,0 1.9625,-0.3375 2.375,-0.75 z m 17.40937,7.732037 c -1.32037,-1.458988 -1.33491,-4.704556 -0.0259,-5.7909 0.55463,-0.460305 2.31244,-0.98693 3.90625,-1.170278 2.37841,-0.273607 2.9327,-0.578338 3.09237,-1.70011 0.27903,-1.960313 -2.35698,-3.562846 -4.9307,-2.997562 -1.51458,0.332656 -1.90938,0.236342 -1.69503,-0.413511 0.17414,-0.52793 1.46926,-0.917389 3.43685,-1.033497 4.66135,-0.27507 5.18183,0.501455 5.18183,7.730964 0,5.900199 -0.16091,6.365104 -1.83616,5.305086 -0.58566,-0.370577 -1.34158,-0.2584 -2.17032,0.32207 -1.73922,1.218198 -3.71957,1.117462 -4.95915,-0.252262 z m 6.43708,-1.635136 c 1.05558,-1.271897 0.56144,-3.729607 -0.80213,-3.989614 -3.19027,-0.60832 -5.84118,1.940748 -4.14443,3.985205 0.96992,1.168685 3.97807,1.171366 4.94656,0.0044 z m 8.9348,1.823708 C 206.40435,45.037948 206.25,44.397922 206.25,40.08956 c 0,-2.661758 -0.28771,-5.127264 -0.63934,-5.478904 -0.4358,-0.435791 -0.33028,-1.379045 0.33141,-2.962695 0.92669,-2.217882 2.18293,-2.597802 2.18293,-0.660176 0,0.502708 0.70312,1.234379 1.5625,1.625936 1.93967,0.883774 2.0004,1.612148 0.15625,1.87406 -1.27999,0.181787 -1.42296,0.583548 -1.59234,4.474726 -0.19842,4.558342 0.4146,6.037493 2.5022,6.037493 1.55761,0 1.13423,1.500901 -0.49007,1.737299 -0.66057,0.09614 -1.83385,-0.271371 -2.60729,-0.81669 z m 9.21875,0.147455 c -1.45608,-0.734801 -1.57511,-1.149232 -1.74759,-6.084536 -0.16746,-4.791329 -0.0566,-5.40026 1.16298,-6.389778 1.86896,-1.516351 5.87083,-1.432527 7.45961,0.15625 1.02561,1.025606 1.25,2.083333 1.25,5.892138 0,4.270555 -0.13182,4.745824 -1.64679,5.9375 -1.86751,1.468986 -4.1884,1.64397 -6.47821,0.488426 z m 5.26786,-2.050207 c 1.2037,-1.2037 1.34148,-7.062673 0.20089,-8.54268 -1.52613,-1.980269 -5.07805,-1.387723 -5.70523,0.951772 -0.67135,2.504201 -0.40563,5.770489 0.58442,7.183985 1.13474,1.620066 3.51029,1.816547 4.91992,0.406923 z M 161.25,36.5625 c 0,-8.194444 0.14449,-9.6875 0.9375,-9.6875 0.79301,0 0.9375,1.493056 0.9375,9.6875 0,8.194444 -0.14449,9.6875 -0.9375,9.6875 -0.79301,0 -0.9375,-1.493056 -0.9375,-9.6875 z m 20.26699,8.856786 c -0.17532,-0.456894 -0.23681,-3.339706 -0.13663,-6.40625 l 0.18214,-5.575536 1.875,-0.116359 c 1.03125,-0.064 2.50781,-0.307738 3.28125,-0.541645 2.22857,-0.673975 1.71002,1.129292 -0.63852,2.220504 -2.00902,0.933453 -2.01851,0.959761 -2.19926,6.09375 -0.14334,4.071576 -0.37755,5.15625 -1.11336,5.15625 -0.51252,0 -1.07529,-0.373821 -1.25062,-0.830714 z m 47.85801,-5.741714 0,-6.572428 1.71875,0.116962 c 0.94531,0.06433 2.35156,-0.09078 3.125,-0.34469 2.23781,-0.734637 1.70598,1.03325 -0.63852,2.122584 -2.00902,0.933453 -2.01851,0.959761 -2.19926,6.09375 -0.14153,4.020254 -0.3825,5.15625 -1.09375,5.15625 -0.7418,0 -0.91222,-1.227876 -0.91222,-6.572428 z"
       id="path3424"
       inkscape:connector-curvature="0" />
    <path
       style="fill:#5c5c5c"
       d="m 41.472074,55.927225 c -0.352471,-0.918523 20.53233,-38.23576 21.931726,-39.187899 1.26385,-0.859914 1.213169,-0.941191 20.837969,33.41716 1.521731,2.664191 2.604937,5.265754 2.407125,5.78125 -0.545988,1.422814 -44.630738,1.412557 -45.17682,-0.01051 z M 64.8079,51.817099 c 0.475894,-0.475895 1.047163,-0.487955 1.884569,-0.03979 0.768237,0.411147 2.088681,0.442475 3.66085,0.08685 1.35255,-0.305944 3.107562,-0.394267 3.900031,-0.196275 1.652213,0.412795 4.49665,-1.837198 4.49665,-3.556916 0,-1.191949 -4.512525,-3.486021 -5.570706,-2.832029 -0.465282,0.287558 -0.680394,-1.01938 -0.682781,-4.14831 C 72.489025,31.318152 70.594456,29.247299 61.875,29.52084 l -5.3125,0.16666 -0.193978,2.34375 c -0.214426,2.590811 -0.415632,2.494655 4.928219,2.355198 2.471584,-0.0645 3.71804,0.190783 4.288671,0.878353 1.372388,1.653623 0.334269,2.860199 -2.460868,2.860199 -5.862272,0 -9.172928,3.311022 -8.57904,8.579987 0.459343,4.075282 2.351471,5.795013 6.375942,5.795013 1.761954,0 3.51086,-0.307305 3.886454,-0.682901 z m -4.226379,-5.306988 c -1.332669,-1.605767 0.05919,-3.072611 2.915535,-3.072611 1.898807,0 2.473707,0.261616 2.6561,1.208689 0.463738,2.408007 -3.906676,3.870075 -5.571635,1.863922 z M 106.25,42.500375 l 0,-9.374625 2.03125,0.03794 c 1.11719,0.02087 2.94789,-0.152223 4.06823,-0.384653 3.31889,-0.688548 3.90052,0.303136 3.90052,6.650497 0,6.229949 -0.35377,6.723485 -5.3125,7.411228 -2.36498,0.328008 -2.51047,0.473315 -2.69398,2.690484 -0.12689,1.533161 -0.50516,2.34375 -1.09375,2.34375 -0.74304,0 -0.89977,-1.632997 -0.89977,-9.374625 z m 7.16978,1.490557 c 0.76983,-0.769822 0.96564,-1.992346 0.8259,-5.15625 L 114.0625,34.6875 112.09129,34.496129 c -1.47732,-0.143423 -2.22115,0.165464 -2.96875,1.232816 -1.18306,1.689065 -1.34953,7.419069 -0.24754,8.521055 1.06084,1.060838 3.35569,0.930024 4.54478,-0.259067 z m 7.62189,7.467401 C 120.8125,51.229167 120.625,47.010586 120.625,42.083708 l 0,-8.957958 2.03125,0.03794 c 1.11719,0.02087 2.94789,-0.152223 4.06823,-0.384653 3.26609,-0.677594 3.902,0.336313 3.89095,6.203735 -0.005,2.793847 -0.2162,5.38918 -0.46875,5.767407 -0.76634,1.147703 -3.08344,2.124817 -5.03872,2.124817 -1.95167,0 -2.60796,0.8779 -2.60796,3.488617 0,1.472707 -0.61711,1.935944 -1.45833,1.094716 z m 6.72619,-7.440476 c 0.99684,-0.996843 1.38771,-6.60872 0.60277,-8.65424 -0.49684,-1.294752 -3.27615,-1.267856 -4.72767,0.04575 -1.34536,1.217534 -1.62925,7.604344 -0.39296,8.840632 1.05172,1.051718 3.3522,0.933512 4.51786,-0.232143 z m -35.206691,1.66831 C 89.696625,42.821623 91.817094,38.75 96.173475,38.75 c 2.667125,0 4.071155,-1.135266 3.439569,-2.78116 -0.558994,-1.456718 -2.962207,-2.267757 -5.321482,-1.795902 -1.515068,0.303013 -1.893468,0.193266 -1.669893,-0.484322 0.413425,-1.252944 6.087125,-1.50153 7.680051,-0.336492 1.08065,0.790377 1.2406,1.651915 1.25,6.733332 l 0.0108,5.826988 -2.187501,0.106775 c -1.203125,0.05873 -2.933413,0.302827 -3.845082,0.542446 -1.242737,0.326634 -1.985731,0.107521 -2.96875,-0.875497 z m 6.4608,-1.891377 C 100.69055,41.951026 99.79,40 97.270381,40 94.907994,40 93.75,40.949131 93.75,42.885417 c 0,2.299365 3.472044,2.898265 5.271969,0.909373 z M 136.875,46.083472 c -1.47167,-0.757706 -1.57292,-1.137578 -1.74175,-6.534673 -0.20817,-6.654775 0.25306,-7.25661 5.30792,-6.925925 3.92232,0.256595 4.42067,1.752126 0.58385,1.752126 -3.42985,0 -4.77502,1.49658 -4.77502,5.3125 0,3.81592 1.34517,5.3125 4.77502,5.3125 1.98367,0 2.75237,0.233473 2.57224,0.78125 -0.35504,1.079654 -4.8222,1.280491 -6.72226,0.302222 z m 11.45514,-0.821511 c -1.51384,-1.513842 -1.5946,-1.900247 -1.31332,-6.283269 0.16484,-2.568626 0.59779,-4.9683 0.96209,-5.332608 0.36432,-0.364308 1.93108,-0.805379 3.48172,-0.980158 2.42838,-0.273714 3.0426,-0.09452 4.42935,1.292238 1.58307,1.583066 2.04886,3.759028 1.11806,5.222978 -0.26005,0.409003 -1.9846,0.830878 -3.83231,0.9375 -4.07142,0.23494 -5.36597,1.556481 -3.52134,3.594773 C 150.48945,44.636142 151.58674,45 153.53437,45 c 2.70754,0 3.60321,0.775668 1.72701,1.495632 -2.34015,0.898001 -5.33209,0.365474 -6.93124,-1.233671 z m 5.9732,-7.079448 c 1.16875,-0.740176 0.42529,-3.569247 -1.03857,-3.952054 -1.51871,-0.397152 -3.83363,0.521023 -4.28605,1.699985 -0.8248,2.149388 2.95945,3.749952 5.32462,2.252069 z m 15.07166,7.901238 c -1.45459,-0.748657 -1.57528,-1.169938 -1.74759,-6.100223 -0.16746,-4.791329 -0.0566,-5.40026 1.16298,-6.389778 1.67095,-1.355698 5.46803,-1.418361 7.32054,-0.12081 1.07719,0.754488 1.38907,1.589771 1.38907,3.720177 l 0,2.747236 -3.90625,0.186074 c -3.43653,0.163698 -3.92904,0.345805 -4.09576,1.514419 C 169.21367,43.633745 170.98241,45 173.84672,45 c 1.72631,0 2.42741,0.243381 2.25054,0.78125 -0.35499,1.079519 -4.822,1.280534 -6.72226,0.302501 z M 174.875,38 c 1.15963,-1.159628 0.89673,-2.250043 -0.8125,-3.369973 -1.44742,-0.948386 -1.67758,-0.948386 -3.125,0 -2.54972,1.670641 -1.62081,4.119973 1.5625,4.119973 0.89375,0 1.9625,-0.3375 2.375,-0.75 z m 17.40937,7.732037 c -1.32037,-1.458988 -1.33491,-4.704556 -0.0259,-5.7909 0.55463,-0.460305 2.31244,-0.98693 3.90625,-1.170278 2.37841,-0.273607 2.9327,-0.578338 3.09237,-1.70011 0.27903,-1.960313 -2.35698,-3.562846 -4.9307,-2.997562 -1.51458,0.332656 -1.90938,0.236342 -1.69503,-0.413511 0.17414,-0.52793 1.46926,-0.917389 3.43685,-1.033497 4.66135,-0.27507 5.18183,0.501455 5.18183,7.730964 0,5.900199 -0.16091,6.365104 -1.83616,5.305086 -0.58566,-0.370577 -1.34158,-0.2584 -2.17032,0.32207 -1.73922,1.218198 -3.71957,1.117462 -4.95915,-0.252262 z m 6.43708,-1.635136 c 1.05558,-1.271897 0.56144,-3.729607 -0.80213,-3.989614 -3.19027,-0.60832 -5.84118,1.940748 -4.14443,3.985205 0.96992,1.168685 3.97807,1.171366 4.94656,0.0044 z m 8.9348,1.823708 C 206.40435,45.037948 206.25,44.397922 206.25,40.08956 c 0,-2.661758 -0.28771,-5.127264 -0.63934,-5.478904 -0.4358,-0.435791 -0.33028,-1.379045 0.33141,-2.962695 0.92669,-2.217882 2.18293,-2.597802 2.18293,-0.660176 0,0.502708 0.70312,1.234379 1.5625,1.625936 1.93967,0.883774 2.0004,1.612148 0.15625,1.87406 -1.27999,0.181787 -1.42296,0.583548 -1.59234,4.474726 -0.19842,4.558342 0.4146,6.037493 2.5022,6.037493 1.55761,0 1.13423,1.500901 -0.49007,1.737299 -0.66057,0.09614 -1.83385,-0.271371 -2.60729,-0.81669 z m 9.21875,0.147455 c -1.45608,-0.734801 -1.57511,-1.149232 -1.74759,-6.084536 -0.16746,-4.791329 -0.0566,-5.40026 1.16298,-6.389778 1.86896,-1.516351 5.87083,-1.432527 7.45961,0.15625 1.02561,1.025606 1.25,2.083333 1.25,5.892138 0,4.270555 -0.13182,4.745824 -1.64679,5.9375 -1.86751,1.468986 -4.1884,1.64397 -6.47821,0.488426 z m 5.26786,-2.050207 c 1.2037,-1.2037 1.34148,-7.062673 0.20089,-8.54268 -1.52613,-1.980269 -5.07805,-1.387723 -5.70523,0.951772 -0.67135,2.504201 -0.40563,5.770489 0.58442,7.183985 1.13474,1.620066 3.51029,1.816547 4.91992,0.406923 z M 161.25,36.5625 c 0,-8.194444 0.14449,-9.6875 0.9375,-9.6875 0.79301,0 0.9375,1.493056 0.9375,9.6875 0,8.194444 -0.14449,9.6875 -0.9375,9.6875 -0.79301,0 -0.9375,-1.493056 -0.9375,-9.6875 z m 20.26699,8.856786 c -0.17532,-0.456894 -0.23681,-3.339706 -0.13663,-6.40625 l 0.18214,-5.575536 1.875,-0.116359 c 1.03125,-0.064 2.50781,-0.307738 3.28125,-0.541645 2.22857,-0.673975 1.71002,1.129292 -0.63852,2.220504 -2.00902,0.933453 -2.01851,0.959761 -2.19926,6.09375 -0.14334,4.071576 -0.37755,5.15625 -1.11336,5.15625 -0.51252,0 -1.07529,-0.373821 -1.25062,-0.830714 z m 47.85801,-5.741714 0,-6.572428 1.71875,0.116962 c 0.94531,0.06433 2.35156,-0.09078 3.125,-0.34469 2.23781,-0.734637 1.70598,1.03325 -0.63852,2.122584 -2.00902,0.933453 -2.01851,0.959761 -2.19926,6.09375 -0.14153,4.020254 -0.3825,5.15625 -1.09375,5.15625 -0.7418,0 -0.91222,-1.227876 -0.91222,-6.572428 z"
       id="path3422"
       inkscape:connector-curvature="0" />
    <path
       style="fill:#cb2025"
       d="m 41.472074,55.927225 c -0.352471,-0.918523 20.53233,-38.23576 21.931726,-39.187899 1.26385,-0.859914 1.213169,-0.941191 20.837969,33.41716 1.521731,2.664191 2.604937,5.265754 2.407125,5.78125 -0.545988,1.422814 -44.630738,1.412557 -45.17682,-0.01051 z M 64.8079,51.817099 c 0.475894,-0.475895 1.047163,-0.487955 1.884569,-0.03979 0.768237,0.411147 2.088681,0.442475 3.66085,0.08685 1.35255,-0.305944 3.107562,-0.394267 3.900031,-0.196275 1.652213,0.412795 4.49665,-1.837198 4.49665,-3.556916 0,-1.191949 -4.512525,-3.486021 -5.570706,-2.832029 -0.465282,0.287558 -0.680394,-1.01938 -0.682781,-4.14831 C 72.489025,31.318152 70.594456,29.247299 61.875,29.52084 l -5.3125,0.16666 -0.193978,2.34375 c -0.214426,2.590811 -0.415632,2.494655 4.928219,2.355198 2.471584,-0.0645 3.71804,0.190783 4.288671,0.878353 1.372388,1.653623 0.334269,2.860199 -2.460868,2.860199 -5.862272,0 -9.172928,3.311022 -8.57904,8.579987 0.459343,4.075282 2.351471,5.795013 6.375942,5.795013 1.761954,0 3.51086,-0.307305 3.886454,-0.682901 z m -4.226379,-5.306988 c -1.332669,-1.605767 0.05919,-3.072611 2.915535,-3.072611 1.898807,0 2.473707,0.261616 2.6561,1.208689 0.463738,2.408007 -3.906676,3.870075 -5.571635,1.863922 z"
       id="path3420"
       inkscape:connector-curvature="0" />
    <path
       style="fill:#941e21"
       d="M 41.467883,55.916304 C 41.249705,55.347741 43.473294,50.833246 46.932047,44.822554 55.391384,30.121746 56.25,29.024661 56.25,32.916667 c 0,0.802083 0.351562,1.476902 0.78125,1.499597 0.429687,0.02269 2.436908,0.09301 4.46049,0.15625 2.695229,0.08423 3.85941,0.399492 4.352891,1.178758 1.004375,1.586015 0.430644,1.76242 -4.296375,1.321004 -3.302099,-0.308355 -4.642336,-0.734538 -5.729833,-1.822035 -1.523154,-1.523154 -2.3976,-1.021985 -1.754148,1.005352 0.320133,1.008648 0.949426,1.244849 3.321593,1.246743 l 2.926632,0.0023 -2.000907,1.220025 c -2.79238,1.702613 -4.149531,4.578398 -3.766089,7.980289 0.459343,4.075306 2.351471,5.795037 6.375942,5.795037 1.761954,0 3.51086,-0.307305 3.886454,-0.682901 0.475894,-0.475895 1.047163,-0.487955 1.884569,-0.03979 0.768237,0.411147 2.088681,0.442475 3.66085,0.08685 1.35255,-0.305944 3.107562,-0.394267 3.900031,-0.196275 1.652213,0.412795 4.49665,-1.837198 4.49665,-3.556916 0,-1.191949 -4.512525,-3.486021 -5.570706,-2.832029 -0.471594,0.291461 -0.665863,-1.359108 -0.635363,-5.39831 0.02738,-3.628292 0.2348,-5.347658 0.55105,-4.568136 0.443756,1.09381 0.535888,1.015715 0.737319,-0.625 0.208781,-1.700537 0.644281,-1.177148 4.680412,5.625 7.206575,12.145332 8.510113,14.650784 8.133357,15.632601 C 86.339431,56.744178 83.162294,56.875 64.0625,56.875 c -19.398938,0 -22.273535,-0.12197 -22.594617,-0.958696 z m 19.113638,-9.406193 c -1.332669,-1.605767 0.05919,-3.072611 2.915535,-3.072611 1.898807,0 2.473707,0.261616 2.6561,1.208689 0.463738,2.408007 -3.906676,3.870075 -5.571635,1.863922 z"
       id="path3418"
       inkscape:connector-curvature="0" />
  </g>
</svg>
