<?xml version="1.0" encoding="UTF-8" standalone="no"?>
<!-- Created with Inkscape (http://www.inkscape.org/) -->

<svg
   xmlns:dc="http://purl.org/dc/elements/1.1/"
   xmlns:cc="http://creativecommons.org/ns#"
   xmlns:rdf="http://www.w3.org/1999/02/22-rdf-syntax-ns#"
   xmlns:svg="http://www.w3.org/2000/svg"
   xmlns="http://www.w3.org/2000/svg"
   xmlns:xlink="http://www.w3.org/1999/xlink"
   xmlns:sodipodi="http://sodipodi.sourceforge.net/DTD/sodipodi-0.dtd"
   xmlns:inkscape="http://www.inkscape.org/namespaces/inkscape"
   id="svg3504"
   version="1.1"
   inkscape:version="0.91 r13725"
   width="291.875"
   height="76.875"
   viewBox="0 0 291.875 76.875"
   sodipodi:docname="Facebook.svg">
  <metadata
     id="metadata3510">
    <rdf:RDF>
      <cc:Work
         rdf:about="">
        <dc:format>image/svg+xml</dc:format>
        <dc:type
           rdf:resource="http://purl.org/dc/dcmitype/StillImage" />
        <dc:title></dc:title>
      </cc:Work>
    </rdf:RDF>
  </metadata>
  <defs
     id="defs3508" />
  <sodipodi:namedview
     pagecolor="#ffffff"
     bordercolor="#666666"
     borderopacity="1"
     objecttolerance="10"
     gridtolerance="10"
     guidetolerance="10"
     inkscape:pageopacity="0"
     inkscape:pageshadow="2"
     inkscape:window-width="640"
     inkscape:window-height="480"
     id="namedview3506"
     showgrid="false"
     inkscape:zoom="0.89764454"
     inkscape:cx="145.9375"
     inkscape:cy="38.4375"
     inkscape:window-x="812"
     inkscape:window-y="116"
     inkscape:window-maximized="0"
     inkscape:current-layer="svg3504" />
  <image
     width="291.875"
     height="76.875"
     preserveAspectRatio="none"
     xlink:href="file:///media/havoc/USB%20DISK/pics/_Companies/Facebook.png"
     id="image3512"
     x="0"
     y="0"
     sodipodi:absref="/media/havoc/USB DISK/pics/_Companies/Facebook.png" />
  <g
     id="g3514">
    <path
       style="fill:#fbfcfc"
       d="M 0,38.4375 0,0 145.9375,0 291.875,0 l 0,38.4375 0,38.4375 -145.9375,0 L 0,76.875 0,38.4375 Z"
       id="path3530"
       inkscape:connector-curvature="0" />
    <path
       style="fill:#b9c3d7"
       d="m 44.331894,64.209862 c -3.616333,-2.433591 -3.789411,-3.769271 -3.580538,-27.631605 0.203816,-23.28468 0.130315,-22.824363 4.057978,-25.414069 1.621502,-1.069139 3.400789,-1.15626 23.691991,-1.16007 21.805263,-0.0041 21.951694,0.0046 24.053394,1.420891 3.740631,2.520813 3.716312,2.333955 3.541912,27.217373 l -0.159131,22.704882 -2.3561,2.158598 -2.3561,2.158594 -7.3314,-0.175981 -7.3314,-0.175975 0,-10 0,-10 3.589638,-0.187318 C 84.134894,44.917352 84.675919,44.233949 84.2648,39.930233 84.063356,37.82145 84.04665,37.811179 80.3125,37.5 l -3.75,-0.3125 -0.195181,-3.083581 c -0.107357,-1.69597 -0.04062,-3.699429 0.1483,-4.452132 0.366462,-1.460103 2.612593,-2.611616 5.671881,-2.907775 1.778662,-0.172186 1.875,-0.326014 1.875,-2.994012 l 0,-2.8125 -4.126556,0.04488 c -7.562925,0.08224 -10.578238,3.245448 -11.06215,11.604725 l -0.2844,4.9129 -1.835788,0 c -3.071206,0 -4.254783,1.008359 -4.244037,3.61574 0.013,3.155492 0.530931,3.757509 3.436044,3.99395 l 2.491887,0.20281 0,10 0,10 -10.980606,0.170213 c -10.5772,0.163956 -11.059388,0.117193 -13.125,-1.272851 z m 64.703766,-1.866948 c -0.16633,-0.433455 -0.22834,-10.489496 -0.13779,-22.346757 l 0.16463,-21.558657 62.8125,0 62.8125,0 0,22.1875 0,22.1875 -62.67471,0.159256 c -49.97069,0.126975 -62.73601,-4.87e-4 -62.97713,-0.628842 z M 135.4329,51.192099 c 0.49387,-0.493866 1.06101,-0.480545 2.04884,0.04812 2.67068,1.429307 3.14326,0.529026 3.14326,-5.987988 l 0,-6.036996 -2.49734,0.39934 c -1.49789,0.239521 -2.9576,0.111897 -3.64741,-0.318898 -1.59358,-0.995203 -4.58409,0.08157 -5.56479,2.003674 -0.42462,0.832229 -0.77618,2.861866 -0.78125,4.510303 -0.007,2.356379 0.31877,3.325142 1.52488,4.53125 1.61635,1.616349 4.5728,2.052197 5.77381,0.85119 z m -3.83496,-2.581165 c -2.85335,-4.073718 1.20428,-10.168633 4.67724,-7.025643 1.36129,1.231948 1.67581,5.154198 0.57783,7.205797 -0.91457,1.708894 -4.00617,1.602908 -5.25507,-0.180154 z M 152.5,50.9375 C 152.5,50.285679 151.84421,50 150.34794,50 147.76405,50 146.25,48.216747 146.25,45.173434 c 0,-2.610152 1.88657,-4.548434 4.42708,-4.548434 1.26182,0 1.83853,-0.269702 1.67055,-0.78125 -0.38337,-1.16753 -3.1786,-1.285608 -5.68112,-0.239987 -1.73971,0.726898 -2.37409,1.464329 -2.96962,3.452041 -0.94449,3.15242 0.23972,6.83946 2.5765,8.021936 2.23267,1.129794 6.22661,1.039839 6.22661,-0.14024 z m 12.76138,0.558132 C 167.29645,50.714704 166.13673,50 162.83449,50 c -2.83385,0 -3.53555,-0.224301 -4.1204,-1.317099 -0.98808,-1.846249 -0.2033,-2.336184 4.09234,-2.554834 3.04296,-0.154888 3.78468,-0.404599 3.9616,-1.333751 0.68969,-3.622223 -2.59273,-6.497718 -6.56632,-5.752268 -3.44644,0.646556 -4.57671,2.248366 -4.57671,6.486084 0,3.675412 0.70922,5.015203 3.125,5.903471 1.30742,0.480731 5.32258,0.520214 6.51138,0.06403 z m -6.23567,-7.396526 c -0.96862,-0.719269 -1.0745,-1.128782 -0.52517,-2.03125 1.41298,-2.321336 5.87446,-1.511129 5.87446,1.066804 0,1.922184 -3.26646,2.511106 -5.34929,0.964446 z m 22.24422,6.192178 c 1.56327,-1.664022 1.91434,-6.594896 0.63918,-8.977541 -1.0272,-1.919358 -3.54472,-2.769478 -5.83602,-1.970724 -1.01292,0.353106 -2.09062,0.488156 -2.39488,0.30011 -0.30427,-0.188045 -0.55321,-2.032363 -0.55321,-4.098484 0,-3.538226 -0.0817,-3.744974 -1.40625,-3.556864 -1.37486,0.19526 -1.41014,0.401388 -1.58044,9.233478 -0.0958,4.968568 -0.0609,9.327943 0.0775,9.6875 0.13955,0.362506 2.35175,0.696432 4.96575,0.74957 4.20172,0.08541 4.86345,-0.06317 6.08838,-1.367045 z m -7.17199,-1.68035 C 172.02325,45.6489 173.57369,40.625 176.5625,40.625 c 1.94421,0 3.4375,2.190393 3.4375,5.042199 0,3.915848 -3.8694,5.845764 -5.90206,2.943735 z m 21.11623,2.570146 c 3.03159,-1.381284 3.965,-7.172344 1.63375,-10.136053 -2.8439,-3.615428 -9.16983,-2.559681 -10.59835,1.768779 -2.0598,6.241251 3.08713,11.04523 8.9646,8.367274 z M 189.5,49.25 c -0.4125,-0.4125 -0.75,-2.05641 -0.75,-3.653132 0,-3.720662 1.64782,-5.511324 4.23767,-4.605002 1.5229,0.532938 1.71967,0.940415 1.8905,3.91473 0.10972,1.910275 -0.12181,3.696389 -0.54528,4.206639 -0.89762,1.081563 -3.8058,1.163861 -4.83289,0.136765 z m 21.59262,1.664887 c 2.04251,-1.430631 2.992,-5.194708 2.03887,-8.08273 -1.40803,-4.266368 -7.80609,-5.344614 -10.60441,-1.78713 -1.41594,1.800076 -1.74257,6.292367 -0.61122,8.406316 1.27743,2.386898 6.63793,3.241811 9.17676,1.463545 z m -6.30825,-2.05785 c -1.30398,-1.440871 -1.33613,-5.023082 -0.0614,-6.842971 2.17806,-3.109609 5.90206,-0.77165 5.90206,3.705358 0,3.864223 -3.48754,5.737747 -5.84063,3.137613 z M 219.375,49.375 c 0.44206,-3.074303 1.9472,-3.084333 3.9708,-0.02646 1.60467,2.424815 3.5337,3.379846 3.52508,1.74521 -0.002,-0.429687 -0.56291,-1.625 -1.24588,-2.65625 -1.57867,-2.383714 -1.56535,-3.456567 0.0775,-6.240961 0.73011,-1.237451 1.16412,-2.413273 0.96446,-2.612937 -0.72807,-0.728069 -2.34766,0.439388 -3.63394,2.619473 -0.80449,1.363499 -1.71225,2.157355 -2.33147,2.038911 -0.83754,-0.160207 -1.04516,-1.253308 -1.19291,-6.280476 -0.16376,-5.571703 -0.28269,-6.086508 -1.40625,-6.086508 -1.16892,0 -1.22737,0.478414 -1.22737,10.045828 0,9.230473 0.0888,10.02885 1.09375,9.836654 0.71142,-0.136055 1.20299,-0.968876 1.40625,-2.382482 z m -96.74613,-2.640122 c 0.16694,-4.104662 0.32567,-4.585726 1.74613,-5.291782 1.91686,-0.952797 2.03323,-2.313497 0.21996,-2.571967 -0.7384,-0.105253 -1.48075,-0.719871 -1.64967,-1.365816 -0.37348,-1.428237 1.14377,-3.755313 2.44848,-3.755313 0.57152,0 0.85883,-0.434274 0.72359,-1.09375 -0.1652,-0.805604 -0.7124,-1.040244 -2.07707,-0.890652 -2.54219,0.278669 -3.82005,1.606178 -4.27305,4.439077 -0.26926,1.68385 -0.75663,2.494824 -1.63778,2.725252 -1.68715,0.4412 -1.57986,1.3381 0.30804,2.5751 1.41954,0.930118 1.5625,1.42276 1.5625,5.384381 0,3.911373 0.12595,4.360592 1.22262,4.360592 1.08372,0 1.24348,-0.512954 1.40625,-4.515122 z"
       id="path3528"
       inkscape:connector-curvature="0" />
    <path
       style="fill:#a8b2cb"
       d="M 43.86448,63.231937 C 42.797719,62.235436 41.800212,60.530804 41.578643,59.32569 41.362426,58.149686 41.270341,47.673391 41.374011,36.045036 L 41.5625,14.902571 43.897072,12.763786 46.231644,10.625 l 22.040425,0.0023 c 20.721612,0.0022 22.159587,0.07499 24.031794,1.216556 3.576399,2.180687 3.615743,2.418099 3.837243,23.156108 0.248875,23.300448 0.06854,25.165358 -2.701425,27.935319 L 91.375,65 l -7.25,0 -7.25,0 0,-9.6875 0,-9.6875 3.400612,0 c 1.870338,0 3.578907,-0.288481 3.796819,-0.641068 0.217913,-0.352588 0.555106,-2.180713 0.749325,-4.0625 L 85.174881,37.5 l -3.161325,0 C 77.149237,37.5 76.875,37.268116 76.875,33.154999 76.875,28.769871 77.971075,27.5 81.756056,27.5 c 2.21175,0 2.650263,-0.219673 2.968338,-1.486982 0.205262,-0.81784 0.280937,-2.294402 0.168156,-3.28125 C 84.689062,20.95118 84.651762,20.936223 80,20.770018 c -3.799344,-0.135749 -5.07345,0.07041 -6.724463,1.088038 -3.191437,1.967099 -4.520487,4.6929 -4.5232,9.276782 C 68.749225,36.391555 68.099288,37.5 65.020125,37.5 c -2.891712,0 -3.355877,0.874368 -2.655984,5.003191 0.462503,2.728403 0.547584,2.81515 2.954178,3.012119 1.362881,0.111545 2.688244,0.53342 2.94525,0.9375 0.558,0.877307 0.651069,16.140915 0.107062,17.558571 C 68.044375,64.8616 66.434956,65 56.874229,65 L 45.757194,65 43.86448,63.231937 Z M 109.375,40.625 l 0,-21.875 62.5,0 62.5,0 0,21.875 0,21.875 -62.5,0 -62.5,0 0,-21.875 z m 26.19244,11.298797 c 0.53066,-0.335941 1.45365,-0.295668 2.32525,0.101459 1.07308,0.48893 1.69704,0.449596 2.4228,-0.152734 0.78746,-0.65354 0.94294,-1.97759 0.79975,-6.810639 L 140.9375,39.0625 137.5,38.884667 c -7.05476,-0.364967 -7.0538,-0.365121 -8.55393,1.378876 -1.13382,1.318151 -1.44607,2.42627 -1.44607,5.131886 0,2.980625 0.24889,3.69961 1.82692,5.277648 1.85544,1.855431 4.46057,2.377549 6.24052,1.25072 z m -3.67045,-3.757709 c -0.92743,-1.732918 -0.79834,-3.921875 0.32595,-5.527022 1.19824,-1.71072 3.13921,-1.798028 4.00507,-0.180154 0.87797,1.640497 0.81775,5.245332 -0.10301,6.166088 -1.1482,1.1482 -3.50481,0.892413 -4.22801,-0.458912 z m 21.11294,2.632646 c 0.1753,-1.233126 -0.0623,-1.379005 -2.11941,-1.301667 -2.74755,0.10329 -4.01552,-1.241691 -4.01552,-4.25938 0,-2.609485 1.41949,-3.987687 4.10714,-3.987687 1.70963,0 2.14286,-0.246989 2.14286,-1.221679 0,-2.752554 -7.70352,-1.901501 -9.26922,1.024023 -1.312,2.451497 -1.42277,5.461155 -0.28299,7.688962 1.37852,2.694451 3.48226,3.82094 6.73971,3.608916 2.04664,-0.133213 2.5358,-0.414566 2.69743,-1.551488 z m 12.9036,0.858581 c 1.80168,-1.317417 0.61321,-2.202824 -2.84346,-2.118378 -2.09779,0.05125 -3.34089,-0.215871 -3.69868,-0.794781 -0.90543,-1.465017 -0.0816,-1.869156 3.81011,-1.869156 4.27726,0 4.84904,-0.621763 3.94311,-4.287792 -0.43707,-1.76871 -1.09705,-2.535946 -2.96691,-3.449097 -2.05276,-1.002474 -2.75852,-1.068412 -4.82114,-0.450437 -3.26341,0.977744 -4.34093,2.705135 -4.31668,6.920142 0.0214,3.731248 0.80383,5.268079 3.16182,6.210882 2.22567,0.889896 6.41366,0.802481 7.73183,-0.161383 z m -6.40345,-7.795377 c -0.45437,-0.296926 -0.62308,-0.991712 -0.38897,-1.601805 0.61968,-1.614854 4.31639,-1.141787 4.31639,0.552367 0,1.357534 -2.45296,2.012985 -3.92742,1.049438 z m 21.88613,7.525413 c 1.49476,-1.239527 2.4205,-5.780812 1.70596,-8.368681 -1.03885,-3.762383 -3.97949,-5.287797 -8.10217,-4.202881 -0.74612,0.196347 -0.97549,-0.550715 -1.12358,-3.659539 -0.18257,-3.832814 -0.2195,-3.90625 -1.96438,-3.90625 -1.04502,0 -1.93473,0.407653 -2.15767,0.988617 -0.20866,0.54374 -0.37937,5.029764 -0.37937,9.968944 0,7.137835 0.18339,9.082871 0.89382,9.480133 1.47086,0.822468 10.05272,0.590832 11.12739,-0.300343 z m -6.99922,-3.221263 c -0.95648,-1.787196 -0.78557,-4.813226 0.33515,-5.933945 1.34076,-1.340759 3.21384,-1.234461 3.99587,0.226769 0.87796,1.640497 0.81775,5.245332 -0.10301,6.166088 -1.1482,1.1482 -3.50481,0.892412 -4.22801,-0.458912 z m 21.13737,3.443284 c 4.35445,-2.251776 4.32477,-9.527787 -0.05,-12.263968 -5.63102,-3.521869 -11.94794,2.054933 -9.9356,8.771511 1.18378,3.951101 5.90533,5.602458 9.98562,3.492457 z m -5.71307,-2.621418 c -0.83635,-0.836343 -0.48042,-6.306572 0.46118,-7.088036 2.38564,-1.9799 5.19015,1.402553 4.23634,5.109348 -0.43079,1.674196 -0.87196,2.087546 -2.38978,2.239105 -1.0238,0.102229 -2.06229,-0.01496 -2.30774,-0.260417 z m 21.73908,2.105796 c 2.952,-2.546669 3.13437,-8.936144 0.32009,-11.215007 -3.21377,-2.602349 -8.99973,-1.645718 -10.54386,1.743285 -1.02807,2.256364 -0.87391,6.618106 0.29277,8.283784 2.02077,2.885047 7.24007,3.509376 9.931,1.187938 z M 205.125,48.625 c -1.0765,-1.076503 -0.92549,-5.235227 0.23214,-6.392857 2.29594,-2.29594 4.64286,-0.506875 4.64286,3.539269 0,2.413406 -0.92891,3.603588 -2.8125,3.603588 -0.72187,0 -1.65,-0.3375 -2.0625,-0.75 z m 13.88638,3.495632 C 219.59107,51.898186 220,51.008606 220,49.970017 c 0,-2.634395 0.96915,-2.754831 2.80453,-0.348519 1.81043,2.373596 2.96606,3.023239 4.39946,2.473189 0.8067,-0.309557 0.7102,-0.78209 -0.625,-3.060428 -1.96095,-3.346112 -1.96607,-4.155942 -0.0441,-6.984324 1.7177,-2.527851 1.58124,-3.299935 -0.58328,-3.299935 -1.01112,0 -1.8996,0.687589 -2.82659,2.1875 -2.37824,3.848075 -3.125,2.951965 -3.125,-3.75 l 0,-5.9375 -1.875,0 -1.875,0 0,10.208333 c 0,5.614584 0.1875,10.395834 0.41667,10.625 0.51609,0.516098 1.07386,0.524971 2.34471,0.0373 z M 123.125,47.863617 c 0,-4.496038 0.38702,-5.988617 1.55284,-5.988617 0.43676,0 1.16949,-0.45231 1.62829,-1.005133 0.87334,-1.052306 0.70605,-1.281483 -2.23179,-3.057367 -1.35888,-0.82143 -0.63236,-2.726328 1.3234,-3.469908 0.88169,-0.335216 1.47726,-1.071844 1.47726,-1.827123 0,-1.059714 -0.40648,-1.265469 -2.5,-1.265469 -2.9814,0 -5,1.693716 -5,4.195272 0,1.070393 -0.59031,2.165972 -1.60149,2.97226 -1.78512,1.423402 -1.60077,3.128034 0.39472,3.649867 1.05871,0.276857 1.20677,0.897882 1.20677,5.061588 l 0,4.746013 1.875,0 1.875,0 0,-4.011383 z"
       id="path3526"
       inkscape:connector-curvature="0" />
    <path
       style="fill:#8797ba"
       d="M 44.014963,62.889963 41.875,60.75 l 0,-22.790713 c 0,-21.713378 0.05809,-22.864559 1.228816,-24.352901 2.305526,-2.931001 3.326078,-3.040938 26.446734,-2.848916 l 21.67685,0.18003 2.04255,2.042565 2.04255,2.042565 0.179213,21.828809 c 0.198581,24.188426 0.05038,25.314749 -3.578488,27.191292 -1.485994,0.768438 -3.419838,0.959438 -8.330481,0.822763 L 77.1875,64.6875 l 0,-9.375 0,-9.375 3.561225,-0.186469 c 2.704125,-0.141592 3.639056,-0.442435 3.884619,-1.25 0.602069,-1.979988 0.61485,-6.377864 0.02025,-6.96788 -0.3251,-0.3226 -2.137969,-0.67297 -4.028594,-0.778598 L 77.1875,36.5625 77.004137,33.4375 c -0.240462,-4.098249 0.674563,-5.262879 4.573057,-5.820535 l 3.110306,-0.444909 0,-3.429779 0,-3.429777 -3.957088,-0.187393 C 72.746156,19.747002 68.743169,23.47788 68.147494,31.852692 L 67.8125,36.5625 65.627506,36.769816 c -3.072006,0.291476 -3.75388,1.093135 -3.742935,4.400462 0.01243,3.75533 0.437798,4.320391 3.436041,4.564412 l 2.491888,0.20281 0,9.375 0,9.375 -10.828787,0.171212 -10.828787,0.171213 -2.139963,-2.139963 z m 65.645477,-1.172621 c -0.16647,-0.433801 -0.22848,-10.208604 -0.1378,-21.721785 l 0.16486,-20.933057 62.1875,0 62.1875,0 0,21.5625 0,21.5625 -62.0497,0.159286 c -49.4939,0.127054 -62.11094,-3.14e-4 -62.35236,-0.629444 z m 28.46456,-9.48166 2.8125,-0.04818 0,-6.875 0,-6.875 -5.1096,-0.11767 c -4.73474,-0.109037 -5.22766,3.86e-4 -6.71875,1.491477 -1.37949,1.379493 -1.60915,2.15693 -1.60915,5.447354 0,5.509848 2.42255,8.385748 6.25,7.419613 0.85937,-0.216925 2.82812,-0.416092 4.375,-0.442592 z m -5.5,-3.610682 c -0.4125,-0.4125 -0.75,-1.949479 -0.75,-3.41551 0,-3.424857 1.755,-4.70449 3.73568,-2.723814 1.39536,1.395362 1.57689,2.860837 0.65479,5.286136 -0.64887,1.706651 -2.38105,2.112608 -3.64047,0.853188 z m 20.6853,3.314702 c 1.16674,-1.16674 -0.0742,-2.564702 -2.27666,-2.564702 -2.61632,0 -3.78364,-1.293969 -3.78364,-4.194138 0,-2.710835 1.64615,-4.135355 4.14461,-3.586601 1.25512,0.275671 1.83648,0.106505 2.11333,-0.614947 0.65158,-1.697992 -0.95246,-2.854314 -3.95947,-2.854314 -2.34924,0 -3.13959,0.341119 -4.92347,2.125 -1.73388,1.73388 -2.125,2.602357 -2.125,4.718538 0,3.419848 1.49084,6.16659 3.94669,7.271469 2.05798,0.925869 5.80121,0.762091 6.86361,-0.300304 z m 13.03634,0.188074 c 0.2906,-0.179601 0.52836,-0.858414 0.52836,-1.508472 0,-1.000465 -0.55174,-1.210702 -3.59375,-1.369364 -2.69447,-0.140536 -3.59375,-0.422034 -3.59375,-1.12494 0,-0.713486 0.93339,-0.981962 3.90625,-1.123573 l 3.90625,-0.186074 -0.0199,-2.626426 c -0.0296,-3.910642 -2.23834,-6.063927 -6.22008,-6.063927 -4.76583,0 -7.41997,3.629376 -6.60899,9.037387 0.44042,2.936892 1.73634,4.47665 4.50053,5.347331 1.70762,0.537873 6.08252,0.305635 7.19505,-0.381942 z m -6.85404,-9.464349 c 0.25856,-1.342573 2.13261,-1.773786 3.34304,-0.76922 1.26793,1.052285 0.54558,1.855793 -1.66835,1.855793 -1.45307,0 -1.83608,-0.24851 -1.67469,-1.086573 z m 22.17946,8.475165 c 0.74775,-0.69781 1.62199,-2.294149 1.94275,-3.547419 0.48853,-1.908755 0.65387,-2.075749 1.01848,-1.028673 1.09873,3.155271 2.11951,4.459668 4.34278,5.549389 2.04206,1.000896 2.75138,1.067923 4.80145,0.453708 C 201.94516,50.118511 200.36504,38.125 191.875,38.125 c -3.10297,0 -5.35509,1.54589 -6.56634,4.507239 l -1.09629,2.680261 -0.91668,-2.681478 c -1.16303,-3.402104 -3.03371,-4.659948 -6.53822,-4.396281 l -2.69497,0.202759 -0.3125,-3.75 c -0.26709,-3.205028 -0.50211,-3.77709 -1.61719,-3.936411 -2.4893,-0.355665 -2.80055,1.013998 -2.6178,11.520018 l 0.17249,9.916393 3.22876,0 c 1.77582,0 3.45485,0.225906 3.73118,0.502012 0.74263,0.742029 3.46947,-0.09965 5.02462,-1.55092 z m -6.53455,-2.544842 c -1.41997,-1.731888 -1.12938,-5.853429 0.47317,-6.711084 2.73617,-1.464354 5.13756,4.154808 2.78218,6.510191 -1.18366,1.183658 -2.38862,1.258017 -3.25535,0.200893 z M 190.125,48.625 c -1.19537,-1.195371 -0.91782,-5.15439 0.44801,-6.390448 0.95573,-0.864929 1.46131,-0.943268 2.5,-0.387377 1.00687,0.538863 1.30199,1.300984 1.30199,3.362315 0,2.795572 -0.82219,4.16551 -2.5,4.16551 -0.55,0 -1.3375,-0.3375 -1.75,-0.75 z m 20.16606,3.611736 c 2.57254,-1.074875 4.08394,-3.764716 4.08394,-7.268199 0,-2.134191 -0.39018,-2.983719 -2.20303,-4.796563 -2.05619,-2.0562 -2.41068,-2.183073 -5.31883,-1.903637 -3.68007,0.353607 -5.34294,1.655659 -6.33247,4.958414 -1.16557,3.890337 0.13582,7.189408 3.42513,8.682786 3.16373,1.436369 3.63276,1.460555 6.34526,0.327199 z m -4.94312,-4.250802 c -1.33095,-1.900204 -1.22032,-3.988553 0.29138,-5.500258 2.29105,-2.29105 4.98893,0.551103 4.05506,4.271921 -0.72034,2.870062 -2.78737,3.454221 -4.34644,1.228337 z m -82.33099,3.70676 c 0.3685,-0.444017 0.7545,-2.76433 0.85777,-5.15625 0.1713,-3.967307 0.31119,-4.36647 1.59403,-4.548663 2.07894,-0.295257 1.9348,-3.067766 -0.20172,-3.880071 -1.86285,-0.708253 -1.84115,-2.308806 0.0455,-3.353221 1.81537,-1.004975 2.17727,-1.730773 1.4969,-3.002063 -1.56176,-2.918114 -8.05943,0.399498 -8.05943,4.115007 0,0.948928 -0.50332,1.857958 -1.25,2.257567 -0.6875,0.367939 -1.25,1.211689 -1.25,1.875 0,0.663311 0.5625,1.507061 1.25,1.875 1.06089,0.567769 1.25,1.308639 1.25,4.89699 0,2.455119 0.31449,4.542501 0.75,4.97801 0.98317,0.983175 2.67632,0.955586 3.51695,-0.05731 z m 97.22868,-0.181311 c 0.20866,-0.54374 0.37937,-1.528115 0.37937,-2.1875 0,-1.775372 0.76388,-1.451432 2.34949,0.996354 1.09413,1.689062 1.8328,2.179763 3.28125,2.179763 2.29762,0 2.31542,-0.450231 0.1698,-4.293221 l -1.69945,-3.043873 1.69945,-2.568053 C 228.57385,39.348539 228.55807,38.75 226.32418,38.75 c -1.34554,0 -2.2541,0.592546 -3.59375,2.34375 l -1.79293,2.34375 -0.3125,-5.872299 c -0.2496,-4.690298 -0.53266,-6.010583 -1.40625,-6.559303 -0.79534,-0.499564 -1.39216,-0.499019 -2.1875,0.002 -0.95095,0.599046 -1.11637,1.941623 -1.26698,10.283061 -0.0953,5.276731 -0.0338,9.957428 0.13664,10.401548 0.44605,1.162392 3.88416,1.019062 4.34472,-0.181125 z"
       id="path3524"
       inkscape:connector-curvature="0" />
    <path
       style="fill:#798ab3"
       d="m 45.857522,64.007144 c -4.004909,-1.975628 -4.081345,-2.50785 -3.864876,-26.91106 0.185702,-20.934707 0.253563,-22.032222 1.444854,-23.36751 2.623205,-2.940286 3.963072,-3.103637 25.448675,-3.102603 22.659569,0.0011 23.534094,0.150255 25.644106,4.374029 0.973594,1.948926 1.092882,4.422067 1.09375,22.676324 0.0012,22.728315 -0.157325,23.79552 -3.867669,26.057657 -1.675106,1.021281 -3.154612,1.261794 -7.773587,1.263681 -4.10685,0.0019 -5.906431,-0.240712 -6.424875,-0.865393 -0.485025,-0.584425 -0.663056,-3.594295 -0.545275,-9.218752 L 77.1875,46.5625 80.453406,46.234097 c 1.796244,-0.180622 3.545788,-0.608291 3.887875,-0.950376 0.342081,-0.342085 0.70055,-2.303679 0.796594,-4.359097 L 85.3125,37.1875 81.4107,37.001542 c -3.566819,-0.169993 -3.935319,-0.319526 -4.292275,-1.741744 -0.461731,-1.839696 0.102644,-5.108127 1.086812,-6.293981 0.388575,-0.468203 1.900538,-0.840817 3.4118,-0.840817 3.017313,0 4.007963,-1.041689 4.007963,-4.214456 0,-3.434163 -1.096975,-4.086457 -6.420194,-3.817647 -3.558944,0.179719 -5.200037,0.564459 -6.478231,1.518766 -3.38065,2.524019 -4.222731,4.328038 -4.579562,9.810938 L 67.8125,36.5625 65,36.875 l -2.8125,0.3125 -0.190158,3.684842 c -0.104587,2.026663 0.09205,3.96705 0.436971,4.311971 0.344918,0.344921 1.696118,0.800512 3.002656,1.012425 l 2.375531,0.385297 0.174875,8.341249 c 0.117769,5.617105 -0.06031,8.624641 -0.545275,9.208985 -1.087275,1.310081 -18.884322,1.206912 -21.584578,-0.125125 z M 110.125,61.75 c -1.07348,-1.073479 -1.07348,-41.176521 0,-42.25 1.08777,-1.087771 122.41223,-1.087771 123.5,0 1.07348,1.073479 1.07348,41.176521 0,42.25 -1.08777,1.087769 -122.41223,1.087769 -123.5,0 z m 28.46875,-9.243121 c 2.39081,-0.0062 2.65625,-0.15791 2.65625,-1.518262 0,-3.157776 0.66346,-3.616395 2.11521,-1.462141 0.7479,1.109797 2.05449,2.369327 2.90355,2.798955 3.34771,1.693965 7.86506,0.43716 7.38357,-2.054242 -0.18165,-0.939944 -0.75763,-1.208689 -2.59049,-1.208689 -2.67757,0 -3.53806,-0.927699 -3.55227,-3.829722 -0.0116,-2.373118 0.8719,-3.190554 3.74294,-3.462962 1.84901,-0.175438 2.18499,-0.443981 2.18499,-1.746424 0,-3.581283 -7.46322,-2.805334 -10.05426,1.045339 -1.5607,2.319438 -2.13324,2.080659 -2.13324,-0.889672 l 0,-2.112608 -3.28125,0.113878 c -1.80469,0.06263 -3.85084,-0.08109 -4.54701,-0.31938 -0.85292,-0.291946 -2.00623,0.06924 -3.53602,1.107388 -2.10441,1.42809 -2.29203,1.45743 -2.56813,0.401606 -0.16383,-0.626472 -0.96037,-1.23318 -1.7701,-1.348241 -2.14588,-0.304928 -2.21263,-2.129524 -0.11468,-3.135043 1.22698,-0.58808 1.75469,-1.308375 1.75469,-2.395081 0,-1.380827 -0.29533,-1.575464 -2.64907,-1.745914 -3.32079,-0.240478 -5.78843,1.852447 -5.78843,4.909439 0,1.436294 -0.33489,2.049498 -1.25,2.288804 -1.74283,0.455759 -1.76269,3.914045 -0.0251,4.368437 1.06027,0.277266 1.24928,0.962443 1.40625,5.097738 l 0.18138,4.777418 2.1875,0 2.1875,0 0.1771,-4.375 c 0.12919,-3.191226 0.45745,-4.586388 1.21321,-5.15625 1.68629,-1.27151 2.04719,-0.929862 2.04719,1.937986 0,5.83406 2.52002,8.851128 6.875,8.231007 1.20312,-0.171317 3.38281,-0.314581 4.84375,-0.318364 z m -5.7697,-4.147116 c -1.27579,-1.275789 -1.03624,-5.170456 0.37225,-6.052182 1.87252,-1.172217 3.0537,-0.06585 3.0537,2.860303 0,3.803509 -1.45693,5.160898 -3.42595,3.191879 z m 34.21514,3.60104 c 1.46438,-1.464375 -0.32117,-2.896964 -3.61158,-2.897664 -1.84045,-3.92e-4 -3.1023,-0.302518 -3.26562,-0.781889 -0.1915,-0.562118 0.69117,-0.78125 3.1469,-0.78125 4.19862,0 5.09815,-0.855931 4.51667,-4.297723 -0.68431,-4.050373 -4.42145,-6.196298 -8.72263,-5.008681 -3.24252,0.895301 -4.72793,3.171296 -4.72793,7.244279 0,4.128271 0.73812,5.637712 3.33046,6.810659 2.28505,1.033908 8.19426,0.851745 9.33373,-0.287731 z m -7.30792,-8.764986 c -0.52576,-0.8507 1.2316,-2.016769 2.37701,-1.577232 1.58298,0.607443 1.21911,2.131415 -0.50889,2.131415 -0.83909,0 -1.67975,-0.249382 -1.86812,-0.554183 z m 21.67671,8.689068 c 0.8671,-0.682063 1.75414,-1.947688 1.97119,-2.8125 0.52366,-2.086418 1.19113,-1.984758 2.05864,0.313547 0.76324,2.022049 3.8678,3.739068 6.76065,3.739068 2.40601,0 5.15635,-1.656311 6.24451,-3.760579 1.17246,-2.267291 1.42167,-2.301808 2.18192,-0.302208 0.32667,0.859216 1.51503,2.140256 2.64078,2.846754 3.71863,2.333723 9.61673,0.559194 10.82821,-3.257821 0.64508,-2.032488 1.53112,-1.230093 1.53112,1.386582 l 0,2.537729 2.34375,-0.193979 c 2.0348,-0.168408 2.36982,-0.42054 2.54151,-1.912728 0.25322,-2.200675 0.7984,-2.166817 2.51591,0.15625 1.07705,1.456784 1.87,1.875 3.55504,1.875 1.19283,0 2.16735,-0.210938 2.16559,-0.46875 -0.002,-0.257813 -0.69611,-1.59375 -1.54299,-2.96875 -1.95683,-3.177101 -1.951,-4.151879 0.0429,-7.164826 1.80223,-2.723357 1.58684,-3.772674 -0.7744,-3.772674 -1.02665,0 -2.2708,0.783138 -3.55686,2.238896 l -1.97792,2.238895 -0.3125,-5.832645 -0.3125,-5.832646 -2.1875,0 -2.1875,0 -0.18169,5.931694 c -0.0999,3.262432 -0.4515,6.201495 -0.78125,6.53125 -0.38275,0.382741 -0.59956,0.245808 -0.59956,-0.378657 0,-1.753398 -2.51358,-4.227263 -4.96613,-4.887665 -3.61173,-0.972538 -6.82557,0.288395 -8.54208,3.351436 l -1.35788,2.423058 -1.06147,-2.23689 c -1.50406,-3.169569 -5.53932,-4.732649 -8.91606,-3.453684 -1.47031,0.556892 -2.92622,1.783825 -3.90638,3.292007 l -1.5625,2.404244 -0.85168,-2.231852 c -1.03115,-2.70217 -4.03118,-4.362119 -6.86086,-3.796183 l -1.90832,0.381663 -0.18957,-3.66521 -0.18957,-3.665211 -2.1875,0 -2.1875,0 -0.17088,10.749624 -0.17086,10.749624 3.60836,0.225948 c 1.98461,0.124272 4.34389,0.279128 5.24284,0.344127 0.89896,0.065 2.34392,-0.439875 3.21102,-1.121938 z m -6.05207,-3.493267 c -1.2424,-1.242394 -1.27406,-4.870267 -0.0514,-5.885012 1.20219,-0.997732 2.71592,-0.398086 3.35479,1.328963 1.19279,3.224388 -1.25674,6.602738 -3.30343,4.556049 z m 14.99203,-0.405684 C 188.63834,45.54514 189.55547,41.875 191.875,41.875 c 2.32671,0 3.40507,4.630638 1.51786,6.517857 -1.31653,1.316526 -1.8916,1.239674 -3.04492,-0.406923 z m 15.72967,0.680015 C 204.80734,47.955066 204.58164,43.793362 205.75,42.625 c 1.05882,-1.058819 2.79679,-0.931044 3.24563,0.238617 1.37508,3.583396 -0.43863,7.189866 -2.91802,5.802332 z"
       id="path3522"
       inkscape:connector-curvature="0" />
    <path
       style="fill:#4d659a"
       d="m 45.484463,63.40075 c -0.93667,-0.508313 -1.991357,-1.462938 -2.34375,-2.121389 -0.976535,-1.824673 -0.826639,-45.680473 0.160414,-46.933043 2.436724,-3.092202 2.471367,-3.09647 25.119192,-3.093982 20.153219,0.0022 21.374394,0.0677 23.314012,1.250288 1.12575,0.686373 2.3313,1.996178 2.678994,2.910677 0.395481,1.040195 0.56515,9.834618 0.453169,23.489113 L 94.6875,60.728801 92.646388,62.5519 c -1.980607,1.769056 -2.23585,1.8231 -8.610907,1.8231 l -6.5698,0 0.173407,-8.90625 0.173412,-8.90625 3.230363,-0.187148 c 1.7767,-0.102931 3.498943,-0.524806 3.8272,-0.9375 0.328256,-0.412693 0.733606,-2.246253 0.900768,-4.074575 C 86.163425,37.069383 85.38175,36.25 80.892856,36.25 l -3.392856,0 0,-3.048472 c 0,-3.676429 0.890788,-4.592769 4.914675,-5.055669 L 85.3125,27.8125 85.503169,24.480515 C 85.758475,20.01912 85.108738,19.371822 80.392225,19.388726 71.947231,19.418994 67.5,23.934861 67.5,32.479926 l 0,3.770074 -1.916088,0 c -3.548711,0 -4.333912,0.887217 -4.333912,4.89699 0,4.229822 0.66306,5.10301 3.875,5.10301 l 2.375,0 0,9.0625 0,9.0625 L 57.34375,64.35 C 49.602989,64.330906 46.782462,64.10515 45.484463,63.40075 Z M 110,40.625 l 0,-21.25 61.875,0 61.875,0 0,21.25 0,21.25 -61.875,0 -61.875,0 0,-21.25 z m 28.4375,12.255567 c 3.07207,-0.06691 3.13029,-0.104744 3.4375,-2.233648 l 0.3125,-2.165581 1.14236,1.749035 c 2.25495,3.452471 8.78085,4.501812 10.53441,1.693896 0.6833,-1.094126 0.787,-1.095288 2.64222,-0.02961 2.80857,1.613298 5.5474,2.023647 8.39282,1.257458 2.71386,-0.730769 3.37139,-1.602913 2.49425,-3.308365 C 166.97219,49.024486 166.05229,48.75 163.72801,48.75 c -1.70665,0 -3.10301,-0.28125 -3.10301,-0.625 0,-0.34375 1.38325,-0.625 3.07388,-0.625 1.69064,0 3.51876,-0.170716 4.0625,-0.379368 0.79956,-0.306818 0.98862,0.09688 0.98862,2.110972 0,3.031352 1.15646,4.140729 3.89716,3.73848 1.11848,-0.164158 2.77758,-0.03912 3.68689,0.27787 2.21706,0.77287 5.92732,-0.790414 6.88987,-2.902978 0.90384,-1.98371 1.38841,-2.005457 2.25602,-0.101253 0.41493,0.910665 1.79588,1.919655 3.53782,2.584911 2.71024,1.035049 3.00262,1.035667 5.68305,0.012 1.88826,-0.721136 3.14442,-1.695313 3.78613,-2.936232 l 0.96031,-1.857046 1.39297,2.070072 c 2.8907,4.295805 9.30078,4.46747 12.55682,0.336276 l 1.5891,-2.016204 0.007,1.59375 c 0.009,2.037761 1.07789,3.09375 3.13194,3.09375 1.9518,0 3.12251,-1.039623 3.13193,-2.78125 0.006,-1.098839 0.23484,-0.992063 1.6078,0.75 1.24933,1.585206 2.07127,2.03125 3.74307,2.03125 2.66101,0 2.75075,-0.920681 0.48298,-4.954958 l -1.65923,-2.951682 1.65923,-2.441764 c 2.40589,-3.540605 2.22225,-4.651596 -0.76891,-4.651596 -1.94961,0 -2.65782,0.338712 -3.59375,1.71875 L 221.5625,41.5625 221.25,36.314827 c -0.35453,-5.953433 -1.1173,-7.040561 -4.18577,-5.965721 -1.70793,0.598261 -1.75954,0.753946 -2.06423,6.226 -0.27592,4.955381 -0.40613,5.44853 -1.11227,4.212613 -2.45935,-4.304382 -10.93599,-4.197775 -13.2719,0.166915 l -0.81512,1.523077 -1.9491,-2.254768 c -1.64916,-1.907801 -2.42728,-2.296143 -5.0566,-2.523647 -3.48254,-0.30133 -7.04432,1.372562 -7.62212,3.582093 -0.40988,1.567377 -1.23023,1.560225 -1.73022,-0.01509 -0.71165,-2.242228 -3.46856,-3.860303 -6.23177,-3.657525 l -2.5234,0.18518 -0.3125,-3.740728 c -0.27251,-3.262041 -0.48833,-3.765745 -1.68651,-3.936222 -0.7557,-0.107522 -1.95102,0.11331 -2.65625,0.49074 -1.15028,0.615612 -1.28248,1.278928 -1.28458,6.445494 l -0.002,5.75926 -1.24795,-2.046829 c -2.07576,-3.404565 -6.72817,-4.301585 -10.47183,-2.019047 -2.03288,1.239458 -2.03947,1.239453 -3.28125,-0.0023 C 152.90996,37.90996 151.66277,37.5 149.95891,37.5 c -3.03563,0 -4.78662,0.794261 -6.67455,3.027627 l -1.40315,1.659873 -0.003,-1.642222 c -0.002,-0.903222 -0.35467,-1.912991 -0.78436,-2.243931 -1.33145,-1.025471 -9.96175,-0.836803 -11.65275,0.254742 -1.35733,0.87616 -1.54911,0.871971 -2.0623,-0.04505 C 127.0675,37.954969 126.26436,37.5 125.59394,37.5 c -1.71188,0 -1.52453,-1.789756 0.25832,-2.467592 C 128.99749,33.836595 128.30732,30 124.94697,30 c -3.68927,0 -6.82197,2.814512 -6.82197,6.129066 0,0.588638 -0.5625,1.421538 -1.25,1.850888 -0.72633,0.453602 -1.25,1.457518 -1.25,2.396354 0,1.090089 0.40665,1.722058 1.25,1.942599 1.08699,0.284255 1.25,0.85251 1.25,4.357576 0,4.962035 0.70779,6.448517 3.07046,6.448517 2.52147,0 3.09117,-1.028203 3.30427,-5.963556 0.14531,-3.365606 0.39974,-4.348944 1.12527,-4.348944 0.68554,0 1.02211,0.948891 1.25233,3.530706 0.44397,4.978988 3.26551,7.844576 6.87267,6.979953 0.85937,-0.205989 2.96875,-0.405156 4.6875,-0.442592 z m -5.52083,-4.547234 c -0.76513,-0.76512 -0.42836,-5.045579 0.45461,-5.778379 1.09418,-0.908089 2.87872,0.660756 2.87872,2.530777 0,2.60393 -2.01441,4.566528 -3.33333,3.247602 z m 15.19184,-1.189207 c -0.69815,-1.836269 -0.19364,-4.598421 0.8655,-4.738475 0.39242,-0.05189 1.62747,-0.122205 2.74456,-0.15625 l 2.03106,-0.0619 1.9e-4,3.28125 1.8e-4,3.281249 -2.51547,0 c -2.1262,0 -2.60995,-0.248508 -3.12602,-1.605874 z m 27.21406,0.824624 c -0.80631,-2.393447 -0.50499,-5.265012 0.59684,-5.687826 C 178.07752,41.452782 179.80333,46.196668 178,48 c -0.97538,0.975376 -2.34369,0.959405 -2.67743,-0.03125 z m 15.12046,0.390948 C 190.19936,48.116031 190,46.848437 190,45.542823 c 0,-1.690337 0.34102,-2.556351 1.18437,-3.0077 1.68029,-0.89926 2.69348,0.554538 2.44971,3.515009 -0.1521,1.847148 -0.48526,2.42869 -1.4723,2.569982 -0.70164,0.100438 -1.47508,-0.01675 -1.71875,-0.260417 z m 15.08925,-1.126109 c -1.39557,-3.062944 0.82638,-6.410641 2.88713,-4.34989 1.10903,1.109027 1.23006,2.935627 0.3086,4.657389 -0.88769,1.658672 -2.36463,1.516558 -3.19573,-0.307499 z M 160,42.5 c 0,-0.34375 0.5459,-0.625 1.21311,-0.625 0.66722,0 1.38694,0.28125 1.59939,0.625 0.21907,0.354474 -0.30601,0.625 -1.21311,0.625 C 160.71972,43.125 160,42.84375 160,42.5 Z"
       id="path3520"
       inkscape:connector-curvature="0" />
    <path
       style="fill:#44558e"
       d="M 45.9375,62.995113 C 43.173187,61.409782 43.165659,61.341628 43.144877,37.711809 L 43.125,15.111117 45.047953,13.493059 46.970907,11.875 l 21.233087,0 c 23.104975,0 24.301475,0.164137 25.572856,3.508122 0.338919,0.89143 0.59815,10.921305 0.59815,23.143142 l 0,21.56989 -1.826925,1.826923 c -1.7775,1.777498 -1.9973,1.826923 -8.125,1.826923 l -6.298075,0 0,-8.4375 0,-8.4375 3.080356,0 C 85.4393,46.875 86.25,45.917172 86.25,40.914847 86.25,36.268149 85.609094,35.625 80.978588,35.625 l -2.853588,0 0,-2.79051 c 0,-3.172313 1.009756,-4.08449 4.521412,-4.08449 2.930132,0 3.603588,-0.953677 3.603588,-5.10301 0,-4.33937 -0.6992,-4.90348 -6.052662,-4.883264 -8.235107,0.0311 -13.322338,5.149401 -13.322338,13.4037 0,3.36353 -0.04722,3.457574 -1.735931,3.457574 -0.954769,0 -2.361019,0.437823 -3.125003,0.97294 -1.167249,0.817574 -1.389066,1.55898 -1.389066,4.642857 0,4.322602 0.956113,5.634203 4.107144,5.634203 l 2.142856,0 0,8.4375 0,8.4375 -9.84375,-0.019 C 50.805172,63.719 46.728113,63.448537 45.9375,62.995119 Z M 110.625,40.625 l 0,-20.625 61.25,0 61.25,0 0,20.625 0,20.625 -61.25,0 -61.25,0 0,-20.625 z m 27.79072,12.880567 c 2.647,-0.05806 3.21993,-0.297783 3.89704,-1.630567 0.4366,-0.859375 0.79796,-1.21816 0.80303,-0.7973 0.0117,0.96843 2.83682,2.446419 5.65581,2.958852 1.51919,0.276158 2.8466,0.04209 4.44564,-0.783912 1.93599,-1.000054 2.50145,-1.057127 3.75,-0.378491 2.5673,1.395418 5.77192,1.627633 8.67218,0.628408 1.96257,-0.67616 2.96788,-0.75534 3.54188,-0.278965 0.44081,0.365847 1.86004,0.53475 3.15384,0.375341 1.2938,-0.159409 3.02568,-0.04156 3.84863,0.261875 2.03474,0.750248 5.35277,-0.420865 6.95175,-2.453642 l 1.28007,-1.627345 0.91616,1.307998 c 0.50389,0.719398 2.15922,1.782727 3.67852,2.362952 2.33264,0.890844 3.13492,0.935833 5.15729,0.289201 1.31722,-0.421165 3.11656,-1.437926 3.99853,-2.259471 l 1.6036,-1.493716 1.40944,1.500281 c 0.77519,0.825155 2.62276,1.839989 4.10569,2.255186 2.37478,0.664895 3.04018,0.602771 5.58072,-0.52103 1.58645,-0.701764 2.89572,-1.643311 2.90948,-2.092328 0.0137,-0.449016 0.44462,-0.04296 0.95746,0.902356 0.7415,1.366796 1.37755,1.71875 3.10609,1.71875 1.3541,0 2.55305,-0.443091 3.17987,-1.175171 0.98486,-1.150227 1.03116,-1.150227 2.18139,0 1.41655,1.41655 5.07597,1.562125 6.16876,0.2454 0.63082,-0.760103 0.41668,-1.482912 -1.17348,-3.960967 -1.06981,-1.667158 -1.94511,-3.198823 -1.94511,-3.403701 0,-0.204877 0.87303,-1.776919 1.94007,-3.493426 1.06704,-1.716508 1.75357,-3.422695 1.52562,-3.791529 C 229.48774,37.801773 228.06815,37.5 226.56106,37.5 c -2.12311,0 -2.95928,0.312807 -3.71312,1.389066 -0.91938,1.3126 -0.97294,1.143029 -0.97294,-3.080357 0,-5.430456 -0.91164,-6.753594 -4.27694,-6.20748 -1.20144,0.194965 -2.4138,0.716009 -2.69417,1.157876 -0.28036,0.441868 -0.51406,2.722246 -0.51932,5.067508 l -0.01,4.264112 -1.62591,-1.278936 c -3.43598,-2.702743 -9.56755,-2.232455 -12.05063,0.924277 -1.19073,1.513771 -1.27095,1.52988 -1.88692,0.378925 -0.83821,-1.566205 -4.41094,-3.239991 -6.91583,-3.239991 -2.31873,0 -4.07592,0.813591 -6.3662,2.947591 -1.64729,1.534882 -1.6607,1.536363 -2.07555,0.229279 -0.5544,-1.746777 -3.69645,-3.308836 -6.16014,-3.062487 l -1.98132,0.198117 -0.18732,-3.58964 c -0.16621,-3.185167 -0.35479,-3.631674 -1.67364,-3.962684 -1.69775,-0.426107 -4.17036,0.201358 -4.84822,1.230312 -0.25255,0.383357 -0.46349,2.644475 -0.46875,5.024708 l -0.01,4.327697 -1.50107,-1.41018 c -2.07044,-1.945081 -6.03158,-2.389669 -9.07273,-1.018302 -2.27961,1.027964 -2.49193,1.028241 -4.05316,0.0053 -2.13083,-1.39618 -6.68223,-0.948092 -9.18809,0.904573 -1.40312,1.03734 -1.80995,1.131482 -1.80995,0.418799 0,-0.505629 -0.35156,-1.138818 -0.78125,-1.407089 -1.13444,-0.708273 -10.49361,-0.866685 -11.74167,-0.198738 -0.6695,0.358304 -1.78136,0.294935 -3.0185,-0.172034 -2.30624,-0.870509 -2.51148,-1.549772 -0.55233,-1.828016 1.14103,-0.162052 1.44388,-0.659225 1.60575,-2.636103 0.22502,-2.747998 -0.47071,-3.478198 -3.3245,-3.489209 -3.00534,-0.01159 -5.75923,2.060564 -6.63843,4.995071 -0.42296,1.411716 -1.28203,2.841311 -1.90905,3.176879 -1.72988,0.925808 -1.37888,5.566143 0.42104,5.566143 0.5612,0 0.87393,1.418082 1.0406,4.718779 0.25657,5.080617 0.76598,5.879535 3.75995,5.89665 2.79748,0.01599 3.63839,-1.43661 3.63839,-6.285072 0,-2.470238 0.26847,-4.330357 0.625,-4.330357 0.34375,0 0.625,1.279592 0.625,2.843538 0,1.563945 0.44007,3.69455 0.97794,4.734677 1.15295,2.229552 4.3174,3.811677 6.52206,3.260823 0.85937,-0.214722 2.95895,-0.421035 4.66572,-0.458471 z m -5.48935,-6.697643 c -0.18944,-0.724391 -0.0769,-2.020586 0.24996,-2.880431 0.49178,-1.293486 0.75443,-1.43053 1.52153,-0.793897 0.97448,0.808752 1.18451,2.343478 0.54777,4.002787 -0.54278,1.41447 -1.91427,1.220237 -2.31926,-0.328459 z m 15.578,0.328459 c -1.10842,-2.888485 0.33568,-4.951327 2.99835,-4.28304 1.39871,0.351054 1.62228,0.742359 1.62228,2.839412 0,2.348434 -0.0731,2.432245 -2.12063,2.432245 -1.35718,0 -2.25721,-0.355913 -2.5,-0.988617 z m 26.8686,-0.55544 c -0.22177,-0.883626 -0.0956,-2.181481 0.28049,-2.884122 0.99252,-1.854545 2.5963,-0.36343 2.34721,2.182327 -0.24238,2.477141 -2.06025,2.962654 -2.6277,0.701795 z m 15.6687,1.12739 c -0.78145,-0.781442 -0.42956,-4.44465 0.45972,-4.785902 1.27419,-0.488951 1.62361,0.11509 1.62361,2.806736 0,2.257156 -0.92582,3.136682 -2.08333,1.979166 z m 14.97447,-0.541267 c -0.63377,-1.651585 -0.45155,-3.213877 0.46343,-3.973245 1.20495,-1.00002 2.4183,0.605228 2.15934,2.85679 -0.22557,1.96127 -2.0075,2.7198 -2.62277,1.116455 z"
       id="path3518"
       inkscape:connector-curvature="0" />
    <path
       style="fill:#385592"
       d="m 110.625,40.625 0,-20.625 61.25,0 61.25,0 0,20.625 0,20.625 -61.25,0 -61.25,0 0,-20.625 z m 27.63217,13.053736 c 2.28262,0.101878 3.10721,-0.128852 3.66764,-1.02624 0.69638,-1.115086 0.8276,-1.104698 3.56751,0.282419 3.45451,1.748899 4.80127,1.792941 7.81664,0.255616 1.2778,-0.651457 2.46706,-0.951804 2.64281,-0.667437 0.17575,0.284367 1.85823,0.861373 3.73885,1.282237 2.87749,0.643953 3.80314,0.614429 5.84166,-0.186325 1.6678,-0.655129 2.75812,-0.763635 3.50022,-0.348332 0.59282,0.33176 2.10772,0.478638 3.36643,0.326395 1.25871,-0.152242 3.07067,-0.009 4.02657,0.318415 2.12737,0.72857 4.97986,-0.308768 6.63495,-2.412876 l 1.14308,-1.453193 1.38002,1.468967 c 3.1869,3.392295 9.37791,3.411558 12.54623,0.03904 l 1.43858,-1.531305 1.39232,1.502333 c 0.76577,0.826284 2.54113,1.846529 3.94525,2.267211 2.17936,0.652952 2.97426,0.60397 5.43223,-0.334736 1.58361,-0.604787 3.03542,-1.506475 3.22624,-2.003751 0.26092,-0.679937 0.5243,-0.546503 1.06214,0.538097 1.00872,2.034143 5.59902,2.418916 6.59761,0.553031 0.67688,-1.264743 0.68428,-1.264875 1.91518,-0.03397 1.51947,1.519474 6.08371,1.733896 6.62956,0.311448 0.19507,-0.508326 -0.5365,-2.37254 -1.62568,-4.142698 l -1.98035,-3.218469 1.95007,-3.136991 c 1.07253,-1.725345 1.80408,-3.517381 1.62568,-3.982303 -0.47033,-1.225666 -5.30776,-1.089586 -6.72065,0.189056 -1.09629,0.992127 -1.14296,0.866332 -1.14296,-3.080357 0,-5.049684 -0.97806,-6.388116 -4.27694,-5.852781 -1.20144,0.194965 -2.4138,0.716009 -2.69417,1.157876 -0.28036,0.441868 -0.51406,2.750858 -0.51932,5.131091 l -0.01,4.327697 -1.52358,-1.431334 c -2.95945,-2.780252 -10.29045,-2.118788 -12.30715,1.110453 -0.75294,1.20565 -0.81885,1.191245 -2.42717,-0.530472 -2.93409,-3.140948 -8.93764,-3.253854 -12.20101,-0.229458 -1.51609,1.405064 -1.80693,1.482499 -2.29468,0.610944 C 182.78313,38.250104 179.71855,36.875 177.21854,36.875 l -2.21854,0 0,-3.425593 c 0,-3.181306 -0.11768,-3.455129 -1.65027,-3.839783 -0.90765,-0.227806 -2.38421,-0.157313 -3.28125,0.156649 -1.53191,0.536166 -1.65087,0.87381 -1.95846,5.558534 -0.20887,3.181385 -0.50995,4.607404 -0.83135,3.937616 -1.06646,-2.22246 -6.85358,-3.09054 -9.92427,-1.488662 -1.49376,0.779247 -1.95183,0.76947 -3.65046,-0.07792 -2.73623,-1.365009 -7.64705,-0.819473 -9.66183,1.07332 -1.23843,1.16344 -1.54211,1.249924 -1.54211,0.439171 0,-0.555258 -0.35156,-1.229054 -0.78125,-1.497325 -1.14865,-0.717144 -10.50101,-0.862719 -11.77067,-0.183218 -0.72749,0.389338 -1.78124,0.290102 -3.17475,-0.29898 l -2.08583,-0.881749 1.63351,-0.625653 c 1.91396,-0.733066 2.57756,-2.099317 2.04681,-4.214012 -0.44647,-1.778896 -2.42948,-2.447543 -5.53235,-1.865441 -2.32891,0.436907 -4.48432,2.661863 -5.13757,5.303347 -0.21997,0.88946 -0.91698,1.98471 -1.54892,2.433889 -1.65844,1.178814 -1.58684,5.123333 0.10102,5.564717 1.09567,0.286525 1.25,0.85251 1.25,4.584345 0,4.815697 0.84746,6.221748 3.75,6.221748 2.91512,0 3.75,-1.401413 3.75,-6.294643 0,-2.470238 0.26847,-4.330357 0.625,-4.330357 0.34375,0 0.625,1.416145 0.625,3.146989 0,1.911034 0.41788,3.784753 1.064,4.770862 1.34466,2.052215 4.40163,3.433467 6.436,2.908025 0.85937,-0.221962 2.8876,-0.344425 4.50717,-0.27214 z m -5.13217,-8.01685 c 0,-2.881148 0.88763,-3.756797 1.89679,-1.871178 0.87913,1.642686 0.27602,4.334292 -0.9712,4.334292 -0.66088,0 -0.92559,-0.704429 -0.92559,-2.463114 z m 15.64699,1.254202 c -0.83932,-1.568286 -0.81587,-2.071225 0.15876,-3.404106 0.59166,-0.809139 1.25592,-0.988944 2.5,-0.676701 1.47924,0.371266 1.69425,0.733886 1.69425,2.857474 0,2.279414 -0.11644,2.432245 -1.85301,2.432245 -1.19236,0 -2.08368,-0.431013 -2.5,-1.208912 z m 26.97332,-1.447338 c 0.19183,-2.651276 0.94241,-3.232584 2.00297,-1.551248 0.78867,1.250296 -0.0784,4.207498 -1.23362,4.207498 -0.74469,0 -0.91819,-0.599022 -0.76935,-2.65625 z m 15.29636,2.239583 c -0.22917,-0.229166 -0.41667,-1.354166 -0.41667,-2.5 0,-1.666666 0.25,-2.083333 1.25,-2.083333 1.04167,0 1.25,0.416667 1.25,2.5 0,2.356768 -0.90495,3.261718 -2.08333,2.083333 z m 14.8157,-1.242569 c -0.42352,-1.687445 0.38657,-3.741453 1.39825,-3.545277 1.84683,0.358127 1.7834,5.204513 -0.0681,5.204513 -0.50253,0 -1.10108,-0.746656 -1.33013,-1.659236 z"
       id="path3516"
       inkscape:connector-curvature="0" />
  </g>
</svg>
