<?xml version="1.0" encoding="UTF-8" standalone="no"?>
<!-- Created with Inkscape (http://www.inkscape.org/) -->

<svg
   xmlns:dc="http://purl.org/dc/elements/1.1/"
   xmlns:cc="http://creativecommons.org/ns#"
   xmlns:rdf="http://www.w3.org/1999/02/22-rdf-syntax-ns#"
   xmlns:svg="http://www.w3.org/2000/svg"
   xmlns="http://www.w3.org/2000/svg"
   xmlns:xlink="http://www.w3.org/1999/xlink"
   xmlns:sodipodi="http://sodipodi.sourceforge.net/DTD/sodipodi-0.dtd"
   xmlns:inkscape="http://www.inkscape.org/namespaces/inkscape"
   id="svg3602"
   version="1.1"
   inkscape:version="0.91 r13725"
   width="291.875"
   height="76.875"
   viewBox="0 0 291.875 76.875"
   sodipodi:docname="Microsoft.svg">
  <metadata
     id="metadata3608">
    <rdf:RDF>
      <cc:Work
         rdf:about="">
        <dc:format>image/svg+xml</dc:format>
        <dc:type
           rdf:resource="http://purl.org/dc/dcmitype/StillImage" />
        <dc:title></dc:title>
      </cc:Work>
    </rdf:RDF>
  </metadata>
  <defs
     id="defs3606" />
  <sodipodi:namedview
     pagecolor="#ffffff"
     bordercolor="#666666"
     borderopacity="1"
     objecttolerance="10"
     gridtolerance="10"
     guidetolerance="10"
     inkscape:pageopacity="0"
     inkscape:pageshadow="2"
     inkscape:window-width="640"
     inkscape:window-height="480"
     id="namedview3604"
     showgrid="false"
     inkscape:zoom="0.89764454"
     inkscape:cx="145.9375"
     inkscape:cy="38.4375"
     inkscape:window-x="752"
     inkscape:window-y="96"
     inkscape:window-maximized="0"
     inkscape:current-layer="svg3602" />
  <image
     width="291.875"
     height="76.875"
     preserveAspectRatio="none"
     xlink:href="file:///media/havoc/USB%20DISK/pics/_Companies/Microsoft.png"
     id="image3610"
     x="0"
     y="0"
     sodipodi:absref="/media/havoc/USB DISK/pics/_Companies/Microsoft.png" />
  <g
     id="g3612">
    <path
       style="fill:#fdfdfd"
       d="M 0,38.4375 0,0 145.9375,0 291.875,0 l 0,38.4375 0,38.4375 -145.9375,0 L 0,76.875 0,38.4375 Z"
       id="path3628"
       inkscape:connector-curvature="0" />
    <path
       style="fill:#d0d0d0"
       d="m 36.71875,58.074938 c -0.969,-0.56439 -1.09375,-1.768989 -1.09375,-10.561352 0,-7.497739 0.206284,-10.130585 0.843674,-10.767975 0.708233,-0.708232 0.708233,-0.970196 0,-1.631784 C 35.826431,34.513882 35.625,31.865749 35.625,24.022389 l 0,-10.303328 1.614947,-0.614002 c 0.888222,-0.337701 1.85825,-0.463632 2.15562,-0.279848 0.29737,0.183785 9.807906,0.330925 21.134524,0.326977 18.117909,-0.0063 20.639003,0.110478 20.969378,0.971435 0.206544,0.538236 0.375531,5.280546 0.375531,10.538466 0,7.851929 -0.172225,9.702787 -0.963988,10.359895 -0.668787,0.555045 -0.764487,0.999543 -0.3125,1.451527 0.399944,0.399948 0.651488,4.679736 0.651488,11.084621 0,8.937095 -0.141762,10.48753 -0.988619,10.8125 -1.756919,0.674193 -19.023429,0.4169 -20.369569,-0.303533 -0.9228,-0.493867 -1.465045,-0.493867 -1.958911,0 -0.883724,0.883724 -19.698412,0.890676 -21.214151,0.0078 z M 59.722042,35.48187 c -1.396878,-0.781733 -2.478047,0.01908 -1.544467,1.143979 0.576722,0.694907 0.933917,0.727195 1.632342,0.147554 0.77086,-0.639757 0.75875,-0.817738 -0.08787,-1.291533 z m 28.546452,13.995041 c -0.610469,-0.387461 -0.754938,-3.599642 -0.625,-13.896679 L 87.8125,22.1875 91.144487,21.996828 c 1.832588,-0.104869 3.693057,0.108993 4.134369,0.475248 0.441306,0.366256 1.977694,3.719865 3.414182,7.452466 3.988232,10.363074 3.634502,10.334759 7.627942,0.610607 l 3.42814,-8.347649 3.71919,0 3.71919,0 0.16901,13.392732 c 0.18111,14.352644 0.17308,14.391067 -3.01276,14.410197 -2.70383,0.01624 -3.09225,-0.992268 -3.11362,-8.084179 -0.0236,-7.828393 -0.52063,-7.658727 -3.7137,1.267712 -1.52642,4.267214 -2.3949,5.832233 -3.52129,6.345449 -2.48831,1.133751 -4.323028,-0.177337 -5.591215,-3.995488 -0.604963,-1.821373 -1.827606,-4.864051 -2.716988,-6.761506 L 94.069875,35.3125 93.753687,41.875 c -0.173906,3.609375 -0.543724,6.914062 -0.821825,7.34375 -0.565487,0.873726 -3.442556,1.032999 -4.663368,0.258161 z M 120.75,49.25 c -0.87419,-0.874196 -1.05818,-17.796285 -0.20806,-19.137001 0.32758,-0.516628 1.43255,-0.750006 2.95918,-0.625 l 2.43638,0.199501 0.17312,9.640191 c 0.13097,7.293457 -0.0212,9.763486 -0.625,10.146679 -1.1918,0.756319 -3.88241,0.628839 -4.73562,-0.22437 z m 10.50776,-1.504846 c -7.8105,-7.056317 -2.20125,-19.845394 8.26312,-18.8399 3.38819,0.325562 4.85412,1.503867 4.85412,3.901702 0,2.177761 -1.01393,2.707392 -3.77313,1.970918 -2.13345,-0.569448 -2.69372,-0.485752 -4.18863,0.625712 -2.13605,1.588158 -2.64227,5.143951 -1.07323,7.53861 0.9796,1.495053 1.27656,1.57256 4.66732,1.218156 2.9384,-0.307124 3.69154,-0.195089 3.99441,0.594198 C 145.34105,48.244714 143.22401,50 137.67523,50 c -3.62631,0 -4.10958,-0.169804 -6.41747,-2.254846 z m 15.14849,1.84092 c -0.92608,-0.373682 -1.11784,-18.086803 -0.21131,-19.518391 0.39883,-0.62982 1.37542,-0.776871 3.53944,-0.532955 1.64374,0.185275 3.64158,0.03936 4.43963,-0.324255 1.75521,-0.799729 4.57599,0.256603 4.57599,1.713628 0,1.186273 -0.25173,1.231922 3.38718,-0.614217 5.14114,-2.608273 11.09238,-1.728232 13.98831,2.068525 1.25919,1.650888 1.69477,3.048873 1.88608,6.053319 0.47824,7.510551 -3.20734,11.570118 -10.5004,11.565936 -7.22534,-0.0041 -10.22925,-3.170471 -10.25449,-10.808916 l -0.014,-4.248752 -1.88832,0.186252 c -2.66472,0.26283 -3.4591,2.257473 -3.47012,8.713134 -0.007,4.343499 -0.20291,5.476211 -0.99783,5.78125 -1.14359,0.438837 -3.34909,0.421825 -4.48013,-0.03456 z m 24.13851,-6.051891 c 2.08603,-2.513512 1.21212,-8.084095 -1.37719,-8.778637 C 166.97635,34.167785 166.32036,34.304641 165,35.625 c -1.56457,1.564567 -1.72812,6.307595 -0.26786,7.767857 1.2021,1.202102 4.85847,1.291002 5.81262,0.141326 z m 8.77608,5.161656 c -0.9671,-0.9671 -1.19627,-1.734045 -0.8867,-2.967469 0.5657,-2.25395 0.51364,-2.234341 3.76148,-1.416524 4.16679,1.049212 5.78254,-0.319371 2.1523,-1.823064 C 180.87118,41.04867 178.75,38.523917 178.75,35.82581 c 0,-2.980183 1.38139,-5.058349 4.12411,-6.204331 4.77473,-1.995009 9.22337,-0.444549 8.87976,3.094811 -0.18361,1.891231 -0.30548,1.97121 -3.00387,1.97121 -1.54688,0 -2.95313,0.200974 -3.125,0.446609 -0.17188,0.245636 1.31826,1.428598 3.31139,2.628807 3.84143,2.313187 3.81937,2.320898 4.45992,-1.55819 1.13543,-6.87605 12.22734,-9.94683 17.62215,-4.87867 l 1.4433,1.355908 0.59624,-1.568242 c 0.32794,-0.862533 0.99986,-1.723125 1.49318,-1.912427 0.49331,-0.189303 1.07134,-1.434907 1.28452,-2.76801 0.70819,-4.428814 6.192,-7.951968 9.73452,-6.254085 1.20566,0.577858 1.61728,1.250214 1.61728,2.641722 0,1.581895 -0.33363,1.97441 -2.1875,2.573597 -1.68537,0.544725 -2.1875,1.046859 -2.1875,2.1875 0,1.22119 0.32143,1.480481 1.83527,1.480481 1.54323,0 1.91843,-0.320928 2.35788,-2.016823 0.57699,-2.226675 2.32319,-3.478832 4.43284,-3.178671 1.08797,0.154795 1.43907,0.715186 1.68651,2.691819 0.27434,2.191493 0.54146,2.535684 2.1875,2.818638 1.66244,0.285773 1.875,0.568913 1.875,2.497537 0,1.928774 -0.21244,2.211665 -1.875,2.49686 -1.71666,0.294475 -1.89182,0.557696 -2.07413,3.117069 -0.34616,4.859265 0.2791,6.683317 2.43903,7.115301 1.75884,0.351768 1.88466,0.553391 1.70456,2.731536 l -0.19446,2.351734 -3.56346,0.186536 c -5.35292,0.280208 -6.12134,-0.741495 -6.13361,-8.155286 -0.005,-3.179688 -0.24672,-6.155334 -0.53657,-6.612547 -0.29932,-0.472167 -1.30772,-0.742175 -2.33418,-0.625 L 222.8125,34.6875 222.5,41.5625 c -0.17188,3.78125 -0.54004,7.226562 -0.81814,7.65625 -0.66715,1.030811 -4.46863,1.004361 -5.33298,-0.03711 -0.37354,-0.450096 -0.75954,-3.872528 -0.85777,-7.605404 -0.13056,-4.961029 -0.40186,-6.861132 -1.00839,-7.062406 -0.64584,-0.214319 -0.73774,0.33843 -0.41455,2.493593 0.56579,3.773017 -0.59232,7.628082 -3.12026,10.386543 l -2.10186,2.29353 -5.40538,0 -5.40538,0 -2.47267,-2.650838 c -2.45215,-2.628838 -2.47733,-2.638597 -3.03347,-1.175827 C 191.45068,48.69742 188.95642,50 184.60321,50 c -3.19995,0 -4.23335,-0.255134 -5.28237,-1.304161 z m 27.39791,-5.412003 c 1.25851,-1.647544 0.97922,-6.210864 -0.46875,-7.658836 -2.75212,-2.752116 -6.875,-0.248283 -6.875,4.175196 0,2.943676 2.51781,5.48099 4.8752,4.912957 0.92802,-0.223613 2.03886,-0.866806 2.46855,-1.429317 z M 120.97883,27.295009 c -1.30574,-0.954785 -1.4988,-3.727908 -0.35543,-5.105585 1.01912,-1.227966 4.02312,-1.203613 5.26946,0.04272 1.40962,1.409624 1.21314,3.785178 -0.40693,4.919917 -1.70081,1.191297 -3.01634,1.233021 -4.5071,0.142949 z"
       id="path3626"
       inkscape:connector-curvature="0" />
    <path
       style="fill:#9c9c9c"
       d="M 37.306931,57.098597 C 37.069369,56.861036 36.875,52.359525 36.875,47.095241 c 0,-9.406189 0.02428,-9.577431 1.40625,-9.919279 0.773437,-0.19132 5.34375,-0.266991 10.15625,-0.168158 l 8.75,0.179696 0,10 0,10 -9.724319,0.171514 c -5.348376,0.09433 -9.918688,-0.02286 -10.15625,-0.260417 z M 60.281555,56.707231 C 60.107509,56.253676 60.043271,51.676191 60.138804,46.535043 L 60.3125,37.1875 l 8.75,-0.179696 C 81.868581,36.74481 80.689069,35.675816 80.484538,47.359621 L 80.3125,57.1875 70.45525,57.359689 c -7.709325,0.134668 -9.926203,-0.0075 -10.173695,-0.652458 z m 28.796264,-8.181243 c -0.844063,-0.617193 -0.956657,-2.453497 -0.8103,-13.215142 L 88.4375,22.8125 91.304744,22.626151 c 1.799125,-0.116929 3.1115,0.115898 3.522931,0.625 0.360625,0.446242 2.135006,4.537911 3.943062,9.092599 1.808053,4.554687 3.479353,8.28125 3.713983,8.28125 0.48551,0 2.02329,-3.319403 5.5013,-11.875 l 2.41372,-5.9375 3.08138,0 3.08138,0 0.1691,12.627384 c 0.16027,11.968379 0.10556,12.66139 -1.04848,13.279009 -2.56899,1.374885 -3.17554,0.30246 -3.29003,-5.817011 -0.0588,-3.14291 -0.16952,-6.136257 -0.24606,-6.651882 -0.0765,-0.515625 -0.178,-1.78125 -0.22547,-2.8125 -0.078,-1.693401 -0.16645,-1.769444 -0.91374,-0.785146 -0.45508,0.59942 -2.16199,4.466608 -3.79313,8.59375 -2.7959,7.074251 -3.06505,7.503896 -4.70073,7.503896 -1.89249,0 -1.52967,0.646126 -6.580466,-11.71875 C 94.634656,33.851562 93.330775,31.25 93.035988,31.25 92.741194,31.25 92.5,35.154697 92.5,39.927106 c 0,8.082665 -0.08364,8.698978 -1.22095,8.996391 -0.671525,0.175607 -1.662081,-0.0032 -2.201231,-0.397509 z m 32.935611,0.322792 c -0.60211,-0.382093 -0.75617,-2.729035 -0.625,-9.52168 l 0.17407,-9.0146 1.875,0 1.875,0 0.17487,8.744769 c 0.15351,7.676706 0.0435,8.840828 -0.90071,9.53125 -1.25312,0.916304 -1.50006,0.94128 -2.57323,0.260261 z m 12.36157,0.07105 c -1.56566,-0.595347 -4.01772,-2.694974 -4.8216,-4.128573 -1.08876,-1.941649 -0.97544,-7.677287 0.20064,-10.155697 1.78517,-3.761979 7.80813,-6.175019 11.6937,-4.684971 1.42576,0.546756 1.72266,0.999819 1.5625,2.384362 -0.18487,1.598021 -0.36978,1.696715 -2.83942,1.515455 -3.60273,-0.264422 -5.01985,0.294729 -6.11518,2.412852 -1.50768,2.915548 -1.18299,5.455547 0.973,7.61154 1.7668,1.766793 2.12624,1.874115 5,1.492897 2.99543,-0.397359 3.09636,-0.359834 3.09636,1.15129 0,0.904681 -0.50875,1.834312 -1.20891,2.209027 -1.27115,0.680297 -5.9439,0.799155 -7.54109,0.191818 z m 12.96875,-0.21989 C 146.38866,48.143649 146.25,47.006872 146.25,39.732972 c 0,-9.537556 0.42669,-10.553696 3.88369,-9.248825 1.26589,0.477821 2.28737,0.517589 3.0338,0.118111 1.8251,-0.976765 4.15605,-0.720492 4.47039,0.491492 0.45863,1.768306 -0.13669,2.65625 -1.78087,2.65625 -0.84635,0 -2.22917,0.690341 -3.07292,1.534091 -1.40177,1.401774 -1.53409,2.019806 -1.53409,7.16551 0,4.927959 -0.15101,5.71224 -1.20891,6.278409 -1.43877,0.770007 -1.32509,0.77119 -2.69734,-0.02807 z m 15.23218,-0.393632 c -3.09274,-1.523595 -4.44626,-4.147303 -4.44626,-8.618806 0,-6.447371 3.39129,-9.922652 9.68283,-9.922652 6.10221,0 9.29286,3.287271 9.33256,9.615209 0.0263,4.195897 -1.5368,7.173746 -4.63531,8.830509 -2.69342,1.440163 -7.11821,1.482808 -9.93382,0.09574 z m 8.38998,-4.215397 c 2.309,-2.309002 1.95853,-8.160406 -0.59072,-9.862588 -1.34881,-0.900622 -5.16438,-0.497184 -6.2084,0.65644 -1.27773,1.41187 -1.94297,4.554797 -1.41192,6.670642 1.00771,4.015033 5.38105,5.365489 8.21104,2.535506 z m 9.50284,4.64512 c -0.60156,-0.370228 -1.09375,-1.364748 -1.09375,-2.210045 0,-1.487615 0.10592,-1.524455 3.30271,-1.148735 2.58023,0.303255 3.48068,0.17372 4.1163,-0.592163 1.09899,-1.3242 0.5351,-2.033913 -3.0658,-3.858628 -3.30011,-1.672291 -4.35321,-3.032076 -4.35321,-5.620947 0,-2.206134 2.97992,-5.104403 5.7903,-5.631632 2.79621,-0.524573 5.7722,0.775723 5.7722,2.522043 0,1.022117 -0.4419,1.25189 -2.5,1.299919 -3.99246,0.09317 -4.16227,0.164267 -3.94972,1.653739 0.13134,0.920431 1.14755,1.89499 2.9683,2.846656 1.52271,0.795891 3.13095,1.923893 3.57386,2.50667 1.29665,1.706093 1.00532,4.866075 -0.62315,6.75929 -1.23205,1.432335 -2.06147,1.742296 -5.15625,1.926938 -2.02842,0.12102 -4.18023,-0.08288 -4.78179,-0.453105 z m 18.54277,0.03344 c -1.99675,-0.807772 -4.54018,-4.182877 -5.00026,-6.63529 -0.85353,-4.54971 0.61795,-8.368368 4.27752,-11.100629 2.39613,-1.788966 8.50714,-1.802517 10.89293,-0.02416 5.68448,4.237217 5.47701,12.995583 -0.40168,16.957232 -2.19433,1.478761 -7.10087,1.882013 -9.76851,0.802841 z m 7.82862,-4.359606 c 1.91596,-1.915959 2.31701,-5.501353 0.90943,-8.13028 -1.00135,-1.870198 -1.56493,-2.248095 -3.60211,-2.415309 -3.55852,-0.292085 -5.39746,1.632243 -5.39746,5.648085 0,2.399058 0.32522,3.369678 1.53409,4.578553 1.87656,1.876557 4.85361,2.02139 6.55605,0.318952 z m 11.12861,4.482922 c -0.96046,-0.205867 -1.09375,-1.064926 -1.09375,-7.049201 0,-6.579405 -0.0539,-6.850123 -1.5625,-7.838554 -1.80768,-1.184436 -2.05924,-3.235983 -0.46875,-3.822804 1.50433,-0.555032 2.01046,-1.437766 2.02168,-3.525973 0.006,-1.190509 0.72729,-2.498968 2.1737,-3.945372 1.82858,-1.828585 2.53113,-2.133831 4.53125,-1.96875 2.05993,0.170018 2.39278,0.41842 2.56488,1.914122 0.16736,1.454508 -0.0339,1.71875 -1.30938,1.71875 -1.94315,0 -3.73403,1.989513 -3.46985,3.854709 0.18485,1.305153 0.53368,1.457791 3.33147,1.457791 3.04034,0 3.13013,-0.05272 3.31449,-1.946076 0.12749,-1.30921 0.65766,-2.159385 1.62006,-2.597883 1.92981,-0.879279 2.73621,-0.241594 2.98336,2.359186 0.17775,1.870484 0.47279,2.224845 2.08209,2.500677 1.49299,0.255897 1.875,0.637207 1.875,1.871596 0,1.234026 -0.38244,1.616108 -1.875,1.873231 l -1.875,0.323007 -0.18361,4.898629 c -0.19504,5.203812 0.27563,6.446149 2.56636,6.773862 1.56187,0.22344 2.20592,2.288481 0.95999,3.078058 -1.49955,0.950308 -4.6949,0.586067 -6.3619,-0.725198 -1.53515,-1.207547 -1.6351,-1.631942 -1.80304,-7.65625 l -0.1778,-6.377839 -3.125,0 -3.125,0 -0.1755,7.275889 c -0.18571,7.699425 -0.41168,8.198827 -3.41825,7.554393 z M 37.157022,34.208447 C 36.983232,33.75556 36.918994,29.03745 37.014271,23.723758 L 37.1875,14.0625 l 10,0 10,0 0,10.3125 0,10.3125 -9.857249,0.172189 c -7.702149,0.134544 -9.926332,-0.0078 -10.173229,-0.651242 z m 23.125,0 C 60.108232,33.75556 60.043994,29.03745 60.139271,23.723758 L 60.3125,14.0625 l 10,0 10,0 0,10.3125 0,10.3125 -9.85725,0.172189 c -7.70215,0.134544 -9.926331,-0.0078 -10.173228,-0.651242 z m 61.019098,-8.209356 c -1.73461,-2.090077 1.35789,-5.182585 3.44797,-3.447975 0.51651,0.428664 0.85457,1.506588 0.75126,2.395386 -0.14086,1.211719 -0.59213,1.662992 -1.80385,1.803847 -0.88879,0.103317 -1.96672,-0.23475 -2.39538,-0.751258 z"
       id="path3624"
       inkscape:connector-curvature="0" />
    <path
       style="fill:#e4b51b"
       d="M 37.306931,57.098597 C 37.069369,56.861036 36.875,52.384258 36.875,47.150201 c 0,-8.101215 0.147023,-9.572883 0.988617,-9.895833 1.477391,-0.566928 17.949333,-0.439267 18.871999,0.146262 0.603828,0.383192 0.755973,2.853222 0.625,10.146679 L 57.1875,57.1875 47.463181,57.359014 c -5.348376,0.09433 -9.918688,-0.02286 -10.15625,-0.260417 z M 60.281555,56.707231 C 60.107509,56.253676 60.043271,51.676191 60.138804,46.535043 L 60.3125,37.1875 l 8.75,-0.179696 C 81.868581,36.74481 80.689069,35.675816 80.484538,47.359621 L 80.3125,57.1875 70.45525,57.359689 c -7.709325,0.134668 -9.926203,-0.0075 -10.173695,-0.652458 z m 73.544375,-9.025925 c -4.15765,-2.048205 -5.69378,-7.685782 -3.40721,-12.504388 1.52957,-3.223314 4.15623,-4.614275 8.32521,-4.408659 2.7367,0.134977 3.47506,0.398435 3.64695,1.301293 0.18595,0.976695 -0.0836,1.075928 -1.96441,0.723092 -2.74235,-0.514466 -6.22526,1.03242 -7.21487,3.204384 -0.39138,0.858983 -0.7116,2.695189 -0.7116,4.080457 0,1.964942 0.41204,2.930705 1.87418,4.392848 1.62756,1.627556 2.25913,1.850506 4.79954,1.694284 3.34247,-0.205545 4.39813,0.958805 1.77389,1.956537 -2.36619,0.899626 -4.69459,0.75582 -7.12168,-0.439848 z m 29.29907,-0.02603 c -5.13039,-2.562917 -5.8789,-11.360097 -1.31284,-15.429592 1.61633,-1.440548 7.60956,-2.053891 10.2188,-1.045787 4.00912,1.548956 5.6684,9.247707 2.95302,13.70146 -2.21986,3.640994 -7.60281,4.900114 -11.85898,2.773919 z m 8.46591,-2.93937 c 2.18327,-2.183266 2.2036,-7.617853 0.0379,-10.135602 -1.91639,-2.227944 -5.91251,-2.449402 -7.92284,-0.439071 -1.41449,1.414493 -2.22068,5.47103 -1.58815,7.991215 1.02837,4.097363 6.47404,5.582485 9.47307,2.583458 z m 9.81534,3.423023 c -2.61524,-1.11333 -1.66434,-2.546341 1.27094,-1.915319 1.10567,0.237693 2.79925,0.167326 3.76352,-0.156374 2.8445,-0.954886 2.0869,-3.302156 -1.75321,-5.431963 -3.65292,-2.025988 -5.04288,-4.252761 -4.2141,-6.751152 0.74204,-2.236917 2.94702,-3.308769 6.39598,-3.109112 2.03726,0.117936 2.86093,0.447375 3.00403,1.201498 0.16396,0.864071 -0.20399,0.985205 -2.18533,0.719451 -1.86039,-0.249531 -2.63234,-0.04349 -3.5226,0.940248 -1.50622,1.664357 -0.51491,3.624887 2.46173,4.86861 4.62166,1.931052 5.83931,5.011188 3.19591,8.084315 -1.58229,1.83953 -5.87819,2.630533 -8.41687,1.549798 z m 18.83609,0.214998 c -3.37652,-0.750176 -6.22296,-6.252294 -5.43364,-10.503136 0.91063,-4.90415 3.90439,-7.225794 9.31766,-7.225794 3.72791,0 5.76916,1.095 7.17377,3.848264 3.22526,6.322025 -0.17201,13.415298 -6.67205,13.930832 -1.68607,0.133726 -3.65965,0.111151 -4.38574,-0.05016 z m 6.29216,-2.492168 c 2.60304,-0.99888 3.66417,-6.831032 1.87306,-10.29465 -2.42734,-4.693962 -9.24357,-3.32658 -10.53082,2.112554 -0.57277,2.420171 0.63753,6.459345 2.28025,7.609951 1.40285,0.982589 4.56795,1.266539 6.37751,0.572145 z m 24.64966,2.47482 c -1.73574,-0.464347 -2.41954,-2.834285 -2.58567,-8.961582 l -0.16099,-5.9375 -3.75,0 -3.75,0 -0.3125,7.1875 c -0.29863,6.868504 -0.37491,7.196364 -1.71875,7.387219 C 217.51729,48.209483 217.5,48.122835 217.5,40.9655 c 0,-7.154451 -0.0198,-7.253979 -1.5625,-7.8405 -0.85938,-0.326734 -1.5625,-0.889234 -1.5625,-1.25 0,-0.360766 0.70312,-0.923266 1.5625,-1.25 1.19903,-0.455871 1.5625,-1.041044 1.5625,-2.515568 0,-3.197144 1.58463,-5.472259 4.3987,-6.315374 1.80299,-0.540189 2.70792,-0.562432 3.1919,-0.07846 0.87597,0.875975 0.14677,2.034398 -1.28062,2.034398 -1.82401,0 -3.29594,2.142619 -3.07269,4.472788 l 0.20021,2.089712 3.75,0 3.75,0 0.19585,-2.03125 c 0.10772,-1.117188 0.45928,-2.073438 0.78125,-2.125 1.83447,-0.293785 2.17595,-0.02577 2.4604,1.931101 0.26277,1.807771 0.64246,2.235021 2.38621,2.685122 2.46859,0.637199 2.33368,1.907761 -0.25027,2.35715 l -1.82344,0.317122 -0.18149,5.525933 c -0.18971,5.776553 0.30701,7.277322 2.40863,7.277322 1.49715,0 2.22604,1.243735 1.13418,1.935307 -0.88744,0.562096 -2.60632,0.621671 -4.36466,0.151275 z M 89.188275,47.729939 C 88.385956,46.927626 88.676437,24.698559 89.5,23.875 c 0.982406,-0.982407 3.927606,-0.962901 4.718331,0.03125 0.341763,0.429687 2.104819,4.516625 3.917894,9.082082 1.813081,4.565459 3.563635,8.465925 3.890115,8.667704 1.02697,0.634702 2.13747,-1.157936 4.51044,-7.281036 3.68509,-9.508828 4.2699,-10.601961 5.90371,-11.035366 3.30142,-0.87578 3.49701,-0.167355 3.49701,12.665982 0,11.725611 -0.01,11.808243 -1.38931,12.004383 -1.37558,0.195549 -1.39101,0.106071 -1.5625,-9.0625 -0.22871,-12.228334 -0.8023,-12.232489 -5.69407,-0.04125 -2.921,7.279693 -3.94541,9.21875 -4.87033,9.21875 -0.64421,0 -1.17288,-0.07031 -1.17482,-0.15625 -0.002,-0.08594 -1.665583,-4.234375 -3.697001,-9.21875 -4.988,-12.238774 -5.588157,-12.260107 -5.813769,-0.206658 -0.145381,7.767224 -0.328669,9.283294 -1.141175,9.439169 -0.532388,0.102135 -1.1652,-0.01152 -1.40625,-0.252572 z M 121.875,39.767855 c 0,-8.544094 0.38662,-10.01245 2.23287,-8.480203 0.74916,0.621749 0.89452,2.289094 0.75387,8.647557 -0.16883,7.632555 -0.21793,7.883496 -1.58049,8.07701 -1.3988,0.198662 -1.40625,0.154973 -1.40625,-8.244364 z m 25.625,-0.02827 c 0,-8.829346 0.38596,-9.977305 2.68158,-7.975737 1.01614,0.885979 1.28373,0.878476 2.90893,-0.08156 2.39911,-1.417191 3.78449,-1.346647 3.78449,0.192706 0,0.846594 -0.41667,1.25 -1.29109,1.25 -3.77859,0 -5.58391,3.32762 -5.58391,10.292426 0,4.290907 -0.11064,4.707574 -1.25,4.707574 -1.18789,0 -1.25,-0.416667 -1.25,-8.385417 z M 37.306931,33.973598 C 37.069369,33.736036 36.875,29.379687 36.875,24.292823 c 0,-8.504401 0.09731,-9.30092 1.208912,-9.895833 1.418176,-0.758985 17.48224,-0.863509 18.651704,-0.12136 0.603828,0.383192 0.755973,2.853222 0.625,10.146679 L 57.1875,34.0625 47.463181,34.234014 c -5.348376,0.09433 -9.918688,-0.02286 -10.15625,-0.260416 z M 60.398077,32.984614 C 59.901911,31.132675 59.886531,16.647929 60.379368,15.363617 60.702604,14.521277 62.184565,14.375 70.395237,14.375 l 9.636507,0 -0.172125,9.84375 -0.172119,9.84375 -9.454206,0.172114 c -9.373505,0.170644 -9.45746,0.159974 -9.835216,-1.25 z m 61.531883,-7.605898 c -0.55949,-0.674135 -0.48589,-1.108499 0.32525,-1.919643 0.92997,-0.929968 1.1538,-0.942919 1.98204,-0.114679 1.06322,1.063219 0.61708,2.905606 -0.70361,2.905606 -0.48432,0 -1.20598,-0.392078 -1.60368,-0.871284 z"
       id="path3622"
       inkscape:connector-curvature="0" />
    <path
       style="fill:#0ca2e7"
       d="M 37.306931,57.098597 C 37.069369,56.861036 36.875,52.384258 36.875,47.150201 c 0,-8.101215 0.147023,-9.572883 0.988617,-9.895833 1.477391,-0.566928 17.949333,-0.439267 18.871999,0.146262 0.603828,0.383192 0.755973,2.853222 0.625,10.146679 L 57.1875,57.1875 47.463181,57.359014 c -5.348376,0.09433 -9.918688,-0.02286 -10.15625,-0.260417 z m 96.518999,-9.417291 c -4.15765,-2.048205 -5.69378,-7.685782 -3.40721,-12.504388 1.52957,-3.223314 4.15623,-4.614275 8.32521,-4.408659 2.7367,0.134977 3.47506,0.398435 3.64695,1.301293 0.18595,0.976695 -0.0836,1.075928 -1.96441,0.723092 -2.74235,-0.514466 -6.22526,1.03242 -7.21487,3.204384 -0.39138,0.858983 -0.7116,2.695189 -0.7116,4.080457 0,1.964942 0.41204,2.930705 1.87418,4.392848 1.62756,1.627556 2.25913,1.850506 4.79954,1.694284 3.34247,-0.205545 4.39813,0.958805 1.77389,1.956537 -2.36619,0.899626 -4.69459,0.75582 -7.12168,-0.439848 z m 29.29907,-0.02603 c -5.13039,-2.562917 -5.8789,-11.360097 -1.31284,-15.429592 1.61633,-1.440548 7.60956,-2.053891 10.2188,-1.045787 4.00912,1.548956 5.6684,9.247707 2.95302,13.70146 -2.21986,3.640994 -7.60281,4.900114 -11.85898,2.773919 z m 8.46591,-2.93937 c 2.18327,-2.183266 2.2036,-7.617853 0.0379,-10.135602 -1.91639,-2.227944 -5.91251,-2.449402 -7.92284,-0.439071 -1.41449,1.414493 -2.22068,5.47103 -1.58815,7.991215 1.02837,4.097363 6.47404,5.582485 9.47307,2.583458 z m 9.81534,3.423023 c -2.61524,-1.11333 -1.66434,-2.546341 1.27094,-1.915319 1.10567,0.237693 2.79925,0.167326 3.76352,-0.156374 2.8445,-0.954886 2.0869,-3.302156 -1.75321,-5.431963 -3.65292,-2.025988 -5.04288,-4.252761 -4.2141,-6.751152 0.74204,-2.236917 2.94702,-3.308769 6.39598,-3.109112 2.03726,0.117936 2.86093,0.447375 3.00403,1.201498 0.16396,0.864071 -0.20399,0.985205 -2.18533,0.719451 -1.86039,-0.249531 -2.63234,-0.04349 -3.5226,0.940248 -1.50622,1.664357 -0.51491,3.624887 2.46173,4.86861 4.62166,1.931052 5.83931,5.011188 3.19591,8.084315 -1.58229,1.83953 -5.87819,2.630533 -8.41687,1.549798 z m 18.83609,0.214998 c -3.37652,-0.750176 -6.22296,-6.252294 -5.43364,-10.503136 0.91063,-4.90415 3.90439,-7.225794 9.31766,-7.225794 3.72791,0 5.76916,1.095 7.17377,3.848264 3.22526,6.322025 -0.17201,13.415298 -6.67205,13.930832 -1.68607,0.133726 -3.65965,0.111151 -4.38574,-0.05016 z m 6.29216,-2.492168 c 2.60304,-0.99888 3.66417,-6.831032 1.87306,-10.29465 -2.42734,-4.693962 -9.24357,-3.32658 -10.53082,2.112554 -0.57277,2.420171 0.63753,6.459345 2.28025,7.609951 1.40285,0.982589 4.56795,1.266539 6.37751,0.572145 z m 24.64966,2.47482 c -1.73574,-0.464347 -2.41954,-2.834285 -2.58567,-8.961582 l -0.16099,-5.9375 -3.75,0 -3.75,0 -0.3125,7.1875 c -0.29863,6.868504 -0.37491,7.196364 -1.71875,7.387219 C 217.51729,48.209483 217.5,48.122835 217.5,40.9655 c 0,-7.154451 -0.0198,-7.253979 -1.5625,-7.8405 -0.85938,-0.326734 -1.5625,-0.889234 -1.5625,-1.25 0,-0.360766 0.70312,-0.923266 1.5625,-1.25 1.19903,-0.455871 1.5625,-1.041044 1.5625,-2.515568 0,-3.197144 1.58463,-5.472259 4.3987,-6.315374 1.80299,-0.540189 2.70792,-0.562432 3.1919,-0.07846 0.87597,0.875975 0.14677,2.034398 -1.28062,2.034398 -1.82401,0 -3.29594,2.142619 -3.07269,4.472788 l 0.20021,2.089712 3.75,0 3.75,0 0.19585,-2.03125 c 0.10772,-1.117188 0.45928,-2.073438 0.78125,-2.125 1.83447,-0.293785 2.17595,-0.02577 2.4604,1.931101 0.26277,1.807771 0.64246,2.235021 2.38621,2.685122 2.46859,0.637199 2.33368,1.907761 -0.25027,2.35715 l -1.82344,0.317122 -0.18149,5.525933 c -0.18971,5.776553 0.30701,7.277322 2.40863,7.277322 1.49715,0 2.22604,1.243735 1.13418,1.935307 -0.88744,0.562096 -2.60632,0.621671 -4.36466,0.151275 z M 89.188275,47.729939 C 88.385956,46.927626 88.676437,24.698559 89.5,23.875 c 0.982406,-0.982407 3.927606,-0.962901 4.718331,0.03125 0.341763,0.429687 2.104819,4.516625 3.917894,9.082082 1.813081,4.565459 3.563635,8.465925 3.890115,8.667704 1.02697,0.634702 2.13747,-1.157936 4.51044,-7.281036 3.68509,-9.508828 4.2699,-10.601961 5.90371,-11.035366 3.30142,-0.87578 3.49701,-0.167355 3.49701,12.665982 0,11.725611 -0.01,11.808243 -1.38931,12.004383 -1.37558,0.195549 -1.39101,0.106071 -1.5625,-9.0625 -0.22871,-12.228334 -0.8023,-12.232489 -5.69407,-0.04125 -2.921,7.279693 -3.94541,9.21875 -4.87033,9.21875 -0.64421,0 -1.17288,-0.07031 -1.17482,-0.15625 -0.002,-0.08594 -1.665583,-4.234375 -3.697001,-9.21875 -4.988,-12.238774 -5.588157,-12.260107 -5.813769,-0.206658 -0.145381,7.767224 -0.328669,9.283294 -1.141175,9.439169 -0.532388,0.102135 -1.1652,-0.01152 -1.40625,-0.252572 z M 121.875,39.767855 c 0,-8.544094 0.38662,-10.01245 2.23287,-8.480203 0.74916,0.621749 0.89452,2.289094 0.75387,8.647557 -0.16883,7.632555 -0.21793,7.883496 -1.58049,8.07701 -1.3988,0.198662 -1.40625,0.154973 -1.40625,-8.244364 z m 25.625,-0.02827 c 0,-8.829346 0.38596,-9.977305 2.68158,-7.975737 1.01614,0.885979 1.28373,0.878476 2.90893,-0.08156 2.39911,-1.417191 3.78449,-1.346647 3.78449,0.192706 0,0.846594 -0.41667,1.25 -1.29109,1.25 -3.77859,0 -5.58391,3.32762 -5.58391,10.292426 0,4.290907 -0.11064,4.707574 -1.25,4.707574 -1.18789,0 -1.25,-0.416667 -1.25,-8.385417 z M 37.306931,33.973598 C 37.069369,33.736036 36.875,29.379687 36.875,24.292823 c 0,-8.504401 0.09731,-9.30092 1.208912,-9.895833 1.91825,-1.026617 17.852528,-0.840386 18.731678,0.218926 0.488792,0.588957 0.663196,3.837372 0.545278,10.15625 L 57.1875,34.0625 47.463181,34.234014 c -5.348376,0.09433 -9.918688,-0.02286 -10.15625,-0.260416 z M 60.625,24.391279 l 0,-10.016279 9.703369,0 9.703375,0 -0.172125,9.84375 -0.172119,9.84375 -9.53125,0.172529 -9.53125,0.172529 0,-10.016279 z m 61.30496,0.987437 c -0.55949,-0.674135 -0.48589,-1.108499 0.32525,-1.919643 0.92997,-0.929968 1.1538,-0.942919 1.98204,-0.114679 1.06322,1.063219 0.61708,2.905606 -0.70361,2.905606 -0.48432,0 -1.20598,-0.392078 -1.60368,-0.871284 z"
       id="path3620"
       inkscape:connector-curvature="0" />
    <path
       style="fill:#ea5125"
       d="m 133.82593,47.681306 c -4.15765,-2.048205 -5.69378,-7.685782 -3.40721,-12.504388 1.52957,-3.223314 4.15623,-4.614275 8.32521,-4.408659 2.7367,0.134977 3.47506,0.398435 3.64695,1.301293 0.18595,0.976695 -0.0836,1.075928 -1.96441,0.723092 -2.74235,-0.514466 -6.22526,1.03242 -7.21487,3.204384 -0.39138,0.858983 -0.7116,2.695189 -0.7116,4.080457 0,1.964942 0.41204,2.930705 1.87418,4.392848 1.62756,1.627556 2.25913,1.850506 4.79954,1.694284 3.34247,-0.205545 4.39813,0.958805 1.77389,1.956537 -2.36619,0.899626 -4.69459,0.75582 -7.12168,-0.439848 z m 29.29907,-0.02603 c -5.13039,-2.562917 -5.8789,-11.360097 -1.31284,-15.429592 1.61633,-1.440548 7.60956,-2.053891 10.2188,-1.045787 4.00912,1.548956 5.6684,9.247707 2.95302,13.70146 -2.21986,3.640994 -7.60281,4.900114 -11.85898,2.773919 z m 8.46591,-2.93937 c 2.18327,-2.183266 2.2036,-7.617853 0.0379,-10.135602 -1.91639,-2.227944 -5.91251,-2.449402 -7.92284,-0.439071 -1.41449,1.414493 -2.22068,5.47103 -1.58815,7.991215 1.02837,4.097363 6.47404,5.582485 9.47307,2.583458 z m 9.81534,3.423023 c -2.61524,-1.11333 -1.66434,-2.546341 1.27094,-1.915319 1.10567,0.237693 2.79925,0.167326 3.76352,-0.156374 2.8445,-0.954886 2.0869,-3.302156 -1.75321,-5.431963 -3.65292,-2.025988 -5.04288,-4.252761 -4.2141,-6.751152 0.74204,-2.236917 2.94702,-3.308769 6.39598,-3.109112 2.03726,0.117936 2.86093,0.447375 3.00403,1.201498 0.16396,0.864071 -0.20399,0.985205 -2.18533,0.719451 -1.86039,-0.249531 -2.63234,-0.04349 -3.5226,0.940248 -1.50622,1.664357 -0.51491,3.624887 2.46173,4.86861 4.62166,1.931052 5.83931,5.011188 3.19591,8.084315 -1.58229,1.83953 -5.87819,2.630533 -8.41687,1.549798 z m 18.83609,0.214998 c -3.37652,-0.750176 -6.22296,-6.252294 -5.43364,-10.503136 0.91063,-4.90415 3.90439,-7.225794 9.31766,-7.225794 3.72791,0 5.76916,1.095 7.17377,3.848264 3.22526,6.322025 -0.17201,13.415298 -6.67205,13.930832 -1.68607,0.133726 -3.65965,0.111151 -4.38574,-0.05016 z m 6.29216,-2.492168 c 2.60304,-0.99888 3.66417,-6.831032 1.87306,-10.29465 -2.42734,-4.693962 -9.24357,-3.32658 -10.53082,2.112554 -0.57277,2.420171 0.63753,6.459345 2.28025,7.609951 1.40285,0.982589 4.56795,1.266539 6.37751,0.572145 z m 24.64966,2.47482 c -1.73574,-0.464347 -2.41954,-2.834285 -2.58567,-8.961582 l -0.16099,-5.9375 -3.75,0 -3.75,0 -0.3125,7.1875 c -0.29863,6.868504 -0.37491,7.196364 -1.71875,7.387219 C 217.51729,48.209483 217.5,48.122835 217.5,40.9655 c 0,-7.154451 -0.0198,-7.253979 -1.5625,-7.8405 -0.85938,-0.326734 -1.5625,-0.889234 -1.5625,-1.25 0,-0.360766 0.70312,-0.923266 1.5625,-1.25 1.19903,-0.455871 1.5625,-1.041044 1.5625,-2.515568 0,-3.197144 1.58463,-5.472259 4.3987,-6.315374 1.80299,-0.540189 2.70792,-0.562432 3.1919,-0.07846 0.87597,0.875975 0.14677,2.034398 -1.28062,2.034398 -1.82401,0 -3.29594,2.142619 -3.07269,4.472788 l 0.20021,2.089712 3.75,0 3.75,0 0.19585,-2.03125 c 0.10772,-1.117188 0.45928,-2.073438 0.78125,-2.125 1.83447,-0.293785 2.17595,-0.02577 2.4604,1.931101 0.26277,1.807771 0.64246,2.235021 2.38621,2.685122 2.46859,0.637199 2.33368,1.907761 -0.25027,2.35715 l -1.82344,0.317122 -0.18149,5.525933 c -0.18971,5.776553 0.30701,7.277322 2.40863,7.277322 1.49715,0 2.22604,1.243735 1.13418,1.935307 -0.88744,0.562096 -2.60632,0.621671 -4.36466,0.151275 z M 89.188275,47.729939 C 88.385956,46.927626 88.676437,24.698559 89.5,23.875 c 0.982406,-0.982407 3.927606,-0.962901 4.718331,0.03125 0.341763,0.429687 2.104819,4.516625 3.917894,9.082082 1.813081,4.565459 3.563635,8.465925 3.890115,8.667704 1.02697,0.634702 2.13747,-1.157936 4.51044,-7.281036 3.68509,-9.508828 4.2699,-10.601961 5.90371,-11.035366 3.30142,-0.87578 3.49701,-0.167355 3.49701,12.665982 0,11.725611 -0.01,11.808243 -1.38931,12.004383 -1.37558,0.195549 -1.39101,0.106071 -1.5625,-9.0625 -0.22871,-12.228334 -0.8023,-12.232489 -5.69407,-0.04125 -2.921,7.279693 -3.94541,9.21875 -4.87033,9.21875 -0.64421,0 -1.17288,-0.07031 -1.17482,-0.15625 -0.002,-0.08594 -1.665583,-4.234375 -3.697001,-9.21875 -4.988,-12.238774 -5.588157,-12.260107 -5.813769,-0.206658 -0.145381,7.767224 -0.328669,9.283294 -1.141175,9.439169 -0.532388,0.102135 -1.1652,-0.01152 -1.40625,-0.252572 z M 121.875,39.767855 c 0,-8.544094 0.38662,-10.01245 2.23287,-8.480203 0.74916,0.621749 0.89452,2.289094 0.75387,8.647557 -0.16883,7.632555 -0.21793,7.883496 -1.58049,8.07701 -1.3988,0.198662 -1.40625,0.154973 -1.40625,-8.244364 z m 25.625,-0.02827 c 0,-8.829346 0.38596,-9.977305 2.68158,-7.975737 1.01614,0.885979 1.28373,0.878476 2.90893,-0.08156 2.39911,-1.417191 3.78449,-1.346647 3.78449,0.192706 0,0.846594 -0.41667,1.25 -1.29109,1.25 -3.77859,0 -5.58391,3.32762 -5.58391,10.292426 0,4.290907 -0.11064,4.707574 -1.25,4.707574 -1.18789,0 -1.25,-0.416667 -1.25,-8.385417 z M 37.306931,33.973598 C 37.069369,33.736036 36.875,29.379687 36.875,24.292823 c 0,-8.504401 0.09731,-9.30092 1.208912,-9.895833 1.91825,-1.026617 17.852528,-0.840386 18.731678,0.218926 0.488792,0.588957 0.663196,3.837372 0.545278,10.15625 L 57.1875,34.0625 47.463181,34.234014 c -5.348376,0.09433 -9.918688,-0.02286 -10.15625,-0.260416 z M 60.625,24.391279 l 0,-10.016279 9.703369,0 9.703375,0 -0.172125,9.84375 -0.172119,9.84375 -9.53125,0.172529 -9.53125,0.172529 0,-10.016279 z m 61.30496,0.987437 c -0.55949,-0.674135 -0.48589,-1.108499 0.32525,-1.919643 0.92997,-0.929968 1.1538,-0.942919 1.98204,-0.114679 1.06322,1.063219 0.61708,2.905606 -0.70361,2.905606 -0.48432,0 -1.20598,-0.392078 -1.60368,-0.871284 z"
       id="path3618"
       inkscape:connector-curvature="0" />
    <path
       style="fill:#737373"
       d="m 133.82593,47.681306 c -4.15765,-2.048205 -5.69378,-7.685782 -3.40721,-12.504388 1.52957,-3.223314 4.15623,-4.614275 8.32521,-4.408659 2.7367,0.134977 3.47506,0.398435 3.64695,1.301293 0.18595,0.976695 -0.0836,1.075928 -1.96441,0.723092 -2.74235,-0.514466 -6.22526,1.03242 -7.21487,3.204384 -0.39138,0.858983 -0.7116,2.695189 -0.7116,4.080457 0,1.964942 0.41204,2.930705 1.87418,4.392848 1.62756,1.627556 2.25913,1.850506 4.79954,1.694284 3.34247,-0.205545 4.39813,0.958805 1.77389,1.956537 -2.36619,0.899626 -4.69459,0.75582 -7.12168,-0.439848 z m 29.29907,-0.02603 c -5.13039,-2.562917 -5.8789,-11.360097 -1.31284,-15.429592 1.61633,-1.440548 7.60956,-2.053891 10.2188,-1.045787 4.00912,1.548956 5.6684,9.247707 2.95302,13.70146 -2.21986,3.640994 -7.60281,4.900114 -11.85898,2.773919 z m 8.46591,-2.93937 c 2.18327,-2.183266 2.2036,-7.617853 0.0379,-10.135602 -1.91639,-2.227944 -5.91251,-2.449402 -7.92284,-0.439071 -1.41449,1.414493 -2.22068,5.47103 -1.58815,7.991215 1.02837,4.097363 6.47404,5.582485 9.47307,2.583458 z m 9.81534,3.423023 c -2.61524,-1.11333 -1.66434,-2.546341 1.27094,-1.915319 1.10567,0.237693 2.79925,0.167326 3.76352,-0.156374 2.8445,-0.954886 2.0869,-3.302156 -1.75321,-5.431963 -3.65292,-2.025988 -5.04288,-4.252761 -4.2141,-6.751152 0.74204,-2.236917 2.94702,-3.308769 6.39598,-3.109112 2.03726,0.117936 2.86093,0.447375 3.00403,1.201498 0.16396,0.864071 -0.20399,0.985205 -2.18533,0.719451 -1.86039,-0.249531 -2.63234,-0.04349 -3.5226,0.940248 -1.50622,1.664357 -0.51491,3.624887 2.46173,4.86861 4.62166,1.931052 5.83931,5.011188 3.19591,8.084315 -1.58229,1.83953 -5.87819,2.630533 -8.41687,1.549798 z m 18.83609,0.214998 c -3.37652,-0.750176 -6.22296,-6.252294 -5.43364,-10.503136 0.91063,-4.90415 3.90439,-7.225794 9.31766,-7.225794 3.72791,0 5.76916,1.095 7.17377,3.848264 3.22526,6.322025 -0.17201,13.415298 -6.67205,13.930832 -1.68607,0.133726 -3.65965,0.111151 -4.38574,-0.05016 z m 6.29216,-2.492168 c 2.60304,-0.99888 3.66417,-6.831032 1.87306,-10.29465 -2.42734,-4.693962 -9.24357,-3.32658 -10.53082,2.112554 -0.57277,2.420171 0.63753,6.459345 2.28025,7.609951 1.40285,0.982589 4.56795,1.266539 6.37751,0.572145 z m 24.64966,2.47482 c -1.73574,-0.464347 -2.41954,-2.834285 -2.58567,-8.961582 l -0.16099,-5.9375 -3.75,0 -3.75,0 -0.3125,7.1875 c -0.29863,6.868504 -0.37491,7.196364 -1.71875,7.387219 C 217.51729,48.209483 217.5,48.122835 217.5,40.9655 c 0,-7.154451 -0.0198,-7.253979 -1.5625,-7.8405 -0.85938,-0.326734 -1.5625,-0.889234 -1.5625,-1.25 0,-0.360766 0.70312,-0.923266 1.5625,-1.25 1.19903,-0.455871 1.5625,-1.041044 1.5625,-2.515568 0,-3.197144 1.58463,-5.472259 4.3987,-6.315374 1.80299,-0.540189 2.70792,-0.562432 3.1919,-0.07846 0.87597,0.875975 0.14677,2.034398 -1.28062,2.034398 -1.82401,0 -3.29594,2.142619 -3.07269,4.472788 l 0.20021,2.089712 3.75,0 3.75,0 0.19585,-2.03125 c 0.10772,-1.117188 0.45928,-2.073438 0.78125,-2.125 1.83447,-0.293785 2.17595,-0.02577 2.4604,1.931101 0.26277,1.807771 0.64246,2.235021 2.38621,2.685122 2.46859,0.637199 2.33368,1.907761 -0.25027,2.35715 l -1.82344,0.317122 -0.18149,5.525933 c -0.18971,5.776553 0.30701,7.277322 2.40863,7.277322 1.49715,0 2.22604,1.243735 1.13418,1.935307 -0.88744,0.562096 -2.60632,0.621671 -4.36466,0.151275 z M 89.188275,47.729939 C 88.385956,46.927626 88.676437,24.698559 89.5,23.875 c 0.982406,-0.982407 3.927606,-0.962901 4.718331,0.03125 0.341763,0.429687 2.104819,4.516625 3.917894,9.082082 1.813081,4.565459 3.563635,8.465925 3.890115,8.667704 1.02697,0.634702 2.13747,-1.157936 4.51044,-7.281036 3.68509,-9.508828 4.2699,-10.601961 5.90371,-11.035366 3.30142,-0.87578 3.49701,-0.167355 3.49701,12.665982 0,11.725611 -0.01,11.808243 -1.38931,12.004383 -1.37558,0.195549 -1.39101,0.106071 -1.5625,-9.0625 -0.22871,-12.228334 -0.8023,-12.232489 -5.69407,-0.04125 -2.921,7.279693 -3.94541,9.21875 -4.87033,9.21875 -0.64421,0 -1.17288,-0.07031 -1.17482,-0.15625 -0.002,-0.08594 -1.665583,-4.234375 -3.697001,-9.21875 -4.988,-12.238774 -5.588157,-12.260107 -5.813769,-0.206658 -0.145381,7.767224 -0.328669,9.283294 -1.141175,9.439169 -0.532388,0.102135 -1.1652,-0.01152 -1.40625,-0.252572 z M 121.875,39.767855 c 0,-8.544094 0.38662,-10.01245 2.23287,-8.480203 0.74916,0.621749 0.89452,2.289094 0.75387,8.647557 -0.16883,7.632555 -0.21793,7.883496 -1.58049,8.07701 -1.3988,0.198662 -1.40625,0.154973 -1.40625,-8.244364 z m 25.625,-0.02827 c 0,-8.829346 0.38596,-9.977305 2.68158,-7.975737 1.01614,0.885979 1.28373,0.878476 2.90893,-0.08156 2.39911,-1.417191 3.78449,-1.346647 3.78449,0.192706 0,0.846594 -0.41667,1.25 -1.29109,1.25 -3.77859,0 -5.58391,3.32762 -5.58391,10.292426 0,4.290907 -0.11064,4.707574 -1.25,4.707574 -1.18789,0 -1.25,-0.416667 -1.25,-8.385417 z m -86.875,-15.348307 0,-10.016279 9.703369,0 9.703375,0 -0.172125,9.84375 -0.172119,9.84375 -9.53125,0.172529 -9.53125,0.172529 0,-10.016279 z m 61.30496,0.987437 c -0.55949,-0.674135 -0.48589,-1.108499 0.32525,-1.919643 0.92997,-0.929968 1.1538,-0.942919 1.98204,-0.114679 1.06322,1.063219 0.61708,2.905606 -0.70361,2.905606 -0.48432,0 -1.20598,-0.392078 -1.60368,-0.871284 z"
       id="path3616"
       inkscape:connector-curvature="0" />
    <path
       style="fill:#7ab300"
       d="m 60.625,24.391279 0,-10.016279 9.703369,0 9.703375,0 -0.172125,9.84375 -0.172119,9.84375 -9.53125,0.172529 -9.53125,0.172529 0,-10.016279 z"
       id="path3614"
       inkscape:connector-curvature="0" />
  </g>
</svg>
