<?xml version="1.0" encoding="UTF-8" standalone="no"?>
<!-- Created with Inkscape (http://www.inkscape.org/) -->

<svg
   xmlns:dc="http://purl.org/dc/elements/1.1/"
   xmlns:cc="http://creativecommons.org/ns#"
   xmlns:rdf="http://www.w3.org/1999/02/22-rdf-syntax-ns#"
   xmlns:svg="http://www.w3.org/2000/svg"
   xmlns="http://www.w3.org/2000/svg"
   xmlns:xlink="http://www.w3.org/1999/xlink"
   xmlns:sodipodi="http://sodipodi.sourceforge.net/DTD/sodipodi-0.dtd"
   xmlns:inkscape="http://www.inkscape.org/namespaces/inkscape"
   id="svg3700"
   version="1.1"
   inkscape:version="0.91 r13725"
   width="291.875"
   height="76.875"
   viewBox="0 0 291.875 76.875"
   sodipodi:docname="Telerik.svg">
  <metadata
     id="metadata3706">
    <rdf:RDF>
      <cc:Work
         rdf:about="">
        <dc:format>image/svg+xml</dc:format>
        <dc:type
           rdf:resource="http://purl.org/dc/dcmitype/StillImage" />
        <dc:title></dc:title>
      </cc:Work>
    </rdf:RDF>
  </metadata>
  <defs
     id="defs3704" />
  <sodipodi:namedview
     pagecolor="#ffffff"
     bordercolor="#666666"
     borderopacity="1"
     objecttolerance="10"
     gridtolerance="10"
     guidetolerance="10"
     inkscape:pageopacity="0"
     inkscape:pageshadow="2"
     inkscape:window-width="640"
     inkscape:window-height="480"
     id="namedview3702"
     showgrid="false"
     inkscape:zoom="0.89764454"
     inkscape:cx="145.9375"
     inkscape:cy="38.4375"
     inkscape:window-x="783"
     inkscape:window-y="96"
     inkscape:window-maximized="0"
     inkscape:current-layer="svg3700" />
  <image
     width="291.875"
     height="76.875"
     preserveAspectRatio="none"
     xlink:href="file:///media/havoc/USB%20DISK/pics/_Companies/Telerik.png"
     id="image3708"
     x="0"
     y="0"
     sodipodi:absref="/media/havoc/USB DISK/pics/_Companies/Telerik.png" />
  <g
     id="g3710">
    <path
       style="fill:#fcfcfc"
       d="M 0,38.4375 0,0 145.9375,0 291.875,0 l 0,38.4375 0,38.4375 -145.9375,0 L 0,76.875 0,38.4375 Z"
       id="path3726"
       inkscape:connector-curvature="0" />
    <path
       style="fill:#aed992"
       d="m 118.4375,51.949543 c -4.43627,-2.037142 -6.5625,-5.811064 -6.5625,-11.648006 0,-7.187784 4.73894,-12.320768 11.37495,-12.320768 6.02424,0 10.22532,4.922689 9.76029,11.436788 l -0.19774,2.769943 -6.71875,0.177395 c -5.2454,0.138494 -6.71875,0.368551 -6.71875,1.049107 0,2.683251 4.73185,4.112097 8.45968,2.554512 1.32645,-0.55423 2.77817,-0.867078 3.22603,-0.695218 0.95601,0.366858 1.08208,3.683508 0.20248,5.327053 -1.38292,2.58402 -8.50507,3.333231 -12.82569,1.349194 z m 7.0699,-16.161115 C 125.13819,33.871299 120,34.021487 120,35.949407 c 0,0.682531 0.7506,0.925593 2.85832,0.925593 2.3786,0 2.82322,-0.182365 2.64908,-1.086572 z m 25.22277,16.030286 c -6.79167,-3.449075 -8.56987,-13.855247 -3.41451,-19.98204 2.24387,-2.666693 4.62083,-3.712028 8.43455,-3.709338 6.22298,0.0044 10.12485,4.332709 9.74993,10.815548 l -0.18764,3.244616 -6.71875,0.177395 c -7.03217,0.18567 -7.99567,0.665629 -5.625,2.802043 1.85693,1.673443 4.35579,1.944893 7.35605,0.799083 1.52382,-0.581952 3.0585,-0.880155 3.41039,-0.662673 0.3519,0.217483 0.63981,1.497341 0.63981,2.844129 0,3.226042 -1.93792,4.54047 -7.1238,4.831846 -2.98888,0.167935 -4.39924,-0.08308 -6.52103,-1.160609 z m 7.59774,-15.354958 c 0.74908,-0.74908 -0.95341,-2.088756 -2.65444,-2.088756 -1.62166,0 -3.17347,0.977991 -3.17347,2 0,0.598304 5.23858,0.678085 5.82791,0.08876 z M 100.41667,52.083333 C 100.1875,51.854167 100,46.229167 100,39.583333 L 100,27.5 l -4.21875,-0.0096 c -5.388206,-0.01223 -5.911587,-0.363487 -5.665544,-3.802372 L 90.3125,20.9375 l 13.4375,0 13.4375,0 0.19658,2.387368 C 117.67441,26.850866 116.80598,27.5 111.79847,27.5 l -4.29847,0 0,11.511383 c 0,6.33126 -0.17071,11.95626 -0.37937,12.5 C 106.84874,52.219914 105.90438,52.5 103.7873,52.5 c -1.62468,0 -3.14147,-0.1875 -3.37063,-0.416667 z m 35.48956,-0.376941 c -0.16749,-0.436484 -0.22898,-7.538046 -0.13663,-15.78125 l 0.1679,-14.987642 2.38737,-0.196579 c 4.17988,-0.344176 4.17513,-0.361859 4.17513,15.53449 0,7.836045 -0.17071,14.692232 -0.37937,15.235972 -0.47497,1.237755 -5.75073,1.40331 -6.2144,0.19501 z m 32.50956,0.02491 c -0.1768,-0.460742 -0.24425,-5.749706 -0.14988,-11.753255 L 168.4375,29.0625 171.875,28.915789 c 1.89062,-0.08069 4.71419,-0.321527 6.27458,-0.535192 3.48059,-0.476596 4.51746,0.483147 4.2345,3.919536 -0.19062,2.315008 -0.27505,2.393093 -2.78551,2.576264 -4.08126,0.297782 -4.52978,1.229812 -4.73386,9.837154 l -0.17721,7.473949 -2.97513,0.190755 c -2.05246,0.131597 -3.07481,-0.06904 -3.29658,-0.646958 z m 16.6062,-0.440209 C 184.65777,50.610539 184.375,45.948856 184.375,40.625 c 0,-5.323856 0.28277,-9.985539 0.64699,-10.666088 0.7474,-1.396524 4.85642,-1.705499 6.10301,-0.458912 0.79103,0.791034 1.11566,20.069884 0.37063,22.011383 -0.58668,1.528877 -5.62935,1.357278 -6.47364,-0.220295 z m 9.64749,0.449809 c -0.17479,-0.455462 -0.24223,-7.572552 -0.14988,-15.815755 l 0.1679,-14.987644 3.125,0 3.125,0 0.17672,7.03125 c 0.0972,3.867187 0.38902,7.03125 0.64849,7.03125 0.25948,0 1.85688,-1.40625 3.54979,-3.125 2.98984,-3.035482 3.18163,-3.125 6.69526,-3.125 2.52426,0 3.61724,0.241974 3.61724,0.800814 0,0.440449 -1.70791,2.479511 -3.79535,4.53125 -2.08744,2.05174 -4.05829,4.208052 -4.37966,4.791805 -0.46046,0.836401 0.34087,2.161148 3.7806,6.25 5.46209,6.492875 5.58181,7.376131 0.99983,7.376131 -3.36986,0 -3.41833,-0.02731 -6.65623,-3.75 -1.79391,-2.0625 -3.48668,-3.75 -3.76173,-3.75 -0.27504,0 -0.58443,1.617188 -0.68752,3.59375 l -0.18744,3.59375 -2.97512,0.190755 c -2.0368,0.130593 -3.07535,-0.07042 -3.2929,-0.637358 z M 56.419354,45.46875 c -3.588439,-3.523438 -6.81077,-6.933629 -7.160737,-7.578203 -0.538413,-0.991658 0.09465,-1.907218 4.11504,-5.951328 2.613239,-2.628655 4.751343,-5.067635 4.751343,-5.419954 0,-0.352319 -1.113801,-1.728178 -2.475112,-3.057463 l -2.475113,-2.416883 -2.823423,2.60254 C 48.798469,25.078857 47.152389,26.25 46.693396,26.25 45.749087,26.25 42.5,23.064473 42.5,22.138638 42.5,21.337798 52.035018,11.875 52.841969,11.875 c 0.344748,0 2.722112,2.109375 5.283031,4.6875 2.560919,2.578125 4.951544,4.6875 5.3125,4.6875 0.360956,0 2.751581,-2.109375 5.3125,-4.6875 2.560919,-2.578125 4.9511,-4.6875 5.311519,-4.6875 0.360418,0 2.879375,2.237191 5.597687,4.971536 4.664125,4.691646 4.901332,5.061625 4.213288,6.571705 -0.400994,0.880093 -1.445688,1.926675 -2.321532,2.325737 -1.459018,0.664773 -1.827124,0.495251 -4.393237,-2.023199 l -2.800788,-2.748768 -2.911875,2.911872 -2.911868,2.911873 4.7959,4.928247 c 2.63775,2.710536 4.795906,5.193892 4.795906,5.518568 0,0.744291 -13.887381,14.632429 -14.631637,14.632429 -0.302263,0 -3.485571,-2.882813 -7.074009,-6.40625 z m 10.69849,-6.124946 c 1.874631,-2.227878 1.616062,-3.194423 -1.572275,-5.877235 l -1.982613,-1.668258 -2.72021,2.669683 -2.720208,2.669683 2.600698,2.649918 c 2.909345,2.964406 3.565089,2.918896 6.394608,-0.443791 z M 186.5625,27.378159 c -1.68815,-0.957288 -2.1666,-1.767372 -2.17793,-3.687541 -0.0117,-1.981897 1.75085,-3.693941 3.78964,-3.681047 1.84846,0.01169 2.67991,0.531042 3.57513,2.233133 0.98372,1.870344 0.24457,3.913705 -1.79774,4.969826 -2.07084,1.070869 -1.8148,1.058356 -3.3891,0.165629 z"
       id="path3724"
       inkscape:connector-curvature="0" />
    <path
       style="fill:#a2a2a2"
       d="m 119.49541,52.280982 c -2.87476,-1.041549 -6.23578,-4.50878 -6.98488,-7.205625 -1.88048,-6.76989 0.7955,-13.909072 6.03396,-16.097841 6.22167,-2.59958 12.57143,0.529896 13.99598,6.897916 0.39212,1.752887 0.61375,3.890193 0.49249,4.749568 -0.21726,1.539799 -0.31569,1.565111 -6.77522,1.742254 -3.60511,0.09886 -6.7804,0.405404 -7.05619,0.681199 -0.2758,0.275795 0.005,1.126686 0.62364,1.890868 1.48818,1.837823 5.43843,2.364591 8.41274,1.121843 2.51379,-1.050328 3.63707,-0.513786 3.63707,1.73727 0,4.196036 -6.58715,6.58119 -12.37959,4.482548 z m 6.42512,-16.003525 c 0.57018,-0.922569 -2.44994,-2.616566 -3.80122,-2.132114 -1.76515,0.632836 -2.77364,1.551559 -2.38804,2.175474 0.46129,0.746391 5.72395,0.709522 6.18926,-0.04336 z m 25.61611,15.672753 c -7.41033,-3.36605 -9.4135,-12.942498 -4.18044,-19.985276 2.92324,-3.934163 9.34162,-5.110821 13.27516,-2.433684 3.53613,2.406676 4.54865,4.316592 4.61848,8.711901 l 0.0627,3.944349 -6.875,0.3125 c -3.78125,0.171875 -6.80469,0.523437 -6.71875,0.78125 0.0859,0.257812 0.15625,0.742778 0.15625,1.0777 0,0.889598 3.42707,2.51605 5.30154,2.51605 0.88749,0 2.5594,-0.395176 3.71537,-0.87817 2.48068,-1.036495 3.48309,-0.400896 3.48309,2.208527 0,2.154152 -1.28417,3.446729 -4.23984,4.267602 -3.34272,0.928369 -5.72239,0.783697 -8.59852,-0.522749 z M 158.75,36.264408 c 0,-0.335826 -0.66516,-1.046423 -1.47814,-1.579105 -1.73392,-1.13611 -4.77186,-0.348765 -4.77186,1.236728 0,0.726896 0.74134,0.952969 3.125,0.952969 1.71875,0 3.125,-0.274766 3.125,-0.610592 z M 100.7414,51.702754 C 100.27721,51.143443 99.968906,46.715861 99.857944,39.015562 L 99.6875,27.1875 95,26.875 90.3125,26.5625 90.113606,24.490422 C 89.751956,20.722728 90.095494,20.625 103.70153,20.625 c 12.97153,0 13.79847,0.172981 13.79847,2.886383 0,3.016511 -0.51497,3.363617 -4.99034,3.363617 -2.75072,0 -4.47214,0.289831 -4.91894,0.828188 -0.43198,0.520501 -0.75066,5.222541 -0.85778,12.65625 l -0.17044,11.828062 -2.55404,0.187192 c -1.60457,0.117603 -2.81911,-0.132193 -3.26706,-0.671938 z m 35.30027,0.380579 C 135.8125,51.854167 135.625,44.853008 135.625,36.525201 c 0,-16.58174 -0.16199,-15.900201 3.77913,-15.900201 1.14181,0 2.03889,0.442852 2.44888,1.208912 0.38879,0.726459 0.64699,6.604348 0.64699,14.728588 0,8.12424 -0.2582,14.002129 -0.64699,14.728588 -0.46532,0.869461 -1.31354,1.208912 -3.02084,1.208912 -1.30561,0 -2.56134,-0.1875 -2.7905,-0.416667 z M 168.875,51.75 c -0.52338,-0.523373 -0.75,-3.899661 -0.75,-11.173472 0,-11.869737 0.009,-11.892334 4.78053,-11.84382 1.66758,0.01696 4.28834,-0.04253 5.82389,-0.13219 2.51146,-0.146642 2.8501,8.13e-4 3.37104,1.467962 0.31851,0.897039 0.39272,2.373601 0.16492,3.28125 C 181.89539,34.823846 181.55459,35 179.07258,35 175.3725,35 175,35.842301 175,44.208912 c 0,4.448624 -0.2587,7.049787 -0.75,7.541088 -0.96881,0.968803 -4.40619,0.968803 -5.375,0 z m 16.41644,-0.01699 c -0.17716,-0.461683 -0.2449,-5.751417 -0.15053,-11.754965 l 0.17159,-10.915541 2.8125,0 2.8125,0 0,11.5625 0,11.5625 -2.66197,0.192466 c -1.79559,0.129825 -2.76681,-0.08074 -2.98409,-0.646958 z M 195.125,51.75 c -1.06462,-1.064617 -1.06462,-29.310383 0,-30.375 0.96881,-0.968803 4.40619,-0.968803 5.375,0 0.49202,0.492027 0.75,3.104475 0.75,7.595137 l 0,6.845139 3.7036,-3.532639 c 3.49285,-3.331613 3.88197,-3.532637 6.83812,-3.532637 1.72398,0 3.31319,0.289102 3.53157,0.64245 0.21837,0.353347 -1.62818,2.731086 -4.10348,5.283863 -2.53535,2.614716 -4.35389,4.995055 -4.16472,5.4513 0.1847,0.445438 2.19838,3.030193 4.47486,5.7439 2.27647,2.713707 4.03672,5.244957 3.91167,5.625 -0.12506,0.380043 -1.63931,0.774523 -3.365,0.876622 l -3.13763,0.185635 -3.37575,-4.055026 c -1.85665,-2.230265 -3.58668,-4.071613 -3.84449,-4.091885 -0.25781,-0.02027 -0.46875,1.453766 -0.46875,3.275641 0,1.821875 -0.3375,3.65 -0.75,4.0625 -0.96881,0.968803 -4.40619,0.968803 -5.375,0 z M 56.395083,44.208078 C 52.877788,40.678772 50,37.50767 50,37.161186 c 0,-0.346484 2.109375,-2.725267 4.6875,-5.286186 2.578125,-2.560919 4.6875,-4.880476 4.6875,-5.154573 0,-0.942288 -5.159926,-6.095427 -6.103456,-6.095427 -0.51934,0 -2.194249,1.152204 -3.722019,2.560452 l -2.777763,2.560454 -1.510881,-1.4194 C 44.429896,23.545837 43.75,22.597028 43.75,22.218041 c 0,-0.820117 8.218579,-9.093041 9.033309,-9.093041 0.310442,0 2.750044,2.126911 5.421338,4.72647 5.635672,5.484329 5.113484,5.513324 11.152297,-0.619239 2.224444,-2.258977 4.341362,-4.107231 4.704262,-4.107231 1.078856,0 9.063794,8.379352 9.063794,9.511495 0,0.573444 -0.623381,1.479258 -1.385288,2.012919 -1.315768,0.921597 -1.513,0.844958 -3.929906,-1.52706 C 76.410263,21.748809 74.8422,20.625 74.325225,20.625 c -0.961663,0 -6.200225,4.953806 -6.200225,5.863196 0,0.27686 2.118487,2.78373 4.70775,5.570822 l 4.707756,5.067441 -6.728344,6.74927 C 67.111575,47.587828 63.792744,50.625 63.436994,50.625 c -0.355757,0 -3.524615,-2.887615 -7.041911,-6.416922 z M 66.744869,40.445092 C 68.191444,38.971144 69.375,37.482827 69.375,37.137722 69.375,36.327313 64.211838,31.25 63.387725,31.25 62.605906,31.25 57.5,36.399071 57.5,37.1875 c 0,0.817414 5.120087,5.9375 5.9375,5.9375 0.372481,0 1.8608,-1.205958 3.307369,-2.679908 z M 185.40937,26.357037 C 183.16703,23.879279 184.89047,20 188.23359,20 c 3.20082,0 4.86994,4.319462 2.49845,6.465632 -1.50948,1.36606 -4.03475,1.314539 -5.32267,-0.108595 z"
       id="path3722"
       inkscape:connector-curvature="0" />
    <path
       style="fill:#8dca65"
       d="m 119.80237,51.594492 c -3.11444,-1.11075 -4.72,-2.593166 -6.12691,-5.656992 -2.55928,-5.573319 -0.38412,-13.471549 4.37928,-15.901657 4.69754,-2.396507 10.43031,-1.108648 12.71857,2.85721 0.62216,1.078286 1.19245,3.461491 1.27126,5.3125 l 0.14293,3.356947 -6.86824,0.3125 c -7.82573,0.356066 -8.75743,1.073565 -5.23873,4.034356 1.71435,1.442522 2.44363,1.653709 4.87398,1.411398 1.5719,-0.15672 3.45207,-0.484427 4.17817,-0.728236 0.98934,-0.332201 1.39669,-0.150725 1.62547,0.724155 0.59512,2.275723 -0.53706,3.729261 -3.48244,4.470917 -3.54073,0.891566 -4.50165,0.866737 -7.47333,-0.193097 z m 6.86521,-15.080455 c 0.46445,-1.210328 -0.82134,-2.551176 -2.94463,-3.070737 -1.77021,-0.433163 -4.97295,1.604919 -4.97295,3.164563 0,1.351601 7.39656,1.263949 7.91758,-0.09383 z m 25.61691,15.110055 c -3.43741,-1.276745 -5.26923,-3.256756 -6.43529,-6.955937 -3.16951,-10.054846 5.50552,-19.142233 14.1508,-14.823434 2.8345,1.415993 5.11174,5.731008 4.86466,9.217779 l -0.17716,2.5 -6.82486,0.3125 c -7.69655,0.352414 -8.38445,0.824339 -5.4618,3.746995 1.46598,1.465978 2.43059,1.878005 4.39667,1.878005 1.38527,0 3.24266,-0.329871 4.12753,-0.733046 1.16979,-0.532987 1.79644,-0.545476 2.29615,-0.04576 0.96817,0.968167 0.13196,3.737726 -1.37147,4.542332 -2.12228,1.135816 -6.98454,1.319101 -9.56523,0.360567 z M 159.375,36.28544 c 0,-1.355597 -2.20104,-3.16044 -3.85421,-3.16044 -1.52223,0 -4.56835,2.7629 -4.02156,3.647632 0.26025,0.421091 2.01304,0.727368 4.16266,0.727368 3.26033,0 3.71311,-0.148105 3.71311,-1.21456 z m -58.00779,14.793287 c -0.4652,-0.560531 -0.77319,-4.979788 -0.88427,-12.688165 L 100.3125,26.5625 95.625,26.25 C 91.315175,25.962678 90.921044,25.821426 90.733275,24.496849 90.302588,21.458742 91.139444,21.25 103.75,21.25 c 12.61056,0 13.44741,0.208742 13.01673,3.246849 -0.18864,1.330699 -0.54589,1.454582 -4.68076,1.623177 -2.67394,0.109028 -4.74452,0.505438 -5.14206,0.984439 -0.40462,0.487542 -0.73234,5.438811 -0.83597,12.629973 l -0.17044,11.828062 -1.92823,0.188166 c -1.08584,0.10596 -2.24009,-0.187594 -2.64206,-0.671939 z m 35.32908,0.409227 C 136.45083,51.242496 136.25,44.484525 136.25,36.470241 l 0,-14.571426 1.5611,-0.391812 c 3.49512,-0.877219 3.47627,-0.964152 3.294,15.196486 l -0.1676,14.859011 -1.89746,0.185871 c -1.04361,0.102229 -2.0983,-0.01496 -2.34375,-0.260417 z m 32.33048,-0.418196 c -0.16995,-0.442884 -0.23144,-5.435072 -0.13664,-11.09375 l 0.17237,-10.288508 3.75,-0.135767 c 2.0625,-0.07467 4.73437,-0.215297 5.9375,-0.3125 2.16577,-0.174977 2.18944,-0.149765 2.38253,2.537694 0.19369,2.695844 0.18271,2.711722 -1.60351,2.319401 -1.31185,-0.288129 -2.25255,-0.03791 -3.47628,0.924686 -1.63607,1.286934 -1.67774,1.488066 -1.67774,8.098232 0,3.728185 -0.17071,7.223397 -0.37937,7.767137 -0.46545,1.212937 -4.51641,1.362437 -4.96886,0.183374 z m 16.89032,0.03992 c -0.17838,-0.464838 -0.24676,-5.47499 -0.15196,-11.133669 l 0.17237,-10.288507 2.1875,0 2.1875,0 0,10.9375 0,10.9375 -2.03555,0.196169 c -1.28359,0.123702 -2.15535,-0.116043 -2.35986,-0.648992 z m 9.47493,-0.190307 C 195.17641,50.357487 195,43.789518 195,36.323883 195,22.075169 195.15396,21.25 197.8125,21.25 c 2.4177,0 2.8125,1.158088 2.8125,8.25 0,5.079098 0.19867,6.75 0.8026,6.75 0.44143,0 2.33026,-1.546875 4.1974,-3.4375 3.06493,-3.103479 3.65498,-3.4375 6.0724,-3.4375 1.47268,0 2.6776,0.179142 2.6776,0.398093 0,0.218951 -1.82813,2.440702 -4.0625,4.937223 -2.23438,2.496521 -4.0625,4.82092 -4.0625,5.165332 0,0.344411 1.94719,2.965643 4.3271,5.824958 2.37991,2.859316 4.19144,5.418275 4.02562,5.686575 -0.16582,0.2683 -1.38862,0.487819 -2.71733,0.487819 -2.20407,0 -2.7567,-0.383522 -6.30411,-4.375 -2.13855,-2.40625 -4.11572,-4.375 -4.39372,-4.375 -0.278,0 -0.58861,1.898437 -0.69025,4.21875 l -0.18481,4.21875 -2.26423,0.189237 c -1.64032,0.137094 -2.37224,-0.09226 -2.65625,-0.832367 z M 56.395083,44.208078 C 52.877788,40.678772 50,37.50767 50,37.161186 c 0,-0.346484 2.109375,-2.725267 4.6875,-5.286186 2.578125,-2.560919 4.6875,-4.880476 4.6875,-5.154573 0,-0.942288 -5.159926,-6.095427 -6.103456,-6.095427 -0.51934,0 -2.194249,1.152204 -3.722019,2.560452 l -2.777763,2.560454 -1.510881,-1.4194 C 44.429896,23.545837 43.75,22.597028 43.75,22.218041 c 0,-0.820117 8.218579,-9.093041 9.033309,-9.093041 0.310442,0 2.750044,2.126911 5.421338,4.72647 5.635672,5.484329 5.113484,5.513324 11.152297,-0.619239 2.224444,-2.258977 4.341362,-4.107231 4.704262,-4.107231 1.078856,0 9.063794,8.379352 9.063794,9.511495 0,0.573444 -0.623381,1.479258 -1.385288,2.012919 -1.315768,0.921597 -1.513,0.844958 -3.929906,-1.52706 C 76.410263,21.748809 74.8422,20.625 74.325225,20.625 c -0.961663,0 -6.200225,4.953806 -6.200225,5.863196 0,0.27686 2.118487,2.78373 4.70775,5.570822 l 4.707756,5.067441 -6.728344,6.74927 C 67.111575,47.587828 63.792744,50.625 63.436994,50.625 c -0.355757,0 -3.524615,-2.887615 -7.041911,-6.416922 z M 66.744869,40.445092 C 68.191444,38.971144 69.375,37.482827 69.375,37.137722 69.375,36.327313 64.211838,31.25 63.387725,31.25 62.605906,31.25 57.5,36.399071 57.5,37.1875 c 0,0.817414 5.120087,5.9375 5.9375,5.9375 0.372481,0 1.8608,-1.205958 3.307369,-2.679908 z M 185.98214,25.892857 C 184.0867,23.997413 185.45852,20.625 188.125,20.625 c 2.79912,0 4.28217,4.336721 1.91609,5.60301 -1.69565,0.907481 -2.91718,0.806617 -4.05895,-0.335153 z"
       id="path3720"
       inkscape:connector-curvature="0" />
    <path
       style="fill:#79c14a"
       d="m 119.80237,51.594492 c -3.11444,-1.11075 -4.72,-2.593166 -6.12691,-5.656992 -2.55928,-5.573319 -0.38412,-13.471549 4.37928,-15.901657 4.69754,-2.396507 10.43031,-1.108648 12.71857,2.85721 0.62216,1.078286 1.19245,3.461491 1.27126,5.3125 l 0.14293,3.356947 -6.86824,0.3125 c -7.82573,0.356066 -8.75743,1.073565 -5.23873,4.034356 1.71435,1.442522 2.44363,1.653709 4.87398,1.411398 1.5719,-0.15672 3.45207,-0.484427 4.17817,-0.728236 0.98934,-0.332201 1.39669,-0.150725 1.62547,0.724155 0.59512,2.275723 -0.53706,3.729261 -3.48244,4.470917 -3.54073,0.891566 -4.50165,0.866737 -7.47333,-0.193097 z m 6.86521,-15.080455 c 0.46445,-1.210328 -0.82134,-2.551176 -2.94463,-3.070737 -1.77021,-0.433163 -4.97295,1.604919 -4.97295,3.164563 0,1.351601 7.39656,1.263949 7.91758,-0.09383 z m 25.61691,15.110055 c -3.43741,-1.276745 -5.26923,-3.256756 -6.43529,-6.955937 -3.16951,-10.054846 5.50552,-19.142233 14.1508,-14.823434 2.8345,1.415993 5.11174,5.731008 4.86466,9.217779 l -0.17716,2.5 -6.82486,0.3125 c -7.69655,0.352414 -8.38445,0.824339 -5.4618,3.746995 1.46598,1.465978 2.43059,1.878005 4.39667,1.878005 1.38527,0 3.24266,-0.329871 4.12753,-0.733046 1.16979,-0.532987 1.79644,-0.545476 2.29615,-0.04576 0.96817,0.968167 0.13196,3.737726 -1.37147,4.542332 -2.12228,1.135816 -6.98454,1.319101 -9.56523,0.360567 z M 159.375,36.28544 c 0,-1.355597 -2.20104,-3.16044 -3.85421,-3.16044 -1.52223,0 -4.56835,2.7629 -4.02156,3.647632 0.26025,0.421091 2.01304,0.727368 4.16266,0.727368 3.26033,0 3.71311,-0.148105 3.71311,-1.21456 z m -58.00779,14.793287 c -0.4652,-0.560531 -0.77319,-4.979788 -0.88427,-12.688165 L 100.3125,26.5625 95.625,26.25 C 91.315175,25.962678 90.921044,25.821426 90.733275,24.496849 90.302588,21.458742 91.139444,21.25 103.75,21.25 c 12.61056,0 13.44741,0.208742 13.01673,3.246849 -0.18864,1.330699 -0.54589,1.454582 -4.68076,1.623177 -2.67394,0.109028 -4.74452,0.505438 -5.14206,0.984439 -0.40462,0.487542 -0.73234,5.438811 -0.83597,12.629973 l -0.17044,11.828062 -1.92823,0.188166 c -1.08584,0.10596 -2.24009,-0.187594 -2.64206,-0.671939 z m 35.32908,0.409227 C 136.45083,51.242496 136.25,44.484525 136.25,36.470241 l 0,-14.571426 1.5611,-0.391812 c 3.49512,-0.877219 3.47627,-0.964152 3.294,15.196486 l -0.1676,14.859011 -1.89746,0.185871 c -1.04361,0.102229 -2.0983,-0.01496 -2.34375,-0.260417 z m 32.33048,-0.418196 c -0.16995,-0.442884 -0.23144,-5.435072 -0.13664,-11.09375 l 0.17237,-10.288508 3.75,-0.135767 c 2.0625,-0.07467 4.73437,-0.215297 5.9375,-0.3125 2.16577,-0.174977 2.18944,-0.149765 2.38253,2.537694 0.19369,2.695844 0.18271,2.711722 -1.60351,2.319401 -1.31185,-0.288129 -2.25255,-0.03791 -3.47628,0.924686 -1.63607,1.286934 -1.67774,1.488066 -1.67774,8.098232 0,3.728185 -0.17071,7.223397 -0.37937,7.767137 -0.46545,1.212937 -4.51641,1.362437 -4.96886,0.183374 z m 16.89032,0.03992 c -0.17838,-0.464838 -0.24676,-5.47499 -0.15196,-11.133669 l 0.17237,-10.288507 2.1875,0 2.1875,0 0,10.9375 0,10.9375 -2.03555,0.196169 c -1.28359,0.123702 -2.15535,-0.116043 -2.35986,-0.648992 z m 9.47493,-0.190307 C 195.17641,50.357487 195,43.789518 195,36.323883 195,22.075169 195.15396,21.25 197.8125,21.25 c 2.4177,0 2.8125,1.158088 2.8125,8.25 0,5.079098 0.19867,6.75 0.8026,6.75 0.44143,0 2.33026,-1.546875 4.1974,-3.4375 3.06493,-3.103479 3.65498,-3.4375 6.0724,-3.4375 1.47268,0 2.6776,0.179142 2.6776,0.398093 0,0.218951 -1.82813,2.440702 -4.0625,4.937223 -2.23438,2.496521 -4.0625,4.82092 -4.0625,5.165332 0,0.344411 1.94719,2.965643 4.3271,5.824958 2.37991,2.859316 4.19144,5.418275 4.02562,5.686575 -0.16582,0.2683 -1.38862,0.487819 -2.71733,0.487819 -2.20407,0 -2.7567,-0.383522 -6.30411,-4.375 -2.13855,-2.40625 -4.11572,-4.375 -4.39372,-4.375 -0.278,0 -0.58861,1.898437 -0.69025,4.21875 l -0.18481,4.21875 -2.26423,0.189237 c -1.64032,0.137094 -2.37224,-0.09226 -2.65625,-0.832367 z M 56.707024,43.895068 C 53.361911,40.537356 50.625,37.506879 50.625,37.160676 50.625,36.814473 52.734375,34.435919 55.3125,31.875 57.890625,29.314081 60,26.988759 60,26.707617 60,25.516188 54.123144,20 52.853816,20 c -0.750763,0 -2.42973,1.105609 -3.782025,2.490485 -2.283155,2.338164 -2.501155,2.427804 -3.564342,1.465632 C 44.884602,23.392449 44.375,22.615169 44.375,22.228828 44.375,21.400253 51.962646,13.75 52.784441,13.75 c 0.309819,0 2.748912,2.126911 5.420206,4.72647 5.635672,5.484329 5.113484,5.513324 11.152297,-0.619239 C 71.581388,15.598254 73.698887,13.75 74.0625,13.75 c 0.862294,0 8.4375,7.643616 8.4375,8.513699 0,0.367162 -0.5096,1.12875 -1.13245,1.692419 -1.063187,0.962171 -1.281187,0.872531 -3.564344,-1.465633 C 76.465669,21.120718 74.925631,20 74.380913,20 73.133719,20 67.5,25.659259 67.5,26.912111 c 0,0.51242 2.110494,3.028083 4.689987,5.590361 l 4.689994,4.658689 -6.397575,6.41942 C 66.963744,47.111261 63.793281,50 63.436944,50 63.0806,50 60.052137,47.252781 56.707024,43.895068 Z M 67.369869,41.070092 C 68.816444,39.596144 70,37.848977 70,37.1875 70,35.758159 65.1485,30.625 63.797587,30.625 c -1.048174,0 -6.922587,5.530694 -6.922587,6.517537 0,1.027299 5.808325,6.607463 6.877625,6.607463 0.542912,0 2.170675,-1.205958 3.617244,-2.679908 z M 185.98214,25.892857 C 184.0867,23.997413 185.45852,20.625 188.125,20.625 c 2.79912,0 4.28217,4.336721 1.91609,5.60301 -1.69565,0.907481 -2.91718,0.806617 -4.05895,-0.335153 z"
       id="path3718"
       inkscape:connector-curvature="0" />
    <path
       style="fill:#74bf43"
       d="m 119.80237,51.594492 c -3.11444,-1.11075 -4.72,-2.593166 -6.12691,-5.656992 -2.55928,-5.573319 -0.38412,-13.471549 4.37928,-15.901657 4.69754,-2.396507 10.43031,-1.108648 12.71857,2.85721 0.62216,1.078286 1.19245,3.461491 1.27126,5.3125 l 0.14293,3.356947 -6.86824,0.3125 c -7.82573,0.356066 -8.75743,1.073565 -5.23873,4.034356 1.71435,1.442522 2.44363,1.653709 4.87398,1.411398 1.5719,-0.15672 3.45207,-0.484427 4.17817,-0.728236 0.98934,-0.332201 1.39669,-0.150725 1.62547,0.724155 0.59512,2.275723 -0.53706,3.729261 -3.48244,4.470917 -3.54073,0.891566 -4.50165,0.866737 -7.47333,-0.193097 z m 6.86521,-15.080455 c 0.46445,-1.210328 -0.82134,-2.551176 -2.94463,-3.070737 -1.77021,-0.433163 -4.97295,1.604919 -4.97295,3.164563 0,1.351601 7.39656,1.263949 7.91758,-0.09383 z m 25.61691,15.110055 c -3.43741,-1.276745 -5.26923,-3.256756 -6.43529,-6.955937 -3.16951,-10.054846 5.50552,-19.142233 14.1508,-14.823434 2.8345,1.415993 5.11174,5.731008 4.86466,9.217779 l -0.17716,2.5 -6.82486,0.3125 c -7.69655,0.352414 -8.38445,0.824339 -5.4618,3.746995 1.46598,1.465978 2.43059,1.878005 4.39667,1.878005 1.38527,0 3.24266,-0.329871 4.12753,-0.733046 1.16979,-0.532987 1.79644,-0.545476 2.29615,-0.04576 0.96817,0.968167 0.13196,3.737726 -1.37147,4.542332 -2.12228,1.135816 -6.98454,1.319101 -9.56523,0.360567 z M 159.375,36.28544 c 0,-1.355597 -2.20104,-3.16044 -3.85421,-3.16044 -1.52223,0 -4.56835,2.7629 -4.02156,3.647632 0.26025,0.421091 2.01304,0.727368 4.16266,0.727368 3.26033,0 3.71311,-0.148105 3.71311,-1.21456 z m -58.00779,14.793287 c -0.4652,-0.560531 -0.77319,-4.979788 -0.88427,-12.688165 L 100.3125,26.5625 95.625,26.25 C 91.315175,25.962678 90.921044,25.821426 90.733275,24.496849 90.302588,21.458742 91.139444,21.25 103.75,21.25 c 12.61056,0 13.44741,0.208742 13.01673,3.246849 -0.18864,1.330699 -0.54589,1.454582 -4.68076,1.623177 -2.67394,0.109028 -4.74452,0.505438 -5.14206,0.984439 -0.40462,0.487542 -0.73234,5.438811 -0.83597,12.629973 l -0.17044,11.828062 -1.92823,0.188166 c -1.08584,0.10596 -2.24009,-0.187594 -2.64206,-0.671939 z m 35.32908,0.409227 C 136.45083,51.242496 136.25,44.484525 136.25,36.470241 l 0,-14.571426 1.5611,-0.391812 c 3.49512,-0.877219 3.47627,-0.964152 3.294,15.196486 l -0.1676,14.859011 -1.89746,0.185871 c -1.04361,0.102229 -2.0983,-0.01496 -2.34375,-0.260417 z m 32.33048,-0.418196 c -0.16995,-0.442884 -0.23144,-5.435072 -0.13664,-11.09375 l 0.17237,-10.288508 3.75,-0.135767 c 2.0625,-0.07467 4.73437,-0.215297 5.9375,-0.3125 2.16577,-0.174977 2.18944,-0.149765 2.38253,2.537694 0.19369,2.695844 0.18271,2.711722 -1.60351,2.319401 -1.31185,-0.288129 -2.25255,-0.03791 -3.47628,0.924686 -1.63607,1.286934 -1.67774,1.488066 -1.67774,8.098232 0,3.728185 -0.17071,7.223397 -0.37937,7.767137 -0.46545,1.212937 -4.51641,1.362437 -4.96886,0.183374 z m 16.89032,0.03992 c -0.17838,-0.464838 -0.24676,-5.47499 -0.15196,-11.133669 l 0.17237,-10.288507 2.1875,0 2.1875,0 0,10.9375 0,10.9375 -2.03555,0.196169 c -1.28359,0.123702 -2.15535,-0.116043 -2.35986,-0.648992 z m 9.47493,-0.190307 C 195.17641,50.357487 195,43.789518 195,36.323883 195,22.075169 195.15396,21.25 197.8125,21.25 c 2.4177,0 2.8125,1.158088 2.8125,8.25 0,5.079098 0.19867,6.75 0.8026,6.75 0.44143,0 2.33026,-1.546875 4.1974,-3.4375 3.06493,-3.103479 3.65498,-3.4375 6.0724,-3.4375 1.47268,0 2.6776,0.179142 2.6776,0.398093 0,0.218951 -1.82813,2.440702 -4.0625,4.937223 -2.23438,2.496521 -4.0625,4.82092 -4.0625,5.165332 0,0.344411 1.94719,2.965643 4.3271,5.824958 2.37991,2.859316 4.19144,5.418275 4.02562,5.686575 -0.16582,0.2683 -1.38862,0.487819 -2.71733,0.487819 -2.20407,0 -2.7567,-0.383522 -6.30411,-4.375 -2.13855,-2.40625 -4.11572,-4.375 -4.39372,-4.375 -0.278,0 -0.58861,1.898437 -0.69025,4.21875 l -0.18481,4.21875 -2.26423,0.189237 c -1.64032,0.137094 -2.37224,-0.09226 -2.65625,-0.832367 z M 57.175774,43.093721 50.9375,36.812443 55.78125,32.254551 c 2.664062,-2.50684 4.84375,-4.900225 4.84375,-5.318634 0,-1.336657 -6.357898,-7.560917 -7.723254,-7.560917 -0.710562,0 -2.452127,1.138646 -3.870144,2.530324 -2.313169,2.270203 -2.664232,2.426677 -3.414967,1.522097 -0.729925,-0.879506 -0.306763,-1.538219 3.314479,-5.159461 l 4.151234,-4.151234 4.949553,4.816637 C 60.754155,21.582513 63.186675,23.75 63.4375,23.75 c 0.250825,0 2.680575,-2.164794 5.39945,-4.810653 l 4.943406,-4.810653 4.047319,4.011348 c 2.226031,2.206241 4.047325,4.239237 4.047325,4.517768 0,0.278532 -0.441719,0.675924 -0.981594,0.883093 -0.623681,0.239329 -1.829706,-0.451494 -3.3076,-1.894616 C 76.3065,20.397079 74.698581,19.375 74.012656,19.375 c -1.608419,0 -7.137656,5.597466 -7.137656,7.225731 0,0.711652 1.874806,3.105733 4.375,5.586769 2.40625,2.387812 4.375,4.635823 4.375,4.995582 0,0.637224 -11.276581,12.191918 -11.898469,12.191918 -0.171869,0 -3.119707,-2.826576 -6.550757,-6.281279 z M 67.634781,41.429745 C 69.2794,39.809854 70.625,37.921078 70.625,37.232463 70.625,35.596465 65.098119,30 63.482462,30 61.846465,30 56.25,35.52688 56.25,37.142537 c 0,1.635998 5.52688,7.232463 7.142538,7.232463 0.688612,0 2.597624,-1.325365 4.242243,-2.945255 z M 185.98214,25.892857 C 184.0867,23.997413 185.45852,20.625 188.125,20.625 c 2.79912,0 4.28217,4.336721 1.91609,5.60301 -1.69565,0.907481 -2.91718,0.806617 -4.05895,-0.335153 z"
       id="path3716"
       inkscape:connector-curvature="0" />
    <path
       style="fill:#5c5c5c"
       d="m 119.80237,51.594492 c -3.11444,-1.11075 -4.72,-2.593166 -6.12691,-5.656992 -2.55928,-5.573319 -0.38412,-13.471549 4.37928,-15.901657 4.69754,-2.396507 10.43031,-1.108648 12.71857,2.85721 0.62216,1.078286 1.19245,3.461491 1.27126,5.3125 l 0.14293,3.356947 -6.86824,0.3125 c -7.82573,0.356066 -8.75743,1.073565 -5.23873,4.034356 1.71435,1.442522 2.44363,1.653709 4.87398,1.411398 1.5719,-0.15672 3.45207,-0.484427 4.17817,-0.728236 0.98934,-0.332201 1.39669,-0.150725 1.62547,0.724155 0.59512,2.275723 -0.53706,3.729261 -3.48244,4.470917 -3.54073,0.891566 -4.50165,0.866737 -7.47333,-0.193097 z m 6.86521,-15.080455 c 0.46445,-1.210328 -0.82134,-2.551176 -2.94463,-3.070737 -1.77021,-0.433163 -4.97295,1.604919 -4.97295,3.164563 0,1.351601 7.39656,1.263949 7.91758,-0.09383 z m 25.61691,15.110055 c -3.43741,-1.276745 -5.26923,-3.256756 -6.43529,-6.955937 -3.16951,-10.054846 5.50552,-19.142233 14.1508,-14.823434 2.8345,1.415993 5.11174,5.731008 4.86466,9.217779 l -0.17716,2.5 -6.82486,0.3125 c -7.69655,0.352414 -8.38445,0.824339 -5.4618,3.746995 1.46598,1.465978 2.43059,1.878005 4.39667,1.878005 1.38527,0 3.24266,-0.329871 4.12753,-0.733046 1.16979,-0.532987 1.79644,-0.545476 2.29615,-0.04576 0.96817,0.968167 0.13196,3.737726 -1.37147,4.542332 -2.12228,1.135816 -6.98454,1.319101 -9.56523,0.360567 z M 159.375,36.28544 c 0,-1.355597 -2.20104,-3.16044 -3.85421,-3.16044 -1.52223,0 -4.56835,2.7629 -4.02156,3.647632 0.26025,0.421091 2.01304,0.727368 4.16266,0.727368 3.26033,0 3.71311,-0.148105 3.71311,-1.21456 z m -58.00779,14.793287 c -0.4652,-0.560531 -0.77319,-4.979788 -0.88427,-12.688165 L 100.3125,26.5625 95.625,26.25 C 91.315175,25.962678 90.921044,25.821426 90.733275,24.496849 90.302588,21.458742 91.139444,21.25 103.75,21.25 c 12.61056,0 13.44741,0.208742 13.01673,3.246849 -0.18864,1.330699 -0.54589,1.454582 -4.68076,1.623177 -2.67394,0.109028 -4.74452,0.505438 -5.14206,0.984439 -0.40462,0.487542 -0.73234,5.438811 -0.83597,12.629973 l -0.17044,11.828062 -1.92823,0.188166 c -1.08584,0.10596 -2.24009,-0.187594 -2.64206,-0.671939 z m 35.32908,0.409227 C 136.45083,51.242496 136.25,44.484525 136.25,36.470241 l 0,-14.571426 1.5611,-0.391812 c 3.49512,-0.877219 3.47627,-0.964152 3.294,15.196486 l -0.1676,14.859011 -1.89746,0.185871 c -1.04361,0.102229 -2.0983,-0.01496 -2.34375,-0.260417 z m 32.33048,-0.418196 c -0.16995,-0.442884 -0.23144,-5.435072 -0.13664,-11.09375 l 0.17237,-10.288508 3.75,-0.135767 c 2.0625,-0.07467 4.73437,-0.215297 5.9375,-0.3125 2.16577,-0.174977 2.18944,-0.149765 2.38253,2.537694 0.19369,2.695844 0.18271,2.711722 -1.60351,2.319401 -1.31185,-0.288129 -2.25255,-0.03791 -3.47628,0.924686 -1.63607,1.286934 -1.67774,1.488066 -1.67774,8.098232 0,3.728185 -0.17071,7.223397 -0.37937,7.767137 -0.46545,1.212937 -4.51641,1.362437 -4.96886,0.183374 z m 16.89032,0.03992 c -0.17838,-0.464838 -0.24676,-5.47499 -0.15196,-11.133669 l 0.17237,-10.288507 2.1875,0 2.1875,0 0,10.9375 0,10.9375 -2.03555,0.196169 c -1.28359,0.123702 -2.15535,-0.116043 -2.35986,-0.648992 z m 9.47493,-0.190307 C 195.17641,50.357487 195,43.789518 195,36.323883 195,22.075169 195.15396,21.25 197.8125,21.25 c 2.4177,0 2.8125,1.158088 2.8125,8.25 0,5.079098 0.19867,6.75 0.8026,6.75 0.44143,0 2.33026,-1.546875 4.1974,-3.4375 3.06493,-3.103479 3.65498,-3.4375 6.0724,-3.4375 1.47268,0 2.6776,0.179142 2.6776,0.398093 0,0.218951 -1.82813,2.440702 -4.0625,4.937223 -2.23438,2.496521 -4.0625,4.82092 -4.0625,5.165332 0,0.344411 1.94719,2.965643 4.3271,5.824958 2.37991,2.859316 4.19144,5.418275 4.02562,5.686575 -0.16582,0.2683 -1.38862,0.487819 -2.71733,0.487819 -2.20407,0 -2.7567,-0.383522 -6.30411,-4.375 -2.13855,-2.40625 -4.11572,-4.375 -4.39372,-4.375 -0.278,0 -0.58861,1.898437 -0.69025,4.21875 l -0.18481,4.21875 -2.26423,0.189237 c -1.64032,0.137094 -2.37224,-0.09226 -2.65625,-0.832367 z M 185.98214,25.892857 C 184.0867,23.997413 185.45852,20.625 188.125,20.625 c 2.79912,0 4.28217,4.336721 1.91609,5.60301 -1.69565,0.907481 -2.91718,0.806617 -4.05895,-0.335153 z"
       id="path3714"
       inkscape:connector-curvature="0" />
    <path
       style="fill:#2d2d2d"
       d="m 120.48991,51.141843 c -4.92648,-1.338443 -8.05219,-7.099199 -7.05487,-13.002286 1.20462,-7.130093 8.67325,-11.00744 14.12879,-7.334976 2.57007,1.730081 3.57661,3.668931 3.81714,7.352778 l 0.18153,2.780141 -6.875,0.3125 c -6.55048,0.297749 -6.88445,0.379072 -7.07526,1.722824 -0.12988,0.914729 0.4572,2.067776 1.67068,3.28125 1.525,1.525005 2.39231,1.870926 4.69082,1.870926 1.55094,0 3.54132,-0.274289 4.42307,-0.609531 1.44943,-0.551073 1.60319,-0.463271 1.60319,0.91551 0,0.838773 -0.49219,1.783525 -1.09375,2.09945 -1.85514,0.97427 -5.97827,1.273799 -8.41634,0.611414 z m 6.88786,-14.663472 C 127.60572,34.880036 124.87457,32.5 122.8125,32.5 c -2.05581,0 -4.6875,2.321636 -4.6875,4.135244 0,1.517552 0.0791,1.541312 4.53125,1.360887 4.08172,-0.165414 4.55013,-0.315984 4.72152,-1.51776 z m 25.5496,14.505578 c -4.64432,-1.684526 -6.85011,-4.985396 -6.9223,-10.358949 -0.0534,-3.974962 1.56222,-7.652894 4.2399,-9.652069 1.29025,-0.963312 2.66197,-1.285431 5.47389,-1.285431 3.51955,0 3.8819,0.14154 5.84423,2.282813 2.07725,2.266673 3.48427,7.061152 2.52683,8.610313 -0.2511,0.406284 -2.96401,0.669374 -6.90242,0.669374 -3.88428,0 -6.65258,0.265121 -6.89696,0.660522 -0.79411,1.284905 0.39398,3.769091 2.38248,4.981529 2.19763,1.339949 6.6443,1.642287 8.61807,0.585959 1.04537,-0.559465 1.20891,-0.435614 1.20891,0.91551 0,0.859375 -0.49219,1.820984 -1.09375,2.136909 -2.1277,1.117412 -6.06749,1.328144 -8.47888,0.45352 z M 160,36.607143 c 0,-4.272842 -6.53416,-5.394876 -8.94398,-1.535845 -1.37598,2.203457 -0.10929,3.053702 4.54937,3.053702 4.23645,0 4.39461,-0.05463 4.39461,-1.517857 z m -58.125,2.928827 c 0,-8.468391 -0.22044,-12.089406 -0.78125,-12.833162 C 100.52389,25.94705 99.128725,25.618784 95.9375,25.489602 91.939331,25.327754 91.5453,25.191376 91.362781,23.90625 L 91.163062,22.5 l 12.230968,0 12.23097,0 0,1.5625 c 0,1.515207 -0.1301,1.5625 -4.29847,1.5625 -2.80624,0 -4.53709,0.287509 -4.98581,0.828188 -0.43198,0.520501 -0.75066,5.222541 -0.85778,12.65625 l -0.17044,11.828062 -1.71875,0.197764 -1.71875,0.197764 0,-11.797058 z m 35.41667,11.297363 c -0.22917,-0.229166 -0.41667,-6.697916 -0.41667,-14.375 l 0,-13.958333 1.875,0 1.875,0 0,14.375 0,14.375 -1.45833,0 c -0.80209,0 -1.64584,-0.1875 -1.875,-0.416667 z m 32.5,0 C 169.5625,50.604167 169.375,45.954715 169.375,40.501218 c 0,-10.896681 0.19171,-11.410638 3.75454,-10.065818 1.24928,0.471552 2.08817,0.422067 3.18908,-0.188118 0.82164,-0.455393 2.12669,-0.837954 2.90013,-0.850135 1.18382,-0.01864 1.40625,0.310149 1.40625,2.078683 0,1.83306 -0.17924,2.07025 -1.40625,1.860907 -2.17709,-0.371437 -4.45566,1.163325 -5.27723,3.554558 -0.41028,1.194162 -0.76184,4.913392 -0.78125,8.264955 -0.0345,5.957183 -0.0679,6.09375 -1.4936,6.09375 -0.80209,0 -1.64584,-0.1875 -1.875,-0.416667 z m 16.75106,-0.346989 c -0.17968,-0.468231 -0.24874,-5.198894 -0.15346,-10.512586 l 0.17323,-9.661258 1.5625,0 1.5625,0 0,10.3125 c 0,10.22467 -0.012,10.314204 -1.40904,10.512586 -0.77498,0.110047 -1.55605,-0.183012 -1.73574,-0.651242 z m 9.37838,0.0088 c -0.17699,-0.461208 -0.2457,-6.878481 -0.1527,-14.260607 L 195.9375,22.8125 197.96875,22.616651 200,22.420802 l 0,7.539599 c 0,5.8307 0.18711,7.539599 0.82553,7.539599 0.45404,0 2.52353,-1.6875 4.59885,-3.75 3.00553,-2.986963 4.17287,-3.75 5.73697,-3.75 1.08001,0 1.96365,0.18842 1.96365,0.418712 0,0.230291 -1.84391,2.328667 -4.09757,4.663057 -4.72339,4.892585 -4.77411,4.282668 0.90265,10.855731 2.07813,2.40625 3.78775,4.585937 3.79916,4.84375 0.0114,0.257812 -0.92699,0.46875 -2.08536,0.46875 -1.84382,0 -2.55997,-0.544849 -5.75044,-4.375 -2.00438,-2.40625 -3.86913,-4.375 -4.14388,-4.375 -0.27476,0 -0.7105,-0.0042 -0.96831,-0.0095 -0.25781,-0.0052 -0.60938,1.893209 -0.78125,4.21875 -0.30015,4.06116 -0.38056,4.236084 -2.03481,4.426362 -1.01888,0.117197 -1.85372,-0.144374 -2.04408,-0.640454 z m -9.64619,-25.152628 c -0.97163,-1.170735 -0.63225,-2.835374 0.75633,-3.709838 2.16556,-1.36377 4.60412,1.709317 2.94383,3.709838 -0.96538,1.163213 -2.73478,1.163213 -3.70016,0 z"
       id="path3712"
       inkscape:connector-curvature="0" />
  </g>
</svg>
