<?xml version="1.0" encoding="UTF-8" standalone="no"?>
<!-- Created with Inkscape (http://www.inkscape.org/) -->

<svg
   xmlns:dc="http://purl.org/dc/elements/1.1/"
   xmlns:cc="http://creativecommons.org/ns#"
   xmlns:rdf="http://www.w3.org/1999/02/22-rdf-syntax-ns#"
   xmlns:svg="http://www.w3.org/2000/svg"
   xmlns="http://www.w3.org/2000/svg"
   xmlns:xlink="http://www.w3.org/1999/xlink"
   xmlns:sodipodi="http://sodipodi.sourceforge.net/DTD/sodipodi-0.dtd"
   xmlns:inkscape="http://www.inkscape.org/namespaces/inkscape"
   id="svg3438"
   version="1.1"
   inkscape:version="0.91 r13725"
   width="406.875"
   height="108.75"
   viewBox="0 0 406.875 108.75"
   sodipodi:docname="Cordova.svg">
  <metadata
     id="metadata3444">
    <rdf:RDF>
      <cc:Work
         rdf:about="">
        <dc:format>image/svg+xml</dc:format>
        <dc:type
           rdf:resource="http://purl.org/dc/dcmitype/StillImage" />
        <dc:title></dc:title>
      </cc:Work>
    </rdf:RDF>
  </metadata>
  <defs
     id="defs3442" />
  <sodipodi:namedview
     pagecolor="#ffffff"
     bordercolor="#666666"
     borderopacity="1"
     objecttolerance="10"
     gridtolerance="10"
     guidetolerance="10"
     inkscape:pageopacity="0"
     inkscape:pageshadow="2"
     inkscape:window-width="640"
     inkscape:window-height="480"
     id="namedview3440"
     showgrid="false"
     inkscape:zoom="0.7078341"
     inkscape:cx="203.4375"
     inkscape:cy="54.375"
     inkscape:window-x="0"
     inkscape:window-y="0"
     inkscape:window-maximized="0"
     inkscape:current-layer="svg3438" />
  <image
     width="406.875"
     height="108.75"
     preserveAspectRatio="none"
     style="image-rendering:optimizeQuality"
     xlink:href="file:///media/havoc/USB%20DISK/pics/_Products/Cordova.png"
     id="image3446"
     x="0"
     y="0"
     sodipodi:absref="/media/havoc/USB DISK/pics/_Products/Cordova.png" />
  <g
     id="g3589">
    <path
       style="fill:#fdfdfd"
       d="M 0,54.375 0,0 203.4375,0 406.875,0 l 0,54.375 0,54.375 -203.4375,0 L 0,108.75 0,54.375 Z"
       id="path3605"
       inkscape:connector-curvature="0" />
    <path
       style="fill:#d0d0d0"
       d="M 36.345945,100.17368 C 36.020513,99.562531 35.417005,96.8125 35.004816,94.0625 32.205668,75.387431 29.523589,58.29868 27.786467,48.071085 27.285161,45.119557 26.875,41.945599 26.875,41.017846 c 0,-1.774142 0.1771,-2.10954 5.322721,-10.080346 1.775285,-2.75 6.26012,-9.921875 9.9663,-15.9375 3.70618,-6.015625 7.172194,-11.4324936 7.702255,-12.0374858 0.89746,-1.0243295 2.918985,-1.0888102 29.391455,-0.9375 L 107.68544,2.1875 110.71955,6.875 c 1.66876,2.578125 3.22581,5.109375 3.46012,5.625 0.2343,0.515625 1.71004,2.954829 3.27942,5.420455 14.00222,21.998673 13.83704,21.682177 13.17175,25.238504 -0.28588,1.528198 -1.13448,6.997291 -1.88578,12.153541 -0.75129,5.15625 -1.78437,11.90625 -2.29572,15 -0.51137,3.09375 -1.17965,7.59375 -1.4851,10 -0.55494,4.371794 -2.15559,14.307687 -2.97023,18.4375 l -0.43151,2.1875 -9.0625,0 -9.0625,0 0.0219,-2.1875 c 0.012,-1.203125 0.24,-4.226563 0.5066,-6.71875 l 0.48472,-4.53125 -3.08106,0 c -3.074811,0 -3.081855,0.005 -3.468468,2.34375 -0.213068,1.289062 -0.390493,3.8388 -0.394274,5.666088 -0.01262,6.106182 1.182424,5.740162 -18.741988,5.740162 -9.592619,0 -17.581751,-0.22754 -17.75363,-0.50565 C 60.839391,100.46624 60.524614,98.005306 60.311766,95.2756 59.692129,87.32905 59.774649,87.5 56.558427,87.5 l -2.792758,0 0.148415,6.71875 0.148416,6.71875 -8.56243,0.17368 c -7.672897,0.15565 -8.6239,0.0583 -9.154125,-0.9375 z M 104.57073,76.2944 c 1.4073,-0.535056 1.58576,-1.086656 2.27495,-7.03125 0.41132,-3.547856 1.29081,-10.38815 1.95443,-15.20065 1.84718,-13.395687 1.81852,-13.641588 -2.61512,-22.434211 -2.09826,-4.161184 -4.10145,-7.917352 -4.45153,-8.347039 C 101.30165,22.751252 99.097169,22.5 94.878781,22.5 l -6.218162,0 0.200937,3.28125 0.200944,3.28125 -10,0 -10,0 0.200944,-3.28125 0.200937,-3.28125 -6.603019,0 -6.603016,0 -4.462594,8.90625 L 47.333158,40.3125 48.021252,45 c 0.378452,2.578125 0.861853,6.515625 1.074225,8.75 0.212372,2.234375 0.92312,7.859375 1.57944,12.5 0.65632,4.640625 1.194834,8.7695 1.196696,9.175281 0.0019,0.405782 0.636199,0.859663 1.409637,1.008638 2.864624,0.55175 49.80716,0.424056 51.28947,-0.139519 z M 62.415216,64.574587 c -1.169177,-2.894343 -0.933623,-13.568581 0.342403,-15.51604 1.34095,-2.046554 2.8851,-1.806537 4.095531,0.636596 1.252581,2.528211 1.251875,11.831019 -0.0012,14.367357 -1.278569,2.588156 -3.494875,2.843956 -4.436841,0.512087 z m 29.63044,-0.64085 c -1.593025,-2.431263 -1.593025,-12.936211 0,-15.367474 1.342332,-2.04865 2.978025,-2.172657 4.138913,-0.313785 1.064306,1.704231 1.138994,14.116555 0.09666,16.064178 -0.969469,1.811469 -2.912869,1.635775 -4.235569,-0.382918 z m 77.099604,20.153825 c -4.67309,-1.921306 -6.24108,-3.425662 -8.63139,-8.281074 -1.73435,-3.522957 -1.90125,-4.357532 -1.62923,-8.147013 0.37625,-5.241552 2.00333,-8.559424 5.86408,-11.957788 3.25206,-2.862581 6.45977,-3.985072 11.2941,-3.952204 4.87084,0.03312 11.45718,3.504968 11.45718,6.039411 0,1.346048 -3.10792,4.711106 -4.35111,4.711106 -0.61325,0 -2.43025,-0.581799 -4.03778,-1.292887 -3.43734,-1.5205 -5.74919,-1.22667 -8.48928,1.078961 -6.7622,5.690026 -0.50858,16.65437 7.73564,13.56272 4.8348,-1.813088 5.65731,-1.769831 7.47745,0.393275 0.91579,1.088362 1.66508,2.406919 1.66508,2.930131 0,1.617544 -3.71003,4.517506 -7.04734,5.508581 -4.39029,1.303775 -7.03034,1.165269 -11.3074,-0.593219 z m 31.42294,0.566494 c -1.57811,-0.486137 -4.14601,-2.007687 -5.70643,-3.381231 -3.90231,-3.43495 -5.48677,-7.027262 -5.48677,-12.439687 0,-8.674664 4.69124,-14.783464 12.80056,-16.668539 13.7607,-3.19878 24.80394,11.171476 18.41317,23.960532 -2.27448,4.551638 -4.37245,6.454994 -9.03992,8.201319 -3.98971,1.492737 -6.91498,1.580012 -10.98061,0.327606 z m 9.88754,-9.393675 c 2.25964,-1.45505 3.4766,-4.459881 3.11295,-7.686231 -0.25551,-2.26685 -0.79077,-3.274656 -2.63863,-4.9681 -2.17746,-1.995489 -2.52977,-2.106838 -5.8063,-1.835121 -2.99798,0.248615 -3.72679,0.575052 -5.18586,2.32279 -6.14738,7.363575 2.47947,17.342806 10.51784,12.166662 z m 91.81452,8.827181 c -4.42652,-1.819931 -5.95089,-3.176775 -8.18915,-7.289212 -3.13993,-5.769081 -2.7952,-12.822019 0.87431,-17.887627 2.74243,-3.785811 5.92425,-5.921237 10.10712,-6.783224 16.91748,-3.486277 27.43742,17.713957 14.45886,29.138138 -2.98778,2.62995 -7.53488,4.369925 -11.35359,4.344526 -1.22667,-0.0081 -3.88057,-0.693326 -5.89755,-1.522601 z m 9.20738,-8.074325 c 8.40018,-3.509825 5.92754,-15.377895 -3.20557,-15.385901 -2.16526,-0.0019 -3.10351,0.399136 -5,2.137139 -2.15413,1.974119 -2.33457,2.405331 -2.33457,5.579169 0,4.104375 1.52726,6.586993 4.74604,7.714831 2.79723,0.980131 3.35038,0.975812 5.7941,-0.04525 z m 27.70026,8.489275 c -0.55871,-0.617368 -2.15988,-3.640806 -3.55815,-6.71875 -1.39827,-3.077943 -2.80356,-6.158762 -3.12288,-6.846262 -7.8724,-16.949656 -8.00066,-17.410188 -5.15312,-18.503129 1.05906,-0.406488 2.63824,-0.460523 4.11437,-0.140781 2.35177,0.509413 2.45472,0.654298 5.625,7.916334 1.77616,4.068582 3.50192,7.39957 3.83503,7.402188 0.33311,0.0025 1.87998,-2.915825 3.4375,-6.485432 1.55752,-3.569608 3.12926,-6.979799 3.49276,-7.578203 1.47948,-2.435586 8.40159,-1.780251 8.40159,0.795402 0,0.6874 -0.87444,3.155299 -1.94321,5.48422 -1.06875,2.32892 -3.14775,6.906276 -4.61999,10.171901 -1.47223,3.265625 -3.44256,7.625 -4.37851,9.6875 -2.68415,5.914906 -4.11672,7.040094 -6.13039,4.815013 z M 228.48214,84.017856 c -0.83695,-0.836944 -0.98073,-3.123775 -0.97257,-15.46875 0.006,-8.090249 0.27255,-14.900546 0.60518,-15.424106 0.48629,-0.765437 2.29951,-0.935359 9.87947,-0.925831 10.28535,0.01293 11.10716,0.261665 14.18153,4.292372 3.15926,4.141998 2.87719,9.261259 -0.74333,13.491028 l -2.29909,2.685975 2.30833,4.484125 C 254.91984,83.909319 254.58016,85 248.99762,85 c -3.03275,0 -3.41508,-0.421763 -7.92631,-8.743956 -1.3911,-2.56625 -2.01944,-3.172532 -3.125,-3.015319 -1.26922,0.180481 -1.41177,0.626919 -1.72148,5.391375 -0.23283,3.581787 -0.62093,5.373775 -1.25,5.771681 -1.45754,0.921944 -5.42037,0.686394 -6.49269,-0.385925 z m 16.17807,-19.233112 c 0.84648,-0.618963 1.03941,-1.277363 0.73255,-2.5 C 244.99167,60.686703 244.81398,60.625 240.61309,60.625 l -4.36309,0 0,2.083331 c 0,1.145838 0.1875,2.270838 0.41667,2.5 0.75519,0.7552 6.82104,0.433763 7.99354,-0.423587 z m 16.12104,19.521687 C 260.19976,83.7062 260,79.612644 260,68.297031 l 0,-15.20297 1.71875,-0.676177 c 2.44487,-0.96184 14.64839,-0.217525 17.33486,1.057285 2.88113,1.367187 6.30871,4.81236 7.9256,7.966261 1.91264,3.730795 1.88606,10.494326 -0.0561,14.261039 -1.83301,3.555143 -4.13464,5.971918 -7.23566,7.597656 -2.04649,1.072894 -3.91723,1.356187 -10.3125,1.561694 -5.83221,0.187406 -8.01053,0.04663 -8.59375,-0.555388 z m 13.08483,-8.0782 c 1.26696,-0.351893 3.05447,-1.532187 3.97223,-2.622881 1.48521,-1.765075 1.63961,-2.384481 1.40453,-5.634394 -0.35951,-4.970256 -2.14759,-6.80869 -7.01476,-7.212314 l -3.47808,-0.288429 0,7.785725 c 0,4.28215 0.1875,7.973231 0.41667,8.202393 0.58439,0.584394 2.01993,0.5141 4.69941,-0.2301 z M 352,84.25 c -1.37414,-1.374144 -1.27323,-1.652137 7.2143,-19.875 1.20079,-2.578125 2.98204,-6.445312 3.95834,-8.59375 1.45634,-3.204816 2.04295,-3.90625 3.26685,-3.90625 0.82048,0 1.9068,0.492188 2.41405,1.09375 1.54122,1.82777 13.02146,28.01 13.02146,29.697181 C 381.875,84.41505 380.87892,85 377.90045,85 375.40014,85 373.3872,83.629769 372.87201,81.577081 372.48568,80.037844 372.34187,80 366.87914,80 l -5.59704,0 -1.04076,2.03125 c -0.57242,1.117187 -1.35308,2.237881 -1.7348,2.490431 C 357.39144,85.259431 352.81849,85.068488 352,84.25 Z m 16.125,-13.041088 c 0,-0.36635 -0.31641,-1.2573 -0.70313,-1.979887 -0.7023,-1.312263 -0.70406,-1.312038 -1.50766,0.189494 -0.4425,0.826812 -0.67199,1.717762 -0.50999,1.979887 0.4489,0.726338 2.72078,0.568107 2.72078,-0.189494 z M 382.93169,57.34375 c -0.18153,-1.117188 -0.42323,-2.59375 -0.53712,-3.28125 -0.18465,-1.114651 0.16514,-1.260224 3.23043,-1.344424 1.89062,-0.05193 3.78906,0.193442 4.21875,0.545278 0.54362,0.445129 1.08697,0.385974 1.78638,-0.194484 0.854,-0.708758 1.13593,-0.655316 1.875,0.355428 0.47843,0.654288 0.86987,2.260859 0.86987,3.570158 l 0,2.380544 -3.75,0 -3.75,0 0,-2.224386 c 0,-1.323771 -0.25305,-2.067991 -0.625,-1.838114 -0.34375,0.212449 -0.625,1.213422 -0.625,2.224386 0,1.385991 -0.29064,1.838114 -1.18162,1.838114 -0.84874,0 -1.2746,-0.572236 -1.51169,-2.03125 z M 201.73446,37.775749 c -3.52643,-1.913725 -4.06849,-6.162874 -1.15753,-9.073826 2.02681,-2.026814 5.19454,-2.459146 7.2116,-0.984238 1.60885,1.176421 0.63444,2.49816 -1.52351,2.06657 -1.01929,-0.20386 -2.2492,0.03713 -3.04919,0.597475 -2.82537,1.978959 -0.80557,5.63372 2.74531,4.967571 2.5472,-0.477858 3.39435,1.030719 1.37362,2.446095 -1.69123,1.184578 -3.39226,1.17861 -5.6003,-0.01965 z m 24.01985,0.442397 c -0.58173,-0.36905 -0.75685,-1.98628 -0.625,-5.771679 l 0.18319,-5.258967 3.42894,0 c 2.71606,0 3.47103,0.218576 3.63141,1.051342 0.15039,0.780887 -0.31737,1.102447 -1.81831,1.25 -2.56174,0.251839 -3.10121,1.602456 -0.74785,1.872319 2.17375,0.249265 2.33834,1.882467 0.23965,2.3779 -2.32179,0.548099 -2.37769,1.885939 -0.0788,1.885939 2.13643,0 3.30878,1.624933 1.8423,2.553507 -1.0975,0.694927 -4.9825,0.720359 -6.05552,0.03964 z M 164.99742,37.34375 c -0.006,-1.842764 4.1114,-9.842417 5.0663,-9.843068 1.03311,-6.87e-4 4.93628,7.574659 4.93628,9.580415 0,1.277476 -1.15359,1.313436 -2.77571,0.08653 -1.55479,-1.175987 -3.11308,-1.168431 -4.09929,0.01987 -0.94218,1.135253 -3.12399,1.244253 -3.12758,0.15625 z m 12.94086,0.386189 c -0.53694,-0.536928 -0.58445,-8.496771 -0.0589,-9.866322 0.55565,-1.448007 5.36117,-1.33749 6.71126,0.154346 1.10222,1.217931 1.34747,3.645838 0.50278,4.977298 -0.28185,0.444269 -1.32379,1.024748 -2.31543,1.289953 -1.18529,0.316995 -1.92586,1.002688 -2.16164,2.001457 -0.3542,1.500427 -1.82712,2.294215 -2.67806,1.443268 z M 182.5,30.588114 C 182.5,30.264651 182.07812,30 181.5625,30 c -0.96651,0 -1.24169,0.737477 -0.53783,1.441342 0.49934,0.499332 1.47533,-0.06512 1.47533,-0.853228 z m 4.37346,6.755636 c -6.3e-4,-0.429688 0.89372,-2.820313 1.98795,-5.3125 2.58044,-5.877199 3.48435,-5.899703 6.05491,-0.150749 2.75915,6.170728 2.54226,7.474723 -0.87126,5.238102 -1.58419,-1.038004 -4.67006,-0.778117 -4.67006,0.393304 0,0.337201 -0.5625,0.613093 -1.25,0.613093 -0.6875,0 -1.25069,-0.351563 -1.25154,-0.78125 z m 24.75591,-0.207367 c -0.57661,-1.50261 -0.43451,-8.581571 0.19212,-9.571206 0.84065,-1.327629 2.4382,-0.358398 2.66468,1.616661 0.17062,1.487901 0.48635,1.755662 2.07019,1.755662 1.58768,0 1.91773,-0.282111 2.19364,-1.875 0.1904,-1.099212 0.71013,-1.875 1.25614,-1.875 0.74043,0 0.96838,1.121111 1.11194,5.46875 0.16993,5.145936 0.10536,5.46875 -1.09375,5.46875 -0.92512,0 -1.27433,-0.407209 -1.27433,-1.485972 0,-1.897179 -1.44949,-3.108312 -3.09501,-2.586047 -0.90665,0.287762 -1.27999,0.940849 -1.27999,2.239137 0,1.381685 -0.29125,1.832882 -1.18313,1.832882 -0.65073,0 -1.35385,-0.444878 -1.5625,-0.988617 z"
       id="path3603"
       inkscape:connector-curvature="0" />
    <path
       style="fill:#a1a1a1"
       d="M 37.030483,99.861738 C 36.671643,99.422156 36.058001,96.8125 35.666831,94.0625 34.468429,85.637475 32.494112,73.17375 31.187291,65.783456 30.503672,61.917481 29.671393,56.433106 29.337782,53.595956 29.004171,50.758805 28.460902,47.3125 28.130518,45.9375 26.938951,40.978403 27.272923,39.761874 31.71875,32.86699 36.957035,24.743108 38.751605,21.892943 45.431976,11.087424 L 50.748859,2.4873473 78.938137,2.6499236 107.12742,2.8125 l 1.7423,2.5 c 0.95826,1.375 2.73675,4.1875 3.95218,6.25 1.21544,2.0625 5.15179,8.390625 8.74746,14.0625 9.26978,14.622313 9.03493,14.123557 8.39253,17.823766 -0.29731,1.712554 -1.12668,7.051234 -1.84302,11.863734 -1.68381,11.312019 -3.44925,22.775475 -4.71644,30.625 -0.55494,3.4375 -1.21525,7.872438 -1.46737,9.855419 -0.25212,1.982975 -0.74315,3.890168 -1.09119,4.238201 -0.38089,0.3809 -3.84703,0.56286 -8.70708,0.45709 l -8.07429,-0.17571 0.27648,-4.375 c 0.15205,-2.40625 0.29268,-5.359375 0.3125,-6.5625 l 0.036,-2.1875 -3.43137,0 c -3.30686,0 -3.445904,0.06803 -3.832297,1.875 -0.220519,1.03125 -0.438525,3.703125 -0.484463,5.9375 -0.04594,2.234375 -0.309594,4.418675 -0.585919,4.854 -0.389725,0.61399 -4.3474,0.75416 -17.646675,0.625 L 61.5625,100.3125 61.068622,95.9375 c -0.271633,-2.40625 -0.693508,-5.359375 -0.9375,-6.5625 -0.435851,-2.149181 -0.49836,-2.1875 -3.568622,-2.1875 l -3.125,0 0,6.5625 0,6.5625 -7.877291,0.17424 c -5.815085,0.12863 -8.048094,-0.035 -8.529727,-0.625002 z M 107.27921,70.9375 c 2.6096,-19.53579 3.36103,-25.979885 3.35386,-28.762334 -0.007,-2.62819 -0.70024,-4.504615 -4.27319,-11.5625 l -4.26512,-8.425166 -7.04416,-0.177274 -7.044156,-0.177274 0.215531,3.302274 0.215525,3.302274 -9.375,0 -9.375,0 0,-3.125 0,-3.125 -6.625456,-0.176449 c -5.0881,-0.135505 -6.794228,0.0269 -7.35278,0.699918 -0.400026,0.482001 -2.584816,4.61776 -4.855089,9.190575 l -4.12777,8.314209 1.041153,8.173373 c 0.572634,4.495356 1.640843,12.746576 2.373797,18.336043 l 1.332643,10.162675 27.526908,-0.162675 27.526904,-0.162669 0.7514,-5.625 z M 63.051881,64.238375 c -0.988213,-1.846492 -0.972985,-12.908713 0.02031,-14.764729 1.787431,-3.339848 4.043268,0.746831 4.085525,7.401354 0.04475,7.049238 -2.158907,11.001275 -4.10585,7.363375 z M 92.419575,62.96875 c -1.112138,-2.635747 -1.104863,-10.818852 0.012,-13.466418 2.068206,-4.902875 4.758587,0.204394 4.253381,8.074391 -0.460075,7.166964 -2.453269,9.686646 -4.265362,5.392027 z m 77.694555,20.842631 c -6.44099,-2.224569 -10.72167,-8.369544 -10.73302,-15.407419 -0.0145,-8.980695 7.26842,-16.15321 16.31646,-16.069114 3.88855,0.03614 8.28768,1.693054 10.19434,3.839651 1.18975,1.339472 1.18936,1.376119 -0.0314,3.011156 -1.99892,2.677339 -2.95169,3.022724 -5.31774,1.927714 -3.8415,-1.777847 -4.95201,-1.895126 -7.76659,-0.820228 -3.4944,1.334528 -5.2762,4.084909 -5.2762,8.144359 0,3.560069 1.74999,6.748738 4.22427,7.697056 3.66687,1.405413 4.50367,1.409681 7.68935,0.03925 3.56539,-1.533787 4.31593,-1.3497 6.49252,1.592394 l 1.28136,1.732031 -2.36957,2.058194 c -3.94991,3.430875 -9.03924,4.211375 -14.7038,2.254969 z m 30.51087,0.228257 c -8.82384,-2.739863 -13.47141,-13.786019 -9.39668,-22.333629 7.19716,-15.097516 29.30288,-10.959863 30.49546,5.70801 0.24391,3.408925 0.0386,4.803544 -1.09509,7.438887 -1.83688,4.269938 -5.83413,7.913463 -10.05777,9.167757 -3.95849,1.175543 -6.20731,1.179831 -9.94592,0.019 z m 7.53553,-7.164169 c 4.99609,-1.387919 7.49444,-6.9772 5.38038,-12.036888 -1.41722,-3.391865 -4.29053,-4.968456 -8.48764,-4.657164 -2.94108,0.218136 -3.65717,0.548847 -5.46875,2.525614 -1.79403,1.957638 -2.08452,2.719707 -2.08452,5.468607 0,4.091406 1.48464,6.671412 4.6875,8.145956 2.92841,1.348181 3.06737,1.361069 5.97303,0.553875 z m 95.0786,6.935912 C 297.25876,81.7459 293.25671,76.50975 292.66421,69.9755 c -1.05742,-11.661296 9.46245,-20.117397 21.01829,-16.894984 4.15505,1.158661 9.05581,6.334426 10.41062,10.994822 1.30382,4.484968 0.89197,8.072056 -1.41301,12.307062 -2.13462,3.922 -5.23295,6.514575 -9.1998,7.69805 -3.99739,1.192594 -6.17472,1.135388 -10.24118,-0.269069 z m 8.63128,-7.319968 c 5.85898,-2.3443 7.1797,-9.824882 2.52238,-14.286874 -1.4584,-1.39723 -2.5837,-1.840029 -5.16021,-2.030515 -4.00798,-0.296315 -6.63801,1.109744 -8.18886,4.377895 -2.37129,4.997131 -0.0189,10.806569 4.98287,12.30545 2.5942,0.777412 3.05901,0.748306 5.84382,-0.365956 z m 27.62403,7.715 c -1.14459,-1.379144 -12.75726,-26.93633 -13.08928,-28.806905 -0.20118,-1.133434 -0.002,-1.987944 0.54499,-2.334179 1.27057,-0.804742 4.53292,-0.681487 5.71508,0.215921 0.56602,0.429688 2.51821,4.118454 4.3382,8.19726 1.81999,4.078809 3.5879,7.413178 3.9287,7.409709 0.3408,-0.0038 2.07072,-3.340669 3.84428,-7.416008 3.60517,-8.28405 4.73455,-9.43757 8.541,-8.723477 1.6357,0.306859 2.30759,0.757456 2.30759,1.547557 0,1.114495 -12.14307,28.446759 -13.29383,29.922459 -0.78215,1.003 -1.99847,0.997706 -2.83673,-0.01231 z M 228.875,83.625 c -0.54035,-0.54035 -0.75,-4.814556 -0.75,-15.290512 0,-14.167225 0.0339,-14.558681 1.32269,-15.248392 2.111,-1.129773 16.6262,-0.499564 19.09678,0.829127 2.82509,1.519341 4.73284,4.510281 5.06202,7.936126 0.32367,3.368539 -0.62885,5.644089 -3.50829,8.381207 l -1.8884,1.795063 2.55606,5.153869 c 3.03123,6.111981 2.89486,7.197525 -0.9025,7.183943 -1.47172,-0.005 -3.02673,-0.232375 -3.45557,-0.504687 -0.42885,-0.272313 -1.97575,-2.728944 -3.43758,-5.459181 -2.5319,-4.728788 -2.76895,-4.973257 -5.00154,-5.158044 l -2.34367,-0.193975 0,4.453819 c 0,5.732218 -0.60473,6.871637 -3.64699,6.871637 -1.29415,0 -2.69051,-0.3375 -3.10301,-0.75 z m 16.19942,-18.559581 c 1.25821,-1.018838 1.37537,-1.434219 0.83737,-2.968751 -0.60655,-1.730034 -0.7721,-1.789707 -5.45616,-1.966708 l -4.83063,-0.182541 0,2.734625 c 0,1.504043 0.1875,2.922125 0.41667,3.151287 0.22916,0.229169 2.02613,0.416669 3.99325,0.416669 2.57954,0 3.98442,-0.330231 5.0395,-1.184581 z M 261.40625,83.998 c -0.59336,-0.267469 -0.78125,-3.941837 -0.78125,-15.278094 0,-17.818469 -0.75221,-16.519909 9.31988,-16.089053 7.40291,0.316675 10.14801,1.321535 13.5789,4.970629 3.23364,3.439299 4.21714,5.967787 4.21489,10.836018 -0.002,4.929912 -1.31018,8.162863 -4.65586,11.508531 -3.48344,3.483438 -5.189,4.0209 -13.39531,4.221132 -4.125,0.10065 -7.85156,0.0245 -8.28125,-0.169163 z m 14.84394,-8.0606 c 2.72234,-1.407775 3.94427,-4.209025 3.60749,-8.270094 -0.22735,-2.741581 -0.64693,-3.745018 -2.22638,-5.324467 -1.65081,-1.650816 -2.51999,-1.987734 -5.72626,-2.219655 l -3.78004,-0.273423 0,8.408452 c 0,4.62465 0.21094,8.622806 0.46875,8.884793 0.67008,0.680925 5.46981,-0.07485 7.65644,-1.205606 z m 76.40606,8.038494 c -0.42969,-0.181531 -0.78125,-0.776156 -0.78125,-1.321381 0,-1.016425 12.19699,-27.965457 13.29417,-29.373263 0.33489,-0.429687 1.1449,-0.78125 1.80003,-0.78125 0.89387,0 1.90729,1.520797 4.06067,6.09375 6.2476,13.267475 10.27424,22.901113 10.09547,24.153175 -0.13239,0.9272 -0.71753,1.376106 -1.98211,1.520625 -2.99118,0.341838 -4.46595,-0.36915 -5.57057,-2.685575 l -1.05243,-2.206975 -5.79137,0.0019 -5.79136,0.0019 -1.25,2.342062 c -1.09919,2.059488 -1.55163,2.35675 -3.75,2.463788 -1.375,0.06695 -2.85156,-0.02681 -3.28125,-0.208331 z m 15.84609,-12.356981 c 0.18595,-0.4846 -0.13995,-1.805538 -0.72423,-2.935425 l -1.06234,-2.054325 -1.22821,2.394037 c -1.00034,1.949838 -1.07253,2.492719 -0.38914,2.92585 1.29023,0.817744 3.02811,0.649194 3.40392,-0.330137 z M 383.75,57.890625 c 0,-0.472656 -0.17578,-1.738281 -0.39063,-2.8125 -0.36124,-1.806215 -0.26219,-1.953125 1.31687,-1.953125 1.38772,0 1.61989,0.204839 1.23973,1.09375 -0.25726,0.601562 -0.60053,1.867187 -0.7628,2.8125 -0.30033,1.749563 -1.40317,2.424998 -1.40317,0.859375 z m 3.75,-1.387514 c 0,-2.502561 1.36248,-3.811244 2.51816,-2.418734 0.59857,0.721241 0.92887,0.780841 1.26984,0.229134 0.90494,-1.464216 2.462,-0.05424 2.462,2.229427 l 0,2.207169 -3.125,-0.13597 C 387.56295,58.480905 387.5,58.438381 387.5,56.503111 Z M 167.27398,34.6875 c 0.19787,-0.515625 0.47029,-0.9375 0.60539,-0.9375 0.13509,0 0.24563,0.421875 0.24563,0.9375 0,0.515625 -0.27243,0.9375 -0.60539,0.9375 -0.33295,0 -0.44349,-0.421875 -0.24563,-0.9375 z m 5.01769,0.520833 c -0.22917,-0.229166 -0.41667,-0.707291 -0.41667,-1.0625 0,-0.391627 0.29111,-0.354726 0.73958,0.09375 0.40678,0.406771 0.59428,0.884896 0.41667,1.0625 -0.17761,0.177604 -0.51042,0.135417 -0.73958,-0.09375 z M 189.14898,34.6875 c 0.19787,-0.515625 0.47029,-0.9375 0.60539,-0.9375 0.13509,0 0.24563,0.421875 0.24563,0.9375 0,0.515625 -0.27243,0.9375 -0.60539,0.9375 -0.33295,0 -0.44349,-0.421875 -0.24563,-0.9375 z m 5.01769,0.520833 c -0.22917,-0.229166 -0.41667,-0.707291 -0.41667,-1.0625 0,-0.391627 0.29111,-0.354726 0.73958,0.09375 0.40678,0.406771 0.59428,0.884896 0.41667,1.0625 -0.17761,0.177604 -0.51042,0.135417 -0.73958,-0.09375 z M 178.75,33.125 c 0,-0.34375 0.28125,-0.625 0.625,-0.625 0.34375,0 0.625,0.28125 0.625,0.625 0,0.34375 -0.28125,0.625 -0.625,0.625 -0.34375,0 -0.625,-0.28125 -0.625,-0.625 z m 34.375,-0.349386 c 0,-0.535912 0.28584,-0.797728 0.63519,-0.581813 0.34936,0.215915 0.47339,0.654388 0.27562,0.974385 -0.53577,0.866903 -0.91081,0.705257 -0.91081,-0.392572 z m 5.98934,0.43327 c -0.26923,-0.435627 -0.32072,-0.960836 -0.11443,-1.167133 0.55936,-0.55935 1.16923,0.263315 0.86712,1.169653 -0.2117,0.635109 -0.35892,0.634616 -0.75269,-0.0025 z M 226.25,32.849386 c 0,-0.535912 0.28125,-0.974386 0.625,-0.974386 0.34375,0 0.625,0.264651 0.625,0.588114 0,0.323463 -0.28125,0.761937 -0.625,0.974386 -0.34375,0.212449 -0.625,-0.0522 -0.625,-0.588114 z M 169.375,30.3125 c 0,-0.515625 0.28125,-0.9375 0.625,-0.9375 0.34375,0 0.625,0.421875 0.625,0.9375 0,0.515625 -0.28125,0.9375 -0.625,0.9375 -0.34375,0 -0.625,-0.421875 -0.625,-0.9375 z m 21.875,0 c 0,-0.515625 0.28125,-0.9375 0.625,-0.9375 0.34375,0 0.625,0.421875 0.625,0.9375 0,0.515625 -0.28125,0.9375 -0.625,0.9375 -0.34375,0 -0.625,-0.421875 -0.625,-0.9375 z"
       id="path3601"
       inkscape:connector-curvature="0" />
    <path
       style="fill:#707070"
       d="M 37.257566,99.488369 C 37.070839,99.186238 36.615708,96.857444 36.246164,94.313269 34.824277,84.524125 33.002611,73.090656 31.525963,64.6875 30.680284,59.875 29.990048,55.234375 29.992104,54.375 c 0.0021,-0.859375 -0.539317,-4.361494 -1.20305,-7.782488 -0.663732,-3.420993 -1.038545,-6.514743 -0.832917,-6.875 0.205629,-0.360256 2.1129,-3.326887 4.238381,-6.592512 2.12548,-3.265625 4.726823,-7.34375 5.780763,-9.0625 1.053939,-1.71875 4.391112,-7.132813 7.41594,-12.03125 l 5.499688,-8.90625 27.958635,0 27.958636,0 2.12383,3.28125 c 1.1681,1.8046875 2.94094,4.614067 3.93965,6.243066 1.91723,3.127197 11.68792,18.74433 13.51697,21.605056 3.30709,5.172453 3.59671,6.103252 2.98344,9.588397 -0.32371,1.839602 -1.17117,7.282231 -1.88325,12.094731 -2.0096,13.581613 -3.69834,24.4439 -4.80981,30.9375 -0.55896,3.265625 -1.17946,7.484375 -1.3789,9.375 l -0.36261,3.4375 -7.76117,0.176331 c -4.26864,0.09698 -8.00846,-0.07096 -8.31071,-0.373206 -0.31603,-0.316038 -0.26072,-2.873606 0.13019,-6.019356 0.51016,-4.105481 0.49842,-5.688263 -0.0471,-6.34555 -0.9628,-1.160106 -6.430003,-1.1657 -7.391165,-0.0076 -0.396275,0.477481 -0.9229,3.500919 -1.170281,6.71875 L 95.9375,99.6875 78.977669,99.853662 62.017834,100.01983 61.668032,97.978662 C 61.475641,96.856025 61.124895,93.96875 60.888596,91.5625 60.652297,89.15625 60.144757,86.980869 59.760731,86.728319 58.606579,85.969312 53.86102,86.19245 53.318136,87.03125 53.040036,87.460937 52.8125,90.484375 52.8125,93.75 l 0,5.9375 -7.607716,0.1751 C 41.02054,99.9589 37.444292,99.7905 37.257566,99.488369 Z M 106.76975,76.40625 c 0.31005,-0.601563 0.88864,-3.90625 1.28576,-7.34375 0.39712,-3.4375 1.27833,-10.188613 1.95826,-15.002472 1.90541,-13.490195 1.90206,-13.516567 -2.94627,-23.248805 -2.30038,-4.61763 -4.6909,-8.667776 -5.31228,-9.000324 -0.62136,-0.332548 -4.012676,-0.52448 -7.536239,-0.426516 L 87.8125,21.5625 l 0.136162,3.28125 0.136169,3.28125 -9.022331,0 -9.022331,0 0.136169,-3.28125 0.136162,-3.28125 -6.916825,-0.175649 c -6.065611,-0.154034 -7.045265,-0.03373 -7.96048,0.977573 -0.574009,0.634272 -2.899824,4.891949 -5.168479,9.461504 l -4.124827,8.308281 1.013299,7.901646 c 0.557313,4.345904 1.274515,10.01102 1.593781,12.589145 0.92527,7.471706 2.009705,15.245581 2.245036,16.09375 0.169215,0.609875 6.248563,0.78125 27.714389,0.78125 25.556796,0 27.537416,-0.0772 28.061356,-1.09375 z M 63.418925,64.344944 C 62.806737,63.3544 62.728475,52.595643 63.317663,50.424351 c 1.074949,-3.961424 3.486787,0.500542 3.486787,6.450649 0,5.323223 -1.993644,9.722063 -3.385525,7.469944 z m 29.046444,-2.587036 c -1.618075,-5.983542 0.325612,-15.466356 2.686419,-13.106408 0.976862,0.976511 1.429118,10.209406 0.647787,13.224677 -0.839794,3.240854 -2.441187,3.184048 -3.334206,-0.11827 z m 78.058601,21.878467 c -3.18615,-0.848469 -7.15011,-4.436819 -9.05599,-8.197894 -5.88569,-11.614862 4.62067,-25.087242 17.42301,-22.341633 3.26093,0.699346 7.35901,3.237046 7.35901,4.557009 0,0.393385 -0.73098,1.478226 -1.62441,2.410759 l -1.6244,1.695515 -3.21935,-1.49896 c -3.85695,-1.795838 -4.36054,-1.816974 -7.654,-0.321245 -3.38416,1.536916 -5.2541,4.590593 -5.24872,8.571343 0.01,7.213918 6.99722,11.181643 13.68406,7.770268 l 2.38838,-1.218462 1.64922,1.721412 c 2.01456,2.102744 2.04188,2.628738 0.22518,4.335444 -3.02794,2.844588 -9.07457,3.9085 -14.30199,2.516444 z m 29.84524,-0.244663 c -4.02697,-1.475449 -6.61515,-3.895981 -8.55876,-8.004381 -2.98001,-6.299131 -2.11255,-12.152425 2.59571,-17.514837 7.01906,-7.994266 19.93348,-6.337429 25.13804,3.225046 2.32972,4.28046 2.39712,10.079747 0.16829,14.478147 -3.66405,7.23065 -11.88008,10.550494 -19.34328,7.816025 z M 208.75,77.166875 c 3.89894,-1.078744 6.73411,-5.930394 5.94678,-10.176363 -0.95388,-5.144145 -5.29332,-8.136608 -10.63704,-7.335267 -2.10067,0.315015 -3.23062,0.971623 -4.95313,2.878236 -1.96337,2.173213 -2.23112,2.864313 -2.22749,5.749569 0.006,4.665094 2.39191,7.92145 6.75762,9.222419 1.67922,0.500412 2.2072,0.46545 5.11326,-0.338594 z m 94.89897,6.4695 c -3.14612,-0.837806 -7.14313,-4.42305 -8.98646,-8.060688 -1.15239,-2.274137 -1.53751,-4.026181 -1.53751,-6.994693 0,-12.097255 12.28837,-19.497333 23.09603,-13.908473 4.16193,2.152215 8.15397,8.862167 8.15397,13.70546 0,10.774663 -9.97816,18.120538 -20.72603,15.258394 z m 9.65992,-7.191931 c 2.66215,-1.341644 4.18606,-4.338238 4.18877,-8.236725 0.002,-3.052457 -0.21165,-3.568775 -2.37229,-5.729408 -6.93633,-6.936331 -17.68573,-0.736768 -15.13664,8.729839 1.51093,5.611175 7.72735,8.054912 13.32016,5.236294 z m 23.16299,0.586806 c -1.90008,-4.039063 -4.10985,-8.890625 -4.91059,-10.78125 -0.80074,-1.890625 -2.31437,-5.247646 -3.3636,-7.460048 -1.42367,-3.001918 -1.73478,-4.23091 -1.22617,-4.84375 0.8664,-1.043945 5.18656,-1.072896 5.96167,-0.03995 0.32243,0.429687 2.08503,4.226562 3.91688,8.4375 1.83185,4.210937 3.66569,7.65625 4.0752,7.65625 0.40951,0 2.23157,-3.445313 4.04901,-7.65625 1.81745,-4.210938 3.59711,-8.021736 3.9548,-8.468442 0.99105,-1.237699 5.69402,-0.720483 5.95491,0.654901 0.11399,0.60099 -1.95324,5.804115 -4.59386,11.562497 -2.64062,5.758388 -5.60519,12.227606 -6.58794,14.376044 -1.10065,2.406175 -2.16869,3.90625 -2.78121,3.90625 -0.65676,0 -2.1674,-2.493488 -4.4491,-7.34375 z m -107.4272,5.960187 c -0.17538,-0.457043 -0.24312,-7.29365 -0.15053,-15.192462 l 0.16835,-14.361475 8.30447,-0.174553 c 9.54834,-0.200697 11.69805,0.427429 14.23369,4.158961 2.73451,4.024179 1.90146,8.980617 -2.15807,12.839973 l -1.919,1.824375 2.8133,5.246188 c 1.5473,2.885406 2.6504,5.509743 2.45131,5.831868 -0.19908,0.322132 -1.72028,0.585688 -3.38044,0.585688 l -3.01847,0 -2.55526,-4.911531 c -3.02759,-5.819413 -3.71919,-6.486932 -6.44945,-6.224863 L 235.3125,72.8125 235,78.125 l -0.3125,5.3125 -2.66197,0.192463 c -1.78349,0.128956 -2.7672,-0.08177 -2.98085,-0.638525 z M 246.01175,64.6619 c 0.82851,-1.264469 0.89946,-1.897788 0.34816,-3.10776 -0.84388,-1.852132 -2.46469,-2.307593 -7.32345,-2.057965 l -3.72396,0.191325 -0.19789,2.409476 c -0.324,3.944805 -0.0651,4.153024 5.16387,4.153024 4.33605,0 4.77179,-0.1207 5.73327,-1.5881 z m 15.26024,17.879187 C 260.88597,81.819812 260.625,76.130912 260.625,68.4375 c 0,-7.693411 0.26097,-13.38231 0.64699,-14.103588 0.5782,-1.080383 1.35898,-1.208263 7.34375,-1.202806 5.73436,0.0052 7.14586,0.218416 9.82176,1.483451 7.13911,3.37502 10.55759,10.915368 8.42661,18.587112 -0.83604,3.009831 -5.26208,7.947818 -8.40242,9.374287 -1.96007,0.890344 -4.09067,1.149656 -9.53345,1.160319 -6.29812,0.01231 -7.0749,-0.108931 -7.65625,-1.195188 z M 276.25,76.405281 c 3.03915,-1.518231 4.50868,-4.596337 4.19823,-8.793744 -0.20825,-2.815787 -0.58889,-3.668862 -2.48149,-5.561463 -2.07223,-2.072231 -2.52468,-2.240143 -6.19487,-2.299038 l -3.95937,-0.06354 -0.17584,8.091944 c -0.0967,4.450575 -0.0353,8.458387 0.13663,8.90625 0.45967,1.197875 5.87619,1.018687 8.47671,-0.280413 z m 76.50083,6.471888 c -0.1995,-0.5199 1.0687,-4.06395 2.81822,-7.875675 1.74952,-3.811725 3.18095,-7.023838 3.18095,-7.138025 0,-0.114194 1.54803,-3.477063 3.44008,-7.473045 3.79178,-8.008233 5.00665,-8.951818 6.73904,-5.234174 0.5206,1.117187 2.41512,5.265625 4.21006,9.21875 1.79493,3.953125 4.22481,9.271531 5.39974,11.818675 3.01572,6.537862 3.00188,7.199606 -0.15546,7.431019 -2.63658,0.193237 -3.52921,-0.38925 -4.93843,-3.2226 -0.60152,-1.209407 -1.2498,-1.356894 -6.67059,-1.5176 l -6.00431,-0.178007 -1.22355,2.365507 c -1.082,2.091831 -1.52491,2.387775 -3.82829,2.557969 -1.87832,0.138793 -2.70588,-0.07115 -2.96746,-0.752794 z M 369.375,71.583706 c 0,-1.255319 -1.99041,-5.333706 -2.60306,-5.333706 -0.75486,0 -3.12204,4.9574 -2.69619,5.646438 0.62933,1.018281 5.29925,0.742693 5.29925,-0.312732 z m 19.84375,-13.889535 c -0.66266,-0.173172 -1.09375,-0.883602 -1.09375,-1.802499 0,-1.663436 0.59331,-1.923364 1.75,-0.766672 0.58333,0.583333 0.91667,0.583333 1.5,0 1.15275,-1.15275 1.75,-0.898276 1.75,0.745632 0,0.822597 -0.44488,1.666347 -0.98862,1.875 -1.04642,0.401552 -1.19409,0.398948 -2.91763,-0.05146 z M 383.75,54.375 c 0,-0.34375 0.28125,-0.625 0.625,-0.625 0.34375,0 0.625,0.28125 0.625,0.625 0,0.34375 -0.28125,0.625 -0.625,0.625 -0.34375,0 -0.625,-0.28125 -0.625,-0.625 z"
       id="path3599"
       inkscape:connector-curvature="0" />
    <path
       style="fill:#444444"
       d="M 36.939695,95.15625 C 36.569091,92.835937 36.162361,89.953125 36.035851,88.75 35.709702,85.648294 33.955578,74.8855 32.159202,64.964012 31.315391,60.303597 30.625,55.623619 30.625,54.564064 c 0,-1.059556 -0.569032,-4.692005 -1.264515,-8.072108 L 28.09597,40.346312 29.360485,38.635964 C 30.055968,37.695273 30.625,36.791379 30.625,36.627313 c 0,-0.164067 1.207921,-2.073892 2.68427,-4.244058 2.247704,-3.304024 6.99209,-10.794863 10.009966,-15.804584 0.408795,-0.678606 1.797951,-2.878182 3.087014,-4.887947 C 47.695312,9.68096 48.75,7.888975 48.75,7.708535 c 0,-0.1804394 0.581651,-1.1449263 1.292559,-2.1433034 L 51.335118,3.75 l 27.710551,0 27.710561,0 1.77017,2.96875 c 0.97359,1.6328125 2.05501,3.44671 2.40314,4.030883 0.34813,0.584174 2.27267,3.677924 4.27677,6.875 2.00408,3.197077 6.02102,9.609742 8.92651,14.250367 3.67228,5.865311 5.1764,8.818565 4.93395,9.6875 -0.19183,0.6875 -0.49578,2.65625 -0.67545,4.375 -0.17967,1.71875 -0.85611,6.359375 -1.5032,10.3125 -0.6471,3.953125 -1.65814,10.140625 -2.24678,13.75 -0.58863,3.609375 -1.2872,8.53125 -1.55237,10.9375 -0.26517,2.40625 -0.92781,6.484375 -1.47254,9.0625 -0.54472,2.578125 -0.99064,5.742187 -0.99092,7.03125 l -5.1e-4,2.34375 -7.88346,0 -7.88347,0 0.35852,-2.65625 c 1.2332,-9.136794 1.22725,-9.696025 -0.11058,-10.412013 -1.74348,-0.933081 -6.499491,-0.859137 -7.84116,0.121919 -0.867212,0.634119 -1.175475,2.084406 -1.461281,6.875 l -0.362225,6.071344 -16.428556,0 c -15.111532,0 -16.453394,-0.08768 -16.738419,-1.09375 -0.170427,-0.601563 -0.500438,-3.420119 -0.73336,-6.263462 C 61.068974,86.255519 60.577946,85.625 56.5625,85.625 c -4.369287,0 -4.614452,0.4346 -4.22564,7.490694 l 0.344907,6.259306 -7.534123,0 -7.534123,0 -0.673826,-4.21875 z M 108.2513,72.5 c 0.58509,-2.921875 1.07734,-6.71875 1.09389,-8.4375 0.0166,-1.71875 0.58671,-6.5 1.267,-10.625 2.04347,-12.390761 1.95515,-13.050579 -3.09778,-23.140823 -2.39832,-4.789241 -4.85926,-8.904835 -5.46875,-9.145766 -1.62055,-0.640604 -13.457479,-0.602174 -14.48281,0.04702 -0.644813,0.408266 -0.771131,1.309054 -0.480706,3.427929 L 87.476087,27.5 l -8.413587,0 -8.413588,0 0.393944,-2.874139 c 0.290425,-2.118875 0.164106,-3.019664 -0.480706,-3.42793 -1.384456,-0.876575 -13.899965,-0.703982 -15.106189,0.208319 -0.568122,0.429687 -3.044591,4.809595 -5.503263,9.733127 l -4.470312,8.951877 1.008806,6.477197 c 0.554845,3.562458 1.010673,7.690364 1.012952,9.173123 0.0023,1.482759 0.562915,5.930301 1.245856,9.883426 0.682941,3.953125 1.243576,8.195312 1.245856,9.427081 0.0022,1.231775 0.194476,2.429919 0.427104,2.662544 0.232628,0.232631 13.099815,0.349819 28.593752,0.260419 L 107.1875,77.8125 108.2513,72.5 Z M 63.510319,60.350692 C 63.125844,56.598048 63.413769,52.184026 64.185475,50 c 0.544856,-1.542002 1.964456,3.084853 2.013494,6.5625 0.04787,3.396112 -0.951019,7.8125 -1.767038,7.8125 -0.280118,0 -0.69485,-1.810937 -0.921612,-4.024308 z M 93.325887,62.8125 C 93.043525,62.125 92.8125,59.171875 92.8125,56.25 c 0,-2.921875 0.231025,-5.875 0.513387,-6.5625 0.507,-1.234454 0.524494,-1.234911 1.40625,-0.03679 0.610894,0.830069 0.892863,2.914162 0.892863,6.599294 0,3.685132 -0.281969,5.769225 -0.892863,6.599294 -0.881756,1.198118 -0.89925,1.197662 -1.40625,-0.03681 z m 77.198083,20.236056 c -1.25869,-0.355637 -3.40379,-1.601231 -4.76689,-2.767993 -9.55635,-8.179882 -5.65709,-24.021205 6.53574,-26.552428 4.0077,-0.831994 8.75039,-0.03054 11.52945,1.948326 2.15303,1.533094 2.23235,2.223168 0.47102,4.098022 l -1.33172,1.417546 -2.56044,-1.306242 c -6.65104,-3.393104 -13.43332,0.421931 -13.99012,7.869444 -0.58134,7.775588 6.42873,12.489713 13.7541,9.249357 l 2.85261,-1.261844 1.30364,1.387662 c 1.82848,1.946325 1.65157,2.621613 -1.1773,4.493669 -2.82674,1.87065 -8.69617,2.533156 -12.62009,1.424481 z m 30.57856,0.07912 c -4.44817,-1.339362 -8.05003,-5.01275 -9.74615,-9.939693 -2.21382,-6.430757 0.864,-14.314324 6.94605,-17.791707 10.10471,-5.777318 22.48017,1.356133 22.47816,12.956838 -0.002,10.521369 -9.67729,17.785837 -19.67806,14.774562 z m 9.26191,-6.006718 c 5.71751,-2.713138 6.753,-11.458582 1.86489,-15.750396 -4.04988,-3.555841 -9.56176,-3.224976 -13.4713,0.808651 -1.73417,1.789213 -2.13821,2.744745 -2.37672,5.620826 -0.24797,2.99025 -0.0571,3.813181 1.39312,6.004525 2.70675,4.090181 8.01355,5.488069 12.59001,3.316394 z m 93.28453,5.890412 c -8.38929,-2.234056 -12.70332,-14.039294 -8.07753,-22.103945 4.32664,-7.543097 14.0267,-9.855686 21.17502,-5.048328 6.49804,4.370033 8.75848,12.38366 5.45991,19.35626 -3.27436,6.921451 -10.47776,9.947613 -18.5574,7.796013 z m 9.46357,-5.981094 c 1.19627,-0.601031 2.83835,-2.077156 3.64907,-3.280281 1.23897,-1.838688 1.43291,-2.774581 1.21621,-5.869237 -0.23503,-3.356432 -0.48239,-3.891226 -2.79951,-6.052619 -4.43517,-4.137074 -10.40353,-3.816728 -14.07892,0.755668 -1.52455,1.896638 -1.83101,2.859007 -1.85774,5.833957 -0.0359,3.993312 1.01223,5.925868 4.50199,8.300981 2.52327,1.717319 6.3196,1.84355 9.3689,0.311531 z m 23.13488,-1.856206 c -2.17696,-4.736362 -5.01887,-10.912262 -6.31535,-13.724216 -3.31954,-7.199763 -3.32087,-7.387359 -0.0524,-7.387359 l 2.69215,0 2.05145,4.6875 c 1.1283,2.578125 2.65902,6.008006 3.40161,7.621962 0.74258,1.61395 1.35015,3.20105 1.35015,3.526882 0,0.949975 1.73256,1.347162 2.32391,0.532756 0.71828,-0.989206 1.51961,-2.686506 4.77743,-10.1191 l 2.73947,-6.25 2.5796,-0.192186 c 3.34637,-0.249313 3.33577,0.277954 -0.1596,7.93873 -1.50656,3.3019 -3.68625,8.099243 -4.84375,10.660756 -3.41306,7.552963 -5.18568,10.8856 -5.90804,11.107469 -0.37317,0.114612 -2.45964,-3.666825 -4.6366,-8.403194 z M 229.51973,68.59375 229.6875,54.0625 l 8.95247,0 8.95247,0 2.45378,2.632048 c 2.25377,2.41751 2.45378,2.919321 2.45378,6.156427 0,3.337081 -0.14928,3.6758 -2.80895,6.373575 l -2.80894,2.849194 2.84485,5.218962 c 3.08986,5.668425 3.00722,6.111682 -1.06651,5.720082 -1.91253,-0.18385 -2.31888,-0.636363 -4.95041,-5.512788 l -2.86686,-5.3125 -3.07784,0 -3.07784,0 -0.18058,5.46875 -0.18059,5.46875 -2.48718,0 -2.48719,0 0.16777,-14.53125 z m 15.85546,-2.197069 c 1.431,-0.955506 2.13843,-3.154481 1.52982,-4.755258 -0.88373,-2.324366 -2.67184,-2.966182 -7.69597,-2.762358 l -4.52154,0.183435 -0.19363,3.045587 c -0.29706,4.672294 -0.1896,4.768207 5.33027,4.757344 2.67485,-0.005 5.17282,-0.2162 5.55105,-0.46875 z m 16.15511,15.932281 c -0.16801,-0.437818 -0.22949,-6.976881 -0.13663,-14.53125 l 0.16883,-13.735212 7.90875,0 c 7.85807,0 7.92615,0.01249 10.625,1.950034 4.29374,3.082534 6.27638,6.493778 6.62765,11.403228 0.3463,4.840001 -0.51034,7.408569 -3.67161,11.009057 -3.33778,3.801531 -5.96436,4.670487 -14.16565,4.686456 -5.14435,0.01 -7.13347,-0.201519 -7.35634,-0.782313 z m 14.32234,-5.065724 c 4.21605,-1.761582 6.23072,-6.847282 4.80702,-12.134519 -0.96185,-3.572026 -3.88882,-5.725774 -8.41646,-6.193068 -5.26144,-0.543027 -5.3682,-0.348386 -5.3682,9.786712 0,4.713118 0.1875,8.756806 0.41667,8.985968 0.73904,0.73905 6.43577,0.442869 8.56097,-0.445093 z M 353.125,82.23575 c 0,-0.489088 1.40625,-3.8858 3.125,-7.54825 1.71875,-3.66245 3.125,-6.74285 3.125,-6.845325 0,-0.102481 1.56213,-3.48555 3.47141,-7.517932 3.38856,-7.156639 3.50043,-7.30534 4.6875,-6.231057 0.66885,0.605302 1.21609,1.312214 1.21609,1.570917 0,0.258702 1.26562,3.179004 2.8125,6.489559 1.54687,3.310557 2.8125,6.123057 2.8125,6.250001 0,0.126943 1.22596,2.858362 2.72436,6.069825 4.1779,8.954318 4.15752,8.766318 0.92495,8.533856 -2.44952,-0.176156 -2.81589,-0.421744 -3.8195,-2.560294 l -1.11008,-2.365444 -6.36215,0.177944 -6.36214,0.17795 -1.23272,2.34375 c -1.09653,2.084819 -1.49676,2.34375 -3.62272,2.34375 -1.65014,0 -2.39,-0.275281 -2.39,-0.88925 z M 369.77486,72.1852 c 0.47515,-1.238212 -2.04682,-6.5602 -3.10873,-6.5602 -1.0318,0 -3.84923,5.870844 -3.26842,6.810613 0.66626,1.078043 5.94695,0.870687 6.37715,-0.250413 z M 391.5625,56.25 c 0.21245,-0.34375 0.5103,-0.625 0.66189,-0.625 0.15158,0 0.27561,0.28125 0.27561,0.625 0,0.34375 -0.29785,0.625 -0.66189,0.625 -0.36404,0 -0.48806,-0.28125 -0.27561,-0.625 z"
       id="path3597"
       inkscape:connector-curvature="0" />
    <path
       style="fill:#414141"
       d="m 106.34868,94.375 c 0,-0.859375 0.14186,-1.210938 0.31525,-0.78125 0.17338,0.429687 0.17338,1.132812 0,1.5625 -0.17339,0.429687 -0.31525,0.07813 -0.31525,-0.78125 z M 50.674342,87.760419 c 0.02999,-0.728094 0.178088,-0.876188 0.377604,-0.377607 0.180545,0.451169 0.15834,0.990232 -0.04934,1.197919 -0.207682,0.207682 -0.3554,-0.161462 -0.328262,-0.820312 z m 56.249998,0 c 0.03,-0.728094 0.17809,-0.876188 0.3776,-0.377607 0.18055,0.451169 0.15835,0.990232 -0.0493,1.197919 -0.20769,0.207682 -0.3554,-0.161462 -0.32826,-0.820312 z m 63.82319,-5.196194 c -6.40484,-2.212194 -9.76166,-7.072075 -9.79147,-14.175737 -0.0162,-3.851532 0.22621,-4.819919 1.87296,-7.483478 1.17242,-1.896343 3.05465,-3.778569 4.95099,-4.950987 2.70846,-1.674512 3.60288,-1.8901 7.79598,-1.879116 7.07655,0.01854 11.13566,2.616224 8.38547,5.366408 -1.14615,1.146149 -1.32325,1.156829 -3.24939,0.195942 -3.39121,-1.691761 -6.43555,-1.806276 -9.29108,-0.349491 -8.72515,4.45124 -6.78037,17.407797 2.88707,19.234228 1.48582,0.280712 3.06318,0.0025 5.26972,-0.929856 2.93191,-1.238694 3.22758,-1.259525 4.28569,-0.301944 2.31882,2.0985 0.60708,4.17375 -4.58187,5.554881 -4.20488,1.1192 -4.50961,1.109175 -8.53407,-0.28085 z m 30.95266,0.252413 c -4.10961,-1.130257 -6.90018,-3.438119 -8.82308,-7.296875 -3.173,-6.3674 -1.72128,-13.826842 3.57282,-18.358402 6.67453,-5.713146 17.23706,-3.913395 21.97104,3.743649 1.64676,2.663559 1.88913,3.631946 1.87297,7.483478 -0.0304,7.251706 -3.76948,12.428556 -10.39857,14.397181 -3.77892,1.122225 -4.2213,1.123894 -8.19518,0.031 z m 7.85114,-4.927163 c 1.10614,-0.473287 2.8419,-1.743794 3.85724,-2.823344 1.56,-1.658656 1.88002,-2.566456 2.06518,-5.858225 0.17332,-3.081425 -0.0429,-4.312756 -1.03498,-5.8927 -1.5212,-2.422676 -3.66535,-3.897409 -6.64294,-4.568966 -6.3975,-1.442869 -13.00077,4.647279 -11.96426,11.034541 1.07211,6.606638 7.85752,10.616975 13.71976,8.108694 z m 94.3212,4.703063 c -10.48542,-3.711169 -13.39109,-17.015201 -5.41025,-24.771687 6.57148,-6.386752 16.93554,-5.137973 22.44761,2.704741 1.58752,2.258771 1.91587,3.381627 2.09668,7.170046 0.14935,3.129225 -0.0889,5.207224 -0.7855,6.850018 -2.94603,6.948025 -11.21155,10.572925 -18.34854,8.046882 z m 9.0018,-5.033432 c 6.41669,-2.914112 7.74409,-11.210106 2.58264,-16.140981 -6.48709,-6.197301 -16.70274,-1.790453 -16.706,7.206663 -0.002,7.560918 7.16432,12.094731 14.12336,8.934318 z M 230,68.75 l 0,-14.375 8.72917,0 8.72916,0 2.17829,2.178284 c 3.87372,3.873717 3.76531,8.316841 -0.30216,12.38431 -1.3527,1.352706 -2.45946,2.781387 -2.45946,3.17485 0,0.393462 1.1176,2.821312 2.48356,5.395225 1.36595,2.573906 2.49095,4.890768 2.5,5.148581 0.009,0.257812 -0.92435,0.46875 -2.07419,0.46875 -2.49108,0 -3.37155,-0.893069 -5.93685,-6.021769 C 241.40637,72.222744 240.40342,71.25 237.8125,71.25 c -3.33799,0 -4.0625,1.234044 -4.0625,6.919644 l 0,4.955356 -1.875,0 -1.875,0 0,-14.375 z m 16.61812,-2.782869 c 1.23367,-1.68715 1.09813,-4.311541 -0.31268,-6.054141 -1.07534,-1.328228 -1.69377,-1.47549 -6.19632,-1.47549 -2.75096,0 -5.23685,0.234375 -5.52419,0.520833 -0.94137,0.938497 -0.61097,7.278054 0.41507,7.964129 0.51562,0.344782 3.14221,0.542238 5.83687,0.438794 3.98194,-0.152856 5.0645,-0.413912 5.78125,-1.394125 z m 15.72563,16.812075 C 262.08594,82.511056 261.875,76.010419 261.875,68.333331 l 0,-13.958331 7.21854,0 c 7.77613,0 9.59758,0.513724 12.99495,3.665101 2.92853,2.716492 4.16151,5.797049 4.16151,10.397399 0,5.938456 -2.78478,10.686662 -7.78374,13.271725 -2.0372,1.053481 -15.29257,1.933181 -16.12251,1.069981 z m 14.42402,-5.536256 c 3.88048,-2.006675 5.67639,-7.0281 4.23112,-11.830356 -1.13086,-3.757572 -3.4574,-5.810608 -7.54673,-6.65955 -4.03984,-0.838669 -6.33809,-0.348119 -6.82207,1.45614 -0.61618,2.29706 -0.41712,15.237047 0.26186,17.022897 0.61842,1.626556 0.77508,1.676381 4.27366,1.359144 1.99743,-0.181119 4.51841,-0.787844 5.60216,-1.348275 z m 61.80251,2.2883 C 331.51226,64.247206 327.5,55.31378 327.5,54.882887 c 0,-0.279338 1.09485,-0.507887 2.433,-0.507887 l 2.43301,0 2.95482,6.71875 c 1.62516,3.695312 3.23501,7.507444 3.57746,8.471406 0.45756,1.287988 0.97473,1.702244 1.95067,1.5625 1.0512,-0.150519 2.06122,-1.883794 4.84543,-8.315156 l 3.5174,-8.125 2.64672,-0.195368 c 1.51191,-0.111601 2.55182,0.06239 2.42537,0.405807 -1.71195,4.649065 -12.89243,28.227061 -13.38504,28.227061 -0.36795,0 -1.41581,-1.617188 -2.32857,-3.59375 z m 14.94236,3.090337 c -0.3819,-0.617931 12.39608,-28.445328 13.18203,-28.70731 0.30949,-0.103163 1.07191,0.872359 1.69427,2.167827 2.931,6.101 11.61106,25.841721 11.61106,26.406596 0,0.349963 -0.84788,0.6363 -1.88419,0.6363 -1.46215,0 -2.1538,-0.454969 -3.08793,-2.03125 C 372.94441,77.578056 372.7747,77.5 367.21397,77.5 c -2.8802,0 -5.6936,0.175313 -6.25198,0.389581 -0.55838,0.214275 -1.57147,1.4799 -2.25131,2.8125 -1.00945,1.978694 -1.57076,2.422919 -3.0615,2.422919 -1.00397,0 -1.96542,-0.226538 -2.13654,-0.503413 z m 16.64222,-10.133906 c 0.77105,-1.231544 -1.92637,-7.07795 -3.39624,-7.361019 -0.72568,-0.139756 -1.43598,0.689094 -2.33799,2.728244 -1.4808,3.347606 -1.63747,5.021513 -0.51438,5.495988 1.53596,0.6489 5.65846,0.0794 6.24861,-0.863213 z m -248.23052,9.022738 c 0.03,-0.728094 0.17809,-0.876188 0.3776,-0.377607 0.18055,0.451169 0.15835,0.990232 -0.0493,1.197919 -0.20769,0.207682 -0.3554,-0.161462 -0.32826,-0.820312 z M 48.848684,75 c 0,-0.859375 0.141858,-1.210938 0.315242,-0.78125 0.173382,0.429687 0.173382,1.132812 0,1.5625 C 48.990542,76.210937 48.848684,75.859375 48.848684,75 Z m 74.325656,-3.489581 c 0.03,-0.728094 0.17809,-0.876188 0.3776,-0.377607 0.18055,0.451169 0.15835,0.990232 -0.0493,1.197919 -0.20769,0.207681 -0.3554,-0.161462 -0.32826,-0.820312 z M 94.496844,55.9375 c 0.01275,-1.03125 0.152812,-1.37746 0.311275,-0.769355 0.158462,0.608104 0.148044,1.451854 -0.02319,1.875 -0.171175,0.423145 -0.300825,-0.0744 -0.288087,-1.105645 z m -1.25,-0.625 c 0.01275,-1.03125 0.152812,-1.37746 0.311275,-0.769355 0.158462,0.608104 0.148044,1.451854 -0.02319,1.875 -0.171175,0.423145 -0.300825,-0.0744 -0.288087,-1.105645 z m 0.919825,-3.229167 c -0.229169,-0.229166 -0.408119,-0.861979 -0.397663,-1.40625 0.01563,-0.812692 0.137569,-0.785692 0.682288,0.151044 0.672987,1.157306 0.477881,2.017714 -0.284625,1.255206 z M 75.182244,26.410939 c 2.334606,-0.12058 5.990856,-0.119686 8.125,0.002 2.134137,0.121673 0.224006,0.220329 -4.244744,0.219236 -4.46875,-0.0011 -6.214869,-0.100644 -3.880256,-0.221224 z M 60.175108,19.53983 c 1.643185,-0.129173 4.174436,-0.127614 5.624998,0.0034 1.450569,0.131077 0.106144,0.236764 -2.987606,0.234859 -3.09375,-0.0019 -4.280576,-0.10915 -2.637392,-0.238323 z m 31.856142,7.5e-4 c 1.632812,-0.128749 4.304687,-0.128749 5.9375,0 1.632812,0.128749 0.296875,0.234089 -2.96875,0.234089 -3.265625,0 -4.601563,-0.10534 -2.96875,-0.234089 z M 46.875,12.5 c 0,-0.34375 0.28125,-0.625 0.625,-0.625 0.34375,0 0.625,0.28125 0.625,0.625 0,0.34375 -0.28125,0.625 -0.625,0.625 -0.34375,0 -0.625,-0.28125 -0.625,-0.625 z m 2.5,-4.375 C 49.375,7.78125 49.65625,7.5 50,7.5 c 0.34375,0 0.625,0.28125 0.625,0.625 0,0.34375 -0.28125,0.625 -0.625,0.625 -0.34375,0 -0.625,-0.28125 -0.625,-0.625 z"
       id="path3595"
       inkscape:connector-curvature="0" />
    <path
       style="fill:#3c3c3c"
       d="m 106.34868,94.375 c 0,-0.859375 0.14186,-1.210938 0.31525,-0.78125 0.17338,0.429687 0.17338,1.132812 0,1.5625 -0.17339,0.429687 -0.31525,0.07813 -0.31525,-0.78125 z M 50.674342,87.760419 c 0.02999,-0.728094 0.178088,-0.876188 0.377604,-0.377607 0.180545,0.451169 0.15834,0.990232 -0.04934,1.197919 -0.207682,0.207682 -0.3554,-0.161462 -0.328262,-0.820312 z m 56.249998,0 c 0.03,-0.728094 0.17809,-0.876188 0.3776,-0.377607 0.18055,0.451169 0.15835,0.990232 -0.0493,1.197919 -0.20769,0.207682 -0.3554,-0.161462 -0.32826,-0.820312 z m 63.38816,-5.261181 c -2.83624,-0.889007 -6.12805,-3.911625 -7.79974,-7.161925 -4.5652,-8.8762 1.15725,-20.016766 10.9406,-21.299343 3.45845,-0.453396 7.79403,0.454423 10.07432,2.109443 1.70797,1.23963 1.79642,1.833531 0.48836,3.278928 -0.93328,1.031264 -1.13127,1.022108 -3.84375,-0.177754 -4.93818,-2.18439 -9.65873,-0.911066 -12.94617,3.492113 -1.82508,2.444494 -1.82508,8.949106 0,11.3936 3.28744,4.403181 8.00799,5.6765 12.94617,3.492112 2.71249,-1.199862 2.91047,-1.209018 3.84375,-0.17775 1.45437,1.607063 1.22653,2.299475 -1.26297,3.838063 -2.52843,1.562662 -9.23736,2.216544 -12.44057,1.212512 z m 30.60015,-0.03944 c -2.82326,-0.820975 -6.83033,-4.545675 -8.33579,-7.748412 -2.9336,-6.240975 -0.72614,-14.207026 5.035,-18.169699 9.77686,-6.724811 22.57774,0.07727 22.61155,12.015249 0.0291,10.291887 -9.10749,16.86985 -19.31076,13.902862 z m 9.72811,-4.96785 c 6.13844,-3.1316 7.17173,-11.488881 2.01601,-16.305461 -5.0598,-4.726965 -13.11191,-3.32057 -16.01499,2.797205 -4.27731,9.01375 5.09039,18.053075 13.99898,13.508256 z m 92.79674,4.96995 c -9.39213,-2.756862 -12.35887,-17.534481 -4.90099,-24.412242 2.78428,-2.567702 4.6781,-3.545223 7.71349,-3.981412 8.78346,-1.262197 16.855,5.541695 16.86914,14.219817 0.007,4.563662 -1.7831,8.505906 -5.18641,11.419012 -3.75229,3.211819 -9.32814,4.271513 -14.49523,2.754825 z m 10.82781,-5.400844 c 2.84103,-2.104181 4.48469,-5.092206 4.48469,-8.152775 0,-5.1607 -2.77756,-8.886662 -7.59085,-10.182745 -3.57452,-0.962517 -6.65464,-0.141488 -9.52951,2.540156 -2.33889,2.181696 -2.51475,2.591952 -2.75963,6.43772 -0.22049,3.462732 -0.0391,4.467532 1.1558,6.400857 2.7342,4.424019 10.17292,5.96865 14.2395,2.956787 z m 25.93527,5.282694 c -0.31762,-0.429688 -2.22067,-4.4375 -4.22901,-8.90625 -2.00834,-4.46875 -4.73603,-10.473238 -6.06154,-13.343309 -1.32552,-2.870069 -2.41003,-5.331007 -2.41003,-5.46875 0,-0.137742 1.05469,-0.245641 2.34375,-0.239775 2.25543,0.01026 2.40125,0.145693 3.86956,3.59375 5.44233,12.780265 5.82845,13.528009 7.11661,13.781634 1.01381,0.199606 2.63842,-2.873463 6.96105,-13.1673 1.75304,-4.174649 1.79679,-4.21875 4.18618,-4.21875 l 2.41462,0 -0.87905,2.03125 c -0.48347,1.117187 -1.91793,4.28125 -3.18767,7.03125 -1.26974,2.75 -2.95485,6.40625 -3.74467,8.125 -0.78982,1.71875 -2.30904,5.023437 -3.37604,7.34375 -1.067,2.320312 -2.04941,4.21875 -2.18315,4.21875 -0.13372,0 -0.503,-0.351563 -0.82061,-0.78125 z M 121.92434,81.510419 c 0.03,-0.728094 0.17809,-0.876188 0.3776,-0.377607 0.18055,0.451169 0.15835,0.990232 -0.0493,1.197919 -0.20769,0.207682 -0.3554,-0.161462 -0.32826,-0.820312 z M 230,68.4375 l 0,-14.0625 8.41575,0 8.41576,0 2.19406,1.926416 c 4.1336,3.629347 4.23265,8.565359 0.25177,12.54624 -1.32128,1.321288 -2.40234,2.846431 -2.40234,3.389206 0,0.542776 1.12764,3.090325 2.50588,5.661226 l 2.50588,4.674362 -2.547,-0.192475 c -2.47475,-0.187013 -2.61774,-0.324819 -5.04055,-4.857713 -1.37145,-2.565875 -2.79364,-5.026812 -3.16041,-5.46875 -0.84156,-1.014012 -5.63963,-1.052687 -6.6388,-0.0535 -0.45513,0.455132 -0.75,2.666669 -0.75,5.625 l 0,4.875 -1.875,0 -1.875,0 0,-14.0625 z m 16.11093,-1.910438 c 1.01323,-0.709693 1.38648,-1.597499 1.3795,-3.28125 -0.0111,-2.659617 -0.3996,-3.40559 -2.29309,-4.402247 -1.81728,-0.956544 -9.73262,-0.933284 -10.69734,0.03144 -0.97314,0.973141 -0.97314,6.901863 0,7.875 1.14611,1.146106 9.89621,0.9781 11.61093,-0.222938 z m 15.76407,1.910438 0,-14.0625 6.93679,0 c 7.49839,0 9.50749,0.564904 12.91642,3.631737 5.91728,5.323476 6.08966,15.486075 0.35328,20.828163 -3.38148,3.149056 -5.21018,3.6651 -12.98795,3.6651 l -7.21854,0 0,-14.0625 z m 13.95551,9.459981 c 6.22813,-2.602281 7.94222,-12.19845 3.00948,-16.8483 C 276.13985,58.50389 268.73151,57.143494 267,58.875 c -1.04512,1.045121 -1.04512,18.079881 0,19.125 1.01211,1.012113 6.31003,0.950606 8.83051,-0.102519 z M 353.75,81.972363 c 0,-0.333757 1.22647,-3.234388 2.7255,-6.445851 1.49903,-3.211456 3.49095,-7.526512 4.42649,-9.589012 5.37947,-11.859566 5.5529,-12.170508 6.39748,-11.469575 0.45404,0.376822 0.82553,0.905949 0.82553,1.175838 0,0.269889 1.26562,3.199344 2.8125,6.509899 1.54687,3.310557 2.8125,6.124857 2.8125,6.254007 0,0.12915 1.40625,3.20895 3.125,6.843993 1.71875,3.635044 3.125,6.752982 3.125,6.928757 0,0.175768 -0.98216,0.319581 -2.18258,0.319581 -1.90956,0 -2.32041,-0.293188 -3.28437,-2.34375 l -1.10179,-2.34375 -5.62188,-0.183794 c -7.12878,-0.233062 -7.99316,0.0056 -9.09494,2.509163 -0.71442,1.623481 -1.32427,2.09035 -2.93319,2.245481 -1.11719,0.107719 -2.03125,-0.07722 -2.03125,-0.410988 z m 16.76024,-9.636501 C 370.86658,70.461656 368.0514,65 366.72901,65 c -1.70895,0 -4.66587,6.533031 -3.56001,7.865519 1.16226,1.400437 7.05511,0.975281 7.34124,-0.529656 z M 48.848684,75 c 0,-0.859375 0.141858,-1.210938 0.315242,-0.78125 0.173382,0.429687 0.173382,1.132812 0,1.5625 C 48.990542,76.210937 48.848684,75.859375 48.848684,75 Z m 74.325656,-3.489581 c 0.03,-0.728094 0.17809,-0.876188 0.3776,-0.377607 0.18055,0.451169 0.15835,0.990232 -0.0493,1.197919 -0.20769,0.207681 -0.3554,-0.161462 -0.32826,-0.820312 z M 94.496844,55.9375 c 0.01275,-1.03125 0.152812,-1.37746 0.311275,-0.769355 0.158462,0.608104 0.148044,1.451854 -0.02319,1.875 -0.171175,0.423145 -0.300825,-0.0744 -0.288087,-1.105645 z m -1.25,-0.625 c 0.01275,-1.03125 0.152812,-1.37746 0.311275,-0.769355 0.158462,0.608104 0.148044,1.451854 -0.02319,1.875 -0.171175,0.423145 -0.300825,-0.0744 -0.288087,-1.105645 z m 0.919825,-3.229167 c -0.229169,-0.229166 -0.408119,-0.861979 -0.397663,-1.40625 0.01563,-0.812692 0.137569,-0.785692 0.682288,0.151044 0.672987,1.157306 0.477881,2.017714 -0.284625,1.255206 z M 75.182244,26.410939 c 2.334606,-0.12058 5.990856,-0.119686 8.125,0.002 2.134137,0.121673 0.224006,0.220329 -4.244744,0.219236 -4.46875,-0.0011 -6.214869,-0.100644 -3.880256,-0.221224 z M 60.175108,19.53983 c 1.643185,-0.129173 4.174436,-0.127614 5.624998,0.0034 1.450569,0.131077 0.106144,0.236764 -2.987606,0.234859 -3.09375,-0.0019 -4.280576,-0.10915 -2.637392,-0.238323 z m 31.856142,7.5e-4 c 1.632812,-0.128749 4.304687,-0.128749 5.9375,0 1.632812,0.128749 0.296875,0.234089 -2.96875,0.234089 -3.265625,0 -4.601563,-0.10534 -2.96875,-0.234089 z M 46.875,12.5 c 0,-0.34375 0.28125,-0.625 0.625,-0.625 0.34375,0 0.625,0.28125 0.625,0.625 0,0.34375 -0.28125,0.625 -0.625,0.625 -0.34375,0 -0.625,-0.28125 -0.625,-0.625 z m 2.5,-4.375 C 49.375,7.78125 49.65625,7.5 50,7.5 c 0.34375,0 0.625,0.28125 0.625,0.625 0,0.34375 -0.28125,0.625 -0.625,0.625 -0.34375,0 -0.625,-0.28125 -0.625,-0.625 z"
       id="path3593"
       inkscape:connector-curvature="0" />
    <path
       style="fill:#363636"
       d="m 171.14897,82.386375 c -1.25869,-0.335188 -3.44524,-1.599531 -4.859,-2.809656 -9.11982,-7.806232 -5.38799,-22.562119 6.36628,-25.172672 3.56286,-0.791289 7.8796,0.0023 10.61766,1.951985 1.80428,1.284765 1.81651,1.33132 0.65494,2.492897 -1.16158,1.161578 -1.24391,1.158656 -4.40844,-0.156463 -3.72734,-1.549015 -6.36973,-1.312556 -9.54331,0.854001 -3.19394,2.180455 -4.46636,5.082077 -4.20862,9.597258 0.29361,5.143475 2.34666,7.933712 6.81366,9.260269 2.93687,0.872156 3.43491,0.853643 6.70129,-0.249075 3.2918,-1.111307 3.60552,-1.121657 4.67451,-0.154232 1.10469,0.999719 1.08779,1.087007 -0.46955,2.426575 -2.88253,2.47945 -7.58302,3.225738 -12.33942,1.959113 z m 29.94351,-0.115069 C 195.52794,80.195287 191.25,74.318381 191.25,68.75 c 0,-3.535544 2.66266,-8.881854 5.73193,-11.509033 8.89861,-7.616879 22.99376,-0.722025 23.01221,11.256758 0.009,5.530437 -2.41155,9.797881 -7.25728,12.797213 -2.59522,1.606343 -8.60509,2.110268 -11.64438,0.976368 z m 9.84502,-4.513425 c 3.92541,-1.860306 6.0815,-7.580969 4.73787,-12.5708 -1.97399,-7.330852 -11.96943,-9.382657 -17.56811,-3.606277 -2.07222,2.13799 -2.16976,2.442946 -2.16976,6.783809 0,3.988593 0.20917,4.819431 1.70813,6.784668 2.96031,3.881163 8.36746,4.942344 13.29187,2.6086 z m 93.5976,4.757869 c -3.46365,-0.822262 -7.35991,-4.30835 -8.98188,-8.036319 -3.65679,-8.404887 1.26607,-18.085072 10.20695,-20.07066 6.39612,-1.420449 12.34139,1.649124 15.68817,8.099892 2.17286,4.1881 2.19219,7.729018 0.0667,12.221943 -3.07282,6.495413 -9.67049,9.520388 -16.97993,7.785144 z m 9.17947,-4.869687 c 1.21354,-0.595963 2.86729,-2.067938 3.67501,-3.271063 1.25883,-1.8751 1.43573,-2.787919 1.23863,-6.391769 -0.20771,-3.79785 -0.43779,-4.418725 -2.38008,-6.422662 -2.63807,-2.7218 -5.77104,-3.742767 -9.68436,-3.155928 -7.84711,1.176745 -11.03734,11.148653 -5.52035,17.255297 3.34652,3.7042 7.76303,4.396456 12.67115,1.986125 z M 230,68.389075 l 0,-14.110926 8.30852,0.204676 c 7.77109,0.191436 8.43434,0.305745 10.25357,1.767175 4.61998,3.711324 4.49794,9.869819 -0.26018,13.130138 -1.12855,0.773293 -2.04682,1.861925 -2.04059,2.419175 0.006,0.557256 0.87439,2.560062 1.92925,4.450687 1.05486,1.890625 2.1678,4.070313 2.47321,4.84375 0.50771,1.285775 0.37924,1.40625 -1.49952,1.40625 -1.95095,0 -2.19779,-0.276394 -4.88404,-5.46875 l -2.82925,-5.46875 -3.69423,0 -3.69424,0 -0.18058,5.46875 -0.18059,5.46875 -1.85066,0 -1.85067,0 0,-14.110925 z M 246.45731,66.7167 c 0.58918,-0.430813 1.23888,-1.816406 1.44378,-3.079081 0.31187,-1.92181 0.10658,-2.561766 -1.26025,-3.928595 -1.54635,-1.546355 -1.92257,-1.623243 -7.10557,-1.452166 l -5.47277,0.180642 -0.19001,3.680018 c -0.10451,2.024007 -0.043,4.06307 0.13663,4.531251 0.43787,1.141069 10.90249,1.198175 12.44819,0.06793 z m 16.04269,1.653344 0,-14.129951 7.13776,0.226582 c 6.76533,0.214761 7.27856,0.325541 9.83629,2.123186 7.94191,5.581781 8.99972,15.518451 2.34469,22.024989 C 278.47472,81.884244 276.46278,82.5 269.12429,82.5 l -6.62429,0 0,-14.129956 z m 11.36473,10.296962 c 6.03934,-1.295206 8.76431,-5.835131 7.71247,-12.849325 -0.81149,-5.411402 -5.35779,-8.166393 -12.5147,-7.583717 l -2.5,0.203536 -0.17335,9.683381 c -0.2155,12.038063 -0.11859,12.174782 7.47558,10.546125 z M 340.125,81.75 c -0.4125,-0.4125 -0.75,-0.949006 -0.75,-1.192237 0,-0.243226 -1.26563,-3.150869 -2.8125,-6.461425 -1.54688,-3.310557 -2.8125,-6.123057 -2.8125,-6.25 0,-0.250594 -5.56242,-12.234569 -6.03521,-13.002588 -0.15871,-0.257812 0.71937,-0.46875 1.95129,-0.46875 1.74446,0 2.36055,0.311024 2.78554,1.40625 0.45819,1.180736 2.71034,6.242389 5.07514,11.40625 0.31485,0.6875 0.85254,2.023437 1.19487,2.96875 1.00883,2.785719 3.27396,2.332025 4.6806,-0.9375 0.62854,-1.460938 1.64076,-3.78125 2.24938,-5.15625 0.60862,-1.375 1.82051,-4.117187 2.6931,-6.09375 1.43235,-3.244566 1.77203,-3.59375 3.4959,-3.59375 1.05016,0 1.90939,0.173066 1.90939,0.384591 0,0.211525 -0.98438,2.486595 -2.1875,5.05571 -1.20313,2.569114 -2.1875,4.770024 -2.1875,4.890912 0,0.120881 -1.14996,2.697374 -2.55546,5.725537 -4.42217,9.527619 -4.94454,10.732931 -4.94454,11.408963 0,0.878218 -0.82377,0.835518 -1.75,-0.09071 z m 13.625,0.495262 c 0,-0.1401 1.22715,-2.882287 2.727,-6.09375 1.49985,-3.211456 3.35309,-7.245262 4.11831,-8.964012 0.76523,-1.71875 2.17513,-4.8125 3.13312,-6.875 0.95799,-2.0625 1.90842,-4.242188 2.11207,-4.84375 0.50603,-1.494776 1.48604,-1.374864 2.00008,0.244726 0.23365,0.736161 1.54061,3.759599 2.90435,6.71875 4.30809,9.348018 4.74278,10.310074 6.10211,13.505274 0.7312,1.71875 1.75565,3.898437 2.27654,4.84375 l 0.94709,1.71875 -2.12803,0 c -1.9053,0 -2.23167,-0.26385 -3.11825,-2.520862 l -0.99022,-2.520863 -7.04418,0.177113 -7.04417,0.177112 -1.23291,2.34375 C 357.53238,82.020238 356.91871,82.5 355.515,82.5 c -0.97075,0 -1.765,-0.114631 -1.765,-0.254738 z m 17.25055,-9.371699 c 0.18498,-0.482044 -0.20427,-2.099232 -0.86501,-3.59375 -0.66073,-1.494525 -1.37458,-3.209501 -1.58632,-3.811063 -0.21175,-0.601563 -0.96013,-1.09375 -1.66308,-1.09375 -0.94012,0 -1.68902,0.898406 -2.83212,3.39745 -2.50931,5.485925 -2.26712,5.97755 2.94476,5.97755 2.56813,0 3.76613,-0.262381 4.00177,-0.876437 z"
       id="path3591"
       inkscape:connector-curvature="0" />
  </g>
</svg>
