<?xml version="1.0" encoding="UTF-8" standalone="no"?>
<!-- Created with Inkscape (http://www.inkscape.org/) -->

<svg
   xmlns:dc="http://purl.org/dc/elements/1.1/"
   xmlns:cc="http://creativecommons.org/ns#"
   xmlns:rdf="http://www.w3.org/1999/02/22-rdf-syntax-ns#"
   xmlns:svg="http://www.w3.org/2000/svg"
   xmlns="http://www.w3.org/2000/svg"
   xmlns:xlink="http://www.w3.org/1999/xlink"
   xmlns:sodipodi="http://sodipodi.sourceforge.net/DTD/sodipodi-0.dtd"
   xmlns:inkscape="http://www.inkscape.org/namespaces/inkscape"
   id="svg3448"
   version="1.1"
   inkscape:version="0.91 r13725"
   width="406.875"
   height="108.75"
   viewBox="0 0 406.875 108.75"
   sodipodi:docname="Framework7.svg">
  <metadata
     id="metadata3454">
    <rdf:RDF>
      <cc:Work
         rdf:about="">
        <dc:format>image/svg+xml</dc:format>
        <dc:type
           rdf:resource="http://purl.org/dc/dcmitype/StillImage" />
        <dc:title></dc:title>
      </cc:Work>
    </rdf:RDF>
  </metadata>
  <defs
     id="defs3452" />
  <sodipodi:namedview
     pagecolor="#ffffff"
     bordercolor="#666666"
     borderopacity="1"
     objecttolerance="10"
     gridtolerance="10"
     guidetolerance="10"
     inkscape:pageopacity="0"
     inkscape:pageshadow="2"
     inkscape:window-width="640"
     inkscape:window-height="480"
     id="namedview3450"
     showgrid="false"
     inkscape:zoom="0.64393241"
     inkscape:cx="203.4375"
     inkscape:cy="54.375"
     inkscape:window-x="0"
     inkscape:window-y="0"
     inkscape:window-maximized="0"
     inkscape:current-layer="svg3448" />
  <image
     width="406.875"
     height="108.75"
     preserveAspectRatio="none"
     style="image-rendering:optimizeQuality"
     xlink:href="file:///media/havoc/USB%20DISK/pics/_Products/Framework7.png"
     id="image3456"
     x="0"
     y="0"
     sodipodi:absref="/media/havoc/USB DISK/pics/_Products/Framework7.png" />
  <g
     id="g3552">
    <path
       style="fill:#fdfdfd"
       d="M 0,54.375 0,0 203.4375,0 406.875,0 l 0,54.375 0,54.375 -203.4375,0 L 0,108.75 0,54.375 Z"
       id="path3568"
       inkscape:connector-curvature="0" />
    <path
       style="fill:#f2cfd0"
       d="m 85.625,52.1875 0,-30.9375 117.5,0 117.5,0 0,30.9375 0,30.9375 -117.5,0 -117.5,0 0,-30.9375 z m 197.40571,21.200356 c -0.59315,-0.59315 -1.70679,-0.892525 -2.79018,-0.750068 l -1.80303,0.237075 2.1875,0.6937 c 3.08729,0.979043 3.53205,0.945631 2.40571,-0.180707 z m 15.9276,-0.900225 c 0.28645,-0.256718 -0.62761,-0.160231 -2.03125,0.214425 -1.40363,0.37465 -2.55206,0.8897 -2.55206,1.14455 0,0.505463 3.74048,-0.603606 4.58331,-1.358975 z M 274.375,69.441869 c 0,-0.306975 -0.46166,-0.735288 -1.0259,-0.951807 -0.8578,-0.329168 -0.89646,-0.237712 -0.23598,0.558132 0.90009,1.084525 1.26188,1.1974 1.26188,0.393675 z M 304.0625,69.375 c 0.21245,-0.34375 0.10502,-0.625 -0.23873,-0.625 -0.34375,0 -0.79882,0.28125 -1.01127,0.625 -0.21245,0.34375 -0.10502,0.625 0.23873,0.625 0.34375,0 0.79882,-0.28125 1.01127,-0.625 z M 307.5,65.551231 c 0,-0.34375 -0.28125,-0.451181 -0.625,-0.238731 -0.34375,0.21245 -0.625,0.667519 -0.625,1.011269 0,0.34375 0.28125,0.451181 0.625,0.238731 0.34375,-0.21245 0.625,-0.667519 0.625,-1.011269 z m -37.76646,-1.034862 c -1.07985,-1.031388 -1.09661,-1.014625 -0.38091,0.380912 0.41175,0.802875 0.92006,1.288369 1.12956,1.078869 0.2095,-0.2095 -0.1274,-0.8664 -0.74865,-1.459781 z M 284.8754,61.5625 c 0,-0.989791 -0.10417,-0.924739 -0.5004,0.3125 -0.27522,0.859375 -0.5004,2.125 -0.5004,2.8125 0,0.989794 0.10417,0.924737 0.5004,-0.3125 0.27522,-0.859375 0.5004,-2.125 0.5004,-2.8125 z M 100,57.450843 100.3125,52.8125 104.22934,52.5 c 2.15427,-0.171875 3.91684,-0.59375 3.91684,-0.9375 0,-0.34375 -1.76257,-0.765625 -3.91684,-0.9375 l -3.91684,-0.3125 0,-3.4375 0,-3.4375 4.22826,-0.3125 c 6.13958,-0.453762 5.55577,-1.528356 -0.94701,-1.743083 l -5.46875,-0.180583 0,10.701416 c 0,8.281795 0.176644,10.6432 0.78125,10.443926 0.4914,-0.161959 0.897194,-1.978365 1.09375,-4.895833 z m 16.74781,-0.311315 c 0.10193,-2.721211 0.43919,-5.201526 0.74948,-5.511812 0.31028,-0.310287 1.61004,-0.734162 2.88835,-0.941945 1.27831,-0.207784 2.44105,-0.728334 2.58386,-1.15678 0.32993,-0.989765 -1.76874,-1.014524 -3.89454,-0.04594 -1.23067,0.560729 -1.78118,0.560729 -2.34192,0 C 115.25022,48.000216 115,48.894505 115,55.677083 c 0,5.262863 0.18769,6.864979 0.78125,6.668591 0.51531,-0.1705 0.84433,-1.942696 0.96656,-5.206147 z m 18.36038,4.677571 c 0.9228,-0.493866 1.46504,-0.493866 1.95891,0 0.37559,0.375596 1.07567,0.682901 1.55573,0.682901 1.17805,0 0.84126,-11.413369 -0.37257,-12.626039 -1.14103,-1.139933 -8.96977,-1.108712 -9.36025,0.03733 -0.22596,0.663167 0.2458,0.758401 2.15718,0.435474 4.33873,-0.733022 7.83288,1.924776 5.78093,4.397217 -0.58712,0.707445 -0.59965,1.109493 -0.0516,1.657508 1.93927,1.93928 -0.25171,4.848509 -3.6515,4.848509 -4.60802,0 -5.46474,-3.652146 -1.39054,-5.927764 l 1.70304,-0.95122 -1.875,0.398435 c -3.63442,0.77231 -5.04797,3.471362 -3.41551,6.521637 0.73977,1.382268 4.78948,1.688281 6.9612,0.526011 z m 12.26051,-4.449223 c 0.2054,-5.349459 1.25044,-6.951209 4.5352,-6.951209 2.85949,0 3.38656,0.991937 3.63023,6.832088 0.28937,6.935433 1.57675,6.878145 1.83819,-0.0818 0.10165,-2.706124 0.48765,-5.285115 0.85778,-5.731091 0.93985,-1.132456 5.22343,-1.018046 6.41276,0.171278 0.72769,0.727692 0.98214,2.265963 0.98214,5.9375 0,3.988095 0.18299,4.955357 0.9375,4.955357 0.75862,0 0.9375,-0.997579 0.9375,-5.228213 0,-4.342871 -0.21936,-5.507079 -1.29536,-6.875 -1.50491,-1.913177 -4.4846,-2.218974 -6.67465,-0.685001 -1.23598,0.865713 -1.55892,0.865713 -3.23303,0 -2.24811,-1.162545 -4.6297,-1.232965 -6.30544,-0.186444 -0.98817,0.617122 -1.49487,0.617122 -2.48304,0 -0.68284,-0.426438 -1.38596,-0.775342 -1.5625,-0.775342 -0.17654,0 -0.32098,3.117187 -0.32098,6.927083 0,5.262863 0.18769,6.864979 0.78125,6.668591 0.51046,-0.168893 0.84406,-1.89429 0.96245,-4.977798 z m 36.01768,4.752756 c 2.08597,-0.80046 0.87183,-1.524615 -1.98013,-1.181019 -3.73921,0.45049 -6.01831,-0.630951 -6.29151,-2.985345 -0.11731,-1.010907 0.10453,-1.704268 0.54527,-1.704268 0.57108,0 0.56958,-0.209011 -0.006,-0.903099 -1.20465,-1.451505 -0.51421,-3.689955 1.42378,-4.615987 2.0465,-0.977884 4.02723,-0.623625 6.12488,1.095452 1.28999,1.057173 1.38187,1.386935 0.69874,2.507928 -0.71317,1.170286 -0.64027,1.290706 0.78125,1.290706 2.23363,0 2.02255,-1.759249 -0.54775,-4.565364 -2.26522,-2.47304 -4.76636,-2.988945 -8.1865,-1.688612 -1.68594,0.640985 -3.44798,3.85833 -3.44798,6.295696 0,2.078461 1.93364,5.640526 3.37922,6.225044 1.55194,0.627523 6.10644,0.766373 7.50716,0.228868 z M 227.2706,61.392353 C 229.05874,59.9439 230,57.979292 230,55.695496 230,51.301941 227.23276,48.75 222.46854,48.75 c -2.11618,0 -2.98466,0.39112 -4.71854,2.125 -2.90638,2.906379 -2.97201,6.241821 -0.18526,9.415752 1.75334,1.996936 2.24886,2.207912 5.15625,2.19535 2.09948,-0.0091 3.67947,-0.388908 4.54961,-1.09375 z m -7.39959,-1.079669 c -2.70872,-1.519771 -3.10882,-6.360589 -0.72292,-8.746484 1.23805,-1.238058 6.09077,-1.238058 7.32882,0 1.97102,1.971016 2.0429,6.809375 0.12482,8.401243 -1.43688,1.192502 -4.9037,1.370328 -6.73072,0.345241 z M 236.875,58.083912 c 0,-5.36268 0.55199,-6.513801 3.58895,-7.48436 1.29171,-0.412805 2.61574,-0.99783 2.9423,-1.300053 0.87047,-0.805593 -1.80293,-0.683686 -3.67083,0.16739 -1.20582,0.549408 -1.79035,0.536838 -2.50203,-0.05381 -0.51075,-0.423882 -1.2222,-0.589259 -1.58102,-0.367504 -0.714,0.44128 -0.9292,12.344265 -0.2357,13.037754 1.08637,1.086373 1.45833,0.06629 1.45833,-3.999421 z m 13.75,1.640474 c 0,-1.526589 0.28869,-2.954037 0.64154,-3.172109 0.76289,-0.47149 4.51336,2.544998 5.64652,4.541473 0.71034,1.251517 3.08694,2.0271 3.08694,1.007394 0,-0.21937 -1.125,-1.619337 -2.5,-3.111035 -1.375,-1.491699 -2.5,-3.018204 -2.5,-3.392233 0,-1.174359 1.39012,-3.340699 2.91176,-4.537614 0.80478,-0.633043 1.46324,-1.411824 1.46324,-1.730625 0,-1.249111 -1.47254,-0.455786 -4.18063,2.252305 -3.99589,3.995891 -4.56937,3.317097 -4.56937,-5.40847 0,-5.62642 -0.16163,-6.798472 -0.9375,-6.798472 -0.79829,0 -0.9375,1.655093 -0.9375,11.145833 0,6.130209 0.1875,11.333334 0.41667,11.5625 0.9901,0.990111 1.45833,0.232723 1.45833,-2.358947 z m 60.30691,-0.993917 c 0.33543,-2.201284 0.0707,-1.785297 -0.9979,1.567765 -0.39862,1.250851 -0.3864,1.654155 0.0373,1.230469 0.34664,-0.346646 0.77891,-1.605851 0.96061,-2.798234 z m -99.70649,-9.251302 c 0.0543,-1.840853 -1.45029,-0.170516 -2.7429,3.045067 -0.77035,1.916394 -1.76631,3.413266 -2.27105,3.413266 -0.49443,0 -1.68223,-1.546875 -2.63955,-3.4375 -0.95733,-1.890625 -2.06563,-3.4375 -2.46291,-3.4375 -0.39728,0 -1.43374,1.40625 -2.30326,3.125 -0.86952,1.71875 -1.84508,3.309916 -2.16792,3.535925 -0.76325,0.534329 -2.26283,-0.04758 -2.26283,-0.878086 0,-1.354807 -2.75961,-6.095339 -3.54829,-6.095339 -1.04784,0 -1.04727,0.643756 0.002,2.204684 0.45577,0.678049 1.46833,2.838954 2.25012,4.802011 2.38271,5.982946 3.00963,6.00506 5.3559,0.188923 1.58918,-3.939397 3.11165,-4.392442 4.38958,-1.306217 0.50913,1.22958 1.37107,3.290287 1.9154,4.579349 l 0.9897,2.34375 2.73572,-5.625 c 1.50465,-3.09375 2.74678,-6 2.7603,-6.458333 z m 54.74296,2.04695 c -0.0301,-6.443308 -0.78244,-6.867155 -0.90608,-0.510492 -0.0526,2.704598 0.46037,7.109375 0.82796,7.109375 0.0599,0 0.0951,-2.969497 0.0781,-6.598883 z M 288.6965,52.1875 c 0.0189,-0.34375 -0.23827,-0.203125 -0.5715,0.3125 -0.33323,0.515625 -0.5904,1.359375 -0.5715,1.875 0.0362,0.989906 1.07792,-1.003611 1.143,-2.1875 z m 3.68279,-6.266538 c -0.19243,-0.19243 -0.5419,0.154445 -0.77661,0.770833 -0.33917,0.890749 -0.26739,0.962539 0.34988,0.349872 0.42713,-0.423959 0.61917,-0.928276 0.42673,-1.120705 z M 311.1875,44.125 c -0.35949,-1.301968 -0.80178,-2.21906 -0.98285,-2.037983 -0.18108,0.181077 0.008,1.351294 0.42035,2.600483 0.97349,2.949712 1.41137,2.511839 0.5625,-0.5625 z m -15.48278,-2.09375 c 0.77742,-0.991285 0.75532,-1.013391 -0.23597,-0.235972 -1.04109,0.816481 -1.37217,1.329722 -0.85778,1.329722 0.12979,0 0.62197,-0.492188 1.09375,-1.09375 z m -26.09125,-3.626211 c 0.21344,-0.556203 0.10866,-0.807076 -0.24563,-0.588115 -0.33981,0.210016 -0.61784,0.646498 -0.61784,0.969962 0,0.89902 0.44798,0.700913 0.86347,-0.381847 z M 273.125,34.375 c 0,-0.34375 -0.12403,-0.625 -0.27561,-0.625 -0.15159,0 -0.44944,0.28125 -0.66189,0.625 -0.21245,0.34375 -0.0884,0.625 0.27561,0.625 0.36404,0 0.66189,-0.28125 0.66189,-0.625 z m 30.29032,0.05711 c 1.09372,-0.427601 0.92515,-0.699282 -1.54332,-2.487435 -2.50244,-1.812764 -2.81032,-1.898312 -3.17523,-0.882292 -0.29436,0.819632 -0.002,1.266526 1.07457,1.645947 0.81327,0.286458 1.47866,0.919271 1.47866,1.40625 0,0.977618 0.34685,1.028481 2.16533,0.31753 z M 278.75,31.5625 c 0,-0.515625 -0.52806,-0.9375 -1.17348,-0.9375 -0.6454,0 -1.52359,0.421875 -1.95152,0.9375 -0.66335,0.799291 -0.49036,0.9375 1.17347,0.9375 1.31803,0 1.95153,-0.304331 1.95153,-0.9375 z m 13.96593,-3.59375 c -0.37267,-0.603004 -7.17497,-0.594991 -8.125,0.0096 -0.39686,0.25255 1.33409,0.459181 3.84657,0.459181 2.51247,0 4.43777,-0.210938 4.27843,-0.46875 z"
       id="path3566"
       inkscape:connector-curvature="0" />
    <path
       style="fill:#f0a4a9"
       d="m 86.375,82.375 c -0.561931,-0.561931 -0.75,-8.073412 -0.75,-29.955357 0,-25.716992 0.117312,-29.322667 0.982144,-30.1875 C 87.492919,21.34637 98.925869,21.25 203.125,21.25 c 104.19913,0 115.63208,0.09637 116.51786,0.982143 0.86483,0.864833 0.98214,4.470508 0.98214,30.1875 0,21.881945 -0.18807,29.393426 -0.75,29.955357 -1.09116,1.091156 -232.408844,1.091156 -233.5,0 z m 209.80179,-8.026331 c 6.0904,-1.566375 13.88793,-9.501719 15.63485,-15.911169 0.88479,-3.24629 0.79863,-11.888987 -0.14642,-14.6875 -2.28736,-6.773403 -7.69025,-12.213677 -14.84196,-14.944658 -6.19448,-2.365448 -9.01272,-2.415999 -15.50186,-0.278058 -4.14324,1.365049 -5.66272,2.261419 -8.74064,5.15625 -2.3679,2.227054 -4.47128,4.984419 -5.77185,7.566466 -1.87545,3.723336 -2.04807,4.558202 -2.0676,10 -0.0203,5.656571 0.0878,6.144501 2.2855,10.3125 2.84337,5.39255 4.85182,7.593206 9.596,10.514281 5.36156,3.3012 12.38083,4.116744 19.55398,2.271888 z m -12.04621,-1.4091 c -1.05409,-0.770763 -1.03082,-1.124475 0.47521,-7.226388 2.67657,-10.844472 7.42503,-19.284287 15.86757,-28.20264 2.99287,-3.161545 3.45553,-3.112257 6.53825,0.696535 1.99609,2.46624 4.23839,9.581797 4.23839,13.449816 0,3.355723 -2.67968,11.27282 -4.33859,12.818333 -0.70753,0.659156 -1.28641,1.421694 -1.28641,1.694519 0,1.145881 -5.32166,4.638487 -9.22473,6.054181 -4.65519,1.688512 -10.475,2.027956 -12.26969,0.715644 z m -6.31808,-1.81265 c -5.0523,-2.869981 -9.85185,-9.334868 -10.98596,-14.797836 -0.9262,-4.46148 -0.29093,-10.823089 1.43981,-14.418205 0.73519,-1.527143 2.63994,-4.128705 4.23277,-5.78125 l 2.89608,-3.004628 11.62628,0 c 11.43711,0 13.60352,0.209603 13.60352,1.316152 0,0.306579 -1.16354,1.753051 -2.58564,3.214382 -6.59417,6.776048 -13.51195,19.560885 -14.95122,27.631522 -1.1973,6.713875 -1.14735,6.589163 -2.6313,6.568938 -0.76688,-0.01044 -1.95684,-0.338538 -2.64434,-0.729075 z m 1.84134,-39.306376 c -0.73496,-1.189196 0.69324,-1.895158 5.26583,-2.602932 3.28478,-0.508435 5.45587,-0.502172 8.28468,0.0239 4.33454,0.806092 4.5948,0.952429 4.07997,2.294035 C 296.9761,32.338779 295.50669,32.5 288.494,32.5 c -5.38922,0 -8.57139,-0.244583 -8.84016,-0.679457 z M 100.625,58.11911 100.9375,53.4375 105,53.125 c 3.54167,-0.272436 4.0625,-0.472756 4.0625,-1.5625 0,-1.089744 -0.52083,-1.290064 -4.0625,-1.5625 l -4.0625,-0.3125 0,-2.8125 0,-2.8125 4.375,-0.3125 c 3.85417,-0.275298 4.375,-0.461309 4.375,-1.5625 0,-1.162281 -0.41667,-1.25 -5.9375,-1.25 l -5.9375,0 -0.172369,10.288508 c -0.0948,5.658678 -0.02531,10.671652 0.154363,11.139941 0.1797,0.468288 0.819762,0.757682 1.422369,0.643101 0.893117,-0.169819 1.153397,-1.073714 1.408137,-4.88994 z m 16.49563,4.017273 c 0.20866,-0.54374 0.37937,-2.899927 0.37937,-5.235972 0,-4.663177 0.344,-5.223109 3.74904,-6.102302 1.32469,-0.342038 2.2723,-1.009859 2.40411,-1.694266 0.18957,-0.984381 -0.0917,-1.077974 -2.18655,-0.727617 -2.88933,0.483227 -3.88441,0.53074 -5.5291,0.264002 -1.18248,-0.191776 -1.25951,0.193996 -1.42609,7.141022 -0.16525,6.892363 -0.10214,7.34375 1.02689,7.34375 0.66163,0 1.37368,-0.444875 1.58233,-0.988617 z m 22.56687,-5.446201 c 0,-7.466988 -0.45766,-8.09908 -6.08596,-8.40563 -4.26911,-0.232522 -5.88213,0.382005 -5.25977,2.003863 0.32685,0.851741 0.91237,0.962576 3.24063,0.613431 2.25799,-0.338607 3.09342,-0.198339 4.06716,0.682875 2.10321,1.903381 1.58768,3.007965 -1.1961,2.56282 -4.92,-0.78674 -9.24688,2.676353 -7.5145,6.014353 1.49525,2.881087 1.7443,2.974481 7.3575,2.758975 l 5.39104,-0.206975 0,-6.023712 z m -9.39696,3.274296 c -0.77761,-1.258211 0.30199,-3.570819 1.84815,-3.958879 1.75703,-0.440988 4.73631,0.515149 4.73631,1.52002 0,1.965403 -1.36657,3.099381 -3.73511,3.099381 -1.34261,0 -2.62482,-0.297235 -2.84935,-0.660522 z m 17.45509,2.171905 c 0.20866,-0.54374 0.37937,-2.899927 0.37937,-5.235972 0,-4.352584 0.37831,-5.135623 2.84529,-5.889349 2.6249,-0.801975 3.69063,0.941686 4.02971,6.593056 0.28125,4.687549 0.4375,5.208382 1.5625,5.208382 1.13312,0 1.26689,-0.476873 1.43062,-5.099944 0.19499,-5.505988 0.79511,-6.618806 3.56938,-6.618806 2.77427,0 3.37439,1.112818 3.56938,6.618806 0.16373,4.623072 0.2975,5.099944 1.43062,5.099944 1.13396,0 1.26682,-0.477083 1.43125,-5.138949 0.27006,-7.657205 -1.76124,-10.503361 -6.59905,-9.246232 -2.2595,0.587144 -4.32054,0.588263 -7.21012,0.0039 -1.56399,-0.316276 -2.87432,-0.215216 -3.82813,0.295246 -1.10641,0.592131 -1.76811,0.605981 -2.79124,0.05842 -0.73757,-0.394737 -1.61648,-0.547474 -1.95313,-0.339415 C 145.27035,48.656687 145,51.982089 145,55.974386 c 0,6.599233 0.0912,7.150614 1.18313,7.150614 0.65073,0 1.35385,-0.444875 1.5625,-0.988617 z m 36.2929,0.145932 c 1.91188,-1.398002 0.59849,-2.398199 -2.53259,-1.928664 -2.95128,0.442573 -5.88094,-0.797194 -5.88094,-2.488691 0,-1.261849 1.44607,-1.61496 6.61362,-1.61496 4.35781,0 4.63638,-0.08247 4.63638,-1.372656 0,-2.398058 -3.03191,-6.05324 -5.38764,-6.495177 -4.81564,-0.903419 -8.37597,1.161392 -9.3063,5.397183 -0.59195,2.695103 0.17063,5.304688 2.17814,7.453737 1.54579,1.654769 2.19096,1.891913 5.1471,1.891913 1.85888,0 3.89839,-0.379206 4.53223,-0.842685 z M 175.85102,54.0625 c -0.5722,-1.491101 0.16164,-2.61742 2.00709,-3.0806 2.92287,-0.733594 6.68375,1.606213 5.54453,3.449501 -0.62121,1.005139 -7.14668,0.686366 -7.55162,-0.368901 z m 51.51349,8.08706 c 3.2557,-2.280385 4.17473,-7.204899 2.00786,-10.758889 -2.81761,-4.621315 -10.93977,-4.340657 -13.42429,0.463871 -1.82191,3.523173 -1.08199,6.983237 2.09115,9.778809 2.00853,1.769543 7.13104,2.053105 9.32528,0.516209 z m -7.70542,-3.058651 c -3.13131,-3.13131 -1.28997,-7.900685 3.09828,-8.025075 2.85119,-0.08082 4.74263,1.776395 4.74263,4.656815 0,2.30037 -2.48794,4.902351 -4.6875,4.902351 -0.89063,0 -2.30966,-0.690341 -3.15341,-1.534091 z M 237.5,57.625804 c 0.33702,-5.580723 0.6325,-6.057723 4.17546,-6.740543 2.2277,-0.429337 3.2233,-1.973509 1.65934,-2.573655 -0.56053,-0.215092 -1.85902,-0.07405 -2.88554,0.313417 -1.30339,0.491973 -2.23034,0.50973 -3.07279,0.05886 -2.31221,-1.237453 -3.00147,0.29059 -3.00147,6.654025 0,6.527333 0.33034,7.934351 1.79739,7.655526 0.80812,-0.153593 1.07883,-1.248105 1.32761,-5.367633 z m 13.75,2.7295 c 0.17187,-1.344802 0.62963,-2.549352 1.01724,-2.676778 0.3876,-0.127426 1.82931,1.045901 3.20379,2.607395 1.49043,1.693218 3.03483,2.839079 3.82651,2.839079 1.94512,0 1.63685,-1.087061 -1.17254,-4.134891 -1.375,-1.491699 -2.5,-3.149714 -2.5,-3.684478 0,-0.534763 0.98437,-1.956673 2.1875,-3.159798 2.41466,-2.414654 2.67745,-3.247054 1.20366,-3.812599 -0.63869,-0.245088 -1.93382,0.554794 -3.6917,2.280031 -1.48933,1.461661 -3.01535,2.467531 -3.39116,2.235265 -0.42746,-0.264182 -0.6833,-2.998929 -0.6833,-7.303885 0,-6.778967 -0.0209,-6.878606 -1.40625,-6.681864 -1.39134,0.197602 -1.40806,0.31877 -1.57748,11.428708 -0.0942,6.175943 -0.0247,11.610792 0.15437,12.077441 0.68408,1.782701 2.51027,0.483026 2.82936,-2.013626 z M 211.85991,49.568136 c 0.023,-1.133897 -1.25412,-1.673923 -2.05787,-0.870173 -0.39273,0.392726 -1.17815,1.901033 -1.74537,3.351793 -0.56722,1.450759 -1.41671,2.637744 -1.88774,2.637744 -0.47104,0 -1.57809,-1.405968 -2.46012,-3.124374 -2.20222,-4.290433 -3.24919,-4.29811 -5.33462,-0.03911 -0.93611,1.911793 -2.00795,3.474988 -2.38185,3.473765 -0.37392,-0.0012 -1.38297,-1.477785 -2.24234,-3.28125 -1.58345,-3.322997 -3.4333,-4.519062 -4.14019,-2.67694 -0.21253,0.553833 0.0311,1.488682 0.54135,2.077441 0.51027,0.58876 1.44405,2.476722 2.07505,4.195472 0.63102,1.71875 1.72247,3.919675 2.42547,4.890944 l 1.27818,1.765943 0.94132,-1.39672 c 0.51773,-0.768196 1.39903,-2.547245 1.95844,-3.953444 1.09872,-2.761841 2.79766,-3.655751 3.46219,-1.821665 0.22716,0.626969 1.09912,2.686817 1.93768,4.577442 l 1.52465,3.4375 3.04534,-6.25 c 1.67494,-3.4375 3.05213,-6.584963 3.06043,-6.994364 z"
       id="path3564"
       inkscape:connector-curvature="0" />
    <path
       style="fill:#ee6b81"
       d="M 86.536944,81.720394 C 86.371894,81.2898 86.310125,67.71875 86.399675,51.5625 l 0.162825,-29.375 116.5625,0 116.5625,0 0,30 0,30 -116.42523,0.157894 c -92.8108,0.125869 -116.486108,-6.25e-4 -116.725326,-0.625 z M 295.61433,74.948863 c 4.70986,-1.085219 10.50858,-5.555475 14.12152,-10.886363 2.51464,-3.710346 3.07665,-6.050786 3.07665,-12.8125 0,-6.031229 -0.15111,-6.866083 -1.8665,-10.3125 -5.84424,-11.741714 -19.08539,-17.10984 -30.83393,-12.500458 -6.09089,2.389678 -11.22345,7.215429 -13.90606,13.0748 -1.74431,3.809947 -1.97982,4.976955 -1.97982,9.810639 0,4.841357 0.23034,5.978523 1.95944,9.673506 3.14615,6.723188 8.57784,11.786019 14.75187,13.750094 3.05359,0.971407 10.87215,1.079432 14.67683,0.202782 z m -9.16269,-1.634 c -2.72634,-0.530713 -2.8597,-1.523519 -1.12971,-8.410532 0.89344,-3.556759 2.48381,-8.154331 3.53416,-10.216831 3.93295,-7.722854 12.63962,-19.0625 14.63633,-19.0625 2.72083,0 7.13258,9.664615 7.13258,15.625 0,7.974989 -4.84938,16.096556 -11.68946,19.577088 -1.80097,0.916406 -9.49782,2.989118 -10.53797,2.8378 -0.32179,-0.04681 -1.19746,-0.204325 -1.94593,-0.350025 z m -8.34567,-2.711207 c -6.09249,-3.165812 -10.51555,-10.008462 -11.05168,-17.097424 -0.5759,-7.614752 0.90209,-11.885148 6.0265,-17.412482 l 2.1729,-2.34375 12.02377,0 c 7.4294,0 12.173,0.24146 12.41431,0.631917 0.2148,0.347554 -0.45642,1.478887 -1.49161,2.514074 -2.53643,2.536434 -7.22477,8.750076 -8.80394,11.668222 -0.70637,1.305308 -1.5423,2.795162 -1.85762,3.310787 -2.04826,3.349383 -4.49068,10.166913 -5.15508,14.389387 -0.4289,2.725788 -1.0789,5.070751 -1.44444,5.211026 -0.36554,0.140268 -1.64044,-0.252019 -2.83311,-0.871757 z M 280.625,31.311141 c 0,-2.336296 15.32054,-2.543235 16.09427,-0.217391 0.19908,0.598434 -1.65358,0.78125 -7.91719,0.78125 -4.49739,0 -8.17708,-0.253737 -8.17708,-0.563859 z m -179.95637,27.53886 c 0.41205,-5.292808 0.79553,-5.701845 5.35825,-5.71543 2.38589,-0.0071 3.31495,-0.271625 3.60453,-1.026288 0.70453,-1.835959 -0.82724,-2.733283 -4.66582,-2.733283 -3.08245,0 -3.69133,-0.188949 -4.02809,-1.25 -0.21821,-0.6875 -0.21821,-1.8125 0,-2.5 0.33729,-1.062696 0.94564,-1.25 4.05997,-1.25 3.88175,0 5.88694,-1.096767 5.21354,-2.851624 -0.29491,-0.768508 -1.51843,-0.908037 -6.6922,-0.763163 L 97.1875,40.9375 97.015806,51.47985 c -0.176731,10.851554 0.144525,12.545163 2.301719,12.134219 0.761255,-0.145019 1.078635,-1.264108 1.351105,-4.764068 z m 15.84275,4.52063 C 117.29649,63.069356 117.5,61.98307 117.5,58.093572 c 0,-4.352625 0.15459,-5.005971 1.38907,-5.870632 0.76398,-0.535117 2.01971,-0.97294 2.79051,-0.97294 1.60357,0 2.85805,-1.85059 2.09329,-3.087996 -0.35478,-0.574044 -1.0701,-0.688874 -2.30014,-0.36924 -0.98187,0.255146 -3.12117,0.425409 -4.75398,0.378362 l -2.96875,-0.08554 0,7.467624 c 0,5.389303 0.21743,7.555359 0.78125,7.782865 0.42969,0.173381 0.82856,0.337444 0.88638,0.364581 0.0578,0.02712 0.55001,-0.121369 1.09375,-0.330025 z m 23.65356,-1.187553 c 0.92662,-1.655777 0.22853,-10.551965 -0.97176,-12.383846 -1.19454,-1.8231 -4.72867,-2.635413 -8.6117,-1.97938 -4.7511,0.802694 -3.83482,4.127407 0.98769,3.58384 1.75547,-0.197866 3.14645,-0.02406 3.73829,0.467122 1.61137,1.337324 1.05449,1.810877 -2.04647,1.740243 -5.2188,-0.118875 -8.57178,3.391398 -6.6989,7.013153 1.38199,2.672471 2.60153,3.106428 8.05841,2.867465 3.89819,-0.170706 5.06126,-0.445212 5.54444,-1.308597 z m -8.75869,-1.972004 c -1.30523,-0.52667 -0.92952,-3.20478 0.51386,-3.66289 2.0389,-0.647125 4.32989,0.181849 4.32989,1.566734 0,1.841805 -2.64133,2.984853 -4.84375,2.096156 z m 15.73013,3.159557 c 0.77813,-0.298594 0.98862,-1.363144 0.98862,-4.999999 0,-4.917379 1.12164,-7.120632 3.625,-7.120632 2.06456,0 2.625,1.344729 2.625,6.298472 0,5.027197 0.7366,6.59914 2.73328,5.832941 0.81016,-0.310888 1.01672,-1.314806 1.01672,-4.941541 0,-3.536381 0.26418,-4.877635 1.18458,-6.014289 1.01861,-1.257931 1.43456,-1.375347 2.96875,-0.838031 1.7321,0.606631 1.79329,0.777656 2.09667,5.86008 0.23695,3.969577 0.56426,5.393218 1.35386,5.888799 2.04465,1.283269 3.02114,-0.533406 3.02114,-5.620533 0,-8.356762 -2.3375,-11.134589 -8.12205,-9.652053 -2.48722,0.637456 -3.49661,0.633757 -5.30296,-0.01943 -1.69765,-0.613879 -2.67315,-0.639864 -4.08038,-0.108695 -1.01714,0.383929 -2.97891,0.546547 -4.35948,0.361373 l -2.51013,-0.336678 0,7.53021 c 0,5.439372 0.21692,7.617739 0.78125,7.845451 0.42969,0.173381 0.82856,0.337444 0.88638,0.364581 0.0578,0.02712 0.55001,-0.121369 1.09375,-0.330025 z m 37.30536,-0.798993 c 1.22416,-0.991266 1.32686,-1.333032 0.64681,-2.152439 -0.61729,-0.743792 -1.53334,-0.888213 -3.87488,-0.610893 -3.15805,0.374025 -4.96367,-0.370969 -4.96367,-2.048001 0,-0.621349 1.40726,-0.883108 5.46875,-1.017222 l 5.46875,-0.180583 -0.0843,-1.959277 c -0.16603,-3.85756 -3.95983,-7.10711 -8.29018,-7.100887 -2.76153,0.004 -5.44335,2.127789 -6.6385,5.257253 -1.04242,2.729522 -1.04242,3.0013 0,5.730822 0.70595,1.848523 1.78965,3.28941 3.05366,4.060164 2.6014,1.586256 7.26749,1.596919 9.21359,0.02106 z m -8.4731,-8.771251 C 175.43076,52.930068 177.40663,51.25 178.96807,51.25 c 1.5205,0 4.15693,1.608042 4.15693,2.53544 0,0.760269 -6.68709,0.774236 -7.15636,0.01495 z m 51.59518,8.522989 c 3.03644,-2.039788 4.17421,-5.534305 3.00121,-9.217801 -1.55622,-4.886916 -6.65348,-6.927209 -11.52772,-4.614229 -2.91812,1.384737 -4.27462,3.722085 -4.27629,7.36839 -0.001,2.769339 0.23534,3.26807 2.59459,5.46875 2.19792,2.050208 3.01679,2.421514 5.34026,2.421514 1.82061,0 3.45906,-0.480175 4.86795,-1.426624 z m -7.42475,-3.296316 c -2.89534,-2.027973 -1.02185,-7.77706 2.53436,-7.77706 2.55035,0 4.20157,1.695242 4.20157,4.313572 0,3.947407 -3.48599,5.739837 -6.73593,3.463488 z m 16.99731,4.343571 c 0.78413,-0.300893 0.98862,-1.38394 0.98862,-5.235971 0,-5.365091 0.43349,-6.122714 3.9101,-6.833757 1.62446,-0.332238 2.0274,-0.720095 2.0274,-1.951525 0,-1.326825 -0.25626,-1.514829 -1.875,-1.375552 -1.03125,0.08873 -3.21094,0.159018 -4.84375,0.156197 l -2.96875,-0.0051 0,7.44797 c 0,5.373581 0.21759,7.535768 0.78125,7.763212 0.42969,0.173381 0.82856,0.337444 0.88638,0.364581 0.0578,0.02713 0.55001,-0.121369 1.09375,-0.330025 z M 251.125,63 c 0.4125,-0.4125 0.75,-1.5375 0.75,-2.5 0,-2.449536 1.25842,-2.208413 3.91424,0.75 2.2057,2.457006 3.70215,3.001294 5.36099,1.949888 0.63893,-0.404963 0.15688,-1.297583 -2.03125,-3.761293 -1.57794,-1.776676 -2.86898,-3.652182 -2.86898,-4.167791 0,-0.515609 0.98437,-1.921846 2.1875,-3.124971 2.68484,-2.68484 2.82941,-4.020833 0.43511,-4.020833 -1.18223,0 -2.44225,0.711742 -3.87261,2.1875 -1.16611,1.203125 -2.33708,2.1875 -2.60214,2.1875 -0.26505,0 -0.56145,-3.164063 -0.65864,-7.03125 l -0.17672,-7.03125 -1.5625,0 -1.5625,0 -0.17054,11.855754 c -0.0938,6.520665 -0.0323,12.215977 0.13663,12.656252 0.38652,1.007244 1.73955,1.03235 2.72141,0.0505 z m -52.6875,-4.504466 c 1.03125,-2.265388 2.19227,-4.119257 2.58004,-4.11971 0.38778,-4.53e-4 1.3329,1.678007 2.10025,3.729912 2.25747,6.036402 2.66963,5.98477 5.87365,-0.735803 1.53744,-3.224857 2.98632,-6.624227 3.21971,-7.554155 0.376,-1.498086 0.24729,-1.690778 -1.12937,-1.690778 -1.84304,0 -2.53643,0.763227 -3.5488,3.90625 -0.41521,1.289062 -1.03856,2.34375 -1.38522,2.34375 -0.34666,0 -1.22442,-1.40625 -1.95057,-3.125 -1.13527,-2.687088 -1.56447,-3.125 -3.06285,-3.125 -1.36896,0 -1.93106,0.435497 -2.62174,2.03125 -0.48355,1.117187 -1.29795,2.579456 -1.80978,3.249484 -0.88554,1.159248 -1.01033,1.060896 -2.57724,-2.03125 -1.42992,-2.821807 -1.89203,-3.249484 -3.51111,-3.249484 -2.07178,0 -2.36249,0.885841 -0.95173,2.899995 0.50202,0.71672 1.45494,2.678664 2.11761,4.359876 1.51463,3.842647 3.8386,7.818423 4.37459,7.48391 0.22415,-0.1399 1.25131,-2.10786 2.28256,-4.373247 z"
       id="path3562"
       inkscape:connector-curvature="0" />
    <path
       style="fill:#e95f66"
       d="m 86.875,52.1875 0,-29.6875 116.25,0 116.25,0 0,29.6875 0,29.6875 -116.25,0 -116.25,0 0,-29.6875 z m 210.34904,22.597363 c 6.40669,-2.260413 13.17147,-9.157913 15.15469,-15.452009 2.26673,-7.193884 1.16313,-15.49148 -2.86467,-21.538402 -3.21616,-4.82842 -6.69989,-7.563487 -12.50488,-9.817576 -4.00662,-1.555773 -5.32959,-1.781529 -9.12869,-1.557738 -9.44863,0.556584 -17.29183,5.730802 -21.75436,14.351528 -1.90394,3.678016 -2.02866,4.316965 -2.0456,10.479334 -0.0174,6.357689 0.0534,6.699041 2.27035,10.9375 3.5656,6.816856 9.52905,11.706206 16.14912,13.24045 4.00958,0.92925 11.15169,0.617313 14.72404,-0.643087 z m -12.06779,-2.073788 c -2.73245,-1.102569 2.35757,-16.854012 8.25418,-25.543139 2.56423,-3.778609 8.56648,-10.823306 9.54001,-11.196884 0.94735,-0.363535 3.56049,2.146194 4.87456,4.681662 1.55482,3.000004 2.93056,9.591505 2.56423,12.285866 -1.29878,9.552547 -6.8602,16.396364 -15.38777,18.935983 -3.97212,1.18295 -8.11441,1.534906 -9.84521,0.836512 z m -7.34375,-2.619837 c -3.34859,-2.061113 -6.97246,-6.089625 -8.75457,-9.732117 -1.46705,-2.998543 -1.74665,-4.37448 -1.76387,-8.680013 -0.0297,-7.429837 2.03144,-12.418283 6.63333,-16.054108 1.9158,-1.513613 2.32757,-1.569006 13.16096,-1.770429 7.05651,-0.131201 11.41874,0.02752 11.82134,0.43012 0.43407,0.434066 -0.40152,1.899221 -2.61367,4.58293 -1.78844,2.169683 -3.59241,4.366754 -4.00881,4.882379 -1.61292,1.997229 -5.3566,8.570526 -6.40721,11.25 -0.60652,1.546875 -1.45253,3.375 -1.88003,4.0625 -0.4275,0.6875 -1.09966,3.078125 -1.49369,5.3125 -1.16421,6.601706 -1.24574,6.875106 -2.04944,6.872663 -0.42313,-0.0012 -1.61309,-0.521675 -2.64434,-1.156425 z M 281.25,31.261907 c 0,-0.927338 2.97229,-1.536105 7.5,-1.536105 4.52771,0 7.5,0.608767 7.5,1.536105 0,0.36673 -3.01378,0.613093 -7.5,0.613093 -4.48623,0 -7.5,-0.246363 -7.5,-0.613093 z m -143.75,32.208112 2.8125,-0.0325 0,-6.698067 c 0,-8.133635 -0.3768,-8.716196 -5.89579,-9.115404 -5.4412,-0.393582 -7.04283,0.134379 -6.79987,2.241519 0.17924,1.554569 0.43164,1.702152 3.00816,1.758923 4.52779,0.09977 5,0.204716 5,1.111256 0,0.645653 -0.67746,0.784367 -2.71118,0.555137 -2.38306,-0.268605 -2.9882,-0.06238 -5,1.704018 -1.25885,1.105266 -2.28882,2.52972 -2.28882,3.165436 0,3.671213 3.60652,6.562176 7.1875,5.761457 1.03125,-0.230588 3.14062,-0.433888 4.6875,-0.451775 z m -6.6375,-4.37759 c -0.56178,-1.463971 0.31317,-2.217429 2.575,-2.217429 2.40756,0 3.27034,0.882755 2.16478,2.214878 -0.97875,1.17932 -4.28752,1.181101 -4.73978,0.0026 z m 53.62871,3.970377 c 0.75368,-0.403356 1.13645,-1.161511 1.01546,-2.011344 -0.17605,-1.236711 -0.56073,-1.363962 -4.12319,-1.363962 -2.81697,0 -4.09385,-0.265344 -4.51137,-0.9375 -0.49263,-0.793063 0.0646,-0.96199 3.61652,-1.096458 6.47958,-0.245299 7.01137,-0.46328 7.01137,-2.873956 0,-1.535078 -0.62261,-2.746003 -2.40399,-4.675592 -2.19606,-2.378755 -2.66909,-2.603197 -5.46875,-2.59478 -3.87618,0.01166 -5.75179,0.981312 -7.2169,3.731035 -3.3784,6.340549 1.50733,13.741457 8.44917,12.798832 1.33211,-0.180887 2.96637,-0.620212 3.63168,-0.976275 z M 176.5625,53.75 c -0.67561,-1.093158 0.32256,-1.875306 2.38064,-1.865429 2.37876,0.01141 3.88258,0.832756 3.28755,1.795552 -0.53426,0.864441 -5.14202,0.921245 -5.66819,0.06988 z m 51.37332,8.924225 c 4.62436,-3.029996 4.36971,-11.751689 -0.41536,-14.226146 C 226.5121,47.926636 224.23377,47.5 222.45751,47.5 c -2.91818,0 -3.46352,0.233951 -5.65604,2.426471 -2.18211,2.182115 -2.42647,2.746384 -2.42647,5.603252 0,2.66166 0.31433,3.534786 1.9385,5.384614 3.03815,3.460263 7.90296,4.196907 11.62232,1.759888 z m -6.7824,-3.380759 c -2.02605,-0.742303 -2.74014,-3.105165 -1.63727,-5.41761 0.62526,-1.311003 1.31966,-1.731209 3.10688,-1.880089 1.88479,-0.157008 2.48828,0.09309 3.33205,1.380849 1.41014,2.152151 0.70974,5.246606 -1.36616,6.035863 -0.84991,0.323137 -1.5973,0.565317 -1.66086,0.538179 -0.0635,-0.02714 -0.86214,-0.322874 -1.77464,-0.657192 z M 101.25,58.75 101.5625,54.0625 105.625,53.75 c 4.02777,-0.309829 4.0625,-0.328526 4.0625,-2.1875 0,-1.858974 -0.0348,-1.877671 -4.0625,-2.1875 l -4.0625,-0.3125 0,-2.1875 0,-2.1875 4.375,-0.3125 c 4.375,-0.3125 4.375,-0.3125 4.375,-2.1875 l 0,-1.875 -6.5625,0 -6.5625,0 -0.171588,10.915542 c -0.09437,6.003549 -0.02563,11.29582 0.1527,11.760608 0.192888,0.502662 1.022113,0.764794 2.046582,0.646956 C 100.8917,63.442769 100.94581,63.31285 101.25,58.75 Z m 16.49563,4.011381 c 0.20866,-0.543738 0.37937,-2.878113 0.37937,-5.187498 0,-4.594625 0.60553,-5.698883 3.125,-5.698883 2.00351,0 3.125,-1.049665 3.125,-2.924876 0,-1.373907 -0.17327,-1.419342 -4.84375,-1.270173 -2.66406,0.08509 -5.19531,0.377255 -5.625,0.649262 -0.82034,0.519304 -1.15324,12.474165 -0.40188,14.432168 0.22032,0.574144 1.10938,0.988619 2.12063,0.988619 1.01125,0 1.90031,-0.414475 2.12063,-0.988619 z m 30.87669,-4.294266 c 0.20019,-5.383686 0.74643,-6.592115 2.97982,-6.592115 2.04199,0 2.41838,0.890786 2.77286,6.5625 l 0.3125,5 1.875,0 1.875,0 0.3125,-5.625 0.3125,-5.625 1.92823,-0.188166 c 1.06981,-0.104396 2.23963,0.187031 2.62768,0.654615 0.3847,0.46353 0.78262,3.079454 0.88427,5.813166 l 0.18482,4.970385 1.875,0 1.875,0 0.17799,-6.019958 c 0.17002,-5.750027 0.10245,-6.10974 -1.50685,-8.022285 -1.59375,-1.894061 -1.85683,-1.98239 -4.8655,-1.633581 -4.10922,0.476401 -5.13782,0.477215 -8.28408,0.0066 -1.43189,-0.214201 -3.08611,-0.119339 -3.67604,0.210804 -0.69715,0.390139 -1.6826,0.370011 -2.81521,-0.0575 -3.10803,-1.173152 -3.71781,0.04324 -3.71781,7.416375 0,7.935158 0.19845,8.53642 2.73603,8.289489 l 1.95147,-0.1899 0.18482,-4.970385 z m 89.48069,4.073973 c 0.35585,-0.664901 0.64699,-3.16606 0.64699,-5.558132 0,-4.632482 0.32269,-5.107956 3.46663,-5.107956 1.61091,0 3.09999,-2.023412 2.54789,-3.462156 -0.2478,-0.645768 -1.48544,-0.828439 -4.89188,-0.722021 -2.50808,0.07835 -4.9117,0.36532 -5.34139,0.637704 -0.83494,0.529281 -1.16716,14.202223 -0.36458,15.004804 0.86347,0.863475 3.31421,0.370231 3.93634,-0.792244 z M 251.76684,61.5625 c 0.32217,-2.956193 0.9682,-3.016951 3.45863,-0.32528 1.85186,2.001505 2.76487,2.51278 4.48722,2.51278 2.94204,0 2.7965,-1.119213 -0.65019,-5 -1.54688,-1.741699 -2.8125,-3.280856 -2.8125,-3.42035 0,-0.139494 1.125,-1.553462 2.5,-3.14215 3.10187,-3.583929 3.20251,-4.6875 0.4275,-4.6875 -1.591,0 -2.53173,0.518707 -4.04914,2.232646 -1.08715,1.227955 -2.26389,2.055107 -2.615,1.838114 -0.36785,-0.227345 -0.63836,-3.131479 -0.63836,-6.853277 0,-6.913811 -0.51827,-7.987565 -3.17027,-6.568252 -1.12575,0.602478 -1.20473,1.435507 -1.20473,12.706092 0,6.633739 0.20041,12.261758 0.44536,12.506702 0.24495,0.24495 1.15901,0.362137 2.03125,0.260419 1.24791,-0.145532 1.62944,-0.584538 1.79023,-2.059944 z M 196.875,62.264028 c 0,-0.473535 0.37636,-1.17332 0.83634,-1.555078 0.46,-0.381758 1.17441,-1.822446 1.5876,-3.201528 C 199.71212,56.12834 200.41128,55 200.85262,55 c 0.44135,0 1.48474,1.755839 2.31866,3.901866 1.67441,4.308959 3.30063,5.364721 4.2831,2.780638 0.32065,-0.843398 1.58476,-3.644425 2.80911,-6.224505 2.8154,-5.932902 3.04665,-7.570212 1.10836,-7.847705 -1.92196,-0.275154 -2.87501,0.619232 -3.8689,3.63076 -0.45541,1.37992 -1.06699,2.508946 -1.35906,2.508946 -0.29207,0 -1.16358,-1.335938 -1.9367,-2.96875 -1.1016,-2.326566 -1.77157,-3.011076 -3.0972,-3.164417 -1.46774,-0.169781 -1.86938,0.182698 -3.03583,2.664218 -0.73937,1.572937 -1.56377,2.99552 -1.832,3.161297 -0.26824,0.165776 -1.18452,-1.033122 -2.03618,-2.664218 -1.28162,-2.454546 -1.88518,-2.999382 -3.50223,-3.161479 -1.64554,-0.164953 -1.95375,0.01703 -1.95375,1.153567 0,0.742179 0.40029,2.095936 0.88953,3.008349 0.48924,0.912414 1.929,3.83862 3.19947,6.502683 2.07313,4.347175 4.036,6.284162 4.036,3.982778 z"
       id="path3560"
       inkscape:connector-curvature="0" />
    <path
       style="fill:#ea314a"
       d="M 87.161875,81.095406 C 86.996788,80.664806 86.935019,67.375 87.024606,51.5625 l 0.162894,-28.75 115.9375,0 115.9375,0 0,29.375 0,29.375 -115.80023,0.157906 c -92.31076,0.125875 -115.86112,-6.25e-4 -116.100395,-0.625 z M 296.52396,75.355369 c 7.28918,-2.193719 14.91788,-10.136582 16.54885,-17.230369 0.90286,-3.92698 0.81913,-10.358013 -0.1831,-14.0625 -2.66992,-9.868569 -13.48076,-17.958139 -24.07852,-18.017548 -3.07366,-0.01723 -5.36922,0.443584 -9.01514,1.809715 -6.43526,2.411299 -10.88705,6.625857 -14.09567,13.344496 -2.10937,4.416896 -2.25936,5.124658 -2.21098,10.433067 0.0479,5.256726 0.22605,6.037529 2.31612,10.151652 3.40029,6.693137 8.29243,11.195874 14.49391,13.34023 3.89698,1.347494 12.12583,1.464788 16.22453,0.231257 z m -11.31787,-3.844782 c -1.14907,-2.99445 3.64912,-17.038598 8.00653,-23.43483 3.2924,-4.832906 9.54495,-11.867335 10.39517,-11.695071 1.61455,0.327129 4.46286,5.098118 5.51085,9.230808 1.95713,7.717806 0.0726,14.965207 -5.29942,20.38025 -3.6735,3.702925 -4.55762,4.203575 -9.94346,5.630712 -4.51414,1.19615 -8.18591,1.148775 -8.66967,-0.111869 z m -6.76859,-1.628481 c -2.4129,-1.36065 -5.64393,-4.497012 -7.59492,-7.372375 -5.47532,-8.069544 -4.31697,-18.671002 2.8844,-26.39862 l 1.58552,-1.701389 11.71875,-0.01736 c 6.44531,-0.0095 11.71875,0.16461 11.71875,0.387019 0,0.222409 -0.96836,1.58614 -2.15192,3.030513 -8.91815,10.88343 -14.13347,21.01638 -15.11494,29.367107 -0.41518,3.5326 -0.86683,3.93375 -3.04564,2.705106 z m 5,-39.257106 c 1.61836,-0.695436 9.00664,-0.695436 10.625,0 0.80236,0.344785 -1.10012,0.537143 -5.3125,0.537143 -4.21238,0 -6.11486,-0.192358 -5.3125,-0.537143 z M 100.60249,63.777137 c 0.61717,-0.39035 0.99614,-2.014741 1.16429,-4.990432 l 0.24928,-4.411705 3.32233,0 c 4.50027,0 6.15839,-1.578239 4.63962,-4.416088 -0.52865,-0.987788 -1.32888,-1.208912 -4.375,-1.208912 -3.72557,0 -3.72801,-0.0012 -3.72801,-1.875 0,-1.87249 0.005,-1.875 3.70536,-1.875 4.76005,0 6.75503,-1.692637 5.09178,-4.320124 C 110.03996,39.681196 99.273719,39.260999 97.34375,40.159679 96.362244,40.616715 96.25,41.80838 96.25,51.77199 c 0,11.325641 0.252825,12.615329 2.46875,12.593441 0.532812,-0.005 1.3805,-0.27 1.88374,-0.588294 z m 16.53389,0.218494 c 0.78489,-0.301187 0.98862,-1.38675 0.98862,-5.267856 0,-5.513884 0.74442,-6.852775 3.81011,-6.852775 1.41664,0 1.99068,-0.380988 2.4688,-1.638523 0.90662,-2.384589 -0.27938,-3.568699 -3.11917,-3.114204 -1.22223,0.195613 -3.48786,0.430938 -5.03474,0.522944 l -2.8125,0.167283 -0.17667,7.411357 c -0.20747,8.703618 0.41017,10.101568 3.87555,8.771774 z M 140.68204,63.0541 c 0.76593,-1.209424 0.69759,-9.124659 -0.10369,-12.010276 -0.85562,-3.081323 -3.71628,-4.4262 -8.56039,-4.024488 -4.17143,0.345927 -5.68186,1.613268 -4.6422,3.895076 0.45023,0.988157 1.2333,1.585588 2.07827,1.585588 1.17056,0 1.06783,0.194081 -0.75178,1.420316 -1.15919,0.781173 -2.53275,2.17776 -3.05237,3.103525 -0.86061,1.533284 -0.84072,1.866047 0.22334,3.735934 0.64246,1.128999 1.61073,2.407519 2.15172,2.841156 1.38265,1.108288 11.89659,0.65405 12.6571,-0.546831 z m -8.74187,-3.625593 C 130.63694,58.603304 131.61214,56.875 133.381,56.875 c 2.03884,0 2.72759,1.225657 1.28253,2.282315 -1.34719,0.985085 -1.56211,1.006488 -2.72336,0.271192 z M 132.5,52.5 l -1.5625,-0.5004 1.68186,-0.0623 c 0.92503,-0.03426 1.85569,0.21895 2.06814,0.5627 0.43909,0.710464 0.0309,0.710464 -2.1875,0 z m 15.625,11.264875 c 0.66071,-0.4165 1.02976,-2.101486 1.25,-5.707174 0.32617,-5.340025 1.16046,-6.830467 3.35255,-5.989284 0.83443,0.320204 1.02245,1.358789 1.02245,5.647939 0,5.780363 0.68546,7.092713 3.3547,6.422775 1.80876,-0.453969 2.25054,-1.890305 2.26177,-7.353513 0.009,-4.399158 0.69489,-5.372113 3.22158,-4.570172 1.00279,0.318272 1.16195,1.041803 1.16195,5.282028 0,3.633249 0.25587,5.169107 0.98214,5.895382 1.26215,1.26215 2.41622,1.244494 3.71759,-0.05688 0.85588,-0.855882 1.00145,-2.076825 0.82589,-6.927033 -0.20951,-5.788432 -0.24875,-5.919838 -2.31966,-7.769452 -1.86165,-1.662702 -2.40661,-1.834217 -4.6875,-1.47529 -1.41953,0.22338 -3.56533,0.368652 -4.76846,0.322827 -2.98286,-0.113613 -6.57929,-0.06162 -10.3125,0.149084 l -3.125,0.176377 -0.17667,7.411357 c -0.18135,7.607712 0.20685,9.161118 2.28445,9.141574 0.55947,-0.005 1.4391,-0.275512 1.95472,-0.600556 z m 36.28104,-0.343425 c 1.9255,-0.995715 2.23077,-1.846204 1.22807,-3.42145 -0.42515,-0.667915 -1.70804,-0.9375 -4.46132,-0.9375 -2.53168,0 -3.95723,-0.269453 -4.13326,-0.78125 -0.20124,-0.585101 1.0752,-0.78125 5.08398,-0.78125 5.05672,0 5.37253,-0.0791 5.71175,-1.430646 0.46097,-1.836686 -0.40017,-3.983204 -2.62635,-6.546522 -2.19533,-2.527788 -6.20478,-3.293071 -9.66919,-1.845552 -2.90531,1.213916 -5.24224,5.687318 -4.70395,9.004399 0.46477,2.864057 2.79208,6.272658 4.78923,7.014358 2.44399,0.907644 6.75557,0.772819 8.78104,-0.274587 z M 176.875,53.105384 c 0,-0.950854 1.65839,-1.420261 3.4389,-0.973381 2.42492,0.608617 1.83919,1.617997 -0.9389,1.617997 -1.375,0 -2.5,-0.290077 -2.5,-0.644616 z m 50.24333,10.401297 c 2.1866,-0.913618 4.75667,-5.103101 4.75667,-7.753861 0,-2.982377 -1.98101,-6.4065 -4.42898,-7.65536 -7.41636,-3.783545 -15.61831,2.62167 -13.10576,10.234785 0.68908,2.087927 3.2709,4.961124 5.03474,5.602936 1.78796,0.650594 5.67558,0.435463 7.74333,-0.4285 z m -6.64958,-4.806743 c -1.14158,-0.664908 -1.49861,-3.969894 -0.58436,-5.409277 0.85448,-1.345275 4.16627,-1.650712 5.3258,-0.491182 1.2071,1.207095 1.3825,4.732835 0.28981,5.825521 -0.90843,0.908427 -3.53312,0.947521 -5.03125,0.07494 z M 238,63.625 c 0.45415,-0.45415 0.75,-2.65847 0.75,-5.588114 0,-5.266068 0.17969,-5.561627 3.72877,-6.13337 1.86269,-0.300071 2.24087,-0.635864 2.41384,-2.143305 0.11281,-0.983119 -0.0377,-2.03033 -0.33454,-2.327136 -0.2968,-0.296806 -2.85004,-0.361482 -5.67386,-0.143726 l -5.13421,0.395923 0,7.980281 c 0,5.799429 0.2135,8.066428 0.78125,8.295522 1.38642,0.559431 2.70056,0.432112 3.46875,-0.336075 z m 13.40416,-0.03125 c 0.55994,-0.429688 1.10588,-1.593246 1.2132,-2.585686 l 0.19514,-1.804436 2.69481,2.622409 c 2.20001,2.140907 3.05974,2.586976 4.68238,2.429438 2.91362,-0.282887 2.78,-1.770957 -0.47261,-5.263534 -1.56314,-1.678467 -2.84208,-3.346055 -2.84208,-3.705751 0,-0.359695 1.125,-1.860444 2.5,-3.334999 C 262.68395,48.402665 262.62921,47.5 259.10506,47.5 c -2.36435,0 -2.96543,0.274547 -4.10506,1.875 -0.73431,1.03125 -1.59722,1.875 -1.91756,1.875 -0.32034,0 -0.58675,-2.742188 -0.59201,-6.09375 -0.005,-3.351563 -0.24672,-6.467834 -0.53657,-6.925047 -0.29932,-0.472167 -1.30772,-0.742175 -2.33418,-0.625 l -1.80718,0.206297 -0.16954,12.767398 c -0.1301,9.796558 0.0153,12.884739 0.625,13.271677 1.12166,0.7119 1.96261,0.642769 3.1362,-0.257825 z M 198.3353,60.459779 c 0.91559,-1.809621 1.6647,-3.637746 1.6647,-4.0625 0,-0.424753 0.42187,-0.772279 0.9375,-0.772279 0.51562,0 0.94025,0.351562 0.94361,0.78125 0.003,0.429687 0.70337,2.279033 1.55559,4.109657 1.02922,2.21083 1.87162,3.260112 2.50886,3.124999 1.05379,-0.223425 6.28212,-10.868797 6.92977,-14.109656 0.39881,-1.995657 0.36583,-2.03125 -1.88192,-2.03125 -2.11624,0 -2.37825,0.210949 -3.49341,2.8125 -0.66307,1.546875 -1.36619,2.8125 -1.5625,2.8125 -0.19631,0 -0.89943,-1.265625 -1.5625,-2.8125 -1.08537,-2.532063 -1.41392,-2.8125 -3.29501,-2.8125 -1.83717,0 -2.2226,0.30183 -3.19243,2.5 -0.60665,1.375 -1.35818,2.5 -1.67007,2.5 -0.3119,0 -1.14102,-1.125 -1.84249,-2.5 -1.17515,-2.303479 -1.47707,-2.5 -3.84083,-2.5 -2.55015,0 -2.56305,0.01185 -2.16737,1.990239 0.21892,1.094632 0.78331,2.430569 1.2542,2.96875 0.47088,0.538181 1.06636,1.681636 1.32327,2.541011 0.86912,2.907099 4.17744,8.75 4.95437,8.75 0.42458,0 1.52107,-1.480599 2.43666,-3.290221 z"
       id="path3558"
       inkscape:connector-curvature="0" />
    <path
       style="fill:#eb2628"
       d="m 87.5,52.1875 0,-29.0625 115.625,0 115.625,0 0,29.0625 0,29.0625 -115.625,0 -115.625,0 0,-29.0625 z m 210.78125,23.095313 c 1.63281,-0.563926 2.96875,-1.261176 2.96875,-1.549444 0,-0.288275 0.60989,-0.717707 1.3553,-0.954288 1.75493,-0.556994 7.11679,-5.91885 7.67378,-7.673781 0.23658,-0.745413 0.66601,-1.3553 0.95429,-1.3553 0.96553,0 2.60107,-5.889662 2.95054,-10.625 0.44915,-6.086204 -0.83614,-11.13855 -4.0678,-15.99011 -3.01351,-4.524049 -6.10026,-7.060126 -11.66319,-9.582478 -3.68683,-1.671691 -4.96011,-1.927412 -9.59687,-1.927412 -4.37454,0 -6.1263,0.312341 -9.63958,1.71875 -5.95366,2.383324 -10.92172,7.146034 -13.8688,13.295544 -1.22247,2.550868 -2.22267,4.997438 -2.22267,5.436824 0,0.550382 -1.05518,0.798882 -3.3922,0.798882 -3.08205,0 -3.53857,0.185719 -4.99307,2.03125 l -1.60087,2.03125 -0.007,-6.329722 c -0.008,-7.105367 -0.43653,-7.948969 -3.87235,-7.619172 l -2.07207,0.198894 0,13.4375 0,13.4375 2.59931,0.189406 c 2.44763,0.17835 2.62376,0.07805 3.01841,-1.71875 0.49731,-2.264255 1.25044,-2.431042 2.26635,-0.501906 1.05727,2.007656 1.7451,2.323413 5.08468,2.334181 3.90711,0.01262 3.94369,-1.270875 0.15625,-5.483416 -1.54688,-1.720497 -2.80096,-3.368103 -2.78687,-3.661346 0.0141,-0.293243 1.13558,-1.760677 2.49216,-3.260965 2.78972,-3.085216 2.87297,-3.003845 3.30113,3.226734 0.16505,2.401913 0.685,4.711272 1.1961,5.3125 0.49726,0.584959 1.28818,2.031656 1.7576,3.214874 2.12749,5.362544 10.38089,11.392813 17.47738,12.769675 2.85856,0.554619 11.52139,-0.161168 14.53125,-1.200674 z M 285.6446,71.900338 c -0.79745,-0.504344 -0.74056,-1.361807 0.43351,-6.534382 0.74326,-3.274622 2.14725,-7.579393 3.11995,-9.566157 2.23514,-4.565289 6.46515,-11.424799 7.04527,-11.424799 0.24236,0 0.69457,-0.54488 1.00491,-1.210844 0.31034,-0.665964 1.81535,-2.537081 3.34447,-4.158038 l 2.7802,-2.947194 2.08285,2.409502 c 2.90316,3.358456 4.16278,8.084303 3.75205,14.076856 -0.42695,6.228987 -1.94996,9.542798 -6.36852,13.856799 -3.15588,3.081206 -4.14272,3.644038 -8.40628,4.794475 -5.27742,1.424 -7.38301,1.592619 -8.78841,0.703781 z m -6.99096,-1.916882 c -2.1583,-1.25995 -6.66263,-6.125406 -8.37359,-9.044942 -1.49703,-2.554491 -1.82229,-3.905517 -2.04086,-8.477103 -0.29018,-6.069313 0.34313,-8.724227 3.03123,-12.707227 3.41352,-5.057873 3.14218,-4.964843 15.3639,-5.267531 6.04365,-0.149679 11.20729,-0.02004 11.51647,0.289138 0.33063,0.330637 -0.26455,1.466208 -1.4514,2.769144 -4.85725,5.332329 -8.12102,10.226932 -10.80568,16.205065 -0.84905,1.890625 -1.92368,4.140625 -2.38807,5 -0.4644,0.859375 -1.19481,3.53125 -1.62316,5.9375 -1.17826,6.6189 -1.12166,6.526062 -3.22884,5.295956 z m 9.35417,-39.785402 c 0.45117,-0.180545 0.99024,-0.15834 1.19792,0.04934 0.20768,0.207683 -0.16146,0.355401 -0.82031,0.328263 -0.72809,-0.02999 -0.87619,-0.178088 -0.37761,-0.377604 z M 140.46875,64.035125 c 1.07722,-0.33905 1.05603,-12.516475 -0.0255,-14.660125 -1.33503,-2.646072 -6.47936,-3.784988 -11.18855,-2.477061 -2.77651,0.771144 -3.54012,2.504305 -2.08311,4.727994 0.98847,1.508581 0.95668,1.642824 -0.88566,3.741145 -2.21266,2.520074 -2.25414,2.78325 -0.89125,5.65531 1.56396,3.2958 3.43012,4.020625 9.29283,3.609368 2.75,-0.192906 5.35156,-0.461393 5.78125,-0.596631 z M 131.875,58.480969 c 0,-0.638139 0.56427,-0.980969 1.61458,-0.980969 1.95795,0 1.74365,1.467791 -0.25729,1.762219 -0.90138,0.132634 -1.35729,-0.129788 -1.35729,-0.78125 z m 52.21636,5.60975 c 2.68518,-1.121938 3.22825,-2.381571 1.90045,-4.408044 -0.97369,-1.486033 -0.96155,-1.557675 0.26392,-1.557675 2.48846,0 2.75239,-5.456157 0.37876,-7.829799 -0.55522,-0.555218 -1.00949,-1.240109 -1.00949,-1.521982 0,-1.141726 -5.2746,-2.62397 -7.92378,-2.226702 -3.22105,0.483027 -4.81439,1.73195 -6.39926,5.015983 -0.76717,1.589659 -1.30661,2.158622 -1.48143,1.5625 -1.15665,-3.943989 -1.59186,-4.63733 -3.66012,-5.831139 -2.09902,-1.211557 -2.52545,-1.25069 -5.45291,-0.500404 -2.49059,0.638321 -3.65838,0.654679 -5.41235,0.07582 -1.27724,-0.421527 -2.9595,-0.537276 -3.92209,-0.269861 -0.92706,0.257543 -3.09181,0.495222 -4.81056,0.528174 l -3.125,0.05991 0,8.4375 0,8.4375 2.8125,0 2.8125,0 0.42683,-5.148098 C 149.97039,53.11206 150.20156,52.5 151.91189,52.5 c 1.10201,0 1.21398,0.472214 1.22268,5.15625 0.005,2.835937 0.24483,5.527275 0.53237,5.98075 0.32758,0.516631 1.43255,0.750006 2.95918,0.625 l 2.43638,-0.1995 0.15896,-4.375 c 0.21394,-5.888423 0.5689,-7.1875 1.96392,-7.1875 1.93168,0 2.49881,1.388619 2.6923,6.592115 l 0.18482,4.970385 2.5,0 c 2.47031,0 2.50211,-0.02969 2.67812,-2.5 0.30905,-4.337721 0.69622,-4.526729 2.57024,-1.254722 1.24551,2.174645 2.36801,3.283141 3.87733,3.828935 2.90917,1.052012 5.81332,1.036112 8.40317,-0.046 z m -5.49761,-5.781802 c 0.77344,-0.148971 2.03906,-0.148971 2.8125,0 0.77344,0.148971 0.14062,0.270856 -1.40625,0.270856 -1.54688,0 -2.17969,-0.121885 -1.40625,-0.270856 z m -0.3125,-5.614746 c 0.60156,-0.157204 1.58594,-0.157204 2.1875,0 0.60156,0.157205 0.10937,0.285827 -1.09375,0.285827 -1.20313,0 -1.69531,-0.128622 -1.09375,-0.285827 z m 48.76819,11.385735 c 3.05189,-1.275162 4.82556,-4.363912 4.82556,-8.403465 0,-4.323988 -1.35023,-6.748779 -4.5727,-8.211829 -3.30535,-1.500678 -5.67425,-1.500678 -8.9796,0 -3.25858,1.479442 -4.5727,3.891717 -4.5727,8.393897 0,2.804476 0.30399,3.781864 1.68776,5.426378 2.98365,3.545863 7.31778,4.589126 11.61168,2.795019 z m -6.78857,-6.176583 c -0.59173,-1.542022 -0.009,-4.302045 1.04864,-4.963569 0.54836,-0.343102 1.75939,-0.432479 2.69118,-0.198615 1.55028,0.389096 1.67793,0.649039 1.50298,3.060784 -0.18538,2.555763 -0.2623,2.64146 -2.53995,2.829854 -1.62992,0.13482 -2.45713,-0.08812 -2.70285,-0.728454 z M 101.74613,59.53125 101.92976,55 l 3.56637,-0.0096 c 4.49694,-0.01207 5.37887,-0.574122 5.37887,-3.427931 0,-2.862401 -0.87996,-3.415905 -5.44972,-3.427929 -3.41214,-0.009 -3.62486,-0.09659 -3.4375,-1.415821 0.1803,-1.269479 0.62523,-1.436644 4.57472,-1.71875 l 4.375,-0.3125 0,-2.5 0,-2.5 -7.13735,-0.177712 c -5.289631,-0.131706 -7.269206,0.03009 -7.646681,0.625 -0.593919,0.936028 -0.716344,21.773387 -0.136794,23.283662 0.292831,0.763106 1.042025,0.973162 2.96875,0.832369 l 2.577075,-0.188319 0.18363,-4.53125 z m 16.8751,-0.761348 c 0.19461,-5.606228 0.53423,-6.244018 3.33349,-6.260331 1.87778,-0.01094 2.7663,-0.867902 3.3624,-3.242964 0.551,-2.195343 -1.37283,-3.317541 -4.60168,-2.684232 -1.25286,0.245738 -3.54356,0.482421 -5.09044,0.525961 l -2.8125,0.07916 -0.18138,7.1875 c -0.24626,9.758262 -0.13075,10.118162 3.1708,9.878675 l 2.63558,-0.191175 0.18373,-5.292598 z m 78.89274,4.198848 c 0.33443,-0.773438 0.89014,-1.828125 1.23491,-2.34375 0.34478,-0.515625 0.90743,-1.727861 1.25033,-2.693859 0.72815,-2.0513 1.62096,-1.764168 2.16109,0.695013 0.59787,2.722072 2.70156,5.748846 3.9956,5.748846 0.8284,0 1.50129,-0.874425 2.28452,-2.96875 0.61064,-1.632813 1.34966,-3.276041 1.64229,-3.651618 1.29178,-1.657972 4.27001,-9.901916 3.76105,-10.410872 -0.30472,-0.304721 -1.64579,-0.464537 -2.98015,-0.355148 -1.97474,0.161885 -2.60059,0.547729 -3.36395,2.073888 -0.51582,1.03125 -1.21879,1.875 -1.56216,1.875 -0.34338,0 -1.04634,-0.84375 -1.56216,-1.875 -0.75594,-1.511335 -1.39547,-1.912805 -3.29733,-2.069916 -2.15347,-0.177898 -2.43515,-0.01418 -3.22613,1.875 -1.31301,3.136003 -1.70571,3.219671 -3.13684,0.668328 -1.21495,-2.165932 -1.53364,-2.348412 -4.10137,-2.348412 -2.03954,0 -2.83487,0.263871 -2.97408,0.986734 -0.18963,0.984651 0.5679,3.175934 1.71148,4.950766 0.33224,0.515625 1.65754,3.257812 2.9451,6.09375 2.47217,5.445106 4.0077,6.548681 5.2178,3.75 z m 41.48166,0.417631 c 0.20866,-0.543737 0.37937,-3.044897 0.37937,-5.55813 0,-4.840509 0.3079,-5.328251 3.36362,-5.328251 1.93722,0 2.88638,-1.157645 2.88638,-3.520382 0,-2.358311 -1.37924,-3.078568 -4.54529,-2.373622 -1.10947,0.247029 -3.28284,0.478925 -4.82971,0.515324 l -2.8125,0.06618 -0.17646,7.777832 c -0.0971,4.277807 -0.0356,8.144993 0.13663,8.593749 0.46468,1.210931 5.12215,1.06725 5.59796,-0.1727 z"
       id="path3556"
       inkscape:connector-curvature="0" />
    <path
       style="fill:#eb1a33"
       d="m 151.25,61.5625 c 0,-0.859375 0.28125,-1.5625 0.625,-1.5625 0.34375,0 0.625,0.703125 0.625,1.5625 0,0.859375 -0.28125,1.5625 -0.625,1.5625 -0.34375,0 -0.625,-0.703125 -0.625,-1.5625 z m -8.62766,-3.244364 c -0.0673,-1.096901 -0.40359,-2.168187 -0.74734,-2.380636 -0.34375,-0.212449 -0.62914,-1.42436 -0.63421,-2.693136 -0.0131,-3.282112 -1.2504,-5.3166 -3.75708,-6.177838 -2.72809,-0.937303 -5.2735,-0.98945 -8.22902,-0.168587 -2.81258,0.781164 -3.54031,2.504009 -2.03081,4.807802 1.05588,1.611463 1.04203,1.675086 -0.68842,3.163553 -1.47707,1.270518 -2.20027,1.459489 -4.4208,1.15513 -2.17568,-0.29821 -2.70582,-0.169687 -2.93725,0.712095 -0.15533,0.59179 -0.31503,0.05139 -0.35491,-1.200901 -0.0787,-2.471403 0.60532,-3.035618 3.68015,-3.035618 1.49022,0 1.89689,-0.368103 2.5317,-2.291577 0.67173,-2.035357 0.62474,-2.389746 -0.42028,-3.169592 -0.77574,-0.5789 -1.92179,-0.744807 -3.36407,-0.487 -1.20312,0.215058 -3.59375,0.446062 -5.3125,0.513342 l -3.125,0.122327 -0.18231,4.465923 c -0.16764,4.106521 -0.28222,4.439795 -1.42378,4.141271 -0.95772,-0.250448 -1.13491,-0.628355 -0.77527,-1.653422 0.71854,-2.048035 0.46196,-4.837851 -0.50103,-5.447692 -0.47718,-0.302191 -2.50436,-0.553746 -4.50483,-0.559009 -3.41214,-0.009 -3.62486,-0.09659 -3.4375,-1.415821 0.1803,-1.269479 0.62523,-1.436644 4.57472,-1.71875 l 4.375,-0.3125 0,-2.5 0,-2.5 -7.13735,-0.177712 c -5.289631,-0.131706 -7.269206,0.03009 -7.646681,0.625 C 95.873338,40.57628 95.635525,43.890625 95.625,47.5 c -0.0105,3.609375 -0.225769,6.85316 -0.478319,7.208411 -0.25255,0.355251 -1.162306,0.667521 -2.021681,0.693934 -0.859375,0.02641 -2.476563,0.263096 -3.59375,0.525964 L 87.5,56.40625 l 0,-16.640625 0,-16.640625 115.625,0 115.625,0 0,16.951528 c 0,14.748168 -0.11796,16.853631 -0.90751,16.198363 -0.49913,-0.41424 -1.4835,-0.57035 -2.1875,-0.34691 -1.20504,0.382466 -1.27999,0.155306 -1.27999,-3.879552 0,-5.838592 -1.34269,-10.535627 -4.26637,-14.924799 -3.00619,-4.513027 -6.09618,-7.050409 -11.65571,-9.571218 -3.68683,-1.671691 -4.96011,-1.927412 -9.59687,-1.927412 -4.37454,0 -6.1263,0.312341 -9.63958,1.71875 -5.95366,2.383324 -10.92172,7.146034 -13.8688,13.295544 -1.22247,2.550868 -2.22267,4.997438 -2.22267,5.436824 0,0.550382 -1.05518,0.798882 -3.3922,0.798882 -3.08205,0 -3.53857,0.185719 -4.99307,2.03125 l -1.60087,2.03125 -0.007,-6.329722 c -0.008,-7.105367 -0.43653,-7.948969 -3.87235,-7.619172 L 247.1875,37.1875 246.875,47.472312 c -0.27591,9.080414 -0.40749,10.075647 -1.12367,8.498672 -0.61219,-1.347988 -0.98781,-1.609501 -1.53125,-1.066063 -0.39604,0.396043 -1.64821,0.720079 -2.78258,0.720079 -1.60698,0 -2.0625,-0.261306 -2.0625,-1.183132 0,-1.274827 1.15542,-1.941868 3.36362,-1.941868 1.93722,0 2.88638,-1.157645 2.88638,-3.520382 0,-2.358311 -1.37924,-3.078568 -4.54529,-2.373622 -1.10947,0.247029 -3.28284,0.478925 -4.82971,0.515324 l -2.8125,0.06618 -0.33466,4.0625 c -0.23633,2.868897 -0.47928,3.695237 -0.82687,2.8125 -1.84731,-4.691267 -2.40213,-5.430813 -4.93789,-6.58187 -3.34076,-1.516468 -5.7013,-1.520662 -9.01538,-0.01602 -2.44803,1.111441 -4.54277,3.750343 -4.59257,5.785601 -0.0263,1.07336 -1.74445,3.3188 -2.19485,2.868393 -0.19396,-0.193954 0.36788,-2.125868 1.24852,-4.293142 0.91661,-2.255803 1.36704,-4.174625 1.05354,-4.488119 -0.30119,-0.301192 -1.63936,-0.458122 -2.97373,-0.348733 -2.03045,0.166453 -2.5941,0.535256 -3.45622,2.261446 -0.56656,1.134406 -1.22801,2.062557 -1.46989,2.062557 -0.24188,0 -0.90333,-0.928151 -1.46989,-2.062557 -0.854,-1.709935 -1.4335,-2.095881 -3.3896,-2.257474 -2.15347,-0.177897 -2.43515,-0.01418 -3.22613,1.875 -1.31301,3.136003 -1.7057,3.219671 -3.13684,0.668329 -1.21589,-2.167613 -1.53231,-2.348412 -4.10993,-2.348412 -2.76478,0 -2.79165,0.02066 -2.69598,2.072409 0.0531,1.139826 0.54534,2.568222 1.09375,3.174213 0.54841,0.605992 0.99712,1.606283 0.99712,2.222869 0,0.925638 -0.16343,0.985432 -0.9375,0.343009 -0.51563,-0.427931 -0.9375,-1.263084 -0.9375,-1.855897 0,-0.592812 -0.5625,-1.726409 -1.25,-2.519103 -0.6875,-0.792694 -1.25,-1.64894 -1.25,-1.902769 0,-1.09979 -5.33323,-2.56419 -7.92378,-2.175714 -3.22105,0.483027 -4.81439,1.73195 -6.39926,5.015983 -0.76717,1.589659 -1.30661,2.158622 -1.48143,1.5625 -1.15665,-3.943989 -1.59186,-4.63733 -3.66012,-5.831139 -2.09902,-1.211557 -2.52545,-1.25069 -5.45291,-0.500404 -2.49059,0.638321 -3.65838,0.654679 -5.41235,0.07582 -1.27724,-0.421527 -2.9595,-0.537276 -3.92209,-0.269861 -0.92706,0.257543 -3.09181,0.495222 -4.81056,0.528174 l -3.125,0.05991 -0.34641,6.5625 c -0.19052,3.609375 -0.40146,5.665036 -0.46875,4.568136 z m 43.28946,1.015282 c -0.22658,-0.36662 -0.20467,-0.858807 0.0487,-1.09375 0.25335,-0.234942 0.58679,-0.07385 0.74096,0.357976 0.15418,0.431829 0.581,0.599312 0.94851,0.372182 0.39493,-0.244085 0.48582,-0.117883 0.22223,0.308606 -0.55806,0.902953 -1.42135,0.927167 -1.96038,0.05499 z M 133.125,58.125 c 0,-0.34375 0.28125,-0.625 0.625,-0.625 0.34375,0 0.625,0.28125 0.625,0.625 0,0.34375 -0.28125,0.625 -0.625,0.625 -0.34375,0 -0.625,-0.28125 -0.625,-0.625 z m 46.75781,0.198054 c 0.45117,-0.180545 0.99024,-0.15834 1.19792,0.04934 0.20768,0.207682 -0.16146,0.3554 -0.82031,0.328262 -0.72809,-0.02999 -0.87619,-0.178088 -0.37761,-0.377604 z M 200.625,57.1875 c 0,-0.515625 0.11054,-0.9375 0.24563,-0.9375 0.1351,0 0.40752,0.421875 0.60539,0.9375 0.19786,0.515625 0.0873,0.9375 -0.24563,0.9375 -0.33297,0 -0.60539,-0.421875 -0.60539,-0.9375 z m 19.48398,-1.552866 c 0.24213,-2.46396 1.58297,-3.472952 3.85678,-2.90226 1.25263,0.31439 1.65924,0.806742 1.65924,2.009151 0,1.295906 -0.22763,1.520462 -1.22151,1.205017 -0.70155,-0.222661 -1.91888,0.06924 -2.85977,0.685737 l -1.63826,1.073428 0.20352,-2.071073 z m 38.05225,0.683067 c -0.62896,-1.175232 -0.41669,-1.699745 1.6523,-4.08277 1.30568,-1.503865 2.58491,-2.605344 2.84272,-2.44773 1.10071,0.672915 0.31604,3.282383 -1.65229,5.494851 -2.0798,2.337757 -2.13509,2.357896 -2.84273,1.035649 z M 104.21875,55.836074 c 0.42969,-0.173382 1.13281,-0.173382 1.5625,0 0.42969,0.173384 0.0781,0.315242 -0.78125,0.315242 -0.85937,0 -1.21094,-0.141858 -0.78125,-0.315242 z m 47.15036,-0.03203 c -1.94264,-0.371092 -1.665,-2.905145 0.34964,-3.19127 1.19629,-0.1699 1.40625,0.08672 1.40625,1.71875 0,1.055158 -0.0703,1.880168 -0.15625,1.833356 -0.0859,-0.04681 -0.80578,-0.209189 -1.59964,-0.360836 z m 8.47733,-0.960299 C 159.37022,53.548788 160.03038,52.5 161.3217,52.5 c 1.50969,0 2.29624,1.804359 1.11312,2.553507 -1.23624,0.782786 -2.2537,0.700333 -2.58838,-0.209757 z m 18.4467,-2.151869 c 0.60811,-0.158465 1.45186,-0.148044 1.875,0.02316 0.42315,0.171202 -0.0744,0.300855 -1.10564,0.288117 -1.03125,-0.01274 -1.37746,-0.152811 -0.76936,-0.311276 z"
       id="path3554"
       inkscape:connector-curvature="0" />
  </g>
</svg>
