<?xml version="1.0" encoding="UTF-8" standalone="no"?>
<!-- Created with Inkscape (http://www.inkscape.org/) -->

<svg
   xmlns:dc="http://purl.org/dc/elements/1.1/"
   xmlns:cc="http://creativecommons.org/ns#"
   xmlns:rdf="http://www.w3.org/1999/02/22-rdf-syntax-ns#"
   xmlns:svg="http://www.w3.org/2000/svg"
   xmlns="http://www.w3.org/2000/svg"
   xmlns:xlink="http://www.w3.org/1999/xlink"
   xmlns:sodipodi="http://sodipodi.sourceforge.net/DTD/sodipodi-0.dtd"
   xmlns:inkscape="http://www.inkscape.org/namespaces/inkscape"
   id="svg3458"
   version="1.1"
   inkscape:version="0.91 r13725"
   width="406.875"
   height="108.75"
   viewBox="0 0 406.875 108.75"
   sodipodi:docname="Ionic.svg">
  <metadata
     id="metadata3464">
    <rdf:RDF>
      <cc:Work
         rdf:about="">
        <dc:format>image/svg+xml</dc:format>
        <dc:type
           rdf:resource="http://purl.org/dc/dcmitype/StillImage" />
        <dc:title></dc:title>
      </cc:Work>
    </rdf:RDF>
  </metadata>
  <defs
     id="defs3462" />
  <sodipodi:namedview
     pagecolor="#ffffff"
     bordercolor="#666666"
     borderopacity="1"
     objecttolerance="10"
     gridtolerance="10"
     guidetolerance="10"
     inkscape:pageopacity="0"
     inkscape:pageshadow="2"
     inkscape:window-width="640"
     inkscape:window-height="480"
     id="namedview3460"
     showgrid="false"
     inkscape:zoom="0.64393241"
     inkscape:cx="203.4375"
     inkscape:cy="54.375"
     inkscape:window-x="0"
     inkscape:window-y="0"
     inkscape:window-maximized="0"
     inkscape:current-layer="svg3458" />
  <image
     width="406.875"
     height="108.75"
     preserveAspectRatio="none"
     style="image-rendering:optimizeQuality"
     xlink:href="file:///media/havoc/USB%20DISK/pics/_Products/Ionic.png"
     id="image3466"
     x="0"
     y="0"
     sodipodi:absref="/media/havoc/USB DISK/pics/_Products/Ionic.png" />
  <g
     id="g3515">
    <path
       style="fill:#fdfdfd"
       d="M 0,54.375 0,0 203.4375,0 406.875,0 l 0,54.375 0,54.375 -203.4375,0 L 0,108.75 0,54.375 Z"
       id="path3531"
       inkscape:connector-curvature="0" />
    <path
       style="fill:#ebf2fd"
       d="M 102.91821,99.003462 C 88.403581,96.380762 75.794606,86.775644 69.356881,73.4375 65.307656,65.048019 64.113275,59.3333 64.537244,50.377085 65.132406,37.804314 69.981175,27.388253 79.334894,18.588942 94.503869,4.3190627 117.05094,1.7174064 134.89851,12.17758 c 3.5868,2.102166 3.99773,2.203782 6.21981,1.538031 5.81444,-1.742048 11.22319,4.489128 8.94547,10.30567 -0.33659,0.859537 0.22211,2.394435 1.93372,5.3125 1.32389,2.257045 3.16039,6.353719 4.08111,9.103719 1.48854,4.445987 1.67734,5.969522 1.70395,13.75 0.0314,9.182277 -0.43832,11.8892 -3.24806,18.717756 -5.96687,14.501331 -19.68729,25.387144 -35.46588,28.1387 -6.54933,1.142104 -9.64864,1.134334 -16.15042,-0.0405 z m 21.85086,-5.484056 c 18.76832,-6.100068 31.5963,-26.018675 29.16199,-45.281153 -0.80093,-6.337699 -2.64645,-12.209742 -5.30364,-16.87503 -1.87194,-3.286607 -1.92048,-3.319702 -4.2831,-2.920539 -5.07186,0.856886 -8.96832,-2.895586 -8.62328,-8.304634 l 0.18822,-2.95055 -5.29839,-2.675911 C 123.54161,10.9413 117.86256,9.7966725 109.0625,10.168458 97.421737,10.660258 89.573869,14.186587 80.923088,22.8125 75.385431,28.334235 71.697806,34.589091 69.68455,41.875 68.200519,47.245657 68.152094,57.59451 69.585106,63.125 73.5106,78.274819 85.4555,90.299194 100.625,94.371425 c 6.74007,1.809363 17.07817,1.444544 24.14407,-0.852019 z M 105,71.531425 c -4.70137,-1.473537 -8.769019,-5.0651 -11.25,-9.933291 -1.937219,-3.801218 -2.1861,-4.8354 -2.175269,-9.038976 0.01019,-3.948475 0.306482,-5.324697 1.762081,-8.184158 2.232257,-4.385171 4.930676,-7.2054 8.772258,-9.168274 8.04237,-4.109275 17.61456,-2.474063 23.61335,4.033854 3.87609,4.205054 5.19469,7.653989 5.20574,13.616111 0.008,4.384814 -0.23598,5.523871 -1.86733,8.71372 C 124.63415,70.226106 114.37984,74.471312 105,71.531425 Z m 98.3902,5.932975 c -15.99278,-6.152869 -16.58493,-29.505637 -0.93181,-36.748297 4.73372,-2.19028 12.04318,-2.303392 16.49755,-0.255295 4.87297,2.240566 7.70206,4.879155 9.76312,9.105683 2.66921,5.473678 3.03704,9.793116 1.31635,15.458128 -1.13785,3.7461 -1.92979,5.076281 -4.62965,7.776143 -5.6976,5.6976 -14.48799,7.5597 -22.01556,4.663638 z m 12.94827,-3.81475 c 3.1534,-0.944781 7.10598,-4.3662 8.80651,-7.623056 1.73249,-3.318081 1.90514,-10.931246 0.31567,-13.920419 -2.86837,-5.394281 -7.10917,-8.286247 -12.91541,-8.807508 -4.45659,-0.400096 -8.0599,0.589148 -11.3813,3.124596 -9.27302,7.078718 -6.945,23.163525 3.92173,27.096025 2.72655,0.986693 8.18362,1.049912 11.25281,0.130362 z m 85.90031,3.550125 C 286.6911,70.808063 285.87551,48.910544 300.8998,41.25 c 3.90508,-1.991113 4.74463,-2.182534 9.35148,-2.132181 3.71248,0.04058 5.8473,0.407242 8.01103,1.375922 3.8143,1.707625 8.11203,5.691978 9.52894,8.834137 2.35414,5.22056 -1.16632,6.100383 -4.42882,1.106836 -3.30827,-5.063609 -7.37387,-7.298703 -13.28992,-7.306228 -3.9873,-0.0051 -7.24088,1.155245 -10.0988,3.601517 -3.89136,3.330859 -5.25723,6.453758 -5.25723,12.019997 0,5.609687 1.36601,8.689262 5.37737,12.122831 3.05583,2.615681 5.72594,3.499275 10.53115,3.484956 5.79062,-0.01725 10.77465,-2.912106 13.21811,-7.677437 1.01918,-1.987631 1.50077,-2.349913 2.90793,-2.1875 2.40454,0.277531 2.4297,2.142537 0.0769,5.694694 -5.07727,7.665287 -15.6597,10.683144 -24.58911,7.012231 z M 181.27199,76.916088 c -0.40098,-0.749251 -0.64699,-7.742744 -0.64699,-18.392857 0,-14.788435 0.13691,-17.32086 0.98214,-18.166088 1.23349,-1.233488 1.80223,-1.233488 3.03572,0 0.84523,0.845228 0.98214,3.377653 0.98214,18.166088 0,10.650113 -0.24601,17.643606 -0.64699,18.392857 -0.35584,0.6649 -1.1897,1.208912 -1.85301,1.208912 -0.66331,0 -1.49717,-0.544012 -1.85301,-1.208912 z M 237.625,77.375 c -0.54857,-0.548569 -0.75,-5.578444 -0.75,-18.72801 0,-16.581846 0.0862,-18.02414 1.10989,-18.572005 1.57687,-0.843914 3.26511,0.280877 3.26511,2.175378 l 0,1.563251 2.03125,-1.534133 c 1.11719,-0.843774 3.55886,-1.983087 5.42594,-2.531808 8.72416,-2.563965 17.21332,0.383675 21.05135,7.309531 l 1.80396,3.255296 0.19952,13.168806 c 0.17637,11.639963 0.0796,13.26835 -0.83363,14.026256 -0.7532,0.625094 -1.31536,0.679913 -2.07453,0.202282 -0.89859,-0.56535 -1.0842,-2.402757 -1.35386,-13.401263 -0.35664,-14.546286 -0.83616,-16.314769 -5.20829,-19.208105 -2.23023,-1.475903 -3.11568,-1.662976 -7.87107,-1.662976 -6.22099,0 -8.97155,1.249453 -11.42038,5.187754 -1.35735,2.182932 -1.44917,3.028435 -1.6418,15.11829 -0.12242,7.683593 -0.46553,13.121131 -0.85778,13.59375 -0.82275,0.991356 -1.9078,1.005587 -2.87568,0.03769 z m 43.125,0 C 280.20154,76.826537 280,71.808675 280,58.701528 c 0,-15.591099 0.12881,-18.030378 0.98989,-18.745007 0.71814,-0.596002 1.27577,-0.641292 2.03125,-0.164975 0.92593,0.583785 1.05975,2.649688 1.20733,18.63801 0.16594,17.979256 -0.008,19.695444 -1.9925,19.695444 -0.40478,0 -1.07347,-0.3375 -1.48597,-0.75 z M 180.98214,32.142857 c -1.48799,-1.487991 -1.21618,-3.835688 0.58036,-5.01283 1.44742,-0.948386 1.67758,-0.948386 3.125,0 2.63846,1.728787 1.52654,5.994973 -1.5625,5.994973 -0.63839,0 -1.60268,-0.441964 -2.14286,-0.982143 z M 280,31.875 c -1.46135,-1.461349 -1.56514,-2.4551 -0.42001,-4.021169 1.72412,-2.357872 6.04501,-0.807672 6.04501,2.168758 0,1.293018 -1.9424,3.102411 -3.33046,3.102411 -0.5745,0 -1.60704,-0.5625 -2.29454,-1.25 z"
       id="path3529"
       inkscape:connector-curvature="0" />
    <path
       style="fill:#d6e5fc"
       d="M 102.41021,98.430456 C 86.512294,95.263788 73.6528,84.213812 67.530819,68.459106 65.345063,62.834131 65.336713,62.774194 65.35205,52.8125 65.3668,43.234845 65.4475,42.596959 67.262919,37.709076 69.798488,30.88224 72.627988,26.266516 77.425356,21.13124 84.291456,13.781508 92.322175,9.2450838 102.00932,7.2441494 c 11.27869,-2.3296782 23.91184,-0.1493719 33.57082,5.7938596 2.75018,1.692203 3.18947,1.783093 5.56002,1.150358 5.26723,-1.405903 9.34523,2.55843 8.65208,8.410925 -0.31928,2.695815 -0.0725,3.532711 2.42809,8.233262 3.84971,7.236709 5.34416,13.388664 5.33941,21.979946 -0.006,9.968275 -2.28555,17.619469 -7.63314,25.614781 -10.39959,15.548681 -29.50381,23.591059 -47.51639,20.003175 z m 17.77891,-3.170675 c 13.86906,-3.052981 26.05284,-13.295687 31.36442,-26.367569 2.15372,-5.300324 3.67164,-14.510904 3.16498,-19.204712 -0.64026,-5.931492 -2.70337,-12.785244 -5.27236,-17.515048 l -2.3681,-4.359952 -3.0852,0.201122 c -2.44592,0.159447 -3.45349,-0.08858 -4.86261,-1.196991 -2.28681,-1.798803 -3.43488,-4.570477 -3.06216,-7.392626 0.28268,-2.140311 0.15182,-2.322376 -3.0426,-4.233012 -1.8359,-1.09808 -5.58799,-2.775125 -8.33799,-3.726769 -4.50218,-1.557989 -5.84007,-1.7302602 -13.4375,-1.7302602 -7.60948,0 -8.92818,0.170435 -13.4375,1.7367292 -14.372281,4.992151 -25.365881,17.013853 -28.779812,31.471255 -1.680469,7.116508 -1.047432,17.685259 1.462468,24.416271 7.619113,20.432825 29.024807,32.451431 49.693964,27.901562 z M 104.81124,71.0095 C 97.218719,68.183219 91.875,60.670836 91.875,52.823297 c 0,-7.252447 4.499406,-14.388308 11.11237,-17.62373 4.6115,-2.2562 11.3474,-2.424349 15.83913,-0.395395 3.93876,1.779172 7.81118,5.418143 9.81005,9.218669 1.44445,2.746382 1.66461,3.908121 1.66571,8.789659 0.001,4.635249 -0.24605,6.089324 -1.40433,8.263872 -2.1013,3.944978 -4.68184,6.596284 -8.3784,8.608209 -2.71608,1.478275 -4.22321,1.841694 -8.32429,2.007281 -3.24913,0.131182 -5.84223,-0.108449 -7.384,-0.682362 z m 96.98141,5.075081 C 194.95654,72.545744 191.50961,66.464612 191.61274,58.125 c 0.0887,-7.175222 3.93407,-13.264786 10.57476,-16.746378 2.68192,-1.406084 3.92254,-1.64212 8.75,-1.664751 C 217.43033,39.683433 221.04051,41.040505 225,45 c 3.84461,3.844607 5.28774,7.589166 5.29917,13.75 0.0157,8.446387 -3.22146,13.864563 -10.43804,17.470731 -3.32336,1.6607 -4.47054,1.904269 -8.96885,1.904269 -4.60255,0 -5.58256,-0.21975 -9.09963,-2.040419 z m 16.70403,-2.829112 c 3.00561,-1.5348 6.27456,-5.064957 7.60253,-8.210013 1.44568,-3.423852 1.22405,-9.769658 -0.46604,-13.343795 C 223.13469,46.417945 216.87746,42.5 210.9375,42.5 c -8.94868,0 -15.95421,7.134292 -15.92378,16.216465 0.0259,7.742485 4.05026,13.380773 11.23224,15.736991 2.69012,0.882569 9.47581,0.219 12.25071,-1.197987 z m 84.00644,3.779562 c -4.10794,-1.449481 -9.44253,-7.038925 -10.80914,-11.32555 -2.37629,-7.453628 -0.66464,-15.521713 4.35863,-20.544987 8.5554,-8.555394 23.09641,-7.367919 30.22152,2.468003 2.01745,2.785012 2.22433,5.036556 0.49308,5.366363 -0.67907,0.129364 -1.75255,-0.881217 -3.06399,-2.88447 -6.043,-9.230791 -18.75559,-10.063781 -26.09067,-1.709587 -1.9585,2.230604 -3.86255,7.330291 -3.86255,10.345197 0,3.243374 1.95219,8.206837 4.21139,10.7075 3.51426,3.889869 6.51105,5.185281 12.05153,5.209475 6.11952,0.02669 9.88827,-1.784256 13.35615,-6.417962 4.01743,-5.367988 6.56789,-3.845825 2.99065,1.784875 -1.92988,3.037693 -5.58681,5.865625 -9.29596,7.18865 -3.19877,1.140975 -11.08337,1.039443 -14.56064,-0.187507 z m -120.9534,-0.280462 c -0.17583,-0.458206 -0.24488,-8.845119 -0.15346,-18.637585 l 0.16624,-17.804484 1.5625,0 1.5625,0 0,18.4375 0,18.4375 -1.40904,0.200087 c -0.77498,0.110044 -1.55291,-0.174812 -1.72874,-0.633018 z m 56.2509,0.0025 c -0.17632,-0.4595 -0.24578,-8.847475 -0.15436,-18.639941 0.16183,-17.33255 0.19938,-17.804628 1.41624,-17.804628 0.95341,0 1.29647,0.481949 1.44585,2.03125 0.10772,1.117187 0.32109,2.03125 0.47416,2.03125 0.15307,0 1.40607,-0.816944 2.78444,-1.815431 4.82616,-3.496047 13.77679,-4.156917 19.15303,-1.414163 3.33935,1.703611 6.74351,5.721582 7.65644,9.037007 0.46744,1.697573 0.65984,6.951243 0.54265,14.817587 -0.17446,11.710312 -0.23051,12.1875 -1.43157,12.1875 -1.19919,0 -1.26271,-0.520831 -1.5625,-12.8125 -0.30831,-12.64083 -0.33589,-12.852291 -2.05821,-15.782303 -2.47085,-4.203397 -5.61746,-5.751224 -11.69179,-5.751224 -6.07433,0 -9.22094,1.547827 -11.69179,5.751224 -1.72221,2.929821 -1.74992,3.142199 -2.05821,15.774991 -0.28218,11.562812 -0.4188,12.825543 -1.40814,13.014943 -0.6026,0.115363 -1.23991,-0.166206 -1.41624,-0.625706 z m 43.125,0 c -0.17632,-0.4595 -0.24578,-8.847475 -0.15436,-18.639941 0.16183,-17.33255 0.19938,-17.804628 1.41624,-17.804628 1.22174,0 1.25,0.416667 1.25,18.428941 0,17.066572 -0.081,18.44454 -1.09564,18.63994 -0.6026,0.11605 -1.23991,-0.164956 -1.41624,-0.624456 z M 181.27855,31.596901 c -1.77737,-2.141609 0.67373,-5.762298 2.9402,-4.343165 1.3549,0.848358 1.80521,3.983671 0.67505,4.700127 -1.26106,0.799443 -2.77999,0.649468 -3.61525,-0.356962 z m 98.72819,-0.02629 c -0.43295,-0.521673 -0.60298,-1.600123 -0.38758,-2.458344 0.70286,-2.800429 4.43879,-2.780614 5.14353,0.02728 0.46419,1.84949 -0.6937,3.360449 -2.57519,3.360449 -0.77519,0 -1.75654,-0.418223 -2.18076,-0.929384 z"
       id="path3527"
       inkscape:connector-curvature="0" />
    <path
       style="fill:#c5dafb"
       d="M 105.33682,98.715625 C 94.443725,97.023831 86.792844,93.131856 79.0625,85.349994 75.96875,82.235619 72.491019,78.073469 71.334212,76.100756 64.235231,63.994875 63.092688,48.616054 68.329125,35.651942 77.109594,13.913689 101.37151,1.8146949 123.49531,8.1415319 c 4.64823,1.3292762 10.13736,3.7447671 12.77026,5.6195521 1.46207,1.041092 2.29988,1.208197 4.18735,0.835192 4.38587,-0.86674 7.05006,0.306931 8.7397,3.850144 0.86579,1.815573 0.90245,2.521671 0.24486,4.716495 -0.6572,2.193542 -0.62909,2.740678 0.18713,3.642598 1.83827,2.031265 5.88433,11.664199 6.96031,16.571228 1.40844,6.423234 0.98991,16.296776 -0.95635,22.560759 -5.79336,18.645794 -22.48191,31.771444 -42.03183,33.058294 -2.49383,0.164156 -6.2108,0.03806 -8.25991,-0.280169 z M 122.11907,95.0175 c 12.22544,-3.126738 22.65892,-11.570144 28.21095,-22.83 3.22548,-6.541469 4.31537,-11.420084 4.32842,-19.375 0.0137,-8.355267 -0.81295,-11.992606 -4.4552,-19.603298 l -2.80121,-5.853296 -2.45275,0.39221 c -5.20981,0.833083 -9.18689,-2.839809 -8.51326,-7.86213 0.28897,-2.1544 0.1102,-2.573145 -1.6822,-3.940273 -2.81073,-2.143847 -8.02593,-4.347357 -13.34713,-5.639389 -6.75473,-1.6401021 -18.18029,-1.066334 -24.417421,1.226193 -9.389544,3.451232 -16.663525,9.062296 -21.902657,16.895445 -14.945181,22.3449 -6.509356,52.504469 17.86325,63.864275 2.4818,1.156738 6.13805,2.497013 8.124998,2.978394 5.49576,1.33145 15.31015,1.2134 21.04421,-0.253131 z M 105.20778,70.718081 C 91.187806,65.873131 87.592006,48.770916 98.497681,38.803742 102.35451,35.278823 106.21225,33.75 111.25,33.75 c 7.32559,0 13.42761,3.639932 16.86988,10.0631 1.89083,3.52822 2.1444,4.551647 2.15235,8.6869 0.0114,5.935176 -1.73657,10.110206 -5.83982,13.948312 -5.32603,4.981888 -12.53244,6.582425 -19.22463,4.269769 z M 205.625,77.57725 c -5.86227,-1.9274 -11.03314,-6.701388 -12.76556,-11.785756 -1.12086,-3.289531 -1.28252,-9.380676 -0.33912,-12.777312 2.42412,-8.727844 12.80432,-14.973273 21.79509,-13.113401 8.2232,1.701091 13.07425,6.164948 15.40222,14.172867 2.48001,8.530927 -1.71105,17.731983 -10.03013,22.020177 -2.36428,1.2187 -4.26609,1.65785 -7.8125,1.803988 -2.57813,0.106237 -5.39063,-0.038 -6.25,-0.320563 z m 14.09316,-4.779538 c 7.98497,-4.9383 10.12268,-15.790879 4.6712,-23.714334 -5.28842,-7.686456 -17.90444,-8.917856 -24.6125,-2.402327 -2.85945,2.777373 -3.93998,4.769466 -4.82475,8.894997 -1.48827,6.939564 2.00283,14.514796 8.17289,17.734065 3.10703,1.621112 3.92299,1.773537 8.48749,1.585462 4.32302,-0.178119 5.48986,-0.480119 8.10567,-2.097863 z m 84.3438,4.496875 c -6.25719,-2.053818 -10.61319,-6.65105 -12.5213,-13.214725 -2.60603,-8.964433 1.68646,-18.466616 10.2304,-22.646775 7.0846,-3.466171 16.64402,-1.808693 22.12652,3.836447 2.92412,3.010881 4.67495,6.567606 3.56932,7.250924 -1.11129,0.686811 -2.34966,0.08354 -2.81076,-1.369262 -0.71801,-2.262262 -4.29897,-5.707706 -7.46409,-7.181627 -6.5969,-3.072022 -15.29977,-1.288063 -19.68812,4.035773 -5.57149,6.759177 -4.69664,17.934883 1.83413,23.430164 3.22031,2.709719 6.9595,3.765938 12.15228,3.432681 5.94435,-0.381481 9.70624,-2.443781 12.41945,-6.808431 1.84579,-2.969237 3.0956,-3.740687 3.91426,-2.416069 0.5652,0.914513 -2.43389,5.791894 -4.77025,7.757813 -3.67762,3.094525 -6.81291,4.292375 -11.8038,4.509719 -2.75198,0.119844 -5.71999,-0.134769 -7.18804,-0.616631 z M 181.62937,75.886381 C 181.42071,75.342644 181.25,67.631269 181.25,58.75 c 0,-8.881271 0.17071,-16.592643 0.37937,-17.136383 0.20865,-0.543739 0.88169,-0.988617 1.49563,-0.988617 0.61394,0 1.28698,0.444878 1.49563,0.988617 C 184.82929,42.157357 185,49.868729 185,58.75 c 0,8.881269 -0.17071,16.592644 -0.37937,17.136381 -0.20865,0.543744 -0.88169,0.988619 -1.49563,0.988619 -0.61394,0 -1.28698,-0.444875 -1.49563,-0.988619 z m 56.17092,0.244688 c -0.1765,-0.459969 -0.24597,-8.566694 -0.15435,-18.014939 0.16198,-16.706443 0.20092,-17.17863 1.41656,-17.17863 0.94455,0 1.29666,0.480318 1.44096,1.96563 l 0.19095,1.965631 3.0859,-2.076657 c 3.5908,-2.41643 8.96911,-3.721896 13.05636,-3.169141 4.35283,0.588672 9.44865,3.407131 11.41678,6.314537 2.55339,3.771967 3.09774,7.493579 2.87966,19.6875 -0.18699,10.455631 -0.25068,10.9375 -1.44561,10.9375 -1.19919,0 -1.26271,-0.520831 -1.5625,-12.8125 -0.33343,-13.670563 -0.5969,-14.896475 -3.85539,-17.93892 -4.76842,-4.452254 -15.0208,-4.452254 -19.78922,0 -3.25818,3.042153 -3.52197,4.269031 -3.85539,17.931495 -0.28218,11.562644 -0.41881,12.825438 -1.40814,13.014944 -0.6026,0.115425 -1.24005,-0.166475 -1.41657,-0.62645 z m 43.125,0 c -0.1765,-0.459969 -0.24597,-8.566694 -0.15435,-18.014939 0.16198,-16.706443 0.20092,-17.17863 1.41656,-17.17863 1.22074,0 1.25,0.416667 1.25,17.803941 0,16.470928 -0.082,17.81974 -1.09564,18.01494 -0.6026,0.11605 -1.24005,-0.165337 -1.41657,-0.625312 z M 181.60714,31.517857 C 179.80383,29.714544 180.87501,27.5 183.55059,27.5 c 1.96957,0 2.75772,2.954624 1.10962,4.159744 -1.46934,1.074405 -1.85469,1.056497 -3.05307,-0.141887 z m 98.77052,-0.364486 c -0.6789,-0.969272 -0.77024,-1.66983 -0.32595,-2.5 0.81387,-1.520712 3.47611,-1.486335 4.3013,0.05554 0.83675,1.563473 0.82678,1.647014 -0.33515,2.808945 -1.34833,1.348326 -2.52287,1.230722 -3.6402,-0.364486 z"
       id="path3525"
       inkscape:connector-curvature="0" />
    <path
       style="fill:#aecbfa"
       d="M 101.5625,97.735438 C 96.17715,96.612006 88.4619,92.992981 83.318962,89.177856 75.653819,83.491719 68.779037,73.037325 66.597662,63.75 65.216013,57.867559 65.329656,46.979726 66.8341,41.097406 70.62325,26.281974 82.005556,14.231327 97.1875,8.9617244 101.77271,7.3702125 102.9393,7.2274081 111.25,7.24031 c 8.1373,0.012631 9.57296,0.1846144 14.0625,1.6845875 2.75,0.9187844 6.87394,2.7696365 9.16432,4.1130045 3.89189,2.282696 4.32632,2.399249 6.64051,1.781558 1.85894,-0.496179 2.95548,-0.4624 4.39896,0.13551 3.0027,1.243762 4.07533,3.39063 3.66763,7.340827 -0.31698,3.071232 -0.11911,3.785809 2.3529,8.497459 3.30008,6.2899 4.45613,9.866747 5.33407,16.503708 1.15517,8.732604 -0.60303,18.541805 -4.74144,26.453036 -4.74865,9.077806 -11.89509,15.953419 -21.19035,20.387319 -9.26304,4.418531 -19.45794,5.667225 -29.3766,3.598119 z m 20.625,-2.373069 c 6.72886,-1.793988 13.77923,-5.721869 18.7559,-10.449219 8.58258,-8.152606 12.85119,-16.86005 14.37054,-29.314151 0.83852,-6.873211 -2.25408,-19.014898 -6.58116,-25.838 l -1.79744,-2.834253 -3.06043,0.362464 c -2.77192,0.328293 -3.2584,0.185578 -5.1604,-1.513853 -1.9372,-1.730889 -2.09362,-2.147294 -2.01811,-5.372468 l 0.0819,-3.496151 -3.55138,-2.157349 C 131.27362,13.562848 127.4282,11.818693 124.6815,10.873491 120.32064,9.3728188 118.69703,9.1490806 111.875,9.10872 105.34659,9.070095 103.29204,9.3030731 99.375,10.526164 84.5091,15.168018 74.193413,25.166967 69.289912,39.6875 c -1.293781,3.831217 -1.472924,5.501408 -1.441293,13.4375 0.03425,8.59141 0.137837,9.331286 1.992875,14.233219 6.924437,18.297837 23.952619,29.9682 42.658506,29.236268 3.26563,-0.127775 7.625,-0.682231 9.6875,-1.232118 z M 103.75,69.953788 c -1.54687,-0.697819 -4.151831,-2.58285 -5.788794,-4.188963 -9.326825,-9.151036 -6.3562,-24.82363 5.757034,-30.373361 4.42324,-2.026521 11.16834,-1.845032 15.79079,0.42488 4.27279,2.09821 8.14983,6.285458 9.50653,10.267162 3.30322,9.6944 -1.01768,19.666388 -10.35803,23.904769 -3.78399,1.717069 -11.06213,1.700231 -14.90753,-0.0345 z m 103.2109,7.521387 c -15.0482,-3.085206 -20.18331,-22.466687 -8.6903,-32.799889 4.98667,-4.483447 11.99962,-5.826901 19.22152,-3.682225 4.87312,1.447161 10.1472,6.8314 11.60555,11.847946 1.50677,5.1831 0.93537,11.200293 -1.47097,15.490049 -3.89876,6.950269 -12.59601,10.7986 -20.6658,9.144119 z m 10.17672,-3.135187 c 4.07799,-1.525775 8.48164,-6.020169 9.61938,-9.8176 2.60471,-8.693765 -1.36968,-17.871721 -9.21154,-21.271972 -3.48136,-1.509522 -10.34182,-1.280862 -13.9688,0.465582 -8.05457,3.878399 -11.59067,14.800848 -7.43125,22.953983 3.75338,7.35725 12.89798,10.698444 20.99221,7.670007 z m 88.47952,2.937756 C 296.79089,75.37595 291.25,68.317094 291.25,58.974609 c 0,-7.560578 4.20609,-14.408094 10.61493,-17.281122 3.38231,-1.51626 10.01578,-2.084843 13.45718,-1.153473 5.36756,1.452664 12.17789,7.52015 12.17789,10.849588 0,1.993777 -1.63196,1.015184 -3.85738,-2.313044 -3.7542,-5.614627 -11.43529,-8.295328 -18.164,-6.339239 -12.21056,3.549705 -16.14671,19.233749 -7.04532,28.0729 2.67199,2.595 7.96964,4.814781 11.49081,4.814781 5.6409,0 11.19868,-2.945687 14.24604,-7.550569 2.42326,-3.6618 4.41914,-3.212331 2.44386,0.550357 -3.49914,6.665506 -12.67362,10.446368 -20.99687,8.652956 z M 182.17751,76.136856 c -0.17772,-0.463156 -0.24819,-8.572481 -0.15657,-18.020726 0.1433,-14.779199 0.2975,-17.17863 1.10406,-17.17863 0.81134,0 0.9375,2.390046 0.9375,17.760417 0,13.648789 -0.18079,17.820677 -0.78092,18.02072 -0.4295,0.143169 -0.92634,-0.118631 -1.10407,-0.581781 z M 238.27166,58.90625 c 0.10673,-11.563672 0.38863,-17.921878 0.79084,-17.837257 0.34375,0.07232 0.70911,0.775446 0.8119,1.5625 0.40333,3.088176 0.69664,3.277004 2.48782,1.601598 2.73317,-2.55652 5.77747,-3.776042 10.21956,-4.093872 6.40238,-0.458088 10.21087,0.718907 13.73745,4.24549 1.74963,1.749628 3.23857,3.93975 3.65576,5.377344 0.82387,2.838996 1.65052,23.031697 1.04211,25.455797 -0.22875,0.911431 -0.83243,1.65715 -1.34151,1.65715 -0.78109,0 -0.92798,-1.683106 -0.94087,-10.78125 -0.0168,-11.844796 -0.52927,-15.239646 -2.82861,-18.737653 -2.32278,-3.533656 -5.86889,-5.102942 -11.53111,-5.102942 -7.50133,0 -11.51147,2.805719 -13.51229,9.453941 C 240.26845,53.681677 240,58.043404 240,65.724331 240,75.269525 239.86364,76.875 239.05291,76.875 c -0.82799,0 -0.92623,-2.259419 -0.78125,-17.96875 z M 281.25,58.75 c 0,-15.694444 0.12572,-18.125 0.9375,-18.125 0.81178,0 0.9375,2.430556 0.9375,18.125 0,15.694444 -0.12572,18.125 -0.9375,18.125 -0.81178,0 -0.9375,-2.430556 -0.9375,-18.125 z M 181.49002,30.974008 c -0.58606,-1.527249 0.0273,-3.135687 1.28835,-3.378544 1.65176,-0.318101 2.98854,1.596563 2.17542,3.115873 -0.73723,1.377543 -2.97095,1.546934 -3.46377,0.262671 z m 98.7034,-0.12146 c -0.51703,-1.347359 0.59327,-3.040048 1.99408,-3.040048 1.40081,0 2.51111,1.692689 1.99408,3.040048 -0.51306,1.337029 -3.4751,1.337029 -3.98816,0 z"
       id="path3523"
       inkscape:connector-curvature="0" />
    <path
       style="fill:#8cb6f9"
       d="M 103.63228,97.80535 C 93.902206,95.970456 86.195987,91.927869 79.32325,85.053131 73.895519,79.623819 70.20335,73.743325 67.713594,66.5625 66.14175,62.029069 65.979237,60.746004 65.972,52.8125 65.9645,44.597946 66.0831,43.727418 67.909969,38.586741 70.505887,31.282019 73.163862,26.952188 78.532394,21.282849 85.785419,13.623424 94.987769,8.9605475 105.84969,7.4410413 c 9.30373,-1.3015279 20.29755,0.9954806 28.68883,5.9941377 3.53537,2.106009 4.01884,2.232125 6.31881,1.648329 5.60008,-1.421449 10.17793,3.713801 7.8552,8.811638 -0.55729,1.223125 -0.30931,2.040445 1.56197,5.148007 8.549,14.197019 8.75341,32.412048 0.52274,46.581847 -3.5314,6.079625 -11.87828,14.109156 -17.98474,17.300981 -9.35522,4.889944 -19.83322,6.642025 -29.18022,4.879369 z m 18.47819,-2.16065 c 10.36645,-2.651294 19.90195,-9.438094 25.93595,-18.459669 5.37116,-8.030556 7.96052,-17.500765 7.34752,-26.872531 -0.46768,-7.150148 -1.54227,-11.104697 -4.75536,-17.5 l -2.82608,-5.625 -3.4375,-0.02501 c -5.51993,-0.04017 -7.81116,-2.451253 -7.39308,-7.779835 0.20432,-2.604211 0.18205,-2.634567 -3.6366,-4.95671 -2.1132,-1.285049 -5.91008,-3.017525 -8.4375,-3.849947 -4.0613,-1.3376119 -5.68479,-1.5100769 -13.97032,-1.4840825 -8.9611,0.028113 -9.60329,0.1160987 -14.545719,1.9928725 -29.69685,11.276681 -38.935933,47.699912 -18.050512,71.160496 5.680206,6.380575 15.032069,11.939744 22.990521,13.666594 6.01587,1.305344 15.0862,1.188719 20.77869,-0.267175 z M 104.6402,70.002681 C 92.470656,65.173856 88.8653,50.24237 97.495506,40.413108 c 1.128013,-1.284738 3.348304,-3.098574 4.933964,-4.030747 2.5888,-1.521892 3.48898,-1.694861 8.82053,-1.694861 6.6085,0 8.21448,0.577646 12.58589,4.526947 4.0468,3.656048 5.82081,7.708119 5.81645,13.285553 -0.006,7.826796 -3.40175,13.357056 -10.40543,16.946731 -3.84469,1.970569 -10.41169,2.220513 -14.60671,0.55595 z m 100.58774,6.853288 c -5.20003,-1.604294 -10.54145,-6.89065 -12.05003,-11.925813 -1.20417,-4.019158 -0.83589,-10.502185 0.79562,-14.005752 3.82871,-8.221942 13.29633,-12.533545 21.9791,-10.009395 7.00536,2.036515 11.09853,6.13622 13.14097,13.161975 2.41737,8.315477 -1.55443,17.396822 -9.34984,21.377985 -3.52623,1.800862 -10.90985,2.5135 -14.51582,1.401 z m 13.24432,-2.714532 c 12.19188,-5.6772 12.84743,-23.295061 1.12246,-30.166353 -2.03187,-1.190755 -3.9922,-1.73303 -7.05788,-1.952378 -7.78568,-0.557062 -13.5097,2.543846 -16.68829,9.040645 -4.42873,9.052003 -0.14295,20.413974 8.91864,23.644043 3.92316,1.398443 10.02786,1.146343 13.70507,-0.565957 z m 85.49397,2.499888 c -15.63586,-5.113212 -17.05375,-27.313614 -2.20834,-34.576798 4.72933,-2.313846 11.28053,-2.404123 16.22925,-0.223644 4.77913,2.105755 10.80337,9.162765 8.85157,10.369043 -0.29916,0.184893 -1.22379,-0.740787 -2.05472,-2.057067 -3.71696,-5.888055 -9.10163,-8.628796 -15.98517,-8.136282 -7.33908,0.525109 -12.8431,4.815952 -14.79638,11.535029 -1.97699,6.800593 -0.26888,13.404488 4.6063,17.808925 3.67627,3.321281 7.31823,4.489694 12.8816,4.132657 5.75678,-0.369444 9.49103,-2.371432 12.6656,-6.790194 2.59867,-3.617169 4.00967,-3.495831 1.9521,0.167862 -1.63788,2.916413 -3.946,5.008781 -7.59775,6.887563 -3.22336,1.658381 -10.77152,2.116593 -14.54406,0.882906 z M 182.17716,75.510944 c -0.17792,-0.463657 -0.24837,-8.291732 -0.15657,-17.395727 0.14342,-14.222676 0.29888,-16.552717 1.10441,-16.552717 0.81054,0 0.9375,2.320602 0.9375,17.135417 0,13.148933 -0.18168,17.195977 -0.78092,17.39572 -0.4295,0.143169 -0.92649,-0.119043 -1.10442,-0.582693 z m 56.0942,-16.604694 c 0.10571,-11.035076 0.39348,-17.34375 0.79114,-17.34375 0.34375,0 0.71313,0.914062 0.82085,2.03125 0.23414,2.428389 1.25647,2.581881 3.22688,0.484479 2.20327,-2.345281 6.57026,-3.765729 11.57727,-3.765729 7.80232,0 13.36882,3.898557 15.25226,10.682081 0.37305,1.343605 0.67984,7.575731 0.68175,13.849169 0.003,9.723769 -0.1348,11.40625 -0.93401,11.40625 -0.7991,0 -0.9375,-1.684487 -0.9375,-11.410375 0,-12.043969 -0.34438,-14.360766 -2.63921,-17.755499 -4.24063,-6.273126 -16.90423,-7.051802 -22.34537,-1.374 -3.31118,3.455205 -3.73691,5.555523 -3.7517,18.508624 -0.0118,10.327544 -0.14788,12.03125 -0.96111,12.03125 -0.82774,0 -0.9264,-2.190237 -0.78125,-17.34375 z M 281.25,58.75 c 0,-15.138889 0.12649,-17.5 0.9375,-17.5 0.81101,0 0.9375,2.361111 0.9375,17.5 0,15.138887 -0.12649,17.5 -0.9375,17.5 -0.81101,0 -0.9375,-2.361113 -0.9375,-17.5 z M 181.88161,30.945459 C 180.84311,29.694147 181.53486,28.125 183.125,28.125 c 0.70908,0 1.45249,0.425457 1.65204,0.945459 0.35913,0.935901 -0.7416,2.804541 -1.65204,2.804541 -0.25957,0 -0.81909,-0.418293 -1.24339,-0.929541 z m 98.84983,-0.164209 c -0.80996,-1.574831 -0.22318,-2.65625 1.44127,-2.65625 1.68014,0 2.54241,1.649603 1.51155,2.891717 -0.9788,1.17937 -2.27844,1.075732 -2.95282,-0.235467 z"
       id="path3521"
       inkscape:connector-curvature="0" />
    <path
       style="fill:#75a7f8"
       d="m 109.53125,97.677344 c 0.94531,-0.143207 2.49219,-0.143207 3.4375,0 0.94531,0.1432 0.17188,0.260369 -1.71875,0.260369 -1.89062,0 -2.66406,-0.117169 -1.71875,-0.260369 z M 83.125,88.069156 c -1.346106,-1.10105 -1.372563,-1.185218 -0.191056,-0.607743 0.754294,0.368668 1.544325,0.95005 1.755631,1.29195 0.564112,0.912749 0.185256,0.747068 -1.564575,-0.684207 z M 75.378719,80.095038 74.194937,78.4375 75.6565,79.826387 c 0.803856,0.763888 1.336556,1.509782 1.183775,1.657538 C 76.6875,81.631681 76.0298,81.006681 75.378719,80.095038 Z M 204.30317,76.049081 c -7.33841,-2.7405 -11.39316,-8.897125 -11.39316,-17.299081 0,-5.606586 1.4131,-9.281448 4.916,-12.784337 2.48075,-2.480753 6.62409,-4.697667 8.73649,-4.674504 0.74968,0.0082 0.34499,0.337112 -1.01108,0.821702 -7.52819,2.690205 -12.02328,9.058707 -11.92354,16.892906 0.11536,9.060477 6.72813,16.259995 15.68046,17.071764 10.54671,0.956338 19.13288,-6.846812 19.03715,-17.301051 -0.0757,-8.265502 -4.76719,-14.513974 -12.72049,-16.942026 -1.32616,-0.40486 -1.36835,-0.485139 -0.27896,-0.530733 1.97913,-0.08283 7.56475,2.94876 9.35667,5.07833 3.39357,4.033037 4.31231,6.6745 4.30174,12.367949 -0.0114,6.143537 -0.87426,8.60705 -4.36984,12.476237 -3.57637,3.958613 -6.50336,5.21045 -12.75961,5.457119 -3.41787,0.134763 -6.11826,-0.09145 -7.57183,-0.634275 z m 96.84519,-1.2186 C 294.60292,71.451844 291.45684,65.475344 292.02547,57.5 c 0.34492,-4.837803 2.51369,-9.542124 5.68119,-12.323226 2.18045,-1.914463 7.65374,-4.399708 8.28946,-3.763982 0.1888,0.188792 -0.45637,0.518886 -1.4337,0.733542 -0.97732,0.214657 -3.17711,1.436733 -4.88843,2.715725 -8.70475,6.505689 -9.22172,19.853491 -1.04763,27.048616 7.52528,6.624013 19.84598,5.316969 25.62486,-2.718425 2.54883,-3.544094 3.53551,-3.443962 1.17734,0.119475 -3.45553,5.221656 -8.13744,7.493494 -15.5302,7.535844 -4.21531,0.02413 -5.26374,-0.217544 -8.75,-2.017088 z M 182.5,58.75 c 0,-10.833333 0.22376,-16.875 0.625,-16.875 0.40124,0 0.625,6.041667 0.625,16.875 0,10.833331 -0.22376,16.875 -0.625,16.875 -0.40124,0 -0.625,-6.041669 -0.625,-16.875 z m 56.44151,0 c -0.0263,-9.453125 0.15738,-16.129706 0.4081,-14.836848 0.60815,3.135912 0.80015,3.23312 2.7736,1.404192 2.02034,-1.87239 5.34864,-3.678828 5.85154,-3.175929 0.19722,0.197222 0.0402,0.358585 -0.34884,0.358585 -1.25411,0 -5.15948,3.869018 -6.56444,6.503325 -1.22453,2.296027 -1.40124,3.812357 -1.71854,14.746675 -0.35205,12.131931 -0.35389,12.109138 -0.40142,-5 z m 30.42325,5 c -0.34832,-13.153556 -0.64405,-14.420624 -4.27986,-18.337047 -2.43511,-2.623048 -4.79761,-3.631371 -9.72748,-4.151711 -4.12104,-0.43497 -4.20476,-0.472255 -1.238,-0.551379 6.83379,-0.182259 12.06669,2.634338 14.41203,7.757246 1.43698,3.138786 1.48933,3.745402 1.32604,15.369079 L 269.6875,75.9375 269.36476,63.75 Z m 12.78442,-5 c 0,-9.453125 0.0869,-13.320313 0.19305,-8.59375 0.10618,4.726562 0.10618,12.460937 0,17.1875 -0.10618,4.726562 -0.19305,0.859375 -0.19305,-8.59375 z M 104.83783,69.768637 C 95.839012,66.415969 90.969294,55.92432 94.120019,46.677461 c 1.248106,-3.662999 5.708369,-8.687457 9.175021,-10.335615 8.64457,-4.109896 19.18613,-0.832822 23.83028,7.408154 1.7696,3.140126 1.93679,3.924112 1.9327,9.0625 -0.004,4.568798 -0.2592,6.102428 -1.36099,8.167634 -1.52109,2.851128 -5.32249,6.524616 -8.44094,8.156916 -2.76304,1.446269 -11.23546,1.817394 -14.41826,0.631588 z M 66.299344,57.760417 c 0.03,-0.728089 0.178087,-0.876188 0.3776,-0.377605 0.180544,0.451172 0.158343,0.990235 -0.04931,1.197917 -0.207687,0.207682 -0.3554,-0.161458 -0.328262,-0.820312 z M 324.59781,49.31394 c -2.21802,-3.275219 -5.5708,-6.016651 -8.74,-7.146334 -1.33117,-0.474507 -1.96247,-0.875085 -1.40289,-0.890173 3.11906,-0.0841 9.67282,4.597879 11.56912,8.264929 1.47038,2.843389 0.55473,2.696741 -1.42623,-0.228422 z M 66.299344,47.760417 c 0.03,-0.728089 0.178087,-0.876188 0.3776,-0.377605 0.180544,0.451172 0.158343,0.990235 -0.04931,1.197917 -0.207687,0.207682 -0.3554,-0.161458 -0.328262,-0.820312 z M 249.25781,41.448054 c 0.45117,-0.180545 0.99024,-0.15834 1.19792,0.04934 0.20768,0.207682 -0.16146,0.3554 -0.82031,0.328262 -0.72809,-0.02999 -0.87619,-0.178088 -0.37761,-0.377604 z m -39.71797,-0.646542 c 0.95004,-0.14366 2.35629,-0.13982 3.125,0.0085 0.76872,0.148351 -0.009,0.26589 -1.72734,0.261198 -1.71875,-0.0047 -2.34769,-0.12607 -1.39766,-0.269729 z m 98.74141,8.12e-4 c 0.94531,-0.143203 2.49219,-0.143203 3.4375,0 0.94531,0.143203 0.17187,0.260369 -1.71875,0.260369 -1.89063,0 -2.66406,-0.117166 -1.71875,-0.260369 z M 181.98778,29.84375 c 0.10984,-0.773438 0.62159,-1.40625 1.13722,-1.40625 0.51562,0 1.02737,0.632812 1.13722,1.40625 0.15371,1.082309 -0.10826,1.40625 -1.13722,1.40625 -1.02896,0 -1.29093,-0.323941 -1.13722,-1.40625 z m 98.86484,0.472931 c -0.21648,-0.564137 -0.0939,-1.325393 0.27238,-1.691681 0.95226,-0.952256 2.75651,-0.08193 2.50776,1.209682 -0.27706,1.438677 -2.27978,1.785893 -2.78014,0.481999 z m -141.0654,-4.140576 c -1.7096,-1.005427 -2.81079,-4.170543 -2.43243,-6.991432 0.27893,-2.079606 0.0921,-2.67446 -1.1676,-3.716924 l -1.49969,-1.241086 1.70054,1.014141 c 1.45727,0.86907 2.11062,0.904461 4.56728,0.247402 5.24302,-1.402295 8.29307,1.698168 7.54091,7.665565 l -0.42965,3.408729 -3.56454,0.145048 c -1.9605,0.07978 -4.08217,-0.159372 -4.71482,-0.531443 z M 79.6875,20.711004 c 1.375,-1.479885 3.34375,-3.27516 4.375,-3.989501 2.185881,-1.514148 1.900981,-1.212601 -3.125,3.307586 -3.180006,2.859984 -3.370006,2.963634 -1.25,0.681915 z M 109.21875,7.6728775 c 1.11719,-0.1386412 2.94531,-0.1386412 4.0625,0 1.11719,0.1386419 0.20313,0.2520763 -2.03125,0.2520763 -2.23437,0 -3.14844,-0.1134344 -2.03125,-0.2520763 z"
       id="path3519"
       inkscape:connector-curvature="0" />
    <path
       style="fill:#4d8df6"
       d="M 107.59173,69.976169 C 99.231481,68.261525 93.741644,61.220978 93.756106,52.232413 93.774856,40.558994 105.88494,32.065406 116.95267,35.963124 c 6.1578,2.168591 9.85831,6.24638 11.5064,12.679554 3.18177,12.419626 -8.09886,23.952241 -20.86734,21.333491 z M 238.75,49.724386 c 0,-1.450952 0.99052,-2.692195 1.6345,-2.04822 0.4757,0.4757 -0.45817,3.573834 -1.07726,3.573834 -0.30648,0 -0.55724,-0.686526 -0.55724,-1.525614 z M 182.5,29.6875 c 0,-0.572917 0.30234,-0.940886 0.67187,-0.817708 0.36954,0.123177 0.67188,0.491145 0.67188,0.817708 0,0.326563 -0.30234,0.694531 -0.67188,0.817708 C 182.80234,30.628386 182.5,30.260417 182.5,29.6875 Z m 98.75,0 c 0,-0.515625 0.42187,-0.9375 0.9375,-0.9375 0.51562,0 0.9375,0.421875 0.9375,0.9375 0,0.515625 -0.42188,0.9375 -0.9375,0.9375 -0.51563,0 -0.9375,-0.421875 -0.9375,-0.9375 z M 140.1431,25.831691 c -0.43692,-0.175793 -1.23077,-1.16347 -1.76411,-2.194837 -1.37582,-2.660548 -0.67574,-6.369047 1.37907,-7.305283 5.21859,-2.377748 9.8939,1.450428 8.29382,6.791032 -0.57155,1.907677 -1.08314,2.452398 -2.58534,2.752839 -2.15865,0.43173 -4.18302,0.415092 -5.32344,-0.04375 z"
       id="path3517"
       inkscape:connector-curvature="0" />
  </g>
</svg>
