<?xml version="1.0" encoding="UTF-8" standalone="no"?>
<!-- Created with Inkscape (http://www.inkscape.org/) -->

<svg
   xmlns:dc="http://purl.org/dc/elements/1.1/"
   xmlns:cc="http://creativecommons.org/ns#"
   xmlns:rdf="http://www.w3.org/1999/02/22-rdf-syntax-ns#"
   xmlns:svg="http://www.w3.org/2000/svg"
   xmlns="http://www.w3.org/2000/svg"
   xmlns:xlink="http://www.w3.org/1999/xlink"
   xmlns:sodipodi="http://sodipodi.sourceforge.net/DTD/sodipodi-0.dtd"
   xmlns:inkscape="http://www.inkscape.org/namespaces/inkscape"
   id="svg3468"
   version="1.1"
   inkscape:version="0.91 r13725"
   width="406.875"
   height="108.75"
   viewBox="0 0 406.875 108.75"
   sodipodi:docname="JQueryMobile.svg">
  <metadata
     id="metadata3474">
    <rdf:RDF>
      <cc:Work
         rdf:about="">
        <dc:format>image/svg+xml</dc:format>
        <dc:type
           rdf:resource="http://purl.org/dc/dcmitype/StillImage" />
        <dc:title></dc:title>
      </cc:Work>
    </rdf:RDF>
  </metadata>
  <defs
     id="defs3472" />
  <sodipodi:namedview
     pagecolor="#ffffff"
     bordercolor="#666666"
     borderopacity="1"
     objecttolerance="10"
     gridtolerance="10"
     guidetolerance="10"
     inkscape:pageopacity="0"
     inkscape:pageshadow="2"
     inkscape:window-width="640"
     inkscape:window-height="480"
     id="namedview3470"
     showgrid="false"
     inkscape:zoom="0.64393241"
     inkscape:cx="203.4375"
     inkscape:cy="54.375"
     inkscape:window-x="0"
     inkscape:window-y="0"
     inkscape:window-maximized="0"
     inkscape:current-layer="svg3468" />
  <image
     width="406.875"
     height="108.75"
     preserveAspectRatio="none"
     style="image-rendering:optimizeQuality"
     xlink:href="file:///media/havoc/USB%20DISK/pics/_Products/JQueryMobile.png"
     id="image3476"
     x="0"
     y="0"
     sodipodi:absref="/media/havoc/USB DISK/pics/_Products/JQueryMobile.png" />
  <g
     id="g3478">
    <path
       style="fill:#fcfcfc"
       d="M 0,54.375 0,0 203.4375,0 406.875,0 l 0,54.375 0,54.375 -203.4375,0 L 0,108.75 0,54.375 Z"
       id="path3494"
       inkscape:connector-curvature="0" />
    <path
       style="fill:#6ed5f2"
       d="m 253.75,93.968613 c 0,-1.728657 1.98281,-11.123919 2.45592,-11.637038 0.76088,-0.825225 14.29505,-0.8306 15.11965,-0.0062 0.40473,0.404731 0.93127,1.804863 1.17009,3.1114 l 0.43422,2.375531 0.67588,-1.636675 c 1.47929,-3.582125 6.67436,-5.751175 9.99666,-4.173806 0.94054,0.446556 2.16749,1.72725 2.72654,2.846 l 1.01645,2.034081 0.65037,-1.7223 c 0.35771,-0.947262 0.80076,-2.802081 0.98456,-4.121819 0.18379,-1.319737 0.66347,-2.7963 1.06594,-3.28125 0.90581,-1.091437 3.05505,-1.1601 3.14516,-0.100481 0.0366,0.429688 0.10685,1.324681 0.15625,1.988875 0.0613,0.824288 0.78418,1.386038 2.27731,1.769688 1.20312,0.309131 2.81639,1.146975 3.58502,1.861875 1.16931,1.087543 1.33373,1.717137 1.00683,3.855312 -0.46601,3.048113 -1.51534,5.277531 -3.20276,6.804625 -1.00286,0.907582 -2.11641,1.0859 -5.84523,0.936025 l -4.60636,-0.184906 0.14121,-3.125 c 0.13303,-2.943844 0.0957,-3.027113 -0.64396,-1.436419 -0.43184,0.928719 -1.45848,2.405281 -2.28141,3.28125 C 282.48545,94.78355 281.75314,95 278.38993,95 c -3.71032,0 -3.95236,-0.09491 -5.18012,-2.03125 l -1.28794,-2.03125 -0.70958,2.03125 C 270.62214,94.658138 270.18359,95 268.60657,95 c -2.08008,0 -2.04256,0.357394 -0.71185,-6.779969 0.33417,-1.792325 0.22744,-2.061137 -0.74406,-1.874043 -1.11747,0.215206 -1.59881,1.465068 -2.43016,6.310262 C 264.35718,94.773744 264.13142,95 262.38193,95 l -1.93643,0 0.40661,-4.375 c 0.33119,-3.5634 0.2411,-4.375 -0.48559,-4.375 -0.50466,0 -1.07273,0.882288 -1.30781,2.03125 C 257.87809,94.051306 257.37927,95 255.52607,95 254.29215,95 253.75,94.685163 253.75,93.968613 Z m 27.46863,-3.618319 c 1.21743,-1.466906 0.5684,-4.380838 -1.0263,-4.607788 -1.80711,-0.257168 -3.80971,3.223632 -2.65507,4.614888 0.952,1.147094 2.72632,1.143669 3.68137,-0.0071 z m 13.05299,-0.09822 c 1.99384,-1.39655 1.67629,-4.314569 -0.46954,-4.314569 -1.09651,0 -1.66929,0.476644 -2.09021,1.739369 -0.59272,1.778181 -0.27652,3.573131 0.62945,3.573131 0.27805,0 1.14669,-0.449069 1.9303,-0.997931 z m 7.01564,3.654181 c 0.0205,-0.601563 0.27625,-2.5 0.56835,-4.21875 0.40145,-2.3622 0.31395,-3.466138 -0.35847,-4.522544 -0.79654,-1.251425 -0.75795,-1.52915 0.36915,-2.65625 0.69229,-0.692287 1.54532,-1.258706 1.89562,-1.258706 0.35692,0 0.47442,-0.647394 0.26729,-1.47265 -0.45789,-1.824369 1.2098,-3.671544 3.07357,-3.404362 1.67097,0.239543 2.06603,2.128318 0.74944,3.583131 -0.55404,0.612206 -0.84202,1.543956 -0.63994,2.070556 0.31638,0.824481 -0.96865,8.593694 -1.96489,11.879575 C 305.0298,94.623894 304.28549,95 303.08288,95 c -1.34312,0 -1.82292,-0.292256 -1.79562,-1.09375 z M 307.5,92.925938 c 0,-1.140732 0.39274,-3.461044 0.87275,-5.15625 0.48001,-1.6952 1.05147,-4.312725 1.2699,-5.816713 0.51255,-3.529075 1.36748,-5.077975 2.80281,-5.077975 1.61054,0 2.49882,1.317494 1.89623,2.8125 -0.27711,0.6875 -0.5236,2.326325 -0.54776,3.641825 l -0.0439,2.391831 1.89932,-1.899318 c 3.51253,-3.512525 8.38692,-3.197763 10.5647,0.682218 0.69853,1.244532 0.77756,2.10235 0.31527,3.42215 -0.57639,1.64555 -0.8728,1.773519 -4.51061,1.947369 -3.83621,0.183325 -5.03858,0.928813 -2.69683,1.672056 0.65827,0.208925 1.87445,0.2098 2.70263,0.0019 1.73212,-0.434731 3.32477,1.015819 2.75256,2.506975 -0.27907,0.727256 -1.44096,0.945457 -5.03448,0.945457 -4.11907,0 -4.78676,-0.164313 -5.64462,-1.389069 -0.53511,-0.763982 -0.99197,-2.099919 -1.01524,-2.96875 -0.0386,-1.442813 -0.0889,-1.471375 -0.58041,-0.329681 -0.29596,0.687499 -0.70416,2.023437 -0.90711,2.96875 -0.30229,1.408093 -0.70574,1.71875 -2.23208,1.71875 C 307.66992,95 307.5,94.810837 307.5,92.925938 Z M 322.1875,86.25 c 0.21907,-0.354475 -0.30601,-0.625 -1.21311,-0.625 -0.87966,0 -1.59939,0.28125 -1.59939,0.625 0,0.34375 0.5459,0.625 1.21311,0.625 0.66722,0 1.38694,-0.28125 1.59939,-0.625 z m -191.09375,0.819169 c -1.2935,-0.338025 -1.38056,-1.922588 -0.36001,-6.552738 0.95203,-4.319318 1.36324,-4.787 4.4087,-5.014125 4.06267,-0.302981 4.55625,-1.3421 7.95733,-16.752306 3.80623,-17.24595 3.59717,-16.875 9.51056,-16.875 4.38416,0 6.13967,0.769763 6.13967,2.692152 0,1.295417 -0.91482,5.876438 -4.39243,21.995348 -2.92265,13.546656 -5.61304,18.273275 -11.37509,19.984425 -2.99777,0.890244 -9.40374,1.171644 -11.88873,0.522244 z M 52.509824,85.643356 C 51.845015,84.40115 52.032476,83.203394 54.713618,71.5625 55.267828,69.15625 55.769923,66.765625 55.829386,66.25 55.918976,65.473125 54.545404,65.258956 47.8125,65 l -8.125,-0.3125 -0.205056,-1.794319 C 39.294271,61.246594 39.641249,59.405212 42.206379,48.4375 42.688756,46.375 43.480099,42.859375 43.964918,40.625 47.746992,23.194645 48.438284,20.835805 50.011117,19.994051 50.732258,19.608107 63.392569,19.375 83.632381,19.375 c 27.252919,0 32.582579,0.142202 33.199719,0.885808 0.45943,0.553577 0.66394,2.604682 0.54528,5.46875 l -0.18988,4.582942 4.97039,0.18482 c 2.7337,0.101651 5.35185,0.501409 5.81809,0.888353 0.93106,0.77272 0.74314,3.006507 -0.81675,9.708077 -1.21219,5.207806 -2.46751,10.709149 -3.74365,16.40625 -2.08952,9.328237 -3.00187,12.557231 -3.67124,12.9933 -0.37501,0.244313 -9.09492,0.584825 -19.37757,0.7567 L 81.671038,71.5625 80.782725,75.625 C 80.294156,77.859375 79.673213,80.750256 79.40285,82.049175 78.416331,86.788831 78.157812,86.875 64.925125,86.875 53.867047,86.875 53.12984,86.801869 52.509824,85.643356 Z M 83.10465,63.163025 c 0.35675,-0.66659 1.039763,-2.986903 1.517813,-5.156253 C 87.758644,43.775051 87.612025,44.909709 86.476925,43.655444 85.645419,42.736639 84.515556,42.5 80.960087,42.5 c -2.603981,0 -4.906756,0.326255 -5.514218,0.78125 -0.966988,0.724283 -1.978825,4.368016 -3.601319,12.96875 -0.356656,1.890625 -0.944675,4.193962 -1.306713,5.118527 -0.362031,0.924565 -0.473925,1.979254 -0.24865,2.343748 0.241625,0.390963 2.820226,0.662725 6.288207,0.662725 5.177493,0 5.955987,-0.14455 6.527256,-1.211975 z m 181.0456,8.0475 c -4.98879,-0.692262 -8.70729,-2.855412 -10.67711,-6.211131 -2.41145,-4.108105 -1.24749,-15.499091 2.39775,-23.465413 3.14137,-6.865126 8.3224,-10.520414 16.35532,-11.538889 5.48682,-0.695661 11.91517,0.05204 14.72682,1.71292 3.97531,2.348272 5.71351,7.440826 4.86573,14.255544 -0.25481,2.048169 -0.48702,4.369541 -0.51602,5.158603 -0.029,0.789063 -0.74308,2.125 -1.58683,2.96875 -1.5185,1.518494 -1.65194,1.534091 -13.125,1.534091 -11.4266,0 -11.59091,0.01896 -11.59091,1.337348 0,2.604623 1.55281,2.996606 11.95472,3.017775 11.06099,0.02251 11.51432,0.19775 10.84236,4.191252 -0.67479,4.010281 -1.55986,6.324794 -2.56632,6.711006 -1.80092,0.691075 -16.78426,0.924313 -21.08051,0.328144 z m 15.10176,-27.226371 c 0.34983,-2.452088 -1.54858,-3.524107 -5.70798,-3.223243 -3.11472,0.225298 -3.97712,0.554263 -5.20974,1.987274 -0.81243,0.944505 -1.30957,1.988428 -1.10476,2.319828 0.2088,0.337844 2.88975,0.523897 6.10268,0.423516 5.30025,-0.165593 5.74451,-0.278717 5.9198,-1.507375 z M 173.63097,70.376388 c -6.2998,-1.696082 -9.91207,-5.718175 -11.51658,-12.823178 -0.88065,-3.899636 -0.87582,-4.779089 0.0541,-9.824376 2.89203,-15.691818 9.50995,-24.290786 21.08715,-27.399527 7.92315,-2.127547 17.60929,-0.08943 22.41523,4.716512 6.79431,6.794314 7.12624,14.945903 1.24482,30.570358 C 205.27498,59.974699 205.27791,60 207.42347,60 c 2.92479,0 3.26375,1.045274 1.9156,5.907119 -0.65914,2.377069 -1.55351,4.54735 -1.9875,4.822843 -1.32895,0.843607 -30.40631,0.538719 -33.72059,-0.353574 z M 193.1955,57.65625 c 1.00301,-2.594078 3.45624,-11.273345 4.28397,-15.15625 0.8942,-4.194708 -0.0964,-7.690804 -2.73701,-9.659863 -2.69377,-2.008678 -8.7598,-1.781542 -12.13871,0.45452 -4.07026,2.693565 -7.21486,10.218974 -7.26621,17.388884 -0.0491,6.847931 2.29241,8.628573 11.39668,8.666995 5.75507,0.02429 5.80149,0.01211 6.46128,-1.694286 z m 28.13125,12.96745 c -2.75463,-0.650363 -5.08768,-2.429881 -6.63925,-5.064031 -1.71735,-2.9156 -1.59823,-10.648215 0.29745,-19.309669 0.78996,-3.609375 1.79607,-8.377164 2.23579,-10.595086 0.4779,-2.410474 1.24573,-4.358877 1.90884,-4.84375 1.58917,-1.162031 9.24394,-1.080378 10.23114,0.109135 0.61087,0.736045 0.31336,3.151666 -1.48597,12.065453 -1.23736,6.129836 -2.24975,12.000236 -2.24975,13.045335 0,3.035272 1.68422,4.064376 6.29165,3.844355 4.48299,-0.214078 4.11102,0.32121 5.9937,-8.625442 0.54252,-2.578125 1.34913,-6.375 1.79245,-8.4375 0.44332,-2.0625 1.15092,-5.4375 1.57243,-7.5 0.42151,-2.0625 1.20453,-4.101563 1.74004,-4.53125 0.99875,-0.801396 7.95726,-1.08833 9.74611,-0.401882 1.21709,0.467039 1.24659,2.189311 0.11844,6.913903 -0.4786,2.004326 -1.34634,5.894229 -1.92833,8.644229 -2.41253,11.399726 -2.83769,13.373658 -4.02697,18.696219 -0.68466,3.064169 -1.60871,5.80205 -2.05343,6.084181 -1.02545,0.650537 -20.72381,0.571725 -23.54434,-0.0942 z m 71.24045,0.05606 c -0.96741,-0.612593 -0.66923,-4.466543 0.82628,-10.679756 0.82963,-3.446747 2.11044,-9.372156 3.91781,-18.125 0.53236,-2.578125 1.36296,-6.164062 1.84578,-7.96875 l 0.87785,-3.28125 13.30139,0 13.30139,0 1.92352,1.880601 c 1.89846,1.85609 3.29666,6.630191 2.37742,8.117564 -0.23342,0.377673 -4.44137,0.626829 -10.5865,0.626829 -7.40869,0 -10.37038,0.213744 -10.82516,0.78125 -0.34435,0.429687 -0.91229,2.328125 -1.26207,4.21875 -2.83255,15.309918 -4.74208,23.522044 -5.63149,24.21875 -1.14109,0.893863 -8.73643,1.053075 -10.06622,0.211006 z m 29.92663,-0.374687 c -0.63295,-0.762663 -0.58299,-1.7729 0.25902,-5.237238 1.00923,-4.152356 1.00046,-4.442495 -0.26914,-8.898817 -3.68446,-12.932546 -3.73621,-13.355067 -1.70246,-13.900091 2.15661,-0.577951 8.3291,-0.46361 10.03754,0.185937 1.09462,0.416175 1.64833,1.236403 1.96147,2.905602 0.42498,2.265339 0.46546,2.294915 1.55875,1.138884 0.61733,-0.652768 3.86037,-5.264977 7.20676,-10.249352 8.12634,-12.104043 7.84766,-11.877292 14.58283,-11.865429 5.75585,0.01014 7.40919,0.513226 6.81086,2.072453 -0.20223,0.526999 -6.12182,8.641322 -13.15464,18.031828 -11.67031,15.582673 -12.87563,17.42841 -13.80254,21.136148 -0.55857,2.234375 -1.48373,4.414062 -2.05589,4.84375 -1.55794,1.169987 -10.43114,1.04295 -11.43256,-0.163681 z M 148.57339,40.563546 c -1.17523,-0.684018 -1.09437,-2.793612 0.27929,-7.287094 C 149.67846,30.575217 150.95649,30 156.13238,30 c 5.71625,0 6.19104,0.549868 4.89261,5.666241 -0.53445,2.105953 -1.2994,4.223826 -1.69989,4.706383 -0.87307,1.051993 -9.02361,1.196725 -10.75171,0.190922 z"
       id="path3492"
       inkscape:connector-curvature="0" />
    <path
       style="fill:#9d9d9d"
       d="m 253.75,93.968613 c 0,-1.728657 1.98281,-11.123919 2.45592,-11.637038 0.76088,-0.825225 14.29505,-0.8306 15.11965,-0.0062 0.40473,0.404731 0.93127,1.804863 1.17009,3.1114 l 0.43422,2.375531 0.67588,-1.636675 c 1.47929,-3.582125 6.67436,-5.751175 9.99666,-4.173806 0.94054,0.446556 2.16749,1.72725 2.72654,2.846 l 1.01645,2.034081 0.65037,-1.7223 c 0.35771,-0.947262 0.80076,-2.802081 0.98456,-4.121819 0.18379,-1.319737 0.66347,-2.7963 1.06594,-3.28125 0.90581,-1.091437 3.05505,-1.1601 3.14516,-0.100481 0.0366,0.429688 0.10685,1.324681 0.15625,1.988875 0.0613,0.824288 0.78418,1.386038 2.27731,1.769688 1.20312,0.309131 2.81639,1.146975 3.58502,1.861875 1.16931,1.087543 1.33373,1.717137 1.00683,3.855312 -0.46601,3.048113 -1.51534,5.277531 -3.20276,6.804625 -1.00286,0.907582 -2.11641,1.0859 -5.84523,0.936025 l -4.60636,-0.184906 0.14121,-3.125 c 0.13303,-2.943844 0.0957,-3.027113 -0.64396,-1.436419 -0.43184,0.928719 -1.45848,2.405281 -2.28141,3.28125 C 282.48545,94.78355 281.75314,95 278.38993,95 c -3.71032,0 -3.95236,-0.09491 -5.18012,-2.03125 l -1.28794,-2.03125 -0.70958,2.03125 C 270.62214,94.658138 270.18359,95 268.60657,95 c -2.08008,0 -2.04256,0.357394 -0.71185,-6.779969 0.33417,-1.792325 0.22744,-2.061137 -0.74406,-1.874043 -1.11747,0.215206 -1.59881,1.465068 -2.43016,6.310262 C 264.35718,94.773744 264.13142,95 262.38193,95 l -1.93643,0 0.40661,-4.375 c 0.33119,-3.5634 0.2411,-4.375 -0.48559,-4.375 -0.50466,0 -1.07273,0.882288 -1.30781,2.03125 C 257.87809,94.051306 257.37927,95 255.52607,95 254.29215,95 253.75,94.685163 253.75,93.968613 Z m 27.46863,-3.618319 c 1.21743,-1.466906 0.5684,-4.380838 -1.0263,-4.607788 -1.80711,-0.257168 -3.80971,3.223632 -2.65507,4.614888 0.952,1.147094 2.72632,1.143669 3.68137,-0.0071 z m 13.05299,-0.09822 c 1.99384,-1.39655 1.67629,-4.314569 -0.46954,-4.314569 -1.09651,0 -1.66929,0.476644 -2.09021,1.739369 -0.59272,1.778181 -0.27652,3.573131 0.62945,3.573131 0.27805,0 1.14669,-0.449069 1.9303,-0.997931 z m 7.01564,3.654181 c 0.0205,-0.601563 0.27625,-2.5 0.56835,-4.21875 0.40145,-2.3622 0.31395,-3.466138 -0.35847,-4.522544 -0.79654,-1.251425 -0.75795,-1.52915 0.36915,-2.65625 0.69229,-0.692287 1.54532,-1.258706 1.89562,-1.258706 0.35692,0 0.47442,-0.647394 0.26729,-1.47265 -0.45789,-1.824369 1.2098,-3.671544 3.07357,-3.404362 1.67097,0.239543 2.06603,2.128318 0.74944,3.583131 -0.55404,0.612206 -0.84202,1.543956 -0.63994,2.070556 0.31638,0.824481 -0.96865,8.593694 -1.96489,11.879575 C 305.0298,94.623894 304.28549,95 303.08288,95 c -1.34312,0 -1.82292,-0.292256 -1.79562,-1.09375 z M 307.5,92.925938 c 0,-1.140732 0.39274,-3.461044 0.87275,-5.15625 0.48001,-1.6952 1.05147,-4.312725 1.2699,-5.816713 0.51255,-3.529075 1.36748,-5.077975 2.80281,-5.077975 1.61054,0 2.49882,1.317494 1.89623,2.8125 -0.27711,0.6875 -0.5236,2.326325 -0.54776,3.641825 l -0.0439,2.391831 1.89932,-1.899318 c 3.51253,-3.512525 8.38692,-3.197763 10.5647,0.682218 0.69853,1.244532 0.77756,2.10235 0.31527,3.42215 -0.57639,1.64555 -0.8728,1.773519 -4.51061,1.947369 -3.83621,0.183325 -5.03858,0.928813 -2.69683,1.672056 0.65827,0.208925 1.87445,0.2098 2.70263,0.0019 1.73212,-0.434731 3.32477,1.015819 2.75256,2.506975 -0.27907,0.727256 -1.44096,0.945457 -5.03448,0.945457 -4.11907,0 -4.78676,-0.164313 -5.64462,-1.389069 -0.53511,-0.763982 -0.99197,-2.099919 -1.01524,-2.96875 -0.0386,-1.442813 -0.0889,-1.471375 -0.58041,-0.329681 -0.29596,0.687499 -0.70416,2.023437 -0.90711,2.96875 -0.30229,1.408093 -0.70574,1.71875 -2.23208,1.71875 C 307.66992,95 307.5,94.810837 307.5,92.925938 Z M 322.1875,86.25 c 0.21907,-0.354475 -0.30601,-0.625 -1.21311,-0.625 -0.87966,0 -1.59939,0.28125 -1.59939,0.625 0,0.34375 0.5459,0.625 1.21311,0.625 0.66722,0 1.38694,-0.28125 1.59939,-0.625 z m -191.09375,0.819169 c -1.2935,-0.338025 -1.38056,-1.922588 -0.36001,-6.552738 0.95203,-4.319318 1.36324,-4.787 4.4087,-5.014125 4.06267,-0.302981 4.55625,-1.3421 7.95733,-16.752306 3.80623,-17.24595 3.59717,-16.875 9.51056,-16.875 4.38416,0 6.13967,0.769763 6.13967,2.692152 0,1.295417 -0.91482,5.876438 -4.39243,21.995348 -2.92265,13.546656 -5.61304,18.273275 -11.37509,19.984425 -2.99777,0.890244 -9.40374,1.171644 -11.88873,0.522244 z M 52.509824,85.643356 c -0.47848,-0.89405 -0.404886,-2.393031 0.268492,-5.46875 0.510206,-2.330406 1.345718,-6.140212 1.856694,-8.466237 0.510976,-2.326019 1.084297,-4.480325 1.274046,-4.787344 C 56.098806,66.614 56.082427,65.91555 55.872662,65.3689 55.555239,64.541719 54.309689,64.375 48.44716,64.375 c -8.212669,0 -8.896038,-0.361319 -7.888703,-4.171044 0.34778,-1.315301 1.057618,-4.360206 1.577417,-6.766456 0.519799,-2.40625 1.40479,-6.34375 1.966647,-8.75 0.561857,-2.40625 1.244861,-5.5 1.517788,-6.875 1.635265,-8.238433 3.250651,-14.466518 4.080821,-15.733517 l 0.952686,-1.453983 32.731221,0 c 26.047973,0 32.794023,0.163641 33.038763,0.801429 0.16915,0.440787 0.082,2.1986 -0.19366,3.90625 -0.93611,5.799058 0.88699,5.292321 -19.040265,5.292321 -15.936369,0 -17.80085,0.107667 -18.940675,1.09375 -1.09535,0.947609 -2.940231,6.684228 -3.567719,11.09375 -0.09783,0.6875 -0.657962,3.359375 -1.244731,5.9375 -2.132169,9.36825 -2.871294,12.836906 -2.996525,14.0625 -0.118525,1.159987 0.299406,1.263081 5.803969,1.431694 3.262431,0.09993 6.184256,0.434256 6.492937,0.742937 0.522325,0.522325 -0.196106,4.226263 -2.506312,12.921563 -0.4707,1.771656 -0.855819,3.772787 -0.855819,4.446962 0,0.674175 -0.582912,1.966825 -1.295362,2.872556 l -1.295363,1.646788 -11.80765,0 c -11.109323,0 -11.846629,-0.07284 -12.466801,-1.231644 z M 264.15025,71.210525 c -4.98879,-0.692262 -8.70729,-2.855412 -10.67711,-6.211131 -2.41145,-4.108105 -1.24749,-15.499091 2.39775,-23.465413 3.14137,-6.865126 8.3224,-10.520414 16.35532,-11.538889 5.48682,-0.695661 11.91517,0.05204 14.72682,1.71292 3.97531,2.348272 5.71351,7.440826 4.86573,14.255544 -0.25481,2.048169 -0.48702,4.369541 -0.51602,5.158603 -0.029,0.789063 -0.74308,2.125 -1.58683,2.96875 -1.5185,1.518494 -1.65194,1.534091 -13.125,1.534091 -11.4266,0 -11.59091,0.01896 -11.59091,1.337348 0,2.604623 1.55281,2.996606 11.95472,3.017775 11.06099,0.02251 11.51432,0.19775 10.84236,4.191252 -0.67479,4.010281 -1.55986,6.324794 -2.56632,6.711006 -1.80092,0.691075 -16.78426,0.924313 -21.08051,0.328144 z m 15.10176,-27.226371 c 0.34983,-2.452088 -1.54858,-3.524107 -5.70798,-3.223243 -3.11472,0.225298 -3.97712,0.554263 -5.20974,1.987274 -0.81243,0.944505 -1.30957,1.988428 -1.10476,2.319828 0.2088,0.337844 2.88975,0.523897 6.10268,0.423516 5.30025,-0.165593 5.74451,-0.278717 5.9198,-1.507375 z M 173.63097,70.376388 c -6.2998,-1.696082 -9.91207,-5.718175 -11.51658,-12.823178 -0.88065,-3.899636 -0.87582,-4.779089 0.0541,-9.824376 2.89203,-15.691818 9.50995,-24.290786 21.08715,-27.399527 7.92315,-2.127547 17.60929,-0.08943 22.41523,4.716512 6.79431,6.794314 7.12624,14.945903 1.24482,30.570358 C 205.27498,59.974699 205.27791,60 207.42347,60 c 2.92479,0 3.26375,1.045274 1.9156,5.907119 -0.65914,2.377069 -1.55351,4.54735 -1.9875,4.822843 -1.32895,0.843607 -30.40631,0.538719 -33.72059,-0.353574 z M 193.1955,57.65625 c 1.00301,-2.594078 3.45624,-11.273345 4.28397,-15.15625 0.8942,-4.194708 -0.0964,-7.690804 -2.73701,-9.659863 -2.69377,-2.008678 -8.7598,-1.781542 -12.13871,0.45452 -4.07026,2.693565 -7.21486,10.218974 -7.26621,17.388884 -0.0491,6.847931 2.29241,8.628573 11.39668,8.666995 5.75507,0.02429 5.80149,0.01211 6.46128,-1.694286 z m 28.13125,12.96745 c -2.75463,-0.650363 -5.08768,-2.429881 -6.63925,-5.064031 -1.71735,-2.9156 -1.59823,-10.648215 0.29745,-19.309669 0.78996,-3.609375 1.79607,-8.377164 2.23579,-10.595086 0.4779,-2.410474 1.24573,-4.358877 1.90884,-4.84375 1.58917,-1.162031 9.24394,-1.080378 10.23114,0.109135 0.61087,0.736045 0.31336,3.151666 -1.48597,12.065453 -1.23736,6.129836 -2.24975,12.000236 -2.24975,13.045335 0,3.035272 1.68422,4.064376 6.29165,3.844355 4.48299,-0.214078 4.11102,0.32121 5.9937,-8.625442 0.54252,-2.578125 1.34913,-6.375 1.79245,-8.4375 0.44332,-2.0625 1.15092,-5.4375 1.57243,-7.5 0.42151,-2.0625 1.20453,-4.101563 1.74004,-4.53125 0.99875,-0.801396 7.95726,-1.08833 9.74611,-0.401882 1.21709,0.467039 1.24659,2.189311 0.11844,6.913903 -0.4786,2.004326 -1.34634,5.894229 -1.92833,8.644229 -2.41253,11.399726 -2.83769,13.373658 -4.02697,18.696219 -0.68466,3.064169 -1.60871,5.80205 -2.05343,6.084181 -1.02545,0.650537 -20.72381,0.571725 -23.54434,-0.0942 z m 71.24045,0.05606 c -0.96741,-0.612593 -0.66923,-4.466543 0.82628,-10.679756 0.82963,-3.446747 2.11044,-9.372156 3.91781,-18.125 0.53236,-2.578125 1.36296,-6.164062 1.84578,-7.96875 l 0.87785,-3.28125 13.30139,0 13.30139,0 1.92352,1.880601 c 1.89846,1.85609 3.29666,6.630191 2.37742,8.117564 -0.23342,0.377673 -4.44137,0.626829 -10.5865,0.626829 -7.40869,0 -10.37038,0.213744 -10.82516,0.78125 -0.34435,0.429687 -0.91229,2.328125 -1.26207,4.21875 -2.83255,15.309918 -4.74208,23.522044 -5.63149,24.21875 -1.14109,0.893863 -8.73643,1.053075 -10.06622,0.211006 z m 29.92663,-0.374687 c -0.63295,-0.762663 -0.58299,-1.7729 0.25902,-5.237238 1.00923,-4.152356 1.00046,-4.442495 -0.26914,-8.898817 -3.68446,-12.932546 -3.73621,-13.355067 -1.70246,-13.900091 2.15661,-0.577951 8.3291,-0.46361 10.03754,0.185937 1.09462,0.416175 1.64833,1.236403 1.96147,2.905602 0.42498,2.265339 0.46546,2.294915 1.55875,1.138884 0.61733,-0.652768 3.86037,-5.264977 7.20676,-10.249352 8.12634,-12.104043 7.84766,-11.877292 14.58283,-11.865429 5.75585,0.01014 7.40919,0.513226 6.81086,2.072453 -0.20223,0.526999 -6.12182,8.641322 -13.15464,18.031828 -11.67031,15.582673 -12.87563,17.42841 -13.80254,21.136148 -0.55857,2.234375 -1.48373,4.414062 -2.05589,4.84375 -1.55794,1.169987 -10.43114,1.04295 -11.43256,-0.163681 z M 148.57339,40.563546 c -1.17523,-0.684018 -1.09437,-2.793612 0.27929,-7.287094 C 149.67846,30.575217 150.95649,30 156.13238,30 c 5.71625,0 6.19104,0.549868 4.89261,5.666241 -0.53445,2.105953 -1.2994,4.223826 -1.69989,4.706383 -0.87307,1.051993 -9.02361,1.196725 -10.75171,0.190922 z"
       id="path3490"
       inkscape:connector-curvature="0" />
    <path
       style="fill:#90d355"
       d="m 254.10657,94.446313 c -0.30626,-0.495538 0.8531,-6.585144 2.0364,-10.696313 0.44134,-1.533375 0.57177,-1.563613 6.99713,-1.622125 3.60107,-0.03281 7.03959,0.188037 7.64115,0.490737 1.37558,0.692182 1.48681,5.885313 0.20495,9.568888 -0.68129,1.957775 -1.18759,2.5 -2.33434,2.5 -1.58397,0 -1.60609,-0.151163 -0.68774,-4.698488 0.64645,-3.200943 0.43542,-4.364012 -0.79182,-4.364012 -1.18133,0 -1.66411,0.965106 -2.45317,4.904087 -0.6995,3.4919 -2.23413,5.330913 -3.44124,4.1238 -0.41998,-0.419975 -0.42932,-1.873931 -0.0279,-4.340387 0.61593,-3.7844 0.20775,-5.141737 -1.36424,-4.536519 -0.45279,0.174325 -1.20296,1.969482 -1.66705,3.989238 -0.46408,2.019756 -1.13133,4.023843 -1.48278,4.453531 -0.74214,0.907375 -2.13472,1.0279 -2.62935,0.227563 z m 20.19372,-0.771026 c -1.09869,-1.098687 -1.2601,-1.796131 -0.946,-4.0877 0.49568,-3.616412 1.2986,-5.019181 3.71685,-6.493693 2.82767,-1.72415 5.75246,-1.577113 7.71755,0.387981 1.39295,1.392944 1.55327,1.954606 1.20421,4.21875 -0.71801,4.657325 -3.59678,7.272756 -8.02415,7.290162 -1.56351,0.0063 -2.78475,-0.431787 -3.66846,-1.3155 z M 281.25,90.625 c 2.54525,-2.54525 0.56538,-6.640544 -2.43426,-5.035181 -1.80543,0.966237 -2.73038,4.156256 -1.54795,5.338687 1.28184,1.281838 2.48885,1.18985 3.98221,-0.303506 z m 5.87477,3.499394 c -0.1848,-0.481588 -0.003,-2.52065 0.40342,-4.53125 0.40668,-2.010607 1.05889,-5.259081 1.44937,-7.218844 0.39046,-1.959756 1.0426,-3.895544 1.44918,-4.301737 1.21795,-1.216807 2.69826,-0.170151 2.69826,1.907825 0,1.668643 0.21358,1.894612 1.79071,1.894612 2.23947,0 5.08429,2.170481 5.08429,3.8791 0,2.648906 -1.52898,6.244525 -3.28298,7.720419 C 295.23915,94.718069 294.21627,95 291.18243,95 c -2.61467,0 -3.82161,-0.260444 -4.05766,-0.875606 z m 7.98227,-3.908763 c 2.2903,-2.0727 0.51285,-5.893943 -2.24866,-4.834256 -1.05066,0.403181 -2.22027,3.793044 -1.7553,5.087375 0.39874,1.109956 2.65541,0.967294 4.00396,-0.253119 z m 6.61036,4.003119 c -0.14397,-0.429688 -0.0123,-1.894119 0.29262,-3.2543 0.3049,-1.360175 0.46958,-3.891425 0.36593,-5.625 l -0.18845,-3.15195 2.34375,-0.193981 c 1.91689,-0.158644 2.34362,0.01212 2.34301,0.9375 -0.001,2.393537 -1.76828,10.2507 -2.50435,11.137612 -0.94184,1.13485 -2.29687,1.211538 -2.65251,0.150119 z m 6.26843,0.05125 c -0.14671,-0.440125 -0.034,-1.932488 0.25048,-3.316363 0.28448,-1.383875 0.81791,-4.203631 1.18542,-6.266131 0.93429,-5.243406 1.77745,-7.1875 3.11721,-7.1875 1.70302,0 1.78776,0.543244 0.82875,5.3125 -2.33409,11.607588 -2.41543,11.86615 -3.79577,12.066363 -0.72564,0.105243 -1.43938,-0.168744 -1.58609,-0.608869 z m 7.17042,-0.222688 c -2.9118,-2.056512 -1.11258,-9.7164 2.68914,-11.448575 4.38005,-1.995687 8.68492,0.2697 8.29306,4.364125 l -0.20095,2.099638 -3.75,0.190569 c -2.0625,0.104812 -4.01719,0.456375 -4.34375,0.78125 -1.03864,1.033275 0.83086,2.153181 3.59438,2.153181 2.2077,0 2.62437,0.198463 2.62437,1.25 0,1.0915 -0.4755,1.272381 -3.75,1.4265 -2.65078,0.124769 -4.16221,-0.114625 -5.15625,-0.816688 z m 7.237,-8.000368 c 0.17479,-0.9211 -0.1238,-1.101488 -1.55181,-0.9375 -1.11469,0.128006 -1.84825,0.624612 -1.98469,1.343612 -0.17479,0.9211 0.1238,1.101488 1.55181,0.9375 1.11469,-0.128006 1.84825,-0.624612 1.98469,-1.343612 z M 52.916667,85.833331 c -0.640519,-0.640519 -0.499761,-2.737806 0.43512,-6.483269 0.766947,-3.072656 2.536146,-10.809118 3.210158,-14.037562 0.251247,-1.20345 -0.01912,-1.242788 -7.260032,-1.056263 -8.371522,0.215644 -9.670202,-0.212631 -8.975325,-2.95986 0.22382,-0.884883 0.966863,-4.140127 1.651207,-7.233877 0.684344,-3.09375 1.672216,-7.453125 2.195273,-9.6875 0.523055,-2.234375 1.174314,-5.1875 1.447241,-6.5625 1.635265,-8.238433 3.250651,-14.466518 4.080821,-15.733517 l 0.952686,-1.453983 32.731221,0 c 26.047973,0 32.794023,0.163641 33.038763,0.801429 0.16915,0.440787 0.082,2.1986 -0.19366,3.90625 -0.93611,5.799058 0.88699,5.292321 -19.040265,5.292321 -20.63355,0 -19.5993,-0.319222 -21.262,6.5625 -0.581375,2.40625 -1.238919,4.65625 -1.461212,5 -0.222288,0.34375 -0.721038,2.453125 -1.108332,4.6875 -0.387293,2.234375 -1.301356,6.714534 -2.03125,9.955909 C 70.597188,60.072283 70,63.095719 70,63.549656 c 0,0.625119 1.421869,0.825344 5.860975,0.825344 7.104262,0 7.73075,0.437525 6.385406,4.459469 C 81.137719,72.148856 78.75,82.006906 78.75,83.2698 c 0,0.501306 -0.514331,1.376931 -1.142962,1.945831 C 76.630175,86.099681 74.783325,86.25 64.898706,86.25 58.53775,86.25 53.145833,86.0625 52.916667,85.833331 Z m 77.975703,-0.41305 c -0.17511,-0.456344 -0.0257,-1.599656 0.33212,-2.540687 0.35778,-0.941032 0.65051,-2.375694 0.65051,-3.188138 0,-2.083981 1.60751,-3.441456 4.07534,-3.441456 2.93352,0 4.79587,-2.723606 6.19678,-9.0625 0.60775,-2.75 1.46317,-6.546875 1.90092,-8.4375 0.43774,-1.890625 1.28426,-5.6875 1.88114,-8.4375 1.55975,-7.186239 1.24505,-6.875 6.95144,-6.875 l 4.93188,0 -0.15404,2.1875 c -0.0847,1.203125 -0.57692,4.085937 -1.09375,6.40625 -0.51684,2.320312 -1.3773,6.257812 -1.91215,8.75 -3.30031,15.378444 -4.41398,18.694656 -7.36598,21.933975 -1.08574,1.191425 -2.93011,2.47415 -4.09859,2.8505 -3.11158,1.002194 -11.8951,0.898294 -12.29561,-0.145444 z M 304.60102,79.6875 c -0.59834,-1.559238 0.26697,-2.8125 1.94187,-2.8125 1.10685,0 1.58211,0.33795 1.58211,1.125 0,2.243725 -2.79664,3.582925 -3.52398,1.6875 z m -41.8191,-9.6348 c -3.17536,-0.521794 -6.32314,-2.339325 -8.02909,-4.636 -1.14522,-1.541775 -1.30836,-2.5926 -1.26147,-8.124998 0.0807,-9.52007 3.09063,-17.955418 7.82984,-21.943203 4.39035,-3.694239 6.54199,-4.352863 14.31881,-4.383045 8.5427,-0.03316 11.66064,0.999217 13.9019,4.603025 1.22092,1.963162 1.38619,3.033531 1.3205,8.552091 -0.0471,3.957447 -0.39939,6.985126 -0.94537,8.125 l -0.87028,1.81693 -11.95787,0.169516 c -12.92452,0.18322 -13.76667,0.408478 -12.99668,3.476358 0.7094,2.826478 3.46741,3.541626 13.6585,3.541626 l 9.12429,0 0,2.094237 c 0,2.447657 -1.15917,6.143338 -2.13363,6.802444 -0.82811,0.560125 -18.43754,0.484763 -21.95945,-0.09398 z m 17.52309,-25.029092 c 0.39952,-1.258795 -0.58098,-3.728104 -1.80482,-4.545287 -0.37823,-0.252549 -2.42392,-0.463487 -4.54598,-0.46875 -3.24706,-0.0081 -4.16294,0.246766 -5.78125,1.608488 -1.16819,0.982965 -1.92296,2.209538 -1.92296,3.125 0,1.500695 0.0283,1.506941 6.83288,1.506941 6.24013,0 6.86665,-0.10639 7.22213,-1.226392 z M 171.5625,68.743019 c -7.28553,-3.405794 -10.00786,-9.991548 -8.45229,-20.447426 1.40845,-9.466897 4.7037,-16.746326 9.64085,-21.29723 3.61596,-3.333081 6.52176,-4.747709 12.4495,-6.060784 4.13022,-0.9149 5.48683,-0.969153 8.75,-0.349927 10.71967,2.03418 16.05808,8.033494 16.04138,18.027302 -0.008,4.888 -0.78626,8.125492 -3.99117,16.606554 -0.89038,2.356204 -1.46321,4.535891 -1.27294,4.84375 0.19027,0.307858 1.15649,0.559742 2.14717,0.559742 2.31622,0 2.69086,0.682201 1.96565,3.579331 -0.32466,1.296994 -0.76449,3.131606 -0.97738,4.076919 L 207.47619,70 190.76934,69.955875 c -14.95425,-0.0395 -16.9691,-0.166744 -19.20684,-1.212831 z m 20.92638,-8.73707 c 0.9994,-0.534857 2.02706,-2.92696 3.35888,-7.818449 0.18718,-0.6875 0.90858,-3.21875 1.60309,-5.625 3.05364,-10.579828 0.22855,-15.943139 -8.38835,-15.924882 -6.80867,0.01442 -10.69256,3.541862 -13.34904,12.123888 -2.79267,9.02197 -1.29175,15.42671 3.9881,17.018132 3.06213,0.922969 11.21596,1.067277 12.78732,0.226311 z m 26.10048,8.413626 c -1.27918,-0.869231 -2.75072,-2.402138 -3.27008,-3.406463 -1.21697,-2.353356 -1.24839,-10.609556 -0.0602,-15.822165 0.48626,-2.133146 1.35711,-6.128447 1.93525,-8.878447 2.06748,-9.834234 1.23074,-8.724239 6.73349,-8.93254 l 4.82223,-0.182541 0.008,1.745041 c 0.007,1.635389 -0.79512,5.818153 -2.87804,14.998487 -0.94928,4.183906 -1.1519,10.038798 -0.38893,11.238702 1.22853,1.932098 9.29284,2.899417 10.63993,1.276267 0.7097,-0.855128 1.91078,-5.303498 3.58254,-13.268416 0.5772,-2.75 1.4274,-6.6875 1.88934,-8.75 0.46194,-2.0625 0.99875,-4.523438 1.19292,-5.46875 0.34692,-1.688904 0.4336,-1.71875 4.99175,-1.71875 2.55129,0 4.8019,0.264044 5.00135,0.586764 0.19945,0.32272 -0.0459,2.221157 -0.54515,4.21875 -0.49927,1.997592 -1.38002,5.881986 -1.95722,8.631986 -0.5772,2.75 -1.42202,6.6875 -1.87738,8.75 -0.6966,3.155219 -1.81421,8.533615 -3.14941,15.15625 C 244.97748,69.993562 244.92109,70 232.94567,70 221.1066,70 220.87816,69.974875 218.58936,68.419575 Z m 74.32872,1.111675 c -0.15437,-0.257813 -0.0581,-1.734375 0.21392,-3.28125 0.91062,-5.178053 2.49256,-12.618656 2.78264,-13.088018 0.15787,-0.255441 0.55225,-1.985447 0.8764,-3.84446 0.88447,-5.072466 2.53983,-13.076961 3.25174,-15.723772 l 0.6304,-2.34375 12.46605,0 12.46605,0 1.91804,1.71875 c 2.1061,1.887267 3.39977,5.858161 2.27497,6.982961 -0.42379,0.423791 -4.30427,0.673289 -10.47177,0.673289 -10.40948,0 -10.81556,0.111381 -11.40625,3.128496 -0.52483,2.680833 -2.38367,11.385758 -3.29649,15.437451 -0.48058,2.133146 -0.87535,4.383147 -0.87727,5.000003 -0.002,0.61685 -0.29638,2.176237 -0.65437,3.4653 L 302.44124,70 l -4.62123,0 c -2.54169,0 -4.74755,-0.210938 -4.90193,-0.46875 z m 30.21368,-1.225669 c 0.004,-0.958694 0.38319,-3.008706 0.84325,-4.555581 0.5662,-1.903739 0.65485,-3.418341 0.27435,-4.6875 -0.7334,-2.446217 -2.26898,-7.946399 -3.31259,-11.865132 -0.45628,-1.713322 -0.6965,-3.33051 -0.5338,-3.59375 0.51127,-0.827264 10.00444,-0.558724 10.69833,0.302632 0.34615,0.429687 0.82481,1.695312 1.06369,2.8125 0.23888,1.117187 0.76355,2.029143 1.16592,2.026568 0.40237,-0.0026 2.84096,-3.098438 5.41909,-6.879696 2.57812,-3.781257 6.10883,-8.911963 7.84599,-11.401568 l 3.1585,-4.526554 6.06025,-0.178883 c 3.86522,-0.11409 6.06026,0.05479 6.06026,0.466266 0,0.354832 -5.90625,8.529018 -13.125,18.164857 -7.80029,10.412098 -13.12882,18.083226 -13.13441,18.908735 -0.005,0.763963 -0.40015,2.514025 -0.87773,3.889025 l -0.86831,2.5 -5.37228,0.180581 -5.37227,0.180588 0.007,-1.743088 z M 148.90751,37.370388 c 0.17935,-1.475588 0.63219,-3.456326 1.00632,-4.401638 0.66152,-1.671474 0.81532,-1.71875 5.59153,-1.71875 2.70122,0 5.05757,0.146262 5.23633,0.325026 0.17877,0.178764 -0.13235,2.077201 -0.69137,4.21875 l -1.01639,3.893724 -5.22625,0.182888 -5.22625,0.182889 0.32608,-2.682889 z"
       id="path3488"
       inkscape:connector-curvature="0" />
    <path
       style="fill:#6dbc38"
       d="m 255.01229,93.958331 c 0.0366,-1.549031 1.79377,-10.347725 2.13463,-10.688587 0.63995,-0.639944 5.55432,-0.639132 6.81604,0.0012 0.74917,0.380175 1.76489,0.329293 2.91204,-0.145875 3.98453,-1.650444 5.43923,1.68945 3.5248,8.092737 -1.14711,3.8368 -2.58681,4.270925 -1.90892,0.575607 0.95273,-5.193513 0.75445,-6.459594 -1.04438,-6.668694 -2.18514,-0.254006 -2.87645,0.773187 -3.4934,5.1908 -0.37339,2.673631 -0.79077,3.74705 -1.45695,3.74705 -0.70263,0 -0.86575,-0.541275 -0.65925,-2.1875 0.15092,-1.203125 0.29154,-3.171875 0.3125,-4.375 0.035,-2.010619 -0.10987,-2.1875 -1.79193,-2.1875 -1.95446,0 -2.34575,0.722262 -3.35936,6.200887 -0.24939,1.347988 -0.80099,2.566738 -1.22577,2.708332 -0.42479,0.1416 -0.76681,0.02306 -0.76005,-0.263388 z m 20.45646,-0.222812 c -0.80742,-0.49655 -1.09375,-1.495157 -1.09375,-3.81465 0,-2.62665 0.29441,-3.436438 1.79492,-4.936938 2.3152,-2.3152 4.81599,-2.953994 6.91177,-1.765506 1.43338,0.812844 1.60413,1.29275 1.59015,4.469394 -0.0119,2.705018 -0.31398,3.857093 -1.25915,4.802275 -1.4586,1.458587 -6.35027,2.225487 -7.94394,1.245425 z M 281.8591,91.2659 c 3.50669,-3.506688 1.05271,-8.208869 -3.3936,-6.502663 -1.10817,0.425244 -2.8405,3.382238 -2.8405,4.848582 0,2.701187 4.09933,3.78885 6.2341,1.654081 z m 6.04663,2.634937 c -0.16118,-0.260787 -0.0622,-1.596724 0.22003,-2.96875 0.2822,-1.372025 0.93285,-4.562775 1.44588,-7.090562 0.51305,-2.527781 1.24118,-4.904344 1.61808,-5.28125 0.70314,-0.703138 0.74001,-0.619331 0.90312,2.053244 0.0628,1.029037 0.51534,1.615662 1.34466,1.743087 3.24549,0.498669 4.11706,0.895638 5.03186,2.291813 0.83815,1.279162 0.86955,1.889531 0.21039,4.089593 -1.11379,3.717494 -3.64752,5.636988 -7.44082,5.636988 -1.67209,0 -3.17203,-0.213375 -3.33321,-0.474162 z m 7.87552,-3.108899 c 0.62987,-0.567632 1.09375,-1.878026 1.09375,-3.089707 0,-2.5967 -2.18728,-3.955125 -4.59903,-2.856262 -1.77038,0.806643 -2.80336,5.327981 -1.55965,6.826562 0.88167,1.06235 3.39355,0.625631 5.06493,-0.880594 z m 12.96712,2.228893 c -0.002,-1.3951 1.26168,-7.581387 2.56315,-12.552081 0.33751,-1.289063 0.88362,-2.34375 1.21357,-2.34375 0.77243,0 0.75579,0.943206 -0.0895,5.070944 -0.37918,1.851606 -1.01199,5.030993 -1.40625,7.0653 -0.71695,3.699369 -2.27779,5.587731 -2.28096,2.759587 z M 316.25,93.570056 C 311.77406,91.316994 315.9806,82.5 321.53146,82.5 c 2.20071,0 4.21733,2.159419 3.97515,4.256612 -0.16333,1.41435 -0.53683,1.713482 -2.35549,1.886444 l -2.16138,0.20555 1.48435,-1.201956 c 2.05312,-1.662506 1.34464,-3.27165 -1.44045,-3.27165 -2.65169,0 -4.08902,1.467169 -3.0567,3.120169 0.56258,0.900843 0.52142,1.217656 -0.19385,1.492137 -1.30917,0.502369 -1.11703,2.731894 0.30082,3.490706 0.6649,0.355844 2.22838,0.646988 3.47439,0.646988 1.35116,0 2.10957,0.252237 1.8792,0.625 -0.54425,0.880619 -5.31801,0.761106 -7.1875,-0.179944 z M 302.5,93.239788 c 0,-0.280619 0.29918,-2.128632 0.66484,-4.1067 0.4906,-2.653857 0.4765,-3.823438 -0.0538,-4.462407 C 302.135,83.494625 302.87425,82.5 304.72439,82.5 c 0.83908,0 1.52556,0.07031 1.5255,0.15625 -5.7e-4,0.826075 -1.96112,10.102644 -2.22558,10.530538 -0.43433,0.702768 -1.52431,0.740662 -1.52431,0.053 z M 130.89237,85.420281 c -0.17511,-0.456344 -0.0257,-1.599656 0.33212,-2.540687 0.35778,-0.941032 0.65051,-2.375694 0.65051,-3.188138 0,-2.083981 1.60751,-3.441456 4.07534,-3.441456 2.93352,0 4.79587,-2.723606 6.19678,-9.0625 0.60775,-2.75 1.46317,-6.546875 1.90092,-8.4375 0.43774,-1.890625 1.28426,-5.6875 1.88114,-8.4375 1.55975,-7.186239 1.24505,-6.875 6.95144,-6.875 l 4.93188,0 -0.15404,2.1875 c -0.0847,1.203125 -0.57692,4.085937 -1.09375,6.40625 -0.51684,2.320312 -1.3773,6.257812 -1.91215,8.75 -3.30031,15.378444 -4.41398,18.694656 -7.36598,21.933975 -1.08574,1.191425 -2.93011,2.47415 -4.09859,2.8505 -3.11158,1.002194 -11.8951,0.898294 -12.29561,-0.145444 z M 53.455264,85.028744 C 53.017602,84.320587 52.985259,84.4884 56.274929,70.39865 c 0.711265,-3.046363 1.152777,-5.679275 0.98114,-5.850913 -0.171638,-0.171637 -3.797512,-0.267143 -8.057498,-0.212231 -9.014095,0.1162 -9.679177,-0.201831 -8.640114,-4.13155 0.34778,-1.315301 1.057618,-4.360206 1.577417,-6.766456 0.519799,-2.40625 1.40479,-6.34375 1.966647,-8.75 0.561857,-2.40625 1.244861,-5.5 1.517788,-6.875 1.635265,-8.238433 3.250651,-14.466518 4.080821,-15.733517 l 0.952686,-1.453983 32.731221,0 c 26.047973,0 32.794023,0.163641 33.038763,0.801429 0.16915,0.440787 0.082,2.1986 -0.19366,3.90625 -0.936,5.798357 0.8779,5.292321 -18.97044,5.292321 -14.327487,0 -17.846313,0.167922 -18.893831,0.901636 -0.869563,0.609065 -1.649644,2.440422 -2.404031,5.64382 C 74.565663,43.099099 73.755287,43.75 67.7703,43.75 c -5.315219,0 -6.064053,0.597857 -7.045481,5.625 -0.88046,4.509954 -2.32511,11.122856 -2.901413,13.28125 l -0.458916,1.71875 5.567754,0 C 69.121387,64.375 70,64.80815 70,67.859375 c 0,1.7225 0.25775,2.035925 1.953125,2.375 1.074219,0.214844 3.352537,0.390625 5.062931,0.390625 l 3.109813,0 -0.28685,2.65625 c -0.511207,4.733881 -1.873025,10.129456 -2.839444,11.25 -0.832537,0.965312 -2.248675,1.09375 -12.059556,1.09375 -6.379408,0 -11.273275,-0.254075 -11.484755,-0.596256 z M 305.13636,78.653437 c 0.32439,-0.973187 1.72265,-1.143618 1.77165,-0.215937 0.0181,0.34375 -0.4361,0.722175 -1.00948,0.840937 -0.65169,0.134994 -0.93741,-0.0993 -0.76217,-0.625 z M 262.78192,70.0527 c -3.17536,-0.521794 -6.32314,-2.339325 -8.02909,-4.636 -1.14522,-1.541775 -1.30836,-2.5926 -1.26147,-8.124998 0.0807,-9.52007 3.09063,-17.955418 7.82984,-21.943203 4.39035,-3.694239 6.54199,-4.352863 14.31881,-4.383045 8.5427,-0.03316 11.66064,0.999217 13.9019,4.603025 1.22092,1.963162 1.38619,3.033531 1.3205,8.552091 -0.0471,3.957447 -0.39939,6.985126 -0.94537,8.125 l -0.87028,1.81693 -11.95787,0.169516 c -12.92452,0.18322 -13.76667,0.408478 -12.99668,3.476358 0.7094,2.826478 3.46741,3.541626 13.6585,3.541626 l 9.12429,0 0,2.094237 c 0,2.447657 -1.15917,6.143338 -2.13363,6.802444 -0.82811,0.560125 -18.43754,0.484763 -21.95945,-0.09398 z m 17.52309,-25.029092 c 0.39952,-1.258795 -0.58098,-3.728104 -1.80482,-4.545287 -0.37823,-0.252549 -2.42392,-0.463487 -4.54598,-0.46875 -3.24706,-0.0081 -4.16294,0.246766 -5.78125,1.608488 -1.16819,0.982965 -1.92296,2.209538 -1.92296,3.125 0,1.500695 0.0283,1.506941 6.83288,1.506941 6.24013,0 6.86665,-0.10639 7.22213,-1.226392 z M 171.5625,68.743019 c -7.28553,-3.405794 -10.00786,-9.991548 -8.45229,-20.447426 1.40845,-9.466897 4.7037,-16.746326 9.64085,-21.29723 3.61596,-3.333081 6.52176,-4.747709 12.4495,-6.060784 4.13022,-0.9149 5.48683,-0.969153 8.75,-0.349927 10.71967,2.03418 16.05808,8.033494 16.04138,18.027302 -0.008,4.888 -0.78626,8.125492 -3.99117,16.606554 -0.89038,2.356204 -1.46321,4.535891 -1.27294,4.84375 0.19027,0.307858 1.15649,0.559742 2.14717,0.559742 2.31622,0 2.69086,0.682201 1.96565,3.579331 -0.32466,1.296994 -0.76449,3.131606 -0.97738,4.076919 L 207.47619,70 190.76934,69.955875 c -14.95425,-0.0395 -16.9691,-0.166744 -19.20684,-1.212831 z m 20.92638,-8.73707 c 0.9994,-0.534857 2.02706,-2.92696 3.35888,-7.818449 0.18718,-0.6875 0.90858,-3.21875 1.60309,-5.625 3.05364,-10.579828 0.22855,-15.943139 -8.38835,-15.924882 -6.80867,0.01442 -10.69256,3.541862 -13.34904,12.123888 -2.79267,9.02197 -1.29175,15.42671 3.9881,17.018132 3.06213,0.922969 11.21596,1.067277 12.78732,0.226311 z m 26.10048,8.413626 c -1.27918,-0.869231 -2.75072,-2.402138 -3.27008,-3.406463 -1.21697,-2.353356 -1.24839,-10.609556 -0.0602,-15.822165 0.48626,-2.133146 1.35711,-6.128447 1.93525,-8.878447 2.06748,-9.834234 1.23074,-8.724239 6.73349,-8.93254 l 4.82223,-0.182541 0.008,1.745041 c 0.007,1.635389 -0.79512,5.818153 -2.87804,14.998487 -0.94928,4.183906 -1.1519,10.038798 -0.38893,11.238702 1.22853,1.932098 9.29284,2.899417 10.63993,1.276267 0.7097,-0.855128 1.91078,-5.303498 3.58254,-13.268416 0.5772,-2.75 1.4274,-6.6875 1.88934,-8.75 0.46194,-2.0625 0.99875,-4.523438 1.19292,-5.46875 0.34692,-1.688904 0.4336,-1.71875 4.99175,-1.71875 2.55129,0 4.8019,0.264044 5.00135,0.586764 0.19945,0.32272 -0.0459,2.221157 -0.54515,4.21875 -0.49927,1.997592 -1.38002,5.881986 -1.95722,8.631986 -0.5772,2.75 -1.42202,6.6875 -1.87738,8.75 -0.6966,3.155219 -1.81421,8.533615 -3.14941,15.15625 C 244.97748,69.993562 244.92109,70 232.94567,70 221.1066,70 220.87816,69.974875 218.58936,68.419575 Z m 74.32872,1.111675 c -0.15437,-0.257813 -0.0581,-1.734375 0.21392,-3.28125 0.91062,-5.178053 2.49256,-12.618656 2.78264,-13.088018 0.15787,-0.255441 0.55225,-1.985447 0.8764,-3.84446 0.88447,-5.072466 2.53983,-13.076961 3.25174,-15.723772 l 0.6304,-2.34375 12.46605,0 12.46605,0 1.91804,1.71875 c 2.1061,1.887267 3.39977,5.858161 2.27497,6.982961 -0.42379,0.423791 -4.30427,0.673289 -10.47177,0.673289 -10.40948,0 -10.81556,0.111381 -11.40625,3.128496 -0.52483,2.680833 -2.38367,11.385758 -3.29649,15.437451 -0.48058,2.133146 -0.87535,4.383147 -0.87727,5.000003 -0.002,0.61685 -0.29638,2.176237 -0.65437,3.4653 L 302.44124,70 l -4.62123,0 c -2.54169,0 -4.74755,-0.210938 -4.90193,-0.46875 z m 30.21368,-1.225669 c 0.004,-0.958694 0.38319,-3.008706 0.84325,-4.555581 0.5662,-1.903739 0.65485,-3.418341 0.27435,-4.6875 -0.7334,-2.446217 -2.26898,-7.946399 -3.31259,-11.865132 -0.45628,-1.713322 -0.6965,-3.33051 -0.5338,-3.59375 0.51127,-0.827264 10.00444,-0.558724 10.69833,0.302632 0.34615,0.429687 0.82481,1.695312 1.06369,2.8125 0.23888,1.117187 0.76355,2.029143 1.16592,2.026568 0.40237,-0.0026 2.84096,-3.098438 5.41909,-6.879696 2.57812,-3.781257 6.10883,-8.911963 7.84599,-11.401568 l 3.1585,-4.526554 6.06025,-0.178883 c 3.86522,-0.11409 6.06026,0.05479 6.06026,0.466266 0,0.354832 -5.90625,8.529018 -13.125,18.164857 -7.80029,10.412098 -13.12882,18.083226 -13.13441,18.908735 -0.005,0.763963 -0.40015,2.514025 -0.87773,3.889025 l -0.86831,2.5 -5.37228,0.180581 -5.37227,0.180588 0.007,-1.743088 z M 148.90751,37.370388 c 0.17935,-1.475588 0.63219,-3.456326 1.00632,-4.401638 0.66152,-1.671474 0.81532,-1.71875 5.59153,-1.71875 2.70122,0 5.05757,0.146262 5.23633,0.325026 0.17877,0.178764 -0.13235,2.077201 -0.69137,4.21875 l -1.01639,3.893724 -5.22625,0.182888 -5.22625,0.182889 0.32608,-2.682889 z"
       id="path3486"
       inkscape:connector-curvature="0" />
    <path
       style="fill:#0682a2"
       d="m 130.89237,85.420281 c -0.17511,-0.456344 -0.0257,-1.599656 0.33212,-2.540687 0.35778,-0.941032 0.65051,-2.375694 0.65051,-3.188138 0,-2.083981 1.60751,-3.441456 4.07534,-3.441456 2.93352,0 4.79587,-2.723606 6.19678,-9.0625 0.60775,-2.75 1.46317,-6.546875 1.90092,-8.4375 0.43774,-1.890625 1.28426,-5.6875 1.88114,-8.4375 1.55975,-7.186239 1.24505,-6.875 6.95144,-6.875 l 4.93188,0 -0.15404,2.1875 c -0.0847,1.203125 -0.57692,4.085937 -1.09375,6.40625 -0.51684,2.320312 -1.3773,6.257812 -1.91215,8.75 -3.30031,15.378444 -4.41398,18.694656 -7.36598,21.933975 -1.08574,1.191425 -2.93011,2.47415 -4.09859,2.8505 -3.11158,1.002194 -11.8951,0.898294 -12.29561,-0.145444 z M 262.78192,70.0527 c -3.17536,-0.521794 -6.32314,-2.339325 -8.02909,-4.636 -1.14522,-1.541775 -1.30836,-2.5926 -1.26147,-8.124998 0.0807,-9.52007 3.09063,-17.955418 7.82984,-21.943203 4.39035,-3.694239 6.54199,-4.352863 14.31881,-4.383045 8.5427,-0.03316 11.66064,0.999217 13.9019,4.603025 1.22092,1.963162 1.38619,3.033531 1.3205,8.552091 -0.0471,3.957447 -0.39939,6.985126 -0.94537,8.125 l -0.87028,1.81693 -11.95787,0.169516 c -12.92452,0.18322 -13.76667,0.408478 -12.99668,3.476358 0.7094,2.826478 3.46741,3.541626 13.6585,3.541626 l 9.12429,0 0,2.094237 c 0,2.447657 -1.15917,6.143338 -2.13363,6.802444 -0.82811,0.560125 -18.43754,0.484763 -21.95945,-0.09398 z m 17.52309,-25.029092 c 0.39952,-1.258796 -0.58098,-3.728104 -1.80482,-4.545287 -0.37823,-0.252549 -2.42392,-0.463487 -4.54598,-0.46875 -3.24706,-0.0081 -4.16294,0.246766 -5.78125,1.608488 -1.16819,0.982965 -1.92296,2.209538 -1.92296,3.125 0,1.500695 0.0283,1.506941 6.83288,1.506941 6.24013,0 6.86665,-0.10639 7.22213,-1.226392 z M 171.5625,68.743019 c -7.28553,-3.405794 -10.00786,-9.991548 -8.45229,-20.447426 1.40845,-9.466897 4.7037,-16.746326 9.64085,-21.29723 3.61596,-3.333081 6.52176,-4.747709 12.4495,-6.060784 4.13022,-0.9149 5.48683,-0.969153 8.75,-0.349927 10.71967,2.03418 16.05808,8.033494 16.04138,18.027302 -0.008,4.888 -0.78626,8.125492 -3.99117,16.606554 -0.89038,2.356204 -1.46321,4.535891 -1.27294,4.84375 0.19027,0.307858 1.15649,0.559742 2.14717,0.559742 2.31622,0 2.69086,0.682201 1.96565,3.579331 -0.32466,1.296994 -0.76449,3.131606 -0.97738,4.076919 L 207.47619,70 190.76934,69.955875 c -14.95425,-0.0395 -16.9691,-0.166744 -19.20684,-1.212831 z m 20.92638,-8.73707 c 0.9994,-0.534857 2.02706,-2.92696 3.35888,-7.818449 0.18718,-0.6875 0.90858,-3.21875 1.60309,-5.625 3.05364,-10.579828 0.22855,-15.943139 -8.38835,-15.924882 -6.80867,0.01442 -10.69256,3.541862 -13.34904,12.123888 -2.79267,9.02197 -1.29175,15.42671 3.9881,17.018132 3.06213,0.922969 11.21596,1.067277 12.78732,0.226311 z m 26.10048,8.413626 c -1.27918,-0.869231 -2.75072,-2.402138 -3.27008,-3.406463 -1.21697,-2.353356 -1.24839,-10.609556 -0.0602,-15.822165 0.48626,-2.133146 1.35711,-6.128447 1.93525,-8.878447 2.06748,-9.834234 1.23074,-8.724239 6.73349,-8.93254 l 4.82223,-0.182541 0.008,1.745041 c 0.007,1.635389 -0.79512,5.818153 -2.87804,14.998487 -0.94928,4.183906 -1.1519,10.038798 -0.38893,11.238702 1.22853,1.932098 9.29284,2.899417 10.63993,1.276267 0.7097,-0.855128 1.91078,-5.303498 3.58254,-13.268416 0.5772,-2.75 1.4274,-6.6875 1.88934,-8.75 0.46194,-2.0625 0.99875,-4.523438 1.19292,-5.46875 0.34692,-1.688904 0.4336,-1.71875 4.99175,-1.71875 2.55129,0 4.8019,0.264044 5.00135,0.586764 0.19945,0.32272 -0.0459,2.221157 -0.54515,4.21875 -0.49927,1.997592 -1.38002,5.881986 -1.95722,8.631986 -0.5772,2.75 -1.42202,6.6875 -1.87738,8.75 -0.6966,3.155219 -1.81421,8.533615 -3.14941,15.15625 C 244.97748,69.993562 244.92109,70 232.94567,70 221.1066,70 220.87816,69.974875 218.58936,68.419575 Z m 74.32872,1.111675 c -0.15437,-0.257813 -0.0581,-1.734375 0.21392,-3.28125 0.91062,-5.178053 2.49256,-12.618656 2.78264,-13.088018 0.15787,-0.255441 0.55225,-1.985447 0.8764,-3.84446 0.88447,-5.072466 2.53983,-13.076961 3.25174,-15.723772 l 0.6304,-2.34375 12.46605,0 12.46605,0 1.91804,1.71875 c 2.1061,1.887267 3.39977,5.858161 2.27497,6.982961 -0.42379,0.423791 -4.30427,0.673289 -10.47177,0.673289 -10.40948,0 -10.81556,0.111381 -11.40625,3.128496 -0.52483,2.680833 -2.38367,11.385758 -3.29649,15.437451 -0.48058,2.133146 -0.87535,4.383147 -0.87727,5.000003 -0.002,0.61685 -0.29638,2.176237 -0.65437,3.4653 L 302.44124,70 l -4.62123,0 c -2.54169,0 -4.74755,-0.210938 -4.90193,-0.46875 z m 30.21368,-1.225669 c 0.004,-0.958694 0.38319,-3.008706 0.84325,-4.555581 0.5662,-1.903739 0.65485,-3.418341 0.27435,-4.6875 -0.7334,-2.446217 -2.26898,-7.946399 -3.31259,-11.865132 -0.45628,-1.713322 -0.6965,-3.33051 -0.5338,-3.59375 0.51127,-0.827264 10.00444,-0.558724 10.69833,0.302632 0.34615,0.429687 0.82481,1.695312 1.06369,2.8125 0.23888,1.117187 0.76355,2.029143 1.16592,2.026568 0.40237,-0.0026 2.84096,-3.098438 5.41909,-6.879696 2.57812,-3.781257 6.10883,-8.911963 7.84599,-11.401568 l 3.1585,-4.526554 6.06025,-0.178883 c 3.86522,-0.11409 6.06026,0.05479 6.06026,0.466266 0,0.354832 -5.90625,8.529018 -13.125,18.164857 -7.80029,10.412098 -13.12882,18.083226 -13.13441,18.908735 -0.005,0.763963 -0.40015,2.514025 -0.87773,3.889025 l -0.86831,2.5 -5.37228,0.180581 -5.37227,0.180588 0.007,-1.743088 z M 40.664592,63.485206 c -0.53703,-0.647081 -0.565981,-1.542124 -0.106135,-3.28125 0.34778,-1.315301 1.057618,-4.360206 1.577417,-6.766456 0.519799,-2.40625 1.40479,-6.34375 1.966647,-8.75 0.561857,-2.40625 1.244861,-5.5 1.517788,-6.875 1.635265,-8.238433 3.250651,-14.466518 4.080821,-15.733517 l 0.952686,-1.453983 32.731221,0 c 26.047973,0 32.794023,0.163641 33.038763,0.801429 0.16915,0.440787 0.082,2.1986 -0.19366,3.90625 -0.93603,5.798554 0.88045,5.292321 -18.990053,5.292321 -14.204937,0 -17.860768,0.171539 -18.8348,0.883769 -0.745775,0.545322 -1.692912,2.7593 -2.473212,5.78125 l -1.264594,4.897481 -5.756987,0.320567 c -6.821813,0.37986 -7.448274,0.818308 -8.593389,6.01434 -0.444248,2.015802 -1.242554,5.640397 -1.774014,8.054656 -0.53146,2.41426 -1.25786,5.156448 -1.614222,6.09375 l -0.64793,1.704187 -7.438942,0 c -5.672664,0 -7.61428,-0.211269 -8.177405,-0.889794 z M 148.90751,37.370388 c 0.17935,-1.475588 0.63219,-3.456326 1.00632,-4.401638 0.66152,-1.671474 0.81532,-1.71875 5.59153,-1.71875 2.70122,0 5.05757,0.146262 5.23633,0.325026 0.17877,0.178764 -0.13235,2.077201 -0.69137,4.21875 l -1.01639,3.893724 -5.22625,0.182888 -5.22625,0.182889 0.32608,-2.682889 z"
       id="path3484"
       inkscape:connector-curvature="0" />
    <path
       style="fill:#5a5a5a"
       d="m 130.89237,85.420281 c -0.17511,-0.456344 -0.0257,-1.599656 0.33212,-2.540687 0.35778,-0.941032 0.65051,-2.375694 0.65051,-3.188138 0,-2.083981 1.60751,-3.441456 4.07534,-3.441456 2.93352,0 4.79587,-2.723606 6.19678,-9.0625 0.60775,-2.75 1.46317,-6.546875 1.90092,-8.4375 0.43774,-1.890625 1.28426,-5.6875 1.88114,-8.4375 1.55975,-7.186239 1.24505,-6.875 6.95144,-6.875 l 4.93188,0 -0.15404,2.1875 c -0.0847,1.203125 -0.57692,4.085937 -1.09375,6.40625 -0.51684,2.320312 -1.3773,6.257812 -1.91215,8.75 -3.30031,15.378444 -4.41398,18.694656 -7.36598,21.933975 -1.08574,1.191425 -2.93011,2.47415 -4.09859,2.8505 -3.11158,1.002194 -11.8951,0.898294 -12.29561,-0.145444 z M 262.78192,70.0527 c -3.17536,-0.521794 -6.32314,-2.339325 -8.02909,-4.636 -1.14522,-1.541775 -1.30836,-2.5926 -1.26147,-8.124998 0.0807,-9.52007 3.09063,-17.955418 7.82984,-21.943203 4.39035,-3.694239 6.54199,-4.352863 14.31881,-4.383045 8.5427,-0.03316 11.66064,0.999217 13.9019,4.603025 1.22092,1.963162 1.38619,3.033531 1.3205,8.552091 -0.0471,3.957447 -0.39939,6.985126 -0.94537,8.125 l -0.87028,1.81693 -11.95787,0.169516 c -12.92452,0.18322 -13.76667,0.408478 -12.99668,3.476358 0.7094,2.826478 3.46741,3.541626 13.6585,3.541626 l 9.12429,0 0,2.094237 c 0,2.447657 -1.15917,6.143338 -2.13363,6.802444 -0.82811,0.560125 -18.43754,0.484763 -21.95945,-0.09398 z m 17.52309,-25.029092 c 0.39952,-1.258796 -0.58098,-3.728104 -1.80482,-4.545287 -0.37823,-0.252549 -2.42392,-0.463487 -4.54598,-0.46875 -3.24706,-0.0081 -4.16294,0.246766 -5.78125,1.608488 -1.16819,0.982965 -1.92296,2.209538 -1.92296,3.125 0,1.500695 0.0283,1.506941 6.83288,1.506941 6.24013,0 6.86665,-0.10639 7.22213,-1.226392 z M 171.5625,68.743019 c -7.28553,-3.405794 -10.00786,-9.991548 -8.45229,-20.447426 1.40845,-9.466897 4.7037,-16.746326 9.64085,-21.29723 3.61596,-3.333081 6.52176,-4.747709 12.4495,-6.060784 4.13022,-0.9149 5.48683,-0.969153 8.75,-0.349927 10.71967,2.03418 16.05808,8.033494 16.04138,18.027302 -0.008,4.888 -0.78626,8.125492 -3.99117,16.606554 -0.89038,2.356204 -1.46321,4.535891 -1.27294,4.84375 0.19027,0.307858 1.15649,0.559742 2.14717,0.559742 2.31622,0 2.69086,0.682201 1.96565,3.579331 -0.32466,1.296994 -0.76449,3.131606 -0.97738,4.076919 L 207.47619,70 190.76934,69.955875 c -14.95425,-0.0395 -16.9691,-0.166744 -19.20684,-1.212831 z m 20.92638,-8.73707 c 0.9994,-0.534857 2.02706,-2.92696 3.35888,-7.818449 0.18718,-0.6875 0.90858,-3.21875 1.60309,-5.625 3.05364,-10.579828 0.22855,-15.943139 -8.38835,-15.924882 -6.80867,0.01442 -10.69256,3.541862 -13.34904,12.123888 -2.79267,9.02197 -1.29175,15.42671 3.9881,17.018132 3.06213,0.922969 11.21596,1.067277 12.78732,0.226311 z m 26.10048,8.413626 c -1.27918,-0.869231 -2.75072,-2.402138 -3.27008,-3.406463 -1.21697,-2.353356 -1.24839,-10.609556 -0.0602,-15.822165 0.48626,-2.133146 1.35711,-6.128447 1.93525,-8.878447 2.06748,-9.834234 1.23074,-8.724239 6.73349,-8.93254 l 4.82223,-0.182541 0.008,1.745041 c 0.007,1.635389 -0.79512,5.818153 -2.87804,14.998487 -0.94928,4.183906 -1.1519,10.038798 -0.38893,11.238702 1.22853,1.932098 9.29284,2.899417 10.63993,1.276267 0.7097,-0.855128 1.91078,-5.303498 3.58254,-13.268416 0.5772,-2.75 1.4274,-6.6875 1.88934,-8.75 0.46194,-2.0625 0.99875,-4.523438 1.19292,-5.46875 0.34692,-1.688904 0.4336,-1.71875 4.99175,-1.71875 2.55129,0 4.8019,0.264044 5.00135,0.586764 0.19945,0.32272 -0.0459,2.221157 -0.54515,4.21875 -0.49927,1.997592 -1.38002,5.881986 -1.95722,8.631986 -0.5772,2.75 -1.42202,6.6875 -1.87738,8.75 -0.6966,3.155219 -1.81421,8.533615 -3.14941,15.15625 C 244.97748,69.993562 244.92109,70 232.94567,70 221.1066,70 220.87816,69.974875 218.58936,68.419575 Z m 74.32872,1.111675 c -0.15437,-0.257813 -0.0581,-1.734375 0.21392,-3.28125 0.91062,-5.178053 2.49256,-12.618656 2.78264,-13.088018 0.15787,-0.255441 0.55225,-1.985447 0.8764,-3.84446 0.88447,-5.072466 2.53983,-13.076961 3.25174,-15.723772 l 0.6304,-2.34375 12.46605,0 12.46605,0 1.91804,1.71875 c 2.1061,1.887267 3.39977,5.858161 2.27497,6.982961 -0.42379,0.423791 -4.30427,0.673289 -10.47177,0.673289 -10.40948,0 -10.81556,0.111381 -11.40625,3.128496 -0.52483,2.680833 -2.38367,11.385758 -3.29649,15.437451 -0.48058,2.133146 -0.87535,4.383147 -0.87727,5.000003 -0.002,0.61685 -0.29638,2.176237 -0.65437,3.4653 L 302.44124,70 l -4.62123,0 c -2.54169,0 -4.74755,-0.210938 -4.90193,-0.46875 z m 30.21368,-1.225669 c 0.004,-0.958694 0.38319,-3.008706 0.84325,-4.555581 0.5662,-1.903739 0.65485,-3.418341 0.27435,-4.6875 -0.7334,-2.446217 -2.26898,-7.946399 -3.31259,-11.865132 -0.45628,-1.713322 -0.6965,-3.33051 -0.5338,-3.59375 0.51127,-0.827264 10.00444,-0.558724 10.69833,0.302632 0.34615,0.429687 0.82481,1.695312 1.06369,2.8125 0.23888,1.117187 0.76355,2.029143 1.16592,2.026568 0.40237,-0.0026 2.84096,-3.098438 5.41909,-6.879696 2.57812,-3.781257 6.10883,-8.911963 7.84599,-11.401568 l 3.1585,-4.526554 6.06025,-0.178883 c 3.86522,-0.11409 6.06026,0.05479 6.06026,0.466266 0,0.354832 -5.90625,8.529018 -13.125,18.164857 -7.80029,10.412098 -13.12882,18.083226 -13.13441,18.908735 -0.005,0.763963 -0.40015,2.514025 -0.87773,3.889025 l -0.86831,2.5 -5.37228,0.180581 -5.37227,0.180588 0.007,-1.743088 z M 148.90751,37.370388 c 0.17935,-1.475588 0.63219,-3.456326 1.00632,-4.401638 0.66152,-1.671474 0.81532,-1.71875 5.59153,-1.71875 2.70122,0 5.05757,0.146262 5.23633,0.325026 0.17877,0.178764 -0.13235,2.077201 -0.69137,4.21875 l -1.01639,3.893724 -5.22625,0.182888 -5.22625,0.182889 0.32608,-2.682889 z"
       id="path3482"
       inkscape:connector-curvature="0" />
    <path
       style="fill:#323232"
       d="m 132.17332,84.977063 c -0.47355,-0.766213 0.22482,-5.444194 1.04625,-7.008313 0.39922,-0.760163 1.32748,-1.09375 3.04355,-1.09375 4.02012,0 5.25848,-2.613794 8.43917,-17.8125 0.5755,-2.75 1.44042,-6.368235 1.92204,-8.040522 0.48162,-1.672287 0.87567,-3.701454 0.87567,-4.50926 0,-1.972287 1.70426,-2.762718 5.95673,-2.762718 l 3.53891,0 -0.33042,2.96875 c -0.18173,1.632812 -0.76342,4.9375 -1.29264,7.34375 -1.55943,7.090365 -2.69053,12.27115 -3.47959,15.9375 -2.08565,9.691081 -4.68438,13.646875 -9.826,14.957181 -3.34537,0.852544 -9.37157,0.86465 -9.89367,0.01987 z M 263.74169,69.435431 c -3.40287,-0.479594 -6.58368,-2.2464 -8.36386,-4.645768 -1.14051,-1.537219 -1.30471,-2.575555 -1.2354,-7.812502 0.11584,-8.752766 2.76697,-16.267453 7.218,-20.459555 4.27606,-4.027327 7.11866,-4.955106 15.18182,-4.955106 6.07979,0 7.16478,0.167611 9.17433,1.417257 3.9495,2.456015 4.60564,4.025741 4.52372,10.822279 -0.0446,3.698916 -0.40612,6.686704 -0.94534,7.8125 l -0.87315,1.822964 -11.82022,0.170442 c -7.42799,0.107109 -12.12796,0.425847 -12.6484,0.857779 -1.28084,1.063003 -0.98274,3.409725 0.67873,5.343176 l 1.50694,1.753603 10.05556,0.199257 c 11.30037,0.223924 10.88917,-0.0016 9.35235,5.127899 -0.60773,2.028406 -1.01092,2.398069 -2.96875,2.721881 -2.83669,0.469175 -15.06928,0.354807 -18.83633,-0.176106 z m 16.89977,-23.517764 c 1.17375,-1.414284 -0.22228,-5.700389 -2.04512,-6.278935 -2.96874,-0.942244 -8.47873,-0.388103 -10.42126,1.048069 -1.90322,1.407107 -3.20166,3.993072 -2.71488,5.406949 0.42831,1.244088 14.13456,1.085113 15.18126,-0.176083 z M 171.3594,67.719594 c -4.37608,-2.116657 -6.64763,-5.272582 -7.55805,-10.500602 -1.59473,-9.157573 2.54207,-22.618641 8.99204,-29.259961 8.54828,-8.801884 26.50226,-8.979279 33.03285,-0.326385 4.46583,5.917134 4.72397,11.82979 0.9919,22.71936 -3.3373,9.737723 -3.3659,10.348943 -0.52323,11.181595 2.081,0.609548 2.20198,0.781073 1.78363,2.528899 -0.24683,1.03125 -0.62397,2.648437 -0.83807,3.59375 l -0.38928,1.71875 -16.08185,-0.02281 C 174.78952,69.3295 174.66639,69.319125 171.3594,67.719606 Z m 22.22624,-7.250844 c 0.70187,-0.893491 2.0542,-4.715515 3.59355,-10.15625 0.58355,-2.0625 1.31633,-4.613718 1.6284,-5.669374 0.8726,-2.951769 0.67421,-7.986998 -0.39951,-10.139308 -1.56365,-3.134414 -4.42991,-4.504192 -9.41935,-4.501482 -5.75502,0.0031 -9.07083,1.983006 -11.85607,7.079306 -3.39105,6.204763 -4.49094,16.533523 -2.14104,20.105858 1.91912,2.917473 5.03278,3.962762 11.9631,4.016148 4.11815,0.03172 6.21091,-0.200214 6.63092,-0.734898 z m 25.9399,7.659625 c -4.54223,-2.769431 -5.70061,-8.767884 -3.56116,-18.440875 0.53221,-2.40625 1.40379,-6.484375 1.93686,-9.0625 1.94043,-9.384804 1.26088,-8.412503 6.0262,-8.622306 4.84876,-0.213477 4.74523,-0.405327 3.30366,6.122306 -2.46928,11.181175 -2.91426,13.717404 -2.99304,17.058986 -0.11981,5.082489 1.12646,6.252303 7.01545,6.585061 2.74593,0.155159 4.70945,-0.02148 5.25296,-0.472546 0.87619,-0.727173 1.89974,-4.332611 3.82797,-13.484001 0.57944,-2.75 1.44063,-6.6875 1.91377,-8.75 0.47313,-2.0625 0.93428,-4.453125 1.02476,-5.3125 0.15703,-1.491299 0.37457,-1.570939 4.77376,-1.747705 4.09654,-0.164604 4.56454,-0.06876 4.20748,0.861721 -0.40822,1.063811 -0.69439,2.3053 -2.5813,11.198484 -0.58348,2.75 -1.43344,6.6875 -1.8888,8.75 -0.6966,3.155219 -1.81421,8.533615 -3.14941,15.15625 -0.28158,1.39665 -0.36132,1.406231 -11.67786,1.403913 -10.26723,-0.0019 -11.59583,-0.125188 -13.4313,-1.244288 z M 293.75,67.550481 c 0,-1.003487 0.39158,-3.464425 0.87018,-5.468752 0.4786,-2.004326 1.34634,-5.894229 1.92833,-8.644229 2.57151,-12.150942 2.94885,-13.905735 3.56154,-16.5625 0.35673,-1.546875 0.77811,-3.304688 0.93639,-3.90625 0.26155,-0.994011 1.3893,-1.09375 12.36708,-1.09375 l 12.07929,0 1.94109,1.813256 c 1.34542,1.256807 1.9411,2.394403 1.9411,3.706993 l 0,1.893736 -9.97938,0.199257 c -11.49115,0.229443 -11.58176,0.269535 -12.53865,5.54718 -0.33925,1.871143 -1.04356,5.370828 -1.56513,7.777078 -0.52158,2.40625 -1.35756,6.484375 -1.85775,9.0625 -1.55968,8.038988 -1.15045,7.5 -5.69448,7.5 l -3.98961,0 0,-1.824519 z m 30.00909,0.444557 c 0.005,-0.787894 0.4399,-2.669669 0.96645,-4.181719 0.85827,-2.464675 0.85885,-3.079123 0.006,-5.937498 -3.02842,-10.144912 -3.57372,-12.357995 -3.25175,-13.197037 0.26397,-0.688025 1.39469,-0.928784 4.36195,-0.928784 4.37509,0 5.01658,0.403846 5.69705,3.586583 0.78035,3.649827 2.06167,3.324622 5.25311,-1.333263 0.96692,-1.411201 3.50915,-5.09707 5.6494,-8.19082 2.14026,-3.09375 4.78242,-6.960938 5.87147,-8.59375 l 1.98008,-2.96875 5.55294,0 5.55295,0 -1.52433,2.03125 c -0.83839,1.117187 -6.39106,8.5 -12.33927,16.40625 -11.04027,14.674511 -11.75072,15.806683 -13.33454,21.25 l -0.90927,3.125 -4.77047,0.182538 c -4.61175,0.176468 -4.77018,0.134875 -4.76139,-1.25 z M 149.55087,37.34375 c 0.18667,-1.117188 0.63839,-2.804688 1.0038,-3.75 0.63879,-1.652528 0.83636,-1.71875 5.12775,-1.71875 4.3263,0 4.45152,0.04319 4.07764,1.40625 -0.21215,0.773437 -0.56215,2.460937 -0.77777,3.75 l -0.39205,2.34375 -4.6894,0 -4.68939,0 0.33942,-2.03125 z"
       id="path3480"
       inkscape:connector-curvature="0" />
  </g>
</svg>
