<?xml version="1.0" encoding="UTF-8" standalone="no"?>
<!-- Created with Inkscape (http://www.inkscape.org/) -->

<svg
   xmlns:dc="http://purl.org/dc/elements/1.1/"
   xmlns:cc="http://creativecommons.org/ns#"
   xmlns:rdf="http://www.w3.org/1999/02/22-rdf-syntax-ns#"
   xmlns:svg="http://www.w3.org/2000/svg"
   xmlns="http://www.w3.org/2000/svg"
   xmlns:xlink="http://www.w3.org/1999/xlink"
   xmlns:sodipodi="http://sodipodi.sourceforge.net/DTD/sodipodi-0.dtd"
   xmlns:inkscape="http://www.inkscape.org/namespaces/inkscape"
   id="svg3686"
   version="1.1"
   inkscape:version="0.91 r13725"
   width="406.875"
   height="108.75"
   viewBox="0 0 406.875 108.75"
   sodipodi:docname="KendoUI.svg">
  <metadata
     id="metadata3692">
    <rdf:RDF>
      <cc:Work
         rdf:about="">
        <dc:format>image/svg+xml</dc:format>
        <dc:type
           rdf:resource="http://purl.org/dc/dcmitype/StillImage" />
        <dc:title></dc:title>
      </cc:Work>
    </rdf:RDF>
  </metadata>
  <defs
     id="defs3690" />
  <sodipodi:namedview
     pagecolor="#ffffff"
     bordercolor="#666666"
     borderopacity="1"
     objecttolerance="10"
     gridtolerance="10"
     guidetolerance="10"
     inkscape:pageopacity="0"
     inkscape:pageshadow="2"
     inkscape:window-width="640"
     inkscape:window-height="480"
     id="namedview3688"
     showgrid="false"
     inkscape:zoom="0.64393241"
     inkscape:cx="203.4375"
     inkscape:cy="54.375"
     inkscape:window-x="0"
     inkscape:window-y="0"
     inkscape:window-maximized="0"
     inkscape:current-layer="svg3686" />
  <image
     width="406.875"
     height="108.75"
     preserveAspectRatio="none"
     style="image-rendering:optimizeQuality"
     xlink:href="file:///media/havoc/USB%20DISK/pics/_Products/KendoUI.png"
     id="image3694"
     x="0"
     y="0"
     sodipodi:absref="/media/havoc/USB DISK/pics/_Products/KendoUI.png" />
  <g
     id="g3978">
    <path
       style="fill:#fdfdfd"
       d="M 0,54.375 0,0 203.4375,0 406.875,0 l 0,54.375 0,54.375 -203.4375,0 L 0,108.75 0,54.375 Z"
       id="path3994"
       inkscape:connector-curvature="0" />
    <path
       style="fill:#d0d0d0"
       d="M 92.96875,97.398575 C 92.023437,97.053319 91.25,96.333675 91.25,95.799369 c 0,-0.809844 -0.571906,-0.904257 -3.437444,-0.567469 -2.214462,0.260269 -5.134612,0.05344 -8.207643,-0.581306 -3.381976,-0.698563 -4.964413,-0.791094 -5.437557,-0.31795 -0.9605,0.9605 -8.075931,0.833718 -9.446281,-0.168307 -0.835869,-0.6112 -1.062838,-1.38075 -0.845006,-2.864968 0.238431,-1.624525 -0.05613,-2.38325 -1.476614,-3.803763 -0.97595,-0.97595 -1.774455,-2.364894 -1.774455,-3.08655 0,-0.721656 1.043363,-3.863162 2.318587,-6.981125 2.115938,-5.17355 2.225188,-5.721287 1.25,-6.267031 -1.610643,-0.901362 -1.299331,-2.316487 1.091844,-4.963238 1.188238,-1.315237 2.7321,-3.5119 3.430806,-4.881478 l 1.270375,-2.49014 -1.666731,-3.318381 C 67.0432,52.965848 66.64255,51.224214 66.607825,48.065398 c -0.02575,-2.344893 -0.387,-4.535445 -0.837356,-5.077924 -1.115575,-1.343759 -0.4866,-2.435622 2.441019,-4.237474 1.396299,-0.859375 3.129256,-2.40625 3.851006,-3.4375 0.721756,-1.03125 1.659618,-2.089651 2.084143,-2.352003 0.603063,-0.372683 0.558088,-1.104416 -0.205656,-3.34587 -1.972269,-5.788288 0.121713,-12.805897 4.988513,-16.718116 1.959125,-1.57486 3.059462,-1.946823 6.385594,-2.158615 3.454093,-0.21994 4.400793,-0.03191 6.739368,1.338593 6.63085,3.885935 9.062694,12.708316 5.453213,19.783474 l -1.265694,2.480964 1.410263,0.922449 c 0.775643,0.507347 2.496702,1.375803 3.824562,1.929903 2.23846,0.934077 2.38771,1.152638 2.04914,3.000837 -0.35777,1.953001 -0.30236,1.923746 2.73505,-1.444116 1.70512,-1.890625 3.10332,-3.708185 3.10712,-4.039022 0.004,-0.330837 0.67239,-1.174587 1.48577,-1.875 2.0729,-1.784991 10.39612,-12.003387 10.39612,-12.763292 0,-0.344744 0.60598,-1.051253 1.34663,-1.570022 2.57888,-1.806314 5.1035,1.390782 2.68393,3.398842 -1.46424,1.215215 -10.90556,13.585815 -10.90556,14.289145 0,0.337408 -0.53246,0.986415 -1.18323,1.442236 -0.65078,0.455822 -2.86953,3.103079 -4.93056,5.882794 -2.9651,3.999025 -3.68136,5.399154 -3.43128,6.707382 0.40097,2.097524 -2.55605,8.316104 -4.20299,8.838819 -1.057721,0.335711 -1.087353,0.493492 -0.27019,1.438838 3.10169,3.588211 6.51825,8.358755 6.51825,9.101424 0,0.478387 -0.40313,1.204368 -0.89584,1.613281 -0.76475,0.634681 -0.58183,1.477112 1.25,5.756912 2.67317,6.245444 2.69109,7.586032 0.13514,10.106988 -1.85759,1.832169 -1.9963,2.251275 -1.82168,5.504144 0.16556,3.08415 0.0101,3.646306 -1.25337,4.53125 -1.64434,1.151744 -8.475263,1.323025 -11.3205,0.283856 z M 133.75,68.125 c -1.17683,-1.176831 -1.25,-2.083331 -1.25,-15.485934 0,-16.103622 0.21739,-17.014066 4.0625,-17.014066 3.09601,0 4.0625,1.743022 4.0625,7.326566 0,2.501639 0.24599,4.548434 0.54664,4.548434 0.30065,0 3.09355,-2.690021 6.20644,-5.977825 5.41686,-5.721228 5.76167,-5.969387 8.03274,-5.78125 1.77006,0.146632 2.562,0.577891 3.11712,1.697444 1.12067,2.260194 0.0669,4.27932 -4.29704,8.233935 l -3.84555,3.484804 3.48007,4.952696 c 6.16352,8.771677 6.75958,9.786233 6.75958,11.505546 0,3.560906 -4.81585,5.114656 -7.29436,2.3534 -0.69425,-0.773438 -2.84634,-3.867188 -4.78243,-6.875 -1.9361,-3.007813 -3.75511,-5.46875 -4.04226,-5.46875 -0.28715,0 -1.27783,0.788827 -2.20152,1.752949 -1.45322,1.516837 -1.67943,2.274493 -1.67943,5.625001 0,4.359925 -1.28283,6.37205 -4.0625,6.37205 -0.85938,0 -2.125,-0.5625 -2.8125,-1.25 z m 33.94759,0.03531 c -9.13326,-4.146632 -8.3383,-20.120372 1.17282,-23.56632 6.11792,-2.216564 13.37014,0.70437 15.46296,6.22792 1.15468,3.047536 0.82837,5.835107 -0.83631,7.144552 -1.44878,1.139606 -1.46004,1.20901 -0.3125,1.925659 1.47475,0.920999 1.55768,3.68042 0.17013,5.66142 -2.51282,3.58755 -10.54968,4.925618 -15.6571,2.606769 z m 10.5738,-6.892017 2.04111,-1.856679 -5.46875,-0.01832 c -3.00781,-0.01008 -5.46875,0.20035 -5.46875,0.467613 0,0.267263 0.43782,1.111013 0.97294,1.875 1.49848,2.139373 5.30443,1.91476 7.92345,-0.467613 z M 176.875,52.84794 C 176.875,51.740838 174.49776,50 172.98593,50 c -1.19147,0 -3.61093,2.093861 -3.61093,3.125 0,0.347222 1.66667,0.625 3.75,0.625 2.85119,0 3.75,-0.216209 3.75,-0.90206 z m 12.69535,16.036022 C 188.04276,67.912631 187.5,64.682469 187.5,56.5625 c 0,-9.224909 0.45839,-11.228617 2.81436,-12.302068 1.32813,-0.605138 1.86966,-0.523866 3.2938,0.494329 1.64936,1.179226 1.7749,1.182706 3.89184,0.107857 2.73626,-1.389301 5.12195,-1.409979 7.94808,-0.06889 3.94021,1.869753 4.54693,3.697156 4.54958,13.703154 0.002,7.742456 -0.13608,8.934655 -1.14062,9.843749 -1.63133,1.476332 -4.2211,1.305719 -5.3841,-0.3547 -0.7264,-1.037069 -0.97294,-3.006469 -0.97294,-7.77181 0,-7.611335 -0.57689,-9.589121 -2.79703,-9.589121 -0.86788,0 -2.14047,0.5625 -2.82797,1.25 -1.08442,1.084422 -1.25,2.083333 -1.25,7.541088 0,7.657899 -0.93263,9.939768 -4.0625,9.939768 -0.6875,0 -1.58397,-0.21235 -1.99215,-0.471894 z m 28.7975,-0.699443 c -4.12549,-2.515657 -6.34033,-8.0557 -5.59749,-14.00119 0.50171,-4.015562 2.14078,-6.891298 4.88018,-8.562223 2.94841,-1.79842 5.71149,-2.147006 8.84398,-1.115747 l 2.72699,0.89776 0.32237,-3.555197 c 0.44793,-4.939754 1.25079,-6.222922 3.89362,-6.222922 1.47957,0 2.34392,0.374454 2.79051,1.208912 0.39313,0.734581 0.64699,6.949832 0.64699,15.840632 0,13.381231 -0.0977,14.720125 -1.14296,15.666087 -1.4588,1.320194 -3.48021,1.321913 -4.79805,0.0044 -0.95706,-0.957062 -1.18387,-0.957062 -3.19085,0 -2.88358,1.375082 -6.97211,1.305225 -9.37529,-0.160187 z m 9.50403,-7.000137 c 0.85498,-0.94474 1.19062,-2.247662 1.19062,-4.621882 0,-2.37422 -0.33564,-3.677142 -1.19062,-4.621882 -1.17684,-1.300392 -3.78901,-1.727401 -5.12207,-0.837297 -2.38542,1.592788 -2.94447,8.077022 -0.87481,10.146679 1.63461,1.634606 4.48644,1.6034 5.99688,-0.06562 z m 18.679,7.352905 c -8.38579,-3.801781 -9.45467,-17.071096 -1.80772,-22.441397 4.5827,-3.218338 11.33403,-2.855705 15.53698,0.834534 5.83244,5.120956 5.23853,16.26557 -1.09,20.453595 -2.97965,1.971843 -9.51779,2.568412 -12.63926,1.153269 z m 7.66713,-6.37267 c 3.29055,-2.304791 2.9235,-9.930853 -0.53649,-11.146261 -3.85449,-1.353988 -6.18152,0.990151 -6.18152,6.226961 0,4.638257 3.48054,7.186908 6.71801,4.9193 z m 24.84449,6.065639 c -5.40632,-2.549012 -6.64503,-5.648025 -7.03697,-17.605256 -0.42954,-13.103439 0.69275,-16.021915 5.67982,-14.770241 2.43021,0.609944 2.91965,2.835868 2.91965,13.278237 0,5.33455 0.27909,10.220667 0.6202,10.858039 0.9596,1.793026 4.56279,2.751784 7.14231,1.900465 3.00687,-0.992359 3.48749,-2.926304 3.48749,-14.033198 0,-10.830766 0.45872,-12.233302 4.00108,-12.233302 3.83807,0 4.12392,0.931986 4.12392,13.445635 0,12.9663 -0.66716,15.322915 -5.18479,18.314352 -2.17515,1.440319 -3.29119,1.702007 -7.89303,1.85075 -4.21353,0.136194 -5.8943,-0.07882 -7.85968,-1.005481 z m 24.94062,-0.16945 c -1.07425,-1.185737 -1.21077,-2.57555 -1.39677,-14.21875 -0.23021,-14.410667 0.21404,-17.334924 2.72942,-17.966244 0.84657,-0.212477 2.23189,-0.212477 3.07846,0 2.50373,0.628396 2.94774,3.557129 2.72381,17.966381 -0.18101,11.648101 -0.31648,13.032651 -1.39116,14.218751 -1.52542,1.683568 -4.21844,1.683506 -5.74376,-1.38e-4 z"
       id="path3992"
       inkscape:connector-curvature="0" />
    <path
       style="fill:#9e9d9c"
       d="m 93.28125,96.855525 c -2.695763,-1.083563 -2.151188,-1.518969 6.3202,-5.053194 2.35892,-0.984131 4.53861,-1.635031 4.84375,-1.446443 0.30514,0.188587 0.5548,1.582012 0.5548,3.096506 0,2.082768 -0.29452,2.91125 -1.20891,3.400619 -1.46653,0.784862 -8.559234,0.786556 -10.50984,0.0025 z M 80.742562,94.301506 C 76.334075,93.568037 63.724406,88.413312 62.34375,86.780237 61.742187,86.068694 61.25,84.946706 61.25,84.286925 c 0,-1.126263 2.134363,-6.720794 4.116556,-10.790225 0.809263,-1.661406 0.778144,-1.890269 -0.366044,-2.691687 -1.664012,-1.165519 -1.576375,-2.155988 0.350994,-3.966657 0.880825,-0.827493 2.189588,-2.493706 2.908363,-3.702693 0.718775,-1.20899 1.703,-2.523145 2.187175,-2.920347 0.742075,-0.608776 0.588937,-1.246727 -0.975175,-4.0625 -2.191975,-3.946072 -2.925625,-7.70674 -1.985744,-10.178827 0.583775,-1.535444 0.486831,-1.96023 -0.699638,-3.065594 l -1.377318,-1.283168 1.826662,-1.281363 c 1.004669,-0.70475 3.057269,-2.518441 4.561331,-4.030423 l 2.734663,-2.749059 2.093937,2.436559 c 1.151663,1.340107 2.7082,3.305671 3.458976,4.367919 0.750775,1.062249 2.288512,2.564134 3.417206,3.337525 2.005287,1.374044 2.09535,1.380651 3.943006,0.289213 1.039969,-0.614322 2.0524,-1.53794 2.249844,-2.052482 0.283087,-0.737705 0.111619,-0.711658 -0.810863,0.123176 -2.567619,2.323666 -4.435737,1.17874 -11.108425,-6.808105 -3.825856,-4.579347 -4.935094,-10.022988 -3.101381,-15.22027 2.450731,-6.946113 8.969438,-10.4468064 15.128937,-8.124583 2.501919,0.94326 5.778494,4.226557 7.134532,7.149166 1.597543,3.44312 1.568206,9.301274 -0.06259,12.5 -0.6875,1.348491 -1.25,2.634399 -1.25,2.857573 0,0.223174 1.6875,1.305198 3.75,2.404499 2.0625,1.099302 3.75,2.391229 3.75,2.87095 0,0.47972 -1.30607,1.869478 -2.90238,3.088349 -1.596301,1.218871 -2.650989,2.207184 -2.343745,2.196252 0.307244,-0.01093 1.104569,-0.432807 1.771831,-0.9375 C 100.31797,43.53793 101.42039,43.125 102.10052,43.125 103.41173,43.125 110,36.516618 110,35.201402 c 0,-0.420359 0.38659,-0.989202 0.8591,-1.264096 0.47251,-0.274893 3.42991,-3.734181 6.57199,-7.687306 5.23942,-6.591815 7.39388,-8.337603 8.00964,-6.490312 0.12781,0.383453 -0.60781,1.649078 -1.63472,2.812499 -4.35182,4.930292 -10.05601,12.52949 -10.05601,13.396746 0,0.515353 -0.70312,1.204333 -1.5625,1.531067 -0.85937,0.326734 -1.5625,0.914941 -1.5625,1.307127 0,0.392185 -1.3651,2.450121 -3.03356,4.57319 -3.78871,4.821044 -4.67345,6.417972 -3.84083,6.932556 1.35374,0.83666 -1.72406,7.812127 -3.44697,7.812127 -0.464421,0 -1.031921,-0.590811 -1.261109,-1.312914 -0.2931,-0.92348 -0.612893,-1.116723 -1.078131,-0.651489 -0.465231,0.465235 -0.424938,0.946375 0.135856,1.622085 0.4385,0.528363 0.649788,1.524658 0.469519,2.213989 -0.239613,0.916295 -0.02106,1.253329 0.812762,1.253329 0.627283,0 1.708403,0.91886 2.402483,2.041913 0.69409,1.12305 1.98265,2.71895 2.86347,3.546443 1.82087,1.710619 2.03237,3.021294 0.65056,4.031688 -0.83145,0.607975 -0.67438,1.381212 1.25,6.153606 2.50349,6.208544 2.63649,7.309487 1.1072,9.164756 -1.26011,1.528707 -14.380875,7.157688 -18.986319,8.145375 -3.447256,0.739306 -3.285893,0.739963 -7.927368,-0.03225 z M 91.875,65 c 0,-0.34375 -0.28125,-0.625 -0.625,-0.625 -0.34375,0 -0.625,0.28125 -0.625,0.625 0,0.34375 0.28125,0.625 0.625,0.625 0.34375,0 0.625,-0.28125 0.625,-0.625 z M 82.5,63.75 c -1.211725,-0.783075 -1.875,-0.783075 -1.875,0 0,0.34375 0.632812,0.620694 1.40625,0.615431 C 83.1684,64.357681 83.2581,64.239919 82.5,63.75 Z m 9.016119,-7.707989 C 91.2962,55.468905 90.583856,55 89.933131,55 c -1.458275,0 -1.492025,0.497751 -0.1354,1.996805 1.175138,1.298511 2.335631,0.653704 1.718388,-0.954794 z m 4.327937,-3.687785 c 1.20875,-1.455176 2.070663,-2.772839 1.915363,-2.92814 C 97.409681,49.076347 92.5,53.814577 92.5,54.501843 c 0,1.155102 1.287431,0.328288 3.344056,-2.147617 z M 83.75,53.75 c 0,-0.34375 -0.421875,-0.625 -0.9375,-0.625 -0.515625,0 -0.9375,0.28125 -0.9375,0.625 0,0.34375 0.421875,0.625 0.9375,0.625 0.515625,0 0.9375,-0.28125 0.9375,-0.625 z M 65.125,93.625 c -0.867544,-0.867544 -0.995375,-2.774581 -0.218181,-3.254913 0.835431,-0.516324 7.590562,2.352013 7.591943,3.223663 0.0019,1.031837 -6.346268,1.058744 -7.373762,0.03125 z m 69.03437,-26.017962 c -0.89721,-0.991413 -1.03437,-2.985813 -1.03437,-15.041089 0,-8.385114 0.25664,-14.377668 0.64699,-15.107037 0.79656,-1.488386 3.85216,-1.620474 5.24587,-0.226769 0.73749,0.73749 0.98214,2.294372 0.98214,6.25 0,2.897321 0.24254,5.267857 0.53899,5.267857 0.29644,0 3.30221,-2.8125 6.67948,-6.25 6.24747,-6.358872 8.22616,-7.430374 10.15653,-5.5 1.70636,1.706356 0.80666,3.849039 -3.39339,8.081518 l -4.1434,4.175389 5.0809,7.379697 C 157.7136,60.695437 160,64.639419 160,65.401006 c 0,2.813307 -3.46497,4.356238 -5.76639,2.567744 -0.55292,-0.429688 -2.86539,-3.669294 -5.13882,-7.199129 -3.63734,-5.647503 -4.27542,-6.341935 -5.31568,-5.7852 C 141.13701,56.398433 140,58.749848 140,62.799919 c 0,2.966443 -0.26942,4.125169 -1.14296,4.915712 -1.49947,1.357 -3.41133,1.3128 -4.69767,-0.108593 z m 34.27813,0.257112 c -5.77064,-2.575775 -8.31125,-10.558628 -5.38704,-16.92665 1.3655,-2.973635 2.7593,-4.306199 5.85859,-5.601164 6.91486,-2.889211 15.41893,1.932377 15.45567,8.762958 0.0204,3.783173 -0.99482,4.314784 -8.68821,4.549754 -7.5295,0.229963 -7.95972,0.493861 -5.63115,3.454165 1.85567,2.359099 5.1322,2.254368 8.57016,-0.273934 3.13858,-2.308137 5.13448,-2.076493 5.13448,0.595906 0,1.948034 -2.45819,4.625284 -5.19694,5.660053 -2.41286,0.911643 -7.84377,0.792943 -10.11556,-0.221088 z M 177.5,53.396412 c 0,-4.188864 -6.09831,-5.308321 -8.13958,-1.494171 -1.0519,1.965486 -0.20794,2.472759 4.11397,2.472759 3.23677,0 4.02561,-0.191758 4.02561,-0.978588 z M 189.29527,67.7187 c -0.93685,-1.126375 -1.5997,-16.171221 -0.88121,-20.001087 0.55486,-2.95762 2.47223,-3.846585 4.71699,-2.186964 1.72418,1.274742 1.74069,1.274991 4.11969,0.06211 1.31371,-0.66977 3.04125,-1.217762 3.83898,-1.217762 2.29586,0 5.45552,1.571114 6.93034,3.446049 1.24118,1.577904 1.35494,2.446334 1.35494,10.343595 0,9.084269 -0.43574,10.585356 -3.07278,10.585356 -2.51511,0 -3.17722,-1.9024 -3.17722,-9.128896 0,-5.181882 -0.23618,-7.180158 -0.97294,-8.232038 -1.2869,-1.837301 -3.69788,-1.775063 -5.61797,0.145025 C 195.10345,52.964732 195,53.503253 195,59.520024 c 0,4.827882 -0.24489,6.801476 -0.97294,7.840907 -1.14641,1.636732 -3.51882,1.816106 -4.73178,0.357769 z m 28.95849,-0.308013 C 215.06834,65.371 213.47545,61.758622 213.47022,56.5625 c -0.005,-5.261604 1.35293,-8.464981 4.38319,-10.337784 3.18175,-1.966427 5.90282,-2.181918 9.19011,-0.727795 l 2.84228,1.257276 0.36107,-1.345849 c 0.19858,-0.740216 0.3649,-2.76616 0.3696,-4.502098 0.005,-1.735937 0.34603,-3.49375 0.75853,-3.90625 0.96406,-0.964063 3.16094,-0.964063 4.125,0 1.06526,1.065262 1.06526,29.934738 0,31 -1.16239,1.162394 -3.45847,0.886562 -4.45424,-0.5351 l -0.90012,-1.2851 -2.10407,1.282763 c -2.79982,1.706937 -7.07645,1.684268 -9.78781,-0.05188 z m 9.85534,-5.51979 C 231.80671,58.193295 229.56977,50 224.86264,50 c -1.0719,0 -2.41218,0.617722 -3.32855,1.534091 -2.06138,2.061383 -2.19104,7.462161 -0.23873,9.944122 1.61633,2.054831 4.96857,2.257862 6.81374,0.412684 z m 17.98312,5.565766 c -1.28991,-0.680957 -3.11803,-2.4058 -4.0625,-3.832988 -1.44429,-2.182462 -1.71387,-3.247827 -1.69616,-6.703032 0.0324,-6.332572 2.85665,-10.451494 8.19008,-11.94476 5.62273,-1.574268 11.52067,0.888838 13.90064,5.805205 3.13911,6.484535 0.30831,15.008281 -5.74622,17.302281 -2.80381,1.062337 -7.96516,0.756769 -10.58584,-0.626706 z m 7.8722,-4.400701 c 2.07505,-0.94545 3.11891,-3.125848 3.11891,-6.514689 0,-3.774548 -1.74654,-6.162041 -4.69378,-6.416319 -3.51429,-0.303203 -5.05269,1.412851 -5.38499,6.006869 -0.2596,3.589007 -0.1623,3.931589 1.62406,5.717959 2.0605,2.060493 2.99644,2.272068 5.3358,1.206181 z m 26.53018,5.076282 c -3.06799,-0.924825 -5.36866,-3.073938 -6.53968,-6.108893 -0.94171,-2.440661 -1.14242,-4.782924 -1.14242,-13.331844 0,-11.365936 0.30072,-12.441507 3.47859,-12.441507 3.2499,0 3.70891,1.59245 3.70891,12.86728 0,9.113 0.11988,10.241548 1.23903,11.664319 2.44968,3.114263 8.5588,2.630895 10.34246,-0.818322 0.69499,-1.343961 0.91851,-4.193695 0.91851,-11.710373 0,-8.830317 0.127,-10.049105 1.14296,-10.968537 1.5673,-1.418379 4.28242,-1.325182 5.08505,0.174545 0.82801,1.547164 0.84797,20.85504 0.0246,23.818811 -0.76593,2.757058 -4.08112,6.045252 -6.91403,6.857714 -2.52618,0.724507 -8.93595,0.7227 -11.344,-0.0031 z m 24.15611,-0.268425 c -1.12716,-0.823325 -1.2253,-1.854 -1.38364,-14.531251 -0.19526,-15.634267 0.0491,-16.770068 3.60793,-16.770068 3.54758,0 3.79186,1.137093 3.60265,16.770121 -0.15348,12.680723 -0.25089,13.707748 -1.37836,14.531248 -1.53875,1.123912 -2.90987,1.123894 -4.44858,-5e-5 z"
       id="path3990"
       inkscape:connector-curvature="0" />
    <path
       style="fill:#e4925d"
       d="M 93.90625,96.461075 C 93.476562,96.287694 93.125,95.921394 93.125,95.647087 c 0,-0.436424 9.94333,-5.022087 10.88964,-5.022087 0.1982,0 0.36036,1.235537 0.36036,2.745631 0,1.9271 -0.29472,2.858732 -0.98862,3.125 -1.1657,0.447325 -8.350818,0.421132 -9.48013,-0.03456 z M 80.625,93.778056 c -4.315462,-0.792987 -17.449062,-6.265062 -18.141303,-7.558518 -0.972519,-1.817169 -0.739154,-3.127357 1.499984,-8.421419 2.249088,-5.317575 2.150488,-5.252294 6.641319,-4.397069 1.203125,0.229125 0.381669,-0.231444 -1.825456,-1.023481 -5.439738,-1.952075 -5.891682,-2.856419 -3.017432,-6.037875 1.249694,-1.383263 2.717182,-3.375575 3.261082,-4.427358 C 69.587094,60.860551 70.429369,60 70.914925,60 c 1.458406,0 6.525156,3.352125 6.9441,4.594163 0.283888,0.841637 0.577506,0.969306 1.078063,0.46875 0.37835,-0.378351 1.506568,-0.687913 2.507149,-0.687913 l 1.819244,0 -1.475494,-1.202625 c -0.811518,-0.661444 -1.569237,-0.942691 -1.683818,-0.625 -0.700669,1.942669 -6.992382,-1.615504 -9.645844,-5.45505 -1.869163,-2.704665 -3.436144,-8.695665 -2.745288,-10.496008 0.313625,-0.817289 0.798882,-0.997823 1.825807,-0.679267 3.899031,1.20949 4.140443,0.900271 0.676981,-0.867125 -2.115675,-1.079622 -3.999256,-2.360559 -4.185738,-2.846526 -0.214425,-0.558771 0.787082,-1.69263 2.724413,-3.084467 1.684919,-1.210489 3.530531,-2.913699 4.101369,-3.784911 C 73.426713,34.462809 74.093556,33.75 74.33775,33.75 c 0.575563,0 6.910912,7.801706 6.916519,8.517384 0.0025,0.299814 0.962581,1.197637 2.133844,1.995163 1.956306,1.332067 2.273781,1.377171 3.901981,0.554359 1.590037,-0.803526 1.965337,-0.776216 3.647406,0.265413 2.319194,1.436169 6.094056,1.503433 8.166494,0.14552 2.170926,-1.422447 2.657096,-0.582305 0.667994,1.15435 -0.901025,0.786672 -3.257388,2.904597 -5.236357,4.706502 -2.446162,2.227291 -4.132562,3.27781 -5.267394,3.28125 -0.918093,0.0028 -4.011843,-0.972362 -6.875,-2.166986 l -5.205737,-2.172046 2.122856,1.932587 c 2.088838,1.901614 2.106369,1.960508 1.09375,3.674728 -0.566006,0.958178 -0.993906,2.683122 -0.950875,3.833208 0.07659,2.047259 0.08687,2.038691 0.490657,-0.408932 0.520331,-3.154025 1.047412,-3.995081 2.959218,-4.721949 2.051138,-0.77984 5.098075,0.526586 7.282325,3.122418 0.929263,1.104366 1.697138,1.634796 1.706382,1.178734 0.0092,-0.456062 0.8624,-1.813578 1.8959,-3.016703 1.033493,-1.203125 3.193918,-3.875 4.800937,-5.9375 4.03108,-5.173623 10.31191,-12.1875 10.91374,-12.1875 1.39655,0 -0.0349,2.606081 -5.24115,9.542083 -3.15633,4.204979 -6.84819,8.992613 -8.204152,10.639187 -1.355957,1.646573 -2.268044,3.191106 -2.026857,3.432293 0.241188,0.241188 0.679419,0.01899 0.973856,-0.493769 1.367513,-2.381565 2.350682,-3.283323 3.084957,-2.829518 0.428269,0.264685 0.650562,1.151403 0.493981,1.970485 -0.213675,1.117783 -0.0072,1.489239 0.827669,1.489239 0.611796,0 1.680246,0.91886 2.374326,2.041913 0.69409,1.12305 1.98265,2.71895 2.86347,3.546443 2.25503,2.118488 2.03782,3.471982 -0.74224,4.625094 -1.66661,0.691275 -1.9625,0.981444 -1.02416,1.004344 1.04,0.02537 1.73524,1.022387 3.28125,4.705443 2.24642,5.351626 2.43155,7.356876 0.82731,8.961113 -0.62389,0.623888 -4.66437,2.585756 -8.97885,4.359706 -8.287169,3.407369 -12.443338,4.192381 -17.3868,3.284 z M 92.8125,79.285038 C 95.141713,78.4954 95.319163,78.266713 95.410019,75.9375 l 0.09751,-2.5 -0.410012,2.186225 c -0.349088,1.861338 -0.781538,2.309756 -2.910019,3.017519 -5.171562,1.719637 -8.752531,1.678019 -13.057831,-0.151756 -2.288606,-0.972675 -4.268725,-2.268188 -4.6731,-3.057426 -0.6428,-1.254593 -0.688794,-1.264631 -0.547888,-0.119562 0.103838,0.843844 1.473825,1.9182 4.216319,3.306475 3.6429,1.844069 4.4821,2.028438 8.125,1.785038 2.234375,-0.149294 5.1875,-0.652832 6.5625,-1.118975 z m 6.393231,-5.912644 c -0.207687,-0.207681 -0.74675,-0.229881 -1.197919,-0.04931 -0.498581,0.199513 -0.350487,0.347613 0.377607,0.3776 0.65885,0.02712 1.027994,-0.120575 0.820312,-0.328262 z M 94.013312,67.016456 C 93.365606,65.812881 92.248331,64.812344 91.299863,64.586525 90.413062,64.375388 89.360975,63.946513 88.961894,63.633469 88.515462,63.283288 88.08045,63.31645 87.831256,63.71965 87.608494,64.080094 86.880325,64.375 86.213112,64.375 85.513062,64.375 85,64.8019 85,65.384381 c 0,0.922325 0.136281,0.920088 1.580156,-0.026 2.599332,-1.70315 3.767882,-0.06056 1.710863,2.404881 -0.596188,0.714569 -0.229238,0.525775 0.81545,-0.419537 1.044687,-0.945313 2.205062,-1.71875 2.578619,-1.71875 0.702818,0 2.618675,4.202894 2.783556,6.1064 0.0515,0.594606 0.217869,0.23735 0.3697,-0.7939 0.160456,-1.089819 -0.185032,-2.731806 -0.825032,-3.921044 z m -7.455237,3.6157 c 0.225962,-0.365612 -0.051,-0.451731 -0.678494,-0.21095 -0.666981,0.255944 -1.3746,-0.02287 -1.907462,-0.751612 C 83.303044,68.754581 83.125,68.711344 83.125,69.463875 c 0,0.524037 0.1875,1.140294 0.416669,1.369456 0.629575,0.629582 2.583512,0.499263 3.016406,-0.201175 z M 77.1875,46.875 c 0.456875,-0.739239 -0.1547,-0.739239 -1.875,0 -1.20515,0.517869 -1.200863,0.538719 0.119362,0.581072 0.75315,0.02416 1.543188,-0.237322 1.755638,-0.581072 z m -11.95,45.967431 c -0.666281,-1.7363 0.342975,-2.171769 2.7449,-1.184362 3.672487,1.509725 3.828475,2.091931 0.560488,2.091931 -2.00865,0 -3.068825,-0.291094 -3.305388,-0.907569 z M 134.5,67.375 c -0.53934,-0.539338 -0.75,-4.740081 -0.75,-14.955357 0,-12.080628 0.1469,-14.352259 0.98214,-15.1875 1.22012,-1.220113 1.52375,-1.220972 3.25379,-0.0092 1.25818,0.881263 1.38907,1.49615 1.38907,6.525615 0,3.05397 0.25938,5.712982 0.57641,5.908914 0.31702,0.195932 3.34046,-2.485776 6.71875,-5.959352 3.37828,-3.473575 6.65339,-6.590399 7.278,-6.926274 1.37716,-0.740548 4.17684,0.849152 4.17684,2.371678 0,0.544337 -1.99638,3.04858 -4.4364,5.564984 l -4.43641,4.575281 5.08976,7.383935 c 4.03804,5.858173 5.05161,7.772492 4.90515,9.26436 -0.14982,1.52615 -0.50541,1.917388 -1.88741,2.076644 -0.93655,0.107925 -2.10542,-0.03269 -2.59749,-0.3125 -0.49207,-0.2798 -2.8912,-3.54135 -5.33139,-7.247886 -4.90475,-7.450094 -5.07511,-7.521656 -8.4259,-3.539475 -1.37444,1.633429 -1.62991,2.546684 -1.62991,5.826589 0,4.126756 -0.65898,5.389544 -2.8125,5.389544 -0.72188,0 -1.65,-0.3375 -2.0625,-0.75 z m 32.99364,-0.65625 c -3.54198,-2.410656 -4.6167,-4.426454 -4.88423,-9.161134 -0.28897,-5.114059 0.85497,-8.04944 4.10215,-10.526184 4.73255,-3.609687 13.29409,-2.016321 15.89845,2.958817 1.3091,2.500797 1.50873,6.572326 0.35874,7.316615 -0.42969,0.2781 -3.87207,0.646261 -7.64973,0.818136 -7.79118,0.35448 -8.47691,0.879468 -5.60574,4.291658 2.23786,2.659542 5.34022,2.695173 8.76913,0.10073 2.7985,-2.117447 3.54913,-2.27243 4.64,-0.958017 1.00806,1.214642 -0.48115,3.616673 -3.31262,5.343129 -2.95878,1.804088 -9.53967,1.705906 -12.31615,-0.18375 z m 10.34082,-12.379272 c 0.84479,-1.366907 -0.39394,-3.763064 -2.45297,-4.744949 -1.80253,-0.859567 -2.32755,-0.878345 -3.86714,-0.138313 -0.97979,0.470956 -2.21353,1.636782 -2.74164,2.590723 -0.85204,1.539039 -0.85459,1.802005 -0.0227,2.33418 1.27385,0.814917 8.57575,0.781447 9.08445,-0.04164 z m 11.56253,12.576609 C 189.03352,66.236937 188.75,61.60049 188.75,56.335731 c 0,-7.686162 0.17662,-9.548066 0.98214,-10.353588 1.34375,-1.343747 2.52216,-1.231732 3.62634,0.344707 l 0.92936,1.326849 2.89901,-1.403385 c 5.53124,-2.677628 10.53039,-0.487568 11.60684,5.084805 0.62355,3.227858 0.63975,12.689056 0.0256,14.914881 -0.48906,1.772287 -3.16919,2.476075 -4.28552,1.12535 -0.36949,-0.447069 -0.76729,-4.142969 -0.88401,-8.213119 -0.1977,-6.894682 -0.31301,-7.481809 -1.68769,-8.59375 -1.96166,-1.586723 -3.4056,-1.504617 -5.5197,0.313863 -1.68493,1.449318 -1.76447,1.78014 -2.0661,8.59375 -0.17255,3.897525 -0.54125,7.437968 -0.81935,7.867656 -0.77981,1.204869 -3.4321,0.932194 -4.15988,-0.427662 z m 28.94442,-0.0749 C 215.34131,64.9192 214.0625,61.753901 214.0625,56.25 c 0,-3.784071 0.27293,-5.12639 1.4161,-6.964711 2.56319,-4.121817 7.74773,-5.413328 12.18464,-3.035289 1.28273,0.6875 2.47387,1.25 2.647,1.25 0.17312,0 0.31476,-1.96875 0.31476,-4.375 0,-3.524939 0.24012,-4.615121 1.23582,-5.610824 1.48203,-1.482024 3.00952,-1.061588 3.81206,1.049252 0.77016,2.025671 0.74246,25.920322 -0.0324,27.958384 -0.76535,2.013013 -3.23848,2.167257 -4.49149,0.280125 l -0.87848,-1.323068 -2.1665,1.320731 c -2.82191,1.720275 -7.11371,1.738556 -9.76259,0.04156 z m 9.5967,-4.030625 c 0.73767,-0.516691 1.67186,-1.941273 2.07597,-3.165738 1.96734,-5.9611 -2.87025,-12.130125 -7.5487,-9.626296 -3.53586,1.892331 -4.12711,9.554141 -0.94829,12.288446 1.92913,1.659376 4.48474,1.859807 6.42102,0.503588 z M 247.5,67.706388 c -5.50829,-2.259813 -8.09381,-8.605736 -6.23413,-15.301102 0.80867,-2.911446 4.81257,-6.57421 7.79892,-7.134453 8.63171,-1.619317 14.58917,3.868414 13.94015,12.841009 -0.46509,6.429764 -3.78258,9.571908 -10.36867,9.820608 -2.30933,0.0872 -4.62065,-0.0145 -5.13627,-0.226062 z m 9.08149,-6.493111 c 0.50518,-0.976911 0.91851,-3.218053 0.91851,-4.980316 0,-2.708057 -0.28284,-3.486957 -1.82693,-5.031038 -4.37871,-4.378712 -9.9377,-0.527587 -9.26993,6.421974 0.31855,3.315166 2.15635,5.902859 4.45578,6.273909 2.24179,0.36175 4.75757,-0.818431 5.72257,-2.684529 z m 22.20472,5.541917 c -4.64579,-2.414181 -5.30854,-4.457973 -5.56567,-17.163231 -0.20652,-10.204467 -0.15387,-10.783634 1.09375,-12.03125 1.5495,-1.549507 1.93159,-1.59548 3.535,-0.425335 1.09928,0.802238 1.24255,1.922538 1.52571,11.930531 l 0.3125,11.045155 1.7536,1.506968 c 1.31757,1.132262 2.48739,1.506968 4.70469,1.506968 5.9807,0 6.9706,-2.237403 6.97572,-15.766842 0.003,-8.979882 0.0394,-9.227901 1.47793,-10.170429 1.78795,-1.171515 3.41373,-0.663422 3.88497,1.214147 0.19173,0.76395 0.25962,6.338318 0.15085,12.387485 -0.17903,9.957168 -0.31977,11.161683 -1.48638,12.722195 -2.65006,3.544825 -4.32696,4.286325 -10.16241,4.493638 -4.67728,0.166169 -5.80617,-0.0056 -8.20026,-1.25 z m 25.61078,0.160894 C 304.00837,66.189956 303.75,60.324505 303.75,52.228588 303.75,39.583333 303.82728,38.672717 305,37.5 c 0.6875,-0.6875 1.53125,-1.25 1.875,-1.25 0.34375,0 1.1875,0.5625 1.875,1.25 1.17272,1.172717 1.25,2.083333 1.25,14.728588 0,8.095917 -0.25838,13.961368 -0.64699,14.6875 -0.41364,0.772887 -1.30739,1.208912 -2.47801,1.208912 -1.17062,0 -2.06437,-0.436025 -2.47801,-1.208912 z M 99.802487,56.636774 c -0.182187,-0.474775 0.413133,-1.951337 1.322943,-3.28125 1.39156,-2.034121 1.69291,-2.22346 1.89808,-1.192558 0.25041,1.258293 -1.60672,5.337034 -2.43006,5.337034 -0.25284,0 -0.608775,-0.388452 -0.790962,-0.863226 z M 91.34375,55.65625 c 0.268569,-0.805709 1.125819,-0.950439 1.203125,-0.203125 0.02581,0.249219 -0.290625,0.565625 -0.703125,0.703125 -0.4125,0.1375 -0.6375,-0.0875 -0.5,-0.5 z M 91.912219,44.530279 C 90.729563,43.929251 89.665381,43.127758 89.547362,42.749185 89.336663,42.073286 94.90585,35 95.648725,35 c 1.133781,0 7.476275,3.97191 7.476275,4.681925 0,1.486029 -6.482194,5.946987 -8.634438,5.942104 -0.235431,-5.35e-4 -1.395687,-0.492722 -2.578343,-1.09375 z M 82.299187,39.53125 c -4.456625,-4.748576 -6.004512,-6.771674 -6.995237,-9.142808 -1.205306,-2.884703 -1.185931,-7.938403 0.04169,-10.877266 1.716707,-4.109675 5.982538,-7.659115 9.154557,-7.61717 1.387537,0.01835 1.394019,0.04283 0.187287,0.7073 -4.748931,2.61493 -7.710331,8.579102 -6.866025,13.827976 0.493625,3.068774 2.9474,7.627357 4.407138,8.18751 0.676456,0.259582 0.490218,-0.23155 -0.561994,-1.482034 C 80.80105,32.106107 79.75675,29.762547 79.345937,27.92685 77.157431,18.147577 85.818012,9.8762825 92.553975,15.3125 97.2211,19.079072 98.586419,26.155426 95.761088,31.934707 93.968694,35.601134 87.751825,42.5 86.240269,42.5 85.6051,42.5 83.831613,41.164062 82.299187,39.53125 Z M 90,33.786886 c 0,-0.667214 0.282281,-1.387575 0.627294,-1.600804 0.345012,-0.213229 0.45515,-1.073577 0.244744,-1.911885 -0.322944,-1.28671 -0.152882,-1.530369 1.091456,-1.563813 l 1.474006,-0.03962 -1.458594,-0.584606 c -1.90945,-0.76531 -1.427919,-2.080162 0.881794,-2.407788 l 1.8268,-0.259127 -1.875,-0.372011 c -1.071413,-0.212574 -1.875,-0.768544 -1.875,-1.297235 0,-0.522262 0.816619,-1.099845 1.875,-1.326166 l 1.875,-0.40094 -2.099006,-0.07395 c -1.914944,-0.06746 -2.064613,-0.210963 -1.706844,-1.636447 0.245881,-0.979657 0.127394,-1.5625 -0.317638,-1.5625 -0.401975,0 -0.568112,-0.541824 -0.383081,-1.249377 0.377444,-1.44334 -0.43375,-2.152178 -1.84375,-1.61111 -0.761156,0.292081 -0.817069,0.569141 -0.252225,1.24974 0.521556,0.628437 0.532825,0.993692 0.04006,1.298247 -0.494707,0.305748 -0.488175,0.661784 0.02344,1.278264 0.986613,1.188794 0.215788,2.148745 -1.779094,2.215604 -1.610875,0.05399 -1.596125,0.08112 0.349388,0.64287 2.056075,0.59367 2.57185,1.392883 1.3759,2.132019 -0.448,0.276881 -0.423788,0.684039 0.07653,1.286886 0.534063,0.643506 0.546281,1.105481 0.04525,1.709228 -0.500081,0.602557 -0.494106,1.019924 0.022,1.536012 0.528188,0.528187 0.516675,0.939948 -0.04525,1.616986 -0.455712,0.549104 -0.517881,1.05419 -0.157187,1.277111 0.328168,0.202821 0.44965,0.930985 0.269956,1.618143 C 88.078762,34.619307 88.287088,35 88.989606,35 89.573094,35 90,34.487441 90,33.786886 Z m -3.294269,-8.53949 c -0.207687,-0.207682 -0.74675,-0.229887 -1.197919,-0.04934 -0.498581,0.199516 -0.350487,0.347614 0.377607,0.377604 0.65885,0.02714 1.027994,-0.12058 0.820312,-0.328262 z M 110.625,35.670828 c 0,-0.894437 0.40139,-1.295828 1.29582,-1.295828 1.60166,0 1.41996,2.068643 -0.20925,2.382401 -0.74999,0.144436 -1.08657,-0.192137 -1.08657,-1.086573 z m 2.5,-3.034534 c 0,-0.268788 2.10938,-2.937537 4.6875,-5.930551 2.57813,-2.993014 4.6875,-5.691784 4.6875,-5.997266 0,-0.305481 0.39684,-0.884766 0.88186,-1.287298 1.52838,-1.268447 1.9211,0.552051 0.44182,2.048153 -0.73043,0.738742 -3.0458,3.66348 -5.14525,6.499418 -3.30005,4.457692 -5.55343,6.35161 -5.55343,4.667544 z"
       id="path3988"
       inkscape:connector-curvature="0" />
    <path
       style="fill:#f06f1f"
       d="M 93.90625,96.461075 C 93.476562,96.287694 93.125,95.921394 93.125,95.647087 c 0,-0.436424 9.94333,-5.022087 10.88964,-5.022087 0.1982,0 0.36036,1.235537 0.36036,2.745631 0,1.9271 -0.29472,2.858732 -0.98862,3.125 -1.1657,0.447325 -8.350818,0.421132 -9.48013,-0.03456 z M 80.625,93.778056 c -4.315462,-0.792987 -17.449062,-6.265062 -18.141303,-7.558518 -0.972519,-1.817169 -0.739154,-3.127357 1.499984,-8.421419 2.240388,-5.297013 2.262813,-5.312206 6.437375,-4.3623 1.863394,0.424012 2.064819,0.292075 3.32485,-2.1778 0.737713,-1.446031 1.218907,-2.751538 1.069319,-2.901125 -0.149581,-0.149588 -0.6252,0.580794 -1.056925,1.623068 -0.871381,2.103707 -2.160219,2.370544 -5.696287,1.179357 -3.762644,-1.267519 -3.914157,-1.6939 -1.536919,-4.325213 1.184806,-1.311437 2.609869,-3.265612 3.1668,-4.342605 0.943025,-1.823603 1.106519,-1.897159 2.379106,-1.070363 0.751575,0.488294 2.011388,1.282356 2.799575,1.764587 0.92085,0.563388 1.327331,1.288281 1.137219,2.028056 -0.2823,1.098513 -0.240563,1.101238 0.910675,0.05938 C 77.98375,64.3091 78.125,64.298044 78.125,65.17875 c 0,0.548612 -0.231188,1.140363 -0.513756,1.315 -0.925575,0.572037 -3.968538,9.077012 -3.51195,9.815788 0.245031,0.396468 2.302337,1.562774 4.571781,2.591793 3.565213,1.616538 4.637206,1.826725 7.88385,1.545769 2.066669,-0.178844 4.882575,-0.711387 6.257575,-1.183438 l 2.5,-0.858262 -0.1517,-4.67145 -0.1517,-4.67145 1.291588,2.404581 c 1.059587,1.97265 1.5359,2.33315 2.6517,2.006925 5.078542,-1.484812 5.023112,-1.512862 7.184342,3.635838 2.27259,5.413975 2.46206,7.416362 0.85392,9.024506 -0.62389,0.623887 -4.66437,2.585756 -8.97885,4.359706 -8.287169,3.407369 -12.443338,4.192381 -17.3868,3.284 z M 65.2375,92.842431 c -0.666281,-1.7363 0.342975,-2.171769 2.7449,-1.184362 3.672487,1.509725 3.828475,2.091931 0.560488,2.091931 -2.00865,0 -3.068825,-0.291094 -3.305388,-0.907569 z M 81.540587,78.191412 c -5.471881,-1.962493 -6.094431,-2.45345 -5.687993,-4.485637 0.198437,-0.992181 1.001843,-3.145938 1.78535,-4.786119 1.296375,-2.713825 1.641381,-2.999962 3.834275,-3.180069 1.32535,-0.10885 2.3007,0.03175 2.16745,0.3125 -0.133257,0.280725 -0.639913,1.305694 -1.125913,2.2777 -1.068337,2.136707 -0.310394,3.749388 1.916025,4.076725 1.141007,0.16775 2.105569,-0.490468 4.121469,-2.8125 1.736462,-2.000162 2.839381,-2.818881 3.241862,-2.406512 0.335513,0.34375 1.067757,2.407362 1.627207,4.585806 1.22725,4.7788 0.914456,5.3295 -3.607525,6.351356 C 88.025131,78.528625 86.140625,78.96285 85.625,79.0896 85.109375,79.21635 83.271388,78.812169 81.540588,78.191412 Z M 97.6214,71.950031 C 96.674387,71.364744 94.3002,65.626669 94.722394,64.943537 94.91565,64.630844 95.441119,64.375 95.8901,64.375 c 0.448981,0 1.501962,-0.539319 2.339956,-1.198488 l 1.523631,-1.198488 2.779403,3.542238 c 1.52868,1.948232 2.86305,3.722857 2.96528,3.943607 0.28584,0.617225 -7.119264,2.95445 -7.87697,2.486162 z m -13.454731,-1.7417 c -0.9855,-0.985494 -0.264225,-2.760994 1.743818,-4.2926 2.032057,-1.549925 3.464513,-1.637644 3.464513,-0.212144 0,0.3464 -0.736506,1.595425 -1.636681,2.775613 -1.577057,2.067631 -2.692932,2.607856 -3.57165,1.729131 z M 134.5,67.375 c -0.53934,-0.539338 -0.75,-4.740081 -0.75,-14.955357 0,-12.080628 0.1469,-14.352259 0.98214,-15.1875 1.22012,-1.220113 1.52375,-1.220972 3.25379,-0.0092 1.25818,0.881263 1.38907,1.49615 1.38907,6.525615 0,3.05397 0.25938,5.712982 0.57641,5.908914 0.31702,0.195932 3.34046,-2.485776 6.71875,-5.959352 3.37828,-3.473575 6.65339,-6.590399 7.278,-6.926274 1.37716,-0.740548 4.17684,0.849152 4.17684,2.371678 0,0.544337 -1.99638,3.04858 -4.4364,5.564984 l -4.43641,4.575281 5.08976,7.383935 c 4.03804,5.858173 5.05161,7.772492 4.90515,9.26436 -0.14982,1.52615 -0.50541,1.917388 -1.88741,2.076644 -0.93655,0.107925 -2.10542,-0.03269 -2.59749,-0.3125 -0.49207,-0.2798 -2.8912,-3.54135 -5.33139,-7.247886 -4.90475,-7.450094 -5.07511,-7.521656 -8.4259,-3.539475 -1.37444,1.633429 -1.62991,2.546684 -1.62991,5.826589 0,4.126756 -0.65898,5.389544 -2.8125,5.389544 -0.72188,0 -1.65,-0.3375 -2.0625,-0.75 z m 32.99364,-0.65625 c -3.54198,-2.410656 -4.6167,-4.426454 -4.88423,-9.161134 -0.28897,-5.114059 0.85497,-8.04944 4.10215,-10.526184 4.73255,-3.609687 13.29409,-2.016321 15.89845,2.958817 1.3091,2.500797 1.50873,6.572326 0.35874,7.316615 -0.42969,0.2781 -3.87207,0.646261 -7.64973,0.818136 -7.79118,0.35448 -8.47691,0.879468 -5.60574,4.291658 2.23786,2.659542 5.34022,2.695173 8.76913,0.10073 2.7985,-2.117447 3.54913,-2.27243 4.64,-0.958017 1.00806,1.214642 -0.48115,3.616673 -3.31262,5.343129 -2.95878,1.804088 -9.53967,1.705906 -12.31615,-0.18375 z m 10.34082,-12.379272 c 0.84479,-1.366907 -0.39394,-3.763064 -2.45297,-4.744949 -1.80253,-0.859567 -2.32755,-0.878345 -3.86714,-0.138313 -0.97979,0.470956 -2.21353,1.636782 -2.74164,2.590723 -0.85204,1.539039 -0.85459,1.802005 -0.0227,2.33418 1.27385,0.814917 8.57575,0.781447 9.08445,-0.04164 z m 11.56253,12.576609 C 189.03352,66.236937 188.75,61.60049 188.75,56.335731 c 0,-7.686162 0.17662,-9.548066 0.98214,-10.353588 1.34375,-1.343747 2.52216,-1.231732 3.62634,0.344707 l 0.92936,1.326849 2.89901,-1.403385 c 5.53124,-2.677628 10.53039,-0.487568 11.60684,5.084805 0.62355,3.227858 0.63975,12.689056 0.0256,14.914881 -0.48906,1.772287 -3.16919,2.476075 -4.28552,1.12535 -0.36949,-0.447069 -0.76729,-4.142969 -0.88401,-8.213119 -0.1977,-6.894682 -0.31301,-7.481809 -1.68769,-8.59375 -1.96166,-1.586723 -3.4056,-1.504617 -5.5197,0.313863 -1.68493,1.449318 -1.76447,1.78014 -2.0661,8.59375 -0.17255,3.897525 -0.54125,7.437968 -0.81935,7.867656 -0.77981,1.204869 -3.4321,0.932194 -4.15988,-0.427662 z m 28.94442,-0.0749 C 215.34131,64.9192 214.0625,61.753901 214.0625,56.25 c 0,-3.784071 0.27293,-5.12639 1.4161,-6.964711 2.56319,-4.121817 7.74773,-5.413328 12.18464,-3.035289 1.28273,0.6875 2.47387,1.25 2.647,1.25 0.17312,0 0.31476,-1.96875 0.31476,-4.375 0,-3.524939 0.24012,-4.615121 1.23582,-5.610824 1.48203,-1.482024 3.00952,-1.061588 3.81206,1.049252 0.77016,2.025671 0.74246,25.920322 -0.0324,27.958384 -0.76535,2.013013 -3.23848,2.167257 -4.49149,0.280125 l -0.87848,-1.323068 -2.1665,1.320731 c -2.82191,1.720275 -7.11371,1.738556 -9.76259,0.04156 z m 9.5967,-4.030625 c 0.73767,-0.516691 1.67186,-1.941273 2.07597,-3.165738 1.96734,-5.9611 -2.87025,-12.130125 -7.5487,-9.626296 -3.53586,1.892331 -4.12711,9.554141 -0.94829,12.288446 1.92913,1.659376 4.48474,1.859807 6.42102,0.503588 z M 247.5,67.706388 c -5.50829,-2.259813 -8.09381,-8.605736 -6.23413,-15.301102 0.80867,-2.911446 4.81257,-6.57421 7.79892,-7.134453 8.63171,-1.619317 14.58917,3.868414 13.94015,12.841009 -0.46509,6.429764 -3.78258,9.571908 -10.36867,9.820608 -2.30933,0.0872 -4.62065,-0.0145 -5.13627,-0.226062 z m 9.08149,-6.493111 c 0.50518,-0.976911 0.91851,-3.218053 0.91851,-4.980316 0,-2.708057 -0.28284,-3.486957 -1.82693,-5.031038 -4.37871,-4.378712 -9.9377,-0.527587 -9.26993,6.421974 0.31855,3.315166 2.15635,5.902859 4.45578,6.273909 2.24179,0.36175 4.75757,-0.818431 5.72257,-2.684529 z m 22.20472,5.541917 c -4.64579,-2.414181 -5.30854,-4.457973 -5.56567,-17.163231 -0.20652,-10.204467 -0.15387,-10.783634 1.09375,-12.03125 1.5495,-1.549507 1.93159,-1.59548 3.535,-0.425335 1.09928,0.802238 1.24255,1.922538 1.52571,11.930531 l 0.3125,11.045155 1.7536,1.506968 c 1.31757,1.132262 2.48739,1.506968 4.70469,1.506968 5.9807,0 6.9706,-2.237403 6.97572,-15.766842 0.003,-8.979882 0.0394,-9.227901 1.47793,-10.170429 1.78795,-1.171515 3.41373,-0.663422 3.88497,1.214147 0.19173,0.76395 0.25962,6.338318 0.15085,12.387485 -0.17903,9.957168 -0.31977,11.161683 -1.48638,12.722195 -2.65006,3.544825 -4.32696,4.286325 -10.16241,4.493638 -4.67728,0.166169 -5.80617,-0.0056 -8.20026,-1.25 z m 25.61078,0.160894 C 304.00837,66.189956 303.75,60.324505 303.75,52.228588 303.75,39.583333 303.82728,38.672717 305,37.5 c 0.6875,-0.6875 1.53125,-1.25 1.875,-1.25 0.34375,0 1.1875,0.5625 1.875,1.25 1.17272,1.172717 1.25,2.083333 1.25,14.728588 0,8.095917 -0.25838,13.961368 -0.64699,14.6875 -0.41364,0.772887 -1.30739,1.208912 -2.47801,1.208912 -1.17062,0 -2.06437,-0.436025 -2.47801,-1.208912 z M 83.040994,62.805369 c -1.9859,-1.078988 -2.686344,-3.4032 -1.686763,-5.59704 0.95265,-2.090843 3.008356,-2.570048 5.499288,-1.281937 1.918075,0.991875 1.953493,1.081009 1.004818,2.528871 C 87.3175,59.280679 86.875,60.638951 86.875,61.473642 c 0,0.834692 -0.444875,1.688339 -0.988619,1.896989 -1.181387,0.453344 -0.849131,0.51935 -2.845387,-0.565262 z m 6.667575,-0.282088 C 88.64595,61.349099 88.748075,59.375 89.871437,59.375 c 0.972319,0 3.392894,3.01892 2.969657,3.703731 -0.635013,1.027469 -1.903569,0.802531 -3.132525,-0.55545 z M 74.966112,61.359716 c -3.589143,-2.280224 -6.053862,-5.896542 -6.958593,-10.20988 -0.889694,-4.24165 -0.423069,-5.837435 1.531325,-5.236838 6.0718,1.865902 6.592875,1.834501 9.532706,-0.57447 l 2.773769,-2.272894 1.809068,1.337502 c 1.661325,1.228273 1.956032,1.263209 3.608588,0.427792 1.623725,-0.820839 1.9827,-0.79628 3.674525,0.251391 2.319194,1.436169 6.094056,1.503433 8.166494,0.14552 2.170926,-1.422447 2.657096,-0.582305 0.667993,1.15435 -0.901025,0.786672 -3.257387,2.904597 -5.236356,4.706502 -2.446162,2.227291 -4.132562,3.27781 -5.267394,3.28125 -0.918093,0.0028 -4.011843,-0.972362 -6.875,-2.166986 l -5.205737,-2.172046 2.122856,1.932587 2.122863,1.932587 -1.104719,1.870135 c -0.814513,1.378858 -1.0059,2.591058 -0.728563,4.614458 0.3232,2.358005 0.219094,2.744324 -0.739531,2.744324 -0.613625,0 -2.366056,-0.794378 -3.894294,-1.765284 z M 96.25,60.698771 c 0,-0.34375 0.28125,-0.798822 0.625,-1.011271 0.34375,-0.212449 0.625,-0.105021 0.625,0.238729 0,0.34375 -0.28125,0.798822 -0.625,1.011271 -0.34375,0.212449 -0.625,0.105021 -0.625,-0.238729 z M 92.291669,60.208333 C 91.438563,59.355229 91.962656,57.749605 93.787712,55.625 94.821206,54.421875 96.981631,51.75 98.58865,49.6875 102.61973,44.513877 108.90056,37.5 109.50239,37.5 c 1.39655,0 -0.0349,2.606081 -5.24115,9.542082 C 97.271625,56.353924 93.78435,60.625 93.170969,60.625 c -0.25445,0 -0.650138,-0.1875 -0.8793,-0.416667 z m 7.510819,-3.571559 c -0.182188,-0.474775 0.413132,-1.951337 1.322942,-3.28125 1.39156,-2.034121 1.69291,-2.22346 1.89808,-1.192558 0.25041,1.258293 -1.60672,5.337034 -2.43006,5.337034 -0.25284,0 -0.608775,-0.388452 -0.790962,-0.863226 z M 70.15625,43.928511 c -1.804688,-0.927872 -3.28125,-1.887182 -3.28125,-2.1318 0,-0.244619 0.979663,-1.050227 2.177031,-1.790241 1.197369,-0.740014 2.867832,-2.228156 3.712138,-3.306982 l 1.535106,-1.961502 2.694112,3.034963 c 3.821719,4.30523 3.971744,4.664699 2.543082,6.093362 -1.990638,1.990634 -5.583131,2.014456 -9.380219,0.0622 z m 21.875,-0.31632 C 91.257812,43.239176 90.625,42.758322 90.625,42.543627 c 0,-0.214695 1.201537,-1.755806 2.670075,-3.42469 l 2.670081,-3.034336 3.290557,1.667451 c 1.896497,0.961026 3.116737,1.948697 2.880267,2.331308 -0.75415,1.220238 -6.114324,4.29218 -7.414592,4.24934 -0.706138,-0.02326 -1.916701,-0.347494 -2.690138,-0.720509 z M 82.299187,39.53125 c -4.456625,-4.748576 -6.004512,-6.771674 -6.995237,-9.142808 -1.205306,-2.884703 -1.185931,-7.938403 0.04169,-10.877266 1.716707,-4.109675 5.982538,-7.659115 9.154557,-7.61717 1.387537,0.01835 1.394019,0.04283 0.187287,0.7073 -4.748931,2.61493 -7.710331,8.579102 -6.866025,13.827976 0.493625,3.068774 2.9474,7.627357 4.407138,8.18751 0.676456,0.259582 0.490218,-0.23155 -0.561994,-1.482034 C 80.80105,32.106107 79.75675,29.762547 79.345937,27.92685 77.157431,18.147577 85.818012,9.8762825 92.553975,15.3125 97.2211,19.079072 98.586419,26.155426 95.761088,31.934707 93.968694,35.601134 87.751825,42.5 86.240269,42.5 85.6051,42.5 83.831613,41.164062 82.299187,39.53125 Z M 90,33.786886 c 0,-0.667214 0.282281,-1.387575 0.627294,-1.600804 0.345012,-0.213229 0.45515,-1.073577 0.244744,-1.911885 -0.322944,-1.28671 -0.152882,-1.530369 1.091456,-1.563813 l 1.474006,-0.03962 -1.458594,-0.584606 c -1.90945,-0.76531 -1.427919,-2.080162 0.881794,-2.407788 l 1.8268,-0.259127 -1.875,-0.372011 c -1.071413,-0.212574 -1.875,-0.768544 -1.875,-1.297235 0,-0.522262 0.816619,-1.099845 1.875,-1.326166 l 1.875,-0.40094 -2.099006,-0.07395 c -1.914944,-0.06746 -2.064613,-0.210963 -1.706844,-1.636447 0.245881,-0.979657 0.127394,-1.5625 -0.317638,-1.5625 -0.401975,0 -0.568112,-0.541824 -0.383081,-1.249377 0.377444,-1.44334 -0.43375,-2.152178 -1.84375,-1.61111 -0.761156,0.292081 -0.817069,0.569141 -0.252225,1.24974 0.521556,0.628437 0.532825,0.993692 0.04006,1.298247 -0.494707,0.305748 -0.488175,0.661784 0.02344,1.278264 0.986613,1.188794 0.215788,2.148745 -1.779094,2.215604 -1.610875,0.05399 -1.596125,0.08112 0.349388,0.64287 2.056075,0.59367 2.57185,1.392883 1.3759,2.132019 -0.448,0.276881 -0.423788,0.684039 0.07653,1.286886 0.534063,0.643506 0.546281,1.105481 0.04525,1.709228 -0.500081,0.602557 -0.494106,1.019924 0.022,1.536012 0.528188,0.528187 0.516675,0.939948 -0.04525,1.616986 -0.455712,0.549104 -0.517881,1.05419 -0.157187,1.277111 0.328168,0.202821 0.44965,0.930985 0.269956,1.618143 C 88.078762,34.619307 88.287088,35 88.989606,35 89.573094,35 90,34.487441 90,33.786886 Z m -3.294269,-8.53949 c -0.207687,-0.207682 -0.74675,-0.229887 -1.197919,-0.04934 -0.498581,0.199516 -0.350487,0.347614 0.377607,0.377604 0.65885,0.02714 1.027994,-0.12058 0.820312,-0.328262 z M 110.625,35.670828 c 0,-0.894437 0.40139,-1.295828 1.29582,-1.295828 1.60166,0 1.41996,2.068643 -0.20925,2.382401 -0.74999,0.144436 -1.08657,-0.192137 -1.08657,-1.086573 z m 2.5,-3.034534 c 0,-0.268788 2.10938,-2.937537 4.6875,-5.930551 2.57813,-2.993014 4.6875,-5.691784 4.6875,-5.997266 0,-0.305481 0.39684,-0.884766 0.88186,-1.287298 1.52838,-1.268447 1.9211,0.552051 0.44182,2.048153 -0.73043,0.738742 -3.0458,3.66348 -5.14525,6.499418 -3.30005,4.457692 -5.55343,6.35161 -5.55343,4.667544 z"
       id="path3986"
       inkscape:connector-curvature="0" />
    <path
       style="fill:#6f6f6e"
       d="M 93.90625,96.461075 C 93.476562,96.287694 93.125,95.921394 93.125,95.647087 c 0,-0.436424 9.94333,-5.022087 10.88964,-5.022087 0.1982,0 0.36036,1.235537 0.36036,2.745631 0,1.9271 -0.29472,2.858732 -0.98862,3.125 -1.1657,0.447325 -8.350818,0.421132 -9.48013,-0.03456 z M 80.625,93.778056 c -4.315462,-0.792987 -17.449062,-6.265062 -18.141303,-7.558518 -0.972519,-1.817169 -0.739154,-3.127357 1.499984,-8.421419 2.244269,-5.306188 2.253975,-5.312694 6.488531,-4.352069 2.016244,0.457394 2.051275,0.425038 3.860588,-3.565312 1.911956,-4.216732 3.7922,-6.537982 3.7922,-4.68165 0,0.537425 -0.231188,1.120025 -0.513756,1.294662 -0.925575,0.572038 -3.968538,9.077013 -3.51195,9.815788 0.245031,0.396468 2.302337,1.562775 4.571781,2.591793 3.565213,1.616538 4.637206,1.826725 7.88385,1.545769 2.066669,-0.178844 4.882575,-0.711387 6.257575,-1.183437 l 2.5,-0.858263 -0.1517,-4.67145 -0.1517,-4.67145 1.291588,2.404581 c 1.059587,1.97265 1.5359,2.33315 2.6517,2.006925 5.078542,-1.484812 5.023112,-1.512862 7.184342,3.635838 2.27259,5.413975 2.46206,7.416362 0.85392,9.024506 -0.62389,0.623888 -4.66437,2.585756 -8.97885,4.359706 -8.287169,3.407369 -12.443338,4.192381 -17.3868,3.284 z M 65.2375,92.842431 c -0.666281,-1.7363 0.342975,-2.171769 2.7449,-1.184362 3.672487,1.509725 3.828475,2.091931 0.560488,2.091931 -2.00865,0 -3.068825,-0.291094 -3.305388,-0.907569 z m 18.929169,-22.6341 c -0.9855,-0.985494 -0.264225,-2.760994 1.743819,-4.2926 2.032056,-1.549925 3.464512,-1.637644 3.464512,-0.212144 0,0.3464 -0.736506,1.595425 -1.636681,2.775613 -1.577056,2.067631 -2.692931,2.607856 -3.57165,1.729131 z M 134.5,67.375 c -0.53934,-0.539338 -0.75,-4.740081 -0.75,-14.955357 0,-12.080628 0.1469,-14.352259 0.98214,-15.1875 1.22012,-1.220113 1.52375,-1.220972 3.25379,-0.0092 1.25818,0.881263 1.38907,1.49615 1.38907,6.525615 0,3.05397 0.25938,5.712982 0.57641,5.908914 0.31702,0.195932 3.34046,-2.485776 6.71875,-5.959352 3.37828,-3.473575 6.65339,-6.590399 7.278,-6.926274 1.37716,-0.740548 4.17684,0.849152 4.17684,2.371678 0,0.544337 -1.99638,3.04858 -4.4364,5.564984 l -4.43641,4.575281 5.08976,7.383935 c 4.03804,5.858173 5.05161,7.772492 4.90515,9.26436 -0.14982,1.52615 -0.50541,1.917388 -1.88741,2.076644 -0.93655,0.107925 -2.10542,-0.03269 -2.59749,-0.3125 -0.49207,-0.2798 -2.8912,-3.54135 -5.33139,-7.247886 -4.90475,-7.450094 -5.07511,-7.521656 -8.4259,-3.539475 -1.37444,1.633429 -1.62991,2.546684 -1.62991,5.826589 0,4.126756 -0.65898,5.389544 -2.8125,5.389544 -0.72188,0 -1.65,-0.3375 -2.0625,-0.75 z m 32.99364,-0.65625 c -3.54198,-2.410656 -4.6167,-4.426454 -4.88423,-9.161134 -0.28897,-5.114059 0.85497,-8.04944 4.10215,-10.526184 4.73255,-3.609687 13.29409,-2.016321 15.89845,2.958817 1.3091,2.500797 1.50873,6.572326 0.35874,7.316615 -0.42969,0.2781 -3.87207,0.646261 -7.64973,0.818136 -7.79118,0.35448 -8.47691,0.879468 -5.60574,4.291658 2.23786,2.659542 5.34022,2.695173 8.76913,0.10073 2.7985,-2.117447 3.54913,-2.27243 4.64,-0.958017 1.00806,1.214642 -0.48115,3.616673 -3.31262,5.343129 -2.95878,1.804088 -9.53967,1.705906 -12.31615,-0.18375 z m 10.34082,-12.379272 c 0.84479,-1.366907 -0.39394,-3.763064 -2.45297,-4.744949 -1.80253,-0.859567 -2.32755,-0.878345 -3.86714,-0.138313 -0.97979,0.470956 -2.21353,1.636782 -2.74164,2.590723 -0.85204,1.539039 -0.85459,1.802005 -0.0227,2.33418 1.27385,0.814917 8.57575,0.781447 9.08445,-0.04164 z m 11.56253,12.576609 C 189.03352,66.236937 188.75,61.60049 188.75,56.335731 c 0,-7.686162 0.17662,-9.548066 0.98214,-10.353588 1.34375,-1.343747 2.52216,-1.231732 3.62634,0.344707 l 0.92936,1.326849 2.89901,-1.403385 c 5.53124,-2.677628 10.53039,-0.487568 11.60684,5.084805 0.62355,3.227858 0.63975,12.689056 0.0256,14.914881 -0.48906,1.772287 -3.16919,2.476075 -4.28552,1.12535 -0.36949,-0.447069 -0.76729,-4.142969 -0.88401,-8.213119 -0.1977,-6.894682 -0.31301,-7.481809 -1.68769,-8.59375 -1.96166,-1.586723 -3.4056,-1.504617 -5.5197,0.313863 -1.68493,1.449318 -1.76447,1.78014 -2.0661,8.59375 -0.17255,3.897525 -0.54125,7.437968 -0.81935,7.867656 -0.77981,1.204869 -3.4321,0.932194 -4.15988,-0.427662 z m 28.94442,-0.0749 C 215.34131,64.9192 214.0625,61.753901 214.0625,56.25 c 0,-3.784071 0.27293,-5.12639 1.4161,-6.964711 2.56319,-4.121817 7.74773,-5.413328 12.18464,-3.035289 1.28273,0.6875 2.47387,1.25 2.647,1.25 0.17312,0 0.31476,-1.96875 0.31476,-4.375 0,-3.524939 0.24012,-4.615121 1.23582,-5.610824 1.48203,-1.482024 3.00952,-1.061588 3.81206,1.049252 0.77016,2.025671 0.74246,25.920322 -0.0324,27.958384 -0.76535,2.013013 -3.23848,2.167257 -4.49149,0.280125 l -0.87848,-1.323068 -2.1665,1.320731 c -2.82191,1.720275 -7.11371,1.738556 -9.76259,0.04156 z m 9.5967,-4.030625 c 0.73767,-0.516691 1.67186,-1.941273 2.07597,-3.165738 1.96734,-5.9611 -2.87025,-12.130125 -7.5487,-9.626296 -3.53586,1.892331 -4.12711,9.554141 -0.94829,12.288446 1.92913,1.659376 4.48474,1.859807 6.42102,0.503588 z M 247.5,67.706388 c -5.50829,-2.259813 -8.09381,-8.605736 -6.23413,-15.301102 0.80867,-2.911446 4.81257,-6.57421 7.79892,-7.134453 8.63171,-1.619317 14.58917,3.868414 13.94015,12.841009 -0.46509,6.429764 -3.78258,9.571908 -10.36867,9.820608 -2.30933,0.0872 -4.62065,-0.0145 -5.13627,-0.226062 z m 9.08149,-6.493111 c 0.50518,-0.976911 0.91851,-3.218053 0.91851,-4.980316 0,-2.708057 -0.28284,-3.486957 -1.82693,-5.031038 -4.37871,-4.378712 -9.9377,-0.527587 -9.26993,6.421974 0.31855,3.315166 2.15635,5.902859 4.45578,6.273909 2.24179,0.36175 4.75757,-0.818431 5.72257,-2.684529 z m 22.20472,5.541917 c -4.64579,-2.414181 -5.30854,-4.457973 -5.56567,-17.163231 -0.20652,-10.204467 -0.15387,-10.783634 1.09375,-12.03125 1.5495,-1.549507 1.93159,-1.59548 3.535,-0.425335 1.09928,0.802238 1.24255,1.922538 1.52571,11.930531 l 0.3125,11.045155 1.7536,1.506968 c 1.31757,1.132262 2.48739,1.506968 4.70469,1.506968 5.9807,0 6.9706,-2.237403 6.97572,-15.766842 0.003,-8.979882 0.0394,-9.227901 1.47793,-10.170429 1.78795,-1.171515 3.41373,-0.663422 3.88497,1.214147 0.19173,0.76395 0.25962,6.338318 0.15085,12.387485 -0.17903,9.957168 -0.31977,11.161683 -1.48638,12.722195 -2.65006,3.544825 -4.32696,4.286325 -10.16241,4.493638 -4.67728,0.166169 -5.80617,-0.0056 -8.20026,-1.25 z m 25.61078,0.160894 C 304.00837,66.189956 303.75,60.324505 303.75,52.228588 303.75,39.583333 303.82728,38.672717 305,37.5 c 0.6875,-0.6875 1.53125,-1.25 1.875,-1.25 0.34375,0 1.1875,0.5625 1.875,1.25 1.17272,1.172717 1.25,2.083333 1.25,14.728588 0,8.095917 -0.25838,13.961368 -0.64699,14.6875 -0.41364,0.772887 -1.30739,1.208912 -2.47801,1.208912 -1.17062,0 -2.06437,-0.436025 -2.47801,-1.208912 z M 74.966112,61.359716 c -3.589143,-2.280224 -6.053862,-5.896542 -6.958593,-10.20988 -0.889694,-4.24165 -0.423069,-5.837435 1.531325,-5.236838 6.0718,1.865902 6.592875,1.834501 9.532706,-0.57447 l 2.773769,-2.272894 1.809068,1.337502 c 1.661325,1.228273 1.956032,1.263209 3.608588,0.427792 1.623725,-0.820839 1.9827,-0.79628 3.674525,0.251391 2.319194,1.436169 6.094056,1.503433 8.166494,0.14552 2.170926,-1.422447 2.657096,-0.582305 0.667993,1.15435 -0.901025,0.786672 -3.257387,2.904597 -5.236356,4.706502 -2.446162,2.227291 -4.132562,3.27781 -5.267394,3.28125 -0.918093,0.0028 -4.011843,-0.972362 -6.875,-2.166986 l -5.205737,-2.172046 2.122856,1.932587 2.122863,1.932587 -1.104719,1.870135 c -0.814513,1.378858 -1.0059,2.591058 -0.728563,4.614458 0.3232,2.358005 0.219094,2.744324 -0.739531,2.744324 -0.613625,0 -2.366056,-0.794378 -3.894294,-1.765284 z M 92.291669,60.208333 C 91.438563,59.355229 91.962656,57.749605 93.787712,55.625 94.821206,54.421875 96.981631,51.75 98.58865,49.6875 102.61973,44.513877 108.90056,37.5 109.50239,37.5 c 1.39655,0 -0.0349,2.606081 -5.24115,9.542082 C 97.271625,56.353924 93.78435,60.625 93.170969,60.625 c -0.25445,0 -0.650138,-0.1875 -0.8793,-0.416667 z m 7.510818,-3.571559 c -0.182187,-0.474775 0.413133,-1.951337 1.322943,-3.28125 1.39156,-2.034121 1.69291,-2.22346 1.89808,-1.192558 0.25041,1.258293 -1.60672,5.337034 -2.43006,5.337034 -0.25284,0 -0.608775,-0.388452 -0.790962,-0.863226 z M 82.299187,39.53125 c -4.456625,-4.748576 -6.004512,-6.771674 -6.995237,-9.142808 -1.205306,-2.884703 -1.185931,-7.938403 0.04169,-10.877266 1.716707,-4.109675 5.982538,-7.659115 9.154557,-7.61717 1.387537,0.01835 1.394019,0.04283 0.187287,0.7073 -4.748931,2.61493 -7.710331,8.579102 -6.866025,13.827976 0.493625,3.068774 2.9474,7.627357 4.407138,8.18751 0.676456,0.259582 0.490218,-0.23155 -0.561994,-1.482034 C 80.80105,32.106107 79.75675,29.762547 79.345937,27.92685 77.157431,18.147577 85.818012,9.8762825 92.553975,15.3125 97.2211,19.079072 98.586419,26.155426 95.761088,31.934707 93.968694,35.601134 87.751825,42.5 86.240269,42.5 85.6051,42.5 83.831613,41.164062 82.299187,39.53125 Z M 90,33.786886 c 0,-0.667214 0.282281,-1.387575 0.627294,-1.600804 0.345012,-0.213229 0.45515,-1.073577 0.244744,-1.911885 -0.322944,-1.28671 -0.152882,-1.530369 1.091456,-1.563813 l 1.474006,-0.03962 -1.458594,-0.584606 c -1.90945,-0.76531 -1.427919,-2.080162 0.881794,-2.407788 l 1.8268,-0.259127 -1.875,-0.372011 c -1.071413,-0.212574 -1.875,-0.768544 -1.875,-1.297235 0,-0.522262 0.816619,-1.099845 1.875,-1.326166 l 1.875,-0.40094 -2.099006,-0.07395 c -1.914944,-0.06746 -2.064613,-0.210963 -1.706844,-1.636447 0.245881,-0.979657 0.127394,-1.5625 -0.317638,-1.5625 -0.401975,0 -0.568112,-0.541824 -0.383081,-1.249377 0.377444,-1.44334 -0.43375,-2.152178 -1.84375,-1.61111 -0.761156,0.292081 -0.817069,0.569141 -0.252225,1.24974 0.521556,0.628437 0.532825,0.993692 0.04006,1.298247 -0.494707,0.305748 -0.488175,0.661784 0.02344,1.278264 0.986613,1.188794 0.215788,2.148745 -1.779094,2.215604 -1.610875,0.05399 -1.596125,0.08112 0.349388,0.64287 2.056075,0.59367 2.57185,1.392883 1.3759,2.132019 -0.448,0.276881 -0.423788,0.684039 0.07653,1.286886 0.534063,0.643506 0.546281,1.105481 0.04525,1.709228 -0.500081,0.602557 -0.494106,1.019924 0.022,1.536012 0.528188,0.528187 0.516675,0.939948 -0.04525,1.616986 -0.455712,0.549104 -0.517881,1.05419 -0.157187,1.277111 0.328168,0.202821 0.44965,0.930985 0.269956,1.618143 C 88.078762,34.619307 88.287088,35 88.989606,35 89.573094,35 90,34.487441 90,33.786886 Z m -3.294269,-8.53949 c -0.207687,-0.207682 -0.74675,-0.229887 -1.197919,-0.04934 -0.498581,0.199516 -0.350487,0.347614 0.377607,0.377604 0.65885,0.02714 1.027994,-0.12058 0.820312,-0.328262 z M 110.625,35.670828 c 0,-0.894437 0.40139,-1.295828 1.29582,-1.295828 1.60166,0 1.41996,2.068643 -0.20925,2.382401 -0.74999,0.144436 -1.08657,-0.192137 -1.08657,-1.086573 z m 2.5,-3.034534 c 0,-0.268788 2.10938,-2.937537 4.6875,-5.930551 2.57813,-2.993014 4.6875,-5.691784 4.6875,-5.997266 0,-0.305481 0.39684,-0.884766 0.88186,-1.287298 1.52838,-1.268447 1.9211,0.552051 0.44182,2.048153 -0.73043,0.738742 -3.0458,3.66348 -5.14525,6.499418 -3.30005,4.457692 -5.55343,6.35161 -5.55343,4.667544 z"
       id="path3984"
       inkscape:connector-curvature="0" />
    <path
       style="fill:#4d4d4d"
       d="m 94.375,95.718056 c 0,-0.729719 8.75086,-4.541294 9.44346,-4.113243 0.64137,0.396381 0.72958,2.217018 0.17717,3.656568 C 103.69704,96.039512 102.63249,96.25 98.995631,96.25 96.454288,96.25 94.375,96.010625 94.375,95.718056 Z M 80.347819,93.329162 C 78.4417,93.007419 67.411681,88.757831 64.281963,87.139387 c -2.378791,-1.230118 -2.339173,-3.387806 0.172999,-9.422318 1.722107,-4.136682 2.112944,-4.649725 3.28125,-4.307225 0.729457,0.213844 2.209707,0.550312 3.289438,0.747706 1.267669,0.231756 2.210694,0.902181 2.661875,1.892419 0.94225,2.068019 7.887887,5.207512 11.455,5.177769 3.173588,-0.02644 9.774294,-1.519557 10.667825,-2.413088 0.347337,-0.347337 0.608687,-1.43485 0.580769,-2.416687 -0.04781,-1.681582 0.165462,-1.833132 3.675471,-2.611825 2.04942,-0.454663 3.80628,-0.719107 3.90415,-0.587651 0.0978,0.131457 0.93197,2.015363 1.85359,4.186457 1.84023,4.335119 2.14913,7.694062 0.8098,8.805612 -0.47624,0.395238 -4.34342,2.132688 -8.593755,3.860994 -7.775,3.161544 -12.831075,4.0982 -17.692556,3.277612 z M 65.625,92.220012 c 0,-0.734124 0.354,-0.781581 1.875,-0.251362 1.03125,0.3595 1.875,0.766744 1.875,0.904994 0,0.138244 -0.84375,0.251356 -1.875,0.251356 -1.220062,0 -1.875,-0.316112 -1.875,-0.904987 z M 84.375,69.25295 C 84.375,68.403244 87.46935,65 88.241931,65 c 0.889494,0 0.550206,1.243619 -0.859468,3.150306 C 85.996669,70.0247 84.375,70.619256 84.375,69.25295 Z m 50.57726,-2.425694 c -1.21128,-1.211275 -1.26071,-1.898481 -1.07958,-15.009515 0.19399,-14.042011 0.35289,-14.9236 2.68982,-14.9236 2.00402,0 2.50378,1.287879 2.712,6.98892 0.1166,3.192441 0.41851,6.021977 0.67092,6.287858 0.2524,0.26588 3.51752,-2.616933 7.25582,-6.40625 6.66937,-6.760382 8.04412,-7.644316 9.54876,-6.139669 1.40167,1.401677 0.75574,2.717918 -3.3125,6.75 -2.23438,2.214514 -4.0625,4.416624 -4.0625,4.893576 0,0.476953 2.06864,3.860078 4.59698,7.518056 5.31708,7.692705 5.84835,8.928749 4.44209,10.335012 -2.20536,2.205356 -3.38443,1.256943 -8.65946,-6.965394 -2.74072,-4.272029 -4.4888,-6.40625 -5.24717,-6.40625 -0.62548,0 -2.03615,0.927452 -3.13483,2.061004 -1.77773,1.834144 -1.99761,2.457828 -1.99761,5.666089 0,5.541319 -1.91501,7.857894 -4.42274,5.350163 z M 170,67.392694 c -4.55146,-1.289119 -7.08694,-5.175786 -7.10041,-10.8843 -0.0161,-6.829265 3.77024,-10.884196 10.16158,-10.882423 4.29347,0.0012 7.41814,1.466469 9.0109,4.225568 1.43929,2.493226 1.65121,6.26235 0.39674,7.055963 -0.49847,0.315347 -3.75468,0.577664 -7.23603,0.582927 -4.60625,0.007 -6.52439,0.244135 -7.04469,0.871048 C 166.54074,60.346423 170.42358,65 173.72713,65 c 0.92596,0 3.00084,-0.872525 4.61084,-1.938944 2.86913,-1.900435 4.78703,-2.054724 4.78703,-0.385106 0,1.404956 -3.28754,4.041819 -5.9375,4.762331 -2.94107,0.799675 -4.23207,0.791488 -7.1875,-0.04556 z m 8.50234,-13.273783 c 0.44081,-1.148741 -1.29469,-4.482526 -2.59284,-4.980673 -3.49876,-1.342599 -7.7845,1.008711 -7.7845,4.270853 0,1.572488 0.0581,1.590909 5.01961,1.590909 3.7425,0 5.10565,-0.224173 5.35773,-0.881089 z m 11.88028,13.197151 c -0.9101,-0.665481 -1.0185,-2.048631 -0.86758,-11.069533 0.16755,-10.015553 0.21077,-10.31449 1.51836,-10.50084 0.83967,-0.119666 1.71669,0.337558 2.3317,1.215611 l 0.9858,1.407422 2.44089,-1.371861 c 3.5509,-1.995715 7.04835,-1.831738 9.6046,0.450306 l 2.04111,1.822168 0.20297,8.398964 c 0.17472,7.229664 0.0559,8.546088 -0.85379,9.455732 -2.55752,2.557525 -4.01554,-0.593381 -4.02747,-8.703715 -0.0114,-7.798485 -0.72744,-9.2066 -4.53658,-8.922139 -4.12459,0.308019 -5.09163,2.205541 -5.37729,10.551216 -0.19643,5.738932 -0.41294,6.951601 -1.32867,7.441682 -0.7282,0.389725 -1.44175,0.331206 -2.13405,-0.175013 z m 30.55488,0.369826 c -4.14229,-1.099663 -6.5625,-5.330996 -6.5625,-11.473435 0,-4.536461 1.67884,-8.255714 4.35009,-9.637074 2.61299,-1.351228 6.80019,-1.197015 9.3271,0.343515 1.16308,0.709072 2.34466,1.059255 2.62573,0.778183 0.28107,-0.28107 0.59509,-2.590618 0.69781,-5.132327 0.14112,-3.491699 0.44131,-4.781207 1.22813,-5.275528 0.75384,-0.473601 1.31467,-0.42741 2.03125,0.167299 1.47743,1.226156 1.48447,28.209616 0.008,29.686335 -1.2746,1.2746 -1.31413,1.266363 -3.083,-0.642281 l -1.50547,-1.624419 -1.76705,1.25825 c -1.90896,1.3593 -5.34309,2.084213 -7.34983,1.551481 z m 6.47186,-4.201513 c 2.2294,-1.152868 3.21564,-3.399859 3.21564,-7.326283 0,-2.779474 -0.26382,-3.421908 -2.20052,-5.358613 -1.88338,-1.883377 -2.48548,-2.143528 -4.17774,-1.805077 -2.6256,0.525119 -4.10775,1.959161 -4.958,4.797061 -0.95734,3.195296 -0.18701,6.65642 1.95915,8.802574 1.98215,1.982163 3.59847,2.215719 6.16147,0.890338 z m 20.51801,3.768094 C 243.38106,65.568194 241.25,62.239228 241.25,56.821622 c 0,-6.903559 4.0703,-11.196622 10.61564,-11.196622 5.92452,0 9.3465,2.690796 10.61385,8.345974 1.15428,5.150625 -0.73607,10.060826 -4.7866,12.433257 -2.62129,1.535306 -6.90627,1.9075 -9.76552,0.848238 z m 7.61807,-4.187488 c 2.81673,-2.624183 3.43214,-7.596555 1.36067,-10.993842 -1.58803,-2.60442 -3.41383,-3.529155 -6.00734,-3.04261 -5.45496,1.023358 -7.00839,10.408043 -2.33174,14.086696 2.0866,1.641319 5.18669,1.619 6.97841,-0.05025 z m 25.89471,4.374488 c -3.39554,-0.808788 -6.15285,-3.42645 -7.02638,-6.6705 -0.41455,-1.539482 -0.62567,-6.665408 -0.52315,-12.701521 0.1502,-8.844034 0.30982,-10.207274 1.26563,-10.809461 0.796,-0.501502 1.3915,-0.501846 2.1875,-0.0012 0.94917,0.596909 1.13579,2.083589 1.41177,11.246803 0.33011,10.960475 0.67354,12.462921 3.26338,14.276922 1.55823,1.091425 5.23186,1.270994 7.59797,0.3714 2.90315,-1.103775 3.50723,-3.437671 3.51734,-13.589563 0.01,-9.521489 0.55414,-12.16525 2.58688,-12.556719 0.5512,-0.106153 1.4582,0.263008 2.01555,0.820357 0.84397,0.84397 1.0108,2.546874 0.99808,10.187468 -0.0217,13.010151 -0.98805,16.138776 -5.7503,18.616432 -2.24801,1.169581 -8.26231,1.591387 -11.54427,0.809644 z m 23.9054,-0.3082 c -0.86005,-0.860057 -0.97115,-2.889782 -0.82589,-15.088607 0.15045,-12.634204 0.28118,-14.16632 1.26159,-14.78432 0.79732,-0.502598 1.39017,-0.502598 2.1875,0 0.98041,0.618 1.11114,2.150116 1.26159,14.78432 0.14526,12.198826 0.0342,14.228551 -0.82589,15.088607 -0.54656,0.54655 -1.23481,0.993731 -1.52945,0.993731 -0.29464,0 -0.98289,-0.447181 -1.52945,-0.993731 z M 74.62485,60.46875 C 70.891544,57.954752 68.125,53.069508 68.125,48.99113 c 0,-1.507621 0.16765,-2.74113 0.372556,-2.74113 1.329775,0 7.127444,2.070213 7.127444,2.545044 0,0.319739 1.142144,1.68976 2.5381,3.044489 2.506025,2.43201 2.524756,2.483518 1.481975,4.074996 -0.737625,1.125765 -0.955531,2.361801 -0.722569,4.098662 0.416869,3.107996 -0.253281,3.179034 -4.297656,0.455559 z M 92.5088,58.958333 c 0.01069,-1.39169 16.40465,-21.280479 16.73189,-20.298757 0.26614,0.798415 -14.813621,20.802235 -15.972959,21.18868 -0.422518,0.14084 -0.763775,-0.259316 -0.758931,-0.889923 z m 8.1162,-3.572062 c 0,-0.515625 0.28125,-1.111322 0.625,-1.323771 0.34375,-0.212449 0.625,0.03561 0.625,0.551229 0,0.515625 -0.28125,1.111322 -0.625,1.323771 -0.34375,0.212449 -0.625,-0.03561 -0.625,-0.551229 z M 88.75,53.957775 C 82.964206,51.991898 79.328438,50.343444 78.253019,49.198454 L 76.951275,47.8125 79.448438,45.716326 c 2.316337,-1.944391 2.577362,-2.023588 3.604825,-1.09375 1.209056,1.094182 3.629443,1.302928 5.005343,0.431684 0.566688,-0.358838 1.549544,-0.137898 2.8125,0.632234 1.067769,0.651109 2.855456,1.184885 3.972644,1.18617 1.117188,0.0013 2.03125,0.242788 2.03125,0.536675 0,0.507243 -6.585987,7.020232 -6.993837,6.916319 C 89.77465,54.29852 89.265625,54.132972 88.75,53.957775 Z M 82.281188,38.90625 C 76.27915,32.552064 75,30.121637 75,25.071725 c 0,-4.696544 0.732713,-6.650203 3.601556,-9.602975 3.045938,-3.135051 3.801288,-2.972014 1.447813,0.3125 -6.489813,9.057187 -0.733338,23.000109 8.828837,21.384589 1.304488,-0.220391 2.371794,-0.149912 2.371794,0.15662 0,0.952848 -4.066806,4.552541 -5.1433,4.552541 -0.561706,0 -2.283187,-1.335938 -3.825512,-2.96875 z m 28.683002,-3.238064 c -0.42692,-0.690769 0.559,-1.436657 1.13613,-0.859528 0.59425,0.594241 0.4835,1.441342 -0.18843,1.441342 -0.32346,0 -0.74993,-0.261816 -0.9477,-0.581814 z M 81.279263,31.307354 C 78.537212,25.932492 79.134744,20.115253 82.806,16.444002 c 1.551325,-1.551329 2.592863,-2.058418 4.16275,-2.026702 2.158975,0.04362 1.887244,0.296746 -1.65625,1.54287 -1.138881,0.400505 -1.086438,0.509559 0.589956,1.226792 l 1.839956,0.787211 -2.621206,0.44285 c -3.804469,0.642761 -3.171675,2.065693 1.023663,2.301848 0.962543,0.05418 0.478481,0.252373 -1.144869,0.46875 -2.317575,0.30891 -2.792913,0.593241 -2.701175,1.615757 0.06125,0.682483 -0.185738,1.424476 -0.548819,1.648873 C 80.422669,25.272589 82.019744,26.25 84.6875,26.25 c 1.5063,0 2.938094,0.322577 3.181756,0.716838 0.319119,0.516346 -0.37255,0.62491 -2.472987,0.38816 -2.940707,-0.33146 -4.428713,0.436426 -2.820094,1.455309 0.473731,0.300054 1.775387,0.549859 2.892575,0.555122 1.117187,0.0053 2.03125,0.252588 2.03125,0.54961 0,0.297022 -0.973331,0.507959 -2.162956,0.46875 -2.910369,-0.09592 -2.871325,1.01747 0.06504,1.854552 l 2.370757,0.675841 -2.08955,0.417909 c -3.072463,0.614493 -3.053044,0.623421 -4.404031,-2.024737 z M 114.375,31.971868 c 0,-0.290474 0.60604,-1.063911 1.34675,-1.71875 l 1.34675,-1.190618 -1.10613,1.71875 c -1.14054,1.772226 -1.58737,2.107368 -1.58737,1.190618 z M 84.226038,23.932962 c 0.777443,-0.149496 1.902443,-0.14382 2.5,0.01261 0.597556,0.156433 -0.03856,0.278748 -1.413538,0.271811 -1.375,-0.0069 -1.863906,-0.134928 -1.086462,-0.284424 z M 123.125,20.698771 c 0,-0.34375 0.28125,-0.798822 0.625,-1.011271 0.34375,-0.212449 0.625,-0.105021 0.625,0.238729 0,0.34375 -0.28125,0.798822 -0.625,1.011271 -0.34375,0.212449 -0.625,0.105021 -0.625,-0.238729 z M 91.25,17.879368 c 0,-0.592894 1.870862,-0.8917 2.204369,-0.352072 C 93.657544,17.856033 93.244675,18.125 92.536888,18.125 91.8291,18.125 91.25,18.014466 91.25,17.879368 Z"
       id="path3982"
       inkscape:connector-curvature="0" />
    <path
       style="fill:#2f2f2f"
       d="m 98.8352,95.687381 -2.727306,-0.374881 3.5224,-1.71875 c 1.937316,-0.945313 3.656796,-1.71875 3.821046,-1.71875 0.81629,0 0.18425,3.660169 -0.68996,3.995631 -0.54374,0.208657 -1.03592,0.337125 -1.09375,0.2855 -0.0578,-0.05163 -1.33242,-0.262568 -2.83243,-0.46875 z M 80.439181,92.48625 C 75.661319,91.663856 63.782462,86.853475 63.022387,85.433262 62.149397,83.802069 66.018369,73.723794 67.48925,73.79755 c 2.147631,0.107687 5.112456,1.63195 5.818787,2.991519 0.476907,0.917975 2.5939,2.264812 5.754463,3.661012 l 5,2.208781 -0.210588,3.297625 c -0.281918,4.414582 0.57915,5.918513 3.388613,5.918513 5.783481,0 11.46335,-6.878506 11.49575,-13.921719 0.01219,-2.65335 0.198831,-3.054594 1.683245,-3.618969 2.73533,-1.039975 3.45755,-0.484993 5.33964,4.103188 2.81153,6.853975 2.63993,7.073737 -8.939491,11.448875 C 89.757788,92.554612 85.1163,93.2913 80.439181,92.48625 Z M 85,68.88375 c 0,-0.310756 0.603425,-1.100794 1.340944,-1.755631 1.331631,-1.18235 1.33595,-1.181094 0.621637,0.180825 C 86.165775,68.82815 85,69.763587 85,68.88375 Z M 135.125,66.75 C 134.33253,65.957531 133.99814,40.459318 134.75437,38.488617 134.96302,37.944878 135.80141,37.5 136.61746,37.5 c 1.80859,0 2.07588,0.943208 2.2883,8.074694 0.0959,3.220908 0.43015,5.352643 0.86157,5.49536 0.38766,0.128242 3.75181,-2.884327 7.4759,-6.694596 4.88087,-4.993826 7.12674,-6.876844 8.04517,-6.745361 2.56637,0.367405 1.77388,2.539303 -2.45451,6.726848 -2.24614,2.224444 -4.08389,4.410652 -4.08389,4.858239 0,0.447587 2.25,4.086908 5,8.087381 2.75,4.000472 5,7.771872 5,8.380891 0,1.280519 -2.05997,2.12865 -3.36612,1.385906 -0.49025,-0.278775 -2.88182,-3.5303 -5.31462,-7.225612 -3.05017,-4.633092 -4.79197,-6.71875 -5.61104,-6.71875 -0.65327,0 -2.20487,1.12581 -3.44799,2.501801 -2.09282,2.316501 -2.26023,2.793303 -2.26023,6.4375 0,3.774462 -0.66854,5.435699 -2.1875,5.435699 -0.37812,0 -1.025,-0.3375 -1.4375,-0.75 z m 33.90651,-0.129125 c -4.58704,-1.997994 -6.86425,-7.750231 -5.33654,-13.480163 1.00282,-3.761243 3.26592,-6.011706 6.92919,-6.890511 6.90665,-1.656879 13.96883,3.764963 12.1928,9.360755 -0.36603,1.153245 -0.93165,1.264792 -6.45283,1.272578 -3.32839,0.0047 -6.68444,0.178122 -7.45788,0.385395 -2.06305,0.552875 -1.86754,3.445073 0.40479,5.988258 1.46086,1.634988 2.2861,2.026907 4.26792,2.026907 1.35128,0 3.13787,-0.483857 3.97021,-1.075232 0.83233,-0.591381 2.14269,-1.531062 2.9119,-2.08818 1.29175,-0.935582 1.42881,-0.934134 1.79455,0.01896 0.50371,1.312642 -1.32266,3.395261 -3.95429,4.509117 -2.52615,1.0692 -6.78047,1.056407 -9.26982,-0.02787 z m 10.0235,-12.222267 c 0.21408,-0.674515 0.0595,-1.869828 -0.34353,-2.65625 -2.03299,-3.96695 -6.3789,-4.796087 -9.38455,-1.790435 -1.69574,1.695733 -2.38857,4.278103 -1.41026,5.25641 0.22916,0.229167 2.74146,0.416667 5.58288,0.416667 4.58416,0 5.21007,-0.138174 5.55546,-1.226392 z m 11.36166,12.684723 C 190.1875,66.854169 190,62.072917 190,56.458333 190,46.7276 190.05745,46.25 191.22801,46.25 c 0.67541,0 1.52905,0.5625 1.89699,1.25 0.85045,1.589077 1.49101,1.571317 3.75722,-0.104167 1.26547,-0.935599 2.73676,-1.354166 4.76,-1.354166 2.50211,0 3.18709,0.289535 4.70559,1.989027 1.76715,1.97779 1.77719,2.036747 1.77719,10.436282 0,6.963718 -0.16604,8.510974 -0.94546,8.810062 -2.20781,0.847218 -2.80454,-0.898944 -2.80454,-8.206779 0,-6.162336 -0.15934,-7.229256 -1.29536,-8.673472 -1.84576,-2.346503 -5.05308,-2.269497 -7.50272,0.180136 -1.76314,1.76314 -1.82692,2.034479 -1.82692,7.771813 0,3.269689 -0.27429,6.666326 -0.60953,7.548076 -0.58229,1.531538 -1.83367,2.076657 -2.7238,1.186519 z m 28.98989,-0.697781 c -3.10032,-1.707781 -4.66391,-5.107151 -4.66391,-10.139708 0,-3.161676 0.32181,-4.640098 1.3842,-6.359082 2.40723,-3.894971 8.0662,-5.009974 12.26299,-2.416212 2.78955,1.724031 3.37517,0.913493 3.61144,-4.998474 0.16709,-4.180833 0.31465,-4.659574 1.43622,-4.659574 1.21452,0 1.25,0.416667 1.25,14.678941 0,13.447646 -0.0912,14.696497 -1.08688,14.888253 -0.68239,0.131418 -1.35935,-0.388732 -1.81906,-1.397694 -0.88597,-1.944487 -1.32437,-1.982437 -3.58593,-0.310394 -2.53203,1.872007 -6.15277,2.166125 -8.78907,0.713944 z m 7.7595,-2.273812 c 2.95539,-1.234844 4.29553,-4.051787 3.94404,-8.290299 -0.45391,-5.473537 -4.28265,-8.489715 -8.51688,-6.709358 -2.50519,1.053355 -3.84322,3.824687 -3.84322,7.960095 0,3.643977 1.44108,6.284362 3.99258,7.31528 1.82974,0.7393 2.02303,0.727257 4.42348,-0.275718 z m 19.69942,1.982012 c -3.62271,-1.836244 -5.18268,-4.567032 -5.21874,-9.135619 -0.0553,-6.999517 3.617,-10.916464 10.23448,-10.916464 4.63555,0 7.35538,1.534847 9.21253,5.198813 5.07823,10.018814 -4.3494,19.86057 -14.22827,14.85327 z m 8.08809,-2.007237 c 3.90154,-2.017569 4.78856,-9.568756 1.57292,-13.390324 -1.93567,-2.300415 -4.06753,-2.831956 -6.79221,-1.693511 -2.79552,1.168041 -4.10928,3.794833 -4.10928,8.216285 0,3.182356 0.20984,3.740876 2.125,5.656037 2.34876,2.348763 4.35264,2.685781 7.20357,1.211512 z m 25.50926,2.558131 c -5.45222,-2.03365 -6.18325,-4.269968 -5.95179,-18.207144 0.17404,-10.479396 0.19572,-10.627735 1.5817,-10.824587 2.17504,-0.308922 2.65726,2.001294 2.65726,12.730414 0,9.630081 0.001,9.638324 1.71875,11.560402 2.15161,2.407865 5.70839,3.040771 9.10734,1.620596 3.5963,-1.502627 4.17391,-3.570344 4.17391,-14.941751 0,-9.889253 0.28137,-11.082574 2.61309,-11.082574 1.6547,0 1.89371,1.920553 1.66032,13.341189 -0.22918,11.214497 -0.47313,12.040667 -4.427,14.992661 -2.14471,1.60125 -9.75481,2.071056 -13.13359,0.810794 z m 24.83454,0.1038 c -0.17713,-0.461575 -0.24618,-7.160991 -0.15346,-14.887587 l 0.16859,-14.048357 1.55636,0 c 2.12691,0 2.35825,1.4408 2.35825,14.6875 0,12.891144 -0.25433,14.610125 -2.20267,14.887587 -0.77277,0.110044 -1.54995,-0.177568 -1.72707,-0.639143 z M 75.236131,60.318799 C 71.189144,57.892876 68.75,53.626863 68.75,48.974694 l 0,-2.756794 1.843963,0.95355 c 1.014181,0.524452 2.157437,0.95355 2.540574,0.95355 0.383144,0 2.037613,1.376748 3.676607,3.059441 2.883893,2.960783 2.951206,3.114377 2.087368,4.76307 -0.490943,0.936997 -0.781675,2.653998 -0.646068,3.81556 0.135606,1.161561 0.09209,2.109268 -0.09669,2.106016 -0.188788,-0.0033 -1.502613,-0.700882 -2.919619,-1.550288 z m 17.704,-1.337002 c -0.350256,-0.350258 4.229581,-6.180778 9.168479,-11.672239 L 103.90472,45.3125 102.37489,47.5 c -2.17528,3.110437 -8.750696,11.875 -8.908953,11.875 -0.07293,0 -0.309543,-0.176941 -0.525806,-0.393203 z M 83.910856,51.622096 C 79.972988,50.147131 78.125,49.019316 78.125,48.091031 c 0,-0.278252 0.8665,-1.122915 1.925556,-1.877029 1.666869,-1.186916 2.124082,-1.264866 3.403325,-0.580236 0.84905,0.454398 2.406519,0.640163 3.660738,0.436631 2.806556,-0.455441 3.644,0.541803 3.392325,4.039662 -0.241125,3.351224 -1.137338,3.556665 -6.596088,1.512037 z M 80.97905,36.71875 c -5.157412,-5.666027 -6.548262,-9.439086 -5.389006,-14.619169 0.407556,-1.82116 1.275919,-3.952649 1.929694,-4.736641 1.448862,-1.737451 1.521762,-1.338255 0.292762,1.603158 -1.88585,4.513474 -0.819156,11.632088 2.320519,15.486039 1.47965,1.816276 5.132343,3.668137 7.239906,3.670527 l 2.060431,0.0023 -1.122931,1.54286 c -0.617606,0.848572 -1.591812,1.551697 -2.1649,1.5625 -0.573088,0.0108 -2.898,-2.019422 -5.166475,-4.51161 z M 80.625,20.625 c 0,-0.34375 0.28125,-0.625 0.625,-0.625 0.34375,0 0.625,0.28125 0.625,0.625 0,0.34375 -0.28125,0.625 -0.625,0.625 -0.34375,0 -0.625,-0.28125 -0.625,-0.625 z M 82.1875,17.5 c 0.21245,-0.34375 0.650925,-0.625 0.974388,-0.625 0.323462,0 0.588112,0.28125 0.588112,0.625 0,0.34375 -0.438475,0.625 -0.974388,0.625 -0.535912,0 -0.800562,-0.28125 -0.588112,-0.625 z"
       id="path3980"
       inkscape:connector-curvature="0" />
  </g>
</svg>
