<?xml version="1.0" encoding="UTF-8" standalone="no"?>
<!-- Created with Inkscape (http://www.inkscape.org/) -->

<svg
   xmlns:dc="http://purl.org/dc/elements/1.1/"
   xmlns:cc="http://creativecommons.org/ns#"
   xmlns:rdf="http://www.w3.org/1999/02/22-rdf-syntax-ns#"
   xmlns:svg="http://www.w3.org/2000/svg"
   xmlns="http://www.w3.org/2000/svg"
   xmlns:xlink="http://www.w3.org/1999/xlink"
   xmlns:sodipodi="http://sodipodi.sourceforge.net/DTD/sodipodi-0.dtd"
   xmlns:inkscape="http://www.inkscape.org/namespaces/inkscape"
   id="svg3696"
   version="1.1"
   inkscape:version="0.91 r13725"
   width="406.875"
   height="108.75"
   viewBox="0 0 406.875 108.75"
   sodipodi:docname="MobileAngularUI.svg">
  <metadata
     id="metadata3702">
    <rdf:RDF>
      <cc:Work
         rdf:about="">
        <dc:format>image/svg+xml</dc:format>
        <dc:type
           rdf:resource="http://purl.org/dc/dcmitype/StillImage" />
        <dc:title></dc:title>
      </cc:Work>
    </rdf:RDF>
  </metadata>
  <defs
     id="defs3700" />
  <sodipodi:namedview
     pagecolor="#ffffff"
     bordercolor="#666666"
     borderopacity="1"
     objecttolerance="10"
     gridtolerance="10"
     guidetolerance="10"
     inkscape:pageopacity="0"
     inkscape:pageshadow="2"
     inkscape:window-width="640"
     inkscape:window-height="480"
     id="namedview3698"
     showgrid="false"
     inkscape:zoom="0.64393241"
     inkscape:cx="203.4375"
     inkscape:cy="54.375"
     inkscape:window-x="0"
     inkscape:window-y="0"
     inkscape:window-maximized="0"
     inkscape:current-layer="svg3696" />
  <image
     width="406.875"
     height="108.75"
     preserveAspectRatio="none"
     style="image-rendering:optimizeQuality"
     xlink:href="file:///media/havoc/USB%20DISK/pics/_Products/MobileAngularUI.png"
     id="image3704"
     x="0"
     y="0"
     sodipodi:absref="/media/havoc/USB DISK/pics/_Products/MobileAngularUI.png" />
  <g
     id="g3941">
    <path
       style="fill:#fdfdfd"
       d="M 0,54.375 0,0 203.4375,0 406.875,0 l 0,54.375 0,54.375 -203.4375,0 L 0,108.75 0,54.375 Z"
       id="path3957"
       inkscape:connector-curvature="0" />
    <path
       style="fill:#d1d1d1"
       d="M 9.1830913,80.849756 C 8.35489,80.021556 8.7590056,76.923894 10.247144,72.6935 c 0.823428,-2.3408 1.830258,-6.22475 2.237397,-8.631 0.40714,-2.40625 1.527509,-6.765625 2.48971,-9.6875 0.962201,-2.921875 2.228869,-7.490111 2.814817,-10.151635 0.585949,-2.661524 1.298643,-4.983311 1.583764,-5.159525 0.285121,-0.176215 0.714119,-1.514229 0.953328,-2.973365 C 21.098602,31.378711 21.415389,31.25 32.239724,31.25 c 10.959739,0 11.02873,0.02935 12.120283,5.156669 0.38415,1.804457 1.053028,3.925357 1.486394,4.71311 0.7352,1.336413 0.911033,1.0645 2.627019,-4.0625 L 50.3125,31.5625 60.379728,31.391194 c 7.566903,-0.128759 10.230278,0.02647 10.723728,0.625 0.361075,0.437969 1.123044,2.483806 1.693275,4.546306 0.570225,2.0625 1.280563,4.59375 1.578525,5.625 0.297956,1.03125 1.4108,5.109375 2.472981,9.0625 1.062175,3.953125 2.227919,8.171875 2.590532,9.375 0.362619,1.203125 1.184818,4.492931 1.827118,7.310687 0.6423,2.817751 1.621094,5.999725 2.175094,7.071051 0.554007,1.071318 0.920482,2.844012 0.8144,3.939312 L 84.0625,80.9375 74.864913,81.110338 65.667331,81.283175 64.386956,78.773431 C 63.68275,77.393075 62.6923,74.098438 62.185954,71.452013 c -0.927935,-4.849882 -1.874403,-6.84735 -2.440376,-5.150275 -0.16247,0.487168 -0.738752,3.117587 -1.280625,5.845375 -0.541873,2.727787 -1.488199,5.821537 -2.102946,6.875 l -1.117721,1.915387 -9.094677,0.172444 c -6.801258,0.128956 -9.251632,-0.02863 -9.717096,-0.625 -0.342332,-0.438594 -1.139609,-3.398931 -1.771725,-6.578519 -1.818947,-9.149444 -2.225615,-9.18825 -4.914005,-0.468925 -0.953882,3.09375 -1.95014,6.046875 -2.213905,6.5625 -0.384844,0.752319 -2.201749,0.971606 -9.198134,1.110175 -4.795209,0.09497 -8.9134521,-0.02225 -9.1516527,-0.260419 z M 272.71024,78.7505 c -1.28228,-0.517056 -3.04121,-1.805544 -4.96748,-3.638894 -1.94752,-1.853556 -0.25615,-4.971825 2.26305,-4.172262 0.72369,0.229687 1.56822,1.081543 1.87674,1.893019 0.38463,1.011649 1.24032,1.60285 2.72236,1.880881 3.75648,0.704719 6.64509,-0.974307 6.64509,-3.862506 0,-1.35245 -0.18708,-1.492013 -1.40625,-1.049107 -0.77344,0.280982 -2.86769,0.488775 -4.65388,0.461769 -2.95127,-0.04463 -3.48653,-0.287994 -5.86546,-2.666938 -2.46005,-2.460049 -2.63628,-2.875556 -2.92378,-6.893722 -0.38957,-5.444736 0.49531,-7.979233 3.67504,-10.52626 3.28699,-2.632931 6.33282,-3.211969 9.08869,-1.727836 1.7315,0.932475 2.36882,0.997977 3.72001,0.382333 3.10526,-1.414854 3.36563,-0.491756 3.36563,11.932345 0,12.890503 -0.35471,14.221603 -4.50725,16.914159 -2.71244,1.758781 -6.28061,2.182663 -9.03251,1.073019 z m 6.34267,-13.489194 C 283.73842,62.191245 281.83757,51.875 276.58638,51.875 c -3.40489,0 -4.88896,1.716552 -5.18805,6.000791 -0.14156,2.02769 0.0443,4.467696 0.41306,5.422234 1.07,2.7699 4.56453,3.717319 7.24152,1.963281 z m -144.75826,4.735082 c -2.98537,-1.577525 -4.98695,-5.080963 -5.38161,-9.419652 -0.45465,-4.998312 1.26718,-8.653294 5.25652,-11.158092 3.31976,-2.084402 5.45903,-2.35432 8.50676,-1.073325 5.48097,2.303708 8.13116,8.059825 6.68839,14.526919 -1.52777,6.848106 -8.95123,10.357437 -15.07006,7.12415 z m 8.64854,-4.502657 c 2.80918,-2.621812 2.43383,-10.533239 -0.60057,-12.658618 -2.30531,-1.614701 -5.1344,-1.224067 -6.97475,0.963057 -3.21356,3.819106 -2.97843,8.423366 0.5988,11.725574 2.53101,2.336425 4.44982,2.328169 6.97652,-0.03 z m 16.74431,5.304013 c -0.6875,-0.168988 -1.57008,-0.56655 -1.9613,-0.883475 -0.44166,-0.357788 -1.3231,-0.297457 -2.32524,0.15915 -1.26095,0.574525 -1.82304,0.561831 -2.56995,-0.05806 -1.47399,-1.2233 -1.41781,-26.964278 0.0621,-28.444164 0.55995,-0.559947 1.4267,-0.861286 1.92612,-0.669642 0.49943,0.19165 1.02567,0.34845 1.16943,0.34845 0.14375,0 0.26138,1.78125 0.26138,3.958333 0,2.177084 0.15159,4.109925 0.33687,4.295202 0.18527,0.185277 1.36974,-0.189723 2.63215,-0.833333 3.25012,-1.657005 5.20122,-1.463401 8.67752,0.861048 3.46315,2.31566 4.75801,5.050771 4.8082,10.15625 0.0792,8.05205 -5.63111,12.925781 -13.01724,11.110244 z m 6.07092,-5.109888 c 1.89145,-1.690006 2.02901,-2.08695 2.04111,-5.889531 0.0159,-4.990897 -1.46851,-7.497874 -4.62431,-7.809973 -4.11463,-0.406925 -6.76046,3.495734 -6.13456,9.048622 0.32245,2.860801 1.73315,4.986595 3.89684,5.872176 2.05269,0.84015 2.69622,0.677125 4.82092,-1.221294 z m 28.18778,4.64715 c -1.09521,-0.476337 -2.76421,-2.034018 -3.70888,-3.461512 -1.5056,-2.275113 -1.71758,-3.1984 -1.71758,-7.480958 0,-5.774862 0.78167,-7.318993 5.11409,-10.102563 2.50317,-1.608275 3.33729,-1.830264 5.74117,-1.52792 2.33257,0.293374 3.31909,0.879851 5.78125,3.436875 2.42446,2.517879 2.98232,3.521359 3.04276,5.473355 0.0407,1.314619 -0.0147,2.671467 -0.12326,3.015217 -0.1085,0.34375 -0.14279,1.770333 -0.0762,3.170181 0.28355,5.960994 -7.73286,10.226263 -14.05334,7.477325 z m 6.69131,-3.778975 c 1.91642,-0.991019 3.11249,-2.663687 3.11249,-4.352719 0,-0.855279 -0.76217,-0.976996 -5.14934,-0.822338 -6.08509,0.214513 -6.87122,1.164839 -3.50612,4.238395 2.34569,2.14245 2.99806,2.252687 5.54297,0.936662 z m 2.47792,-10.774781 c -0.0188,-2.146317 -2.36444,-3.90625 -5.20628,-3.90625 -1.47144,0 -4.78415,3.062607 -4.78415,4.422953 0,0.317376 2.25,0.577047 5,0.577047 4.34888,0 4.99876,-0.142432 4.99043,-1.09375 z m 90.23876,14.269963 c -3.6439,-2.221944 -3.97919,-3.254382 -3.97919,-12.252779 0,-7.986248 0.3801,-9.689767 2.15625,-9.663863 2.18588,0.03187 2.53096,1.183541 2.84375,9.490735 l 0.3125,8.299431 1.83925,0.879488 c 1.58501,0.757919 2.06018,0.755881 3.4375,-0.01469 2.19282,-1.226856 3.08386,-4.256368 3.12547,-10.626528 0.0381,-5.83749 1.16884,-8.523111 3.25187,-7.723778 1.42152,0.545468 1.78341,3.009856 1.78341,12.144438 0,8.999906 -0.60339,10.811412 -3.21278,9.645362 -1.08165,-0.48335 -1.97449,-0.442625 -3.34972,0.152794 -2.70836,1.1726 -5.95772,1.041725 -8.20831,-0.330612 z m 28.10044,0.572206 c -1.68707,-0.680044 -4.58849,-4.852982 -4.554,-6.54975 0.0141,-0.693644 1.08443,-2.431051 2.37852,-3.860906 1.96532,-2.171511 2.86191,-2.667144 5.44312,-3.00896 5.8615,-0.776206 6.52773,-1.001643 6.52773,-2.20882 0,-1.715479 -1.71811,-3.119983 -3.81663,-3.119983 -2.09266,0 -4.93337,1.616805 -4.93337,2.807853 0,0.434 -0.42188,1.139216 -0.9375,1.567147 -1.49129,1.237661 -3.01623,-0.387597 -2.55016,-2.717924 0.49383,-2.46917 1.43935,-3.509184 4.42516,-4.867399 3.53696,-1.608925 5.88346,-1.44011 9.19769,0.661708 2.82629,1.792386 2.88693,1.900007 3.25723,5.78125 0.20752,2.175176 0.44319,5.620145 0.5237,7.65549 0.0907,2.293863 0.44337,3.798588 0.92763,3.958331 0.59917,0.19765 0.78125,-1.7105 0.78125,-8.18723 0,-6.843885 0.1862,-8.631142 0.98214,-9.427083 1.21592,-1.215912 2.39012,-1.252879 3.34258,-0.10523 0.62309,0.750781 1.07841,0.739177 3.16555,-0.08067 3.10539,-1.219831 4.53254,-0.719948 4.27034,1.495758 -0.15895,1.343136 -0.71363,1.845177 -2.80572,2.539425 -3.3088,1.098003 -3.95162,2.787259 -3.96446,10.418091 -0.005,3.128393 -0.2162,5.997681 -0.46875,6.376187 -0.55965,0.838788 -8.16147,0.974069 -9.66365,0.171981 -0.72194,-0.385475 -1.83404,-0.261106 -3.35759,0.375469 -2.49193,1.0412 -6.04393,1.1826 -8.17081,0.325269 z m 6.68755,-4.152356 c 2.08756,-1.389994 3.10782,-2.732857 3.10782,-4.090519 0,-0.89036 -0.49793,-1.129803 -2.34375,-1.127058 -1.28906,0.0019 -3.39844,0.296387 -4.6875,0.654377 -1.88373,0.523136 -2.34375,0.947893 -2.34375,2.164056 0,1.008006 0.57379,1.824444 1.71875,2.4456 2.21276,1.200437 2.68299,1.195637 4.54843,-0.04644 z m 41.23282,4.106531 c -1.20313,-0.34895 -2.82467,-1.3951 -3.60343,-2.324775 -0.77876,-0.929675 -1.90376,-2.202156 -2.5,-2.827738 -0.94678,-0.993381 -1.08407,-2.567331 -1.08407,-12.428497 0,-10.072619 0.11803,-11.365891 1.09375,-11.984382 0.79675,-0.505045 1.39075,-0.506532 2.1875,-0.0055 0.95011,0.597498 1.13479,2.082633 1.40625,11.308354 0.33694,11.451046 0.47484,11.928771 3.9643,13.73324 2.24717,1.162062 6.9477,0.807543 8.38786,-0.632625 1.98173,-1.981725 2.62885,-5.565662 2.63843,-14.612454 0.009,-8.132718 0.11148,-8.938886 1.216,-9.530011 0.92192,-0.493393 1.45591,-0.396446 2.26325,0.410896 0.93393,0.933929 1.02286,2.294792 0.76575,11.717511 -0.33461,12.263108 -0.9768,14.449445 -4.78272,16.282933 -2.71666,1.308737 -8.9213,1.7723 -11.95287,0.893025 z M 98.541669,70.208331 C 98.3125,69.979169 98.125,63.37515 98.125,55.532741 l 0,-14.258926 1.517394,-0.380841 c 3.184426,-0.79924 3.895296,0.03584 7.114776,8.357859 1.68872,4.365167 3.23761,8.639792 3.44197,9.499167 0.20437,0.859375 0.7676,2.103945 1.25162,2.765711 0.82903,1.133458 0.92577,1.060989 1.66866,-1.25 0.43374,-1.349266 1.15462,-2.875086 1.60196,-3.390711 0.44734,-0.515625 1.38652,-3.006445 2.08707,-5.535156 0.70054,-2.528711 1.60182,-4.992996 2.00284,-5.476189 0.40101,-0.483193 1.18409,-1.789248 1.74016,-2.902344 0.76348,-1.528247 1.48321,-2.069887 2.93928,-2.211977 3.29415,-0.321458 3.42523,0.293375 3.24043,15.199544 -0.15083,12.165403 -0.28428,13.676285 -1.26241,14.292816 -0.79615,0.501831 -1.39135,0.502225 -2.1875,0.0012 -0.9189,-0.577975 -1.14371,-1.962275 -1.40625,-8.659309 -0.29254,-7.462207 -0.37807,-7.897104 -1.33917,-6.808852 -0.56467,0.639378 -1.60765,3.236806 -2.31775,5.772064 -0.7101,2.535259 -1.67027,5.066509 -2.13373,5.625003 -0.46346,0.558487 -1.17225,1.788875 -1.5751,2.734187 -0.5148,1.208007 -1.18747,1.71875 -2.26371,1.71875 C 110.53047,70.625 108.75,69.147325 108.75,67.723931 108.75,66.2856 103.60976,53.75 103.01997,53.75 c -0.28598,0 -0.51997,3.626159 -0.51997,8.058132 0,6.771405 -0.15786,8.118712 -0.98862,8.437499 -1.29259,0.496013 -2.450949,0.481469 -2.969711,-0.03731 z M 175.125,69.875 c -0.51767,-0.517669 -0.75,-3.698413 -0.75,-10.267857 0,-7.819264 0.17527,-9.693134 0.98214,-10.5 1.20679,-1.206784 1.20394,-1.206784 2.41072,0 0.80687,0.806866 0.98214,2.680736 0.98214,10.5 0,9.380919 -0.325,11.017857 -2.1875,11.017857 -0.37813,0 -1.025,-0.3375 -1.4375,-0.75 z m 6.81412,-0.110237 c -0.49896,-0.601207 -0.66314,-4.956375 -0.54528,-14.463641 0.15083,-12.165404 0.28428,-13.676285 1.26241,-14.292818 0.79729,-0.502547 1.39021,-0.502547 2.1875,0 0.97813,0.616534 1.11158,2.127414 1.26241,14.292818 C 186.2803,69.347638 186.0839,70.625 183.75,70.625 c -0.60332,0 -1.41821,-0.387106 -1.81088,-0.860237 z m 36.90795,0.03969 c -0.5024,-0.605356 -0.36991,-1.465838 0.5052,-3.28125 0.6524,-1.353394 1.62626,-3.984037 2.16413,-5.845873 0.53787,-1.861838 1.38077,-3.830588 1.87313,-4.375 0.49236,-0.544412 1.47142,-3.06979 2.17569,-5.611951 0.70428,-2.542161 1.70897,-5.095557 2.23264,-5.674213 0.52368,-0.578643 0.95214,-1.337916 0.95214,-1.687259 0,-0.349343 0.55117,-1.133969 1.22482,-1.743613 1.67413,-1.515069 4.23535,-0.815492 5.12812,1.400701 0.37699,0.935829 1.04523,2.545258 1.485,3.576508 3.32935,7.80743 4.66206,11.210435 4.66206,11.904392 0,0.442974 0.77344,2.305076 1.71875,4.138008 l 1.71875,3.3326 0.17642,-7.772766 c 0.10805,-4.760207 0.45971,-8.114108 0.90734,-8.653468 0.51364,-0.618896 1.4463,-0.766307 3.13744,-0.495883 1.66333,0.265978 2.82542,0.09141 3.76297,-0.565283 0.74606,-0.522555 2.18324,-0.9501 3.19374,-0.9501 2.1907,0 6.93117,2.636169 7.55652,4.202183 0.24386,0.610675 0.59667,4.501991 0.78401,8.647371 0.37797,8.363465 -0.15297,10.495452 -2.52948,10.157121 -1.30009,-0.185081 -1.3789,-0.564569 -1.68297,-8.104506 C 259.64186,53.683266 258.89873,51.875 255.6672,51.875 c -1.58758,0 -4.25027,1.424656 -5.18888,2.776273 -0.25255,0.363674 -0.46349,3.790852 -0.46875,7.615949 -0.007,4.826353 -0.24866,7.133228 -0.79082,7.538003 -0.42969,0.320806 -2.43748,0.566181 -4.46174,0.545281 -4.01917,-0.0415 -3.8287,0.120963 -5.90615,-5.038006 l -1.2584,-3.125 -5.62187,-0.179051 c -5.38565,-0.171527 -5.6402,-0.119001 -6.05766,1.250001 -0.23968,0.785975 -0.79112,1.850925 -1.22543,2.36655 -0.43431,0.515625 -1.00145,1.640625 -1.26031,2.5 -0.74874,2.485637 -3.17323,3.374662 -4.58012,1.679462 z m 15.6673,-12.636998 c 0.7077,-0.27157 0.5912,-1.188417 -0.63535,-5 C 233.05294,49.600353 232.15686,47.5 231.88773,47.5 c -0.26914,0 -0.79813,1.226338 -1.17555,2.725196 -0.37742,1.498857 -1.11393,3.08017 -1.63669,3.514028 -0.98059,0.813812 -1.2674,2.610534 -0.53382,3.344109 0.49675,0.496754 4.7416,0.556538 5.9727,0.08412 z m 77.01593,12.66151 c -0.16801,-0.437818 -0.22949,-6.946456 -0.13663,-14.46364 0.14772,-11.959213 0.299,-13.74965 1.21019,-14.323971 0.75534,-0.476089 1.31325,-0.430724 2.03125,0.16517 0.84896,0.704575 0.98989,2.803168 0.98989,14.740639 0,12.115846 -0.12808,13.968253 -0.98862,14.298471 -1.57492,0.604356 -2.77611,0.443225 -3.10608,-0.416668 z m 79.11669,-0.412875 C 390.26137,68.695562 390,63.032544 390,55.398231 c 0,-10.811162 0.15318,-12.962128 0.98214,-13.791088 1.16193,-1.161931 1.24547,-1.171899 2.80895,-0.335153 1.13837,0.609236 1.20891,1.440763 1.20891,14.25 0,9.746785 -0.21261,13.815623 -0.75,14.35301 -1.12616,1.126163 -2.87384,0.903562 -3.60301,-0.458913 z M 175.46875,46.199938 c -1.51411,-0.881891 -1.44051,-4.095379 0.11284,-4.926709 2.43442,-1.302855 4.25718,2.54871 2.18627,4.619628 -0.54018,0.540179 -1.03237,0.97359 -1.09375,0.963137 -0.0614,-0.01045 -0.6038,-0.305678 -1.20536,-0.656056 z"
       id="path3955"
       inkscape:connector-curvature="0" />
    <path
       style="fill:#a1d7ed"
       d="M 9.53125,80.836075 C 8.38237,80.372494 8.5675463,78.558219 10.275679,73.542481 11.114803,71.078494 12.113671,67.234375 12.495386,65 c 0.381715,-2.234375 1.51476,-6.59375 2.517878,-9.6875 1.003117,-3.09375 2.285403,-7.734375 2.849525,-10.3125 0.564121,-2.578125 1.238939,-4.96875 1.499594,-5.3125 0.260656,-0.34375 0.821462,-2.107434 1.246236,-3.919298 0.461028,-1.966503 1.233192,-3.54095 1.91576,-3.90625 C 23.153274,31.525379 27.623813,31.25 32.458912,31.25 c 9.972199,0 10.87792,0.374867 11.618819,4.808889 0.531513,3.180925 1.72212,6.296288 2.451843,6.415539 0.325642,0.05321 1.223417,-2.090812 1.995057,-4.764506 0.771641,-2.673694 1.8949,-5.22096 2.496132,-5.660592 0.766928,-0.560792 3.757658,-0.79933 10.021785,-0.79933 8.578846,0 8.963514,0.05509 9.819002,1.40625 0.489706,0.773437 2.202606,6.1875 3.80645,12.03125 1.60385,5.84375 3.576569,12.734375 4.383825,15.3125 0.807256,2.578125 1.911194,6.886894 2.453187,9.575037 0.541994,2.688144 1.409469,5.492913 1.927719,6.232819 1.237044,1.766125 1.211282,4.580181 -0.04637,5.062775 -1.302075,0.499657 -15.493175,0.491025 -16.799387,-0.01019 -1.507069,-0.578319 -3.248006,-4.424057 -4.0746,-9.000794 -0.402013,-2.225919 -1.014353,-4.744119 -1.360752,-5.596 -0.540896,-1.330206 -0.710073,-1.405469 -1.198296,-0.533063 -0.312664,0.5587 -1.003382,3.083819 -1.534929,5.611382 -1.282025,6.096162 -2.720918,9.241044 -4.423626,9.6684 -1.745163,0.438006 -16.895661,0.05131 -17.388402,-0.443831 -0.203058,-0.204044 -0.957173,-3.157169 -1.67581,-6.5625 C 33.637371,67.876156 32.732741,65.73295 31.844326,66.692288 31.177098,67.412781 28.125,76.8162 28.125,78.151462 c 0,2.63365 -1.516656,3.101325 -9.888393,3.049194 -4.358259,-0.02714 -8.2756695,-0.1912 -8.705357,-0.364581 z M 273.31889,78.251044 C 271.70584,77.734175 267.5,74.122975 267.5,73.254863 c 0,-0.330994 0.45136,-0.9764 1.00301,-1.434238 0.86551,-0.7183 1.23204,-0.551819 2.67347,1.2143 1.90173,2.330087 5.76211,3.269 8.16133,1.984975 1.47192,-0.787744 3.16219,-4.123075 3.16219,-6.239794 0,-1.255237 -0.01,-1.25505 -2.51171,0.04912 -3.70856,1.933013 -7.15923,1.263506 -10.35225,-2.00855 l -2.44854,-2.50915 0,-5.213806 0,-5.213805 L 270,51.372872 c 3.56523,-3.183093 5.56109,-3.611109 9.24339,-1.982255 1.94404,0.859943 3.05735,1.05864 3.49264,0.623347 0.35143,-0.351428 1.14522,-0.638964 1.76397,-0.638964 1.04178,0 1.125,0.834483 1.125,11.281038 0,12.441768 -0.26144,13.558231 -3.78174,16.149931 -2.1023,1.547737 -6.09281,2.224218 -8.52437,1.445075 z m 6.12528,-12.453825 c 2.67936,-1.582738 3.79855,-6.255572 2.3892,-9.975281 -1.52461,-4.023867 -4.46481,-5.441524 -8.27848,-3.991568 -2.4724,0.940001 -3.59706,5.927507 -2.53458,11.23993 0.68463,3.423144 4.92275,4.795081 8.42386,2.726919 z M 135.1962,69.746644 c -1.09521,-0.496488 -2.78271,-2.098613 -3.75,-3.560281 -1.48035,-2.236957 -1.7587,-3.307776 -1.7587,-6.76572 0,-5.407569 1.60422,-8.121929 5.88978,-9.965522 3.8555,-1.658593 6.32304,-1.265043 9.83953,1.569312 2.08097,1.677307 2.73527,2.709796 3.25603,5.138058 1.14434,5.335836 -0.4863,10.549878 -4.02436,12.868103 -2.2224,1.456168 -7.01821,1.819475 -9.45228,0.71605 z m 8.00436,-3.252519 c 0.64378,-0.582619 1.62622,-2.504975 2.1832,-4.271901 0.98106,-3.112317 0.96825,-3.31586 -0.41051,-6.520888 C 143.48684,52.246077 142.10142,51.25 138.78204,51.25 c -1.27104,0 -2.41032,0.718074 -4.09125,2.578651 -2.23925,2.478595 -2.31921,2.722978 -2.0606,6.298209 0.24337,3.364534 0.49867,3.929921 2.67481,5.923521 2.05929,1.886563 2.71678,2.1535 4.56539,1.853506 1.18781,-0.19275 2.68638,-0.827143 3.33017,-1.409762 z m 16.60323,3.495519 c -0.96729,-0.29035 -2.15476,-0.856607 -2.63882,-1.258344 -0.68473,-0.568269 -1.10683,-0.503731 -1.90126,0.290706 -0.78908,0.789081 -1.21915,0.856813 -1.89243,0.298038 C 152.67993,68.746275 152.5,66.041869 152.5,56.224589 c 0,-6.804795 0.17071,-12.817232 0.37937,-13.360972 0.20865,-0.543739 0.91177,-0.988617 1.5625,-0.988617 1.04816,0 1.18313,0.499089 1.18313,4.375 0,4.745404 0.41998,5.199326 3.08406,3.333333 2.26921,-1.589425 6.16462,-1.323305 9.26335,0.632841 1.45892,0.920978 2.65259,1.797882 2.65259,1.948672 0,0.150791 0.40121,1.814521 0.89158,3.697178 0.74872,2.874528 0.76104,3.984554 0.0769,6.927526 -0.9197,3.956444 -2.24458,5.7472 -5.16718,6.984213 -2.23551,0.946187 -3.99816,1.003643 -6.62254,0.215881 z m 6.49912,-3.796275 c 2.63625,-2.822132 3.42851,-6.329769 2.1725,-9.61858 C 167.00006,52.711621 165.38306,51.25 162.5846,51.25 c -2.60661,0 -4.16156,1.277168 -6.01507,4.940492 -1.29429,2.558064 -0.96722,5.42649 0.97755,8.573189 2.3622,3.822119 5.97057,4.411306 8.75583,1.429688 z m 29.32209,4.054843 c -4.70057,-1.702812 -6.40785,-4.4883 -6.47963,-10.571805 -0.0644,-5.462246 1.38675,-8.159175 5.49423,-10.210545 4.03738,-2.016368 6.75639,-1.39651 10.20415,2.326263 2.34802,2.535316 2.65625,3.211899 2.65625,5.830668 l 0,2.962538 -7.34375,0.176085 c -7.18753,0.172338 -7.3482,0.20753 -7.55289,1.654256 -0.14272,1.008697 0.45279,2.166784 1.875,3.646297 1.83677,1.910781 2.36808,2.131075 4.4764,1.856043 2.76267,-0.3604 4.51673,-1.723262 5.07362,-3.942087 0.2918,-1.162631 0.73983,-1.507214 1.76858,-1.36025 0.75777,0.108256 1.4605,0.631481 1.56161,1.162725 0.19683,1.034144 -2.78517,5.325469 -4.06971,5.856625 -1.31298,0.542919 -6.6738,0.971844 -7.66386,0.613187 z M 203.75,56.00674 c 0,-2.339608 -1.89769,-4.1699 -4.71531,-4.547821 -2.17637,-0.291912 -2.78566,-0.08452 -4.52486,1.540129 -1.10541,1.032605 -2.00983,2.467749 -2.00983,3.189208 0,1.235159 0.32841,1.311744 5.625,1.311744 5.51378,0 5.625,-0.02952 5.625,-1.49326 z m 90.625,13.97196 c -0.85938,-0.337119 -2.19531,-1.542331 -2.96875,-2.678244 C 290.13973,65.440369 290,64.485838 290,57.694103 c 0,-5.685969 0.21433,-7.718928 0.87128,-8.264149 0.67271,-0.558295 1.10005,-0.494338 1.875,0.280615 0.80761,0.807603 1.00372,2.437058 1.00372,8.339618 0,8.304775 0.38556,9.286701 3.86836,9.851882 1.93887,0.314631 2.53783,0.118806 3.79906,-1.242088 1.77642,-1.916787 2.93115,-6.565424 3.12763,-12.59102 0.11727,-3.596282 0.3358,-4.405403 1.2362,-4.577077 1.00482,-0.191583 1.09375,0.6053 1.09375,9.800403 0,10.215444 -0.46835,12.226988 -2.27238,9.759838 -0.77839,-1.064531 -0.90775,-1.070969 -1.98211,-0.09869 -1.40656,1.272925 -6.12012,1.859013 -8.24551,1.025263 z m 27.5,0.08961 c -1.64553,-0.455043 -3.66731,-3.758268 -3.71998,-6.077775 C 318.08319,60.827329 322.7244,57.5 327.20851,57.5 c 2.99846,0 4.66649,-0.978562 4.66649,-2.737623 0,-2.076981 -1.90558,-3.512377 -4.66291,-3.512377 -1.92404,0 -2.78557,0.433217 -4.52112,2.273429 -2.45943,2.607762 -3.86114,2.212799 -2.8835,-0.812492 1.30316,-4.032563 8.94979,-5.533896 12.88764,-2.530349 2.44898,1.867928 2.91236,3.664475 2.92301,11.332699 0.005,3.651113 0.26906,5.2405 1.00561,6.054369 0.5493,0.606969 0.81395,1.40255 0.58811,1.767963 -0.59533,0.963268 -2.88503,0.814506 -4.07779,-0.264932 -0.91273,-0.826 -1.29764,-0.791262 -3.46261,0.3125 -2.46323,1.255832 -4.94426,1.473857 -7.79644,0.685125 z m 7.71807,-3.819243 c 2.08817,-1.833438 3.1121,-4.280826 2.32429,-5.555525 -0.47173,-0.763286 -7.36235,0.08165 -9.35266,1.14683 -2.14325,1.147032 -1.67932,4.09057 0.8728,5.537782 2.07926,1.179075 3.90896,0.843463 6.15557,-1.129087 z m 39.46943,3.403862 c -1.78767,-0.681018 -3.03424,-1.791225 -4.375,-3.896406 -1.85361,-2.910438 -1.87737,-3.058531 -2.083,-12.9808 -0.17011,-8.208674 -0.0422,-10.174338 0.70204,-10.792033 0.50051,-0.415392 1.34008,-0.59023 1.86571,-0.388528 0.79536,0.305209 0.99213,2.204252 1.17296,11.320426 l 0.21729,10.953697 1.875,1.512625 c 1.03125,0.831944 2.90222,1.825763 4.1577,2.208494 1.91546,0.583919 2.66826,0.506938 4.67926,-0.478519 1.3181,-0.645912 3.03307,-2.130043 3.81104,-3.298062 1.30644,-1.961451 1.41523,-2.820841 1.42407,-11.250002 0.01,-9.485037 0.36125,-11.159931 2.19332,-10.456902 0.97964,0.375924 1.05335,1.406255 0.80022,11.184823 -0.30933,11.949237 -0.87153,14.022075 -4.28131,15.785337 -2.75945,1.426969 -9.1328,1.728807 -12.1593,0.57585 z M 99.047769,69.249487 C 98.869875,68.785894 98.800412,62.366671 98.893412,54.984546 L 99.0625,41.5625 l 1.47834,-0.209166 c 0.81308,-0.115041 1.76025,0.07275 2.10481,0.417316 0.65596,0.655959 6.72935,15.547046 6.72935,16.499405 0,1.267184 2.63711,6.209789 3.04726,5.711339 0.24616,-0.299138 0.82082,-1.668894 1.27702,-3.043894 0.45619,-1.375 1.16808,-2.921875 1.58197,-3.4375 0.41389,-0.515625 1.26126,-2.765625 1.88305,-5 0.62178,-2.234375 1.60853,-4.765625 2.19277,-5.625 0.58425,-0.859375 1.25345,-2.331654 1.48712,-3.271731 0.49111,-1.975812 3.00509,-2.942632 4.47643,-1.721533 0.76814,0.637504 0.92772,3.007981 0.91981,13.663542 -0.005,7.090722 -0.2499,13.27146 -0.54364,13.734966 -0.29374,0.463512 -1.06287,0.7414 -1.70918,0.617525 -1.07453,-0.205944 -1.20392,-1.080438 -1.51178,-10.217746 -0.18517,-5.495887 -0.39611,-9.680208 -0.46875,-9.29849 -0.0726,0.381718 -0.81422,1.699224 -1.64795,2.927791 -0.83373,1.228568 -1.96557,4.010003 -2.51522,6.180967 -0.54964,2.170965 -1.555,4.709259 -2.23413,5.640653 -0.67913,0.931393 -1.23478,2.070456 -1.23478,2.53125 0,1.186381 -1.29947,2.337806 -2.6384,2.337806 -1.22301,0 -1.28252,-0.1138 -4.24856,-8.125 -1.08178,-2.921875 -2.71696,-7 -3.63371,-9.0625 l -1.66683,-3.75 -0.3125,10.304976 c -0.27836,9.179174 -0.4322,10.327911 -1.40814,10.514943 -0.602604,0.115481 -1.241191,-0.169338 -1.419091,-0.632932 z M 175.75,69.25 c -0.78978,-0.789781 -1.10724,-16.966795 -0.37063,-18.886383 0.4889,-1.274068 1.87735,-1.274068 2.36626,0 0.20866,0.54374 0.37937,4.739487 0.37937,9.323883 0,9.995688 -0.38633,11.551169 -2.375,9.5625 z m 6.56803,0.3597 c -0.24367,-0.243669 -0.44303,-6.408594 -0.44303,-13.699839 0,-11.021357 0.15809,-13.388006 0.9375,-14.034861 0.74849,-0.621187 1.12892,-0.619188 1.88695,0.0099 0.80561,0.6686 0.92397,2.834214 0.78125,14.295277 -0.16261,13.058006 -0.21064,13.513382 -1.44392,13.689919 -0.70164,0.100438 -1.47508,-0.01675 -1.71875,-0.260412 z m 37.30463,-0.490788 c -0.18595,-0.4846 0.0746,-1.679912 0.5791,-2.65625 0.50446,-0.976337 1.24515,-3.040787 1.64597,-4.587662 0.40082,-1.546875 1.21744,-3.515625 1.81471,-4.375 0.59728,-0.859375 1.6077,-3.390625 2.24539,-5.625 0.63769,-2.234375 1.60735,-4.765625 2.15481,-5.625 0.54745,-0.859375 1.33437,-2.335938 1.7487,-3.28125 0.4564,-1.041324 1.24029,-1.71875 1.98885,-1.71875 1.3625,0 3.19797,1.547712 3.20306,2.700893 0.002,0.405134 1.26741,3.791502 2.8125,7.525262 1.54509,3.73376 2.80925,7.054222 2.80925,7.378804 0,0.324583 0.84375,2.290739 1.875,4.369235 1.03125,2.0785 1.875,4.472031 1.875,5.318962 0,1.29205 -0.26128,1.508044 -1.62351,1.342106 -1.38718,-0.168975 -1.80981,-0.767956 -2.90347,-4.114937 -1.48926,-4.557692 -1.69854,-4.661366 -8.8681,-4.39314 l -4.95338,0.185315 -2.13367,4.21875 c -2.04578,4.044962 -3.54817,5.219256 -4.27021,3.337662 z m 16.24475,-11.505495 c 0.57289,-0.92697 -3.1362,-11.050917 -4.04872,-11.050917 -0.47524,0 -0.96176,0.5625 -1.08115,1.25 -0.1194,0.6875 -1.05773,3.001635 -2.08518,5.142522 -1.02745,2.140887 -1.69046,4.179949 -1.47335,4.53125 0.46733,0.75614 8.22945,0.869731 8.6884,0.127146 z m 11.16384,11.969914 c -0.5778,-0.231118 -0.78125,-2.826837 -0.78125,-9.96753 0,-8.041819 0.15798,-9.715652 0.94546,-10.017838 0.52,-0.199544 1.3348,-0.03968 1.81066,0.355248 0.66662,0.553248 1.51502,0.402355 3.69637,-0.65743 2.77774,-1.349528 2.8856,-1.354699 5.7153,-0.274029 4.31048,1.646192 4.85999,2.90435 5.15298,11.798476 0.25637,7.781959 -0.15186,9.666128 -1.9452,8.977959 -0.82853,-0.317937 -1.00057,-1.499687 -1.00057,-6.872806 0,-6.977774 -0.71084,-10.092855 -2.52465,-11.063574 -1.92775,-1.0317 -4.57001,-0.642593 -6.53785,0.962784 -1.85851,1.516188 -1.87775,1.596602 -2.1875,9.146222 -0.30124,7.342193 -0.59931,8.3103 -2.34375,7.612518 z m 65.28202,0.02163 c -0.24105,-0.241068 -0.43827,-6.548825 -0.43827,-14.017255 0,-11.184399 0.15726,-13.639313 0.89181,-13.921182 1.98707,-0.762513 2.2604,1.154367 2.0896,14.6546 -0.14511,11.468687 -0.30532,13.376262 -1.13688,13.536068 -0.53239,0.102313 -1.16521,-0.01119 -1.40625,-0.25225 z m 26.87976,0.005 c -0.53921,-0.539212 -0.5965,-17.857536 -0.0637,-19.246083 0.42882,-1.117509 2.17247,-1.311772 3.13497,-0.349273 0.4358,0.435791 1.39425,0.323922 3.01046,-0.351371 4.54124,-1.897451 5.86401,0.74832 1.36836,2.736958 -1.50252,0.664634 -2.97136,1.591857 -3.2641,2.060497 -0.29274,0.46864 -0.6806,4.086447 -0.86191,8.039572 -0.30419,6.63245 -0.42817,7.2016 -1.60537,7.370113 -0.70164,0.100437 -1.47508,-0.01675 -1.71875,-0.260413 z m 52.47364,-0.02638 C 391.4375,69.354169 391.25,63.006481 391.25,55.477364 l 0,-13.689303 1.40625,0.19972 c 1.39794,0.198538 1.4073,0.273627 1.58341,12.699719 0.0974,6.875 0.0217,13.132813 -0.16816,13.90625 -0.33291,1.355719 -1.54141,1.853013 -2.40483,0.989581 z M 175.22602,44.6875 c -0.50238,-1.309163 0.1818,-2.8125 1.27998,-2.8125 1.25405,0 1.77962,1.009311 1.30472,2.505593 -0.46414,1.462387 -2.06821,1.652854 -2.5847,0.306907 z"
       id="path3953"
       inkscape:connector-curvature="0" />
    <path
       style="fill:#62c5ea"
       d="M 38.685743,80.183 C 36.968078,79.92085 37.094835,80.264387 34.928478,70 34.038501,65.783206 33.051697,63.670656 32.068487,63.877331 31.065562,64.08815 28.758175,70.300988 27.53143,76.09375 L 26.704196,80 18.388984,80 c -4.573367,0 -8.4701427,-0.250681 -8.6595021,-0.557075 -0.1893594,-0.306387 0.1920469,-1.78295 0.8475691,-3.28125 0.655522,-1.498294 1.819252,-5.817925 2.586065,-9.599175 0.766815,-3.78125 1.738445,-7.4375 2.159178,-8.125 0.420734,-0.6875 1.118817,-3.078125 1.551297,-5.3125 0.432479,-2.234375 1.561726,-6.59375 2.509438,-9.6875 0.947713,-3.09375 1.975922,-6.605807 2.28491,-7.80457 0.3434,-1.332267 1.161005,-2.482781 2.103179,-2.959537 1.586963,-0.80303 14.050327,-1.11417 16.654415,-0.415766 1.479878,0.396896 2.898018,3.32011 3.60446,7.429873 0.236354,1.375 0.950097,3.484375 1.586096,4.6875 l 1.156362,2.1875 0.746882,-1.875 c 0.410785,-1.03125 1.347921,-4.113212 2.082525,-6.848804 1.138398,-4.239289 1.566387,-5.037696 2.898142,-5.40645 2.444609,-0.676896 15.575187,-0.627884 16.866038,0.06296 1.283943,0.687147 1.287787,0.698156 5.022937,14.379798 1.454606,5.328125 3.33625,12.004999 4.181444,14.837497 0.845187,2.832497 1.931618,7.051247 2.414287,9.374997 0.482669,2.323756 1.372006,5.149712 1.9763,6.279906 1.577406,2.950169 0.650669,3.287606 -8.5191,3.101937 C 68.277631,80.344519 66.606787,80.1211 66.2578,79.375 c -0.241188,-0.515625 -0.818181,-1.640625 -1.282219,-2.5 -0.464037,-0.859375 -1.427275,-4.234375 -2.140519,-7.5 -1.07735,-4.932656 -1.495518,-5.9375 -2.470912,-5.9375 -0.969785,0 -1.413663,1.033206 -2.550825,5.9375 -0.757203,3.265625 -1.844366,6.992187 -2.415916,8.28125 L 54.358225,80 48.167729,80 c -3.404772,0 -6.56506,0.09704 -7.022862,0.215637 -0.457802,0.118594 -1.564408,0.103913 -2.459125,-0.03262 z M 273.31889,78.251044 C 271.70584,77.734175 267.5,74.122975 267.5,73.254863 c 0,-0.330994 0.45136,-0.9764 1.00301,-1.434238 0.86551,-0.7183 1.23204,-0.551819 2.67347,1.2143 1.90173,2.330087 5.76211,3.269 8.16133,1.984975 1.47192,-0.787744 3.16219,-4.123075 3.16219,-6.239794 0,-1.255237 -0.01,-1.25505 -2.51171,0.04912 -3.70856,1.933013 -7.15923,1.263506 -10.35225,-2.00855 l -2.44854,-2.50915 0,-5.213806 0,-5.213805 L 270,51.372872 c 3.56523,-3.183093 5.56109,-3.611109 9.24339,-1.982255 1.94404,0.859943 3.05735,1.05864 3.49264,0.623347 0.35143,-0.351428 1.14522,-0.638964 1.76397,-0.638964 1.04178,0 1.125,0.834483 1.125,11.281038 0,12.441768 -0.26144,13.558231 -3.78174,16.149931 -2.1023,1.547737 -6.09281,2.224218 -8.52437,1.445075 z m 6.12528,-12.453825 c 2.67936,-1.582738 3.79855,-6.255572 2.3892,-9.975281 -1.52461,-4.023867 -4.46481,-5.441524 -8.27848,-3.991568 -2.4724,0.940001 -3.59706,5.927507 -2.53458,11.23993 0.68463,3.423144 4.92275,4.795081 8.42386,2.726919 z M 135.1962,69.746644 c -1.09521,-0.496488 -2.78271,-2.098613 -3.75,-3.560281 -1.48035,-2.236957 -1.7587,-3.307776 -1.7587,-6.76572 0,-5.407569 1.60422,-8.121929 5.88978,-9.965522 3.8555,-1.658593 6.32304,-1.265043 9.83953,1.569312 2.08097,1.677307 2.73527,2.709796 3.25603,5.138058 1.14434,5.335836 -0.4863,10.549878 -4.02436,12.868103 -2.2224,1.456168 -7.01821,1.819475 -9.45228,0.71605 z m 8.00436,-3.252519 c 0.64378,-0.582619 1.62622,-2.504975 2.1832,-4.271901 0.98106,-3.112317 0.96825,-3.31586 -0.41051,-6.520888 C 143.48684,52.246077 142.10142,51.25 138.78204,51.25 c -1.27104,0 -2.41032,0.718074 -4.09125,2.578651 -2.23925,2.478595 -2.31921,2.722978 -2.0606,6.298209 0.24337,3.364534 0.49867,3.929921 2.67481,5.923521 2.05929,1.886563 2.71678,2.1535 4.56539,1.853506 1.18781,-0.19275 2.68638,-0.827143 3.33017,-1.409762 z m 16.60323,3.495519 c -0.96729,-0.29035 -2.15476,-0.856607 -2.63882,-1.258344 -0.68473,-0.568269 -1.10683,-0.503731 -1.90126,0.290706 -0.78908,0.789081 -1.21915,0.856813 -1.89243,0.298038 C 152.67993,68.746275 152.5,66.041869 152.5,56.224589 c 0,-6.804795 0.17071,-12.817232 0.37937,-13.360972 0.20865,-0.543739 0.91177,-0.988617 1.5625,-0.988617 1.04816,0 1.18313,0.499089 1.18313,4.375 0,4.745404 0.41998,5.199326 3.08406,3.333333 2.26921,-1.589425 6.16462,-1.323305 9.26335,0.632841 1.45892,0.920978 2.65259,1.797882 2.65259,1.948672 0,0.150791 0.40121,1.814521 0.89158,3.697178 0.74872,2.874528 0.76104,3.984554 0.0769,6.927526 -0.9197,3.956444 -2.24458,5.7472 -5.16718,6.984213 -2.23551,0.946187 -3.99816,1.003643 -6.62254,0.215881 z m 6.49912,-3.796275 c 2.63625,-2.822132 3.42851,-6.329769 2.1725,-9.61858 C 167.00006,52.711621 165.38306,51.25 162.5846,51.25 c -2.60661,0 -4.16156,1.277168 -6.01507,4.940492 -1.29429,2.558064 -0.96722,5.42649 0.97755,8.573189 2.3622,3.822119 5.97057,4.411306 8.75583,1.429688 z m 29.32209,4.054843 c -4.70057,-1.702812 -6.40785,-4.4883 -6.47963,-10.571805 -0.0644,-5.462246 1.38675,-8.159175 5.49423,-10.210545 4.03738,-2.016368 6.75639,-1.39651 10.20415,2.326263 2.34802,2.535316 2.65625,3.211899 2.65625,5.830668 l 0,2.962538 -7.34375,0.176085 c -7.18753,0.172338 -7.3482,0.20753 -7.55289,1.654256 -0.14272,1.008697 0.45279,2.166784 1.875,3.646297 1.83677,1.910781 2.36808,2.131075 4.4764,1.856043 2.76267,-0.3604 4.51673,-1.723262 5.07362,-3.942087 0.2918,-1.162631 0.73983,-1.507214 1.76858,-1.36025 0.75777,0.108256 1.4605,0.631481 1.56161,1.162725 0.19683,1.034144 -2.78517,5.325469 -4.06971,5.856625 -1.31298,0.542919 -6.6738,0.971844 -7.66386,0.613187 z M 203.75,56.00674 c 0,-2.339608 -1.89769,-4.1699 -4.71531,-4.547821 -2.17637,-0.291912 -2.78566,-0.08452 -4.52486,1.540129 -1.10541,1.032605 -2.00983,2.467749 -2.00983,3.189208 0,1.235159 0.32841,1.311744 5.625,1.311744 5.51378,0 5.625,-0.02952 5.625,-1.49326 z m 90.625,13.97196 c -0.85938,-0.337119 -2.19531,-1.542331 -2.96875,-2.678244 C 290.13973,65.440369 290,64.485838 290,57.694103 c 0,-5.685969 0.21433,-7.718928 0.87128,-8.264149 0.67271,-0.558295 1.10005,-0.494338 1.875,0.280615 0.80761,0.807603 1.00372,2.437058 1.00372,8.339618 0,8.304775 0.38556,9.286701 3.86836,9.851882 1.93887,0.314631 2.53783,0.118806 3.79906,-1.242088 1.77642,-1.916787 2.93115,-6.565424 3.12763,-12.59102 0.11727,-3.596282 0.3358,-4.405403 1.2362,-4.577077 1.00482,-0.191583 1.09375,0.6053 1.09375,9.800403 0,10.215444 -0.46835,12.226988 -2.27238,9.759838 -0.77839,-1.064531 -0.90775,-1.070969 -1.98211,-0.09869 -1.40656,1.272925 -6.12012,1.859013 -8.24551,1.025263 z m 27.5,0.08961 c -1.64553,-0.455043 -3.66731,-3.758268 -3.71998,-6.077775 C 318.08319,60.827329 322.7244,57.5 327.20851,57.5 c 2.99846,0 4.66649,-0.978562 4.66649,-2.737623 0,-2.076981 -1.90558,-3.512377 -4.66291,-3.512377 -1.92404,0 -2.78557,0.433217 -4.52112,2.273429 -2.45943,2.607762 -3.86114,2.212799 -2.8835,-0.812492 1.30316,-4.032563 8.94979,-5.533896 12.88764,-2.530349 2.44898,1.867928 2.91236,3.664475 2.92301,11.332699 0.005,3.651113 0.26906,5.2405 1.00561,6.054369 0.5493,0.606969 0.81395,1.40255 0.58811,1.767963 -0.59533,0.963268 -2.88503,0.814506 -4.07779,-0.264932 -0.91273,-0.826 -1.29764,-0.791262 -3.46261,0.3125 -2.46323,1.255832 -4.94426,1.473857 -7.79644,0.685125 z m 7.71807,-3.819243 c 2.08817,-1.833438 3.1121,-4.280826 2.32429,-5.555525 -0.47173,-0.763286 -7.36235,0.08165 -9.35266,1.14683 -2.14325,1.147032 -1.67932,4.09057 0.8728,5.537782 2.07926,1.179075 3.90896,0.843463 6.15557,-1.129087 z m 39.46943,3.403862 c -1.78767,-0.681018 -3.03424,-1.791225 -4.375,-3.896406 -1.85361,-2.910438 -1.87737,-3.058531 -2.083,-12.9808 -0.17011,-8.208674 -0.0422,-10.174338 0.70204,-10.792033 0.50051,-0.415392 1.34008,-0.59023 1.86571,-0.388528 0.79536,0.305209 0.99213,2.204252 1.17296,11.320426 l 0.21729,10.953697 1.875,1.512625 c 1.03125,0.831944 2.90222,1.825763 4.1577,2.208494 1.91546,0.583919 2.66826,0.506938 4.67926,-0.478519 1.3181,-0.645912 3.03307,-2.130043 3.81104,-3.298062 1.30644,-1.961451 1.41523,-2.820841 1.42407,-11.250002 0.01,-9.485037 0.36125,-11.159931 2.19332,-10.456902 0.97964,0.375924 1.05335,1.406255 0.80022,11.184823 -0.30933,11.949237 -0.87153,14.022075 -4.28131,15.785337 -2.75945,1.426969 -9.1328,1.728807 -12.1593,0.57585 z M 99.047769,69.249487 C 98.869875,68.785894 98.800412,62.366671 98.893412,54.984546 L 99.0625,41.5625 l 1.47834,-0.209166 c 0.81308,-0.115041 1.76025,0.07275 2.10481,0.417316 0.65596,0.655959 6.72935,15.547046 6.72935,16.499405 0,1.267184 2.63711,6.209789 3.04726,5.711339 0.24616,-0.299138 0.82082,-1.668894 1.27702,-3.043894 0.45619,-1.375 1.16808,-2.921875 1.58197,-3.4375 0.41389,-0.515625 1.26126,-2.765625 1.88305,-5 0.62178,-2.234375 1.60853,-4.765625 2.19277,-5.625 0.58425,-0.859375 1.25345,-2.331654 1.48712,-3.271731 0.49111,-1.975812 3.00509,-2.942632 4.47643,-1.721533 0.76814,0.637504 0.92772,3.007981 0.91981,13.663542 -0.005,7.090722 -0.2499,13.27146 -0.54364,13.734966 -0.29374,0.463512 -1.06287,0.7414 -1.70918,0.617525 -1.07453,-0.205944 -1.20392,-1.080438 -1.51178,-10.217746 -0.18517,-5.495887 -0.39611,-9.680208 -0.46875,-9.29849 -0.0726,0.381718 -0.81422,1.699224 -1.64795,2.927791 -0.83373,1.228568 -1.96557,4.010003 -2.51522,6.180967 -0.54964,2.170965 -1.555,4.709259 -2.23413,5.640653 -0.67913,0.931393 -1.23478,2.070456 -1.23478,2.53125 0,1.186381 -1.29947,2.337806 -2.6384,2.337806 -1.22301,0 -1.28252,-0.1138 -4.24856,-8.125 -1.08178,-2.921875 -2.71696,-7 -3.63371,-9.0625 l -1.66683,-3.75 -0.3125,10.304976 c -0.27836,9.179174 -0.4322,10.327911 -1.40814,10.514943 -0.602604,0.115481 -1.241191,-0.169338 -1.419091,-0.632932 z M 175.75,69.25 c -0.78978,-0.789781 -1.10724,-16.966795 -0.37063,-18.886383 0.4889,-1.274068 1.87735,-1.274068 2.36626,0 0.20866,0.54374 0.37937,4.739487 0.37937,9.323883 0,9.995688 -0.38633,11.551169 -2.375,9.5625 z m 6.56803,0.3597 c -0.24367,-0.243669 -0.44303,-6.408594 -0.44303,-13.699839 0,-11.021357 0.15809,-13.388006 0.9375,-14.034861 0.74849,-0.621187 1.12892,-0.619188 1.88695,0.0099 0.80561,0.6686 0.92397,2.834214 0.78125,14.295277 -0.16261,13.058006 -0.21064,13.513382 -1.44392,13.689919 -0.70164,0.100438 -1.47508,-0.01675 -1.71875,-0.260412 z m 37.30463,-0.490788 c -0.18595,-0.4846 0.0746,-1.679912 0.5791,-2.65625 0.50446,-0.976337 1.24515,-3.040787 1.64597,-4.587662 0.40082,-1.546875 1.21744,-3.515625 1.81471,-4.375 0.59728,-0.859375 1.6077,-3.390625 2.24539,-5.625 0.63769,-2.234375 1.60735,-4.765625 2.15481,-5.625 0.54745,-0.859375 1.33437,-2.335938 1.7487,-3.28125 0.4564,-1.041324 1.24029,-1.71875 1.98885,-1.71875 1.3625,0 3.19797,1.547712 3.20306,2.700893 0.002,0.405134 1.26741,3.791502 2.8125,7.525262 1.54509,3.73376 2.80925,7.054222 2.80925,7.378804 0,0.324583 0.84375,2.290739 1.875,4.369235 1.03125,2.0785 1.875,4.472031 1.875,5.318962 0,1.29205 -0.26128,1.508044 -1.62351,1.342106 -1.38718,-0.168975 -1.80981,-0.767956 -2.90347,-4.114937 -1.48926,-4.557692 -1.69854,-4.661366 -8.8681,-4.39314 l -4.95338,0.185315 -2.13367,4.21875 c -2.04578,4.044962 -3.54817,5.219256 -4.27021,3.337662 z m 16.24475,-11.505495 c 0.57289,-0.92697 -3.1362,-11.050917 -4.04872,-11.050917 -0.47524,0 -0.96176,0.5625 -1.08115,1.25 -0.1194,0.6875 -1.05773,3.001635 -2.08518,5.142522 -1.02745,2.140887 -1.69046,4.179949 -1.47335,4.53125 0.46733,0.75614 8.22945,0.869731 8.6884,0.127146 z m 11.16384,11.969914 c -0.5778,-0.231118 -0.78125,-2.826837 -0.78125,-9.96753 0,-8.041819 0.15798,-9.715652 0.94546,-10.017838 0.52,-0.199544 1.3348,-0.03968 1.81066,0.355248 0.66662,0.553248 1.51502,0.402355 3.69637,-0.65743 2.77774,-1.349528 2.8856,-1.354699 5.7153,-0.274029 4.31048,1.646192 4.85999,2.90435 5.15298,11.798476 0.25637,7.781959 -0.15186,9.666128 -1.9452,8.977959 -0.82853,-0.317937 -1.00057,-1.499687 -1.00057,-6.872806 0,-6.977774 -0.71084,-10.092855 -2.52465,-11.063574 -1.92775,-1.0317 -4.57001,-0.642593 -6.53785,0.962784 -1.85851,1.516188 -1.87775,1.596602 -2.1875,9.146222 -0.30124,7.342193 -0.59931,8.3103 -2.34375,7.612518 z m 65.28202,0.02163 c -0.24105,-0.241068 -0.43827,-6.548825 -0.43827,-14.017255 0,-11.184399 0.15726,-13.639313 0.89181,-13.921182 1.98707,-0.762513 2.2604,1.154367 2.0896,14.6546 -0.14511,11.468687 -0.30532,13.376262 -1.13688,13.536068 -0.53239,0.102313 -1.16521,-0.01119 -1.40625,-0.25225 z m 26.87976,0.005 c -0.53921,-0.539212 -0.5965,-17.857536 -0.0637,-19.246083 0.42882,-1.117509 2.17247,-1.311772 3.13497,-0.349273 0.4358,0.435791 1.39425,0.323922 3.01046,-0.351371 4.54124,-1.897451 5.86401,0.74832 1.36836,2.736958 -1.50252,0.664634 -2.97136,1.591857 -3.2641,2.060497 -0.29274,0.46864 -0.6806,4.086447 -0.86191,8.039572 -0.30419,6.63245 -0.42817,7.2016 -1.60537,7.370113 -0.70164,0.100437 -1.47508,-0.01675 -1.71875,-0.260413 z m 52.47364,-0.02638 C 391.4375,69.354169 391.25,63.006481 391.25,55.477364 l 0,-13.689303 1.40625,0.19972 c 1.39794,0.198538 1.4073,0.273627 1.58341,12.699719 0.0974,6.875 0.0217,13.132813 -0.16816,13.90625 -0.33291,1.355719 -1.54141,1.853013 -2.40483,0.989581 z M 175.22602,44.6875 c -0.50238,-1.309163 0.1818,-2.8125 1.27998,-2.8125 1.25405,0 1.77962,1.009311 1.30472,2.505593 -0.46414,1.462387 -2.06821,1.652854 -2.5847,0.306907 z"
       id="path3951"
       inkscape:connector-curvature="0" />
    <path
       style="fill:#afafb0"
       d="M 66.666669,79.583331 C 66.4375,79.354169 66.25,78.639837 66.25,77.995937 c 0,-0.643906 -0.524131,-2.214218 -1.164744,-3.489587 -0.640606,-1.275369 -1.521412,-4.2876 -1.957344,-6.69385 -0.875172,-4.830756 -1.468378,-5.9375 -3.18245,-5.9375 -1.327569,0 -2.445911,1.768312 -2.444461,3.865162 5.52e-4,0.796038 -0.913511,4.186757 -2.03125,7.534932 l -2.032251,6.087587 -7.890625,0.0062 -7.890625,0.0062 -0.377133,-1.71875 C 37.071694,76.710937 36.331921,73.286125 35.635178,70.04555 34.363513,64.131 33.163061,61.866375 31.309382,61.885035 30.201045,61.896192 28.006977,68.049362 26.632911,75 l -0.803113,4.0625 -7.629554,0.175706 -7.629555,0.175707 0.883288,-1.425707 c 0.485809,-0.784137 1.223731,-3.253831 1.639827,-5.488206 0.416097,-2.234375 1.013953,-5.406413 1.32857,-7.048969 0.314618,-1.642562 1.002636,-3.643657 1.52893,-4.446884 0.526294,-0.803226 1.392503,-3.956041 1.924908,-7.006255 0.532406,-3.050214 1.194107,-5.830367 1.470449,-6.178118 0.579021,-0.728647 2.22154,-6.470103 2.779645,-9.716309 0.208885,-1.214969 0.816241,-2.832157 1.349682,-3.59375 C 24.394611,33.198197 24.884999,33.125 32.753019,33.125 l 8.307138,0 0.998929,2.34375 c 0.549411,1.289062 1.17771,3.328125 1.39622,4.53125 0.515606,2.838951 1.653277,6.354411 2.37658,7.34375 0.892927,1.221352 1.635495,0.92938 2.384333,-0.9375 0.379182,-0.945313 0.921011,-2.28125 1.204065,-2.96875 0.283054,-0.6875 0.830436,-2.866999 1.216404,-4.843331 1.04792,-5.365828 1.24889,-5.469169 10.635965,-5.469169 8.976491,0 8.722203,-0.122477 9.888578,4.762789 0.581038,2.433625 1.664107,6.338121 3.533194,12.737211 0.552225,1.890625 1.38335,5.125 1.84695,7.1875 0.4636,2.0625 1.400694,5.296875 2.082431,7.1875 0.681731,1.890625 1.592713,5.265625 2.024406,7.5 0.431688,2.234375 1.193119,4.536963 1.692063,5.116869 0.49895,0.5799 0.7224,1.353337 0.496563,1.71875 -0.450469,0.728875 -15.459088,0.9588 -16.170169,0.247712 z M 273.31889,78.251044 C 271.70584,77.734175 267.5,74.122975 267.5,73.254863 c 0,-0.330994 0.45136,-0.9764 1.00301,-1.434238 0.86551,-0.7183 1.23204,-0.551819 2.67347,1.2143 1.90173,2.330087 5.76211,3.269 8.16133,1.984975 1.47192,-0.787744 3.16219,-4.123075 3.16219,-6.239794 0,-1.255237 -0.01,-1.25505 -2.51171,0.04912 -3.70856,1.933013 -7.15923,1.263506 -10.35225,-2.00855 l -2.44854,-2.50915 0,-5.213806 0,-5.213805 L 270,51.372872 c 3.56523,-3.183093 5.56109,-3.611109 9.24339,-1.982255 1.94404,0.859943 3.05735,1.05864 3.49264,0.623347 0.35143,-0.351428 1.14522,-0.638964 1.76397,-0.638964 1.04178,0 1.125,0.834483 1.125,11.281038 0,12.441768 -0.26144,13.558231 -3.78174,16.149931 -2.1023,1.547737 -6.09281,2.224218 -8.52437,1.445075 z m 6.12528,-12.453825 c 2.67936,-1.582738 3.79855,-6.255572 2.3892,-9.975281 -1.52461,-4.023867 -4.46481,-5.441524 -8.27848,-3.991568 -2.4724,0.940001 -3.59706,5.927508 -2.53458,11.23993 0.68463,3.423144 4.92275,4.795081 8.42386,2.726919 z M 135.1962,69.746644 c -1.09521,-0.496488 -2.78271,-2.098613 -3.75,-3.560281 -1.48035,-2.236957 -1.7587,-3.307775 -1.7587,-6.76572 0,-5.407569 1.60422,-8.121929 5.88978,-9.965522 3.8555,-1.658593 6.32304,-1.265043 9.83953,1.569312 2.08097,1.677307 2.73527,2.709796 3.25603,5.138058 1.14434,5.335836 -0.4863,10.549878 -4.02436,12.868103 -2.2224,1.456169 -7.01821,1.819475 -9.45228,0.71605 z m 8.00436,-3.252519 c 0.64378,-0.582619 1.62622,-2.504975 2.1832,-4.271901 0.98106,-3.112317 0.96825,-3.31586 -0.41051,-6.520888 C 143.48684,52.246077 142.10142,51.25 138.78204,51.25 c -1.27104,0 -2.41032,0.718074 -4.09125,2.578651 -2.23925,2.478595 -2.31921,2.722978 -2.0606,6.298209 0.24337,3.364534 0.49867,3.929921 2.67481,5.923521 2.05929,1.886563 2.71678,2.1535 4.56539,1.853506 1.18781,-0.19275 2.68638,-0.827143 3.33017,-1.409762 z m 16.60323,3.495519 c -0.96729,-0.29035 -2.15476,-0.856607 -2.63882,-1.258344 -0.68473,-0.568269 -1.10683,-0.503731 -1.90126,0.290706 -0.78908,0.789082 -1.21915,0.856813 -1.89243,0.298038 C 152.67993,68.746275 152.5,66.041869 152.5,56.224589 c 0,-6.804795 0.17071,-12.817232 0.37937,-13.360972 0.20865,-0.543739 0.91177,-0.988617 1.5625,-0.988617 1.04816,0 1.18313,0.499089 1.18313,4.375 0,4.745404 0.41998,5.199326 3.08406,3.333333 2.26921,-1.589425 6.16462,-1.323305 9.26335,0.632841 1.45892,0.920978 2.65259,1.797882 2.65259,1.948672 0,0.150791 0.40121,1.814521 0.89158,3.697178 0.74872,2.874528 0.76104,3.984554 0.0769,6.927526 -0.9197,3.956444 -2.24458,5.7472 -5.16718,6.984213 -2.23551,0.946187 -3.99816,1.003643 -6.62254,0.215881 z m 6.49912,-3.796275 c 2.63625,-2.822131 3.42851,-6.329769 2.1725,-9.61858 C 167.00006,52.711621 165.38306,51.25 162.5846,51.25 c -2.60661,0 -4.16156,1.277168 -6.01507,4.940492 -1.29429,2.558064 -0.96722,5.42649 0.97755,8.573189 2.3622,3.822119 5.97057,4.411306 8.75583,1.429688 z m 29.32209,4.054843 c -4.70057,-1.702812 -6.40785,-4.4883 -6.47963,-10.571805 -0.0644,-5.462246 1.38675,-8.159175 5.49423,-10.210545 4.03738,-2.016368 6.75639,-1.39651 10.20415,2.326263 2.34802,2.535316 2.65625,3.211899 2.65625,5.830668 l 0,2.962538 -7.34375,0.176085 c -7.18753,0.172338 -7.3482,0.20753 -7.55289,1.654256 -0.14272,1.008697 0.45279,2.166784 1.875,3.646297 1.83677,1.910781 2.36808,2.131075 4.4764,1.856043 2.76267,-0.3604 4.51673,-1.723262 5.07362,-3.942087 0.2918,-1.162631 0.73983,-1.507214 1.76858,-1.36025 0.75777,0.108256 1.4605,0.631481 1.56161,1.162725 0.19683,1.034144 -2.78517,5.325469 -4.06971,5.856625 -1.31298,0.542919 -6.6738,0.971844 -7.66386,0.613187 z M 203.75,56.00674 c 0,-2.339608 -1.89769,-4.1699 -4.71531,-4.547821 -2.17637,-0.291912 -2.78566,-0.08452 -4.52486,1.540129 -1.10541,1.032605 -2.00983,2.467749 -2.00983,3.189208 0,1.235159 0.32841,1.311744 5.625,1.311744 5.51378,0 5.625,-0.02952 5.625,-1.49326 z m 90.625,13.97196 c -0.85938,-0.337119 -2.19531,-1.542331 -2.96875,-2.678244 C 290.13973,65.440369 290,64.485838 290,57.694103 c 0,-5.685969 0.21433,-7.718928 0.87128,-8.264149 0.67271,-0.558295 1.10005,-0.494338 1.875,0.280615 0.80761,0.807603 1.00372,2.437058 1.00372,8.339618 0,8.304775 0.38556,9.286701 3.86836,9.851882 1.93887,0.314631 2.53783,0.118806 3.79906,-1.242088 1.77642,-1.916787 2.93115,-6.565424 3.12763,-12.59102 0.11727,-3.596282 0.3358,-4.405403 1.2362,-4.577077 1.00482,-0.191583 1.09375,0.6053 1.09375,9.800403 0,10.215444 -0.46835,12.226988 -2.27238,9.759838 -0.77839,-1.064531 -0.90775,-1.070969 -1.98211,-0.09869 -1.40656,1.272925 -6.12012,1.859013 -8.24551,1.025263 z m 27.5,0.08961 c -1.64553,-0.455043 -3.66731,-3.758268 -3.71998,-6.077775 C 318.08319,60.827329 322.7244,57.5 327.20851,57.5 c 2.99846,0 4.66649,-0.978562 4.66649,-2.737623 0,-2.076981 -1.90558,-3.512377 -4.66291,-3.512377 -1.92404,0 -2.78557,0.433217 -4.52112,2.273429 -2.45943,2.607762 -3.86114,2.212799 -2.8835,-0.812492 1.30316,-4.032563 8.94979,-5.533896 12.88764,-2.530349 2.44898,1.867928 2.91236,3.664475 2.92301,11.332699 0.005,3.651113 0.26906,5.2405 1.00561,6.054369 0.5493,0.606969 0.81395,1.40255 0.58811,1.767963 -0.59533,0.963268 -2.88503,0.814506 -4.07779,-0.264932 -0.91273,-0.826 -1.29764,-0.791262 -3.46261,0.3125 -2.46323,1.255832 -4.94426,1.473857 -7.79644,0.685125 z m 7.71807,-3.819243 c 2.08817,-1.833438 3.1121,-4.280826 2.32429,-5.555525 -0.47173,-0.763286 -7.36235,0.08165 -9.35266,1.14683 -2.14325,1.147032 -1.67932,4.09057 0.8728,5.537782 2.07926,1.179075 3.90896,0.843463 6.15557,-1.129087 z m 39.46943,3.403862 c -1.78767,-0.681018 -3.03424,-1.791225 -4.375,-3.896406 -1.85361,-2.910438 -1.87737,-3.058531 -2.083,-12.9808 -0.17011,-8.208674 -0.0422,-10.174338 0.70204,-10.792033 0.50051,-0.415392 1.34008,-0.59023 1.86571,-0.388528 0.79536,0.305209 0.99213,2.204252 1.17296,11.320426 l 0.21729,10.953697 1.875,1.512625 c 1.03125,0.831944 2.90222,1.825763 4.1577,2.208494 1.91546,0.583919 2.66826,0.506938 4.67926,-0.478519 1.3181,-0.645912 3.03307,-2.130043 3.81104,-3.298062 1.30644,-1.961451 1.41523,-2.820841 1.42407,-11.250002 0.01,-9.485037 0.36125,-11.159931 2.19332,-10.456902 0.97964,0.375924 1.05335,1.406255 0.80022,11.184823 -0.30933,11.949237 -0.87153,14.022075 -4.28131,15.785337 -2.75945,1.426969 -9.1328,1.728807 -12.1593,0.57585 z M 99.047769,69.249487 C 98.869875,68.785894 98.800412,62.366671 98.893412,54.984546 L 99.0625,41.5625 l 1.47834,-0.209166 c 0.81308,-0.115041 1.76025,0.07275 2.10481,0.417316 0.65596,0.655959 6.72935,15.547046 6.72935,16.499405 0,1.267184 2.63711,6.209789 3.04726,5.711339 0.24616,-0.299138 0.82082,-1.668894 1.27702,-3.043894 0.45619,-1.375 1.16808,-2.921875 1.58197,-3.4375 0.41389,-0.515625 1.26126,-2.765625 1.88305,-5 0.62178,-2.234375 1.60853,-4.765625 2.19277,-5.625 0.58425,-0.859375 1.25345,-2.331654 1.48712,-3.271731 0.49111,-1.975812 3.00509,-2.942632 4.47643,-1.721533 0.76814,0.637504 0.92772,3.007981 0.91981,13.663542 -0.005,7.090722 -0.2499,13.27146 -0.54364,13.734966 -0.29374,0.463512 -1.06287,0.7414 -1.70918,0.617525 -1.07453,-0.205944 -1.20392,-1.080438 -1.51178,-10.217746 -0.18517,-5.495887 -0.39611,-9.680208 -0.46875,-9.29849 -0.0726,0.381718 -0.81422,1.699224 -1.64795,2.927791 -0.83373,1.228568 -1.96557,4.010003 -2.51522,6.180967 -0.54964,2.170965 -1.555,4.709259 -2.23413,5.640653 -0.67913,0.931393 -1.23478,2.070456 -1.23478,2.53125 0,1.186381 -1.29947,2.337806 -2.6384,2.337806 -1.22301,0 -1.28252,-0.1138 -4.24856,-8.125 -1.08178,-2.921875 -2.71696,-7 -3.63371,-9.0625 l -1.66683,-3.75 -0.3125,10.304976 c -0.27836,9.179174 -0.4322,10.327911 -1.40814,10.514943 -0.602604,0.115481 -1.241191,-0.169338 -1.419091,-0.632932 z M 175.75,69.25 c -0.78978,-0.789781 -1.10724,-16.966795 -0.37063,-18.886383 0.4889,-1.274068 1.87735,-1.274068 2.36626,0 0.20866,0.54374 0.37937,4.739487 0.37937,9.323883 0,9.995688 -0.38633,11.551169 -2.375,9.5625 z m 6.56803,0.3597 c -0.24367,-0.243669 -0.44303,-6.408594 -0.44303,-13.699839 0,-11.021357 0.15809,-13.388006 0.9375,-14.034861 0.74849,-0.621187 1.12892,-0.619188 1.88695,0.0099 0.80561,0.6686 0.92397,2.834214 0.78125,14.295277 -0.16261,13.058006 -0.21064,13.513382 -1.44392,13.689919 -0.70164,0.100438 -1.47508,-0.01675 -1.71875,-0.260412 z m 37.30463,-0.490788 c -0.18595,-0.4846 0.0746,-1.679912 0.5791,-2.65625 0.50446,-0.976337 1.24515,-3.040787 1.64597,-4.587662 0.40082,-1.546875 1.21744,-3.515625 1.81471,-4.375 0.59728,-0.859375 1.6077,-3.390625 2.24539,-5.625 0.63769,-2.234375 1.60735,-4.765625 2.15481,-5.625 0.54745,-0.859375 1.33437,-2.335938 1.7487,-3.28125 0.4564,-1.041324 1.24029,-1.71875 1.98885,-1.71875 1.3625,0 3.19797,1.547712 3.20306,2.700893 0.002,0.405134 1.26741,3.791502 2.8125,7.525262 1.54509,3.73376 2.80925,7.054222 2.80925,7.378804 0,0.324583 0.84375,2.290739 1.875,4.369235 1.03125,2.0785 1.875,4.472031 1.875,5.318962 0,1.29205 -0.26128,1.508044 -1.62351,1.342106 -1.38718,-0.168975 -1.80981,-0.767956 -2.90347,-4.114937 -1.48926,-4.557692 -1.69854,-4.661366 -8.8681,-4.39314 l -4.95338,0.185315 -2.13367,4.21875 c -2.04578,4.044962 -3.54817,5.219256 -4.27021,3.337662 z m 16.24475,-11.505495 c 0.57289,-0.92697 -3.1362,-11.050917 -4.04872,-11.050917 -0.47524,0 -0.96176,0.5625 -1.08115,1.25 -0.1194,0.6875 -1.05773,3.001635 -2.08518,5.142522 -1.02745,2.140887 -1.69046,4.179949 -1.47335,4.53125 0.46733,0.75614 8.22945,0.869731 8.6884,0.127146 z m 11.16384,11.969914 c -0.5778,-0.231118 -0.78125,-2.826837 -0.78125,-9.96753 0,-8.041819 0.15798,-9.715652 0.94546,-10.017838 0.52,-0.199544 1.3348,-0.03968 1.81066,0.355248 0.66662,0.553248 1.51502,0.402355 3.69637,-0.65743 2.77774,-1.349528 2.8856,-1.354699 5.7153,-0.274029 4.31048,1.646192 4.85999,2.90435 5.15298,11.798476 0.25637,7.781959 -0.15186,9.666128 -1.9452,8.977959 -0.82853,-0.317937 -1.00057,-1.499687 -1.00057,-6.872806 0,-6.977774 -0.71084,-10.092855 -2.52465,-11.063574 -1.92775,-1.0317 -4.57001,-0.642593 -6.53785,0.962784 -1.85851,1.516188 -1.87775,1.596602 -2.1875,9.146222 -0.30124,7.342193 -0.59931,8.3103 -2.34375,7.612518 z m 65.28202,0.02163 c -0.24105,-0.241068 -0.43827,-6.548825 -0.43827,-14.017255 0,-11.184399 0.15726,-13.639313 0.89181,-13.921182 1.98707,-0.762513 2.2604,1.154367 2.0896,14.6546 -0.14511,11.468687 -0.30532,13.376262 -1.13688,13.536068 -0.53239,0.102313 -1.16521,-0.01119 -1.40625,-0.25225 z m 26.87976,0.005 c -0.53921,-0.539212 -0.5965,-17.857536 -0.0637,-19.246083 0.42882,-1.117509 2.17247,-1.311772 3.13497,-0.349273 0.4358,0.435791 1.39425,0.323922 3.01046,-0.351371 4.54124,-1.897451 5.86401,0.74832 1.36836,2.736958 -1.50252,0.664634 -2.97136,1.591857 -3.2641,2.060497 -0.29274,0.46864 -0.6806,4.086447 -0.86191,8.039572 -0.30419,6.63245 -0.42817,7.2016 -1.60537,7.370113 -0.70164,0.100437 -1.47508,-0.01675 -1.71875,-0.260413 z m 52.47364,-0.02638 C 391.4375,69.354169 391.25,63.006481 391.25,55.477364 l 0,-13.689303 1.40625,0.19972 c 1.39794,0.198538 1.4073,0.273627 1.58341,12.699719 0.0974,6.875 0.0217,13.132813 -0.16816,13.90625 -0.33291,1.355719 -1.54141,1.853013 -2.40483,0.989581 z M 175.22602,44.6875 c -0.50238,-1.309163 0.1818,-2.8125 1.27998,-2.8125 1.25405,0 1.77962,1.009311 1.30472,2.505593 -0.46414,1.462387 -2.06821,1.652854 -2.5847,0.306907 z"
       id="path3949"
       inkscape:connector-curvature="0" />
    <path
       style="fill:#2aa7dc"
       d="M 66.666669,79.583331 C 66.4375,79.354169 66.25,78.639837 66.25,77.995937 c 0,-0.643906 -0.524131,-2.214218 -1.164744,-3.489587 -0.640606,-1.275369 -1.521412,-4.2876 -1.957344,-6.69385 -0.875172,-4.830756 -1.468378,-5.9375 -3.18245,-5.9375 -1.327569,0 -2.445911,1.768312 -2.444461,3.865162 5.52e-4,0.796038 -0.913511,4.186757 -2.03125,7.534932 l -2.032251,6.087587 -7.890625,0.0062 -7.890625,0.0062 -0.377133,-1.71875 C 37.071694,76.710937 36.331921,73.286125 35.635178,70.04555 34.363513,64.131 33.163061,61.866375 31.309382,61.885035 30.201045,61.896192 28.006977,68.049362 26.632911,75 l -0.803113,4.0625 -7.629554,0.175706 -7.629555,0.175707 0.883288,-1.425707 c 0.485809,-0.784137 1.223731,-3.253831 1.639827,-5.488206 0.416097,-2.234375 1.013953,-5.406413 1.32857,-7.048969 0.314618,-1.642562 1.002636,-3.643657 1.52893,-4.446884 0.526294,-0.803226 1.392503,-3.956041 1.924908,-7.006255 0.532406,-3.050214 1.194107,-5.830367 1.470449,-6.178118 0.579021,-0.728647 2.22154,-6.470103 2.779645,-9.716309 0.208885,-1.214969 0.816241,-2.832157 1.349682,-3.59375 C 24.394611,33.198197 24.884999,33.125 32.753019,33.125 l 8.307138,0 0.998929,2.34375 c 0.549411,1.289062 1.17771,3.328125 1.39622,4.53125 0.515606,2.838951 1.653277,6.354411 2.37658,7.34375 0.892927,1.221352 1.635495,0.92938 2.384333,-0.9375 0.379182,-0.945313 0.921011,-2.28125 1.204065,-2.96875 0.283054,-0.6875 0.830436,-2.866999 1.216404,-4.843331 1.04792,-5.365828 1.24889,-5.469169 10.635965,-5.469169 8.976491,0 8.722203,-0.122477 9.888578,4.762789 0.581038,2.433625 1.664107,6.338121 3.533194,12.737211 0.552225,1.890625 1.38335,5.125 1.84695,7.1875 0.4636,2.0625 1.400694,5.296875 2.082431,7.1875 0.681731,1.890625 1.592713,5.265625 2.024406,7.5 0.431688,2.234375 1.193119,4.536963 1.692063,5.116869 0.49895,0.5799 0.7224,1.353337 0.496563,1.71875 -0.450469,0.728875 -15.459088,0.9588 -16.170169,0.247712 z M 272.8125,77.482075 c -2.47625,-1.116669 -4.87783,-3.5846 -4.48483,-4.608737 0.56784,-1.479775 1.42817,-1.221688 2.92233,0.876662 1.22339,1.718087 1.64158,1.875 4.99719,1.875 3.19989,0 3.8235,-0.205206 4.94102,-1.625906 1.41597,-1.800113 2.28355,-5.318969 1.69168,-6.861363 -0.32602,-0.849587 -0.66607,-0.758043 -2.30413,0.620294 -1.48245,1.247406 -2.60675,1.616975 -4.91912,1.616975 -2.74957,0 -3.21076,-0.231419 -5.57704,-2.798537 C 267.53091,63.811462 267.5,63.7213 267.5,59.051386 l 0,-4.726543 2.63176,-2.430083 c 3.42493,-3.162469 5.77431,-3.599253 9.53423,-1.772548 2.37625,1.154471 2.9947,1.25406 3.42853,0.552096 0.30627,-0.495539 0.97749,-0.684476 1.59283,-0.448349 0.95623,0.366941 1.03954,1.463637 0.82591,10.872324 -0.26586,11.708379 -0.75165,13.413286 -4.47813,15.716379 -2.21231,1.367282 -5.99059,1.673957 -8.22263,0.667413 z m 6.87651,-11.233012 c 2.39475,-1.480032 3.82191,-5.55843 3.1669,-9.04997 -0.61192,-3.261833 -3.74323,-6.576399 -6.2019,-6.564879 -4.24948,0.01991 -6.5384,2.828034 -6.61525,8.115786 -0.0594,4.088656 1.11614,6.892744 3.28515,7.836144 2.73182,1.188194 4.00637,1.1207 6.3651,-0.337081 z m -145.13255,2.523118 c -4.10542,-2.5032 -5.70245,-9.007763 -3.53912,-14.414461 0.80206,-2.004556 1.67561,-2.876149 4.12822,-4.118981 3.90957,-1.981128 6.9,-1.623694 10.15615,1.213926 5.29896,4.617844 3.8654,15.722391 -2.3075,17.874272 -2.92845,1.020869 -6.20717,0.805301 -8.43775,-0.554756 z m 7.68107,-1.200731 c 3.87511,-2.363044 5.14752,-8.521371 2.73692,-13.246532 -2.21383,-4.339454 -6.52568,-4.960395 -10.13064,-1.458894 -4.02636,3.910791 -3.95408,9.38774 0.17787,13.478601 2.7241,2.697006 4.35125,2.97365 7.21585,1.226825 z m 17.44997,1.981156 C 159,69.386288 157.82873,68.68935 157.08468,68.003856 l -1.35282,-1.246356 -0.70979,1.326256 C 153.50816,70.912537 153.125,68.388762 153.125,55.588114 153.125,44.370902 153.25901,42.5 154.0625,42.5 c 0.73231,0 0.93959,0.854948 0.94707,3.90625 0.0129,5.253562 0.61824,6.163832 2.9518,4.438551 2.95508,-2.184782 5.37303,-2.389714 8.68906,-0.736435 3.56793,1.778874 4.79856,4.256192 4.77515,9.612651 -0.0336,7.691239 -4.63932,11.548883 -11.73808,9.831589 z m 7.30409,-3.4641 c 3.20787,-3.870653 3.38243,-8.000738 0.53303,-12.611169 -1.47388,-2.384783 -2.35711,-2.852337 -5.38824,-2.852337 -3.87946,0 -6.81478,4.457951 -6.38084,9.690753 0.62853,7.579253 7.01818,10.862072 11.23605,5.772753 z m 27.07091,3.044481 c -1.22043,-0.532493 -2.39378,-1.858212 -3.36104,-3.797512 -1.23934,-2.484794 -1.4342,-3.62529 -1.17376,-6.869833 0.37579,-4.681504 1.52407,-6.605218 5.06352,-8.482892 2.1112,-1.119991 3.17809,-1.321341 5.09544,-0.961644 4.48113,0.840665 9.32205,8.095433 7.14902,10.713771 -0.55997,0.674721 -2.45953,0.890123 -7.84971,0.890123 l -7.11097,0 0,1.636029 c 0,2.030859 4.26474,6.488971 6.20751,6.488971 2.23247,0 4.80956,-1.689481 6.21778,-4.076231 0.72914,-1.235806 1.60673,-2.073238 1.95021,-1.860957 0.94702,0.585288 0.74657,2.804576 -0.28921,3.202044 -0.50254,0.192838 -1.08122,0.878382 -1.28594,1.523431 -0.69276,2.182682 -7.06924,3.140819 -10.61285,1.5947 z m 9.32388,-11.387355 c 1.42653,-0.547411 1.21488,-3.040528 -0.41763,-4.91938 -3.04748,-3.507337 -8.60159,-2.333976 -10.48594,2.215256 -0.67589,1.631724 -0.66389,2.039715 0.0737,2.506646 0.99318,0.628724 9.31082,0.780392 10.82987,0.197478 z m 89.42908,10.194824 -2.22845,-2.22845 0.17524,-8.012254 c 0.14496,-6.627447 0.33728,-8.012252 1.11275,-8.012252 0.76667,0 0.99444,1.423611 1.25,7.8125 0.35391,8.847731 0.91645,10.388531 4.00429,10.967813 4.72853,0.887081 7.21088,-3.172907 7.44485,-12.176388 0.14683,-5.650311 0.54975,-7.042537 1.70409,-5.888194 0.89656,0.89656 0.50589,18.483106 -0.41741,18.7898 -0.38591,0.128194 -0.86725,-0.400131 -1.06964,-1.174062 l -0.36798,-1.407144 -1.48977,1.399563 c -0.9605,0.90235 -2.62658,1.534206 -4.68964,1.77855 -3.04983,0.361206 -3.30438,0.274475 -5.42833,-1.849482 z m 28.65357,1.475819 c -1.55107,-0.669106 -3.00069,-4.458969 -2.48756,-6.503463 0.57112,-2.275523 3.84924,-4.203665 8.40674,-4.944716 2.29586,-0.373307 4.38092,-0.982909 4.63347,-1.354669 1.6283,-2.396916 -1.04986,-5.988427 -4.46553,-5.988427 -2.41901,0 -5.53613,1.683492 -6.03657,3.260229 C 321.08319,55.260176 320,55.35725 320,54.021412 c 0,-1.916481 1.23109,-3.21937 4.06439,-4.301415 3.64532,-1.392161 6.75332,-0.873445 9.15465,1.527889 1.74118,1.741176 1.78096,1.933903 1.78096,8.627509 0,5.323355 0.20857,7.019649 0.9375,7.624605 0.51562,0.427931 0.9375,1.024869 0.9375,1.326525 0,0.936706 -2.65461,0.602288 -3.85704,-0.485894 -1.06432,-0.9632 -1.22453,-0.96055 -2.32847,0.0385 -1.37701,1.246181 -7.21391,1.902732 -9.22046,1.037138 z m 7.66543,-2.057844 c 2.75869,-2.129131 3.32408,-3.090587 3.34567,-5.68934 0.0189,-2.277379 -0.0635,-2.377475 -1.69888,-2.064705 -0.94531,0.180787 -2.98438,0.511411 -4.53125,0.73472 -4.97581,0.718314 -7.03477,3.279913 -4.84375,6.026238 2.09456,2.625412 5.111,3.013031 7.72821,0.993087 z m 39.92804,1.976357 c -1.25092,-0.368588 -2.49908,-1.545219 -3.75,-3.535113 l -1.875,-2.982631 0,-10.304842 c 0,-9.036539 0.12565,-10.329208 1.0209,-10.50282 0.90285,-0.175085 1.05436,1.016255 1.31023,10.30257 0.15913,5.775301 0.49416,10.969035 0.74451,11.541629 0.25035,0.5726 1.55933,1.806263 2.90885,2.741481 4.31636,2.991238 8.69079,2.102888 12.10189,-2.457637 1.13444,-1.5167 1.32601,-2.889468 1.60112,-11.473303 0.23785,-7.421327 0.51422,-9.817349 1.15696,-10.030448 1.36197,-0.451562 0.74501,20.73727 -0.68084,23.382607 -1.82544,3.386681 -8.85882,4.992081 -14.53862,3.318506 z M 99.049444,68.62885 C 98.870025,68.161294 98.799569,62.020719 98.892862,54.983125 L 99.0625,42.1875 l 1.71347,-0.197254 c 1.38305,-0.159217 1.85001,0.142083 2.42157,1.5625 0.38945,0.967865 0.94398,2.322254 1.23228,3.009754 1.58792,3.786657 4.94518,12.706319 4.94518,13.138486 0,1.187476 2.17514,5.299014 2.80335,5.299014 0.37829,0 1.21524,-1.551713 1.85989,-3.448255 0.64465,-1.89654 1.54665,-3.759102 2.00443,-4.139028 0.45778,-0.379925 0.83647,-1.148523 0.84154,-1.707995 0.0148,-1.630387 2.12753,-7.951449 3.01525,-9.021084 0.44675,-0.538297 1.02393,-1.77014 1.28262,-2.73743 0.37997,-1.420759 0.82201,-1.758708 2.30039,-1.758708 l 1.83003,0 0.16844,13.59375 c 0.1645,13.276444 0.13898,13.59375 -1.09375,13.59375 -1.21658,0 -1.26219,-0.382581 -1.26219,-10.588114 0,-9.92552 -0.62101,-13.698492 -1.55486,-9.44669 -0.22361,1.018107 -0.94486,2.535431 -1.60277,3.371831 -0.65791,0.8364 -1.60996,3.029295 -2.11565,4.8731 -0.5057,1.843805 -1.11263,4.055498 -1.34873,4.914873 -0.2361,0.859375 -0.79191,1.984887 -1.23513,2.501144 -0.44322,0.516256 -1.10714,1.731068 -1.47537,2.699587 -0.50277,1.3224 -1.01788,1.711238 -2.06837,1.561356 -0.81465,-0.116237 -1.49192,-0.721618 -1.6217,-1.449587 -0.20583,-1.154569 -2.59158,-7.71488 -3.86393,-10.625 -0.788,-1.802324 -2.93325,-7.310899 -3.34673,-8.59375 C 102.69787,47.992187 102.25579,47.5 101.90938,47.5 c -0.39205,0 -0.69443,4.051223 -0.80087,10.729762 -0.12592,7.900969 -0.37689,10.798232 -0.95193,10.989475 -0.429505,0.142838 -0.927717,-0.122837 -1.107136,-0.590387 z m 76.890086,0.03931 c -0.6089,-1.586769 -0.0459,-18.035905 0.62297,-18.201205 0.84726,-0.209387 1.18619,17.659348 0.35081,18.494736 -0.4131,0.4131 -0.74049,0.314418 -0.97378,-0.293531 z m 6.70453,-12.886913 c 0.14363,-11.591805 0.3065,-13.59375 1.10594,-13.59375 0.79944,0 0.96231,2.001945 1.10594,13.59375 0.16503,13.318837 0.14267,13.59375 -1.10594,13.59375 -1.24861,0 -1.27097,-0.274913 -1.10594,-13.59375 z M 220,68.718963 c 0,-0.360819 0.37809,-1.415507 0.84021,-2.34375 0.46212,-0.928244 1.2072,-3.093963 1.65574,-4.812713 0.44854,-1.71875 1.30118,-3.6875 1.89476,-4.375 0.59358,-0.6875 1.42703,-2.796875 1.8521,-4.6875 0.42508,-1.890625 1.23341,-4.140625 1.79628,-5 0.56288,-0.859375 1.32798,-2.40625 1.70024,-3.4375 0.96784,-2.681175 3.79018,-3.008148 4.3863,-0.508161 0.23058,0.966988 0.77256,2.461286 1.20441,3.320661 0.43185,0.859375 1.28713,2.828125 1.90063,4.375 0.6135,1.546875 1.6282,3.992382 2.25489,5.43446 0.6267,1.442078 1.13944,2.948108 1.13944,3.346733 0,0.398625 0.70312,2.124664 1.5625,3.835638 1.89564,3.77415 2.01234,5.508169 0.37067,5.508169 -0.89938,0 -1.46175,-0.858125 -2.29183,-3.497187 -0.605,-1.923451 -1.49501,-3.892204 -1.97781,-4.375001 -1.01298,-1.012974 -10.1888,-1.248333 -11.92337,-0.305833 -0.98724,0.536428 -3.37456,4.64354 -4.11785,7.084271 C 221.89151,69.449612 220,69.818025 220,68.718963 Z m 16.17164,-10.812041 c 0.92112,-1.109887 -2.97126,-11.969422 -4.2902,-11.969422 -0.48655,0 -1.35046,1.30202 -1.9198,2.893377 -0.56935,1.591359 -1.49675,3.552376 -2.06091,4.357817 -1.03527,1.478059 -1.37829,4.375418 -0.60906,5.144639 0.8021,0.8021 8.15336,0.449097 8.87997,-0.426411 z m 11.13044,11.061828 c -0.23489,-0.234894 -0.42708,-4.441738 -0.42708,-9.348531 0,-8.826066 0.38122,-10.4943 2.07659,-9.087269 0.54166,0.449542 1.60518,0.267324 3.56637,-0.611046 3.32865,-1.490825 6.05444,-1.176698 8.57333,0.988012 1.71832,1.476721 1.72121,1.493171 1.72121,9.815892 0,6.993723 -0.15103,8.336692 -0.9375,8.336692 -0.76844,0 -0.99385,-1.447344 -1.25,-8.026116 -0.29171,-7.492274 -0.41064,-8.105442 -1.78799,-9.21875 -2.14113,-1.730667 -5.00386,-1.487018 -7.57522,0.644732 l -2.17571,1.803739 -0.22811,7.085697 c -0.2167,6.731598 -0.59403,8.57881 -1.55589,7.616948 z M 312.5,55.572917 c 0,-10.763673 0.17199,-13.744845 0.78125,-13.542071 0.58589,0.194993 0.82337,3.646304 0.94969,13.802083 0.14642,11.771877 0.0443,13.542071 -0.78125,13.542071 -0.82092,0 -0.94969,-1.8715 -0.94969,-13.802083 z m 26.875,4.114583 c 0,-9.270833 0.0537,-9.6875 1.25,-9.6875 0.69444,0 1.25,0.416667 1.25,0.9375 0,1.169307 -0.12017,1.182659 2.8125,-0.3125 2.87096,-1.463699 4.0625,-1.580261 4.0625,-0.397411 0,0.468923 -1.23516,1.324302 -2.74481,1.900841 -2.44703,0.934529 -2.81996,1.346698 -3.4375,3.799174 -0.38098,1.513007 -0.69269,5.157628 -0.69269,8.099159 0,4.931568 -0.0974,5.348237 -1.25,5.348237 -1.19624,0 -1.25,-0.416669 -1.25,-9.6875 z m 52.26451,8.7253 C 391.42527,67.854531 391.25,61.970831 391.25,55.337911 c 0,-9.914782 0.16544,-12.197155 0.93011,-12.831773 0.74528,-0.618536 0.99632,-0.599341 1.26338,0.0966 0.67563,1.760657 0.0189,26.348234 -0.71023,26.590802 -0.38734,0.128863 -0.87953,-0.222468 -1.09375,-0.780737 z M 175.625,43.75 c 0,-0.694444 0.41667,-1.25 0.9375,-1.25 0.52083,0 0.9375,0.555556 0.9375,1.25 0,0.694444 -0.41667,1.25 -0.9375,1.25 -0.52083,0 -0.9375,-0.555556 -0.9375,-1.25 z"
       id="path3947"
       inkscape:connector-curvature="0" />
    <path
       style="fill:#8d8e8e"
       d="m 272.8125,77.482075 c -2.47625,-1.116669 -4.87783,-3.5846 -4.48483,-4.608737 0.56784,-1.479775 1.42817,-1.221688 2.92233,0.876662 1.22339,1.718087 1.64158,1.875 4.99719,1.875 3.19989,0 3.8235,-0.205206 4.94102,-1.625906 1.41597,-1.800113 2.28355,-5.318969 1.69168,-6.861363 -0.32602,-0.849587 -0.66607,-0.758043 -2.30413,0.620294 -1.48245,1.247406 -2.60675,1.616975 -4.91912,1.616975 -2.74957,0 -3.21076,-0.231419 -5.57704,-2.798537 C 267.53091,63.811462 267.5,63.7213 267.5,59.051386 l 0,-4.726543 2.63176,-2.430083 c 3.42493,-3.162469 5.77431,-3.599253 9.53423,-1.772548 2.37625,1.154471 2.9947,1.25406 3.42853,0.552096 0.30627,-0.495539 0.97749,-0.684476 1.59283,-0.448349 0.95623,0.366941 1.03954,1.463637 0.82591,10.872324 -0.26586,11.708379 -0.75165,13.413286 -4.47813,15.716379 -2.21231,1.367282 -5.99059,1.673957 -8.22263,0.667413 z m 6.87651,-11.233012 c 2.39475,-1.480032 3.82191,-5.55843 3.1669,-9.04997 -0.61192,-3.261833 -3.74323,-6.576399 -6.2019,-6.564879 -4.24948,0.01991 -6.5384,2.828034 -6.61525,8.115786 -0.0594,4.088656 1.11614,6.892744 3.28515,7.836144 2.73182,1.188194 4.00637,1.1207 6.3651,-0.337081 z m -145.13255,2.523118 c -4.10542,-2.5032 -5.70245,-9.007763 -3.53912,-14.414461 0.80206,-2.004556 1.67561,-2.876149 4.12822,-4.118981 3.90957,-1.981128 6.9,-1.623694 10.15615,1.213926 5.29896,4.617844 3.8654,15.722391 -2.3075,17.874272 -2.92845,1.020869 -6.20717,0.805301 -8.43775,-0.554756 z m 7.68107,-1.200731 c 3.87511,-2.363044 5.14752,-8.521371 2.73692,-13.246532 -2.21383,-4.339454 -6.52568,-4.960395 -10.13064,-1.458894 -4.02636,3.910791 -3.95408,9.38774 0.17787,13.478601 2.7241,2.697006 4.35125,2.97365 7.21585,1.226825 z m 17.44997,1.981156 C 159,69.386288 157.82873,68.68935 157.08468,68.003856 l -1.35282,-1.246356 -0.70979,1.326256 C 153.50816,70.912537 153.125,68.388762 153.125,55.588114 153.125,44.370902 153.25901,42.5 154.0625,42.5 c 0.73231,0 0.93959,0.854948 0.94707,3.90625 0.0129,5.253562 0.61824,6.163832 2.9518,4.438551 2.95508,-2.184782 5.37303,-2.389714 8.68906,-0.736435 3.56793,1.778874 4.79856,4.256192 4.77515,9.612651 -0.0336,7.691239 -4.63932,11.548883 -11.73808,9.831589 z m 7.30409,-3.4641 c 3.20787,-3.870653 3.38243,-8.000738 0.53303,-12.611169 -1.47388,-2.384783 -2.35711,-2.852337 -5.38824,-2.852337 -3.87946,0 -6.81478,4.457951 -6.38084,9.690753 0.62853,7.579253 7.01818,10.862072 11.23605,5.772753 z m 27.07091,3.044481 c -1.22043,-0.532493 -2.39378,-1.858212 -3.36104,-3.797512 -1.23934,-2.484794 -1.4342,-3.62529 -1.17376,-6.869833 0.37579,-4.681504 1.52407,-6.605218 5.06352,-8.482892 2.1112,-1.119991 3.17809,-1.321341 5.09544,-0.961644 4.48113,0.840665 9.32205,8.095433 7.14902,10.713771 -0.55997,0.674721 -2.45953,0.890123 -7.84971,0.890123 l -7.11097,0 0,1.636029 c 0,2.030859 4.26474,6.488971 6.20751,6.488971 2.23247,0 4.80956,-1.689481 6.21778,-4.076231 0.72914,-1.235806 1.60673,-2.073238 1.95021,-1.860957 0.94702,0.585288 0.74657,2.804576 -0.28921,3.202044 -0.50254,0.192838 -1.08122,0.878382 -1.28594,1.523431 -0.69276,2.182682 -7.06924,3.140819 -10.61285,1.5947 z m 9.32388,-11.387355 c 1.42653,-0.547411 1.21488,-3.040528 -0.41763,-4.91938 -3.04748,-3.507337 -8.60159,-2.333976 -10.48594,2.215256 -0.67589,1.631724 -0.66389,2.039715 0.0737,2.506646 0.99318,0.628724 9.31082,0.780392 10.82987,0.197478 z m 89.42908,10.194824 -2.22845,-2.22845 0.17524,-8.012254 c 0.14496,-6.627447 0.33728,-8.012252 1.11275,-8.012252 0.76667,0 0.99444,1.423611 1.25,7.8125 0.35391,8.847731 0.91645,10.388531 4.00429,10.967813 4.72853,0.887081 7.21088,-3.172907 7.44485,-12.176388 0.14683,-5.650311 0.54975,-7.042537 1.70409,-5.888194 0.89656,0.89656 0.50589,18.483106 -0.41741,18.7898 -0.38591,0.128194 -0.86725,-0.400131 -1.06964,-1.174062 l -0.36798,-1.407144 -1.48977,1.399563 c -0.9605,0.90235 -2.62658,1.534206 -4.68964,1.77855 -3.04983,0.361206 -3.30438,0.274475 -5.42833,-1.849482 z m 28.65357,1.475819 c -1.55107,-0.669106 -3.00069,-4.458969 -2.48756,-6.503463 0.57112,-2.275523 3.84924,-4.203665 8.40674,-4.944716 2.29586,-0.373307 4.38092,-0.982909 4.63347,-1.354669 1.6283,-2.396916 -1.04986,-5.988427 -4.46553,-5.988427 -2.41901,0 -5.53613,1.683492 -6.03657,3.260229 C 321.08319,55.260176 320,55.35725 320,54.021412 c 0,-1.916481 1.23109,-3.21937 4.06439,-4.301415 3.64532,-1.392161 6.75332,-0.873445 9.15465,1.527889 1.74118,1.741176 1.78096,1.933903 1.78096,8.627509 0,5.323355 0.20857,7.019649 0.9375,7.624605 0.51562,0.427931 0.9375,1.024869 0.9375,1.326525 0,0.936706 -2.65461,0.602288 -3.85704,-0.485894 -1.06432,-0.9632 -1.22453,-0.96055 -2.32847,0.0385 -1.37701,1.246181 -7.21391,1.902732 -9.22046,1.037138 z m 7.66543,-2.057844 c 2.75869,-2.129131 3.32408,-3.090587 3.34567,-5.68934 0.0189,-2.277379 -0.0635,-2.377475 -1.69888,-2.064705 -0.94531,0.180787 -2.98438,0.511411 -4.53125,0.73472 -4.97581,0.718314 -7.03477,3.279913 -4.84375,6.026238 2.09456,2.625412 5.111,3.013031 7.72821,0.993087 z m 39.92804,1.976357 c -1.25092,-0.368588 -2.49908,-1.545219 -3.75,-3.535113 l -1.875,-2.982631 0,-10.304842 c 0,-9.036539 0.12565,-10.329208 1.0209,-10.50282 0.90285,-0.175085 1.05436,1.016255 1.31023,10.30257 0.15913,5.775301 0.49416,10.969035 0.74451,11.541629 0.25035,0.5726 1.55933,1.806263 2.90885,2.741481 4.31636,2.991238 8.69079,2.102888 12.10189,-2.457637 1.13444,-1.5167 1.32601,-2.889468 1.60112,-11.473303 0.23785,-7.421327 0.51422,-9.817349 1.15696,-10.030448 1.36197,-0.451562 0.74501,20.73727 -0.68084,23.382607 -1.82544,3.386681 -8.85882,4.992081 -14.53862,3.318506 z M 99.049444,68.62885 C 98.870025,68.161294 98.799569,62.020719 98.892862,54.983125 L 99.0625,42.1875 l 1.71347,-0.197254 c 1.38305,-0.159217 1.85001,0.142083 2.42157,1.5625 0.38945,0.967865 0.94398,2.322254 1.23228,3.009754 1.58792,3.786657 4.94518,12.706319 4.94518,13.138486 0,1.187476 2.17514,5.299014 2.80335,5.299014 0.37829,0 1.21524,-1.551713 1.85989,-3.448255 0.64465,-1.89654 1.54665,-3.759102 2.00443,-4.139028 0.45778,-0.379925 0.83647,-1.148523 0.84154,-1.707995 0.0148,-1.630387 2.12753,-7.951449 3.01525,-9.021084 0.44675,-0.538297 1.02393,-1.77014 1.28262,-2.73743 0.37997,-1.420759 0.82201,-1.758708 2.30039,-1.758708 l 1.83003,0 0.16844,13.59375 c 0.1645,13.276444 0.13898,13.59375 -1.09375,13.59375 -1.21658,0 -1.26219,-0.382581 -1.26219,-10.588114 0,-9.92552 -0.62101,-13.698492 -1.55486,-9.44669 -0.22361,1.018107 -0.94486,2.535431 -1.60277,3.371831 -0.65791,0.8364 -1.60996,3.029295 -2.11565,4.8731 -0.5057,1.843805 -1.11263,4.055498 -1.34873,4.914873 -0.2361,0.859375 -0.79191,1.984887 -1.23513,2.501144 -0.44322,0.516256 -1.10714,1.731068 -1.47537,2.699587 -0.50277,1.3224 -1.01788,1.711238 -2.06837,1.561356 -0.81465,-0.116237 -1.49192,-0.721618 -1.6217,-1.449587 -0.20583,-1.154569 -2.59158,-7.71488 -3.86393,-10.625 -0.788,-1.802324 -2.93325,-7.310899 -3.34673,-8.59375 C 102.69787,47.992187 102.25579,47.5 101.90938,47.5 c -0.39205,0 -0.69443,4.051223 -0.80087,10.729762 -0.12592,7.900969 -0.37689,10.798232 -0.95193,10.989475 -0.429505,0.142838 -0.927717,-0.122837 -1.107136,-0.590387 z m 76.890086,0.03931 c -0.6089,-1.586769 -0.0459,-18.035905 0.62297,-18.201205 0.84726,-0.209387 1.18619,17.659348 0.35081,18.494736 -0.4131,0.4131 -0.74049,0.314418 -0.97378,-0.293531 z m 6.70453,-12.886913 c 0.14363,-11.591805 0.3065,-13.59375 1.10594,-13.59375 0.79944,0 0.96231,2.001945 1.10594,13.59375 0.16503,13.318837 0.14267,13.59375 -1.10594,13.59375 -1.24861,0 -1.27097,-0.274913 -1.10594,-13.59375 z M 220,68.718963 c 0,-0.360819 0.37809,-1.415507 0.84021,-2.34375 0.46212,-0.928244 1.2072,-3.093963 1.65574,-4.812713 0.44854,-1.71875 1.30118,-3.6875 1.89476,-4.375 0.59358,-0.6875 1.42703,-2.796875 1.8521,-4.6875 0.42508,-1.890625 1.23341,-4.140625 1.79628,-5 0.56288,-0.859375 1.32798,-2.40625 1.70024,-3.4375 0.96784,-2.681175 3.79018,-3.008148 4.3863,-0.508161 0.23058,0.966988 0.77256,2.461286 1.20441,3.320661 0.43185,0.859375 1.28713,2.828125 1.90063,4.375 0.6135,1.546875 1.6282,3.992382 2.25489,5.43446 0.6267,1.442078 1.13944,2.948108 1.13944,3.346733 0,0.398625 0.70312,2.124664 1.5625,3.835638 1.89564,3.77415 2.01234,5.508169 0.37067,5.508169 -0.89938,0 -1.46175,-0.858125 -2.29183,-3.497187 -0.605,-1.923451 -1.49501,-3.892204 -1.97781,-4.375001 -1.01298,-1.012974 -10.1888,-1.248333 -11.92337,-0.305833 -0.98724,0.536428 -3.37456,4.64354 -4.11785,7.084271 C 221.89151,69.449612 220,69.818025 220,68.718963 Z m 16.17164,-10.812041 c 0.92112,-1.109887 -2.97126,-11.969422 -4.2902,-11.969422 -0.48655,0 -1.35046,1.30202 -1.9198,2.893377 -0.56935,1.591359 -1.49675,3.552376 -2.06091,4.357817 -1.03527,1.478059 -1.37829,4.375418 -0.60906,5.144639 0.8021,0.8021 8.15336,0.449097 8.87997,-0.426411 z m 11.13044,11.061828 c -0.23489,-0.234894 -0.42708,-4.441738 -0.42708,-9.348531 0,-8.826066 0.38122,-10.4943 2.07659,-9.087269 0.54166,0.449542 1.60518,0.267324 3.56637,-0.611046 3.32865,-1.490825 6.05444,-1.176698 8.57333,0.988012 1.71832,1.476721 1.72121,1.493171 1.72121,9.815892 0,6.993723 -0.15103,8.336692 -0.9375,8.336692 -0.76844,0 -0.99385,-1.447344 -1.25,-8.026116 -0.29171,-7.492274 -0.41064,-8.105442 -1.78799,-9.21875 -2.14113,-1.730667 -5.00386,-1.487018 -7.57522,0.644732 l -2.17571,1.803739 -0.22811,7.085697 c -0.2167,6.731598 -0.59403,8.57881 -1.55589,7.616948 z M 312.5,55.572917 c 0,-10.763673 0.17199,-13.744845 0.78125,-13.542071 0.58589,0.194993 0.82337,3.646304 0.94969,13.802083 0.14642,11.771877 0.0443,13.542071 -0.78125,13.542071 -0.82092,0 -0.94969,-1.8715 -0.94969,-13.802083 z m 26.875,4.114583 c 0,-9.270833 0.0537,-9.6875 1.25,-9.6875 0.69444,0 1.25,0.416667 1.25,0.9375 0,1.169307 -0.12017,1.182659 2.8125,-0.3125 2.87096,-1.463699 4.0625,-1.580261 4.0625,-0.397411 0,0.468923 -1.23516,1.324302 -2.74481,1.900841 -2.44703,0.934529 -2.81996,1.346698 -3.4375,3.799174 -0.38098,1.513007 -0.69269,5.157628 -0.69269,8.099159 0,4.931568 -0.0974,5.348237 -1.25,5.348237 -1.19624,0 -1.25,-0.416669 -1.25,-9.6875 z m 52.26451,8.7253 C 391.42527,67.854531 391.25,61.970831 391.25,55.337911 c 0,-9.914782 0.16544,-12.197155 0.93011,-12.831773 0.74528,-0.618536 0.99632,-0.599341 1.26338,0.0966 0.67563,1.760657 0.0189,26.348234 -0.71023,26.590802 -0.38734,0.128863 -0.87953,-0.222468 -1.09375,-0.780737 z M 175.625,43.75 c 0,-0.694444 0.41667,-1.25 0.9375,-1.25 0.52083,0 0.9375,0.555556 0.9375,1.25 0,0.694444 -0.41667,1.25 -0.9375,1.25 -0.52083,0 -0.9375,-0.555556 -0.9375,-1.25 z"
       id="path3945"
       inkscape:connector-curvature="0" />
    <path
       style="fill:#6f6f6f"
       d="m 273.125,76.875 c -0.66099,-0.427169 0.20742,-0.608681 2.9444,-0.615431 4.49978,-0.01112 6.00782,-1.1184 7.11304,-5.222888 0.68458,-2.542325 0.34119,-5.411681 -0.64764,-5.411681 -0.31151,0 -0.13214,-1.526475 0.39861,-3.392171 0.87732,-3.084005 0.87317,-3.661625 -0.0456,-6.358213 -0.93522,-2.744724 -0.93353,-3.05124 0.0227,-4.107829 0.56828,-0.627983 1.29875,-1.141787 1.62324,-1.141787 0.3556,0 0.50333,4.28306 0.37188,10.78125 -0.23681,11.706469 -0.465,12.539469 -4.08992,14.929563 -1.8793,1.239118 -6.14485,1.538168 -7.69067,0.539187 z m -3.59375,-2.32515 C 268.59296,74.214744 268.47866,72.5 269.39461,72.5 c 0.6447,0 1.59194,1.751487 1.15135,2.128888 -0.1284,0.109993 -0.58502,0.07442 -1.01471,-0.07904 z M 111.39483,68.850644 c -0.81197,-0.513225 -2.03964,-4.03445 -1.9948,-5.721519 0.0138,-0.517894 0.45361,-0.151025 0.97743,0.815262 1.24081,2.288869 2.82895,1.953275 3.5283,-0.745581 0.60807,-2.346658 2.34019,-5.286189 2.82765,-4.798734 0.56376,0.563769 -1.28016,6.080065 -2.14307,6.411197 -0.46218,0.177356 -0.84034,0.801118 -0.84034,1.386143 0,1.617007 -1.43571,3.234413 -2.35517,2.653232 z m 72.1643,0.125156 c -0.23877,-0.238775 -0.43413,-6.316944 -0.43413,-13.50705 0,-10.180301 0.17286,-13.0154 0.78125,-12.812976 0.58196,0.193632 0.82451,3.403644 0.95082,12.583779 0.15633,11.361722 -0.17422,14.859966 -1.29794,13.736247 z m 58.55196,-0.327594 c -0.29151,-0.459637 -1.0246,-2.226119 -1.6291,-3.925512 -0.6045,-1.699394 -1.39118,-3.381883 -1.74816,-3.738869 -0.76721,-0.767206 -9.2795,-1.29611 -11.57747,-0.719357 -0.92152,0.231286 -2.16392,1.361191 -2.93648,2.670582 -1.62534,2.754737 -2.14078,1.738031 -1.06565,-2.101964 0.89114,-3.182831 1.96008,-3.933058 3.46281,-2.430335 0.79754,0.797545 2.0097,0.983844 5.47818,0.841955 5.39271,-0.220606 5.59622,-0.627862 3.52663,-7.057206 -1.81051,-5.624465 -2.84311,-7.521009 -4.03623,-7.413194 -0.55576,0.05022 -0.96062,-0.410754 -0.96062,-1.09375 0,-0.842593 0.44731,-1.180556 1.5625,-1.180556 1.01516,0 1.5625,0.350047 1.5625,0.999294 0,0.549612 0.40265,1.88555 0.89478,2.96875 2.29673,5.05518 4.93386,11.618509 5.75532,14.323902 0.49757,1.638696 1.4932,3.97691 2.2125,5.196042 0.89188,1.511612 1.10438,2.420031 0.66816,2.856256 -0.43623,0.436225 -0.80824,0.373881 -1.16967,-0.196038 z m 78.87105,-0.25535 C 320.44196,67.852681 320,66.962056 320,66.413687 c 0,-0.548362 0.0703,-0.879831 0.15625,-0.736606 0.0859,0.143231 0.83809,1.033856 1.67144,1.979169 1.58745,1.800706 0.85587,2.438025 -0.84555,0.736606 z m 18.70403,-2.263494 c -0.22696,-1.824275 -0.2694,-5.285612 -0.0943,-7.691862 0.17511,-2.40625 0.33857,-5.148438 0.36325,-6.09375 0.0542,-2.078582 0.75125,-2.210233 1.62859,-0.307624 0.8881,1.925936 0.23384,16.842268 -0.75304,17.168311 -0.46663,0.154169 -0.88136,-0.960162 -1.1445,-3.075075 z m 29.30759,2.531344 C 367.40781,68.231456 366.74629,67.457819 365.40001,64.4579 363.8581,61.022076 363.75,60.178925 363.75,51.588513 c 0,-7.075653 0.17992,-9.133015 0.78125,-8.933599 0.5682,0.188427 0.86647,3.200871 1.09375,11.046463 0.34297,11.839142 0.0476,10.939223 4.64979,14.169067 1.60784,1.128406 1.10786,1.436837 -1.28103,0.790262 z M 377.5,68.858987 c 0,-0.357362 0.50216,-0.809131 1.11591,-1.003931 0.61375,-0.194794 2.02,-1.5305 3.125,-2.968231 1.88461,-2.452098 2.00909,-2.51549 2.00909,-1.023169 0,1.469082 -2.64642,4.886344 -3.78411,4.886344 -0.26876,0 -0.93353,0.170712 -1.47727,0.379369 C 377.94488,69.338019 377.5,69.21635 377.5,68.858987 Z M 99.375,55.583486 l 0,-13.166514 1.71341,0.197764 c 1.14426,0.132073 1.77895,0.612972 1.91072,1.447764 0.10853,0.6875 0.58179,2.09375 1.05171,3.125 0.46991,1.03125 1.45328,3.421875 2.18526,5.3125 0.73198,1.890625 1.57587,4 1.87531,4.6875 0.29944,0.6875 0.66772,2.025897 0.81839,2.974216 0.22248,1.400233 0.11388,1.59137 -0.57792,1.017222 C 107.88334,60.790091 107.5,60.094049 107.5,59.632176 c 0,-0.461872 -0.40593,-1.763372 -0.90207,-2.892222 -0.49614,-1.12885 -1.60402,-3.880579 -2.46197,-6.114954 -2.6058,-6.78639 -3.17482,-5.598872 -3.36913,7.03125 C 100.66394,64.344262 100.35367,68.75 99.985581,68.75 99.607462,68.75 99.375,63.737175 99.375,55.583486 Z m 24.375,2.2659 c 0,-5.995339 -0.22437,-11.03928 -0.49859,-11.208761 -0.89837,-0.555224 -1.73689,0.502787 -2.51782,3.176886 -0.73361,2.512099 -1.70844,3.79097 -2.37875,3.120662 -0.56507,-0.565064 1.06736,-5.495516 1.92898,-5.826152 0.46382,-0.177984 1.02432,-1.2885 1.24557,-2.467814 C 121.85782,42.893523 122.21321,42.5 123.46582,42.5 l 1.53418,0 0,13.125 c 0,8.333331 -0.22818,13.125 -0.625,13.125 -0.39277,0 -0.625,-4.050206 -0.625,-10.900614 z m 10.46436,10.223089 c -1.82424,-1.06235 -3.59052,-5.269231 -3.57564,-8.516326 0.016,-3.479438 1.98776,-8.306149 3.39322,-8.306149 1.3564,0 1.20499,0.939209 -0.31516,1.955017 -2.68867,1.796642 -2.92584,10.191108 -0.34728,12.29187 2.95378,2.406463 3.52035,4.133682 0.84486,2.575588 z m 9.35358,-0.728725 c 3.60602,-3.943694 4.22285,-8.560209 1.76214,-13.188163 -1.71529,-3.226026 -1.3345,-3.742808 0.959,-1.301488 1.32981,1.415517 1.50697,2.183938 1.50697,6.536271 0,4.77188 -0.0697,5.004117 -2.14562,7.145899 -2.3208,2.39445 -4.19974,3.123012 -2.08249,0.807481 z M 166.25,68.362231 c 0,-0.237456 0.65352,-1.302037 1.45226,-2.365737 0.79875,-1.063694 1.68602,-2.496494 1.97172,-3.183994 0.44912,-1.080721 0.5538,-1.107563 0.77299,-0.198206 0.34096,1.41455 -1.41337,4.68995 -2.95344,5.514168 -0.68394,0.366032 -1.24353,0.471232 -1.24353,0.233769 z M 176.49837,60 c 0,-4.984375 0.0971,-7.023438 0.2157,-4.53125 0.11863,2.492187 0.11863,6.570312 0,9.0625 -0.11864,2.492187 -0.2157,0.453125 -0.2157,-4.53125 z m 15.42915,6.316312 C 190.25545,64.20515 190,63.382244 190,60.106997 c 0,-4.2731 0.62994,-6.36194 2.47504,-8.207038 1.74151,-1.741512 3.05996,-1.623112 1.46201,0.131291 -1.83337,2.012873 -2.83872,4.172014 -2.43386,5.227076 0.28106,0.732425 1.60542,0.875767 6.76688,0.732412 l 6.41743,-0.178238 -0.0922,-2.03125 c -0.0507,-1.117188 0.15036,-2.03125 0.44677,-2.03125 0.91943,0 1.91961,2.478135 1.71517,4.249658 l -0.19478,1.687842 -7.5,0.3125 -7.5,0.3125 -0.1936,1.675607 c -0.14068,1.217524 0.43451,2.370856 2.10397,4.218749 1.5372,1.701488 1.98063,2.543144 1.33987,2.543144 -0.52673,0 -1.82508,-1.095163 -2.88522,-2.433688 z m 10.88845,1.179857 c 0.62409,-0.689607 1.27026,-1.118282 1.43593,-0.952606 0.41996,0.419962 -1.13889,2.206437 -1.92529,2.206437 -0.35494,0 -0.13473,-0.564225 0.48936,-1.253831 z m 17.80903,0.353219 c 0,-0.495338 0.28125,-1.074438 0.625,-1.286888 0.34375,-0.21245 0.625,0.192825 0.625,0.900612 0,0.707788 -0.28125,1.286888 -0.625,1.286888 -0.34375,0 -0.625,-0.405275 -0.625,-0.900612 z m 40.625,-6.647465 c 0,-7.545572 -6.2e-4,-7.548696 -1.86627,-9.414346 -1.67766,-1.677665 -1.72504,-1.825223 -0.46875,-1.460113 3.09836,0.900465 3.58502,2.350163 3.58502,10.679276 0,4.745504 -0.24196,7.74326 -0.625,7.74326 -0.38216,0 -0.625,-2.932694 -0.625,-7.548077 z m 9.17189,5.04409 c -2.16885,-2.233607 -2.40022,-2.796969 -2.4941,-6.072758 -0.12672,-4.421616 0.53794,-7.048255 1.78352,-7.048255 0.72116,0 0.82795,0.396638 0.46275,1.71875 -0.76984,2.787067 -0.35651,8.8472 0.71495,10.482462 1.3997,2.1362 5.46145,3.262551 7.70658,2.137076 2.74767,-1.377394 3.06357,-1.378119 1.49142,-0.0038 -1.04735,0.915788 -2.31684,1.284063 -4.375,1.269163 -2.54118,-0.01838 -3.19495,-0.32525 -5.29012,-2.482994 z m 21.81919,0.331168 c -1.5958,-2.092187 -1.65073,-2.432381 -1.48044,-9.167821 0.1155,-4.568142 0.42586,-7.077606 0.89455,-7.233081 0.50828,-0.168606 0.78183,2.122758 0.9375,7.85287 0.18707,6.88557 0.39718,8.286845 1.41043,9.405895 0.65484,0.723225 0.89915,1.314956 0.54293,1.314956 -0.35623,0 -1.39347,-0.977769 -2.30497,-2.172819 z M 312.5,55.974386 c 0,-7.842896 0.24131,-12.924756 0.625,-13.161886 0.40911,-0.252843 0.625,4.160176 0.625,12.775614 0,8.357924 -0.22812,13.161886 -0.625,13.161886 -0.39628,0 -0.625,-4.675206 -0.625,-12.775614 z m 20.3658,11.206745 c -0.76876,-1.173281 -0.86568,-1.872087 -0.38438,-2.771412 0.77824,-1.454156 0.82487,-4.405908 0.088,-5.568838 -0.31079,-0.490474 -0.24949,-1.606886 0.14571,-2.653907 0.55381,-1.467208 0.4735,-2.160549 -0.42679,-3.684631 -1.20945,-2.047427 -0.57762,-2.535452 1.01054,-0.780549 0.74743,0.8259 1.04523,2.794079 1.20573,7.96875 0.11723,3.779575 0.44738,7.364143 0.73365,7.965706 0.83458,1.753713 -1.17585,1.351088 -2.37243,-0.475119 z m 59.42587,1.1522 C 391.59615,67.637819 391.79874,43.125 392.5,43.125 c 0.39634,0 0.625,4.6875 0.625,12.8125 0,7.046875 -0.0937,12.8125 -0.20833,12.8125 -0.11459,0 -0.39584,-0.1875 -0.625,-0.416669 z M 157.16902,66.845094 c -0.22262,-0.3602 -1.01265,-0.571138 -1.75564,-0.46875 -1.31567,0.181306 -1.35543,-0.02075 -1.52557,-7.751729 l -0.1747,-7.937885 1.49575,1.332294 1.49574,1.332294 -1.22587,2.771301 c -1.08259,2.447347 -1.13522,3.095105 -0.45034,5.541303 0.42656,1.523503 1.31821,3.459866 1.98145,4.303041 0.66324,0.843168 1.06145,1.533037 0.88491,1.533037 -0.17654,0 -0.50312,-0.294706 -0.72573,-0.654906 z m 147.27769,-0.53755 c -0.69492,-0.4401 -0.72575,-0.95 -0.15625,-2.583694 C 304.68071,62.604394 305,59.339815 305,56.469236 305,53.406412 305.25823,51.25 305.625,51.25 c 0.38333,0 0.625,3.020833 0.625,7.8125 0,4.296875 -0.21094,7.808194 -0.46875,7.802931 -0.25781,-0.005 -0.85836,-0.256312 -1.33454,-0.557887 z M 205,64.761269 c 0,-0.515625 0.28125,-1.111319 0.625,-1.323769 0.34375,-0.21245 0.625,0.03563 0.625,0.551231 0,0.515625 -0.28125,1.111319 -0.625,1.323769 C 205.28125,65.52495 205,65.276875 205,64.761269 Z M 324.375,59.0625 c 1.72712,-0.98731 5.625,-1.254371 5.625,-0.385394 0,0.723988 -2.26451,1.309236 -5,1.292213 l -2.1875,-0.01361 1.5625,-0.893206 z m -76.67671,-3.995577 c 0.10904,-3.21808 0.19521,-3.379091 1.90454,-3.558745 1.51496,-0.159225 1.63526,-0.07339 0.78215,0.558077 -0.55451,0.410435 -1.41155,2.01187 -1.90455,3.558745 l -0.89635,2.8125 0.11421,-3.370577 z M 383.90761,55.9375 c 0.007,-1.375 0.13493,-1.863908 0.28443,-1.086463 0.14949,0.777446 0.14382,1.902445 -0.0126,2.5 -0.15642,0.597555 -0.27874,-0.03854 -0.2718,-1.413537 z M 168.59393,54.341992 C 167.64872,52.641397 167.13644,51.25 167.45554,51.25 c 0.94932,0 2.51556,1.854748 2.91705,3.454384 0.7195,2.866734 -0.0737,2.705125 -1.77866,-0.362392 z m 58.66859,-3.772233 c 0.21817,-1.172742 0.78272,-2.54409 1.25457,-3.047438 0.73969,-0.789069 0.85791,-0.651701 0.85791,0.996883 0,1.120642 -0.51928,2.382004 -1.25458,3.047438 -1.23695,1.119424 -1.249,1.105417 -0.8579,-0.996883 z m 94.13057,1.188478 c 0.31142,-0.934273 1.73191,-1.448683 1.73191,-0.627188 0,0.335618 -0.44537,0.781122 -0.98973,0.990008 -0.60869,0.233579 -0.89442,0.0939 -0.74218,-0.36282 z M 344.375,51.25 c 0.51562,-0.333223 1.35937,-0.605859 1.875,-0.605859 0.83333,0 0.83333,0.06732 0,0.605859 -0.51563,0.333223 -1.35938,0.605859 -1.875,0.605859 -0.83333,0 -0.83333,-0.06732 0,-0.605859 z M 197.38281,49.573054 c 0.45117,-0.180545 0.99024,-0.15834 1.19792,0.04934 0.20768,0.207682 -0.16146,0.3554 -0.82031,0.328262 -0.72809,-0.02999 -0.87619,-0.178088 -0.37761,-0.377604 z M 383.92876,46.5625 c 0.005,-1.71875 0.12607,-2.347696 0.26973,-1.397656 0.14366,0.950038 0.13982,2.356288 -0.008,3.125 -0.14838,0.76871 -0.26592,-0.0086 -0.26123,-1.727344 z"
       id="path3943"
       inkscape:connector-curvature="0" />
  </g>
</svg>
