<?xml version="1.0" encoding="UTF-8" standalone="no"?>
<!-- Created with Inkscape (http://www.inkscape.org/) -->

<svg
   xmlns:dc="http://purl.org/dc/elements/1.1/"
   xmlns:cc="http://creativecommons.org/ns#"
   xmlns:rdf="http://www.w3.org/1999/02/22-rdf-syntax-ns#"
   xmlns:svg="http://www.w3.org/2000/svg"
   xmlns="http://www.w3.org/2000/svg"
   xmlns:xlink="http://www.w3.org/1999/xlink"
   xmlns:sodipodi="http://sodipodi.sourceforge.net/DTD/sodipodi-0.dtd"
   xmlns:inkscape="http://www.inkscape.org/namespaces/inkscape"
   id="svg3706"
   version="1.1"
   inkscape:version="0.91 r13725"
   width="406.875"
   height="108.75"
   viewBox="0 0 406.875 108.75"
   sodipodi:docname="Nativescript.svg">
  <metadata
     id="metadata3712">
    <rdf:RDF>
      <cc:Work
         rdf:about="">
        <dc:format>image/svg+xml</dc:format>
        <dc:type
           rdf:resource="http://purl.org/dc/dcmitype/StillImage" />
        <dc:title></dc:title>
      </cc:Work>
    </rdf:RDF>
  </metadata>
  <defs
     id="defs3710" />
  <sodipodi:namedview
     pagecolor="#ffffff"
     bordercolor="#666666"
     borderopacity="1"
     objecttolerance="10"
     gridtolerance="10"
     guidetolerance="10"
     inkscape:pageopacity="0"
     inkscape:pageshadow="2"
     inkscape:window-width="640"
     inkscape:window-height="480"
     id="namedview3708"
     showgrid="false"
     inkscape:zoom="0.64393241"
     inkscape:cx="203.4375"
     inkscape:cy="54.375"
     inkscape:window-x="0"
     inkscape:window-y="0"
     inkscape:window-maximized="0"
     inkscape:current-layer="svg3706" />
  <image
     width="406.875"
     height="108.75"
     preserveAspectRatio="none"
     style="image-rendering:optimizeQuality"
     xlink:href="file:///media/havoc/USB%20DISK/pics/_Products/Nativescript.png"
     id="image3714"
     x="0"
     y="0"
     sodipodi:absref="/media/havoc/USB DISK/pics/_Products/Nativescript.png" />
  <g
     id="g3904">
    <path
       style="fill:#fcfcfc"
       d="M 0,54.375 0,0 203.4375,0 406.875,0 l 0,54.375 0,54.375 -203.4375,0 L 0,108.75 0,54.375 Z"
       id="path3920"
       inkscape:connector-curvature="0" />
    <path
       style="fill:#9dabfd"
       d="M 14.546613,92.091194 C 11.00027,90.835462 5.9374789,86.170337 3.8716784,82.25475 L 2.1875,79.0625 l 0,-25.3125 0,-25.3125 1.8539366,-3.347129 C 6.4050906,20.822988 10.449614,17.264274 14.775261,15.645842 17.965229,14.452322 19.576038,14.375 41.25,14.375 c 21.673962,0 23.284769,0.07732 26.474738,1.270842 4.325649,1.618432 8.370168,5.177146 10.733824,9.444529 l 1.853938,3.347129 0,25.3125 0,25.3125 -1.684181,3.19225 c -2.138856,4.054069 -7.160113,8.590437 -10.930781,9.875231 -4.188144,1.42705 -49.103814,1.394269 -53.150925,-0.03881 z M 27.5,64.738619 C 27.5,50.462559 27.683484,48.125 28.804067,48.125 c 0.299932,0 6.181852,7.03125 13.070933,15.625 l 12.525603,15.625 3.768236,0 c 4.607955,0 7.093811,-1.186337 8.013398,-3.824275 C 66.563256,74.457737 66.875,70.152394 66.875,65.9833 c 0,-7.805566 0.395131,-9.267059 3.096319,-11.452509 0.865344,-0.700123 0.852825,-0.849687 -0.119907,-1.433017 C 67.679069,51.795052 67.190606,49.775879 66.875,40.794058 66.572331,32.180392 66.509975,31.848135 64.89285,30.23236 63.454875,28.795593 62.67435,28.555321 59.267848,28.500802 L 55.3125,28.4375 55,43.741999 C 54.73535,56.703073 54.54395,59.068551 53.75,59.190527 53.185563,59.277244 47.971983,53.240706 40.648386,44.02084 32.611863,33.903452 27.981431,28.580916 27.002387,28.335192 c -2.897517,-0.727231 -7.789616,0.293029 -9.473863,1.975796 -1.519926,1.518593 -1.604988,1.987048 -1.903524,10.48307 -0.31475,8.957468 -0.818078,11.052346 -2.940941,12.24036 -0.932989,0.522126 -0.827172,0.842433 0.945165,2.861014 l 1.995776,2.273063 0,7.697486 c 0,4.233619 0.311081,8.589856 0.691291,9.680525 0.914202,2.622488 3.210042,3.772975 7.589959,3.803469 L 27.5,79.375 27.5,64.738619 Z M 342.31726,80.858931 C 342.07402,80.615687 341.875,72.478006 341.875,62.7752 c 0,-15.510151 0.11944,-17.687296 0.98862,-18.020832 1.52169,-0.583931 6.46259,-0.44946 7.69366,0.209389 0.73544,0.393596 1.91308,0.299101 3.55266,-0.285066 5.1808,-1.845872 9.7637,-0.782357 14.09761,3.271506 l 3.04245,2.845856 0,-2.508999 c 0,-2.739017 0.73152,-3.677334 3.125,-4.008418 1.40466,-0.194303 1.59407,-0.563382 1.875,-3.653636 l 0.3125,-3.4375 3.96082,-0.18749 c 4.94349,-0.234006 5.72668,0.357694 5.72668,4.326518 l 0,3.048472 3,0 c 3.73486,0 4.5,0.743885 4.5,4.375 0,3.631115 -0.76514,4.375 -4.5,4.375 l -3,0 0,4.968944 c 0,5.679725 0.51075,6.345094 4.46363,5.8149 2.16654,-0.290594 2.44202,-0.159607 3.05498,1.452593 0.37053,0.974588 0.72887,2.736238 0.7963,3.914775 0.10995,1.921863 -0.10294,2.225832 -2.06491,2.948238 -5.50281,2.026175 -12.71045,0.234206 -14.8608,-3.694706 -0.74474,-1.360713 -1.17305,-3.983325 -1.3892,-8.506276 l -0.3125,-6.539032 -1.87624,-0.381579 -1.87625,-0.381578 0.001,5.35811 c 0.001,4.746542 -0.19887,5.698561 -1.75205,8.340855 -0.96432,1.640512 -2.91252,3.749887 -4.32936,4.6875 -2.27063,1.502631 -3.13724,1.696543 -7.3092,1.635475 -2.60323,-0.03812 -5.29564,-0.178732 -5.98314,-0.3125 -1.13179,-0.220219 -1.27955,0.170525 -1.5625,4.131781 l -0.3125,4.375 -4.08899,0.18185 c -2.24894,0.100013 -4.288,-0.01719 -4.53125,-0.260419 z M 360.96591,62.840906 C 362.13572,61.671098 362.5,60.64542 362.5,58.521467 c 0,-2.343 -0.30539,-3.042319 -1.92296,-4.403408 C 359.51942,53.228126 357.99413,52.5 357.1875,52.5 c -0.80663,0 -2.33193,0.728126 -3.38954,1.618059 -1.61757,1.361089 -1.92296,2.060408 -1.92296,4.403408 0,3.61601 2.03071,5.853533 5.3125,5.853533 1.54953,0 2.71924,-0.474925 3.77841,-1.534094 z m -229.47075,9.047069 c -3.11053,-1.581863 -4.83792,-3.34805 -6.46585,-6.611069 l -1.2295,-2.464406 -0.0249,4.09375 c -0.0141,2.317756 -0.35028,4.419125 -0.7749,4.84375 -0.4125,0.4125 -2.27312,0.75 -4.1347,0.75 -3.84078,0 -3.26024,0.494556 -13.71141,-11.680609 -3.00655,-3.50246 -5.677358,-6.385272 -5.93517,-6.40625 -0.257813,-0.02098 -0.46875,3.724297 -0.46875,8.322834 0,6.439838 -0.202875,8.529338 -0.882931,9.093737 -0.531013,0.440701 -2.461625,0.658038 -4.84375,0.545276 L 89.0625,72.1875 88.896325,54.41802 c -0.12905,-13.799572 0.01056,-17.881677 0.625,-18.271679 0.435144,-0.27621 2.111431,-0.506507 3.725075,-0.51177 3.565587,-0.01163 3.695,0.09889 12.76574,10.902203 l 6.80036,8.099274 0.3125,-8.904992 c 0.35553,-10.131083 0.32884,-10.081419 5.42411,-10.096485 4.96218,-0.01468 5.19982,0.450465 5.20675,10.191322 l 0.006,8.236607 1.86552,-3.252786 c 3.25873,-5.682048 10.144,-8.324935 16.19959,-6.218166 2.00429,0.6973 3.09494,0.784804 3.9667,0.318251 0.66129,-0.353912 2.79233,-0.491308 4.73565,-0.305325 4.84229,0.463427 4.54583,0.462447 6.81456,0.02252 1.9523,-0.378565 2.03125,-0.509599 2.03125,-3.371408 0,-3.890818 0.8044,-4.488582 5.72668,-4.255581 l 3.96106,0.18749 0.18744,3.59375 0.18744,3.59375 3.04917,0 c 3.75121,0 5.01345,1.101492 5.01345,4.375 0,3.282151 -1.26012,4.375 -5.04464,4.375 l -3.08036,0 0,4.610972 c 0,5.462084 0.65392,6.310816 4.70089,6.101328 l 2.73457,-0.141556 0.96513,3.249931 c 0.69516,2.340856 0.77761,3.475875 0.29477,4.057662 -2.13359,2.570813 -10.7812,2.766769 -14.21442,0.3221 -3.21463,-2.289025 -4.07338,-4.610006 -4.36377,-11.794187 -0.21849,-5.405377 -0.41875,-6.407583 -1.28181,-6.414784 -0.56257,-0.0047 -1.64837,-0.176213 -2.41289,-0.381154 -1.38886,-0.372304 -1.39018,-0.364254 -1.5625,9.539785 l -0.17247,9.912403 -5.9375,0.124 c -3.26563,0.0682 -7.76563,0.294575 -10,0.50305 -3.37902,0.315281 -4.49443,0.159394 -6.62984,-0.926575 z m 10.434,-8.3141 c 2.97185,-2.281711 3.26119,-6.604681 0.61892,-9.246952 -2.04824,-2.048234 -3.63005,-2.269112 -6.31329,-0.881561 -3.23916,1.675039 -3.5565,7.358759 -0.54916,9.835888 1.52518,1.256294 4.78914,1.409269 6.24353,0.292625 z M 227.8125,72.4619 c -2.71738,-0.797631 -6.39261,-4.060369 -7.94535,-7.053606 -1.41737,-2.732282 -1.86751,-8.351751 -0.95891,-11.970794 l 0.47074,-1.875 -0.8664,1.5625 c -0.47652,0.859375 -2.35052,5.21875 -4.16444,9.6875 -1.81392,4.46875 -3.56875,8.476562 -3.89961,8.90625 -0.3777,0.490506 -2.1959,0.78125 -4.88565,0.78125 -5.20189,0 -4.59474,0.776106 -10.26776,-13.125 -2.31468,-5.671875 -4.453,-10.579687 -4.75181,-10.90625 C 190.23376,48.13046 190,52.870599 190,59.485972 c 0,9.239459 -0.18034,11.76064 -0.88293,12.34374 -0.53101,0.4407 -2.46163,0.658038 -4.84375,0.545275 L 180.3125,72.1875 180.14334,59.142099 c -0.11297,-8.711977 0.0564,-13.317263 0.51006,-13.86382 0.49662,-0.598385 2.89455,-0.819605 8.91916,-0.822832 4.53197,-0.0024 8.7054,0.129574 9.27429,0.293335 0.6226,0.179221 2.08054,2.900843 3.6625,6.836982 1.44548,3.59658 2.84317,6.539236 3.10596,6.539236 0.2628,0 1.53701,-2.823754 2.83157,-6.275008 1.33306,-3.553895 2.83991,-6.535191 3.47485,-6.875 0.6166,-0.329996 2.65202,-0.599992 4.52315,-0.599992 4.36224,0 5.16929,0.850766 3.83542,4.043162 -1.24773,2.986244 -0.80689,3.451824 0.94236,0.995234 0.74746,-1.049715 2.67658,-2.683096 4.28693,-3.629735 2.44187,-1.435446 3.65417,-1.721161 7.30291,-1.721161 3.65739,0 4.85922,0.284641 7.32714,1.735361 3.40673,2.002586 6.01203,5.937 6.82974,10.31397 0.81963,4.387231 0.35818,5.138169 -3.15733,5.138169 -4.08035,0 -4.52767,0.785314 -0.88593,1.555344 2.38872,0.505093 3.05203,0.9221 3.20797,2.016812 0.2769,1.943844 -4.47184,6.549 -7.7691,7.534194 -2.92008,0.8725 -7.77422,0.92105 -10.55249,0.10555 z m 9.12528,-9.081213 C 238.69864,61.787126 237.81626,61.25 233.4375,61.25 c -4.54568,0 -5.63048,0.84991 -3.39513,2.659981 1.7407,1.409544 5.0322,1.156888 6.89541,-0.529293 z M 236.25,54.129368 c 0,-1.634652 -4.69557,-2.308797 -6.125,-0.879368 -1.36885,1.368851 -0.78352,1.75 2.6875,1.75 2.52155,0 3.4375,-0.231987 3.4375,-0.870632 z m 19.74421,18.012344 c -3.65688,-1.33985 -6.5352,-3.810343 -8.03428,-6.895906 -1.69566,-3.490179 -1.11794,-4.156215 4.53225,-5.225078 3.66098,-0.692559 4.11613,-0.662922 4.6875,0.305221 1.60154,2.713676 2.67043,3.522895 5.08036,3.846132 3.20218,0.4295 5.23996,-0.584525 5.23996,-2.607481 0,-1.622286 -0.41123,-1.795932 -8.24569,-3.481886 C 251.63056,56.442109 248.125,52.911847 248.125,46.875 c 0,-4.099256 1.49258,-6.873211 4.95303,-9.205206 4.53516,-3.056253 12.30906,-3.466974 17.31203,-0.914653 4.3988,2.244099 8.33942,7.890376 6.67114,9.558658 -0.3285,0.328503 -2.30914,0.915634 -4.40143,1.304735 l -3.80415,0.707456 -2.15786,-2.287995 c -2.2493,-2.384956 -4.3795,-2.90369 -6.73885,-1.641005 -1.30479,0.698302 -1.62837,2.769999 -0.53791,3.443941 0.36906,0.228086 3.32628,1.0722 6.57161,1.87581 6.3173,1.564292 9.08685,3.105985 10.88172,6.057395 l 1.12561,1.850933 0.97292,-3.346719 c 2.80517,-9.649429 14.99791,-13.510043 23.41384,-7.413574 2.6358,1.909364 5.44226,6.376481 4.89764,7.795718 -0.32529,0.847702 -4.96605,2.214506 -7.51898,2.214506 -1.02917,0 -1.69641,-0.442002 -1.9704,-1.305254 -0.50185,-1.581185 -3.58285,-2.984743 -5.6743,-2.584938 -3.01872,0.577064 -4.92925,5.10507 -3.60742,8.549691 0.47788,1.245357 3.44757,2.840501 5.28817,2.840501 0.75777,0 2.31338,-1.007169 3.50167,-2.267129 l 2.13818,-2.26713 3.53459,0.709847 c 1.94402,0.390416 3.77281,0.948068 4.06396,1.239226 1.77671,1.776705 -3.53773,8.735417 -7.96162,10.424911 -6.84118,2.612669 -15.09598,-0.164181 -18.73827,-6.303394 l -1.84757,-3.114162 -1.58993,3.132018 c -1.69606,3.3411 -4.40366,5.539913 -8.0789,6.560794 -3.20414,0.890019 -9.94941,0.706913 -12.82931,-0.348269 z m 52.90592,-0.366581 c -0.56445,-0.564456 -0.77513,-4.126425 -0.77513,-13.105488 0,-14.527403 -0.0259,-14.46089 5.52693,-14.167385 2.85791,0.151057 3.62776,0.433275 4.17174,1.529304 l 0.66709,1.344061 2.47337,-1.497109 c 2.75348,-1.666659 6.61023,-1.98257 7.73013,-0.633185 0.4994,0.60174 0.57123,2.092124 0.23277,4.82939 l -0.48953,3.959061 -3.11977,0.522911 c -5.47837,0.918241 -6.67154,2.81651 -7.15351,11.380809 l -0.35172,6.25 -4.06862,0.181381 c -2.62668,0.117107 -4.34332,-0.09333 -4.84375,-0.59375 z M 330.75,71.75 C 330.21642,71.216419 330,67.375 330,58.4375 c 0,-8.9375 0.21642,-12.778918 0.75,-13.3125 0.97378,-0.973775 7.52623,-0.973775 8.5,0 0.53358,0.533582 0.75,4.375 0.75,13.3125 0,8.9375 -0.21642,12.778919 -0.75,13.3125 -0.4125,0.4125 -2.325,0.75 -4.25,0.75 -1.925,0 -3.8375,-0.3375 -4.25,-0.75 z M 181.29796,41.506941 c -3.19472,-2.688177 -2.43377,-7.085012 1.51148,-8.733443 2.72243,-1.137503 5.63223,-0.18267 6.89705,2.263225 1.36036,2.630648 1.12924,4.223705 -0.90842,6.261354 -2.32904,2.329053 -4.89548,2.400523 -7.50011,0.208864 z m 149.90397,-0.208864 c -2.90093,-2.900924 -2.1358,-6.960525 1.6066,-8.524195 3.86471,-1.614781 7.81647,0.936117 7.81647,5.045607 0,2.361985 -3.12078,5.305511 -5.625,5.305511 -1.34531,0 -2.55121,-0.58005 -3.79807,-1.826923 z"
       id="path3918"
       inkscape:connector-curvature="0" />
    <path
       style="fill:#7387fd"
       d="M 14.551402,91.181275 C 10.549923,89.643069 6.0091362,85.357044 4.1751943,81.387231 2.8477188,78.513737 2.8125,77.79945 2.8125,53.75 l 0,-24.6875 1.6628156,-3.150091 C 6.6118113,21.864962 10.805581,18.014936 14.724156,16.503616 17.564348,15.408208 19.695728,15.3125 41.25,15.3125 c 21.554269,0 23.68565,0.09571 26.525844,1.191116 3.918575,1.51132 8.112343,5.361347 10.248843,9.408793 l 1.662813,3.150091 0,24.6875 c 0,24.04945 -0.03519,24.763738 -1.362694,27.637231 -1.889156,4.089325 -6.367656,8.258382 -10.553887,9.82465 -3.256794,1.218519 -4.699444,1.286356 -26.700615,1.25555 -21.734848,-0.03044 -23.471345,-0.11465 -26.518901,-1.286156 z M 28.370632,79.011381 C 28.579284,78.467644 28.75,71.542581 28.75,63.622356 c 0,-12.827925 0.103971,-14.314123 0.952142,-13.610204 0.523679,0.434614 6.200757,7.359677 12.615732,15.389029 L 53.981463,80 l 4.561908,0 c 4.156635,0 4.743235,-0.16195 6.603017,-1.822938 L 67.1875,76.354125 67.5,66.857837 67.8125,57.361547 69.870038,55.644561 71.927575,53.927576 69.713788,51.713787 67.5,49.5 l 0,-8.218537 C 67.5,32.11887 66.904162,30.068579 63.770456,28.448079 61.585456,27.318171 55.560561,27.189439 54.5,28.25 c -0.540568,0.540568 -0.75,4.831019 -0.75,15.364583 0,8.473375 -0.238047,14.527039 -0.566493,14.40625 C 52.871935,57.90625 47.911052,51.90625 42.159321,44.6875 27.795148,26.659642 28.672198,27.5 24.221358,27.5 16.460829,27.5 15,29.683232 15,41.281463 L 15,49.5 l -2.187109,2.187109 -2.187109,2.187109 1.838812,1.717708 c 2.307299,2.15534 2.468994,2.924835 2.677522,12.742118 l 0.170384,8.021543 2.041111,1.822207 C 19.188877,79.816231 19.828196,80 23.692993,80 c 3.342904,0 4.382592,-0.219737 4.677639,-0.988619 z m 313.946628,1.84755 C 342.07402,80.615687 341.875,72.478006 341.875,62.7752 c 0,-15.510151 0.11944,-17.687296 0.98862,-18.020832 1.52169,-0.583931 6.46259,-0.44946 7.69366,0.209389 0.73544,0.393596 1.91308,0.299101 3.55266,-0.285066 5.1808,-1.845872 9.7637,-0.782357 14.09761,3.271506 l 3.04245,2.845856 0,-2.508999 c 0,-2.739017 0.73152,-3.677334 3.125,-4.008418 1.40466,-0.194303 1.59407,-0.563382 1.875,-3.653636 l 0.3125,-3.4375 3.96082,-0.18749 c 4.94349,-0.234006 5.72668,0.357694 5.72668,4.326518 l 0,3.048472 3,0 c 3.73486,0 4.5,0.743885 4.5,4.375 0,3.631115 -0.76514,4.375 -4.5,4.375 l -3,0 0,4.968944 c 0,5.679725 0.51075,6.345094 4.46363,5.8149 2.16654,-0.290594 2.44202,-0.159607 3.05498,1.452593 0.37053,0.974588 0.72887,2.736238 0.7963,3.914775 0.10995,1.921863 -0.10294,2.225832 -2.06491,2.948238 -5.50281,2.026175 -12.71045,0.234206 -14.8608,-3.694706 -0.74474,-1.360713 -1.17305,-3.983325 -1.3892,-8.506276 l -0.3125,-6.539032 -1.87624,-0.381579 -1.87625,-0.381578 0.001,5.35811 c 0.001,4.746542 -0.19887,5.698561 -1.75205,8.340855 -0.96432,1.640512 -2.91174,3.749887 -4.32761,4.6875 -2.22419,1.4729 -3.17579,1.697456 -6.99671,1.651081 -2.43231,-0.0295 -5.18289,-0.270775 -6.11239,-0.536119 l -1.69001,-0.482437 -0.18499,4.598612 -0.185,4.598619 -4.08899,0.18185 c -2.24893,0.100013 -4.288,-0.01719 -4.53125,-0.260419 z m 18.64865,-18.018025 c 1.16222,-1.162218 1.52927,-2.184859 1.51422,-4.218747 -0.0214,-2.889094 -0.7537,-4.247792 -2.90779,-5.39507 -2.10125,-1.119131 -3.6739,-0.876476 -5.77438,0.89097 -1.61757,1.361089 -1.92296,2.060408 -1.92296,4.403408 0,3.61601 2.03071,5.853533 5.3125,5.853533 1.54953,0 2.71924,-0.474925 3.77841,-1.534094 z m -228.44723,9.622019 c -2.91804,-1.227506 -5.65985,-3.791769 -7.18391,-6.718694 l -1.52657,-2.931731 -0.0291,4.09375 c -0.0164,2.312162 -0.3555,4.42015 -0.7791,4.84375 -0.98797,0.987969 -6.86458,0.965356 -8.12107,-0.03125 -0.54174,-0.429688 -4.14893,-4.4375 -8.01598,-8.90625 -3.86702,-4.46875 -7.274417,-8.21875 -7.571955,-8.333333 C 98.993437,54.364583 98.75,58.056708 98.75,62.683887 c 0,6.484707 -0.202375,8.581013 -0.882931,9.145825 -0.531013,0.4407 -2.461625,0.658038 -4.84375,0.545275 L 89.0625,72.1875 88.896325,54.41802 c -0.12905,-13.799572 0.01056,-17.881677 0.625,-18.271679 0.435144,-0.27621 2.111431,-0.506507 3.725075,-0.51177 3.565587,-0.01163 3.695,0.09889 12.76574,10.902203 l 6.80036,8.099274 0.3125,-8.904992 c 0.35553,-10.131083 0.32884,-10.081419 5.42411,-10.096485 4.96218,-0.01468 5.19982,0.450465 5.20675,10.191322 l 0.006,8.236607 1.86552,-3.252786 c 3.26108,-5.686143 10.17791,-8.333035 16.14748,-6.179227 2.03194,0.733121 3.02688,0.810175 3.9667,0.307202 0.7154,-0.382871 2.77277,-0.526058 4.78776,-0.333215 4.84229,0.463427 4.54583,0.462447 6.81456,0.02252 1.9523,-0.378565 2.03125,-0.509599 2.03125,-3.371408 0,-3.890818 0.8044,-4.488582 5.72668,-4.255581 l 3.96106,0.18749 0.18744,3.59375 0.18744,3.59375 3.04917,0 c 3.75121,0 5.01345,1.101492 5.01345,4.375 0,3.282151 -1.26012,4.375 -5.04464,4.375 l -3.08036,0 0.01,4.53125 c 0.005,2.492187 0.26093,4.928325 0.56815,5.413638 0.37826,0.597562 1.57854,0.846287 3.7184,0.770549 l 3.15982,-0.111837 0.8821,2.97945 c 0.54432,1.838556 0.67426,3.379106 0.33933,4.023144 -1.44805,2.784487 -10.58348,3.166887 -14.19642,0.594244 -3.21464,-2.289025 -4.07339,-4.610007 -4.36378,-11.794188 -0.21849,-5.405377 -0.41875,-6.407583 -1.2818,-6.414784 -0.56258,-0.0047 -1.64838,-0.176213 -2.4129,-0.381153 -1.38885,-0.372305 -1.39017,-0.364255 -1.5625,9.539784 l -0.17246,9.912403 -5.9375,0.124 c -3.26563,0.0682 -7.76563,0.276294 -10,0.462431 -2.24773,0.187244 -4.75214,0.04831 -5.60633,-0.311006 z m 10.2086,-9.73565 c 2.36796,-2.367975 2.292,-5.929151 -0.1792,-8.400352 -2.04824,-2.048234 -3.63005,-2.269112 -6.31329,-0.88156 -2.13483,1.103966 -3.1618,4.05369 -2.39083,6.867137 1.13513,4.142363 5.86892,5.429163 8.88332,2.414775 z M 227.8125,72.4619 c -2.70498,-0.793994 -6.38396,-4.050644 -7.96833,-7.053606 -1.02783,-1.948119 -1.37418,-3.699624 -1.38811,-7.019806 -0.0162,-3.85153 0.22621,-4.819919 1.87296,-7.483478 1.17242,-1.896343 3.05465,-3.778569 4.95099,-4.950988 2.65112,-1.639064 3.64993,-1.891522 7.48348,-1.891522 3.71097,0 4.89982,0.279696 7.37615,1.735361 3.40673,2.002586 6.01203,5.937 6.82974,10.31397 0.81963,4.387231 0.35818,5.138169 -3.15733,5.138169 -4.07722,0 -4.52817,0.784765 -0.89397,1.555762 1.84968,0.392407 3.07483,1.008325 3.18943,1.603426 0.35193,1.827393 -2.61336,5.248956 -6.06398,6.997062 -3.57434,1.810788 -8.27595,2.216575 -12.23103,1.05565 z m 8.67167,-8.761944 c 0.909,-0.715031 1.49284,-1.558778 1.2974,-1.875003 -0.52425,-0.848244 -8.2461,-0.715232 -8.78163,0.151267 -0.64083,1.036893 2.0598,3.02378 4.11002,3.02378 0.9468,0 2.4652,-0.585019 3.37421,-1.300044 z M 236.25,54.129368 c 0,-1.634652 -4.69557,-2.308797 -6.125,-0.879368 -1.36885,1.368851 -0.78352,1.75 2.6875,1.75 2.52155,0 3.4375,-0.231987 3.4375,-0.870632 z m 19.74421,18.012344 c -3.65688,-1.33985 -6.5352,-3.810343 -8.03428,-6.895906 -1.66901,-3.435333 -1.10479,-4.1473 4.07358,-5.140286 3.60442,-0.691172 5.46649,-0.481765 5.46649,0.614757 0,0.322598 0.69034,1.276882 1.53409,2.120629 C 261.71118,65.518 267.5,64.645288 267.5,61.5646 c 0,-1.622286 -0.41123,-1.795932 -8.24569,-3.481886 C 251.63056,56.442109 248.125,52.911847 248.125,46.875 c 0,-4.099256 1.49258,-6.873211 4.95303,-9.205206 4.53516,-3.056253 12.30906,-3.466974 17.31203,-0.914653 4.3988,2.244099 8.33942,7.890376 6.67114,9.558658 -0.3285,0.328503 -2.30914,0.915634 -4.40143,1.304735 l -3.80415,0.707456 -2.15786,-2.287995 C 265.02809,44.267629 264.05464,43.75 262.39495,43.75 c -2.36477,0 -3.64495,0.914231 -3.64495,2.60301 0,1.442272 1.21465,2.019657 6.875,3.268045 5.66077,1.248481 9.17439,3.128927 11.05178,5.914777 l 1.40123,2.079297 0.71348,-2.833488 c 0.39242,-1.558418 1.69883,-3.984648 2.90315,-5.391621 5.37379,-6.278068 14.04979,-7.336881 20.69206,-2.525244 2.6358,1.909364 5.44226,6.376481 4.89764,7.795718 -0.32529,0.847702 -4.96605,2.214506 -7.51898,2.214506 -1.02917,0 -1.69641,-0.442002 -1.9704,-1.305254 -0.50185,-1.581185 -3.58285,-2.984743 -5.6743,-2.584938 -3.01872,0.577064 -4.92925,5.10507 -3.60742,8.549691 0.47788,1.245357 3.44757,2.840501 5.28817,2.840501 0.74992,0 2.29188,-0.984375 3.42657,-2.1875 2.3208,-2.460766 2.19733,-2.431592 6.44005,-1.521693 3.61682,0.77567 4.21757,1.770185 2.83249,4.689031 -4.90789,10.342612 -21.48081,10.326993 -26.49211,-0.025 l -1.36956,-2.829118 -1.66318,3.280231 c -1.77177,3.494419 -4.41721,5.671544 -8.15215,6.709006 -3.20414,0.890019 -9.94941,0.706913 -12.82931,-0.348269 z m -75.57754,-0.05837 C 180.1875,71.854169 180,65.841731 180,58.722361 c 0,-9.633033 0.20102,-13.111135 0.78581,-13.596469 0.78195,-0.648957 16.02476,-0.968793 18.06104,-0.378971 0.62185,0.180123 2.08246,2.907465 3.6625,6.838843 1.44548,3.59658 2.84317,6.539236 3.10596,6.539236 0.2628,0 1.53701,-2.823754 2.83157,-6.275008 1.33306,-3.553895 2.83991,-6.535191 3.47485,-6.875 1.70027,-0.90996 7.80724,-0.742146 8.61974,0.236862 0.75446,0.909069 0.55794,1.473714 -5.71468,16.419074 C 209.84959,73.489781 210.68823,72.5 205.61742,72.5 c -5.26526,0 -4.64323,0.790925 -10.3223,-13.125 -2.31468,-5.671875 -4.453,-10.579687 -4.75181,-10.90625 C 190.23375,48.130451 190,52.849582 190,59.4375 c 0,8.159725 -0.22072,11.783219 -0.75,12.3125 -0.78551,0.785512 -8.10495,1.061719 -8.83333,0.333331 z m 128.48346,-0.3082 c -0.56445,-0.564462 -0.77513,-4.126431 -0.77513,-13.105494 0,-14.527403 -0.0259,-14.46089 5.52693,-14.167385 2.85791,0.151057 3.62776,0.433275 4.17174,1.529304 l 0.66709,1.344061 2.47337,-1.497109 c 2.70863,-1.63951 6.60549,-1.988283 7.68479,-0.687798 0.43905,0.529008 0.52086,2.228924 0.23279,4.836469 l -0.44421,4.020754 -3.02788,0.432678 c -5.42114,0.774668 -6.76371,2.897633 -7.2454,11.456883 l -0.35172,6.25 -4.06862,0.181381 c -2.62668,0.117107 -4.34332,-0.09333 -4.84375,-0.59375 z M 330.75,71.75 C 330.21642,71.216419 330,67.375 330,58.4375 c 0,-8.9375 0.21642,-12.778918 0.75,-13.3125 0.97378,-0.973775 7.52623,-0.973775 8.5,0 0.53358,0.533582 0.75,4.375 0.75,13.3125 0,8.9375 -0.21642,12.778919 -0.75,13.3125 -0.4125,0.4125 -2.325,0.75 -4.25,0.75 -1.925,0 -3.8375,-0.3375 -4.25,-0.75 z M 181.20193,41.298077 c -2.98574,-2.985738 -2.24479,-6.914985 1.60751,-8.524579 3.77795,-1.578528 7.81556,1.194923 7.81556,5.368541 0,2.06181 -3.29753,4.982961 -5.625,4.982961 -1.34531,0 -2.55121,-0.58005 -3.79807,-1.826923 z m 150,0 c -2.03765,-2.037649 -2.26878,-3.630706 -0.90842,-6.261354 2.54988,-4.930919 10.33149,-2.834958 10.33149,2.782766 0,2.361985 -3.12078,5.305511 -5.625,5.305511 -1.34531,0 -2.55121,-0.58005 -3.79807,-1.826923 z"
       id="path3916"
       inkscape:connector-curvature="0" />
    <path
       style="fill:#a2a2a2"
       d="M 13.249868,89.963731 C 9.1964469,87.938213 7.05449,85.823569 4.8138762,81.635294 3.473793,79.130344 3.4326634,78.426419 3.2540766,54.939823 3.077671,31.740073 3.1207642,30.683212 4.3804097,27.316507 5.9962476,22.997794 11.026819,18.119466 15.401648,16.628812 c 4.38305,-1.493455 47.313652,-1.493455 51.696702,0 4.374831,1.490654 9.4054,6.368982 11.021238,10.687695 1.25965,3.366705 1.302743,4.423566 1.126337,27.623316 -0.178588,23.486596 -0.219719,24.190521 -1.5598,26.695471 -2.240613,4.188275 -4.382575,6.302918 -8.435994,8.328437 L 65.42535,91.875 l -24.17535,0 -24.175347,0 -3.824785,-1.911269 z M 28.605062,65.46875 C 28.697221,57.304687 29.01957,50.625 29.321393,50.625 c 0.301824,0 5.53076,6.257812 11.619858,13.90625 6.089099,7.648437 11.633845,14.398437 12.321659,15 0.903187,0.789931 2.316411,1.091194 5.08758,1.084538 4.556122,-0.01094 6.43046,-0.838413 8.349497,-3.686069 1.308132,-1.941132 1.425013,-2.804956 1.425013,-10.5316 l 0,-8.417031 2.27025,-2.079469 2.27025,-2.07947 -2.27025,-2.141123 -2.27025,-2.141122 -9.69e-4,-8.051202 C 68.123256,35.075771 67.9007,32.992384 67.030281,31.25 65.672,28.531028 62.501569,26.877255 58.644867,26.875971 53.422401,26.874233 53.75,25.847471 53.75,42.217483 c 0,8.02106 -0.210938,14.706923 -0.46875,14.857474 C 53.023437,57.225507 47.46875,50.661204 40.9375,42.487616 34.40625,34.314027 28.5,27.461288 27.8125,27.259307 25.372306,26.5424 20.906386,26.892486 18.75,27.969721 c -3.5949,1.795854 -4.372904,4.200463 -4.374029,13.518981 l -9.71e-4,8.051202 -2.270251,2.141122 -2.2702521,2.141123 2.2702521,2.07947 2.270251,2.079469 0,8.417031 c 0,7.726644 0.116882,8.590468 1.425009,10.5316 2.002672,2.971762 3.8404,3.731219 8.574991,3.543687 L 28.4375,80.3125 28.605062,65.46875 Z M 342.31726,80.858931 C 342.07402,80.615687 341.875,72.478006 341.875,62.7752 c 0,-15.510151 0.11944,-17.687296 0.98862,-18.020832 1.52169,-0.583931 6.46259,-0.44946 7.69366,0.209389 0.73544,0.393596 1.91308,0.299101 3.55266,-0.285066 5.1808,-1.845872 9.7637,-0.782357 14.09761,3.271506 l 3.04245,2.845856 0,-2.508999 c 0,-2.739017 0.73152,-3.677334 3.125,-4.008418 1.40466,-0.194303 1.59407,-0.563382 1.875,-3.653636 l 0.3125,-3.4375 3.96082,-0.18749 c 4.94349,-0.234006 5.72668,0.357694 5.72668,4.326518 l 0,3.048472 3,0 c 3.73486,0 4.5,0.743885 4.5,4.375 0,3.631115 -0.76514,4.375 -4.5,4.375 l -3,0 0,4.968944 c 0,5.679725 0.51075,6.345094 4.46363,5.8149 2.16654,-0.290594 2.44202,-0.159607 3.05498,1.452593 0.37053,0.974588 0.72887,2.736238 0.7963,3.914775 0.10995,1.921863 -0.10294,2.225832 -2.06491,2.948238 -5.50281,2.026175 -12.71045,0.234206 -14.8608,-3.694706 -0.74474,-1.360713 -1.17305,-3.983325 -1.3892,-8.506276 l -0.3125,-6.539032 -1.87624,-0.381579 -1.87625,-0.381578 0.001,5.35811 c 0.001,4.746542 -0.19887,5.698561 -1.75205,8.340855 -0.96432,1.640512 -2.91174,3.749887 -4.32761,4.6875 -2.22419,1.4729 -3.17579,1.697456 -6.99671,1.651081 -2.43231,-0.0295 -5.18289,-0.270775 -6.11239,-0.536119 l -1.69001,-0.482437 -0.18499,4.598612 -0.185,4.598619 -4.08899,0.18185 c -2.24893,0.100013 -4.288,-0.01719 -4.53125,-0.260419 z m 18.64865,-18.018025 c 1.16222,-1.162218 1.52927,-2.184859 1.51422,-4.218747 -0.0214,-2.889094 -0.7537,-4.247792 -2.90779,-5.39507 -2.10125,-1.119131 -3.6739,-0.876476 -5.77438,0.89097 -1.61757,1.361089 -1.92296,2.060408 -1.92296,4.403408 0,3.61601 2.03071,5.853533 5.3125,5.853533 1.54953,0 2.71924,-0.474925 3.77841,-1.534094 z m -228.44723,9.622019 c -2.91804,-1.227506 -5.65985,-3.791769 -7.18391,-6.718694 l -1.52657,-2.931731 -0.0291,4.09375 c -0.0164,2.312162 -0.3555,4.42015 -0.7791,4.84375 -0.98797,0.987969 -6.86458,0.965356 -8.12107,-0.03125 -0.54174,-0.429688 -4.14893,-4.4375 -8.01598,-8.90625 -3.86702,-4.46875 -7.274417,-8.21875 -7.571955,-8.333333 C 98.993437,54.364583 98.75,58.056708 98.75,62.683887 c 0,6.484707 -0.202375,8.581013 -0.882931,9.145825 -0.531013,0.4407 -2.461625,0.658038 -4.84375,0.545275 L 89.0625,72.1875 88.896325,54.41802 c -0.12905,-13.799572 0.01056,-17.881677 0.625,-18.271679 0.435144,-0.27621 2.111431,-0.506507 3.725075,-0.51177 3.565587,-0.01163 3.695,0.09889 12.76574,10.902203 l 6.80036,8.099274 0.3125,-8.904992 c 0.35553,-10.131083 0.32884,-10.081419 5.42411,-10.096485 4.96218,-0.01468 5.19982,0.450465 5.20675,10.191322 l 0.006,8.236607 1.86552,-3.252786 c 3.26108,-5.686143 10.17791,-8.333035 16.14748,-6.179227 2.03194,0.733121 3.02688,0.810175 3.9667,0.307202 0.7154,-0.382871 2.77277,-0.526058 4.78776,-0.333215 4.84229,0.463427 4.54583,0.462447 6.81456,0.02252 1.9523,-0.378565 2.03125,-0.509599 2.03125,-3.371408 0,-3.890818 0.8044,-4.488582 5.72668,-4.255581 l 3.96106,0.18749 0.18744,3.59375 0.18744,3.59375 3.04917,0 c 3.75121,0 5.01345,1.101492 5.01345,4.375 0,3.282151 -1.26012,4.375 -5.04464,4.375 l -3.08036,0 0.01,4.53125 c 0.005,2.492187 0.26093,4.928325 0.56815,5.413638 0.37826,0.597562 1.57854,0.846287 3.7184,0.770549 l 3.15982,-0.111837 0.8821,2.97945 c 0.54432,1.838556 0.67426,3.379106 0.33933,4.023144 -1.44805,2.784487 -10.58348,3.166887 -14.19642,0.594244 -3.21464,-2.289025 -4.07339,-4.610007 -4.36378,-11.794188 -0.21849,-5.405377 -0.41875,-6.407583 -1.2818,-6.414784 -0.56258,-0.0047 -1.64838,-0.176213 -2.4129,-0.381153 -1.38885,-0.372305 -1.39017,-0.364255 -1.5625,9.539784 l -0.17246,9.912403 -5.9375,0.124 c -3.26563,0.0682 -7.76563,0.276294 -10,0.462431 -2.24773,0.187244 -4.75214,0.04831 -5.60633,-0.311006 z m 10.2086,-9.73565 c 2.36796,-2.367975 2.292,-5.929151 -0.1792,-8.400352 -2.04824,-2.048234 -3.63005,-2.269112 -6.31329,-0.88156 -2.13483,1.103966 -3.1618,4.05369 -2.39083,6.867137 1.13513,4.142363 5.86892,5.429163 8.88332,2.414775 z M 227.8125,72.4619 c -2.70498,-0.793994 -6.38396,-4.050644 -7.96833,-7.053606 -1.02783,-1.948119 -1.37418,-3.699624 -1.38811,-7.019806 -0.0162,-3.85153 0.22621,-4.819919 1.87296,-7.483478 1.17242,-1.896343 3.05465,-3.778569 4.95099,-4.950988 2.65112,-1.639064 3.64993,-1.891522 7.48348,-1.891522 3.71097,0 4.89982,0.279696 7.37615,1.735361 3.40673,2.002586 6.01203,5.937 6.82974,10.31397 0.81963,4.387231 0.35818,5.138169 -3.15733,5.138169 -4.07722,0 -4.52817,0.784765 -0.89397,1.555762 1.84968,0.392407 3.07483,1.008325 3.18943,1.603426 0.35193,1.827393 -2.61336,5.248956 -6.06398,6.997062 -3.57434,1.810788 -8.27595,2.216575 -12.23103,1.05565 z m 8.67167,-8.761944 c 0.909,-0.715031 1.49284,-1.558778 1.2974,-1.875003 -0.52425,-0.848244 -8.2461,-0.715232 -8.78163,0.151267 -0.64083,1.036893 2.0598,3.02378 4.11002,3.02378 0.9468,0 2.4652,-0.585019 3.37421,-1.300044 z M 236.25,54.129368 c 0,-1.634652 -4.69557,-2.308797 -6.125,-0.879368 -1.36885,1.368851 -0.78352,1.75 2.6875,1.75 2.52155,0 3.4375,-0.231987 3.4375,-0.870632 z m 19.74421,18.012344 c -3.65688,-1.33985 -6.5352,-3.810343 -8.03428,-6.895906 -1.66901,-3.435333 -1.10479,-4.1473 4.07358,-5.140286 3.60442,-0.691172 5.46649,-0.481765 5.46649,0.614757 0,0.322598 0.69034,1.276882 1.53409,2.120629 C 261.71118,65.518 267.5,64.645288 267.5,61.5646 c 0,-1.622286 -0.41123,-1.795932 -8.24569,-3.481886 C 251.63056,56.442109 248.125,52.911847 248.125,46.875 c 0,-4.099256 1.49258,-6.873211 4.95303,-9.205206 4.53516,-3.056253 12.30906,-3.466974 17.31203,-0.914653 4.3988,2.244099 8.33942,7.890376 6.67114,9.558658 -0.3285,0.328503 -2.30914,0.915634 -4.40143,1.304735 l -3.80415,0.707456 -2.15786,-2.287995 C 265.02809,44.267629 264.05464,43.75 262.39495,43.75 c -2.36477,0 -3.64495,0.914231 -3.64495,2.60301 0,1.442272 1.21465,2.019657 6.875,3.268045 5.66077,1.248481 9.17439,3.128927 11.05178,5.914777 l 1.40123,2.079297 0.71348,-2.833488 c 0.39242,-1.558418 1.69883,-3.984648 2.90315,-5.391621 5.37379,-6.278068 14.04979,-7.336881 20.69206,-2.525244 2.6358,1.909364 5.44226,6.376481 4.89764,7.795718 -0.32529,0.847702 -4.96605,2.214506 -7.51898,2.214506 -1.02917,0 -1.69641,-0.442002 -1.9704,-1.305254 -0.50185,-1.581185 -3.58285,-2.984743 -5.6743,-2.584938 -3.01872,0.577064 -4.92925,5.10507 -3.60742,8.549691 0.47788,1.245357 3.44757,2.840501 5.28817,2.840501 0.74992,0 2.29188,-0.984375 3.42657,-2.1875 2.3208,-2.460766 2.19733,-2.431592 6.44005,-1.521693 3.61682,0.77567 4.21757,1.770185 2.83249,4.689031 -4.90789,10.342612 -21.48081,10.326993 -26.49211,-0.025 l -1.36956,-2.829118 -1.66318,3.280231 c -1.77177,3.494419 -4.41721,5.671544 -8.15215,6.709006 -3.20414,0.890019 -9.94941,0.706913 -12.82931,-0.348269 z m -75.57754,-0.05837 C 180.1875,71.854169 180,65.841731 180,58.722361 c 0,-9.633033 0.20102,-13.111135 0.78581,-13.596469 0.78195,-0.648957 16.02476,-0.968793 18.06104,-0.378971 0.62185,0.180123 2.08246,2.907465 3.6625,6.838843 1.44548,3.59658 2.84317,6.539236 3.10596,6.539236 0.2628,0 1.53701,-2.823754 2.83157,-6.275008 1.33306,-3.553895 2.83991,-6.535191 3.47485,-6.875 1.70027,-0.90996 7.80724,-0.742146 8.61974,0.236862 0.75446,0.909069 0.55794,1.473714 -5.71468,16.419074 C 209.84959,73.489781 210.68823,72.5 205.61742,72.5 c -5.26526,0 -4.64323,0.790925 -10.3223,-13.125 -2.31468,-5.671875 -4.453,-10.579687 -4.75181,-10.90625 C 190.23375,48.130451 190,52.849582 190,59.4375 c 0,8.159725 -0.22072,11.783219 -0.75,12.3125 -0.78551,0.785512 -8.10495,1.061719 -8.83333,0.333331 z m 128.48346,-0.3082 c -0.56445,-0.564462 -0.77513,-4.126431 -0.77513,-13.105494 0,-14.527403 -0.0259,-14.46089 5.52693,-14.167385 2.85791,0.151057 3.62776,0.433275 4.17174,1.529304 l 0.66709,1.344061 2.47337,-1.497109 c 2.70863,-1.63951 6.60549,-1.988283 7.68479,-0.687798 0.43905,0.529008 0.52086,2.228924 0.23279,4.836469 l -0.44421,4.020754 -3.02788,0.432678 c -5.42114,0.774668 -6.76371,2.897633 -7.2454,11.456883 l -0.35172,6.25 -4.06862,0.181381 c -2.62668,0.117107 -4.34332,-0.09333 -4.84375,-0.59375 z M 330.75,71.75 C 330.21642,71.216419 330,67.375 330,58.4375 c 0,-8.9375 0.21642,-12.778918 0.75,-13.3125 0.97378,-0.973775 7.52623,-0.973775 8.5,0 0.53358,0.533582 0.75,4.375 0.75,13.3125 0,8.9375 -0.21642,12.778919 -0.75,13.3125 -0.4125,0.4125 -2.325,0.75 -4.25,0.75 -1.925,0 -3.8375,-0.3375 -4.25,-0.75 z M 181.20193,41.298077 c -2.98574,-2.985738 -2.24479,-6.914985 1.60751,-8.524579 3.77795,-1.578528 7.81556,1.194923 7.81556,5.368541 0,2.06181 -3.29753,4.982961 -5.625,4.982961 -1.34531,0 -2.55121,-0.58005 -3.79807,-1.826923 z m 150,0 c -2.03765,-2.037649 -2.26878,-3.630706 -0.90842,-6.261354 2.54988,-4.930919 10.33149,-2.834958 10.33149,2.782766 0,2.361985 -3.12078,5.305511 -5.625,5.305511 -1.34531,0 -2.55121,-0.58005 -3.79807,-1.826923 z"
       id="path3914"
       inkscape:connector-curvature="0" />
    <path
       style="fill:#506afd"
       d="M 13.249868,89.963731 C 9.1964469,87.938213 7.05449,85.823569 4.8138762,81.635294 3.473793,79.130344 3.4326634,78.426419 3.2540766,54.939823 3.077671,31.740073 3.1207642,30.683212 4.3804097,27.316507 5.9962476,22.997794 11.026819,18.119466 15.401648,16.628812 c 4.38305,-1.493455 47.313652,-1.493455 51.696702,0 4.374831,1.490654 9.4054,6.368982 11.021238,10.687695 1.25965,3.366705 1.302743,4.423566 1.126337,27.623316 -0.178588,23.486596 -0.219719,24.190521 -1.5598,26.695471 -2.240613,4.188275 -4.382575,6.302918 -8.435994,8.328437 L 65.42535,91.875 l -24.17535,0 -24.175347,0 -3.824785,-1.911269 z M 28.605062,65.46875 C 28.697221,57.304687 29.01957,50.625 29.321393,50.625 c 0.301824,0 5.53076,6.257812 11.619858,13.90625 6.089099,7.648437 11.633845,14.398437 12.321659,15 0.903187,0.789931 2.316411,1.091194 5.08758,1.084538 4.556122,-0.01094 6.43046,-0.838413 8.349497,-3.686069 1.308132,-1.941132 1.425013,-2.804956 1.425013,-10.5316 l 0,-8.417031 2.27025,-2.079469 2.27025,-2.07947 -2.27025,-2.141123 -2.27025,-2.141122 -9.69e-4,-8.051202 C 68.123256,35.075771 67.9007,32.992384 67.030281,31.25 65.672,28.531028 62.501569,26.877255 58.644867,26.875971 53.422401,26.874233 53.75,25.847471 53.75,42.217483 c 0,8.02106 -0.210938,14.706923 -0.46875,14.857474 C 53.023437,57.225507 47.46875,50.661204 40.9375,42.487616 34.40625,34.314027 28.5,27.461288 27.8125,27.259307 25.372306,26.5424 20.906386,26.892486 18.75,27.969721 c -3.5949,1.795854 -4.372904,4.200463 -4.374029,13.518981 l -9.71e-4,8.051202 -2.270251,2.141122 -2.2702521,2.141123 2.2702521,2.07947 2.270251,2.079469 0,8.417031 c 0,7.726644 0.116882,8.590468 1.425009,10.5316 2.002672,2.971762 3.8404,3.731219 8.574991,3.543687 L 28.4375,80.3125 28.605062,65.46875 Z M 342.94394,80.2356 C 342.69977,79.991438 342.5,72.134256 342.5,62.7752 342.5,43.950033 342.25459,45 346.65471,45 c 1.1976,0 2.71901,0.289824 3.38089,0.644054 0.87421,0.467864 2.17835,0.360637 4.7672,-0.391962 8.4335,-2.451686 15.81251,2.641635 16.87953,11.651017 1.23532,10.430316 -8.53843,18.494122 -17.75056,14.645047 -1.25295,-0.523512 -2.49521,-0.73445 -2.7606,-0.46875 -0.26538,0.2657 -0.56715,2.451844 -0.67059,4.858094 l -0.18808,4.375 -3.46231,0.183519 c -1.90428,0.100937 -3.66209,-0.01625 -3.90625,-0.260419 z m 18.35413,-17.062525 c 1.49582,-1.495813 1.82693,-2.354081 1.82693,-4.735575 0,-2.40874 -0.32744,-3.236098 -1.90517,-4.813824 -1.66624,-1.66624 -2.221,-1.862808 -4.42351,-1.567389 -3.07514,0.412463 -4.72255,1.811608 -5.51581,4.684592 -1.73632,6.288402 5.50913,10.94064 10.01756,6.432196 z m -229.11593,8.161312 c -3.0647,-1.392262 -6.16307,-4.809081 -7.19429,-7.9337 -1.25939,-3.815977 -0.46474,-9.934116 1.68814,-12.997288 3.70248,-5.267985 8.72868,-7.000385 14.78415,-5.095707 2.59006,0.814672 3.69323,0.904205 4.67396,0.379334 1.49104,-0.79798 5.69035,-0.898305 6.84794,-0.163603 0.60967,0.386941 0.7551,3.475121 0.625,13.271679 l -0.16954,12.767398 -3.26253,0.188263 c -1.79438,0.103543 -3.808,-0.103676 -4.4747,-0.460482 -0.8856,-0.473956 -1.81138,-0.398387 -3.43616,0.280488 -2.98169,1.245825 -7.02812,1.150956 -10.08197,-0.236382 z m 10.99093,-8.161312 c 4.06462,-4.064614 1.0833,-11.298075 -4.65658,-11.298075 -2.22921,0 -5.17872,2.73237 -5.64762,5.231852 -1.20424,6.419117 5.81752,10.552917 10.3042,6.066223 z m 22.76443,8.44465 c -4.35286,-1.93465 -5.92839,-5.641531 -5.93401,-13.961475 -0.003,-4.665089 -0.11769,-5.15625 -1.20237,-5.15625 -2.61685,0 -3.17612,-0.660324 -3.17612,-3.75 0,-3.089676 0.55927,-3.75 3.17612,-3.75 C 159.79747,45 160,44.545059 160,42.306956 c 0,-4.053081 0.92799,-4.9199 5.01898,-4.688129 l 3.41852,0.193673 0.3125,3.4375 0.3125,3.4375 3.31684,0.333206 c 3.52732,0.354349 4.47652,1.145106 4.47652,3.729294 0,2.584188 -0.9492,3.374945 -4.47652,3.729294 l -3.31684,0.333206 -0.18208,4.817925 c -0.15756,4.169286 -0.009,4.990544 1.10012,6.100119 1.03133,1.031325 1.76093,1.205637 3.72905,0.890925 2.43502,-0.389375 2.45066,-0.378544 3.23499,2.239306 0.90708,3.027569 0.35374,4.4343 -2.00373,5.093962 -2.53409,0.709082 -7.02817,0.540863 -9.00335,-0.337012 z m 60.36326,-0.771988 c -8.39674,-4.184268 -10.01019,-15.32083 -3.20552,-22.125499 9.33803,-9.338039 24.29573,-2.171984 23.21808,11.123512 -0.0474,0.584872 -2.26768,0.78125 -8.83293,0.78125 -7.5892,0 -8.82313,0.139448 -9.16717,1.035989 -0.52243,1.361449 2.47572,3.964011 4.56656,3.964011 0.85804,0 2.63187,-0.61685 3.94185,-1.370775 2.06774,-1.190044 2.77838,-1.29305 5.38977,-0.78125 1.6544,0.324237 3.12609,0.951263 3.27042,1.393388 0.43375,1.328674 -4.92339,6.170318 -7.67138,6.9332 -4.18368,1.16145 -7.8795,0.855174 -11.50968,-0.953826 z m 10.91108,-15.88512 C 237.98701,53.70637 235.54499,51.875 233.09737,51.875 c -2.56453,0 -5.44955,1.847278 -4.72243,3.02378 0.56852,0.919881 8.27328,0.973796 8.8369,0.06184 z m 20.28412,16.955421 c -4.94964,-1.505607 -9.58172,-5.849538 -9.25022,-8.674775 0.17121,-1.459227 0.59278,-1.714322 3.93427,-2.380669 l 3.7425,-0.746316 2.25524,2.44286 C 260.15211,64.695756 260.78035,65 263.22204,65 c 2.91885,0 4.46553,-0.80765 5.11395,-2.670426 0.60792,-1.746436 -1.60499,-3.394776 -5.62382,-4.189035 -8.99383,-1.77749 -12.89325,-4.20115 -13.7029,-8.516945 -0.59436,-3.168226 0.0364,-6.780577 1.55669,-8.915686 2.92513,-4.10796 10.79305,-6.048378 17.09559,-4.216181 4.06417,1.181488 6.59002,3.101691 8.30694,6.315117 1.16899,2.187907 1.17297,2.315444 0.0971,3.108103 -0.61706,0.454617 -2.40526,1.019024 -3.97377,1.254236 -2.70335,0.405392 -2.95846,0.311241 -4.89985,-1.808262 -1.70213,-1.858287 -2.47488,-2.235921 -4.57534,-2.235921 -2.87472,0 -4.4916,1.240218 -4.4916,3.445257 0,1.912064 0.17074,1.999353 7.26621,3.714704 6.42645,1.553615 8.48421,2.699287 10.70254,5.958683 3.63981,5.347993 0.0469,13.251762 -6.97139,15.335981 -3.27015,0.971131 -8.99521,1.136788 -11.6264,0.336413 z M 288.125,71.679037 c -1.20313,-0.381343 -3.49011,-1.993412 -5.08219,-3.582375 -9.9802,-9.960656 -0.3504,-26.255285 13.663,-23.119223 2.68552,0.600992 4.07877,1.399795 6.48245,3.716643 3.95786,3.814863 4.17873,5.936957 0.71799,6.898055 -3.60953,1.002417 -4.91886,0.800752 -6.05456,-0.932534 -1.45039,-2.213581 -3.77375,-2.989772 -6.37728,-2.130531 -2.76335,0.911989 -3.97441,2.769392 -3.97441,6.095571 0,2.174652 0.3671,3.088611 1.82693,4.548432 2.74504,2.74505 6.28678,2.3194 9.11057,-1.09493 1.19086,-1.439897 1.40525,-1.478009 4.53125,-0.805488 3.89887,0.838798 4.23762,2.029756 1.65735,5.826962 -3.05789,4.500081 -10.35887,6.526269 -16.5011,4.579419 z m 93.79442,-0.273756 c -3.90987,-1.993694 -4.69423,-3.785912 -5.04442,-11.52626 l -0.3125,-6.907183 -2.1875,-0.704669 c -2.07153,-0.667312 -2.1875,-0.853773 -2.1875,-3.517169 0,-2.663647 0.11577,-2.849726 2.1875,-3.515855 2.07756,-0.668006 2.20321,-0.872184 2.5,-4.0625 l 0.3125,-3.359145 3.41852,-0.193673 c 4.09099,-0.231771 5.01898,0.635048 5.01898,4.688129 l 0,2.693044 2.54109,0 c 3.83185,0 4.95891,0.852298 4.95891,3.75 0,2.897702 -1.12706,3.75 -4.95891,3.75 l -2.54109,0 0,5.60301 c 0,6.375396 0.66114,7.298602 4.68601,6.543534 1.94121,-0.364175 2.23456,-0.233063 2.79875,1.250887 1.61088,4.236913 1.54663,4.673782 -0.83362,5.668313 -2.99805,1.252662 -7.72915,1.179362 -10.35672,-0.160463 z M 89.791669,71.458344 C 89.5625,71.229169 89.375,63.384256 89.375,54.025201 89.375,35.280348 89.158187,36.25 93.34955,36.25 c 1.098525,0 2.588856,0.41433 3.31185,0.920733 0.722988,0.506403 4.62955,4.865778 8.68125,9.6875 4.05169,4.821722 7.60086,8.766767 7.88704,8.766767 0.28617,0 0.52031,-3.917411 0.52031,-8.705357 0,-10.051255 0.27167,-10.669643 4.6875,-10.669643 4.72519,0 4.6875,-0.141405 4.6875,17.585731 0,9.573044 -0.25051,16.089519 -0.64699,16.830357 -0.50413,0.941975 -1.32125,1.208912 -3.70059,1.208912 l -3.0536,0 L 107.5,62.5 c -4.5231,-5.15625 -8.482838,-9.375 -8.799413,-9.375 -0.322975,0 -0.575587,3.78526 -0.575587,8.625 0,5.875 -0.239131,8.864131 -0.75,9.375 -0.786006,0.786006 -6.863519,1.05315 -7.583331,0.333331 z m 91.250001,0 C 180.8125,71.229169 180.625,65.353006 180.625,58.400201 180.625,44.429577 180.44814,45 184.77971,45 c 4.63994,0 4.59529,-0.129559 4.59529,13.33449 0,8.53151 -0.21857,12.259085 -0.75,12.79051 -0.78601,0.786006 -6.86352,1.05315 -7.58333,0.333331 z m 20.44724,-0.06162 c -0.38424,-0.25255 -3.00697,-6.054494 -5.82832,-12.893212 -4.00022,-9.696243 -4.94733,-12.54966 -4.3014,-12.959179 1.26796,-0.803887 6.40092,-0.642369 7.53042,0.23696 0.55193,0.429687 2.18483,3.832682 3.62867,7.56221 3.08581,7.970873 3.08449,7.971076 6.50709,-1.004726 1.34265,-3.521113 2.81517,-6.360803 3.484,-6.71875 1.88964,-1.011304 6.84522,-0.77542 7.27567,0.34632 0.34745,0.905463 -8.553,23.427002 -9.93031,25.127446 -0.68428,0.844825 -7.18335,1.080162 -8.36582,0.302931 z M 309.41307,70.696181 C 309.01611,69.954406 308.75,64.943663 308.75,58.210731 308.75,45.511709 308.91921,45 313.11852,45 c 3.19032,0 4.38148,0.517892 4.38148,1.904983 0,1.620661 0.95744,2.013235 1.96043,0.803821 1.87269,-2.258121 8.20068,-3.643118 8.8069,-1.927554 0.15183,0.429687 0.11161,2.321291 -0.0894,4.203564 l -0.36544,3.422315 -2.62716,0.446379 c -5.75963,0.978613 -7.17319,3.150465 -7.66152,11.771492 l -0.33632,5.9375 -3.55568,0.186306 c -3.01646,0.15805 -3.65623,-0.0019 -4.21875,-1.052662 z M 331.375,71.125 c -0.53142,-0.531425 -0.75,-4.259 -0.75,-12.79051 0,-11.26444 0.0779,-12.082212 1.20891,-12.6875 C 332.49881,45.291146 333.92355,45 335,45 c 1.07645,0 2.50119,0.291146 3.16609,0.64699 1.13099,0.605288 1.20891,1.42306 1.20891,12.6875 0,8.53151 -0.21858,12.259085 -0.75,12.79051 -0.4125,0.4125 -2.04375,0.75 -3.625,0.75 -1.58125,0 -3.2125,-0.3375 -3.625,-0.75 z M 181.53409,40.965909 C 178.47046,37.902284 180.58216,33.125 185,33.125 c 1.85836,0 2.70547,0.376561 3.70464,1.646787 1.4777,1.878592 1.57722,2.675771 0.60144,4.817385 -1.3907,3.05225 -5.38833,3.760395 -7.77199,1.376737 z m 150.98703,0.76107 c -0.86454,-0.4517 -1.80005,-1.70725 -2.13044,-2.859256 -0.85883,-2.994561 1.0141,-5.362324 4.44464,-5.618944 2.1138,-0.158122 2.73705,0.08356 3.84377,1.490536 0.7265,0.923592 1.32091,2.313296 1.32091,3.088232 0,3.28655 -4.33046,5.544417 -7.47888,3.899432 z"
       id="path3912"
       inkscape:connector-curvature="0" />
    <path
       style="fill:#3c59fd"
       d="M 18.339841,91.245369 C 12.522669,90.046887 7.4613262,85.937419 4.8745938,80.3125 3.4562393,77.22825 3.4375,76.881881 3.4375,53.75 3.4375,31.237668 3.4894489,30.200226 4.7535352,27.468247 6.5027925,23.687701 9.5287388,20.33005 13.05447,18.257361 l 2.88303,-1.694861 25.3125,0 25.3125,0 2.883031,1.694861 c 3.525731,2.072689 6.551675,5.43034 8.300932,9.210886 1.263087,2.729819 1.316037,3.774648 1.316037,25.969253 0,21.295975 -0.09479,23.370775 -1.198394,26.232394 -1.574412,4.082412 -5.859412,8.583925 -9.918006,10.419131 -3.206869,1.450081 -3.605875,1.475206 -25.1336,1.5825 -12.03125,0.05994 -23.043946,-0.131806 -24.472659,-0.426156 z M 28.661465,80.419181 c 0.446477,-0.537975 0.748828,-5.843387 0.857778,-15.051587 L 29.6875,51.146837 41.410265,65.820594 c 6.447521,8.070562 12.165836,14.843775 12.707367,15.051581 1.889452,0.72505 7.126708,0.369969 9.693962,-0.657244 3.964662,-1.586344 4.907537,-4.238019 4.924681,-13.849769 0.0076,-4.233536 0.284225,-8.202776 0.614837,-8.820531 0.330613,-0.617757 1.455613,-1.477138 2.5,-1.909737 2.402588,-0.995183 2.417569,-2.209574 0.04244,-3.437813 -1.021056,-0.52801 -2.146056,-1.501119 -2.5,-2.162462 C 69.039587,49.373276 68.75,45.429654 68.75,41.271014 c 0,-8.393029 -0.651862,-10.843171 -3.475837,-13.06451 -1.533094,-1.205928 -2.383126,-1.355891 -6.794491,-1.198687 L 53.4375,27.1875 53.125,41.845447 52.8125,56.503396 40.978019,41.689197 29.143537,26.875 l -5.112482,0 C 15.421604,26.875 13.75,29.215658 13.75,41.271014 c 0,4.15864 -0.289587,8.102262 -0.643528,8.763605 -0.35394,0.661343 -1.47894,1.634452 -2.5,2.162462 -2.3751526,1.228239 -2.3601701,2.44263 0.04241,3.437813 1.044387,0.432599 2.169387,1.29198 2.5,1.909737 0.330614,0.617755 0.601115,4.51099 0.601115,8.651631 0,9.50475 0.888336,12.1655 4.628817,13.86425 3.044305,1.382582 9.253138,1.59915 10.282648,0.358669 z M 342.94394,80.2356 C 342.69977,79.991438 342.5,72.134256 342.5,62.7752 342.5,43.950033 342.25459,45 346.65471,45 c 1.1976,0 2.71901,0.289824 3.38089,0.644054 0.87421,0.467864 2.17835,0.360637 4.7672,-0.391962 8.4335,-2.451686 15.81251,2.641635 16.87953,11.651017 1.23532,10.430316 -8.53843,18.494122 -17.75056,14.645047 -1.25295,-0.523512 -2.49521,-0.73445 -2.7606,-0.46875 -0.26538,0.2657 -0.56715,2.451844 -0.67059,4.858094 l -0.18808,4.375 -3.46231,0.183519 c -1.90428,0.100937 -3.66209,-0.01625 -3.90625,-0.260419 z m 18.35413,-17.062525 c 1.49582,-1.495813 1.82693,-2.354081 1.82693,-4.735575 0,-2.40874 -0.32744,-3.236098 -1.90517,-4.813824 -1.66624,-1.66624 -2.221,-1.862808 -4.42351,-1.567389 -3.07514,0.412463 -4.72255,1.811608 -5.51581,4.684592 -1.73632,6.288402 5.50913,10.94064 10.01756,6.432196 z m -229.11593,8.161312 c -3.0647,-1.392262 -6.16307,-4.809081 -7.19429,-7.9337 -1.25939,-3.815977 -0.46474,-9.934116 1.68814,-12.997288 3.70248,-5.267985 8.72868,-7.000385 14.78415,-5.095707 2.59006,0.814672 3.69323,0.904205 4.67396,0.379334 1.49104,-0.79798 5.69035,-0.898305 6.84794,-0.163603 0.60967,0.386941 0.7551,3.475121 0.625,13.271679 l -0.16954,12.767398 -3.26253,0.188263 c -1.79438,0.103543 -3.808,-0.103676 -4.4747,-0.460482 -0.8856,-0.473956 -1.81138,-0.398387 -3.43616,0.280488 -2.98169,1.245825 -7.02812,1.150956 -10.08197,-0.236382 z m 10.99093,-8.161312 c 4.06462,-4.064614 1.0833,-11.298075 -4.65658,-11.298075 -2.22921,0 -5.17872,2.73237 -5.64762,5.231852 -1.20424,6.419117 5.81752,10.552917 10.3042,6.066223 z m 22.76443,8.44465 c -4.35286,-1.93465 -5.92839,-5.641531 -5.93401,-13.961475 -0.003,-4.665089 -0.11769,-5.15625 -1.20237,-5.15625 -2.61685,0 -3.17612,-0.660324 -3.17612,-3.75 0,-3.089676 0.55927,-3.75 3.17612,-3.75 C 159.79747,45 160,44.545059 160,42.306956 c 0,-4.053081 0.92799,-4.9199 5.01898,-4.688129 l 3.41852,0.193673 0.3125,3.4375 0.3125,3.4375 3.31684,0.333206 c 3.52732,0.354349 4.47652,1.145106 4.47652,3.729294 0,2.584188 -0.9492,3.374945 -4.47652,3.729294 l -3.31684,0.333206 -0.18208,4.817925 c -0.15756,4.169286 -0.009,4.990544 1.10012,6.100119 1.03133,1.031325 1.76093,1.205637 3.72905,0.890925 2.43502,-0.389375 2.45066,-0.378544 3.23499,2.239306 0.90708,3.027569 0.35374,4.4343 -2.00373,5.093962 -2.53409,0.709082 -7.02817,0.540863 -9.00335,-0.337012 z m 60.36326,-0.771988 c -8.39674,-4.184268 -10.01019,-15.32083 -3.20552,-22.125499 9.33803,-9.338039 24.29573,-2.171984 23.21808,11.123512 -0.0474,0.584872 -2.26768,0.78125 -8.83293,0.78125 -7.5892,0 -8.82313,0.139448 -9.16717,1.035989 -0.52243,1.361449 2.47572,3.964011 4.56656,3.964011 0.85804,0 2.63187,-0.61685 3.94185,-1.370775 2.06774,-1.190044 2.77838,-1.29305 5.38977,-0.78125 1.6544,0.324237 3.12609,0.951263 3.27042,1.393388 0.43375,1.328674 -4.92339,6.170318 -7.67138,6.9332 -4.18368,1.16145 -7.8795,0.855174 -11.50968,-0.953826 z m 10.91108,-15.88512 C 237.98701,53.70637 235.54499,51.875 233.09737,51.875 c -2.56453,0 -5.44955,1.847278 -4.72243,3.02378 0.56852,0.919881 8.27328,0.973796 8.8369,0.06184 z m 20.28412,16.955421 c -4.94964,-1.505607 -9.58172,-5.849538 -9.25022,-8.674775 0.17121,-1.459227 0.59278,-1.714322 3.93427,-2.380669 l 3.7425,-0.746316 2.25524,2.44286 C 260.15211,64.695756 260.78035,65 263.22204,65 c 2.91885,0 4.46553,-0.80765 5.11395,-2.670426 0.60792,-1.746436 -1.60499,-3.394776 -5.62382,-4.189035 -8.99383,-1.77749 -12.89325,-4.20115 -13.7029,-8.516945 -0.59436,-3.168226 0.0364,-6.780577 1.55669,-8.915686 2.92513,-4.10796 10.79305,-6.048378 17.09559,-4.216181 4.06417,1.181488 6.59002,3.101691 8.30694,6.315117 1.16899,2.187907 1.17297,2.315444 0.0971,3.108103 -0.61706,0.454617 -2.40526,1.019024 -3.97377,1.254236 -2.70335,0.405392 -2.95846,0.311241 -4.89985,-1.808262 -1.70213,-1.858287 -2.47488,-2.235921 -4.57534,-2.235921 -2.87472,0 -4.4916,1.240218 -4.4916,3.445257 0,1.912064 0.17074,1.999353 7.26621,3.714704 6.42645,1.553615 8.48421,2.699287 10.70254,5.958683 3.63981,5.347993 0.0469,13.251762 -6.97139,15.335981 -3.27015,0.971131 -8.99521,1.136788 -11.6264,0.336413 z M 288.125,71.679037 c -1.20313,-0.381343 -3.49011,-1.993412 -5.08219,-3.582375 -9.9802,-9.960656 -0.3504,-26.255285 13.663,-23.119223 2.68552,0.600992 4.07877,1.399795 6.48245,3.716643 3.95786,3.814863 4.17873,5.936957 0.71799,6.898055 -3.60953,1.002417 -4.91886,0.800752 -6.05456,-0.932534 -1.45039,-2.213581 -3.77375,-2.989772 -6.37728,-2.130531 -2.76335,0.911989 -3.97441,2.769392 -3.97441,6.095571 0,2.174652 0.3671,3.088611 1.82693,4.548432 2.74504,2.74505 6.28678,2.3194 9.11057,-1.09493 1.19086,-1.439897 1.40525,-1.478009 4.53125,-0.805488 3.89887,0.838798 4.23762,2.029756 1.65735,5.826962 -3.05789,4.500081 -10.35887,6.526269 -16.5011,4.579419 z m 93.79442,-0.273756 c -3.90987,-1.993694 -4.69423,-3.785912 -5.04442,-11.52626 l -0.3125,-6.907183 -2.1875,-0.704669 c -2.07153,-0.667312 -2.1875,-0.853773 -2.1875,-3.517169 0,-2.663647 0.11577,-2.849726 2.1875,-3.515855 2.07756,-0.668006 2.20321,-0.872184 2.5,-4.0625 l 0.3125,-3.359145 3.41852,-0.193673 c 4.09099,-0.231771 5.01898,0.635048 5.01898,4.688129 l 0,2.693044 2.54109,0 c 3.83185,0 4.95891,0.852298 4.95891,3.75 0,2.897702 -1.12706,3.75 -4.95891,3.75 l -2.54109,0 0,5.60301 c 0,6.375396 0.66114,7.298602 4.68601,6.543534 1.94121,-0.364175 2.23456,-0.233063 2.79875,1.250887 1.61088,4.236913 1.54663,4.673782 -0.83362,5.668313 -2.99805,1.252662 -7.72915,1.179362 -10.35672,-0.160463 z M 89.791669,71.458344 C 89.5625,71.229169 89.375,63.384256 89.375,54.025201 89.375,35.280348 89.158187,36.25 93.34955,36.25 c 1.098525,0 2.588856,0.41433 3.31185,0.920733 0.722988,0.506403 4.62955,4.865778 8.68125,9.6875 4.05169,4.821722 7.60086,8.766767 7.88704,8.766767 0.28617,0 0.52031,-3.917411 0.52031,-8.705357 0,-10.051255 0.27167,-10.669643 4.6875,-10.669643 4.72519,0 4.6875,-0.141405 4.6875,17.585731 0,9.573044 -0.25051,16.089519 -0.64699,16.830357 -0.50413,0.941975 -1.32125,1.208912 -3.70059,1.208912 l -3.0536,0 L 107.5,62.5 c -4.5231,-5.15625 -8.482838,-9.375 -8.799413,-9.375 -0.322975,0 -0.575587,3.78526 -0.575587,8.625 0,5.875 -0.239131,8.864131 -0.75,9.375 -0.786006,0.786006 -6.863519,1.05315 -7.583331,0.333331 z m 91.250001,0 C 180.8125,71.229169 180.625,65.353006 180.625,58.400201 180.625,44.429577 180.44814,45 184.77971,45 c 4.63994,0 4.59529,-0.129559 4.59529,13.33449 0,8.53151 -0.21857,12.259085 -0.75,12.79051 -0.78601,0.786006 -6.86352,1.05315 -7.58333,0.333331 z m 20.44724,-0.06162 c -0.38424,-0.25255 -3.00697,-6.054494 -5.82832,-12.893212 -4.00022,-9.696243 -4.94733,-12.54966 -4.3014,-12.959179 1.26796,-0.803887 6.40092,-0.642369 7.53042,0.23696 0.55193,0.429687 2.18483,3.832682 3.62867,7.56221 3.08581,7.970873 3.08449,7.971076 6.50709,-1.004726 1.34265,-3.521113 2.81517,-6.360803 3.484,-6.71875 1.88964,-1.011304 6.84522,-0.77542 7.27567,0.34632 0.34745,0.905463 -8.553,23.427002 -9.93031,25.127446 -0.68428,0.844825 -7.18335,1.080162 -8.36582,0.302931 z M 309.41307,70.696181 C 309.01611,69.954406 308.75,64.943663 308.75,58.210731 308.75,45.511709 308.91921,45 313.11852,45 c 3.19032,0 4.38148,0.517892 4.38148,1.904983 0,1.620661 0.95744,2.013235 1.96043,0.803821 1.87269,-2.258121 8.20068,-3.643118 8.8069,-1.927554 0.15183,0.429687 0.11161,2.321291 -0.0894,4.203564 l -0.36544,3.422315 -2.62716,0.446379 c -5.75963,0.978613 -7.17319,3.150465 -7.66152,11.771492 l -0.33632,5.9375 -3.55568,0.186306 c -3.01646,0.15805 -3.65623,-0.0019 -4.21875,-1.052662 z M 331.375,71.125 c -0.53142,-0.531425 -0.75,-4.259 -0.75,-12.79051 0,-11.26444 0.0779,-12.082212 1.20891,-12.6875 C 332.49881,45.291146 333.92355,45 335,45 c 1.07645,0 2.50119,0.291146 3.16609,0.64699 1.13099,0.605288 1.20891,1.42306 1.20891,12.6875 0,8.53151 -0.21858,12.259085 -0.75,12.79051 -0.4125,0.4125 -2.04375,0.75 -3.625,0.75 -1.58125,0 -3.2125,-0.3375 -3.625,-0.75 z M 181.53409,40.965909 C 178.47046,37.902284 180.58216,33.125 185,33.125 c 1.85836,0 2.70547,0.376561 3.70464,1.646787 1.4777,1.878592 1.57722,2.675771 0.60144,4.817385 -1.3907,3.05225 -5.38833,3.760395 -7.77199,1.376737 z m 150.98703,0.76107 c -0.86454,-0.4517 -1.80005,-1.70725 -2.13044,-2.859256 -0.85883,-2.994561 1.0141,-5.362324 4.44464,-5.618944 2.1138,-0.158122 2.73705,0.08356 3.84377,1.490536 0.7265,0.923592 1.32091,2.313296 1.32091,3.088232 0,3.28655 -4.33046,5.544417 -7.47888,3.899432 z"
       id="path3910"
       inkscape:connector-curvature="0" />
    <path
       style="fill:#616161"
       d="M 342.94394,80.2356 C 342.69977,79.991438 342.5,72.134256 342.5,62.7752 342.5,43.950033 342.25459,45 346.65471,45 c 1.1976,0 2.71901,0.289824 3.38089,0.644054 0.87421,0.467864 2.17835,0.360637 4.7672,-0.391962 8.4335,-2.451686 15.81251,2.641635 16.87953,11.651017 1.23532,10.430316 -8.53843,18.494122 -17.75056,14.645047 -1.25295,-0.523512 -2.49521,-0.73445 -2.7606,-0.46875 -0.26538,0.2657 -0.56715,2.451844 -0.67059,4.858094 l -0.18808,4.375 -3.46231,0.183519 c -1.90428,0.100937 -3.66209,-0.01625 -3.90625,-0.260419 z m 18.35413,-17.062525 c 1.49582,-1.495813 1.82693,-2.354081 1.82693,-4.735575 0,-2.40874 -0.32744,-3.236098 -1.90517,-4.813824 -1.66624,-1.66624 -2.221,-1.862808 -4.42351,-1.567389 -3.07514,0.412463 -4.72255,1.811608 -5.51581,4.684592 -1.73632,6.288402 5.50913,10.94064 10.01756,6.432196 z m -229.11593,8.161312 c -3.0647,-1.392262 -6.16307,-4.809081 -7.19429,-7.9337 -1.25939,-3.815977 -0.46474,-9.934116 1.68814,-12.997288 3.70248,-5.267985 8.72868,-7.000385 14.78415,-5.095707 2.59006,0.814672 3.69323,0.904205 4.67396,0.379334 1.49104,-0.79798 5.69035,-0.898305 6.84794,-0.163603 0.60967,0.386941 0.7551,3.475121 0.625,13.271679 l -0.16954,12.767398 -3.26253,0.188263 c -1.79438,0.103543 -3.808,-0.103676 -4.4747,-0.460482 -0.8856,-0.473956 -1.81138,-0.398387 -3.43616,0.280488 -2.98169,1.245825 -7.02812,1.150956 -10.08197,-0.236382 z m 10.99093,-8.161312 c 4.06462,-4.064614 1.0833,-11.298075 -4.65658,-11.298075 -2.22921,0 -5.17872,2.73237 -5.64762,5.231852 -1.20424,6.419117 5.81752,10.552917 10.3042,6.066223 z m 22.76443,8.44465 c -4.35286,-1.93465 -5.92839,-5.641531 -5.93401,-13.961475 -0.003,-4.665089 -0.11769,-5.15625 -1.20237,-5.15625 -2.61685,0 -3.17612,-0.660324 -3.17612,-3.75 0,-3.089676 0.55927,-3.75 3.17612,-3.75 C 159.79747,45 160,44.545059 160,42.306956 c 0,-4.053081 0.92799,-4.9199 5.01898,-4.688129 l 3.41852,0.193673 0.3125,3.4375 0.3125,3.4375 3.31684,0.333206 c 3.52732,0.354349 4.47652,1.145106 4.47652,3.729294 0,2.584188 -0.9492,3.374945 -4.47652,3.729294 l -3.31684,0.333206 -0.18208,4.817925 c -0.15756,4.169286 -0.009,4.990544 1.10012,6.100119 1.03133,1.031325 1.76093,1.205637 3.72905,0.890925 2.43502,-0.389375 2.45066,-0.378544 3.23499,2.239306 0.90708,3.027569 0.35374,4.4343 -2.00373,5.093962 -2.53409,0.709082 -7.02817,0.540863 -9.00335,-0.337012 z m 60.36326,-0.771988 c -8.39674,-4.184268 -10.01019,-15.32083 -3.20552,-22.125499 9.33803,-9.338039 24.29573,-2.171984 23.21808,11.123512 -0.0474,0.584872 -2.26768,0.78125 -8.83293,0.78125 -7.5892,0 -8.82313,0.139448 -9.16717,1.035989 -0.52243,1.361449 2.47572,3.964011 4.56656,3.964011 0.85804,0 2.63187,-0.61685 3.94185,-1.370775 2.06774,-1.190044 2.77838,-1.29305 5.38977,-0.78125 1.6544,0.324237 3.12609,0.951263 3.27042,1.393388 0.43375,1.328674 -4.92339,6.170318 -7.67138,6.9332 -4.18368,1.16145 -7.8795,0.855174 -11.50968,-0.953826 z m 10.91108,-15.88512 C 237.98701,53.70637 235.54499,51.875 233.09737,51.875 c -2.56453,0 -5.44955,1.847278 -4.72243,3.02378 0.56852,0.919881 8.27328,0.973796 8.8369,0.06184 z m 20.28412,16.955421 c -4.94964,-1.505607 -9.58172,-5.849538 -9.25022,-8.674775 0.17121,-1.459227 0.59278,-1.714322 3.93427,-2.380669 l 3.7425,-0.746316 2.25524,2.44286 C 260.15211,64.695756 260.78035,65 263.22204,65 c 2.91885,0 4.46553,-0.80765 5.11395,-2.670426 0.60792,-1.746436 -1.60499,-3.394776 -5.62382,-4.189035 -8.99383,-1.77749 -12.89325,-4.20115 -13.7029,-8.516945 -0.59436,-3.168226 0.0364,-6.780577 1.55669,-8.915686 2.92513,-4.10796 10.79305,-6.048378 17.09559,-4.216181 4.06417,1.181488 6.59002,3.101691 8.30694,6.315117 1.16899,2.187907 1.17297,2.315444 0.0971,3.108103 -0.61706,0.454617 -2.40526,1.019024 -3.97377,1.254236 -2.70335,0.405392 -2.95846,0.311241 -4.89985,-1.808262 -1.70213,-1.858287 -2.47488,-2.235921 -4.57534,-2.235921 -2.87472,0 -4.4916,1.240218 -4.4916,3.445257 0,1.912064 0.17074,1.999353 7.26621,3.714704 6.42645,1.553615 8.48421,2.699287 10.70254,5.958683 3.63981,5.347993 0.0469,13.251762 -6.97139,15.335981 -3.27015,0.971131 -8.99521,1.136788 -11.6264,0.336413 z M 288.125,71.679037 c -1.20313,-0.381343 -3.49011,-1.993412 -5.08219,-3.582375 -9.9802,-9.960656 -0.3504,-26.255285 13.663,-23.119223 2.68552,0.600992 4.07877,1.399795 6.48245,3.716643 3.95786,3.814863 4.17873,5.936957 0.71799,6.898055 -3.60953,1.002417 -4.91886,0.800752 -6.05456,-0.932534 -1.45039,-2.213581 -3.77375,-2.989772 -6.37728,-2.130531 -2.76335,0.911989 -3.97441,2.769392 -3.97441,6.095571 0,2.174652 0.3671,3.088611 1.82693,4.548432 2.74504,2.74505 6.28678,2.3194 9.11057,-1.09493 1.19086,-1.439897 1.40525,-1.478009 4.53125,-0.805488 3.89887,0.838798 4.23762,2.029756 1.65735,5.826962 -3.05789,4.500081 -10.35887,6.526269 -16.5011,4.579419 z m 93.79442,-0.273756 c -3.90987,-1.993694 -4.69423,-3.785912 -5.04442,-11.52626 l -0.3125,-6.907183 -2.1875,-0.704669 c -2.07153,-0.667312 -2.1875,-0.853773 -2.1875,-3.517169 0,-2.663647 0.11577,-2.849726 2.1875,-3.515855 2.07756,-0.668006 2.20321,-0.872184 2.5,-4.0625 l 0.3125,-3.359145 3.41852,-0.193673 c 4.09099,-0.231771 5.01898,0.635048 5.01898,4.688129 l 0,2.693044 2.54109,0 c 3.83185,0 4.95891,0.852298 4.95891,3.75 0,2.897702 -1.12706,3.75 -4.95891,3.75 l -2.54109,0 0,5.60301 c 0,6.375396 0.66114,7.298602 4.68601,6.543534 1.94121,-0.364175 2.23456,-0.233063 2.79875,1.250887 1.61088,4.236913 1.54663,4.673782 -0.83362,5.668313 -2.99805,1.252662 -7.72915,1.179362 -10.35672,-0.160463 z M 89.791669,71.458344 C 89.5625,71.229169 89.375,63.384256 89.375,54.025201 89.375,35.280348 89.158187,36.25 93.34955,36.25 c 1.098525,0 2.588856,0.41433 3.31185,0.920733 0.722988,0.506403 4.62955,4.865778 8.68125,9.6875 4.05169,4.821722 7.60086,8.766767 7.88704,8.766767 0.28617,0 0.52031,-3.917411 0.52031,-8.705357 0,-10.051255 0.27167,-10.669643 4.6875,-10.669643 4.72519,0 4.6875,-0.141405 4.6875,17.585731 0,9.573044 -0.25051,16.089519 -0.64699,16.830357 -0.50413,0.941975 -1.32125,1.208912 -3.70059,1.208912 l -3.0536,0 L 107.5,62.5 c -4.5231,-5.15625 -8.482838,-9.375 -8.799413,-9.375 -0.322975,0 -0.575587,3.78526 -0.575587,8.625 0,5.875 -0.239131,8.864131 -0.75,9.375 -0.786006,0.786006 -6.863519,1.05315 -7.583331,0.333331 z m 91.250001,0 C 180.8125,71.229169 180.625,65.353006 180.625,58.400201 180.625,44.429577 180.44814,45 184.77971,45 c 4.63994,0 4.59529,-0.129559 4.59529,13.33449 0,8.53151 -0.21857,12.259085 -0.75,12.79051 -0.78601,0.786006 -6.86352,1.05315 -7.58333,0.333331 z m 20.44724,-0.06162 c -0.38424,-0.25255 -3.00697,-6.054494 -5.82832,-12.893212 -4.00022,-9.696243 -4.94733,-12.54966 -4.3014,-12.959179 1.26796,-0.803887 6.40092,-0.642369 7.53042,0.23696 0.55193,0.429687 2.18483,3.832682 3.62867,7.56221 3.08581,7.970873 3.08449,7.971076 6.50709,-1.004726 1.34265,-3.521113 2.81517,-6.360803 3.484,-6.71875 1.88964,-1.011304 6.84522,-0.77542 7.27567,0.34632 0.34745,0.905463 -8.553,23.427002 -9.93031,25.127446 -0.68428,0.844825 -7.18335,1.080162 -8.36582,0.302931 z M 309.41307,70.696181 C 309.01611,69.954406 308.75,64.943663 308.75,58.210731 308.75,45.511709 308.91921,45 313.11852,45 c 3.19032,0 4.38148,0.517892 4.38148,1.904983 0,1.620661 0.95744,2.013235 1.96043,0.803821 1.87269,-2.258121 8.20068,-3.643118 8.8069,-1.927554 0.15183,0.429687 0.11161,2.321291 -0.0894,4.203564 l -0.36544,3.422315 -2.62716,0.446379 c -5.75963,0.978613 -7.17319,3.150465 -7.66152,11.771492 l -0.33632,5.9375 -3.55568,0.186306 c -3.01646,0.15805 -3.65623,-0.0019 -4.21875,-1.052662 z M 331.375,71.125 c -0.53142,-0.531425 -0.75,-4.259 -0.75,-12.79051 0,-11.26444 0.0779,-12.082212 1.20891,-12.6875 C 332.49881,45.291146 333.92355,45 335,45 c 1.07645,0 2.50119,0.291146 3.16609,0.64699 1.13099,0.605288 1.20891,1.42306 1.20891,12.6875 0,8.53151 -0.21858,12.259085 -0.75,12.79051 -0.4125,0.4125 -2.04375,0.75 -3.625,0.75 -1.58125,0 -3.2125,-0.3375 -3.625,-0.75 z M 181.53409,40.965909 C 178.47046,37.902284 180.58216,33.125 185,33.125 c 1.85836,0 2.70547,0.376561 3.70464,1.646787 1.4777,1.878592 1.57722,2.675771 0.60144,4.817385 -1.3907,3.05225 -5.38833,3.760395 -7.77199,1.376737 z m 150.98703,0.76107 c -0.86454,-0.4517 -1.80005,-1.70725 -2.13044,-2.859256 -0.85883,-2.994561 1.0141,-5.362324 4.44464,-5.618944 2.1138,-0.158122 2.73705,0.08356 3.84377,1.490536 0.7265,0.923592 1.32091,2.313296 1.32091,3.088232 0,3.28655 -4.33046,5.544417 -7.47888,3.899432 z"
       id="path3908"
       inkscape:connector-curvature="0" />
    <path
       style="fill:#080808"
       d="m 343.125,63.125 0,-16.875 3.28125,0.0096 c 1.80469,0.0053 3.68649,0.265976 4.18179,0.579362 0.57389,0.363108 1.48072,0.276582 2.5,-0.238541 6.02281,-3.043797 13.53699,-0.565564 16.74804,5.523636 1.59311,3.021043 1.41855,10.031322 -0.33227,13.344022 -2.79809,5.294238 -8.96228,7.545663 -15.13316,5.527269 -1.74451,-0.5706 -3.44158,-0.87075 -3.77124,-0.667 C 350.26973,70.532067 350,72.791548 350,75.349386 l 0,4.650612 -3.4375,0 -3.4375,0 0,-16.875 z m 18.33169,1.221569 C 366.37094,60.481023 363.36183,51.25 357.1875,51.25 c -4.00333,0 -7.82563,5.05238 -6.82835,9.025843 0.228,0.908436 1.24648,2.483626 2.26328,3.500432 2.31414,2.314137 6.29094,2.570863 8.83426,0.570294 z m -229.34175,6.37215 c -1.4149,-0.664213 -3.2745,-2.152338 -4.13243,-3.306938 -7.5671,-10.183766 0.3703,-24.673127 11.91621,-21.752502 1.60258,0.405385 5.24012,0.681152 8.08341,0.612816 l 5.16964,-0.124247 -0.16964,12.394826 -0.16963,12.394826 -2.77555,0.198013 c -1.52655,0.108912 -3.44234,-0.158838 -4.25732,-0.595 -1.20349,-0.644088 -1.72827,-0.639082 -2.7943,0.02669 -2.29493,1.433206 -7.97162,1.512344 -10.87039,0.151538 z M 143.5,63.5 c 1.81383,-1.81383 2.125,-2.555147 2.125,-5.0625 0,-2.507353 -0.31117,-3.24867 -2.125,-5.0625 -1.57277,-1.572767 -2.66911,-2.124393 -4.21875,-2.122664 -5.02734,0.0056 -8.40524,4.764411 -6.81093,9.59525 1.6881,5.114989 7.23354,6.448558 11.02968,2.652414 z m 22.29356,7.448381 C 162.27594,69.419175 161.25501,66.8625 161.25234,59.575893 161.24979,52.641937 160.66725,51.25 157.76786,51.25 c -1.35417,0 -1.51786,-0.269608 -1.51786,-2.5 0,-2.17309 0.18389,-2.501251 1.40625,-2.509571 2.42662,-0.01651 3.2247,-1.018527 3.57304,-4.486086 l 0.33321,-3.316843 3.125,0 3.125,0 0.1834,3.125 c 0.22,3.748649 1.20863,4.6875 4.93606,4.6875 l 2.69304,0 0,2.5 0,2.5 -2.54109,0 c -4.51717,0 -4.95891,0.576834 -4.95891,6.475544 0,4.687283 0.14572,5.318456 1.52755,6.616625 1.24455,1.169187 1.94011,1.357662 3.75439,1.0173 2.00129,-0.375444 2.2897,-0.252419 2.84745,1.214575 0.34133,0.897781 0.62061,2.149006 0.62061,2.7805 0,2.317619 -7.07559,3.335294 -11.08144,1.593837 z m 62.09692,0.0084 c -7.27114,-2.591788 -10.45114,-11.614494 -6.69043,-18.98291 2.24363,-4.395971 6.1052,-6.561251 11.72464,-6.574302 3.19303,-0.0074 4.37579,0.309127 6.82648,1.826968 3.60267,2.231316 5.87383,6.120789 5.87383,10.059228 l 0,2.714197 -8.67348,0 c -6.93437,0 -8.82895,0.187349 -9.44893,0.934371 -0.62457,0.752565 -0.57865,1.234727 0.23598,2.47801 0.55629,0.849 1.61447,1.866375 2.35153,2.260838 1.73175,0.926806 5.9244,0.358637 7.43386,-1.0074 0.92138,-0.833838 1.79296,-0.972731 4.01398,-0.639669 3.484,0.522456 3.66706,1.605963 0.73807,4.36835 -3.51589,3.315913 -9.35402,4.355781 -14.38553,2.562306 z m 9.92548,-15.3374 c 1.32705,-2.147207 -2.71808,-5.198207 -6.04801,-4.561651 -2.11544,0.404393 -4.54738,2.937586 -4.05414,4.222944 0.29013,0.756058 1.39933,0.969288 5.04219,0.969288 2.56863,0 4.84561,-0.283767 5.05996,-0.630593 z M 256.25,70.690512 c -4.92382,-1.746812 -9.22573,-7.050181 -6.88989,-8.49381 0.33556,-0.207388 1.99322,-0.540878 3.6837,-0.74109 2.78015,-0.329268 3.17025,-0.216486 4.08615,1.181357 2.17051,3.312612 8.05368,4.111212 10.71095,1.453937 3.28592,-3.285917 1.64725,-5.015922 -6.59648,-6.964161 -7.27425,-1.719121 -8.87625,-2.537951 -10.64693,-5.441954 -2.51461,-4.124068 -1.12195,-9.874851 3.15874,-13.043607 4.37207,-3.236394 14.35392,-2.762296 18.5008,0.878713 1.85534,1.629006 3.99296,4.689729 3.99296,5.717254 0,0.164575 -1.50707,0.612094 -3.34905,0.994487 l -3.34905,0.69526 -2.21345,-2.213449 C 265.56497,42.939977 264.64328,42.5 262.70157,42.5 c -3.1782,0 -5.20157,1.442742 -5.20157,3.708912 0,2.469581 0.9615,3.048055 7.92994,4.770938 6.80563,1.682632 8.72144,2.77826 10.38592,5.939578 1.42126,2.699377 1.116,7.487541 -0.6277,9.845878 -3.36565,4.551981 -12.0802,6.3582 -18.93816,3.925206 z m 32.22364,0.251913 c -5.7252,-2.039506 -8.44728,-5.917187 -8.46336,-12.056249 -0.0128,-4.902067 0.98101,-7.323698 4.19637,-10.225022 6.49627,-5.861797 18.75726,-3.560918 21.14697,3.968414 0.47411,1.493777 -0.303,2.104571 -3.4221,2.689719 -1.86925,0.350672 -2.40825,0.176802 -3.47804,-1.121929 -2.94289,-3.572689 -7.15593,-3.732352 -9.97831,-0.378152 -2.8182,3.349252 -1.99068,9.05035 1.58182,10.897769 3.04353,1.573869 5.4878,1.167913 7.8131,-1.297619 2.12867,-2.25704 2.36316,-2.296878 6.66116,-1.131648 1.85421,0.502698 1.21838,2.752136 -1.56456,5.53508 -3.89684,3.896837 -9.142,5.025862 -14.49305,3.119637 z M 382.1875,70.728262 C 378.43671,68.930706 377.87522,67.568181 377.50888,59.375 L 377.1875,52.1875 375,51.480481 c -1.90397,-0.615379 -2.1875,-0.96929 -2.1875,-2.730481 0,-1.761191 0.28353,-2.115103 2.1875,-2.730481 2.08689,-0.674501 2.20188,-0.865121 2.5,-4.144519 l 0.3125,-3.4375 3.125,0 3.125,0 0.32624,3.242902 c 0.17942,1.783595 0.54824,3.464915 0.81959,3.736265 0.27135,0.27135 1.95267,0.640169 3.73627,0.819598 3.22736,0.324672 3.2429,0.336714 3.2429,2.513735 0,2.183346 -0.006,2.188133 -3.31684,2.520706 -1.89796,0.190665 -3.57954,0.725393 -3.93092,1.25 -0.33774,0.504237 -0.52933,3.124033 -0.42574,5.821768 0.16561,4.313332 0.37074,5.052682 1.70058,6.129526 1.14944,0.930763 2.05707,1.1325 3.78311,0.840888 2.1947,-0.370788 2.29526,-0.304163 2.99828,1.986468 0.96935,3.158457 0.10124,3.971863 -4.63261,4.340656 -2.78096,0.216657 -4.28449,-0.005 -6.17586,-0.91175 z M 90.444744,70.861406 C 90.200131,70.6168 90,63.010419 90,53.958333 L 90,37.5 l 3.293556,0 3.293556,0 7.800198,9.326906 c 4.2901,5.129798 8.19958,9.498698 8.68772,9.708668 1.57696,0.678312 1.90565,-1.059957 1.9154,-10.129324 L 115,37.5 l 3.44771,0 3.44771,0 -0.16646,16.71875 -0.16646,16.71875 -2.33298,0.193337 c -1.28313,0.106332 -2.72171,-0.03431 -3.19683,-0.3125 -0.47512,-0.278212 -4.42398,-4.583962 -8.77524,-9.568337 -4.35126,-4.984375 -8.256437,-9.0625 -8.678169,-9.0625 -0.557737,0 -0.851975,2.555819 -1.079281,9.375 l -0.3125,9.375 -3.149006,0.184325 c -1.731956,0.101381 -3.349144,-0.01581 -3.59375,-0.260419 z m 91.249996,0 C 181.45013,70.6168 181.25,64.965131 181.25,58.302143 l 0,-12.114523 3.59375,0.18744 3.59375,0.18744 0,12.1875 0,12.1875 -3.14901,0.184325 c -1.73195,0.101381 -3.34914,-0.01581 -3.59375,-0.260419 z M 201.3437,70.15625 c -1.19405,-2.270188 -9.4687,-22.608933 -9.4687,-23.273668 0,-0.451106 1.26101,-0.629191 3.59375,-0.507522 l 3.59375,0.18744 2.76709,7.055732 c 2.04588,5.216761 3.02327,7.007264 3.75,6.86977 0.60894,-0.115208 2.03208,-2.8592 3.74042,-7.211982 l 2.75751,-7.02602 3.64874,0 c 2.00681,0 3.64874,0.19686 3.64874,0.437466 0,1.018563 -9.65286,23.665821 -10.26533,24.084215 -0.36969,0.25255 -2.13884,0.463488 -3.93143,0.46875 -2.47477,0.0072 -3.39773,-0.253693 -3.83454,-1.084181 z m 109.10178,0.705894 C 310.20047,70.617131 310,64.979169 310,58.333333 L 310,46.25 l 3.4375,0 c 3.25,0 3.4375,0.08523 3.4375,1.5625 0,1.145833 0.33333,1.5625 1.25,1.5625 0.6875,0 1.25,-0.275534 1.25,-0.612297 0,-0.891269 4.68059,-3.137703 6.5376,-3.137703 1.52349,0 1.5874,0.150981 1.5874,3.75 l 0,3.75 -2.03125,0.0023 c -1.11719,0.0013 -2.93003,0.550359 -4.02854,1.220162 -3.38513,2.064047 -4.21835,4.003174 -4.56521,10.624571 l -0.3125,5.965431 -2.83577,0.185063 c -1.55967,0.101787 -3.03624,-0.01538 -3.28125,-0.260419 z m 21.09541,-0.3806 c -0.17608,-0.458844 -0.24325,-6.028338 -0.14927,-12.376653 l 0.17088,-11.542391 3.4375,0 3.4375,0 0,12.1875 0,12.1875 -3.28824,0.189156 c -2.30583,0.132638 -3.38389,-0.06006 -3.60837,-0.645112 z M 182.27179,40.579637 C 179.28009,38.226366 180.80836,33.75 184.60348,33.75 c 2.5108,0 3.95352,1.045457 4.48467,3.249798 0.31528,1.308424 0.0487,2.045211 -1.18738,3.28125 -1.93254,1.932536 -3.44946,2.013001 -5.62898,0.29859 z M 332.09923,40.281048 C 329.42726,37.609078 331.21186,33.75 335.11946,33.75 c 2.05584,0 4.25554,1.953069 4.25554,3.778409 0,1.662669 -2.70146,4.346591 -4.375,4.346591 -0.71875,0 -2.02409,-0.717278 -2.90077,-1.593952 z"
       id="path3906"
       inkscape:connector-curvature="0" />
  </g>
</svg>
