<?xml version="1.0" encoding="UTF-8" standalone="no"?>
<!-- Created with Inkscape (http://www.inkscape.org/) -->

<svg
   xmlns:dc="http://purl.org/dc/elements/1.1/"
   xmlns:cc="http://creativecommons.org/ns#"
   xmlns:rdf="http://www.w3.org/1999/02/22-rdf-syntax-ns#"
   xmlns:svg="http://www.w3.org/2000/svg"
   xmlns="http://www.w3.org/2000/svg"
   xmlns:xlink="http://www.w3.org/1999/xlink"
   xmlns:sodipodi="http://sodipodi.sourceforge.net/DTD/sodipodi-0.dtd"
   xmlns:inkscape="http://www.inkscape.org/namespaces/inkscape"
   id="svg3716"
   version="1.1"
   inkscape:version="0.91 r13725"
   width="406.875"
   height="108.75"
   viewBox="0 0 406.875 108.75"
   sodipodi:docname="OnsenUI.svg">
  <metadata
     id="metadata3722">
    <rdf:RDF>
      <cc:Work
         rdf:about="">
        <dc:format>image/svg+xml</dc:format>
        <dc:type
           rdf:resource="http://purl.org/dc/dcmitype/StillImage" />
        <dc:title></dc:title>
      </cc:Work>
    </rdf:RDF>
  </metadata>
  <defs
     id="defs3720" />
  <sodipodi:namedview
     pagecolor="#ffffff"
     bordercolor="#666666"
     borderopacity="1"
     objecttolerance="10"
     gridtolerance="10"
     guidetolerance="10"
     inkscape:pageopacity="0"
     inkscape:pageshadow="2"
     inkscape:window-width="640"
     inkscape:window-height="480"
     id="namedview3718"
     showgrid="false"
     inkscape:zoom="0.64393241"
     inkscape:cx="203.4375"
     inkscape:cy="54.375"
     inkscape:window-x="0"
     inkscape:window-y="0"
     inkscape:window-maximized="0"
     inkscape:current-layer="svg3716" />
  <image
     width="406.875"
     height="108.75"
     preserveAspectRatio="none"
     style="image-rendering:optimizeQuality"
     xlink:href="file:///media/havoc/USB%20DISK/pics/_Products/OnsenUI.png"
     id="image3724"
     x="0"
     y="0"
     sodipodi:absref="/media/havoc/USB DISK/pics/_Products/OnsenUI.png" />
  <g
     id="g3867">
    <path
       style="fill:#fdfdfd"
       d="M 0,54.375 0,0 203.4375,0 406.875,0 l 0,54.375 0,54.375 -203.4375,0 L 0,108.75 0,54.375 Z"
       id="path3883"
       inkscape:connector-curvature="0" />
    <path
       style="fill:#fbcfd1"
       d="M 98.631369,90.598144 C 83.744169,88.8621 73.125,79.804113 73.125,68.841594 c 0,-5.193619 3.297463,-12.340853 5.3332,-11.559668 0.71465,0.274237 0.8267,1.077599 0.517381,3.709423 -1.710606,14.554576 15.991569,23.53847 37.595029,19.07957 14.52802,-2.99855 27.57628,-11.531531 32.21522,-21.067333 2.26293,-4.651674 2.41858,-10.401727 0.38993,-14.405068 -0.86804,-1.712995 -2.02207,-3.482869 -2.5645,-3.933055 -1.22382,-1.015679 -1.27618,-2.468439 -0.10517,-2.9178 2.34277,-0.899004 8.47455,4.556307 10.8315,9.636548 1.31007,2.823767 1.50802,4.043788 1.3205,8.138572 -0.18,3.930445 -0.6079,5.603507 -2.32524,9.091579 -6.42039,13.040351 -25.61926,23.919194 -45.88197,25.998544 -3.41458,0.3504 -6.53009,0.600131 -6.92335,0.55495 -0.39327,-0.04519 -2.59654,-0.301544 -4.896161,-0.569712 z m 85.108881,-21.12905 c -7.49211,-3.976669 -6.84206,-17.929799 1.07978,-23.177004 3.78264,-2.505521 9.42189,-2.732596 12.68633,-0.51084 3.62138,2.464694 4.63701,4.424507 4.87482,9.406709 0.23794,4.985035 -0.59847,7.715272 -3.37416,11.013997 -3.5894,4.265756 -10.57063,5.759763 -15.26677,3.267138 z m 9.4649,-4.823044 c 4.03823,-2.08825 5.72775,-10.417395 2.76219,-13.617286 -2.97778,-3.213086 -8.96625,-1.813222 -11.2088,2.620171 -2.13802,4.226757 -1.52474,9.639821 1.27665,11.268234 1.68165,0.977519 4.99785,0.852125 7.16996,-0.271119 z m 32.97488,5.041675 c -1.77727,-0.965931 -3.29375,-3.913525 -2.94901,-5.732038 0.14333,-0.756081 0.86404,-1.206612 2.12837,-1.3305 1.54662,-0.151541 2.05357,0.12415 2.65483,1.443763 0.63747,1.3991 1.07596,1.603512 3.08322,1.437306 3.23815,-0.268119 3.02575,-1.691412 -0.54152,-3.628783 -4.38983,-2.384095 -4.93092,-3.01329 -4.93092,-5.733844 0,-3.765318 2.22851,-5.518629 7.01434,-5.518629 3.28452,0 3.9202,0.213392 5.57993,1.873114 1.03021,1.030212 1.77914,2.36615 1.66429,2.96875 -0.24723,1.297115 -2.65621,1.775645 -4.50808,0.895502 -2.25381,-1.071167 -3.27439,-1.263371 -4.0764,-0.767699 -0.5123,0.316619 0.39816,1.141143 2.68552,2.43205 1.90332,1.074168 3.75417,2.501599 4.11299,3.172069 1.51101,2.823345 0.36753,6.711595 -2.46603,8.38542 -2.15207,1.271263 -7.20117,1.326563 -9.45153,0.103519 z m 18.75,0 c -3.46217,-1.881656 -4.36754,-8.456789 -1.87379,-13.608176 1.81665,-3.752707 4.5274,-5.454549 8.6882,-5.454549 2.66707,0 3.44747,0.288062 5.00797,1.84856 1.97953,1.979535 2.91536,5.204829 2.26363,7.801517 -0.39494,1.57359 -0.49755,1.599923 -6.23441,1.599923 -3.20807,0 -6.00309,0.275438 -6.21115,0.612083 -0.20806,0.336648 -0.0741,1.180398 0.29761,1.874998 0.81392,1.520831 4.07768,1.689631 5.90762,0.305544 1.75865,-1.330175 4.72429,-1.208831 4.72429,0.193306 0,1.603138 -1.67098,3.751469 -3.7569,4.830138 -2.25839,1.167862 -6.66117,1.166187 -8.81307,-0.0031 z M 254.0625,56.5625 c 0,-0.71312 -3.71658,-1.203978 -5.09911,-0.673451 -0.50469,0.193667 -0.73335,0.650269 -0.50814,1.01467 0.50984,0.824942 5.60725,0.514748 5.60725,-0.341219 z m 37.30614,12.831362 c -1.13787,-0.712925 -2.5158,-2.344762 -3.06205,-3.6263 -0.93114,-2.184481 -0.90345,-2.779037 0.44321,-9.516043 C 291.10095,44.489316 290.86016,45 294.05499,45 c 1.51043,0 2.92047,0.281901 3.1334,0.626447 0.21295,0.344547 -0.3753,4.250131 -1.3072,8.679076 -0.9319,4.428946 -1.52022,8.506421 -1.30739,9.061052 0.55472,1.445569 4.91918,1.3546 6.26321,-0.130538 0.56692,-0.626431 1.73221,-4.352993 2.58955,-8.281251 0.85734,-3.928257 1.70808,-7.775099 1.89053,-8.548536 C 305.60053,45.204691 306.05932,45 308.46902,45 c 1.70351,0 2.94084,0.314341 3.12484,0.793862 0.45398,1.183058 -2.64867,15.772113 -4.00759,18.844175 -1.7729,4.007932 -4.46958,5.624913 -9.77101,5.858869 -3.5699,0.157538 -4.75954,-0.046 -6.44662,-1.103044 z M 90.782606,68.861006 c -2.835187,-0.609562 -5.443744,-1.397143 -5.796787,-1.750187 -0.439188,-0.439188 -0.125144,-1.770613 0.994481,-4.2162 1.536219,-3.355551 1.644312,-4.218095 1.766187,-14.093658 C 87.8756,38.338862 87.887231,38.259421 89.882856,34.205725 92.3938,29.105269 98.12215,23.595183 103.83909,20.78125 c 6.78237,-3.338344 7.70487,-2.68717 3.56773,2.518386 -5.16283,6.496156 -7.14633,13.500811 -6.63413,23.42828 0.1892,3.667005 0.74622,7.140913 1.40192,8.743161 1.2842,3.138054 4.33141,5.920546 6.19283,5.654847 1.29639,-0.185046 1.32018,-0.429353 1.32692,-13.625924 0.006,-12.407916 0.11679,-13.748769 1.44163,-17.5 2.41658,-6.842485 6.44324,-11.819668 11.80592,-14.592823 3.97131,-2.053643 4.88237,-0.996602 2.76794,3.211472 -2.4644,4.904585 -2.9054,8.567628 -2.72464,22.631351 0.10766,8.375601 -0.0914,14.551479 -0.52832,16.394709 -1.02904,4.340883 -3.53817,7.379578 -8.14177,9.860153 -3.82425,2.060632 -4.32292,2.163594 -11.19012,2.310588 -5.03695,0.107812 -8.729881,-0.177763 -12.342394,-0.954444 z M 203.75323,68.32085 c 0.004,-2.067712 2.75699,-15.349981 3.39616,-16.384194 0.24147,-0.390692 1.47382,-0.70374 2.73857,-0.695663 1.26475,0.0081 3.75067,-0.152647 5.52428,-0.357164 2.73671,-0.315573 3.42247,-0.174123 4.53125,0.934661 1.60329,1.603291 1.71315,5.032641 0.35594,11.111479 C 218.88696,69.256362 218.46244,70 216.2634,70 c -2.30405,0 -2.35406,-0.611044 -0.66234,-8.093139 0.65667,-2.904352 1.05473,-5.505915 0.88456,-5.78125 -0.61343,-0.99255 -3.33903,-0.471515 -4.59703,0.87878 -0.7068,0.758665 -1.5277,2.375853 -1.82423,3.59375 -2.32845,9.563509 -2.1028,9.074584 -4.28512,9.285209 -1.85515,0.179044 -2.02897,0.045 -2.02601,-1.5625 z m 56.25,0 c 0.004,-2.067712 2.75699,-15.349981 3.39616,-16.384194 0.24147,-0.390692 1.47382,-0.70374 2.73857,-0.695663 1.26475,0.0081 3.75067,-0.152647 5.52428,-0.357164 2.73671,-0.315573 3.42247,-0.174123 4.53125,0.934661 1.60329,1.603291 1.71315,5.032641 0.35594,11.111479 C 275.13696,69.256362 274.71244,70 272.5134,70 c -2.30405,0 -2.35406,-0.611044 -0.66234,-8.093139 0.65667,-2.904352 1.05473,-5.505915 0.88456,-5.78125 -0.61343,-0.99255 -3.33903,-0.471515 -4.59703,0.87878 -0.7068,0.758665 -1.5277,2.375853 -1.82423,3.59375 -2.32845,9.563509 -2.1028,9.074584 -4.28512,9.285209 -1.85515,0.179044 -2.02897,0.045 -2.02601,-1.5625 z M 313.75,68.576544 c 0,-1.631725 4.23766,-22.223691 4.74109,-23.03825 0.44312,-0.716986 5.7144,-0.693194 6.16,0.02781 0.38831,0.628283 -3.67723,20.803277 -4.64039,23.027652 -0.5028,1.161206 -1.10132,1.40625 -3.4348,1.40625 C 314.05188,70 313.75,69.847937 313.75,68.576544 Z M 125.33828,63.791712 c -0.19827,-0.320806 0.62794,-2.381511 1.83603,-4.579348 4.53791,-8.25572 5.58013,-17.231465 3.82701,-32.958847 -0.44043,-3.951191 -0.58815,-8.126813 -0.32825,-9.27916 0.974,-4.318583 5.9136,-7.569647 12.2773,-8.0804633 4.57074,-0.366895 4.65509,-0.2076893 2.37427,4.4813113 -1.96322,4.036084 -2.79366,9.845635 -2.82311,19.749795 -0.0444,14.938779 -3.00674,22.308259 -11.47654,28.550662 -3.67021,2.705019 -5.01373,3.20495 -5.68671,2.11605 z"
       id="path3881"
       inkscape:connector-curvature="0" />
    <path
       style="fill:#f9a0a3"
       d="m 98.599763,89.984444 c -10.8136,-1.296256 -19.058175,-6.128175 -22.8587,-13.39685 -2.20115,-4.2098 -2.331038,-11.042375 -0.294525,-15.493844 1.918918,-4.194448 3.320312,-4.007112 2.867187,0.383279 -2.261106,21.907984 36.725585,27.730577 61.255285,9.148371 7.97409,-6.040681 12.04629,-13.425383 11.56565,-20.973632 -0.21323,-3.348801 -0.6196,-4.509133 -2.54829,-7.276336 -2.66026,-3.81683 -2.24573,-5.068904 1.01167,-3.055718 2.9408,1.817512 5.94163,5.328482 7.42992,8.693 1.82933,4.135515 1.37997,11.067883 -1.04035,16.049786 -2.48754,5.120238 -10.41803,12.995369 -16.87939,16.761538 -11.75907,6.854087 -28.38467,10.613725 -40.508457,9.160406 z M 185.9375,69.706637 c -9.57238,-3.462468 -9.18184,-18.803318 0.60878,-23.913399 2.72373,-1.42161 7.74085,-1.32464 10.35152,0.200073 3.65955,2.13729 4.9772,4.760316 4.9772,9.908014 0,3.925392 -0.24607,4.87812 -2.03125,7.864525 -3.20083,5.354637 -8.8522,7.768912 -13.90625,5.940787 z m 7.69259,-4.721887 c 2.5893,-1.57865 4.46305,-5.577749 4.48118,-9.564077 0.0114,-2.511061 -0.29255,-3.323107 -1.8132,-4.84375 -3.3864,-3.38641 -9.48872,-1.982358 -12.04659,2.77174 -1.17073,2.17595 -1.65229,6.020651 -1.03439,8.258488 1.1971,4.335549 6.18704,5.954105 10.413,3.377599 z m 34.69048,4.9512 C 225.98956,69.261531 223.75,66.681281 223.75,64.670081 c 0,-2.268083 1.77462,-2.413012 3.63174,-0.296593 1.28874,1.468668 2.16398,1.876512 4.02705,1.876512 4.48334,0 3.7508,-2.697937 -1.44779,-5.332261 -3.09132,-1.566494 -3.711,-2.442655 -3.711,-5.246989 0,-4.916264 9.39866,-6.577279 12.28561,-2.171224 0.94472,1.441825 0.94776,1.65996 0.0358,2.571903 -0.91194,0.911942 -1.1303,0.908763 -2.57445,-0.03749 C 234.03838,54.750617 230,54.634611 230,55.861675 c 0,0.473921 0.89879,1.233967 1.99732,1.688991 3.53508,1.464278 6.12768,4.211145 6.12768,6.49229 0,2.691638 -2.00812,5.136588 -4.87218,5.932031 -1.27343,0.353676 -2.45594,0.619244 -2.62782,0.590157 -0.17188,-0.02906 -1.20887,-0.312219 -2.30443,-0.629194 z m 18.13285,-0.206994 c -3.69373,-1.636319 -5.13262,-5.438487 -3.93981,-10.410688 2.43869,-10.165604 14.43538,-11.424434 16.01658,-1.680643 0.56706,3.49435 -0.71735,4.237375 -7.32483,4.237375 -5.97736,0 -6.4736,0.321595 -4.60742,2.985931 1.22827,1.753613 4.27043,1.838438 6.77265,0.18885 1.88415,-1.242119 3.50441,-1.119675 3.50441,0.264844 0,0.96575 -4.09927,4.681787 -5.178,4.693906 -0.41773,0.005 -1.322,0.141475 -2.0095,0.30395 -0.6875,0.162482 -2.14284,-0.100106 -3.23408,-0.583525 z M 255,57 c 0,-2.205271 -5.36396,-2.764988 -7.1875,-0.75 -1.12047,1.238102 -1.09164,1.25 3.02813,1.25 C 253.12829,57.5 255,57.275 255,57 Z m 38.46143,12.712731 c -5.27312,-1.930331 -5.97099,-4.7418 -3.77299,-15.20001 1.64799,-7.841211 2.47163,-9.524547 4.64977,-9.50315 2.6641,0.02617 2.72911,0.712816 0.90218,9.529425 C 293.26273,64.082988 293.44372,65 297.30512,65 c 4.38093,0 5.12954,-1.338931 7.44047,-13.307863 0.79379,-4.111184 1.36768,-5.659471 2.27843,-6.146895 1.45872,-0.780676 4.22728,-0.208368 4.22277,0.872915 -0.01,2.279969 -3.35787,16.148437 -4.44291,18.402024 -2.21559,4.601682 -8.17126,6.785569 -13.34245,4.89255 z M 205.15625,69.54335 c -1.27994,-0.446475 -0.91873,-3.302506 2.06649,-16.338819 0.30195,-1.318633 0.59148,-1.442093 2.61265,-1.114102 1.26582,0.205414 2.62867,0.07375 3.07554,-0.297122 1.30061,-1.079407 5.03569,-0.898474 6.36943,0.308545 1.86498,1.687789 1.95115,3.791007 0.43218,10.548711 -1.36973,6.093768 -2.19073,7.558412 -3.87462,6.912243 -1.08891,-0.417856 -1.04398,-1.322118 0.37808,-7.61085 C 217.55079,56.049206 217.39814,55 215.20454,55 c -3.52112,0 -5.19633,2.199495 -6.42625,8.4375 -1.21393,6.156869 -1.60172,6.810581 -3.62204,6.10585 z m 56.25,0 c -1.27994,-0.446475 -0.91873,-3.302506 2.06649,-16.338819 0.30195,-1.318633 0.59148,-1.442093 2.61265,-1.114102 1.26582,0.205414 2.62867,0.07375 3.07554,-0.297122 1.30061,-1.079407 5.03569,-0.898474 6.36943,0.308545 1.86498,1.687789 1.95115,3.791007 0.43218,10.548711 -1.36973,6.093768 -2.19073,7.558412 -3.87462,6.912243 -1.08891,-0.417856 -1.04398,-1.322118 0.37808,-7.61085 C 273.80079,56.049206 273.64814,55 271.45454,55 c -3.52112,0 -5.19633,2.199495 -6.42625,8.4375 -1.21393,6.156869 -1.60172,6.810581 -3.62204,6.10585 z M 315,69.385875 c -0.81675,-0.51835 -0.63609,-2.061737 1.40256,-11.982513 1.28703,-6.26314 2.69328,-11.611783 3.125,-11.885874 1.19807,-0.760638 3.36608,-0.611839 4.10785,0.281939 0.47782,0.575731 0.062,3.675269 -1.48597,11.076897 C 320.96724,62.528931 320,67.352225 320,67.594756 c 0,0.839875 -1.96894,2.4052 -3.01339,2.395675 -0.57701,-0.005 -1.47099,-0.277312 -1.98661,-0.604556 z M 91.049069,68.309181 c -2.93145,-0.563594 -5.024325,-1.293956 -5.227881,-1.824412 -0.186694,-0.486519 0.265868,-2.291675 1.005699,-4.011457 1.170563,-2.721046 1.366738,-4.494303 1.511494,-13.662761 0.16505,-10.454 0.181981,-10.567659 2.17905,-14.624277 2.385344,-4.845317 7.301788,-9.632925 12.680259,-12.347972 3.43257,-1.732752 5.55231,-2.295773 5.55231,-1.474738 0,0.199961 -0.95046,1.535898 -2.11214,2.96875 -4.96988,6.130035 -6.905616,12.971842 -6.48402,22.917686 0.31183,7.356493 1.29496,10.410913 4.37544,13.59375 2.34393,2.421813 5.15041,2.775038 5.79951,0.729929 0.22716,-0.715725 0.22131,-5.707913 -0.013,-11.09375 -0.65453,-15.044667 1.20194,-22.605045 7.12989,-29.03611 2.49488,-2.706619 7.7718,-6.059672 8.45745,-5.374018 0.18964,0.189635 -0.33392,2.01513 -1.16347,4.056655 -2.30302,5.667771 -2.95888,12.17734 -2.48109,24.625423 0.51972,13.540506 -0.12226,16.570849 -4.3328,20.45199 -4.07166,3.753119 -8.53298,5.184775 -15.91796,5.108137 -3.338673,-0.03462 -8.270104,-0.485919 -10.958741,-1.002825 z M 126.25,62.794675 c 0,-0.181675 0.86291,-2.039746 1.91759,-4.129044 4.25273,-8.424616 5.19006,-17.117438 3.44211,-31.922302 -1.22954,-10.413967 -0.45064,-12.894517 4.90756,-15.629168 2.48678,-1.2691729 9.73274,-2.3259891 9.73274,-1.419511 0,0.2712931 -0.69766,1.927543 -1.55036,3.680555 -1.95279,4.014648 -2.79647,9.858245 -2.81226,19.478758 -0.0199,12.152414 -1.82657,18.672901 -6.6622,24.045365 -3.70384,4.115025 -8.97518,7.57751 -8.97518,5.895347 z"
       id="path3879"
       inkscape:connector-curvature="0" />
    <path
       style="fill:#fe7786"
       d="M 97.8125,89.607831 C 83.026781,87.301312 73.623056,78.273012 74.533356,67.258062 74.827275,63.701563 76.56875,58.75 77.525662,58.75 c 0.230532,0 0.402682,1.898437 0.382551,4.21875 -0.101875,11.745169 10.75385,19.161838 28.029287,19.1497 9.11228,-0.0064 16.02267,-1.571225 24.375,-5.519587 16.31508,-7.712557 24.84778,-20.917813 20.31884,-31.445589 -0.76633,-1.781405 -1.78439,-3.56346 -2.26234,-3.960123 -0.47795,-0.396664 -0.869,-1.115867 -0.869,-1.598229 0,-1.397685 3.10799,0.480442 5.88895,3.558639 3.29386,3.645909 4.32364,6.386758 4.35884,11.601481 0.044,6.513985 -2.86488,12.165514 -9.48642,18.430895 -7.50383,7.100213 -16.21185,11.655594 -28.06563,14.681825 -6.01183,1.534807 -17.81636,2.452488 -22.38324,1.740069 z m 87.5,-20.490106 c -9.11719,-4.052169 -7.44045,-19.417152 2.53466,-23.226681 5.36079,-2.047304 10.05139,-0.283263 12.62159,4.746726 5.09889,9.978751 -5.42172,22.806493 -15.15625,18.479955 z m 7.5741,-3.257281 c 6.18583,-2.935369 7.78797,-13.318048 2.54811,-16.512997 -5.40787,-3.297383 -12.2093,1.146548 -12.78562,8.353888 -0.3301,4.128059 0.5455,6.353453 3.11658,7.92104 2.48473,1.514944 4.30209,1.5757 7.12093,0.238069 z m 34.9259,3.582118 C 226.24934,68.760994 224.52929,66.860519 224.35736,65.625 223.93259,62.572556 225.02878,62.354551 227.5,65 c 1.20011,1.284725 2.34717,1.875 3.64361,1.875 1.75837,0 3.85639,-1.331688 3.85639,-2.447775 0,-0.771631 -1.97523,-2.299873 -4.82285,-3.731446 -4.32629,-2.174941 -5.02165,-4.697436 -2.10023,-7.618856 1.38836,-1.388355 2.4011,-1.824711 4.21875,-1.817709 4.06695,0.01567 7.70069,2.744424 5.9654,4.479716 -0.61445,0.614446 -1.14502,0.553774 -2.58238,-0.295297 -1.9656,-1.161109 -4.24173,-1.365844 -5.60252,-0.50394 -1.18779,0.752337 -0.43268,1.728024 2.49217,3.22017 3.75587,1.916102 4.93166,3.371922 4.93166,6.106193 0,3.17845 -2.08413,5.170138 -5.74233,5.487625 -1.48235,0.128644 -3.25767,-0.01138 -3.94517,-0.311118 z m 17.10124,-1.212568 C 239.4102,63.312581 244.24354,51.25 251.71742,51.25 c 1.62765,0 2.68863,0.531052 4.31976,2.162174 1.89557,1.895579 2.13832,2.49281 1.96874,4.84375 l -0.19342,2.681576 -6.09375,0.178882 c -4.21124,0.123622 -6.11663,0.413239 -6.1678,0.9375 -0.25798,2.642843 1.40452,4.821118 3.67957,4.821118 0.84523,0 2.62662,-0.612519 3.95864,-1.361156 1.33202,-0.748638 2.61131,-1.1717 2.84287,-0.940144 0.83388,0.833875 -0.95992,3.374656 -3.09924,4.389831 -3.256,1.545069 -5.72123,1.319569 -8.01905,-0.733537 z M 255,56.89699 c 0,-1.412166 -1.73257,-2.52199 -3.93712,-2.52199 -1.74244,0 -5.00106,2.314885 -4.46945,3.175047 0.19544,0.316224 2.16687,0.574953 4.38096,0.574953 3.58492,0 4.02561,-0.134434 4.02561,-1.22801 z m 37.69669,12.188222 c -2.277,-0.990331 -3.94669,-3.767762 -3.94669,-6.565081 0,-2.219271 2.26517,-13.412615 3.13444,-15.488881 0.42627,-1.018144 1.10993,-1.40625 2.47716,-1.40625 2.35984,0 2.36331,0.144594 0.24087,10.042564 l -1.64753,7.683217 1.40427,1.137113 c 2.93795,2.379006 7.4253,0.61955 8.68139,-3.403917 0.3471,-1.111813 1.08216,-4.412102 1.63346,-7.333977 1.3852,-7.341485 1.77697,-8.125 4.06254,-8.125 1.47057,0 1.8884,0.276066 1.8884,1.247699 0,2.556031 -3.11701,15.849795 -4.23021,18.041413 -2.15415,4.241044 -8.84965,6.279838 -13.6981,4.1711 z M 98.75,69.015825 C 97.890625,68.873606 95.21875,68.43835 92.8125,68.048587 90.40625,67.658831 87.815588,67.105806 87.055475,66.819644 l -1.382019,-0.520282 1.367481,-2.993431 C 88.226694,60.710307 88.4574,58.817448 88.777,49.0625 c 0.4373,-13.347367 1.065694,-15.222116 7.129887,-21.271189 3.551988,-3.543132 10.454533,-7.888226 11.256743,-7.08602 0.19951,0.199517 -0.74281,2.020885 -2.09405,4.047484 -4.10589,6.15802 -5.334055,10.584574 -5.357561,19.309725 -0.02481,9.217735 1.045351,12.907336 4.702031,16.210928 2.99995,2.710272 5.34187,2.949903 6.2214,0.63659 0.36156,-0.950978 0.44409,-5.660672 0.20534,-11.71875 -0.57512,-14.593812 1.00765,-21.808339 6.04248,-27.542699 2.14046,-2.43785 6.92955,-6.023569 8.04508,-6.023569 0.35235,0 -0.10127,1.898437 -1.00806,4.21875 -1.59817,4.08949 -1.6598,4.745364 -2.01117,21.40625 -0.40637,19.269061 -0.42312,19.345656 -5.10568,23.35375 -1.43238,1.226069 -3.90069,2.652312 -5.48513,3.169444 -3.0471,0.9945 -9.94602,1.6766 -12.56831,1.242631 z m 105.99747,-0.168794 c -0.45582,-0.737525 2.68109,-15.801944 3.4658,-16.64388 0.36665,-0.39339 1.00875,-0.334052 1.81175,0.167428 1.0118,0.63188 1.58603,0.599813 3.07836,-0.1719 2.61978,-1.35474 4.22273,-1.179387 6.06566,0.663548 1.38314,1.383136 1.56039,1.982605 1.24739,4.21875 -0.80317,5.737973 -2.48396,11.782135 -3.37111,12.122567 -1.66779,0.639987 -1.8797,-1.102644 -0.72578,-5.968381 1.52414,-6.426886 1.50224,-8.048798 -0.11562,-8.562286 -1.94568,-0.617538 -4.88404,0.88061 -6.02402,3.071407 -0.55613,1.068768 -1.47491,4.052201 -2.04172,6.629847 -0.71054,3.2313 -1.33971,4.746169 -2.0261,4.878356 -0.54754,0.10545 -1.16162,-0.07701 -1.36461,-0.405456 z m 56.25,0 c -0.45582,-0.737525 2.68109,-15.801944 3.4658,-16.64388 0.36665,-0.39339 1.00875,-0.334052 1.81175,0.167428 1.0118,0.63188 1.58603,0.599813 3.07836,-0.1719 2.61978,-1.35474 4.22273,-1.179387 6.06566,0.663548 1.38314,1.383136 1.56039,1.982605 1.24739,4.21875 -0.80317,5.737973 -2.48396,11.782135 -3.37111,12.122567 -1.66779,0.639987 -1.8797,-1.102644 -0.72578,-5.968381 1.52414,-6.426886 1.50224,-8.048798 -0.11562,-8.562286 -1.94568,-0.617538 -4.88404,0.88061 -6.02402,3.071407 -0.55613,1.068768 -1.47491,4.052201 -2.04172,6.629847 -0.71054,3.2313 -1.33971,4.746169 -2.0261,4.878356 -0.54754,0.10545 -1.16162,-0.07701 -1.36461,-0.405456 z m 53.77862,0.04631 c -0.41844,-0.677063 3.98839,-21.535518 4.75093,-22.4871 0.81976,-1.023007 3.55073,-1.00661 3.9461,0.02369 0.29967,0.780954 -3.79077,21.317119 -4.46249,22.403982 -0.41429,0.670331 -3.82737,0.718225 -4.23454,0.05944 z M 129.04759,57.96875 c 2.42534,-5.25513 4.07741,-12.537071 4.07741,-17.972287 0,-2.093429 -0.44637,-7.656496 -0.99193,-12.362372 -1.1584,-9.99199 -0.77083,-12.327669 2.45369,-14.787122 2.4343,-1.856737 9.62812,-3.8820853 10.54216,-2.9680434 0.39994,0.3999284 0.28392,1.1235974 -0.33432,2.0855104 -1.92814,2.999951 -2.82059,8.386908 -3.22921,19.492235 -0.59592,16.195335 -2.2397,21.186143 -9.05658,27.497374 -5.27085,4.879867 -6.06391,4.654111 -3.46122,-0.985295 z"
       id="path3877"
       inkscape:connector-curvature="0" />
    <path
       style="fill:#f45d60"
       d="M 93.613525,88.404412 C 85.584406,86.457887 79.109456,81.803012 76.204975,75.889319 74.318338,72.048012 74.204763,65.981113 75.948475,62.1875 l 1.149113,-2.5 0.406593,4.0625 c 0.6859,6.853206 4.3481,11.893706 11.083988,15.255538 5.58525,2.787556 10.73665,3.661356 19.536831,3.313912 13.61214,-0.537425 25.72194,-5.317469 34.69069,-13.6933 6.23497,-5.822775 9.13743,-11.417103 9.13743,-17.611873 0,-3.563678 -0.30103,-4.745683 -1.95505,-7.676448 -1.07528,-1.905295 -1.84616,-3.573073 -1.71306,-3.706173 0.48364,-0.483637 4.36565,2.828018 6.05138,5.162295 4.90027,6.785528 4.12581,15.36547 -2.15735,23.900543 -6.66506,9.053837 -20.90911,16.856594 -35.99672,19.718668 -6.1938,1.174944 -17.704639,1.170482 -22.568795,-0.0088 z M 183.96641,68.091187 c -6.32137,-4.049712 -5.38517,-16.224191 1.59241,-20.70767 2.55727,-1.643191 3.31256,-1.824013 6.76474,-1.61953 3.06676,0.181654 4.23225,0.553629 5.52813,1.764348 2.51993,2.354329 3.39958,4.572422 3.38458,8.534377 -0.0219,5.791972 -3.14495,10.932857 -7.68321,12.647526 -2.86249,1.081525 -7.38834,0.789268 -9.58665,-0.619051 z m 10.208,-2.570043 c 3.87318,-2.326132 5.86393,-9.96684 3.69141,-14.168033 -2.56744,-4.964883 -10.25292,-4.401433 -13.75008,1.008068 -5.84605,9.042823 1.31468,18.411365 10.05867,13.159965 z m 33.01309,3.13215 c -1.70665,-0.933469 -2.8125,-2.416875 -2.8125,-3.77275 0,-1.621325 1.30591,-1.393457 2.80766,0.489919 2.31093,2.898181 8.14849,1.946968 7.69125,-1.253269 -0.11563,-0.809313 -1.28052,-1.897963 -3.06799,-2.867194 -1.58488,-0.859375 -3.34269,-1.9485 -3.90625,-2.420278 -1.40625,-1.177203 -1.28715,-4.192241 0.22533,-5.704722 2.38184,-2.381838 10,-1.164502 10,1.59794 0,1.139675 -0.54654,1.132202 -3.36644,-0.04603 -4.82752,-2.017067 -7.55269,0.605152 -3.3341,3.208144 1.45092,0.89526 3.26639,2.022172 4.03436,2.50425 2.83584,1.780119 2.32087,6.838074 -0.84297,8.279618 -1.95088,0.888881 -5.78941,0.8808 -7.42835,-0.01563 z m 17.65116,-0.860082 c -2.76706,-2.767068 -2.73789,-7.789653 0.0716,-12.335575 1.53854,-2.489406 3.63033,-3.582637 6.85504,-3.582637 3.12872,0 4.93322,1.398673 5.75846,4.463391 1.06592,3.958544 0.69699,4.285413 -4.84794,4.295143 -2.67485,0.0047 -5.49617,0.178122 -6.26961,0.385395 -1.74869,0.468632 -1.87012,2.644733 -0.25862,4.634852 1.35602,1.674619 4.40441,1.8223 6.69087,0.324156 1.79059,-1.173243 3.61596,-1.2834 3.25915,-0.196687 -0.14108,0.429687 -1.19049,1.414062 -2.33201,2.1875 -2.93662,1.9897 -6.83846,1.912975 -8.92698,-0.175538 z m 10.06658,-9.596425 c 1.34527,-0.852531 0.57075,-2.726651 -1.46774,-3.551531 -1.42827,-0.577957 -2.38189,-0.588855 -4.00256,-0.04574 -2.63818,0.8841 -3.92653,2.662527 -2.55994,3.533706 1.16391,0.741968 6.88825,0.787281 8.03024,0.06357 z M 292.5,68.569606 c -0.85938,-0.432831 -2.09556,-1.77585 -2.74709,-2.984487 -1.1817,-2.192175 -1.18019,-2.218 0.625,-10.610071 l 1.80959,-8.412548 2.05351,-0.197509 c 1.86307,-0.179192 2.02285,-0.06326 1.72283,1.25 -1.78949,7.833057 -2.83884,13.304433 -2.83884,14.801864 0,2.372045 1.32345,3.378601 4.4423,3.378601 4.21062,0 5.28911,-1.646625 7.29289,-11.134607 l 1.7103,-8.098349 2.10643,-0.201754 c 2.01936,-0.193415 2.08846,-0.130152 1.67167,1.530456 -0.23911,0.952715 -1.00982,4.559129 -1.71268,8.014254 -1.51576,7.451182 -2.97209,10.583081 -5.69237,12.241725 -2.33955,1.4265 -7.99573,1.655288 -10.44354,0.422425 z M 96.5625,68.494681 c -0.34375,-0.129462 -2.676838,-0.594375 -5.184631,-1.033137 -2.5078,-0.438769 -4.685194,-1.000919 -4.838657,-1.249225 -0.153462,-0.248306 0.33205,-1.817969 1.078919,-3.488144 1.19385,-2.669726 1.374957,-4.295352 1.498756,-13.452841 0.13285,-9.826732 0.236782,-10.629991 1.83655,-14.194752 1.116301,-2.487452 2.898219,-4.922934 5.214894,-7.127593 3.633325,-3.457643 8.980359,-6.968268 10.048609,-6.597471 0.3343,0.11604 -0.3899,1.697145 -1.60936,3.513565 -3.56896,5.316101 -4.793786,9.494023 -5.095824,17.381974 -0.151637,3.960302 0.04506,8.430784 0.458681,10.423049 0.869373,4.187758 3.636123,8.233676 6.595573,9.644937 2.03366,0.969788 2.22918,0.962795 3.42857,-0.122639 1.20901,-1.09414 1.26453,-1.77191 1.12238,-13.702988 -0.12365,-10.377582 0.0414,-13.252983 0.9524,-16.599007 1.80548,-6.630981 5.87871,-12.349016 10.49863,-14.738066 2.29629,-1.18746 2.80262,-0.887655 1.76747,1.046548 -2.27225,4.245729 -2.66553,7.62451 -2.71944,23.363609 -0.0517,15.080588 -0.10467,15.728874 -1.52158,18.606246 -1.44399,2.932392 -4.34853,5.41351 -8.53194,7.288154 -1.71699,0.769406 -13.540556,1.587425 -15,1.037781 z M 205,67.805881 c 0,-0.7786 1.34316,-7.379123 2.82848,-13.899631 0.34291,-1.505338 1.88711,-1.917276 2.3429,-0.625 0.20746,0.588195 0.7461,0.510972 2.17977,-0.3125 3.97789,-2.284834 7.64624,-0.915081 7.65175,2.857143 0.008,5.666045 -2.72324,14.162101 -4.10796,12.777376 -0.16564,-0.165632 0.29681,-3.020107 1.02765,-6.343268 1.50409,-6.839098 1.21297,-7.885001 -2.19468,-7.885001 -3.73624,0 -5.27269,2.593857 -7.49682,12.65625 C 206.83563,68.820369 205,69.4577 205,67.805881 Z m 56.25,0 c 0,-0.7786 1.34316,-7.379123 2.82848,-13.899631 0.34291,-1.505338 1.88711,-1.917276 2.3429,-0.625 0.20746,0.588195 0.7461,0.510972 2.17977,-0.3125 3.97789,-2.284834 7.64624,-0.915081 7.65175,2.857143 0.008,5.666045 -2.72324,14.162101 -4.10796,12.777376 -0.16564,-0.165632 0.29681,-3.020107 1.02765,-6.343268 1.50408,-6.839098 1.21297,-7.885001 -2.19468,-7.885001 -3.73624,0 -5.27269,2.593857 -7.49682,12.65625 -0.39546,1.789119 -2.23109,2.42645 -2.23109,0.774631 z M 315,68.177419 c 0,-0.358481 0.98437,-5.32365 2.1875,-11.033715 1.20312,-5.710062 2.1875,-10.49708 2.1875,-10.637818 0,-0.140737 0.84375,-0.255886 1.875,-0.255886 2.39484,0 2.39196,0.172779 -0.20851,12.5 l -2.04362,9.6875 -1.99893,0.19585 C 315.89952,68.741069 315,68.535894 315,68.177419 Z M 129.38766,57.995793 c 3.87763,-8.199267 4.26763,-13.319899 2.7313,-35.861344 l -0.38699,-5.67805 2.00534,-2.283956 c 2.88129,-3.281613 12.14387,-5.8927393 10.9212,-3.078693 -2.56178,5.89609 -2.9628,8.236437 -3.45386,20.15625 -0.62904,15.269341 -1.49436,18.841808 -6.02794,24.88648 -1.52428,2.032341 -6.122,5.73852 -7.11895,5.73852 -0.27757,0 0.32088,-1.745643 1.3299,-3.879207 z"
       id="path3875"
       inkscape:connector-curvature="0" />
    <path
       style="fill:#fe3248"
       d="M 97.8125,88.716206 C 81.506456,86.196544 72.2737,75.884081 75.740019,64.0625 l 0.73305,-2.5 0.439531,2.8125 c 1.71425,10.96925 11.161163,17.652413 26.2124,18.5438 10.28266,0.608975 23.11811,-2.561319 32.27096,-7.970763 5.48615,-3.242381 12.98702,-10.878468 15.0382,-15.309286 2.46301,-5.32045 2.71135,-11.367641 0.63326,-15.420001 -1.76937,-3.450329 -1.1271,-3.82939 1.58847,-0.9375 4.3182,4.598576 5.49384,12.01485 2.97276,18.753026 -3.56056,9.516461 -16.06824,19.124768 -30.96876,23.789974 -9.03866,2.829912 -19.76886,3.98575 -26.84739,2.891956 z m 87.43516,-20.234562 c -5.90277,-2.569532 -7.01372,-12.66283 -2.05581,-18.677641 5.21786,-6.330174 15.32896,-4.921511 17.3671,2.419561 0.90201,3.248886 0.86838,4.452414 -0.2275,8.14265 -2.01456,6.78378 -9.22773,10.664623 -15.08379,8.11543 z m 7.83393,-1.896694 c 4.10744,-2.124044 6.74724,-7.553483 6.08242,-12.510106 -0.24802,-1.849073 -0.9426,-3.0667 -2.63317,-4.615988 -2.08101,-1.907106 -2.5752,-2.077597 -5.27122,-1.818544 -1.64831,0.158381 -3.82273,0.889545 -4.87613,1.639632 -3.94757,2.810922 -5.81145,10.508965 -3.49424,14.431681 2.08078,3.522481 6.51802,4.773381 10.19234,2.873325 z m 33.94966,1.5469 C 225.60641,67.263112 225,66.424156 225,65.321687 225,64.457256 225.28125,63.75 225.625,63.75 c 0.34375,0 0.625,0.28125 0.625,0.625 0,0.34375 0.5625,1.1875 1.25,1.875 1.59457,1.594569 5.01429,1.632381 6.93549,0.07669 2.01934,-1.635163 1.12472,-3.318013 -3.11823,-5.865603 -1.85363,-1.112975 -3.68175,-2.518205 -4.0625,-3.122734 -1.02287,-1.624074 0.71725,-4.345572 3.24143,-5.069497 2.47354,-0.709403 6.68989,0.386589 7.26635,1.888806 0.58935,1.535851 -0.0442,1.754143 -1.78355,0.614495 -3.0594,-2.004599 -7.98656,-0.77286 -7.01686,1.754142 0.19358,0.504472 1.56098,1.525198 3.03867,2.268279 3.78784,1.904785 4.8742,3.019445 4.8742,5.001168 0,2.577419 -0.58625,3.652112 -2.5447,4.664869 -2.4239,1.253443 -4.88591,1.14255 -7.29905,-0.328769 z m 19.40773,0.610781 c -3.1928,-1.285787 -4.22204,-6.994683 -2.10262,-11.662658 1.4943,-3.291191 3.89585,-4.892473 7.33754,-4.892473 3.60104,0 5.37954,1.769539 5.45674,5.429249 l 0.0569,2.695751 -5.72356,0.17894 c -6.6868,0.209055 -7.72553,0.837814 -6.45428,3.906879 1.37713,3.324681 4.42423,4.013694 8.02958,1.815662 2.28574,-1.393518 3.25165,-1.206906 1.93909,0.374625 -1.9932,2.401663 -5.64012,3.321582 -8.53935,2.154025 z m 9.44932,-11.027292 c 0.60314,-1.571748 -1.9815,-3.965795 -4.27849,-3.963003 -3.41219,0.0041 -7.10602,3.043121 -5.56814,4.580997 0.22916,0.229167 2.44907,0.416667 4.93313,0.416667 3.62658,0 4.59469,-0.203861 4.9135,-1.034661 z m 37.47314,10.796186 c -2.50252,-1.133531 -3.98644,-3.271488 -3.98644,-5.743419 0,-1.074568 0.70312,-5.132716 1.5625,-9.018106 0.85937,-3.88539 1.5625,-7.162368 1.5625,-7.282173 0,-0.119805 0.70312,-0.217827 1.5625,-0.217827 0.85937,0 1.5625,0.286027 1.5625,0.635615 0,0.349588 -0.70313,3.887714 -1.5625,7.862501 -0.85938,3.974788 -1.5625,7.626261 -1.5625,8.114384 0,1.771181 2.40866,3.3875 5.04807,3.3875 4.2179,0 5.69218,-2.055588 7.39622,-10.3125 0.78036,-3.78125 1.5645,-7.507813 1.74253,-8.28125 0.22468,-0.976105 0.7809,-1.40625 1.81844,-1.40625 1.86003,0 1.85903,0.08897 -0.1028,9.168749 -1.71311,7.928588 -2.75369,10.296613 -5.38715,12.259439 -2.12516,1.583968 -7.05686,2.009681 -9.65387,0.833337 z m -87.86107,-0.09449 c -0.32399,-0.324 2.16712,-13.196904 2.94758,-15.231724 0.27004,-0.704055 0.49711,-0.657461 1.15048,0.236072 0.77338,1.057662 0.938,1.04191 3.29641,-0.315415 2.99162,-1.721761 5.54693,-1.341277 6.60625,0.983666 0.56415,1.23819 0.43044,2.790752 -0.65604,7.61754 -0.75054,3.334311 -1.64146,6.339236 -1.97983,6.677604 -0.87903,0.879025 -0.76868,-1.105862 0.30978,-5.572281 1.67005,-6.916491 1.11061,-9.0625 -2.3625,-9.0625 -3.20781,0 -5.73787,3.2822 -7.00199,9.083537 -1.07502,4.933594 -1.62669,6.266944 -2.31014,5.5835 z m 56.25,0 c -0.324,-0.324 2.16712,-13.196904 2.94758,-15.231724 0.27004,-0.704055 0.49711,-0.657461 1.15048,0.236072 0.77338,1.057662 0.938,1.04191 3.29641,-0.315415 2.99162,-1.721761 5.54693,-1.341277 6.60625,0.983666 0.56415,1.23819 0.43044,2.790752 -0.65604,7.61754 -0.75054,3.334311 -1.64146,6.339236 -1.97983,6.677604 -0.87903,0.879025 -0.76868,-1.105862 0.30978,-5.572281 1.67005,-6.916491 1.11061,-9.0625 -2.3625,-9.0625 -3.20781,0 -5.73787,3.2822 -7.00199,9.083537 -1.07502,4.933594 -1.62669,6.266944 -2.31014,5.5835 z m 53.89458,-1.073288 c 0.0109,-0.773438 0.93963,-5.765625 2.06368,-11.09375 1.99725,-9.467153 2.08209,-9.691998 3.73006,-9.885264 0.92747,-0.10877 1.68631,0.03204 1.68631,0.312917 0,1.009641 -4.37802,20.94661 -4.72193,21.503053 -0.19351,0.313113 -0.89775,0.569294 -1.56496,0.569294 -0.84729,0 -1.2071,-0.424069 -1.19316,-1.40625 z M 91.63935,67.153537 c -2.363981,-0.469699 -4.406737,-0.962593 -4.539456,-1.095306 -0.132713,-0.132718 0.240812,-1.339175 0.830062,-2.681018 0.822194,-1.87229 1.159619,-5.070428 1.450819,-13.75083 0.354981,-10.581821 0.4869,-11.530742 2.046,-14.717432 2.00075,-4.089373 6.930481,-9.156365 11.134435,-11.444442 1.68508,-0.917138 3.06379,-1.54342 3.06379,-1.391738 0,0.151683 -0.9958,1.927048 -2.21288,3.945258 -3.530601,5.854551 -4.350995,9.383632 -4.340014,18.669471 0.0085,7.182178 0.180838,8.506283 1.485174,11.410799 2.78028,6.191155 8.11946,9.002276 10.42243,5.487498 0.87143,-1.329977 0.95059,-2.922926 0.58234,-11.71875 -0.59716,-14.263374 0.55621,-20.296775 5.15234,-26.952686 1.4464,-2.094619 7.03561,-6.673524 7.03561,-5.76386 0,0.184553 -0.62597,2.518378 -1.39104,5.186275 -1.2765,4.451293 -1.37822,5.982963 -1.23516,18.600724 0.18386,16.217102 -0.23952,18.803224 -3.63406,22.197762 -3.55332,3.553313 -8.10302,5.0024 -15.48193,4.931007 -3.338672,-0.03231 -8.004479,-0.443031 -10.36846,-0.912732 z m 38.77887,-10.418544 c 3.42352,-8.425328 4.03636,-15.980061 2.41306,-29.746694 -0.49932,-4.23456 -0.74254,-8.525724 -0.54051,-9.53592 0.67654,-3.382667 6.07767,-6.81285 10.74485,-6.823893 1.16785,-0.0028 1.37464,0.223168 0.99789,1.090264 -2.46876,5.682008 -2.8845,8.196465 -3.37636,20.420559 -0.55622,13.823765 -1.28214,17.097733 -4.98393,22.47811 -1.74116,2.530685 -5.4855,6.007581 -6.46968,6.007581 -0.20128,0 0.34532,-1.750503 1.21468,-3.890007 z"
       id="path3873"
       inkscape:connector-curvature="0" />
    <path
       style="fill:#e9433b"
       d="M 97.8125,88.716206 C 81.506456,86.196544 72.2737,75.884081 75.740019,64.0625 l 0.73305,-2.5 0.439531,2.8125 c 1.71425,10.96925 11.161163,17.652413 26.2124,18.5438 10.28266,0.608975 23.11811,-2.561319 32.27096,-7.970763 5.48615,-3.242381 12.98702,-10.878468 15.0382,-15.309286 2.46301,-5.32045 2.71135,-11.367641 0.63326,-15.420001 -1.76937,-3.450329 -1.1271,-3.82939 1.58847,-0.9375 4.3182,4.598576 5.49384,12.01485 2.97276,18.753026 -3.56056,9.516461 -16.06824,19.124768 -30.96876,23.789974 -9.03866,2.829912 -19.76886,3.98575 -26.84739,2.891956 z m 90.78125,-20.380131 c 0.42969,-0.173381 1.13281,-0.173381 1.5625,0 0.42969,0.173381 0.0781,0.315244 -0.78125,0.315244 -0.85938,0 -1.21094,-0.141863 -0.78125,-0.315244 z m 41.91406,-0.013 c 0.45117,-0.180544 0.99024,-0.158344 1.19792,0.04931 0.20768,0.207687 -0.16146,0.3554 -0.82031,0.328262 -0.72809,-0.03 -0.87619,-0.178087 -0.37761,-0.3776 z m 18.125,0 c 0.45117,-0.180544 0.99024,-0.158344 1.19792,0.04931 0.20768,0.207687 -0.16146,0.3554 -0.82031,0.328262 -0.72809,-0.03 -0.87619,-0.178087 -0.37761,-0.3776 z m 45.32061,-0.456019 c -1.09124,-0.490612 -2.48313,-1.653681 -3.09308,-2.584587 -1.06151,-1.620063 -1.06165,-1.9234 -0.003,-7.081258 2.23925,-10.915748 2.35773,-11.326211 3.26899,-11.326211 0.60994,0 0.79405,0.450678 0.57446,1.40625 -3.42415,14.900288 -3.5266,16.156913 -1.43659,17.620812 2.02315,1.417069 6.82693,1.260382 8.7939,-0.286837 1.85276,-1.457381 2.35024,-2.863225 4.25402,-12.021475 0.97254,-4.678458 1.66247,-6.71875 2.27195,-6.71875 0.53398,0 0.7555,0.426506 0.56809,1.09375 -0.16896,0.601562 -0.92314,4.095567 -1.67596,7.764454 -1.43289,6.983302 -2.70311,9.818446 -5.10248,11.388746 -2.17668,1.424563 -6.13065,1.774444 -8.42017,0.745087 z m -202.31407,-0.7135 c -2.363981,-0.4697 -4.406738,-0.962593 -4.539456,-1.095306 -0.132713,-0.132719 0.240812,-1.339175 0.830062,-2.681019 0.822194,-1.872289 1.159619,-5.070427 1.450819,-13.750829 0.354981,-10.581821 0.4869,-11.530742 2.046,-14.717432 2.00075,-4.089374 6.930481,-9.156365 11.134435,-11.444442 1.68508,-0.917157 3.06379,-1.543439 3.06379,-1.391757 0,0.151683 -0.9958,1.927048 -2.21288,3.945258 -3.530601,5.854551 -4.350995,9.383632 -4.340014,18.669471 0.0085,7.182178 0.180838,8.506283 1.485174,11.410799 2.78028,6.191155 8.11946,9.002276 10.42243,5.487498 0.87143,-1.329977 0.95059,-2.922926 0.58234,-11.71875 -0.59716,-14.263374 0.55621,-20.296775 5.15234,-26.952686 1.4464,-2.094619 7.03561,-6.673524 7.03561,-5.76386 0,0.184553 -0.62597,2.518378 -1.39104,5.186275 -1.2765,4.451293 -1.37822,5.982963 -1.23516,18.600724 0.18386,16.217102 -0.23952,18.803224 -3.63406,22.197762 -3.55332,3.553313 -8.10302,5.0024 -15.48193,4.931007 -3.338672,-0.03231 -8.004479,-0.443031 -10.36846,-0.912732 z M 316.275,67.34375 c 0.0484,-1.513181 4.14584,-19.847929 4.51897,-20.221052 1.38815,-1.388155 1.20456,1.3596 -0.70381,10.533552 -1.49824,7.202413 -2.43705,10.46875 -3.00893,10.46875 -0.45718,0 -0.81998,-0.351562 -0.80623,-0.78125 z M 180.78261,59.0625 c 0.007,-1.375 0.13493,-1.863908 0.28443,-1.086463 0.14949,0.777446 0.14382,1.902445 -0.0126,2.5 -0.15643,0.597555 -0.27875,-0.03854 -0.27181,-1.413537 z m -50.36439,-2.327507 c 3.42352,-8.425328 4.03636,-15.980061 2.41306,-29.746694 -0.49932,-4.23456 -0.74254,-8.525724 -0.54051,-9.53592 0.67654,-3.382667 6.07767,-6.81285 10.74485,-6.823893 1.16785,-0.0028 1.37464,0.223168 0.99789,1.090264 -2.46876,5.682008 -2.8845,8.196465 -3.37636,20.420559 -0.55622,13.823765 -1.28214,17.097733 -4.98393,22.47811 -1.74116,2.530685 -5.4855,6.007581 -6.46968,6.007581 -0.20128,0 0.34532,-1.750503 1.21468,-3.890007 z M 244.375,59.53125 c 0,-0.257813 2.8125,-0.46875 6.25,-0.46875 3.4375,0 6.25,0.210937 6.25,0.46875 0,0.257812 -2.8125,0.46875 -6.25,0.46875 -3.4375,0 -6.25,-0.210938 -6.25,-0.46875 z m -36.25,-2.619364 c 0,-0.323464 0.27803,-0.759946 0.61784,-0.969962 0.35429,-0.218962 0.45907,0.03191 0.24563,0.588115 -0.41549,1.08276 -0.86347,1.280867 -0.86347,0.381847 z m 56.25,0 c 0,-0.323464 0.27803,-0.759946 0.61784,-0.969962 0.35429,-0.218962 0.45907,0.03191 0.24563,0.588115 -0.41549,1.08276 -0.86347,1.280867 -0.86347,0.381847 z m -32.65625,-4.200812 c 0.42969,-0.173382 1.13281,-0.173382 1.5625,0 0.42969,0.173383 0.0781,0.315242 -0.78125,0.315242 -0.85938,0 -1.21094,-0.141859 -0.78125,-0.315242 z m 19.41406,-0.01302 c 0.45117,-0.180545 0.99024,-0.15834 1.19792,0.04934 0.20768,0.207683 -0.16146,0.355401 -0.82031,0.328263 -0.72809,-0.02999 -0.87619,-0.178088 -0.37761,-0.377605 z m -60.03906,-6.236982 c 0.42969,-0.173382 1.13281,-0.173382 1.5625,0 0.42969,0.173384 0.0781,0.315242 -0.78125,0.315242 -0.85938,0 -1.21094,-0.141858 -0.78125,-0.315242 z"
       id="path3871"
       inkscape:connector-curvature="0" />
    <path
       style="fill:#ea312f"
       d="M 99.375,88.351637 C 94.911,87.699856 90.598075,86.568094 87.701131,85.288263 80.729081,82.208112 75.625,75.298287 75.625,68.939787 c 0,-3.996993 0.732719,-4.279518 1.701806,-0.6562 2.826694,10.568694 17.288557,16.879969 34.318594,14.976907 25.07979,-2.802594 45.29181,-20.916585 40.93716,-36.687828 -0.90277,-3.269569 -0.49674,-3.424793 1.40276,-0.536264 2.22066,3.376906 3.01959,7.48296 2.24782,11.552507 -1.02818,5.421591 -2.98937,8.650941 -8.72308,14.363697 -4.7344,4.717094 -6.30187,5.828531 -12.55372,8.901375 -12.07683,5.935875 -26.07527,8.885613 -35.58134,7.497657 z m 89.21875,-20.015562 c 0.42969,-0.173381 1.13281,-0.173381 1.5625,0 0.42969,0.173381 0.0781,0.315244 -0.78125,0.315244 -0.85938,0 -1.21094,-0.141863 -0.78125,-0.315244 z m 41.91406,-0.013 c 0.45117,-0.180544 0.99024,-0.158344 1.19792,0.04931 0.20768,0.207687 -0.16146,0.3554 -0.82031,0.328262 -0.72809,-0.03 -0.87619,-0.178088 -0.37761,-0.3776 z m 18.125,0 c 0.45117,-0.180544 0.99024,-0.158344 1.19792,0.04931 0.20768,0.207687 -0.16146,0.3554 -0.82031,0.328262 -0.72809,-0.03 -0.87619,-0.178088 -0.37761,-0.3776 z m 45.32061,-0.456019 c -1.09124,-0.490612 -2.48313,-1.653681 -3.09308,-2.584587 -1.06151,-1.620063 -1.06165,-1.9234 -0.003,-7.081258 2.23925,-10.915748 2.35773,-11.326211 3.26899,-11.326211 0.60994,0 0.79405,0.450678 0.57446,1.40625 -3.42415,14.900288 -3.5266,16.156913 -1.43659,17.620812 2.02315,1.417069 6.82693,1.260382 8.7939,-0.286837 1.85276,-1.457381 2.35024,-2.863225 4.25402,-12.021475 0.97254,-4.678458 1.66247,-6.71875 2.27195,-6.71875 0.53398,0 0.7555,0.426506 0.56809,1.09375 -0.16896,0.601562 -0.92314,4.095567 -1.67596,7.764454 -1.43289,6.983302 -2.70311,9.818446 -5.10248,11.388746 -2.17668,1.424563 -6.13065,1.774444 -8.42017,0.745087 z M 316.275,67.34375 c 0.0484,-1.513181 4.14584,-19.847929 4.51897,-20.221052 1.38815,-1.388155 1.20456,1.3596 -0.70381,10.533552 -1.49824,7.202413 -2.43705,10.46875 -3.00893,10.46875 -0.45718,0 -0.81998,-0.351562 -0.80623,-0.78125 z M 92.8125,66.8149 C 86.952506,65.503344 87.439144,65.910681 88.586687,63.277719 89.342956,61.542497 89.707594,58.029131 89.997162,49.6875 90.436981,37.01769 91.038669,34.812922 95.362581,30.026864 97.520531,27.638272 102.50117,23.75 103.40286,23.75 c 0.20082,0 -0.48671,1.687496 -1.52785,3.749991 -2.940379,5.824841 -3.936716,11.076335 -3.557354,18.750009 0.178438,3.609375 0.677832,7.546875 1.109763,8.75 1.990531,5.544528 5.917591,9.075788 9.620601,8.65095 3.17849,-0.364656 3.52826,-1.949184 3.08229,-13.96345 -0.56586,-15.243888 0.92433,-21.772021 6.33777,-27.76404 4.12121,-4.5617 4.60741,-4.444757 3.22591,0.775921 -0.99571,3.762835 -1.2033,6.962635 -1.28456,19.800619 -0.0899,14.206486 -0.18936,15.469841 -1.37661,17.490842 -1.61038,2.741258 -5.85177,6.011208 -8.89236,6.855652 -2.78768,0.774212 -13.817504,0.7541 -17.32796,-0.03163 z m 87.97011,-7.7524 c 0.007,-1.375 0.13493,-1.863908 0.28443,-1.086463 0.14949,0.777446 0.14382,1.902445 -0.0126,2.5 -0.15642,0.597555 -0.27874,-0.03854 -0.2718,-1.413537 z m 63.59239,0.46875 c 0,-0.257813 2.8125,-0.46875 6.25,-0.46875 3.4375,0 6.25,0.210937 6.25,0.46875 0,0.257812 -2.8125,0.46875 -6.25,0.46875 -3.4375,0 -6.25,-0.210938 -6.25,-0.46875 z M 132.05464,53.941019 c 2.44338,-7.305123 2.82324,-14.484555 1.40266,-26.510888 -1.22721,-10.38927 -0.89966,-11.964809 2.97929,-14.330952 1.9508,-1.189974 5.8632,-2.25772 6.3798,-1.741127 0.14195,0.141955 -0.29485,2.034739 -0.97068,4.206184 -0.93158,2.99318 -1.36332,6.992584 -1.78504,16.535674 -0.7036,15.922086 -1.74907,19.44279 -7.40826,24.947791 l -2.42631,2.360201 1.82854,-5.466883 z m 76.07036,2.970867 c 0,-0.323464 0.27803,-0.759946 0.61784,-0.969962 0.35429,-0.218962 0.45907,0.03191 0.24563,0.588115 -0.41549,1.08276 -0.86347,1.280867 -0.86347,0.381847 z m 56.25,0 c 0,-0.323464 0.27803,-0.759946 0.61784,-0.969962 0.35429,-0.218962 0.45907,0.03191 0.24563,0.588115 -0.41549,1.08276 -0.86347,1.280867 -0.86347,0.381847 z m -32.65625,-4.200812 c 0.42969,-0.173382 1.13281,-0.173382 1.5625,0 0.42969,0.173383 0.0781,0.315242 -0.78125,0.315242 -0.85938,0 -1.21094,-0.141859 -0.78125,-0.315242 z m 19.41406,-0.01302 c 0.45117,-0.180545 0.99024,-0.15834 1.19792,0.04934 0.20768,0.207683 -0.16146,0.355401 -0.82031,0.328263 -0.72809,-0.02999 -0.87619,-0.178088 -0.37761,-0.377605 z m -60.03906,-6.236982 c 0.42969,-0.173382 1.13281,-0.173382 1.5625,0 0.42969,0.173384 0.0781,0.315242 -0.78125,0.315242 -0.85938,0 -1.21094,-0.141858 -0.78125,-0.315242 z"
       id="path3869"
       inkscape:connector-curvature="0" />
  </g>
</svg>
