<?xml version="1.0" encoding="UTF-8" standalone="no"?>
<!-- Created with Inkscape (http://www.inkscape.org/) -->

<svg
   xmlns:dc="http://purl.org/dc/elements/1.1/"
   xmlns:cc="http://creativecommons.org/ns#"
   xmlns:rdf="http://www.w3.org/1999/02/22-rdf-syntax-ns#"
   xmlns:svg="http://www.w3.org/2000/svg"
   xmlns="http://www.w3.org/2000/svg"
   xmlns:xlink="http://www.w3.org/1999/xlink"
   xmlns:sodipodi="http://sodipodi.sourceforge.net/DTD/sodipodi-0.dtd"
   xmlns:inkscape="http://www.inkscape.org/namespaces/inkscape"
   id="svg3726"
   version="1.1"
   inkscape:version="0.91 r13725"
   width="406.875"
   height="108.75"
   viewBox="0 0 406.875 108.75"
   sodipodi:docname="Quasar.svg">
  <metadata
     id="metadata3732">
    <rdf:RDF>
      <cc:Work
         rdf:about="">
        <dc:format>image/svg+xml</dc:format>
        <dc:type
           rdf:resource="http://purl.org/dc/dcmitype/StillImage" />
        <dc:title></dc:title>
      </cc:Work>
    </rdf:RDF>
  </metadata>
  <defs
     id="defs3730" />
  <sodipodi:namedview
     pagecolor="#ffffff"
     bordercolor="#666666"
     borderopacity="1"
     objecttolerance="10"
     gridtolerance="10"
     guidetolerance="10"
     inkscape:pageopacity="0"
     inkscape:pageshadow="2"
     inkscape:window-width="640"
     inkscape:window-height="480"
     id="namedview3728"
     showgrid="false"
     inkscape:zoom="0.64393241"
     inkscape:cx="203.4375"
     inkscape:cy="54.375"
     inkscape:window-x="0"
     inkscape:window-y="0"
     inkscape:window-maximized="0"
     inkscape:current-layer="svg3726" />
  <image
     width="406.875"
     height="108.75"
     preserveAspectRatio="none"
     style="image-rendering:optimizeQuality"
     xlink:href="file:///media/havoc/USB%20DISK/pics/_Products/Quasar.png"
     id="image3734"
     x="0"
     y="0"
     sodipodi:absref="/media/havoc/USB DISK/pics/_Products/Quasar.png" />
  <g
     id="g3830">
    <path
       style="fill:#fdfdfd"
       d="M 0,54.375 0,0 203.4375,0 406.875,0 l 0,54.375 0,54.375 -203.4375,0 L 0,108.75 0,54.375 Z"
       id="path3846"
       inkscape:connector-curvature="0" />
    <path
       style="fill:#a6cdee"
       d="M 85.669819,99.3611 C 84.147594,99.039919 82.655775,98.530775 82.354663,98.229662 82.05355,97.92855 81.892756,96.024525 81.997344,93.998494 L 82.1875,90.3148 86.875,87.799862 c 2.578125,-1.383218 5.968419,-3.398456 7.533988,-4.478306 3.5926,-2.478 10.009772,-9.304675 11.888112,-12.646744 0.78819,-1.4024 1.80264,-2.549812 2.25434,-2.549812 1.10533,0 4.16511,5.020656 5.55907,9.121619 1.08848,3.202243 1.08871,3.372318 0.006,4.568356 -0.61834,0.683256 -2.92154,2.171587 -5.11823,3.307406 l -3.99397,2.065119 -0.002,5.141844 c -0.002,4.798431 -0.10703,5.21045 -1.57019,6.16915 -1.87317,1.22735 -13.384161,1.786366 -17.762305,0.862606 z M 76.713525,84.375 c -2.279781,-1.375 -4.427625,-2.5 -4.772994,-2.5 -0.345362,0 -2.259206,0.98365 -4.252981,2.185894 -1.993775,1.202243 -4.210794,2.186619 -4.9267,2.1875 -1.358994,0.0019 -3.763392,-2.630357 -6.779427,-7.421275 C 53.860062,75.457375 51.09441,68.257388 51.604414,67.432181 52.206958,66.457244 56.761126,63.75 57.798633,63.75 c 0.521661,0 2.285062,0.951812 3.91867,2.115138 6.781966,4.829575 15.36226,7.976331 24.057372,8.822862 2.316694,0.225544 4.377556,0.677675 4.579688,1.004731 0.878968,1.422206 -6.462519,11.182269 -8.411276,11.182269 -0.596481,0 -2.949781,-1.125 -5.229562,-2.5 z m 43.598975,0.355344 -2.5,-1.513244 -0.0389,-8.3273 c -0.0446,-9.543519 -1.0982,-14.666646 -4.37051,-21.252133 -1.78786,-3.598045 -1.94828,-4.279555 -1.16114,-4.932819 1.15462,-0.958257 9.43517,-0.416388 11.94193,0.781466 1.69666,0.81075 1.76382,1.026727 2.06616,6.644728 l 0.3125,5.806741 4.0625,2.341504 c 3.41722,1.969582 4.09204,2.638569 4.24852,4.211763 0.39174,3.938675 -8.18945,17.764456 -11.02039,17.75575 -0.57234,-0.0019 -2.16563,-0.684169 -3.54063,-1.516456 z m 68.125,-16.276538 c -2.07133,-1.275769 -3.31591,-1.543137 -7.25844,-1.5593 -7.39209,-0.03031 -11.19467,-0.937425 -13.21031,-3.151375 -1.67057,-1.834935 -1.71875,-2.0939 -1.71875,-9.238925 0,-8.13514 0.41638,-9.317509 3.94419,-11.200011 1.56176,-0.833383 3.68472,-1.069407 9.80581,-1.090181 12.82647,-0.04353 14.69477,1.721702 14.25225,13.465981 -0.16058,4.261466 -0.52985,6.456541 -1.27837,7.59893 -0.91924,1.402931 -0.93676,1.702575 -0.13823,2.365287 1.28569,1.067032 1.13672,2.9428 -0.29456,3.7088 -1.53193,0.819863 -1.19134,0.894494 -4.10359,-0.899206 z M 188,61.125 c 1.02154,-1.021546 1.02154,-12.478454 0,-13.5 -0.49428,-0.494275 -3.14286,-0.75 -7.76786,-0.75 -8.93883,0 -8.98214,0.03617 -8.98214,7.5 0,7.463834 0.0433,7.5 8.98214,7.5 4.625,0 7.27358,-0.255725 7.76786,-0.75 z m 18.875,5.078812 c -1.20313,-0.349625 -2.82986,-1.352787 -3.61496,-2.22925 -1.31646,-1.469668 -1.41366,-2.08191 -1.25,-7.873871 0.14631,-5.17795 0.36944,-6.4011 1.27121,-6.968546 0.79486,-0.500174 1.39264,-0.500633 2.1875,-0.0017 0.86734,0.544454 1.15844,1.859708 1.40625,6.353879 0.17187,3.117018 0.52305,5.876546 0.78039,6.132287 0.78817,0.783262 10.0489,1.042409 11.87586,0.332331 1.68677,-0.655597 1.71875,-0.766337 1.71875,-5.951353 0,-5.29136 0.73594,-7.263572 2.70089,-7.238042 1.98153,0.02574 2.58869,1.267542 2.81547,5.758356 0.31816,6.300596 -0.63883,9.56318 -3.19558,10.894317 -2.40374,1.251488 -13.3304,1.769532 -16.69578,0.791569 z m 31.02659,0.05894 C 234.85741,65.298725 233.75,63.841456 233.75,60.799544 c 0,-5.534495 1.75909,-6.424544 12.69743,-6.424544 7.97201,0 9.37409,-0.727751 2.40825,-1.25 -3.69292,-0.276868 -4.19032,-0.468021 -4.36235,-1.676462 -0.3048,-2.140963 1.88569,-2.921416 6.99684,-2.492915 5.79011,0.485422 7.38769,1.66306 8.13692,5.998058 0.8016,4.637966 -0.10534,8.649888 -2.32837,10.299775 -1.54494,1.146625 -2.74693,1.325531 -9.6875,1.441931 -4.35804,0.07309 -8.72738,-0.121606 -9.70963,-0.432656 z m 15.48479,-4.142099 c 0.58625,-0.224965 0.98862,-1.115277 0.98862,-2.1875 l 0,-1.808151 -6.60359,0 c -3.63197,0 -7.1476,0.291146 -7.8125,0.64699 -1.355,0.725176 -1.62665,2.830281 -0.42766,3.314084 1.12831,0.455282 12.68363,0.484107 13.85513,0.03456 z m 14.19243,3.91183 c -0.44387,-0.534825 -0.71023,-1.478112 -0.59192,-2.096187 0.19134,-0.999588 1.18129,-1.158313 8.95786,-1.436275 7.21577,-0.25792 8.74275,-0.47624 8.74275,-1.25 0,-0.758456 -1.37267,-1.005133 -7.1875,-1.291637 -3.95312,-0.194775 -7.6875,-0.579426 -8.29861,-0.854781 -2.44547,-1.101875 -3.13412,-5.468071 -1.23264,-7.815187 1.97435,-2.437069 11.56653,-3.538828 13.54911,-1.556252 2.07264,2.072625 0.50708,3.392838 -4.0234,3.392838 -2.05533,0 -4.00744,0.369372 -4.71875,0.892862 -1.65044,1.21464 -0.84974,1.422799 7.08706,1.84244 3.5339,0.186848 7.17197,0.70253 8.0846,1.14596 3.0136,1.464253 3.18457,6.598244 0.28304,8.4994 -2.34279,1.535057 -19.4526,1.971513 -20.6516,0.5268 z m 33.23045,0.150556 c -2.61912,-0.757343 -3.93426,-2.729812 -3.93426,-5.900657 0,-1.947524 0.38759,-2.929012 1.61106,-4.079684 1.49956,-1.410332 2.20245,-1.537862 10.15625,-1.842709 8.34433,-0.319813 10.04222,-1.027448 3.29706,-1.374122 -2.45542,-0.126199 -3.56068,-0.480893 -4.0625,-1.303721 -0.55216,-0.905377 -0.44058,-1.321209 0.56063,-2.08926 0.96487,-0.740173 2.29293,-0.884678 5.82211,-0.6335 7.26028,0.516724 8.86539,2.224877 8.86539,9.434517 0,4.704218 -1.33404,6.848424 -4.87218,7.831086 -2.82558,0.784757 -14.6831,0.756232 -17.44356,-0.04194 z m 15.70212,-4.062386 c 0.58625,-0.224965 0.98862,-1.115277 0.98862,-2.1875 l 0,-1.808151 -6.60359,0 c -6.55894,0 -9.02141,0.568978 -9.02141,2.08449 0,1.815022 1.57227,2.29051 7.57388,2.29051 3.34064,0 6.51876,-0.170716 7.0625,-0.379368 z M 331.375,66.125 c -0.48071,-0.480706 -0.75,-2.9367 -0.75,-6.840148 0,-5.416329 0.15559,-6.270398 1.40625,-7.719303 2.64297,-3.061914 12.99413,-3.699076 12.95918,-0.797698 -0.021,1.742277 -1.20806,2.443701 -4.73649,2.798709 -2.0303,0.204274 -3.89807,0.680677 -4.15062,1.058674 -0.25255,0.377996 -0.46349,2.951328 -0.46875,5.718516 -0.01,5.10595 -0.55737,6.53125 -2.50957,6.53125 -0.55,0 -1.3375,-0.3375 -1.75,-0.75 z M 88.525813,63.813819 c -2.878719,-1.897899 -4.142082,-4.352535 -4.146694,-8.056771 -0.0037,-2.972539 0.237537,-3.564522 2.395281,-5.877737 2.13685,-2.290814 2.769463,-2.59973 5.78125,-2.823091 2.6308,-0.195106 3.834225,0.03326 5.418813,1.028275 3.290147,2.066001 4.637927,4.775886 4.344317,8.734853 -0.22336,3.01179 -0.53228,3.644401 -2.823092,5.781252 -2.313213,2.157744 -2.905194,2.398987 -5.877738,2.395281 -2.183731,-0.0025 -3.911775,-0.403856 -5.092138,-1.182062 z M 63.312019,63.058737 c -1.100265,-0.318193 -2.218185,-0.92564 -2.484267,-1.349884 -0.266083,-0.424244 -0.502489,-3.156655 -0.525349,-6.072024 l -0.04156,-5.300671 -4.34917,-2.578046 c -3.972143,-2.354558 -4.341317,-2.747143 -4.258585,-4.528645 0.218294,-4.700588 8.285873,-17.607444 11.001871,-17.601265 0.77415,0.0017 2.532544,0.684164 3.907544,1.516451 l 2.5,1.513249 0.03894,8.327299 c 0.04481,9.577801 1.097743,14.666246 4.416812,21.344392 1.166419,2.346901 1.960388,4.526588 1.764375,4.843751 -0.454,0.734587 -9.327981,0.649625 -11.970606,-0.114607 z M 125.06315,46.241816 C 116.82192,40.915256 109.50044,38.239721 101.3499,37.576134 97.445681,37.258266 96.537606,36.984121 96.362956,36.070585 95.933619,33.824871 102.69742,25 104.84798,25 c 0.64264,0 3.10696,1.169178 5.47627,2.598173 l 4.30782,2.598173 4.17949,-2.285673 c 2.29871,-1.25712 4.73832,-2.285673 5.42137,-2.285673 2.87481,0 12.16389,16.011434 11.01939,18.993958 -0.17875,0.465817 -1.67648,1.582508 -3.32829,2.481537 l -3.0033,1.634598 -3.85758,-2.493277 z M 76.247144,41.87099 C 74.250219,39.066564 71.771131,32.561871 72.192838,31.233192 72.555169,30.091569 77.4961,26.695793 80.402869,25.590641 81.787831,25.06408 81.875,24.719986 81.875,19.779498 c 0,-5.640555 0.260662,-6.170057 3.408875,-6.924759 2.728125,-0.653994 14.072212,-0.489115 16.547185,0.240503 2.60675,0.768469 3.14697,1.539614 3.15937,4.509891 0.0148,3.550599 -0.44715,4.134588 -5.12978,6.484635 -8.5129,4.272328 -14.667094,9.527287 -18.891537,16.13115 C 79.727475,42.161913 78.458131,43.75 78.148356,43.75 c -0.309781,0 -1.165325,-0.845554 -1.901212,-1.87901 z"
       id="path3844"
       inkscape:connector-curvature="0" />
    <path
       style="fill:#9da3a5"
       d="m 87.553331,98.716381 c -2.205044,-0.295987 -4.247062,-0.9017 -4.537825,-1.346018 -0.290762,-0.444325 -0.455381,-2.073219 -0.365831,-3.619769 l 0.162825,-2.811907 4.79445,-2.567425 c 8.334063,-4.462881 14.24328,-9.558831 18.58534,-16.027512 1.09602,-1.632812 2.24864,-2.96875 2.56139,-2.96875 0.90042,0 3.59596,5.019788 4.4825,8.347575 0.79956,3.001294 0.78865,3.050956 -0.98015,4.461338 -0.98378,0.784443 -3.14915,2.063468 -4.81193,2.842268 l -3.02324,1.416007 -0.17918,5.366043 c -0.1681,5.034363 -0.27576,5.410619 -1.74168,6.087144 -2.20639,1.018263 -10.204337,1.457581 -14.946669,0.821006 z m -27.513263,-16.0067 c -2.551854,-2.899056 -6.51988,-10.232981 -7.255791,-13.41055 -0.319961,-1.381556 -0.04202,-1.846906 1.773164,-2.96875 2.886884,-1.784193 3.518678,-1.703562 7.411003,0.945775 6.829556,4.648588 17.342237,8.348844 23.71965,8.348844 1.643475,0 3.145794,0.255094 3.338481,0.566875 0.426269,0.689719 -4.542019,8.157575 -6.024156,9.054931 -1.1933,0.722482 -4.1153,-0.426387 -8.217913,-3.231125 l -2.402994,-1.642793 -4.879375,2.63545 -4.879368,2.635443 -2.582702,-2.9341 z m 61.072712,1.350806 -2.30239,-1.564512 0.008,-7.341738 c 0.01,-9.563537 -1.24355,-15.715137 -4.51582,-22.160588 -0.64748,-1.275368 -1.17725,-2.611306 -1.17725,-2.96875 0,-0.845965 6.47588,-0.840554 9.53125,0.008 l 2.34375,0.650892 0,5.498755 c 0,6.230331 -0.08,6.100303 5.78125,9.391371 1.97656,1.109819 3.59375,2.284057 3.59375,2.609407 -1e-5,3.309139 -8.58637,17.441714 -10.59686,17.441714 -0.19964,0 -1.39906,-0.704031 -2.66537,-1.564513 z M 187.99074,67.8125 c -2.07703,-1.411381 -2.90905,-1.5625 -8.60265,-1.5625 -6.75401,0 -9.45294,-0.723806 -11.57559,-3.104356 -1.10036,-1.234057 -1.25,-2.285838 -1.25,-8.785909 0,-6.955833 0.0879,-7.477614 1.51609,-8.997833 2.08736,-2.221892 4.8869,-2.856643 12.54641,-2.84469 7.71379,0.01204 11.43474,1.249132 12.55178,4.173059 0.38059,0.99622 0.58008,4.760583 0.46411,8.75782 -0.16354,5.63706 -0.41598,7.222853 -1.28844,8.093978 -1.03001,1.028431 -1.01743,1.155369 0.24798,2.502337 1.10279,1.173869 1.19603,1.584038 0.53978,2.374769 -1.12325,1.353425 -2.50438,1.190712 -5.14947,-0.606675 z M 188.125,61.25 c 1.06079,-1.060797 1.25,-2.083333 1.25,-6.755544 0,-7.749907 -0.13342,-7.879163 -8.40802,-8.145727 -9.45876,-0.304711 -9.71698,-0.09198 -9.71698,8.005239 0,7.985089 0.1818,8.146032 9.20157,8.146032 5.5901,0 6.5856,-0.162167 7.67343,-1.25 z m 18.13785,4.302475 C 202.81151,64.175437 202.5,63.421544 202.5,56.446017 c 0,-5.427591 0.16675,-6.549235 1.02245,-6.8776 2.24314,-0.860772 3.03135,0.628634 3.2236,6.09131 0.10095,2.868513 0.48695,5.581057 0.85777,6.027875 0.91079,1.097429 11.74372,1.122998 13.19745,0.03115 0.80916,-0.607735 1.07862,-2.030554 1.21321,-6.40625 0.16597,-5.395874 0.23379,-5.633591 1.66484,-5.835932 2.14888,-0.303836 2.55037,0.78894 2.56111,6.970771 0.011,6.326518 -0.51749,7.68938 -3.45816,8.918074 -2.46373,1.029412 -14.07856,1.160938 -16.51942,0.187062 z m 30.80484,0.08969 c -2.23609,-0.938506 -3.52944,-3.470159 -3.10597,-6.079733 0.64,-3.943831 1.30386,-4.213913 11.2144,-4.562429 5.29925,-0.186354 8.88638,-0.564791 8.88638,-0.9375 0,-0.34375 -1.40625,-0.698494 -3.125,-0.788321 -5.07385,-0.265172 -6.04506,-0.632604 -5.82183,-2.20252 0.18623,-1.309628 0.49427,-1.384159 5.72085,-1.384159 5.27802,0 5.59114,0.07809 7.03125,1.753602 1.29875,1.51104 1.50723,2.392346 1.50723,6.371398 0,3.978639 -0.20857,4.860512 -1.50687,6.3714 l -1.50689,1.7536 -8.96187,0.139794 c -4.92903,0.07689 -9.57829,-0.118925 -10.33168,-0.435132 z m 17.49628,-4.46346 c 0.34923,-0.554839 0.4584,-1.468902 0.24261,-2.03125 -0.33307,-0.867978 -1.52511,-1.022452 -7.88997,-1.022452 -6.93537,0 -7.5494,0.09674 -8.18799,1.289951 -0.5147,0.96173 -0.49681,1.523173 0.0703,2.206536 1.14583,1.380651 14.85973,0.995475 15.76501,-0.442785 z m 12.99099,4.200017 c -0.5583,-0.672707 -0.49434,-1.10005 0.28061,-1.875 C 268.6532,62.686081 270.3305,62.5 276.88276,62.5 c 7.93234,0 9.77882,-0.463417 8.18741,-2.054822 -0.38857,-0.388578 -3.9665,-0.847554 -8.10176,-1.039292 C 268.35634,59.006572 267.5,58.581671 267.5,54.707839 c 0,-4.071376 1.40779,-4.972345 8.18552,-5.238619 4.66537,-0.183286 5.61809,-0.05676 5.94272,0.789209 0.71945,1.874884 -0.91575,2.80331 -5.27584,2.995492 -3.68704,0.162516 -4.1649,0.326998 -4.1649,1.433579 0,1.158891 0.52387,1.273443 7.1875,1.571632 4.02929,0.180306 7.80217,0.668829 8.58637,1.11179 2.85679,1.613673 2.59372,6.361728 -0.43939,7.930209 -2.54144,1.314238 -18.88799,1.37775 -19.96702,0.07759 z M 300.625,65.8066 c -1.73486,-0.637894 -3.05146,-2.173956 -3.4608,-4.037688 -0.47257,-2.151578 0.61677,-5.208899 2.11178,-5.926906 0.57008,-0.273797 4.76511,-0.645569 9.32226,-0.82616 4.72627,-0.187292 8.35094,-0.59684 8.4375,-0.953346 0.0835,-0.34375 -1.25449,-0.698494 -2.97324,-0.788321 -5.07385,-0.265172 -6.04506,-0.632604 -5.82183,-2.20252 0.18623,-1.309628 0.49427,-1.384159 5.72085,-1.384159 5.27802,0 5.59114,0.07809 7.03125,1.753602 1.29771,1.50983 1.50723,2.393272 1.50723,6.355133 0,2.530842 -0.17471,5.056809 -0.38824,5.613265 -0.85019,2.215544 -3.5986,2.842437 -12.23697,2.791156 -4.57176,-0.02714 -8.73417,-0.204462 -9.24979,-0.394056 z m 17.38335,-5.65035 0.19585,-2.03125 -7.82104,0 c -6.75415,0 -7.90332,0.147001 -8.42411,1.077611 -0.38757,0.692561 -0.38719,1.480975 0.001,2.206478 0.54024,1.009453 1.41065,1.11033 8.22826,0.95364 l 7.62394,-0.175229 0.19585,-2.03125 z m 13.51056,5.268012 c -0.17428,-0.454156 -0.23577,-3.588761 -0.13664,-6.965793 0.17366,-5.916279 0.2445,-6.187999 1.94376,-7.455513 1.40824,-1.050435 2.66461,-1.315456 6.23611,-1.315456 3.87875,0 4.50332,0.156018 4.70421,1.175108 0.31468,1.596376 -0.91588,2.241441 -4.2976,2.252821 -1.56406,0.0053 -3.18125,0.347071 -3.59375,0.759571 -0.45988,0.459876 -0.75,2.708333 -0.75,5.8125 0,3.104169 -0.29013,5.352625 -0.75,5.8125 -0.99916,0.999162 -2.96061,0.9549 -3.35609,-0.07574 z M 89.511363,63.960575 C 82.7593,60.632614 82.927356,51.050941 89.79105,48.014805 c 3.811419,-1.685973 6.61475,-1.131063 9.657481,1.911666 3.042729,3.042728 3.597639,5.84606 1.911659,9.65748 C 99.2922,64.259 94.047381,66.196288 89.511362,63.960575 Z M 64.811969,62.521344 c -1.306538,-0.252945 -2.630532,-0.714907 -2.942205,-1.02658 -0.311673,-0.311673 -0.648935,-3.081509 -0.749471,-6.155192 L 60.9375,49.751058 57.016798,47.486076 c -2.156387,-1.24574 -4.219651,-2.563929 -4.585031,-2.929308 -1.433512,-1.433513 6.974341,-17.013431 9.7579,-18.081583 1.066314,-0.409183 5.919264,2.076803 5.990614,3.068768 0.03038,0.422701 0.01181,3.581047 -0.04131,7.018547 -0.120725,7.811683 1.24735,14.7985 4.08185,20.84612 1.184806,2.527866 2.154187,4.848178 2.154187,5.156249 0,0.652812 -6.109912,0.625006 -9.563031,-0.0435 z M 125.9375,45.908059 c -2.96482,-2.446154 -12.73636,-7.033827 -17.1875,-8.069415 -2.23437,-0.519842 -5.46875,-0.953631 -7.1875,-0.963977 -5.221662,-0.03142 -5.395344,-0.536616 -1.928781,-5.610108 1.665691,-2.437827 3.525771,-4.69853 4.133521,-5.023785 1.09565,-0.586373 5.34554,1.184911 9.38704,3.912369 1.55791,1.051373 1.6824,1.021275 5.85056,-1.414456 2.34232,-1.368778 4.65004,-2.488687 5.12826,-2.488687 2.04226,0 9.30698,11.980897 10.05327,16.579757 0.31104,1.916726 0.14747,2.165839 -2.21285,3.369982 -3.20501,1.635072 -3.73158,1.609626 -6.03602,-0.29168 z M 75.233919,37.771404 c -1.201613,-2.600727 -2.09465,-5.20229 -1.984532,-5.78125 0.18925,-0.994991 3.5757,-3.504102 7.918913,-5.867335 1.955331,-1.063935 1.9567,-1.068405 1.9567,-6.37793 l 0,-5.313248 2.34375,-0.49707 c 3.594706,-0.762378 15.26127,-0.519908 16.875,0.350718 1.13339,0.611482 1.40625,1.297336 1.40625,3.534793 0,3.097334 0.45669,2.672444 -7.780219,7.238566 C 90.404294,28.14387 82.405025,35.552143 80.005181,39.84375 79.188237,41.304687 78.272063,42.5 77.969244,42.5 c -0.302819,0 -1.533713,-2.127868 -2.735325,-4.728596 z"
       id="path3842"
       inkscape:connector-curvature="0" />
    <path
       style="fill:#4aa3ed"
       d="m 87.553331,98.716381 c -2.205044,-0.295987 -4.247062,-0.9017 -4.537825,-1.346018 -0.290762,-0.444325 -0.455381,-2.073219 -0.365831,-3.619769 l 0.162825,-2.811907 4.79445,-2.567425 c 8.334063,-4.462881 14.24328,-9.558831 18.58534,-16.027512 1.09602,-1.632812 2.24864,-2.96875 2.56139,-2.96875 0.90042,0 3.59596,5.019788 4.4825,8.347575 0.79956,3.001294 0.78865,3.050956 -0.98015,4.461338 -0.98378,0.784443 -3.14915,2.063468 -4.81193,2.842268 l -3.02324,1.416007 -0.17918,5.366043 c -0.1681,5.034363 -0.27576,5.410619 -1.74168,6.087144 -2.20639,1.018263 -10.204337,1.457581 -14.946669,0.821006 z m -27.513263,-16.0067 c -2.551854,-2.899056 -6.51988,-10.232981 -7.255791,-13.41055 -0.319961,-1.381556 -0.04202,-1.846906 1.773164,-2.96875 2.886884,-1.784193 3.518678,-1.703562 7.411003,0.945775 6.829556,4.648588 17.342237,8.348844 23.71965,8.348844 1.643475,0 3.145794,0.255094 3.338481,0.566875 0.426269,0.689719 -4.542019,8.157575 -6.024156,9.054931 -1.1933,0.722482 -4.1153,-0.426387 -8.217913,-3.231125 l -2.402994,-1.642793 -4.879375,2.63545 -4.879368,2.635443 -2.582702,-2.9341 z m 61.072712,1.350806 -2.30239,-1.564512 0.008,-7.341738 c 0.01,-9.563537 -1.24355,-15.715137 -4.51582,-22.160588 -0.64748,-1.275368 -1.17725,-2.611306 -1.17725,-2.96875 0,-0.845965 6.47588,-0.840554 9.53125,0.008 l 2.34375,0.650892 0,5.498755 c 0,6.230331 -0.08,6.100303 5.78125,9.391371 1.97656,1.109819 3.59375,2.284057 3.59375,2.609407 -1e-5,3.309139 -8.58637,17.441714 -10.59686,17.441714 -0.19964,0 -1.39906,-0.704031 -2.66537,-1.564513 z M 187.99074,67.1875 c -2.08466,-1.416569 -2.90085,-1.562594 -8.73883,-1.563469 -4.88168,-6.25e-4 -6.96647,-0.265325 -8.61822,-1.09375 -3.29235,-1.651281 -3.82272,-3.243554 -3.62162,-10.872725 0.25241,-9.575235 1.46197,-10.522538 13.44403,-10.52907 7.30042,-0.004 10.83464,1.029576 11.95902,3.497324 0.39044,0.856904 0.70883,4.427585 0.70754,7.934848 -0.002,5.200284 -0.22523,6.742394 -1.21041,8.358105 -1.19061,1.952606 -1.19076,2.001231 -0.0106,3.361924 2.38133,2.745688 -0.29238,3.365638 -3.91086,0.906813 z m 0.47517,-5.596591 C 189.86576,60.191056 190,59.568187 190,54.472649 c 0,-8.277017 -0.29786,-8.535149 -9.84872,-8.535149 -5.40353,0 -7.74399,0.23639 -8.49272,0.857778 -0.84489,0.701194 -1.03356,2.092336 -1.03356,7.62081 0,8.67525 0.0369,8.708912 9.54248,8.708912 6.34856,0 6.85863,-0.09429 8.29843,-1.534091 z m 17.15909,2.966385 -2.1875,-1.119794 -0.17786,-6.765052 c -0.177,-6.73176 -0.17084,-6.764055 1.25,-6.5625 1.35115,0.19167 1.43715,0.504753 1.60088,5.827552 0.13459,4.375696 0.40405,5.798514 1.2132,6.40625 0.66469,0.499219 3.21836,0.78125 7.07387,0.78125 7.69682,0 7.97913,-0.257875 8.23117,-7.518829 0.16715,-4.815755 0.29659,-5.293671 1.43374,-5.293671 1.1503,0 1.26414,0.475776 1.42733,5.965001 0.17033,5.729367 0.11286,6.025636 -1.45474,7.499999 -1.51203,1.422112 -2.16858,1.548406 -8.92732,1.717294 -6.03017,0.150675 -7.67461,-0.01188 -9.48277,-0.9375 z m 31.44711,0.461506 c -2.96495,-1.2449 -3.58532,-5.437405 -1.16302,-7.859709 1.46467,-1.464675 1.88657,-1.534091 9.32388,-1.534091 8.27457,0 9.76703,-0.247158 9.76703,-1.617461 0,-0.993393 -1.55442,-1.427528 -5.93188,-1.656718 -2.39529,-0.12541 -3.16759,-0.417208 -3.32708,-1.257071 C 245.55898,50.135012 246.08288,50 249.98521,50 c 4.6524,0 7.6806,1.026868 8.37655,2.840501 0.21353,0.556453 0.38824,2.926323 0.38824,5.266377 0,3.255465 -0.28025,4.601153 -1.19334,5.730135 -1.14289,1.413093 -1.57237,1.4814 -10.15625,1.615281 -4.9296,0.07689 -9.57734,-0.118188 -10.3283,-0.433494 z m 17.94515,-3.176041 c 0.37742,-0.705232 0.59826,-1.900544 0.49073,-2.65625 -0.18666,-1.311978 -0.51998,-1.382198 -7.38299,-1.555393 -3.95312,-0.09976 -7.78671,-0.03252 -8.51907,0.149413 -1.56331,0.38837 -2.30197,2.560332 -1.42685,4.195517 0.54624,1.020666 1.48229,1.148954 8.38342,1.148954 7.19397,0 7.81927,-0.09483 8.45476,-1.282241 z m 13.22588,2.688491 c 0.18503,-0.964694 1.17874,-1.114275 8.4215,-1.267713 8.43688,-0.178731 10.06165,-0.6701 9.2458,-2.796184 -0.44696,-1.164753 -3.51831,-1.701517 -9.78728,-1.710474 -6.64589,-0.0095 -7.99816,-0.711763 -7.99816,-4.153651 0,-2.370228 0.22919,-2.814649 1.89609,-3.676633 2.56264,-1.32519 10.91641,-1.077704 10.91641,0.323405 0,0.700058 -0.87062,0.978534 -3.4375,1.099518 -5.312,0.250368 -6.25,0.593005 -6.25,2.283021 0,1.972144 0.93667,2.242461 7.77035,2.242461 8.79233,0 11.23516,1.406687 10.12489,5.83035 -0.59778,2.381731 -2.87232,2.91965 -12.34548,2.91965 -8.01222,0 -8.74837,-0.0941 -8.55662,-1.09375 z m 31.90402,0.469069 c -2.61399,-1.092931 -3.398,-5.183046 -1.45437,-7.587329 1.12853,-1.395989 1.67575,-1.492328 10.15625,-1.78799 8.44263,-0.294342 8.96346,-0.385133 8.96346,-1.5625 0,-1.101191 -0.52083,-1.287202 -4.375,-1.5625 -3.33333,-0.238095 -4.375,-0.535714 -4.375,-1.25 0,-0.758392 0.99583,-0.9375 5.21242,-0.9375 6.84057,0 7.60008,0.777976 7.60008,7.784873 0,7.02269 -0.24128,7.177408 -11.46987,7.354921 -4.86345,0.07689 -9.47954,-0.1265 -10.25797,-0.451975 z m 17.94647,-2.775024 c 0.41068,-0.494838 0.65606,-1.690151 0.54528,-2.65625 L 318.4375,57.8125 310.625,57.632641 c -7.28081,-0.16762 -7.88481,-0.0911 -8.87491,1.124292 -1.06225,1.303939 -0.8902,3.011895 0.39182,3.889748 0.36883,0.25255 3.94084,0.463488 7.93781,0.46875 5.57054,0.0073 7.44155,-0.200487 8.01391,-0.890136 z M 331.875,59.120377 c 0,-6.474178 0.0301,-6.611295 1.6904,-7.699719 2.24419,-1.471199 9.8721,-1.603062 9.8721,-0.170658 0,0.686729 -0.95436,1.02252 -3.56784,1.255344 -1.96232,0.174815 -3.84881,0.598808 -4.19221,0.942207 -0.3434,0.343399 -0.70662,3.153495 -0.80716,6.244656 -0.17199,5.288262 -0.26587,5.632093 -1.58904,5.820012 -1.38207,0.196287 -1.40625,0.08636 -1.40625,-6.391842 z M 90.3125,63.775319 C 89.625,63.489075 88.256925,62.403281 87.272331,61.362444 83.460706,57.333082 84.869987,51.138034 90.191675,48.529292 93.3442,46.983896 96.458825,47.583826 99.125,50.25 c 2.66618,2.666174 3.26611,5.780802 1.72071,8.933324 -2.030816,4.142751 -6.711354,6.183251 -10.53321,4.591995 z M 64.811969,62.521344 c -1.306538,-0.252945 -2.630532,-0.714907 -2.942205,-1.02658 -0.311673,-0.311673 -0.648935,-3.081509 -0.749471,-6.155192 L 60.9375,49.751058 57.016798,47.486076 c -2.156387,-1.24574 -4.219651,-2.563929 -4.585031,-2.929308 -1.433512,-1.433513 6.974341,-17.013431 9.7579,-18.081583 1.066314,-0.409183 5.919264,2.076803 5.990614,3.068768 0.03038,0.422701 0.01181,3.581047 -0.04131,7.018547 -0.120725,7.811683 1.24735,14.7985 4.08185,20.84612 1.184806,2.527866 2.154187,4.848178 2.154187,5.156249 0,0.652812 -6.109912,0.625006 -9.563031,-0.0435 z M 125.9375,45.908059 c -2.96482,-2.446154 -12.73636,-7.033827 -17.1875,-8.069415 -2.23437,-0.519842 -5.46875,-0.953631 -7.1875,-0.963977 -5.221662,-0.03142 -5.395344,-0.536616 -1.928781,-5.610108 1.665691,-2.437827 3.525771,-4.69853 4.133521,-5.023785 1.09565,-0.586373 5.34554,1.184911 9.38704,3.912369 1.55791,1.051373 1.6824,1.021275 5.85056,-1.414456 2.34232,-1.368778 4.65004,-2.488687 5.12826,-2.488687 2.04226,0 9.30698,11.980897 10.05327,16.579757 0.31104,1.916726 0.14747,2.165839 -2.21285,3.369982 -3.20501,1.635072 -3.73158,1.609626 -6.03602,-0.29168 z M 75.233919,37.771404 c -1.201613,-2.600727 -2.09465,-5.20229 -1.984532,-5.78125 0.18925,-0.994991 3.5757,-3.504102 7.918913,-5.867335 1.955331,-1.063935 1.9567,-1.068405 1.9567,-6.37793 l 0,-5.313248 2.34375,-0.49707 c 3.594706,-0.762378 15.26127,-0.519908 16.875,0.350718 1.13339,0.611482 1.40625,1.297336 1.40625,3.534793 0,3.097334 0.45669,2.672444 -7.780219,7.238566 C 90.404294,28.14387 82.405025,35.552143 80.005181,39.84375 79.188237,41.304687 78.272063,42.5 77.969244,42.5 c -0.302819,0 -1.533713,-2.127868 -2.735325,-4.728596 z"
       id="path3840"
       inkscape:connector-curvature="0" />
    <path
       style="fill:#1975d1"
       d="m 85,97.5688 c -1.345988,-0.3718 -1.588994,-0.841887 -1.7537,-3.392494 -0.184125,-2.851318 -0.111431,-2.994212 1.964463,-3.861575 7.634087,-3.189725 15.964347,-9.724512 20.341217,-15.956943 3.42206,-4.872844 3.392,-4.876207 5.9728,0.66815 2.36593,5.082768 2.20436,5.675218 -2.22244,8.149743 -6.0442,3.378638 -6.17734,3.577925 -6.17734,9.246194 l 0,4.921875 -1.95312,0.390625 C 98.625581,98.243631 87.012613,98.124731 85,97.5688 Z M 187.99074,67.1875 c -2.08466,-1.416569 -2.90085,-1.562594 -8.73883,-1.563469 -4.88168,-6.25e-4 -6.96647,-0.265325 -8.61822,-1.09375 -3.29235,-1.651281 -3.82272,-3.243554 -3.62162,-10.872725 0.25241,-9.575235 1.46197,-10.522538 13.44403,-10.52907 7.30042,-0.004 10.83464,1.029576 11.95902,3.497324 0.39044,0.856904 0.70883,4.427585 0.70754,7.934848 -0.002,5.200284 -0.22523,6.742394 -1.21041,8.358105 -1.19061,1.952606 -1.19076,2.001231 -0.0106,3.361924 2.38133,2.745688 -0.29238,3.365638 -3.91086,0.906813 z m 0.47517,-5.596591 C 189.86576,60.191056 190,59.568187 190,54.472649 c 0,-8.277017 -0.29786,-8.535149 -9.84872,-8.535149 -5.40353,0 -7.74399,0.23639 -8.49272,0.857778 -0.84489,0.701194 -1.03356,2.092336 -1.03356,7.62081 0,8.67525 0.0369,8.708912 9.54248,8.708912 6.34856,0 6.85863,-0.09429 8.29843,-1.534091 z m 17.15909,2.966385 -2.1875,-1.119794 -0.17786,-6.765052 c -0.177,-6.73176 -0.17084,-6.764055 1.25,-6.5625 1.35115,0.19167 1.43715,0.504753 1.60088,5.827552 0.13459,4.375696 0.40405,5.798514 1.2132,6.40625 0.66469,0.499219 3.21836,0.78125 7.07387,0.78125 7.69682,0 7.97913,-0.257875 8.23117,-7.518829 0.16715,-4.815755 0.29659,-5.293671 1.43374,-5.293671 1.1503,0 1.26414,0.475776 1.42733,5.965001 0.17033,5.729367 0.11286,6.025636 -1.45474,7.499999 -1.51203,1.422112 -2.16858,1.548406 -8.92732,1.717294 -6.03017,0.150675 -7.67461,-0.01188 -9.48277,-0.9375 z m 31.44711,0.461506 c -2.96495,-1.2449 -3.58532,-5.437405 -1.16302,-7.859709 1.46467,-1.464675 1.88657,-1.534091 9.32388,-1.534091 8.27457,0 9.76703,-0.247158 9.76703,-1.617461 0,-0.993393 -1.55442,-1.427528 -5.93188,-1.656718 -2.39529,-0.12541 -3.16759,-0.417208 -3.32708,-1.257071 C 245.55898,50.135012 246.08288,50 249.98521,50 c 4.6524,0 7.6806,1.026868 8.37655,2.840501 0.21353,0.556453 0.38824,2.926323 0.38824,5.266377 0,3.255465 -0.28025,4.601153 -1.19334,5.730135 -1.14289,1.413093 -1.57237,1.4814 -10.15625,1.615281 -4.9296,0.07689 -9.57734,-0.118188 -10.3283,-0.433494 z m 17.94515,-3.176041 c 0.37742,-0.705232 0.59826,-1.900544 0.49073,-2.65625 -0.18666,-1.311978 -0.51998,-1.382198 -7.38299,-1.555393 -3.95312,-0.09976 -7.78671,-0.03252 -8.51907,0.149413 -1.56331,0.38837 -2.30197,2.560332 -1.42685,4.195517 0.54624,1.020666 1.48229,1.148954 8.38342,1.148954 7.19397,0 7.81927,-0.09483 8.45476,-1.282241 z m 13.22588,2.688491 c 0.18503,-0.964694 1.17874,-1.114275 8.4215,-1.267713 8.43688,-0.178731 10.06165,-0.6701 9.2458,-2.796184 -0.44696,-1.164753 -3.51831,-1.701517 -9.78728,-1.710474 -6.64589,-0.0095 -7.99816,-0.711763 -7.99816,-4.153651 0,-2.370228 0.22919,-2.814649 1.89609,-3.676633 2.56264,-1.32519 10.91641,-1.077704 10.91641,0.323405 0,0.700058 -0.87062,0.978534 -3.4375,1.099518 -5.312,0.250368 -6.25,0.593005 -6.25,2.283021 0,1.972144 0.93667,2.242461 7.77035,2.242461 8.79233,0 11.23516,1.406687 10.12489,5.83035 -0.59778,2.381731 -2.87232,2.91965 -12.34548,2.91965 -8.01222,0 -8.74837,-0.0941 -8.55662,-1.09375 z m 31.90402,0.469069 c -2.61399,-1.092931 -3.398,-5.183046 -1.45437,-7.587329 1.12853,-1.395989 1.67575,-1.492328 10.15625,-1.78799 8.44263,-0.294342 8.96346,-0.385133 8.96346,-1.5625 0,-1.101191 -0.52083,-1.287202 -4.375,-1.5625 -3.33333,-0.238095 -4.375,-0.535714 -4.375,-1.25 0,-0.758392 0.99583,-0.9375 5.21242,-0.9375 6.84057,0 7.60008,0.777976 7.60008,7.784873 0,7.02269 -0.24128,7.177408 -11.46987,7.354921 -4.86345,0.07689 -9.47954,-0.1265 -10.25797,-0.451975 z m 17.94647,-2.775024 c 0.41068,-0.494838 0.65606,-1.690151 0.54528,-2.65625 L 318.4375,57.8125 310.625,57.632641 c -7.28081,-0.16762 -7.88481,-0.0911 -8.87491,1.124292 -1.06225,1.303939 -0.8902,3.011895 0.39182,3.889748 0.36883,0.25255 3.94084,0.463488 7.93781,0.46875 5.57054,0.0073 7.44155,-0.200487 8.01391,-0.890136 z M 331.875,59.120377 c 0,-6.474178 0.0301,-6.611295 1.6904,-7.699719 2.24419,-1.471199 9.8721,-1.603062 9.8721,-0.170658 0,0.686729 -0.95436,1.02252 -3.56784,1.255344 -1.96232,0.174815 -3.84881,0.598808 -4.19221,0.942207 -0.3434,0.343399 -0.70662,3.153495 -0.80716,6.244656 -0.17199,5.288262 -0.26587,5.632093 -1.58904,5.820012 -1.38207,0.196287 -1.40625,0.08636 -1.40625,-6.391842 z M 90.3125,63.775319 C 89.625,63.489075 88.256925,62.403281 87.272331,61.362444 83.460706,57.333082 84.869987,51.138034 90.191675,48.529292 93.3442,46.983896 96.458825,47.583826 99.125,50.25 c 2.66618,2.666174 3.26611,5.780802 1.72071,8.933324 -2.030816,4.142751 -6.711354,6.183251 -10.53321,4.591995 z M 65.603769,61.923459 C 61.978898,61.213179 61.875,61.020659 61.875,55.014179 l 0,-5.53705 -4.21875,-2.441202 c -3.827489,-2.214796 -4.210859,-2.619255 -4.133664,-4.361061 0.121514,-2.74185 3.597635,-9.465004 6.740307,-13.036406 l 2.684344,-3.05055 2.354207,1.562314 2.3542,1.562313 -0.1099,6.904868 c -0.124313,7.810427 0.903225,13.784412 3.395994,19.743909 2.692456,6.436898 2.711462,6.148755 -0.400094,6.066812 -1.501032,-0.03953 -3.723069,-0.266631 -4.937875,-0.504667 z M 126.25,45.238066 c -2.96778,-2.13767 -10.2124,-5.78752 -14.23741,-7.172831 -1.81495,-0.624662 -5.61136,-1.452232 -8.43647,-1.839042 -2.8251,-0.386811 -5.243514,-0.810251 -5.374239,-0.940979 -0.347675,-0.347676 3.480719,-6.167361 4.905079,-7.456385 1.56902,-1.419943 3.58403,-0.932634 7.84877,1.898133 1.77988,1.181421 3.43912,2.148038 3.6872,2.148038 0.24806,0 2.44193,-1.182768 4.87524,-2.628374 l 4.42421,-2.628375 2.45011,2.760923 c 2.45592,2.767476 7.35751,12.025523 7.35751,13.896747 0,0.945712 -3.58657,3.633743 -4.76127,3.568431 -0.30318,-0.01686 -1.5356,-0.739685 -2.73873,-1.606286 z"
       id="path3838"
       inkscape:connector-curvature="0" />
    <path
       style="fill:#5b6468"
       d="m 187.99074,67.1875 c -2.08466,-1.416569 -2.90085,-1.562594 -8.73883,-1.563469 -4.88168,-6.25e-4 -6.96647,-0.265325 -8.61822,-1.09375 -3.29235,-1.651281 -3.82272,-3.243554 -3.62162,-10.872725 0.25241,-9.575235 1.46197,-10.522538 13.44403,-10.52907 7.30042,-0.004 10.83464,1.029576 11.95902,3.497324 0.39044,0.856904 0.70883,4.427585 0.70754,7.934848 -0.002,5.200284 -0.22523,6.742394 -1.21041,8.358105 -1.19061,1.952606 -1.19076,2.001231 -0.0106,3.361924 2.38133,2.745688 -0.29238,3.365638 -3.91086,0.906813 z m 0.47517,-5.596591 C 189.86576,60.191056 190,59.568187 190,54.472649 c 0,-8.277017 -0.29786,-8.535149 -9.84872,-8.535149 -5.40353,0 -7.74399,0.23639 -8.49272,0.857778 -0.84489,0.701194 -1.03356,2.092336 -1.03356,7.62081 0,8.67525 0.0369,8.708912 9.54248,8.708912 6.34856,0 6.85863,-0.09429 8.29843,-1.534091 z m 17.15909,2.966385 -2.1875,-1.119794 -0.17786,-6.765052 c -0.177,-6.73176 -0.17084,-6.764055 1.25,-6.5625 1.35115,0.19167 1.43715,0.504753 1.60088,5.827552 0.13459,4.375696 0.40405,5.798514 1.2132,6.40625 0.66469,0.499219 3.21836,0.78125 7.07387,0.78125 7.69682,0 7.97913,-0.257875 8.23117,-7.518829 0.16715,-4.815755 0.29659,-5.293671 1.43374,-5.293671 1.1503,0 1.26414,0.475776 1.42733,5.965001 0.17033,5.729367 0.11286,6.025636 -1.45474,7.499999 -1.51203,1.422112 -2.16858,1.548406 -8.92732,1.717294 -6.03017,0.150675 -7.67461,-0.01188 -9.48277,-0.9375 z m 31.44711,0.461506 c -2.96495,-1.2449 -3.58532,-5.437405 -1.16302,-7.859709 1.46467,-1.464675 1.88657,-1.534091 9.32388,-1.534091 8.27457,0 9.76703,-0.247158 9.76703,-1.617461 0,-0.993393 -1.55442,-1.427528 -5.93188,-1.656718 -2.39529,-0.12541 -3.16759,-0.417208 -3.32708,-1.257071 C 245.55898,50.135012 246.08288,50 249.98521,50 c 4.6524,0 7.6806,1.026868 8.37655,2.840501 0.21353,0.556453 0.38824,2.926323 0.38824,5.266377 0,3.255465 -0.28025,4.601153 -1.19334,5.730135 -1.14289,1.413093 -1.57237,1.4814 -10.15625,1.615281 -4.9296,0.07689 -9.57734,-0.118188 -10.3283,-0.433494 z m 17.94515,-3.176041 c 0.37742,-0.705232 0.59826,-1.900544 0.49073,-2.65625 -0.18666,-1.311978 -0.51998,-1.382198 -7.38299,-1.555393 -3.95312,-0.09976 -7.78671,-0.03252 -8.51907,0.149413 -1.56331,0.38837 -2.30197,2.560332 -1.42685,4.195517 0.54624,1.020666 1.48229,1.148954 8.38342,1.148954 7.19397,0 7.81927,-0.09483 8.45476,-1.282241 z m 13.22588,2.688491 c 0.18503,-0.964694 1.17874,-1.114275 8.4215,-1.267713 8.43688,-0.178731 10.06165,-0.6701 9.2458,-2.796184 -0.44696,-1.164753 -3.51831,-1.701517 -9.78728,-1.710474 -6.64589,-0.0095 -7.99816,-0.711763 -7.99816,-4.153651 0,-2.370228 0.22919,-2.814649 1.89609,-3.676633 2.56264,-1.32519 10.91641,-1.077704 10.91641,0.323405 0,0.700058 -0.87062,0.978534 -3.4375,1.099518 -5.312,0.250368 -6.25,0.593005 -6.25,2.283021 0,1.972144 0.93667,2.242461 7.77035,2.242461 8.79233,0 11.23516,1.406687 10.12489,5.83035 -0.59778,2.381731 -2.87232,2.91965 -12.34548,2.91965 -8.01222,0 -8.74837,-0.0941 -8.55662,-1.09375 z m 31.90402,0.469069 c -2.61399,-1.092931 -3.398,-5.183046 -1.45437,-7.587329 1.12853,-1.395989 1.67575,-1.492328 10.15625,-1.78799 8.44263,-0.294342 8.96346,-0.385133 8.96346,-1.5625 0,-1.101191 -0.52083,-1.287202 -4.375,-1.5625 -3.33333,-0.238095 -4.375,-0.535714 -4.375,-1.25 0,-0.758392 0.99583,-0.9375 5.21242,-0.9375 6.84057,0 7.60008,0.777976 7.60008,7.784873 0,7.02269 -0.24128,7.177408 -11.46987,7.354921 -4.86345,0.07689 -9.47954,-0.1265 -10.25797,-0.451975 z m 17.94647,-2.775024 c 0.41068,-0.494838 0.65606,-1.690151 0.54528,-2.65625 L 318.4375,57.8125 310.625,57.632641 c -7.28081,-0.16762 -7.88481,-0.0911 -8.87491,1.124292 -1.06225,1.303939 -0.8902,3.011895 0.39182,3.889748 0.36883,0.25255 3.94084,0.463488 7.93781,0.46875 5.57054,0.0073 7.44155,-0.200487 8.01391,-0.890136 z M 331.875,59.120377 c 0,-6.474178 0.0301,-6.611295 1.6904,-7.699719 2.24419,-1.471199 9.8721,-1.603062 9.8721,-0.170658 0,0.686729 -0.95436,1.02252 -3.56784,1.255344 -1.96232,0.174815 -3.84881,0.598808 -4.19221,0.942207 -0.3434,0.343399 -0.70662,3.153495 -0.80716,6.244656 -0.17199,5.288262 -0.26587,5.632093 -1.58904,5.820012 -1.38207,0.196287 -1.40625,0.08636 -1.40625,-6.391842 z M 90.3125,63.775319 C 89.625,63.489075 88.256925,62.403281 87.272331,61.362444 83.460706,57.333082 84.869987,51.138034 90.191675,48.529292 93.3442,46.983896 96.458825,47.583826 99.125,50.25 c 2.66618,2.666174 3.26611,5.780802 1.72071,8.933324 -2.030816,4.142751 -6.711354,6.183251 -10.53321,4.591995 z"
       id="path3836"
       inkscape:connector-curvature="0" />
    <path
       style="fill:#394449"
       d="M 187.99074,66.5625 C 185.91371,65.151119 185.08169,65 179.38809,65 172.14067,65 169.07528,64.061925 168.12102,61.552043 167.77946,60.653663 167.5,57.423994 167.5,54.375 c 0,-3.048994 0.27946,-6.278663 0.62103,-7.177043 C 169.09949,44.624411 172.11202,43.75 180,43.75 c 7.44208,0 10.64145,0.820089 11.82469,3.031 0.37142,0.694003 0.67531,4.195509 0.67531,7.781125 0,5.572929 -0.18146,6.749986 -1.25,8.108419 -1.49596,1.9018 -1.55258,2.550287 -0.3125,3.579456 0.51562,0.427931 0.9375,1.024869 0.9375,1.326525 0,0.982094 -1.53732,0.580762 -3.88426,-1.014025 z m 0.80733,-4.639423 c 1.74922,-1.74921 1.82693,-2.066759 1.82693,-7.465148 0,-5.059095 -0.15493,-5.818345 -1.50839,-7.391827 -1.49665,-1.73997 -1.5666,-1.753602 -8.99688,-1.753602 -10.08394,0 -10.11973,0.03205 -10.11973,9.0625 0,9.041575 0.23169,9.247031 10.51682,9.325656 6.32906,0.04838 6.48979,0.01387 8.28125,-1.777579 z m 17.01615,2.354792 c -1.78956,-0.898463 -2.68922,-3.598216 -2.68922,-8.070016 0,-4.174493 0.41103,-5.582853 1.62937,-5.582853 0.67927,0 0.87063,1.228529 0.87063,5.58956 0,7.155971 0.41822,7.53544 8.30516,7.53544 5.256,0 7.69468,-0.594475 8.71652,-2.124815 0.25255,-0.378227 0.46349,-3.007998 0.46875,-5.843935 0.008,-4.162413 0.19027,-5.15625 0.94707,-5.15625 0.76645,0 0.9375,1.065626 0.9375,5.840632 0,8.034424 -0.17384,8.176656 -10.21987,8.361781 -4.57656,0.08434 -8.13814,-0.133963 -8.9659,-0.549544 z m 30.48012,-0.483525 c -1.7081,-1.708098 -1.71807,-5.092143 -0.0195,-6.629298 1.08121,-0.97848 2.64736,-1.194982 10.3125,-1.425587 8.25843,-0.248455 9.03766,-0.370989 9.03766,-1.421188 0,-1.651318 -1.91124,-2.443271 -5.89641,-2.443271 -1.91323,0 -3.47859,-0.28125 -3.47859,-0.625 0,-0.86855 7.89101,-0.791419 9.57234,0.09356 2.05947,1.084021 2.2827,1.717357 2.29309,6.505729 0.0148,6.819175 0.0459,6.799556 -11.14439,7.0388 -8.80005,0.188143 -9.46268,0.120262 -10.6767,-1.09375 z m 19.24768,-1.962653 c 0.55419,-0.988602 0.73855,-2.249778 0.47967,-3.28125 l -0.4205,-1.675441 -7.84168,0 c -4.31293,0 -8.3857,0.291146 -9.0506,0.64699 -1.39506,0.746613 -1.67717,4.259753 -0.4413,5.495616 0.54478,0.544788 3.03277,0.717144 8.57091,0.59375 7.6499,-0.170437 7.82102,-0.205425 8.7035,-1.779665 z M 268.75,64.375 c 0,-0.385719 3.22184,-0.625 8.41551,-0.625 7.77585,0 8.46636,-0.09501 9.08449,-1.25 0.47531,-0.888118 0.47531,-1.611882 0,-2.5 -0.58149,-1.086514 -1.30864,-1.25 -5.55976,-1.25 -7.55543,0 -10.6332,-0.581933 -11.70158,-2.212484 -1.2179,-1.858756 -0.5566,-4.317009 1.40132,-5.209098 1.92085,-0.875196 10.23502,-0.938897 10.23502,-0.07842 0,0.347975 -1.68036,0.625 -3.79109,0.625 -4.53664,0 -6.20891,0.757501 -6.20891,2.8125 0,2.244752 1.71767,2.811449 8.55266,2.821714 7.2825,0.01094 9.17554,0.719734 9.45121,3.538748 C 288.95956,64.429619 287.33331,65 277.36093,65 272.03697,65 268.75,64.761425 268.75,64.375 Z m 31.42495,-0.01256 c -2.64004,-1.062312 -2.64761,-6.143314 -0.0113,-7.598529 0.84246,-0.465035 4.81707,-0.873316 9.99262,-1.026467 7.5441,-0.223233 8.59374,-0.383039 8.59374,-1.308367 0,-1.893801 -1.40569,-2.554074 -5.4375,-2.554074 -2.45967,0 -3.9375,-0.259414 -3.9375,-0.691178 0,-0.466861 1.64076,-0.616668 5.05562,-0.461591 6.37161,0.289351 6.81938,0.78094 6.81938,7.486785 0,6.667621 -0.22515,6.802947 -11.23282,6.751365 -4.65007,-0.02181 -9.07908,-0.290862 -9.84223,-0.597937 z m 18.20964,-1.803981 c 0.68783,-0.760041 1.00583,-1.948293 0.87812,-3.28125 L 319.0625,57.1875 311.08764,57.012531 c -4.79531,-0.105209 -8.4708,0.09045 -9.21875,0.49074 -1.627,0.870742 -1.7289,4.652128 -0.15014,5.571666 0.60156,0.350382 4.35485,0.645607 8.34063,0.656057 6.34913,0.01662 7.38047,-0.128607 8.32521,-1.172532 z m 13.90708,2.024869 c -0.52916,-0.529156 -0.5434,-7.543446 -0.0206,-10.157365 0.2616,-1.307994 0.9937,-2.289338 2.15647,-2.890625 1.9841,-1.026005 8.69749,-1.246253 8.69749,-0.285335 0,0.34375 -1.34367,0.625 -2.98593,0.625 -1.69096,0 -3.58836,0.421955 -4.375,0.97294 -1.25935,0.882082 -1.38907,1.494918 -1.38907,6.5625 0,4.241298 -0.20101,5.58956 -0.83333,5.58956 -0.45834,0 -1.02084,-0.1875 -1.25,-0.416669 z M 90.3125,63.153731 C 87.958925,62.180229 86.114975,59.548597 85.830856,56.757666 85.104087,49.618413 93.7287,45.507545 98.798075,50.576923 104.62521,56.404054 97.942,66.309506 90.3125,63.153731 Z"
       id="path3834"
       inkscape:connector-curvature="0" />
    <path
       style="fill:#263238"
       d="m 187.87722,65.964625 -2.43528,-1.496363 2.23587,-0.934206 c 2.65167,-1.107939 3.58316,-3.604853 3.53343,-9.471556 -0.0468,-5.514574 -1.06164,-7.955672 -3.71124,-8.926574 l -2.1875,-0.801573 2.14649,0.340246 c 4.01873,0.637022 4.41601,1.509702 4.41601,9.700401 0,6.512521 -0.1358,7.429162 -1.25,8.4375 -1.51999,1.375575 -1.56147,2.057406 -0.21563,3.544538 1.41334,1.561718 0.39005,1.403137 -2.53215,-0.392413 z M 332.96875,64.640294 C 332.71094,64.3798 332.5,61.843006 332.5,59.002976 c 0,-3.765635 0.25483,-5.418518 0.9412,-6.10489 1.11056,-1.110566 3.37171,-1.918504 3.89757,-1.392652 0.20326,0.203261 -0.0648,0.369566 -0.59558,0.369566 -1.89689,0 -2.677,1.993611 -2.99319,7.649312 -0.17188,3.074288 -0.52344,5.376476 -0.78125,5.115982 z m -162.03125,-0.987 c -2.47027,-1.351134 -2.8125,-2.450427 -2.8125,-9.034133 0,-3.51556 0.17471,-6.847207 0.38824,-7.40366 0.49742,-1.296256 3.50331,-2.857027 5.36197,-2.784134 1.15529,0.04531 1.04425,0.170017 -0.56595,0.635614 -3.26352,0.943658 -3.93426,2.539886 -3.93426,9.362799 0,6.563933 0.97864,8.93787 3.91871,9.50577 1.20928,0.233581 1.22831,0.277975 0.14379,0.335331 -0.6875,0.03637 -1.8125,-0.241556 -2.5,-0.617587 z m 35,-0.02513 c -0.6875,-0.389856 -1.45663,-1.014113 -1.70918,-1.387242 -0.69585,-1.028098 -0.56825,-10.861578 0.14668,-11.303427 0.39707,-0.245408 0.625,1.465539 0.625,4.691703 0,5.505718 0.58472,7.265335 2.69711,8.116434 0.77594,0.312638 0.96067,0.559026 0.42789,0.570744 -0.51563,0.01131 -1.5,-0.298369 -2.1875,-0.688225 z M 221.36794,63.4126 c 1.78432,-0.968763 2.17876,-2.444177 2.58322,-9.662587 0.10655,-1.901499 0.24427,-0.730425 0.30823,2.62081 0.10723,5.619512 0.015,6.128779 -1.27346,7.031252 -0.76398,0.535113 -1.81867,0.961675 -2.34375,0.947913 -0.54835,-0.01438 -0.23946,-0.413344 0.72576,-0.937388 z m 15.35081,0.287337 C 234.69968,62.523938 235.55324,56.875 237.75,56.875 c 0.34722,0 0.29167,0.333333 -0.125,0.75 -1.28646,1.286465 -0.90971,4.692253 0.63907,5.777063 1.57282,1.101643 0.26687,1.353381 -1.54532,0.297875 z m 18.29596,-0.461168 c 0.9191,-0.744242 1.38068,-1.768424 1.33797,-2.968748 -0.0359,-1.007887 -0.0888,-3.022473 -0.11754,-4.476859 -0.0389,-1.966723 -0.39966,-2.887625 -1.4078,-3.59375 C 253.8247,51.497133 253.72688,51.25 254.45157,51.25 c 2.14403,0 3.04843,2.094091 3.04843,7.058473 0,4.078818 -0.17573,4.866596 -1.20891,5.41954 -1.96838,1.053443 -2.79177,0.737837 -1.27638,-0.489244 z m 30.88922,0.300568 c 0.8293,-0.606406 1.06256,-1.38262 0.85023,-2.829326 -0.18517,-1.261596 -0.0446,-1.912409 0.38286,-1.772386 1.20205,0.393769 1.19092,3.74325 -0.0154,4.625306 -0.61082,0.446638 -1.39183,0.812069 -1.73558,0.812069 -0.34375,0 -0.11071,-0.37605 0.51784,-0.835662 z m 13.82821,-0.146481 C 297.94159,61.602304 298.77049,56.875 300.875,56.875 c 0.34722,0 0.29167,0.333333 -0.125,0.75 -1.28646,1.286465 -0.90971,4.692253 0.63907,5.777063 1.08533,0.760193 1.16342,0.972937 0.35714,0.972937 -0.56756,0 -1.47389,-0.441962 -2.01407,-0.982144 z m 18.20212,0.350425 c 1.60917,-0.6481 2.61793,-4.590557 1.59408,-6.230007 -0.35646,-0.570777 -0.51056,-1.75732 -0.34244,-2.636763 0.22534,-1.178775 -0.0747,-1.865401 -1.14168,-2.612748 -1.59386,-1.11638 -0.55016,-1.395414 1.37187,-0.366773 1.04843,0.561107 1.20891,1.346338 1.20891,5.91551 0,4.569172 -0.16048,5.3544 -1.20891,5.915513 -0.6649,0.355843 -1.57896,0.629162 -2.03125,0.607368 -0.45229,-0.02181 -0.20505,-0.288231 0.54942,-0.5921 z M 88.375,61 c -1.615137,-1.615136 -2.125,-2.655094 -2.125,-4.334313 0,-3.276966 0.975106,-5.266505 3.265669,-6.663063 6.695675,-4.082352 13.939061,3.16103 9.856706,9.856705 C 97.975819,62.149896 95.986281,63.125 92.709313,63.125 91.030094,63.125 89.990138,62.615137 88.375,61 Z M 269.5,56.75 c -1.69672,-1.696719 0.13794,-5.5 2.65313,-5.5 0.34375,0 -8e-5,0.437823 -0.76406,0.97294 -1.51119,1.058478 -1.83238,3.333747 -0.63907,4.52706 0.41667,0.416667 0.47222,0.75 0.125,0.75 -0.34375,0 -0.9625,-0.3375 -1.375,-0.75 z"
       id="path3832"
       inkscape:connector-curvature="0" />
  </g>
</svg>
