<?xml version="1.0" encoding="UTF-8" standalone="no"?>
<!-- Created with Inkscape (http://www.inkscape.org/) -->

<svg
   xmlns:dc="http://purl.org/dc/elements/1.1/"
   xmlns:cc="http://creativecommons.org/ns#"
   xmlns:rdf="http://www.w3.org/1999/02/22-rdf-syntax-ns#"
   xmlns:svg="http://www.w3.org/2000/svg"
   xmlns="http://www.w3.org/2000/svg"
   xmlns:xlink="http://www.w3.org/1999/xlink"
   xmlns:sodipodi="http://sodipodi.sourceforge.net/DTD/sodipodi-0.dtd"
   xmlns:inkscape="http://www.inkscape.org/namespaces/inkscape"
   id="svg3736"
   version="1.1"
   inkscape:version="0.91 r13725"
   width="406.875"
   height="108.75"
   viewBox="0 0 406.875 108.75"
   sodipodi:docname="ReactNative.svg">
  <metadata
     id="metadata3742">
    <rdf:RDF>
      <cc:Work
         rdf:about="">
        <dc:format>image/svg+xml</dc:format>
        <dc:type
           rdf:resource="http://purl.org/dc/dcmitype/StillImage" />
        <dc:title></dc:title>
      </cc:Work>
    </rdf:RDF>
  </metadata>
  <defs
     id="defs3740" />
  <sodipodi:namedview
     pagecolor="#ffffff"
     bordercolor="#666666"
     borderopacity="1"
     objecttolerance="10"
     gridtolerance="10"
     guidetolerance="10"
     inkscape:pageopacity="0"
     inkscape:pageshadow="2"
     inkscape:window-width="640"
     inkscape:window-height="480"
     id="namedview3738"
     showgrid="false"
     inkscape:zoom="0.64393241"
     inkscape:cx="203.4375"
     inkscape:cy="54.375"
     inkscape:window-x="0"
     inkscape:window-y="0"
     inkscape:window-maximized="0"
     inkscape:current-layer="svg3736" />
  <image
     width="406.875"
     height="108.75"
     preserveAspectRatio="none"
     style="image-rendering:optimizeQuality"
     xlink:href="file:///media/havoc/USB%20DISK/pics/_Products/ReactNative.png"
     id="image3744"
     x="0"
     y="0"
     sodipodi:absref="/media/havoc/USB DISK/pics/_Products/ReactNative.png" />
  <g
     id="g3793">
    <path
       style="fill:#fdfdfd"
       d="M 0,54.375 0,0 203.4375,0 406.875,0 l 0,54.375 0,54.375 -203.4375,0 L 0,108.75 0,54.375 Z"
       id="path3809"
       inkscape:connector-curvature="0" />
    <path
       style="fill:#d0f3fc"
       d="M 52.8125,98.624931 C 51.78125,98.266669 49.874285,96.957838 48.574799,95.716425 44.572379,91.892863 43.40394,85.032719 45.259221,76.25 c 0.471995,-2.234375 0.762937,-4.164131 0.64654,-4.28835 -0.116399,-0.124219 -2.320672,-1.142694 -4.898386,-2.263269 -7.547183,-3.280887 -11.349796,-6.8233 -12.904583,-12.021561 -0.677873,-2.266391 -0.638003,-3.029296 0.284557,-5.444985 1.508332,-3.949509 6.663977,-8.483901 12.365516,-10.875476 5.128433,-2.151178 4.734724,-1.127373 3.896052,-10.131331 -1.199208,-12.874672 6.513215,-20.441324 16.744685,-16.428197 3.082723,1.209148 8.99691,5.066999 10.734517,7.002176 1.678525,1.869379 2.593643,1.677544 5.900975,-1.237014 5.966919,-5.258296 12.893187,-7.929435 17.409506,-6.714038 3.542556,0.953344 6.92322,4.546866 8.10638,8.616762 0.96952,3.335026 0.88953,10.620295 -0.16671,15.183759 -0.30799,1.330642 -0.13702,1.794938 0.7691,2.088685 7.93135,2.571176 15.96911,9.104112 16.82691,13.676602 1.06151,5.65831 -3.01541,11.277668 -11.12803,15.338168 -2.74504,1.373938 -5.36371,2.498069 -5.81924,2.498069 -1.35584,0 -1.43442,0.734669 -0.53485,5 1.85167,8.779731 0.68594,15.628269 -3.31696,19.486781 -3.4099,3.286907 -6.611769,4.083325 -10.879363,2.706075 -4.271712,-1.378575 -7.861156,-3.432881 -11.4979,-6.580462 C 76.217256,90.494331 74.724987,89.375 74.481781,89.375 c -0.243206,0 -1.828943,1.145944 -3.523862,2.546544 -4.119075,3.403806 -7.448088,5.268075 -11.540107,6.462543 -3.85438,1.1251 -4.040474,1.131882 -6.605312,0.240844 z M 61.605622,90.888 c 1.752334,-0.8866 4.428247,-2.689744 5.946472,-4.006987 L 70.3125,84.486031 68.390256,82.399262 c -1.057237,-1.147718 -2.810944,-3.247056 -3.897131,-4.665187 -1.88675,-2.463356 -2.199504,-2.613369 -7.008029,-3.361394 -2.768229,-0.430631 -5.164057,-0.65205 -5.324064,-0.492044 -0.160006,0.160007 -0.578465,2.516382 -0.929906,5.236388 -0.685298,5.303906 -0.361508,8.913437 1.046329,11.664225 0.749027,1.463531 1.270356,1.71875 3.510874,1.71875 1.587998,0 3.894443,-0.639125 5.817294,-1.612 z m 34.962553,0.12855 c 1.417537,-2.163431 1.798956,-6.951462 0.976194,-12.2543 -0.396575,-2.555994 -0.839232,-4.76545 -0.983682,-4.9099 -0.144456,-0.14445 -2.475618,0.08162 -5.180375,0.502381 l -4.917731,0.765013 -3.917706,4.710444 -3.917706,4.710437 1.780162,1.758475 c 0.979094,0.967163 3.451125,2.758019 5.4934,3.979688 4.70835,2.816481 9.106131,3.120631 10.667444,0.737762 z M 76.776175,77.5 l 1.386244,-1.875 -3.811269,0 -3.811269,0 L 71.875,77.5 c 0.734313,1.03125 1.825575,1.875 2.425025,1.875 0.599444,0 1.713713,-0.84375 2.47615,-1.875 z m 6.236475,-9.21875 c 0.701869,-0.601563 2.58405,-3.484375 4.182619,-6.40625 l 2.906494,-5.3125 -1.965025,-3.997469 c -1.080769,-2.198608 -2.928294,-5.503295 -4.105619,-7.34375 L 81.890525,41.875 l -7.506612,0 -7.506619,0 -1.872625,2.96875 c -1.02995,1.632812 -2.907502,4.959276 -4.172344,7.39214 l -2.299712,4.423391 3.276648,5.725841 c 1.802158,3.149216 3.749508,6.001697 4.327445,6.338853 0.577938,0.337156 4.324325,0.621569 8.325306,0.632019 6.043675,0.01581 7.490426,-0.166057 8.550638,-1.074744 z M 70.625,66.503562 c -3.252644,-1.408881 -5.469912,-3.839087 -6.596025,-7.229488 -0.922581,-2.777633 -0.922581,-3.270515 0,-6.048148 1.237438,-3.725571 3.560863,-6.031492 7.392894,-7.337196 2.694331,-0.91805 3.175681,-0.915268 6.036325,0.03488 5.767312,1.915594 9.083912,7.631022 7.568675,13.04293 -1.257406,4.491 -6.509919,8.590813 -10.901381,8.508994 C 73.403344,67.462097 71.828125,67.024691 70.625,66.50356 Z M 57.5,67.841906 c 0,-0.7357 -1.503468,-3.466906 -1.908454,-3.466906 -0.465817,0 -1.216546,1.546013 -1.216546,2.505287 0,0.290432 0.492187,0.656682 1.09375,0.813882 C 57.115858,68.124606 57.5,68.152544 57.5,67.841906 Z M 93.801119,67.5 c 0.751437,0 0.744481,-2.320794 -0.0084,-2.786069 -0.581913,-0.359656 -2.542744,1.9476 -2.542744,2.992007 0,0.304037 0.444875,0.382081 0.988619,0.173431 C 92.782356,67.670712 93.485481,67.5 93.801119,67.5 Z M 49.881038,60.837128 c 1.713993,-4.269147 1.832536,-4.96321 1.094162,-6.40625 C 50.519749,53.54077 49.640771,51.195312 49.021915,49.21875 48.343624,47.052356 47.543132,45.625 47.006466,45.625 c -1.585801,0 -8.696321,3.700536 -10.691203,5.564035 -2.595409,2.424476 -2.719769,5.986004 -0.293728,8.412046 1.664621,1.664621 9.745663,6.023919 11.166831,6.023919 0.42373,0 1.635433,-2.154544 2.692672,-4.787872 z m 57.593722,2.225478 c 7.35523,-3.68141 9.22455,-7.197183 5.91681,-11.128213 -1.68692,-2.004784 -10.26099,-6.623751 -11.51783,-6.204805 -0.80536,0.268453 -4.36779,8.950353 -4.371446,10.653525 -0.0013,0.588836 0.515718,2.416961 1.148837,4.0625 0.633125,1.645538 1.327425,3.484075 1.542889,4.085637 0.56907,1.588806 1.57927,1.385031 7.28074,-1.468644 z M 57.450952,45.46875 58.851949,43.125 l -1.769725,0.0096 c -3.01521,0.01631 -3.593266,0.743196 -2.712743,3.411208 0.826336,2.503821 0.971268,2.453165 3.081471,-1.077029 z m 37.52086,-0.925593 c 0.03063,-0.835739 -2.425875,-1.657981 -3.935374,-1.317254 -0.760819,0.171732 -0.628138,0.732849 0.704274,2.978331 l 1.641713,2.766735 0.780594,-1.829235 c 0.429331,-1.006078 0.793287,-2.175438 0.808793,-2.598577 z M 58.369606,36.567399 c 3.056408,-0.500928 5.601232,-0.988205 5.655169,-1.082838 0.05394,-0.09463 1.279794,-1.617343 2.724144,-3.383798 1.444344,-1.766457 2.626081,-3.66313 2.626081,-4.214831 0,-2.096711 -9.757996,-7.892697 -13.260473,-7.876361 -2.446056,0.01141 -3.149874,0.42072 -4.282329,2.490429 -1.392103,2.54425 -0.956261,15.024432 0.523459,14.989088 0.251264,-0.006 2.95754,-0.420762 6.013949,-0.921689 z M 97.28965,35.78125 C 98.0682,32.729401 97.828394,24.164225 96.9178,22.5 95.78535,20.430291 95.081531,20.020979 92.635475,20.009571 89.132994,19.993235 79.375,25.789221 79.375,27.885932 c 0,0.551701 1.181737,2.448374 2.626081,4.21483 1.44435,1.766456 2.645525,3.264479 2.669288,3.32894 0.0565,0.153204 9.694581,1.878552 11.098975,1.986863 0.692219,0.05339 1.239756,-0.535572 1.520306,-1.635315 z M 76.096881,34.21875 C 75.712031,33.050176 73.341506,32.909297 72.911663,34.029455 72.625112,34.776197 72.979081,35 74.4467,35 c 1.246525,0 1.818319,-0.270704 1.650181,-0.78125 z m 90.932039,35.397006 c -4.48776,-2.171187 -6.71395,-5.881519 -6.70693,-11.178256 0.009,-6.806926 3.15243,-11.527392 8.76217,-13.158186 2.77588,-0.806972 3.53641,-0.80824 6.18772,-0.01031 1.66257,0.500359 3.83502,1.687855 4.82768,2.638879 2.82116,2.702846 4.64395,10.223609 2.90044,11.967119 -0.48624,0.486246 -3.01389,0.75 -7.1875,0.75 -5.19315,0 -6.4375,0.174365 -6.4375,0.90206 0,1.15754 2.40406,2.848627 4.04532,2.845602 0.69695,-0.0012 2.21012,-0.577212 3.3626,-1.279837 1.91455,-1.167231 2.22065,-1.19544 3.54635,-0.326813 3.51113,2.300581 2.00556,5.695931 -3.33216,7.514675 -3.92031,1.335781 -6.13864,1.187806 -9.96819,-0.664931 z M 175,54.1875 c 0,-2.043679 -3.32736,-3.110141 -4.875,-1.5625 C 168.58126,54.168745 169.30313,55 172.1875,55 174.07853,55 175,54.733796 175,54.1875 Z m 13.9477,15.880944 c -4.95438,-2.311994 -6.18867,-8.323474 -2.52894,-12.316927 1.78875,-1.951865 2.61067,-2.319392 6.58733,-2.945561 4.01366,-0.631997 4.52245,-0.862856 4.36249,-1.979447 -0.27846,-1.943708 -2.79049,-1.97818 -4.56574,-0.06265 C 190.40187,55.354545 185,54.924301 185,52.142379 c 0,-2.488678 3.46712,-5.775225 7.25385,-6.876058 3.04455,-0.885074 3.69184,-0.88679 6.68134,-0.01772 3.47843,1.011208 5.57297,2.735202 6.59213,5.425926 0.75447,1.991894 1.15442,18.121275 0.47654,19.218113 -0.33818,0.547175 -1.8982,0.758687 -4.96719,0.673475 -2.4608,-0.06833 -5.59917,0.06629 -6.97417,0.299163 -1.85221,0.313681 -3.17754,0.107206 -5.1148,-0.796832 z M 196.75,63.625 c 0.4125,-0.4125 0.75,-1.396875 0.75,-2.1875 C 197.5,60.332108 197.14932,60 195.98214,60 194.72074,60 192.5,61.390955 192.5,62.181026 c 0,2.019755 2.74245,2.951524 4.25,1.443974 z m 18.87946,6.629388 c -4.37704,-1.898132 -6.5443,-4.927426 -7.23152,-10.107848 -0.95853,-7.22581 2.2767,-13.095503 8.16073,-14.806037 4.45304,-1.294534 8.11066,-0.457411 11.22754,2.569659 L 230,50.060172 230,48.18919 c 0,-1.425421 0.40931,-2.066453 1.71875,-2.691792 1.34179,-0.640789 1.78729,-1.367919 2.03125,-3.315354 0.31174,-2.488488 0.31982,-2.495011 3.32981,-2.687021 3.62092,-0.230984 4.79519,0.585184 4.79519,3.332865 0,1.700883 0.30915,2.1576 1.81604,2.682906 3.16423,1.103057 3.09382,5.398826 -0.0959,5.851807 -1.3228,0.187853 -1.41856,0.533171 -1.58911,5.730454 -0.18901,5.760032 0.30812,7.281945 2.37865,7.281945 2.1296,0 2.53495,3.705394 0.61534,5.625 -2.41274,2.412738 -8.51551,0.974994 -10.27099,-2.419725 -0.70367,-1.36075 -0.97901,-3.712438 -0.97901,-8.361737 0,-6.384529 -0.45181,-7.968538 -2.2729,-7.968538 -0.42509,0 -0.86103,0.914062 -0.96875,2.03125 -0.19042,1.974931 -0.28504,2.036426 -3.41287,2.217935 -2.96795,0.172231 -3.32207,0.03916 -4.57381,-1.71875 -2.95556,-4.150697 -6.70755,-1.036604 -6.11988,5.079399 0.29085,3.026952 1.80721,5.515166 3.36103,5.515166 0.45049,0 1.68222,-0.84375 2.73718,-1.875 1.90111,-1.858396 4.67569,-2.439887 7.13638,-1.495632 2.6904,1.032403 -0.27722,6.666994 -4.64194,8.813619 -3.28497,1.615588 -6.3197,1.757007 -9.36498,0.436401 z m 79.05804,0.09195 c -4.50943,-2.057788 -6.32949,-6.451769 -4.37687,-10.566617 1.34251,-2.829133 4.09258,-4.549519 8.12687,-5.084011 4.65556,-0.616802 4.85122,-0.721974 4.06746,-2.186437 -0.913,-1.705966 -2.62183,-1.584421 -4.26312,0.303227 -1.06293,1.222481 -1.95485,1.5625 -4.09868,1.5625 -3.5109,0 -4.60143,-1.134754 -3.54397,-3.687699 1.16403,-2.81021 3.30699,-4.43354 7.19198,-5.448052 3.195,-0.83433 3.86334,-0.828098 6.47939,0.06041 6.27333,2.130658 6.80325,3.278673 7.07412,15.325339 l 0.21782,9.6875 -5,0.1217 c -2.75,0.06693 -6.125,0.267056 -7.5,0.444725 -1.47083,0.190044 -3.27188,-0.02919 -4.375,-0.532587 z M 302.375,63.625 c 1.05863,-1.058631 0.93137,-2.96963 -0.22736,-3.414278 -2.2824,-0.875842 -5.19865,2.15494 -3.60597,3.747609 0.67909,0.679094 3.02489,0.475113 3.83333,-0.333331 z m 16.57114,6.406106 c -2.90446,-1.770975 -3.32114,-3.017937 -3.32114,-9.9389 0,-7.160745 -0.2411,-8.102185 -2.27274,-8.874614 -1.16971,-0.444722 -1.47726,-1.023082 -1.47726,-2.778022 0,-1.763228 0.32252,-2.363318 1.57749,-2.935119 1.47172,-0.670561 1.83063,-1.379243 2.31298,-4.566951 0.16269,-1.075123 0.66886,-1.25 3.61809,-1.25 l 3.42894,0 0.58444,2.635441 c 0.46093,2.078446 0.95628,2.76506 2.34375,3.248738 1.4902,0.519484 1.75931,0.957852 1.75931,2.865821 0,1.940887 -0.25941,2.342954 -1.875,2.906153 l -1.875,0.653628 0,5.864452 c 0,5.750498 0.0307,5.872155 1.57899,6.260755 0.86844,0.217962 1.85282,0.907956 2.1875,1.533318 2.33527,4.363494 -3.61106,7.399194 -8.57035,4.3753 z m 50.51153,-0.419469 c -10.17326,-5.06955 -8.86226,-20.946865 2.00992,-24.341912 3.01863,-0.942626 3.43157,-0.933646 6.60593,0.143649 4.40813,1.496007 6.81269,4.378547 7.33561,8.793809 0.20768,1.753576 0.19523,3.914956 -0.0277,4.803068 -0.40352,1.607843 -0.43327,1.614749 -6.95585,1.614749 -5.2917,0 -6.55059,0.173358 -6.55059,0.90206 0,1.13359 2.39072,2.84794 3.97154,2.84794 0.65638,0 2.14807,-0.590006 3.31486,-1.311125 1.96624,-1.215203 2.23107,-1.239283 3.62012,-0.32915 3.55848,2.331606 2.08527,5.716325 -3.28441,7.545962 -4.00363,1.364169 -6.26122,1.213719 -10.03944,-0.66905 z M 377.5,54.1875 c 0,-2.307369 -3.48067,-3.086653 -5.21699,-1.16803 C 370.9169,54.528995 371.51351,55 374.79167,55 376.59722,55 377.5,54.729167 377.5,54.1875 Z M 133.90237,69.902375 C 132.81083,68.810831 132.78531,38.714697 133.875,37.625 c 0.49342,-0.493421 3.12804,-0.75 7.70116,-0.75 7.88694,0 11.70013,0.970195 14.23499,3.621822 3.39463,3.551006 3.33944,10.553186 -0.11123,14.113374 -1.07245,1.106497 -1.94992,2.318237 -1.94992,2.692755 0,0.374518 1.29274,3.111053 2.87277,6.081187 1.58002,2.970137 2.71385,5.814387 2.51962,6.320556 -0.25039,0.6525 -1.33098,0.920306 -3.71341,0.920306 -4.01336,0 -4.65799,-0.570194 -7.98352,-7.061675 -2.04855,-3.998811 -2.50523,-4.500825 -4.09435,-4.500825 l -1.78861,0 -0.3125,5.625 -0.3125,5.625 -3.12888,0.183625 c -1.89358,0.111131 -3.43578,-0.123281 -3.90625,-0.59375 z M 148.75,50.625 c 2.43099,-2.430985 0.91286,-5.836886 -2.87573,-6.45169 -3.54489,-0.575257 -4.62427,0.327949 -4.62427,3.869513 0,1.649364 0.1875,3.186344 0.41667,3.41551 0.97295,0.972959 5.85092,0.399082 7.08333,-0.833333 z m 110.90684,19.207994 c -0.16715,-0.435606 -0.22863,-7.959045 -0.13663,-16.718753 l 0.16729,-15.926741 2.44042,-0.199742 c 4.44727,-0.363996 4.84096,-0.02044 10.41575,9.089643 l 5.26883,8.610099 0.3125,-8.125 c 0.17187,-4.46875 0.54004,-8.476563 0.81814,-8.90625 0.6488,-1.002458 6.18655,-1.026554 7.18186,-0.03125 1.06647,1.066473 1.06647,31.183525 0,32.25 -0.77676,0.776763 -5.30313,1.02615 -6.97566,0.384338 -0.5241,-0.201113 -3.14867,-3.996857 -5.83237,-8.43498 -2.68371,-4.438126 -5.09041,-8.070453 -5.34822,-8.071839 -0.25781,-0.0014 -0.46875,3.456856 -0.46875,7.684981 0,5.145831 -0.24797,7.935469 -0.75,8.4375 -1.01554,1.015537 -6.70025,0.981875 -7.09316,-0.042 z m 70.49553,0.06938 C 329.58911,69.339106 329.375,65.970644 329.375,57.672031 l 0,-11.45297 1.71875,-0.668069 c 1.06758,-0.41496 2.54752,-0.468298 3.90625,-0.140781 l 2.1875,0.527289 0,12.1875 0,12.1875 -3.12888,0.183625 c -1.89358,0.111131 -3.43578,-0.123281 -3.90625,-0.59375 z m 17.4692,0.185988 c -1.0057,-0.637857 -8.40955,-22.512153 -7.9899,-23.605737 0.4362,-1.136723 4.5667,-1.763747 6.32904,-0.96077 1.09485,0.498845 1.75296,1.638618 2.48128,4.29728 0.54516,1.9901 1.36556,4.462114 1.8231,5.493364 l 0.83189,1.875 1.37864,-4.6875 c 0.75825,-2.578125 1.4886,-5.043284 1.62299,-5.47813 0.61611,-1.993448 7.40066,-2.478231 8.12877,-0.580831 0.35376,0.921887 -6.1997,20.663811 -7.53701,22.704798 -0.76846,1.172807 -1.51634,1.477182 -3.61103,1.469594 -1.45301,-0.005 -3.00901,-0.24245 -3.45777,-0.527068 z m -17.2122,-27.481326 c -1.30652,-1.443686 -1.33228,-4.094841 -0.0523,-5.374894 1.42226,-1.422261 5.0032,-1.2468 6.57202,0.322018 1.4791,1.4791 1.22934,4.07806 -0.52033,5.414589 -1.51208,1.155036 -4.80659,0.956407 -5.99947,-0.361713 z"
       id="path3807"
       inkscape:connector-curvature="0" />
    <path
       style="fill:#aeecfc"
       d="M 52.175879,97.912825 C 49.583987,96.737019 46.451747,93.015106 45.66258,90.173331 44.768553,86.953956 44.854364,80.506969 45.854803,75.731787 L 46.683556,71.776081 41.369113,69.3208 C 34.851511,66.309656 31.154411,63.363275 29.433838,59.809041 27.808661,56.451875 27.783081,54.37042 29.329739,51.338718 c 1.801975,-3.532163 5.868944,-6.847521 11.71058,-9.546365 l 5.224997,-2.413955 -0.476409,-2.657949 C 45.526884,35.258577 45.312525,31.53125 45.312555,28.4375 c 4.8e-5,-4.839644 0.218202,-6.014301 1.5625,-8.413311 0.859345,-1.533572 2.518099,-3.43201 3.686122,-4.21875 4.680893,-3.152895 12.800942,-1.045571 19.899929,5.16445 1.747944,1.529061 3.511419,2.780111 3.918832,2.780111 0.407412,0 2.049531,-1.15629 3.649156,-2.569533 6.158431,-5.440882 12.931518,-8.061456 17.592,-6.806519 3.029319,0.815711 6.578736,4.696835 7.542036,8.24688 0.7205,2.65522 0.48843,12.484514 -0.36032,15.261469 -0.35569,1.163761 0.28882,1.656533 5.45138,4.167975 17.96676,8.740315 16.37532,20.342162 -3.94397,28.75229 l -2.25229,0.932219 0.83301,3.976363 c 1.00727,4.808168 1.09116,11.240412 0.18899,14.489343 -0.86373,3.110438 -4.447042,7.034957 -7.275724,7.9685 -4.35055,1.435813 -12.228094,-1.667731 -18.410675,-7.253318 -2.760225,-2.4937 -3.224356,-2.409 -7.706031,1.406306 -5.60225,4.769269 -13.655219,7.3403 -17.511621,5.59085 z m 9.449784,-6.410281 C 65.593487,89.4 70,85.788713 70,84.639488 70,84.143481 68.324375,81.670919 66.276387,79.1449 c -3.35415,-4.137063 -3.989786,-4.629294 -6.40625,-4.960956 -1.47545,-0.202507 -3.858277,-0.556413 -5.29517,-0.786463 l -2.612533,-0.418262 -0.734832,2.728962 c -1.136568,4.220894 -1.019546,12.354069 0.211567,14.7041 0.568992,1.086131 1.392011,2.118619 1.828931,2.294413 2.005359,0.80685 5.517414,0.300831 8.357563,-1.20415 z m 34.591368,0.405425 c 2.175081,-2.175081 2.777407,-5.9394 1.955394,-12.220469 -0.404881,-3.09375 -0.966875,-5.856 -1.248875,-6.138337 -0.282,-0.282332 -2.804331,-0.162532 -5.605181,0.266231 l -5.092463,0.779569 -4.107062,5.046268 -4.107063,5.046269 2.866256,2.598925 c 5.757375,5.220381 12.660338,7.3002 15.338994,4.621544 z M 77.113319,77.8542 C 78.013494,76.674013 78.75,75.549013 78.75,75.3542 78.75,75.159388 76.78125,75 74.375,75 71.96875,75 70,75.184387 70,75.409756 70,76.481394 73.321131,80 74.332625,80 c 0.629206,0 1.880519,-0.965612 2.780694,-2.1458 z m 6.458894,-9.254025 c 0.659731,-0.598025 2.533181,-3.616769 4.163218,-6.708316 l 2.963706,-5.620993 -2.611093,-5.018842 C 86.65195,48.491661 84.664756,45.111966 83.672056,43.741591 L 81.867163,41.25 l -7.508688,0 -7.508688,0 -2.73305,4.224859 c -1.503175,2.323672 -3.502441,5.793623 -4.442811,7.711002 l -1.709765,3.486144 3.36167,5.866195 c 1.951613,3.405606 4.017063,6.208325 4.924169,6.681856 2.457794,1.283032 15.747606,0.80745 17.322212,-0.619881 z m -13.433057,-2.76325 c -2.688562,-1.325169 -4.928437,-4.051091 -5.846437,-7.115091 -1.494032,-4.986631 2.018812,-10.87882 7.457225,-12.508208 3.633231,-1.088543 7.211306,0.03728 10.252181,3.225774 3.827163,4.012973 3.953888,9.341434 0.320563,13.479563 -3.3817,3.851543 -8.030532,4.964943 -12.183532,2.917962 z M 58.122664,67.96875 c -0.0013,-0.429688 -0.59542,-1.754131 -1.320301,-2.943206 l -1.317964,-2.161957 -0.914237,1.744882 c -0.50283,0.959687 -0.769643,2.121694 -0.592918,2.582231 0.276807,0.721344 0.893267,0.968362 3.679006,1.474187 0.257812,0.04681 0.467699,-0.26645 0.466414,-0.696137 z m 36.45923,-0.310844 C 95.154731,67.33335 94.578769,64.362162 93.785025,63.548 93.266044,63.015594 90.625,66.781919 90.625,68.054431 c 0,0.665944 2.528931,0.412519 3.956894,-0.396525 z M 50.132253,61.525771 c 1.992517,-4.837529 1.965986,-5.490545 -0.489067,-12.037539 -1.618742,-4.316765 -1.805373,-4.551663 -3.315302,-4.172695 -3.065881,0.769487 -8.232528,3.546361 -10.397656,5.588339 -3.689007,3.479182 -2.804312,7.76322 2.276469,11.023548 3.200482,2.053745 8.598108,4.367964 9.55974,4.098714 0.318415,-0.08915 1.383032,-2.114319 2.365816,-4.500367 z m 56.716377,2.451579 c 4.5668,-2.044492 7.17396,-4.117689 8.15417,-6.484115 1.08739,-2.625182 -0.27852,-5.529634 -3.80023,-8.080745 -2.73336,-1.980034 -9.08955,-4.633366 -9.89983,-4.132588 -0.26412,0.163236 -1.417052,2.720017 -2.562071,5.681735 -2.279213,5.895431 -2.295694,5.606854 0.723831,12.675394 1.30209,3.048113 1.33257,3.049519 7.38413,0.340319 z M 57.808379,45.888149 c 0.922252,-1.573704 1.524395,-3.013709 1.338094,-3.20001 -0.186301,-0.1863 -1.642562,-0.143206 -3.236136,0.09577 -3.137714,0.470529 -3.195735,0.661418 -1.531518,5.03864 0.762947,2.006705 1.296181,1.705942 3.42956,-1.934395 z m 36.577102,1.896787 c 1.648182,-4.335056 1.587569,-4.531151 -1.545818,-5.001032 -1.593575,-0.238971 -3.041782,-0.290118 -3.218238,-0.113661 -0.411362,0.411364 3.031563,6.683781 3.675294,6.695752 0.266319,0.0049 0.756262,-0.706524 1.088762,-1.581059 z M 57.5,37.224882 c 2.921875,-0.483061 5.734375,-1.060074 6.25,-1.282251 1.313412,-0.565934 6.25,-6.922814 6.25,-8.048167 0,-1.291515 -3.982294,-4.458946 -8.381076,-6.666132 -3.598584,-1.805667 -6.096304,-2.254484 -8.153423,-1.465094 -1.776259,0.681615 -3.008035,4.040233 -3.05829,8.338873 -0.05312,4.543967 0.686353,10.028796 1.349835,10.011977 0.23675,-0.006 2.821079,-0.406144 5.742954,-0.889206 z M 97.906981,35.15625 c 0.265963,-1.632813 0.462075,-4.807175 0.435807,-7.054139 C 98.247656,19.964624 94.965294,17.575463 88.136331,20.673052 84.365437,22.383513 78.75,26.688663 78.75,27.869209 c 0,1.541031 5.172719,7.681956 6.875,8.16183 1.786075,0.503495 9.161794,1.883211 10.742956,2.009597 0.794419,0.0635 1.17505,-0.649859 1.539025,-2.884386 z M 76.875,34.8125 c 0,-2.264383 -3.285931,-3.097443 -4.353013,-1.103588 C 71.555394,35.515008 71.661769,35.625 74.375,35.625 c 1.634613,0 2.5,-0.28125 2.5,-0.8125 z m 91.98052,34.91185 c -5.20343,-1.677006 -7.76177,-5.396494 -7.76177,-11.284568 0,-4.774697 1.68752,-8.728048 4.68572,-10.977178 1.70354,-1.277935 2.74207,-1.525104 6.40803,-1.525104 4.79354,0 6.79184,0.966266 8.73576,4.224132 1.36427,2.286405 2.27603,8.0314 1.43742,9.057118 C 181.9247,59.752006 179.6748,60 175.27286,60 c -3.547,0 -6.61932,0.275438 -6.82738,0.612083 -0.64179,1.038439 0.78316,2.925642 2.85794,3.785042 1.60915,0.666538 2.33909,0.670694 3.93013,0.02237 3.52364,-1.435781 4.43699,-1.444481 5.69513,-0.05425 1.48392,1.639713 0.86678,2.882519 -2.22249,4.475694 -3.04098,1.568275 -6.70585,1.896937 -9.85067,0.8834 z M 175.625,54.049101 c 0,-3.021954 -5.37471,-3.727412 -6.88586,-0.903805 -1.02533,1.915841 -0.23282,2.479704 3.48525,2.479704 3.21836,0 3.40061,-0.08446 3.40061,-1.575899 z m 14.45126,15.717011 C 187.13809,68.703169 185,66.0353 185,63.432056 c 0,-4.875974 2.8993,-7.440062 9.21875,-8.152892 3.45674,-0.389917 3.90625,-0.596753 3.90625,-1.797393 0,-2.881882 -2.9862,-3.792219 -5.30226,-1.616387 -1.80875,1.699233 -4.70789,2.186235 -6.24323,1.048749 -1.12364,-0.83248 -1.15334,-1.06229 -0.3349,-2.591552 1.73996,-3.25116 4.1954,-4.385081 9.4956,-4.385081 4.46979,0 4.9365,0.128174 6.7327,1.849046 2.70385,2.590457 3.25136,5.13495 3.03146,14.088454 l -0.19187,7.8125 -1.76284,0.202019 c -0.96957,0.111112 -2.51645,-0.05763 -3.4375,-0.374988 -1.13568,-0.391306 -2.3787,-0.320762 -3.86216,0.219181 -2.71496,0.988175 -3.52014,0.9924 -6.17374,0.03238 z m 7.77366,-6.298012 c 1.39427,-2.127915 0.67266,-4.0931 -1.50297,-4.0931 -2.11988,0 -4.47195,1.596521 -4.47195,3.03544 0,2.854785 4.2988,3.615747 5.97493,1.05766 z m 18.71258,6.393444 c -5.26596,-1.867025 -7.39676,-5.340119 -7.39229,-12.049044 0.006,-8.510669 4.88312,-13.065872 12.84651,-11.997756 3.13384,0.420335 5.4096,2.019068 6.99576,4.914565 1.64597,3.00467 1.03076,4.270691 -2.0753,4.270691 -2.03893,0 -2.71321,-0.331642 -3.81218,-1.875 -1.74727,-2.45381 -4.37788,-2.550566 -6.20464,-0.228213 -2.33502,2.968501 -1.32677,10.612919 1.54514,11.714975 1.7792,0.682738 2.55584,0.429582 4.56111,-1.486762 1.98253,-1.894609 4.52202,-2.418561 6.29188,-1.298154 0.72584,0.459493 0.74536,0.885129 0.11083,2.417004 -1.09855,2.652156 -3.71767,4.906163 -6.61682,5.694431 -2.97482,0.80885 -3.78008,0.798963 -6.25,-0.07674 z m 21.87476,-0.102738 c -3.35013,-1.460056 -3.72363,-2.437093 -4.06226,-10.626487 -0.31021,-7.501983 -0.32511,-7.563446 -2.03125,-8.378973 -2.47401,-1.182564 -2.26336,-3.375055 0.46875,-4.878877 0.78053,-0.429621 1.32778,-1.483881 1.45709,-2.807038 0.23962,-2.451682 0.93264,-3.044599 3.57416,-3.05786 2.45574,-0.01233 3.40625,0.983467 3.40625,3.568554 0,1.809027 0.24279,2.126684 1.875,2.453125 1.62179,0.324359 1.875,0.649306 1.875,2.40625 0,1.756944 -0.25321,2.081891 -1.875,2.40625 l -1.875,0.375 0,6.140625 c 0,6.32535 0.44982,7.640625 2.61309,7.640625 0.68482,0 1.27417,0.641756 1.53172,1.66795 0.32407,1.291156 0.0993,1.9265 -0.99483,2.8125 -1.64994,1.336044 -3.35337,1.415562 -5.96272,0.278356 z m 56.20283,-0.31825 c -1.79295,-0.814318 -2.88447,-1.867268 -3.68545,-3.555206 -1.0217,-2.153075 -1.0488,-2.654231 -0.26508,-4.902664 1.15697,-3.31931 3.92362,-5.117518 8.73226,-5.67562 4.03877,-0.468749 4.88045,-1.232318 3.72932,-3.383228 -0.90767,-1.695997 -4.01302,-1.751773 -5.1749,-0.09295 -1.77343,2.531933 -6.72624,2.389395 -6.72624,-0.193576 0,-4.391336 8.93794,-7.517411 14.65896,-5.127019 3.76856,1.574606 4.36194,3.257483 4.74534,13.458218 0.22567,6.004205 0.1195,9.249999 -0.3125,9.553167 -0.94206,0.661119 -3.97991,0.582181 -5.32635,-0.138412 -0.81131,-0.4342 -1.8106,-0.341707 -3.37634,0.3125 -2.85749,1.193937 -3.89135,1.156237 -6.99902,-0.255213 z m 8.12577,-5.639012 c 1.34421,-1.485341 1.06685,-4.025916 -0.47154,-4.319257 -3.30619,-0.630423 -6.08967,1.847326 -4.79432,4.267713 0.86686,1.61975 3.82048,1.648662 5.26586,0.05156 z m 16.92164,5.772494 c -1.03125,-0.550507 -2.15625,-1.453307 -2.5,-2.006225 -0.34375,-0.552926 -0.76563,-4.377338 -0.9375,-8.4987 -0.30994,-7.431872 -0.32661,-7.500135 -2.03125,-8.315354 -2.39409,-1.144936 -2.33531,-3.527822 0.11831,-4.796639 1.46128,-0.755658 1.87678,-1.430132 2.03125,-3.2973 0.1933,-2.336573 0.20706,-2.34732 3.00669,-2.34732 2.80926,0 2.81272,0.0027 3.00939,2.392623 0.17012,2.067209 0.4942,2.516847 2.38288,3.305986 1.8337,0.76617 2.1545,1.185501 1.99061,2.602033 -0.12801,1.106336 -0.62644,1.767588 -1.44538,1.917519 -2.46264,0.45086 -2.81283,1.311613 -2.80293,6.889617 0.0107,6.008247 0.21882,6.597247 2.6594,7.525153 2.38849,0.9081 2.45477,4.175838 0.10284,5.070038 -2.18275,0.829881 -3.38008,0.735237 -5.58431,-0.441431 z m 51.47096,0.09753 c -7.10438,-2.254725 -9.9737,-10.943085 -6.11309,-18.510516 1.57668,-3.090536 4.26712,-4.888521 7.9715,-5.32725 3.98859,-0.472389 7.08637,0.594423 9.40964,3.240484 1.97925,2.254239 3.03353,6.507671 2.31885,9.355207 C 384.35591,59.981159 384.27304,60 377.83747,60 c -3.58253,0 -6.68393,0.275438 -6.89199,0.612083 -0.64179,1.038439 0.78316,2.925642 2.85794,3.785042 1.60915,0.666538 2.33909,0.670694 3.93013,0.02237 3.65563,-1.489563 4.55826,-1.490556 5.59796,-0.0062 1.25397,1.790287 0.54831,3.211044 -2.25572,4.541644 -3.1472,1.493443 -6.66797,1.747837 -9.91733,0.716581 z M 378.125,54.049101 c 0,-3.021954 -5.37471,-3.727412 -6.88586,-0.903805 -1.02533,1.915841 -0.23281,2.479704 3.48525,2.479704 3.21836,0 3.40061,-0.08446 3.40061,-1.575899 z M 134.5,69.25 c -1.06526,-1.065263 -1.06526,-29.934738 0,-31 1.0979,-1.097903 12.05069,-0.964539 15.95274,0.194244 2.12568,0.631258 3.82061,1.674301 5.11343,3.146748 1.66175,1.89262 1.93383,2.687451 1.93383,5.649293 0,3.906937 -1.08442,6.454557 -3.49484,8.210428 l -1.65484,1.205465 2.94806,5.750426 c 1.62144,3.162734 2.78894,6.165096 2.59446,6.671909 -0.36515,0.951556 -3.76295,1.267868 -5.68724,0.529449 -0.56189,-0.215618 -2.10744,-2.551618 -3.43456,-5.191106 -2.79745,-5.563872 -3.67481,-6.456209 -6.077,-6.180767 -1.75444,0.20117 -1.75676,0.207732 -1.94027,5.494011 -0.11332,3.264444 -0.47258,5.476181 -0.9375,5.771675 -1.16583,0.740981 -4.4805,0.584 -5.31627,-0.251775 z m 15.17001,-18.352554 c 1.06735,-1.411046 1.21209,-3.62423 0.34318,-5.247795 -1.13508,-2.120928 -7.07218,-3.34066 -8.63819,-1.774651 -0.81576,0.815763 -1.04293,7.493864 -0.28125,8.268226 0.25781,0.262107 2.08701,0.36127 4.06488,0.220363 2.61914,-0.186593 3.84479,-0.584916 4.51138,-1.466143 z m 110.61143,18.309498 c -0.16737,-0.436181 -0.22886,-7.678368 -0.13663,-16.09375 l 0.16769,-15.300694 2.31729,-0.192401 c 1.27451,-0.10582 2.83867,0.08663 3.47592,0.427679 0.63725,0.341043 3.53196,4.568484 6.43271,9.394312 2.90074,4.825827 5.48502,8.781809 5.74283,8.791071 0.25781,0.0093 0.46875,-3.657901 0.46875,-8.149249 0,-4.491349 0.29114,-8.710099 0.64699,-9.375 0.7474,-1.396524 4.85642,-1.705499 6.10301,-0.458912 1.06526,1.065262 1.06526,29.934737 0,31 -0.89944,0.899444 -4.51232,0.988075 -6.07986,0.149162 -0.61747,-0.330462 -3.29428,-4.252962 -5.94845,-8.716667 -2.65418,-4.463704 -5.22423,-8.446513 -5.71123,-8.850688 -0.75673,-0.62803 -0.88546,0.530147 -0.88546,7.966665 0,5.934522 -0.23849,8.940022 -0.75,9.451528 -1.00082,1.000819 -5.45558,0.967994 -5.84356,-0.04306 z m 70.40501,-0.0704 c -0.49352,-0.59465 -0.66327,-4.242813 -0.54528,-11.71875 l 0.17133,-10.855294 3.125,0 3.125,0 0.17112,11.203924 c 0.13051,8.545176 -0.0178,11.323826 -0.625,11.709182 -1.27786,0.810988 -4.64232,0.6006 -5.42217,-0.339062 z m 17.51431,0.298506 c -0.96131,-0.608875 -8.2914,-21.907746 -7.80854,-22.689048 0.49777,-0.805393 5.73969,-0.566986 6.27183,0.285248 0.2683,0.429687 1.19896,3.250904 2.06813,6.269369 0.86918,3.018467 1.86157,5.42844 2.20532,5.355498 0.56946,-0.120839 1.27049,-2.144831 3.37694,-9.749867 l 0.73573,-2.65625 3.06303,0 c 1.68467,0 3.21029,0.238273 3.39027,0.529496 0.46594,0.7539 -6.9789,22.114067 -7.91474,22.708398 -1.03829,0.659387 -4.31421,0.627256 -5.38797,-0.05281 z M 331.09375,42.449938 c -1.2564,-0.731785 -1.46792,-3.700765 -0.34375,-4.824938 1.3736,-1.373599 4.74319,-0.907194 5.86998,0.8125 0.94838,1.447419 0.94838,1.677581 0,3.125 -1.09312,1.668302 -3.51722,2.05758 -5.52623,0.887438 z"
       id="path3805"
       inkscape:connector-curvature="0" />
    <path
       style="fill:#8fe6fc"
       d="M 52.175879,97.912825 C 49.583987,96.737019 46.451747,93.015106 45.66258,90.173331 44.768553,86.953956 44.854364,80.506969 45.854803,75.731787 L 46.683556,71.776081 41.369113,69.3208 C 34.851511,66.309656 31.154411,63.363275 29.433838,59.809041 27.808661,56.451875 27.783081,54.37042 29.329739,51.338718 c 1.801975,-3.532163 5.868944,-6.847521 11.71058,-9.546365 l 5.224997,-2.413955 -0.476409,-2.657949 C 45.526884,35.258577 45.312525,31.53125 45.312555,28.4375 c 4.8e-5,-4.839644 0.218202,-6.014301 1.5625,-8.413311 0.859345,-1.533572 2.518099,-3.43201 3.686122,-4.21875 4.680893,-3.152895 12.800942,-1.045571 19.899929,5.16445 1.747944,1.529061 3.511419,2.780111 3.918832,2.780111 0.407412,0 2.049531,-1.15629 3.649156,-2.569533 6.158431,-5.440882 12.931518,-8.061456 17.592,-6.806519 3.029319,0.815711 6.578736,4.696835 7.542036,8.24688 0.7205,2.65522 0.48843,12.484514 -0.36032,15.261469 -0.35569,1.163761 0.28882,1.656533 5.45138,4.167975 17.96676,8.740315 16.37532,20.342162 -3.94397,28.75229 l -2.25229,0.932219 0.83301,3.976363 c 1.00727,4.808168 1.09116,11.240412 0.18899,14.489343 -0.86373,3.110438 -4.447042,7.034957 -7.275724,7.9685 -4.35055,1.435813 -12.228094,-1.667731 -18.410675,-7.253318 -2.760225,-2.4937 -3.224356,-2.409 -7.706031,1.406306 -5.60225,4.769269 -13.655219,7.3403 -17.511621,5.59085 z m 9.449784,-6.410281 C 65.593487,89.4 70,85.788713 70,84.639488 70,84.143481 68.324375,81.670919 66.276387,79.1449 c -3.35415,-4.137063 -3.989786,-4.629294 -6.40625,-4.960956 -1.47545,-0.202507 -3.858277,-0.556413 -5.29517,-0.786463 l -2.612533,-0.418262 -0.734832,2.728962 c -1.136568,4.220894 -1.019546,12.354069 0.211567,14.7041 0.568992,1.086131 1.392011,2.118619 1.828931,2.294413 2.005359,0.80685 5.517414,0.300831 8.357563,-1.20415 z m 34.591368,0.405425 c 2.175081,-2.175081 2.777407,-5.9394 1.955394,-12.220469 -0.404881,-3.09375 -0.966875,-5.856 -1.248875,-6.138337 -0.282,-0.282332 -2.804331,-0.162532 -5.605181,0.266231 l -5.092463,0.779569 -4.107062,5.046268 -4.107063,5.046269 2.866256,2.598925 c 5.757375,5.220381 12.660338,7.3002 15.338994,4.621544 z M 77.113319,77.8542 C 78.013494,76.674013 78.75,75.549013 78.75,75.3542 78.75,75.159388 76.78125,75 74.375,75 71.96875,75 70,75.184387 70,75.409756 70,76.481394 73.321131,80 74.332625,80 c 0.629206,0 1.880519,-0.965612 2.780694,-2.1458 z m 6.458894,-9.254025 c 0.659731,-0.598025 2.533181,-3.616769 4.163218,-6.708316 l 2.963706,-5.620993 -2.611093,-5.018842 C 86.65195,48.491661 84.664756,45.111966 83.672056,43.741591 L 81.867163,41.25 l -7.508688,0 -7.508688,0 -2.73305,4.224859 c -1.503175,2.323672 -3.502441,5.793623 -4.442811,7.711002 l -1.709765,3.486144 3.36167,5.866195 c 1.951613,3.405606 4.017063,6.208325 4.924169,6.681856 2.457794,1.283032 15.747606,0.80745 17.322212,-0.619881 z m -13.433057,-2.76325 c -2.688562,-1.325169 -4.928437,-4.051091 -5.846437,-7.115091 -1.494032,-4.986631 2.018812,-10.87882 7.457225,-12.508208 3.633231,-1.088543 7.211306,0.03728 10.252181,3.225774 3.827163,4.012973 3.953888,9.341434 0.320563,13.479563 -3.3817,3.851543 -8.030532,4.964943 -12.183532,2.917962 z M 58.122664,67.96875 c -0.0013,-0.429688 -0.59542,-1.754131 -1.320301,-2.943206 l -1.317964,-2.161957 -0.914237,1.744882 c -0.50283,0.959687 -0.769643,2.121694 -0.592918,2.582231 0.276807,0.721344 0.893267,0.968362 3.679006,1.474187 0.257812,0.04681 0.467699,-0.26645 0.466414,-0.696137 z m 36.45923,-0.310844 C 95.154731,67.33335 94.578769,64.362162 93.785025,63.548 93.266044,63.015594 90.625,66.781919 90.625,68.054431 c 0,0.665944 2.528931,0.412519 3.956894,-0.396525 z M 50.132253,61.525771 c 1.992517,-4.837529 1.965986,-5.490545 -0.489067,-12.037539 -1.618742,-4.316765 -1.805373,-4.551663 -3.315302,-4.172695 -3.065881,0.769487 -8.232528,3.546361 -10.397656,5.588339 -3.689007,3.479182 -2.804312,7.76322 2.276469,11.023548 3.200482,2.053745 8.598108,4.367964 9.55974,4.098714 0.318415,-0.08915 1.383032,-2.114319 2.365816,-4.500367 z m 56.716377,2.451579 c 4.5668,-2.044492 7.17396,-4.117689 8.15417,-6.484115 1.08739,-2.625182 -0.27852,-5.529634 -3.80023,-8.080745 -2.73336,-1.980034 -9.08955,-4.633366 -9.89983,-4.132588 -0.26412,0.163236 -1.417052,2.720017 -2.562071,5.681735 -2.279213,5.895431 -2.295694,5.606854 0.723831,12.675394 1.30209,3.048113 1.33257,3.049519 7.38413,0.340319 z M 57.808379,45.888149 c 0.922252,-1.573704 1.524395,-3.013709 1.338094,-3.20001 -0.186301,-0.1863 -1.642562,-0.143206 -3.236136,0.09577 -3.137714,0.470529 -3.195735,0.661418 -1.531518,5.03864 0.762947,2.006705 1.296181,1.705942 3.42956,-1.934395 z m 36.577102,1.896787 c 1.648182,-4.335056 1.587569,-4.531151 -1.545818,-5.001032 -1.593575,-0.238971 -3.041782,-0.290118 -3.218238,-0.113661 -0.411362,0.411364 3.031563,6.683781 3.675294,6.695752 0.266319,0.0049 0.756262,-0.706524 1.088762,-1.581059 z M 57.5,37.224882 c 2.921875,-0.483061 5.734375,-1.060074 6.25,-1.282251 1.313412,-0.565934 6.25,-6.922814 6.25,-8.048167 0,-1.291515 -3.982294,-4.458946 -8.381076,-6.666132 -3.598584,-1.805667 -6.096304,-2.254484 -8.153423,-1.465094 -1.776259,0.681615 -3.008035,4.040233 -3.05829,8.338873 -0.05312,4.543967 0.686353,10.028796 1.349835,10.011977 0.23675,-0.006 2.821079,-0.406144 5.742954,-0.889206 z M 97.906981,35.15625 c 0.265963,-1.632813 0.462075,-4.807175 0.435807,-7.054139 C 98.247656,19.964624 94.965294,17.575463 88.136331,20.673052 84.365437,22.383513 78.75,26.688663 78.75,27.869209 c 0,1.541031 5.172719,7.681956 6.875,8.16183 1.786075,0.503495 9.161794,1.883211 10.742956,2.009597 0.794419,0.0635 1.17505,-0.649859 1.539025,-2.884386 z M 76.875,34.8125 c 0,-2.264383 -3.285931,-3.097443 -4.353013,-1.103588 C 71.555394,35.515008 71.661769,35.625 74.375,35.625 c 1.634613,0 2.5,-0.28125 2.5,-0.8125 z m 91.5625,34.248744 c -6.6279,-2.343338 -9.09731,-10.958058 -5.15668,-17.989452 2.01592,-3.597069 4.83026,-4.951478 9.70844,-4.672226 3.50226,0.200487 4.16026,0.458288 6.08671,2.384737 1.66037,1.660367 2.31374,2.991879 2.82487,5.756811 0.3657,1.978275 0.49289,3.875194 0.28265,4.215375 -0.21025,0.340181 -3.12441,0.618511 -6.47592,0.618511 -6.86212,0 -8.45426,0.633158 -7.53505,2.996519 0.30675,0.788712 1.57804,1.860325 2.82506,2.381362 2.06342,0.862157 2.54276,0.848307 5.33007,-0.154 2.89706,-1.041768 3.12092,-1.043168 4.1382,-0.02587 1.48904,1.489038 0.45618,2.954038 -3.0311,4.299269 -3.36017,1.296194 -5.72511,1.345869 -8.99725,0.188981 z m 7.08593,-13.360246 c 1.31215,-0.831712 0.58364,-3.376857 -1.26214,-4.409475 -2.13561,-1.194767 -4.84528,-0.35588 -5.9558,1.843856 -0.66568,1.318606 -0.6262,1.669659 0.26243,2.333371 1.18392,0.884266 5.68951,1.03471 6.95551,0.232248 z m 14.08801,13.433577 c -2.66683,-1.205294 -3.99022,-3.308844 -3.96656,-6.304894 0.0335,-4.238904 2.73731,-6.408176 8.82406,-7.079487 3.69908,-0.407973 3.98159,-0.550298 4.16049,-2.096011 0.13415,-1.159023 -0.23704,-1.95878 -1.23281,-2.65625 -1.94361,-1.361357 -2.84208,-1.260123 -5.0106,0.564567 -3.44773,2.901074 -7.49412,1.540815 -5.31404,-1.786401 1.61298,-2.461724 5.06176,-3.69504 9.53595,-3.410146 6.89357,0.43895 8.22985,2.748338 8.4451,14.595025 l 0.14719,8.101522 -4.31886,0.07452 c -2.37537,0.041 -5.44386,0.255606 -6.81886,0.476937 -1.61544,0.260031 -3.19033,0.09042 -4.45106,-0.479381 z m 7.78368,-4.506463 c 1.11974,-0.784293 1.38264,-1.484043 1.23282,-3.281248 -0.18398,-2.206885 -0.27043,-2.281902 -2.54878,-2.211781 -2.4834,0.07643 -4.82916,1.658186 -4.82916,3.256321 0,1.427646 1.89626,3.233596 3.3953,3.233596 0.72961,0 1.96703,-0.4486 2.74982,-0.996888 z m 19.46017,4.783738 c -5.57487,-1.693775 -8.19322,-6.956089 -7.16845,-14.407051 0.32282,-2.347208 0.99953,-3.742481 2.79803,-5.769136 l 2.37222,-2.673163 5.00584,0 c 5.46041,0 6.81971,0.668971 8.68378,4.273686 1.25437,2.425693 0.67339,3.538814 -1.84706,3.538814 -1.59703,0 -2.41634,-0.441967 -3.47583,-1.875 -4.22027,-5.708229 -10.41184,2.303464 -7.38277,9.553066 1.57633,3.77269 5.53618,4.441084 7.605,1.283665 0.81681,-1.24661 1.43471,-1.496909 3.31036,-1.340964 2.04163,0.169745 2.28616,0.369093 2.13235,1.738289 -0.46657,4.153163 -6.9629,7.218344 -12.03347,5.677794 z m 21.49283,-0.03156 c -2.74967,-1.109632 -3.34748,-2.94355 -3.35769,-10.300579 -0.01,-7.194819 -0.13516,-7.702599 -2.17793,-8.8353 -0.6875,-0.381215 -1.25,-1.194312 -1.25,-1.806884 0,-0.612572 0.5625,-1.425669 1.25,-1.806884 0.6875,-0.381213 1.36408,-0.760322 1.50351,-0.842464 0.13944,-0.08214 0.42546,-1.207141 0.63561,-2.5 0.36737,-2.260139 0.47794,-2.350652 2.87148,-2.350652 2.43442,0 2.4963,0.05508 2.8019,2.493949 0.23343,1.862946 0.62877,2.552029 1.5625,2.723505 3.37093,0.619055 3.69992,2.913042 0.60333,4.20688 l -2.20917,0.923051 0.17792,6.388808 0.17792,6.388782 2.03125,0.894044 c 4.96457,2.185118 0.47743,6.481037 -4.62063,4.423718 z m 56.62026,-0.367107 c -1.22051,-0.507337 -2.69707,-1.73155 -3.28125,-2.720475 -2.83919,-4.806367 0.3857,-9.636885 6.90295,-10.339837 4.10799,-0.443087 5.3905,-0.983435 5.6671,-2.387656 C 304.51129,52.275119 302.21397,50 300.6572,50 c -0.66979,0 -1.99122,0.716782 -2.93651,1.59285 -1.21866,1.129411 -2.27362,1.538559 -3.62595,1.40625 -2.66465,-0.260703 -2.81283,-2.197021 -0.3488,-4.557713 1.66485,-1.595021 2.48881,-1.87248 6.18003,-2.081053 4.92507,-0.278291 7.66215,0.778183 9.05214,3.493995 0.58526,1.143528 0.95031,4.600517 1.10433,10.458171 l 0.23006,8.75 -2.01778,0.194844 c -1.10978,0.107162 -2.49685,-0.07326 -3.08238,-0.400931 -0.71485,-0.400057 -1.8744,-0.310069 -3.52955,0.2739 -3.0297,1.068943 -3.8974,1.053799 -6.71441,-0.117157 z m 7.2047,-4.120306 c 1.81045,-0.824894 2.7131,-3.330517 1.74121,-4.833336 -0.77198,-1.193703 -4.68183,-1.23797 -6.09041,-0.06896 -1.30037,1.079208 -1.21007,4.170198 0.14487,4.95938 1.43762,0.837337 2.26597,0.826087 4.20433,-0.05706 z m 18.13942,4.516275 c -2.99027,-1.223894 -3.48869,-2.61955 -3.87801,-10.858979 -0.3604,-7.627725 -0.41042,-7.846367 -1.87928,-8.215027 -2.05997,-0.517018 -1.83084,-3.671363 0.28854,-3.972363 0.93823,-0.13325 1.43024,-0.653271 1.47834,-1.5625 0.0396,-0.74953 0.13744,-1.644031 0.21731,-1.987781 0.0799,-0.34375 0.18804,-0.976562 0.24041,-1.40625 0.0579,-0.474911 1.04925,-0.78125 2.52832,-0.78125 2.62331,0 3.19187,0.663162 3.19187,3.722992 0,1.439731 0.32868,1.811494 1.875,2.120758 1.4951,0.299019 1.875,0.697917 1.875,1.96875 0,1.270833 -0.3799,1.669731 -1.875,1.96875 l -1.875,0.375 0,6.829388 0,6.829387 1.875,0.653625 c 1.48024,0.516019 1.875,1.021438 1.875,2.400625 0,2.377238 -2.68901,3.244463 -5.9375,1.914875 z m 50.73987,-0.281431 c -3.1319,-1.160607 -4.7273,-2.6423 -6.12691,-5.690219 -1.68425,-3.667762 -1.50047,-7.579681 0.54329,-11.564464 2.28291,-4.451072 4.70329,-5.777782 9.98916,-5.475467 3.28563,0.187917 4.19279,0.507705 5.7952,2.042907 2.17846,2.087099 3.31788,5.272208 3.01731,8.434524 l -0.20792,2.1875 -6.3779,0.3125 c -3.52584,0.172756 -6.69596,0.631853 -7.08916,1.026651 -1.10192,1.106416 0.3816,3.29808 2.96232,4.376374 1.98931,0.831187 2.50941,0.813512 5.26989,-0.179144 2.82671,-1.016469 3.14099,-1.0231 4.07801,-0.08608 1.39145,1.39145 0.77025,2.583344 -2.04191,3.9178 -3.1796,1.508819 -6.90643,1.773619 -9.81138,0.697113 z m 7.00097,-13.445206 c 1.27712,-0.808814 0.34092,-3.711629 -1.462,-4.533091 -2.03283,-0.92622 -4.4857,-0.207437 -5.71986,1.67613 -0.82125,1.253375 -0.86864,1.737289 -0.24389,2.490077 0.85709,1.032724 5.97511,1.28559 7.42575,0.366884 z M 134.65601,68.580819 c -0.16761,-0.4368 -0.2291,-7.397737 -0.13663,-15.46875 L 134.6875,38.4375 140.625,38.236719 c 10.46159,-0.353766 15.02216,1.631706 16.24969,7.074402 0.85752,3.80213 0.0786,6.489335 -2.64822,9.135573 l -2.45413,2.381654 2.86383,5.297193 c 3.69276,6.830453 3.6926,7.373034 -0.002,7.127453 l -2.8662,-0.190494 -2.76542,-5.279556 c -2.9383,-5.609591 -3.52528,-6.258251 -5.67678,-6.273373 C 140.75569,57.491505 140,59.061566 140,64.419644 l 0,4.955356 -2.51961,0 c -1.46102,0 -2.64767,-0.333669 -2.82438,-0.794181 z m 12.76203,-16.057312 c 3.95523,-1.134347 5.10226,-5.060025 2.29787,-7.864416 C 148.43156,43.374744 147.57759,43.125 144.47028,43.125 140.23529,43.125 140,43.388514 140,48.131474 c 0,4.677463 2.09591,5.918398 7.41804,4.392033 z m 112.97895,14.930174 c -0.51606,-2.580281 -0.51622,-24.826264 -2e-4,-27.406359 0.3837,-1.918548 0.49105,-1.977763 3.25737,-1.796875 l 2.86058,0.187053 5.70747,9.375 c 3.13912,5.15625 5.96236,9.375 6.27388,9.375 0.31153,0 0.70703,-4.21875 0.87891,-9.375 l 0.3125,-9.375 2.8125,0 2.8125,0 0,15.3125 0,15.3125 -3.0677,0 -3.0677,0 -5.66745,-9.21875 c -3.11711,-5.070313 -6.01818,-9.21875 -6.44684,-9.21875 -0.57948,0 -0.82376,2.364629 -0.95235,9.21875 l -0.17296,9.21875 -2.57176,0.188056 c -2.44307,0.17865 -2.59163,0.08872 -2.96875,-1.796875 z m 70.67442,1.5344 C 330.82589,68.74255 330.625,63.672025 330.625,57.720241 l 0,-10.821426 1.51307,-0.379755 c 0.83218,-0.208866 2.02749,-0.280685 2.65625,-0.159598 1.05704,0.203568 1.14318,1.067188 1.14318,11.461597 l 0,11.241441 -2.20984,0.185994 c -1.21541,0.1023 -2.41072,-0.01487 -2.65625,-0.260413 z m 17.12323,-0.466675 c -0.38963,-0.469475 -2.26118,-5.439512 -4.15898,-11.044531 -3.66874,-10.835294 -3.67538,-11.197086 -0.20594,-11.217304 2.21335,-0.0129 2.75017,0.787151 4.22773,6.300854 2.3725,8.853257 3.23118,9.79652 4.42396,4.85974 1.40669,-5.822164 2.55935,-9.528704 3.20528,-10.306991 0.78462,-0.945418 4.66411,-1.187476 5.19758,-0.3243 0.40253,0.651305 -6.15862,20.473038 -7.18682,21.711945 -0.9299,1.120462 -4.57867,1.134112 -5.50281,0.02056 z M 330.64389,41.285291 c -1.1617,-2.170658 0.2168,-3.896162 2.92744,-3.664332 1.29152,0.110458 2.52959,0.654545 2.92468,1.285291 1.04789,1.672947 -0.27719,3.246363 -2.92468,3.472791 -1.73956,0.148778 -2.39315,-0.09542 -2.92744,-1.09375 z"
       id="path3803"
       inkscape:connector-curvature="0" />
    <path
       style="fill:#68dcfb"
       d="M 52.175879,97.912825 C 49.583987,96.737019 46.451747,93.015106 45.66258,90.173331 44.768553,86.953956 44.854364,80.506969 45.854803,75.731787 L 46.683556,71.776081 41.369113,69.3208 C 34.851511,66.309656 31.154411,63.363275 29.433838,59.809041 27.808661,56.451875 27.783081,54.37042 29.329739,51.338718 c 1.801975,-3.532163 5.868944,-6.847521 11.71058,-9.546365 l 5.224997,-2.413955 -0.476409,-2.657949 C 45.526884,35.258577 45.312525,31.53125 45.312555,28.4375 c 4.8e-5,-4.839644 0.218202,-6.014301 1.5625,-8.413311 0.859345,-1.533572 2.518099,-3.43201 3.686122,-4.21875 4.680893,-3.152895 12.800942,-1.045571 19.899929,5.16445 1.747944,1.529061 3.511419,2.780111 3.918832,2.780111 0.407412,0 2.049531,-1.15629 3.649156,-2.569533 6.158431,-5.440882 12.931518,-8.061456 17.592,-6.806519 3.029319,0.815711 6.578736,4.696835 7.542036,8.24688 0.7205,2.65522 0.48843,12.484514 -0.36032,15.261469 -0.35569,1.163761 0.28882,1.656533 5.45138,4.167975 17.96676,8.740315 16.37532,20.342162 -3.94397,28.75229 l -2.25229,0.932219 0.83301,3.976363 c 1.00727,4.808168 1.09116,11.240412 0.18899,14.489343 -0.86373,3.110438 -4.447042,7.034957 -7.275724,7.9685 -4.35055,1.435813 -12.228094,-1.667731 -18.410675,-7.253318 -2.760225,-2.4937 -3.224356,-2.409 -7.706031,1.406306 -5.60225,4.769269 -13.655219,7.3403 -17.511621,5.59085 z m 9.449784,-6.410281 C 65.593487,89.4 70,85.788713 70,84.639488 70,84.143481 68.324375,81.670919 66.276387,79.1449 c -3.35415,-4.137063 -3.989786,-4.629294 -6.40625,-4.960956 -1.47545,-0.202507 -3.858277,-0.556413 -5.29517,-0.786463 l -2.612533,-0.418262 -0.734832,2.728962 c -1.136568,4.220894 -1.019546,12.354069 0.211567,14.7041 0.568992,1.086131 1.392011,2.118619 1.828931,2.294413 2.005359,0.80685 5.517414,0.300831 8.357563,-1.20415 z m 34.591368,0.405425 c 2.175081,-2.175081 2.777407,-5.9394 1.955394,-12.220469 -0.404881,-3.09375 -0.966875,-5.856 -1.248875,-6.138337 -0.282,-0.282332 -2.804331,-0.162532 -5.605181,0.266231 l -5.092463,0.779569 -4.107062,5.046268 -4.107063,5.046269 2.866256,2.598925 c 5.757375,5.220381 12.660338,7.3002 15.338994,4.621544 z M 77.113319,77.8542 C 78.013494,76.674013 78.75,75.549013 78.75,75.3542 78.75,75.159388 76.78125,75 74.375,75 71.96875,75 70,75.184387 70,75.409756 70,76.481394 73.321131,80 74.332625,80 c 0.629206,0 1.880519,-0.965612 2.780694,-2.1458 z m 6.458894,-9.254025 c 0.659731,-0.598025 2.533181,-3.616769 4.163218,-6.708316 l 2.963706,-5.620993 -2.611093,-5.018842 C 86.65195,48.491661 84.664756,45.111966 83.672056,43.741591 L 81.867163,41.25 l -7.508688,0 -7.508688,0 -2.73305,4.224859 c -1.503175,2.323672 -3.502441,5.793623 -4.442811,7.711002 l -1.709765,3.486144 3.36167,5.866195 c 1.951613,3.405606 4.017063,6.208325 4.924169,6.681856 2.457794,1.283032 15.747606,0.80745 17.322212,-0.619881 z m -13.433057,-2.76325 c -2.688562,-1.325169 -4.928437,-4.051091 -5.846437,-7.115091 -1.494032,-4.986631 2.018812,-10.87882 7.457225,-12.508208 3.633231,-1.088543 7.211306,0.03728 10.252181,3.225774 3.827163,4.012973 3.953888,9.341434 0.320563,13.479563 -3.3817,3.851543 -8.030532,4.964943 -12.183532,2.917962 z M 58.122664,67.96875 c -0.0013,-0.429688 -0.59542,-1.754131 -1.320301,-2.943206 l -1.317964,-2.161957 -0.914237,1.744882 c -0.50283,0.959687 -0.769643,2.121694 -0.592918,2.582231 0.276807,0.721344 0.893267,0.968362 3.679006,1.474187 0.257812,0.04681 0.467699,-0.26645 0.466414,-0.696137 z m 36.45923,-0.310844 C 95.154731,67.33335 94.578769,64.362162 93.785025,63.548 93.266044,63.015594 90.625,66.781919 90.625,68.054431 c 0,0.665944 2.528931,0.412519 3.956894,-0.396525 z M 50.132253,61.525771 c 1.992517,-4.837529 1.965986,-5.490545 -0.489067,-12.037539 -1.618742,-4.316765 -1.805373,-4.551663 -3.315302,-4.172695 -3.065881,0.769487 -8.232528,3.546361 -10.397656,5.588339 -3.689007,3.479182 -2.804312,7.76322 2.276469,11.023548 3.200482,2.053745 8.598108,4.367964 9.55974,4.098714 0.318415,-0.08915 1.383032,-2.114319 2.365816,-4.500367 z m 56.716377,2.451579 c 4.5668,-2.044492 7.17396,-4.117689 8.15417,-6.484115 1.08739,-2.625182 -0.27852,-5.529634 -3.80023,-8.080745 -2.73336,-1.980034 -9.08955,-4.633366 -9.89983,-4.132588 -0.26412,0.163236 -1.417052,2.720017 -2.562071,5.681735 -2.279213,5.895431 -2.295694,5.606854 0.723831,12.675394 1.30209,3.048113 1.33257,3.049519 7.38413,0.340319 z M 57.808379,45.888149 c 0.922252,-1.573704 1.524395,-3.013709 1.338094,-3.20001 -0.186301,-0.1863 -1.642562,-0.143206 -3.236136,0.09577 -3.137714,0.470529 -3.195735,0.661418 -1.531518,5.03864 0.762947,2.006705 1.296181,1.705942 3.42956,-1.934395 z m 36.577102,1.896787 c 1.648182,-4.335056 1.587569,-4.531151 -1.545818,-5.001032 -1.593575,-0.238971 -3.041782,-0.290118 -3.218238,-0.113661 -0.411362,0.411364 3.031563,6.683781 3.675294,6.695752 0.266319,0.0049 0.756262,-0.706524 1.088762,-1.581059 z M 57.5,37.224882 c 2.921875,-0.483061 5.734375,-1.060074 6.25,-1.282251 1.313412,-0.565934 6.25,-6.922814 6.25,-8.048167 0,-1.291515 -3.982294,-4.458946 -8.381076,-6.666132 -3.598584,-1.805667 -6.096304,-2.254484 -8.153423,-1.465094 -1.776259,0.681615 -3.008035,4.040233 -3.05829,8.338873 -0.05312,4.543967 0.686353,10.028796 1.349835,10.011977 0.23675,-0.006 2.821079,-0.406144 5.742954,-0.889206 z M 97.906981,35.15625 c 0.265963,-1.632813 0.462075,-4.807175 0.435807,-7.054139 C 98.247656,19.964624 94.965294,17.575463 88.136331,20.673052 84.365437,22.383513 78.75,26.688663 78.75,27.869209 c 0,1.541031 5.172719,7.681956 6.875,8.16183 1.786075,0.503495 9.161794,1.883211 10.742956,2.009597 0.794419,0.0635 1.17505,-0.649859 1.539025,-2.884386 z M 76.875,34.8125 c 0,-2.264383 -3.285931,-3.097443 -4.353013,-1.103588 C 71.555394,35.515008 71.661769,35.625 74.375,35.625 c 1.634613,0 2.5,-0.28125 2.5,-0.8125 z m 92.79943,33.981744 c -4.20617,-1.008738 -6.54991,-3.7912 -7.49484,-8.897792 -0.60408,-3.264618 1.07756,-8.56541 3.43334,-10.822385 1.61688,-1.549066 2.50443,-1.86094 5.80416,-2.039494 4.33327,-0.234482 6.21227,0.47658 8.14714,3.0831 1.21781,1.640542 2.32312,6.407779 1.82922,7.889483 -0.16864,0.505898 -2.18648,0.742844 -6.32608,0.742844 -7.19052,0 -8.90925,0.741992 -7.72735,3.335977 0.40043,0.878848 1.49272,2.098935 2.4273,2.711298 1.87834,1.230731 6.16386,1.39655 7.27877,0.281631 0.8893,-0.889294 2.75174,-0.911662 3.29075,-0.0395 0.68395,1.106656 -1.49966,2.915275 -4.4021,3.646113 -3.01899,0.760194 -3.50851,0.7687 -6.26031,0.10875 z M 175.66609,56.22801 C 178.49674,54.713094 175.82389,50 172.13411,50 c -1.49171,0 -2.44793,0.505008 -3.64105,1.922953 -1.89487,2.251921 -2.03524,3.396952 -0.52431,4.276985 1.43177,0.83393 6.15936,0.851172 7.69734,0.02807 z m 14.66137,12.484534 c -2.49167,-0.743482 -4.04665,-2.909169 -4.06356,-5.659507 -0.0253,-4.118533 3.57069,-6.789724 9.15373,-6.799551 3.07676,-0.0054 3.95737,-0.577379 3.95737,-2.570354 0,-3.660688 -4.30238,-5.630759 -6.8133,-3.119832 -1.55984,1.559836 -3.53744,2.152297 -4.80899,1.440703 -0.89701,-0.501995 -0.79249,-0.829668 0.85167,-2.669797 1.73136,-1.937732 2.20124,-2.113253 6.16615,-2.30337 7.98877,-0.383061 9.49053,1.732008 9.65224,13.594164 l 0.10651,7.8125 -1.60873,0.194781 c -0.88481,0.107131 -2.13618,-0.0875 -2.78083,-0.432506 -0.82506,-0.441556 -1.89828,-0.368562 -3.62466,0.246538 -2.80992,1.001143 -3.60937,1.035543 -6.1876,0.266231 z m 6.79952,-3.173694 c 0.85844,-0.391131 1.83473,-1.49695 2.16954,-2.457381 1.34197,-3.849574 -0.93671,-5.749708 -5.20563,-4.34084 -3.47752,1.147686 -4.48413,3.991127 -2.21589,6.259371 1.41474,1.414737 2.97768,1.575094 5.25198,0.53885 z m 19.18234,3.047619 c -1.1705,-0.425682 -2.9911,-1.845457 -4.04576,-3.15505 -1.76505,-2.191688 -1.91824,-2.763375 -1.92582,-7.187498 -0.01,-5.570309 1.10248,-8.241013 4.22385,-10.144224 2.47313,-1.507958 7.83446,-1.63375 10.51662,-0.24675 1.79751,0.929525 3.89321,4.408159 3.26655,5.422112 -0.66863,1.081863 -3.22938,0.351273 -4.90726,-1.400059 -4.64666,-4.850068 -10.01091,0.247004 -8.79478,8.356736 0.78583,5.240289 5.52455,7.263233 9.06605,3.87027 1.62948,-1.56115 4.02208,-2.12039 4.65945,-1.0891 0.55379,0.89605 -2.05582,4.494306 -3.7177,5.126156 -2.80245,1.065488 -6.1482,1.24495 -8.3412,0.447407 z m 22.60243,0.348168 C 236.21502,68.414575 235.625,66.5561 235.625,58.581864 l 0,-7.390002 -1.87105,-1.064681 c -2.32999,-1.325834 -2.37719,-2.321327 -0.1602,-3.378767 1.35867,-0.648047 1.75984,-1.317546 1.91491,-3.195725 0.18665,-2.260672 0.29276,-2.366577 2.1875,-2.183062 1.81149,0.175454 2.01956,0.418328 2.30384,2.689198 0.27434,2.191492 0.54146,2.535684 2.1875,2.818638 2.94243,0.505804 2.35907,2.303371 -1.09375,3.370327 C 240.14439,50.541151 240,51.438935 240,57.048429 c 0,6.768702 0.48949,8.284502 2.80532,8.687271 0.68355,0.118887 1.34404,0.741725 1.46775,1.384087 0.37378,1.940876 -1.47053,2.565188 -5.36132,1.814851 z m 56.32469,-0.457712 c -3.54805,-1.544194 -4.82081,-4.711863 -3.26511,-8.126253 1.09155,-2.395691 3.36003,-3.548953 7.87302,-4.00252 4.87663,-0.490114 6.03536,-1.598165 4.51132,-4.314043 -0.52626,-0.937808 -1.70622,-1.968649 -2.62213,-2.290757 -1.3722,-0.482576 -2.10351,-0.281963 -4.15518,1.139845 -2.75811,1.91137 -4.76586,1.94113 -4.76586,0.07064 0,-2.154484 3.75768,-4.078836 7.96474,-4.078836 4.26466,0 6.97509,1.273273 7.90362,3.712857 0.33486,0.879804 0.72272,5.326205 0.86192,9.880893 l 0.25309,8.28125 -1.96043,0 c -1.07825,0 -2.27958,-0.319137 -2.66963,-0.709194 -0.52892,-0.528919 -1.35825,-0.449481 -3.26265,0.3125 -3.05479,1.222288 -4.0979,1.241631 -6.66672,0.123619 z m 8.22947,-3.761019 c 1.74674,-1.746737 2.04551,-4.763407 0.5913,-5.970296 -1.4468,-1.200739 -5.37764,-0.316413 -7.02596,1.580642 -1.72444,1.984665 -1.73049,2.21796 -0.11089,4.27696 1.69335,2.152744 4.4579,2.200338 6.54555,0.112694 z M 320.2908,68.7803 c -2.51981,-1.021381 -2.91153,-2.267956 -3.26188,-10.380334 -0.32601,-7.548667 -0.40137,-7.899985 -1.80954,-8.435373 -1.92476,-0.731789 -1.97249,-2.930876 -0.0695,-3.202374 0.83223,-0.118735 1.47568,-0.706583 1.58684,-1.449719 0.58996,-3.944228 0.73366,-4.145509 2.81599,-3.944249 1.82897,0.17677 2.03793,0.416918 2.32231,2.668856 0.25303,2.003623 0.60989,2.54428 1.875,2.840679 0.99346,0.232752 1.5625,0.80078 1.5625,1.559714 0,0.758192 -0.57001,1.328206 -1.5625,1.5625 -1.55413,0.366881 -1.5625,0.407158 -1.5625,7.519756 l 0,7.1509 1.71875,0.823775 c 4.02348,1.928406 0.63443,5.008513 -3.61545,3.285869 z m 51.81213,-6.25e-4 C 363.83039,66.806331 361.64702,54.978958 368.40541,48.75 c 1.48615,-1.369738 2.25927,-1.5625 6.26683,-1.5625 3.68757,0 4.8426,0.241703 5.9734,1.25 1.88831,1.683731 3.10436,4.736208 3.10436,7.792426 l 0,2.520074 -5.97859,0 c -8.42934,0 -10.00177,1.121234 -6.84076,4.877875 2.01167,2.390738 4.28159,2.822012 8.01083,1.522025 2.59848,-0.905813 3.07932,-0.925256 3.56213,-0.144056 0.82675,1.337712 -0.87308,2.874943 -4.06887,3.67965 -3.03041,0.763068 -3.49828,0.770025 -6.33181,0.09412 z m 6.06316,-12.551609 C 380.99674,54.713094 378.32389,50 374.63411,50 c -1.49171,0 -2.44793,0.505008 -3.64105,1.922953 -1.89487,2.251921 -2.03523,3.396952 -0.52431,4.276985 1.43177,0.83393 6.15936,0.851172 7.69734,0.02807 z m -242.88554,11.72654 c -0.16788,-0.437469 -0.22936,-7.117153 -0.13664,-14.843749 l 0.16859,-14.048357 5.55867,-0.181894 c 10.23295,-0.33485 14.24324,1.380526 15.4145,6.593465 0.7533,3.352685 -0.15336,6.141193 -2.91697,8.971388 l -2.27436,2.329147 2.89033,5.433251 c 1.58968,2.988287 2.89033,5.699731 2.89033,6.025424 0,0.325694 -1.0514,0.504888 -2.33644,0.3982 -2.23362,-0.185444 -2.46128,-0.425287 -5.17244,-5.449169 -1.5598,-2.890356 -3.39121,-5.472151 -4.06981,-5.737323 -2.07929,-0.812515 -3.36611,-0.625188 -4.67131,0.680011 -1.02778,1.027777 -1.25,2.083333 -1.25,5.9375 l 0,4.6875 -1.89461,0 c -1.04205,0 -2.03197,-0.357925 -2.19984,-0.795394 z m 12.35727,-14.857381 c 4.43629,-1.232073 5.62458,-5.555979 2.41025,-8.770302 C 148.42806,42.70691 147.78924,42.5 144.40761,42.5 c -3.58251,0 -3.8538,0.104129 -4.47792,1.71875 -0.87978,2.276017 -0.37938,8.238307 0.7515,8.954204 1.17921,0.746489 4.11102,0.714574 6.95663,-0.07573 z m 113.47937,1.784376 c -0.0988,-7.669255 -0.0766,-14.436289 0.0494,-15.037851 0.23833,-1.137576 3.45013,-1.547552 4.82134,-0.615429 0.37152,0.252548 3.15814,4.619683 6.19249,9.704742 3.86482,6.476793 5.81497,9.188534 6.51201,9.055129 0.8403,-0.160821 1.04361,-1.647127 1.30752,-9.558063 l 0.3125,-9.367629 2.1875,0 2.1875,0 0,14.6875 0,14.6875 -2.07207,0.198894 c -1.13965,0.109394 -2.4459,-0.11135 -2.9028,-0.490538 -0.4569,-0.379187 -3.31574,-4.765912 -6.35298,-9.748279 -3.68756,-6.049163 -5.83786,-8.998458 -6.47221,-8.877089 -0.7826,0.149736 -1.00499,1.831973 -1.26244,9.549383 l -0.3125,9.367629 -2.00781,0.1941 -2.00781,0.1941 -0.17969,-13.944099 z m 70.40916,13.062062 c -0.17018,-0.443488 -0.23167,-5.295051 -0.13664,-10.781251 l 0.17279,-9.974912 1.875,0 1.875,0 0.17101,10.78125 0.17101,10.78125 -1.90938,0 c -1.05015,0 -2.04861,-0.36285 -2.21879,-0.806337 z m 16.91426,0.186362 c -0.23404,-0.378681 -1.93228,-5.190088 -3.77386,-10.692011 -3.51653,-10.506027 -3.52568,-10.937761 -0.22144,-10.45619 1.19288,0.173855 1.64212,1.02759 2.90369,5.518176 0.82086,2.921875 1.70307,6.015625 1.96046,6.875 0.2889,0.964584 0.9291,1.5625 1.67301,1.5625 1.23047,0 1.42633,-0.503053 3.69123,-9.480703 0.44827,-1.776887 1.00293,-3.534699 1.23256,-3.90625 0.4238,-0.685723 3.61254,-0.948414 4.21381,-0.347138 0.18063,0.180625 -1.25508,5.032187 -3.19045,10.78125 l -3.51886,10.452841 -2.27232,0.190519 c -1.24977,0.104781 -2.4638,-0.119313 -2.69783,-0.497994 z M 331.66667,41.458333 c -0.77581,-0.775802 -0.42236,-2.643033 0.6096,-3.22055 2.11565,-1.183975 4.40236,0.542995 3.57475,2.699717 -0.3587,0.934746 -3.39278,1.312404 -4.18435,0.520833 z"
       id="path3801"
       inkscape:connector-curvature="0" />
    <path
       style="fill:#a1a1a1"
       d="M 52.175879,97.912825 C 49.583987,96.737019 46.451747,93.015106 45.66258,90.173331 44.768553,86.953956 44.854364,80.506969 45.854803,75.731787 L 46.683556,71.776081 41.369113,69.3208 C 34.851511,66.309656 31.154411,63.363275 29.433838,59.809041 27.808661,56.451875 27.783081,54.37042 29.329739,51.338718 c 1.801975,-3.532163 5.868944,-6.847521 11.71058,-9.546365 l 5.224997,-2.413955 -0.476409,-2.657949 C 45.526884,35.258577 45.312525,31.53125 45.312555,28.4375 c 4.8e-5,-4.839644 0.218202,-6.014301 1.5625,-8.413311 0.859345,-1.533572 2.518099,-3.43201 3.686122,-4.21875 4.680893,-3.152895 12.800942,-1.045571 19.899929,5.16445 1.747944,1.529061 3.511419,2.780111 3.918832,2.780111 0.407412,0 2.049531,-1.15629 3.649156,-2.569533 6.158431,-5.440882 12.931518,-8.061456 17.592,-6.806519 3.029319,0.815711 6.578736,4.696835 7.542036,8.24688 0.7205,2.65522 0.48843,12.484514 -0.36032,15.261469 -0.35569,1.163761 0.28882,1.656533 5.45138,4.167975 17.96676,8.740315 16.37532,20.342162 -3.94397,28.75229 l -2.25229,0.932219 0.83301,3.976363 c 1.00727,4.808168 1.09116,11.240412 0.18899,14.489343 -0.86373,3.110438 -4.447042,7.034957 -7.275724,7.9685 -4.35055,1.435813 -12.228094,-1.667731 -18.410675,-7.253318 -2.760225,-2.4937 -3.224356,-2.409 -7.706031,1.406306 -5.60225,4.769269 -13.655219,7.3403 -17.511621,5.59085 z m 9.449784,-6.410281 C 65.593487,89.4 70,85.788713 70,84.639488 70,84.143481 68.324375,81.670919 66.276387,79.1449 c -3.35415,-4.137063 -3.989786,-4.629294 -6.40625,-4.960956 -1.47545,-0.202507 -3.858277,-0.556413 -5.29517,-0.786463 l -2.612533,-0.418262 -0.734832,2.728962 c -1.136568,4.220894 -1.019546,12.354069 0.211567,14.7041 0.568992,1.086131 1.392011,2.118619 1.828931,2.294413 2.005359,0.80685 5.517414,0.300831 8.357563,-1.20415 z m 34.591368,0.405425 c 2.175081,-2.175081 2.777407,-5.9394 1.955394,-12.220469 -0.404881,-3.09375 -0.966875,-5.856 -1.248875,-6.138337 -0.282,-0.282332 -2.804331,-0.162532 -5.605181,0.266231 l -5.092463,0.779569 -4.107062,5.046268 -4.107063,5.046269 2.866256,2.598925 c 5.757375,5.220381 12.660338,7.3002 15.338994,4.621544 z M 77.113319,77.8542 C 78.013494,76.674013 78.75,75.549013 78.75,75.3542 78.75,75.159388 76.78125,75 74.375,75 71.96875,75 70,75.184387 70,75.409756 70,76.481394 73.321131,80 74.332625,80 c 0.629206,0 1.880519,-0.965612 2.780694,-2.1458 z m 6.458894,-9.254025 c 0.659731,-0.598025 2.533181,-3.616769 4.163218,-6.708316 l 2.963706,-5.620993 -2.611093,-5.018842 C 86.65195,48.491661 84.664756,45.111966 83.672056,43.741591 L 81.867163,41.25 l -7.508688,0 -7.508688,0 -2.73305,4.224859 c -1.503175,2.323672 -3.502441,5.793623 -4.442811,7.711002 l -1.709765,3.486144 3.36167,5.866195 c 1.951613,3.405606 4.017063,6.208325 4.924169,6.681856 2.457794,1.283032 15.747606,0.80745 17.322212,-0.619881 z m -13.433057,-2.76325 c -2.688562,-1.325169 -4.928437,-4.051091 -5.846437,-7.115091 -1.494032,-4.986631 2.018812,-10.87882 7.457225,-12.508208 3.633231,-1.088543 7.211306,0.03728 10.252181,3.225774 3.827163,4.012973 3.953888,9.341434 0.320563,13.479563 -3.3817,3.851543 -8.030532,4.964943 -12.183532,2.917962 z M 58.122664,67.96875 c -0.0013,-0.429688 -0.59542,-1.754131 -1.320301,-2.943206 l -1.317964,-2.161957 -0.914237,1.744882 c -0.50283,0.959687 -0.769643,2.121694 -0.592918,2.582231 0.276807,0.721344 0.893267,0.968362 3.679006,1.474187 0.257812,0.04681 0.467699,-0.26645 0.466414,-0.696137 z m 36.45923,-0.310844 C 95.154731,67.33335 94.578769,64.362162 93.785025,63.548 93.266044,63.015594 90.625,66.781919 90.625,68.054431 c 0,0.665944 2.528931,0.412519 3.956894,-0.396525 z M 50.132253,61.525771 c 1.992517,-4.837529 1.965986,-5.490545 -0.489067,-12.037539 -1.618742,-4.316765 -1.805373,-4.551663 -3.315302,-4.172695 -3.065881,0.769487 -8.232528,3.546361 -10.397656,5.588339 -3.689007,3.479182 -2.804312,7.76322 2.276469,11.023548 3.200482,2.053745 8.598108,4.367964 9.55974,4.098714 0.318415,-0.08915 1.383032,-2.114319 2.365816,-4.500367 z m 56.716377,2.451579 c 4.5668,-2.044492 7.17396,-4.117689 8.15417,-6.484115 1.08739,-2.625182 -0.27852,-5.529634 -3.80023,-8.080745 -2.73336,-1.980034 -9.08955,-4.633366 -9.89983,-4.132588 -0.26412,0.163236 -1.417052,2.720017 -2.562071,5.681735 -2.279213,5.895431 -2.295694,5.606854 0.723831,12.675394 1.30209,3.048113 1.33257,3.049519 7.38413,0.340319 z M 57.808379,45.888149 c 0.922252,-1.573704 1.524395,-3.013709 1.338094,-3.20001 -0.186301,-0.1863 -1.642562,-0.143206 -3.236136,0.09577 -3.137714,0.470529 -3.195735,0.661418 -1.531518,5.03864 0.762947,2.006705 1.296181,1.705942 3.42956,-1.934395 z m 36.577102,1.896787 c 1.648182,-4.335056 1.587569,-4.531151 -1.545818,-5.001032 -1.593575,-0.238971 -3.041782,-0.290118 -3.218238,-0.113661 -0.411362,0.411364 3.031563,6.683781 3.675294,6.695752 0.266319,0.0049 0.756262,-0.706524 1.088762,-1.581059 z M 57.5,37.224882 c 2.921875,-0.483061 5.734375,-1.060074 6.25,-1.282251 1.313412,-0.565934 6.25,-6.922814 6.25,-8.048167 0,-1.291515 -3.982294,-4.458946 -8.381076,-6.666132 -3.598584,-1.805667 -6.096304,-2.254484 -8.153423,-1.465094 -1.776259,0.681615 -3.008035,4.040233 -3.05829,8.338873 -0.05312,4.543967 0.686353,10.028796 1.349835,10.011977 0.23675,-0.006 2.821079,-0.406144 5.742954,-0.889206 z M 97.906981,35.15625 c 0.265963,-1.632813 0.462075,-4.807175 0.435807,-7.054139 C 98.247656,19.964624 94.965294,17.575463 88.136331,20.673052 84.365437,22.383513 78.75,26.688663 78.75,27.869209 c 0,1.541031 5.172719,7.681956 6.875,8.16183 1.786075,0.503495 9.161794,1.883211 10.742956,2.009597 0.794419,0.0635 1.17505,-0.649859 1.539025,-2.884386 z M 76.875,34.8125 c 0,-2.264383 -3.285931,-3.097443 -4.353013,-1.103588 C 71.555394,35.515008 71.661769,35.625 74.375,35.625 c 1.634613,0 2.5,-0.28125 2.5,-0.8125 z"
       id="path3799"
       inkscape:connector-curvature="0" />
    <path
       style="fill:#5c5c5c"
       d="M 52.5,97.457663 C 46.535919,94.960044 44.214149,86.500587 46.507844,75.625 46.97908,73.390625 47.250551,71.372081 47.111114,71.13935 46.971676,70.906612 45.806819,70.376031 44.522545,69.960275 41.051296,68.836531 36.23829,66.32355 33.64294,64.279781 31.095817,62.273996 28.75,58.018099 28.75,55.402774 c 0,-2.462317 2.066872,-6.142993 4.794344,-8.537744 2.007446,-1.762561 8.209677,-5.024771 12.275899,-6.456799 0.981949,-0.34582 1.065151,-0.794754 0.625,-3.372328 -0.279259,-1.635372 -0.499477,-5.504653 -0.489374,-8.598403 0.01506,-4.610964 0.273112,-6.10827 1.431461,-8.305768 3.475796,-6.593915 11.047989,-6.922444 19.942826,-0.865246 1.984038,1.35109 4.143119,3.053225 4.797963,3.782521 1.6794,1.870352 2.594756,1.677455 5.900975,-1.24354 6.090112,-5.380521 13.107531,-8.109456 17.548856,-6.824404 5.45077,1.577124 7.92189,6.930397 7.33545,15.891048 -0.20483,3.129714 -0.55828,6.480738 -0.78545,7.446719 -0.34308,1.458817 -0.18271,1.816563 0.94669,2.111908 3.11673,0.815042 10.11145,4.627513 12.58453,6.859194 4.35972,3.934157 5.41825,8.158926 3.15165,12.578717 -1.96358,3.82892 -5.96353,6.787589 -12.87332,9.522107 -2.0625,0.816225 -3.93431,1.638775 -4.15959,1.827894 -0.22527,0.189119 -0.0202,2.171975 0.45573,4.40635 1.03317,4.85055 1.13438,11.287269 0.22878,14.548331 -0.8689,3.128869 -3.864683,6.448713 -6.64822,7.367363 C 91.457581,98.978506 83.582862,95.88235 77.40815,90.303869 76.081687,89.105494 74.784275,88.125 74.525019,88.125 c -0.259263,0 -2.016263,1.276075 -3.90445,2.835719 C 64.1962,96.267244 56.363475,99.075594 52.5,97.457663 Z m 9.124673,-5.262475 c 1.716058,-0.85515 4.651183,-2.926144 6.522496,-4.602207 l 3.4024,-3.047393 -2.189994,-2.429044 c -1.2045,-1.335975 -3.110094,-3.712613 -4.234663,-5.281419 L 63.080244,73.98275 57.397181,73.178394 c -6.575111,-0.930607 -6.454498,-1.002838 -7.207025,4.316225 -1.962567,13.87195 2.2442,19.280293 11.434517,14.700568 z m 35.120483,0.130525 c 2.223569,-2.366875 2.96195,-7.071282 2.060694,-13.129125 -0.426625,-2.867563 -0.999394,-5.575732 -1.272825,-6.01815 -0.405337,-0.65585 -1.546581,-0.655863 -6.180206,-4.4e-5 l -5.683063,0.804356 -2.044668,2.852375 c -1.124569,1.568806 -3.0276,3.942606 -4.228963,5.275106 l -2.184294,2.422738 3.231525,2.971394 c 6.319725,5.811006 13.403782,7.90615 16.3018,4.82135 z M 77.447481,78.191312 c 1.060138,-1.338531 1.927519,-2.744781 1.927519,-3.125 0,-0.447475 -1.7636,-0.691312 -5,-0.691312 -3.629775,0 -5,0.217894 -5,0.7951 0,1.337788 3.768481,5.4549 4.992981,5.4549 0.633594,0 2.019363,-1.095163 3.0795,-2.433688 z M 84.380388,68.75 c 0.649712,-0.859375 2.472606,-4.0088 4.050868,-6.998721 l 2.869581,-5.436221 -1.983774,-3.929832 c -1.091075,-2.161407 -3.096475,-5.69167 -4.456444,-7.845028 L 82.38795,40.625 l -7.600225,0.0096 c -4.180125,0.0053 -7.9303,0.219518 -8.333725,0.476123 -0.843844,0.536742 -7.156589,11.058856 -8.320326,13.868366 -0.735649,1.776013 -0.569302,2.242064 2.956597,8.283384 2.603573,4.460987 4.188698,6.535675 5.229166,6.844169 0.821182,0.243481 4.955044,0.389406 9.186357,0.324287 7.409793,-0.114037 7.736825,-0.175981 8.874593,-1.6809 z M 70.130331,65.20765 c -6.104825,-3.008793 -7.405768,-10.961061 -2.582256,-15.784573 4.068788,-4.068785 10.109981,-3.918414 14.1374,0.351892 7.329081,7.771093 -1.951462,20.165906 -11.555144,15.432681 z M 59.020027,68.818725 C 59.52323,68.004525 56.289113,62.5 55.307536,62.5 c -0.96776,0 -2.455953,4.011 -1.963925,5.2932 0.288717,0.752381 1.270237,1.070731 4.588253,1.488156 0.409401,0.0515 0.899074,-0.156681 1.088163,-0.462631 z M 95.261188,68.069256 C 96.0561,67.336081 94.536963,62.5 93.511744,62.5 c -0.953338,0 -4.3079,5.870513 -3.701231,6.477181 0.509087,0.509082 4.664868,-0.18315 5.450675,-0.907925 z M 48.602999,66.09375 c 0.854556,-1.057944 3.897238,-8.783884 3.896046,-9.892788 C 52.498519,55.712308 51.55635,52.921875 50.405336,50 c -1.928867,-4.896468 -2.22259,-5.303268 -3.750674,-5.194612 -2.63841,0.187606 -9.644307,3.937933 -11.673309,6.248838 -2.125379,2.420673 -2.46619,5.559025 -0.868484,7.997432 1.211662,1.84923 6.073156,5.028761 10.087756,6.597629 3.626082,1.417044 3.617476,1.416169 4.402374,0.444463 z m 58.245631,-1.470375 c 6.65468,-3.020228 9.87728,-6.658761 9.08648,-10.259234 -0.7436,-3.385629 -9.10674,-9.205152 -13.73261,-9.55589 -1.44226,-0.109354 -1.79732,0.380651 -3.762019,5.191749 -1.1932,2.921875 -2.174187,5.756197 -2.179968,6.298495 -0.0056,0.542297 0.650806,2.651672 1.459087,4.6875 0.808281,2.03583 1.65465,4.223524 1.880825,4.861549 0.492255,1.388631 2.083345,1.119906 7.248205,-1.224169 z m -48.294021,-18.93893 2.251887,-4.003056 -3.617279,0.373337 c -1.989503,0.205335 -3.889457,0.645514 -4.22212,0.978176 -0.908276,0.908277 1.287954,7.086284 2.43328,6.844829 0.496289,-0.104627 1.915694,-1.991606 3.154232,-4.193286 z m 36.776535,1.134427 c 0.586762,-1.766571 0.817537,-3.412729 0.518981,-3.701963 C 95.14045,42.429396 88.790919,41.303158 88.4781,41.809308 88.045213,42.50973 92.586706,50 93.444269,50 c 0.45665,0 1.305743,-1.431508 1.886875,-3.181128 z M 57.8125,37.803967 c 3.09375,-0.508315 5.785469,-0.92528 5.9816,-0.926588 0.688344,-0.0046 6.8309,-8.091643 6.8309,-8.993301 0,-1.384876 -4.854619,-5.313005 -9.0625,-7.332949 -7.241611,-3.47625 -10.746754,-1.789092 -11.85676,5.707105 -0.375685,2.537112 0.508657,10.69676 1.297678,11.973424 0.403291,0.652538 0.130036,0.669702 6.809082,-0.427691 z M 98.283631,36.5625 C 98.589037,35.53125 98.8808,32.296875 98.931994,29.375 99.063769,21.854058 97.22585,18.75 92.640912,18.75 88.933887,18.75 78.125,25.544405 78.125,27.874619 c 0,0.496218 1.42,2.709131 3.155556,4.917585 2.900625,3.690972 3.392931,4.046948 6.09375,4.406245 1.616007,0.214981 4.063194,0.626875 5.438194,0.915319 3.878038,0.813526 4.852637,0.537192 5.471131,-1.551268 z M 77.7671,35.698461 C 78.299119,34.837634 75.668556,31.875 74.372194,31.875 c -1.234075,0 -3.985375,3.303488 -3.312063,3.976799 0.605831,0.60583 6.318494,0.475225 6.706969,-0.153338 z"
       id="path3797"
       inkscape:connector-curvature="0" />
    <path
       style="fill:#0d0d0d"
       d="m 52.500321,96.830956 c -5.581935,-2.344144 -7.618877,-10.580737 -5.31094,-21.475344 0.504722,-2.382537 0.765703,-4.483862 0.579958,-4.669606 -0.185745,-0.185743 -2.005418,-0.941581 -4.04372,-1.679631 -15.197751,-5.502969 -18.739422,-15.491414 -8.122821,-22.908492 1.865993,-1.303639 5.020439,-2.963751 7.009882,-3.689138 1.989443,-0.725387 3.910526,-1.672359 4.269073,-2.104382 0.453518,-0.546455 0.434458,-2.186332 -0.06263,-5.38868 -2.691456,-17.338936 5.796392,-24.302306 19.239028,-15.783561 1.785106,1.131242 4.380969,3.082497 5.768581,4.336122 l 2.522931,2.27932 3.496269,-3.116173 c 7.305263,-6.511071 15.901844,-9.080159 20.104294,-6.008168 3.910705,2.858721 5.453815,10.172227 3.958295,18.760144 -0.8656,4.970622 -0.91815,4.895814 5.22123,7.432319 7.59356,3.13731 11.53676,6.956356 12.07035,11.690313 0.38406,3.407362 -1.35374,7.190946 -4.35058,9.472213 C 112.63759,65.661994 103.92156,70 102.75041,70 c -1.70853,0 -1.99106,1.571444 -1.06747,5.9375 1.18804,5.616137 0.82953,12.976075 -0.79118,16.242344 C 97.314694,99.388831 88.881756,98.833463 78.803819,90.725206 76.59905,88.951344 74.58295,87.5 74.323606,87.5 c -0.259344,0 -1.971069,1.281513 -3.803825,2.8478 -6.121806,5.231763 -14.134549,8.114637 -18.01946,6.483156 z m 9.318511,-4.107525 c 1.822843,-0.908362 4.866874,-3.096731 6.764512,-4.863043 L 72.033588,84.648906 67.5286,78.999319 63.023612,73.349731 57.334297,72.544494 c -6.712596,-0.950063 -6.95984,-0.794906 -7.759024,4.86915 -2.01575,14.286231 2.63285,20.099006 12.243559,15.309787 z M 97.385988,92.221862 C 99.750925,89.52835 100.41144,85.156319 99.419406,78.762469 98.661519,73.877775 97.879244,71.875 96.7292,71.875 c -0.399756,0 -3.0787,0.340044 -5.953213,0.755656 l -5.226387,0.755657 -3.048863,4.112693 c -1.676875,2.261981 -3.628662,4.6374 -4.3373,5.278707 C 77.454794,83.419025 76.875,84.2736 76.875,84.676769 c 0,1.053781 6.643325,6.317731 10.278962,8.144712 1.825619,0.917407 4.166332,1.553519 5.716507,1.553519 2.209562,0 2.924256,-0.340788 4.515518,-2.153138 z M 77.711587,78.664438 c 3.887388,-4.443863 3.476932,-5.001676 -3.517768,-4.780644 -3.110363,0.09829 -5.749438,0.463456 -5.864607,0.811481 -0.23385,0.706663 5.216882,7.179725 6.045788,7.179725 0.290437,0 1.7919,-1.44475 3.336587,-3.210562 z m 4.989163,-7.99695 c 1.495544,-0.568607 4.14685,-4.445013 7.579125,-11.081254 l 1.668631,-3.226266 -1.991612,-3.961234 C 88.861512,50.220055 86.741269,46.539062 85.24525,44.21875 L 82.525212,40 74.375,40 l -8.150212,0 -2.728876,4.21875 c -1.50088,2.320312 -3.646558,6.079897 -4.768173,8.354632 l -2.039301,4.135883 2.055014,3.676617 c 3.829473,6.851293 5.832286,9.728518 7.140179,10.257512 1.789275,0.723706 14.9275,0.742525 16.817119,0.02412 z M 69.704056,64.234313 c -3.173362,-1.843886 -5.095631,-6.013587 -4.423644,-9.595592 0.599513,-3.195676 4.287632,-6.883794 7.483307,-7.483306 7.387043,-1.385818 13.330543,6.680896 9.891562,13.425157 -2.400768,4.708191 -8.281319,6.367184 -12.951225,3.653741 z m -9.975204,4.9458 c 0.342942,-0.893694 -2.358435,-6.115894 -3.769425,-7.286915 -1.117631,-0.927552 -2.726876,1.334758 -3.252213,4.572033 -0.333448,2.0548 -0.225218,2.252488 1.434817,2.620775 0.987508,0.219081 2.076719,0.49215 2.420469,0.606819 1.447545,0.482875 2.872874,0.252081 3.166352,-0.512712 z m 35.498667,-0.215675 c 0.946162,-0.279307 1.098293,-0.755113 0.809819,-2.532782 -0.496751,-3.061125 -2.140038,-5.456961 -3.161457,-4.609259 -1.359937,1.128653 -4.222794,6.890159 -3.779819,7.606909 0.394419,0.638175 3.086182,0.4341 6.131457,-0.464868 z M 51.031746,62.494876 C 52.134453,59.919569 53.050828,57.25 53.068133,56.5625 c 0.01731,-0.6875 -0.933567,-3.78125 -2.11305,-6.875 -2.093984,-5.492458 -2.190743,-5.622684 -4.106387,-5.526691 -2.98239,0.149448 -9.563784,3.671467 -12.093938,6.472044 -3.769059,4.171898 -2.866041,8.291025 2.656628,12.118235 2.940093,2.037487 9.390647,4.8001 10.695775,4.580737 0.505815,-0.08501 1.821877,-2.261644 2.924585,-4.836949 z m 55.415464,2.921455 c 7.42565,-3.445789 10.93859,-7.292863 10.1089,-11.070413 -0.2319,-1.055849 -1.67545,-2.96124 -3.457,-4.562997 -3.56814,-3.208068 -10.84554,-6.584343 -12.24685,-5.6818 -0.949566,0.611588 -5.200129,10.514755 -5.214448,12.148879 -0.0084,0.964803 3.03955,9.075125 3.934344,10.46875 0.767224,1.194931 1.994204,0.962488 6.875054,-1.302419 z M 59.106434,45.817449 c 1.249856,-2.234952 2.032526,-4.292583 1.739266,-4.572513 -0.611241,-0.583459 -7.742264,0.497272 -8.60689,1.304403 -0.665415,0.621167 0.517489,5.142182 1.919494,7.336237 1.20353,1.883453 1.97411,1.249916 4.94813,-4.068127 z m 36.500935,1.89871 c 0.7272,-1.943613 1.238125,-3.970298 1.135393,-4.503744 -0.124643,-0.647212 -1.525112,-1.240776 -4.209368,-1.784062 -4.633669,-0.937842 -5.883044,-0.410212 -4.424432,1.868496 0.489594,0.764858 1.698988,2.867213 2.687544,4.671901 0.988556,1.804687 2.177925,3.28125 2.643031,3.28125 0.465107,0 1.440632,-1.590229 2.167832,-3.533841 z M 57.8125,38.428967 c 3.09375,-0.508315 5.795762,-0.92528 6.004481,-0.926588 0.208713,-0.0013 2.153706,-2.164103 4.322213,-4.806211 l 3.942737,-4.803831 -3.377656,-3.105763 c -3.768694,-3.465328 -9.90055,-6.66033 -12.783959,-6.661081 -5.368065,-0.0014 -7.942011,6.080556 -6.530265,15.430311 0.405405,2.684933 0.865715,5.092633 1.02291,5.350446 0.382476,0.627289 0.867022,0.596034 7.399539,-0.477283 z M 99.220862,34.6875 C 100.96567,24.942942 98.3343,18.124059 92.829681,18.125493 c -2.888312,7.5e-4 -9.017519,3.197832 -12.802081,6.677744 l -3.395775,3.122427 3.881675,4.750386 c 3.608244,4.415752 4.0901,4.780406 6.840344,5.176555 1.627262,0.234394 4.083656,0.647866 5.458656,0.918829 5.182613,1.021303 5.534387,0.797122 6.408362,-4.083934 z M 78.75,35.928322 c 0,-0.520673 -0.984375,-1.997236 -2.1875,-3.28125 L 74.375,30.3125 72.1875,32.647072 C 68.842819,36.216624 69.183456,36.875 74.375,36.875 c 3.491075,0 4.375,-0.191267 4.375,-0.946678 z"
       id="path3795"
       inkscape:connector-curvature="0" />
  </g>
</svg>
