<?xml version="1.0" encoding="UTF-8" standalone="no"?>
<!-- Created with Inkscape (http://www.inkscape.org/) -->

<svg
   xmlns:dc="http://purl.org/dc/elements/1.1/"
   xmlns:cc="http://creativecommons.org/ns#"
   xmlns:rdf="http://www.w3.org/1999/02/22-rdf-syntax-ns#"
   xmlns:svg="http://www.w3.org/2000/svg"
   xmlns="http://www.w3.org/2000/svg"
   xmlns:xlink="http://www.w3.org/1999/xlink"
   xmlns:sodipodi="http://sodipodi.sourceforge.net/DTD/sodipodi-0.dtd"
   xmlns:inkscape="http://www.inkscape.org/namespaces/inkscape"
   id="svg3746"
   version="1.1"
   inkscape:version="0.91 r13725"
   width="406.875"
   height="108.75"
   viewBox="0 0 406.875 108.75"
   sodipodi:docname="SenchaTouch.svg">
  <metadata
     id="metadata3752">
    <rdf:RDF>
      <cc:Work
         rdf:about="">
        <dc:format>image/svg+xml</dc:format>
        <dc:type
           rdf:resource="http://purl.org/dc/dcmitype/StillImage" />
        <dc:title></dc:title>
      </cc:Work>
    </rdf:RDF>
  </metadata>
  <defs
     id="defs3750" />
  <sodipodi:namedview
     pagecolor="#ffffff"
     bordercolor="#666666"
     borderopacity="1"
     objecttolerance="10"
     gridtolerance="10"
     guidetolerance="10"
     inkscape:pageopacity="0"
     inkscape:pageshadow="2"
     inkscape:window-width="640"
     inkscape:window-height="480"
     id="namedview3748"
     showgrid="false"
     inkscape:zoom="0.64393241"
     inkscape:cx="203.4375"
     inkscape:cy="54.375"
     inkscape:window-x="0"
     inkscape:window-y="0"
     inkscape:window-maximized="0"
     inkscape:current-layer="svg3746" />
  <image
     width="406.875"
     height="108.75"
     preserveAspectRatio="none"
     style="image-rendering:optimizeQuality"
     xlink:href="file:///media/havoc/USB%20DISK/pics/_Products/SenchaTouch.png"
     id="image3754"
     x="0"
     y="0"
     sodipodi:absref="/media/havoc/USB DISK/pics/_Products/SenchaTouch.png" />
  <g
     id="g3756">
    <path
       style="fill:#fdfdfd"
       d="M 0,54.375 0,0 203.4375,0 406.875,0 l 0,54.375 0,54.375 -203.4375,0 L 0,108.75 0,54.375 Z"
       id="path3772"
       inkscape:connector-curvature="0" />
    <path
       style="fill:#a0a2a0"
       d="m 119.54834,96.665181 c 0.59216,-0.91585 1.54345,-2.387494 2.11399,-3.270325 1.43385,-2.218737 1.41496,-8.092362 -0.0348,-10.824481 -1.87562,-3.534619 -3.94892,-4.946281 -16.7039,-11.373288 C 93.713925,65.548737 92.336525,64.672037 88.8998,60.998172 83.06475,54.760482 80.65555,48.715561 80.65555,40.3125 c 0,-8.41502 2.916963,-15.624298 8.687613,-21.471466 3.391968,-3.436951 8.953812,-7.002388 9.723143,-6.233058 0.210632,0.210633 -0.19625,1.463653 -0.904175,2.78449 -1.513825,2.824466 -1.716912,7.994079 -0.434618,11.06304 1.32455,3.170108 4.007537,5.000289 16.744277,11.422004 9.53966,4.809787 12.59488,6.679229 15.77007,9.649464 12.50033,11.693447 12.95242,31.027251 1.00813,43.113545 -3.5899,3.632581 -7.87228,6.458506 -10.96248,7.2341 l -1.81584,0.455743 1.07666,-1.665181 z m 41.98862,-24.394475 c -4.97075,-2.314681 -7.53012,-6.002162 -7.05451,-10.163938 0.20036,-1.753196 0.29076,-1.794268 3.94918,-1.794268 3.64489,0 3.77073,0.05634 4.74787,2.125779 1.44456,3.059346 2.8144,3.811721 6.93996,3.811721 2.79721,0 3.91746,-0.286919 4.88054,-1.25 2.73466,-2.734661 0.64299,-4.769176 -6.97696,-6.786304 -7.1485,-1.892328 -9.88983,-3.531238 -11.65217,-6.966269 -2.6248,-5.116068 -0.35038,-11.042728 5.30664,-13.827959 4.10603,-2.021602 11.76143,-2.053127 15.58762,-0.06419 3.27091,1.700291 5.69515,4.568628 6.21834,7.357471 0.55622,2.964865 -0.47241,4.037251 -3.8725,4.037251 -2.7544,0 -3.32705,-0.362247 -5.74333,-3.633122 -2.34159,-3.169776 -9.49264,-2.145472 -9.49264,1.359708 0,1.749852 1.28719,2.402566 8.2376,4.177163 7.68061,1.961033 10.04566,3.555358 12.01679,8.100713 l 0.94668,2.183038 0.0244,-2.231678 c 0.0372,-3.399469 3.02277,-8.706218 6.09631,-10.836216 3.06799,-2.12616 8.07852,-2.828221 11.68649,-1.637482 4.8306,1.59424 8.24032,6.148344 8.92373,11.918751 0.34331,2.898666 0.27124,3.100295 -1.3252,3.707255 -0.9285,0.353029 -5.0449,0.64187 -9.14753,0.64187 -6.21383,0 -7.45931,0.156531 -7.45931,0.9375 0,0.515625 0.5625,1.5 1.25,2.1875 1.79386,1.793856 5.46118,1.652806 8.125,-0.3125 3.36639,-2.483644 8.63433,-1.89485 7.67123,0.857412 -1.55967,4.457107 -6.49695,7.552638 -12.04623,7.552638 -6.25608,0 -11.64146,-3.881294 -13.17536,-9.495594 l -0.72797,-2.664456 -0.77344,3.005075 c -1.56786,6.09165 -6.72213,9.187356 -15.27832,9.176319 -3.64526,-0.005 -5.45617,-0.343132 -7.88295,-1.473188 z M 203.42341,55.647797 C 204.12435,54.513654 201.33466,52.5 199.0625,52.5 c -2.11769,0 -4.6875,1.713204 -4.6875,3.125 0,0.806363 8.55083,0.827906 9.04841,0.02279 z m 45.01409,16.950878 c -6.66298,-3.174381 -9.50617,-10.766136 -6.85072,-18.292488 2.56131,-7.259518 11.45622,-10.820218 18.75158,-7.506397 4.36607,1.98323 7.6404,7.054684 5.9049,9.145826 -1.05503,1.271242 -5.94383,1.234287 -6.99987,-0.05291 C 256.85028,52.975756 256.13013,52.5 254.10786,52.5 c -3.24755,0 -4.73286,2.255641 -4.73286,7.1875 0,5.10595 1.45891,7.1875 5.03753,7.1875 2.1749,0 2.62216,-0.277813 4.02497,-2.5 1.40177,-2.220553 1.85104,-2.5 4.01922,-2.5 3.26097,0 4.41828,0.515169 4.41828,1.966769 0,2.268293 -2.52105,6.154425 -5.09953,7.860781 -3.41737,2.261506 -9.60013,2.676906 -13.33797,0.896125 z m 51.79169,-0.04744 C 297.35287,70.797319 296.25,68.862463 296.25,65.570219 c 0,-5.149343 3.04689,-7.62045 10.74168,-8.711767 5.24809,-0.744314 6.62263,-1.651336 5.54734,-3.660536 -0.53505,-0.999764 -1.30291,-1.322916 -3.14345,-1.322916 -1.9927,0 -2.67817,0.340866 -3.77057,1.875 -1.16662,1.638361 -1.71449,1.875 -4.34103,1.875 -3.82881,0 -4.89685,-1.063269 -3.77896,-3.76209 1.01646,-2.453951 3.81411,-4.774709 6.73315,-5.585406 3.70537,-1.029083 9.50908,-0.768189 12.43186,0.558851 4.20167,1.907691 4.4393,2.671341 4.67979,15.038645 l 0.21269,10.9375 -3.33199,0.190669 c -1.83259,0.104875 -3.69192,-0.10805 -4.13185,-0.473163 -0.57289,-0.47545 -1.4396,-0.396537 -3.05419,0.278081 -3.19399,1.334532 -8.40854,1.210682 -10.81528,-0.256875 z m 11.28773,-6.032418 c 1.12753,-1.127531 1.89531,-3.673419 1.36606,-4.529756 -0.34622,-0.560188 -4.46561,-0.05457 -6.74091,0.827381 -1.4223,0.551312 -1.89586,2.025106 -1.11784,3.478856 0.8134,1.51985 5.05049,1.665719 6.49269,0.223519 z m -96.85066,5.838737 c -0.17523,-0.456662 -0.24214,-6.447362 -0.14869,-13.312662 l 0.16993,-12.482394 3.18051,-0.185419 c 2.17878,-0.127019 3.41366,0.0955 3.92074,0.706491 0.63607,0.766427 1.06453,0.726565 3.04539,-0.283331 4.82272,-2.458764 11.16207,-0.923214 13.40921,3.24805 1.00946,1.873815 1.13176,3.418598 0.98579,12.451709 l -0.16664,10.3125 -3.75,0 -3.75,0 -0.3125,-9.270413 c -0.27801,-8.247226 -0.4464,-9.368184 -1.52571,-10.15625 -2.12963,-1.554981 -5.31526,-0.828684 -6.31842,1.44055 -0.27015,0.611112 -0.65481,4.907988 -0.85478,9.548613 l -0.36359,8.4375 -3.60131,0.187663 c -2.55702,0.133249 -3.6937,-0.05313 -3.91993,-0.642632 z m 54.46311,-0.22115 C 268.92071,71.592644 268.75,63.586912 268.75,54.345872 c 0,-15.971878 0.0598,-16.833854 1.20891,-17.448882 1.80612,-0.966606 5.44303,-0.780766 6.55895,0.335153 0.72541,0.725415 0.98214,2.259838 0.98214,5.870125 l 0,4.887983 2.31965,-1.182625 c 4.6846,-2.388343 10.57152,-0.939402 12.97034,3.192374 1.09152,1.880062 1.30157,3.528659 1.49456,11.730176 0.16278,6.917818 0.0131,9.797405 -0.54403,10.468749 -1.10238,1.328288 -7.22143,1.278819 -7.73615,-0.06254 -0.20866,-0.543737 -0.37937,-4.621862 -0.37937,-9.0625 0,-7.240548 -0.12902,-8.202898 -1.25,-9.323881 -0.6875,-0.6875 -1.95313,-1.25 -2.8125,-1.25 -0.85938,0 -2.125,0.5625 -2.8125,1.25 -1.12469,1.124687 -1.25,2.083333 -1.25,9.5625 0,5.631944 -0.24186,8.554356 -0.75,9.0625 -1.16068,1.160681 -7.15571,0.972969 -7.62063,-0.238619 z"
       id="path3770"
       inkscape:connector-curvature="0" />
    <path
       style="fill:#c2d62c"
       d="m 121.25,96.06965 c 0,-0.09919 0.5625,-1.283656 1.25,-2.63215 1.39769,-2.741488 1.6084,-6.555513 0.53869,-9.750487 -1.58978,-4.748269 -3.123,-5.907369 -16.67593,-12.606894 C 94.994512,65.460537 92.965638,64.225775 89.520431,60.829984 77.657356,49.137075 77.850081,30.695203 89.960412,18.727792 c 3.807675,-3.762735 7.723169,-6.252541 8.543213,-5.432499 0.1862,0.186199 -0.07996,1.147837 -0.591456,2.136973 -1.496038,2.893014 -1.878275,6.251087 -1.048782,9.213766 1.3965,4.987804 3.268633,6.46992 16.538673,13.093197 13.5333,6.754677 18.10197,10.196835 21.52813,16.219869 7.94217,13.961971 3.80956,32.00019 -9.2515,40.381446 -2.55453,1.639243 -4.42869,2.370975 -4.42869,1.729106 z m 41.57447,-23.943419 c -4.46177,-1.63315 -8.19848,-6.339756 -7.71946,-9.72314 0.18556,-1.310686 0.53241,-1.465591 3.28163,-1.465591 2.74928,0 3.18102,0.192826 4.08548,1.824713 1.7161,3.096256 4.02192,4.380643 7.86443,4.380643 2.88927,0 3.6945,-0.264812 5.11028,-1.6806 1.43763,-1.437631 1.59329,-1.928887 1.07664,-3.397955 -0.66407,-1.888284 -2.89722,-2.969303 -10.75493,-5.20623 -7.52176,-2.141292 -10.97082,-6.464714 -9.50374,-11.913024 1.47217,-5.467252 5.94062,-8.307806 13.1102,-8.334051 6.12812,-0.02243 9.95796,1.715703 12.19633,5.535195 0.85452,1.458122 1.55367,3.259233 1.55367,4.00247 0,1.233265 -0.32398,1.351339 -3.70788,1.351339 -3.14264,0 -3.76758,-0.18807 -4.09945,-1.233697 C 174.64612,44.150413 171.92907,42.5 169.11728,42.5 c -3.37126,0 -5.36728,1.402399 -5.36728,3.771032 0,2.389491 1.48854,3.306356 8.08089,4.977399 6.20981,1.574079 7.86264,2.363854 10.2893,4.916551 2.53015,2.661565 2.87763,6.845855 0.88942,10.710018 -2.13376,4.147031 -6.55982,6.265581 -12.96543,6.205962 -2.60242,-0.02425 -5.85129,-0.453849 -7.21971,-0.954731 z m 32.04513,0.381013 c -4.52909,-1.365263 -7.76019,-5.647175 -8.409,-11.143739 -1.01619,-8.60898 5.75432,-15.780371 14.13775,-14.974829 6.04196,0.580556 10.553,5.509782 10.84122,11.846232 l 0.12293,2.702592 -8.75,0.3125 -8.75,0.3125 -0.18468,1.5831 c -0.49654,4.256556 6.46178,6.091556 10.4318,2.751 2.21483,-1.86365 5.85109,-1.956825 6.1915,-0.158644 0.30511,1.611732 -4.04544,6.020957 -6.65641,6.746169 -2.66114,0.73915 -6.5664,0.749213 -8.97511,0.02312 z m 9.23146,-16.319638 c 0.23366,-0.378067 -0.12942,-1.432755 -0.80684,-2.34375 -1.71906,-2.311781 -5.92517,-2.650885 -8.0556,-0.649455 -0.81874,0.76917 -1.48862,1.911966 -1.48862,2.539545 0,1.008944 0.57462,1.141054 4.96311,1.141054 2.9349,0 5.13673,-0.280909 5.38795,-0.687394 z m 45.40607,16.231907 c -3.02963,-0.873725 -6.63244,-4.786463 -7.60464,-8.258838 -1.75268,-6.25997 0.91562,-13.695356 5.82582,-16.234004 6.41695,-3.317662 14.93241,-1.239103 17.55363,4.284708 1.31781,2.777071 0.52725,4.038621 -2.53081,4.038621 -1.59939,0 -2.56731,-0.518139 -4.0864,-2.1875 -3.5802,-3.934381 -8.3529,-2.55766 -9.94487,2.86867 -0.64946,2.213757 -0.26622,6.291355 0.77803,8.277993 0.77065,1.466124 4.46499,3.024537 5.93592,2.503993 1.57129,-0.55605 3.94119,-2.776556 3.94119,-3.692737 0,-1.427038 4.35854,-2.105631 6.16673,-0.960113 0.68533,0.434169 0.71336,0.967994 0.1418,2.699844 -1.87226,5.673012 -9.17381,8.678856 -16.1764,6.659362 z m 51.24168,-0.340019 c -2.80462,-1.3822 -4.09594,-4.051007 -3.6924,-7.631194 0.51119,-4.535294 2.61995,-5.765794 12.45475,-7.267578 5.72016,-0.873475 5.5179,-5.930722 -0.2372,-5.930722 -2.00855,0 -2.84136,0.375636 -4.15703,1.875 -1.26465,1.441216 -2.17376,1.875 -3.92958,1.875 -3.1953,0 -3.93965,-1.111563 -2.51865,-3.761173 1.78924,-3.33623 5.04433,-4.676327 11.35879,-4.676327 4.04918,0 5.7467,0.26649 7.02254,1.102454 3.21608,2.107257 3.47701,3.123092 3.65011,14.210046 l 0.16099,10.3125 -2.41969,0.200781 c -1.33083,0.110431 -3.0533,-0.138312 -3.82771,-0.552762 -1.13941,-0.609794 -1.89504,-0.558669 -3.96102,0.267968 -3.23412,1.294044 -7.2492,1.284313 -9.9039,-0.024 z m 11.62899,-5.653419 c 1.00007,-1.093575 1.38213,-2.173037 1.25,-3.531762 -0.17013,-1.749334 -0.38911,-1.943281 -2.0653,-1.829189 -4.16681,0.28362 -5.97699,0.914133 -6.96839,2.427189 -2.85588,4.358624 4.08737,6.975625 7.78369,2.933762 z m -97.08597,5.307931 c -0.17623,-0.45925 -0.24367,-6.170087 -0.14987,-12.690752 l 0.17054,-11.855754 2.62933,-0.190871 c 2.05591,-0.149245 2.79433,0.07332 3.38587,1.020539 0.74123,1.186893 0.81322,1.18127 3.55751,-0.277879 5.00115,-2.65914 10.62678,-1.388721 12.77842,2.885711 0.93499,1.857446 1.07644,3.649166 0.9375,11.875 l -0.16363,9.6875 -3.125,0 -3.125,0 -0.3125,-8.843375 c -0.26664,-7.545436 -0.48724,-9.036067 -1.50312,-10.156251 -1.69479,-1.868816 -4.76118,-1.730957 -6.66919,0.299832 -1.41213,1.503009 -1.53645,2.19384 -1.82769,10.15625 l -0.3125,8.543544 -2.97513,0.190756 c -2.04808,0.131313 -3.07496,-0.06943 -3.29554,-0.64425 z m 54.39643,-0.606837 C 269.49448,70.33535 269.41504,62.515625 269.51172,53.75 l 0.17578,-15.9375 3.28125,-0.188913 3.28125,-0.188911 0,4.981545 c 0,6.830122 0.23973,7.318869 2.72159,5.548558 2.69035,-1.919021 8.29647,-1.968769 10.82633,-0.09607 3.01748,2.233652 3.54287,4.156326 3.83247,14.025064 0.30572,10.418152 0.1416,10.812458 -4.36545,10.488171 L 286.5625,72.1875 286.25,62.916575 c -0.27802,-8.247972 -0.44636,-9.368609 -1.52571,-10.156249 -2.33358,-1.702917 -5.91143,-0.838433 -7.30473,1.764984 -0.40375,0.754414 -0.90239,5.037031 -1.10808,9.516928 l -0.37398,8.145262 -2.94846,0.189669 c -2.6346,0.169475 -2.98595,0.03644 -3.30078,-1.25 z"
       id="path3768"
       inkscape:connector-curvature="0" />
    <path
       style="fill:#91c912"
       d="m 121.25,96.06965 c 0,-0.09919 0.5625,-1.283656 1.25,-2.63215 1.39769,-2.741488 1.6084,-6.555513 0.53869,-9.750487 -1.55406,-4.641569 -3.09875,-5.815357 -16.75716,-12.733544 C 94.082306,64.774388 92.930244,64.041606 89.458987,60.253342 86.954813,57.520473 85.2024,54.862321 84.116269,52.149211 c -2.482869,-6.202098 -2.480494,-6.20647 3.393337,-6.241955 3.662831,-0.02213 5.266875,-0.290881 5.9775,-1.001508 0.5342,-0.534194 1.510581,-3.473709 2.16975,-6.532255 0.659169,-3.058546 1.484525,-6.20784 1.834125,-6.998431 l 0.635644,-1.437439 2.030435,1.520499 c 1.11674,0.836274 7.41282,4.224174 13.99129,7.528666 12.77186,6.415554 16.70497,9.275156 20.15776,14.655854 7.26393,11.319864 5.94585,26.206489 -3.19875,36.12722 -3.22537,3.499101 -9.85736,7.737575 -9.85736,6.299788 z m 41.57447,-23.943419 c -4.46177,-1.63315 -8.19848,-6.339756 -7.71946,-9.72314 0.18556,-1.310686 0.53241,-1.465591 3.28163,-1.465591 2.74928,0 3.18102,0.192826 4.08548,1.824713 1.7161,3.096256 4.02192,4.380643 7.86443,4.380643 2.88927,0 3.6945,-0.264812 5.11028,-1.6806 1.43763,-1.437631 1.59329,-1.928887 1.07664,-3.397955 -0.66407,-1.888284 -2.89722,-2.969303 -10.75493,-5.20623 -7.52176,-2.141292 -10.97082,-6.464714 -9.50374,-11.913024 1.47217,-5.467252 5.94062,-8.307806 13.1102,-8.334051 6.12812,-0.02243 9.95796,1.715703 12.19633,5.535195 0.85452,1.458122 1.55367,3.259233 1.55367,4.00247 0,1.233265 -0.32398,1.351339 -3.70788,1.351339 -3.14264,0 -3.76758,-0.18807 -4.09945,-1.233697 C 174.64612,44.150413 171.92907,42.5 169.11728,42.5 c -3.37126,0 -5.36728,1.402399 -5.36728,3.771032 0,2.389491 1.48854,3.306356 8.08089,4.977399 6.20981,1.574079 7.86264,2.363854 10.2893,4.916551 2.53015,2.661565 2.87763,6.845855 0.88942,10.710018 -2.13376,4.147031 -6.55982,6.265581 -12.96543,6.205962 -2.60242,-0.02425 -5.85129,-0.453849 -7.21971,-0.954731 z m 32.04513,0.381013 c -4.52909,-1.365263 -7.76019,-5.647175 -8.409,-11.143739 -1.01619,-8.60898 5.75432,-15.780371 14.13775,-14.974829 6.04196,0.580556 10.553,5.509782 10.84122,11.846232 l 0.12293,2.702592 -8.75,0.3125 -8.75,0.3125 -0.18468,1.5831 c -0.49654,4.256556 6.46178,6.091556 10.4318,2.751 2.21483,-1.86365 5.85109,-1.956825 6.1915,-0.158644 0.30511,1.611732 -4.04544,6.020957 -6.65641,6.746169 -2.66114,0.73915 -6.5664,0.749213 -8.97511,0.02312 z m 9.23146,-16.319638 c 0.23366,-0.378067 -0.12942,-1.432755 -0.80684,-2.34375 -1.71906,-2.311781 -5.92517,-2.650885 -8.0556,-0.649455 -0.81874,0.76917 -1.48862,1.911966 -1.48862,2.539545 0,1.008944 0.57462,1.141054 4.96311,1.141054 2.9349,0 5.13673,-0.280909 5.38795,-0.687394 z m 45.40607,16.231907 c -3.02963,-0.873725 -6.63244,-4.786463 -7.60464,-8.258838 -1.75268,-6.25997 0.91562,-13.695356 5.82582,-16.234004 6.41695,-3.317662 14.93241,-1.239103 17.55363,4.284708 1.31781,2.777071 0.52725,4.038621 -2.53081,4.038621 -1.59939,0 -2.56731,-0.518139 -4.0864,-2.1875 -3.5802,-3.934381 -8.3529,-2.55766 -9.94487,2.86867 -0.64946,2.213757 -0.26622,6.291355 0.77803,8.277993 0.77065,1.466124 4.46499,3.024537 5.93592,2.503993 1.57129,-0.55605 3.94119,-2.776556 3.94119,-3.692737 0,-1.427038 4.35854,-2.105631 6.16673,-0.960113 0.68533,0.434169 0.71336,0.967994 0.1418,2.699844 -1.87226,5.673012 -9.17381,8.678856 -16.1764,6.659362 z m 51.24168,-0.340019 c -2.80462,-1.3822 -4.09594,-4.051007 -3.6924,-7.631194 0.51119,-4.535294 2.61995,-5.765794 12.45475,-7.267578 5.72016,-0.873475 5.5179,-5.930722 -0.2372,-5.930722 -2.00855,0 -2.84136,0.375636 -4.15703,1.875 -1.26465,1.441216 -2.17376,1.875 -3.92958,1.875 -3.1953,0 -3.93965,-1.111563 -2.51865,-3.761173 1.78924,-3.33623 5.04433,-4.676327 11.35879,-4.676327 4.04918,0 5.7467,0.26649 7.02254,1.102454 3.21608,2.107257 3.47701,3.123092 3.65011,14.210046 l 0.16099,10.3125 -2.41969,0.200781 c -1.33083,0.110431 -3.0533,-0.138312 -3.82771,-0.552762 -1.13941,-0.609794 -1.89504,-0.558669 -3.96102,0.267968 -3.23412,1.294044 -7.2492,1.284313 -9.9039,-0.024 z m 11.62899,-5.653419 c 1.00007,-1.093575 1.38213,-2.173037 1.25,-3.531762 -0.17013,-1.749334 -0.38911,-1.943281 -2.0653,-1.829189 -4.16681,0.28362 -5.97699,0.914133 -6.96839,2.427189 -2.85588,4.358624 4.08737,6.975625 7.78369,2.933762 z m -97.08597,5.307931 c -0.17623,-0.45925 -0.24367,-6.170087 -0.14987,-12.690752 l 0.17054,-11.855754 2.62933,-0.190871 c 2.05591,-0.149245 2.79433,0.07332 3.38587,1.020539 0.74123,1.186893 0.81322,1.18127 3.55751,-0.277879 5.00115,-2.65914 10.62678,-1.388721 12.77842,2.885711 0.93499,1.857446 1.07644,3.649166 0.9375,11.875 l -0.16363,9.6875 -3.125,0 -3.125,0 -0.3125,-8.843375 c -0.26664,-7.545436 -0.48724,-9.036067 -1.50312,-10.156251 -1.69479,-1.868816 -4.76118,-1.730957 -6.66919,0.299832 -1.41213,1.503009 -1.53645,2.19384 -1.82769,10.15625 l -0.3125,8.543544 -2.97513,0.190756 c -2.04808,0.131313 -3.07496,-0.06943 -3.29554,-0.64425 z m 54.39643,-0.606837 C 269.49448,70.33535 269.41504,62.515625 269.51172,53.75 l 0.17578,-15.9375 3.28125,-0.188913 3.28125,-0.188911 0,4.981545 c 0,6.830122 0.23973,7.318869 2.72159,5.548558 2.69035,-1.919021 8.29647,-1.968769 10.82633,-0.09607 3.01748,2.233652 3.54287,4.156326 3.83247,14.025064 0.30572,10.418152 0.1416,10.812458 -4.36545,10.488171 L 286.5625,72.1875 286.25,62.916575 c -0.27802,-8.247972 -0.44636,-9.368609 -1.52571,-10.156249 -2.33358,-1.702917 -5.91143,-0.838433 -7.30473,1.764984 -0.40375,0.754414 -0.90239,5.037031 -1.10808,9.516928 l -0.37398,8.145262 -2.94846,0.189669 c -2.6346,0.169475 -2.98595,0.03644 -3.30078,-1.25 z"
       id="path3766"
       inkscape:connector-curvature="0" />
    <path
       style="fill:#64b111"
       d="m 121.25,96.06965 c 0,-0.09919 0.5625,-1.283656 1.25,-2.63215 2.34251,-4.5947 1.23991,-10.947594 -2.55947,-14.746975 -1.4607,-1.4607 -6.28334,-4.265775 -13.4525,-7.824619 -8.764311,-4.350687 -11.908155,-6.254031 -14.571099,-8.821623 -1.867562,-1.800689 -3.218743,-3.450805 -3.002625,-3.666925 0.216119,-0.216119 1.647794,0.03462 3.1815,0.557211 2.713463,0.924569 2.798294,0.91384 3.150338,-0.398457 0.198981,-0.741736 0.369937,-2.332987 0.379893,-3.536112 0.03044,-3.679407 0.485238,-3.843011 5.319473,-1.913633 11.69726,4.668467 20.71541,4.461498 27.87959,-0.639843 l 1.89512,-1.349443 2.08621,2.022035 c 1.14741,1.11212 2.82765,3.674187 3.73386,5.693483 5.76116,12.837576 1.12827,27.620307 -11.21662,35.79027 -2.12099,1.403687 -4.07367,2.106781 -4.07367,1.466781 z m 41.57447,-23.943419 c -4.46177,-1.63315 -8.19848,-6.339756 -7.71946,-9.72314 0.18556,-1.310686 0.53241,-1.465591 3.28163,-1.465591 2.74928,0 3.18102,0.192826 4.08548,1.824713 1.7161,3.096256 4.02192,4.380643 7.86443,4.380643 2.88927,0 3.6945,-0.264812 5.11028,-1.6806 1.43763,-1.437631 1.59329,-1.928887 1.07664,-3.397955 -0.66407,-1.888284 -2.89722,-2.969303 -10.75493,-5.20623 -7.52176,-2.141292 -10.97082,-6.464714 -9.50374,-11.913024 1.47217,-5.467252 5.94062,-8.307806 13.1102,-8.334051 6.12812,-0.02243 9.95796,1.715703 12.19633,5.535195 0.85452,1.458122 1.55367,3.259233 1.55367,4.00247 0,1.233265 -0.32398,1.351339 -3.70788,1.351339 -3.14264,0 -3.76758,-0.18807 -4.09945,-1.233697 C 174.64612,44.150413 171.92907,42.5 169.11728,42.5 c -3.37126,0 -5.36728,1.402399 -5.36728,3.771032 0,2.389491 1.48854,3.306356 8.08089,4.977399 6.20981,1.574079 7.86264,2.363854 10.2893,4.916551 2.53015,2.661565 2.87763,6.845855 0.88942,10.710018 -2.13376,4.147031 -6.55982,6.265581 -12.96543,6.205962 -2.60242,-0.02425 -5.85129,-0.453849 -7.21971,-0.954731 z m 32.04513,0.381013 c -4.52909,-1.365263 -7.76019,-5.647175 -8.409,-11.143739 -1.01619,-8.60898 5.75432,-15.780371 14.13775,-14.974829 6.04196,0.580556 10.553,5.509782 10.84122,11.846232 l 0.12293,2.702592 -8.75,0.3125 -8.75,0.3125 -0.18468,1.5831 c -0.49654,4.256556 6.46178,6.091556 10.4318,2.751 2.21483,-1.86365 5.85109,-1.956825 6.1915,-0.158644 0.30511,1.611732 -4.04544,6.020957 -6.65641,6.746169 -2.66114,0.73915 -6.5664,0.749213 -8.97511,0.02312 z m 9.23146,-16.319638 c 0.23366,-0.378067 -0.12942,-1.432755 -0.80684,-2.34375 -1.71906,-2.311781 -5.92517,-2.650885 -8.0556,-0.649455 -0.81874,0.76917 -1.48862,1.911966 -1.48862,2.539545 0,1.008944 0.57462,1.141054 4.96311,1.141054 2.9349,0 5.13673,-0.280909 5.38795,-0.687394 z m 45.40607,16.231907 c -3.02963,-0.873725 -6.63244,-4.786463 -7.60464,-8.258838 -1.75268,-6.25997 0.91562,-13.695356 5.82582,-16.234004 6.41695,-3.317662 14.93241,-1.239103 17.55363,4.284708 1.31781,2.777071 0.52725,4.038621 -2.53081,4.038621 -1.59939,0 -2.56731,-0.518139 -4.0864,-2.1875 -3.5802,-3.934381 -8.3529,-2.55766 -9.94487,2.86867 -0.64946,2.213757 -0.26622,6.291355 0.77803,8.277993 0.77065,1.466124 4.46499,3.024537 5.93592,2.503993 1.57129,-0.55605 3.94119,-2.776556 3.94119,-3.692737 0,-1.427038 4.35854,-2.105631 6.16673,-0.960113 0.68533,0.434169 0.71336,0.967994 0.1418,2.699844 -1.87226,5.673012 -9.17381,8.678856 -16.1764,6.659362 z m 51.24168,-0.340019 c -2.80462,-1.3822 -4.09594,-4.051007 -3.6924,-7.631194 0.51119,-4.535294 2.61995,-5.765794 12.45475,-7.267578 5.72016,-0.873475 5.5179,-5.930722 -0.2372,-5.930722 -2.00855,0 -2.84136,0.375636 -4.15703,1.875 -1.26465,1.441216 -2.17376,1.875 -3.92958,1.875 -3.1953,0 -3.93965,-1.111563 -2.51865,-3.761173 1.78924,-3.33623 5.04433,-4.676327 11.35879,-4.676327 4.04918,0 5.7467,0.26649 7.02254,1.102454 3.21608,2.107257 3.47701,3.123092 3.65011,14.210046 l 0.16099,10.3125 -2.41969,0.200781 c -1.33083,0.110431 -3.0533,-0.138312 -3.82771,-0.552762 -1.13941,-0.609794 -1.89504,-0.558669 -3.96102,0.267968 -3.23412,1.294044 -7.2492,1.284313 -9.9039,-0.024 z m 11.62899,-5.653419 c 1.00007,-1.093575 1.38213,-2.173037 1.25,-3.531762 -0.17013,-1.749334 -0.38911,-1.943281 -2.0653,-1.829189 -4.16681,0.28362 -5.97699,0.914133 -6.96839,2.427189 -2.85588,4.358624 4.08737,6.975625 7.78369,2.933762 z m -97.08597,5.307931 c -0.17623,-0.45925 -0.24367,-6.170087 -0.14987,-12.690752 l 0.17054,-11.855754 2.62933,-0.190871 c 2.05591,-0.149245 2.79433,0.07332 3.38587,1.020539 0.74123,1.186893 0.81322,1.18127 3.55751,-0.277879 5.00115,-2.65914 10.62678,-1.388721 12.77842,2.885711 0.93499,1.857446 1.07644,3.649166 0.9375,11.875 l -0.16363,9.6875 -3.125,0 -3.125,0 -0.3125,-8.843375 c -0.26664,-7.545436 -0.48724,-9.036067 -1.50312,-10.156251 -1.69479,-1.868816 -4.76118,-1.730957 -6.66919,0.299832 -1.41213,1.503009 -1.53645,2.19384 -1.82769,10.15625 l -0.3125,8.543544 -2.97513,0.190756 c -2.04808,0.131313 -3.07496,-0.06943 -3.29554,-0.64425 z m 54.39643,-0.606837 C 269.49448,70.33535 269.41504,62.515625 269.51172,53.75 l 0.17578,-15.9375 3.28125,-0.188913 3.28125,-0.188911 0,4.981545 c 0,6.830122 0.23973,7.318869 2.72159,5.548558 2.69035,-1.919021 8.29647,-1.968769 10.82633,-0.09607 3.01748,2.233652 3.54287,4.156326 3.83247,14.025064 0.30572,10.418152 0.1416,10.812458 -4.36545,10.488171 L 286.5625,72.1875 286.25,62.916575 c -0.27802,-8.247972 -0.44636,-9.368609 -1.52571,-10.156249 -2.33358,-1.702917 -5.91143,-0.838433 -7.30473,1.764984 -0.40375,0.754414 -0.90239,5.037031 -1.10808,9.516928 l -0.37398,8.145262 -2.94846,0.189669 c -2.6346,0.169475 -2.98595,0.03644 -3.30078,-1.25 z"
       id="path3764"
       inkscape:connector-curvature="0" />
    <path
       style="fill:#5e5e5e"
       d="m 121.38712,95.78125 c 2.6094,-5.069206 2.9517,-9.10785 1.15217,-13.59375 -0.41369,-1.03125 -0.7206,-1.952275 -0.68203,-2.046725 0.0386,-0.09444 -0.42339,-1.007187 -1.02658,-2.028306 l -1.09671,-1.856588 2.72196,-2.773468 C 124.98112,70.909425 135.66271,65 137.78832,65 c 1.9283,0 1.56275,8.867787 -0.62064,15.056169 -1.94239,5.505343 -6.33587,10.901356 -11.84401,14.5467 -2.36338,1.5641 -4.45783,2.191062 -3.93655,1.178381 z m 41.43735,-23.655019 c -4.46177,-1.63315 -8.19848,-6.339756 -7.71946,-9.72314 0.18556,-1.310686 0.53241,-1.465591 3.28163,-1.465591 2.74928,0 3.18102,0.192826 4.08548,1.824713 1.7161,3.096256 4.02192,4.380643 7.86443,4.380643 2.88927,0 3.6945,-0.264812 5.11028,-1.6806 1.43763,-1.437631 1.59329,-1.928887 1.07664,-3.397955 -0.66407,-1.888284 -2.89722,-2.969303 -10.75493,-5.20623 -7.52176,-2.141292 -10.97082,-6.464714 -9.50374,-11.913024 1.47217,-5.467252 5.94062,-8.307806 13.1102,-8.334051 6.12812,-0.02243 9.95796,1.715703 12.19633,5.535195 0.85452,1.458122 1.55367,3.259233 1.55367,4.00247 0,1.233265 -0.32398,1.351339 -3.70788,1.351339 -3.14264,0 -3.76758,-0.18807 -4.09945,-1.233697 C 174.64612,44.150413 171.92907,42.5 169.11728,42.5 c -3.37126,0 -5.36728,1.402399 -5.36728,3.771032 0,2.389491 1.48854,3.306356 8.08089,4.977399 6.20981,1.574079 7.86264,2.363854 10.2893,4.916551 2.53015,2.661565 2.87763,6.845855 0.88942,10.710018 -2.13376,4.147031 -6.55982,6.265581 -12.96543,6.205962 -2.60242,-0.02425 -5.85129,-0.453849 -7.21971,-0.954731 z m 32.04513,0.381013 c -4.52909,-1.365263 -7.76019,-5.647175 -8.409,-11.143739 -1.01619,-8.60898 5.75432,-15.780371 14.13775,-14.974829 6.04196,0.580556 10.553,5.509782 10.84122,11.846232 l 0.12293,2.702592 -8.75,0.3125 -8.75,0.3125 -0.18468,1.5831 c -0.49654,4.256556 6.46178,6.091556 10.4318,2.751 2.21483,-1.86365 5.85109,-1.956825 6.1915,-0.158644 0.30511,1.611732 -4.04544,6.020957 -6.65641,6.746169 -2.66114,0.73915 -6.5664,0.749213 -8.97511,0.02312 z m 9.23146,-16.319638 c 0.23366,-0.378067 -0.12942,-1.432755 -0.80684,-2.34375 -1.71906,-2.311781 -5.92517,-2.650885 -8.0556,-0.649455 -0.81874,0.76917 -1.48862,1.911966 -1.48862,2.539545 0,1.008944 0.57462,1.141054 4.96311,1.141054 2.9349,0 5.13673,-0.280909 5.38795,-0.687394 z m 45.40607,16.231907 c -3.02963,-0.873725 -6.63244,-4.786463 -7.60464,-8.258838 -1.75268,-6.25997 0.91562,-13.695356 5.82582,-16.234004 6.41695,-3.317662 14.93241,-1.239103 17.55363,4.284708 1.31781,2.777071 0.52725,4.038621 -2.53081,4.038621 -1.59939,0 -2.56731,-0.518139 -4.0864,-2.1875 -3.5802,-3.934381 -8.3529,-2.55766 -9.94487,2.86867 -0.64946,2.213757 -0.26622,6.291355 0.77803,8.277993 0.77065,1.466124 4.46499,3.024537 5.93592,2.503993 1.57129,-0.55605 3.94119,-2.776556 3.94119,-3.692737 0,-1.427038 4.35854,-2.105631 6.16673,-0.960113 0.68533,0.434169 0.71336,0.967994 0.1418,2.699844 -1.87226,5.673012 -9.17381,8.678856 -16.1764,6.659362 z m 51.24168,-0.340019 c -2.80462,-1.3822 -4.09594,-4.051007 -3.6924,-7.631194 0.51119,-4.535294 2.61995,-5.765794 12.45475,-7.267578 5.72016,-0.873475 5.5179,-5.930722 -0.2372,-5.930722 -2.00855,0 -2.84136,0.375636 -4.15703,1.875 -1.26465,1.441216 -2.17376,1.875 -3.92958,1.875 -3.1953,0 -3.93965,-1.111563 -2.51865,-3.761173 1.78924,-3.33623 5.04433,-4.676327 11.35879,-4.676327 4.04918,0 5.7467,0.26649 7.02254,1.102454 3.21608,2.107257 3.47701,3.123092 3.65011,14.210046 l 0.16099,10.3125 -2.41969,0.200781 c -1.33083,0.110431 -3.0533,-0.138312 -3.82771,-0.552762 -1.13941,-0.609794 -1.89504,-0.558669 -3.96102,0.267968 -3.23412,1.294044 -7.2492,1.284313 -9.9039,-0.024 z m 11.62899,-5.653419 c 1.00007,-1.093575 1.38213,-2.173037 1.25,-3.531762 -0.17013,-1.749334 -0.38911,-1.943281 -2.0653,-1.829189 -4.16681,0.28362 -5.97699,0.914133 -6.96839,2.427189 -2.85588,4.358624 4.08737,6.975625 7.78369,2.933762 z m -97.08597,5.307931 c -0.17623,-0.45925 -0.24367,-6.170087 -0.14987,-12.690752 l 0.17054,-11.855754 2.62933,-0.190871 c 2.05591,-0.149245 2.79433,0.07332 3.38587,1.020539 0.74123,1.186893 0.81322,1.18127 3.55751,-0.277879 5.00115,-2.65914 10.62678,-1.388721 12.77842,2.885711 0.93499,1.857446 1.07644,3.649166 0.9375,11.875 l -0.16363,9.6875 -3.125,0 -3.125,0 -0.3125,-8.843375 c -0.26664,-7.545436 -0.48724,-9.036067 -1.50312,-10.156251 -1.69479,-1.868816 -4.76118,-1.730957 -6.66919,0.299832 -1.41213,1.503009 -1.53645,2.19384 -1.82769,10.15625 l -0.3125,8.543544 -2.97513,0.190756 c -2.04808,0.131313 -3.07496,-0.06943 -3.29554,-0.64425 z m 54.39643,-0.606837 C 269.49448,70.33535 269.41504,62.515625 269.51172,53.75 l 0.17578,-15.9375 3.28125,-0.188913 3.28125,-0.188911 0,4.981545 c 0,6.830122 0.23973,7.318869 2.72159,5.548558 2.69035,-1.919021 8.29647,-1.968769 10.82633,-0.09607 3.01748,2.233652 3.54287,4.156326 3.83247,14.025064 0.30572,10.418152 0.1416,10.812458 -4.36545,10.488171 L 286.5625,72.1875 286.25,62.916575 c -0.27802,-8.247972 -0.44636,-9.368609 -1.52571,-10.156249 -2.33358,-1.702917 -5.91143,-0.838433 -7.30473,1.764984 -0.40375,0.754414 -0.90239,5.037031 -1.10808,9.516928 l -0.37398,8.145262 -2.94846,0.189669 c -2.6346,0.169475 -2.98595,0.03644 -3.30078,-1.25 z"
       id="path3762"
       inkscape:connector-curvature="0" />
    <path
       style="fill:#26661b"
       d="m 122.5,95.111663 c 0,-0.321207 0.45167,-1.665013 1.00372,-2.986244 1.67314,-4.004381 0.72657,-8.620181 -2.98727,-14.566981 -0.71944,-1.152013 -0.52204,-1.567932 1.93001,-4.066382 1.76079,-1.794118 4.82955,-3.797481 8.63569,-5.637587 C 134.32949,66.284513 137.21787,65 137.50077,65 c 0.97737,0 1.3126,4.753919 0.64086,9.088106 C 137.21602,80.060306 134.28496,85.814187 130.03602,90 126.51734,93.466387 122.5,96.191344 122.5,95.111663 Z m 40.40949,-23.523319 c -4.07423,-1.452663 -7.28449,-5.306481 -7.28449,-8.744806 0,-1.469484 0.21667,-1.593538 2.78317,-1.593538 2.57298,0 2.86257,0.167293 3.83429,2.215031 1.3482,2.841125 4.09738,4.277938 8.11388,4.240575 7.79692,-0.07252 9.6907,-6.64985 2.63837,-9.163353 -1.47522,-0.525777 -4.70256,-1.540286 -7.17187,-2.254464 -2.46932,-0.714178 -5.34682,-2.019751 -6.39445,-2.901273 -4.68372,-3.941085 -3.39019,-11.658802 2.45375,-14.640159 7.02662,-3.584715 16.68309,-1.417439 19.70281,4.422053 1.61275,3.118721 1.2648,3.70659 -2.1939,3.70659 -2.77431,0 -3.20654,-0.188724 -4.01563,-1.753322 -2.52407,-4.881022 -12.25042,-4.026072 -12.25042,1.076818 0,2.532484 1.71639,3.704831 7.90879,5.401929 3.04079,0.833362 6.2691,1.818998 7.17404,2.190301 5.01608,2.058163 6.99865,8.135127 4.2497,13.026218 -2.13733,3.802868 -6.28572,5.691293 -12.42399,5.655625 -2.59657,-0.01506 -5.8024,-0.412988 -7.12405,-0.884225 z M 193.07583,71.048 c -6.52954,-3.452906 -8.23414,-13.925097 -3.23392,-19.867527 3.09378,-3.676749 9.2687,-5.317011 13.71115,-3.642139 2.91471,1.098887 5.78097,4.361786 6.77656,7.714308 1.67136,5.628072 2.01185,5.372358 -7.1535,5.372358 -4.44064,0 -8.51876,0.170716 -9.0625,0.379368 -0.55999,0.214886 -0.98862,1.103021 -0.98862,2.048432 0,5.173606 7.32988,7.173537 11.59749,3.164331 1.48243,-1.392675 4.67125,-1.506437 5.10556,-0.182144 0.41516,1.265907 -3.5759,5.155494 -5.97322,5.821344 -3.84595,1.068213 -7.78966,0.772469 -10.779,-0.808331 z m 11.67651,-14.429089 c 0.44081,-1.148741 -1.29469,-4.482526 -2.59284,-4.980673 -2.35903,-0.905242 -5.73373,-0.381979 -7.38074,1.144419 -1.57601,1.460601 -2.13475,3.403019 -1.23709,4.300676 0.22916,0.229167 2.76924,0.416667 5.64461,0.416667 3.92175,0 5.31243,-0.22014 5.56606,-0.881089 z m 43.52281,14.562264 c -3.98712,-1.973594 -6.40432,-6.174969 -6.39666,-11.118189 0.0147,-9.467314 7.79872,-15.207418 16.9176,-12.475337 2.84685,0.852939 6.09927,4.018871 6.34175,6.173112 0.15218,1.352074 -0.1006,1.577975 -1.96456,1.75564 -1.78622,0.170256 -2.4771,-0.164922 -4.18688,-2.03125 -5.23795,-5.717531 -12.47581,-0.20516 -11.09214,8.447807 1.07031,6.693373 8.17053,8.735567 11.52136,3.313817 1.19747,-1.93755 1.61339,-2.166919 3.62478,-1.998981 2.00974,0.1678 2.25289,0.370131 2.10577,1.752206 -0.63157,5.932919 -10.25188,9.457588 -16.87102,6.181175 z m 53.21742,0.706281 C 299.41537,71.048175 297.5,68.16745 297.5,65.882619 c 0,-4.540573 2.55291,-6.784068 8.54229,-7.506942 5.85869,-0.707101 8.33271,-2.068288 8.33271,-4.584589 0,-1.573569 -2.54602,-3.166088 -5.06174,-3.166088 -2.05216,0 -2.91745,0.380782 -4.3499,1.914225 -1.48786,1.592756 -2.18597,1.881397 -4.15701,1.71875 -1.97293,-0.162804 -2.33397,-0.404394 -2.16014,-1.445475 0.32277,-1.933048 3.03963,-4.432968 5.67612,-5.222879 3.03871,-0.91042 8.49618,-0.86096 11.24413,0.101905 3.93677,1.379417 4.35544,2.663065 4.52414,13.870974 l 0.15051,10 -2.51835,0.187194 c -1.64647,0.122381 -2.78302,-0.131731 -3.28286,-0.733994 -0.66918,-0.806312 -1.09109,-0.772913 -3.38346,0.267831 -2.72376,1.236607 -7.28513,1.524638 -9.56386,0.603925 z m 10.89786,-4.679368 c 1.79305,-1.718288 2.62593,-6.376207 1.23554,-6.90975 -0.50081,-0.19218 -2.54595,0.01364 -4.54475,0.457372 -2.704,0.60029 -3.96806,1.25404 -4.93862,2.554184 -1.19874,1.6058 -1.22875,1.882237 -0.37037,3.411537 1.61932,2.885025 5.8653,3.124788 8.6182,0.486657 z M 215.625,59.6875 l 0,-12.1875 2.55851,0 c 2.03289,0 2.62567,0.256803 2.8854,1.25 0.41477,1.58611 1.04522,1.572707 3.26635,-0.06944 2.40051,-1.774782 6.64328,-2.196901 9.61233,-0.956348 3.58693,1.498713 4.17741,3.584443 4.17741,14.755715 l 0,9.395074 -2.8125,0 -2.8125,0 0,-7.832575 c 0,-11.129146 -1.26301,-13.515351 -6.62157,-12.51008 -3.60359,0.676037 -4.28341,2.480386 -4.5335,12.032536 l -0.21757,8.310119 -2.75118,0 -2.75118,0 0,-12.1875 z m 54.79167,11.770831 C 270.1875,71.229169 270,63.635419 270,54.583333 l 0,-16.458333 2.8125,0 2.8125,0 0.009,4.53125 c 0.009,4.85925 0.44443,7.34375 1.28661,7.34375 0.28839,0 1.56046,-0.703125 2.82682,-1.5625 4.17452,-2.832906 10.55058,-1.449312 12.24221,2.656537 0.40896,0.992608 0.73237,5.678336 0.76567,11.093463 l 0.0576,9.375 -2.8125,0 -2.8125,0 -0.3125,-8.963456 c -0.29567,-8.480498 -0.392,-9.027728 -1.78799,-10.156252 -2.60988,-2.109839 -6.82035,-1.163993 -8.21254,1.844878 -0.41985,0.907406 -0.91315,5.235767 -1.09623,9.61858 l -0.33287,7.96875 -2.30602,0 c -1.26831,0 -2.49352,-0.1875 -2.72268,-0.416669 z"
       id="path3760"
       inkscape:connector-curvature="0" />
    <path
       style="fill:#0a0a0a"
       d="m 164.37096,71.916038 c -4.71095,-1.433007 -7.7619,-4.339507 -8.51669,-8.113438 -0.38526,-1.926334 -0.38366,-1.9276 2.44337,-1.9276 2.57795,0 2.94498,0.196759 4.13762,2.218137 3.53839,5.997119 15.06474,4.892969 15.06474,-1.4431 0,-2.113216 -2.85021,-3.956377 -8.84369,-5.719008 -3.2141,-0.945234 -6.75311,-2.193038 -7.86448,-2.772898 -2.51722,-1.313364 -3.91683,-3.93425 -3.91683,-7.334572 0,-5.837509 4.77356,-9.433853 12.52191,-9.433853 6.86793,0 11.65241,2.916455 12.7411,7.766544 0.3806,1.695539 0.34401,1.71875 -2.70899,1.71875 -2.53224,0 -3.16596,-0.224251 -3.48635,-1.233697 -0.6835,-2.153517 -3.38555,-3.766303 -6.31005,-3.766303 -3.43483,0 -5.55398,0.969084 -6.45803,2.953237 -1.5716,3.449294 0.1077,4.769561 9.3733,7.369302 6.72524,1.886963 9.53691,3.713115 10.57911,6.87102 1.74336,5.282435 -1.37213,10.801272 -7.04926,12.487197 -3.33953,0.991732 -9.05288,1.167563 -11.70678,0.360282 z m 30.40233,-0.294244 c -6.99566,-2.601975 -9.73658,-11.152417 -5.96254,-18.60041 3.12741,-6.171878 12.52839,-7.89609 17.99093,-3.299672 1.92473,1.619552 3.67105,5.457249 3.96606,8.715788 l 0.16976,1.875 -8.53152,0.173482 c -9.84558,0.200202 -10.54641,0.521404 -9.03424,4.140543 1.71676,4.108769 7.8478,5.389912 10.70182,2.23625 0.75515,-0.834425 1.92202,-1.237775 3.58084,-1.237775 l 2.46066,0 -1.17339,2.009137 c -0.64537,1.105019 -2.06593,2.530394 -3.1568,3.1675 -2.66529,1.556613 -7.96941,1.951669 -11.01158,0.820157 z M 205,56.021787 c 0,-0.813018 -0.56593,-2.197674 -1.25762,-3.077014 -3.15475,-4.010617 -10.61738,-1.716354 -10.61738,3.264139 0,1.214182 0.35368,1.291088 5.9375,1.291088 5.82639,0 5.9375,-0.02766 5.9375,-1.478213 z m 44.6875,15.573144 c -5.59666,-2.054531 -8.49536,-7.748043 -7.28759,-14.314032 1.25033,-6.797396 5.09375,-10.010179 11.97509,-10.010179 4.52069,0 7.23576,1.089129 9.31981,3.738579 2.07699,2.64046 1.741,3.990701 -0.99304,3.990701 -1.82504,0 -2.64494,-0.415296 -3.98214,-2.017046 -1.38861,-1.663322 -2.12766,-2.017045 -4.21435,-2.017045 -5.73852,0 -8.7929,7.225236 -5.82074,13.769216 2.12875,4.687012 7.72971,5.252463 10.37796,1.047712 1.03527,-1.643762 1.65261,-1.988825 3.59375,-2.008762 2.74341,-0.02819 3.04029,1.013512 1.1652,4.08845 -2.26759,3.718588 -9.19112,5.546912 -14.13395,3.732406 z m 51.57119,-0.150337 c -4.07839,-2.119106 -5.06042,-7.114025 -2.00028,-10.174155 1.68922,-1.689223 3.29104,-2.195607 10.87775,-3.438782 2.75029,-0.450669 4.23884,-1.75594 4.23884,-3.716933 0,-2.135325 -2.20191,-3.773815 -5.07151,-3.773815 -1.9789,0 -2.84748,0.40213 -4.35675,2.017045 -3.25367,3.481413 -7.74723,2.288992 -5.32207,-1.412273 1.7542,-2.67725 4.54712,-3.705787 10.06283,-3.705787 5.34414,0 8.45225,1.077018 9.66897,3.350487 C 319.72124,51.271959 320,56.14234 320,61.833912 l 0,10.041088 -1.98204,0 c -1.09012,0 -2.50777,-0.475781 -3.15033,-1.057294 -1.09805,-0.993719 -1.28071,-0.990881 -3.03811,0.04725 -2.83366,1.673888 -7.92732,1.953194 -10.57083,0.57965 z m 10.42615,-3.292119 c 2.0149,-1.228562 3.10579,-4.067456 2.56837,-6.68381 -0.4586,-2.232574 -9.17574,-0.824059 -10.5271,1.700966 -1.02234,1.910263 -0.67108,3.559607 1.04568,4.910007 2.05989,1.620312 4.33578,1.644293 6.91305,0.07284 z m -95.76733,2.958294 c -0.17735,-0.462163 -0.2454,-5.893338 -0.15124,-12.06928 l 0.17123,-11.228989 2.34375,-0.193978 c 1.65481,-0.136959 2.34375,0.05594 2.34375,0.65625 0,2.001339 1.39016,2.306937 3.42701,0.753359 4.36837,-3.331924 10.73921,-2.241978 12.98703,2.221869 0.92782,1.842512 1.07567,3.616735 0.9375,11.25 l -0.16404,9.0625 -2.5,0 -2.5,0 -0.3125,-8.843375 c -0.26664,-7.545436 -0.48724,-9.036067 -1.50312,-10.156251 -1.68895,-1.86238 -5.39682,-1.768655 -7.68078,0.19415 -1.73047,1.487146 -1.75773,1.621118 -2.0661,10.156251 l -0.3125,8.649225 -2.34878,0.194275 c -1.53741,0.127169 -2.46015,-0.09599 -2.67121,-0.646006 z m 54.70749,-16.073041 0,-16.912728 2.5,0 2.5,0 0,5.900614 c 0,3.338474 0.27694,6.071774 0.63779,6.294794 0.35079,0.216798 1.48407,-0.317913 2.5184,-1.188246 2.46096,-2.070761 5.50655,-2.601013 8.85459,-1.541628 4.2473,1.343927 4.86207,3.208916 4.86325,14.753216 l 9.7e-4,9.53125 -2.43313,0 c -1.64215,0 -2.55646,-0.321394 -2.8125,-0.988619 -0.20866,-0.543737 -0.37937,-4.443306 -0.37937,-8.665712 0,-6.820338 -0.14456,-7.860876 -1.29536,-9.323882 C 284.62192,51.679244 283.71521,51.25 282.10105,51.25 c -5.07655,0 -6.02743,1.795433 -6.45458,12.1875 l -0.33397,8.125 -2.34375,0.193981 -2.34375,0.193975 0,-16.912728 z"
       id="path3758"
       inkscape:connector-curvature="0" />
  </g>
</svg>
