<?xml version="1.0" encoding="UTF-8" standalone="no"?>
<!-- Created with Inkscape (http://www.inkscape.org/) -->

<svg
   xmlns:dc="http://purl.org/dc/elements/1.1/"
   xmlns:cc="http://creativecommons.org/ns#"
   xmlns:rdf="http://www.w3.org/1999/02/22-rdf-syntax-ns#"
   xmlns:svg="http://www.w3.org/2000/svg"
   xmlns="http://www.w3.org/2000/svg"
   xmlns:xlink="http://www.w3.org/1999/xlink"
   xmlns:sodipodi="http://sodipodi.sourceforge.net/DTD/sodipodi-0.dtd"
   xmlns:inkscape="http://www.inkscape.org/namespaces/inkscape"
   id="svg3516"
   version="1.1"
   inkscape:version="0.91 r13725"
   width="406.875"
   height="108.75"
   viewBox="0 0 406.875 108.75"
   sodipodi:docname="Titanium.svg">
  <metadata
     id="metadata3522">
    <rdf:RDF>
      <cc:Work
         rdf:about="">
        <dc:format>image/svg+xml</dc:format>
        <dc:type
           rdf:resource="http://purl.org/dc/dcmitype/StillImage" />
        <dc:title></dc:title>
      </cc:Work>
    </rdf:RDF>
  </metadata>
  <defs
     id="defs3520" />
  <sodipodi:namedview
     pagecolor="#ffffff"
     bordercolor="#666666"
     borderopacity="1"
     objecttolerance="10"
     gridtolerance="10"
     guidetolerance="10"
     inkscape:pageopacity="0"
     inkscape:pageshadow="2"
     inkscape:window-width="640"
     inkscape:window-height="480"
     id="namedview3518"
     showgrid="false"
     inkscape:zoom="0.64393241"
     inkscape:cx="203.4375"
     inkscape:cy="54.375"
     inkscape:window-x="0"
     inkscape:window-y="0"
     inkscape:window-maximized="0"
     inkscape:current-layer="svg3516" />
  <image
     width="406.875"
     height="108.75"
     preserveAspectRatio="none"
     style="image-rendering:optimizeQuality"
     xlink:href="file:///media/havoc/USB%20DISK/pics/_Products/Titanium.png"
     id="image3524"
     x="0"
     y="0"
     sodipodi:absref="/media/havoc/USB DISK/pics/_Products/Titanium.png" />
  <g
     id="g3573">
    <path
       style="fill:#fbfbfb"
       d="M 0,54.375 0,0 203.4375,0 406.875,0 l 0,54.375 0,54.375 -203.4375,0 L 0,108.75 0,54.375 Z"
       id="path3589"
       inkscape:connector-curvature="0" />
    <path
       style="fill:#b7c3d1"
       d="M 89.375,101.81693 C 77.811925,101.12392 70.225181,98.708781 65.118494,94.0952 c -2.690286,-2.430513 -4.872139,-7.381231 -4.118526,-9.345119 0.245374,-0.639431 -0.279789,-2.338543 -1.304997,-4.222187 -2.062169,-3.788882 -2.1463,-6.604588 -0.357687,-11.971081 1.089793,-3.269776 5.117629,-11.106136 8.09631,-15.751785 0.709025,-1.105821 0.473606,-1.821882 -1.952107,-5.9375 -4.077038,-6.917375 -5.896713,-11.088456 -6.760615,-15.496766 -1.019935,-5.204514 -0.197732,-8.079286 3.00159,-10.49484 1.287019,-0.971728 5.059294,-4.589773 8.382826,-8.0401 l 6.042787,-6.273322 4.894713,0 c 5.639925,0 9.186525,1.2318644 17.510025,6.081868 2.813417,1.639348 5.268897,2.980632 5.456607,2.980632 0.18772,0 1.82333,-0.942774 3.63469,-2.095053 5.11581,-3.254365 12.72727,-6.6505008 16.44581,-7.3379109 5.77402,-1.0673859 7.04237,-0.367081 16.53508,9.1296699 l 8.4375,8.441088 -0.0462,4.524853 c -0.0551,5.394064 -1.43031,9.289907 -5.91142,16.745771 C 141.39721,47.874771 140,50.679195 140,51.265471 c 0,0.586275 0.52506,1.736697 1.16681,2.556492 2.50559,3.200745 6.8879,12.334206 7.95325,16.5759 1.36861,5.449093 0.79176,8.042981 -2.62185,11.789637 -1.25277,1.375 -2.96875,4.046875 -3.81329,5.9375 -3.19526,7.153144 -8.35106,10.510956 -19.55992,12.73879 -5.60932,1.11489 -22.90241,1.60327 -33.75,0.95314 z m 19.06935,-46.823855 3.71773,-3.756925 -4.19912,-4.199113 -4.19911,-4.199113 -3.75692,3.717724 C 97.940619,48.600395 96.25,50.555269 96.25,50.899812 c 0,0.843327 6.97322,7.850188 7.8125,7.850188 0.36527,0 2.33711,-1.690616 4.38185,-3.756925 z M 85.098013,31.765216 c 1.553781,-1.740345 1.662206,-2.105965 0.880368,-2.96875 -1.248737,-1.378032 -7.695256,-4.787924 -8.164537,-4.318642 -0.781719,0.781719 3.957612,9.272176 5.175687,9.272176 0.185056,0 1.133875,-0.893153 2.108482,-1.984784 z M 128.83495,28.90625 c 1.5272,-2.830313 2.14425,-4.53125 1.64381,-4.53125 -1.14358,0 -6.81431,3.040695 -8.26269,4.430522 -1.20911,1.16024 -1.20302,1.191257 0.60454,3.077942 1.00428,1.04824 2.21822,1.826724 2.69765,1.729964 0.47942,-0.09676 1.97193,-2.21499 3.31669,-4.707178 z m 57.6426,41.6279 C 184.29262,69.4514 183.75,67.233806 183.75,59.387106 l 0,-7.429078 -1.71875,-0.197764 c -1.44911,-0.166738 -1.71875,-0.491919 -1.71875,-2.072764 0,-1.580845 0.26964,-1.906026 1.71875,-2.072764 1.63444,-0.188062 1.71875,-0.360605 1.71875,-3.517222 0,-3.630208 0.99294,-5.086705 3.02752,-4.440951 1.36357,0.432778 1.95139,2.067566 1.96395,5.461959 0.008,2.211803 0.10429,2.313947 2.35228,2.5 2.14439,0.177479 2.34375,0.353463 2.34375,2.068978 0,1.715515 -0.19936,1.891499 -2.34375,2.068978 l -2.34375,0.193979 0,7.169387 c 0,5.190481 0.21564,7.235818 0.78125,7.410069 0.42969,0.132375 1.57242,0.414606 2.53941,0.627187 1.47112,0.3234 1.72621,0.663544 1.5625,2.08345 -0.17787,1.542613 -0.45146,1.708694 -3.00816,1.826044 -1.54688,0.071 -3.41323,-0.1686 -4.14745,-0.532444 z m 29.56216,-0.565412 c -1.58915,-1.250032 -1.63311,-1.481732 -1.80304,-9.503934 -0.1736,-8.195791 -0.17928,-8.22387 -1.73667,-8.590663 -1.22438,-0.288362 -1.5625,-0.761553 -1.5625,-2.186641 0,-1.425538 0.33774,-1.897823 1.5625,-2.184951 1.40904,-0.330333 1.58081,-0.713541 1.74897,-3.901903 0.15262,-2.89383 0.41332,-3.607594 1.43624,-3.932257 2.0719,-0.657596 3.06479,0.778515 3.06479,4.43291 l 0,3.323244 2.34375,0.193979 c 2.14439,0.177479 2.34375,0.353463 2.34375,2.068978 0,1.715515 -0.19936,1.891499 -2.34375,2.068978 l -2.34375,0.193979 0,6.473654 c 0,7.747108 0.21118,8.450889 2.53581,8.450889 2.09756,0 3.27528,1.609475 2.3892,3.265112 -0.86128,1.609325 -5.50398,1.505119 -7.6353,-0.171374 z m 13.02279,0.555837 c -2.28604,-1.257169 -3.40923,-3.243925 -3.4236,-6.055825 -0.0233,-4.551664 3.56794,-7.141803 12.64235,-9.118219 1.92315,-0.418865 2.21225,-1.642747 0.73661,-3.118388 -1.42959,-1.429584 -3.83742,-1.206662 -7.00272,0.648321 -2.34268,1.372908 -3.0248,1.519915 -4.31816,0.930623 -2.03098,-0.925378 -1.67012,-2.462826 1.00048,-4.262544 5.07261,-3.41843 10.10417,-3.371913 13.60183,0.12575 L 244.375,51.75 244.5,58.6875 c 0.0687,3.815625 0.13906,7.992187 0.15625,9.28125 0.0269,2.020794 -0.17923,2.373456 -1.49623,2.559356 -0.91941,0.129775 -1.83874,-0.210056 -2.30935,-0.853656 -0.73221,-1.001356 -0.95536,-0.985275 -3.5136,0.253144 -2.97284,1.439131 -6.30593,1.6796 -8.27457,0.596981 z M 237.5249,65.6123 C 239.78222,64.4607 240,64.130737 240,61.862297 c 0,-2.87209 -0.92293,-3.163014 -4.84095,-1.525961 -4.12322,1.722792 -5.59637,3.976345 -3.78405,5.788664 1.1035,1.1035 3.34879,0.916319 6.1499,-0.5127 z m 53.36273,4.922356 c -2.61444,-1.268612 -3.59967,-4.114756 -3.89356,-11.247784 -0.33647,-8.166392 0.1013,-10.949213 1.80764,-11.490783 2.58873,-0.821633 3.07329,0.572606 3.07329,8.842939 0,6.902641 0.13465,7.870622 1.25,8.985972 1.51288,1.512881 1.99359,1.537869 4.56229,0.237131 4.12592,-2.089287 4.18771,-2.241143 4.18771,-10.291881 0,-6.869597 0.0854,-7.388137 1.27999,-7.767269 2.82569,-0.89684 3.13619,0.345582 2.95314,11.81673 l -0.17063,10.692789 -1.52748,0.215606 c -0.88895,0.125475 -1.83417,-0.203806 -2.26111,-0.787693 -0.66813,-0.913707 -0.97819,-0.892332 -3.47252,0.239418 -2.97411,1.349444 -5.74447,1.546788 -7.78876,0.554825 z M 200.44536,70.237025 C 200.20041,69.992081 200,64.907837 200,58.938718 c 0,-9.471279 0.13017,-10.902899 1.02245,-11.245301 0.56235,-0.215793 1.47641,-0.106001 2.03125,0.243982 0.86534,0.545838 1.0088,2.18211 1.0088,11.505717 l 0,10.869384 -1.58589,0.184944 c -0.87224,0.101719 -1.7863,-0.0155 -2.03125,-0.260419 z m 50.47287,-0.374369 c -0.17856,-0.465331 -0.24728,-5.616981 -0.1527,-11.448106 0.1709,-10.535983 0.18095,-10.603323 1.61262,-10.806278 0.79236,-0.112325 1.82952,0.118509 2.30481,0.512962 0.65791,0.546019 1.67433,0.461807 4.25868,-0.352838 4.07949,-1.285944 6.23528,-0.880262 8.56281,1.611369 1.92048,2.055871 2.48136,5.160218 2.49012,13.782029 0.006,6.0097 -0.72191,7.709687 -3.15459,7.366312 -1.51827,-0.214306 -1.52937,-0.26775 -1.83998,-8.861633 -0.27156,-7.51324 -0.46589,-8.757942 -1.48327,-9.500221 -1.29324,-0.943545 -4.02043,-0.644996 -6.77989,0.742203 l -1.70065,0.854931 -0.17435,8.274557 -0.17434,8.274557 -1.72231,0.198106 c -1.02531,0.117938 -1.85368,-0.144275 -2.04696,-0.64795 z m 25.00852,-0.643906 c -0.19088,-0.773438 -0.26656,-5.735388 -0.16816,-11.026549 0.15552,-8.362589 0.3219,-9.710375 1.27266,-10.309303 0.79692,-0.502016 1.39058,-0.501992 2.1875,8.9e-5 0.95615,0.602403 1.1154,1.967514 1.26583,10.851186 0.18337,10.82849 -0.0611,11.890827 -2.7367,11.890827 -1.00916,0 -1.58352,-0.443519 -1.82113,-1.40625 z m 36.96559,0.451444 C 312.67656,69.107856 312.5,64.205206 312.5,58.775411 c 0,-7.867947 0.18426,-10.025272 0.90751,-10.62552 1.05901,-0.878905 3.20458,-0.361524 3.68422,0.888415 0.2713,0.706996 0.76448,0.645339 2.68989,-0.336292 3.19928,-1.631083 7.68726,-1.585517 9.8298,0.0998 l 1.65499,1.301816 3.23951,-1.614316 c 4.22436,-2.105087 6.22754,-2.057711 8.76547,0.207304 l 2.04111,1.82162 0.34377,8.95963 c 0.18907,4.927799 0.0999,9.468674 -0.19828,10.090836 -0.36662,0.765081 -1.08475,1.068513 -2.21878,0.9375 L 341.5625,70.3125 341.25,61.875 c -0.17188,-4.640625 -0.54004,-8.789063 -0.81814,-9.21875 -1.35227,-2.089386 -8.22351,0.370837 -8.87209,3.176623 -0.17222,0.745045 -0.38269,4.307752 -0.4677,7.917127 l -0.15457,6.5625 -1.875,0 -1.875,0 -0.3125,-8.675601 c -0.28138,-7.811674 -0.43698,-8.752976 -1.5625,-9.452602 -1.48595,-0.923666 -4.22047,-0.286589 -6.5625,1.5289 -1.48056,1.147694 -1.57889,1.614722 -1.875,8.905259 l -0.3125,7.694044 -1.63891,0.190063 c -1.06793,0.123843 -1.7756,-0.166144 -2.03125,-0.832369 z M 200.75,43.625 c -1.25299,-1.252996 -0.92166,-4.111283 0.52999,-4.572019 2.70812,-0.859525 4.39852,3.330423 1.8861,4.675029 -1.50663,0.806322 -1.50677,0.806316 -2.41609,-0.10301 z m 75.8726,-0.06627 c -2.34361,-1.713686 0.14771,-5.964044 2.59615,-4.429207 1.47604,0.92528 1.69911,2.988331 0.45737,4.23007 -1.22809,1.228088 -1.61209,1.253131 -3.05352,0.199137 z"
       id="path3587"
       inkscape:connector-curvature="0" />
    <path
       style="fill:#a6b4c6"
       d="M 84.0625,97.200131 C 77.258819,96.164962 72.599756,94.254225 69.944738,91.410269 66.854744,88.100388 60.333131,79.950156 59.4721,78.322337 57.482543,74.560994 60.002859,66.730281 66.764119,55.665787 l 2.457575,-4.021714 -2.1669,-3.082879 C 63.1091,42.947614 59.381798,34.342832 58.986662,29.935252 c -0.435676,-4.859785 0.311667,-7.012273 3.029009,-8.72412 1.777923,-1.120038 2.661967,-1.238021 6.729029,-0.898045 2.927694,0.244733 5.092775,0.762962 5.777887,1.38298 0.602632,0.545372 2.5133,3.621238 4.245932,6.835259 1.908712,3.540656 3.535418,5.843674 4.1276,5.843674 1.229237,0 4.603881,-3.554972 4.603881,-4.849892 0,-0.532234 -1.125,-1.930656 -2.5,-3.107605 -1.375,-1.176949 -2.5,-2.369497 -2.5,-2.650108 0,-0.280611 0.84375,-1.413438 1.875,-2.517395 1.03125,-1.103957 1.875,-2.253963 1.875,-2.555568 0,-1.274344 -6.487206,-3.787046 -10.686088,-4.139066 C 73.191256,14.356452 71.25,13.953246 71.25,13.659352 c 0,-1.101243 5.1963,-5.677907 7.050375,-6.2096489 4.561569,-1.30824 15.5056,2.5173507 23.713595,8.2893149 l 1.70148,1.196496 3.29852,-2.091826 c 1.81419,-1.150504 5.77949,-3.296698 8.81177,-4.769319 4.46143,-2.166679 6.39718,-2.744344 10.14647,-3.0279027 l 4.63322,-0.3504094 8.29104,8.0582211 c 4.56007,4.432022 8.63262,8.620722 9.05013,9.308222 2.22673,3.666706 -0.10618,11.715497 -6.45464,22.269257 -2.52892,4.204103 -2.59571,5.173532 -0.56257,8.165559 2.96039,4.356615 6.36481,11.45884 7.48175,15.608296 1.74817,6.494457 1.3571,7.445138 -6.6436,16.150244 -6.20992,6.75665 -8.72555,8.670956 -8.12809,6.185169 0.48161,-2.003775 0.21999,-4.479713 -0.88968,-8.419563 -0.94526,-3.356168 -1.56946,-4.44995 -3.06227,-5.366093 -2.60981,-1.601657 -4.17716,-1.44395 -6.15376,0.619181 -0.93508,0.976006 -2.93541,2.391481 -4.44519,3.1455 -1.50978,0.754025 -3.60125,2.3461 -4.64771,3.53795 -1.04646,1.19185 -2.22693,2.167 -2.62327,2.167 -1.5439,0 0.99877,1.981975 6.13322,4.780762 2.89877,1.580125 5.03789,3.098475 4.7536,3.374119 -1.84794,1.791713 -28.70969,2.431425 -38.64189,0.92025 z M 129.375,74.979225 c 0,-1.035787 -3.02916,-6.721225 -3.85196,-7.229738 -0.85204,-0.526593 -5.05398,3.957526 -4.70915,5.025401 0.2255,0.698337 5.60263,2.714575 7.46736,2.800006 0.60156,0.02756 1.09375,-0.240494 1.09375,-0.595669 z M 83.094238,73.698212 C 84.829906,73.325975 86.25,72.785056 86.25,72.496162 86.25,71.580919 83.048606,68.125 82.200769,68.125 81.536425,68.125 78.75,72.913906 78.75,74.055687 c 0,0.466044 0.818244,0.398713 4.344238,-0.357475 z M 108.65223,55.621596 C 110.76851,53.557224 112.5,51.48966 112.5,51.027009 112.5,50.142464 104.75013,42.5 103.85316,42.5 c -0.28628,0 -2.44302,1.839221 -4.79276,4.087158 l -4.272256,4.087159 2.762175,2.868087 c 1.5192,1.577448 3.324681,3.505405 4.012181,4.284348 0.6875,0.778943 1.69819,1.445957 2.24598,1.482254 0.5478,0.03629 2.72748,-1.623038 4.84375,-3.68741 z m 19.06716,-23.599094 c 0.81679,-1.293873 2.2313,-3.825123 3.14337,-5.625 1.40882,-2.780168 1.50374,-3.272502 0.63096,-3.272502 -1.48688,0 -10.27253,4.972853 -10.68509,6.047978 -0.3893,1.014477 3.32863,5.202022 4.61863,5.202022 0.44388,0 1.47534,-1.058624 2.29213,-2.352497 z m 58.03425,37.176929 c -1.20383,-1.281418 -1.35704,-2.242406 -1.5152,-9.503982 -0.17513,-8.041272 -0.18312,-8.080107 -1.73844,-8.44636 -0.99281,-0.23379 -1.5625,-0.803154 -1.5625,-1.561589 0,-0.758871 0.56912,-1.327067 1.5625,-1.559951 1.41341,-0.331355 1.58047,-0.709827 1.75089,-3.966378 0.30996,-5.923061 3.65231,-5.57126 3.99946,0.420964 0.18369,3.170602 0.22762,3.236146 2.37465,3.542865 1.66667,0.238095 2.1875,0.610119 2.1875,1.5625 0,0.952381 -0.52083,1.324405 -2.1875,1.5625 l -2.1875,0.3125 -0.17734,7.098044 c -0.19171,7.672912 0.11898,8.639593 2.87933,8.958606 1.18467,0.136912 1.7313,0.603819 1.87273,1.5996 0.18378,1.294019 -0.0444,1.40625 -2.85981,1.40625 -2.37701,0 -3.35827,-0.318006 -4.39877,-1.425569 z m 30.40935,0.232225 c -1.39862,-1.131162 -1.48615,-1.635894 -1.68017,-9.687497 L 214.27815,51.25 l -1.51408,0 c -2.05456,0 -2.08212,-2.314966 -0.0368,-3.092592 1.75591,-0.667594 2.25346,-1.726493 1.8364,-3.908234 -0.39529,-2.067796 0.83789,-4.382964 2.19726,-4.125138 0.80196,0.152105 1.12576,1.088304 1.36408,3.943956 l 0.3125,3.744508 2.29013,0.190782 c 3.83333,0.319339 3.74733,2.986209 -0.10809,3.352123 l -2.18204,0.207095 -0.17612,6.966741 c -0.19163,7.580646 0.31646,8.970759 3.27889,8.970759 1.44868,0 2.52728,1.480556 1.86237,2.5564 -0.65695,1.062969 -5.68991,0.62865 -7.23965,-0.624744 z m 12.00997,-0.424712 c -1.59524,-1.3423 -1.92296,-2.073557 -1.92296,-4.290713 0,-4.5664 2.55836,-6.588673 10.93022,-8.639859 3.54534,-0.86864 4.23741,-2.15874 2.23321,-4.162945 -1.71369,-1.713683 -3.41884,-1.624454 -7.39428,0.386932 -3.14998,1.593743 -3.36354,1.622114 -4.38397,0.582368 -1.0153,-1.034526 -0.97711,-1.170089 0.71406,-2.5343 3.32345,-2.680927 8.45995,-3.560959 11.52702,-1.974914 3.87717,2.004958 4.1673,2.837486 4.40109,12.628503 C 244.49127,69.96105 244.48616,70 243.09626,70 c -0.76778,0 -1.72761,-0.453563 -2.13297,-1.007925 -0.6708,-0.917381 -0.96951,-0.889306 -3.32525,0.3125 -3.60872,1.841037 -7.05211,1.732756 -9.46508,-0.297631 z m 9.63954,-2.939613 c 2.30006,-1.299175 2.51524,-1.648244 2.69049,-4.364719 0.22019,-3.412838 -0.30981,-3.62686 -4.93787,-1.993986 -4.83865,1.707177 -6.78831,4.603905 -4.58298,6.80923 1.37344,1.373438 3.89575,1.207069 6.83036,-0.450525 z m 52.88554,3.538488 C 288.20916,67.862531 287.5,65.060931 287.5,56.971602 c 0,-7.742488 0.56594,-9.482673 2.80454,-8.623639 0.76916,0.295153 0.94718,1.735862 0.95467,7.726171 0.006,4.654865 0.29853,7.93811 0.79573,8.925866 0.91833,1.82435 3.4423,2.338456 6.09206,1.240887 3.45239,-1.430031 3.90203,-2.524637 4.29882,-10.465387 0.33975,-6.799107 0.45848,-7.338 1.61668,-7.338 1.19508,0 1.25751,0.473669 1.42101,10.78125 C 305.65305,69.907419 305.64291,70 304.30241,70 c -0.74366,0 -1.68174,-0.450794 -2.08462,-1.001769 -0.6645,-0.908769 -0.96015,-0.879756 -3.18464,0.3125 -2.93425,1.572669 -6.33901,1.6932 -8.33511,0.295088 z M 200.23271,68.3421 c -0.56345,-2.244975 0.27965,-19.104457 0.99093,-19.815746 0.31204,-0.312033 1.00812,-0.398189 1.54685,-0.191458 0.83629,0.320915 0.97951,1.932256 0.97951,11.020488 l 0,10.644616 -1.55059,0 c -1.15652,0 -1.65635,-0.42135 -1.9667,-1.6579 z m 50.80896,1.241231 c -0.52078,-0.520775 -0.55468,-19.121464 -0.0373,-20.469714 0.44535,-1.160566 2.18426,-1.299981 3.22563,-0.25861 0.55668,0.556677 1.61177,0.463033 4.44367,-0.394395 4.30412,-1.303185 6.41484,-0.978892 8.53773,1.311749 1.83624,1.981324 2.28855,4.937932 2.04278,13.352639 l -0.19168,6.5625 -1.71875,0.197762 -1.71875,0.197763 -0.009,-7.697761 c -0.0126,-10.502057 -0.88897,-11.926633 -6.67003,-10.842102 -4.10338,0.769798 -4.57077,1.858261 -4.57077,10.644338 0,7.767856 -0.008,7.8125 -1.45833,7.8125 -0.80209,0 -1.64584,-0.1875 -1.875,-0.416669 z m 25.5015,-0.345831 c -0.17943,-0.4676 -0.24849,-5.338888 -0.15346,-10.825088 l 0.17279,-9.974912 1.5625,0 1.5625,0 0,10.625 c 0,10.548925 -0.0101,10.626431 -1.40904,10.825087 -0.77498,0.110044 -1.55586,-0.182493 -1.73529,-0.650087 z m 36.9985,0.345831 C 313.3125,69.354169 313.125,64.564087 313.125,58.938718 c 0,-8.942575 0.13005,-10.277855 1.03485,-10.625057 0.6517,-0.250081 1.43262,0.09412 2.1092,0.92966 l 1.07435,1.326768 2.39795,-1.222545 c 3.33623,-1.700902 7.94409,-1.642083 9.58795,0.12239 l 1.253,1.344933 3.69325,-1.657433 c 4.73388,-2.124437 6.46743,-2.092592 8.99584,0.16525 l 2.04111,1.822684 0,9.271066 0,9.271066 -1.71875,0.197762 -1.71875,0.197763 0,-8.027444 c 0,-6.253926 -0.21496,-8.334338 -0.97294,-9.416515 -1.25572,-1.792784 -3.61752,-1.776973 -6.83956,0.04579 l -2.5,1.414292 -0.15457,6.544176 c -0.19999,8.467352 -0.44521,9.492134 -2.21127,9.241002 -1.32973,-0.189087 -1.39645,-0.518818 -1.69666,-8.385258 -0.21482,-5.628984 -0.58061,-8.510479 -1.17028,-9.21875 -1.23949,-1.48881 -4.10511,-1.266695 -6.96714,0.540024 l -2.48758,1.570341 0,6.816042 c 0,3.748821 -0.17071,7.260921 -0.37937,7.804658 -0.38227,0.996188 -2.18138,1.344532 -2.95396,0.57195 z M 200.86502,42.849008 c -0.61264,-1.596522 0.0462,-3.161508 1.33104,-3.161508 2.29384,0 1.80244,4.007869 -0.49692,4.052929 -0.26861,0.0053 -0.64395,-0.395875 -0.83412,-0.891421 z m 76.11155,0.35199 c -0.45976,-0.291423 -0.74101,-1.201179 -0.625,-2.021679 0.15777,-1.115857 0.60255,-1.491819 1.76487,-1.491819 1.7672,0 2.43489,1.70761 1.23364,3.155024 -0.8643,1.041418 -1.21299,1.09408 -2.37351,0.358474 z"
       id="path3585"
       inkscape:connector-curvature="0" />
    <path
       style="fill:#8f9eaf"
       d="M 89.375,96.2181 C 87.828125,95.942856 85.026719,95.696806 83.149656,95.671325 81.234744,95.645325 78.10805,95.007781 76.025887,94.21875 72.816831,93.002681 71.595975,92.009506 66.998606,86.875 58.728164,77.638275 58.340551,76.618962 60.568294,69.9652 c 1.517261,-4.531706 3.5557,-8.419965 7.807162,-14.891927 1.192981,-1.816056 1.620444,-3.023032 1.25,-3.529454 C 61.410712,40.313667 57.630855,30.574977 59.3107,24.968153 c 1.086399,-3.626077 3.365669,-4.612857 9.393194,-4.066657 2.9102,0.263715 5.142312,0.807453 5.815444,1.416629 0.600843,0.543753 2.254493,3.127432 3.674775,5.741508 1.420287,2.614077 3.164893,5.391113 3.876906,6.171191 l 1.294562,1.418325 2.692206,-2.642205 C 87.538506,31.553732 88.75,30.040471 88.75,29.644143 c 0,-0.396329 1.265625,-2.079667 2.8125,-3.740752 1.546875,-1.661085 2.8125,-3.223105 2.8125,-3.471156 0,-0.248051 -1.282975,-1.580321 -2.851056,-2.9606 l -2.85105,-2.509598 0.9921,-1.918519 C 90.210656,13.988333 91.07175,13.125 91.57855,13.125 c 0.5068,0 0.92145,-0.304687 0.92145,-0.677083 0,-0.372396 0.351562,-0.554156 0.78125,-0.403911 0.429687,0.150246 0.703481,0.714975 0.608425,1.254954 -0.233706,1.32763 1.02545,2.024463 1.486606,0.822708 0.313419,-0.81677 0.795219,-0.72988 3.276831,0.590961 1.600168,0.851687 3.352638,1.865266 3.894378,2.252399 0.79001,0.564539 2.15096,0.01959 6.875,-2.752871 8.72097,-5.1181901 12.91261,-6.7146201 17.58993,-6.6993057 l 3.92508,0.01285 8.3284,8.1541317 c 4.58062,4.484773 8.60758,8.954989 8.94879,9.933813 1.2383,3.552175 -2.39102,13.54597 -7.80962,21.504819 -2.05197,3.013935 -2.06411,3.979343 -0.0867,6.893237 5.16958,7.617809 8.43162,15.787079 8.43162,21.115698 0,3.361081 -0.79056,4.452137 -9.64426,13.3101 l -4.3729,4.375 -0.42633,-3.75 C 133.69351,83.670619 131.02434,76.235281 127.46338,70 124.77931,65.300156 125.23031,65.114094 110,77.204638 c -1.54688,1.227981 -4.07813,3.198574 -5.625,4.379093 -1.54688,1.180519 -3.73973,2.913057 -4.873,3.850082 -1.133275,0.937025 -2.848994,2.035225 -3.812713,2.440437 -0.963712,0.405212 -1.9261,1.1899 -2.138631,1.74375 -0.510681,1.330813 0.163275,1.251863 2.074344,-0.243 0.859375,-0.672213 1.76095,-1.228456 2.003494,-1.2361 0.24255,-0.0076 1.477106,-0.717025 2.743466,-1.5764 1.26636,-0.859375 2.69413,-1.5625 3.17283,-1.5625 0.47869,0 3.07791,1.546875 5.77604,3.4375 2.69812,1.890625 5.15002,3.4389 5.44867,3.440606 0.92327,0.005 4.31695,2.985663 3.89028,3.416506 C 117.27273,96.695231 95.852656,97.370706 89.375,96.2181 Z M 83.003644,74.942625 c 2.728537,-0.921444 3.871356,-1.62325 3.871356,-2.3774 0,-1.429206 -4.068987,-5.316387 -5.136313,-4.906819 -1.336268,0.512775 -4.532793,7.464156 -3.778956,8.217988 0.546331,0.546337 0.800288,0.499325 5.043913,-0.933769 z M 108.95996,55.685769 c 2.29077,-2.372827 4.16504,-4.522363 4.16504,-4.776748 0,-0.585627 -8.77932,-9.034021 -9.38789,-9.034021 C 102.87972,41.875 95,49.803531 95,50.666236 95,51.695199 103.09632,60 104.09945,60 c 0.38251,0 2.56974,-1.941404 4.86051,-4.314231 z M 126.73737,34.21875 c 1.54322,-1.882568 6.84778,-12.34375 6.25915,-12.34375 -0.97722,0 -10.63183,4.928722 -11.89645,6.073188 -1.55583,1.407999 -1.40153,2.002884 1.21427,4.68171 2.45562,2.514776 3.38912,2.850111 4.42303,1.588852 z m 11.84336,-13.346354 c -0.20769,-0.207682 -0.74675,-0.229887 -1.19792,-0.04934 -0.49858,0.199516 -0.35049,0.347614 0.37761,0.377604 0.65885,0.02714 1.02799,-0.12058 0.82031,-0.328262 z m 47.62018,48.590623 C 184.7704,68.30665 184.67038,67.7843 184.375,59.927484 c -0.30991,-8.243316 -0.32544,-8.315186 -1.875,-8.679243 -0.9931,-0.233321 -1.5625,-0.80208 -1.5625,-1.560741 0,-0.759066 0.56887,-1.326742 1.5625,-1.559221 1.37799,-0.322407 1.5994,-0.768563 1.875,-3.778178 0.27011,-2.949745 0.50323,-3.439689 1.71875,-3.61232 1.29038,-0.183264 1.40704,0.04848 1.41582,2.8125 0.0121,3.805222 0.42488,4.424248 3.12089,4.680124 1.69634,0.160997 2.18204,0.485332 2.18204,1.457095 0,0.993047 -0.48127,1.289844 -2.34128,1.443831 -3.0158,0.249673 -3.30682,1.342673 -2.58346,9.702666 L 188.4375,67.1875 190.625,67.5 c 1.66667,0.238094 2.1875,0.610119 2.1875,1.5625 0,1.825769 -4.51046,2.099 -6.61159,0.400519 z m 30.98659,0.441868 C 216.5,69.512056 215.79687,69.069206 215.625,68.920781 215.45312,68.77235 215.17187,64.817937 215,60.133197 c -0.31048,-8.462695 -0.32259,-8.520083 -1.875,-8.884883 -0.99307,-0.233362 -1.5625,-0.802173 -1.5625,-1.560814 0,-0.758933 0.56904,-1.326965 1.5625,-1.559721 1.39727,-0.327367 1.583,-0.725438 1.75636,-3.764535 0.33077,-5.798568 3.24364,-5.472535 3.24364,0.363055 l 0,3.323244 2.34375,0.193979 c 1.86242,0.154142 2.34375,0.450685 2.34375,1.443978 0,0.993293 -0.48133,1.289836 -2.34375,1.443978 l -2.34375,0.193979 0,7.385744 c 0,7.850955 0.22253,8.483674 3.125,8.885161 1.07379,0.148538 1.5625,0.607107 1.5625,1.466138 0,0.9827 -0.46777,1.282781 -2.1875,1.403312 -1.20313,0.08432 -2.75,-0.168093 -3.4375,-0.560925 z m 12.41062,0.133488 c -2.94,-1.259125 -4.23051,-5.3468 -2.63136,-8.334836 1.46616,-2.739538 3.9665,-3.937065 11.93949,-5.718358 3.47089,-0.775454 1.41987,-5.360181 -2.39794,-5.360181 -1.00692,0 -3.17292,0.714491 -4.81335,1.587757 -2.98655,1.589866 -4.19496,1.585033 -4.19496,-0.01678 0,-1.296708 2.72989,-3.172903 5.91361,-4.064287 2.47117,-0.691886 3.22195,-0.654267 5.68041,0.284631 4.17665,1.595076 4.51104,2.474823 4.75555,12.511698 0.18992,7.796056 0.0993,8.7625 -0.83865,8.943956 -0.57908,0.112031 -1.36799,-0.387775 -1.75578,-1.112362 l -0.70419,-1.3158 -2.06935,1.278931 c -2.38927,1.47665 -6.93543,2.149931 -8.88348,1.315631 z m 8.5907,-3.965362 c 1.84322,-1.238544 2.14884,-1.816313 2.31417,-4.375003 0.17709,-2.740512 0.0859,-2.94801 -1.29491,-2.94801 -2.50714,0 -7.29646,1.923911 -8.27808,3.325374 -1.12274,1.602945 -1.20168,3.652945 -0.18,4.674626 1.23147,1.231469 5.1261,0.877025 7.43882,-0.676987 z m 53.2843,3.932249 c -2.90493,-1.172287 -3.34812,-2.799756 -3.34812,-12.294943 0,-8.965919 0.37201,-10.467047 2.21487,-8.937597 0.70372,0.584024 0.91013,2.445419 0.91013,8.207215 0,7.078538 0.0769,7.528738 1.53409,8.985969 1.78414,1.784144 2.16402,1.833694 4.9937,0.651375 4.33155,-1.809837 4.72221,-2.687812 4.72221,-10.612913 0,-5.473071 0.19929,-7.197109 0.86134,-7.451159 1.90113,-0.729535 2.26366,1.026729 2.26366,10.966407 0,8.684459 -0.12824,9.943828 -1.04857,10.29699 -0.68256,0.261919 -1.35369,-0.05719 -1.92271,-0.914162 l -0.87415,-1.316538 -2.85787,1.51955 c -2.95356,1.570419 -5.13406,1.833832 -7.44858,0.899806 z m -90.40985,-0.400324 c -0.72315,-0.72315 -0.52095,-20.73007 0.2141,-21.184359 0.35882,-0.221755 1.06872,-0.05767 1.57756,0.364638 1.39551,1.158169 1.03628,20.799302 -0.38541,21.072189 -0.53238,0.102194 -1.1652,-0.01144 -1.40625,-0.252468 z M 251.25,59.398854 c 0,-9.157455 0.1412,-10.742268 0.98596,-11.066435 0.54228,-0.208092 1.4173,0.05298 1.94448,0.580168 0.86136,0.861358 1.33408,0.831689 4.66357,-0.292697 4.23285,-1.429453 6.46522,-0.950546 8.67717,1.861496 1.09286,1.389338 1.22882,2.560401 1.22882,10.58387 0,8.998331 -0.004,9.021163 -1.40625,8.821963 -1.36325,-0.193613 -1.41581,-0.464082 -1.71875,-8.845746 -0.27893,-7.717108 -0.4468,-8.744881 -1.5625,-9.566121 -1.47592,-1.086391 -4.66667,-0.682755 -7.5,0.948767 l -1.875,1.079685 -0.3125,8.091848 c -0.30149,7.806754 -0.36204,8.098886 -1.71875,8.291567 l -1.40625,0.199719 0,-10.688084 z m 25.41667,10.184477 C 276.4375,69.354169 276.25,64.747981 276.25,59.347361 c 0,-8.259454 0.15967,-9.95182 1.00513,-10.653491 0.854,-0.708758 1.13593,-0.655316 1.875,0.355428 0.64665,0.884348 0.86987,3.471366 0.86987,10.081541 0,4.890561 -0.17071,9.336805 -0.37937,9.880542 -0.38227,0.996188 -2.18138,1.344532 -2.95396,0.57195 z m 36.8966,0.02163 c -0.75737,-0.757368 -0.51399,-19.904221 0.26289,-20.681097 0.87187,-0.871882 2.42384,-0.340098 2.42384,0.830509 0,1.15863 0.60604,1.100893 3.838,-0.365642 3.52925,-1.601438 6.80762,-1.606532 8.83254,-0.01373 1.86855,1.469795 2.85511,1.55714 4.53414,0.401431 2.5755,-1.772756 5.86101,-2.45265 7.85697,-1.625896 3.37549,1.398176 3.68835,2.47177 3.68835,12.657 0,9.265595 -0.002,9.279108 -1.40625,9.079683 -1.36325,-0.193613 -1.41581,-0.464082 -1.71875,-8.845746 -0.27569,-7.627746 -0.45539,-8.750284 -1.52571,-9.53125 -1.54655,-1.128452 -1.99721,-1.102876 -5.05688,0.286984 -4.52011,2.05327 -4.66741,2.393818 -4.66741,10.790905 0,7.419069 -0.0149,7.4967 -1.40625,7.299107 -1.36325,-0.193613 -1.41581,-0.464082 -1.71875,-8.845746 -0.27569,-7.627746 -0.45539,-8.750284 -1.52571,-9.53125 -1.55696,-1.136047 -2.018,-1.105354 -5.03679,0.335311 -4.50874,2.15172 -4.34739,1.802191 -4.6875,10.154383 -0.25522,6.267514 -0.48993,7.708039 -1.28048,7.858752 -0.53238,0.1015 -1.1652,-0.01269 -1.40625,-0.253732 z m -112.5,-26.874998 c -0.24105,-0.241069 -0.43827,-0.973477 -0.43827,-1.627594 0,-0.87586 0.37062,-1.136666 1.40625,-0.989583 0.91932,0.130564 1.40625,0.629583 1.40625,1.44116 0,1.23975 -1.54514,2.005086 -2.37423,1.175998 z m 75.39415,-0.590902 c -0.2081,-0.54228 0.0992,-1.456343 0.68281,-2.03125 0.99224,-0.97739 1.11679,-0.970296 1.91754,0.109212 0.471,0.634975 0.70498,1.549038 0.51994,2.03125 -0.45647,1.189522 -2.6514,1.112697 -3.12029,-0.109212 z"
       id="path3583"
       inkscape:connector-curvature="0" />
    <path
       style="fill:#758ba0"
       d="m 96.987825,94.505275 c -5.269887,-0.184694 -6.299969,-0.868987 -3.488956,-2.317775 0.666962,-0.34375 3.23415,-1.97445 5.704862,-3.623775 4.399229,-2.936706 4.528339,-2.978206 6.237989,-2.004675 1.86276,1.060712 4.21398,2.725469 7.65807,5.422212 l 2.13123,1.668757 -2.14676,0.341993 c -3.12946,0.49855 -10.13881,0.72205 -16.096435,0.513263 z M 135,89.128338 c 0,-3.036338 -2.23619,-9.887882 -5.11451,-15.670494 -2.3197,-4.66035 -10.67535,-14.955668 -12.79952,-15.770788 -0.84415,-0.323931 -2.21833,0.620257 -8.36926,5.750444 -2.06073,1.71875 -5.52372,4.390625 -7.69555,5.9375 -4.361366,3.106363 -18.083785,14.066138 -20.834135,16.639731 -3.220106,3.013163 -4.447231,3.608594 -5.550288,2.693138 -0.812425,-0.67425 -1.080056,-0.660038 -1.549799,0.08232 -0.312288,0.493525 -0.572107,1.10825 -0.577369,1.366062 -0.02594,1.27015 -1.524025,0.02181 -5.625313,-4.6875 -4.066212,-4.669031 -4.45883,-5.35345 -4.155131,-7.243269 0.184462,-1.147862 0.688231,-2.512168 1.119487,-3.0318 0.431257,-0.519631 0.843907,-1.352268 0.917001,-1.8503 0.180581,-1.230387 1.475506,-2.718381 2.365662,-2.718381 0.400519,0 2.113319,-1.40625 3.806225,-3.125 1.812375,-1.840044 3.634438,-3.125 4.431225,-3.125 0.744269,0 1.680444,-0.394281 2.080381,-0.876181 0.399944,-0.481894 1.430256,-1.052642 2.289594,-1.268321 0.859331,-0.215679 1.3874,-0.67534 1.173481,-1.021468 -0.213919,-0.346128 0.822713,-1.814446 2.303631,-3.262927 2.524038,-2.468752 2.705994,-2.545579 2.90685,-1.227353 0.32,2.1001 0.903288,1.715961 2.579157,-1.698562 0.832881,-1.696957 1.764662,-2.930657 2.070637,-2.741556 0.305969,0.189101 1.058381,-0.110546 1.672019,-0.665881 1.159288,-1.049142 1.357156,-0.887097 9.943915,8.143653 0.45424,0.477728 1.2859,0.868596 1.84812,0.868596 1.60476,0 8.88849,-7.809348 8.88849,-9.529911 0,-0.9254 -1.27015,-2.80034 -3.43698,-5.073524 -4.00996,-4.206767 -4.01927,-4.144019 1.39281,-9.381231 2.54066,-2.458577 4.10377,-3.493866 5.28853,-3.502738 0.92503,-0.0069 1.85569,-0.293846 2.06814,-0.637596 0.62081,-1.004482 1.38419,-0.743373 3.65451,1.25 3.45901,3.037049 4.18891,2.666409 7.60688,-3.862696 3.14667,-6.010892 5.00063,-8.012304 7.42199,-8.012304 1.13718,0 2.93576,-0.302645 3.99686,-0.672545 1.65304,-0.576255 2.20146,-0.471299 3.83045,0.733071 1.92697,1.424667 3.44012,4.648685 2.9335,6.250335 -0.15251,0.482152 -0.45392,1.678618 -0.66982,2.658814 -0.43146,1.958939 -4.75926,6.447234 -9.29903,9.643883 C 136.2539,41.656691 135,43.032012 135,43.683467 c 0,1.266387 3.0413,7.27005 8.26553,16.316533 3.84183,6.652663 5.87077,13.057388 5.2257,16.495887 -0.31414,1.6745 -1.89409,3.766432 -6.41073,8.488138 C 138.78387,88.430312 135.84215,91.25 135.54332,91.25 135.24449,91.25 135,90.29525 135,89.128338 Z M 81.740856,76.85085 C 85.252138,75.118819 88.125,73.329181 88.125,72.873875 c 0,-0.4553 -1.431569,-2.166888 -3.181256,-3.803519 C 82.2661,66.565738 81.631737,66.230638 80.936594,66.953581 78.852856,69.120669 74.051094,80 75.178356,80 c 0.09809,0 3.051219,-1.417119 6.5625,-3.14915 z M 187.51232,69.822219 c -2.73219,-1.382419 -3.24323,-3.23515 -2.90934,-10.547468 0.31706,-6.943979 -0.0478,-8.336998 -2.29224,-8.753276 -0.61972,-0.114936 -1.12676,-0.490225 -1.12676,-0.833975 0,-0.34375 0.50704,-0.719039 1.12676,-0.833975 C 184.14221,48.513852 185,46.833258 185,43.584716 c 0,-2.568697 0.17301,-3.018445 1.09375,-2.84322 0.86259,0.164159 1.13334,0.965536 1.28107,3.791718 0.19727,3.773951 0.14776,3.720983 4.06444,4.348702 0.61972,0.09932 1.12676,0.461834 1.12676,0.805584 0,0.34375 -0.50704,0.706263 -1.12676,0.805584 -4.2218,0.67662 -3.93926,0.115933 -3.93926,7.817257 0,7.700721 0.72559,9.814659 3.36877,9.814659 1.84767,0 2.41929,0.612937 1.54928,1.661244 -0.86871,1.046725 -2.87896,1.061468 -4.90573,0.036 z m 30.77443,0.362418 C 215.5485,69.656569 215,67.839631 215,59.297074 l 0,-7.924793 -1.875,-0.653628 c -2.35169,-0.819803 -2.35777,-1.240382 -0.0297,-2.051961 1.71561,-0.598064 1.8584,-0.892343 2.03125,-4.186238 0.13908,-2.649993 0.42223,-3.542954 1.12344,-3.542954 0.6814,0 0.99111,0.849338 1.13372,3.109131 0.23563,3.733351 0.83332,4.570431 3.44407,4.823491 2.5145,0.243731 2.58949,1.374142 0.10971,1.653931 -3.16391,0.356979 -3.4375,0.971312 -3.4375,7.718563 0,7.69109 0.92269,9.850384 4.21875,9.872815 1.60657,0.01094 1.9098,1.5576 0.41763,2.1302 -1.03056,0.395469 -1.52319,0.387663 -3.84963,-0.061 z m 74.39083,-0.04975 c -0.7617,-0.118918 -2.10537,-1.072443 -2.98594,-2.118931 -1.56881,-1.864437 -1.59753,-2.074069 -1.42758,-10.420315 0.14868,-7.30195 0.31934,-8.545587 1.1957,-8.713675 0.88642,-0.170019 1.08308,0.897586 1.48007,8.034805 0.48854,8.783523 1.18322,10.583229 4.08507,10.583229 1.50629,0 5.69029,-2.040013 6.71409,-3.273612 0.4217,-0.508126 0.79122,-3.811454 0.89569,-8.006949 0.15283,-6.138177 0.32708,-7.170568 1.23983,-7.345422 0.95553,-0.183048 1.08087,0.756256 1.25,9.367517 0.1034,5.264029 -0.0329,10.063153 -0.30275,10.664716 -0.65706,1.464438 -1.73747,1.385575 -2.14067,-0.15625 -0.39644,-1.516 -1.30495,-1.581306 -3.231,-0.23225 -1.69252,1.185488 -4.79393,1.926038 -6.77251,1.617125 z m -91.75673,-0.890393 c -0.18139,-0.472706 -0.25186,-5.203488 -0.15658,-10.512842 0.15555,-8.668318 0.2864,-9.675101 1.28231,-9.866288 1.03186,-0.198087 1.09714,0.515842 0.9375,10.25316 -0.12606,7.689582 -0.37875,10.534963 -0.9525,10.725757 -0.42951,0.142825 -0.92934,-0.127081 -1.11073,-0.599787 z m 27.77499,-0.04563 c -2.81812,-2.163688 -3.02012,-6.654263 -0.40502,-9.00382 1.67764,-1.507288 5.43534,-3.010269 9.01695,-3.606542 3.35595,-0.558706 4.37799,-1.697483 3.4168,-3.807071 -1.38652,-3.043085 -4.96663,-3.289783 -9.60216,-0.661664 -1.89892,1.076594 -2.46068,1.166501 -3.125,0.500137 -0.66356,-0.665606 -0.52757,-1.029835 0.75259,-2.01569 3.97795,-3.063428 10.15949,-3.227961 13.04231,-0.347146 1.57671,1.575612 1.6582,1.996096 1.95769,10.102081 0.17187,4.651921 0.0673,8.70219 -0.23241,9.000596 -0.74588,0.742663 -2.26759,0.07889 -2.26759,-0.989125 0,-1.215219 -1.23567,-1.07885 -3.4375,0.379369 -2.14319,1.419375 -7.50854,1.68355 -9.11666,0.448875 z m 9.56689,-2.718119 c 2.14028,-1.093531 2.98727,-2.659131 2.98727,-5.521777 0,-2.890666 -0.96506,-3.236525 -5.26077,-1.885359 C 231.79026,60.394354 230,61.97569 230,64.363906 c 0,3.546438 3.63969,4.4789 8.26273,2.11685 z m 13.40394,3.102575 C 251.4375,69.354169 251.25,64.704712 251.25,59.251218 c 0,-8.274275 0.15649,-9.9755 0.94546,-10.278255 0.52,-0.199544 1.35692,-0.02132 1.85981,0.39604 0.72311,0.600126 1.52909,0.549389 3.85338,-0.242577 4.9752,-1.695221 7.92501,-1.058034 9.80056,2.117014 0.82773,1.401244 1.04079,3.429879 1.04079,9.909857 0,8.227497 -0.39934,9.705747 -2.21488,8.198984 -0.70956,-0.588887 -0.91012,-2.507631 -0.91012,-8.706942 0,-6.90964 -0.14977,-8.087146 -1.14296,-8.985971 -1.5029,-1.360102 -4.17343,-1.288847 -7.45079,0.198801 l -2.65625,1.205716 0,7.479441 c 0,4.113693 -0.17071,7.924318 -0.37937,8.468055 -0.38986,1.015975 -1.59017,1.31075 -2.32896,0.57195 z m 25.63802,0.013 c -0.23633,-0.2363 -0.42969,-5.044031 -0.42969,-10.683819 0,-9.429444 0.088,-10.23722 1.09375,-10.043524 0.98865,0.190397 1.09375,1.19573 1.09375,10.462494 0,9.646568 -0.34741,11.67528 -1.75781,10.26488 z m 36.875,0 C 313.94336,69.360025 313.75,64.572919 313.75,58.958333 313.75,50.702508 313.91473,48.75 314.61127,48.75 c 0.47369,0 1.2535,0.590741 1.7329,1.312759 l 0.87164,1.312758 2.39066,-1.410522 c 3.35033,-1.976741 7.30652,-1.983762 9.40074,-0.01668 l 1.60845,1.510811 3.29489,-1.667061 c 4.38955,-2.220907 6.92552,-2.177139 9.26252,0.159862 l 1.82693,1.82692 0,8.761191 c 0,8.840513 -0.37639,10.33805 -2.21488,8.812244 -0.71013,-0.589356 -0.91012,-2.514131 -0.91012,-8.759166 0,-8.7115 -0.44211,-9.968115 -3.50704,-9.968115 -1.72757,0 -5.88192,1.948163 -6.98267,3.274487 -0.42792,0.515605 -0.79023,3.883911 -0.89569,8.32693 -0.14566,6.136695 -0.34351,7.461083 -1.1146,7.461083 -0.76835,0 -0.99697,-1.465944 -1.26712,-8.125 -0.18129,-4.46875 -0.56387,-8.619615 -0.85019,-9.224145 -1.09797,-2.318274 -4.82953,-2.177368 -8.54482,0.322656 l -2.15037,1.446992 -0.3125,7.739311 c -0.28879,7.152192 -0.79025,9.029105 -2.07031,7.749042 z M 69.0625,50.146679 c -1.244875,-0.914591 -3.674387,-4.828802 -6.392575,-10.299128 -2.279241,-4.586942 -2.836978,-6.406823 -3.123157,-10.19078 -0.400789,-5.299345 0.351606,-7.070259 3.570332,-8.403499 1.612875,-0.668074 2.735519,-0.667898 6.280469,0.001 5.020243,0.947251 5.804456,1.62342 9.055912,7.808241 1.265006,2.40625 2.739231,4.870134 3.276056,5.475299 1.033569,1.165141 1.054244,1.12754 -2.979537,5.419783 -0.515625,0.548664 -2.733144,3.173286 -4.927825,5.832494 -2.194681,2.659208 -4.022806,4.830617 -4.0625,4.825353 -0.03969,-0.0053 -0.353425,-0.216201 -0.697175,-0.46875 z M 201.01247,42.157514 C 200.52297,40.881873 201.0361,40 202.26786,40 c 0.6136,0 0.87416,0.475125 0.74436,1.357295 -0.24762,1.682818 -1.47291,2.173131 -1.99974,0.800219 z m 76.29222,0.56384 c -0.9194,-0.919398 -0.43589,-2.814203 0.66406,-2.602372 0.60156,0.11585 1.09375,0.745847 1.09375,1.399994 0,1.243463 -1.01943,1.940768 -1.75781,1.202378 z M 137.29674,18.166779 c 0.77675,-0.907175 1.22501,-0.986935 2.4083,-0.428515 0.79964,0.377372 1.40407,0.719584 1.34318,0.76047 -0.0609,0.04089 -1.14463,0.233718 -2.4083,0.428515 -2.15748,0.332581 -2.23938,0.286214 -1.34318,-0.76047 z"
       id="path3581"
       inkscape:connector-curvature="0" />
    <path
       style="fill:#647a8b"
       d="M 95.147787,92.34375 C 95.458575,91.380069 102.99673,86.25 104.10197,86.25 c 0.44117,0 1.59714,0.644869 2.56882,1.433044 0.97169,0.788175 2.54015,1.919656 3.48546,2.514406 0.94531,0.59475 1.71875,1.496756 1.71875,2.004456 0,0.768819 -1.41885,0.923094 -8.48958,0.923094 -6.509376,0 -8.43082,-0.182225 -8.237633,-0.78125 z M 135.625,88.503338 c 0,-3.901757 -5.30925,-17.074101 -9.19704,-22.818013 l -1.43978,-2.127175 2.50591,-1.272627 c 1.37825,-0.699943 2.51618,-1.570839 2.52873,-1.935324 0.0256,-0.7426 5.06337,-4.100199 6.15201,-4.100199 0.38509,0 0.70017,-0.398438 0.70017,-0.885417 0,-1.55534 1.47539,-1.443555 2.84674,0.215688 0.73059,0.883976 2.46795,3.575979 3.8608,5.982229 4.15058,7.170481 5.63293,14.102506 3.62782,16.965194 C 145.69729,80.687906 136.7227,90 136.15385,90 135.86298,90 135.625,89.3265 135.625,88.503338 Z M 186.25,68.75 C 185.13984,67.639844 185,66.666669 185,60.051117 c 0,-4.096885 -0.17071,-7.89376 -0.37937,-8.4375 -0.20865,-0.543739 -1.0524,-0.988617 -1.875,-0.988617 -2.11373,0 -1.91824,-1.743346 0.22312,-1.989736 1.59167,-0.183141 1.73167,-0.428826 1.89347,-3.322764 0.0961,-1.71875 0.31625,-3.523593 0.48924,-4.010761 0.59888,-1.686599 1.79152,0.477547 2.13263,3.869858 0.32734,3.255249 0.33605,3.266536 2.67216,3.459881 1.48173,0.122634 2.34375,0.511035 2.34375,1.056022 0,0.544987 -0.86202,0.933388 -2.34375,1.056022 l -2.34375,0.193978 -0.17498,7.592879 c -0.19106,8.290971 0.26338,9.594621 3.34462,9.594621 0.93254,0 1.51786,0.361519 1.51786,0.9375 0,1.476981 -4.69529,1.242212 -6.25,-0.3125 z m 30.3125,0.390819 c -1.12559,-0.823644 -1.25965,-1.699269 -1.34696,-8.797487 -0.10931,-8.887453 -0.28636,-9.718332 -2.07093,-9.718332 -0.71187,0 -1.26961,-0.411839 -1.26961,-0.9375 0,-0.515625 0.52806,-0.9375 1.17347,-0.9375 1.73735,0 2.47348,-1.245636 2.6928,-4.556574 0.27271,-4.116877 1.38147,-3.714381 1.75873,0.638442 l 0.3125,3.605632 2.34375,0.193978 c 1.48173,0.122634 2.34375,0.511035 2.34375,1.056022 0,0.544987 -0.86202,0.933388 -2.34375,1.056022 l -2.34375,0.193978 -0.17744,7.10861 c -0.19925,7.981977 0.43077,9.845921 3.44503,10.192309 0.95283,0.109494 1.73241,0.480331 1.73241,0.824081 0,1.026212 -4.87119,1.087256 -6.25,0.07832 z m 11.95929,-0.436181 c -2.34355,-1.843432 -2.33797,-5.968007 0.0112,-8.317227 1.49653,-1.496541 3.15632,-2.135442 10.21695,-3.932834 4.82152,-1.227388 1.85328,-6.945718 -3.25198,-6.264985 -1.27297,0.169736 -3.18139,0.9259 -4.24094,1.680365 -1.17236,0.8348 -2.3459,1.208654 -2.99801,0.955082 -0.93489,-0.363522 -0.85106,-0.607401 0.65715,-1.911948 2.12083,-1.834442 6.29421,-3.027254 8.82251,-2.521596 4.95129,0.990258 6.00257,3.431718 6.00779,13.952255 0.003,5.759862 -0.16206,7.03125 -0.91203,7.03125 -0.50353,0 -1.21902,-0.567113 -1.58997,-1.260244 -0.6671,-1.246494 -0.70375,-1.243087 -3.35815,0.3125 -3.36629,1.972775 -7.06978,2.082475 -9.36458,0.277382 z m 9.29603,-1.964888 c 3.03594,-1.474969 3.66075,-2.638181 3.32198,-6.184517 -0.16902,-1.769342 -0.47751,-2.14954 -1.87522,-2.311074 -0.9201,-0.106338 -3.11168,0.425601 -4.87018,1.182086 -4.85598,2.088987 -6.29181,4.926342 -3.7694,7.448755 1.61896,1.618962 3.66117,1.580562 7.19282,-0.13525 z m 14.15723,2.4853 c -0.76661,-0.766613 -1.06543,-17.610814 -0.34568,-19.486433 0.4738,-1.234726 1.45708,-1.267911 2.36423,-0.07979 0.60123,0.78745 1.19159,0.738726 4.42044,-0.364829 4.42047,-1.51082 6.73813,-1.101907 8.70985,1.536709 1.17922,1.578055 1.31361,2.599411 1.31361,9.983078 0,7.188028 -0.13173,8.250947 -1.04465,8.429566 -0.92688,0.18135 -1.0678,-0.748638 -1.25,-8.248948 -0.23594,-9.712753 -0.61431,-10.541303 -4.78748,-10.483708 -2.50408,0.03456 -6.25401,1.538183 -7.12705,2.857763 -0.25255,0.381724 -0.46349,4.122757 -0.46875,8.313407 -0.009,7.507448 -0.35586,8.971842 -1.78452,7.543186 z m 39.06014,0.06712 c -2.12403,-1.234669 -2.91074,-4.469925 -2.90062,-11.928345 0.009,-6.955205 0.57007,-9.551036 1.79172,-8.2961 0.33183,0.340877 0.6951,4.036445 0.80727,8.212373 C 290.96339,65.8367 291.69002,67.5 295.19821,67.5 c 2.49991,0 7.0496,-2.726931 7.5278,-4.511913 0.21006,-0.784073 0.38576,-4.331837 0.39046,-7.88392 0.006,-4.885624 0.19878,-6.395078 0.78978,-6.198574 0.57234,0.1903 0.82717,2.961823 0.95298,10.364584 0.14635,8.610867 0.0341,10.104823 -0.75926,10.104823 -0.51205,0 -1.2345,-0.567113 -1.60545,-1.260244 -0.66711,-1.246494 -0.70375,-1.243087 -3.35815,0.3125 -2.8117,1.647756 -6.14265,2.003382 -8.10118,0.864913 z M 84.761344,67.927519 82.960181,66.48625 84.570906,64.024375 c 2.261856,-3.457096 8.026125,-10.339617 9.342538,-11.154975 1.136206,-0.703743 1.901344,-0.03991 5.501944,4.773479 l 1.275692,1.705379 -3.438911,2.199841 c -1.891394,1.209913 -3.664075,2.561207 -3.939288,3.00287 -0.527975,0.847318 -5.8141,4.826231 -6.404756,4.820925 -0.190094,-0.0019 -1.156144,-0.651675 -2.146781,-1.444375 z M 200.90141,68.6916 c -0.74432,-1.204325 0.39591,-20.029914 1.19703,-19.763609 0.48647,0.161708 0.7688,3.458072 0.88579,10.342186 0.14511,8.538579 0.0297,10.104823 -0.74436,10.104823 -0.50386,0 -1.10616,-0.307531 -1.33846,-0.6834 z m 76.11436,-9.47285 c 0.14431,-8.534786 0.3214,-10.15625 1.10923,-10.15625 0.78782,0 0.96492,1.621464 1.10923,10.15625 0.16702,9.877275 0.13655,10.15625 -1.10923,10.15625 -1.24578,0 -1.27625,-0.278975 -1.10923,-10.15625 z M 313.75,59.457713 c 0,-6.669449 0.23184,-10.152231 0.69488,-10.438399 0.64093,-0.396116 1.46699,0.39392 2.00568,1.918186 0.12486,0.353335 1.44945,0.01376 3.04736,-0.78125 3.65331,-1.817611 7.99685,-1.888569 9.56458,-0.15625 1.40606,1.553685 2.19602,1.563636 4.80803,0.06056 5.01921,-2.888292 9.272,-1.96355 10.51685,2.286825 0.38153,1.302676 0.59998,5.523203 0.49275,9.520127 -0.16771,6.251158 -0.33412,7.207126 -1.28638,7.389576 -0.99344,0.190344 -1.09459,-0.4968 -1.10296,-7.492516 -0.0111,-9.2381 -0.54183,-10.740267 -3.89378,-11.020005 -1.62619,-0.135713 -3.14546,0.295659 -5.12304,1.454593 l -2.81127,1.64752 -0.1751,7.600297 c -0.15343,6.659789 -0.31045,7.626251 -1.26885,7.809989 -0.99581,0.190906 -1.09375,-0.509563 -1.09375,-7.822075 0,-9.42498 -0.53799,-10.809894 -4.19928,-10.809894 -2.69778,0 -7.65606,2.725722 -7.72214,4.245096 -0.0255,0.587072 -0.0958,4.015641 -0.15625,7.619043 -0.0954,5.690092 -0.25366,6.579642 -1.20358,6.76458 -1.005,0.195656 -1.09375,-0.599225 -1.09375,-9.796006 z M 66.871331,47.03125 C 58.765716,34.238069 57.12112,23.980789 62.795413,21.609919 c 1.625756,-0.679284 2.820531,-0.692212 6.449187,-0.06979 5.167694,0.886417 6.010387,1.45388 7.876844,5.304196 0.758031,1.563744 2.1653,4.180629 3.127268,5.8153 l 1.749025,2.97213 -3.687762,4.21537 C 76.281706,42.165583 73.548331,45.398437 72.235819,47.03125 70.9233,48.664062 69.602569,50 69.300856,50 68.99915,50 67.905862,48.664062 66.871331,47.03125 Z M 201.36042,41.529487 c 0.28267,-1.357571 1.39189,-1.440639 1.6456,-0.123237 0.13175,0.684127 -0.1748,1.09375 -0.81852,1.09375 -0.60046,0 -0.94498,-0.404273 -0.82708,-0.970513 z m 75.51458,0.0699 c 0,-1.283816 1.29391,-1.914614 1.90364,-0.928049 0.28264,0.457314 0.37522,1.055847 0.20573,1.330072 -0.52526,0.849897 -2.10937,0.547983 -2.10937,-0.402023 z M 128.02482,36.831357 c -0.8736,-0.488888 -0.5847,-1.381541 2.20364,-6.808878 2.30655,-4.48957 3.64847,-6.411901 4.77154,-6.83533 2.80256,-1.056641 7.72772,-1.315407 9.22324,-0.484586 1.39004,0.772219 1.36678,0.817252 -1.5833,3.067017 -1.64673,1.25581 -3.7603,3.143269 -4.69682,4.194355 -0.93652,1.051086 -2.10816,1.911065 -2.60363,1.911065 -0.49548,0 -1.66197,0.997842 -2.59219,2.217426 -2.07132,2.715643 -3.39367,3.482573 -4.72248,2.738931 z"
       id="path3579"
       inkscape:connector-curvature="0" />
    <path
       style="fill:#566068"
       d="m 100.36462,89.088519 c 1.34634,-1.188819 2.9442,-2.173194 3.55081,-2.1875 0.60661,-0.01431 2.15348,0.950743 3.4375,2.144568 l 2.33457,2.170588 -5.88538,0.01694 -5.885382,0.01694 2.447882,-2.161481 z M 186.57291,68.504731 C 185.05312,66.984944 185,66.656437 185,58.778409 l 0,-8.153409 -1.52561,0 c -2.26954,0 -2.51648,-1.086528 -0.35485,-1.561302 1.68155,-0.36933 1.88872,-0.672206 1.95858,-2.863357 0.043,-1.347688 0.14844,-2.731591 0.23438,-3.075341 0.0859,-0.34375 0.19141,-0.90625 0.23437,-1.25 0.043,-0.34375 0.34534,-0.625 0.67194,-0.625 0.3266,0 0.67816,1.614454 0.78125,3.587676 0.15844,3.03265 0.38082,3.616553 1.43744,3.774334 4.67958,0.698786 5.13858,1.739024 0.9375,2.124679 l -2.1875,0.200811 -0.15759,6.875 c -0.18133,7.910494 0.42886,9.818194 3.29945,10.315419 2.47104,0.428018 2.37071,1.5101 -0.1627,1.754656 -1.4934,0.144156 -2.43136,-0.215456 -3.59375,-1.377844 z m 30.44116,0.522331 c -1.31856,-0.923556 -1.38907,-1.400406 -1.38907,-9.394618 0,-6.939096 -0.16504,-8.473235 -0.9375,-8.71456 -3.13875,-0.980577 -3.17601,-1.046399 -1.09375,-1.932285 1.94052,-0.825584 2.03125,-1.017644 2.03125,-4.299892 0,-1.889639 0.28125,-3.435707 0.625,-3.435707 0.34375,0 0.625,1.242623 0.625,2.761383 0,3.963863 0.45419,4.696532 3.18186,5.132703 2.87705,0.460059 2.63291,1.480914 -0.35416,1.480914 -1.15419,0 -2.23192,0.351562 -2.39494,0.78125 -0.32827,0.865246 0.10878,12.475956 0.55228,14.671688 0.1877,0.929331 0.93772,1.560656 2.26163,1.903712 1.08945,0.282306 2.09369,0.851919 2.23165,1.265812 0.37169,1.115082 -3.67083,0.948207 -5.33925,-0.2204 z m 12.67343,0.251232 c -1.95896,-1.071469 -2.8125,-2.475357 -2.8125,-4.625963 0,-3.964213 3.21628,-6.010978 12.65625,-8.054143 1.63981,-0.354917 2.05481,-1.185019 1.73639,-3.473188 -0.44383,-3.18944 -5.31875,-4.145968 -9.55588,-1.875 -2.54402,1.363514 -3.58676,1.561422 -3.58676,0.680754 0,-0.313085 1.28406,-1.190848 2.85346,-1.950583 3.92375,-1.899453 8.63018,-1.498475 10.70352,0.911916 1.30576,1.518037 1.44302,2.291115 1.44302,8.127141 0,3.547235 0.17578,7.328428 0.39062,8.402647 0.30375,1.518744 0.17412,1.953125 -0.58288,1.953125 -0.53543,0 -1.15203,-0.5625 -1.37024,-1.25 -0.5004,-1.576619 -0.6119,-1.568494 -4.32468,0.315119 -3.30416,1.676312 -5.56009,1.926744 -7.55032,0.838175 z m 8.75,-2.589713 c 2.47925,-1.4041 2.5,-1.446806 2.5,-5.145965 l 0,-3.730116 -2.13436,0.172611 c -2.68982,0.217535 -7.47485,2.307058 -8.56189,3.738804 -1.13129,1.490035 -1.07269,4.23036 0.11589,5.418941 1.40611,1.406113 5.16898,1.194563 8.08036,-0.454275 z m 52.13943,1.484494 -1.82693,-1.826919 0,-8.537662 c 0,-6.551267 0.18177,-8.477545 0.78125,-8.279276 0.54088,0.178884 0.88352,2.550588 1.11364,7.708333 0.36533,8.188249 0.60931,9.09398 2.75972,10.244843 1.83165,0.980275 5.12101,0.02662 7.86126,-2.279163 l 1.85913,-1.56435 0,-7.13194 c 0,-6.903962 0.77402,-9.427699 1.56437,-5.100691 0.68043,3.725198 0.0736,17.529075 -0.78312,17.813519 -0.42969,0.142668 -0.78125,-0.194744 -0.78125,-0.7498 0,-1.670975 -1.39644,-1.680988 -4.63718,-0.03325 -3.98949,2.028431 -5.67501,1.972262 -7.9109,-0.263631 z M 201.25,59.427083 c 0,-10.471612 0.83682,-13.447614 1.55241,-5.520833 0.59913,6.6369 0.178,15.00005 -0.77116,15.314275 -0.60334,0.199744 -0.78125,-2.0305 -0.78125,-9.793442 z m 50.625,-0.0152 c 0,-9.527734 0.45097,-11.978678 1.77029,-9.621179 0.56175,1.003779 0.79046,1.004558 3.86019,0.01314 4.74821,-1.5335 6.65355,-1.365977 8.7926,0.773071 l 1.82692,1.826927 0,8.485577 c 0,7.126071 -0.1502,8.485577 -0.9375,8.485577 -0.78638,0 -0.9375,-1.341075 -0.9375,-8.319649 0,-7.508727 -0.12421,-8.452975 -1.27435,-9.6875 -1.66098,-1.782859 -4.53978,-1.769252 -8.12447,0.0384 l -2.78868,1.406249 -0.17439,8.28125 c -0.14305,6.792781 -0.33963,8.28125 -1.09375,8.28125 -0.7707,0 -0.91936,-1.611056 -0.91936,-9.963114 z m 25.41667,9.546446 c -0.52671,-0.526704 -0.53489,-11.946152 -0.0117,-16.302079 0.76585,-6.375991 1.47001,-3.157576 1.47001,6.71875 0,9.135569 -0.25175,10.789919 -1.45833,9.583331 z m 36.875,0 c -0.97656,-0.97656 -0.0976,-19.583329 0.92504,-19.583329 0.29331,0 0.53329,0.430702 0.53329,0.957116 0,1.618914 1.42749,1.61312 4.63718,-0.01882 3.924,-1.995131 6.02846,-1.974298 8.47448,0.08389 l 1.95757,1.647186 3.25561,-1.647186 c 4.14625,-2.097812 6.87168,-2.132479 8.89107,-0.113095 1.48316,1.483157 1.53409,1.825548 1.53409,10.3125 0,7.386363 -0.14866,8.778407 -0.9375,8.778407 -0.78704,0 -0.9375,-1.354169 -0.9375,-8.4375 0,-7.604167 -0.12346,-8.560957 -1.25,-9.6875 -1.50188,-1.501878 -3.01919,-1.572128 -6.10529,-0.28267 C 330.33178,52.978298 330,53.692115 330,62.036029 c 0,5.67704 -0.18538,7.381208 -0.78125,7.182146 -0.56177,-0.187662 -0.81213,-2.472144 -0.89117,-8.131593 -0.0604,-4.328834 -0.42013,-8.450255 -0.79929,-9.158714 -1.42298,-2.658871 -6.27352,-2.178897 -10.04417,0.993901 l -1.85912,1.564348 0,7.444442 c 0,6.810272 -0.28799,8.198116 -1.45833,7.027772 z M 67.639469,47.686877 c -3.023863,-4.268553 -6.959353,-12.686263 -7.61084,-16.279 -1.094478,-6.035681 0.17688,-9.163037 4.017971,-9.883631 2.856625,-0.535905 9.082494,0.758813 10.600906,2.204542 0.7095,0.675535 2.521325,3.586373 4.026288,6.468528 l 2.736287,5.240283 -5.744656,6.81245 c -3.159563,3.746849 -5.979113,6.896546 -6.265675,6.999329 -0.286556,0.102782 -1.078688,-0.600343 -1.760281,-1.5625 z M 201.61434,41.958884 c -0.26923,-0.435627 -0.32072,-0.960836 -0.11443,-1.167133 0.55936,-0.55935 1.16923,0.263315 0.86712,1.169653 -0.2117,0.635109 -0.35892,0.634616 -0.75269,-0.0025 z M 277.5,41.5625 c 0,-0.515625 0.28125,-0.9375 0.625,-0.9375 0.34375,0 0.625,0.421875 0.625,0.9375 0,0.515625 -0.28125,0.9375 -0.625,0.9375 -0.34375,0 -0.625,-0.421875 -0.625,-0.9375 z"
       id="path3577"
       inkscape:connector-curvature="0" />
    <path
       style="fill:#39454f"
       d="M 186.60714,68.392856 C 185.81223,67.59795 185.625,65.81775 185.625,59.054743 c 0,-4.595785 -0.2547,-8.513385 -0.566,-8.705778 -0.32674,-0.201936 -0.26929,-0.978519 0.1359,-1.837109 l 0.70189,-1.487303 0.70132,1.331473 c 0.39277,0.745667 0.48203,1.773004 0.2029,2.335023 -0.27415,0.551952 -0.32695,4.414181 -0.11737,8.582732 0.40796,8.113738 0.80072,9.075032 3.94136,9.646619 1.16808,0.212588 0.98214,0.305856 -0.73661,0.369488 -1.35615,0.05019 -2.70192,-0.3177 -3.28125,-0.897032 z m 30.27572,0.05412 c -0.73717,-0.888231 -1.00256,-13.285596 -0.29945,-13.9887 0.16037,-0.160377 0.30053,2.356842 0.31147,5.593821 0.0219,6.46936 0.55895,7.796261 3.51442,8.682348 1.75975,0.527594 1.75468,0.533687 -0.48902,0.58685 -1.30055,0.03081 -2.59561,-0.341963 -3.03742,-0.874319 z m 12.00621,-0.04487 c -2.00778,-1.4063 -1.93013,-5.417819 0.14502,-7.492972 0.84375,-0.84375 1.82813,-1.53409 2.1875,-1.53409 0.35938,0 0.0981,0.555346 -0.58069,1.234102 -2.89982,2.899823 -1.88917,6.938991 2.0186,8.067504 l 2.028,0.585656 -2.20468,0.05638 c -1.21258,0.031 -2.82977,-0.381456 -3.59375,-0.916569 z m 61.83427,-0.315487 C 288.87286,66.100312 288.59086,63.829975 289.2531,56.25 l 0.57336,-6.5625 0.0868,6.738824 c 0.12884,10.005138 1.55207,12.359332 6.98942,11.561301 1.18378,-0.173744 1.66673,-0.057 1.29635,0.313387 -0.32466,0.324657 -1.83962,0.7311 -3.36657,0.903207 -2.32406,0.261956 -2.99339,0.07991 -4.10908,-1.117644 z M 201.68643,60.78125 c 0.19785,-4.382813 0.46184,-8.085938 0.58665,-8.229167 0.12481,-0.143229 0.22692,3.442709 0.22692,7.96875 0,4.710854 -0.25082,8.229167 -0.58666,8.229167 -0.35367,0 -0.44378,-3.164656 -0.22691,-7.96875 z m 40.12466,6.875 c -0.20912,-3.578863 0.0203,-12.820911 0.32576,-13.126433 0.19973,-0.199733 0.36315,0.76629 0.36315,2.146718 0,1.380428 0.18189,4.661678 0.40421,7.291665 0.2886,3.414112 0.19922,4.7818 -0.3125,4.7818 -0.39419,0 -0.74547,-0.492188 -0.78062,-1.09375 z m 10.06714,-2.1875 c 0.006,-5.723373 0.80343,-15.620815 1.18869,-14.746895 0.60372,1.369512 0.0486,18.028145 -0.60075,18.028145 -0.32514,0 -0.58971,-1.476563 -0.58794,-3.28125 z m 14.87434,-5.127114 c -0.10454,-4.6246 0.004,-8.210538 0.24232,-7.96875 0.78425,0.797355 1.38382,16.377114 0.63026,16.377114 -0.4501,0 -0.74723,-2.863188 -0.87258,-8.408364 z m 10.83094,0.127114 c 0.0649,-6.437641 0.19186,-7.585548 0.57025,-5.15625 0.72306,4.642296 0.70424,13.4375 -0.0288,13.4375 -0.38942,0 -0.59353,-3.121412 -0.5415,-8.28125 z M 303.30609,67.5 c -0.17978,-0.6875 -0.75954,-1.25 -1.28835,-1.25 -0.79255,0 -0.75229,-0.230587 0.22914,-1.312431 0.89946,-0.991475 1.27889,-2.634531 1.55158,-6.718749 0.3495,-5.234498 0.3644,-5.153059 0.46875,2.56243 0.10127,7.486731 -0.20337,9.616362 -0.96112,6.71875 z m 11.07744,-5.78125 c 0.009,-7.362754 0.38288,-10.061891 1.31421,-9.48629 0.31004,0.191609 0.24034,0.932553 -0.15768,1.676249 -0.48625,0.908577 -0.58274,3.482843 -0.3031,8.087069 0.26927,4.433391 0.19166,6.754222 -0.22587,6.754222 -0.39427,0 -0.63285,-2.673075 -0.62756,-7.03125 z M 328.75,60.709287 c 0,-7.307889 -0.12379,-8.198083 -1.35822,-9.767406 -1.23556,-1.570765 -1.24904,-1.668264 -0.14925,-1.079677 2.07211,1.108963 3.36762,2.900558 2.78226,3.847682 -0.29533,0.47786 -0.37993,4.057374 -0.188,7.954475 0.2522,5.120789 0.1499,7.085639 -0.36892,7.085639 -0.5033,0 -0.71787,-2.403375 -0.71787,-8.040713 z m 14.375,-0.112696 c 0,-7.823373 -0.0621,-8.215507 -1.53409,-9.6875 -0.84375,-0.84375 -1.27659,-1.534091 -0.96185,-1.534091 0.31473,0 1.10472,0.571536 1.75551,1.27008 0.87045,0.934324 1.28895,2.627867 1.5831,6.40625 0.57787,7.423139 0.49832,11.69867 -0.21767,11.69867 -0.38473,0 -0.625,-3.134469 -0.625,-8.153409 z M 215.64928,50.341754 c -0.87955,-1.059796 0.18019,-1.89447 1.46877,-1.15683 0.72203,0.413318 0.73261,0.63664 0.0596,1.257438 -0.64177,0.591969 -0.97157,0.570259 -1.52834,-0.100608 z M 66.500975,44.852932 C 59.359006,33.936056 57.82845,23.350818 63.220662,22.166489 c 2.807075,-0.616537 9.083444,0.31202 10.699069,1.582874 0.78895,0.620585 2.676375,3.532665 4.194281,6.471287 l 2.759832,5.342951 -3.408557,3.624449 c -1.874706,1.993448 -4.532262,4.964519 -5.905675,6.602382 L 69.0625,48.768364 66.500975,44.852932 Z"
       id="path3575"
       inkscape:connector-curvature="0" />
  </g>
</svg>
