<?xml version="1.0" encoding="UTF-8" standalone="no"?>
<!-- Created with Inkscape (http://www.inkscape.org/) -->

<svg
   xmlns:dc="http://purl.org/dc/elements/1.1/"
   xmlns:cc="http://creativecommons.org/ns#"
   xmlns:rdf="http://www.w3.org/1999/02/22-rdf-syntax-ns#"
   xmlns:svg="http://www.w3.org/2000/svg"
   xmlns="http://www.w3.org/2000/svg"
   xmlns:xlink="http://www.w3.org/1999/xlink"
   xmlns:sodipodi="http://sodipodi.sourceforge.net/DTD/sodipodi-0.dtd"
   xmlns:inkscape="http://www.inkscape.org/namespaces/inkscape"
   id="svg3526"
   version="1.1"
   inkscape:version="0.91 r13725"
   width="406.875"
   height="108.75"
   viewBox="0 0 406.875 108.75"
   sodipodi:docname="Xamarin.svg">
  <metadata
     id="metadata3532">
    <rdf:RDF>
      <cc:Work
         rdf:about="">
        <dc:format>image/svg+xml</dc:format>
        <dc:type
           rdf:resource="http://purl.org/dc/dcmitype/StillImage" />
        <dc:title></dc:title>
      </cc:Work>
    </rdf:RDF>
  </metadata>
  <defs
     id="defs3530" />
  <sodipodi:namedview
     pagecolor="#ffffff"
     bordercolor="#666666"
     borderopacity="1"
     objecttolerance="10"
     gridtolerance="10"
     guidetolerance="10"
     inkscape:pageopacity="0"
     inkscape:pageshadow="2"
     inkscape:window-width="640"
     inkscape:window-height="480"
     id="namedview3528"
     showgrid="false"
     inkscape:zoom="0.64393241"
     inkscape:cx="203.4375"
     inkscape:cy="54.375"
     inkscape:window-x="0"
     inkscape:window-y="0"
     inkscape:window-maximized="0"
     inkscape:current-layer="svg3526" />
  <image
     width="406.875"
     height="108.75"
     preserveAspectRatio="none"
     style="image-rendering:optimizeQuality"
     xlink:href="file:///media/havoc/USB%20DISK/pics/_Products/Xamarin.png"
     id="image3534"
     x="0"
     y="0"
     sodipodi:absref="/media/havoc/USB DISK/pics/_Products/Xamarin.png" />
  <g
     id="g3536">
    <path
       style="fill:#fcfdfd"
       d="M 0,54.375 0,0 203.4375,0 406.875,0 l 0,54.375 0,54.375 -203.4375,0 L 0,108.75 0,54.375 Z"
       id="path3552"
       inkscape:connector-curvature="0" />
    <path
       style="fill:#abd2e8"
       d="m 49.653062,99.347031 c -2.067369,-0.616756 -3.989883,-2.439893 -5.353432,-5.076706 -0.474171,-0.916944 -2.066703,-3.729444 -3.538959,-6.25 C 39.288416,85.499769 37.856205,83.015625 37.577981,82.5 36.704643,80.881462 35.748201,79.203831 32.989329,74.451337 25.132351,60.916733 23.125,56.91488 23.125,54.78582 c 0,-1.809663 2.522961,-7.447601 5.826212,-13.019551 0.748709,-1.262928 2.767538,-4.778553 4.486288,-7.8125 C 35.15625,30.919821 36.902527,27.875 37.318115,27.1875 37.733704,26.5 38.56634,24.953125 39.168418,23.75 c 0.602078,-1.203125 1.425893,-2.609375 1.8307,-3.125 0.404806,-0.515625 1.478157,-2.37213 2.385225,-4.125566 2.016211,-3.897504 3.874825,-5.713374 6.667701,-6.5143603 2.870316,-0.8231956 43.333456,-0.7911343 46.314031,0.036693 2.96175,0.822601 4.308075,2.483712 9.258925,11.423727 4.48775,8.103776 6.41181,11.497717 8.75,15.43455 2.74326,4.618852 6.15064,10.845188 7.52196,13.744953 1.4893,3.149224 1.36282,5.653473 -0.45768,9.061716 -0.61973,1.160226 -2.06327,3.88504 -3.20788,6.05514 -1.1446,2.170106 -2.88906,5.211269 -3.87657,6.758144 -1.80559,2.828325 -10.65194,18.358406 -12.57234,22.071156 -0.5665,1.095238 -1.972752,2.694469 -3.124996,3.553844 l -2.094994,1.5625 -22.5,0.114587 c -12.375,0.06302 -23.359248,-0.141756 -24.409438,-0.455056 z m 10.079302,-22.32535 c 0.597033,-0.409256 2.409382,-3.55105 7.295255,-12.646681 3.988743,-7.425524 4.722525,-8.4375 6.117962,-8.4375 1.473438,0 1.810319,0.513359 7.792719,11.875 5.266944,10.00285 4.99185,9.6875 8.450788,9.6875 3.123106,0 4.285893,-0.734588 3.258625,-2.058625 C 92.326019,75.026744 90.146025,71.03125 87.803281,66.5625 85.460537,62.09375 83.170013,57.734375 82.713225,56.875 81.3652,54.338901 80.742981,55.915845 89.762213,39.010177 c 1.849268,-3.466278 3.174918,-6.489715 2.945881,-6.71875 -0.735681,-0.735681 -6.283131,-0.443726 -6.932,0.364823 -0.593725,0.739837 -1.4519,2.320343 -8.3336,15.348056 -2.290044,4.335265 -3.150519,5.433194 -4.258138,5.433194 -0.8297,0 -1.741581,-0.628571 -2.266743,-1.5625 -0.483244,-0.859375 -3.043588,-5.5 -5.689657,-10.3125 C 62.581894,36.75 60.112182,32.605869 59.739714,32.353321 58.741321,31.676367 53.125,31.775697 53.125,32.470307 c 0,0.327419 1.167501,2.788357 2.594446,5.46875 1.426945,2.680394 3.946171,7.488323 5.598279,10.684288 3.368544,6.516376 3.373275,6.301659 -0.276332,12.540691 -1.133605,1.937908 -3.10097,5.688827 -4.371924,8.335383 -1.270952,2.646556 -2.588393,4.983462 -2.927646,5.193137 -0.339252,0.209669 -0.616823,0.927119 -0.616823,1.594332 0,1.031899 0.443469,1.211681 2.96875,1.203543 1.632812,-0.005 3.270189,-0.2162 3.638614,-0.46875 z m 121.817066,-0.07276 c -5.15612,-1.3176 -8.20271,-5.985963 -7.61604,-11.670219 0.70982,-6.877456 3.73972,-9.313242 13.46603,-10.825546 3.6082,-0.561026 6.66544,-1.335214 6.79384,-1.720419 0.1284,-0.385204 -0.53402,-1.612461 -1.47204,-2.727237 -1.61228,-1.916087 -1.87636,-2.006629 -4.83174,-1.656608 -1.71943,0.203641 -4.61615,1.099204 -6.43715,1.990138 -1.82101,0.890935 -3.59587,1.443779 -3.94413,1.228541 -0.34826,-0.215237 -0.6332,-2.030196 -0.6332,-4.033241 0,-3.497961 0.0803,-3.679316 2.03125,-4.588548 5.44218,-2.536282 15.1264,-2.882891 18.51489,-0.662667 2.95414,1.935625 5.02848,4.763968 5.4013,7.364622 0.20025,1.396871 0.27994,7.883515 0.17707,14.414765 l -0.18701,11.875 -3.95662,0.187381 c -3.54541,0.167906 -3.99144,0.05425 -4.29165,-1.09375 -0.4203,-1.60725 -0.47614,-1.602619 -2.89154,0.239694 -2.20043,1.67835 -7.00537,2.47485 -10.12326,1.678094 z m 9.56508,-8.549356 c 2.7089,-1.897394 4.26391,-6.803746 2.38488,-7.524796 -1.41309,-0.542254 -7.98299,0.904777 -9.22944,2.032802 -1.4249,1.289519 -1.47734,3.814219 -0.11058,5.324469 1.28772,1.422912 5.03399,1.513143 6.95514,0.167525 z m 78.64011,8.666743 c -2.47605,-0.399287 -6.29882,-3.03065 -7.16517,-4.932075 -0.89962,-1.97445 -0.93334,-9.3074 -0.0504,-10.957207 0.91123,-1.702655 4.3782,-4.962463 5.89844,-5.545986 0.6875,-0.263888 3.87705,-0.838502 7.08789,-1.276919 3.49252,-0.476878 5.96003,-1.115374 6.14188,-1.589283 0.49787,-1.297431 -0.86248,-3.163713 -2.93043,-4.020284 -2.149,-0.890149 -6.86365,-0.161774 -10.21832,1.578652 -3.1809,1.650268 -3.6014,1.319794 -3.39346,-2.666954 l 0.18744,-3.59375 3.1139,-1.542515 c 2.60829,-1.292051 4.02906,-1.544256 8.75,-1.553238 5.04935,-0.0096 5.90315,0.162079 8.20134,1.649157 1.41089,0.912934 3.23046,2.736891 4.0435,4.053238 1.43247,2.319227 1.47885,2.809566 1.49726,15.830858 l 0.019,13.4375 -3.72547,0.191369 c -2.04901,0.105256 -4.33102,-0.132713 -5.07114,-0.528813 -1.05684,-0.565606 -1.73461,-0.51905 -3.15777,0.216888 -2.06947,1.070168 -6.56533,1.678825 -9.2285,1.249362 z M 279.75,67.25 c 1.51185,-1.51185 2.125,-2.689713 2.125,-4.082113 0,-2.479261 -0.85878,-2.79132 -5.40686,-1.964715 -5.36525,0.975126 -7.42931,4.085653 -4.59314,6.921828 2.03388,2.033875 5.33266,1.667344 7.875,-0.875 z m -141.37009,8.1378 c -0.43294,-1.128231 -0.10558,-1.742506 6.3909,-11.992238 C 147.64686,58.857908 150,54.839899 150,54.466652 c 0,-0.63191 -0.44343,-1.492651 -3.75,-7.279152 -0.6875,-1.203125 -1.8125,-3.171875 -2.5,-4.375 -0.6875,-1.203125 -1.84247,-3.242188 -2.5666,-4.53125 -0.72413,-1.289063 -1.59935,-2.691731 -1.94493,-3.117041 -0.34557,-0.42531 -0.46066,-1.210193 -0.25575,-1.744185 0.30352,-0.790955 1.33003,-0.937223 5.53867,-0.78921 l 5.16611,0.181686 1.69816,3.4375 c 0.93399,1.890625 2.42697,5.124534 3.31773,7.186465 l 1.61957,3.748966 1.22108,-1.561466 c 0.67159,-0.858806 2.47671,-4.163028 4.01138,-7.342715 l 2.79031,-5.78125 4.72175,0 c 3.65101,0 4.80453,0.215725 5.0868,0.951308 0.21429,0.558419 -1.53072,4.107628 -4.22522,8.59375 -5.62937,9.372437 -6.80406,11.5089 -6.80406,12.374881 0,0.370958 1.0933,2.551665 2.42955,4.846015 1.33626,2.29435 2.98123,5.155921 3.65551,6.359046 0.67427,1.203125 2.11222,3.624856 3.19545,5.381625 3.03223,4.917681 2.85001,5.243375 -2.93364,5.243375 -5.91171,0 -5.87392,0.03212 -9.77393,-8.313656 -1.55787,-3.333738 -3.09097,-6.061344 -3.4069,-6.061344 -0.31592,0 -1.29907,1.476562 -2.18478,3.28125 -0.8857,1.804687 -2.52977,4.96875 -3.6535,7.03125 l -2.04314,3.75 -4.83927,0.182712 c -3.79413,0.143251 -4.91511,-0.01494 -5.19044,-0.732412 z m 69.41316,0.09944 c -0.17312,-0.451143 -0.23957,-8.128143 -0.14767,-17.06 l 0.1671,-16.239737 4.18192,-0.183967 c 3.72688,-0.163949 4.25936,-0.03929 4.8935,1.145603 0.64705,1.209042 0.80827,1.242044 1.77844,0.364053 1.68486,-1.524775 5.45725,-2.888189 7.99124,-2.888189 2.81109,0 7.48752,2.152647 8.40643,3.869632 0.66538,1.243274 0.67281,1.243319 2.02065,0.01222 2.80124,-2.558608 5.58534,-3.536032 10.10282,-3.546836 5.10134,-0.0122 7.01641,0.972761 9.59526,4.935053 l 1.65474,2.542426 0,13.75 0,13.75 -4.375,0 -4.375,0 -0.16948,-11.954256 c -0.16563,-11.683011 -0.20395,-11.991458 -1.6889,-13.593751 -2.29776,-2.479326 -5.27935,-2.260536 -7.76438,0.569755 -1.06685,1.215086 -1.98087,2.269773 -2.03114,2.34375 -0.0503,0.07398 -0.26121,5.197002 -0.46875,11.384502 l -0.37735,11.25 -4.0625,0 -4.0625,0 -0.32738,-11.5625 c -0.33643,-11.882505 -0.71402,-13.717645 -3.08336,-14.985676 -2.89428,-1.548972 -5.79463,-0.407303 -7.90253,3.110676 -0.30895,0.515625 -0.70236,6 -0.87423,12.1875 l -0.3125,11.25 -4.22733,0.185 c -3.04996,0.133475 -4.315,-0.04344 -4.5421,-0.635262 z m 88.12549,0.0013 c -0.17339,-0.45185 -0.24006,-8.129425 -0.14816,-17.061281 l 0.1671,-16.239706 3.95662,-0.187381 c 3.54541,-0.167907 3.99144,-0.05423 4.29165,1.09375 0.32459,1.24124 1.43923,1.822907 1.43923,0.751052 0,-1.098178 4.79547,-2.676079 7.53823,-2.480374 l 2.77427,0.197953 0.18466,4.212136 0.18465,4.212136 -3.62215,-0.329709 c -4.08915,-0.372218 -4.96915,0.07684 -6.79604,3.467937 -0.97051,1.801506 -1.2356,4.007184 -1.50229,12.5 l -0.32383,10.3125 -3.91434,0.186281 c -2.79604,0.133069 -4.00441,-0.04844 -4.2296,-0.635262 z m 22.49951,-0.0013 c -0.17312,-0.451143 -0.23957,-8.128143 -0.14767,-17.06 l 0.1671,-16.239737 4.375,0 4.375,0 0,16.875 0,16.875 -4.22733,0.185 c -3.04996,0.133475 -4.315,-0.04344 -4.5421,-0.635262 z m 13.75,0 c -0.17312,-0.451143 -0.23957,-8.128143 -0.14767,-17.06 l 0.1671,-16.239737 4.04642,-0.189712 c 3.20851,-0.150427 4.20438,0.02632 4.80926,0.85354 0.70568,0.965082 0.91979,0.946254 2.85744,-0.251282 2.60277,-1.608599 6.42825,-2.255109 10.09243,-1.70563 2.16972,0.32537 3.36961,1.006227 5.32659,3.02248 3.44077,3.544971 3.92804,6.24794 3.6881,20.458104 l -0.19524,11.5625 -4.375,0 -4.375,0 -0.3125,-11.982675 c -0.30292,-11.615183 -0.35897,-12.032088 -1.82769,-13.593751 -1.74375,-1.854082 -4.18528,-2.088948 -6.93482,-0.667105 -3.08822,1.59698 -3.40012,2.848222 -3.73749,14.993531 l -0.3125,11.25 -4.22733,0.185 c -3.04996,0.133475 -4.315,-0.04344 -4.5421,-0.635262 z M 319.17943,33.872051 c -1.64866,-1.720835 -2.21443,-4.604645 -1.20111,-6.122236 1.54996,-2.321278 6.04562,-2.759982 8.49989,-0.829452 2.10103,1.652671 2.30812,5.543306 0.39679,7.454637 -1.92414,1.924136 -5.60046,1.683867 -7.69557,-0.502949 z"
       id="path3550"
       inkscape:connector-curvature="0" />
    <path
       style="fill:#95b8ce"
       d="M 49.6875,98.498431 C 47.102324,97.357306 45.095021,95.001094 43.211012,90.896206 42.885048,90.185994 41.894729,88.538594 41.010304,87.235325 40.125879,85.93205 38.682993,83.419381 37.803889,81.651619 36.924786,79.88385 35.651181,77.59375 34.973656,76.5625 c -0.677526,-1.03125 -1.808237,-3 -2.51269,-4.375 -0.704454,-1.375 -1.953762,-3.625 -2.776242,-5 -0.822479,-1.375 -1.79814,-3.169544 -2.168137,-3.987881 -0.369995,-0.818331 -1.218381,-2.254189 -1.885303,-3.190793 -2.688333,-3.775417 -2.307028,-7.077195 1.552845,-13.446326 0.833288,-1.375 1.950695,-3.34375 2.483126,-4.375 0.532431,-1.03125 1.739174,-3.212004 2.681651,-4.846121 0.942476,-1.634116 2.616426,-4.624453 3.719887,-6.645194 1.103461,-2.02074 2.842659,-5.043111 3.864885,-6.716379 1.022225,-1.673269 2.724873,-4.760074 3.783662,-6.859567 C 47.344699,9.9274781 47.044017,10 73.238337,10 c 16.901119,0 21.6066,0.179577 23.305488,0.889417 2.109825,0.881541 5.266695,4.561692 7.010945,8.173083 0.49808,1.03125 2.00736,3.84375 3.35396,6.25 1.3466,2.40625 2.78732,5.078125 3.2016,5.9375 0.41427,0.859375 1.23393,2.125 1.82145,2.8125 0.58753,0.6875 1.58855,2.280896 2.22448,3.540881 3.0061,5.956027 5.4164,10.297446 6.21577,11.195832 0.48288,0.542692 0.87797,1.440156 0.87797,1.994365 0,0.554208 0.28125,1.181473 0.625,1.393922 1.63219,1.008753 0.29356,5.049519 -4.34808,13.125 -1.38307,2.40625 -2.80568,5.044544 -3.16136,5.862881 -0.35568,0.818332 -1.2725,2.36125 -2.03738,3.4287 -0.76487,1.067457 -1.69804,2.507282 -2.0737,3.199625 -0.37567,0.692338 -1.75942,3.227544 -3.07502,5.633794 -1.31559,2.40625 -2.91433,5.359375 -3.55276,6.5625 -2.31604,4.364656 -4.6417,7.209869 -6.768231,8.280281 C 94.91395,99.259075 92.438356,99.370606 73.125,99.349562 56.633048,99.331625 51.121583,99.13145 49.6875,98.498431 Z M 60.797131,77.030106 c 0.544976,-0.602194 1.293955,-1.797506 1.664398,-2.65625 0.370446,-0.858744 1.488996,-2.967606 2.485665,-4.686356 0.996675,-1.71875 2.887612,-5.183631 4.202087,-7.699741 1.314469,-2.516108 2.760863,-4.882573 3.2142,-5.258812 1.11235,-0.923168 1.956088,0.03421 4.810638,5.458553 1.266287,2.40625 3.644937,6.90625 5.285893,10 l 2.983557,5.625 3.848806,0.186281 c 2.869287,0.138875 3.935056,-0.0385 4.187712,-0.696887 C 93.779275,76.522225 92.071556,72.9799 84.376819,58.41896 l -1.991488,-3.76854 3.413344,-6.54396 c 1.877337,-3.599178 4.459025,-8.456606 5.737087,-10.794283 2.99235,-5.473261 2.731344,-6.177353 -2.200468,-5.93596 l -3.805881,0.186283 -2.054776,3.75 C 82.344512,37.375 80.396694,40.890625 79.146144,43.125 77.8956,45.359375 76.333781,48.351829 75.675437,49.774897 73.403719,54.685421 72.89195,54.382771 68.129713,45.3125 60.601829,30.97471 60.835265,31.25 56.205216,31.25 c -2.307292,0 -3.693742,0.278076 -3.859049,0.773999 -0.1419,0.4257 0.64411,2.464762 1.746689,4.53125 3.51601,6.589817 6.015375,11.180533 7.61538,13.987574 1.928376,3.383136 1.695908,5.329738 -1.243419,10.411903 -4.474361,7.736274 -8.393913,15.635536 -8.132105,16.389024 0.443207,1.275556 7.254625,1.023162 8.464419,-0.313644 z M 183.75,76.875 c -0.51563,-0.333225 -1.54873,-0.610169 -2.29579,-0.615431 -1.83808,-0.01294 -5.18185,-2.928388 -6.22669,-5.429063 -1.1196,-2.679581 -1.07769,-5.571987 0.13219,-9.122787 1.38052,-4.051623 3.83415,-5.364913 12.44943,-6.6635 7.97807,-1.202538 8.64712,-1.905188 5.21817,-5.480208 -1.96998,-2.053888 -2.26683,-2.158496 -5.17694,-1.824343 -1.69792,0.194963 -4.57704,1.083426 -6.39804,1.97436 -1.82101,0.890935 -3.59587,1.443779 -3.94413,1.228541 -1.08923,-0.673182 -0.74923,-5.644349 0.46055,-6.733751 0.60156,-0.541704 3.2256,-1.511335 5.83119,-2.154735 4.0386,-0.997256 5.35617,-1.068564 8.93186,-0.483399 3.67116,0.600788 4.5226,1.014477 6.82506,3.316089 l 2.63064,2.629668 0,13.89803 0,13.898029 -3.28426,0.189019 c -3.0678,0.176556 -3.32652,0.07787 -3.92537,-1.497231 l -0.64111,-1.68625 -1.44745,1.359799 c -1.00214,0.941463 -7.88647,4.145075 -8.19299,3.812594 -0.005,-0.0053 -0.4307,-0.282206 -0.94632,-0.615431 z m 7.15461,-7.598737 c 3.16056,-1.440044 5.18637,-6.967779 3.16758,-8.643222 -1.30604,-1.083915 -8.21721,0.183011 -9.96733,1.827167 -1.47089,1.38183 -1.65932,5.030511 -0.34179,6.618042 0.91615,1.103894 4.91029,1.214638 7.14154,0.198013 z M 270,76.474175 c -2.70482,-0.490062 -5.70398,-2.347637 -6.61871,-4.099388 C 262.86386,71.383875 262.5,68.85295 262.5,66.244656 c 0,-4.375886 0.0402,-4.48496 2.68388,-7.283014 l 2.68388,-2.840596 7.00506,-1.010246 c 7.5943,-1.095226 8.68411,-1.842128 6.82589,-4.67813 -1.74213,-2.658831 -3.8062,-3.263838 -8.10548,-2.375834 -2.11991,0.437859 -4.60371,1.183603 -5.51956,1.657209 -0.91586,0.473606 -1.84147,0.684819 -2.05693,0.469362 -0.54127,-0.541274 -0.47542,-4.709313 0.0884,-5.595429 1.07476,-1.689094 6.0866,-3.009512 11.39486,-3.002088 4.59762,0.0064 5.62141,0.214323 7.60812,1.544916 4.70795,3.153135 5.60799,6.128138 5.95117,19.671057 0.33685,13.293299 0.49971,12.823137 -4.44183,12.823137 -2.92074,0 -4.0774,-0.244119 -4.33479,-0.914875 -0.29937,-0.780138 -0.75034,-0.738256 -3.06217,0.284375 -2.96348,1.310887 -6.77562,1.922644 -9.2205,1.479675 z m 10.112,-8.865469 c 2.47392,-2.30765 2.54281,-2.477081 1.96951,-4.84375 l -0.59409,-2.452456 -3.39996,0.169288 c -4.55494,0.226796 -6.57695,1.130398 -7.49633,3.349993 -1.39415,3.365763 0.87256,6.029919 5.21432,6.1286 1.19139,0.02706 2.55422,-0.717125 4.30655,-2.351675 z M 138.75,75.019013 c 0,-0.774032 2.35569,-5.025407 3.50092,-6.318225 0.48075,-0.542694 0.88666,-1.245819 0.90203,-1.5625 0.0154,-0.316682 1.8036,-3.233682 3.97383,-6.482225 l 3.94588,-5.906437 -1.50766,-2.843563 c -0.82922,-1.563959 -2.17624,-3.968563 -2.99338,-5.343563 -0.81715,-1.375 -1.92127,-3.34375 -2.45361,-4.375 -1.07008,-2.072982 -1.92375,-3.498602 -3.67463,-6.13663 -1.94802,-2.935049 -1.11671,-3.632524 4.07883,-3.422183 l 4.54029,0.183813 1.66224,3.4375 c 0.91424,1.890625 2.44251,5.195312 3.39617,7.34375 0.95366,2.148437 2.03378,3.895981 2.40026,3.88343 0.89477,-0.03064 3.53453,-4.319595 5.9336,-9.64061 1.07894,-2.393012 2.30394,-4.568393 2.72222,-4.834179 0.9064,-0.57595 6.18112,-0.661509 7.58439,-0.123023 0.54374,0.208653 0.98862,0.676121 0.98862,1.038819 0,0.580928 -3.99746,7.556205 -7.00933,12.230782 -0.5895,0.914942 -1.83934,3.158243 -2.77741,4.985114 l -1.70558,3.321583 1.52741,2.897705 c 0.84007,1.593738 2.30085,4.077314 3.24616,5.51906 0.94531,1.441744 1.7267,2.861813 1.73642,3.155706 0.01,0.293901 1.13472,2.215826 2.5,4.270944 1.36528,2.055125 2.48233,4.106019 2.48233,4.557544 0,0.623025 -1.16782,0.776944 -4.84375,0.638413 L 164.0625,75.3125 160.64357,68.28125 c -2.16133,-4.4449 -3.7738,-7.03125 -4.38367,-7.03125 -0.55488,0 -1.70823,1.526756 -2.71482,3.59375 -0.96256,1.976562 -2.61092,5.210937 -3.66305,7.1875 l -1.91296,3.59375 -4.60953,0 c -2.55996,0 -4.60954,-0.26945 -4.60954,-0.605987 z m 69.65665,-0.186538 c -0.16727,-0.435887 -0.22875,-7.8187 -0.13664,-16.406248 l 0.16749,-15.613727 3.85509,-0.184746 c 3.42117,-0.16395 3.90076,-0.04084 4.26087,1.09375 0.44661,1.407173 1.2638,1.657059 1.92426,0.588417 0.73522,-1.189608 5.484,-3.031858 7.8522,-3.046195 3.04792,-0.01845 6.79212,1.569572 8.53457,3.619762 1.30633,1.537038 1.48092,1.586154 2.06477,0.580866 1.29583,-2.231215 5.6079,-3.863562 10.25824,-3.883292 4.89986,-0.02079 6.52944,0.811021 9.14105,4.665998 1.448,2.137372 1.48395,2.515992 1.48395,15.62794 l 0,13.4375 -3.69203,0.190375 c -2.51729,0.1298 -3.86875,-0.06906 -4.24744,-0.625 -0.30548,-0.448456 -0.49297,-5.73725 -0.41666,-11.752875 0.13905,-10.959771 -0.34559,-14.296848 -2.09715,-14.440211 -5.07076,-0.415035 -5.36433,-0.346738 -7.60786,1.769901 -1.23825,1.168218 -2.28646,2.176633 -2.32937,2.240921 -0.0429,0.06429 -0.25384,5.179389 -0.46875,11.366889 l -0.39074,11.25 -3.4375,0 -3.4375,0 -0.32911,-11.25 c -0.40453,-13.828111 -1.01143,-15.290298 -6.49858,-15.657125 -2.60017,-0.173826 -2.85677,-0.03944 -4.52686,2.370745 l -1.77045,2.555016 0.22073,9.826464 c 0.12141,5.404556 0.0321,10.420675 -0.19836,11.146931 -0.36485,1.149506 -0.90171,1.320469 -4.1466,1.320469 -2.43372,0 -3.83306,-0.275075 -4.03162,-0.792525 z m 88.13763,0.03288 c -0.17421,-0.453988 -0.24138,-7.851606 -0.14927,-16.439154 l 0.16749,-15.613696 3.4375,0 c 3.08897,0 3.45775,0.142579 3.63722,1.40625 0.23429,1.649665 0.89225,1.788787 2.02198,0.427539 1.40532,-1.693312 4.17574,-2.771289 7.12226,-2.771289 l 2.84354,0 0,3.720553 0,3.720553 -3.02545,-0.35832 c -3.80758,-0.450951 -5.32976,0.344921 -7.11362,3.719361 -1.21984,2.307506 -1.4339,3.879387 -1.72079,12.635353 l -0.32764,10 -3.28824,0.189156 c -2.28962,0.131707 -3.38443,-0.0615 -3.60499,-0.636275 z m 22.48737,-0.03288 c -0.16727,-0.435887 -0.22875,-7.8187 -0.13664,-16.406248 l 0.16749,-15.613727 3.69202,-0.190373 c 2.5306,-0.130485 3.85472,0.06613 4.20919,0.625 0.59038,0.930832 0.73512,29.882498 0.15692,31.389254 -0.48578,1.265925 -7.61215,1.438681 -8.08898,0.196094 z M 332.5,59.0625 l 0,-16.5625 4.0625,0 c 3.12049,0 4.0625,0.208832 4.0625,0.900614 0,1.549598 1.17711,1.715983 2.6213,0.37052 1.93439,-1.802159 5.83386,-2.720996 9.81599,-2.312953 2.79155,0.286048 3.77501,0.73662 5.69063,2.607168 3.30179,3.224111 3.86494,6.32742 3.62887,19.997151 l -0.19429,11.25 -4.0625,0 -4.0625,0 -0.11153,-10.9375 c -0.0614,-6.015625 -0.13166,-11.385942 -0.15625,-11.934038 -0.0246,-0.548096 -0.67753,-1.716955 -1.45097,-2.597465 -2.70253,-3.076665 -9.02661,-1.326836 -10.83346,2.997542 -0.64258,1.537925 -0.88529,4.95156 -0.88529,12.451386 l 0,10.332575 -4.0625,0 -4.0625,0 0,-16.5625 z M 319.48394,33.553468 c -1.66674,-1.774172 -1.77305,-4.859966 -0.21598,-6.2691 1.5775,-1.427616 5.86598,-1.362912 7.19767,0.108595 1.39788,1.544635 1.33641,5.26496 -0.10859,6.572669 -1.70145,1.539794 -5.2386,1.327679 -6.8731,-0.412164 z"
       id="path3548"
       inkscape:connector-curvature="0" />
    <path
       style="fill:#5aa9d9"
       d="M 50.387064,98.743556 C 47.892932,97.975906 45.945451,95.993225 44.009343,92.250569 43.102275,90.497131 42.014921,88.640625 41.592999,88.125 40.527291,86.822612 37.5,81.212444 37.5,80.539869 c 0,-0.303981 -0.972096,-1.9357 -2.160214,-3.62605 -1.188118,-1.69035 -2.592375,-4.007775 -3.120572,-5.149838 -0.528195,-1.142069 -2.100065,-4.045231 -3.493042,-6.451481 -4.370645,-7.549921 -5.11682,-9.505341 -4.65968,-12.211126 0.22669,-1.341768 0.945717,-3.117881 1.597839,-3.94692 0.652121,-0.829038 1.479227,-2.173255 1.838013,-2.987148 0.358785,-0.813893 1.338871,-2.604806 2.177968,-3.979806 0.839096,-1.375 1.985426,-3.484375 2.5474,-4.6875 0.561974,-1.203125 1.379593,-2.609375 1.816932,-3.125 0.437339,-0.515625 2.138603,-3.46875 3.780587,-6.5625 1.641983,-3.09375 3.262118,-5.97991 3.600298,-6.413689 0.745863,-0.956706 2.608163,-4.281184 3.555053,-6.346289 0.996354,-2.172983 2.985351,-3.71151 5.766297,-4.460341 1.532157,-0.412567 10.308802,-0.584273 23.836683,-0.466341 19.262625,0.167926 21.581444,0.298022 23.103669,1.296221 1.682275,1.10315 3.637579,3.827143 6.605929,9.202939 0.85413,1.546875 2.34337,4.21875 3.30942,5.9375 0.96604,1.71875 2.09788,3.828125 2.51521,4.6875 0.41732,0.859375 1.3344,2.40625 2.03795,3.4375 1.40368,2.057479 2.13039,3.330571 5.24754,9.192919 1.14993,2.162645 2.4359,4.353956 2.85769,4.869581 0.42181,0.515625 1.13833,2.118173 1.59227,3.561217 0.68145,2.166225 0.68255,2.983577 0.006,4.6875 -0.72863,1.836042 -4.69839,9.272527 -6.2731,11.751283 -0.32756,0.515625 -0.93556,1.640625 -1.35112,2.5 -0.41555,0.859375 -1.32828,2.40625 -2.02828,3.4375 -2.12221,3.12645 -2.77003,4.243475 -4.34963,7.5 -2.91963,6.01915 -8.18599,14.272681 -9.933453,15.5679 -1.702974,1.262244 -2.517987,1.311138 -23.75,1.4247 -12.092583,0.06468 -22.796708,-0.131763 -23.786948,-0.436544 z M 60.734884,77.03125 c 1.088648,-1.282238 3.299229,-5.1034 6.445741,-11.141975 4.172825,-8.008194 5.013981,-9.326775 5.949775,-9.326775 0.512656,0 1.635225,1.343116 2.4946,2.984703 3.495769,6.677653 7.126644,13.416097 8.579,15.921547 1.538344,2.653775 1.543231,2.65625 5.250006,2.65625 2.644863,0 3.808944,-0.25725 4.054019,-0.895906 0.349356,-0.910413 -3.321444,-8.536594 -8.411231,-17.474557 l -2.809113,-4.932963 2.67335,-5.067037 c 1.470338,-2.78687 4.073113,-7.685116 5.783944,-10.884989 C 92.4558,35.669674 93.700019,32.646236 93.5099,32.150798 93.262419,31.505874 92.106494,31.25 89.440488,31.25 l -3.72375,0 -1.875788,3.28125 c -3.686819,6.449237 -7.042831,12.699004 -8.222531,15.3125 -1.763169,3.906114 -3.190806,3.589707 -5.640025,-1.25 -3.23725,-6.396875 -8.938252,-16.372248 -9.63872,-16.865429 -0.938185,-0.660553 -7.699619,-0.58557 -8.117155,0.09002 -0.339434,0.549217 1.811253,4.896419 7.603572,15.369163 4.027553,7.281976 4.027697,7.272267 -0.224744,15.110784 -5.983086,11.02861 -6.341494,11.700528 -7.053281,13.222916 -1.004924,2.149356 -0.369289,2.6038 3.641952,2.6038 2.673619,0 3.858306,-0.2851 4.544866,-1.09375 z M 181.85587,75.915037 C 178.27346,74.8107 175.90232,72.344269 174.96766,68.75 c -0.63987,-2.460619 -0.56695,-3.242575 0.58276,-6.25 1.74847,-4.573616 4.19832,-5.968524 12.90925,-7.350328 C 194.8224,54.14036 195,54.068016 195,52.485526 c 0,-0.985919 -0.72725,-2.32341 -1.84628,-3.395504 -1.71941,-1.647309 -2.10528,-1.745356 -5.61606,-1.42701 -2.07339,0.188009 -4.98762,0.931369 -6.47606,1.651911 -1.48844,0.720542 -2.89871,1.310077 -3.13393,1.310077 -0.23522,0 -0.42767,-1.259141 -0.42767,-2.798092 0,-3.422205 0.88293,-4.095205 7.41228,-5.649899 5.97011,-1.421534 10.29523,-0.615584 13.82893,2.576908 3.22738,2.915737 3.75879,5.541328 3.75879,18.57132 0,12.211057 -0.10551,12.518938 -4.17513,12.183844 -1.76691,-0.145493 -2.54771,-0.56205 -3.00433,-1.602831 -0.76263,-1.738306 -1.66238,-1.781312 -3.13868,-0.150025 -0.82559,0.912275 -7.05173,3.481787 -7.45155,3.075244 -0.0236,-0.02394 -1.31705,-0.436338 -2.87444,-0.916432 z m 10.02327,-6.687668 C 193.70139,68.089356 195,65.277594 195,62.470067 l 0,-2.649566 -4.53125,0.411599 c -6.62472,0.601761 -8.90015,2.846813 -7.70633,7.603412 0.6391,2.546332 5.9659,3.359582 9.11672,1.391857 z M 271.25,76.416387 c -0.85938,-0.103006 -2.75951,-0.810449 -4.22253,-1.572099 -3.41221,-1.776394 -4.88479,-5.172425 -4.318,-9.958069 0.29504,-2.491098 0.85112,-3.72273 2.4303,-5.382738 2.68908,-2.82671 4.63375,-3.586668 11.57898,-4.524962 l 5.78125,-0.781041 0,-2.053376 c 0,-4.413836 -5.82803,-5.986753 -12.62001,-3.406 -3.43073,1.303574 -4.22458,1.035159 -4.24542,-1.43544 -0.0184,-2.177478 1.25174,-3.455999 4.51573,-4.545671 7.89791,-2.636689 15.26059,-0.782565 18.45228,4.64679 1.67764,2.853815 1.71414,3.137278 1.93386,15.0175 0.25002,13.519256 0.35596,13.177894 -4.09475,13.19415 -1.97965,0.0072 -2.85094,-0.318994 -3.5615,-1.33345 -0.91694,-1.309118 -0.98365,-1.314862 -2.64315,-0.227512 -2.07463,1.35935 -6.85962,2.616906 -8.98704,2.361918 z m 9.22969,-8.453437 c 1.83414,-1.777713 2.05503,-2.341756 1.89218,-4.831562 l -0.18437,-2.818888 -4.37128,0.148098 c -5.45806,0.184919 -7.41368,1.408625 -7.70135,4.819052 -0.45388,5.3808 5.88783,7.022575 10.36482,2.6833 z m -140.78085,7.055406 c -0.37948,-0.614018 0.86958,-3.410062 2.80022,-6.268356 0.58047,-0.859375 1.7496,-2.6875 2.59809,-4.0625 0.84848,-1.375 2.57998,-4.067458 3.84777,-5.983241 1.26779,-1.915782 2.30508,-3.797009 2.30508,-4.180505 0,-0.383495 -2.53125,-5.075705 -5.625,-10.427132 C 142.53125,38.745195 140,34.087359 140,33.745877 140,33.393263 141.9089,33.125 144.41803,33.125 l 4.41803,0 3.51486,7.522644 c 2.39472,5.125302 3.80699,7.465633 4.43157,7.34375 0.50419,-0.09839 2.63027,-3.413269 4.72462,-7.366394 l 3.8079,-7.1875 3.905,-0.186073 c 3.0039,-0.143136 3.90499,0.01412 3.90499,0.681492 0,0.477162 -1.43151,3.232769 -3.18114,6.123574 -4.72175,7.801449 -8.06886,13.739341 -8.06886,14.314423 0,0.518231 1.37967,3.004978 7.76564,13.996884 2.78035,4.785706 3.40229,6.299638 2.75621,6.709175 -1.10716,0.701812 -6.22415,0.677737 -7.34964,-0.03456 -0.48966,-0.309906 -2.45841,-3.610281 -4.375,-7.334181 -1.91659,-3.723906 -3.90659,-6.842607 -4.42221,-6.930456 -0.62419,-0.106345 -2.0863,2.061175 -4.375,6.485744 -1.89063,3.655006 -3.80915,7.031568 -4.26339,7.503475 -0.9527,0.989743 -7.33119,1.192368 -7.91277,0.251362 z M 208.875,74.875 c -1.06588,-1.065881 -1.06588,-30.55912 0,-31.625 0.78897,-0.788969 4.70411,-1.016183 6.38638,-0.370632 0.54374,0.208653 0.98862,0.911778 0.98862,1.5625 0,1.52959 1.38106,1.514857 2.77881,-0.02964 1.09412,-1.208984 5.93569,-3.167712 7.80128,-3.156118 1.96659,0.01222 7.42818,3.016523 7.83945,4.312307 0.55942,1.762588 1.3371,1.646096 3.50879,-0.525591 2.68241,-2.682409 8.08073,-4.127726 11.66694,-3.123648 3.60879,1.010398 6.15467,3.651862 7.3281,7.60321 1.2162,4.095417 1.37593,24.178317 0.20163,25.352617 -0.4125,0.4125 -1.79575,0.75 -3.07388,0.75 C 249.82146,75.625 250,76.143175 250,63.142419 c 0,-10.914326 -0.0894,-11.837555 -1.29536,-13.370632 -1.0733,-1.36448 -1.80228,-1.646787 -4.2524,-1.646787 -2.5672,0 -3.24098,0.292794 -5.11088,2.220933 l -2.15386,2.220933 -0.21068,10.747815 c -0.12078,6.161163 -0.48683,11.081219 -0.85778,11.529069 -0.3559,0.429687 -1.70322,0.78125 -2.99404,0.78125 -1.29082,0 -2.63847,-0.351563 -2.99478,-0.78125 -0.37409,-0.451131 -0.73655,-5.450362 -0.85778,-11.830938 -0.19124,-10.065563 -0.3269,-11.206691 -1.52322,-12.8125 -1.08749,-1.45974 -1.85095,-1.79475 -4.44059,-1.94858 -2.9057,-0.172605 -3.26659,-0.02712 -5.09297,2.052997 l -1.96566,2.238766 0,11.161386 c 0,12.375782 0.16442,11.920119 -4.30112,11.920119 -1.27813,0 -2.66138,-0.3375 -3.07388,-0.75 z m 88.125,0 c -1.06588,-1.065881 -1.06588,-30.55912 0,-31.625 0.97029,-0.970291 5.02971,-0.970291 6,0 0.4125,0.4125 0.75,1.25625 0.75,1.875 0,1.604394 0.88282,1.396025 2.98288,-0.704038 2.00543,-2.005422 5.98856,-3.106624 7.58789,-2.097793 0.66009,0.416373 0.99173,1.543298 0.99173,3.369947 l 0,2.744384 -3.53805,0.185778 c -2.82083,0.148118 -3.86445,0.512176 -5.14818,1.795903 -2.33932,2.339325 -2.86888,5.090469 -2.87278,14.924569 -0.002,5.992325 -0.24169,9.01945 -0.75349,9.53125 -0.97029,0.970294 -5.02971,0.970294 -6,0 z m 22.5,0 c -1.06588,-1.065881 -1.06588,-30.55912 0,-31.625 0.4125,-0.4125 1.79575,-0.75 3.07388,-0.75 4.55414,0 4.30112,-0.974319 4.30112,16.5625 0,17.536819 0.25302,16.5625 -4.30112,16.5625 -1.27813,0 -2.66138,-0.3375 -3.07388,-0.75 z m 13.75,0 c -0.54197,-0.541975 -0.75,-4.941325 -0.75,-15.860972 0,-16.988565 -0.0724,-16.723885 4.48506,-16.395971 2.09793,0.150948 2.84045,0.509007 3.3194,1.600693 0.75587,1.722896 1.59711,1.780714 2.94831,0.202635 0.5668,-0.661988 2.57318,-1.689881 4.4586,-2.284207 2.9425,-0.927541 3.82569,-0.969256 6.23561,-0.29452 3.5964,1.006929 6.39646,3.904833 7.5969,7.862364 1.20918,3.986354 1.3731,24.002997 0.20612,25.169978 -0.4125,0.4125 -1.79575,0.75 -3.07388,0.75 -4.46691,0 -4.30112,0.461525 -4.30112,-11.972906 0,-14.410153 -0.46574,-15.527094 -6.47455,-15.527094 -1.44228,0 -3.24901,0.438948 -4.01496,0.97544 -2.8414,1.9902 -3.26049,3.893296 -3.26049,14.806022 0,7.114419 -0.22783,10.446369 -0.75,10.968538 -0.97145,0.97145 -5.65355,0.97145 -6.625,0 z M 319.97217,33.193331 c -1.4757,-1.475704 -1.83396,-2.268749 -1.51115,-3.345057 0.67587,-2.253447 1.98516,-3.223274 4.35148,-3.223274 2.72069,0 4.27083,1.451843 4.27083,4 0,2.239186 -1.06836,3.495558 -3.47385,4.085179 -1.379,0.338012 -2.07104,0.04941 -3.63731,-1.516848 z"
       id="path3546"
       inkscape:connector-curvature="0" />
    <path
       style="fill:#6695b3"
       d="M 50.000321,98.047844 C 48.116978,97.29685 45.625,95.045812 45.625,94.09555 c 0,-0.377606 -1.017637,-2.227019 -2.261416,-4.1098 -1.243778,-1.882787 -3.227295,-5.251375 -4.407815,-7.48575 -1.18052,-2.234375 -2.695981,-4.90625 -3.36769,-5.9375 -0.671708,-1.03125 -1.79766,-3 -2.502113,-4.375 -0.704454,-1.375 -1.953762,-3.625 -2.776242,-5 -0.822479,-1.375 -1.79814,-3.169544 -2.168137,-3.987881 -0.369995,-0.818331 -1.218381,-2.254189 -1.885303,-3.190793 -2.688333,-3.775417 -2.307028,-7.077195 1.552845,-13.446326 0.833288,-1.375 1.958413,-3.34375 2.500277,-4.375 1.300381,-2.474827 3.927829,-7.182961 4.883074,-8.75 0.742491,-1.218026 5.192763,-9.100749 8.776629,-15.545961 C 48.123374,10.420526 47.302953,10.625 73.125,10.625 c 24.632481,0 24.334169,-0.05507 27.58813,5.092803 3.19617,5.056443 3.48521,5.551136 5.60601,9.594697 3.41025,6.502021 4.13876,7.812336 5.66318,10.185883 2.17602,3.388103 2.76833,4.416783 4.93114,8.564117 1.07558,2.0625 2.35069,4.194021 2.83357,4.736713 0.48288,0.542692 0.87797,1.440156 0.87797,1.994364 0,0.554209 0.28125,1.181474 0.625,1.393923 1.63219,1.008752 0.29356,5.049519 -4.34808,13.125 -1.38307,2.40625 -2.79902,5.027031 -3.14656,5.823956 -0.34755,0.796932 -1.26507,2.343807 -2.03895,3.4375 -2.1153,2.989488 -2.82424,4.19245 -4.48689,7.613544 -0.8353,1.71875 -3.02788,5.65625 -4.8724,8.75 C 97.434169,99.194637 99.084231,98.755938 73.125,98.709412 60.357142,98.686537 50.925337,98.416694 50.000321,98.047844 Z M 61.060174,77.34375 c 1.24303,-1.3677 1.889226,-2.459356 4.532045,-7.65625 3.311981,-6.512738 6.816825,-12.469682 7.463537,-12.685252 0.393438,-0.131147 1.296781,0.981884 2.007431,2.473402 0.71065,1.491517 1.946819,3.83685 2.747038,5.21185 0.800219,1.375 2.231181,4.046875 3.179919,5.9375 0.948737,1.890625 2.383225,4.492187 3.187756,5.78125 1.397331,2.238881 1.613944,2.34375 4.841325,2.34375 4.088294,0 5.368569,-0.430056 5.3158,-1.785619 C 94.313025,76.3996 92.652281,72.84375 90.64445,69.0625 88.636619,65.28125 86.098981,60.494433 85.005256,58.425129 l -1.988593,-3.762371 3.421143,-6.550129 C 88.319438,44.510058 90.875063,39.695473 92.116975,37.413551 95.47805,31.237826 95.204606,30.625 89.087913,30.625 c -3.744369,0 -3.659275,-0.07259 -6.960332,5.9375 -1.321637,2.40625 -3.182662,5.78125 -4.135606,7.5 -0.95295,1.71875 -2.297281,4.343735 -2.987406,5.8333 -0.690125,1.489565 -1.567588,2.604027 -1.949925,2.476582 -0.382331,-0.127445 -2.011944,-2.75243 -3.62135,-5.8333 -8.602816,-16.468265 -8.332043,-16.166121 -14.156592,-15.796766 -2.381233,0.151002 -3.126586,0.451136 -3.29278,1.325915 -0.235911,1.241744 2.863295,7.53415 9.099314,18.474592 1.928376,3.383136 1.695908,5.329738 -1.243419,10.411903 -1.18739,2.053024 -3.577671,6.419649 -5.311734,9.703612 C 50.672132,77.960719 50.832495,78.75 56.17211,78.75 c 2.948348,0 3.844244,-0.257744 4.888064,-1.40625 z M 184.11239,76.330725 c -0.18501,-0.29935 -1.22353,-0.721706 -2.30784,-0.938563 -2.2746,-0.454925 -6.17955,-4.285375 -6.17955,-6.061662 0,-0.663025 -0.28125,-1.2055 -0.625,-1.2055 -0.34375,0 -0.625,-0.703125 -0.625,-1.5625 0,-0.859375 0.25526,-1.5625 0.56724,-1.5625 0.31199,0 0.92765,-1.40625 1.36816,-3.125 0.46279,-1.805709 1.1561,-3.125 1.64224,-3.125 0.46274,0 1.49866,-0.430692 2.30205,-0.957093 1.41017,-0.923983 2.89838,-1.267296 8.14539,-1.87905 1.35441,-0.157913 2.62746,-0.553911 2.82899,-0.879995 0.20304,-0.328516 0.73827,-0.363063 1.20036,-0.07747 1.20558,0.745091 3.03312,0.107332 3.3686,-1.175548 0.41898,-1.602176 -1.23521,-5.220694 -2.13296,-4.66585 -0.46309,0.286207 -0.56593,0.182494 -0.27916,-0.281519 0.29048,-0.470001 -0.38213,-1.084044 -1.86705,-1.704484 -2.12642,-0.888476 -2.66507,-0.876709 -6.42217,0.14029 -2.25559,0.61056 -4.60634,1.615372 -5.22388,2.232916 -0.61755,0.617544 -1.40406,1.122808 -1.74781,1.122808 -0.90645,0 -0.76869,-5.360119 0.15625,-6.079916 0.42969,-0.334385 2.54729,-0.971501 4.70579,-1.415813 2.1585,-0.444312 4.07354,-1.048912 4.25564,-1.343555 0.46479,-0.752052 4.63232,-0.671725 4.63232,0.08928 0,0.34375 0.63281,0.626051 1.40625,0.627336 1.39199,0.0023 3.88569,1.361712 6.51661,3.552421 1.58828,1.322522 1.60122,1.466921 1.51546,16.913993 L 201.25,74.375 l -2.45788,0 c -1.90898,0 -2.54649,-0.279156 -2.85462,-1.25 -0.50575,-1.593475 -2.29769,-1.604781 -3.72871,-0.0235 -0.61047,0.674563 -2.13062,1.552288 -3.37812,1.950506 -1.24749,0.398213 -2.53536,0.9713 -2.86192,1.273525 -0.75408,0.697882 -1.42711,0.699775 -1.85636,0.005 z M 188.75,70.644612 c 0,-0.332956 0.3999,-0.451924 0.88866,-0.264368 2.40883,0.924356 5.9801,-3.497769 5.984,-7.4097 0.002,-2.055256 -0.24633,-2.444134 -2.02891,-3.17658 -2.10713,-0.865799 -4.21875,-0.707723 -4.21875,0.315816 0,0.323945 -0.2995,0.403891 -0.66556,0.177657 -1.12218,-0.693549 -4.95944,0.314915 -4.95944,1.303384 0,0.500048 -0.35156,0.909179 -0.78125,0.909179 -1.0704,0 -1.03337,5.754087 0.0454,7.053919 1.14996,1.3856 5.73587,2.257631 5.73587,1.090693 z m 82.92321,5.296551 c -0.60847,-0.444919 -1.60507,-0.678519 -2.21467,-0.519101 -0.6096,0.159413 -1.47471,-0.151587 -1.92248,-0.691112 C 267.0883,74.191431 266.22904,73.75 265.6266,73.75 c -1.38646,0 -2.0547,-2.711975 -1.97741,-8.025113 0.0515,-3.539923 0.27661,-4.215708 2.11047,-6.335303 1.71797,-1.985645 2.58809,-2.446986 5.33409,-2.828151 1.80469,-0.250504 3.28125,-0.718281 3.28125,-1.039504 0,-0.358113 0.397,-0.36187 1.02627,-0.0097 1.07952,0.604127 3.34873,0.280985 3.34873,-0.476867 0,-0.244123 0.80746,-0.325349 1.79436,-0.180504 1.64308,0.241154 1.83101,0.06793 2.22923,-2.054782 0.35835,-1.910145 0.18663,-2.582398 -0.97567,-3.819613 -2.50952,-2.671264 -5.22734,-3.015394 -10.39167,-1.315794 l -4.53125,1.49125 0,-2.264898 c 0,-2.049579 0.22282,-2.345631 2.34375,-3.114107 1.28906,-0.467065 3.1875,-0.947886 4.21875,-1.068491 1.03125,-0.120605 1.96875,-0.498087 2.08333,-0.838847 0.27302,-0.81193 3.85417,-0.806879 3.85417,0.0054 0,0.34375 0.59452,0.625 1.32116,0.625 2.26697,0 5.97165,2.540899 7.39367,5.071047 0.74921,1.33303 1.21325,2.66469 1.0312,2.959246 -0.18204,0.294555 0.0729,1.069176 0.56661,1.721381 0.69667,0.920374 0.90205,3.571468 0.91749,11.842938 l 0.0199,10.657113 -3.87664,-0.09952 c -2.26407,-0.05813 -3.97546,-0.396012 -4.11422,-0.812287 -0.25407,-0.762207 -3.12525,-0.337757 -4.16539,0.615775 C 278.14219,74.755062 277.29071,75 276.57657,75 c -0.71415,0 -1.86063,0.393775 -2.54775,0.875056 -1.02866,0.7205 -1.44471,0.732175 -2.35561,0.06611 z m 7.91252,-6.916401 c 0.63152,-0.842162 1.39085,-1.38125 1.68738,-1.197975 1.00811,0.623038 1.87747,-2.134193 1.47214,-4.668981 -0.63876,-3.994592 -1.71401,-4.442387 -7.74525,-3.225568 -4.12461,0.83215 -5.625,2.369084 -5.625,5.761999 0,2.862669 1.89137,5.208169 3.72937,4.624813 0.64099,-0.203444 1.36041,-0.05444 1.59872,0.331169 0.66568,1.0771 3.58474,0.105331 4.88263,-1.625457 z m -136.3397,5.363125 -3.31647,-0.325387 5.97272,-9.477544 C 149.18727,59.372304 151.875,54.838549 151.875,54.509944 151.875,53.502067 141.13376,35 140.54865,35 140.24689,35 140,34.565804 140,34.035119 c 0,-0.797897 0.78304,-0.933101 4.52462,-0.78125 3.94754,0.16021 4.55501,0.342711 4.76289,1.430895 0.13105,0.685995 0.76685,1.919237 1.41288,2.740537 0.64603,0.8213 1.17461,2.025863 1.17461,2.676808 0,0.650945 0.84331,2.854118 1.87401,4.895938 1.6821,3.332213 2.01813,3.659455 3.28125,3.195399 0.77398,-0.284352 1.49711,-1.119203 1.60696,-1.855225 C 158.74706,45.602199 159.09549,45 159.41149,45 c 0.31601,0 1.70583,-2.25 3.08851,-5 1.38267,-2.75 2.33575,-5 2.11795,-5 -0.21781,0 -0.0459,-0.421875 0.38205,-0.9375 0.53011,-0.638745 1.94869,-0.9375 4.45152,-0.9375 3.88229,0 4.17274,0.225406 2.73612,2.123326 -0.49368,0.652205 -0.74938,1.425642 -0.56823,1.71875 0.18115,0.293108 0.059,0.532924 -0.27142,0.532924 -0.77711,0 -10.09799,15.806096 -10.09799,17.123901 0,0.550605 0.53906,1.540161 1.19792,2.199016 0.65885,0.658854 1.09524,1.300594 0.96974,1.426089 -0.12549,0.125495 1.8364,3.73487 4.35975,8.020831 l 4.58792,7.792663 -4.06909,0.186494 c -4.47734,0.2052 -4.48273,0.203444 -4.82403,-1.568788 -0.13124,-0.681412 -1.50035,-3.751237 -3.0425,-6.821831 -3.55827,-7.084933 -4.63282,-7.401358 -7.28597,-2.145506 -1.0097,2.0002 -1.66135,3.811193 -1.44811,4.024431 0.21324,0.213231 0.0643,0.3877 -0.33094,0.3877 -0.39525,0 -1.42115,1.386344 -2.27978,3.080769 -0.85863,1.694425 -1.77743,3.176787 -2.04177,3.294137 -0.26435,0.117357 -1.97305,0.06695 -3.79711,-0.112018 z m 65.72971,-0.337743 c -0.13697,-0.35055 -0.17349,-7.331775 -0.0811,-15.513842 l 0.1679,-14.876483 3.59375,-0.167427 c 3.09246,-0.144071 3.59375,-0.01216 3.59375,0.945705 0,1.85534 1.17518,1.985977 3.12282,0.347144 1.01598,-0.85489 2.69772,-1.741144 3.73721,-1.969453 C 224.14951,42.587479 225,42.141778 225,41.825341 c 0,-0.797913 2.72654,-0.723802 3.54674,0.0964 0.36947,0.369461 1.7592,1.045594 3.0883,1.502518 1.65905,0.570353 2.52425,1.290383 2.76013,2.297003 0.46175,1.970546 3.10483,2.440953 3.10483,0.552587 0,-0.722197 0.49219,-1.465413 1.09375,-1.651593 0.60156,-0.18618 1.52486,-0.563465 2.05176,-0.838413 0.52691,-0.274947 1.86285,-0.698638 2.96875,-0.941536 1.10591,-0.242897 2.01074,-0.700534 2.01074,-1.016971 0,-0.316438 0.70312,-0.575341 1.5625,-0.575341 0.85937,0 1.5625,0.28125 1.5625,0.625 0,0.34375 0.30906,0.625 0.68679,0.625 3.00903,0 7.43821,4.795771 7.43821,8.053847 0,0.726634 0.21094,1.320818 0.46875,1.320409 0.25781,-4.1e-4 0.38617,5.06209 0.28524,11.25 l -0.18352,11.250744 -2.31648,0.0085 c -1.27407,0.005 -2.97455,0.184725 -3.77883,0.400069 l -1.46234,0.391525 0.17772,-12.118813 c 0.18451,-12.582454 -0.13535,-14.586162 -2.40863,-15.08849 -2.38198,-0.526349 -7.34314,-0.138684 -7.34377,0.573845 -6.2e-4,0.934594 -0.83736,1.770833 -1.77147,1.770833 -1.66786,0 -2.81543,6.067492 -2.86656,15.15625 l -0.0501,8.906281 -2.45699,0 -2.457,0 -0.19925,-10.105087 c -0.13123,-6.655095 -0.43497,-10.183344 -0.88967,-10.334304 -0.37973,-0.126069 -0.58541,-0.852218 -0.45706,-1.613663 0.12833,-0.761445 -0.29851,-2.061269 -0.94856,-2.888495 -0.98801,-1.257329 -1.81663,-1.530703 -5.05133,-1.666529 -3.14375,-0.132007 -3.93761,0.03286 -4.23291,0.879049 -0.1999,0.572841 -0.94926,1.512951 -1.66524,2.089133 -1.2478,1.004149 -1.29365,1.524832 -1.10529,12.552727 l 0.19651,11.505119 -3.56671,-0.05275 c -1.96169,-0.029 -3.67878,-0.339537 -3.81576,-0.690081 z m 110.625,0 c -0.13697,-0.35055 -0.17349,-7.331775 -0.0811,-15.513842 l 0.1679,-14.876483 3.59375,-0.167427 3.59375,-0.167426 0,15.731758 0,15.731757 -3.5126,-0.0505 c -1.93194,-0.02775 -3.62468,-0.337306 -3.76166,-0.68785 z m 13.51942,0.429025 c -0.84942,-0.28535 -0.84463,-30.713135 0.005,-30.773812 0.34375,-0.02456 1.89062,-0.04464 3.4375,-0.04464 4.0703,0 4.0625,-0.0021 4.0625,1.070255 0,0.664208 0.45408,0.911688 1.40625,0.766412 0.77343,-0.118007 1.35147,-0.512832 1.28452,-0.877389 -0.0669,-0.364559 1.269,-1.041535 2.96875,-1.504394 1.69961,-0.462858 3.09032,-1.071969 3.09032,-1.353579 0,-0.699787 3.35699,-0.649972 4.09375,0.06075 0.32656,0.315021 1.14548,0.666584 1.81982,0.78125 1.76933,0.30086 4.69263,3.836236 5.4498,6.590867 0.35793,1.302189 0.83041,2.508242 1.04995,2.680117 0.21955,0.171875 0.31633,5.304687 0.21506,11.40625 l -0.18412,11.09375 -2.31588,0.0085 c -1.27373,0.005 -2.96871,0.183356 -3.7666,0.397025 l -1.45071,0.388487 0.15672,-12.298656 c 0.15236,-11.956408 0.11831,-12.337047 -1.22358,-13.678271 -1.08705,-1.08648 -2.10675,-1.379587 -4.79964,-1.379587 -1.88063,0 -3.41938,0.210937 -3.41945,0.46875 -6e-5,0.257812 -0.21106,0.435444 -0.46887,0.394737 -1.27345,-0.201071 -1.98406,0.218462 -3.03663,1.792763 -1.02831,1.538019 -1.12872,2.885284 -0.95485,12.8125 0.10686,6.101562 -0.0412,11.1117 -0.32899,11.133637 -2.57039,0.195913 -6.5903,0.232357 -7.09062,0.06428 z M 297.5,59.0625 l 0,-15.3125 2.42187,0 c 2.19098,0 2.45763,0.178764 2.79688,1.875 0.47781,2.389059 1.27964,2.364487 3.5383,-0.108434 1.41139,-1.54528 2.50969,-2.072993 4.97176,-2.388847 1.73809,-0.222977 3.29765,-0.267931 3.46568,-0.0999 C 314.86252,43.195852 315,44.425521 315,45.760417 l 0,2.427083 -2.45158,-0.245158 c -7.18628,-0.718628 -10.02981,4.509857 -10.04166,18.463908 l -0.007,7.96875 -2.5,0 -2.5,0 0,-15.3125 z m 22.58508,-26.159434 c -0.84083,-0.895026 -1.21331,-2.003346 -1.08449,-3.226908 0.1894,-1.798851 0.31886,-1.870176 3.72282,-2.051098 3.0252,-0.160791 3.53805,-0.0275 3.60718,0.9375 0.37748,5.269051 0.31212,5.391133 -2.99145,5.586848 -1.32814,0.07868 -2.39209,-0.32882 -3.25406,-1.246342 z"
       id="path3544"
       inkscape:connector-curvature="0" />
    <path
       style="fill:#3096d8"
       d="M 50.000321,98.047844 C 48.116978,97.29685 45.625,95.045812 45.625,94.09555 c 0,-0.377606 -1.017637,-2.227019 -2.261416,-4.1098 -1.243778,-1.882787 -3.227295,-5.251375 -4.407815,-7.48575 -1.18052,-2.234375 -2.695981,-4.90625 -3.36769,-5.9375 -0.671708,-1.03125 -1.79766,-3 -2.502113,-4.375 -0.704454,-1.375 -1.953762,-3.625 -2.776242,-5 -0.822479,-1.375 -1.79814,-3.169544 -2.168137,-3.987881 -0.369995,-0.818331 -1.218381,-2.254189 -1.885303,-3.190793 -2.688333,-3.775417 -2.307028,-7.077195 1.552845,-13.446326 0.833288,-1.375 1.958413,-3.34375 2.500277,-4.375 1.300381,-2.474827 3.927829,-7.182961 4.883074,-8.75 0.742491,-1.218026 5.192763,-9.100749 8.776629,-15.545961 C 48.123374,10.420526 47.302953,10.625 73.125,10.625 c 24.632481,0 24.334169,-0.05507 27.58813,5.092803 3.19617,5.056443 3.48521,5.551136 5.60601,9.594697 3.41025,6.502021 4.13876,7.812336 5.66318,10.185883 2.17602,3.388103 2.76833,4.416783 4.93114,8.564117 1.07558,2.0625 2.35069,4.194021 2.83357,4.736713 0.48288,0.542692 0.87797,1.440156 0.87797,1.994364 0,0.554209 0.28125,1.181474 0.625,1.393923 1.63219,1.008752 0.29356,5.049519 -4.34808,13.125 -1.38307,2.40625 -2.79902,5.027031 -3.14656,5.823956 -0.34755,0.796932 -1.26507,2.343807 -2.03895,3.4375 -2.1153,2.989488 -2.82424,4.19245 -4.48689,7.613544 -0.8353,1.71875 -3.02788,5.65625 -4.8724,8.75 C 97.434169,99.194637 99.084231,98.755938 73.125,98.709412 60.357142,98.686537 50.925337,98.416694 50.000321,98.047844 Z M 61.060174,77.34375 c 1.24303,-1.3677 1.889226,-2.459356 4.532045,-7.65625 3.311981,-6.512738 6.816825,-12.469682 7.463537,-12.685252 0.393438,-0.131147 1.296781,0.981884 2.007431,2.473402 0.71065,1.491517 1.946819,3.83685 2.747038,5.21185 0.800219,1.375 2.231181,4.046875 3.179919,5.9375 0.948737,1.890625 2.383225,4.492187 3.187756,5.78125 1.397331,2.238881 1.613944,2.34375 4.841325,2.34375 4.088294,0 5.368569,-0.430056 5.3158,-1.785619 C 94.313025,76.3996 92.652281,72.84375 90.64445,69.0625 88.636619,65.28125 86.098981,60.494433 85.005256,58.425129 l -1.988593,-3.762371 3.421143,-6.550129 C 88.319438,44.510058 90.875063,39.695473 92.116975,37.413551 95.47805,31.237826 95.204606,30.625 89.087913,30.625 c -3.744369,0 -3.659275,-0.07259 -6.960332,5.9375 -1.321637,2.40625 -3.182662,5.78125 -4.135606,7.5 -0.95295,1.71875 -2.297281,4.343735 -2.987406,5.8333 -0.690125,1.489565 -1.567588,2.604027 -1.949925,2.476582 -0.382331,-0.127445 -2.011944,-2.75243 -3.62135,-5.8333 -8.602816,-16.468265 -8.332043,-16.166121 -14.156592,-15.796766 -2.381233,0.151002 -3.126586,0.451136 -3.29278,1.325915 -0.235911,1.241744 2.863295,7.53415 9.099314,18.474592 1.928376,3.383136 1.695908,5.329738 -1.243419,10.411903 -1.18739,2.053024 -3.577671,6.419649 -5.311734,9.703612 C 50.672132,77.960719 50.832495,78.75 56.17211,78.75 c 2.948348,0 3.844244,-0.257744 4.888064,-1.40625 z M 181.5625,75.314825 c -5.17777,-1.823225 -7.43014,-6.75505 -5.60063,-12.263219 1.16161,-3.497262 4.13472,-5.972822 7.84468,-6.53186 4.92375,-0.741939 6.01433,-0.892937 8.63884,-1.196112 3.2583,-0.376387 3.33586,-0.433941 3.33586,-2.475563 0,-2.307788 -1.8105,-4.694618 -4.37327,-5.765416 -2.01981,-0.843929 -2.62572,-0.833031 -6.04514,0.108734 -2.09019,0.57567 -4.42326,1.443108 -5.1846,1.927642 -2.01022,1.279342 -2.14498,1.155573 -1.93293,-1.775281 0.18902,-2.612437 0.24889,-2.675853 3.62969,-3.844696 4.36396,-1.508752 11.4539,-1.630402 14.0625,-0.241287 2.68158,1.427977 4.76586,3.856249 5.22684,6.089474 0.21899,1.060898 0.31584,7.126148 0.21522,13.478334 l -0.18294,11.549425 -2.43119,0 c -1.88229,0 -2.52077,-0.282225 -2.82793,-1.25 -0.50412,-1.588331 -2.29634,-1.606281 -3.71631,-0.03725 -1.0197,1.126756 -5.96573,3.197162 -7.48878,3.134794 -0.36845,-0.01506 -1.79491,-0.423575 -3.16991,-0.907744 z m 10.49069,-5.410187 c 1.88663,-1.009701 3.56697,-4.404519 3.56947,-7.2115 0.001,-1.440653 -0.24003,-2.76916 -0.53626,-2.952241 -1.90664,-1.178371 -10.39329,0.306957 -12.07645,2.113611 -1.5211,1.632705 -1.54636,6.336954 -0.0412,7.671598 0.60156,0.533419 1.65625,1.115369 2.34375,1.293232 1.54598,0.399956 5.21437,-0.09784 6.74069,-0.9147 z m 79.43815,5.680343 c -0.64836,-0.235712 -1.39491,-0.303369 -1.65899,-0.150344 -0.75474,0.437338 -4.76937,-2.276075 -5.58049,-3.77175 -0.40278,-0.742712 -0.69609,-3.289643 -0.65179,-5.659837 0.074,-3.959808 0.24451,-4.478623 2.10143,-6.394479 2.23576,-2.306722 4.31262,-3.157408 8.986,-3.680696 7.5558,-0.846037 8.10703,-1.067643 8.32595,-3.347197 0.24756,-2.577837 -1.63489,-4.810887 -4.85102,-5.754485 -1.84471,-0.541232 -2.99927,-0.397946 -6.75618,0.838464 l -4.53125,1.49125 0,-2.264898 c 0,-2.049579 0.22282,-2.345631 2.34375,-3.114107 10.09885,-3.659108 18.64608,-0.63504 20.07509,7.102703 0.19633,1.063092 0.36522,6.824381 0.37531,12.802864 l 0.0184,10.869969 -3.07817,5.68e-4 c -2.60393,4.75e-4 -3.15679,-0.211962 -3.58846,-1.378875 -0.52253,-1.412531 -0.6034,-1.400662 -3.61626,0.530713 -2.11784,1.357631 -6.4919,2.396881 -7.91327,1.880137 z m 6.12422,-4.907925 c 0.79582,-0.315119 2.361,-1.424262 3.47819,-2.464768 1.70181,-1.584994 2.03125,-2.341275 2.03125,-4.663026 0,-4.252275 -1.5564,-4.945342 -8.125,-3.618085 -4.07275,0.822944 -5.625,2.38033 -5.625,5.643604 0,2.839513 0.9876,4.278294 3.43822,5.008956 2.52142,0.751769 3.11056,0.763219 4.80234,0.09332 z m -134.36953,3.710831 -3.31647,-0.325387 5.97272,-9.477544 c 3.28499,-5.212652 5.97272,-9.754737 5.97272,-10.093524 0,-0.338786 -2.53125,-5.031806 -5.625,-10.428932 -3.09375,-5.397126 -5.625,-9.925354 -5.625,-10.062729 0,-0.137374 1.80839,-0.249771 4.01866,-0.249771 l 4.01865,0 1.23757,2.65625 c 0.68066,1.460937 2.24354,4.857278 3.47306,7.547423 3.16773,6.930887 3.46391,6.782188 9.43114,-4.734923 l 2.83346,-5.46875 3.43124,0 c 1.88717,0 3.43122,0.189628 3.43122,0.421396 0,0.231768 -2.53125,4.697893 -5.625,9.924723 -3.09375,5.226828 -5.625,9.839173 -5.625,10.249655 0,0.632373 7.65622,14.227282 10.48787,18.622976 l 0.90589,1.40625 -4.03847,0 -4.03848,0 -3.50972,-7.1875 C 158.36243,61.669133 157.26366,60 156.32566,60 c -0.91927,0 -2.16502,1.771476 -5.03222,7.155894 -2.09578,3.935737 -4.01762,7.246225 -4.27073,7.356637 -0.25312,0.110413 -1.95262,0.05431 -3.77668,-0.124644 z m 65.7247,-0.337743 c -0.13422,-0.35055 -0.16848,-7.351807 -0.0761,-15.558351 l 0.1679,-14.920991 3.07817,3.14e-4 c 2.57563,2.61e-4 3.15907,0.218968 3.57362,1.339598 0.61585,1.664827 1.87874,1.71303 3.31452,0.12651 1.05805,-1.169132 5.90203,-3.162224 7.68541,-3.162224 1.99763,0 6.91035,2.66507 7.56622,4.10455 0.80817,1.773751 2.97323,2.031174 3.48633,0.414521 0.3847,-1.212083 3.09048,-2.764975 6.81817,-3.913065 2.83563,-0.873342 7.02901,0.0381 9.11454,1.981072 3.1262,2.912498 3.45705,4.481589 3.69104,17.505103 l 0.22063,12.279682 -3.23296,0.220318 c -1.77813,0.121175 -3.35002,0.103131 -3.49308,-0.04013 C 250.74205,74.283856 250.625,69.137075 250.625,62.989794 250.625,48.530209 250.18194,47.5 243.96331,47.5 c -2.27951,0 -3.15824,0.348778 -4.65845,1.848989 -2.82319,2.823187 -3.66535,6.590735 -3.6731,16.432261 l -0.007,8.59375 -2.5,0 -2.5,0 -0.0276,-8.90625 c -0.0298,-9.616384 -0.8367,-14.133518 -2.9482,-16.504062 -1.0596,-1.189594 -1.9298,-1.464684 -4.63318,-1.46467 -3.0963,1.8e-5 -3.45937,0.163549 -5.20354,2.34375 l -1.875,2.343732 -0.3125,11.174644 -0.3125,11.174637 -3.04887,0.07536 c -1.67688,0.04144 -3.15868,-0.211456 -3.2929,-0.562 z m 110.625,0 c -0.13422,-0.35055 -0.16848,-7.351807 -0.0761,-15.558351 l 0.1679,-14.920991 3.125,3.14e-4 3.125,3.13e-4 0,15.48156 0,15.481561 -3.04887,0.07648 c -1.67687,0.04206 -3.15868,-0.210337 -3.2929,-0.560881 z m 13.75,0 c -0.13422,-0.35055 -0.16848,-7.351807 -0.0761,-15.558351 l 0.1679,-14.920991 3.07817,3.14e-4 c 2.57563,2.61e-4 3.15907,0.218968 3.57362,1.339598 0.64258,1.737064 1.50122,1.689782 3.75515,-0.206776 4.02478,-3.386627 10.27261,-3.489747 13.98433,-0.230811 3.27109,2.872052 4.04623,6.553444 4.04623,19.216817 l 0,10.685056 -2.44888,0 c -1.34689,0 -2.87682,0.164212 -3.39986,0.364919 -0.82732,0.317475 -0.97618,-1.22015 -1.14487,-11.826213 -0.18951,-11.915929 -0.2281,-12.227517 -1.70908,-13.802424 -2.69017,-2.860755 -9.38816,-2.032544 -11.7573,1.453797 -0.91735,1.349947 -1.15499,3.499154 -1.41501,12.797246 l -0.3125,11.174825 -3.04887,0.07518 c -1.67687,0.04131 -3.15868,-0.211637 -3.2929,-0.562181 z M 297.5,59.0625 l 0,-15.3125 2.42187,0 c 2.19098,0 2.45763,0.178764 2.79688,1.875 0.48209,2.410431 1.56129,2.381982 3.59714,-0.09482 1.31036,-1.594177 2.25772,-2.061829 4.85074,-2.394481 1.77229,-0.227364 3.35983,-0.275908 3.52786,-0.107876 C 314.86252,43.195852 315,44.425521 315,45.760417 l 0,2.427083 -2.45158,-0.245158 c -7.18628,-0.718628 -10.02981,4.509857 -10.04166,18.463908 l -0.007,7.96875 -2.5,0 -2.5,0 0,-15.3125 z m 22.50182,-26.248058 c -1.14215,-1.215766 -1.283,-1.785104 -0.80119,-3.238516 0.51562,-1.555404 0.92931,-1.785909 3.50689,-1.954019 2.63969,-0.172161 2.98102,-0.03617 3.52942,1.40625 0.61023,1.605036 -0.0656,4.645989 -1.06522,4.793105 -3.23686,0.476371 -3.89735,0.347743 -5.1699,-1.00682 z"
       id="path3542"
       inkscape:connector-curvature="0" />
    <path
       style="fill:#0399e3"
       d="M 49.617573,97.523913 C 48.242981,96.956581 45.625,93.999594 45.625,93.014337 45.625,92.702431 45.339789,92.10755 44.991197,91.692369 43.507819,89.925644 40.945943,85.695494 39.424083,82.5 38.523668,80.609375 36.738023,77.486513 35.455983,75.560306 34.173942,73.634106 33.125,71.866656 33.125,71.63265 c 0,-0.234 -1.828125,-3.609313 -4.0625,-7.500681 C 24.721311,56.571382 24.078326,53.798912 25.929993,50.625 c 0.501361,-0.859375 1.360292,-2.40625 1.908736,-3.4375 0.548443,-1.03125 1.678951,-3 2.51224,-4.375 0.833288,-1.375 1.96697,-3.484375 2.519292,-4.6875 0.552322,-1.203125 1.359819,-2.609375 1.794439,-3.125 0.43462,-0.515625 1.985701,-3.1875 3.446847,-5.9375 1.461146,-2.75 3.264218,-5.984375 4.006827,-7.1875 0.742609,-1.203125 1.695441,-2.75 2.117404,-3.4375 0.421964,-0.6875 1.048877,-1.903994 1.393141,-2.703319 0.833729,-1.935786 2.053719,-3.096933 4.052199,-3.856755 2.545066,-0.967632 45.22342,-0.815447 47.167195,0.168192 1.58085,0.79998 4.341597,4.336615 5.965347,7.641882 0.50661,1.03125 2.03901,3.84375 3.40534,6.25 1.36632,2.40625 2.7953,5.076878 3.17549,5.934728 0.3802,0.857851 1.31432,2.404726 2.07581,3.4375 0.76149,1.032775 1.73011,2.580897 2.15249,3.440272 0.42238,0.859375 1.41705,2.6875 2.21039,4.0625 3.93033,6.811976 5.41682,10.027077 5.41682,11.715964 0,1.970794 -1.53809,5.348786 -5.61013,12.321061 -1.38318,2.368337 -2.51487,4.426231 -2.51487,4.5731 0,0.146875 -1.26403,2.191562 -2.80896,4.543762 -1.54493,2.3522 -2.98705,4.854838 -3.20469,5.561419 -0.48635,1.578881 -5.22449,9.725332 -6.31674,10.860588 -0.43703,0.454237 -0.79461,1.17865 -0.79461,1.6098 0,0.431156 -0.725475,1.46575 -1.612162,2.299112 L 96.775681,97.8125 73.856588,97.940594 C 61.25109,98.011044 50.343533,97.823537 49.617573,97.523913 Z M 59.957668,78.584538 C 61.770974,77.663625 63.897294,74.17065 71.457725,59.693014 72.087594,58.486856 72.847875,57.5 73.147225,57.5 c 0.299356,0 1.105656,1.195312 1.791788,2.65625 3.1423,6.690769 9.988893,18.244425 11.060631,18.664881 C 89.13735,80.052094 95,78.826131 95,76.938856 95,76.353738 94.755288,75.607812 94.4562,75.28125 94.157106,74.954688 92.702038,72.296875 91.222706,69.375 89.743381,66.453125 87.456844,62.185304 86.141513,59.890954 84.826181,57.596604 83.75,55.293312 83.75,54.772526 83.75,53.860244 86.588737,48.250151 92.291281,37.89269 93.781075,35.186794 95,32.612745 95,32.172581 c 0,-1.56029 -5.297025,-2.662315 -8.574062,-1.7838 -1.554626,0.416765 -3.171851,3.01139 -10.470601,16.798719 -1.273825,2.40625 -2.561737,4.375 -2.862031,4.375 -0.300293,0 -1.751944,-2.255297 -3.225894,-5.011772 C 62.325402,32.446212 61.58995,31.289574 59.750486,30.63994 56.242012,29.400871 51.25,30.283172 51.25,32.142338 c 0,0.865242 1.460717,3.785444 7.213122,14.420162 4.65764,8.610781 4.452803,7.386372 2.021328,12.082264 -5.426963,10.481061 -7.138459,13.65003 -8.148765,15.088055 -1.529055,2.176387 -1.392249,4.309237 0.320565,4.997706 2.033239,0.817262 5.542919,0.747088 7.301418,-0.145988 z M 184.21875,75.836075 c 0.42969,-0.173381 1.13281,-0.173381 1.5625,0 0.42969,0.173381 0.0781,0.315244 -0.78125,0.315244 -0.85938,0 -1.21094,-0.141863 -0.78125,-0.315244 z M 355.07394,64.568138 c 0.0437,-6.204802 0.26927,-9.738044 0.55106,-8.630638 0.72724,2.858034 0.72724,18.300538 0,18.75 -0.40828,0.252331 -0.59936,-3.256544 -0.55106,-10.119362 z M 215.25299,64.6875 c 6.3e-4,-5.5 0.0964,-7.666333 0.21248,-4.814074 0.11607,2.852262 0.11542,7.352261 -0.001,9.999999 -0.11686,2.647744 -0.21183,0.314075 -0.21104,-5.185925 z m 35.62644,-0.3125 c 0,-5.671875 0.0947,-7.992188 0.21056,-5.15625 0.11581,2.835937 0.11581,7.476562 0,10.3125 -0.11581,2.835937 -0.21056,0.515625 -0.21056,-5.15625 z m 32.04803,8.687113 c -0.2185,-0.835544 -0.62097,-1.141288 -1.10696,-0.840932 -0.48814,0.301688 -0.60275,0.211638 -0.31768,-0.249612 0.81688,-1.32175 2.24718,-0.786507 2.24718,0.840931 0,1.906469 -0.36064,2.015912 -0.82254,0.249612 z M 289.63204,63.75 c 0,-6.015625 0.0937,-8.476563 0.20832,-5.46875 0.11456,3.007812 0.11456,7.929687 0,10.9375 -0.11458,3.007812 -0.20832,0.546875 -0.20832,-5.46875 z m 36.26393,-4.6875 c -3.8e-4,-8.59375 0.0876,-12.196061 0.19561,-8.005134 0.10797,4.190925 0.10828,11.222175 6.3e-4,15.624996 -0.10752,4.402826 -0.19586,0.973888 -0.19624,-7.619862 z m 7.5,0 c -3.8e-4,-8.59375 0.0876,-12.196061 0.19561,-8.005134 0.10797,4.190925 0.10828,11.222175 6.3e-4,15.624996 -0.10752,4.402826 -0.19586,0.973888 -0.19624,-7.619862 z m 6.22899,6.25 c 6.3e-4,-5.15625 0.0977,-7.182458 0.21512,-4.502684 0.11744,2.679771 0.11673,6.898521 -0.002,9.375003 -0.11832,2.476475 -0.2144,0.283931 -0.21353,-4.872319 z M 279.375,69.744412 c 0,-0.118993 0.42187,-0.566481 0.9375,-0.994412 0.54037,-0.448469 0.9375,-0.509213 0.9375,-0.143394 0,0.349063 -0.42188,0.796544 -0.9375,0.994413 -0.51563,0.197862 -0.9375,0.262387 -0.9375,0.143393 z M 175.12184,66.5625 c 0.0128,-1.03125 0.15282,-1.377463 0.31128,-0.769356 0.15846,0.608106 0.14804,1.451856 -0.0232,1.875 -0.17121,0.423144 -0.30086,-0.07439 -0.28812,-1.105644 z M 181.395,65.625 c 0,-1.203125 0.12863,-1.695313 0.28583,-1.09375 0.1572,0.601562 0.1572,1.585937 0,2.1875 -0.1572,0.601562 -0.28583,0.109375 -0.28583,-1.09375 z m 101.82364,-3.24581 c -0.053,-0.952545 -0.69666,-2.105686 -1.48271,-2.65625 l -1.38906,-0.97294 1.40868,0 c 1.64337,0 2.19282,1.067696 1.82221,3.540954 l -0.26547,1.771546 -0.0937,-1.68331 z M 194.0625,59.375 c -1.19273,-0.512531 -1.18556,-0.539156 0.15625,-0.581072 0.77344,-0.02416 1.40625,0.237322 1.40625,0.581072 0,0.34375 -0.0703,0.605232 -0.15625,0.581072 -0.0859,-0.02416 -0.71875,-0.285643 -1.40625,-0.581072 z m 89.11184,-5.989583 c 0.03,-0.728089 0.17809,-0.876188 0.3776,-0.377605 0.18055,0.451172 0.15835,0.990235 -0.0493,1.197917 -0.20768,0.207682 -0.3554,-0.161458 -0.32826,-0.820312 z M 216.875,50.389028 c 0,-0.129785 0.49219,-0.621972 1.09375,-1.09375 0.99129,-0.777419 1.01339,-0.755313 0.23597,0.235972 -0.81648,1.041092 -1.32972,1.372174 -1.32972,0.857778 z m -38.75,-2.852142 c 0,-3.41475 0.92355,-3.682837 0.99743,-0.289534 C 179.15539,48.761309 178.94446,50 178.65368,50 178.36291,50 178.125,48.891599 178.125,47.536886 Z M 238.75,49.375 c 0,-0.34375 0.29785,-0.625 0.66189,-0.625 0.36403,0 0.48806,0.28125 0.27561,0.625 C 239.47505,49.71875 239.1772,50 239.02561,50 238.87403,50 238.75,49.71875 238.75,49.375 Z m -82.5,-0.245632 c 0,-0.135097 0.43648,-0.413126 0.96996,-0.617841 0.5562,-0.213435 0.80708,-0.108656 0.58811,0.245632 -0.36703,0.593877 -1.55807,0.878405 -1.55807,0.372209 z m 59.16124,-1.426457 c -0.22618,-0.226185 -0.38903,-1.278432 -0.3619,-2.338328 0.0271,-1.059896 0.20012,-1.505208 0.3844,-0.989583 0.18428,0.515625 0.72769,1.252036 1.20758,1.63647 0.73211,0.586475 0.73644,0.811929 0.0269,1.400828 -0.46513,0.386021 -1.03074,0.516797 -1.25693,0.290613 z m 6.6319,-0.63603 c 0.60811,-0.158465 1.45186,-0.148043 1.875,0.02316 0.42315,0.171202 -0.0744,0.300855 -1.10564,0.288117 -1.03125,-0.01274 -1.37746,-0.152811 -0.76936,-0.311276 z m 21.25,0 c 0.60811,-0.158465 1.45186,-0.148043 1.875,0.02316 0.42315,0.171202 -0.0744,0.300855 -1.10564,0.288117 -1.03125,-0.01274 -1.37746,-0.152811 -0.76936,-0.311276 z m 96.12148,-1.598131 c 0.0359,-1.843701 0.0918,-1.901409 0.60485,-0.625 0.31089,0.773437 0.85556,1.40625 1.21039,1.40625 0.35483,0 0.64514,0.28125 0.64514,0.625 0,0.34375 -0.5625,0.625 -1.25,0.625 -1.00172,0 -1.24213,-0.403461 -1.21038,-2.03125 z m 7.62852,1.598131 c 0.60811,-0.158465 1.45186,-0.148044 1.875,0.02316 0.42315,0.171202 -0.0744,0.300855 -1.10564,0.288117 -1.03125,-0.01274 -1.37746,-0.152811 -0.76936,-0.311276 z M 238.125,45.625 c 0,-0.34375 0.29785,-0.625 0.66189,-0.625 0.36403,0 0.48806,0.28125 0.27561,0.625 -0.21245,0.34375 -0.5103,0.625 -0.66189,0.625 -0.15158,0 -0.27561,-0.28125 -0.27561,-0.625 z M 232.8125,45 c -0.21245,-0.34375 -0.0884,-0.625 0.27561,-0.625 0.36404,0 0.66189,0.28125 0.66189,0.625 0,0.34375 -0.12403,0.625 -0.27561,0.625 -0.15159,0 -0.44944,-0.28125 -0.66189,-0.625 z m -44.21146,-2.942038 c 0.77744,-0.149496 1.90244,-0.14382 2.5,0.01261 0.59755,0.156433 -0.0386,0.278748 -1.41354,0.271811 -1.375,-0.0069 -1.86391,-0.134928 -1.08646,-0.284424 z m 37.1921,0.0089 c 0.60811,-0.158465 1.45186,-0.148044 1.875,0.02316 0.42315,0.171202 -0.0744,0.300855 -1.10564,0.288117 -1.03125,-0.01274 -1.37746,-0.152811 -0.76936,-0.311276 z m 20.625,0 c 0.60811,-0.158465 1.45186,-0.148044 1.875,0.02316 0.42315,0.171202 -0.0744,0.300855 -1.10564,0.288117 -1.03125,-0.01274 -1.37746,-0.152811 -0.76936,-0.311276 z m 29.98811,0.0023 c 0.60156,-0.157204 1.58594,-0.157204 2.1875,0 0.60156,0.157205 0.10937,0.285827 -1.09375,0.285827 -1.20313,0 -1.69531,-0.128622 -1.09375,-0.285827 z m 73.75,0 c 0.60156,-0.157204 1.58594,-0.157204 2.1875,0 0.60156,0.157205 0.10937,0.285827 -1.09375,0.285827 -1.20313,0 -1.69531,-0.128622 -1.09375,-0.285827 z M 140.625,34.21875 c 0,-0.257813 1.81152,-0.46875 4.02561,-0.46875 2.21409,0 4.15598,0.210937 4.31532,0.46875 0.15934,0.257812 -1.65219,0.46875 -4.02561,0.46875 -2.37343,0 -4.31532,-0.210938 -4.31532,-0.46875 z m 24.78407,0 c 0.15934,-0.257813 1.81998,-0.46875 3.69032,-0.46875 1.87033,0 3.40061,0.210937 3.40061,0.46875 0,0.257812 -1.66064,0.46875 -3.69032,0.46875 -2.02967,0 -3.55995,-0.210938 -3.40061,-0.46875 z"
       id="path3540"
       inkscape:connector-curvature="0" />
    <path
       style="fill:#3b86b6"
       d="m 184.21875,75.836075 c 0.42969,-0.173381 1.13281,-0.173381 1.5625,0 0.42969,0.173381 0.0781,0.315244 -0.78125,0.315244 -0.85938,0 -1.21094,-0.141863 -0.78125,-0.315244 z M 355.07394,64.568138 c 0.0437,-6.204802 0.26927,-9.738044 0.55106,-8.630638 0.72724,2.858034 0.72724,18.300538 0,18.75 -0.40828,0.252331 -0.59936,-3.256544 -0.55106,-10.119362 z M 215.25299,64.6875 c 6.3e-4,-5.5 0.0964,-7.666333 0.21248,-4.814074 0.11607,2.852262 0.11542,7.352261 -0.001,9.999999 -0.11686,2.647744 -0.21183,0.314075 -0.21104,-5.185925 z m 35.62644,-0.3125 c 0,-5.671875 0.0947,-7.992188 0.21056,-5.15625 0.11581,2.835937 0.11581,7.476562 0,10.3125 -0.11581,2.835937 -0.21056,0.515625 -0.21056,-5.15625 z m 32.04803,8.687113 c -0.2185,-0.835544 -0.62097,-1.141288 -1.10696,-0.840932 -0.48814,0.301688 -0.60275,0.211638 -0.31768,-0.249612 0.81688,-1.32175 2.24718,-0.786507 2.24718,0.840931 0,1.906469 -0.36064,2.015912 -0.82254,0.249612 z M 289.63204,63.75 c 0,-6.015625 0.0937,-8.476563 0.20832,-5.46875 0.11456,3.007812 0.11456,7.929687 0,10.9375 -0.11458,3.007812 -0.20832,0.546875 -0.20832,-5.46875 z m 36.26393,-4.6875 c -3.8e-4,-8.59375 0.0876,-12.196061 0.19561,-8.005134 0.10797,4.190925 0.10828,11.222175 6.3e-4,15.624996 -0.10752,4.402826 -0.19586,0.973888 -0.19624,-7.619862 z m 7.5,0 c -3.8e-4,-8.59375 0.0876,-12.196061 0.19561,-8.005134 0.10797,4.190925 0.10828,11.222175 6.3e-4,15.624996 -0.10752,4.402826 -0.19586,0.973888 -0.19624,-7.619862 z m 6.22899,6.25 c 6.3e-4,-5.15625 0.0977,-7.182458 0.21512,-4.502684 0.11744,2.679771 0.11673,6.898521 -0.002,9.375003 -0.11832,2.476475 -0.2144,0.283931 -0.21353,-4.872319 z M 279.375,69.744412 c 0,-0.118993 0.42187,-0.566481 0.9375,-0.994412 0.54037,-0.448469 0.9375,-0.509213 0.9375,-0.143394 0,0.349063 -0.42188,0.796544 -0.9375,0.994413 -0.51563,0.197862 -0.9375,0.262387 -0.9375,0.143393 z M 175.12184,66.5625 c 0.0128,-1.03125 0.15282,-1.377463 0.31128,-0.769356 0.15846,0.608106 0.14804,1.451856 -0.0232,1.875 -0.17121,0.423144 -0.30086,-0.07439 -0.28812,-1.105644 z M 181.395,65.625 c 0,-1.203125 0.12863,-1.695313 0.28583,-1.09375 0.1572,0.601562 0.1572,1.585937 0,2.1875 -0.1572,0.601562 -0.28583,0.109375 -0.28583,-1.09375 z m 101.82364,-3.24581 c -0.053,-0.952545 -0.69666,-2.105686 -1.48271,-2.65625 l -1.38906,-0.97294 1.40868,0 c 1.64337,0 2.19282,1.067696 1.82221,3.540954 l -0.26547,1.771546 -0.0937,-1.68331 z M 194.0625,59.375 c -1.19273,-0.512531 -1.18556,-0.539156 0.15625,-0.581072 0.77344,-0.02416 1.40625,0.237322 1.40625,0.581072 0,0.34375 -0.0703,0.605232 -0.15625,0.581072 -0.0859,-0.02416 -0.71875,-0.285643 -1.40625,-0.581072 z m 89.11184,-5.989583 c 0.03,-0.728089 0.17809,-0.876188 0.3776,-0.377605 0.18055,0.451172 0.15835,0.990235 -0.0493,1.197917 -0.20768,0.207682 -0.3554,-0.161458 -0.32826,-0.820312 z M 216.875,50.389028 c 0,-0.129785 0.49219,-0.621972 1.09375,-1.09375 0.99129,-0.777419 1.01339,-0.755313 0.23597,0.235972 -0.81648,1.041092 -1.32972,1.372174 -1.32972,0.857778 z m -38.75,-2.852142 c 0,-3.41475 0.92355,-3.682837 0.99743,-0.289534 C 179.15539,48.761309 178.94446,50 178.65368,50 178.36291,50 178.125,48.891599 178.125,47.536886 Z M 238.75,49.375 c 0,-0.34375 0.29785,-0.625 0.66189,-0.625 0.36403,0 0.48806,0.28125 0.27561,0.625 C 239.47505,49.71875 239.1772,50 239.02561,50 238.87403,50 238.75,49.71875 238.75,49.375 Z m -82.5,-0.245632 c 0,-0.135097 0.43648,-0.413126 0.96996,-0.617841 0.5562,-0.213435 0.80708,-0.108656 0.58811,0.245632 -0.36703,0.593877 -1.55807,0.878405 -1.55807,0.372209 z m 59.16124,-1.426457 c -0.22618,-0.226185 -0.38903,-1.278432 -0.3619,-2.338328 0.0271,-1.059896 0.20012,-1.505208 0.3844,-0.989583 0.18428,0.515625 0.72769,1.252036 1.20758,1.63647 0.73211,0.586475 0.73644,0.811929 0.0269,1.400828 -0.46513,0.386021 -1.03074,0.516797 -1.25693,0.290613 z m 6.6319,-0.63603 c 0.60811,-0.158465 1.45186,-0.148043 1.875,0.02316 0.42315,0.171202 -0.0744,0.300855 -1.10564,0.288117 -1.03125,-0.01274 -1.37746,-0.152811 -0.76936,-0.311276 z m 21.25,0 c 0.60811,-0.158465 1.45186,-0.148043 1.875,0.02316 0.42315,0.171202 -0.0744,0.300855 -1.10564,0.288117 -1.03125,-0.01274 -1.37746,-0.152811 -0.76936,-0.311276 z m 96.12148,-1.598131 c 0.0359,-1.843701 0.0918,-1.901409 0.60485,-0.625 0.31089,0.773437 0.85556,1.40625 1.21039,1.40625 0.35483,0 0.64514,0.28125 0.64514,0.625 0,0.34375 -0.5625,0.625 -1.25,0.625 -1.00172,0 -1.24213,-0.403461 -1.21038,-2.03125 z m 7.62852,1.598131 c 0.60811,-0.158465 1.45186,-0.148044 1.875,0.02316 0.42315,0.171202 -0.0744,0.300855 -1.10564,0.288117 -1.03125,-0.01274 -1.37746,-0.152811 -0.76936,-0.311276 z M 238.125,45.625 c 0,-0.34375 0.29785,-0.625 0.66189,-0.625 0.36403,0 0.48806,0.28125 0.27561,0.625 -0.21245,0.34375 -0.5103,0.625 -0.66189,0.625 -0.15158,0 -0.27561,-0.28125 -0.27561,-0.625 z M 232.8125,45 c -0.21245,-0.34375 -0.0884,-0.625 0.27561,-0.625 0.36404,0 0.66189,0.28125 0.66189,0.625 0,0.34375 -0.12403,0.625 -0.27561,0.625 -0.15159,0 -0.44944,-0.28125 -0.66189,-0.625 z m -44.21146,-2.942038 c 0.77744,-0.149496 1.90244,-0.14382 2.5,0.01261 0.59755,0.156433 -0.0386,0.278748 -1.41354,0.271811 -1.375,-0.0069 -1.86391,-0.134928 -1.08646,-0.284424 z m 37.1921,0.0089 c 0.60811,-0.158465 1.45186,-0.148044 1.875,0.02316 0.42315,0.171202 -0.0744,0.300855 -1.10564,0.288117 -1.03125,-0.01274 -1.37746,-0.152811 -0.76936,-0.311276 z m 20.625,0 c 0.60811,-0.158465 1.45186,-0.148044 1.875,0.02316 0.42315,0.171202 -0.0744,0.300855 -1.10564,0.288117 -1.03125,-0.01274 -1.37746,-0.152811 -0.76936,-0.311276 z m 29.98811,0.0023 c 0.60156,-0.157204 1.58594,-0.157204 2.1875,0 0.60156,0.157205 0.10937,0.285827 -1.09375,0.285827 -1.20313,0 -1.69531,-0.128622 -1.09375,-0.285827 z m 73.75,0 c 0.60156,-0.157204 1.58594,-0.157204 2.1875,0 0.60156,0.157205 0.10937,0.285827 -1.09375,0.285827 -1.20313,0 -1.69531,-0.128622 -1.09375,-0.285827 z M 140.625,34.21875 c 0,-0.257813 1.81152,-0.46875 4.02561,-0.46875 2.21409,0 4.15598,0.210937 4.31532,0.46875 0.15934,0.257812 -1.65219,0.46875 -4.02561,0.46875 -2.37343,0 -4.31532,-0.210938 -4.31532,-0.46875 z m 24.78407,0 c 0.15934,-0.257813 1.81998,-0.46875 3.69032,-0.46875 1.87033,0 3.40061,0.210937 3.40061,0.46875 0,0.257812 -1.66064,0.46875 -3.69032,0.46875 -2.02967,0 -3.55995,-0.210938 -3.40061,-0.46875 z"
       id="path3538"
       inkscape:connector-curvature="0" />
  </g>
</svg>
