<?xml version="1.0" encoding="UTF-8" standalone="no"?>
<!-- Created with Inkscape (http://www.inkscape.org/) -->

<svg
   xmlns:dc="http://purl.org/dc/elements/1.1/"
   xmlns:cc="http://creativecommons.org/ns#"
   xmlns:rdf="http://www.w3.org/1999/02/22-rdf-syntax-ns#"
   xmlns:svg="http://www.w3.org/2000/svg"
   xmlns="http://www.w3.org/2000/svg"
   xmlns:xlink="http://www.w3.org/1999/xlink"
   xmlns:sodipodi="http://sodipodi.sourceforge.net/DTD/sodipodi-0.dtd"
   xmlns:inkscape="http://www.inkscape.org/namespaces/inkscape"
   id="svg3720"
   version="1.1"
   inkscape:version="0.91 r13725"
   width="56.25"
   height="56.25"
   viewBox="0 0 56.25 56.25"
   sodipodi:docname="Android.svg">
  <metadata
     id="metadata3726">
    <rdf:RDF>
      <cc:Work
         rdf:about="">
        <dc:format>image/svg+xml</dc:format>
        <dc:type
           rdf:resource="http://purl.org/dc/dcmitype/StillImage" />
        <dc:title></dc:title>
      </cc:Work>
    </rdf:RDF>
  </metadata>
  <defs
     id="defs3724" />
  <sodipodi:namedview
     pagecolor="#ffffff"
     bordercolor="#666666"
     borderopacity="1"
     objecttolerance="10"
     gridtolerance="10"
     guidetolerance="10"
     inkscape:pageopacity="0"
     inkscape:pageshadow="2"
     inkscape:window-width="640"
     inkscape:window-height="480"
     id="namedview3722"
     showgrid="false"
     inkscape:zoom="5.2622222"
     inkscape:cx="28.125"
     inkscape:cy="28.125"
     inkscape:window-x="0"
     inkscape:window-y="0"
     inkscape:window-maximized="0"
     inkscape:current-layer="svg3720" />
  <image
     width="56.25"
     height="56.25"
     preserveAspectRatio="none"
     style="image-rendering:optimizeQuality"
     xlink:href="file:///media/havoc/USB%20DISK/pics/_smallLogos/Android.png"
     id="image3728"
     x="0"
     y="0"
     sodipodi:absref="/media/havoc/USB DISK/pics/_smallLogos/Android.png" />
  <g
     id="g4341">
    <path
       style="fill:#fcfdfc"
       d="M 0,28.125 0,0 28.125,0 56.25,0 l 0,28.125 0,28.125 -28.125,0 L 0,56.25 0,28.125 Z"
       id="path4357"
       inkscape:connector-curvature="0" />
    <path
       style="fill:#e4edd5"
       d="M 19.653119,52.864646 C 18.75355,52.206866 18.36138,50.971309 18.127413,48.057812 17.820907,44.241028 17.757611,44.122184 15.756554,43.606397 13.466123,43.016021 12.5,41.274558 12.5,37.736373 c 0,-2.130256 -0.0331,-2.15907 -1.389066,-1.209313 C 9.2413825,37.836545 7.7516331,37.751633 6.25,36.25 5.1287668,35.128767 5,34.166667 5,26.91044 c 0,-7.651011 0.075304,-8.142305 1.3890662,-9.0625 1.7616669,-1.233919 3.8563788,-1.245854 4.8673298,-0.02773 1.119518,1.348936 2.599145,0.0054 2.115638,-1.921029 -0.587974,-2.342675 0.87956,-5.642236 3.604354,-8.1039231 1.85014,-1.671492 2.345504,-2.4733648 1.840137,-2.9787317 C 17.832189,3.8321894 17.955084,1.25 18.986267,1.25 c 0.473697,0 1.272275,0.6190103 1.774618,1.3755784 0.829006,1.2485505 1.449961,1.3787512 6.724287,1.4099366 5.360387,0.031694 5.882567,-0.074962 6.734764,-1.3755784 0.981031,-1.4972425 2.31768,-1.8364716 2.984551,-0.7574515 0.221792,0.3588667 -0.02472,1.3056555 -0.547795,2.103975 -0.901455,1.375794 -0.836295,1.5617765 1.249452,3.5662649 2.895537,2.782729 4.039943,5.078159 3.860459,7.743243 -0.178659,2.652835 0.804306,3.91725 1.961413,2.523021 1.1419,-1.375906 3.997808,-1.190687 5.393866,0.349817 0.980719,1.08219 1.226588,2.487035 1.394653,7.96875 0.228827,7.463558 -0.354571,9.760678 -2.756903,10.855253 -1.350589,0.61537 -1.960224,0.563929 -3.450048,-0.291113 L 42.5,35.683138 l 0,2.783431 c 0,3.0366 -1.562779,5.283431 -3.674881,5.283431 -0.988339,0 -1.217679,0.591687 -1.444437,3.726579 C 37.071548,51.750316 35.715028,53.75 33.125,53.75 30.588001,53.75 29.312496,51.867916 28.920614,47.546174 28.633915,44.384403 28.382,43.75 27.413194,43.75 26.432015,43.75 26.25,44.245425 26.25,46.916088 c 0,5.824906 -3.029754,8.556905 -6.596881,5.948558 z"
       id="path4355"
       inkscape:connector-curvature="0" />
    <path
       style="fill:#dbe8c7"
       d="M 19.354121,52.162341 C 18.914706,51.632879 18.388081,49.453192 18.183842,47.318591 17.844107,43.767844 17.679506,43.420438 16.25,43.237037 13.867492,42.93137 13.125239,41.430115 13.122664,36.911794 L 13.120328,32.8125 11.88185,34.84375 C 10.42321,37.236094 8.1732131,37.548213 6.25,35.625 5.147787,34.522787 5,33.541667 5,27.326566 c 0,-5.36784 0.2319829,-7.379635 0.97294,-8.4375 1.3794106,-1.969384 4.202577,-1.845153 5.856697,0.257721 1.235582,1.570787 1.295363,1.584495 1.295363,0.297031 0,-2.160524 2.347465,-2.568818 14.769276,-2.568818 11.711948,0 13.980724,0.376233 13.980724,2.318436 0,0.852927 0.242199,0.796922 1.446532,-0.33449 1.885374,-1.771217 4.453318,-1.75766 5.705528,0.03012 C 49.765207,19.942919 50,21.945525 50,27.1875 c 0,5.241975 -0.234793,7.244581 -0.97294,8.298434 -1.214728,1.734267 -3.618512,1.797613 -5.27706,0.139066 -0.6875,-0.6875 -1.390625,-1.25 -1.5625,-1.25 -0.171875,0 -0.3125,1.653062 -0.3125,3.673472 0,3.918779 -0.541754,4.815559 -3.125,5.172892 -1.430669,0.1979 -1.588866,0.537724 -1.875,4.027704 -0.360673,4.399126 -1.313492,5.875932 -3.791088,5.875932 -2.458159,0 -3.708912,-2.036756 -3.708912,-6.039681 0,-3.493345 -0.534791,-4.271552 -2.505593,-3.646044 -1.056077,0.335186 -1.244407,0.949359 -1.244407,4.058199 0,2.496885 -0.312709,3.975949 -0.982143,4.645383 -1.256203,1.256204 -4.253188,1.267245 -5.288736,0.01948 z m -5.792965,-36.75297 c -0.527265,-1.37403 1.724272,-5.5723748 4.167431,-7.7708298 2.183053,-1.9644016 2.236816,-2.1103221 1.302757,-3.5358759 -1.337533,-2.0413338 0.01819,-2.8100885 1.540988,-0.8738067 1.059044,1.3466065 1.585795,1.4544206 6.858052,1.4036891 4.956736,-0.047696 5.901652,-0.2341553 7.155374,-1.4119665 1.731306,-1.6264777 2.470008,-1.1761363 1.513672,0.9227934 -0.611891,1.3429545 -0.434241,1.7876898 1.535445,3.8438941 2.628602,2.7440623 4.467438,6.1438753 3.992462,7.3816423 -0.487613,1.270698 -27.579107,1.309753 -28.066181,0.04046 z M 22.1875,10.625 C 22.399949,10.28125 22.275922,10 21.911886,10 21.547849,10 21.25,10.28125 21.25,10.625 c 0,0.34375 0.124026,0.625 0.275614,0.625 0.151589,0 0.449437,-0.28125 0.661886,-0.625 z m 11.875,0 C 34.274949,10.28125 34.150922,10 33.786886,10 33.422849,10 33.125,10.28125 33.125,10.625 c 0,0.34375 0.124026,0.625 0.275614,0.625 0.151589,0 0.449437,-0.28125 0.661886,-0.625 z"
       id="path4353"
       inkscape:connector-curvature="0" />
    <path
       style="fill:#ccdead"
       d="M 19.819923,52.021326 C 19.201132,51.337569 18.748135,49.496053 18.629306,47.181248 18.444474,43.580702 18.369936,43.43323 16.579354,43.125453 13.591118,42.611816 13.144543,40.884856 13.134214,29.802662 13.128964,24.164939 13.402986,19.398403 13.77199,18.708912 14.380646,17.571626 15.209871,17.5 27.767622,17.5 c 11.595659,0 13.398462,0.129828 13.72801,0.988617 0.208652,0.54374 0.379368,5.843899 0.379368,11.778133 0,9.658963 -0.119763,10.897899 -1.142963,11.823882 -0.628629,0.568903 -1.723539,1.034368 -2.433132,1.034368 -1.593817,0 -2.048905,1.112002 -2.048905,5.006474 0,3.242258 -1.095961,4.993526 -3.125,4.993526 -2.071348,0 -3.124358,-1.747159 -3.134571,-5.200893 -0.01156,-3.909895 -0.592725,-4.975855 -2.56111,-4.697539 -1.344655,0.190124 -1.522647,0.586934 -1.804319,4.0225 -0.171875,2.096362 -0.6985,4.27605 -1.170278,4.84375 -1.122657,1.350916 -3.379035,1.316112 -4.634799,-0.07149 z M 7.0140662,35.90206 C 5.7067884,34.986407 5.625,34.476909 5.625,27.248927 c 0,-6.833809 0.1349789,-7.802347 1.2248156,-8.788636 1.6384713,-1.482796 4.2474494,-0.818389 5.0472904,1.285352 0.331592,0.872153 0.602894,4.392706 0.602894,7.823453 0,5.789433 -0.110251,6.347973 -1.534091,7.771813 C 9.16294,37.143878 8.8503763,37.188261 7.0140662,35.90206 Z M 44.288048,35.680267 C 42.982961,34.623472 42.787053,33.863068 42.591199,29.094058 42.250145,20.789424 43.288207,17.5 46.25,17.5 c 2.635061,0 3.125,1.520253 3.125,9.696703 0,7.28195 -0.08092,7.789098 -1.389066,8.705357 -1.758331,1.231583 -1.91462,1.222209 -3.697886,-0.221793 z M 13.971709,15.301275 c -0.581896,-1.516399 1.043567,-4.644546 3.77946,-7.2734375 2.279996,-2.1908249 2.450853,-2.5608194 1.721703,-3.7283751 -1.061393,-1.6995587 -0.26189,-2.4740741 0.905659,-0.8773551 0.790511,1.0810877 1.675466,1.2368961 7.197636,1.2672423 5.577127,0.030648 6.394753,-0.105952 7.158194,-1.1959169 1.110539,-1.5855171 1.85323,-0.8920404 0.818722,0.7644702 -0.69913,1.119485 -0.4707,1.5586598 2.120706,4.0772177 2.892909,2.8115854 4.03574,5.1908774 3.350731,6.9759824 -0.542728,1.414326 -26.509932,1.404892 -27.052811,-0.0098 z M 22.5,10.729167 C 22.5,9.9153706 21.757017,9.3741462 21.15263,9.7476781 20.506243,10.147167 21.063602,11.25 21.911886,11.25 22.235349,11.25 22.5,11.015625 22.5,10.729167 Z m 11.875,0 C 34.375,9.9153706 33.632017,9.3741462 33.02763,9.7476781 32.381243,10.147167 32.938602,11.25 33.786886,11.25 34.110349,11.25 34.375,11.015625 34.375,10.729167 Z"
       id="path4351"
       inkscape:connector-curvature="0" />
    <path
       style="fill:#b6d289"
       d="M 19.72294,51.110934 C 19.145289,50.286221 18.75,48.401946 18.75,46.473093 c 0,-3.084546 -0.0926,-3.269112 -1.831814,-3.651108 -1.007497,-0.221283 -2.139123,-0.772619 -2.514724,-1.225191 -0.452531,-0.545266 -0.625233,-4.590452 -0.511936,-11.991076 L 14.0625,18.4375 27.669788,18.269023 41.277077,18.100547 41.107288,30.121049 40.9375,42.141551 38.59375,42.695363 36.25,43.249174 l 0,3.416502 C 36.25,51.055255 35.476161,52.5 33.125,52.5 30.775216,52.5 30,51.055364 30,46.676483 30,43.711512 29.825164,43.225069 28.648954,42.917483 26.007385,42.226697 25,43.463377 25,47.39699 25,49.378646 24.6625,51.3375 24.25,51.75 23.056687,52.943313 20.781418,52.622123 19.72294,51.110934 Z M 6.6593675,35.107037 C 5.8320693,34.192883 5.625,32.620679 5.625,27.253449 5.625,19.574193 6.1211116,18.125 8.75,18.125 c 2.637742,0 3.125,1.448407 3.125,9.289269 0,5.413435 -0.208395,7.07984 -0.982143,7.853588 -1.304942,1.304942 -2.9640295,1.241918 -4.2334895,-0.16082 z m 37.4477755,0.16082 C 43.333395,34.494109 43.125,32.827704 43.125,27.414269 c 0,-7.840862 0.487258,-9.289269 3.125,-9.289269 2.637742,0 3.125,1.448407 3.125,9.289269 0,7.262005 -0.556592,8.835731 -3.125,8.835731 -0.638393,0 -1.602679,-0.441964 -2.142857,-0.982143 z M 14.141973,15.12859 C 13.471172,14.043211 16.234966,9.4919438 18.797194,7.4626219 21.463369,5.3509716 21.619087,5.3125 27.5,5.3125 c 5.854627,0 6.047207,0.046849 8.642672,2.1024944 2.706859,2.1438725 5.455394,6.5161866 4.78158,7.6064406 -0.450598,0.729084 -26.333903,0.832643 -26.782279,0.107155 z M 22.8125,10.581476 c 0,-0.482272 -0.492188,-0.9716441 -1.09375,-1.0874941 -1.077336,-0.2074763 -1.522714,1.1187201 -0.664063,1.9773721 0.65513,0.65513 1.757813,0.0969 1.757813,-0.889878 z m 11.875,0 c 0,-0.482272 -0.492188,-0.9716441 -1.09375,-1.0874941 -1.077336,-0.2074763 -1.522714,1.1187201 -0.664063,1.9773721 0.65513,0.65513 1.757813,0.0969 1.757813,-0.889878 z"
       id="path4349"
       inkscape:connector-curvature="0" />
    <path
       style="fill:#a8c970"
       d="M 20.357143,51.517857 C 19.684006,50.844721 19.375,49.363747 19.375,46.810742 c 0,-2.434948 -0.270561,-3.808326 -0.78125,-3.965656 -0.429688,-0.132375 -1.554688,-0.410157 -2.5,-0.617292 l -1.71875,-0.376609 0,-11.875522 0,-11.875522 13.28125,0.168679 13.28125,0.16868 0.171066,10.794654 C 41.298251,41.201709 41.005316,42.5 38.114918,42.5 c -2.059059,0 -2.361644,0.673422 -2.639097,5.873479 -0.30607,5.736403 -4.395572,5.736403 -4.701642,0 -0.296793,-5.562537 -0.519655,-5.971038 -3.138991,-5.753702 L 25.3125,42.8125 25,46.624067 c -0.433486,5.28723 -2.291248,7.245399 -4.642857,4.89379 z M 6.5583994,34.256749 c -0.19772,-0.794337 -0.2776825,-4.508048 -0.177695,-8.252691 0.1516368,-5.678956 0.3632431,-6.922637 1.2755456,-7.496803 0.7965613,-0.501323 1.3909388,-0.5009 2.1875,0.0016 0.949423,0.598881 1.09375,1.753075 1.09375,8.746804 l 0,8.056879 -2.009805,0.194249 c -1.6601019,0.160451 -2.0723563,-0.05705 -2.3692956,-1.25 z m 37.4789316,0.590535 c -0.18099,-0.471655 -0.249369,-4.186144 -0.151953,-8.254421 0.149508,-6.243635 0.347646,-7.504217 1.270872,-8.085418 0.796711,-0.501555 1.390789,-0.501184 2.1875,0.0014 0.949423,0.598881 1.09375,1.753074 1.09375,8.746803 l 0,8.056877 -2.035547,0.196169 c -1.296227,0.12492 -2.155068,-0.115298 -2.364622,-0.661385 z M 14.622663,14.743911 C 14.072803,13.310998 16.025804,10.267398 19.124365,7.7283613 21.985856,5.3835841 22.079253,5.3571429 27.5,5.3571429 c 5.420748,0 5.514144,0.026441 8.375635,2.3712183 3.098561,2.5390368 5.051562,5.5826368 4.501702,7.0155498 -0.500156,1.303384 -25.254518,1.303384 -25.754674,0 z M 23.125,10.605384 C 23.125,9.131265 21.472158,8.2778419 20.5,9.25 c -0.972158,0.972158 -0.118735,2.625 1.355384,2.625 0.859488,0 1.269616,-0.410128 1.269616,-1.269616 z m 11.875,0 C 35,9.131265 33.347158,8.2778419 32.375,9.25 31.402842,10.222158 32.256265,11.875 33.730384,11.875 34.589872,11.875 35,11.464872 35,10.605384 Z"
       id="path4347"
       inkscape:connector-curvature="0" />
    <path
       style="fill:#9ac159"
       d="m 20.337774,51.09375 c -0.136397,-0.429688 -0.361619,-2.398112 -0.500495,-4.374277 -0.138875,-1.976165 -0.426053,-3.76658 -0.638173,-3.9787 -0.21212,-0.212121 -1.314009,-0.57531 -2.44864,-0.807087 L 14.6875,41.512274 14.517151,30.131137 14.346802,18.75 27.5,18.75 l 13.153198,0 -0.170349,11.40625 -0.170349,11.40625 -1.673012,0.193351 c -2.366882,0.273541 -2.917697,1.220146 -3.135531,5.388573 -0.213811,4.091456 -1.439583,5.626759 -3.472707,4.349633 -0.826601,-0.519237 -1.138863,-1.70038 -1.278447,-4.835786 -0.171351,-3.848921 -0.298889,-4.177396 -1.764839,-4.545326 -0.869078,-0.218124 -2.262527,-0.08567 -3.096553,0.294333 -1.334691,0.608126 -1.516411,1.098339 -1.516411,4.090706 0,1.86988 -0.170716,3.844659 -0.379368,4.388399 -0.449246,1.170718 -3.300744,1.332371 -3.657858,0.207367 z M 6.89699,34.416088 C 6.5411456,33.751187 6.25,30.498322 6.25,27.1875 6.25,23.876677 6.5411456,20.623813 6.89699,19.958912 7.626165,18.596436 9.3738363,18.373836 10.5,19.5 c 1.031542,1.031542 1.031542,14.343458 0,15.375 -1.1261637,1.126164 -2.873835,0.903564 -3.60301,-0.458912 z m 37.5,0 C 44.041146,33.751187 43.75,30.498322 43.75,27.1875 c 0,-6.358618 0.590585,-8.4375 2.39699,-8.4375 2.174948,0 2.60301,1.312071 2.60301,7.978588 0,6.895954 -0.562153,8.896412 -2.5,8.896412 -0.663311,0 -1.497166,-0.54401 -1.85301,-1.208912 z M 15,13.635101 c 0,-0.816669 1.235312,-2.555582 3.075494,-4.3292804 2.453767,-2.3651175 3.666182,-3.0529606 5.997456,-3.402557 4.720546,-0.7078896 8.981141,0.07223 11.511367,2.1077427 2.58108,2.0764247 5.173444,5.6435467 4.680741,6.4407557 C 40.078702,14.753293 34.317827,15 27.463114,15 15.066947,15 15,14.992668 15,13.635101 Z M 23.4375,10.625 c 0,-1.171345 -0.373461,-1.615305 -1.491819,-1.7734325 -1.8123,-0.2562462 -2.707338,0.9752637 -1.859783,2.5589335 0.940504,1.75735 3.351602,1.192271 3.351602,-0.785501 z m 12.069177,0.198538 c 0.272059,-1.9110205 -1.92799,-3.0629399 -3.275773,-1.7151561 -1.183437,1.1834361 -1.219867,1.6526551 -0.206953,2.6655691 1.18018,1.18018 3.260218,0.612552 3.482726,-0.950413 z"
       id="path4345"
       inkscape:connector-curvature="0" />
    <path
       style="fill:#8fbb46"
       d="M 20.64699,50.666088 C 20.291146,50.001187 20,47.882985 20,45.958973 c 0,-2.253532 -0.277971,-3.58384 -0.78125,-3.738887 -0.429688,-0.132375 -1.554688,-0.410157 -2.5,-0.617292 L 15,41.226185 15,29.988092 15,18.75 l 12.514099,0 12.514099,0 -0.170349,11.40625 -0.170349,11.40625 -1.872969,0.212646 c -2.431959,0.276109 -2.793434,0.943601 -2.80496,5.179576 -0.0064,2.354424 -0.31951,3.774449 -0.947071,4.295278 -1.702094,1.412613 -2.739413,-0.314569 -2.941421,-4.897597 L 30.9375,42.1875 28.147665,41.988786 C 24.586209,41.735112 23.75,42.79306 23.75,47.552588 c 0,2.673049 -0.247073,3.658487 -0.988617,3.943044 -1.376357,0.528157 -1.390808,0.522488 -2.114393,-0.829544 z M 7.3180306,34.609697 C 7.0743637,34.366031 6.875,31.013604 6.875,27.159861 c 0,-5.465802 0.2061837,-7.177922 0.9375,-7.784861 0.7487969,-0.621446 1.1300344,-0.618266 1.8940356,0.0158 0.7781834,0.645835 0.9238534,2.145929 0.7812504,8.045278 -0.163323,6.756517 -0.262354,7.263887 -1.4510054,7.434038 -0.7016456,0.100438 -1.4750831,-0.01675 -1.71875,-0.260417 z m 37.5000004,0 C 44.574364,34.366031 44.375,31.013604 44.375,27.159861 c 0,-5.465802 0.206184,-7.177922 0.9375,-7.784861 0.748797,-0.621446 1.130034,-0.618266 1.894036,0.0158 0.778183,0.645835 0.923853,2.145929 0.78125,8.045278 -0.163323,6.756517 -0.262354,7.263887 -1.451005,7.434038 -0.701646,0.100438 -1.475084,-0.01675 -1.71875,-0.260417 z M 15.862066,12.65625 c 0.491791,-0.945312 1.57586,-2.355349 2.40904,-3.133415 L 19.785979,8.1081694 19.527267,9.8708863 C 19.21892,11.971792 20.628994,13.406334 22.438037,12.832166 25.13686,11.975593 24.586811,8.4720813 21.673362,7.9615987 20.427415,7.7432888 20.470831,7.6526525 22.1875,6.8882575 24.576852,5.8243316 30.377871,5.8112968 32.8125,6.8643825 l 1.875,0.8110219 -1.5625,0.4066694 C 30.580169,8.7444125 30.879322,13.125 33.469385,13.125 c 1.304741,0 2.904085,-1.960349 2.587385,-3.1714112 -0.499609,-1.9105057 1.151489,-0.6881288 2.634402,1.9503592 l 1.388809,2.471052 -12.55604,0 -12.556041,0 0.894166,-1.71875 z"
       id="path4343"
       inkscape:connector-curvature="0" />
  </g>
</svg>
