<?xml version="1.0" encoding="UTF-8" standalone="no"?>
<!-- Created with Inkscape (http://www.inkscape.org/) -->

<svg
   xmlns:dc="http://purl.org/dc/elements/1.1/"
   xmlns:cc="http://creativecommons.org/ns#"
   xmlns:rdf="http://www.w3.org/1999/02/22-rdf-syntax-ns#"
   xmlns:svg="http://www.w3.org/2000/svg"
   xmlns="http://www.w3.org/2000/svg"
   xmlns:xlink="http://www.w3.org/1999/xlink"
   xmlns:sodipodi="http://sodipodi.sourceforge.net/DTD/sodipodi-0.dtd"
   xmlns:inkscape="http://www.inkscape.org/namespaces/inkscape"
   id="svg3730"
   version="1.1"
   inkscape:version="0.91 r13725"
   width="56.25"
   height="56.25"
   viewBox="0 0 56.25 56.25"
   sodipodi:docname="Blackberry.svg">
  <metadata
     id="metadata3736">
    <rdf:RDF>
      <cc:Work
         rdf:about="">
        <dc:format>image/svg+xml</dc:format>
        <dc:type
           rdf:resource="http://purl.org/dc/dcmitype/StillImage" />
        <dc:title></dc:title>
      </cc:Work>
    </rdf:RDF>
  </metadata>
  <defs
     id="defs3734" />
  <sodipodi:namedview
     pagecolor="#ffffff"
     bordercolor="#666666"
     borderopacity="1"
     objecttolerance="10"
     gridtolerance="10"
     guidetolerance="10"
     inkscape:pageopacity="0"
     inkscape:pageshadow="2"
     inkscape:window-width="640"
     inkscape:window-height="480"
     id="namedview3732"
     showgrid="false"
     inkscape:zoom="4.1955556"
     inkscape:cx="28.125"
     inkscape:cy="28.125"
     inkscape:window-x="0"
     inkscape:window-y="0"
     inkscape:window-maximized="0"
     inkscape:current-layer="svg3730" />
  <image
     width="56.25"
     height="56.25"
     preserveAspectRatio="none"
     style="image-rendering:optimizeQuality"
     xlink:href="file:///media/havoc/USB%20DISK/pics/_smallLogos/Blackberry.png"
     id="image3738"
     x="0"
     y="0"
     sodipodi:absref="/media/havoc/USB DISK/pics/_smallLogos/Blackberry.png" />
  <g
     id="g4304">
    <path
       style="fill:#f9f9f9"
       d="M 0,28.125 0,0 28.125,0 56.25,0 l 0,28.125 0,28.125 -28.125,0 L 0,56.25 0,28.125 Z"
       id="path4320"
       inkscape:connector-curvature="0" />
    <path
       style="fill:#d0d0d0"
       d="M 19.791527,53.703939 C 8.2860613,49.746129 1.25,40.039539 1.25,28.125 1.25,17.282473 6.8817012,8.5351494 16.875,3.8557911 30.030492,-2.304263 45.424601,3.2372709 51.835617,16.440829 c 7.05141,14.522457 -0.05464,31.618203 -15.39234,37.030928 -5.416321,1.911437 -11.522598,1.99658 -16.65175,0.232182 z m 16.803045,-7.916341 c 3.460879,-1.792309 7.362499,-5.829937 9.073906,-9.390217 1.136657,-2.364617 1.422797,-4.028283 1.422797,-8.272381 0,-6.401088 -1.380246,-9.80926 -5.695466,-14.063525 C 37.401103,10.123198 32.967126,8.5493625 26.830443,8.8915156 18.960282,9.3303188 13.25292,13.089173 10.143203,19.881689 c -2.2265736,4.863478 -2.2060968,11.727908 0.04906,16.445009 2.406123,5.032885 5.929729,8.368735 10.801947,10.226365 3.598258,1.371907 12.297399,0.945065 15.600367,-0.765465 z M 22.34375,40.819171 C 21.012954,40.471398 20.949003,38.805239 22.155608,35.917426 22.974237,33.958172 23.300486,33.75 25.552421,33.75 c 4.651159,0 6.542775,1.484262 5.806748,4.55628 -0.530257,2.213178 -5.191069,3.512299 -9.015419,2.512891 z m 11.875,-3.098331 C 32.9808,37.367146 32.754909,34.804788 33.734531,32.228188 34.284376,30.781984 34.672691,30.625 37.700164,30.625 c 2.539355,0 3.625854,0.298073 4.464545,1.224816 1.331358,1.471134 0.893793,4.057303 -0.843811,4.98724 -1.454467,0.778408 -5.645567,1.299944 -7.102148,0.883784 z m -20.9375,-5.225928 c -2.538456,-1.046308 -1.249832,-6.530402 1.685996,-7.175218 1.90057,-0.417435 4.884772,0.114969 6.126504,1.093013 1.14049,0.898302 0.954477,3.865514 -0.3125,4.984882 -1.390229,1.228263 -5.664957,1.853697 -7.5,1.097323 z m 10.9375,0.212549 c -2.343588,-0.640918 -0.948881,-6.669581 1.696587,-7.333551 2.379273,-0.597159 6.431652,0.659394 6.901587,2.140031 0.519018,1.635277 -0.148023,3.604327 -1.453002,4.289142 -1.387258,0.727993 -5.76433,1.282006 -7.145172,0.904378 z m 10.475321,-3.94683 c -0.577709,-0.934751 0.338897,-4.954313 1.363382,-5.978798 1.196338,-1.196339 5.180358,-1.158326 6.928481,0.06611 0.889909,0.623317 1.389066,1.621245 1.389066,2.77706 0,2.502261 -2.009586,3.75 -6.039681,3.75 -1.793851,0 -3.432413,-0.276466 -3.641248,-0.614369 z m -21.247658,-4.99621 c -0.650697,-1.052849 0.9148,-5.588062 2.158726,-6.253792 1.909307,-1.02183 4.723551,-0.736107 6.498074,0.659733 1.985789,1.562022 2.050256,2.398137 0.351424,4.557851 -1.136489,1.444813 -1.745202,1.646787 -4.963114,1.646787 -2.017264,0 -3.837563,-0.274761 -4.04511,-0.610579 z M 24.606526,21.40625 c 0.501087,-3.705761 1.724987,-4.721131 5.236882,-4.344616 3.276915,0.351321 4.531592,1.332291 4.531592,3.543027 0,2.725567 -1.725774,3.770339 -6.227916,3.770339 l -3.941989,0 0.401431,-2.96875 z"
       id="path4318"
       inkscape:connector-curvature="0" />
    <path
       style="fill:#aeaeae"
       d="M 18.081109,52.572257 C 9.8461519,49.133676 4.9561301,43.523723 2.2564443,34.417812 0.91471987,29.89224 0.9877695,25.980672 2.5057955,21.065876 7.6546837,4.3957152 25.373443,-2.8975866 41.040782,5.2043092 c 3.059749,1.5822577 8.571857,7.5438268 10.369442,11.2149748 5.099938,10.415432 3.03024,22.191816 -5.361375,30.505698 -5.273553,5.224704 -10.826813,7.466079 -18.34915,7.405977 -4.530956,-0.0362 -6.24319,-0.349273 -9.61859,-1.758702 z m 18.333955,-6.250884 c 4.018895,-1.945514 7.796637,-5.813627 9.666323,-9.89756 2.315716,-5.05819 2.254811,-11.889507 -0.149823,-16.8044 C 43.858688,15.382608 40.433569,11.903986 36.397639,9.9365644 33.979183,8.7576231 32.408167,8.4923838 27.8125,8.4871081 22.886429,8.4814538 21.777124,8.6941919 18.884779,10.199234 11.78879,13.891659 8.125,19.995524 8.125,28.125 c 0,9.339537 5.258091,16.454786 14.375,19.452252 2.924742,0.9616 10.803212,0.250542 13.915064,-1.255879 z m -14.2848,-6.557654 c -0.181777,-0.473705 -0.08603,-1.809643 0.212772,-2.96875 0.517684,-2.008193 0.692587,-2.116246 3.712906,-2.29379 C 30.765583,34.224331 32.726943,36.648057 30,39.375 c -1.521638,1.521638 -7.324995,1.80829 -7.869736,0.388719 z m 11.714962,-3.086478 c -1.030343,-1.241488 0.261405,-5.257829 1.853564,-5.763161 1.755397,-0.557141 5.259945,0.169389 6.1832,1.281842 1.102734,1.328714 0.272119,3.726264 -1.583913,4.571929 -2.146434,0.97798 -5.60632,0.929397 -6.452851,-0.09061 z M 12.754337,31.636302 c -0.602648,-1.570475 0.288402,-5.220999 1.37628,-5.638458 2.055137,-0.78863 5.261685,-0.355542 6.494383,0.877156 1.537466,1.537466 1.551461,1.989231 0.116519,3.761309 -1.501007,1.853666 -7.37728,2.589374 -7.987182,0.999993 z m 11.117567,0.07308 c -0.606732,-0.731067 -0.601661,-1.430972 0.02426,-3.348085 0.715889,-2.192692 1.019373,-2.442567 3.182869,-2.620627 4.274392,-0.351789 7.192072,3.26139 4.462737,5.526537 -1.503008,1.247386 -6.750521,1.54991 -7.66986,0.442175 z M 35.22548,27.811103 c -0.470284,-1.225541 0.296164,-4.232294 1.230323,-4.826522 1.467806,-0.933687 5.82074,-0.517425 6.88483,0.658382 1.351933,1.493869 1.30482,2.336584 -0.215633,3.857037 -1.578786,1.578786 -7.326206,1.805134 -7.89952,0.311102 z M 14.464443,23.855179 C 13.865106,23.449503 13.748796,22.662519 14.067862,21.171825 14.720534,18.122519 15.457911,17.5 18.417161,17.5 c 4.14138,0 6.078148,2.941152 3.483201,5.289547 -1.384531,1.252985 -6.150148,1.935939 -7.43592,1.065632 z m 11.004307,0.163493 c -0.836412,-0.851143 -0.495498,-4.527639 0.513393,-5.536529 1.428131,-1.428132 5.603443,-1.271557 7.142857,0.267857 1.537466,1.537466 1.551461,1.989231 0.116519,3.761309 -0.811209,1.001802 -2.010685,1.482894 -4.21875,1.692079 -1.696898,0.16076 -3.296207,0.07764 -3.554019,-0.184716 z"
       id="path4316"
       inkscape:connector-curvature="0" />
    <path
       style="fill:#909090"
       d="M 22.610184,53.745201 C 10.663673,51.222021 1.8885304,40.372455 1.8885304,28.125 1.8885304,17.656433 8.3735769,7.9453906 17.9725,4.0400358 23.660555,1.7258312 31.61155,1.5913454 37.089794,3.7166794 c 18.667281,7.2421386 22.482868,32.0950286 6.875,44.7804256 -5.632783,4.578082 -14.365527,6.724236 -21.35461,5.248096 z m 12.428469,-6.56108 C 39.069482,45.81068 43.94722,41.308811 46.054843,37.016818 47.563132,33.945315 47.8125,32.68379 47.8125,28.125 c 0,-4.55879 -0.249368,-5.820315 -1.757657,-8.891818 C 43.896187,14.837264 39.304277,10.672883 34.83632,9.0591563 18.168219,3.0390112 2.0916003,20.242732 9.2541444,36.434852 c 1.4517746,3.281977 6.6701226,8.834767 9.3165456,9.913638 6.216015,2.534092 10.800521,2.766723 16.467963,0.835631 z M 22.231871,39.446793 c -0.188046,-0.304264 -0.03591,-1.430959 0.338068,-2.503767 0.789618,-2.2651 2.771692,-3.008104 5.753443,-2.156747 2.178694,0.622066 2.976809,2.709586 1.648067,4.310622 -0.832146,1.002675 -7.159353,1.288717 -7.739578,0.349892 z M 33.75,35.665688 c 0,-0.665123 0.274289,-1.930748 0.609531,-2.8125 C 34.885474,31.469851 35.343587,31.25 37.700164,31.25 c 3.044577,0 5.116077,1.573654 4.428874,3.364476 C 41.533742,36.165794 39.800212,36.875 36.603588,36.875 34.198669,36.875 33.75,36.68486 33.75,35.665688 Z m -20.850476,-4.27488 c -0.164585,-0.266305 -0.100683,-1.461617 0.142006,-2.65625 0.422215,-2.078347 0.570454,-2.180362 3.43592,-2.364536 4.337671,-0.278797 6.277442,2.0358 3.790407,4.522835 -1.024151,1.024151 -6.80181,1.414604 -7.368333,0.497951 z M 23.75,30.665687 c 0,-0.665122 0.274289,-1.930747 0.609531,-2.8125 0.528351,-1.38967 0.980222,-1.603187 3.392857,-1.603187 1.696963,0 3.166668,0.383341 3.765469,0.982143 1.220113,1.220113 1.220972,1.523748 0.0092,3.253791 C 30.724276,31.632069 29.959141,31.875 27.15206,31.875 24.204821,31.875 23.75,31.713327 23.75,30.665687 Z m 12.291667,-2.332354 c -0.581778,-0.581777 -0.503357,-3.478964 0.120807,-4.463112 0.349742,-0.551457 1.617153,-0.75474 3.896679,-0.625 3.286434,0.187048 3.378347,0.242789 3.378347,2.048821 0,1.352846 -0.423919,2.07101 -1.5625,2.647036 -1.671711,0.845746 -5.146204,1.079384 -5.833333,0.392255 z M 14.383534,22.34375 c 0.02233,-3.678836 0.547667,-4.21875 4.104871,-4.21875 2.552478,0 3.475589,0.258544 3.905151,1.09375 1.322388,2.57115 -0.84611,4.53125 -5.013012,4.53125 -2.702722,0 -3.004684,-0.141686 -2.99701,-1.40625 z m 10.912355,0.625 c -0.159433,-0.429688 -0.06146,-1.625 0.217732,-2.65625 0.462638,-1.708875 0.771236,-1.892054 3.483055,-2.067478 4.3984,-0.284527 6.2843,2.05073 3.610361,4.470611 -1.38074,1.249553 -6.870898,1.439626 -7.311148,0.253117 z"
       id="path4314"
       inkscape:connector-curvature="0" />
    <path
       style="fill:#6d6d6d"
       d="M 24.0625,53.737265 C 17.078316,52.738202 10.130181,48.144236 6.1214446,41.875 -2.6491099,28.15879 3.4107256,10.073916 18.797848,4.0437484 24.703625,1.7292921 31.666972,1.852982 37.699699,4.3795018 c 8.069272,3.3794307 13.492813,9.9991622 15.282182,18.6527522 0.984985,4.763493 0.985638,5.418837 0.01011,10.136589 C 50.170812,46.812389 37.689324,55.686534 24.0625,53.737265 Z m 12.200243,-6.72553 c 3.404052,-1.46908 8.176994,-5.963326 9.881576,-9.304582 2.876089,-5.637601 2.885497,-13.508264 0.02286,-19.119507 C 44.468654,15.258273 40.642251,11.603152 36.740095,9.5825544 33.922362,8.1234875 32.657559,7.86802 28.125,7.8424594 23.629714,7.8171087 22.262531,8.0702681 19.237289,9.4881856 9.4177919,14.090539 4.8865019,25.467909 8.7550388,35.8075 10.820114,41.326911 16.809391,46.608207 22.8125,48.203258 c 2.992951,0.795239 10.358589,0.142736 13.450243,-1.191523 z M 22.5,38.556956 c 0,-2.60958 1.325309,-3.662476 4.334012,-3.44317 C 32.56314,35.531387 31.368867,40 25.528132,40 22.781637,40 22.5,39.865788 22.5,38.556956 Z m 11.625972,-2.204257 c -0.538686,-0.871612 0.559684,-4.027803 1.638517,-4.708313 0.665097,-0.419533 1.833806,-0.435944 3.405322,-0.04782 4.608701,1.138232 2.728593,5.278433 -2.396992,5.278433 -1.278226,0 -2.469308,-0.235035 -2.646847,-0.522301 z M 13.541667,31.458333 C 12.851143,30.76781 13.072877,27.802123 13.875,27 c 1.076503,-1.076503 5.235227,-0.925488 6.392857,0.232143 1.28654,1.286539 1.239232,1.885768 -0.267857,3.392857 -1.223296,1.223296 -5.514648,1.777018 -6.458333,0.833333 z m 10.63638,0.01138 c -0.495774,-0.495774 0.141384,-3.367834 0.984661,-4.438463 0.746211,-0.947394 3.842867,-1.02294 5.50338,-0.13426 1.817093,0.972478 1.578276,3.618517 -0.394275,4.368479 -1.817954,0.691184 -5.483952,0.814058 -6.093766,0.204244 z M 35.625,26.833912 c 0,-2.645323 1.135447,-3.708912 3.95949,-3.708912 3.836537,0 5.323928,1.877296 3.183367,4.017857 C 42.140701,27.770014 40.672349,28.125 38.705357,28.125 36.008989,28.125 35.625,27.964056 35.625,26.833912 Z M 14.670889,22.96875 c -0.159433,-0.429688 -0.06158,-1.625 0.217467,-2.65625 0.45006,-1.663284 0.807797,-1.896956 3.168186,-2.069443 4.203612,-0.307183 6.050989,2.435104 3.054392,4.534003 -1.66546,1.166534 -6.030128,1.296449 -6.440045,0.19169 z M 25.625,21.767018 c 0,-2.750443 0.937681,-3.642018 3.830357,-3.642018 2.106656,0 4.294643,1.235557 4.294643,2.425187 0,1.559668 -1.933759,2.76395 -4.895079,3.048495 l -3.229921,0.310355 0,-2.142019 z"
       id="path4312"
       inkscape:connector-curvature="0" />
    <path
       style="fill:#505050"
       d="M 20.280454,52.570891 C 15.298146,50.739704 13.451347,49.611717 10.115074,46.362086 6.463655,42.805492 4.2128332,38.661943 2.7337896,32.773841 1.8218079,29.143224 1.7788641,27.99098 2.4342426,24.736561 5.1986698,11.009219 16.179161,1.860995 28.953509,2.6424511 42.862638,3.4933262 53.230804,14.376223 53.230804,28.125 c 0,10.435923 -5.743541,19.122296 -15.588227,23.575207 -4.80746,2.174491 -12.733281,2.571959 -17.362123,0.870684 z M 34.851196,47.79879 C 39.100903,46.536763 44.363044,41.734582 46.691102,36.993804 48.187067,33.947472 48.4375,32.675691 48.4375,28.125 c 0,-4.539844 -0.251838,-5.825317 -1.731542,-8.838442 C 44.785188,15.375294 40.920328,11.472143 36.780883,9.2631506 34.457992,8.0235519 33.153201,7.8125 27.8125,7.8125 c -5.757936,0 -6.513173,0.1457719 -9.592717,1.851535 -7.059051,3.910017 -10.8780261,10.350558 -10.9271299,18.428144 -0.05575,9.170461 5.2261179,16.701143 13.8837739,19.79496 3.092785,1.105207 9.801581,1.061864 13.674769,-0.08835 z M 23.210804,39.441256 c -0.718638,-0.455303 -0.717945,-0.819965 0.0044,-2.33418 0.674457,-1.413754 1.336058,-1.834756 3.11771,-1.98392 3.97694,-0.332958 5.493775,2.963262 1.97862,4.299721 -1.889448,0.718367 -3.984013,0.725914 -5.100769,0.01837 z m 11.945446,-2.96557 c -0.83661,-0.353226 -1.019979,-2.001332 -0.401882,-3.612069 0.495576,-1.29145 5.408786,-1.360687 6.462475,-0.09107 0.960887,1.157797 -0.173574,3.47377 -1.707583,3.485985 -0.589468,0.0047 -1.63426,0.12969 -2.32176,0.277769 -0.6875,0.148079 -1.601562,0.120801 -2.03125,-0.06062 z M 13.466361,29.21875 c 0.560435,-2.583249 0.969024,-2.815891 4.188527,-2.384859 1.871983,0.250623 2.704143,0.6809 2.857275,1.477383 C 20.889354,30.273156 19.430647,31.25 16.123812,31.25 l -3.098131,0 0.44068,-2.03125 z m 10.91821,0.625 c 0.0165,-2.424857 0.854442,-3.064294 3.73872,-2.853044 5.449285,0.399116 4.815043,4.259294 -0.699819,4.259294 -2.747548,0 -3.047527,-0.138816 -3.038901,-1.40625 z m 11.554496,-2.341215 c -0.757689,-1.225966 1.197545,-4.058078 2.940892,-4.259816 3.536405,-0.40923 5.803993,2.753975 3.036129,4.235291 -1.54094,0.824686 -5.472524,0.840819 -5.977021,0.02453 z M 15,21.375 c 0,-2.180506 1.023731,-3.25 3.110934,-3.25 C 19.78442,18.125 22.5,19.666093 22.5,20.615797 22.5,21.993245 20.365606,23.125 17.767857,23.125 15.153061,23.125 15,23.028226 15,21.375 Z m 10.868786,-0.250181 c 0.449439,-2.247195 1.276231,-2.976265 3.391052,-2.990248 3.201419,-0.02117 4.969715,2.385876 3.115162,4.240429 -0.4125,0.4125 -2.135156,0.75 -3.828125,0.75 l -3.078125,0 0.400036,-2.000181 z"
       id="path4310"
       inkscape:connector-curvature="0" />
    <path
       style="fill:#2d2d2d"
       d="M 23.612794,53.123921 C 9.390605,50.641538 -0.28133289,35.814144 3.3718294,22.093868 5.5061337,14.078007 11.174761,7.6160325 18.642288,4.6862487 22.458678,3.1889396 23.610135,3.0230179 28.832631,3.2178493 33.971777,3.4095711 35.248521,3.6976924 38.873768,5.4838207 46.018772,9.0041031 51.124058,15.715646 52.561704,23.47834 54.932514,36.279741 47.461498,48.571301 35,52.371429 31.685901,53.382061 26.902679,53.698147 23.612794,53.123921 Z M 33.773016,48.381019 C 38.110875,47.163878 42.64504,43.815354 45.407132,39.789114 52.638996,29.247387 48.339812,14.462482 36.4187,8.87787 33.441875,7.483335 31.939871,7.1884956 27.8125,7.1884956 c -6.152739,0 -10.650834,1.8669444 -15.016536,6.2326454 -3.7205915,3.720591 -5.4233921,7.603201 -5.7851821,13.190974 -0.6563975,10.137932 4.7702171,18.262484 14.4266161,21.599067 4.052604,1.4003 7.767973,1.451453 12.335618,0.169837 z M 23.125,38.488617 c 0,-2.237724 0.770227,-2.863617 3.523984,-2.863617 2.995443,0 4.105063,1.150851 2.71941,2.820459 C 28.331121,39.695297 23.125,39.731284 23.125,38.488617 Z M 34.856293,35.89796 c -0.844213,-0.844213 0.599727,-3.719111 1.968102,-3.91851 3.773744,-0.549906 6.105941,2.077281 3.216693,3.62356 -1.290802,0.690816 -4.60064,0.879105 -5.184795,0.29495 z M 13.866651,29.21875 c 0.188356,-1.953537 0.300846,-2.03125 2.940233,-2.03125 1.975395,0 2.938597,0.316731 3.4375,1.130356 0.959777,1.565233 -0.976479,2.932144 -4.153439,2.932144 -2.353926,0 -2.414784,-0.05558 -2.224294,-2.03125 z m 10.989642,1.67921 c -0.193622,-0.193622 -0.149949,-1.107684 0.09705,-2.03125 0.401391,-1.500859 0.742124,-1.67921 3.208064,-1.67921 2.230631,0 2.803549,0.231463 2.991746,1.208689 0.128024,0.664779 -0.273441,1.578842 -0.892147,2.03125 -1.123559,0.821566 -4.738924,1.136311 -5.404714,0.470521 z M 36.25,26.613617 c 0,-2.237724 0.770227,-2.863617 3.523984,-2.863617 2.995443,0 4.105063,1.150851 2.71941,2.820459 C 41.456121,27.820297 36.25,27.856284 36.25,26.613617 Z M 15.231071,21.71875 c 0.207273,-0.773438 0.380701,-1.773223 0.385395,-2.221744 0.0061,-0.581914 0.857258,-0.760932 2.971663,-0.625 2.348214,0.150962 3.010823,0.441323 3.192962,1.399183 0.316707,1.665549 -1.545932,2.853811 -4.473442,2.853811 -2.239302,0 -2.420546,-0.122738 -2.076578,-1.40625 z m 11.13558,-0.625 c 0.179525,-1.861943 0.394838,-2.047635 2.583217,-2.227829 2.237879,-0.184269 4.175132,0.646734 4.175132,1.790964 0,1.272567 -2.160044,2.468115 -4.459242,2.468115 -2.43833,0 -2.490511,-0.0461 -2.299107,-2.03125 z"
       id="path4308"
       inkscape:connector-curvature="0" />
    <path
       style="fill:#060606"
       d="M 21.875,52.315164 C 14.239733,50.127501 7.6109406,44.411293 4.9008759,37.677862 2.885439,32.670307 2.8714755,23.770154 4.8711357,18.72194 8.936535,8.458695 21.202922,1.6664948 32.050878,3.6718486 39.944372,5.1310403 47.07759,10.657573 50.502073,17.967098 c 1.494531,3.190063 1.684488,4.336729 1.68493,10.171044 4.66e-4,6.163447 -0.127526,6.835694 -2.041818,10.724174 C 47.51078,44.213552 42.2328,49.206879 37.130223,51.175351 32.634678,52.909644 25.746147,53.424329 21.875,52.315164 Z M 32.000487,49.297996 C 36.632489,48.31621 39.681557,46.627967 43.228236,43.081288 47.740604,38.56892 48.979137,35.358334 48.997858,28.125 49.016621,20.875461 47.679016,17.594847 42.713554,12.712103 32.200788,2.3744614 14.528841,5.7064808 8.2704419,19.2063 6.8795656,22.20652 6.5956025,23.705204 6.5805694,28.125 c -0.015219,4.474824 0.2450775,5.873891 1.6507944,8.872811 3.0003532,6.400876 8.8335692,10.990717 15.6871982,12.343403 3.768317,0.743745 4.384629,0.74045 8.081925,-0.04322 z M 23.862781,37.34375 c 0.149856,-1.055157 0.667843,-1.446902 2.074719,-1.569074 2.331886,-0.2025 3.741137,0.657568 3.235689,1.974746 C 28.907505,38.441783 27.999701,38.75 26.226146,38.75 c -2.300523,0 -2.542625,-0.144056 -2.363365,-1.40625 z M 35,35.051117 C 35,33.341053 35.908061,32.5 37.754368,32.5 c 2.445806,0 3.774479,1.098431 2.779233,2.297629 C 39.763234,35.725864 35,35.944062 35,35.051117 Z M 14.375,29.0625 c 0,-1.536271 0.159438,-1.622836 2.65625,-1.442186 2.175521,0.157404 2.65625,0.418411 2.65625,1.442186 0,1.023775 -0.480729,1.284782 -2.65625,1.442186 C 14.534438,30.685336 14.375,30.598771 14.375,29.0625 Z M 25,30.051117 C 25,28.226086 25.897955,27.5 28.154983,27.5 c 2.665628,0 3.590672,0.837194 2.447295,2.214878 C 29.779823,30.705876 25,30.992753 25,30.051117 Z M 36.875,25.9375 c 0,-1.435185 0.229167,-1.5625 2.8125,-1.5625 2.337777,0 2.8125,0.198684 2.8125,1.177106 0,1.199223 -1.575144,1.923316 -4.21875,1.93936 C 37.195641,27.498054 36.875,27.143732 36.875,25.9375 Z M 15.732761,21.132056 c 0.17265,-1.218144 0.628665,-1.47505 2.909478,-1.639112 2.51353,-0.180801 2.690265,-0.09243 2.5,1.25 -0.17265,1.218144 -0.628665,1.47505 -2.909478,1.639112 -2.51353,0.180801 -2.690265,0.09243 -2.5,-1.25 z m 10.762871,0.379327 c 0.208652,-0.54374 0.379368,-1.246865 0.379368,-1.5625 0,-0.315636 1.265625,-0.573883 2.8125,-0.573883 2.342848,0 2.8125,0.197568 2.8125,1.183132 0,1.398916 -1.168877,1.941868 -4.180485,1.941868 -1.7523,0 -2.125604,-0.202346 -1.823883,-0.988617 z"
       id="path4306"
       inkscape:connector-curvature="0" />
  </g>
</svg>
