<?xml version="1.0" encoding="UTF-8" standalone="no"?>
<!-- Created with Inkscape (http://www.inkscape.org/) -->

<svg
   xmlns:dc="http://purl.org/dc/elements/1.1/"
   xmlns:cc="http://creativecommons.org/ns#"
   xmlns:rdf="http://www.w3.org/1999/02/22-rdf-syntax-ns#"
   xmlns:svg="http://www.w3.org/2000/svg"
   xmlns="http://www.w3.org/2000/svg"
   xmlns:xlink="http://www.w3.org/1999/xlink"
   xmlns:sodipodi="http://sodipodi.sourceforge.net/DTD/sodipodi-0.dtd"
   xmlns:inkscape="http://www.inkscape.org/namespaces/inkscape"
   id="svg3740"
   version="1.1"
   inkscape:version="0.91 r13725"
   width="56.25"
   height="56.25"
   viewBox="0 0 56.25 56.25"
   sodipodi:docname="Cross.svg">
  <metadata
     id="metadata3746">
    <rdf:RDF>
      <cc:Work
         rdf:about="">
        <dc:format>image/svg+xml</dc:format>
        <dc:type
           rdf:resource="http://purl.org/dc/dcmitype/StillImage" />
        <dc:title></dc:title>
      </cc:Work>
    </rdf:RDF>
  </metadata>
  <defs
     id="defs3744" />
  <sodipodi:namedview
     pagecolor="#ffffff"
     bordercolor="#666666"
     borderopacity="1"
     objecttolerance="10"
     gridtolerance="10"
     guidetolerance="10"
     inkscape:pageopacity="0"
     inkscape:pageshadow="2"
     inkscape:window-width="640"
     inkscape:window-height="480"
     id="namedview3742"
     showgrid="false"
     inkscape:zoom="4.1955556"
     inkscape:cx="28.125"
     inkscape:cy="28.125"
     inkscape:window-x="0"
     inkscape:window-y="0"
     inkscape:window-maximized="0"
     inkscape:current-layer="svg3740" />
  <image
     width="56.25"
     height="56.25"
     preserveAspectRatio="none"
     style="image-rendering:optimizeQuality"
     xlink:href="file:///media/havoc/USB%20DISK/pics/_smallLogos/Cross.png"
     id="image3748"
     x="0"
     y="0"
     sodipodi:absref="/media/havoc/USB DISK/pics/_smallLogos/Cross.png" />
  <g
     id="g4267">
    <path
       style="fill:#fdfbfb"
       d="M 0,28.125 0,0 28.125,0 56.25,0 l 0,28.125 0,28.125 -28.125,0 L 0,56.25 0,28.125 Z"
       id="path4283"
       inkscape:connector-curvature="0" />
    <path
       style="fill:#f9d0d0"
       d="M 22.8125,52.249238 C 17.955352,51.053282 14.963006,49.380893 11.474634,45.912633 3.9648706,38.446165 2.1687663,28.429644 6.6413994,18.958633 8.9704581,14.026742 15.110494,8.6061163 20.338562,6.8663275 25.288279,5.219167 32.699255,5.3281509 36.09375,7.0980194 38.555315,8.3814638 38.659023,9.4892125 36.478213,11.204638 35.097409,12.290778 33.948841,12.5 29.367041,12.5 c -3.64281,0 -6.271129,0.339432 -7.884464,1.018231 l -2.420077,1.018232 2.614373,0.778466 c 1.437906,0.428156 3.374272,1.376202 4.303037,2.106768 0.928765,0.730567 1.932869,1.328303 2.231344,1.328303 0.298474,0 2.852252,-1.826266 5.675062,-4.058369 6.46038,-5.1084672 8.406702,-5.8262041 11.586152,-4.272578 1.683238,0.822507 2.393145,1.601041 2.529263,2.773768 0.165121,1.422599 -0.568658,2.167549 -5.759121,5.846797 -3.271594,2.319061 -6.253352,4.583978 -6.626129,5.033146 -0.513346,0.618545 0.118909,1.908584 2.606133,5.317495 2.55716,3.504762 3.290104,5.024686 3.311898,6.867962 0.03282,2.775487 0.723978,2.597449 2.027475,-0.52226 1.099104,-2.630525 1.21711,-10.21673 0.200518,-12.89057 -0.586042,-1.541408 -0.506969,-2.098156 0.488024,-3.436168 2.857742,-3.842937 5.695592,-1.322772 7.051009,6.26168 1.344291,7.522191 -1.585528,15.350041 -7.936233,21.203916 -2.981425,2.748182 -5.467985,4.018596 -10.552805,5.391558 -3.740217,1.009903 -5.843503,1.006298 -10,-0.01714 z m 12.847653,-7.969093 c 2.663453,-1.496944 3.060096,-2.198008 1.423239,-2.515567 C 36.510508,41.653435 34.588606,39.453125 32.8125,36.875 c -1.776106,-2.578125 -3.653538,-4.769871 -4.17207,-4.870546 -0.559633,-0.108656 -2.518323,1.853602 -4.819547,4.828328 -2.132219,2.756257 -4.308112,5.252772 -4.835319,5.547812 -0.804998,0.4505 -0.713453,0.697034 0.57145,1.538935 4.061154,2.66097 11.705617,2.832162 16.103139,0.360616 z M 14.70172,38.189744 c -0.544237,-2.477897 0.793644,-5.366103 4.270482,-9.219075 1.596539,-1.769257 2.902798,-3.389938 2.902798,-3.601513 0,-0.211575 -1.546875,-1.374207 -3.4375,-2.583625 C 16.546875,21.576113 15,20.313982 15,19.980794 c 0,-1.51777 -1.423612,-0.357958 -2.516831,2.050456 -1.842483,4.059076 -1.686874,10.864961 0.33986,14.864527 1.772505,3.497871 2.467955,3.976869 1.878691,1.293967 z"
       id="path4281"
       inkscape:connector-curvature="0" />
    <path
       style="fill:#f7adad"
       d="M 21.193086,51.355535 C 7.2889,46.74472 0.7361605,31.481106 7.1917656,18.741582 9.2918519,14.597262 15.400698,9.1588837 19.822137,7.4974387 23.924899,5.955743 30.01563,5.6745338 34.250936,6.8312606 c 3.364375,0.9188625 3.987293,2.2857725 1.871155,4.1059974 -1.421418,1.222652 -2.110937,1.334963 -6.600289,1.075079 -4.422432,-0.256011 -5.427873,-0.100293 -8.533901,1.321694 -6.697861,3.066383 -10.371877,8.67438 -10.349175,15.796926 0.03182,9.983519 7.231343,17.256414 17.18124,17.356341 4.924654,0.04946 8.36825,-1.323134 12.100321,-4.823099 4.501589,-4.221623 6.329517,-12.035202 4.356296,-18.621225 -0.627121,-2.093142 -0.572628,-2.581169 0.409368,-3.666262 1.28608,-1.421103 2.979888,-1.62395 3.928445,-0.470462 1.546215,1.880264 2.792871,8.220286 2.414053,12.276958 -1.341507,14.365883 -16.479805,24.60121 -29.835363,20.172327 z M 15.95355,40.031038 C 15.429097,39.016858 15,37.518202 15,36.70069 c 0,-1.731217 2.826387,-6.211869 5.581853,-8.848872 1.054981,-1.009625 1.91505,-2.134625 1.911265,-2.5 -0.0038,-0.365375 -1.691285,-1.706852 -3.75,-2.981061 C 16.684403,21.096549 15,19.6404 15,19.13487 15,17.686286 18.097578,15.625 20.274424,15.625 c 1.143077,0 3.277886,0.822556 5.047589,1.944868 1.939013,1.229686 3.340836,1.746803 3.812121,1.40625 0.40996,-0.29624 3.037783,-2.29491 5.839607,-4.441489 2.801823,-2.14658 5.787516,-4.076877 6.634873,-4.28955 1.915604,-0.4807865 5.104293,0.784224 5.947302,2.359402 0.734171,1.371811 0.491901,1.613287 -7.399666,7.37542 C 37.273629,22.084684 35,24.203193 35,24.78436 c 0,0.571755 1.079073,2.471361 2.397941,4.221347 4.171648,5.5353 4.84009,8.055548 2.879119,10.855227 -1.596115,2.278773 -3.756986,1.796004 -5.671908,-1.267184 C 31.956207,34.356387 29.339442,31.25 28.418906,31.25 c -0.468081,0 -2.717792,2.390625 -4.999358,5.3125 -4.542955,5.817911 -5.920214,6.457754 -7.465998,3.468538 z"
       id="path4279"
       inkscape:connector-curvature="0" />
    <path
       style="fill:#f59292"
       d="M 20.827609,51.011157 C 17.250023,49.843383 14.533226,48.064425 11.466758,44.881674 0.52288422,33.522801 4.1633526,14.933686 18.640534,8.250635 21.663585,6.855115 23.018357,6.6183681 27.8125,6.6478331 c 5.896265,0.036238 9.0625,0.8477275 9.0625,2.3226694 0,1.9268195 -1.985821,2.5919275 -7.753238,2.5967815 -4.943349,0.0042 -6.091589,0.220917 -8.809262,1.662943 -4.124888,2.188708 -6.750893,5.024924 -8.795801,9.4999 -2.9912434,6.545892 -1.452995,13.466905 4.212975,18.955365 5.765703,5.585067 12.814965,6.753942 19.770458,3.278241 4.072701,-2.035153 6.236087,-4.179185 8.403619,-8.328439 1.446982,-2.769921 1.776513,-8.532045 0.813789,-14.229779 -0.442464,-2.618654 -0.354672,-2.980042 0.885131,-3.643565 4.773579,-2.554742 6.87181,12.105214 2.89574,20.232008 -2.262454,4.624289 -6.49071,8.852078 -10.8607,10.8595 -4.309913,1.979825 -12.552385,2.547478 -16.810102,1.1577 z M 16.27199,40.041088 c -0.854035,-1.595778 -0.823005,-4.784887 0.06313,-6.488426 0.390567,-0.75084 1.937442,-2.81627 3.4375,-4.589844 C 21.27268,27.189242 22.5,25.471249 22.5,25.145055 c 0,-0.326194 -1.546875,-1.620148 -3.4375,-2.875452 -3.577351,-2.375227 -4.199052,-3.741199 -2.34375,-5.149574 1.953821,-1.483162 5.946709,-1.05233 8.95177,0.965892 l 2.733621,1.835921 2.51668,-2.06021 C 36.666108,13.158411 40.841199,10.625 42.846874,10.625 c 2.395744,0 5.018984,1.895099 4.498987,3.250189 -0.199422,0.519688 -2.566636,2.497648 -5.260474,4.395469 -2.693838,1.89782 -5.5711,4.179122 -6.393916,5.069559 -1.42137,1.538183 -1.44433,1.690175 -0.460079,3.04563 6.038934,8.316472 6.897335,10.916628 4.48424,13.583067 -1.72369,1.904656 -2.653604,1.590257 -4.884762,-1.651515 -1.110103,-1.61293 -2.968916,-4.007714 -4.130696,-5.321741 -2.487068,-2.812992 -2.280881,-2.912294 -7.684877,3.701096 -3.848236,4.709457 -5.558715,5.557766 -6.743307,3.344334 z"
       id="path4277"
       inkscape:connector-curvature="0" />
    <path
       style="fill:#f36d6d"
       d="M 22.334042,51.234699 C 18.528806,50.273956 15.025987,48.210719 11.917831,45.099321 3.0944371,36.266727 3.0211708,22.515762 11.749692,13.542226 15.312128,9.8797894 19.159228,7.8197162 24.101877,6.9277894 c 4.35828,-0.7864753 10.610392,0.00683 12.1127,1.53693 0.881849,0.8981618 0.841608,1.0986481 -0.429873,2.1417376 -1.190541,0.976687 -2.147363,1.099782 -6.323623,0.813534 -4.334814,-0.297114 -5.321425,-0.15314 -8.284704,1.208966 -4.77791,2.196224 -7.076395,4.365906 -9.26511,8.74591 -4.677482,9.360471 -0.646178,19.995785 9.26223,24.435449 8.396927,3.762415 19.139019,-0.673089 23.15358,-9.560316 1.452301,-3.215026 1.723092,-9.373387 0.579935,-13.188905 C 44.098532,20.362627 44.860174,18.75 46.943141,18.75 c 1.985817,0 3.265521,3.974344 3.320535,10.3125 0.04283,4.933591 -0.163247,6.056834 -1.676492,9.138216 -4.05099,8.248923 -10.787357,12.924325 -19.278191,13.380105 -2.541821,0.136442 -5.680549,-0.01931 -6.974951,-0.346122 z M 16.59794,39.860934 C 16.062823,39.096947 15.625,37.738916 15.625,36.843086 c 0,-1.85524 2.744206,-6.275617 5.581853,-8.991268 1.054981,-1.009625 1.918147,-2.184574 1.918147,-2.610998 0,-0.426423 -1.6875,-1.800418 -3.75,-3.05332 -4.049218,-2.45977 -4.520914,-3.451651 -2.360934,-4.96456 2.140131,-1.499006 4.925508,-1.173151 8.307947,0.971928 1.939013,1.229686 3.340836,1.746803 3.812121,1.40625 0.40996,-0.29624 3.037783,-2.29491 5.839607,-4.441489 2.801823,-2.14658 5.787516,-4.076877 6.634873,-4.28955 1.788903,-0.448986 5.024003,0.721792 5.512577,1.994994 0.395813,1.031473 0.426862,1.002335 -6.80561,6.386909 -3.092055,2.302035 -5.716954,4.691792 -5.833106,5.310571 -0.116153,0.618779 0.901891,2.587529 2.262321,4.375 4.439764,5.833416 5.019876,8.523888 2.373878,11.009675 -1.764627,1.65778 -1.568643,1.807098 -6.482733,-4.939137 -1.624321,-2.229926 -3.43287,-4.146765 -4.018999,-4.259643 -0.716425,-0.13797 -2.444678,1.549261 -5.273328,5.14816 C 21.029411,38.840974 18.783827,41.25 18.353426,41.25 c -0.4304,0 -1.220369,-0.62508 -1.755486,-1.389066 z"
       id="path4275"
       inkscape:connector-curvature="0" />
    <path
       style="fill:#f15151"
       d="M 22.515153,50.873068 C 5.4896633,46.297905 -0.17525317,25.625626 12.264384,13.466208 16.450283,9.3746025 21.062189,7.28826 26.580456,6.9898775 31.390622,6.7297831 36.25,7.7206562 36.25,8.96159 c 0,1.781838 -1.580192,2.288496 -7.15625,2.294516 -4.608921,0.005 -6.237309,0.276687 -8.794346,1.467422 -3.880973,1.807253 -6.760892,4.627 -8.76495,8.581817 -1.9876309,3.922401 -2.1453478,11.351256 -0.326057,15.358076 1.467458,3.23194 5.386222,7.212957 8.921921,9.063655 3.799269,1.988658 11.544231,1.999828 15.321054,0.02209 6.899932,-3.613148 10.320074,-9.099139 10.300623,-16.52245 -0.0065,-2.496571 -0.331215,-5.362985 -0.721496,-6.369808 -0.610974,-1.576153 -0.532448,-2.007741 0.56497,-3.105159 1.127774,-1.127774 1.381568,-1.167574 2.203579,-0.345563 0.510954,0.510954 1.404866,2.85732 1.986471,5.214146 1.761849,7.139501 -0.222886,13.809918 -5.921875,19.902597 -3.182941,3.402823 -6.288906,5.230366 -11.051144,6.502471 -3.902739,1.042512 -5.964479,1.012012 -10.297347,-0.152336 z M 17.233081,40.268796 C 14.696429,37.732143 15.462673,34.988859 20.286266,29.337873 21.84757,27.508759 23.125,25.646711 23.125,25.19999 c 0,-0.446722 -1.546875,-1.839289 -3.4375,-3.094593 -1.890625,-1.255304 -3.4375,-2.657944 -3.4375,-3.116976 0,-0.459033 0.715872,-1.303662 1.590828,-1.876955 1.932171,-1.266007 5.009044,-0.5575 8.380271,1.929711 2.392709,1.765286 1.872737,1.948848 7.535558,-2.660234 1.812041,-1.474856 4.497721,-3.38662 5.968177,-4.248365 2.536788,-1.486656 2.78806,-1.518966 4.911861,-0.631585 1.231068,0.514373 2.238305,1.348038 2.238305,1.852588 0,0.50455 -2.179688,2.451761 -4.84375,4.327135 -5.192925,3.655572 -8.28125,6.320743 -8.28125,7.146575 0,0.281586 1.412047,2.44884 3.137884,4.816119 3.669097,5.032794 4.2745,6.84249 3.030484,9.058859 -1.580142,2.81522 -2.694321,2.319429 -6.207172,-2.76209 -1.807158,-2.614146 -3.796898,-5.026555 -4.421645,-5.36091 -1.350244,-0.722628 -1.861765,-0.272001 -6.996962,6.164022 -1.977706,2.47869 -3.704386,4.506709 -3.837067,4.506709 -0.13268,0 -0.682778,-0.441542 -1.222441,-0.981204 z"
       id="path4273"
       inkscape:connector-curvature="0" />
    <path
       style="fill:#ef2d2d"
       d="M 22.334042,50.606607 C 16.503625,49.142208 10.790075,44.56781 8.2578144,39.336858 0.28846872,22.874386 13.658406,4.5671595 31.516413,7.4892569 c 4.361041,0.713595 5.572735,1.5809244 3.917016,2.8037971 -0.817,0.603416 -2.478448,0.741415 -6.011123,0.49928 -4.29426,-0.294335 -5.290492,-0.147634 -8.274449,1.218467 -4.804602,2.19962 -7.695656,4.983666 -9.967625,9.59869 -1.8065558,3.669636 -1.9457445,4.387475 -1.6734464,8.630461 0.3462844,5.395845 2.0153944,8.791543 6.1633754,12.538995 9.527697,8.607702 23.729518,5.50928 29.164782,-6.362901 1.352408,-2.954047 1.500256,-3.9445 1.174273,-7.866551 -0.777909,-9.359373 -0.814787,-8.845168 0.649322,-9.053824 1.925216,-0.27437 3.013061,3.282099 3.021869,9.879329 0.0061,4.523027 -0.245178,5.82616 -1.69048,8.76901 -3.961823,8.06686 -10.451008,12.508932 -18.790023,12.862423 -2.481822,0.105204 -5.57146,-0.07472 -6.865862,-0.399826 z M 16.91717,39.453795 c -1.545305,-2.887429 -0.08969,-6.364158 4.790021,-11.440953 1.305282,-1.358 2.065684,-2.676741 1.857006,-3.220546 -0.194357,-0.506488 -1.919562,-1.857663 -3.833787,-3.002612 -3.692586,-2.208631 -4.230501,-3.219268 -2.271498,-4.267694 2.096061,-1.121778 4.697412,-0.709742 7.75293,1.22801 1.626113,1.03125 3.091685,1.875 3.256829,1.875 0.165143,0 2.432108,-1.694101 5.0377,-3.764669 7.386169,-5.869518 9.4669,-6.633248 12.150818,-4.459943 l 1.420669,1.150388 -4.945179,3.618176 C 35.964477,21.681961 33.75,23.725074 33.75,24.90295 c 0,0.505497 1.089743,2.351315 2.421652,4.101818 C 39.310958,33.130701 40,34.522387 40,36.737044 c 0,1.947457 -2.190929,4.520959 -3.004757,3.529438 -0.261372,-0.31844 -1.521725,-2.148433 -2.800783,-4.066651 -2.923869,-4.38496 -5.11069,-6.461647 -6.316911,-5.998776 -0.514828,0.197558 -2.6747,2.553453 -4.799714,5.235321 -2.125014,2.681868 -4.230375,4.963405 -4.678579,5.07008 -0.448204,0.106676 -1.115143,-0.367021 -1.482086,-1.052661 z"
       id="path4271"
       inkscape:connector-curvature="0" />
    <path
       style="fill:#ee0505"
       d="M 20.628368,49.618782 C 14.785054,47.498931 10.664089,43.607984 7.9476275,37.645834 6.0516408,33.484481 6.0690792,24.721681 7.9817731,20.487689 c 1.5052063,-3.331966 5.5521919,-7.990952 8.5513809,-9.844553 3.32743,-2.0564641 9.411731,-3.3214323 13.744042,-2.857481 7.840589,0.8396556 7.126722,2.485346 -1.096004,2.526637 -4.96299,0.02493 -6.224636,0.263121 -9.282045,1.752456 C 12.9219,15.463528 9.0865063,21.606367 9.0911763,29.375 c 0.00331,5.479999 1.6925977,9.401306 5.6985747,13.227851 4.197945,4.009913 7.27475,5.209649 13.360499,5.209649 4.993397,0 5.571523,-0.141122 8.961416,-2.1875 7.818366,-4.719716 11.127581,-12.744396 9.02028,-21.873722 -0.621723,-2.693452 -0.596891,-3.309418 0.15208,-3.772307 1.744912,-1.078415 2.778474,2.300556 2.778474,9.083529 0,5.373156 -0.215461,6.688422 -1.535771,9.375 -1.983459,4.035959 -6.750262,8.785059 -10.50513,10.466119 -3.980875,1.782242 -12.435202,2.151067 -16.393232,0.715163 z M 17.313272,39.604939 C 17.072223,39.363889 16.875,38.126471 16.875,36.85512 c 0,-2.406284 0.836695,-3.805171 5.119804,-8.559906 1.309108,-1.453256 2.380196,-2.93876 2.380196,-3.301117 0,-0.362358 -1.674784,-1.70458 -3.721743,-2.982715 -3.806075,-2.376539 -4.538235,-3.461015 -2.78964,-4.132014 2.299521,-0.882409 5.105387,-0.328917 7.493796,1.478245 2.81298,2.128408 3.547746,2.27409 4.667105,0.925345 0.441416,-0.531874 3.024413,-2.641249 5.739994,-4.6875 3.720289,-2.803322 5.448316,-3.720458 7.009926,-3.720458 1.760033,0 4.174705,1.488686 3.408375,2.101321 -0.134922,0.107862 -1.651563,1.130777 -3.370313,2.273145 -4.703144,3.125947 -9.6875,7.485468 -9.6875,8.473083 0,0.481743 1.375233,2.780308 3.056074,5.107923 3.758057,5.20413 4.237987,6.624369 2.918848,8.63763 C 38.547866,39.310646 37.861393,40 37.574427,40 c -0.286966,0 -1.523005,-1.617188 -2.746753,-3.59375 -2.745558,-4.434546 -5.677114,-7.318695 -6.944615,-6.83231 -0.517859,0.198721 -2.68021,2.555568 -4.805224,5.237436 -3.777634,4.767553 -4.876666,5.68146 -5.764563,4.793563 z"
       id="path4269"
       inkscape:connector-curvature="0" />
  </g>
</svg>
