<?xml version="1.0" encoding="UTF-8" standalone="no"?>
<!-- Created with Inkscape (http://www.inkscape.org/) -->

<svg
   xmlns:dc="http://purl.org/dc/elements/1.1/"
   xmlns:cc="http://creativecommons.org/ns#"
   xmlns:rdf="http://www.w3.org/1999/02/22-rdf-syntax-ns#"
   xmlns:svg="http://www.w3.org/2000/svg"
   xmlns="http://www.w3.org/2000/svg"
   xmlns:xlink="http://www.w3.org/1999/xlink"
   xmlns:sodipodi="http://sodipodi.sourceforge.net/DTD/sodipodi-0.dtd"
   xmlns:inkscape="http://www.inkscape.org/namespaces/inkscape"
   id="svg3750"
   version="1.1"
   inkscape:version="0.91 r13725"
   width="56.25"
   height="56.25"
   viewBox="0 0 56.25 56.25"
   sodipodi:docname="FireOS.svg">
  <metadata
     id="metadata3756">
    <rdf:RDF>
      <cc:Work
         rdf:about="">
        <dc:format>image/svg+xml</dc:format>
        <dc:type
           rdf:resource="http://purl.org/dc/dcmitype/StillImage" />
        <dc:title></dc:title>
      </cc:Work>
    </rdf:RDF>
  </metadata>
  <defs
     id="defs3754" />
  <sodipodi:namedview
     pagecolor="#ffffff"
     bordercolor="#666666"
     borderopacity="1"
     objecttolerance="10"
     gridtolerance="10"
     guidetolerance="10"
     inkscape:pageopacity="0"
     inkscape:pageshadow="2"
     inkscape:window-width="640"
     inkscape:window-height="480"
     id="namedview3752"
     showgrid="false"
     inkscape:zoom="4.1955556"
     inkscape:cx="28.125"
     inkscape:cy="28.125"
     inkscape:window-x="0"
     inkscape:window-y="0"
     inkscape:window-maximized="0"
     inkscape:current-layer="svg3750" />
  <image
     width="56.25"
     height="56.25"
     preserveAspectRatio="none"
     style="image-rendering:optimizeQuality"
     xlink:href="file:///media/havoc/USB%20DISK/pics/_smallLogos/FireOS.png"
     id="image3758"
     x="0"
     y="0"
     sodipodi:absref="/media/havoc/USB DISK/pics/_smallLogos/FireOS.png" />
  <g
     id="g4230">
    <path
       style="fill:#fbf9f6"
       d="M 0,28.125 0,0 28.125,0 56.25,0 l 0,28.125 0,28.125 -28.125,0 L 0,56.25 0,28.125 Z"
       id="path4246"
       inkscape:connector-curvature="0" />
    <path
       style="fill:#efccaa"
       d="M 19.679339,53.250771 C 12.426213,50.742699 7.2243237,46.189746 3.9143799,39.452492 2.3197552,36.2067 2.1875,35.363104 2.1875,28.4375 c 0,-7.083698 0.1040756,-7.70806 1.875,-11.24836 C 6.6363075,12.043777 11.502317,7.2817356 16.703857,4.8178823 20.632789,2.9568345 21.409826,2.8125 27.5,2.8125 c 6.080136,0 6.871366,0.1463161 10.764581,1.9906125 18.965525,8.9843615 20.695608,34.5580585 3.093827,45.7322735 -5.967132,3.78814 -15.223782,4.947571 -21.679069,2.715385 z M 9.1109775,30.207414 C 10.246676,29.771606 10.258746,28.336131 9.132165,27.687306 8.65486,27.412413 8.1249856,26.625 7.9546687,25.9375 7.7843519,25.25 7.6506775,26.65625 7.6576144,29.0625 c 0.00694,2.40625 0.1367518,3.724989 0.2884768,2.930532 0.1517251,-0.794458 0.6759238,-1.597986 1.1648863,-1.785618 z M 42.5,29.375 c 0,-0.34375 -0.28125,-0.625 -0.625,-0.625 -0.34375,0 -0.625,0.28125 -0.625,0.625 0,0.34375 0.28125,0.625 0.625,0.625 0.34375,0 0.625,-0.28125 0.625,-0.625 z M 20,26.525614 c 0,-0.535911 -0.285838,-0.797728 -0.635195,-0.581813 -0.349357,0.215915 -0.473384,0.654388 -0.275614,0.974385 C 19.624966,27.785089 20,27.623443 20,26.525614 Z M 35,25.3125 c 0,-0.515625 -0.28125,-0.9375 -0.625,-0.9375 -0.34375,0 -0.625,0.421875 -0.625,0.9375 0,0.515625 0.28125,0.9375 0.625,0.9375 0.34375,0 0.625,-0.421875 0.625,-0.9375 z M 0.14500169,21.875 c 0,-1.203125 0.12862204,-1.695313 0.28582675,-1.09375 0.15720472,0.601562 0.15720472,1.585937 0,2.1875 C 0.27362373,23.570312 0.14500169,23.078125 0.14500169,21.875 Z"
       id="path4244"
       inkscape:connector-curvature="0" />
    <path
       style="fill:#e9b88b"
       d="M 19.6875,52.755584 C 12.740138,50.616163 6.3498981,44.522911 3.688351,37.5 1.9018342,32.785994 2.1863098,22.450579 4.226829,17.936308 6.2410291,13.480263 12.400913,7.3809906 17.061313,5.2281109 20.593206,3.5965471 21.548157,3.4387468 27.8125,3.4515366 c 6.225996,0.012712 7.210843,0.1776345 10.432632,1.747052 5.497807,2.6781245 9.49254,6.6558654 12.21369,12.1617394 2.252039,4.556692 2.353678,5.035036 2.353678,11.077172 0,6.042136 -0.101639,6.52048 -2.353678,11.077172 -2.715683,5.494811 -6.707125,9.47521 -12.192869,12.159134 -2.996294,1.46595 -4.447348,1.754362 -9.495121,1.887252 -4.000048,0.105306 -6.985405,-0.159423 -9.083332,-0.805474 z M 34.021812,34.390469 C 35.601779,33.789767 35.625,33.686196 35.625,27.239855 c 0,-3.597596 -0.251779,-6.696692 -0.559509,-6.886879 C 34.437331,19.964752 33.75,21.398997 33.75,23.097992 c 0,0.743757 -0.626864,1.24613 -1.863558,1.49347 -1.024957,0.204991 -2.481926,1.083897 -3.237709,1.953125 -1.521328,1.74968 -2.398733,2.020276 -2.398733,0.739781 0,-1.576705 -2.287625,-3.065156 -3.86146,-2.512473 -0.798072,0.280258 -2.01354,0.516546 -2.70104,0.525083 -1.05214,0.01306 -1.280896,0.503616 -1.445184,3.099103 -0.229069,3.618888 0.293266,6.185208 1.151007,5.655095 C 19.726996,33.844955 20,32.342827 20,30.713114 20,27.587471 20.78005,26.25 22.60301,26.25 24.138683,26.25 25,28.157444 25,31.558298 c 0,1.767829 0.242746,2.740448 0.625,2.504202 0.34375,-0.212449 0.625,-0.932173 0.625,-1.599386 0,-1.467784 1.137799,-1.607738 1.675654,-0.206113 0.290623,0.757353 2.968174,2.420213 4.377408,2.718535 0.06356,0.01346 0.836998,-0.249825 1.71875,-0.585067 z M 29.998403,32.185576 C 28.152947,29.961937 29.569804,26.25 32.264028,26.25 c 1.384511,0 1.485972,0.234709 1.485972,3.4375 0,3.202791 -0.101461,3.4375 -1.485972,3.4375 -0.817285,0 -1.836816,-0.422741 -2.265625,-0.939424 z M 47.5,33.716704 c 0,-0.281878 -0.885699,-0.600638 -1.968219,-0.708355 -2.321424,-0.230995 -3.85649,-2.099512 -2.44697,-2.978506 0.732066,-0.456525 0.750932,-0.73595 0.102444,-1.51733 C 42.155009,27.268733 42.817019,26.25 44.657517,26.25 c 1.550631,0 2.604888,1.561799 1.510729,2.238027 -0.45276,0.279821 -0.452514,0.602706 8.13e-4,1.056027 0.453958,0.453959 0.941754,0.413298 1.600497,-0.13341 0.830843,-0.689538 0.837187,-0.999757 0.05152,-2.519071 -2.588103,-5.004839 -8.787477,-0.367452 -6.592573,4.931515 0.443255,1.070111 1.477966,2.100941 2.428195,2.419087 C 45.433169,34.836956 47.5,34.554372 47.5,33.716704 Z M 8.6372194,32.607295 c 0.2577469,-1.751652 0.6132219,-1.710494 2.7283116,0.315891 2.303016,2.206428 2.772883,1.59613 0.814642,-1.058117 -1.907696,-2.585736 -1.94295,-3.559235 -0.196227,-5.418537 C 12.731367,25.650939 13.047054,25 12.685474,25 12.323894,25 11.677931,25.421875 11.25,25.9375 9.8059013,27.677533 8.75,27.039184 8.75,24.426117 8.75,21.657826 8.25676,20 7.4331319,20 7.1261594,20 6.875,23.257812 6.875,27.239583 c 0,5.512221 0.1864062,7.178194 0.78125,6.982295 0.4296875,-0.141508 0.8711238,-0.86807 0.9809694,-1.614583 z m 8.1137616,-3.295776 c -0.106406,-2.257625 -0.46064,-3.934109 -0.813481,-3.849957 -0.699599,0.166854 -1.208662,6.68031 -0.638275,8.166717 0.790956,2.061196 1.634186,-0.44613 1.451756,-4.31676 z M 38.875585,27.96936 c -0.204659,-7.015051 -0.424748,-8.244509 -1.371171,-7.659588 -0.6748,0.417049 -0.88522,11.421373 -0.250046,13.076611 0.208653,0.543739 0.70084,0.988891 1.09375,0.989227 0.501568,4.28e-4 0.6587,-1.907994 0.527467,-6.40625 z M 16.875,21.599386 c 0,-0.151589 -0.28125,-0.449437 -0.625,-0.661886 -0.34375,-0.212449 -0.625,-0.08842 -0.625,0.275614 0,0.364037 0.28125,0.661886 0.625,0.661886 0.34375,0 0.625,-0.124026 0.625,-0.275614 z"
       id="path4242"
       inkscape:connector-curvature="0" />
    <path
       style="fill:#e7a86f"
       d="M 20,52.618742 C 13.169978,50.343462 7.5051787,45.322862 4.4752544,38.859466 2.9906559,35.69254 2.8125,34.575878 2.8125,28.4375 2.8125,22.334628 2.9948033,21.176436 4.4357215,18.125 6.9551481,12.789604 11.211914,8.5209975 16.735328,5.7911777 21.255753,3.5570624 21.800932,3.4387427 27.467586,3.4619628 35.302741,3.4940688 39.244659,4.9990454 44.573144,9.9926581 55.453023,20.188783 55.787205,35.795663 45.350304,46.287419 40.61047,51.052165 35.678968,53.223993 28.92309,53.521944 24.766354,53.705267 22.604784,53.486471 20,52.618742 Z m 15.295272,-18.6283 c 0.929409,-0.929409 1.107789,-0.920658 2.24691,0.110232 0.948579,0.858452 1.408943,0.948201 1.972586,0.384558 C 40.078411,33.921589 40.074964,33.574964 39.5,33 39.020147,32.520147 38.75,30.074495 38.75,26.210227 l 0,-6.039773 -2.466758,0 c -2.292886,0 -2.480113,0.134629 -2.65625,1.910017 -0.153081,1.543005 -0.559542,2.00519 -2.115326,2.405326 -1.059209,0.272421 -2.438737,1.062062 -3.065617,1.754757 C 27.120843,27.70489 26.25,27.862905 26.25,26.639028 c 0,-1.699482 -1.656111,-2.336118 -4.942861,-1.900116 l -3.182139,0.422126 0,4.606981 c 0,3.678428 0.188956,4.606981 0.9375,4.606981 0.706522,0 0.9375,-0.758929 0.9375,-3.080357 0,-3.292352 1.219185,-5.260164 3.044611,-4.914119 0.759193,0.14392 1.097311,1.132261 1.330389,3.888813 0.317914,3.759882 1.433878,5.230116 2.18162,2.874189 0.407451,-1.283765 0.436523,-1.280232 2.28849,0.278095 2.144528,1.804502 4.965691,2.053292 6.450162,0.568821 z m -4.906911,-1.816367 c -1.999391,-1.999391 -0.498602,-6.277689 2.03125,-5.790484 0.777771,0.149785 1.017889,0.929169 1.017889,3.303909 0,3.423531 -1.163416,4.372298 -3.049139,2.486575 z M 47.5,34.0625 c 0.656883,-0.791496 0.530757,-0.9375 -0.809855,-0.9375 -2.387769,0 -3.565145,-0.629427 -3.565145,-1.905932 0,-0.902401 0.565654,-1.188206 2.650858,-1.339382 3.198201,-0.231868 3.817793,-1.713597 1.671761,-3.997943 C 44.508943,22.753666 40.625,24.961452 40.625,29.759988 c 0,2.117648 0.330464,2.90923 1.646787,3.944649 1.937012,1.523655 4.135785,1.674157 5.228213,0.357863 z M 43.234207,27.707006 C 43.499151,26.331264 45.9375,26.144546 45.9375,27.5 c 0,0.515625 -0.657834,1.030653 -1.461853,1.144506 -1.133635,0.160528 -1.412365,-0.04996 -1.24144,-0.9375 z M 8.75,33.125 c 0,-0.6875 0.3542213,-1.25 0.7871581,-1.25 0.4329369,0 1.1384459,0.5625 1.5677959,1.25 0.56883,0.910842 1.457518,1.25 3.275342,1.25 l 2.494704,0 0,-4.6875 C 16.875,25.9375 16.6875,25 15.9375,25 15.193452,25 15,25.902777 15,29.375 c 0,2.40625 -0.210937,4.374992 -0.46875,4.374982 -0.551758,-2.2e-5 -3.90625,-4.096308 -3.90625,-4.770057 0,-0.254024 0.592639,-1.092696 1.316976,-1.863717 1.857119,-1.976813 1.26302,-3.163158 -0.77948,-1.556527 -0.891058,0.700906 -1.7983941,1.096088 -2.016301,0.87818 C 8.9282875,26.219954 8.75,24.661669 8.75,22.975006 c 0,-2.583704 -0.1722512,-3.033697 -1.09375,-2.857343 -0.939065,0.179714 -1.1192394,1.085915 -1.2739806,6.40759 -0.099127,3.40905 -0.037644,6.569854 0.1366343,7.02401 C 7.0182412,34.850514 8.75,34.521205 8.75,33.125 Z m 8.125,-11.5625 c 0,-0.515625 -0.421875,-0.9375 -0.9375,-0.9375 -0.975984,0 -1.239979,0.739187 -0.520833,1.458333 C 16.135812,22.802479 16.875,22.538484 16.875,21.5625 Z"
       id="path4240"
       inkscape:connector-curvature="0" />
    <path
       style="fill:#e59650"
       d="M 21.25,52.748031 C 5.9223229,48.647101 -1.9263299,31.311094 5.1630476,17.215371 7.0740781,13.415692 12.695605,7.9130831 16.638979,5.9822019 20.665407,4.0106527 27.996856,3.0333367 32.5,3.8678544 42.319744,5.6876383 50.565774,14.333389 52.46358,24.799156 54.123791,33.954666 48.967943,45.014389 40.81115,49.794589 34.499389,53.493527 27.810865,54.503394 21.25,52.748031 Z M 8.7949075,33.319384 9.4338762,31.638769 11.007894,33.336276 c 1.440272,1.553268 1.902457,1.679406 5.439312,1.484477 L 20.3125,34.607724 20.625,30.897612 C 20.916219,27.440159 21.043906,27.1875 22.5,27.1875 c 1.455595,0 1.583881,0.253244 1.875,3.701344 0.319036,3.778754 1.638256,5.463971 2.29909,2.936937 l 0.341504,-1.305915 1.57649,1.240067 C 30.355937,35.14738 34.321306,35.428694 35.5,34.25 c 0.583333,-0.583333 0.916667,-0.583333 1.5,0 0.935066,0.935066 2.787713,0.974122 3.346157,0.07054 0.23096,-0.373701 0.106934,-0.992451 -0.275615,-1.375 -0.393908,-0.393908 -0.699243,-2.877435 -0.704076,-5.726792 -0.01222,-7.201429 -0.247965,-7.795819 -3.022784,-7.621286 -1.898321,0.119403 -2.317457,0.40124 -2.497318,1.67926 -0.27802,1.975488 -1.216107,3.098276 -2.588605,3.098276 -0.599052,0 -1.815588,0.571388 -2.703412,1.269751 -1.612336,1.268263 -1.61501,1.268286 -2.283467,0.01926 -0.600942,-1.122871 -1.22615,-1.235699 -6.12631,-1.105591 l -5.45707,0.144897 0.209728,3.828403 c 0.241244,4.403699 -0.486031,5.318515 -2.347181,2.952446 C 10.928509,29.422717 10.919138,28.61816 12.5,27.1875 c 1.376505,-1.24572 1.665051,-2.8125 0.517963,-2.8125 -0.40262,0 -1.253016,0.471479 -1.889768,1.047732 C 9.589425,26.8153 8.8752731,25.978713 8.6332075,22.5 8.4942913,20.503647 8.1654506,19.6875 7.5,19.6875 c -0.765295,0 -0.9703012,1.255458 -1.1160725,6.834834 -0.098214,3.759159 -0.036731,7.204472 0.1366344,7.65625 0.5157375,1.343989 1.5911587,0.937718 2.2743456,-0.8592 z M 30.007664,31.26432 c -0.858413,-1.603958 -0.314731,-3.556003 1.219035,-4.37685 1.582175,-0.846754 2.661974,0.599712 2.409695,3.227952 -0.244563,2.547852 -2.49817,3.261369 -3.62873,1.148898 z m 18.017754,2.246148 c 0.183613,-0.967772 -0.04751,-1.10906 -1.299997,-0.794706 -0.914527,0.229532 -2.000811,0.01778 -2.718117,-0.529841 -1.035635,-0.79065 -1.069913,-0.995735 -0.257304,-1.539474 0.515625,-0.345018 1.851562,-0.631613 2.96875,-0.636876 1.694279,-0.008 2.03125,-0.245709 2.03125,-1.433005 0,-3.851357 -4.685131,-5.716959 -7.246882,-2.885684 -1.762419,1.947845 -1.54169,6.635279 0.385955,8.196191 1.919974,1.5547 5.815283,1.315634 6.136345,-0.376606 z M 43.125,27.566868 c 0,-0.702525 1.625699,-1.357835 2.126396,-0.857138 0.752353,0.752352 0.341845,1.41527 -0.876396,1.41527 -0.6875,0 -1.25,-0.251159 -1.25,-0.558132 z M 17.381018,21.40625 C 17.265168,20.804687 16.756209,20.3125 16.25,20.3125 c -0.506209,0 -1.015168,0.492187 -1.131018,1.09375 C 14.971193,22.173656 15.308657,22.5 16.25,22.5 c 0.941343,0 1.278807,-0.326344 1.131018,-1.09375 z"
       id="path4238"
       inkscape:connector-curvature="0" />
    <path
       style="fill:#e38633"
       d="M 20.178774,52.253477 C 13.684396,50.137037 8.0341488,45.118012 5.1002544,38.859466 3.6156559,35.69254 3.4375,34.575878 3.4375,28.4375 3.4375,22.315421 3.6178699,21.177826 5.0844783,18.049993 12.374983,2.5015522 33.268118,-1.1479267 45.094669,11.06127 c 11.986416,12.374233 8.603307,32.097656 -6.80691,39.684081 -3.563478,1.754295 -4.840181,2.040243 -9.786673,2.191954 -3.588775,0.110069 -6.660765,-0.14235 -8.322312,-0.683828 z M 35.264583,34.908111 c 1.201716,-0.547538 1.789799,-0.537293 2.489457,0.04337 0.689121,0.571919 1.24072,0.586506 2.226599,0.05888 0.982257,-0.525688 1.845609,-0.507898 3.446575,0.07102 1.667673,0.603039 2.496171,0.60831 3.778503,0.02404 C 49.341811,34.132151 48.887919,32.894778 46.25,32.5 c -3.150216,-0.471446 -3.17452,-1.875 -0.03247,-1.875 3.116876,0 3.755174,-1.107089 2.344217,-4.065898 -1.714374,-3.59508 -5.791303,-3.686758 -7.924978,-0.178209 L 39.437315,28.353239 39.249907,24.02037 39.0625,19.6875 l -2.8125,0 c -2.716236,0 -2.819203,0.06952 -3.008349,2.03125 -0.141506,1.467631 -0.508317,2.03125 -1.321963,2.03125 -0.619363,0 -1.883746,0.595953 -2.809739,1.324339 -1.673472,1.316353 -1.691881,1.316964 -3.053037,0.101245 -1.197513,-1.069561 -2.180323,-1.205516 -7.82943,-1.08307 -3.724191,0.08072 -6.754874,0.434878 -7.15625,0.836254 C 9.8343713,26.165629 9.4472138,25.682938 9.2529944,22.661871 9.1040513,20.345072 8.8061806,19.650021 7.8873919,19.475376 7.2410825,19.352524 6.4719519,19.631244 6.1782126,20.094754 5.5703081,21.054006 5.427234,32.507396 6.004368,34.011383 6.5480044,35.428076 8.7046056,35.231601 9.2659131,33.714242 L 9.7415456,32.428485 10.90514,33.714242 C 11.863633,34.773366 12.822821,35 16.346867,35 l 4.278133,0 0,-3.360972 c 0,-2.180126 0.319762,-3.626352 0.910122,-4.116306 1.424312,-1.182075 2.214878,-0.191388 2.214878,2.775547 0,1.498473 0.170716,3.169374 0.379368,3.713114 0.450766,1.174676 2.522075,1.321697 2.9215,0.207367 0.211079,-0.588876 0.724077,-0.516021 2.083333,0.295869 2.119738,1.26613 3.956409,1.384021 6.130382,0.393492 z M 12.65625,31.001605 c -1.717741,-2.192819 -1.725762,-2.393716 -0.152418,-3.817573 1.662702,-1.504725 1.982742,-1.032554 1.751906,2.584681 L 14.0625,32.796782 12.65625,31.001605 Z M 30.75,31.75 c -1.547641,-1.547641 -0.481179,-4.875 1.5625,-4.875 0.546296,0 0.8125,0.921474 0.8125,2.8125 0,2.884366 -0.831255,3.606245 -2.375,2.0625 z m 13,-4.25 c 0,-0.34375 0.421875,-0.625 0.9375,-0.625 0.515625,0 0.9375,0.28125 0.9375,0.625 0,0.34375 -0.421875,0.625 -0.9375,0.625 -0.515625,0 -0.9375,-0.28125 -0.9375,-0.625 z M 17.387219,21.399865 C 17.53729,20.347997 17.27456,20 16.330355,20 c -1.495944,0 -2.205986,0.945378 -1.700128,2.263621 0.534626,1.393213 2.523907,0.769978 2.756992,-0.863756 z"
       id="path4236"
       inkscape:connector-curvature="0" />
    <path
       style="fill:#e3730b"
       d="M 20.9375,51.950874 C 6.0168879,47.633555 -0.98667794,31.511007 5.9956832,17.55409 8.5235388,12.501203 12.399995,8.68973 17.390534,6.3502544 20.525387,4.8806911 21.69998,4.6875 27.5,4.6875 c 5.909098,0 6.949711,0.1788559 10.451483,1.7963531 4.358236,2.013105 9.2157,6.6884679 11.402583,10.9751129 0.751908,1.473861 1.772225,4.622716 2.267373,6.997455 0.791146,3.794357 0.786251,4.809338 -0.04039,8.373726 -2.353276,10.147135 -8.64526,16.858005 -18.118613,19.324852 -4.686967,1.22048 -7.775476,1.170145 -12.524938,-0.204125 z M 9.2927006,34.544259 c 0.5732394,-1.024323 0.6671563,-1.024323 1.7990194,0 0.879937,0.796332 2.288331,1.080741 5.351836,1.080741 4.619855,0 4.596697,0.02484 4.952355,-5.3125 0.11538,-1.731516 0.45477,-2.5 1.104089,-2.5 0.703945,0 0.984434,0.903252 1.125893,3.6257 0.205371,3.952447 1.181002,4.998399 3.380873,3.624556 0.784859,-0.490152 1.47589,-0.548524 1.94846,-0.164587 1.148204,0.932853 18.999185,0.747957 19.790053,-0.204981 1.179364,-1.421047 0.02049,-2.813427 -2.405897,-2.890689 C 45.087097,31.762624 44.625,31.611048 45.3125,31.465665 46,31.320282 47.16429,31.074085 47.899812,30.918561 49.652171,30.548029 50.102243,29.229823 49.280866,26.87362 48.005562,23.215282 43.015862,22.222387 40.922919,25.210481 40.052321,26.453434 40,26.363703 40,23.627684 40,19.180256 39.669453,18.75 36.252689,18.75 c -2.911364,0 -2.999007,0.05561 -3.392345,2.152274 -0.277155,1.477369 -0.837928,2.284494 -1.788307,2.573925 -0.761495,0.231909 -1.876725,0.85385 -2.478287,1.382093 -0.988978,0.86844 -1.217014,0.848891 -2.380536,-0.204083 -0.999764,-0.904774 -2.112262,-1.131926 -4.987574,-1.018374 l -3.700787,0.146152 0.376273,-1.881368 c 0.288581,-1.442904 0.120226,-1.979623 -0.722378,-2.302961 -1.658242,-0.636327 -3.14338,0.637236 -2.936342,2.518027 0.150949,1.371266 -0.06946,1.634315 -1.369365,1.634315 -0.852098,0 -1.725927,0.285837 -1.941842,0.635195 C 10.142405,25.661491 9.375,24.230881 9.375,21.484101 c 0,-2.704508 -0.068711,-2.809223 -1.71875,-2.619365 L 5.9375,19.0625 5.7603784,26.526115 c -0.097417,4.104988 -0.035931,7.831551 0.1366345,8.28125 0.4523915,1.178913 2.6855246,1.005884 3.3956877,-0.263106 z m 21.4647644,-3.66036 c -0.829568,-1.482355 -0.186967,-3.48605 1.042094,-3.249355 0.656501,0.126431 1.012941,0.833522 1.012941,2.009432 0,2.087749 -1.181595,2.800675 -2.055035,1.239923 z M 12.625,30.5 c -0.989593,-0.989593 -0.948901,-2.056871 0.11199,-2.937332 0.690377,-0.572963 0.929666,-0.370446 1.201921,1.017222 C 14.338219,30.615143 13.688957,31.563957 12.625,30.5 Z"
       id="path4234"
       inkscape:connector-curvature="0" />
    <path
       style="fill:#dd6606"
       d="M 20.292411,51.66203 C 10.510386,48.460678 4.4058774,40.520261 3.8791181,30.3125 3.7372076,27.5625 3.9059863,24.328125 4.2541819,23.125 4.7809551,21.304833 4.8967301,22.097222 4.9436323,27.84375 4.9801009,32.311941 5.2647666,35.014767 5.75,35.5 c 0.9349994,0.934999 3.1514375,0.973562 4.0544575,0.07054 0.4892765,-0.489276 0.7969965,-0.489276 1.0993855,0 0.244743,0.396002 2.468711,0.679458 5.330959,0.679458 4.794741,0 4.9253,-0.0407 5.513617,-1.71875 l 0.602585,-1.71875 0.651333,1.632753 0.651332,1.632753 12.123732,0.03581 c 6.668052,0.01969 12.525663,-0.212597 13.016915,-0.516207 0.933141,-0.576713 0.97601,-0.937254 1.167175,-9.816361 0.126372,-5.869598 0.826874,-5.639565 1.594586,0.523635 1.203336,9.660396 -4.726118,19.94494 -13.946611,24.190175 -4.24204,1.953091 -13.092564,2.549514 -17.317055,1.16697 z"
       id="path4232"
       inkscape:connector-curvature="0" />
  </g>
</svg>
