<?xml version="1.0" encoding="UTF-8" standalone="no"?>
<!-- Created with Inkscape (http://www.inkscape.org/) -->

<svg
   xmlns:dc="http://purl.org/dc/elements/1.1/"
   xmlns:cc="http://creativecommons.org/ns#"
   xmlns:rdf="http://www.w3.org/1999/02/22-rdf-syntax-ns#"
   xmlns:svg="http://www.w3.org/2000/svg"
   xmlns="http://www.w3.org/2000/svg"
   xmlns:xlink="http://www.w3.org/1999/xlink"
   xmlns:sodipodi="http://sodipodi.sourceforge.net/DTD/sodipodi-0.dtd"
   xmlns:inkscape="http://www.inkscape.org/namespaces/inkscape"
   id="svg3760"
   version="1.1"
   inkscape:version="0.91 r13725"
   width="56.25"
   height="56.25"
   viewBox="0 0 56.25 56.25"
   sodipodi:docname="IOS.svg">
  <metadata
     id="metadata3766">
    <rdf:RDF>
      <cc:Work
         rdf:about="">
        <dc:format>image/svg+xml</dc:format>
        <dc:type
           rdf:resource="http://purl.org/dc/dcmitype/StillImage" />
        <dc:title></dc:title>
      </cc:Work>
    </rdf:RDF>
  </metadata>
  <defs
     id="defs3764" />
  <sodipodi:namedview
     pagecolor="#ffffff"
     bordercolor="#666666"
     borderopacity="1"
     objecttolerance="10"
     gridtolerance="10"
     guidetolerance="10"
     inkscape:pageopacity="0"
     inkscape:pageshadow="2"
     inkscape:window-width="640"
     inkscape:window-height="480"
     id="namedview3762"
     showgrid="false"
     inkscape:zoom="4.1955556"
     inkscape:cx="28.125"
     inkscape:cy="28.125"
     inkscape:window-x="0"
     inkscape:window-y="0"
     inkscape:window-maximized="0"
     inkscape:current-layer="svg3760" />
  <image
     width="56.25"
     height="56.25"
     preserveAspectRatio="none"
     style="image-rendering:optimizeQuality"
     xlink:href="file:///media/havoc/USB%20DISK/pics/_smallLogos/IOS.png"
     id="image3768"
     x="0"
     y="0"
     sodipodi:absref="/media/havoc/USB DISK/pics/_smallLogos/IOS.png" />
  <g
     id="g4193">
    <path
       style="fill:#fdfdfd"
       d="M 0,28.125 0,0 28.125,0 56.25,0 l 0,28.125 0,28.125 -28.125,0 L 0,56.25 0,28.125 Z"
       id="path4209"
       inkscape:connector-curvature="0" />
    <path
       style="fill:#e7e7e7"
       d="M 14.375,55.204983 C 12.261899,54.779576 10.494599,53.033788 7.45643,48.370626 3.8005989,42.759441 1.875,36.643638 1.875,30.643711 c 0,-8.293579 2.8996474,-13.593384 9.095881,-16.624919 3.466372,-1.695938 6.370017,-1.830168 11.685369,-0.540192 1.570435,0.381127 1.719934,0.262519 1.732476,-1.374489 0.03789,-4.9462523 4.740151,-10.3940992 9.600693,-11.1229825 1.58505,-0.237693 3.163985,-0.25783638 3.508745,-0.0447631 1.717243,1.06131443 -0.05638,7.43764653 -2.892449,10.39859263 l -1.577975,1.647458 2.822084,-0.31809 c 3.98044,-0.448653 6.654534,0.191528 9.968175,2.386393 4.030339,2.669585 4.208006,3.790735 1.129898,7.130088 -2.883291,3.128002 -3.482564,4.860914 -3.03971,8.789899 0.346297,3.072345 2.816038,6.827626 5.206711,7.91689 3.061103,1.394731 2.515762,3.642101 -2.656595,10.94792 -1.51784,2.143909 -3.380955,4.244296 -4.140256,4.667528 -0.884421,0.492973 -3.289696,0.69685 -6.693047,0.567318 -9.310676,-0.354366 -10.846788,-0.348927 -15.3125,0.05422 -2.40625,0.217228 -5.078125,0.253407 -5.9375,0.0804 z"
       id="path4207"
       inkscape:connector-curvature="0" />
    <path
       style="fill:#d0d0d0"
       d="M 15.338551,55.169097 C 12.877518,54.543959 10.977859,52.746779 8.0704606,48.293092 4.0548474,42.14179 2.37415,36.891023 2.3443131,30.403693 2.3170013,24.465372 3.5740641,20.89709 6.8460594,17.625094 10.329302,14.141852 13.380101,12.941325 17.760996,13.329932 c 2.090827,0.185466 4.574941,0.529267 5.520254,0.764 C 24.920689,14.501028 25,14.415269 25,12.235462 25,6.5727825 30.952816,0.65547781 36.676632,0.62848556 c 2.714244,-0.0127997 0.19058,8.25263884 -3.435696,11.25250744 -1.26689,1.048046 -3.147186,2.153203 -4.178436,2.455905 -1.232354,0.361731 -1.44657,0.560284 -0.625,0.579301 0.6875,0.01591 2.375,-0.376361 3.75,-0.871721 5.376476,-1.936945 10.97117,-0.916922 14.84375,2.706305 2.119197,1.982744 2.161143,2.930534 0.186942,4.22408 -1.971909,1.292044 -4.097063,5.689406 -4.079466,8.441214 0.02052,3.209498 2.031578,7.034616 4.917947,9.354165 1.41258,1.13518 2.568327,2.387784 2.568327,2.783565 0,1.265578 -4.605089,8.372747 -7.064273,10.902502 -3.010333,3.096718 -5.552023,3.583653 -11.565998,2.215803 -4.121516,-0.937419 -4.855271,-0.940301 -8.836857,-0.03471 -4.412525,1.003607 -5.634411,1.086692 -7.819321,0.531693 z"
       id="path4205"
       inkscape:connector-curvature="0" />
    <path
       style="fill:#b1b1b1"
       d="M 14.365249,54.469653 C 10.337234,52.332697 5.3389771,44.386946 3.4424247,37.105589 0.99141144,27.695514 3.6631889,19.153555 10.254053,15.328086 c 3.972929,-2.305968 6.370037,-2.487566 12.101671,-0.916789 4.397903,1.205263 5.414218,1.288772 7.758794,0.637523 8.650048,-2.402707 10.64023,-2.312876 15.165476,0.684522 3.249689,2.152504 3.52657,3.412034 1.223122,5.563962 -2.434228,2.274104 -3.378116,4.539708 -3.378116,8.108453 0,4.059351 1.395599,7.025082 4.467519,9.493744 C 48.916634,39.963589 50,41.292342 50,41.852288 c 0,1.567034 -6.048598,10.419183 -8.133968,11.904098 -2.545736,1.812724 -5.420504,2.135823 -8.663361,0.973688 -3.425347,-1.227533 -7.612176,-1.240477 -11.583253,-0.03581 -3.934506,1.193574 -4.621056,1.172316 -7.254169,-0.224612 z M 25.664592,13.485206 C 23.908727,11.369517 27.774021,4.2925902 31.811527,2.2308469 32.705812,1.7741823 34.351562,1.2037026 35.46875,0.96311425 37.323197,0.56375569 37.5,0.65788756 37.5,2.0445759 c 0,4.300711 -3.243426,9.3765981 -7.114945,11.1347271 -3.114574,1.414385 -3.765496,1.456567 -4.720463,0.305903 z"
       id="path4203"
       inkscape:connector-curvature="0" />
    <path
       style="fill:#8e8e8e"
       d="M 15.234873,54.633282 C 8.9595119,51.53757 3.125,39.778476 3.125,30.226591 c 0,-7.270534 2.6595413,-12.144534 8.142979,-14.923202 3.747987,-1.899248 6.30053,-1.948235 11.959059,-0.22951 l 4.358584,1.323879 4.032813,-1.323879 c 5.617936,-1.844238 8.617943,-1.714261 12.555383,0.543967 1.779975,1.020864 3.420313,2.153825 3.645194,2.517692 0.224882,0.363866 -0.611199,1.790678 -1.857959,3.170692 C 43.214291,24.346566 42.5,26.089827 42.5,29.753086 c 0,3.606452 1.802898,7.089762 4.966321,9.59524 l 2.513608,1.990814 -1.310323,2.61168 c -2.484739,4.95248 -6.171051,9.245107 -9.022415,10.506401 -2.686662,1.188438 -2.746422,1.187812 -6.31435,-0.06621 C 28.823226,52.806005 26.79525,52.803172 21.875,54.375 c -4.633514,1.480227 -4.197486,1.463267 -6.640127,0.258282 z M 26.041667,13.333333 C 24.680248,11.971914 26.968019,6.7096525 30.048045,4.1179812 31.672039,2.7514804 35.684419,0.625 36.638827,0.625 c 0.129896,0 0.236173,0.8527834 0.236173,1.8950741 0,2.3989042 -1.527476,6.0892678 -3.31108,7.9995299 -2.395314,2.565412 -6.307283,4.0287 -7.522253,2.813729 z"
       id="path4201"
       inkscape:connector-curvature="0" />
    <path
       style="fill:#777777"
       d="M 15.3125,54.270639 C 11.477297,52.149464 7.0642981,45.872401 4.9240145,39.494027 3.2335366,34.456142 3.0239181,26.524861 4.4913919,23.125 c 1.371834,-3.178281 4.056715,-6.121597 6.9135961,-7.579069 2.82608,-1.441758 7.377084,-1.409098 12.488129,0.08962 2.463431,0.722355 3.504216,0.73145 6.25,0.05461 6.092955,-1.501913 10.682733,-1.556956 13.419167,-0.160932 4.109404,2.096461 4.458223,2.936239 2.192174,5.277625 -2.331545,2.40906 -3.884459,5.905694 -3.865732,8.704316 0.02101,3.140081 2.232364,7.429429 5.125336,9.941588 l 2.608651,2.265263 -2.155107,3.627758 c -2.818154,4.743889 -6.703712,8.813675 -8.953897,9.378435 -1.204547,0.302323 -3.165235,0.0066 -5.93733,-0.895473 -5.046713,-1.642277 -5.456295,-1.64553 -9.914082,-0.07874 -4.011056,1.409773 -5.545646,1.518479 -7.349797,0.520639 z M 26.252336,11.40625 c 0.0025,-1.82413 1.979439,-5.5310624 3.670527,-6.8824862 0.558051,-0.4459628 2.327946,-1.4693149 3.933102,-2.2741157 L 36.77443,0.78637369 36.535053,3.1925607 C 36.403396,4.5159636 35.869391,6.4230925 35.348375,7.430625 33.982168,10.072579 30.033806,13.125 27.982597,13.125 c -1.474006,0 -1.732248,-0.256524 -1.730261,-1.71875 z"
       id="path4199"
       inkscape:connector-curvature="0" />
    <path
       style="fill:#666666"
       d="M 14.184514,53.264619 C 11.567484,51.65659 7.0517156,44.639297 5.2977387,39.454986 1.5622278,28.413762 4.5083284,18.734198 12.636176,15.344176 c 3.146081,-1.312191 5.557891,-1.220311 10.600732,0.403845 l 4.263092,1.37302 4.263092,-1.37302 c 5.394591,-1.737445 7.89897,-1.73011 11.346131,0.03323 3.396394,1.73737 4.554142,3.389547 2.996648,4.276403 -0.594895,0.338741 -1.790208,1.824992 -2.65625,3.302781 -3.010745,5.137448 -1.748243,11.662605 3.076058,15.898397 1.223377,1.074136 2.224321,2.351396 2.224321,2.838352 0,1.360663 -4.775502,8.201213 -7.229741,10.356064 -2.475943,2.173906 -4.734126,2.433825 -8.707759,1.002273 C 29.547711,52.279341 25.801131,52.272793 22.5,53.4375 19.044311,54.656738 16.359306,54.600916 14.184514,53.264619 Z M 26.25,12.167426 c 0,-1.411284 1.762372,-5.3819147 2.992586,-6.7423081 C 30.408706,4.1356018 34.509041,1.875 35.681877,1.875 c 1.084217,0 0.275919,4.0014831 -1.334725,6.6075575 C 32.323774,11.756454 26.25,14.520519 26.25,12.167426 Z"
       id="path4197"
       inkscape:connector-curvature="0" />
    <path
       style="fill:#535353"
       d="M 15.858733,53.759186 C 12.428709,52.374079 7.2799869,44.842152 5.2981338,38.310367 4.0417396,34.169548 4.0900646,25.502856 5.3838509,22.937712 8.73667,16.290198 15.442406,13.489471 22.1875,15.919478 c 3.264789,1.176181 7.011369,1.182729 10.3125,0.01802 3.656467,-1.290077 7.711143,-1.174039 10.607493,0.303569 3.302016,1.684562 3.494663,2.222473 1.601662,4.472177 -5.049795,6.00134 -4.456027,13.696157 1.446735,18.748702 l 2.575683,2.204689 -2.217426,3.697932 c -2.77848,4.633584 -6.224045,8.223523 -8.33264,8.68179 -0.9109,0.197969 -3.183981,-0.199929 -5.197143,-0.909748 C 28.500012,51.555478 26.508877,51.553366 22.037297,53.125 18.11785,54.502575 17.78439,54.536802 15.858733,53.759186 Z M 26.875,11.537601 C 26.875,8.5294963 32.183956,2.5 34.832584,2.5 35.994578,2.5 35.799652,4.7074506 34.394429,7.4619162 32.56194,11.053892 26.875,14.13633 26.875,11.537601 Z"
       id="path4195"
       inkscape:connector-curvature="0" />
  </g>
</svg>
