<?xml version="1.0" encoding="UTF-8" standalone="no"?>
<!-- Created with Inkscape (http://www.inkscape.org/) -->

<svg
   xmlns:dc="http://purl.org/dc/elements/1.1/"
   xmlns:cc="http://creativecommons.org/ns#"
   xmlns:rdf="http://www.w3.org/1999/02/22-rdf-syntax-ns#"
   xmlns:svg="http://www.w3.org/2000/svg"
   xmlns="http://www.w3.org/2000/svg"
   xmlns:xlink="http://www.w3.org/1999/xlink"
   xmlns:sodipodi="http://sodipodi.sourceforge.net/DTD/sodipodi-0.dtd"
   xmlns:inkscape="http://www.inkscape.org/namespaces/inkscape"
   id="svg3770"
   version="1.1"
   inkscape:version="0.91 r13725"
   width="56.25"
   height="56.25"
   viewBox="0 0 56.25 56.25"
   sodipodi:docname="Rhino.svg">
  <metadata
     id="metadata3776">
    <rdf:RDF>
      <cc:Work
         rdf:about="">
        <dc:format>image/svg+xml</dc:format>
        <dc:type
           rdf:resource="http://purl.org/dc/dcmitype/StillImage" />
        <dc:title></dc:title>
      </cc:Work>
    </rdf:RDF>
  </metadata>
  <defs
     id="defs3774" />
  <sodipodi:namedview
     pagecolor="#ffffff"
     bordercolor="#666666"
     borderopacity="1"
     objecttolerance="10"
     gridtolerance="10"
     guidetolerance="10"
     inkscape:pageopacity="0"
     inkscape:pageshadow="2"
     inkscape:window-width="640"
     inkscape:window-height="480"
     id="namedview3772"
     showgrid="false"
     inkscape:zoom="4.1955556"
     inkscape:cx="28.125"
     inkscape:cy="28.125"
     inkscape:window-x="0"
     inkscape:window-y="0"
     inkscape:window-maximized="0"
     inkscape:current-layer="svg3770" />
  <image
     width="56.25"
     height="56.25"
     preserveAspectRatio="none"
     style="image-rendering:optimizeQuality"
     xlink:href="file:///media/havoc/USB%20DISK/pics/_smallLogos/Rhino.png"
     id="image3778"
     x="0"
     y="0"
     sodipodi:absref="/media/havoc/USB DISK/pics/_smallLogos/Rhino.png" />
  <g
     id="g4156">
    <path
       style="fill:#fbfbfb"
       d="M 0,28.125 0,0 28.125,0 56.25,0 l 0,28.125 0,28.125 -28.125,0 L 0,56.25 0,28.125 Z"
       id="path4172"
       inkscape:connector-curvature="0" />
    <path
       style="fill:#a0a0a0"
       d="M 20.475062,50.276352 C 13.330706,48.544736 7.3889412,44.229706 6.2318656,39.932654 5.8237479,38.417021 5.2069569,37.5 4.5956549,37.5 3.8541395,37.5 3.7129201,37.107823 4.0174794,35.894362 4.3703412,34.488449 4.2427181,34.313526 2.9914844,34.488112 1.4652194,34.701074 1.1817463,33.433883 2.2092231,30.991222 2.5511186,30.17842 2.4918715,29.931252 2.0243981,30.220167 1.0347684,30.831792 0.45255765,29.572148 1.1493741,28.327006 1.5362387,27.635718 1.5010668,26.884277 1.0478804,26.15861 0.49693336,25.276404 0.64299963,24.657701 1.7583908,23.149054 2.8316626,21.697376 2.9458488,21.25 2.2430965,21.25 0.89424031,21.25 0.47300264,20.201833 1.2433725,18.762384 2.4897154,16.433571 11.521016,9.2217319 15.455027,7.4138337 19.853276,5.3925922 22.956216,5.1737909 26.952671,6.6030862 28.769141,7.25273 30.736879,7.4610137 32.8125,7.223345 c 4.135096,-0.4734887 5.877272,0.4938031 7.829102,4.346876 1.641157,3.239782 3.480501,4.497696 10.826043,7.403858 3.591013,1.420734 4.143753,2.380152 4.264952,7.402884 0.110464,4.57783 -0.683065,8.007693 -1.996019,8.627387 -0.508243,0.239882 -2.215406,1.080232 -3.793697,1.867443 -2.926517,1.459674 -3.537129,1.475453 -11.192881,0.289229 -1.553084,-0.240643 -2.766752,0.0226 -4.184791,0.907679 -2.780887,1.735709 -3.874324,3.653949 -4.711337,8.265198 -0.397198,2.188231 -1.018996,4.185232 -1.381775,4.43778 -0.968253,0.674052 -3.928992,0.490667 -7.997035,-0.495327 z"
       id="path4170"
       inkscape:connector-curvature="0" />
    <path
       style="fill:#5e5e5e"
       d="M 21.237822,49.739255 C 17.01249,48.81124 12.979208,46.828943 9.7465138,44.091451 7.8279262,42.466764 7.3173912,41.607132 7.3609619,40.074694 7.3914506,39.002362 7.1539569,38.125 6.8331981,38.125 6.5124394,38.125 6.25,37.726562 6.25,37.239583 6.25,36.752604 5.9284192,36.246973 5.5353761,36.115959 5.0075587,35.940019 5.0207957,35.503966 5.5860138,34.447846 6.5366281,32.671607 5.9601556,31.990008 4.3550565,32.992409 2.0238264,34.448287 1.8082359,33.351956 3.859321,30.471472 L 5.218642,28.562483 3.546821,28.882071 C 1.5366053,29.266348 1.5131659,29.138612 3.1675589,26.815231 4.598058,24.806281 4.5392901,24.730851 2.2281873,25.609531 -0.16259685,26.518505 0.14494649,24.925982 2.8125,22.58384 4.015625,21.527482 5,20.402966 5,20.084914 5,19.746721 4.0918166,19.711467 2.8125,20 1.609375,20.271349 0.625,20.254361 0.625,19.96225 0.625,19.670139 3.2717618,17.205754 6.5066925,14.485839 15.687327,6.766805 20.155372,5.1448249 26.629078,7.181055 c 2.317958,0.7290875 4.413071,0.9710075 6.240293,0.7205587 1.609048,-0.2205443 3.419746,-0.072223 4.362567,0.3573544 1.630119,0.7427325 3.393062,3.3988159 3.393062,5.1120549 0,1.280798 1.948412,2.535758 7.481303,4.818662 6.886235,2.841302 7.339304,3.397409 7.254193,8.903981 C 55.28724,31.833228 54.024879,35 52.208817,35 c -0.488052,0 -1.900336,0.597666 -3.138409,1.328147 -2.297669,1.355658 -2.408039,1.357579 -9.762847,0.169951 -4.945837,-0.798635 -9.189672,3.25198 -10.184592,9.720893 -0.716331,4.657536 -1.372751,4.95059 -7.885147,3.520264 z"
       id="path4168"
       inkscape:connector-curvature="0" />
    <path
       style="fill:#f71800"
       d="M 21.100062,49.026352 C 16.692483,47.958063 13.243701,46.239789 10.274437,43.632741 8.3861669,41.974817 8.0729456,41.354023 8.3715094,39.861203 8.7051594,38.192952 7.8789469,35.817221 6.6542219,34.923234 6.3609187,34.709137 6.4213356,33.972679 6.7884819,33.286661 7.6537119,31.669964 7.1188406,31.188231 5.2482358,31.899433 3.4146333,32.596567 3.3811781,32.273426 5.0450368,29.936752 L 6.3400737,28.11804 4.9900909,27.618649 C 3.7781654,27.170329 3.7416016,27.035026 4.6325541,26.295601 6.1982126,24.99622 5.7957887,24.208059 3.7220839,24.512414 L 1.8191677,24.791703 4.4055502,22.156371 C 7.1426281,19.367492 6.9645263,18.318608 3.8707278,19.006673 2.4345512,19.326081 2.7378961,18.863931 5.9375,15.857918 14.394572,7.9125406 20.756942,5.4270622 26.498087,7.8258656 c 1.450941,0.6062419 3.76325,0.8893919 6.379986,0.78125 3.820976,-0.1579087 4.208381,-0.048588 5.613085,1.5839874 C 39.321021,11.155584 40,12.477208 40,13.128045 c 0,1.353056 3.033779,3.781499 6.25,5.002925 5.590637,2.12316 7.972966,3.678625 8.324659,5.43532 0.192277,0.960416 0.539525,2.516904 0.771662,3.458863 0.505765,2.052268 -1.74759,7.349847 -3.126298,7.349847 -0.494215,0 -1.911542,0.597666 -3.149615,1.328147 -2.297669,1.355658 -2.408039,1.357579 -9.762847,0.169951 -1.587816,-0.256394 -2.97461,0.0032 -4.6875,0.877385 -3.838465,1.959035 -5.256989,4.206306 -6.192645,9.810584 -0.621412,3.722061 -1.258185,3.936302 -7.327354,2.465285 z M 0.67434212,25.260417 c 0.02999,-0.72809 0.17808769,-0.876188 0.37760408,-0.377605 0.1805442,0.451172 0.1583402,0.990235 -0.049342,1.197917 -0.20768234,0.207682 -0.35540028,-0.161458 -0.32826209,-0.820312 z"
       id="path4166"
       inkscape:connector-curvature="0" />
    <path
       style="fill:#d01400"
       d="M 21.100062,49.026352 C 16.692483,47.958063 13.243701,46.239789 10.274437,43.632741 8.3861669,41.974817 8.0729456,41.354023 8.3715094,39.861203 8.7051594,38.192952 7.8789469,35.817221 6.6542219,34.923234 6.3609187,34.709137 6.4213356,33.972679 6.7884819,33.286661 7.6537119,31.669964 7.1188406,31.188231 5.2482358,31.899433 3.4146333,32.596567 3.3811781,32.273426 5.0450368,29.936752 L 6.3400737,28.11804 4.9900909,27.618649 C 3.7781654,27.170329 3.7416016,27.035026 4.6325541,26.295601 6.1982126,24.99622 5.7957887,24.208059 3.7220839,24.512414 L 1.8191677,24.791703 4.4055502,22.156371 C 7.1426281,19.367492 6.9645263,18.318608 3.8707278,19.006673 2.4345512,19.326081 2.7378961,18.863931 5.9375,15.857918 14.394572,7.9125406 20.756942,5.4270622 26.498087,7.8258656 c 1.450941,0.6062419 3.76325,0.8893919 6.379986,0.78125 3.820976,-0.1579087 4.208381,-0.048588 5.613085,1.5839874 C 39.321021,11.155584 40,12.477208 40,13.128045 c 0,1.353056 3.033779,3.781499 6.25,5.002925 5.590637,2.12316 7.972966,3.678625 8.324659,5.43532 0.192277,0.960416 0.539525,2.516904 0.771662,3.458863 0.505765,2.052268 -1.74759,7.349847 -3.126298,7.349847 -0.494215,0 -1.911542,0.597666 -3.149615,1.328147 -2.297669,1.355658 -2.408039,1.357579 -9.762847,0.169951 -1.587816,-0.256394 -2.97461,0.0032 -4.6875,0.877385 -3.838465,1.959035 -5.256989,4.206306 -6.192645,9.810584 -0.621412,3.722061 -1.258185,3.936302 -7.327354,2.465285 z m 1.50684,-3.557602 c 0.05879,-0.773438 0.12911,-2.048059 0.15625,-2.832493 0.02714,-0.784433 0.330598,-1.628183 0.674348,-1.875 0.34375,-0.246816 1.144891,-1.064014 1.780312,-1.815996 1.131158,-1.338653 1.12329,-1.410522 -0.376323,-3.4375 -0.8424,-1.138643 -1.705026,-2.562449 -1.916947,-3.164011 -0.54937,-1.559449 -1.79124,-1.356611 -1.557578,0.254404 0.298696,2.059405 -0.968196,2.025863 -3.228389,-0.08547 -1.727473,-1.613702 -1.981318,-2.20522 -1.652307,-3.850273 0.213803,-1.069012 0.388732,-2.776252 0.388732,-3.793867 0,-1.328507 0.616,-2.395574 2.184636,-3.784339 2.108766,-1.86696 2.144621,-1.971407 1.032451,-3.007552 -0.633701,-0.590383 -1.663794,-1.172586 -2.289094,-1.293786 -1.804055,-0.349675 -1.761679,-1.53092 0.130219,-3.629935 2.186515,-2.425887 6.172152,-3.332824 6.852701,-1.559342 0.300201,0.782312 0.01598,1.40548 -0.926425,2.031212 C 23.058883,14.156381 22.5,15.178288 22.5,16.1106 c 0,1.543546 0.03126,1.554846 1.25,0.4519 C 24.4375,15.940321 25,14.912356 25,14.278133 25,13.64391 25.28125,13.125 25.625,13.125 c 0.34375,0 0.625,-0.549756 0.625,-1.221679 0,-0.907613 -0.577857,-1.330086 -2.247788,-1.643367 -4.292791,-0.8053328 -10.129084,2.174185 -9.310544,4.753176 0.244472,0.770264 0.0097,1.912018 -0.577338,2.807982 -0.544131,0.83045 -0.98933,2.382044 -0.98933,3.447987 0,2.36454 -0.990154,4.355901 -2.165861,4.355901 -1.2052659,0 -0.352876,2.804049 1.876427,6.172752 1.488558,2.249364 1.627185,2.82502 1.007715,4.18461 -0.942568,2.068712 -0.925496,2.142638 0.494833,2.142638 1.513099,0 2.22397,1.058383 1.387679,2.066052 -0.347501,0.418713 -0.723277,1.58709 -0.835057,2.596393 -0.183887,1.660383 0.06453,1.939086 2.609264,2.927336 3.872492,1.50389 4.977922,1.450634 5.106902,-0.246031 z M 33.00056,33.347752 c 1.410056,-0.377677 1.400195,-0.408205 -0.50636,-1.56765 -3.167899,-1.926515 -4.728463,-6.956553 -2.766851,-8.918165 1.173837,-1.173837 0.564046,-2.489869 -0.884318,-1.908507 -0.566792,0.227506 -2.718031,0.457617 -4.780531,0.511358 -3.605626,0.09395 -3.757663,0.164393 -3.949042,1.829703 -0.262123,2.280905 1.848739,5.612448 4.712029,7.43693 5.212544,3.321418 5.362941,3.369551 8.175073,2.616331 z m 18.184336,-5.912856 c -0.950458,-0.950458 -1.21868,-1.797224 -0.96735,-3.053877 0.333198,-1.66599 0.146929,-1.819401 -4.449985,-3.664987 -4.25601,-1.70872 -4.947047,-1.828385 -6.120062,-1.059795 -0.727278,0.47653 -2.1408,0.959759 -3.141161,1.073841 -1.755196,0.200164 -1.677821,0.304124 2.211336,2.971116 4.643175,3.184058 8.842198,4.977707 11.751076,5.019572 L 52.5,28.75 51.184896,27.434896 Z M 0.67434212,25.260417 c 0.02999,-0.72809 0.17808769,-0.876188 0.37760408,-0.377605 0.1805442,0.451172 0.1583402,0.990235 -0.049342,1.197917 -0.20768234,0.207682 -0.35540028,-0.161458 -0.32826209,-0.820312 z"
       id="path4164"
       inkscape:connector-curvature="0" />
    <path
       style="fill:#a00f00"
       d="M 21.100062,49.026352 C 16.692483,47.958063 13.243701,46.239789 10.274437,43.632741 8.3861669,41.974817 8.0729456,41.354023 8.3715094,39.861203 8.7051594,38.192952 7.8789469,35.817221 6.6542219,34.923234 6.3609187,34.709137 6.4213356,33.972679 6.7884819,33.286661 7.6537119,31.669964 7.1188406,31.188231 5.2482358,31.899433 3.4146333,32.596567 3.3811781,32.273426 5.0450368,29.936752 L 6.3400737,28.11804 4.9900909,27.618649 C 3.7781654,27.170329 3.7416016,27.035026 4.6325541,26.295601 6.1982126,24.99622 5.7957887,24.208059 3.7220839,24.512414 L 1.8191677,24.791703 4.4055502,22.156371 C 7.1426281,19.367492 6.9645263,18.318608 3.8707278,19.006673 2.4345512,19.326081 2.7378961,18.863931 5.9375,15.857918 14.394572,7.9125406 20.756942,5.4270622 26.498087,7.8258656 c 1.450941,0.6062419 3.76325,0.8893919 6.379986,0.78125 3.820976,-0.1579087 4.208381,-0.048588 5.613085,1.5839874 C 39.321021,11.155584 40,12.477208 40,13.128045 c 0,1.353056 3.033779,3.781499 6.25,5.002925 5.590637,2.12316 7.972966,3.678625 8.324659,5.43532 0.192277,0.960416 0.539525,2.516904 0.771662,3.458863 0.505765,2.052268 -1.74759,7.349847 -3.126298,7.349847 -0.494215,0 -1.911542,0.597666 -3.149615,1.328147 -2.297669,1.355658 -2.408039,1.357579 -9.762847,0.169951 -1.587816,-0.256394 -2.97461,0.0032 -4.6875,0.877385 -3.838465,1.959035 -5.256989,4.206306 -6.192645,9.810584 -0.621412,3.722061 -1.258185,3.936302 -7.327354,2.465285 z M 23.125,46.5625 c 0,-0.515625 0.397444,-0.9375 0.88321,-0.9375 0.727944,0 0.755412,-0.346794 0.15625,-1.972689 -0.568853,-1.543648 -0.557046,-2.030735 0.05429,-2.239583 C 24.648437,41.265936 25,40.839854 25,40.465879 c 0,-0.373974 0.449578,-1.176732 0.999062,-1.783905 0.921609,-1.018365 0.88032,-1.264452 -0.532573,-3.174213 -3.22679,-4.361544 -2.436911,-5.557255 1.780472,-2.695261 1.26636,0.859375 2.755413,1.555624 3.309006,1.547221 1.09907,-0.01668 6.078929,-1.070164 7.551517,-1.59751 1.558472,-0.558103 -0.584984,-1.485461 -2.532944,-1.095869 -0.919506,0.183901 -2.265778,0.01649 -2.991716,-0.372016 -2.864705,-1.533144 -4.409111,-8.111001 -1.801574,-7.673178 1.362995,0.228856 1.368172,-0.151223 0.03286,-2.411736 -2.099463,-3.554109 0.4445,-2.775252 6.373396,1.951271 4.25086,3.388791 8.807254,5.543958 12.694121,6.0043 2.655971,0.314561 3.243377,0.211776 3.243377,-0.567532 0,-0.523413 -0.586775,-1.105107 -1.303944,-1.292651 -1.079368,-0.282261 -1.267743,-0.739734 -1.09375,-2.656199 l 0.210194,-2.315211 -5,-2.127474 C 41.138054,18.163778 40.855174,18.11698 38.885046,19.039221 36.118023,20.334498 34.540527,20.248089 33.604954,18.75 33.175604,18.0625 32.363908,17.5 31.801186,17.5 31.238464,17.5 30.427931,17.078125 30,16.5625 c -1.187718,-1.431113 -1.558058,-1.139417 -1.610071,1.268161 -0.02616,1.21109 -0.307415,2.433835 -0.625,2.71721 -0.658203,0.587302 -5.889929,0.166067 -5.889929,-0.47423 0,-0.231035 0.84375,-1.343852 1.875,-2.472927 1.03125,-1.129074 1.875,-2.305797 1.875,-2.614941 0,-0.309144 0.539925,-1.065223 1.199834,-1.680176 1.065615,-0.993022 1.09934,-1.255496 0.301484,-2.346368 -0.710763,-0.9717927 -1.657181,-1.2328071 -4.532405,-1.2499996 -3.030446,-0.018119 -4.07855,0.2860612 -6.310141,1.8313316 -2.942549,2.037577 -3.755551,3.329338 -2.560317,4.068033 0.621217,0.383934 0.613764,0.785798 -0.0365,1.968172 -0.449409,0.817154 -0.970634,2.751359 -1.158281,4.298234 -0.276013,2.275343 -0.57991,2.815212 -1.591174,2.8267 -1.8065531,0.02053 -1.3392944,2.973686 1.065886,6.736599 1.666356,2.607019 1.823747,3.207779 1.199393,4.578085 -0.796206,1.747482 -0.472761,2.733616 0.896607,2.733616 0.921329,0 1.232242,1.335039 0.484947,2.082333 -0.750035,0.750036 -0.762845,3.512457 -0.01856,4.001534 1.578716,1.037384 5.821682,2.598154 7.152972,2.631212 C 22.567604,47.486159 23.125,47.128402 23.125,46.5625 Z M 18.242851,31.850653 C 17.205003,30.883751 16.875,29.857073 16.875,27.595109 c 0,-3.450394 1.432345,-6.033651 2.478552,-4.470109 0.345019,0.515625 0.637867,1.5 0.650775,2.1875 0.01291,0.6875 0.57346,1.953125 1.245673,2.8125 1.563812,1.99922 1.555376,2.5 -0.04212,2.5 -1.007695,0 -1.204787,0.275151 -0.895382,1.25 0.509096,1.60402 -0.332428,1.594121 -2.06965,-0.02435 z M 18.90625,16.285274 c -1.812938,-1.512412 -1.771463,-2.157273 0.240537,-3.739911 2.842462,-2.235882 6.509043,-1.398233 3.963475,0.905475 -0.679395,0.614843 -1.235262,1.777431 -1.235262,2.583529 0,1.75656 -1.056844,1.845881 -2.96875,0.250907 z M 27.1875,41.875 c 0.212449,-0.34375 -0.0522,-0.625 -0.588114,-0.625 -0.535912,0 -0.974386,0.28125 -0.974386,0.625 0,0.34375 0.264651,0.625 0.588114,0.625 0.323464,0 0.761937,-0.28125 0.974386,-0.625 z m 18.154718,-7.451914 c -0.428322,-0.69304 -4.041361,-1.557277 -4.517946,-1.080691 -0.18499,0.18499 0.608558,0.608264 1.763441,0.940608 2.791447,0.803303 3.176501,0.822885 2.754505,0.140083 z M 0.67434212,25.260417 c 0.02999,-0.72809 0.17808769,-0.876188 0.37760408,-0.377605 0.1805442,0.451172 0.1583402,0.990235 -0.049342,1.197917 -0.20768234,0.207682 -0.35540028,-0.161458 -0.32826209,-0.820312 z"
       id="path4162"
       inkscape:connector-curvature="0" />
    <path
       style="fill:#5d0b02"
       d="M 21.100062,49.026352 C 16.692483,47.958063 13.243701,46.239789 10.274437,43.632741 8.3861669,41.974817 8.0729456,41.354023 8.3715094,39.861203 8.7051594,38.192952 7.8789469,35.817221 6.6542219,34.923234 6.3609187,34.709137 6.4213356,33.972679 6.7884819,33.286661 7.6537119,31.669964 7.1188406,31.188231 5.2482358,31.899433 3.4146333,32.596567 3.3811781,32.273426 5.0450368,29.936752 L 6.3400737,28.11804 4.9900909,27.618649 C 3.7781654,27.170329 3.7416016,27.035026 4.6325541,26.295601 6.1982126,24.99622 5.7957887,24.208059 3.7220839,24.512414 L 1.8191677,24.791703 4.4055502,22.156371 C 7.1426281,19.367492 6.9645263,18.318608 3.8707278,19.006673 2.4345512,19.326081 2.7378961,18.863931 5.9375,15.857918 14.394572,7.9125406 20.756942,5.4270622 26.498087,7.8258656 c 1.450941,0.6062419 3.76325,0.8893919 6.379986,0.78125 3.820976,-0.1579087 4.208381,-0.048588 5.613085,1.5839874 C 39.321021,11.155584 40,12.477208 40,13.128045 c 0,1.353056 3.033779,3.781499 6.25,5.002925 5.590637,2.12316 7.972966,3.678625 8.324659,5.43532 0.192277,0.960416 0.539525,2.516904 0.771662,3.458863 0.505765,2.052268 -1.74759,7.349847 -3.126298,7.349847 -0.494215,0 -1.911542,0.597666 -3.149615,1.328147 -2.297669,1.355658 -2.408039,1.357579 -9.762847,0.169951 -1.587816,-0.256394 -2.97461,0.0032 -4.6875,0.877385 -3.838465,1.959035 -5.256989,4.206306 -6.192645,9.810584 -0.621412,3.722061 -1.258185,3.936302 -7.327354,2.465285 z m 3.241791,-2.215761 c 1.294851,-1.077655 1.414643,-1.456502 0.78125,-2.470726 -1.054147,-1.687958 -0.939556,-1.984864 0.579926,-1.502599 0.833207,0.264449 1.528263,0.105486 1.865429,-0.426634 0.813415,-1.283741 0.681588,-1.607143 -0.814607,-1.998406 -1.297987,-0.339432 -1.314662,-0.420982 -0.3125,-1.528358 1.366249,-1.509688 1.349457,-1.630679 -0.503851,-3.630431 -2.574474,-2.777903 -1.965826,-3.52784 1.432324,-1.764817 2.965135,1.538367 3.036422,1.544124 7.190703,0.580681 3.749057,-0.869464 4.390063,-0.872672 6.01937,-0.03013 2.193221,1.134159 5.565068,1.517672 5.700067,0.648324 0.149529,-0.962916 -9.449381,-4.022366 -11.397557,-3.632731 -1.295345,0.259068 -2.05566,-0.06219 -3.284001,-1.387589 C 29.629866,27.54309 29.440024,25 31.25,25 c 1.390994,0 1.617607,-1.270296 0.574362,-3.219617 -1.221468,-2.282334 -0.06556,-1.973972 3.927665,1.047781 5.301849,4.012017 11.000329,6.630304 14.706649,6.757282 2.597565,0.08899 3.00302,-0.06751 3.167867,-1.222726 0.131868,-0.924105 -0.222151,-1.432309 -1.170517,-1.680312 -1.172456,-0.306605 -1.30419,-0.650691 -0.957214,-2.500228 0.36206,-1.92995 0.228942,-2.211818 -1.329483,-2.815071 -0.952506,-0.368708 -3.611283,-1.401348 -5.908392,-2.294757 -4.005874,-1.557995 -4.273571,-1.583848 -6.550219,-0.632604 -2.219264,0.927268 -2.427035,0.918797 -3.194331,-0.130236 C 34.065017,17.692406 33.536813,16.554687 33.342602,15.78125 32.946916,14.205449 31.875,13.863081 31.875,15.3125 c 0,1.061356 -0.978707,1.257097 -1.5625,0.3125 C 30.100051,15.28125 29.35689,15 28.661031,15 c -2.301867,0 -0.831186,-1.454356 3.252293,-3.216191 4.178439,-1.8028052 4.097687,-2.3241465 -0.1623,-1.047823 -2.042882,0.612062 -2.739123,0.571595 -4.135012,-0.240335 C 23.506581,8.1053669 18.885141,8.5970888 15,11.837997 13.274724,13.277188 12.785869,14.167223 12.686465,16.050133 12.396171,21.54892 11.788116,23.75 10.559353,23.75 c -2.2571024,0 -1.1197174,5.577299 1.82088,8.9289 0.841797,0.959454 0.865526,1.431581 0.168788,3.358375 -0.819491,2.266262 -0.37047,3.259522 1.513479,3.347905 0.34375,0.01613 -0.189289,0.745207 -1.184531,1.620179 -1.796888,1.579742 -1.800977,1.599411 -0.585195,2.815193 1.29425,1.29425 7.993932,4.278915 9.582226,4.26882 0.515625,-0.0032 1.625709,-0.578729 2.466853,-1.278781 z M 17.753454,30.384002 c -0.581067,-1.514236 0.02829,-6.214237 0.840296,-6.48126 0.429687,-0.1413 0.78125,0.215322 0.78125,0.792492 0,0.57717 0.480438,1.862717 1.06764,2.856771 1.021902,1.729944 1.015209,1.847016 -0.15625,2.732806 -1.543594,1.167177 -2.114531,1.189535 -2.532936,0.09919 z m 5.655451,-10.43027 C 22.850671,19.050491 25.553854,16.25 26.983946,16.25 c 1.298416,0 1.394621,0.501694 0.531523,2.771812 -0.638088,1.678299 -3.275387,2.276792 -4.106564,0.93192 z m -4.400358,-4.388349 c -1.168011,-1.290637 -1.163882,-1.32687 0.284873,-2.5 1.410798,-1.142395 4.210104,-1.691464 3.679091,-0.721633 -0.141161,0.257813 -0.648134,1.382813 -1.126607,2.5 -1.02385,2.390588 -1.270258,2.453257 -2.837357,0.721633 z M 0.67434212,25.260417 c 0.02999,-0.72809 0.17808769,-0.876188 0.37760408,-0.377605 0.1805442,0.451172 0.1583402,0.990235 -0.049342,1.197917 -0.20768234,0.207682 -0.35540028,-0.161458 -0.32826209,-0.820312 z"
       id="path4160"
       inkscape:connector-curvature="0" />
    <path
       style="fill:#1a0d0c"
       d="m 23.533253,49.557521 c -0.961227,-0.247732 -0.777106,-0.553752 1.101033,-1.82998 1.918321,-1.303533 2.157525,-1.715157 1.601007,-2.755022 C 25.716169,44.002527 25.781984,43.75 26.553909,43.75 c 1.407688,0 2.589333,-2.835593 1.652197,-3.964774 -0.40022,-0.482235 -0.546613,-1.348624 -0.325318,-1.925309 0.251105,-0.654369 -0.138212,-1.623924 -1.035663,-2.579218 -1.678784,-1.786983 -1.516544,-1.851909 1.489296,-0.595989 1.988686,0.830926 2.691473,0.829327 6.32953,-0.01439 3.573579,-0.828768 4.312704,-0.835208 5.829598,-0.05079 2.854742,1.476244 6.040675,1.856664 6.89799,0.823663 1.053793,-1.269744 0.08468,-1.917255 -5.219814,-3.4876 -2.414926,-0.714917 -4.946176,-1.719695 -5.625,-2.232841 C 34.964542,28.526721 34.375,28.517152 34.375,29.6875 c 0,1.336059 -0.822101,1.161042 -2.391054,-0.509032 -1.690149,-1.799082 -1.72129,-2.687924 -0.108946,-3.109561 0.914007,-0.239018 1.25,-0.85251 1.25,-2.282385 0,-2.254424 -0.171866,-2.31401 6.103111,2.115925 4.188874,2.957212 9.65602,4.912819 12.863748,4.601382 1.729118,-0.16788 1.995076,-0.44607 2.170013,-2.269815 0.159667,-1.664551 -0.05671,-2.145453 -1.0865,-2.414748 -0.992221,-0.259472 -1.251845,-0.773903 -1.136872,-2.252646 0.143158,-1.84125 -0.04702,-1.997788 -4.851,-3.992741 -2.75,-1.141997 -5.84375,-2.483459 -6.875,-2.981028 -1.18354,-0.571047 -2.093963,-0.685833 -2.46875,-0.31126 -0.326562,0.326375 -1.275781,0.593409 -2.109375,0.593409 -1.350694,0 -1.474818,-0.204038 -1.140625,-1.875 0.334203,-1.671015 0.210091,-1.875 -1.140819,-1.875 -0.8337,0 -1.793528,0.492188 -2.13295,1.09375 -0.486791,0.862744 -0.78005,0.932453 -1.388507,0.330049 -0.609763,-0.603696 -0.192349,-1.02639 1.992325,-2.017523 1.520036,-0.689603 3.396513,-1.26 4.169951,-1.26755 C 37.655483,11.248483 37.884088,10.634088 36.75,9.5 36.220314,8.9703144 36.206989,8.75 36.704638,8.75 37.707959,8.75 40,11.829468 40,13.177479 c 0,1.309802 3.076937,3.748455 6.25,4.953491 5.590637,2.12316 7.972966,3.678625 8.324659,5.43532 0.192277,0.960416 0.539525,2.516904 0.771662,3.458863 0.505765,2.052268 -1.74759,7.349847 -3.126298,7.349847 -0.494215,0 -1.911542,0.597666 -3.149615,1.328147 -2.297669,1.355658 -2.408039,1.357579 -9.762847,0.169951 -1.587816,-0.256394 -2.97461,0.0032 -4.6875,0.877385 -3.838465,1.959035 -5.256989,4.206306 -6.192645,9.810584 -0.546724,3.274704 -1.514787,3.867401 -4.894163,2.996454 z M 8.7606812,42.20037 C 8.3164875,41.665149 8.1529462,40.598737 8.37772,39.703167 8.7445219,38.241713 7.8672437,35.808679 6.6542219,34.923234 6.3609187,34.709137 6.4213356,33.972679 6.7884819,33.286661 7.6537119,31.669964 7.1188406,31.188231 5.2482358,31.899433 3.4146333,32.596567 3.3811781,32.273426 5.0450368,29.936752 L 6.3400737,28.11804 4.9900909,27.618649 C 3.7781654,27.170329 3.7416016,27.035026 4.6325541,26.295601 6.1982126,24.99622 5.7957887,24.208059 3.7220839,24.512414 L 1.8191677,24.791703 4.4055502,22.156371 C 7.1426281,19.367492 6.9645263,18.318608 3.8707278,19.006673 2.4345512,19.326081 2.7378961,18.863931 5.9375,15.857918 14.470166,7.8415206 20.748024,5.4233361 26.637893,7.8842806 28.307939,8.58207 30.067519,8.7888988 32.339221,8.5544381 34.146399,8.3679213 35.625,8.3212481 35.625,8.4507206 c 0,0.1294725 -1.565263,0.72881 -3.478362,1.3318613 -2.450961,0.7725971 -3.604747,0.8934391 -3.90625,0.4091191 -0.692173,-1.1118716 -5.575211,-2.1543297 -7.978939,-1.7033879 -1.221017,0.2290644 -3.600927,1.5080169 -5.28869,2.8421159 -2.721326,2.151085 -3.064336,2.690575 -3.03046,4.766353 0.05921,3.628216 -0.72466,6.376557 -2.0157803,7.067544 -1.7598462,0.941841 -1.4711556,4.025035 0.7444733,7.950913 1.711093,3.031891 1.839364,3.600875 1.17394,5.20735 -0.586584,1.416141 -0.579178,2.005815 0.03448,2.74523 0.644732,0.776855 0.50803,1.21519 -0.780968,2.504189 -1.3603404,1.36034 -1.6628054,1.441639 -2.3377654,0.628362 z m 9.3851118,-14.23162 0.02079,-2.03125 1.256257,1.508896 c 0.981433,1.178805 1.07943,1.621075 0.447957,2.02168 -1.401797,0.889295 -1.746394,0.589781 -1.725008,-1.499326 z M 0.67434212,25.260417 c 0.02999,-0.72809 0.17808769,-0.876188 0.37760408,-0.377605 0.1805442,0.451172 0.1583402,0.990235 -0.049342,1.197917 C 0.79492206,26.288411 0.64720412,25.919271 0.67434231,25.260417 Z M 24.649291,19.313177 c -0.269042,-0.435319 0.02077,-1.1082 0.68718,-1.595492 1.662148,-1.215392 2.196126,-1.039693 1.61495,0.531378 -0.602725,1.629321 -1.652827,2.114709 -2.30213,1.064114 z m -5.191279,-4.525653 c -0.65305,-0.786878 -0.573831,-1.065356 0.460545,-1.618937 2.155237,-1.153448 2.618535,-0.562965 1.14231,1.455894 -0.722873,0.988587 -0.902546,1.006863 -1.602855,0.163043 z"
       id="path4158"
       inkscape:connector-curvature="0" />
  </g>
</svg>
