<?xml version="1.0" encoding="UTF-8" standalone="no"?>
<!-- Created with Inkscape (http://www.inkscape.org/) -->

<svg
   xmlns:dc="http://purl.org/dc/elements/1.1/"
   xmlns:cc="http://creativecommons.org/ns#"
   xmlns:rdf="http://www.w3.org/1999/02/22-rdf-syntax-ns#"
   xmlns:svg="http://www.w3.org/2000/svg"
   xmlns="http://www.w3.org/2000/svg"
   xmlns:xlink="http://www.w3.org/1999/xlink"
   xmlns:sodipodi="http://sodipodi.sourceforge.net/DTD/sodipodi-0.dtd"
   xmlns:inkscape="http://www.inkscape.org/namespaces/inkscape"
   id="svg3780"
   version="1.1"
   inkscape:version="0.91 r13725"
   width="131.25"
   height="56.25"
   viewBox="0 0 131.25 56.25"
   sodipodi:docname="SymbianOS.svg">
  <metadata
     id="metadata3786">
    <rdf:RDF>
      <cc:Work
         rdf:about="">
        <dc:format>image/svg+xml</dc:format>
        <dc:type
           rdf:resource="http://purl.org/dc/dcmitype/StillImage" />
        <dc:title></dc:title>
      </cc:Work>
    </rdf:RDF>
  </metadata>
  <defs
     id="defs3784" />
  <sodipodi:namedview
     pagecolor="#ffffff"
     bordercolor="#666666"
     borderopacity="1"
     objecttolerance="10"
     gridtolerance="10"
     guidetolerance="10"
     inkscape:pageopacity="0"
     inkscape:pageshadow="2"
     inkscape:window-width="640"
     inkscape:window-height="480"
     id="namedview3782"
     showgrid="false"
     inkscape:zoom="1.9961905"
     inkscape:cx="65.625"
     inkscape:cy="28.125"
     inkscape:window-x="0"
     inkscape:window-y="0"
     inkscape:window-maximized="0"
     inkscape:current-layer="svg3780" />
  <image
     width="131.25"
     height="56.25"
     preserveAspectRatio="none"
     style="image-rendering:optimizeQuality"
     xlink:href="file:///media/havoc/USB%20DISK/pics/_smallLogos/SymbianOS.png"
     id="image3788"
     x="0"
     y="0"
     sodipodi:absref="/media/havoc/USB DISK/pics/_smallLogos/SymbianOS.png" />
  <g
     id="g4119">
    <path
       style="fill:#fcfcfc"
       d="M 0,28.125 0,0 l 65.625,0 65.625,0 0,28.125 0,28.125 -65.625,0 L 0,56.25 0,28.125 Z"
       id="path4135"
       inkscape:connector-curvature="0" />
    <path
       style="fill:#d1d1d1"
       d="m 104.375,52.058607 c -1.95543,-0.714815 -3.74555,-2.972654 -4.746725,-5.986924 -2.836925,-8.541176 4.605505,-17.158174 10.836505,-12.546724 2.207,1.633369 3.42557,4.151083 3.77644,7.8026 0.67197,6.993337 -4.55095,12.674075 -9.86622,10.731048 z m 4.97801,-5.142519 C 109.70886,46.251187 110,44.141812 110,42.228588 c 0,-4.926362 -2.39539,-7.251412 -5.29011,-5.134749 -1.65412,1.209522 -2.11253,7.320284 -0.70976,9.461193 1.28696,1.964154 4.38316,2.172994 5.35288,0.361056 z m 7.61687,4.005341 c -1.34103,-1.128403 -1.97067,-2.163685 -1.84622,-3.035664 0.23187,-1.624811 2.47999,-2.07953 3.60131,-0.728426 1.05462,1.270747 4.15536,1.256759 4.64566,-0.02096 0.57754,-1.505034 0.59869,-1.48291 -2.90188,-3.035271 -1.80469,-0.800306 -3.82031,-2.054083 -4.47917,-2.786173 -2.51733,-2.797149 -0.8834,-7.509235 3.0545,-8.80886 1.87097,-0.617475 2.57534,-0.553591 4.55339,0.412973 1.92572,0.940996 2.34003,1.473909 2.34003,3.009889 0,2.2349 -1.68011,2.848971 -3.43921,1.257009 -0.73116,-0.661694 -1.63646,-0.896983 -2.4535,-0.637666 -2.02558,0.642895 -1.52341,2.17443 1.04896,3.199123 5.54061,2.207082 6.90296,3.971465 6.15304,7.968872 -0.52734,2.810962 -2.24291,4.241384 -5.53145,4.61205 -2.29368,0.25853 -3.02327,0.04223 -4.74546,-1.4069 z M 20.65697,36.90697 c -1.799124,-1.799124 -1.560947,-3.261204 0.773355,-4.747339 1.264212,-0.804861 1.964321,-1.730245 1.891403,-2.5 -0.09215,-0.972785 -2.39035,-7.806882 -5.552852,-16.512387 -0.247142,-0.680313 -0.533893,-0.519878 -1.117085,0.625 -0.702735,1.379557 -1.123267,1.522002 -4.030692,1.365298 -4.0290934,-0.21716 -4.2767652,0.834936 -0.424877,1.804852 3.946299,0.99369 6.174065,3.70594 5.734676,6.98183 -0.178731,1.332538 -0.840988,3.002283 -1.471682,3.710546 -2.50883,2.81739 -7.6214679,3.717337 -12.0423903,2.119752 C 1.5557779,28.720627 0.79351881,27.436502 1.7694226,25.294626 2.5792823,23.517178 2.6196864,23.513828 8.59375,24.728777 10.163728,25.048065 10.625,24.92972 10.625,24.207634 10.625,23.626251 9.5945981,23.013936 7.89686,22.58644 3.8899528,21.577489 2.4324927,20.138337 2.0586442,16.821564 1.7899271,14.437513 1.9897654,13.709516 3.3598898,12.081215 5.6041586,9.4140531 9.163605,8.5689925 13.157644,9.755095 c 1.671262,0.496311 3.201623,1.166068 3.400803,1.488348 0.199181,0.32228 0.914387,0.03373 1.58935,-0.64124 1.398572,-1.3985724 3.641558,-1.594013 5.11801,-0.445953 0.552596,0.429688 1.491921,2.609375 2.087389,4.84375 0.595467,2.234375 1.27763,4.285219 1.515918,4.557432 0.238287,0.272212 1.063753,-1.628926 1.834368,-4.224751 0.864156,-2.910919 1.844376,-4.956906 2.55773,-5.3386816 1.659604,-0.8881925 4.130794,-0.7627075 5.155283,0.2617816 0.579905,0.579905 1.182282,0.68583 1.763393,0.310083 0.485436,-0.313883 2.007612,-0.547966 3.382612,-0.520185 1.375,0.02778 3.549241,-0.1476709 4.831646,-0.3898952 1.677883,-0.3169238 2.758005,-0.1610469 3.852258,0.5559352 1.38841,0.909722 1.693055,0.910319 3.504056,0.0069 2.460881,-1.2276484 5.982845,-0.7623902 7.774677,1.02705 1.127482,1.125976 1.313113,2.208395 1.494713,8.715608 C 63.263537,28.693355 62.8298,30 59.6875,30 56.750687,30 56.25,28.770351 56.25,21.557761 c 0,-5.400269 -0.113316,-6.002824 -1.09375,-5.816 -0.928863,0.176998 -1.140861,1.149671 -1.40625,6.452078 -0.171875,3.434014 -0.540036,6.595223 -0.818136,7.024911 -0.82425,1.273537 -4.661776,0.970173 -5.409874,-0.427662 -0.355844,-0.664901 -0.64699,-3.919899 -0.64699,-7.233327 0,-5.400269 -0.113316,-6.002824 -1.09375,-5.816 -0.928863,0.176998 -1.140861,1.149671 -1.40625,6.452078 -0.171875,3.434014 -0.540036,6.595223 -0.818136,7.024911 -0.82425,1.273537 -4.661776,0.970173 -5.409874,-0.427662 -0.355844,-0.664901 -0.64699,-4.602401 -0.64699,-8.75 0,-4.147598 -0.210938,-7.539139 -0.46875,-7.536757 -0.257813,0.0024 -2.00199,4.380546 -3.87595,9.729255 -3.692471,10.539149 -4.829384,12.839887 -7.031712,14.229877 -2.683311,1.69356 -4.101507,1.808618 -5.466618,0.443507 z M 69.351181,29.21875 C 67.817406,28.445312 66.243675,27.109375 65.853994,26.25 64.830556,23.992962 64.293206,4.7257697 65.218412,3.460476 65.616169,2.9165162 67.023512,2.2958879 68.34585,2.0813021 71.306531,1.6008494 71.85165,2.2945225 71.867362,6.5625 l 0.0115,3.125 3.076382,0.00344 c 3.931687,0.00437 5.962212,1.7852905 7.306006,6.4077715 1.675681,5.764144 -0.585513,11.753753 -5.158619,13.66452 -2.869087,1.198782 -4.525125,1.082457 -7.751456,-0.544487 z M 74.6875,20 c 0,-3.73712 -0.112631,-4.078496 -1.40625,-4.262219 C 71.935587,15.546666 71.875,15.730295 71.875,20 c 0,4.269705 0.06056,4.453334 1.40625,4.262219 C 74.574869,24.078496 74.6875,23.73712 74.6875,20 Z m 21.875,10.034152 c -3.597619,-1.472478 -5.0354,-6.400404 -2.873081,-9.847369 0.979262,-1.561049 2.119587,-2.269273 5.189075,-3.222789 2.339666,-0.726802 3.318756,-1.245764 2.415886,-1.280533 -0.83497,-0.03216 -2.47808,0.288661 -3.651355,0.712922 -1.900856,0.687359 -2.229063,0.640309 -3.013125,-0.431956 -1.744013,-2.385087 -1.123888,-4.051788 2.025969,-5.445118 3.961551,-1.752384 8.423201,-1.3492365 10.743531,0.970769 1.49851,1.498311 1.68546,2.20055 1.88901,7.095959 0.17911,4.307482 -0.002,5.856132 -0.87376,7.475055 -1.87955,3.490114 -8.01063,5.545365 -11.85215,3.97306 z M 101.875,23.75 c 0,-0.694444 -0.41667,-1.25 -0.9375,-1.25 -0.52083,0 -0.9375,0.555556 -0.9375,1.25 0,0.694444 0.41667,1.25 0.9375,1.25 0.52083,0 0.9375,-0.555556 0.9375,-1.25 z m -16.300637,4.590956 c -1.388819,-2.59805 -1.229157,-15.06229 0.221293,-17.27524 2.775481,-4.2345491 5.101275,-0.321991 5.125157,8.621784 C 90.940063,26.905433 90.016281,30 87.842288,30 86.987125,30 86.123513,29.368248 85.574363,28.340956 Z m 25.697627,0.450132 C 110.91614,28.126187 110.625,23.788624 110.625,19.152059 l 0,-8.430119 2.15689,-0.711839 c 1.53761,-0.507456 2.51284,-0.5213466 3.39658,-0.048382 0.84389,0.4516366 1.7646,0.4638866 2.88379,0.038369 2.8057,-1.0667211 4.68889,-0.7200949 6.62916,1.220181 l 1.84527,1.845272 -0.17459,8.310978 -0.1746,8.310981 -2.47507,0.201807 c -3.57068,0.291139 -4.08743,-0.742956 -4.08743,-8.179591 0,-5.544988 -0.11181,-6.155066 -1.09375,-5.967955 -0.92886,0.176998 -1.14086,1.149671 -1.40625,6.452078 -0.17187,3.434014 -0.54004,6.595223 -0.81814,7.024911 -0.8386,1.295722 -5.28102,0.980911 -6.03487,-0.427662 z M 85.982144,7.1428569 C 85.441963,6.6026787 85,5.7790179 85,5.3125 85,4.218187 86.718187,2.5 87.8125,2.5 c 1.094312,0 2.8125,1.718187 2.8125,2.8125 0,1.0943131 -1.718188,2.8125 -2.8125,2.8125 -0.466519,0 -1.290181,-0.4419644 -1.830356,-0.9821431 z"
       id="path4133"
       inkscape:connector-curvature="0" />
    <path
       style="fill:#a3a3a3"
       d="m 102.50831,50.104463 c -2.34557,-2.345566 -3.414266,-6.052378 -2.843079,-9.861311 0.350309,-2.336078 0.996779,-3.552225 2.899889,-5.455329 2.18743,-2.187433 2.69029,-2.409929 4.70699,-2.082663 4.16834,0.676429 6.47789,4.172471 6.47789,9.805803 0,7.655966 -6.67226,12.162926 -11.24169,7.5935 z m 7.14375,-2.743529 c 0.61016,-0.871128 0.97294,-2.746062 0.97294,-5.02841 0,-3.03066 -0.25657,-3.89592 -1.53409,-5.173433 -1.85094,-1.850934 -3.06626,-1.933742 -4.68105,-0.318952 -2.27382,2.273823 -2.43935,8.791087 -0.27817,10.95227 1.4363,1.436297 4.3729,1.206771 5.52037,-0.431475 z m 7.61973,3.218703 c -2.88317,-2.267901 -1.78158,-4.948651 1.12892,-2.74726 1.77616,1.34342 4.54806,1.164726 5.3562,-0.345294 0.92268,-1.724031 0.41522,-2.31616 -3.44985,-4.02548 -3.95659,-1.749789 -5.59165,-3.868095 -5.01437,-6.496395 0.85474,-3.891611 5.53796,-5.645719 8.61375,-3.226298 1.6731,1.316058 2.36971,3.76109 1.07157,3.76109 -0.35584,0 -1.35174,-0.461771 -2.2131,-1.026157 -1.25131,-0.81989 -1.87505,-0.885399 -3.10301,-0.325899 -2.79469,1.273348 -1.82835,3.092056 2.35958,4.440848 4.66933,1.503836 6.42113,6.650422 3.31943,9.752117 -1.97755,1.977549 -5.71789,2.088208 -8.06912,0.238728 z m -96.237422,-14.2226 c -1.474527,-1.629333 -1.29067,-2.442398 0.796339,-3.521632 2.381929,-1.231744 2.860255,-2.911476 1.550389,-5.444479 C 22.026398,24.77123 18.125,13.212835 18.125,11.819066 c 0,-1.9749504 3.604578,-2.4847047 5.128856,-0.725316 0.521175,0.601563 1.453249,3.003236 2.071276,5.337053 0.618027,2.333816 1.314364,4.361148 1.547416,4.505181 0.233051,0.144034 1.095029,-1.878638 1.915506,-4.494825 0.820478,-2.616188 1.87078,-5.135707 2.334005,-5.598932 1.158497,-1.1584976 4.451648,-1.078127 4.91136,0.119863 0.378688,0.986845 -5.222858,17.469419 -7.381018,21.718678 -1.117154,2.199594 -4.315961,4.811491 -5.899284,4.816896 -0.37641,0.0013 -1.149848,-0.511997 -1.71875,-1.140627 z M 3.90625,29.102074 C 1.6808493,28.097719 1.3170246,26.652482 2.8602968,24.947185 3.7686854,23.943427 4.062269,23.932273 6.6215006,24.804291 8.1482494,25.324507 9.8350269,25.582207 10.369895,25.376959 12.250286,24.655385 10.93049,23.031077 7.5307844,21.88279 3.5460926,20.536917 2.5,19.358331 2.5,16.214831 c 0,-4.880402 4.8214369,-7.6690179 10.490931,-6.06773 2.662888,0.752104 2.946569,1.010729 2.946569,2.686313 0,1.83071 -0.04334,1.854086 -3.4375,1.854086 -4.4033556,0 -4.7483981,1.446824 -0.625,2.620737 5.561009,1.583194 7.343073,6.374185 3.832424,10.303284 -1.609458,1.801295 -2.200036,2.026725 -5.7812502,2.206763 -2.5634319,0.12887 -4.7144847,-0.127047 -6.0199238,-0.71621 z m 65.469469,-0.196795 c -3.494663,-1.74635 -4.036757,-3.58095 -4.2643,-14.431526 -0.177694,-8.4732538 -0.07234,-9.7310039 0.905562,-10.8115777 0.73985,-0.8175285 1.738694,-1.1609899 3.013582,-1.0362527 1.857962,0.1817858 1.911749,0.2788707 2.094375,3.7803274 L 71.312381,10 l 3.141888,0 c 2.618831,0 3.437587,0.295705 4.918125,1.776239 3.433337,3.433341 3.926306,10.30128 1.046168,14.575116 -2.488675,3.692942 -6.778275,4.685015 -11.042843,2.553924 z m 5.869912,-4.893896 c 0.561788,-1.464001 0.441888,-7.320055 -0.169631,-8.284815 -0.291425,-0.459764 -1.201181,-0.741014 -2.021681,-0.625 -1.371144,0.19387 -1.507063,0.534225 -1.680238,4.207603 -0.103631,2.198168 -0.04212,4.377856 0.136631,4.84375 0.450132,1.173014 3.271507,1.066095 3.734919,-0.141538 z m 19.706294,4.161694 c -2.06715,-2.067147 -2.384763,-4.656413 -0.9189,-7.491081 0.920181,-1.779426 2.752963,-2.777613 6.435725,-3.505077 1.15009,-0.227181 2.03125,-0.786384 2.03125,-1.289078 0,-1.0645 -1.59648,-1.137785 -4.294794,-0.197149 C 95.845637,16.513242 94.375,15.644784 94.375,13.428834 94.375,11.637064 98.133994,10 102.24823,10 c 2.31437,0 3.19019,0.342269 4.67484,1.826923 1.74683,1.746822 1.82693,2.071963 1.82693,7.415713 0,4.721185 -0.20262,5.846377 -1.30519,7.248065 C 105.59901,28.837263 103.02313,30 99.670462,30 97.3078,30 96.444656,29.665807 94.951925,28.173077 Z M 102.5,23.75 c 0,-1.467989 -0.2756,-1.875 -1.26961,-1.875 -0.6983,0 -1.431509,0.421875 -1.629371,0.9375 -0.558175,1.454582 0.228506,2.8125 1.629371,2.8125 0.99401,0 1.26961,-0.407011 1.26961,-1.875 z m -63.958419,5.168406 c -0.178501,-0.28882 -0.39374,-4.312052 -0.47831,-8.940517 L 37.909509,11.5625 39.567813,10.752869 c 1.139952,-0.556556 2.014448,-0.619028 2.797672,-0.199859 0.697634,0.373363 1.48978,0.388076 2.043191,0.03795 1.405664,-0.8893175 4.543836,-0.6920713 6.077258,0.381979 1.257213,0.880587 1.520919,0.880587 2.778132,0 2.182493,-1.5286765 5.890527,-1.2501646 7.720588,0.579897 1.512957,1.512957 1.54834,1.757734 1.377841,9.53125 L 62.1875,29.0625 l -2.5,0 -2.5,0 -0.176719,-7.03125 c -0.154935,-6.164506 -0.309024,-7.03007 -1.25,-7.021679 -2.269445,0.02024 -2.586569,0.88076 -2.76869,7.512889 l -0.179591,6.54004 -2.5,0 -2.5,0 -0.176719,-7.03125 c -0.154935,-6.164506 -0.309024,-7.03007 -1.25,-7.021679 -2.269445,0.02024 -2.586569,0.88076 -2.76869,7.512889 L 43.4375,29.0625 41.151814,29.253017 c -1.257128,0.104784 -2.431733,-0.04579 -2.610233,-0.334611 z M 86.199237,28.030145 C 85.234769,26.228022 84.70975,19.114073 85.266981,15.39819 c 0.234594,-1.564376 0.933456,-3.470342 1.553025,-4.235479 L 87.9465,9.7715512 88.985831,11.357778 c 1.437163,2.193386 1.9499,10.5478 0.894356,14.572449 -0.920037,3.507972 -2.457868,4.385276 -3.68095,2.099918 z m 25.496833,0.957597 C 111.45073,28.742401 111.25,24.644081 111.25,19.880364 l 0,-8.661303 1.70104,-0.646732 c 1.18233,-0.449525 2.14613,-0.443932 3.16071,0.01834 0.98916,0.450691 1.83786,0.462683 2.63288,0.0372 2.09304,-1.1201611 4.96438,-0.7256886 6.59628,0.906216 1.47268,1.472683 1.53409,1.861911 1.53409,9.723438 l 0,8.189345 -2.65625,-0.192186 -2.65625,-0.192186 -0.17672,-7.03125 c -0.18355,-7.303148 -0.49293,-7.990387 -2.8136,-6.25 -0.82781,0.620813 -1.07695,2.064747 -1.21321,7.03125 l -0.17147,6.25 -2.52267,0.185659 c -1.38747,0.102113 -2.72341,-0.01507 -2.96875,-0.260416 z M 86.477619,5.9416807 C 86.261144,5.3775443 86.383713,4.616288 86.75,4.25 c 0.952256,-0.9522556 2.756506,-0.08193 2.507762,1.2096827 -0.277062,1.438676 -2.279787,1.7858923 -2.780143,0.481998 z"
       id="path4131"
       inkscape:connector-curvature="0" />
    <path
       style="fill:#2396c0"
       d="m 102.83206,49.763882 c -3.618485,-3.61849 -3.631585,-10.964354 -0.026,-14.56996 2.42037,-2.420356 4.95905,-2.711023 7.33754,-0.840106 2.33381,1.835774 3.16301,4.455803 2.86942,9.066531 -0.21854,3.432132 -0.53704,4.34881 -2.06514,5.943811 -2.34686,2.449582 -5.89139,2.624159 -8.11583,0.399724 z m 6.88385,-1.922973 c 1.27752,-1.277513 1.53409,-2.142773 1.53409,-5.173433 0,-5.577366 -2.77161,-8.495561 -6.33849,-6.673724 -2.64435,1.35064 -3.92398,6.745694 -2.3312,9.828586 2.00382,3.878465 4.55423,4.599945 7.1356,2.018571 z m 7.1614,1.849055 c -1.94819,-2.073757 -1.11042,-2.734387 1.60984,-1.269436 2.71059,1.45975 5.46325,0.7757 5.77957,-1.436257 0.2766,-1.934147 -0.81439,-3.086024 -3.75833,-3.968048 -2.8083,-0.841387 -4.88339,-3.100486 -4.88339,-5.316419 0,-1.963665 2.64246,-4.574804 4.62968,-4.574804 2.06024,0 4.58629,1.184076 5.03815,2.361611 0.53512,1.394507 -0.0896,1.681613 -1.8821,0.864915 -2.4465,-1.114703 -4.52975,-0.889084 -5.31356,0.575466 -0.87041,1.626397 0.5063,3.387452 3.04512,3.895216 0.93686,0.187373 2.46936,0.943191 3.40555,1.679598 2.15625,1.696105 2.38932,5.56104 0.45216,7.498194 -1.88361,1.883609 -6.21726,1.718198 -8.12269,-0.310036 z M 21.375,36.125 c -1.167543,-1.167543 -0.923692,-1.779884 1.565779,-3.931861 l 2.315778,-2.001833 -1.636216,-3.689403 C 21.157986,20.949688 18.265675,12.290539 18.578124,11.40625 c 0.357902,-1.012926 3.581487,-1.012926 4.400539,0 0.347444,0.429688 1.213908,2.855464 1.925474,5.390614 0.711566,2.535149 1.450793,4.766399 1.642727,4.958333 0.685898,0.685899 1.492527,-0.891658 2.974677,-5.817697 1.502544,-4.993817 1.507248,-5.00024 3.803932,-5.193978 1.720843,-0.145163 2.299527,0.04379 2.299527,0.750865 0,0.997617 -6.588496,19.893201 -7.608286,21.820307 -0.626787,1.184445 -4.113493,3.553975 -5.235464,3.55797 C 22.420313,36.873949 21.7875,36.5375 21.375,36.125 Z M 4.21875,28.648574 C 2.3842851,27.978571 1.9382604,26.244258 3.3080511,25.107433 c 0.584727,-0.485281 1.617592,-0.379514 3.7372058,0.382695 2.727195,0.980694 3.0005681,0.981904 3.9649141,0.01756 1.093722,-1.093722 0.812962,-2.852852 -0.527245,-3.303504 C 10.045442,22.057073 8.4940656,21.631242 7.0354237,21.257889 5.0708271,20.755034 4.1289684,20.087152 3.4020337,18.681416 0.66434425,13.387308 6.58493,8.5816425 13.21601,10.715534 c 2.932812,0.943783 3.425193,1.643108 2.261164,3.211518 -0.682223,0.919228 -1.111614,0.964374 -3.155664,0.331789 -2.007513,-0.621278 -2.5202019,-0.578007 -3.3838106,0.285603 -1.3620794,1.362079 -0.2155332,2.776442 2.6930396,3.322094 3.586825,0.672893 5.244261,2.430359 5.244261,5.560766 0,2.260623 -0.319801,2.980674 -1.922953,4.329637 -1.597126,1.343893 -2.523758,1.609698 -5.4687501,1.568717 C 7.5331087,29.29852 5.1640625,28.993832 4.21875,28.648574 Z m 35.35876,0.23981 c -0.804208,-0.511499 -1.360527,-16.688701 -0.600061,-17.449166 0.77148,-0.77148 10.027662,-0.839284 11.485962,-0.08414 1.063815,0.550872 1.785248,0.550312 2.998158,-0.0023 2.231286,-1.016642 5.379754,-0.906745 7.024365,0.245185 1.312748,0.919472 1.389066,1.413708 1.389066,8.995619 0,6.860853 -0.148519,8.079684 -1.025548,8.416232 -0.564052,0.216447 -1.548427,0.227585 -2.1875,0.02475 C 57.628329,28.706496 57.5,27.95409 57.5,22.221911 57.5,14.793168 56.833006,13.439722 54.065629,15.252977 52.569831,16.233061 52.5,16.553957 52.5,22.44754 c 0,6.53767 -0.448669,7.464394 -3.192264,6.593611 -0.994596,-0.315672 -1.163905,-1.212033 -1.318202,-6.978863 -0.144701,-5.408223 -0.370112,-6.738177 -1.234199,-7.281956 -0.809502,-0.509428 -1.358575,-0.392512 -2.34375,0.499059 -1.130989,1.023531 -1.286585,1.9004 -1.286585,7.250608 0,4.973321 -0.18078,6.155637 -0.988617,6.465633 -1.261221,0.483975 -1.655286,0.467459 -2.558873,-0.107248 z M 68.987906,28.181507 C 66.169775,26.463074 65.625,24.122523 65.625,13.733263 65.625,3.944095 65.771038,3.4438984 68.75,3.0297339 70.23935,2.8226697 70.327131,2.9880548 70.625,6.5625 l 0.3125,3.75 2.8125,0.03921 c 1.546875,0.02157 3.469225,0.395823 4.271881,0.831676 1.891869,1.027304 3.825669,5.325958 3.825669,8.504108 0,3.083575 -1.847319,7.303691 -3.793981,8.667187 -1.993044,1.395983 -6.637838,1.307253 -9.065663,-0.17318 z m 6.119132,-3.590874 C 75.951181,23.826693 76.25,22.654897 76.25,20.108596 c 0,-4.865079 -2.238438,-7.155873 -4.642856,-4.751453 -1.462569,1.462564 -1.378069,8.725139 0.111606,9.592795 1.5228,0.886948 2.076019,0.828283 3.388288,-0.359306 z m 11.501706,3.380158 c -2.222956,-3.392656 -1.703025,-16.244173 0.694406,-17.164153 1.242756,-0.476892 1.882669,0.639401 2.762106,4.818362 0.847138,4.025449 -0.02675,11.479333 -1.520975,12.973574 -0.811118,0.811122 -1.041743,0.736321 -1.935537,-0.627783 z m 8.67535,-0.129882 C 94.160919,26.717739 93.75,25.629559 93.75,23.778409 c 0,-3.12051 1.438737,-4.707528 5.123281,-5.6513 4.164999,-1.066835 4.357859,-1.176153 4.135279,-2.343969 -0.28003,-1.469204 -2.49741,-1.704568 -4.806985,-0.510237 -1.790125,0.925709 -1.930981,0.905299 -2.854806,-0.413641 -1.366006,-1.95025 -1.259056,-2.222451 1.292056,-3.288375 3.320344,-1.387327 7.835265,-1.226966 9.839385,0.349475 1.57933,1.242302 1.64598,1.54312 1.62692,7.34375 -0.0124,3.780334 -0.30539,6.410692 -0.78125,7.01457 -1.69341,2.148934 -3.88994,3.096318 -7.17885,3.096318 -2.698874,0 -3.616424,-0.289574 -4.860936,-1.534091 z M 102.375,25.5 c 0.91244,-0.912446 0.98794,-3.404172 0.11941,-3.940957 -1.04071,-0.643191 -3.028285,0.294241 -3.451579,1.627919 -0.715925,2.255685 1.707379,3.937829 3.332169,2.313038 z m 10.28125,3.461074 c -0.5724,-0.230968 -0.78125,-2.637238 -0.78125,-9.00125 0,-8.654198 0.006,-8.687392 1.50429,-9.063561 0.82735,-0.207654 2.09298,-0.06249 2.8125,0.322583 0.91664,0.490574 1.67005,0.506481 2.51712,0.05314 2.03466,-1.088917 5.35926,-0.771961 6.62989,0.632071 0.95006,1.049806 1.20441,2.593679 1.41904,8.613577 0.28964,8.123609 -0.19598,9.384875 -3.31222,8.602747 -1.55104,-0.389284 -1.57062,-0.474916 -1.57062,-6.868263 0,-7.460777 -0.66414,-8.81427 -3.43437,-6.999144 -1.4958,0.980084 -1.56563,1.30098 -1.56563,7.194563 0,5.048513 -0.17953,6.237616 -0.98862,6.548092 -1.12509,0.431737 -2.10039,0.421302 -3.23013,-0.03456 z"
       id="path4129"
       inkscape:connector-curvature="0" />
    <path
       style="fill:#6f6f6f"
       d="m 102.83206,49.763882 c -3.618485,-3.61849 -3.631585,-10.964354 -0.026,-14.56996 2.42037,-2.420356 4.95905,-2.711023 7.33754,-0.840106 2.33381,1.835774 3.16301,4.455803 2.86942,9.066531 -0.21854,3.432132 -0.53704,4.34881 -2.06514,5.943811 -2.34686,2.449582 -5.89139,2.624159 -8.11583,0.399724 z m 6.88385,-1.922973 c 1.27752,-1.277513 1.53409,-2.142773 1.53409,-5.173433 0,-5.577366 -2.77161,-8.495561 -6.33849,-6.673724 -2.64435,1.35064 -3.92398,6.745694 -2.3312,9.828586 2.00382,3.878465 4.55423,4.599945 7.1356,2.018571 z m 7.1614,1.849055 c -1.94819,-2.073757 -1.11042,-2.734387 1.60984,-1.269436 2.71059,1.45975 5.46325,0.7757 5.77957,-1.436257 0.2766,-1.934147 -0.81439,-3.086024 -3.75833,-3.968048 -2.8083,-0.841387 -4.88339,-3.100486 -4.88339,-5.316419 0,-1.963665 2.64246,-4.574804 4.62968,-4.574804 2.06024,0 4.58629,1.184076 5.03815,2.361611 0.53512,1.394507 -0.0896,1.681613 -1.8821,0.864915 -2.4465,-1.114703 -4.52975,-0.889084 -5.31356,0.575466 -0.87041,1.626397 0.5063,3.387452 3.04512,3.895216 0.93686,0.187373 2.46936,0.943191 3.40555,1.679598 2.15625,1.696105 2.38932,5.56104 0.45216,7.498194 -1.88361,1.883609 -6.21726,1.718198 -8.12269,-0.310036 z M 21.375,36.125 c -1.167543,-1.167543 -0.923692,-1.779884 1.565779,-3.931861 l 2.315778,-2.001833 -1.636216,-3.689403 C 21.157986,20.949688 18.265675,12.290539 18.578124,11.40625 c 0.357902,-1.012926 3.581487,-1.012926 4.400539,0 0.347444,0.429688 1.213908,2.855464 1.925474,5.390614 0.711566,2.535149 1.450793,4.766399 1.642727,4.958333 0.685898,0.685899 1.492527,-0.891658 2.974677,-5.817697 1.502544,-4.993817 1.507248,-5.00024 3.803932,-5.193978 1.720843,-0.145163 2.299527,0.04379 2.299527,0.750865 0,0.997617 -6.588496,19.893201 -7.608286,21.820307 -0.626787,1.184445 -4.113493,3.553975 -5.235464,3.55797 C 22.420313,36.873949 21.7875,36.5375 21.375,36.125 Z M 4.21875,28.648574 C 2.3842851,27.978571 1.9382604,26.244258 3.3080511,25.107433 c 0.584727,-0.485281 1.617592,-0.379514 3.7372058,0.382695 2.727195,0.980694 3.0005681,0.981904 3.9649141,0.01756 1.093722,-1.093722 0.812962,-2.852852 -0.527245,-3.303504 C 10.045442,22.057073 8.4940656,21.631242 7.0354237,21.257889 5.0708271,20.755034 4.1289684,20.087152 3.4020337,18.681416 0.66434425,13.387308 6.58493,8.5816425 13.21601,10.715534 c 2.932812,0.943783 3.425193,1.643108 2.261164,3.211518 -0.682223,0.919228 -1.111614,0.964374 -3.155664,0.331789 -2.007513,-0.621278 -2.5202019,-0.578007 -3.3838106,0.285603 -1.3620794,1.362079 -0.2155332,2.776442 2.6930396,3.322094 3.586825,0.672893 5.244261,2.430359 5.244261,5.560766 0,2.260623 -0.319801,2.980674 -1.922953,4.329637 -1.597126,1.343893 -2.523758,1.609698 -5.4687501,1.568717 C 7.5331087,29.29852 5.1640625,28.993832 4.21875,28.648574 Z m 35.35876,0.23981 c -0.804208,-0.511499 -1.360527,-16.688701 -0.600061,-17.449166 0.77148,-0.77148 10.027662,-0.839284 11.485962,-0.08414 1.063815,0.550872 1.785248,0.550312 2.998158,-0.0023 2.231286,-1.016642 5.379754,-0.906745 7.024365,0.245185 1.312748,0.919472 1.389066,1.413708 1.389066,8.995619 0,6.860853 -0.148519,8.079684 -1.025548,8.416232 -0.564052,0.216447 -1.548427,0.227585 -2.1875,0.02475 C 57.628329,28.706496 57.5,27.95409 57.5,22.221911 57.5,14.793168 56.833006,13.439722 54.065629,15.252977 52.569831,16.233061 52.5,16.553957 52.5,22.44754 c 0,6.53767 -0.448669,7.464394 -3.192264,6.593611 -0.994596,-0.315672 -1.163905,-1.212033 -1.318202,-6.978863 -0.144701,-5.408223 -0.370112,-6.738177 -1.234199,-7.281956 -0.809502,-0.509428 -1.358575,-0.392512 -2.34375,0.499059 -1.130989,1.023531 -1.286585,1.9004 -1.286585,7.250608 0,4.973321 -0.18078,6.155637 -0.988617,6.465633 -1.261221,0.483975 -1.655286,0.467459 -2.558873,-0.107248 z M 68.987906,28.181507 C 66.169775,26.463074 65.625,24.122523 65.625,13.733263 65.625,3.944095 65.771038,3.4438984 68.75,3.0297339 70.23935,2.8226697 70.327131,2.9880548 70.625,6.5625 l 0.3125,3.75 2.8125,0.03921 c 1.546875,0.02157 3.469225,0.395823 4.271881,0.831676 1.891869,1.027304 3.825669,5.325958 3.825669,8.504108 0,3.083575 -1.847319,7.303691 -3.793981,8.667187 -1.993044,1.395983 -6.637838,1.307253 -9.065663,-0.17318 z m 6.119132,-3.590874 C 75.951181,23.826693 76.25,22.654897 76.25,20.108596 c 0,-4.865079 -2.238438,-7.155873 -4.642856,-4.751453 -1.462569,1.462564 -1.378069,8.725139 0.111606,9.592795 1.5228,0.886948 2.076019,0.828283 3.388288,-0.359306 z m 20.177056,3.250276 C 94.160919,26.717739 93.75,25.629559 93.75,23.778409 c 0,-3.12051 1.438737,-4.707528 5.123281,-5.6513 4.164999,-1.066835 4.357859,-1.176153 4.135279,-2.343969 -0.28003,-1.469204 -2.49741,-1.704568 -4.806985,-0.510237 -1.790125,0.925709 -1.930981,0.905299 -2.854806,-0.413641 -1.366006,-1.95025 -1.259056,-2.222451 1.292056,-3.288375 3.320344,-1.387327 7.835265,-1.226966 9.839385,0.349475 1.57933,1.242302 1.64598,1.54312 1.62692,7.34375 -0.0124,3.780334 -0.30539,6.410692 -0.78125,7.01457 -1.69341,2.148934 -3.88994,3.096318 -7.17885,3.096318 -2.698874,0 -3.616424,-0.289574 -4.860936,-1.534091 z M 102.375,25.5 c 0.91244,-0.912446 0.98794,-3.404172 0.11941,-3.940957 -1.04071,-0.643191 -3.028285,0.294241 -3.451579,1.627919 -0.715925,2.255685 1.707379,3.937829 3.332169,2.313038 z m 10.28125,3.461074 c -0.5724,-0.230968 -0.78125,-2.637238 -0.78125,-9.00125 0,-8.654198 0.006,-8.687392 1.50429,-9.063561 0.82735,-0.207654 2.09298,-0.06249 2.8125,0.322583 0.91664,0.490574 1.67005,0.506481 2.51712,0.05314 2.03466,-1.088917 5.35926,-0.771961 6.62989,0.632071 0.95006,1.049806 1.20441,2.593679 1.41904,8.613577 0.28964,8.123609 -0.19598,9.384875 -3.31222,8.602747 -1.55104,-0.389284 -1.57062,-0.474916 -1.57062,-6.868263 0,-7.460777 -0.66414,-8.81427 -3.43437,-6.999144 -1.4958,0.980084 -1.56563,1.30098 -1.56563,7.194563 0,5.048513 -0.17953,6.237616 -0.98862,6.548092 -1.12509,0.431737 -2.10039,0.421302 -3.23013,-0.03456 z"
       id="path4127"
       inkscape:connector-curvature="0" />
    <path
       style="fill:#525252"
       d="m 103.59433,50.011701 c -2.34687,-1.846048 -3.783561,-5.946289 -3.27405,-9.343962 0.58196,-3.880755 4.46181,-7.888632 7.01885,-7.250458 3.49166,0.871428 5.78587,4.448806 5.78587,9.021958 0,3.236695 -0.85292,5.377445 -2.8974,7.272204 -2.00723,1.860238 -4.50627,1.973358 -6.63327,0.300258 z m 6.38132,-2.004552 c 1.02557,-1.100823 1.27435,-2.204464 1.27435,-5.653409 0,-3.716766 -0.20361,-4.489167 -1.53409,-5.819649 -1.97643,-1.976426 -4.1087,-1.948497 -6.01322,0.07876 -1.29757,1.381203 -1.51519,2.224562 -1.51519,5.871882 0,3.311145 0.26498,4.551833 1.19062,5.574648 1.60883,1.777741 4.91706,1.75155 6.59753,-0.05223 z m 7.52666,1.682815 c -1.67008,-1.77773 -1.23333,-2.932138 0.51182,-1.352799 2.44537,2.213026 7.43763,0.407729 6.87998,-2.487929 -0.20672,-1.073435 -1.17742,-1.730035 -5.1504,-3.483855 -1.00033,-0.441585 -2.36709,-1.544042 -3.03723,-2.449905 -1.08697,-1.469314 -1.12614,-1.839599 -0.36302,-3.431807 0.47048,-0.981631 1.66473,-2.172673 2.65388,-2.64676 1.56023,-0.747797 2.07691,-0.729193 3.90056,0.140445 1.15616,0.551333 2.1021,1.452285 2.1021,2.002118 0,0.549832 -0.21094,0.89692 -0.46875,0.771307 -0.25781,-0.125613 -1.26403,-0.626023 -2.23604,-1.11202 -1.89661,-0.948295 -3.20073,-0.526807 -4.43774,1.43426 -0.99737,1.581151 0.14938,2.889302 3.71699,4.240152 3.56609,1.350277 4.67554,2.556811 4.67554,5.084694 0,4.288157 -5.77143,6.460175 -8.74769,3.292099 z M 21.526985,35.812699 c -0.987368,-0.987368 -0.911923,-1.166223 1.209994,-2.868484 2.560999,-2.054505 2.761408,-3.250767 1.099475,-6.562864 -0.63995,-1.275368 -2.077654,-5.085835 -3.194897,-8.467704 -2.172141,-6.57502 -2.031024,-7.772891 0.831077,-7.05455 1.268648,0.318411 1.753376,1.071368 2.565725,3.98549 1.480982,5.312697 2.456767,7.822992 3.070699,7.899659 0.300608,0.03754 1.285223,-2.322371 2.188035,-5.244246 0.902812,-2.921875 1.868771,-5.664062 2.146577,-6.09375 0.582254,-0.900583 3.313567,-1.054683 3.831786,-0.216189 0.505698,0.818237 -6.873852,21.218369 -8.20937,22.6941 -0.6191,0.684097 -1.881734,1.634807 -2.805855,2.112688 -1.479398,0.765027 -1.80608,0.743017 -2.733246,-0.18415 z M 4.53125,28.477842 C 2.3943664,27.512629 2.1770898,27.102475 3.0623428,25.704981 3.5156944,24.989303 4.1211388,24.979605 6.7226381,25.646349 10.650138,26.652937 12.024238,26.18945 11.760607,23.947029 11.590169,22.497305 11.126035,22.151387 8.4375,21.470327 6.71875,21.034933 4.8203125,20.072961 4.21875,19.332611 1.8248546,16.386416 3.7458322,11.827618 7.8598475,10.691684 10.879709,9.85786 15.3125,11.135656 15.3125,12.839984 c 0,1.065171 -0.442427,1.222516 -3.4375,1.222516 -3.2335869,0 -3.4375,0.09106 -3.4375,1.535016 0,1.277886 0.4627994,1.669008 2.762828,2.334928 5.637007,1.632065 7.227538,5.309877 3.904664,9.028818 -1.498947,1.677614 -2.288582,2.015677 -5.1562501,2.207532 C 7.849925,29.30921 5.7902331,29.046515 4.53125,28.477842 Z m 65.672175,0.01785 C 66.714438,26.920645 66.368912,25.730463 66.142694,14.508462 65.923512,3.6355242 66.114544,2.9007331 69.0625,3.2776701 70.114581,3.4121934 70.361981,4.0312557 70.625,7.1875 l 0.3125,3.75 2.961175,-0.211902 c 2.586988,-0.185124 3.192663,0.01959 4.793069,1.61999 4.035656,4.035658 3.814937,11.501544 -0.454244,15.365104 -1.678387,1.518916 -5.566737,1.898843 -8.034075,0.785001 z M 75.5,24.875 c 0.987831,-0.987833 0.987831,-8.762167 0,-9.75 -0.4125,-0.4125 -1.340625,-0.75 -2.0625,-0.75 -0.721875,0 -1.65,0.3375 -2.0625,0.75 -1.037325,1.037322 -1.010588,9.665683 0.03125,10.086074 C 72.839637,25.78946 74.741688,25.633312 75.5,24.875 Z m 20.076925,2.673077 c -3.951538,-3.951534 -1.536838,-8.460109 5.182405,-9.676255 2.58571,-0.468 3.17692,-1.03423 2.61333,-2.502921 -0.45529,-1.186451 -3.24381,-1.310579 -5.57551,-0.248186 -1.334681,0.608121 -1.741962,0.579291 -2.207337,-0.15625 -0.980601,-1.549869 -0.660757,-2.199118 1.618893,-3.286208 3.522584,-1.6798014 6.925554,-1.390148 9.089364,0.773666 1.72767,1.727661 1.82693,2.110624 1.82693,7.048434 0,5.938343 -0.76005,7.597569 -4.12411,9.003164 -3.47326,1.451223 -6.342759,1.125766 -8.423965,-0.955444 z m 7.429555,-3.954327 c 0.1739,-2.101147 0.0413,-2.34375 -1.28125,-2.34375 -1.833074,0 -2.97523,1.087686 -2.97523,2.833333 0,1.782809 0.579937,2.260297 2.47661,2.039111 1.34109,-0.156396 1.61583,-0.546731 1.77987,-2.528694 z m -63.967746,4.382189 c -0.181038,-0.471777 -0.249751,-4.3578 -0.152697,-8.635607 L 39.0625,11.5625 41.875,11.445691 c 1.546875,-0.06425 3.694844,-0.30245 4.773264,-0.529342 1.347531,-0.283513 2.456591,-0.08765 3.546127,0.626236 1.449142,0.949515 1.747893,0.954721 3.476948,0.06059 2.707435,-1.400069 4.902539,-1.211117 6.689479,0.575822 1.502816,1.502816 1.548196,1.796153 1.37784,8.90625 L 61.5625,28.4375 l -1.875,0 -1.875,0 -0.3125,-6.875 c -0.310729,-6.836035 -0.321659,-6.876064 -1.928498,-7.062849 -0.888798,-0.103317 -1.932643,0.193687 -2.319655,0.660007 -0.387011,0.466321 -0.784813,3.644603 -0.884002,7.062849 L 52.1875,28.4375 l -1.875,0 -1.875,0 -0.3125,-6.875 c -0.310729,-6.836035 -0.321659,-6.876064 -1.928498,-7.062849 -0.888798,-0.103317 -1.932643,0.193687 -2.319655,0.660007 -0.387011,0.466321 -0.784813,3.644603 -0.884002,7.062849 L 42.8125,28.4375 41.090196,28.635607 c -1.035136,0.119066 -1.853632,-0.144129 -2.051462,-0.659668 z m 73.282556,0.387015 c -0.24546,-0.245458 -0.44629,-4.064725 -0.44629,-8.487261 0,-7.767976 0.0477,-8.058636 1.40625,-8.561209 0.82234,-0.304222 1.99016,-0.254203 2.8125,0.120462 0.98951,0.45083 1.87801,0.425752 2.99816,-0.08462 2.28652,-1.041808 3.64017,-0.901798 5.5113,0.570041 1.62202,1.27588 1.64679,1.412778 1.64679,9.102099 l 0,7.806736 -2.03125,-0.195849 -2.03125,-0.195849 -0.17767,-6.746588 c -0.19297,-7.327177 -0.62605,-8.14705 -3.59006,-6.796554 -1.42363,0.648649 -1.50966,1.013156 -1.67889,7.113413 l -0.17838,6.429729 -1.89746,0.185871 c -1.04361,0.102229 -2.0983,-0.01496 -2.34375,-0.260417 z"
       id="path4125"
       inkscape:connector-curvature="0" />
    <path
       style="fill:#2f2f2f"
       d="m 103.47805,49.638764 c -1.35326,-1.353265 -2.40591,-3.419242 -1.96619,-3.85896 0.19973,-0.199725 0.36314,-0.02223 0.36314,0.394438 0,0.416667 0.69034,1.447917 1.53409,2.291667 2.18493,2.184926 4.80746,2.036003 6.84785,-0.388862 0.88994,-1.057624 1.61806,-1.607341 1.61806,-1.221591 0,0.385749 -0.69034,1.391703 -1.53409,2.235453 -1.79719,1.797192 -5.33139,2.079324 -6.86286,0.547855 z M 117.625,49.875 c -1.27631,-1.276308 -0.82584,-1.874002 0.63907,-0.84794 1.94195,1.360198 4.21346,1.211947 5.9144,-0.386006 1.59856,-1.501771 2.03229,-0.566102 0.46439,1.001803 -1.1694,1.169399 -5.92335,1.326655 -7.01786,0.232143 z m -5.64494,-7.249788 c -0.1256,-3.959718 -1.30724,-6.493011 -3.49321,-7.489006 -2.18867,-0.997227 -4.41812,-0.06418 -5.98423,2.504465 -0.88007,1.443455 -1.24864,1.710236 -1.25028,0.905002 -0.004,-1.891428 3.38929,-4.795673 5.60299,-4.795673 3.78004,0 6.06251,4.044438 5.48264,9.715003 -0.22213,2.172146 -0.2656,2.070131 -0.35791,-0.839791 z m 12.76356,1.840594 c -0.20985,-0.339547 -1.71458,-1.107819 -3.34383,-1.707269 -1.62926,-0.599451 -3.44822,-1.67629 -4.04214,-2.392974 -3.41568,-4.121716 2.29693,-8.870668 6.47936,-5.386356 0.81152,0.676064 1.14053,1.238564 0.73113,1.25 -0.4094,0.01144 -0.91819,-0.260457 -1.13064,-0.604207 -0.65569,-1.060935 -4.41829,-0.708395 -5.52813,0.517963 -2.03622,2.249991 -0.66314,4.39417 3.41785,5.337254 1.93903,0.448096 4.78542,2.611306 4.20412,3.195066 -0.2234,0.224334 -0.57787,0.130069 -0.78772,-0.209477 z M 100.77,42.5 c 0,-1.203125 0.12863,-1.695313 0.28583,-1.09375 0.1572,0.601562 0.1572,1.585937 0,2.1875 C 100.89863,44.195312 100.77,43.703125 100.77,42.5 Z M 21.666667,35.833333 c -0.800204,-0.800203 -0.407301,-2.002071 0.77742,-2.378087 0.656749,-0.208444 1.671862,-1.108164 2.255807,-1.999378 C 25.709928,29.914362 25.697921,29.69496 24.45325,26.948989 22.476703,22.588367 19.375,13.664764 19.375,12.338859 c 0,-0.900503 0.383108,-1.126089 1.654332,-0.974123 1.497719,0.179042 1.808352,0.713455 3.28125,5.645057 1.691687,5.664156 2.861479,7.697669 3.488051,6.063468 0.186786,-0.487169 1.111262,-3.276386 2.05439,-6.198261 1.558573,-4.828563 1.871106,-5.330515 3.430878,-5.510264 C 34.227756,11.255966 35,11.45323 35,11.803101 35,12.570129 28.229415,31.731494 27.413075,33.274781 26.857797,34.32453 23.765707,36.25 22.635204,36.25 c -0.303529,0 -0.739371,-0.1875 -0.968537,-0.416667 z M 4.53125,28.105524 C 3.1176394,27.537322 2.6430821,25.996613 3.6836038,25.353535 c 0.307232,-0.18988 1.6128016,0.09524 2.9012656,0.633591 2.6349269,1.100942 4.9563956,0.784063 5.5478646,-0.75728 C 12.878661,23.28599 11.870627,21.921045 9.1810575,21.233083 5.2139661,20.218345 5.1489453,20.18334 4.0141463,18.451418 1.4676321,14.564946 5.6154344,10.200741 11.186946,10.904394 c 3.332018,0.420817 4.756741,1.396033 3.772348,2.582154 -0.505396,0.608965 -1.105763,0.659251 -2.327061,0.194914 -3.0192942,-1.147933 -5.6630911,0.45791 -4.7351355,2.876123 0.1968263,0.512921 1.7710463,1.352254 3.4982665,1.865183 4.180627,1.241513 4.854636,1.908931 4.854636,4.807169 0,3.821692 -2.086421,5.5308 -6.6903406,5.480447 C 7.5674719,28.688594 5.3046875,28.416407 4.53125,28.105524 Z m 35.181007,-0.09058 C 39.30908,26.840119 38.997682,11.884823 39.375,11.817741 c 2.814029,-0.50029 10.000054,-0.391548 11.088411,0.167794 1.059119,0.544317 1.790603,0.542419 2.998158,-0.0078 2.098885,-0.956317 5.402124,-0.926936 6.751913,0.06006 0.937981,0.685868 1.054531,1.797889 0.900706,8.59375 -0.165924,7.330377 -0.252842,7.80594 -1.426688,7.80594 -1.153456,0 -1.274136,-0.520833 -1.5625,-6.743481 -0.234549,-5.061368 -0.546352,-6.890826 -1.25,-7.334179 -1.294807,-0.815831 -2.062003,-0.755068 -3.474294,0.275166 -1.024487,0.747341 -1.261817,1.88969 -1.525706,7.34375 -0.2873,5.937911 -0.4133,6.458744 -1.5625,6.458744 -1.153456,0 -1.274136,-0.520833 -1.5625,-6.743481 -0.234549,-5.061368 -0.546352,-6.890826 -1.25,-7.334179 -1.294807,-0.815831 -2.062003,-0.755068 -3.474294,0.275166 -1.024307,0.74721 -1.261863,1.889659 -1.525706,7.337411 -0.266659,5.505896 -0.473221,6.483031 -1.40814,6.661185 -0.602602,0.11483 -1.223423,-0.163568 -1.379603,-0.61866 z m 29.529162,-0.23555 C 66.727925,26.415179 66.153956,23.483995 66.371863,13.125 L 66.5625,4.0625 68.248913,3.8678563 c 1.642756,-0.1896043 1.691299,-0.1006046 1.875,3.4374999 L 70.3125,10.9375 l 2.8125,0.02789 c 4.270794,0.04235 5.610344,0.744421 6.918875,3.62626 1.347269,2.967163 1.487662,5.306782 0.526219,8.76943 -1.046263,3.768126 -3.057275,5.393772 -6.635438,5.363898 -1.648437,-0.01376 -3.760394,-0.439276 -4.693237,-0.945584 z M 75.625,25 c 0.972225,-0.972223 1.25,-2.083333 1.25,-5 0,-3.895965 -1.294719,-6.25 -3.4375,-6.25 -2.202731,0 -3.4375,2.344561 -3.4375,6.52706 0,3.452938 0.198031,4.165768 1.389069,5 C 73.224887,26.562918 74.120675,26.504327 75.625,25 Z m 20,2.5 c -1.687213,-1.687211 -1.693206,-5.65517 -0.01081,-7.177686 0.681538,-0.616782 2.7206,-1.455025 4.531253,-1.862763 3.47823,-0.78326 4.42227,-2.033735 2.9105,-3.855298 -0.77559,-0.93453 -1.52145,-0.921089 -5.623815,0.101345 -1.176744,0.293281 -1.73595,0.131285 -2.009737,-0.582197 C 94.4137,11.494898 103.8327,10.082698 106.25,12.5 c 1.07291,1.072904 1.25,2.083333 1.25,7.131941 0,5.800818 -0.0265,5.904258 -1.92296,7.5 C 103.05581,29.253428 97.580906,29.455907 95.625,27.5 Z m 7.14286,-1.607143 c 1.7703,-1.770303 0.88702,-5.267857 -1.33036,-5.267857 -1.08936,0 -3.3125,2.277068 -3.3125,3.392857 0,1.131499 1.698681,2.857143 2.8125,2.857143 0.46652,0 1.29018,-0.441964 1.83036,-0.982143 z m 10.17517,2.46684 C 112.69936,28.116031 112.5,24.298465 112.5,19.876218 c 0,-8.743701 0.37926,-9.637942 3.40154,-8.020464 1.07235,0.573903 1.77228,0.595201 2.72925,0.08305 1.91741,-1.026169 5.46368,-0.842403 6.43976,0.333705 0.61057,0.73569 0.85118,3.146263 0.85778,8.59375 l 0.009,7.571244 -1.5625,0 c -1.53936,0 -1.56481,-0.0833 -1.71863,-5.625 -0.23921,-8.618506 -0.86779,-9.850632 -4.24126,-8.313577 -1.88192,0.857463 -2.1175,1.733044 -2.32087,8.626077 -0.14195,4.811101 -0.27715,5.329735 -1.43246,5.495114 -0.70164,0.100438 -1.47508,-0.01675 -1.71875,-0.260416 z"
       id="path4123"
       inkscape:connector-curvature="0" />
    <path
       style="fill:#080808"
       d="m 21.875,35.02199 c 0,-0.331656 0.559589,-0.902493 1.243531,-1.268528 0.683942,-0.366035 1.686621,-1.522361 2.228177,-2.569613 0.896483,-1.733608 0.896256,-2.038995 -0.0025,-3.410718 -1.341272,-2.047041 -5.990926,-15.357305 -5.590867,-16.004615 0.553055,-0.89486 2.054329,-0.5655 2.622003,0.575234 0.299361,0.601562 1.188898,3.34375 1.976748,6.09375 1.520262,5.306491 2.391971,6.943468 3.243842,6.091596 0.288135,-0.288135 1.308098,-3.158274 2.266586,-6.378087 1.630607,-5.477643 3.159679,-7.837175 4.324168,-6.672685 0.516379,0.51638 -4.751362,16.466151 -6.781127,20.532028 C 26.23229,34.360502 24.639902,35.625 22.853588,35.625 22.315365,35.625 21.875,35.353646 21.875,35.02199 Z M 5.0470106,27.808914 C 3.4364209,27.082482 3.0840924,26.665908 3.623807,26.126193 4.1635215,25.586479 4.7393829,25.59038 5.9499546,26.141954 9.6315588,27.819404 12.5,26.887118 12.5,24.013091 12.5,22.001994 12.349749,21.866239 9.0679956,20.912208 4.0712167,19.459605 2.3407467,16.253834 4.8684129,13.132299 c 1.3304152,-1.642994 5.7981131,-2.337103 8.4504461,-1.312876 2.227118,0.860025 1.608438,2.009786 -0.820098,1.524079 C 9.3341731,12.710584 7.5,13.524271 7.5,15.561083 c 0,1.850812 1.0873875,2.595681 5.192139,3.556658 3.525409,0.825345 4.533014,5.490406 1.733152,8.024246 -1.634928,1.47959 -6.7672929,1.844572 -9.3782804,0.666927 z m 65.5853204,0.14469 C 67.407694,26.820476 66.975175,25.286174 66.825869,14.450653 66.710431,6.073166 66.826112,4.7645496 67.726663,4.2605767 69.445256,3.2988021 70,4.2651163 70,8.2205344 l 0,3.7717626 2.96875,-0.382299 c 4.239937,-0.545997 5.843856,0.471784 7.208525,4.574241 1.022856,3.074893 1.036937,3.618979 0.170769,6.598484 -0.5192,1.785993 -1.442725,3.694841 -2.052275,4.241885 -1.562381,1.40217 -5.097388,1.8307 -7.663438,0.928996 z m 5.595682,-2.912516 C 76.583856,24.376187 76.875,22.107697 76.875,20 c 0,-4.930721 -0.703863,-6.25 -3.334487,-6.25 -1.122282,0 -2.378013,0.3375 -2.790513,0.75 -1.002044,1.002041 -1.002044,9.997959 0,11 1.221319,1.221318 4.736375,0.926849 5.478013,-0.458912 z m 20.668106,2.910519 C 96.018988,27.507764 95.100888,26.286513 94.765681,25.117723 93.89505,22.082016 95.701037,19.953139 100.16761,18.75 c 4.21485,-1.135335 4.37998,-1.282207 3.84379,-3.418574 -0.39752,-1.583854 -0.60749,-1.675099 -3.31166,-1.439127 -1.587984,0.138571 -3.309115,0.374179 -3.82474,0.523573 -0.537388,0.155702 -0.9375,-0.128482 -0.9375,-0.665872 0,-1.506681 4.76321,-2.856617 7.5953,-2.152577 3.08092,0.765896 3.94631,2.538493 3.95799,8.107261 0.0106,5.04682 -0.88404,6.823897 -4.1149,8.173837 -2.56447,1.071501 -4.46434,1.09293 -6.479771,0.07309 z m 6.731871,-4.357857 0.1905,-2.96875 -2.09675,0 c -2.43489,0 -3.59674,0.932382 -3.59674,2.886383 0,2.74919 0.650562,3.440748 3.04828,3.240354 2.22696,-0.186123 2.26735,-0.238083 2.45471,-3.157987 z M 39.813273,27.729939 C 39.572223,27.488889 39.375,23.791616 39.375,19.513776 l 0,-7.77789 2.074049,0.389094 c 1.140727,0.214002 3.009932,0.06284 4.15379,-0.335907 1.742894,-0.607577 2.414905,-0.544504 4.149096,0.38942 1.959389,1.0552 2.188584,1.057843 4.313006,0.04974 2.951189,-1.400431 5.790067,-0.815963 6.61835,1.362584 0.334582,0.880018 0.528653,4.439904 0.43127,7.910858 -0.163715,5.835141 -0.271282,6.310828 -1.427061,6.310828 -1.155303,0 -1.273674,-0.520833 -1.5625,-6.875 l -0.3125,-6.875 -1.687842,-0.194781 c -0.928312,-0.10713 -2.254462,0.108465 -2.946999,0.479099 -1.116307,0.597429 -1.279353,1.399498 -1.437159,7.069781 -0.164752,5.919901 -0.271028,6.395901 -1.428,6.395901 -1.155303,0 -1.273674,-0.520833 -1.5625,-6.875 l -0.3125,-6.875 -1.687842,-0.194781 c -0.928312,-0.10713 -2.254462,0.108465 -2.946999,0.479099 -1.116137,0.597338 -1.279377,1.399529 -1.437159,7.062453 -0.144252,5.177321 -0.361525,6.423681 -1.145977,6.573756 -0.532388,0.101852 -1.165201,-0.01204 -1.40625,-0.253088 z m 73.129757,0.0047 C 112.69936,27.491031 112.5,23.977517 112.5,19.926889 c 0,-6.363222 0.14869,-7.447986 1.09336,-7.97665 0.77845,-0.435642 1.38046,-0.352051 2.09016,0.290222 0.86946,0.786843 1.28939,0.779846 3.2869,-0.05477 2.63316,-1.100203 5.15459,-0.695631 6.04607,0.970112 0.33468,0.625361 0.60851,4.26882 0.60851,8.096577 0,6.859828 -0.0201,6.956696 -1.40625,6.759838 -1.33848,-0.190094 -1.42131,-0.530708 -1.71875,-7.067954 -0.34527,-7.588417 -0.68676,-8.096982 -4.40331,-6.557537 -1.80288,0.746775 -1.8046,0.752923 -1.98181,7.086598 -0.16333,5.837057 -0.27843,6.353638 -1.4531,6.521788 -0.70164,0.100438 -1.47508,-0.01675 -1.71875,-0.260416 z"
       id="path4121"
       inkscape:connector-curvature="0" />
  </g>
</svg>
