<?xml version="1.0" encoding="UTF-8" standalone="no"?>
<!-- Created with Inkscape (http://www.inkscape.org/) -->

<svg
   xmlns:dc="http://purl.org/dc/elements/1.1/"
   xmlns:cc="http://creativecommons.org/ns#"
   xmlns:rdf="http://www.w3.org/1999/02/22-rdf-syntax-ns#"
   xmlns:svg="http://www.w3.org/2000/svg"
   xmlns="http://www.w3.org/2000/svg"
   xmlns:xlink="http://www.w3.org/1999/xlink"
   xmlns:sodipodi="http://sodipodi.sourceforge.net/DTD/sodipodi-0.dtd"
   xmlns:inkscape="http://www.inkscape.org/namespaces/inkscape"
   id="svg3790"
   version="1.1"
   inkscape:version="0.91 r13725"
   width="56.25"
   height="56.25"
   viewBox="0 0 56.25 56.25"
   sodipodi:docname="Tick.svg">
  <metadata
     id="metadata3796">
    <rdf:RDF>
      <cc:Work
         rdf:about="">
        <dc:format>image/svg+xml</dc:format>
        <dc:type
           rdf:resource="http://purl.org/dc/dcmitype/StillImage" />
        <dc:title></dc:title>
      </cc:Work>
    </rdf:RDF>
  </metadata>
  <defs
     id="defs3794" />
  <sodipodi:namedview
     pagecolor="#ffffff"
     bordercolor="#666666"
     borderopacity="1"
     objecttolerance="10"
     gridtolerance="10"
     guidetolerance="10"
     inkscape:pageopacity="0"
     inkscape:pageshadow="2"
     inkscape:window-width="640"
     inkscape:window-height="480"
     id="namedview3792"
     showgrid="false"
     inkscape:zoom="4.1955556"
     inkscape:cx="28.125"
     inkscape:cy="28.125"
     inkscape:window-x="0"
     inkscape:window-y="0"
     inkscape:window-maximized="0"
     inkscape:current-layer="svg3790" />
  <image
     width="56.25"
     height="56.25"
     preserveAspectRatio="none"
     style="image-rendering:optimizeQuality"
     xlink:href="file:///media/havoc/USB%20DISK/pics/_smallLogos/Tick.png"
     id="image3798"
     x="0"
     y="0"
     sodipodi:absref="/media/havoc/USB DISK/pics/_smallLogos/Tick.png" />
  <g
     id="g4082">
    <path
       style="fill:#fcfdfb"
       d="M 0,28.125 0,0 28.125,0 56.25,0 l 0,28.125 0,28.125 -28.125,0 L 0,56.25 0,28.125 Z"
       id="path4098"
       inkscape:connector-curvature="0" />
    <path
       style="fill:#e6f1d1"
       d="M 20.072752,50.619624 C 15.883844,49.112897 14.2983,48.081195 10.808629,44.591524 5.7054936,39.488388 3.0627056,31.416811 4.3509805,24.868634 5.5029321,19.013376 7.2172638,15.791758 11.410792,11.601643 18.832915,4.1855626 28.773325,2.4971003 38.125,7.06401 c 3.519556,1.7187819 4.159158,4.104567 1.557408,5.8093 -1.569964,1.028679 -1.828865,1.016114 -5.818988,-0.28242 -2.296756,-0.747449 -5.038935,-1.354924 -6.093732,-1.349944 -5.987004,0.02827 -12.660451,4.314052 -15.352876,9.859844 -1.953001,4.022742 -1.982926,10.597867 -0.06501,14.284504 2.08149,4.001068 4.271616,6.252527 7.785585,8.003611 6.195348,3.087273 14.561943,1.845536 19.70333,-2.924288 2.694122,-2.49942 4.533483,-7.228317 4.5435,-11.681082 0.0099,-4.399138 0.79371,-6.58686 2.84229,-7.933176 3.304168,-2.171483 5.417998,4.699335 3.710669,12.0612 -1.275922,5.501664 -3.142513,8.602356 -7.742041,12.860707 -6.27962,5.813821 -15.223029,7.688711 -23.12238,4.847358 z m 5.439553,-10.645311 c -0.577607,-0.336972 -2.315063,-2.508107 -3.861014,-4.824745 -1.54595,-2.316637 -3.956175,-5.323834 -5.356055,-6.68266 -3.293262,-3.196681 -3.379154,-5.057259 -0.292992,-6.346739 3.287053,-1.373418 5.321601,-0.636213 9.011422,3.265228 1.786932,1.889417 3.30896,3.349084 3.382285,3.243703 5.917432,-8.504329 13.161872,-16.552482 15.633862,-17.368313 3.200975,-1.056416 7.220187,0.228734 7.220187,2.308668 0,0.50402 -1.980436,3.071145 -4.400969,5.704722 -2.420533,2.633578 -6.651727,8.092223 -9.402654,12.130323 -5.83479,8.564921 -8.572554,10.530899 -11.934072,8.569813 z"
       id="path4096"
       inkscape:connector-curvature="0" />
    <path
       style="fill:#cee5a3"
       d="M 19.265619,49.761485 C 13.367396,47.335524 9.309365,43.329205 6.4042956,37.064053 4.1480516,32.198177 4.0843501,25.244948 6.2451012,19.6875 8.2459219,14.541394 13.894089,8.8858906 19.0625,6.8534544 c 5.331047,-2.0963923 12.352355,-2.0785957 17.5,0.044356 3.394607,1.3999775 3.75,1.7224907 3.75,3.4030674 0,2.710533 -2.453471,3.457542 -6.042463,1.83975 C 28.031913,9.3286975 19.759651,11.343034 14.743359,16.895471 11.476802,20.511159 10.446306,23.272412 10.435889,28.4375 10.409704,41.420264 23.439596,49.466831 35.358325,43.828269 41.81447,40.773969 45,35.457221 45,27.736016 c 0,-3.161799 0.271279,-4.231693 1.408082,-5.553304 1.684889,-1.9588 3.38462,-1.599943 4.049609,0.854976 0.894272,3.301353 0.37813,9.687869 -1.093041,13.524812 -1.992018,5.195357 -8.22296,11.446951 -13.294346,13.338408 -5.075177,1.892871 -12.003335,1.83539 -16.804685,-0.139423 z m 6.53281,-10.169684 c -0.420239,-0.170233 -2.01707,-2.187092 -3.548514,-4.481908 -1.531444,-2.294816 -3.929799,-5.284159 -5.329679,-6.642985 -3.010945,-2.922644 -3.348678,-5.067379 -0.942048,-5.982377 3.37312,-1.282458 4.735764,-0.776342 8.595356,3.19251 2.033555,2.091123 3.900283,3.567686 4.148283,3.28125 0.248,-0.286435 1.817155,-2.348916 3.487011,-4.583291 5.140362,-6.878138 9.607558,-11.699075 11.608736,-12.52799 2.431337,-1.007092 6.386929,-0.155885 6.691466,1.439943 0.129358,0.67786 -1.502934,2.954633 -4.256785,5.937499 -2.456628,2.660927 -6.720333,8.15876 -9.474901,12.217409 -5.453798,8.035761 -7.503918,9.557618 -10.978925,8.14994 z"
       id="path4094"
       inkscape:connector-curvature="0" />
    <path
       style="fill:#b1d76d"
       d="M 24.05624,50.639258 C 17.251026,49.626082 10.334566,44.3291 7.0940612,37.648746 5.5926517,34.553567 5.3515733,33.290466 5.3334726,28.424358 5.3144261,23.304023 5.4990461,22.407287 7.3437081,18.660247 9.7518063,13.768704 13.674511,9.9282369 18.640534,7.6002544 21.657786,6.1858204 23.027553,5.9375 27.8125,5.9375 c 4.827536,0 6.144154,0.2431917 9.286912,1.7153781 2.750407,1.288395 3.567159,1.9622994 3.28125,2.7073679 C 40.171298,10.905839 40,11.459961 40,11.591628 c 0,0.131666 -0.536199,0.526357 -1.191553,0.877092 -0.896913,0.480014 -1.940098,0.304048 -4.21875,-0.711624 C 23.256279,6.7054081 9.8101975,15.811379 9.8833337,28.488768 c 0.0406,7.037151 3.5909253,12.526616 10.2555383,15.856963 5.31729,2.657081 10.034266,2.654931 15.36126,-0.007 6.539807,-3.267978 9.54613,-8.05351 9.989329,-15.901231 0.184491,-3.266774 0.615483,-5.379143 1.243324,-6.09375 2.379627,-2.708486 3.602644,-0.389231 3.54301,6.71875 -0.02841,3.386474 -0.423753,5.222307 -1.749692,8.125 -2.999994,6.567465 -9.659469,12.113868 -15.748121,13.115964 -4.645936,0.764648 -5.59566,0.801213 -8.721742,0.335794 z M 23.073147,35.548644 C 21.644011,33.444147 19.102282,30.206795 17.424859,28.354527 15.747437,26.502259 14.375,24.718389 14.375,24.390373 14.375,23.443992 16.60893,22.5 18.848511,22.5 c 1.699355,0 2.674232,0.650026 5.624067,3.75 1.962609,2.0625 3.681511,3.75 3.819783,3.75 0.138273,0 2.0916,-2.460938 4.340727,-5.46875 2.249126,-3.007813 5.646236,-7.085938 7.549131,-9.0625 3.084377,-3.203784 3.732104,-3.59375 5.969152,-3.59375 1.454082,0 2.924784,0.415441 3.497235,0.987891 0.900521,0.900521 0.59717,1.411818 -3.429993,5.78125 -2.429836,2.636348 -6.799113,8.211388 -9.709504,12.388979 -2.910392,4.177591 -5.729183,7.763529 -6.263982,7.96875 -0.534799,0.205221 -1.782629,0.37313 -2.772956,0.37313 -1.5051,0 -2.227022,-0.627943 -4.399024,-3.826356 z"
       id="path4092"
       inkscape:connector-curvature="0" />
    <path
       style="fill:#a5d255"
       d="M 19.745657,49.108592 C 12.571764,46.099032 7.6716144,40.408606 5.8540707,32.976625 4.6422284,28.021372 5.2304788,23.680686 7.8379381,18.337712 12.173024,9.4546375 22.863578,4.1145949 32.004727,6.26615 c 6.817729,1.6046912 9.542796,3.991114 6.642763,5.817265 -0.772029,0.486147 -1.733081,0.342363 -3.729753,-0.55801 -1.896434,-0.855173 -4.078236,-1.212877 -7.39749,-1.212809 -4.050473,8.3e-5 -5.175355,0.259083 -8.056998,1.855092 -6.55975,3.633141 -9.7265965,8.840139 -9.7050852,15.957312 0.016987,5.621064 1.0124592,8.200512 4.7254252,12.24446 3.756597,4.091469 7.792432,5.868329 13.328911,5.868329 10.229828,0 17.791322,-7.433495 17.806394,-17.504973 0.0063,-4.220752 1.099216,-6.857816 2.842138,-6.857816 0.489584,0 1.036136,0.703125 1.21456,1.5625 0.178425,0.859375 0.478372,2.297422 0.66655,3.19566 0.477945,2.281392 -0.829891,8.118417 -2.607165,11.636091 -2.049017,4.05552 -6.603909,8.43806 -10.797836,10.38926 -5.128345,2.385932 -12.139454,2.569486 -17.191484,0.450081 z M 24.647621,37.093515 C 23.679084,35.770207 22.17332,33.703125 21.301479,32.5 c -0.871841,-1.203125 -2.678112,-3.378424 -4.013933,-4.833998 -2.733754,-2.978826 -2.680607,-4.218079 0.208111,-4.852548 2.418098,-0.531103 5.850206,1.538214 8.149306,4.913453 0.848395,1.245503 1.985081,2.266474 2.525967,2.268822 0.540886,0.0024 2.322162,-1.955031 3.958389,-4.349734 C 35.995501,19.987642 43.004331,12.672274 45.024396,12.186939 46.80132,11.760021 50,12.75201 50,13.729996 c 0,0.349764 -2.145079,2.958288 -4.766841,5.79672 -2.621763,2.838431 -6.661947,7.97767 -8.978187,11.420532 -4.759937,7.075176 -5.315518,7.646111 -7.95399,8.173806 -1.664998,0.332999 -2.10398,0.08937 -3.653361,-2.027539 z"
       id="path4090"
       inkscape:connector-curvature="0" />
    <path
       style="fill:#91c82e"
       d="M 24.05624,50.014258 C 19.614878,49.353017 15.140693,46.885719 11.686559,43.192971 7.2860637,38.488485 6.0333031,35.245848 5.9808521,28.424358 5.9412744,23.277091 6.1148743,22.425917 7.9748031,18.647866 11.467639,11.552908 18.0961,7.0343931 25.934214,6.4052244 32.225011,5.9002596 40.498263,8.5993138 39.62613,10.872056 39.029168,12.427713 37.644227,12.493876 34.550047,11.114557 25.354822,7.0155206 13.19355,12.788258 9.9905075,22.772531 8.8507262,26.325367 9.0913269,31.990944 10.519055,35.21856 c 2.998322,6.778204 10.257471,11.655028 17.349869,11.655947 2.992518,3.87e-4 4.62126,-0.406686 7.617203,-1.903776 6.891079,-3.443513 10.195009,-8.623644 10.63703,-16.677477 0.185895,-3.387076 0.585057,-5.395482 1.168577,-5.879761 1.66314,-1.380283 2.396914,0.439837 2.378161,5.899007 -0.01463,4.259308 -0.310313,5.758434 -1.750468,8.875 -2.987809,6.465759 -9.082758,11.493799 -15.141445,12.490964 -4.645936,0.764648 -5.59566,0.801213 -8.721742,0.335794 z M 24.168322,36.09375 C 23.301821,34.632812 20.87244,31.512065 18.769696,29.158755 14.518276,24.400728 14.494348,23.125 18.656524,23.125 c 1.947192,0 2.730992,0.509676 5.766899,3.75 1.932386,2.0625 3.7667,3.742748 4.076253,3.733884 0.309553,-0.0089 1.547199,-1.4766 2.750324,-3.261635 3.637463,-5.396779 10.511204,-13.344757 12.210837,-14.119161 2.303959,-1.049754 5.256086,-0.916519 5.706619,0.257551 0.24662,0.642682 -0.601353,2.001875 -2.43703,3.90625 -3.878765,4.02392 -7.980229,9.225541 -11.79381,14.957326 -3.828812,5.754675 -4.554,6.400785 -7.184184,6.400785 -1.699326,0 -2.251271,-0.409056 -3.58411,-2.65625 z"
       id="path4088"
       inkscape:connector-curvature="0" />
    <path
       style="fill:#84c214"
       d="M 19.854407,48.534463 C 14.077917,46.098086 10.46402,42.51241 7.6637994,36.439053 3.2922801,26.95773 7.7503031,14.365717 17.282283,9.27094 21.231419,7.1601544 26.323538,6.0045087 29.66006,6.46183 c 3.979981,0.5455169 9.71494,2.8567469 9.71494,3.915191 0,1.52741 -1.804547,1.719592 -4.544613,0.483995 -1.820075,-0.82074 -4.017608,-1.1687822 -7.31014,-1.1577691 -5.728343,0.019163 -9.592193,1.7739911 -13.68675,6.2160601 -3.670846,3.982399 -4.6794076,6.591063 -4.7203576,12.209298 -0.055794,7.654713 3.4890756,13.432761 10.5111976,17.132992 2.529844,1.333075 3.904923,1.613403 7.914142,1.613403 4.257311,0 5.335624,-0.250198 8.793872,-2.040422 6.600457,-3.416844 10.036883,-9.161708 10.000739,-16.718789 -0.02863,-5.98603 2.503314,-7.680683 3.257252,-2.180108 0.826147,6.027403 -1.874299,13.066912 -6.882568,17.941441 -4.142893,4.032262 -8.060535,5.663942 -14.270274,5.9435 -4.208056,0.189445 -5.567522,-0.01427 -8.583093,-1.286159 z M 26.192792,37.96875 C 25.686176,37.539062 24.240086,35.640625 22.979258,33.75 21.718431,31.859375 19.54793,29.200734 18.155922,27.841908 15.128038,24.886199 14.999434,23.986716 17.5254,23.431921 c 2.373901,-0.521396 3.979764,0.476505 7.516449,4.670803 1.459602,1.731002 2.881935,3.147276 3.16074,3.147276 0.278804,0 1.701977,-1.617188 3.162604,-3.59375 5.085751,-6.88218 10.820078,-13.409597 12.579681,-14.319523 1.730757,-0.89501 5.430126,-0.65385 5.430126,0.353986 0,0.256517 -0.732312,1.148233 -1.627361,1.981591 -2.917401,2.716322 -9.338401,10.765794 -13.232206,16.588114 -2.418547,3.616399 -4.338911,5.839403 -5.256772,6.085216 -1.953707,0.523223 -2.01324,0.515905 -3.065869,-0.376884 z"
       id="path4086"
       inkscape:connector-curvature="0" />
    <path
       style="fill:#7abd01"
       d="M 20.369206,48.391716 C 15.604336,46.645898 10.573438,41.873864 8.2277531,36.875 6.2199817,32.596258 5.9860431,25.77868 7.6792537,20.89029 9.1443806,16.660388 14.117601,11.148654 18.327628,9.0888794 22.839613,6.8813706 28.620766,6.3865156 33.473911,7.7923887 37.247317,8.8854794 38.75,9.7140313 38.75,10.701528 c 0,0.895543 -2.415828,0.625818 -4.562288,-0.509377 C 30.932751,8.4707062 24.220176,8.7631506 19.9553,10.812211 4.8005936,18.093289 4.6707814,38.278928 19.730984,45.693041 c 3.695893,1.819483 4.37035,1.947227 8.897238,1.68517 4.063222,-0.235217 5.497653,-0.626527 8.414778,-2.295537 6.348184,-3.632063 9.232636,-8.517689 9.798014,-16.59568 0.394215,-5.632455 1.527595,-6.958835 2.18728,-2.559745 0.541924,3.613812 -0.57732,9.245857 -2.500653,12.583306 -2.136466,3.707286 -7.835867,8.678823 -11.304289,9.860633 -3.638745,1.239845 -11.496618,1.250704 -14.854146,0.02053 z M 24.052081,34.629053 C 22.822099,32.706282 20.538149,29.767247 18.976637,28.097865 15.951271,24.863504 15.880431,23.75 18.700031,23.75 c 1.350601,0 2.617149,0.929516 5.536023,4.062874 2.266342,2.432877 4.119094,3.921037 4.618105,3.709337 0.458337,-0.194446 2.447198,-2.655552 4.41969,-5.469124 1.972492,-2.813573 5.225047,-6.8734 7.227902,-9.021837 2.91302,-3.124762 4.019005,-3.90625 5.528235,-3.90625 1.037674,0 2.063724,0.177044 2.280111,0.39343 0.216387,0.216387 -1.441617,2.396074 -3.684453,4.84375 -2.242835,2.447676 -6.30048,7.721071 -9.016988,11.718654 -6.549292,9.637865 -7.948505,10.188542 -11.556575,4.548219 z"
       id="path4084"
       inkscape:connector-curvature="0" />
  </g>
</svg>
