<?xml version="1.0" encoding="UTF-8" standalone="no"?>
<!-- Created with Inkscape (http://www.inkscape.org/) -->

<svg
   xmlns:dc="http://purl.org/dc/elements/1.1/"
   xmlns:cc="http://creativecommons.org/ns#"
   xmlns:rdf="http://www.w3.org/1999/02/22-rdf-syntax-ns#"
   xmlns:svg="http://www.w3.org/2000/svg"
   xmlns="http://www.w3.org/2000/svg"
   xmlns:xlink="http://www.w3.org/1999/xlink"
   xmlns:sodipodi="http://sodipodi.sourceforge.net/DTD/sodipodi-0.dtd"
   xmlns:inkscape="http://www.inkscape.org/namespaces/inkscape"
   id="svg3800"
   version="1.1"
   inkscape:version="0.91 r13725"
   width="56.25"
   height="56.25"
   viewBox="0 0 56.25 56.25"
   sodipodi:docname="Tizen.svg">
  <metadata
     id="metadata3806">
    <rdf:RDF>
      <cc:Work
         rdf:about="">
        <dc:format>image/svg+xml</dc:format>
        <dc:type
           rdf:resource="http://purl.org/dc/dcmitype/StillImage" />
        <dc:title></dc:title>
      </cc:Work>
    </rdf:RDF>
  </metadata>
  <defs
     id="defs3804" />
  <sodipodi:namedview
     pagecolor="#ffffff"
     bordercolor="#666666"
     borderopacity="1"
     objecttolerance="10"
     gridtolerance="10"
     guidetolerance="10"
     inkscape:pageopacity="0"
     inkscape:pageshadow="2"
     inkscape:window-width="640"
     inkscape:window-height="480"
     id="namedview3802"
     showgrid="false"
     inkscape:zoom="4.1955556"
     inkscape:cx="28.125"
     inkscape:cy="28.125"
     inkscape:window-x="0"
     inkscape:window-y="0"
     inkscape:window-maximized="0"
     inkscape:current-layer="svg3800" />
  <image
     width="56.25"
     height="56.25"
     preserveAspectRatio="none"
     style="image-rendering:optimizeQuality"
     xlink:href="file:///media/havoc/USB%20DISK/pics/_smallLogos/Tizen.png"
     id="image3808"
     x="0"
     y="0"
     sodipodi:absref="/media/havoc/USB DISK/pics/_smallLogos/Tizen.png" />
  <g
     id="g4045">
    <path
       style="fill:#f5f8f7"
       d="M 0,28.125 0,0 28.125,0 56.25,0 l 0,28.125 0,28.125 -28.125,0 L 0,56.25 0,28.125 Z"
       id="path4061"
       inkscape:connector-curvature="0" />
    <path
       style="fill:#a2d5e5"
       d="m 11.287644,54.107858 c -0.778105,-0.937559 0.500387,-3.386175 4.488361,-8.596284 l 1.761198,-2.300927 -2.674852,-1.832295 C 13.391183,40.37059 11.0625,38.971804 9.6875,38.26994 6.0400222,36.408096 2.0281748,32.452634 1.5994051,30.295519 1.39628,29.273609 0.95331719,27.238151 0.61504336,25.772281 -0.13493114,22.522352 -0.17841628,20 0.51552973,20 0.79907106,20 3.0983327,20.703125 5.625,21.5625 c 5.463315,1.858193 6.878875,1.954861 6.864199,0.46875 -0.0059,-0.601563 0.764598,-3.996605 1.71231,-7.544538 1.48783,-5.5699632 2.068264,-6.8074058 4.250857,-9.0625003 C 20.950129,2.8434754 25.553974,0 27.234656,0 c 1.103493,0 1.472606,1.6579896 1.6697,7.5 L 29.0625,12.1875 32.5,12.134016 c 1.890625,-0.02942 5.6875,-0.143703 8.4375,-0.25397 4.148859,-0.166357 5.425571,0.02548 7.5,1.126924 2.75948,1.465184 7.8125,5.919117 7.8125,6.886249 0,0.509876 -5.654546,3.11771 -10.199344,4.703861 -1.239779,0.432688 -1.136538,1.166718 0.803873,5.71542 1.390914,3.260573 3.213702,8.387728 3.59867,10.122371 0.384384,1.73201 -2.769055,11.759247 -4.026268,12.802641 -0.783062,0.649884 -1.266227,0.403813 -2.901957,-1.477939 C 42.445614,50.517871 40.791736,48.348372 39.84969,46.938466 38.907644,45.52856 37.868962,44.375 37.541507,44.375 c -0.327455,0 -2.369191,1.499187 -4.53719,3.331526 C 24.521291,54.876171 24.263069,55 17.795254,55 13.561642,55 11.831169,54.762766 11.287644,54.107858 Z M 27.377007,37.523967 c 0.32135,-6.8482 1.883329,-7.327505 6.084932,-1.867206 1.600499,2.079968 3.211303,3.681325 3.579565,3.558571 0.368261,-0.122754 1.023252,-1.244786 1.455535,-2.493406 0.967265,-2.793878 0.445337,-3.365215 -3.798461,-4.158043 -3.029231,-0.565921 -4.046817,-1.398002 -4.064007,-3.323143 -0.01187,-1.330055 1.37226,-2.090379 5.999573,-3.295641 1.986275,-0.517359 3.848769,-1.178012 4.138875,-1.468118 0.645069,-0.645069 -4.327526,-4.046574 -5.161826,-3.530948 -0.327262,0.202259 -1.467134,1.635314 -2.533047,3.184568 -1.590347,2.311489 -2.236512,2.782296 -3.601836,2.624362 -1.644365,-0.190214 -1.665921,-0.256377 -1.844393,-5.661213 -0.09932,-3.007813 -0.446446,-5.46875 -0.77139,-5.46875 -0.324943,0 -1.509306,0.826989 -2.631916,1.837752 -1.898982,1.709785 -1.97911,1.938269 -1.150722,3.28125 0.489713,0.793924 1.458769,2.50346 2.153457,3.798969 1.180313,2.20114 1.194624,2.423917 0.218408,3.400132 -0.976215,0.976214 -1.264233,0.975447 -4.39589,-0.01172 C 19.210688,27.350372 16.96864,26.875 16.071535,26.875 c -1.614001,0 -1.6225,0.02457 -0.810748,2.34375 0.900532,2.572825 1.092173,2.620636 6.989932,1.743862 2.681952,-0.398706 3.251913,-0.307986 3.589327,0.571301 0.481481,1.254719 -0.977577,4.269981 -3.426715,7.081585 -0.983582,1.129148 -1.788331,2.339159 -1.788331,2.688912 0,0.374457 1.349091,0.558243 3.28125,0.447002 L 27.1875,41.5625 27.377007,37.523967 Z"
       id="path4059"
       inkscape:connector-curvature="0" />
    <path
       style="fill:#9fa4a6"
       d="m 16.09375,53.941301 c -1.991029,-0.174232 -2.96875,-0.5455 -2.96875,-1.12732 0,-0.995495 2.058711,-4.702795 4.232228,-7.621343 l 1.485625,-1.994863 -2.390177,-1.328411 C 9.4875006,37.998261 7.6824287,36.746759 5.262004,34.110586 3.1599093,31.821116 2.5258396,30.585023 2.1859895,28.114017 1.9505373,26.402076 1.5029934,24.843859 1.1914473,24.651313 0.50327697,24.226 0.43118395,21.875 1.1063122,21.875 c 0.2647217,0 2.5111615,0.5625 4.9920884,1.25 2.4809269,0.6875 4.8720714,1.25 5.3136544,1.25 0.491824,0 1.099192,-1.56203 1.56771,-4.031834 1.712706,-9.028583 4.580065,-13.8828266 10.074705,-17.0557974 1.585666,-0.9156692 3.071683,-1.940148 3.302259,-2.2766195 0.480436,-0.70108456 0.953367,1.9342576 1.369684,7.6323778 0.158954,2.1755941 0.414649,4.0812691 0.568213,4.2348321 0.153563,0.153563 2.852205,-0.01227 5.996982,-0.368512 6.143716,-0.69597 9.912258,-0.379241 12.895892,1.083842 2.019184,0.990145 6.5625,5.08618 6.5625,5.916435 0,0.440787 -4.333257,2.600108 -8.573878,4.272481 l -1.386378,0.546746 2.13474,4.554275 c 2.798421,5.97018 3.944459,11.577681 3.008234,14.719125 -1.009394,3.386959 -2.384782,6.933046 -2.881846,7.43011 -0.559613,0.559613 -3.280503,-2.009952 -4.895737,-4.623455 -2.257899,-3.653358 -2.988649,-3.615928 -7.45345,0.381775 -6.916542,6.192951 -10.751906,7.750478 -17.607935,7.15052 z M 24.738617,42.5 27.5,42.5 l 0,-4.011383 C 27.5,33.693846 27.880271,32.5 29.407529,32.5 c 1.037299,0 6.553235,6.019029 7.300491,7.966346 0.584901,1.524229 1.258641,0.743042 2.34906,-2.723683 1.286087,-4.088803 1.200783,-4.204008 -3.902771,-5.270805 -3.614355,-0.755509 -5.006262,-2.225057 -3.723842,-3.931558 0.848305,-1.128831 5.500097,-2.9153 7.591156,-2.9153 0.750456,0 1.874019,-0.372596 2.496809,-0.82799 1.048807,-0.766906 0.933265,-0.974394 -1.566171,-2.8125 C 38.468078,20.893029 36.921069,20 36.514464,20 c -0.406605,0 -1.907184,1.546875 -3.33462,3.4375 -4.155606,5.50406 -5.543659,4.553392 -5.81102,-3.979927 L 27.1875,13.670299 24.53125,15.946352 c -1.460938,1.251829 -2.65625,2.678446 -2.65625,3.170262 0,0.491815 0.84375,2.058973 1.875,3.482572 2.093163,2.889527 2.38784,4.74325 0.847947,5.334162 -0.564879,0.216765 -3.307067,-0.188114 -6.09375,-0.89973 -2.786683,-0.711617 -5.136189,-1.226742 -5.221125,-1.144722 -0.441811,0.426643 1.994621,6.131896 2.740931,6.418282 0.480396,0.184345 1.641834,0.04317 2.580972,-0.313722 3.435359,-1.305507 6.383471,-1.500799 6.786861,-0.449582 0.54945,1.431844 -0.913305,4.510482 -3.639875,7.660786 -2.301444,2.659111 -2.633894,4.392506 -0.700125,3.650449 C 21.560805,42.659799 23.219857,42.5 24.738617,42.5 Z"
       id="path4057"
       inkscape:connector-curvature="0" />
    <path
       style="fill:#2fa8dc"
       d="m 16.09375,53.941301 c -1.991029,-0.174232 -2.96875,-0.5455 -2.96875,-1.12732 0,-1.078097 2.165416,-4.891409 4.480294,-7.889824 1.717389,-2.224502 1.819967,-2.262042 5.977291,-2.1875 L 27.8125,42.8125 28.125,38.13089 c 0.24218,-3.628132 0.537071,-4.724258 1.310484,-4.871135 1.413521,-0.268438 7.867797,8.393401 7.3238,9.828767 -0.175626,0.463397 -6.22612,5.521716 -11.046062,9.2347 -1.96044,1.510202 -5.003278,2.022034 -9.619472,1.618079 z m 26.910291,-5.291562 c -1.136598,-1.430143 -2.884302,-3.412513 -3.883789,-4.405266 l -1.817246,-1.805006 1.696383,-4.130776 C 40.993521,33.452882 40.70639,32.827739 36.085456,31.964455 32.762336,31.343629 31.171064,30.307938 31.644548,29.074059 32.00482,28.135205 37.264549,26.25 39.523686,26.25 c 0.811973,0 1.789308,-0.312994 2.171857,-0.695542 0.382548,-0.382549 1.03626,-0.484967 1.452693,-0.227597 0.94823,0.586038 4.35042,8.009002 4.355615,9.503166 0.0021,0.60911 0.423992,1.913059 0.9375,2.897665 1.251677,2.399982 1.175879,4.882176 -0.256705,8.406445 -0.654694,1.610599 -1.348992,3.420551 -1.542884,4.022113 -0.540917,1.678229 -1.384231,1.328983 -3.637721,-1.506511 z M 14.625024,40.144003 C 13.284386,39.191954 11.367716,38.051867 10.365757,37.610476 8.5808481,36.824171 6.9056406,35.503454 4.0401074,32.623393 3.1299954,31.708666 2.4533316,30.057826 2.1830769,28.092841 1.9492267,26.392546 1.5029934,24.843859 1.1914473,24.651313 0.51078227,24.230638 0.42729788,21.869456 1.09375,21.888146 c 0.2578125,0.0072 2.9916614,0.672875 6.07522,1.47921 l 5.60647,1.466063 1.273668,3.98954 c 1.413556,4.427721 1.41321,4.427569 7.200892,3.144716 3.682501,-0.816235 4.445626,-0.09037 2.804825,2.667861 -2.436892,4.096489 -5.007881,7.192394 -5.992301,7.215745 -0.549987,0.01304 -2.096861,-0.75523 -3.4375,-1.707278 z M 20.3125,26.886287 c -0.6875,-0.291011 -2.619666,-0.880471 -4.293701,-1.30991 l -3.043702,-0.780798 0.343714,-2.86654 C 13.901253,17.071524 16.872676,8.5696769 18.654343,6.6629912 19.566329,5.6870118 21.578125,4.1536403 23.125,3.2554993 c 1.546875,-0.8981411 3.001153,-1.9082787 3.231729,-2.2447502 0.482032,-0.70341303 0.938957,1.8721 1.396952,7.8740784 l 0.320287,4.1973275 -3.724484,2.926121 C 22.301017,17.617641 20.625,19.050024 20.625,19.191347 c 0,0.141323 0.826071,1.295146 1.835712,2.564052 1.009642,1.268905 2.024506,3.080539 2.255255,4.025851 0.385119,1.577725 0.272959,1.715279 -1.366962,1.67645 C 22.366427,27.434435 21,27.177299 20.3125,26.886287 Z m 8.229167,-1.052954 c -0.732509,-0.732508 -0.472136,-11.35028 0.289884,-11.821234 0.388603,-0.24017 4.003905,-0.729727 8.034003,-1.087903 5.981734,-0.531629 7.717213,-0.490455 9.4497,0.224191 2.191999,0.904194 7.434746,5.346747 7.434746,6.29999 0,0.502723 -6.490769,3.698704 -9.363455,4.610459 -0.934767,0.296683 -2.152076,-0.286554 -4.500127,-2.1561 -1.770306,-1.409538 -3.523653,-2.465071 -3.896327,-2.345629 -0.372675,0.119442 -1.7718,1.674206 -3.109165,3.455031 -2.302062,3.065404 -3.388619,3.771836 -4.339259,2.821195 z"
       id="path4055"
       inkscape:connector-curvature="0" />
    <path
       style="fill:#2870a1"
       d="m 25,51.521412 c 0,-0.194474 0.284283,-0.884777 0.631741,-1.534007 0.447399,-0.835973 0.37331,-1.930516 -0.253902,-3.751013 -0.760305,-2.206801 -0.761258,-2.608863 -0.0067,-2.840994 0.483393,-0.148719 1.300774,-0.402196 1.816399,-0.563282 0.717195,-0.22406 0.9375,-1.330193 0.9375,-4.707116 0,-5.309579 1.124349,-6.379924 3.557336,-3.386468 2.358885,2.902286 5.193418,7.289902 5.18431,8.024871 -0.0084,0.679049 -7.216035,6.897148 -9.630329,8.3082 C 25.810961,51.904662 25,52.067777 25,51.521412 Z M 14.625024,40.126955 C 13.284386,39.16553 11.287148,38.012088 10.186718,37.56375 9.0862875,37.115412 7.7786269,36.126959 7.2808063,35.367188 6.4092313,34.036996 6.4793275,33.955182 9.1716669,33.160229 c 1.5377951,-0.454057 3.1205741,-1.345298 3.5172871,-1.980537 0.680115,-1.089037 0.797658,-1.059212 2.058785,0.522392 1.260861,1.581271 1.476486,1.636044 3.763625,0.956037 4.70405,-1.398597 5.871028,-1.491092 6.253027,-0.49562 0.575317,1.499253 -5.062598,9.649896 -6.701867,9.68878 -0.549987,0.01304 -2.096861,-0.762901 -3.4375,-1.724326 z M 45.9375,37.748941 c -0.869941,-0.669024 -1.97877,-0.84818 -3.646898,-0.589238 -2.371624,0.368143 -2.39275,0.353178 -2.003464,-1.41923 0.493995,-2.249147 -0.429821,-3.071359 -4.25352,-3.785703 -3.275141,-0.611862 -4.860436,-1.652351 -4.38907,-2.880711 C 32.00482,28.135205 37.264549,26.25 39.523686,26.25 c 0.811973,0 1.789308,-0.312994 2.171857,-0.695542 0.382548,-0.382549 1.03626,-0.484967 1.452693,-0.227597 1.893081,1.169988 6.077293,13.46074 4.56295,13.403262 C 47.423159,38.719191 46.625,38.277658 45.9375,37.748941 Z M 20.3125,26.886287 C 19.625,26.595276 17.726562,26.015259 16.09375,25.597362 13.526131,24.940213 13.125,24.622041 13.125,23.242586 c 0,-2.201311 2.438043,-11.043942 3.412351,-12.376389 0.722148,-0.9875957 0.903226,-0.8678339 1.916543,1.267574 0.615475,1.297018 1.847947,2.670091 2.738826,3.051273 0.890879,0.381182 1.738076,0.777844 1.882661,0.881471 0.144585,0.103627 -0.377348,0.869908 -1.159852,1.702844 l -1.422733,1.514429 1.901814,2.389356 c 1.045998,1.314146 2.090608,3.162793 2.321357,4.108106 0.385119,1.577725 0.272959,1.715279 -1.366962,1.67645 C 22.366427,27.434435 21,27.177299 20.3125,26.886287 Z m 8.229167,-1.052954 c -0.668735,-0.668734 -0.479303,-11.345851 0.208842,-11.771148 1.015507,-0.627618 12.447045,-1.716046 13.555574,-1.290664 0.875636,0.336013 0.795034,0.627325 -0.578464,2.090695 -0.877723,0.935156 -1.785345,2.60008 -2.016936,3.699831 -0.387854,1.841789 -0.546982,1.951679 -2.016902,1.392816 -1.906147,-0.724716 -2.647178,-0.218724 -5.276551,3.602939 -1.747076,2.539288 -2.921969,3.229125 -3.875563,2.275531 z"
       id="path4053"
       inkscape:connector-curvature="0" />
    <path
       style="fill:#5a5f63"
       d="m 27.81691,48.90625 c 0.248831,-0.945313 0.408241,-4.746523 0.354244,-8.447134 -0.08484,-5.814531 0.04626,-6.783811 0.965272,-7.136468 0.72806,-0.279382 1.530982,0.167155 2.54591,1.415884 2.687715,3.306866 5.234673,7.397677 5.055932,8.120613 -0.190782,0.771633 -8.249136,7.765855 -8.947387,7.765855 -0.234515,0 -0.222802,-0.773438 0.02603,-1.71875 z M 14.625024,40.154143 c -1.340638,-0.946471 -3.545426,-2.232922 -4.8995278,-2.858779 -1.8994556,-0.877917 -2.2564743,-1.267969 -1.5625,-1.707073 0.4947269,-0.313033 1.5601238,-0.573457 2.3675478,-0.57872 0.807425,-0.0053 2.3543,-0.395009 3.4375,-0.8661 1.990175,-0.86554 5.524202,-1.907412 8.70193,-2.565429 2.27926,-0.47197 2.832592,0.943478 1.299442,3.324037 -2.832373,4.397897 -4.982367,6.927272 -5.906892,6.949202 -0.549987,0.01304 -2.096862,-0.750667 -3.4375,-1.697138 z M 45.3125,35.296292 c -1.375,-0.820642 -2.960039,-1.504275 -3.522308,-1.519185 -0.56227,-0.01491 -1.827895,-0.44725 -2.8125,-0.960756 -0.984606,-0.513508 -2.50105,-0.935383 -3.369876,-0.9375 -2.031949,-0.0049 -4.40228,-1.660744 -3.97424,-2.7762 0.369033,-0.961685 5.599231,-2.852651 7.89011,-2.852651 0.811973,0 1.801894,-0.32558 2.199825,-0.723511 1.063527,-1.063527 2.250586,0.153201 3.926308,4.024439 1.142756,2.639984 2.635589,7.463961 2.253112,7.280756 -0.04974,-0.02382 -1.215431,-0.71475 -2.590431,-1.535392 z m -25,-8.410005 c -0.6875,-0.291011 -2.619666,-0.880471 -4.293701,-1.30991 l -3.043702,-0.780798 0.351863,-2.86654 C 13.520485,20.352442 14.219331,17.375 14.879951,15.3125 l 1.201128,-3.75 1.386907,3.021196 c 0.762798,1.661657 1.865478,3.499768 2.450401,4.084691 2.163581,2.163581 4.371657,5.44367 4.788207,7.112863 0.394248,1.579832 0.284522,1.715331 -1.357589,1.67645 C 22.366427,27.434435 21,27.177299 20.3125,26.886287 Z m 8.078427,-1.46978 c -0.175912,-0.458422 -0.237398,-3.181145 -0.136634,-6.050496 0.212576,-6.053322 -0.165516,-5.759563 8.308207,-6.455039 l 5,-0.410372 -2.176881,1.885544 c -1.197284,1.037049 -2.603534,2.682823 -3.125,3.657275 C 34.501654,21.330363 30.51433,26.25 29.609256,26.25 c -0.494168,0 -1.042415,-0.375072 -1.218329,-0.833493 z"
       id="path4051"
       inkscape:connector-curvature="0" />
    <path
       style="fill:#313a45"
       d="m 27.829579,48.90625 c 0.254824,-0.601563 0.601556,-4.257813 0.770515,-8.125 0.210509,-4.818156 0.539657,-7.03125 1.04574,-7.03125 0.82374,0 4.608558,5.005495 5.774582,7.636996 0.722502,1.630555 0.593334,1.839718 -3.184247,5.15625 -4.123878,3.620563 -5.178962,4.186345 -4.40659,2.363004 z M 14.625024,39.519003 c -1.340638,-0.952049 -3.210961,-2.071019 -4.156274,-2.486601 -2.5974775,-1.141913 -2.0844162,-1.817323 1.720163,-2.264477 1.891401,-0.222297 4.492964,-0.798704 5.781249,-1.280904 3.617607,-1.354055 6.40859,-1.710497 6.382691,-0.815146 C 24.30406,34.358633 18.951412,41.25 17.690069,41.25 c -0.345136,0 -1.724406,-0.778949 -3.065045,-1.730997 z M 41.268219,33.358254 C 39.043865,32.198714 36.336115,31.25 35.250997,31.25 c -2.319001,0 -3.832846,-1.358629 -2.602454,-2.335624 1.063699,-0.844632 4.548244,-1.855378 7.993933,-2.318764 l 2.829976,-0.380582 1.701274,3.468831 c 1.824779,3.720653 2.18092,5.989792 0.920024,5.861893 -0.429688,-0.04359 -2.601176,-1.02796 -4.825531,-2.1875 z M 21.25,26.605561 c -1.203125,-0.456516 -3.413484,-1.200288 -4.911907,-1.652826 l -2.724409,-0.822798 0.357275,-2.533718 c 0.1965,-1.393546 0.82123,-4.079863 1.388288,-5.969593 l 1.031015,-3.435875 1.648619,3.436205 c 0.906741,1.889912 2.703306,4.812438 3.992369,6.494501 2.130676,2.780262 3.059151,5.427694 1.875,5.346338 -0.257813,-0.01771 -1.453125,-0.405718 -2.65625,-0.862234 z m 7.657567,-6.330394 c 0.183571,-2.942408 0.453305,-5.469373 0.59941,-5.615477 0.455273,-0.455273 9.973852,-1.637195 10.32855,-1.282496 0.184819,0.184818 -0.557246,1.258369 -1.64903,2.385669 -3.374121,3.483879 -4.185421,4.460559 -5.98572,7.205887 -2.841456,4.333017 -3.688367,3.640311 -3.29321,-2.693582 z"
       id="path4049"
       inkscape:connector-curvature="0" />
    <path
       style="fill:#2a2f35"
       d="m 28.75,48.202411 c 0,-1.090972 2.742347,-3.706366 4.375,-4.172465 l 1.5625,-0.446072 -1.25,1.400517 C 31.68796,46.9446 28.75,48.961542 28.75,48.202411 Z m 0.625,-10.682072 c 0,-4.437836 0.560741,-4.449205 3.026842,-0.06137 1.126453,2.004251 1.214645,2.450565 0.42431,2.147285 C 32.273841,39.394314 31.28081,39.719 30.601722,40.333566 29.395137,41.42551 29.375,41.379329 29.375,37.520339 Z M 14.6875,39.141305 C 13.65625,38.332897 12.179688,37.473312 11.40625,37.231119 9.9775369,36.783731 9.4463394,35.625 10.669956,35.625 c 0.93292,0 5.93772,2.987316 6.853538,4.090809 1.248411,1.504242 -0.683458,1.112893 -2.835994,-0.574504 z m 4.6875,-1.663958 c 0,-0.380398 -0.42446,-1.116093 -0.943244,-1.634877 -1.272879,-1.272879 -0.728157,-1.930818 2.266086,-2.737084 3.437357,-0.925585 3.870228,-0.626195 2.455733,1.698475 C 21.847093,36.951016 19.375,38.700116 19.375,37.477347 Z m 25.276364,-4.007283 c -1.07868,-1.646272 -2.40339,-6.551372 -1.904146,-7.050615 0.296756,-0.296757 2.461206,3.6535 3.502464,6.392215 0.809356,2.128768 -0.327933,2.597254 -1.598318,0.6584 z M 35.78125,31.128081 c -3.910174,-0.713125 -4.259818,-1.887035 -0.864987,-2.904151 3.332821,-0.998538 4.388578,-0.908501 4.336446,0.36982 -0.02453,0.601562 0.163663,1.585937 0.418212,2.1875 0.254548,0.601562 0.221787,1.060339 -0.0728,1.019502 -0.29459,-0.04083 -2.012181,-0.343538 -3.816868,-0.672671 z M 20,25.625 c -1.546875,-0.649088 -2.466296,-1.195873 -2.043158,-1.215079 0.423139,-0.01921 0.945816,-0.738046 1.161505,-1.597421 0.21569,-0.859375 0.590304,-1.5625 0.832476,-1.5625 0.663111,0 3.561686,3.283179 4.000441,4.53125 C 24.438084,27.166042 23.592888,27.132619 20,25.625 Z m 9.375,-4.419784 c 0,-3.737651 0.04728,-3.856159 1.142963,-2.864584 0.628629,0.568903 1.641563,1.034368 2.250963,1.034368 0.989974,0 0.942397,0.280418 -0.446639,2.632476 C 30.017326,25.910471 29.375,25.735628 29.375,21.205216 Z M 14.388726,22.078931 C 14.36701,19.929538 15.786383,14.375 16.357343,14.375 c 0.942133,0 0.537348,3.570101 -0.718617,6.337997 -0.863545,1.903083 -1.240412,2.314904 -1.25,1.365934 z M 34.0625,14.375 c 1.03125,-0.262409 2.578125,-0.506076 3.4375,-0.541482 1.226482,-0.05053 1.360889,0.06591 0.625,0.541482 -0.515625,0.333222 -2.0625,0.57689 -3.4375,0.541482 -2.408238,-0.06201 -2.431179,-0.08189 -0.625,-0.541482 z"
       id="path4047"
       inkscape:connector-curvature="0" />
  </g>
</svg>
