<?xml version="1.0" encoding="UTF-8" standalone="no"?>
<!-- Created with Inkscape (http://www.inkscape.org/) -->

<svg
   xmlns:dc="http://purl.org/dc/elements/1.1/"
   xmlns:cc="http://creativecommons.org/ns#"
   xmlns:rdf="http://www.w3.org/1999/02/22-rdf-syntax-ns#"
   xmlns:svg="http://www.w3.org/2000/svg"
   xmlns="http://www.w3.org/2000/svg"
   xmlns:xlink="http://www.w3.org/1999/xlink"
   xmlns:sodipodi="http://sodipodi.sourceforge.net/DTD/sodipodi-0.dtd"
   xmlns:inkscape="http://www.inkscape.org/namespaces/inkscape"
   id="svg3810"
   version="1.1"
   inkscape:version="0.91 r13725"
   width="138.125"
   height="56.25"
   viewBox="0 0 138.125 56.25"
   sodipodi:docname="UbuntuTouch.svg">
  <metadata
     id="metadata3816">
    <rdf:RDF>
      <cc:Work
         rdf:about="">
        <dc:format>image/svg+xml</dc:format>
        <dc:type
           rdf:resource="http://purl.org/dc/dcmitype/StillImage" />
        <dc:title></dc:title>
      </cc:Work>
    </rdf:RDF>
  </metadata>
  <defs
     id="defs3814" />
  <sodipodi:namedview
     pagecolor="#ffffff"
     bordercolor="#666666"
     borderopacity="1"
     objecttolerance="10"
     gridtolerance="10"
     guidetolerance="10"
     inkscape:pageopacity="0"
     inkscape:pageshadow="2"
     inkscape:window-width="640"
     inkscape:window-height="480"
     id="namedview3812"
     showgrid="false"
     inkscape:zoom="1.8968326"
     inkscape:cx="69.0625"
     inkscape:cy="28.125"
     inkscape:window-x="0"
     inkscape:window-y="0"
     inkscape:window-maximized="0"
     inkscape:current-layer="svg3810" />
  <image
     width="138.125"
     height="56.25"
     preserveAspectRatio="none"
     style="image-rendering:optimizeQuality"
     xlink:href="file:///media/havoc/USB%20DISK/pics/_smallLogos/UbuntuTouch.png"
     id="image3818"
     x="0"
     y="0"
     sodipodi:absref="/media/havoc/USB DISK/pics/_smallLogos/UbuntuTouch.png" />
  <g
     id="g4008">
    <path
       style="fill:#fcfcfc"
       d="M 0,28.125 0,0 l 69.0625,0 69.0625,0 0,28.125 0,28.125 -69.0625,0 L 0,56.25 0,28.125 Z"
       id="path4024"
       inkscape:connector-curvature="0" />
    <path
       style="fill:#d2d1d1"
       d="M 5.9247722,40.748207 C 2.5213619,39.145088 1.7154183,37.155297 1.3858673,29.542125 1.0181784,21.047903 1.3060869,20 4.0075395,20 c 1.3463242,0 2.2458836,0.35743 2.4880924,0.988617 0.2086525,0.54374 0.3793681,3.89865 0.3793681,7.455357 0,7.652756 0.5282325,8.604999 4.608075,8.306959 L 14.0625,36.5625 l 0.3125,-8.125 0.3125,-8.125 2.1875,0 2.1875,0 0.171966,9.813349 c 0.200181,11.423458 0.446165,10.995352 -6.610063,11.504078 -3.2678811,0.235601 -4.7384449,0.04206 -6.6996308,-0.88172 z m 18.9793718,0.389394 c -1.520245,-0.404942 -2.405128,-1.062211 -2.647717,-1.966655 -0.598348,-2.23083 -0.42895,-25.214577 0.197994,-26.863564 0.672895,-1.769848 3.476763,-2.7250314 4.792862,-1.632766 0.592143,0.491435 0.877591,2.076153 0.877328,4.870662 l -3.88e-4,4.142222 3.156563,-0.218673 c 5.231194,-0.362395 9.595229,3.262901 10.638845,8.837912 1.080293,5.77094 -2.018657,11.592064 -6.891908,12.945886 -2.704421,0.751306 -7.056829,0.701854 -10.123579,-0.115024 z m 10.352797,-6.185554 c 1.870928,-2.223471 2.123957,-5.285822 0.669191,-8.09903 -1.013157,-1.959229 -2.796694,-2.701718 -5.694364,-2.370568 L 28.4375,24.6875 28.254293,29.947757 c -0.100764,2.89314 -0.03927,5.635328 0.136634,6.09375 0.191727,0.499631 1.306838,0.833493 2.783899,0.833493 1.984227,0 2.779144,-0.374459 4.082115,-1.922953 z m 13.167831,5.79616 C 45.021362,39.145088 44.215418,37.155297 43.885868,29.542125 43.518178,21.047903 43.806087,20 46.507539,20 c 1.346325,0 2.245884,0.35743 2.488093,0.988617 0.208652,0.54374 0.379368,3.89865 0.379368,7.455357 0,7.652756 0.528233,8.604999 4.608075,8.306959 L 56.5625,36.5625 l 0.3125,-8.125 0.3125,-8.125 2.1875,0 2.1875,0 0.171966,9.813349 c 0.200182,11.423458 0.446165,10.995352 -6.610063,11.504078 -3.267881,0.235601 -4.738445,0.04206 -6.699631,-0.88172 z m 41.153653,0.248644 c -3.739588,-1.69036 -4.2428,-3.276636 -4.470475,-14.092317 -0.244181,-11.599625 0.176156,-13.32684 3.1729,-13.037913 1.907313,0.183892 2.050775,0.368004 2.34415,3.008379 L 90.9375,19.6875 94.375,20 c 3.333331,0.30303 3.4375,0.369318 3.4375,2.1875 0,1.818182 -0.104169,1.88447 -3.4375,2.1875 l -3.4375,0.3125 0,5.9375 0,5.9375 3.4375,0.3125 c 3.030812,0.275528 3.462244,0.487401 3.646663,1.790834 0.115043,0.813084 -0.03694,1.724447 -0.33775,2.025252 -1.04355,1.043548 -6.055051,1.232598 -8.105488,0.305765 z m 15.456065,0.04574 C 101.17264,39.574643 100.34066,37.697975 100.09976,29.91152 99.820462,20.883861 100.05747,20 102.75754,20 c 1.34632,0 2.24589,0.35743 2.48809,0.988617 0.20866,0.54374 0.37937,3.89865 0.37937,7.455357 0,7.469695 0.50394,8.431026 4.41964,8.431026 l 2.45536,0 0.009,-7.03125 c 0.0114,-9.404751 0.18492,-9.959192 3.04171,-9.72037 l 2.26223,0.18912 0.17197,9.813349 c 0.16443,9.383524 0.11513,9.843765 -1.1256,10.507784 -2.03414,1.088639 -9.36892,1.342321 -11.82438,0.408961 z M 65.446412,40.863078 C 65.200888,40.617552 65,36.114062 65,30.855323 65,19.524804 64.825831,19.773043 72.8125,19.720435 81.405369,19.663834 83.115119,21.943988 83.121512,33.46875 83.125225,40.157216 82.711006,41.25 80.172031,41.25 78.107569,41.25 77.5,39.133072 77.5,31.939925 c 0,-5.757908 -0.08277,-6.147998 -1.461025,-6.885618 -0.803569,-0.430055 -2.280131,-0.688518 -3.28125,-0.574363 L 70.9375,24.6875 l -0.3125,8.125 -0.3125,8.125 -2.209838,0.185995 c -1.215412,0.102297 -2.410725,-0.01489 -2.65625,-0.260417 z M 125.81128,28.344216 c -0.75692,-0.164055 -2.23348,-1.274655 -3.28125,-2.467997 -1.57241,-1.790877 -1.90503,-2.707753 -1.90503,-5.251219 0,-2.553206 0.33139,-3.458939 1.93296,-5.283031 2.74806,-3.129868 6.03138,-4.011094 9.35711,-2.5114 3.78479,1.706704 4.95993,3.54433 4.95993,7.756114 0,3.211829 -0.19953,3.736498 -2.13399,5.611455 -2.1599,2.09346 -5.48525,2.89264 -8.92973,2.146078 z"
       id="path4022"
       inkscape:connector-curvature="0" />
    <path
       style="fill:#a4a2a3"
       d="M 6.4534231,40.338042 C 2.9818521,38.827984 2.2159297,36.8647 1.9606083,28.821636 1.7614156,22.546723 1.8698892,21.549468 2.8278064,20.849021 3.5987744,20.285276 4.2669279,20.232672 5.0863377,20.671206 6.1126046,21.220448 6.25,22.103126 6.25,28.14699 c 0,6.019677 0.1520012,7.005011 1.25,8.10301 1.41489,1.41489 5.530267,1.719732 6.75,0.5 0.501478,-0.501478 0.75,-3.280093 0.75,-8.385417 0,-7.947602 0.31042,-8.83964 2.65625,-7.633139 0.967648,0.497679 1.09375,1.637484 1.09375,9.886168 l 0,9.323633 -2.34375,0.650892 C 13.191064,41.485039 8.8346394,41.373819 6.4534231,40.338042 Z M 25.625,40.828897 c -3.099753,-0.64211 -3.12561,-0.765043 -3.115429,-14.811675 0.0053,-7.262597 0.216201,-13.518377 0.46875,-13.901734 0.64251,-0.975299 2.812061,-1.55455 3.708705,-0.990191 0.431624,0.27167 0.829253,2.308837 0.9375,4.803089 l 0.187974,4.331328 3.288161,-0.17656 c 6.312043,-0.338932 10.383714,3.961839 10.383714,10.967969 0,4.244124 -0.908101,6.121281 -4.122089,8.52087 -1.660077,1.239426 -8.358755,1.956764 -11.737286,1.256904 z m 7.961685,-3.720978 C 35.415223,36.617829 37.5,33.191529 37.5,30.676441 37.5,28.246799 36.031683,25.26163 34.409619,24.393527 32.774604,23.518494 29.169184,23.580816 28.25,24.5 c -1.056117,1.056117 -1.028551,12.158436 0.03125,12.586074 1.114217,0.449597 3.670213,0.460121 5.305435,0.02184 z M 48.75,40.155279 c -3.439764,-1.718355 -4.372889,-4.311521 -4.374029,-12.155473 -8.12e-4,-5.681869 0.161101,-6.778394 1.07664,-7.290755 0.683608,-0.382566 1.483415,-0.385881 2.1875,-0.0091 0.959588,0.513559 1.109889,1.522029 1.109889,7.447008 0,6.080619 0.144747,6.997757 1.284262,8.137272 0.971609,0.971609 1.922585,1.237882 3.90625,1.09375 L 56.5625,37.1875 56.875,29.194973 c 0.3302,-8.445216 0.844009,-9.790722 3.247574,-8.504374 1.00922,0.540118 1.127426,1.580929 1.127426,9.927013 l 0,9.323633 -2.34375,0.650892 C 55.40415,41.564719 51.210276,41.384324 48.75,40.155279 Z m 40.757856,0.153092 C 86.230312,38.884344 85.625,36.556675 85.625,25.377217 c 0,-8.095881 0.165106,-9.828036 1.018088,-10.681018 0.559949,-0.559948 1.4267,-0.861287 1.926118,-0.669643 C 89.068619,14.2182 89.594856,14.375 89.738619,14.375 89.882375,14.375 90,15.640625 90,17.1875 L 90,20 92.541088,20 C 95.465894,20 97.5,20.897295 97.5,22.1875 c 0,1.290205 -2.034106,2.1875 -4.958912,2.1875 l -2.541088,0 0,5.8125 c 0,3.6875 0.274194,6.086694 0.75,6.5625 0.4125,0.4125 1.9682,0.75 3.457112,0.75 1.935563,0 2.819538,0.292956 3.10155,1.02788 0.925825,2.412654 -3.841443,3.500756 -7.800806,1.780491 z m 16.303424,0.504481 c -0.75692,-0.146805 -2.23348,-1.243291 -3.28125,-2.436633 -1.89539,-2.15874 -1.90503,-2.207381 -1.90503,-9.61691 0,-6.400233 0.15149,-7.531978 1.07761,-8.050258 0.68361,-0.382566 1.48341,-0.385881 2.1875,-0.0091 0.95959,0.513557 1.10989,1.522026 1.10989,7.447005 0,6.080619 0.14475,6.997757 1.28426,8.137272 0.97161,0.971609 1.92258,1.237882 3.90625,1.09375 l 2.62199,-0.190509 0.3125,-7.993357 c 0.33018,-8.445561 0.84366,-9.790079 3.24758,-8.503544 1.00921,0.540118 1.12742,1.580929 1.12742,9.927013 l 0,9.323633 -2.34375,0.650892 c -2.30796,0.640952 -6.64956,0.743495 -9.34497,0.220715 z M 66.070363,40.237027 C 65.825412,39.992079 65.625,35.630632 65.625,30.544923 l 0,-9.246743 2.649381,-0.713404 c 3.667225,-0.987481 9.20695,-0.492159 11.27755,1.008357 2.312963,1.676151 3.022825,4.780526 2.813769,12.305177 -0.172981,6.226273 -0.221906,6.42037 -1.670019,6.625122 -0.8205,0.116014 -1.730256,-0.165236 -2.021681,-0.625 -0.291419,-0.459763 -0.534169,-3.843421 -0.539431,-7.519242 -0.0089,-6.192234 -0.111638,-6.754799 -1.398638,-7.65625 -1.468868,-1.028836 -4.65765,-1.281534 -5.934387,-0.470278 -0.514713,0.327058 -0.818081,3.003723 -0.9375,8.27168 L 69.6875,40.3125 68.101613,40.497444 c -0.872244,0.101719 -1.786307,-0.01547 -2.03125,-0.260417 z M 125.625,27.478699 c -2.35992,-0.925753 -4.375,-4.30662 -4.375,-7.34029 0,-2.13228 0.38962,-2.986358 2.17828,-4.775026 3.64924,-3.64924 7.08494,-3.60517 11.10297,0.142416 1.45694,1.358872 1.71875,2.10738 1.71875,4.913773 0,2.736732 -0.29798,3.638448 -1.71875,5.201123 -1.91062,2.101445 -6.07241,2.969669 -8.90625,1.858004 z m 6.54056,-4.095426 c 1.25484,-1.915132 0.80145,-2.737345 -0.75548,-1.370033 -0.60367,0.53015 -1.73447,1.158049 -2.51291,1.395333 C 127.16022,23.938036 127.66425,25 129.65251,25 c 0.87397,0 1.87619,-0.644762 2.51305,-1.616728 z m -6.02947,-4.451616 -0.19859,-1.710531 -1.14279,1.754788 c -1.10705,1.699912 -1.10705,1.794514 0,3.025088 l 1.14279,1.2703 0.19859,-1.314558 c 0.10923,-0.723006 0.10923,-2.084295 0,-3.025087 z m 6.51797,-1.113476 c -0.35723,-1.868687 -0.93411,-2.334287 -2.26122,-1.825026 -0.83696,0.321171 -0.78822,0.618049 0.35548,2.164986 1.53571,2.077146 2.34035,1.933606 1.90574,-0.33996 z"
       id="path4020"
       inkscape:connector-curvature="0" />
    <path
       style="fill:#f59557"
       d="m 6.5625,40.034152 c -0.6875,-0.281388 -1.8125,-1.13632 -2.5,-1.899848 -1.1109281,-1.233782 -1.25,-2.267643 -1.25,-9.292518 0,-7.487619 0.065892,-7.904286 1.25,-7.904286 1.1602161,0 1.272446,0.520833 1.5625,7.251207 0.1967416,4.565165 0.6101446,7.608544 1.1160181,8.215871 1.0792063,1.295641 4.5974879,1.893458 6.6193599,1.124744 L 15,36.905939 15,29.466998 c 0,-5.750467 0.206578,-7.610386 0.910122,-8.194276 1.848156,-1.533834 2.214878,-0.02843 2.214878,9.092133 l 0,9.041084 -1.603188,0.60953 C 14.607929,40.743127 8.3235006,40.754916 6.5625,40.034152 Z M 25,40.102584 23.4375,39.631912 23.269302,26.1524 C 23.12721,14.765064 23.247234,12.551611 24.042592,11.891522 26.006907,10.261286 26.875,11.579781 26.875,16.193499 c 0,2.396752 0.248943,4.511585 0.553207,4.69963 0.304264,0.188046 1.420862,0.03944 2.481329,-0.330246 2.627742,-0.916036 5.801194,0.193806 8.500002,2.972679 3.730768,3.841451 3.602816,11.177616 -0.259491,14.877941 -1.681984,1.611443 -2.358149,1.809971 -6.728718,1.97561 C 28.748973,40.490392 25.859375,40.361454 25,40.102584 Z M 33.572774,37.59395 C 35.61948,36.993431 38.125,33.245844 38.125,30.785037 c 0,-5.785041 -5.664519,-9.626381 -9.860934,-6.687097 -1.269239,0.889009 -1.389066,1.483818 -1.389066,6.89514 0,5.557395 0.08662,5.957019 1.40625,6.487444 1.625494,0.653369 3.326972,0.68984 5.291524,0.113426 z M 49.0625,40.034152 c -0.6875,-0.281388 -1.8125,-1.136043 -2.5,-1.899231 -1.110971,-1.233282 -1.25,-2.266822 -1.25,-9.292519 0,-7.488235 0.06589,-7.904902 1.25,-7.904902 1.160216,0 1.272446,0.520833 1.5625,7.251207 0.196742,4.565165 0.610144,7.608544 1.116018,8.215871 1.079206,1.295641 4.597488,1.893458 6.61936,1.124744 L 57.5,36.905939 l 0,-7.438941 c 0,-5.750467 0.206577,-7.610386 0.910122,-8.194276 1.848156,-1.533834 2.214878,-0.02843 2.214878,9.092133 l 0,9.041084 -1.603188,0.60953 c -1.913883,0.727658 -8.198311,0.739447 -9.959312,0.01868 z m 40.501475,-0.02674 C 86.790144,38.860504 86.25,36.481336 86.25,25.410406 c 0,-8.81745 0.141125,-10.330826 0.9939,-10.658066 1.49905,-0.575239 2.130075,0.107406 2.140669,2.315796 0.014,2.917316 0.609025,3.454956 4.065012,3.672982 2.630794,0.165966 3.112919,0.389981 3.112919,1.446382 0,1.060606 -0.520831,1.297349 -3.4375,1.5625 l -3.4375,0.3125 -0.1794,5.758102 c -0.214806,6.894702 0.619144,8.304398 4.912725,8.304398 2.087056,0 2.5084,0.1971 2.338131,1.09375 -0.156344,0.823321 -0.9017,1.126241 -3.014575,1.225161 -1.543787,0.07227 -3.424969,-0.124152 -4.180406,-0.436505 z m 15.748525,0.02133 c -0.6875,-0.284369 -1.89181,-1.20831 -2.67624,-2.053201 -1.34877,-1.452709 -1.41668,-1.957263 -1.25,-9.287099 0.16543,-7.275517 0.25291,-7.750933 1.42624,-7.750933 1.16022,0 1.27244,0.520833 1.5625,7.251207 0.20529,4.763658 0.60206,7.598892 1.15655,8.264711 1.124,1.349649 4.3887,1.908588 6.48736,1.11068 l 1.69341,-0.643832 0.17509,-7.991383 c 0.16468,-7.516352 0.2494,-7.991383 1.42509,-7.991383 1.18574,0 1.25889,0.474337 1.42301,9.227847 l 0.17301,9.227847 -1.61995,0.615903 c -1.93426,0.735408 -8.21571,0.747771 -9.97607,0.01964 z m -39.270831,-0.4454 C 65.8125,39.354167 65.625,35.451104 65.625,30.909861 c 0,-9.798806 0.01756,-9.826545 6.446988,-10.18984 5.278949,-0.298288 8.121062,0.891663 9.144981,3.828873 0.361918,1.038199 0.658031,4.958977 0.658031,8.71284 0,6.7205 -0.02156,6.822141 -1.40625,6.625485 C 79.13605,39.697946 79.054362,39.376951 78.906937,33.75 78.821375,30.484375 78.606363,27.184803 78.429131,26.417618 78.062675,24.831344 75.191169,23.125 72.888181,23.125 69.857981,23.125 69.375,24.419979 69.375,32.544643 69.375,39.938351 69.362944,40 67.916669,40 c -0.802088,0 -1.645838,-0.1875 -1.875,-0.416667 z M 125.625,27.478699 c -2.35992,-0.925753 -4.375,-4.30662 -4.375,-7.34029 0,-2.13228 0.38962,-2.986358 2.17828,-4.775026 3.64924,-3.64924 7.08494,-3.60517 11.10297,0.142416 1.45694,1.358872 1.71875,2.10738 1.71875,4.913773 0,2.736732 -0.29798,3.638448 -1.71875,5.201123 -1.91062,2.101445 -6.07241,2.969669 -8.90625,1.858004 z m 6.54056,-4.095426 c 1.25484,-1.915132 0.80145,-2.737345 -0.75548,-1.370033 -0.60367,0.53015 -1.73447,1.158049 -2.51291,1.395333 C 127.16022,23.938036 127.66425,25 129.65251,25 c 0.87397,0 1.87619,-0.644762 2.51305,-1.616728 z m -6.02947,-4.451616 -0.19859,-1.710531 -1.14279,1.754788 c -1.10705,1.699912 -1.10705,1.794514 0,3.025088 l 1.14279,1.2703 0.19859,-1.314558 c 0.10923,-0.723006 0.10923,-2.084295 0,-3.025087 z m 6.51797,-1.113476 c -0.35723,-1.868687 -0.93411,-2.334287 -2.26122,-1.825026 -0.83696,0.321171 -0.78822,0.618049 0.35548,2.164986 1.53571,2.077146 2.34035,1.933606 1.90574,-0.33996 z"
       id="path4018"
       inkscape:connector-curvature="0" />
    <path
       style="fill:#e9782e"
       d="m 6.5625,40.034152 c -0.6875,-0.281388 -1.8125,-1.13632 -2.5,-1.899848 -1.1109281,-1.233782 -1.25,-2.267643 -1.25,-9.292518 0,-7.487619 0.065892,-7.904286 1.25,-7.904286 1.1602161,0 1.272446,0.520833 1.5625,7.251207 0.1967416,4.565165 0.6101446,7.608544 1.1160181,8.215871 1.0792063,1.295641 4.5974879,1.893458 6.6193599,1.124744 L 15,36.905939 15,29.466998 c 0,-5.750467 0.206578,-7.610386 0.910122,-8.194276 1.848156,-1.533834 2.214878,-0.02843 2.214878,9.092133 l 0,9.041084 -1.603188,0.60953 C 14.607929,40.743127 8.3235006,40.754916 6.5625,40.034152 Z M 25,40.102584 23.4375,39.631912 23.269302,26.1524 C 23.12721,14.765064 23.247234,12.551611 24.042592,11.891522 26.006907,10.261286 26.875,11.579781 26.875,16.193499 c 0,2.396752 0.248943,4.511585 0.553207,4.69963 0.304264,0.188046 1.420862,0.03944 2.481329,-0.330246 2.627742,-0.916036 5.801194,0.193806 8.500002,2.972679 3.730768,3.841451 3.602816,11.177616 -0.259491,14.877941 -1.681984,1.611443 -2.358149,1.809971 -6.728718,1.97561 C 28.748973,40.490392 25.859375,40.361454 25,40.102584 Z M 33.572774,37.59395 C 35.61948,36.993431 38.125,33.245844 38.125,30.785037 c 0,-5.785041 -5.664519,-9.626381 -9.860934,-6.687097 -1.269239,0.889009 -1.389066,1.483818 -1.389066,6.89514 0,5.557395 0.08662,5.957019 1.40625,6.487444 1.625494,0.653369 3.326972,0.68984 5.291524,0.113426 z M 49.0625,40.034152 c -0.6875,-0.281388 -1.8125,-1.136043 -2.5,-1.899231 -1.110971,-1.233282 -1.25,-2.266822 -1.25,-9.292519 0,-7.488235 0.06589,-7.904902 1.25,-7.904902 1.160216,0 1.272446,0.520833 1.5625,7.251207 0.196742,4.565165 0.610144,7.608544 1.116018,8.215871 1.079206,1.295641 4.597488,1.893458 6.61936,1.124744 L 57.5,36.905939 l 0,-7.438941 c 0,-5.750467 0.206577,-7.610386 0.910122,-8.194276 1.848156,-1.533834 2.214878,-0.02843 2.214878,9.092133 l 0,9.041084 -1.603188,0.60953 c -1.913883,0.727658 -8.198311,0.739447 -9.959312,0.01868 z m 40.501475,-0.02674 C 86.790144,38.860504 86.25,36.481336 86.25,25.410406 c 0,-8.81745 0.141125,-10.330826 0.9939,-10.658066 1.49905,-0.575239 2.130075,0.107406 2.140669,2.315796 0.014,2.917316 0.609025,3.454956 4.065012,3.672982 2.630794,0.165966 3.112919,0.389981 3.112919,1.446382 0,1.060606 -0.520831,1.297349 -3.4375,1.5625 l -3.4375,0.3125 -0.1794,5.758102 c -0.214806,6.894702 0.619144,8.304398 4.912725,8.304398 2.087056,0 2.5084,0.1971 2.338131,1.09375 -0.156344,0.823321 -0.9017,1.126241 -3.014575,1.225161 -1.543787,0.07227 -3.424969,-0.124152 -4.180406,-0.436505 z m 15.748525,0.02133 c -0.6875,-0.284369 -1.89181,-1.20831 -2.67624,-2.053201 -1.34877,-1.452709 -1.41668,-1.957263 -1.25,-9.287099 0.16543,-7.275517 0.25291,-7.750933 1.42624,-7.750933 1.16022,0 1.27244,0.520833 1.5625,7.251207 0.20529,4.763658 0.60206,7.598892 1.15655,8.264711 1.124,1.349649 4.3887,1.908588 6.48736,1.11068 l 1.69341,-0.643832 0.17509,-7.991383 c 0.16468,-7.516352 0.2494,-7.991383 1.42509,-7.991383 1.18574,0 1.25889,0.474337 1.42301,9.227847 l 0.17301,9.227847 -1.61995,0.615903 c -1.93426,0.735408 -8.21571,0.747771 -9.97607,0.01964 z m -39.270831,-0.4454 C 65.8125,39.354167 65.625,35.451104 65.625,30.909861 c 0,-9.798806 0.01756,-9.826545 6.446988,-10.18984 5.278949,-0.298288 8.121062,0.891663 9.144981,3.828873 0.361918,1.038199 0.658031,4.958977 0.658031,8.71284 0,6.7205 -0.02156,6.822141 -1.40625,6.625485 C 79.13605,39.697946 79.054362,39.376951 78.906937,33.75 78.821375,30.484375 78.606363,27.184803 78.429131,26.417618 78.062675,24.831344 75.191169,23.125 72.888181,23.125 69.857981,23.125 69.375,24.419979 69.375,32.544643 69.375,39.938351 69.362944,40 67.916669,40 c -0.802088,0 -1.645838,-0.1875 -1.875,-0.416667 z M 124.08779,25.162636 C 122.73143,23.699861 121.97654,21.875 122.72781,21.875 c 0.12529,0 1.17998,0.839258 2.34375,1.865017 1.16376,1.025759 2.73215,1.869509 3.4853,1.875 0.75315,0.0055 1.54319,0.291233 1.75564,0.634983 0.23304,0.377062 -0.61008,0.625 -2.12532,0.625 -1.93463,0 -2.87634,-0.393366 -4.09939,-1.712364 z m 9.33746,-1.568886 c 0.61924,-1.952299 0.63129,-2.905756 0.0729,-5.772547 l -0.4852,-2.491297 1.306,1.181914 c 1.44164,1.304673 1.79104,5.164041 0.65901,7.279268 -0.91249,1.704994 -2.10796,1.553063 -1.55276,-0.197338 z m -6.23761,-1.718531 c -0.23668,-0.382945 -0.25328,-1.401662 -0.0369,-2.263816 0.29491,-1.175005 0.74006,-1.518263 1.7776,-1.370727 1.9806,0.281637 2.01246,3.857288 0.0369,4.138815 -0.741,0.105595 -1.54092,-0.121327 -1.77759,-0.504272 z m -4.87398,-2.894896 c -1.31673,-1.316729 3.61033,-5.223933 6.59259,-5.227987 2.53218,-0.0034 2.08961,1.099623 -0.74774,1.86364 -1.35657,0.365287 -3.01424,1.360502 -3.6837,2.21159 -1.29485,1.646139 -1.53805,1.775861 -2.16115,1.152757 z"
       id="path4016"
       inkscape:connector-curvature="0" />
    <path
       style="fill:#6f6c6d"
       d="m 6.5625,40.034152 c -0.6875,-0.281388 -1.8125,-1.13632 -2.5,-1.899848 -1.1109281,-1.233782 -1.25,-2.267643 -1.25,-9.292518 0,-7.487619 0.065892,-7.904286 1.25,-7.904286 1.1602161,0 1.272446,0.520833 1.5625,7.251207 0.1967416,4.565165 0.6101446,7.608544 1.1160181,8.215871 1.0792063,1.295641 4.5974879,1.893458 6.6193599,1.124744 L 15,36.905939 15,29.466998 c 0,-5.750467 0.206578,-7.610386 0.910122,-8.194276 1.848156,-1.533834 2.214878,-0.02843 2.214878,9.092133 l 0,9.041084 -1.603188,0.60953 C 14.607929,40.743127 8.3235006,40.754916 6.5625,40.034152 Z M 25,40.102584 23.4375,39.631912 23.269302,26.1524 C 23.12721,14.765064 23.247234,12.551611 24.042592,11.891522 26.006907,10.261286 26.875,11.579781 26.875,16.193499 c 0,2.396752 0.248943,4.511585 0.553207,4.69963 0.304264,0.188046 1.420862,0.03944 2.481329,-0.330246 2.627742,-0.916036 5.801194,0.193806 8.500002,2.972679 3.730768,3.841451 3.602816,11.177616 -0.259491,14.877941 -1.681984,1.611443 -2.358149,1.809971 -6.728718,1.97561 C 28.748973,40.490392 25.859375,40.361454 25,40.102584 Z M 33.572774,37.59395 C 35.61948,36.993431 38.125,33.245844 38.125,30.785037 c 0,-5.785041 -5.664519,-9.626381 -9.860934,-6.687097 -1.269239,0.889009 -1.389066,1.483818 -1.389066,6.89514 0,5.557395 0.08662,5.957019 1.40625,6.487444 1.625494,0.653369 3.326972,0.68984 5.291524,0.113426 z M 49.0625,40.034152 c -0.6875,-0.281388 -1.8125,-1.136043 -2.5,-1.899231 -1.110971,-1.233282 -1.25,-2.266822 -1.25,-9.292519 0,-7.488235 0.06589,-7.904902 1.25,-7.904902 1.160216,0 1.272446,0.520833 1.5625,7.251207 0.196742,4.565165 0.610144,7.608544 1.116018,8.215871 1.079206,1.295641 4.597488,1.893458 6.61936,1.124744 L 57.5,36.905939 l 0,-7.438941 c 0,-5.750467 0.206577,-7.610386 0.910122,-8.194276 1.848156,-1.533834 2.214878,-0.02843 2.214878,9.092133 l 0,9.041084 -1.603188,0.60953 c -1.913883,0.727658 -8.198311,0.739447 -9.959312,0.01868 z m 40.501475,-0.02674 C 86.790144,38.860504 86.25,36.481336 86.25,25.410406 c 0,-8.81745 0.141125,-10.330826 0.9939,-10.658066 1.49905,-0.575239 2.130075,0.107406 2.140669,2.315796 0.014,2.917316 0.609025,3.454956 4.065012,3.672982 2.630794,0.165966 3.112919,0.389981 3.112919,1.446382 0,1.060606 -0.520831,1.297349 -3.4375,1.5625 l -3.4375,0.3125 -0.1794,5.758102 c -0.214806,6.894702 0.619144,8.304398 4.912725,8.304398 2.087056,0 2.5084,0.1971 2.338131,1.09375 -0.156344,0.823321 -0.9017,1.126241 -3.014575,1.225161 -1.543787,0.07227 -3.424969,-0.124152 -4.180406,-0.436505 z m 15.748525,0.02133 c -0.6875,-0.284369 -1.89181,-1.20831 -2.67624,-2.053201 -1.34877,-1.452709 -1.41668,-1.957263 -1.25,-9.287099 0.16543,-7.275517 0.25291,-7.750933 1.42624,-7.750933 1.16022,0 1.27244,0.520833 1.5625,7.251207 0.20529,4.763658 0.60206,7.598892 1.15655,8.264711 1.124,1.349649 4.3887,1.908588 6.48736,1.11068 l 1.69341,-0.643832 0.17509,-7.991383 c 0.16468,-7.516352 0.2494,-7.991383 1.42509,-7.991383 1.18574,0 1.25889,0.474337 1.42301,9.227847 l 0.17301,9.227847 -1.61995,0.615903 c -1.93426,0.735408 -8.21571,0.747771 -9.97607,0.01964 z m -39.270831,-0.4454 C 65.8125,39.354167 65.625,35.451104 65.625,30.909861 c 0,-9.798806 0.01756,-9.826545 6.446988,-10.18984 5.278949,-0.298288 8.121062,0.891663 9.144981,3.828873 0.361918,1.038199 0.658031,4.958977 0.658031,8.71284 0,6.7205 -0.02156,6.822141 -1.40625,6.625485 C 79.13605,39.697946 79.054362,39.376951 78.906937,33.75 78.821375,30.484375 78.606363,27.184803 78.429131,26.417618 78.062675,24.831344 75.191169,23.125 72.888181,23.125 69.857981,23.125 69.375,24.419979 69.375,32.544643 69.375,39.938351 69.362944,40 67.916669,40 c -0.802088,0 -1.645838,-0.1875 -1.875,-0.416667 z"
       id="path4014"
       inkscape:connector-curvature="0" />
    <path
       style="fill:#524f50"
       d="M 7.6955706,39.948541 C 3.8549397,38.81308 3.125,37.011164 3.125,28.665713 3.125,22.490635 3.281842,21.25 4.0625,21.25 4.8289939,21.25 5,22.316026 5,27.094236 5,33.46321 5.7514064,36.564181 7.5246512,37.513193 9.123355,38.368793 13.972373,38.277627 14.875,37.375 c 0.502514,-0.502514 0.75,-3.301851 0.75,-8.483328 0,-7.028346 0.09971,-7.714198 1.09375,-7.523487 0.967309,0.185582 1.113784,1.191929 1.267047,8.705152 0.128826,6.315274 -0.03156,8.659175 -0.625,9.133867 -1.180343,0.944153 -7.372682,1.419114 -9.6652264,0.741337 z M 27.8125,40.317827 C 27.46875,40.203159 26.408596,39.937382 25.456603,39.727213 L 23.725706,39.345087 23.894103,25.766294 C 24.056637,12.660299 24.106024,12.1875 25.3125,12.1875 c 1.119291,0 1.269289,0.478156 1.434467,4.572697 l 0.184468,4.572697 3.423315,-0.427715 c 3.019984,-0.377322 3.704699,-0.241503 5.811603,1.15278 3.374739,2.233297 4.69945,5.326031 4.276969,9.985223 -0.262961,2.899986 -0.704491,4.098521 -2.013006,5.464317 -2.132563,2.225915 -7.840658,3.736737 -10.617816,2.810328 z m 8.115593,-3.911577 c 2.659649,-2.850489 3.19247,-5.700764 1.697471,-9.080457 -1.496206,-3.382421 -4.277205,-5.151715 -7.183808,-4.570394 -3.322337,0.664467 -3.566756,1.223269 -3.566756,8.154462 0,3.509993 0.1875,6.569306 0.416667,6.798472 0.229166,0.229167 1.905284,0.416667 3.724707,0.416667 2.803333,0 3.552713,-0.262229 4.911719,-1.71875 z m 14.267478,3.542291 C 46.354939,38.81308 45.625,37.011164 45.625,28.665713 45.625,22.490635 45.781842,21.25 46.5625,21.25 c 0.766494,0 0.9375,1.066026 0.9375,5.844236 0,6.368974 0.751406,9.469945 2.524651,10.418957 1.598704,0.8556 6.447721,0.764434 7.350349,-0.138193 0.502514,-0.502514 0.75,-3.301851 0.75,-8.483328 0,-7.028346 0.09971,-7.714198 1.09375,-7.523487 0.967309,0.185582 1.113784,1.191929 1.267047,8.705152 0.128826,6.315274 -0.03156,8.659175 -0.625,9.133867 -1.180343,0.944153 -7.372682,1.419114 -9.665226,0.741337 z M 106.25,39.913152 c -3.84536,-1.09743 -4.34541,-2.35948 -4.3611,-11.006902 -0.0116,-6.395066 0.14053,-7.65625 0.9236,-7.65625 0.76649,0 0.9375,1.066026 0.9375,5.844236 0,6.368974 0.75141,9.469945 2.52465,10.418957 1.59871,0.8556 6.44773,0.764434 7.35035,-0.138193 0.50251,-0.502514 0.75,-3.301851 0.75,-8.483328 0,-7.028346 0.0997,-7.714198 1.09375,-7.523487 0.96731,0.185582 1.11378,1.191929 1.26705,8.705152 0.12882,6.315274 -0.0316,8.659175 -0.625,9.133867 -1.21087,0.968567 -7.39043,1.41097 -9.8608,0.705948 z M 66.666669,39.583333 C 66.4375,39.354167 66.25,35.426562 66.25,30.855323 c 0,-9.390623 -0.133994,-9.133856 5.182469,-9.931035 3.96645,-0.594751 8.371906,0.998753 9.294275,3.361846 0.354512,0.908252 0.794962,4.468981 0.978775,7.912732 0.281968,5.282596 0.175943,6.392717 -0.678256,7.10164 -1.394075,1.156976 -1.551238,0.509404 -1.77785,-7.325397 -0.172601,-5.967528 -0.302644,-6.556033 -1.698238,-7.685268 -1.149312,-0.929956 -2.272131,-1.178499 -4.6875,-1.037609 L 69.6875,23.4375 69.510956,31.225657 c -0.119419,5.267958 -0.422787,7.944623 -0.9375,8.27168 -0.9443,0.600023 -1.373412,0.619376 -1.906787,0.086 z M 88.441613,38.498429 C 86.888019,36.944837 86.875,36.840306 86.875,25.920081 c 0,-10.149813 0.08561,-10.995482 1.09375,-10.804068 0.787919,0.1496 1.181131,0.992524 1.40625,3.014577 l 0.3125,2.80691 3.4375,0.3125 c 1.890625,0.171875 3.4375,0.59375 3.4375,0.9375 0,0.34375 -1.546875,0.765625 -3.4375,0.9375 l -3.4375,0.3125 -0.17645,6.625459 c -0.202294,7.595955 0.06898,8.109655 4.368625,8.272766 3.792219,0.143861 3.34085,1.313871 -0.594312,1.540544 -2.804907,0.161569 -3.502888,-0.03697 -4.84375,-1.37784 z"
       id="path4012"
       inkscape:connector-curvature="0" />
    <path
       style="fill:#2d292a"
       d="M 6.4489112,39.125422 C 3.8926924,37.963118 3.1331179,35.339451 3.1284856,27.65625 3.1256376,22.932479 3.296483,21.875 4.0625,21.875 4.8384371,21.875 5,23.047862 5,28.68076 c 0,8.812371 0.601808,9.75674 6.217576,9.75674 2.722623,0 3.999148,-0.270716 4.42065,-0.9375 0.325948,-0.515625 0.59694,-4.242188 0.602203,-8.28125 0.0058,-4.472786 0.253908,-7.34375 0.634571,-7.34375 0.896713,0 0.833574,16.672322 -0.06524,17.227822 -1.474394,0.911225 -8.3734261,0.926274 -10.3608468,0.0226 z m 19.1760888,0.35248 -1.5625,-0.471758 0,-13.088263 c 0,-11.836164 0.101937,-13.107893 1.065554,-13.293469 0.912794,-0.175788 1.091996,0.450192 1.25,4.36644 L 26.5625,21.5625 30.094003,21.358011 c 4.061041,-0.235153 6.659793,0.825166 8.520138,3.476308 2.64741,3.772775 2.18705,9.652952 -1.005692,12.845693 -1.631937,1.631937 -2.362648,1.877354 -6.136734,2.061084 -2.356318,0.114711 -4.98734,-0.0037 -5.846715,-0.263194 z m 8.500486,-1.362466 c 5.376918,-1.882988 6.246846,-11.219929 1.364017,-14.639996 -1.789664,-1.253529 -6.0624,-1.25489 -7.850437,-0.0025 C 26.355148,24.372231 26.25,24.937609 26.25,30.941884 c 0,5.527317 0.163101,6.591 1.09375,7.133054 1.416592,0.825089 4.488926,0.843436 6.781736,0.0405 z m 14.823425,1.009987 C 46.392692,37.963118 45.633118,35.339451 45.628486,27.65625 45.625637,22.932479 45.796483,21.875 46.5625,21.875 c 0.775937,0 0.9375,1.172862 0.9375,6.80576 0,8.784924 0.611841,9.75674 6.142696,9.75674 2.064225,0 3.987512,-0.23357 4.273971,-0.519044 0.286458,-0.285474 0.614083,-4.012037 0.728056,-8.28125 0.113973,-4.269214 0.465535,-7.762206 0.78125,-7.762206 0.849546,0 0.736887,16.700576 -0.116215,17.227822 -1.474394,0.911225 -8.373426,0.926274 -10.360847,0.0226 z m 41.063408,0.0718 c -2.714619,-1.37353 -3.1182,-3.14473 -3.128107,-13.728469 -0.0078,-8.337428 0.134244,-9.84375 0.928288,-9.84375 0.678044,0 0.9375,0.696163 0.9375,2.515469 0,2.125109 0.248787,2.610059 1.603188,3.125 0.881749,0.335242 2.639562,0.644618 3.90625,0.687504 2.019056,0.06836 1.906224,0.136062 -0.914951,0.549031 -1.769906,0.259082 -3.527718,0.662468 -3.90625,0.896413 -0.426306,0.26347 -0.688237,2.789985 -0.688237,6.638469 0,7.376395 0.772731,8.713114 5.036888,8.713114 1.532099,0 2.383893,0.247543 2.150612,0.625 -0.538019,0.870531 -4.062306,0.764787 -5.925181,-0.177781 z M 105.625,39.346276 c -3.18874,-1.329968 -3.72104,-2.817379 -3.7361,-10.440026 -0.0115,-5.83951 0.145,-7.03125 0.9236,-7.03125 0.77594,0 0.9375,1.172862 0.9375,6.80576 0,8.178714 0.62131,9.386031 5.0894,9.889649 5.21929,0.58829 5.5356,0.07945 5.5356,-8.904899 0,-6.508231 0.15431,-7.79051 0.9375,-7.79051 0.78683,0 0.9375,1.350068 0.9375,8.400614 0,5.455583 -0.24198,8.550167 -0.69024,8.827208 -1.20764,0.746363 -8.31159,0.920447 -9.93476,0.243454 z m -38.75,-8.424245 0,-8.45297 1.603188,-0.60953 c 2.789237,-1.060467 7.744337,-0.728462 10.008006,0.670565 2.444562,1.51082 2.949881,3.713415 2.645775,11.532404 C 80.842175,41.513494 79.738388,40.213608 79.375,31.993387 79.082087,25.367436 78.96455,24.849156 77.5,23.726034 75.783969,22.410057 71.893994,22.111364 69.958912,23.14699 68.862956,23.733527 68.75,24.521901 68.75,31.58449 c 0,6.508231 -0.154306,7.79051 -0.9375,7.79051 -0.787119,0 -0.9375,-1.355886 -0.9375,-8.452969 z"
       id="path4010"
       inkscape:connector-curvature="0" />
  </g>
</svg>
