<?xml version="1.0" encoding="UTF-8" standalone="no"?>
<!-- Created with Inkscape (http://www.inkscape.org/) -->

<svg
   xmlns:dc="http://purl.org/dc/elements/1.1/"
   xmlns:cc="http://creativecommons.org/ns#"
   xmlns:rdf="http://www.w3.org/1999/02/22-rdf-syntax-ns#"
   xmlns:svg="http://www.w3.org/2000/svg"
   xmlns="http://www.w3.org/2000/svg"
   xmlns:xlink="http://www.w3.org/1999/xlink"
   xmlns:sodipodi="http://sodipodi.sourceforge.net/DTD/sodipodi-0.dtd"
   xmlns:inkscape="http://www.inkscape.org/namespaces/inkscape"
   id="svg3820"
   version="1.1"
   inkscape:version="0.91 r13725"
   width="56.25"
   height="56.25"
   viewBox="0 0 56.25 56.25"
   sodipodi:docname="V8.svg">
  <metadata
     id="metadata3826">
    <rdf:RDF>
      <cc:Work
         rdf:about="">
        <dc:format>image/svg+xml</dc:format>
        <dc:type
           rdf:resource="http://purl.org/dc/dcmitype/StillImage" />
        <dc:title></dc:title>
      </cc:Work>
    </rdf:RDF>
  </metadata>
  <defs
     id="defs3824" />
  <sodipodi:namedview
     pagecolor="#ffffff"
     bordercolor="#666666"
     borderopacity="1"
     objecttolerance="10"
     gridtolerance="10"
     guidetolerance="10"
     inkscape:pageopacity="0"
     inkscape:pageshadow="2"
     inkscape:window-width="640"
     inkscape:window-height="480"
     id="namedview3822"
     showgrid="false"
     inkscape:zoom="4.1955556"
     inkscape:cx="28.125"
     inkscape:cy="28.125"
     inkscape:window-x="0"
     inkscape:window-y="0"
     inkscape:window-maximized="0"
     inkscape:current-layer="svg3820" />
  <image
     width="56.25"
     height="56.25"
     preserveAspectRatio="none"
     style="image-rendering:optimizeQuality"
     xlink:href="file:///media/havoc/USB%20DISK/pics/_smallLogos/V8.png"
     id="image3828"
     x="0"
     y="0"
     sodipodi:absref="/media/havoc/USB DISK/pics/_smallLogos/V8.png" />
  <g
     id="g3971">
    <path
       style="fill:#fcfcfd"
       d="M 0,28.125 0,0 28.125,0 56.25,0 l 0,28.125 0,28.125 -28.125,0 L 0,56.25 0,28.125 Z"
       id="path3987"
       inkscape:connector-curvature="0" />
    <path
       style="fill:#b1ccf8"
       d="m 27.061708,51.739566 c -0.344244,-0.441137 -1.441142,-2.278342 -2.437553,-4.08268 -0.99641,-1.804338 -2.028876,-3.280901 -2.294369,-3.28125 -0.895407,-0.0012 -6.167957,-5.233214 -7.110469,-7.055833 C 14.705225,36.32566 14.225023,33.920447 14.1522,31.974885 13.973929,27.212129 10.964064,21.247897 8.2206988,20.221254 6.0077404,19.393103 1.25,12.563904 1.25,10.215603 1.25,8.7635163 1.3159574,8.75 8.40206,8.75 c 6.531841,0 7.230906,0.1125675 8.061267,1.298074 0.897406,1.281227 0.924229,1.272566 2.06669,-0.6673709 C 20.351142,6.28837 24.669788,3.75 28.10979,3.75 c 3.388014,0 7.916962,2.5235175 9.339572,5.2039831 C 38.466304,10.870096 38.912128,10.998306 40,9.6875 40.608179,8.9546894 42.330633,8.75 47.889028,8.75 54.89628,8.75 55,8.7710056 55,10.190137 c 0,1.490763 -2.908945,6.56686 -5.174003,9.028613 -0.711639,0.773437 -1.803315,1.40625 -2.425946,1.40625 -1.844629,0 -5.141582,7.057387 -5.302251,11.349885 -0.07282,1.945562 -0.553025,4.350775 -1.067117,5.344918 -0.890931,1.722872 -5.733443,6.604658 -7.065267,7.122568 -0.346696,0.134821 -1.597502,1.911132 -2.779568,3.947356 -2.293358,3.950531 -3.126989,4.62765 -4.12414,3.349839 z m 4.142929,-17.761353 c 1.598808,-2.032554 1.636402,-3.418567 0.142758,-5.26314 C 29.068626,25.900912 23.75,27.664977 23.75,31.234953 c 0,1.943496 2.438166,4.390047 4.375,4.390047 1.183162,0 2.220675,-0.554793 3.079637,-1.646787 z M 31.042162,17.115481 c 0.960802,-1.466369 0.975893,-1.803927 0.146692,-3.28125 C 30.471371,12.555945 29.785855,12.1875 28.125,12.1875 c -1.660855,0 -2.346371,0.368445 -3.063854,1.646731 -0.829201,1.477323 -0.81411,1.814881 0.146692,3.28125 C 25.962714,18.267567 26.823722,18.75 28.125,18.75 c 1.301277,0 2.162286,-0.482433 2.917162,-1.634519 z"
       id="path3985"
       inkscape:connector-curvature="0" />
    <path
       style="fill:#cdcdce"
       d="M 26.231212,50.46875 C 25.543484,49.351562 24.502688,47.453125 23.918332,46.25 23.333977,45.046875 21.746211,43.21875 20.389964,42.1875 16.323386,39.095396 15.381016,37.364434 15.105023,32.480021 14.969678,30.084759 14.613479,28.125 14.313468,28.125 c -0.300011,0 -1.362981,-1.617188 -2.362156,-3.59375 C 10.620399,21.898447 9.6228563,20.74598 8.2206988,20.221254 6.0077404,19.393103 1.25,12.563904 1.25,10.215603 1.25,8.7637156 1.3167758,8.75 8.3853706,8.75 c 6.9418904,0 7.1670844,0.043537 8.3049304,1.605546 l 1.169559,1.605547 1.53882,-2.3667192 c 2.983551,-4.588727 8.622947,-6.5991042 12.673658,-4.5180073 2.101811,1.0798281 4.865374,3.8236629 5.501738,5.4624635 l 0.573274,1.47633 1.284187,-1.63258 C 40.682188,8.792635 40.902244,8.75 47.857863,8.75 54.897652,8.75 55,8.7706375 55,10.190137 c 0,1.490763 -2.908945,6.56686 -5.174003,9.028613 -0.711639,0.773437 -1.803315,1.40625 -2.425946,1.40625 -0.756626,0 -1.759843,1.243636 -3.025051,3.75 -1.041147,2.0625 -2.130373,3.75 -2.420502,3.75 -0.29013,0 -0.551191,1.670255 -0.580136,3.711678 -0.02894,2.041423 -0.476276,4.530924 -0.994068,5.532223 -0.849798,1.643328 -4.008415,4.827112 -6.123974,6.172768 -0.450351,0.286457 -1.634065,2.067706 -2.630475,3.958331 -3.076157,5.836811 -3.489171,6.064099 -5.394633,2.96875 z m 5.24606,-15.866478 C 32.383522,33.696022 33.125,32.268138 33.125,31.429196 33.125,29.585222 29.967014,26.25 28.22103,26.25 c -2.033851,0 -5.09603,2.986647 -5.09603,4.970331 0,2.267097 2.746276,5.029669 5,5.029669 1.008359,0 2.377525,-0.67298 3.352272,-1.647728 z M 30.809624,18.59375 c 1.765137,-1.315179 2.032324,-4.501802 0.50548,-6.028646 -2.934255,-2.9342546 -8.076394,-0.625871 -7.309289,3.28125 0.456447,2.324832 1.861726,3.528646 4.119185,3.528646 0.899848,0 2.107929,-0.351563 2.684624,-0.78125 z"
       id="path3983"
       inkscape:connector-curvature="0" />
    <path
       style="fill:#8cb3f5"
       d="M 25.630854,48.137498 C 24.655902,46.055934 23.136549,44.244548 21.043782,42.668748 16.439058,39.201508 15.431908,37.54197 15.162089,32.977149 14.848584,27.673256 11.365224,20.719914 8.1598019,18.999471 6.0369855,17.860092 1.875,12.022154 1.875,10.183898 1.875,9.5721125 3.5150274,9.375 8.6052394,9.375 c 6.5891836,0 6.7510336,0.034269 7.7223926,1.635156 l 0.992155,1.635155 1.821969,-2.712846 C 21.656586,6.1879734 24.528739,4.375 27.946016,4.375 c 1.518638,0 3.375483,0.3156149 4.126322,0.7013665 2.067693,1.0622992 4.861523,3.8139241 5.475093,5.3923835 0.676227,1.739647 1.574532,1.796878 2.452569,0.15625 0.606537,-1.133325 1.308639,-1.25 7.52199,-1.25 6.117273,0 6.850963,0.1174244 6.833944,1.09375 -0.03217,1.845656 -4.551661,7.917255 -6.548939,8.798019 -2.730063,1.203908 -6.400213,8.615756 -6.492212,13.110983 -0.09888,4.831408 -1.823255,7.490043 -7.278144,11.221409 -1.045474,0.715147 -2.570113,2.729146 -3.388087,4.475553 -1.913466,4.085332 -3.126528,4.10051 -5.017698,0.06278 z M 31.477272,34.602272 C 32.383522,33.696022 33.125,32.268138 33.125,31.429196 33.125,29.585222 29.967014,26.25 28.22103,26.25 c -2.033851,0 -5.09603,2.986647 -5.09603,4.970331 0,2.267097 2.746276,5.029669 5,5.029669 1.008359,0 2.377525,-0.67298 3.352272,-1.647728 z M 30.809624,18.59375 c 1.765137,-1.315179 2.032324,-4.501802 0.50548,-6.028646 -2.934255,-2.9342546 -8.076394,-0.625871 -7.309289,3.28125 0.456447,2.324832 1.861726,3.528646 4.119185,3.528646 0.899848,0 2.107929,-0.351563 2.684624,-0.78125 z"
       id="path3981"
       inkscape:connector-curvature="0" />
    <path
       style="fill:#9d9e9f"
       d="m 25.575586,48.001368 c -0.832197,-1.786747 -1.440165,-3.482073 -1.351039,-3.767391 0.08913,-0.285318 -0.332749,-0.69315 -0.9375,-0.906295 C 18.672969,41.701451 15.625,36.933443 15.625,31.341767 c 0,-2.713321 -0.250557,-3.804179 -0.934014,-4.066446 C 14.177278,27.078192 13.021062,25.416416 12.121617,23.582485 10.974881,21.244333 9.8083325,19.884211 8.2172894,19.030282 6.03897,17.861156 1.875,12.053146 1.875,10.183898 1.875,9.5720381 3.5168462,9.375 8.615245,9.375 l 6.740246,0 1.180786,1.998912 c 1.077142,1.823457 1.239834,1.899131 1.853505,0.862136 C 21.563031,6.8738081 24.178589,5 28.490225,5 c 3.14651,0 7.159471,2.6668531 8.35459,5.552127 0.976046,2.356382 1.558032,2.433717 2.900158,0.385373 0.988254,-1.5082656 1.259925,-1.5625 7.826908,-1.5625 6.069758,0 6.801064,0.1179038 6.784053,1.09375 -0.03306,1.896528 -4.554048,7.918362 -6.63207,8.833739 -1.358983,0.598638 -2.402212,1.80137 -3.387937,3.905934 -0.783366,1.672519 -1.899079,3.470611 -2.479361,3.995759 -0.749068,0.677897 -1.070252,2.026355 -1.107445,4.649495 -0.02881,2.032074 -0.4803,4.522173 -1.003306,5.533554 -1.079364,2.087259 -4.282427,4.967528 -6.43391,5.78552 -0.795332,0.302385 -1.373686,0.781584 -1.285231,1.064888 C 32.385126,45.385696 29.122231,51.25 28.125,51.25 c -0.638119,0 -1.617732,-1.248288 -2.549414,-3.248632 z M 31.936744,34.933903 C 32.994849,33.801198 33.75,32.30188 33.75,31.333766 33.75,29.488631 31.374902,26.572244 29.348424,25.929065 26.439075,25.005674 22.5,28.195246 22.5,31.474413 c 0,2.318266 3.210402,5.400587 5.625,5.400587 1.429773,0 2.514491,-0.552383 3.811744,-1.941097 z M 31.178877,18.90625 C 34.672261,16.005831 32.687971,10.625 28.125,10.625 c -4.417836,0 -6.529534,4.777284 -3.465909,7.840909 1.822238,1.822238 4.627198,2.011682 6.519787,0.440341 z"
       id="path3979"
       inkscape:connector-curvature="0" />
    <path
       style="fill:#4e8bf2"
       d="m 25.726957,46.875 c -1.133865,-2.0625 -2.36755,-3.75 -2.741521,-3.75 -1.365837,0 -4.904344,-3.260864 -6.116205,-5.636309 C 16.090973,35.96318 15.625,33.811286 15.625,31.742749 15.625,29.09731 15.125713,27.482865 13.129321,23.672964 10.459823,18.578514 9.7691575,17.764286 7.8125,17.404951 6.6609619,17.193474 2.5,11.827823 2.5,10.554366 2.5,10.249464 5.3185297,10 8.7633994,10 c 6.0744466,0 6.2848766,0.04714 6.9753216,1.5625 1.012359,2.221886 2.16916,1.938292 3.609427,-0.884866 1.674626,-3.2825384 4.501717,-5.1856659 8.236369,-5.5445186 2.550444,-0.2450654 3.461825,-0.020393 5.5661,1.3721515 1.383959,0.91586 2.980825,2.639345 3.548593,3.8299671 1.158681,2.429779 2.614609,2.782047 3.780744,0.914766 C 41.175977,10.135491 41.937472,10 47.505296,10 50.939883,10 53.75,10.176702 53.75,10.392671 53.75,11.725737 49.745545,17.5 48.821063,17.5 c -3.01291,0 -7.964237,8.898402 -8.081149,14.52324 -0.04099,1.972157 -0.499624,4.407782 -1.019185,5.412501 -1.030719,1.993192 -5.17769,5.689259 -6.383323,5.689259 -0.414035,0 -1.680499,1.6875 -2.814363,3.75 -1.133866,2.0625 -2.212985,3.75 -2.398043,3.75 -0.185058,0 -1.264178,-1.6875 -2.398043,-3.75 z M 31.936744,34.933903 C 32.994849,33.801198 33.75,32.30188 33.75,31.333766 33.75,29.488631 31.374902,26.572244 29.348424,25.929065 26.439075,25.005674 22.5,28.195246 22.5,31.474413 c 0,2.318266 3.210402,5.400587 5.625,5.400587 1.429773,0 2.514491,-0.552383 3.811744,-1.941097 z M 31.178877,18.90625 C 34.672261,16.005831 32.687971,10.625 28.125,10.625 c -4.417836,0 -6.529534,4.777284 -3.465909,7.840909 1.822238,1.822238 4.627198,2.011682 6.519787,0.440341 z"
       id="path3977"
       inkscape:connector-curvature="0" />
    <path
       style="fill:#4c70ab"
       d="M 26.09375,47.563502 C 25.148437,45.880377 24.375,44.399413 24.375,44.272471 c 0,-0.126942 1.6875,-0.230804 3.75,-0.230804 2.0625,0 3.75,0.103862 3.75,0.230804 0,0.497601 -3.456199,6.351258 -3.75,6.351258 -0.171875,0 -1.085938,-1.377102 -2.03125,-3.060226 z M 12.873069,23.245275 C 10.580051,18.691949 9.7775838,17.765834 7.8125,17.404951 6.6609619,17.193474 2.5,11.827823 2.5,10.554366 2.5,10.249464 5.3185297,10 8.7633994,10 c 6.0744466,0 6.2848766,0.04714 6.9753216,1.5625 0.391558,0.859375 1.088653,1.5625 1.549101,1.5625 0.479155,0 0.837178,0.676795 0.837178,1.582574 0,0.870416 0.427034,2.60461 0.948964,3.853765 0.882135,2.111247 0.865277,2.362915 -0.239392,3.573676 -0.653595,0.716367 -1.650352,2.216547 -2.215014,3.333735 -0.564662,1.117187 -1.156525,2.03125 -1.31525,2.03125 -0.158727,0 -1.252784,-1.914626 -2.431239,-4.254725 z m 25.71517,0.756162 C 36.336196,20.581751 36.305002,20.453213 37.204626,18.30011 37.710832,17.088589 38.125,15.543934 38.125,14.867541 c 0,-0.676392 0.772524,-2.048294 1.716721,-3.048672 C 41.509317,10.052046 41.732869,10 47.654221,10 51.006899,10 53.75,10.176702 53.75,10.392671 53.75,11.725737 49.745545,17.5 48.821063,17.5 c -1.505684,0 -4.002072,2.818013 -5.951927,6.71875 C 41.967029,26.023437 41.153181,27.5 41.060584,27.5 c -0.0926,0 -1.205153,-1.574353 -2.472345,-3.498563 z"
       id="path3975"
       inkscape:connector-curvature="0" />
    <path
       style="fill:#505153"
       d="M 26.40625,48.152612 C 25.632812,46.798094 25,45.534636 25,45.344926 25,45.155217 26.40625,45 28.125,45 c 1.71875,0 3.125,0.155217 3.125,0.344926 0,0.569145 -2.787538,5.270447 -3.125,5.270447 -0.171875,0 -0.945313,-1.108242 -1.71875,-2.46276 z M 12.559998,22.618855 C 10.571729,18.680118 9.7315313,17.757376 7.8125,17.404951 6.6609619,17.193474 2.5,11.827823 2.5,10.554366 2.5,10.249464 5.3170503,10 8.7601119,10 l 6.2601111,0 0.841678,2.03125 c 0.462923,1.117188 1.30642,3.487346 1.874437,5.267019 l 1.032759,3.235769 -1.928828,2.857981 C 15.779414,24.963909 14.794791,26.25 14.652217,26.25 c -0.142573,0 -1.084071,-1.634016 -2.092219,-3.631145 z M 40.625,25.712217 c 0,-0.295781 -0.707733,-1.580685 -1.572739,-2.855343 -1.526509,-2.249437 -1.54488,-2.399614 -0.625,-5.109059 0.521256,-1.535324 0.947739,-3.28159 0.947739,-3.880591 0,-0.599 0.437823,-1.714171 0.97294,-2.478158 C 41.242426,10.112009 41.822001,10 47.53544,10 50.953448,10 53.75,10.176702 53.75,10.392671 53.75,11.725737 49.745545,17.5 48.821063,17.5 c -1.417144,0 -3.965757,2.753652 -5.640004,6.09375 -1.19869,2.391367 -2.556059,3.516358 -2.556059,2.118467 z"
       id="path3973"
       inkscape:connector-curvature="0" />
  </g>
</svg>
