<?xml version="1.0" encoding="UTF-8" standalone="no"?>
<!-- Created with Inkscape (http://www.inkscape.org/) -->

<svg
   xmlns:dc="http://purl.org/dc/elements/1.1/"
   xmlns:cc="http://creativecommons.org/ns#"
   xmlns:rdf="http://www.w3.org/1999/02/22-rdf-syntax-ns#"
   xmlns:svg="http://www.w3.org/2000/svg"
   xmlns="http://www.w3.org/2000/svg"
   xmlns:xlink="http://www.w3.org/1999/xlink"
   xmlns:sodipodi="http://sodipodi.sourceforge.net/DTD/sodipodi-0.dtd"
   xmlns:inkscape="http://www.inkscape.org/namespaces/inkscape"
   id="svg3830"
   version="1.1"
   inkscape:version="0.91 r13725"
   width="56.25"
   height="56.25"
   viewBox="0 0 56.25 56.25"
   sodipodi:docname="WebKit.svg">
  <metadata
     id="metadata3836">
    <rdf:RDF>
      <cc:Work
         rdf:about="">
        <dc:format>image/svg+xml</dc:format>
        <dc:type
           rdf:resource="http://purl.org/dc/dcmitype/StillImage" />
        <dc:title></dc:title>
      </cc:Work>
    </rdf:RDF>
  </metadata>
  <defs
     id="defs3834" />
  <sodipodi:namedview
     pagecolor="#ffffff"
     bordercolor="#666666"
     borderopacity="1"
     objecttolerance="10"
     gridtolerance="10"
     guidetolerance="10"
     inkscape:pageopacity="0"
     inkscape:pageshadow="2"
     inkscape:window-width="640"
     inkscape:window-height="480"
     id="namedview3832"
     showgrid="false"
     inkscape:zoom="4.1955556"
     inkscape:cx="28.125"
     inkscape:cy="28.125"
     inkscape:window-x="0"
     inkscape:window-y="0"
     inkscape:window-maximized="0"
     inkscape:current-layer="svg3830" />
  <image
     width="56.25"
     height="56.25"
     preserveAspectRatio="none"
     style="image-rendering:optimizeQuality"
     xlink:href="file:///media/havoc/USB%20DISK/pics/_smallLogos/WebKit.png"
     id="image3838"
     x="0"
     y="0"
     sodipodi:absref="/media/havoc/USB DISK/pics/_smallLogos/WebKit.png" />
  <g
     id="g3934">
    <path
       style="fill:#fcfcfb"
       d="M 0,28.125 0,0 28.125,0 56.25,0 l 0,28.125 0,28.125 -28.125,0 L 0,56.25 0,28.125 Z"
       id="path3950"
       inkscape:connector-curvature="0" />
    <path
       style="fill:#fcdda1"
       d="M 22.346477,52.880033 C 17.918447,49.875091 5.0404243,39.368208 4.4679311,38.293338 3.9966817,37.408556 3.9535444,32.446529 4.3442154,24.0625 4.3602331,23.71875 4.2060551,22.414833 4.0015976,21.164906 3.7971401,19.91498 3.9450239,18.303418 4.3302282,17.583657 5.5097832,15.379638 23.179033,1.9215046 25.453304,1.4948489 c 4.077693,-0.76497978 6.107994,0.2093208 14.99949,7.197953 4.735339,3.7219311 9.1199,7.3385141 9.743472,8.0368521 1.269271,1.421458 1.563064,4.346213 0.608006,6.052806 -0.448818,0.801994 -0.371851,1.642301 0.267883,2.924677 0.705899,1.41501 0.750006,2.2467 0.206484,3.893587 -0.490718,1.486888 -0.499847,2.597404 -0.03148,3.829301 0.740276,1.947073 0.349254,3.812801 -1.164833,5.557898 -1.351033,1.557166 -15.196197,12.593738 -17.758413,14.155992 -2.864335,1.746463 -7.183351,1.632234 -9.977435,-0.263882 z m 5.48797,-29.798343 c 1.191761,-2.351828 1.556869,-3.922204 1.416779,-6.09375 L 29.0625,14.0625 l -1.325658,2.5 c -1.228857,2.317447 -2.639984,9.6875 -1.854843,9.6875 0.190819,0 1.06942,-1.425739 1.952448,-3.16831 z"
       id="path3948"
       inkscape:connector-curvature="0" />
    <path
       style="fill:#9dd0f4"
       d="M 22.415511,51.686932 C 21.165916,50.833406 16.757314,47.444819 12.618617,44.156739 L 5.0937146,38.17841 5.1085711,31.900449 C 5.1167422,28.447571 5.3666479,25.472171 5.6639172,25.288448 5.9611865,25.104725 5.6521653,24.402166 4.9772034,23.727203 3.6445148,22.394515 3.3627673,19.391374 4.3902999,17.471412 5.5258337,15.349648 23.245525,1.9090307 25.453304,1.4948489 c 4.077693,-0.76497978 6.107994,0.2093208 14.99949,7.197953 9.50523,7.4710211 10.620815,8.5410591 10.811086,10.3696981 0.267302,2.56896 -0.05768,3.537773 -1.696014,5.056136 -0.925174,0.857421 -1.2182,1.380921 -0.65117,1.163331 1.384243,-0.531185 2.121738,2.376009 1.146001,4.51752 -0.552253,1.212063 -0.538324,2.08735 0.05953,3.740685 1.155266,3.19483 0.172533,4.435757 -9.74876,12.310062 -8.402573,6.668932 -8.80437,6.904403 -12.1875,7.142426 -2.942132,0.206996 -3.859764,-6.25e-4 -5.770456,-1.305727 z M 35.079722,35.78125 c 0.777419,-0.991285 0.755313,-1.013391 -0.235972,-0.235972 -1.041092,0.816481 -1.372174,1.329722 -0.857778,1.329722 0.129785,0 0.621972,-0.492188 1.09375,-1.09375 z M 20.625,36.014028 c 0,-0.129785 -0.492188,-0.621972 -1.09375,-1.09375 -0.991285,-0.777419 -1.013391,-0.755313 -0.235972,0.235972 0.816481,1.041092 1.329722,1.372174 1.329722,0.857778 z M 40.704722,31.40625 C 41.482141,30.414965 41.460035,30.392859 40.46875,31.170278 39.427658,31.986759 39.096576,32.5 39.610972,32.5 c 0.129785,0 0.621972,-0.492188 1.09375,-1.09375 z M 15,31.639028 C 15,31.509243 14.507813,31.017056 13.90625,30.545278 12.914965,29.767859 12.892859,29.789965 13.670278,30.78125 14.486759,31.822343 15,32.153424 15,31.639028 Z M 43.829722,28.90625 C 44.607141,27.914965 44.585035,27.892859 43.59375,28.670278 42.992187,29.142056 42.5,29.634243 42.5,29.764028 c 0,0.514396 0.513241,0.183315 1.329722,-0.857778 z M 11.875,29.139028 c 0,-0.129785 -0.492187,-0.621972 -1.09375,-1.09375 C 9.789965,27.267859 9.7678588,27.289965 10.545278,28.28125 11.361759,29.322343 11.875,29.653424 11.875,29.139028 Z M 46.954722,26.40625 c 0.777419,-0.991285 0.755313,-1.013391 -0.235972,-0.235972 -0.601563,0.471778 -1.09375,0.963965 -1.09375,1.09375 0,0.514396 0.513241,0.183315 1.329722,-0.857778 z M 27.834447,23.08169 c 1.191761,-2.351828 1.556869,-3.922204 1.416779,-6.09375 L 29.0625,14.0625 l -1.325658,2.5 c -1.228857,2.317447 -2.639984,9.6875 -1.854843,9.6875 0.190819,0 1.06942,-1.425739 1.952448,-3.16831 z"
       id="path3946"
       inkscape:connector-curvature="0" />
    <path
       style="fill:#5bb1ef"
       d="M 22.415511,51.686932 C 21.165916,50.833406 16.757314,47.444819 12.618617,44.156739 L 5.0937146,38.17841 5.1085711,31.900449 C 5.1167422,28.447571 5.3577562,25.477666 5.6441579,25.30066 5.9305596,25.123654 5.7638961,24.210156 5.2737946,23.270666 3.1146357,19.131706 4.1103109,17.697843 14.867454,9.4549213 24.110561,2.3721662 26.183162,1.4053453 29.861852,2.4603796 c 1.992619,0.5714757 14.540601,9.6731524 18.681906,13.5509184 2.504159,2.344803 2.806429,5.398203 0.788368,7.963753 -0.928724,1.18068 -1.024114,1.54049 -0.33867,1.27746 1.307461,-0.50172 2.00944,2.483463 1.069241,4.546976 -0.552253,1.212063 -0.538324,2.08735 0.05953,3.740685 1.155266,3.19483 0.172533,4.435757 -9.74876,12.310062 -8.402573,6.668932 -8.80437,6.904403 -12.1875,7.142426 -2.942132,0.206996 -3.859764,-6.25e-4 -5.770456,-1.305727 z M 35.079722,35.78125 c 0.777419,-0.991285 0.755313,-1.013391 -0.235972,-0.235972 -1.041092,0.816481 -1.372174,1.329722 -0.857778,1.329722 0.129785,0 0.621972,-0.492188 1.09375,-1.09375 z M 20.625,36.014028 c 0,-0.129785 -0.492188,-0.621972 -1.09375,-1.09375 -0.991285,-0.777419 -1.013391,-0.755313 -0.235972,0.235972 0.816481,1.041092 1.329722,1.372174 1.329722,0.857778 z M 29.6875,32.5 c 0.228585,-0.369858 -0.481233,-0.625 -1.738783,-0.625 -8.253347,0 -14.705811,-5.7527 -14.054563,-12.530361 0.365963,-3.808655 2.326652,-6.492077 6.164563,-8.436893 6.316214,-3.2006679 13.299307,-2.394981 17.985677,2.07513 5.982923,5.706831 3.921859,14.047996 -4.350531,17.606682 -3.642707,1.567051 -3.732685,2.306903 -0.163202,1.341943 3.163845,-0.8553 6.812145,-3.928153 8.430826,-7.10103 1.001832,-1.963752 1.235084,-3.333948 1.01642,-5.97075 -0.264011,-3.183633 -0.521756,-3.650808 -3.69833,-6.703409 C 35.584504,8.6054481 32.911299,7.5092612 27.933012,7.5034856 22.740973,7.4974619 19.542342,8.6709094 16.205559,11.805811 10.818663,16.86679 10.597119,23.097119 15.625256,28.125256 19.005827,31.505827 28.480284,34.453317 29.6875,32.5 Z M 40.704722,31.40625 C 41.482141,30.414965 41.460035,30.392859 40.46875,31.170278 39.427658,31.986759 39.096576,32.5 39.610972,32.5 c 0.129785,0 0.621972,-0.492188 1.09375,-1.09375 z M 15,31.639028 C 15,31.509243 14.507813,31.017056 13.90625,30.545278 12.914965,29.767859 12.892859,29.789965 13.670278,30.78125 14.486759,31.822343 15,32.153424 15,31.639028 Z M 43.829722,28.90625 C 44.607141,27.914965 44.585035,27.892859 43.59375,28.670278 42.992187,29.142056 42.5,29.634243 42.5,29.764028 c 0,0.514396 0.513241,0.183315 1.329722,-0.857778 z M 11.875,29.139028 c 0,-0.129785 -0.492187,-0.621972 -1.09375,-1.09375 C 9.789965,27.267859 9.7678588,27.289965 10.545278,28.28125 11.361759,29.322343 11.875,29.653424 11.875,29.139028 Z M 28.004779,24.11598 C 29.590649,20.929472 30,19.326617 30,16.30348 30,14.211566 29.723488,12.5 29.385529,12.5 c -0.33796,0 -1.30702,1.366679 -2.153469,3.037065 -1.6168,3.190602 -2.970633,12.587935 -1.813489,12.587935 0.325043,0 1.488836,-1.804059 2.586208,-4.00902 z m 18.949943,2.29027 c 0.777419,-0.991285 0.755313,-1.013391 -0.235972,-0.235972 -0.601563,0.471778 -1.09375,0.963965 -1.09375,1.09375 0,0.514396 0.513241,0.183315 1.329722,-0.857778 z M 23.75,16.875 c 0,-0.34375 -0.28125,-0.625 -0.625,-0.625 -0.34375,0 -0.625,0.28125 -0.625,0.625 0,0.34375 0.28125,0.625 0.625,0.625 0.34375,0 0.625,-0.28125 0.625,-0.625 z"
       id="path3944"
       inkscape:connector-curvature="0" />
    <path
       style="fill:#fbc903"
       d="M 22.415511,51.686932 C 21.165916,50.833406 16.757314,47.444819 12.618617,44.156739 L 5.0937146,38.17841 5.1085711,31.900449 c 0.00817,-3.452878 0.2713444,-6.436478 0.5848296,-6.630223 0.3134852,-0.193745 3.7757012,2.185988 7.6938133,5.288295 9.347413,7.401151 10.702566,8.187128 14.112786,8.185292 3.63828,-0.002 4.560381,-0.521275 13.697812,-7.714457 C 45.410282,27.713211 49.108699,25 49.416517,25 c 0.972574,0 1.396917,3.151798 0.64618,4.799487 -0.552253,1.212063 -0.538324,2.08735 0.05953,3.740685 1.155266,3.19483 0.172533,4.435757 -9.74876,12.310062 -8.402573,6.668932 -8.80437,6.904403 -12.1875,7.142426 -2.942132,0.206996 -3.859764,-6.25e-4 -5.770456,-1.305727 z m 1.03368,-14.281803 C 19.729447,35.140074 6.4358781,23.967984 5.6976871,22.486532 4.0929044,19.265947 5.0619756,17.965889 14.533668,10.632613 27.096078,0.90640744 27.967396,0.86530556 39.165877,9.4706606 49.218352,17.195379 50.002761,17.978505 49.986102,20.273182 49.967302,22.862931 49.085641,23.805506 39.6875,31.283324 31.857412,37.513489 31.437729,37.755601 28.125,37.953656 26.170424,38.070512 24.153298,37.83388 23.449191,37.405129 Z M 34.57289,32.275666 C 41.618851,29.331676 45.470333,21.553251 42.904763,15.448676 40.92787,10.744813 33.594188,6.25 27.896314,6.25 c -6.865133,0 -14.556104,5.063173 -16.008976,10.539139 -1.823244,6.871923 2.084236,12.943467 10.195446,15.841953 3.615715,1.292052 8.907545,1.141464 12.490106,-0.355426 z M 22.5,30.325444 C 17.680515,28.761923 14.375,24.556735 14.375,19.989037 14.375,14.640911 20.049748,10 26.589254,10 l 2.879402,0 -1.499921,2.65625 c -0.824956,1.460938 -1.760091,2.620274 -2.078078,2.576304 -0.317986,-0.04397 -1.61975,-0.265196 -2.892808,-0.491611 l -2.314651,-0.411666 0.338323,3.929111 c 0.446743,5.188241 0.450075,5.002772 -0.114475,6.371966 -0.4397,1.066395 -0.281944,1.150875 1.488056,0.796875 1.861074,-0.372214 1.979898,-0.286602 1.979898,1.42651 0,2.745085 1.087261,2.868534 2.605211,0.2958 1.31491,-2.228607 1.444167,-2.288196 4.244083,-1.956587 l 2.887868,0.342025 -0.146283,-4.123598 c -0.08046,-2.26798 0.131437,-4.642522 0.470872,-5.276762 0.762998,-1.425676 -0.857288,-2.289844 -2.201568,-1.17419 -1.213269,1.006923 -1.808982,-0.132499 -1.294334,-2.475676 0.227209,-1.034473 0.816229,-1.859751 1.327348,-1.859751 2.771043,0 7.402712,4.173281 8.368306,7.540109 0.693265,2.417274 -0.04744,5.435555 -2.025891,8.25529 C 35.888029,30.300685 28.181587,32.168646 22.5,30.325444 Z M 30.246186,20.9375 c 0.376573,-1.203125 0.897108,-2.1875 1.156745,-2.1875 0.758045,0 0.54306,2.804009 -0.277931,3.625 -1.297735,1.297735 -1.586889,0.824758 -0.878814,-1.4375 z M 23.75,20.349386 c 0,-0.839089 0.28125,-1.699437 0.625,-1.911886 C 24.739639,18.212141 25,18.847676 25,19.963114 25,21.014651 24.71875,21.875 24.375,21.875 c -0.34375,0 -0.625,-0.686526 -0.625,-1.525614 z"
       id="path3942"
       inkscape:connector-curvature="0" />
    <path
       style="fill:#fca306"
       d="m 22.415511,51.686932 c -1.249595,-0.853526 -5.679282,-4.258865 -9.84375,-7.56742 L 5,38.103956 5,35.301978 C 5,33.223331 5.2429261,32.5 5.9410261,32.5 c 0.5175645,0 4.4963699,2.813586 8.8417899,6.252413 12.231768,9.679831 13.215426,9.67935 25.573436,-0.01248 C 44.732329,35.307968 48.687027,32.5 49.144471,32.5 c 1.292805,0 1.799958,3.125892 0.79538,4.902414 -0.482543,0.853342 -4.787416,4.654861 -9.566384,8.44782 -8.402573,6.668932 -8.80437,6.904403 -12.1875,7.142426 -2.942132,0.206996 -3.859765,-6.25e-4 -5.770456,-1.305728 z M 26.09375,38.933917 c 0.773437,-0.148971 2.039062,-0.148971 2.8125,0 0.773437,0.14897 0.140625,0.270855 -1.40625,0.270855 -1.546875,0 -2.179688,-0.121885 -1.40625,-0.270855 z m -3.373393,-0.958008 c -0.156904,-0.253875 0.221515,-0.279376 0.840932,-0.05667 0.619416,0.222707 0.915136,0.172473 0.657156,-0.111631 -0.257981,-0.284104 -1.101731,-0.563163 -1.875,-0.620132 -0.77327,-0.05697 -1.359549,-0.361518 -1.302843,-0.676778 0.173877,-0.96668 -1.150822,-2.161536 -2.203702,-1.9877 -0.547991,0.09047 -1.006966,-0.116749 -1.019944,-0.460499 -0.03667,-0.97127 -0.948899,-2.1875 -1.640727,-2.1875 -0.34375,0 -0.424321,0.324706 -0.179046,0.721567 0.284971,0.461094 0.170468,0.55131 -0.317197,0.249916 C 15.260254,32.587074 15.076787,32.21488 15.272282,32.019385 15.701078,31.590589 13.789921,29.375 12.991247,29.375 c -0.31076,0 -0.362703,0.351562 -0.115429,0.78125 0.247274,0.429687 0.240435,0.59375 -0.0152,0.364583 -0.25563,-0.229166 -0.371035,-0.551201 -0.256451,-0.715632 C 12.897026,29.384936 10.551793,26.875 9.8662469,26.875 c -0.31076,0 -0.3643394,0.324706 -0.1190644,0.721567 0.2849715,0.461094 0.1704681,0.55131 -0.3171969,0.249916 C 9.0102538,27.587074 8.8237331,27.217934 9.0154956,27.026171 9.4527375,26.588929 8.1753431,25 7.3865863,25 7.06464,25 7.0035437,25.351562 7.2508175,25.78125 7.5120269,26.235153 7.4620125,26.344269 7.1314531,26.041667 6.8185288,25.755208 6.5592456,25.333333 6.5552681,25.104167 6.5512912,24.875 6.1678686,23.778897 5.7032184,22.668382 4.2109917,19.101956 5.0215338,17.9972 14.533668,10.632613 27.096078,0.90640744 27.967396,0.86530556 39.165877,9.4706606 49.318756,17.272534 50,17.959724 50,20.399346 c 0,1.536562 -0.578816,2.60262 -2.34375,4.316703 -1.289063,1.251922 -2.34375,2.507648 -2.34375,2.790503 0,0.282854 -0.256029,0.748656 -0.568953,1.035115 -0.33056,0.302602 -0.380574,0.193486 -0.119365,-0.260417 C 44.871456,27.851562 44.819513,27.5 44.508753,27.5 c -0.687749,0 -2.547607,1.985358 -2.537132,2.708333 0.0041,0.286459 -0.201609,0.708334 -0.457241,0.9375 -0.255632,0.229167 -0.262472,0.0651 -0.0152,-0.364583 C 41.746456,30.351562 41.694513,30 41.383753,30 c -0.685546,0 -3.030779,2.509936 -2.73792,2.930201 0.114584,0.164431 -8.12e-4,0.486466 -0.256453,0.715632 -0.255633,0.229167 -0.262472,0.0651 -0.0152,-0.364583 C 38.621456,32.851562 38.542521,32.5 38.198771,32.5 c -0.625827,0 -1.608708,1.195847 -1.6267,1.979167 -0.0053,0.229166 -0.2656,0.651041 -0.578524,0.9375 -0.33056,0.302602 -0.380574,0.193486 -0.119365,-0.260417 0.247274,-0.429688 0.195331,-0.78125 -0.115429,-0.78125 -0.694111,0 -2.995077,2.477277 -2.818408,3.034368 0.07032,0.221722 -0.492185,0.320234 -1.25,0.218913 -0.828601,-0.110784 -1.090209,0.01379 -0.656278,0.3125 0.396863,0.273196 -1.247181,0.496719 -3.653431,0.496719 -2.40625,0 -4.503376,-0.207716 -4.660279,-0.461591 z M 34.57289,32.275666 C 41.618851,29.331676 45.470333,21.553251 42.904763,15.448676 40.92787,10.744813 33.594188,6.25 27.896314,6.25 c -6.865133,0 -14.556104,5.063173 -16.008976,10.539139 -1.823244,6.871923 2.084236,12.943467 10.195446,15.841953 3.615715,1.292052 8.907545,1.141464 12.490106,-0.355426 z M 22.5,30.325444 C 17.680515,28.761923 14.375,24.556735 14.375,19.989037 14.375,14.640911 20.049748,10 26.589254,10 l 2.879402,0 -1.499921,2.65625 c -0.824956,1.460938 -1.760091,2.620274 -2.078078,2.576304 -0.317986,-0.04397 -1.61975,-0.265196 -2.892808,-0.491611 l -2.314651,-0.411666 0.338323,3.929111 c 0.446743,5.188241 0.450075,5.002772 -0.114475,6.371966 -0.4397,1.066395 -0.281944,1.150875 1.488056,0.796875 1.861074,-0.372214 1.979898,-0.286602 1.979898,1.42651 0,2.745085 1.087261,2.868534 2.605211,0.2958 1.31491,-2.228607 1.444167,-2.288196 4.244083,-1.956587 l 2.887868,0.342025 -0.146283,-4.123598 c -0.08046,-2.26798 0.131437,-4.642522 0.470872,-5.276762 0.762998,-1.425676 -0.857288,-2.289844 -2.201568,-1.17419 -1.213269,1.006923 -1.808982,-0.132499 -1.294334,-2.475676 0.227209,-1.034473 0.816229,-1.859751 1.327348,-1.859751 2.771043,0 7.402712,4.173281 8.368306,7.540109 0.693265,2.417274 -0.04744,5.435555 -2.025891,8.25529 C 35.888029,30.300685 28.181587,32.168646 22.5,30.325444 Z M 30.246186,20.9375 c 0.376573,-1.203125 0.897108,-2.1875 1.156745,-2.1875 0.758045,0 0.54306,2.804009 -0.277931,3.625 -1.297735,1.297735 -1.586889,0.824758 -0.878814,-1.4375 z M 23.75,20.349386 c 0,-0.839089 0.28125,-1.699437 0.625,-1.911886 C 24.739639,18.212141 25,18.847676 25,19.963114 25,21.014651 24.71875,21.875 24.375,21.875 c -0.34375,0 -0.625,-0.686526 -0.625,-1.525614 z"
       id="path3940"
       inkscape:connector-curvature="0" />
    <path
       style="fill:#2294ea"
       d="M 23.449191,37.405129 C 19.729447,35.140074 6.4358781,23.967984 5.6976871,22.486532 4.0929044,19.265947 5.0619756,17.965889 14.533668,10.632613 27.096078,0.90640744 27.967396,0.86530556 39.165877,9.4706606 49.218352,17.195379 50.002761,17.978505 49.986102,20.273182 49.967302,22.862931 49.085641,23.805506 39.6875,31.283324 31.857412,37.513489 31.437729,37.755601 28.125,37.953656 26.170424,38.070512 24.153298,37.83388 23.449191,37.405129 Z M 34.57289,32.275666 C 41.618851,29.331676 45.470333,21.553251 42.904763,15.448676 40.92787,10.744813 33.594188,6.25 27.896314,6.25 c -6.865133,0 -14.556104,5.063173 -16.008976,10.539139 -1.823244,6.871923 2.084236,12.943467 10.195446,15.841953 3.615715,1.292052 8.907545,1.141464 12.490106,-0.355426 z M 22.5,30.325444 C 17.680515,28.761923 14.375,24.556735 14.375,19.989037 14.375,14.640911 20.049748,10 26.589254,10 l 2.879402,0 -1.499921,2.65625 c -0.824956,1.460938 -1.760091,2.620274 -2.078078,2.576304 -0.317986,-0.04397 -1.61975,-0.265196 -2.892808,-0.491611 l -2.314651,-0.411666 0.338323,3.929111 c 0.446743,5.188241 0.450075,5.002772 -0.114475,6.371966 -0.4397,1.066395 -0.281944,1.150875 1.488056,0.796875 1.861074,-0.372214 1.979898,-0.286602 1.979898,1.42651 0,2.745085 1.087261,2.868534 2.605211,0.2958 1.31491,-2.228607 1.444167,-2.288196 4.244083,-1.956587 l 2.887868,0.342025 -0.146283,-4.123598 c -0.08046,-2.26798 0.131437,-4.642522 0.470872,-5.276762 0.762998,-1.425676 -0.857288,-2.289844 -2.201568,-1.17419 -1.213269,1.006923 -1.808982,-0.132499 -1.294334,-2.475676 0.227209,-1.034473 0.816229,-1.859751 1.327348,-1.859751 2.771043,0 7.402712,4.173281 8.368306,7.540109 0.693265,2.417274 -0.04744,5.435555 -2.025891,8.25529 C 35.888029,30.300685 28.181587,32.168646 22.5,30.325444 Z M 30.246186,20.9375 c 0.376573,-1.203125 0.897108,-2.1875 1.156745,-2.1875 0.758045,0 0.54306,2.804009 -0.277931,3.625 -1.297735,1.297735 -1.586889,0.824758 -0.878814,-1.4375 z M 23.75,20.349386 c 0,-0.839089 0.28125,-1.699437 0.625,-1.911886 C 24.739639,18.212141 25,18.847676 25,19.963114 25,21.014651 24.71875,21.875 24.375,21.875 c -0.34375,0 -0.625,-0.686526 -0.625,-1.525614 z"
       id="path3938"
       inkscape:connector-curvature="0" />
    <path
       style="fill:#037cfa"
       d="M 23.75,36.672423 C 21.603483,35.546101 17.434177,31.560434 19.0625,32.191384 25.061622,34.515956 30.190895,34.684691 35,32.715675 L 37.1875,31.820036 35,33.939413 c -1.203125,1.165658 -2.801823,2.443649 -3.552662,2.839982 C 29.624417,37.74163 25.683287,37.686859 23.75,36.672423 Z m 2.201936,-6.525744 c 0.35169,-0.252548 1.147968,-1.257581 1.769508,-2.233405 1.094303,-1.71807 1.247154,-1.760637 4.829314,-1.344883 2.530627,0.29371 3.699242,0.212515 3.699242,-0.257024 0,-0.377502 0.272423,-0.686367 0.605384,-0.686367 1.577745,0 -0.508403,2.177929 -3.35638,3.504044 -2.838482,1.321694 -9.156906,2.173661 -7.547068,1.017635 z M 20.832851,28.709723 C 18.409085,27.509968 16.766397,25.625 18.144616,25.625 c 0.332961,0 0.605384,0.310791 0.605384,0.690647 0,0.428824 0.947746,0.600265 2.5,0.452234 2.373622,-0.226361 2.5,-0.150694 2.5,1.496853 0,0.954396 -0.07031,1.735044 -0.15625,1.734773 -0.08594,-2.71e-4 -1.328342,-0.580674 -2.760899,-1.289784 z M 43.125,26.25 c 0,-0.34375 0.297849,-0.625 0.661886,-0.625 0.364036,0 0.488063,0.28125 0.275614,0.625 -0.212449,0.34375 -0.510297,0.625 -0.661886,0.625 -0.151588,0 -0.275614,-0.28125 -0.275614,-0.625 z"
       id="path3936"
       inkscape:connector-curvature="0" />
  </g>
</svg>
