<?xml version="1.0" encoding="UTF-8" standalone="no"?>
<!-- Created with Inkscape (http://www.inkscape.org/) -->

<svg
   xmlns:dc="http://purl.org/dc/elements/1.1/"
   xmlns:cc="http://creativecommons.org/ns#"
   xmlns:rdf="http://www.w3.org/1999/02/22-rdf-syntax-ns#"
   xmlns:svg="http://www.w3.org/2000/svg"
   xmlns="http://www.w3.org/2000/svg"
   xmlns:xlink="http://www.w3.org/1999/xlink"
   xmlns:sodipodi="http://sodipodi.sourceforge.net/DTD/sodipodi-0.dtd"
   xmlns:inkscape="http://www.inkscape.org/namespaces/inkscape"
   id="svg3840"
   version="1.1"
   inkscape:version="0.91 r13725"
   width="121.25"
   height="56.25"
   viewBox="0 0 121.25 56.25"
   sodipodi:docname="WebOS.svg">
  <metadata
     id="metadata3846">
    <rdf:RDF>
      <cc:Work
         rdf:about="">
        <dc:format>image/svg+xml</dc:format>
        <dc:type
           rdf:resource="http://purl.org/dc/dcmitype/StillImage" />
        <dc:title></dc:title>
      </cc:Work>
    </rdf:RDF>
  </metadata>
  <defs
     id="defs3844" />
  <sodipodi:namedview
     pagecolor="#ffffff"
     bordercolor="#666666"
     borderopacity="1"
     objecttolerance="10"
     gridtolerance="10"
     guidetolerance="10"
     inkscape:pageopacity="0"
     inkscape:pageshadow="2"
     inkscape:window-width="640"
     inkscape:window-height="480"
     id="namedview3842"
     showgrid="false"
     inkscape:zoom="2.1608247"
     inkscape:cx="60.625"
     inkscape:cy="28.125"
     inkscape:window-x="0"
     inkscape:window-y="0"
     inkscape:window-maximized="0"
     inkscape:current-layer="svg3840" />
  <image
     width="121.25"
     height="56.25"
     preserveAspectRatio="none"
     style="image-rendering:optimizeQuality"
     xlink:href="file:///media/havoc/USB%20DISK/pics/_smallLogos/WebOS.png"
     id="image3848"
     x="0"
     y="0"
     sodipodi:absref="/media/havoc/USB DISK/pics/_smallLogos/WebOS.png" />
  <g
     id="g3897">
    <path
       style="fill:#fcfcfc"
       d="M 0,28.125 0,0 l 60.625,0 60.625,0 0,28.125 0,28.125 -60.625,0 L 0,56.25 0,28.125 Z"
       id="path3913"
       inkscape:connector-curvature="0" />
    <path
       style="fill:#cdd0d2"
       d="M 8.2230888,39.180689 C 7.8491062,38.730069 6.2488469,34.192766 4.6669561,29.097794 1.7777744,19.792284 1.7018549,18.384272 4.1143387,18.848874 c 0.8211257,0.158134 1.6705716,1.955487 3.1668213,6.700713 1.1245894,3.566538 2.1897675,6.629674 2.3670625,6.806969 0.3643065,0.364306 0.3101281,0.510277 2.5412045,-6.846722 0.905294,-2.985216 2.035134,-5.750628 2.510756,-6.14536 2.012344,-1.670097 3.001441,-0.430317 5.170974,6.481538 1.170439,3.728869 2.32429,6.540524 2.564114,6.248124 0.239823,-0.2924 1.23009,-3.062886 2.20059,-6.156636 1.892276,-6.03217 2.518811,-7.1875 3.897783,-7.1875 1.767398,0 1.521933,1.998141 -1.335551,10.871711 -3.030329,9.410313 -4.021695,11.102108 -5.844232,9.973358 -0.993221,-0.61513 -4.343171,-9.368932 -4.435105,-11.589433 -0.117849,-2.846452 -1.379229,-1.229227 -2.887213,3.701718 -2.390198,7.815687 -3.905875,9.765803 -5.8084543,7.473335 z M 33.509299,38.694815 c -2.71629,-2.136634 -3.710392,-4.763876 -3.680341,-9.726513 0.03036,-5.013648 1.104875,-7.517832 3.945938,-9.196089 2.145351,-1.26729 6.951052,-1.325311 9.296863,-0.112245 2.081541,1.076406 3.778064,4.343388 3.974745,7.654133 L 47.1875,29.6875 40.3125,30 l -6.875,0.3125 0.132916,1.875 c 0.16173,2.281454 2.727123,4.6875 4.997943,4.6875 1.100975,0 2.389389,-0.829441 4.002339,-2.57658 1.628847,-1.764358 2.703091,-2.452093 3.407787,-2.181676 1.562156,0.599455 0.623298,3.44802 -1.928762,5.852006 C 42.167791,39.741488 41.465434,40 38.530965,40 36.067557,40 34.724943,39.65104 33.509299,38.694815 Z M 43.125,25.670363 c 0,-1.504852 -2.828918,-3.795363 -4.6875,-3.795363 -1.858582,0 -4.6875,2.290511 -4.6875,3.795363 0,1.082437 0.475505,1.204637 4.6875,1.204637 4.211995,0 4.6875,-0.1222 4.6875,-1.204637 z m 9.075277,12.298387 c -2.55206,-2.403986 -3.490918,-5.252551 -1.928762,-5.852006 0.704696,-0.270417 1.77894,0.417318 3.407787,2.181676 2.794139,3.026597 4.976073,3.353023 7.245186,1.08391 C 65.054444,31.252377 62.893962,21.875 57.8125,21.875 c -2.312028,0 -4.786358,2.522618 -5.245607,5.347977 -0.341364,2.100112 -0.630065,2.464523 -1.952495,2.464523 l -1.551898,0 0,-9.0625 0,-9.0625 1.5625,0 c 1.474665,0 1.572787,0.212937 1.745502,3.787946 l 0.183003,3.787946 3.832941,-0.27725 C 63.507,18.346088 66.25,21.175026 66.25,29.03372 66.25,36.735713 63.710625,40 57.719035,40 54.784566,40 54.082209,39.741488 52.200277,37.96875 Z M 76.875,39.576478 C 65.880462,35.039543 64.20235,19.813667 73.976881,13.28125 76.755281,11.424422 77.433481,11.25 81.875,11.25 c 4.444931,0 5.116169,0.172996 7.881481,2.03125 3.662313,2.46103 5.5678,5.165695 6.400794,9.085346 1.287425,6.057972 -1.254031,12.322878 -6.319844,15.57896 C 87.646256,39.353946 86.376,39.67604 82.5,39.806077 c -2.578125,0.08649 -5.109375,-0.01682 -5.625,-0.229599 z m 9.088356,-3.876268 c 3.098981,-1.407671 5.635707,-4.321694 6.618925,-7.603376 C 94.758675,20.832672 86.648575,12.746943 79.372619,14.926872 74.399419,16.416879 71.25,20.415932 71.25,25.240775 c 0,5.096042 2.057912,8.373946 6.5625,10.452948 3.146344,1.45213 4.965094,1.453578 8.150856,0.0065 z m 15.534304,3.406433 C 98.8688,37.962276 96.875,35.003757 96.875,32.247269 c 0,-3.193309 2.072812,-3.137583 3.58883,0.09648 1.49443,3.18801 4.82721,4.816986 8.67477,4.240007 3.23399,-0.484966 5.2364,-2.149036 5.2364,-4.351614 0,-2.275666 -1.22003,-3.117061 -7.81694,-5.390998 C 99.305425,24.341184 97.5,22.648447 97.5,18.348458 97.5,12.886878 99.793794,11.25 107.44721,11.25 c 4.67633,0 5.15145,0.124817 7.14802,1.877826 3.04256,2.671405 3.6591,7.497174 0.95784,7.497174 -0.80241,0 -1.51226,-0.809941 -2.18633,-2.494596 -0.80598,-2.014355 -1.45516,-2.631524 -3.37215,-3.205866 -4.08277,-1.223225 -8.17483,0.142426 -9.02595,3.012242 -0.62856,2.119384 1.39065,3.618296 7.49279,5.562088 7.02203,2.236815 9.66357,4.520248 9.66357,8.353498 0,3.297103 -1.53137,5.967145 -4.12949,7.200035 -2.4899,1.181534 -9.83498,1.213413 -12.49785,0.05424 z"
       id="path3911"
       inkscape:connector-curvature="0" />
    <path
       style="fill:#de9bb0"
       d="M 77.977525,39.377679 C 70.937281,37.257831 66.256244,29.401251 68.014719,22.65625 70.385225,13.563686 79.776431,8.7882288 87.8364,12.576862 c 7.296363,3.429694 10.3146,11.751729 6.91225,19.058782 -2.910088,6.249842 -10.338387,9.67896 -16.771125,7.742035 z m 8.4488,-3.363203 c 2.432175,-1.04066 5.129281,-3.817102 6.033912,-6.211414 0.935782,-2.476754 0.826038,-7.056432 -0.216937,-9.05285 -4.885575,-9.351735 -18.322163,-8.170054 -21.019906,1.848595 -2.439532,9.059727 6.645825,17.077007 15.202931,13.415669 z M 101.875,38.639354 c -3.29065,-1.698683 -5.737263,-5.450938 -4.664806,-7.154189 0.984619,-1.563743 1.745912,-1.253633 2.928496,1.192914 0.5919,1.224543 1.70917,2.669799 2.48282,3.211681 1.81657,1.272381 7.4753,1.290477 9.90953,0.03169 1.55364,-0.803417 1.84396,-1.329378 1.84396,-3.34063 0,-3.098058 -0.98193,-3.897404 -7.36534,-5.995775 -6.15542,-2.023429 -8.682716,-3.935514 -9.25851,-7.004748 -0.940125,-5.011292 2.86046,-8.332221 9.53081,-8.327958 5.46486,0.0035 10.00325,3.346355 9.485,6.986394 -0.31104,2.184541 -2.1299,2.162222 -2.89605,-0.03554 -1.03342,-2.96448 -3.24062,-4.024022 -7.70935,-3.700784 -4.21985,0.305236 -5.53656,1.325614 -5.53656,4.290519 0,2.250017 0.79212,2.795297 7.21416,4.966085 6.7957,2.297092 8.26621,3.242184 9.44891,6.072787 0.83439,1.996967 0.8288,2.509148 -0.0525,4.816807 -1.26599,3.314951 -3.77453,4.80109 -8.7136,5.162228 -3.14721,0.23012 -4.33857,0.02015 -6.64698,-1.171481 z M 34.493597,38.529462 C 31.723323,36.992194 30.633582,34.446046 30.629118,29.500212 30.622648,22.332151 32.914183,19.375 38.475279,19.375 c 4.028158,0 6.24045,1.705825 7.43676,5.734236 0.517768,1.743512 0.789024,3.416564 0.602793,3.717893 C 46.3286,29.128458 43.230876,29.375 39.630999,29.375 c -7.108852,0 -7.665934,0.283564 -6.860626,3.492167 0.626439,2.49593 3.315811,4.632833 5.830593,4.632833 1.75353,0 2.632971,-0.508192 4.596236,-2.655972 2.289936,-2.505154 2.426669,-2.567262 2.407921,-1.09375 -0.05468,4.297808 -6.772261,7.187109 -11.111526,4.779184 z m 9.557559,-11.636107 c 0.531795,-0.860463 -1.334576,-4.233465 -2.766537,-4.999828 -2.904373,-1.554373 -6.326685,-0.458723 -7.866192,2.518355 -0.533231,1.031155 -0.800793,2.147818 -0.594583,2.481473 0.489069,0.79133 10.738243,0.79133 11.227312,0 z m 9.723458,11.585808 c -1.709323,-0.946468 -3.929313,-4.598219 -3.357667,-5.523161 0.201899,-0.32668 1.423815,0.562077 2.715369,1.975017 C 54.931414,36.899204 55.941123,37.5 57.449787,37.5 61.521244,37.5 63.75,34.471187 63.75,28.938198 63.75,24.035168 61.478358,21.25 57.479344,21.25 c -2.517815,0 -5.448993,2.97425 -5.722917,5.807013 -0.123754,1.279798 -0.533163,2.005487 -1.131427,2.005487 -0.787037,0 -0.9375,-1.354167 -0.9375,-8.4375 0,-7.083333 0.150463,-8.4375 0.9375,-8.4375 0.722488,0 0.979884,0.967553 1.122306,4.21875 0.135988,3.104328 0.415168,4.21875 1.056865,4.21875 0.479631,0 1.04588,-0.28125 1.258329,-0.625 0.591234,-0.956638 5.771439,-0.742974 7.832958,0.323079 2.62313,1.356473 3.729542,3.933628 3.729542,8.687179 0,4.761242 -1.243656,7.847288 -3.761876,9.334838 -2.098474,1.239598 -5.975852,1.303867 -8.08851,0.134067 z M 8.4884319,38.207409 C 7.8338913,37.14834 3.125,21.461818 3.125,20.340444 c 0,-0.588286 0.3409856,-0.955949 0.7577456,-0.817029 0.4167601,0.13892 1.7526977,3.379441 2.96875,7.201158 1.2160525,3.821716 2.4114119,7.142837 2.6563538,7.380268 0.5588936,0.541753 1.2510126,-1.121775 3.3159616,-7.970007 1.562937,-5.183353 2.927446,-7.450986 3.910043,-6.497972 0.249505,0.241994 1.454865,3.58676 2.678579,7.432814 1.223712,3.846053 2.484907,6.992824 2.802655,6.992824 0.317748,0 1.566529,-3.014595 2.775068,-6.699101 1.208539,-3.684505 2.517163,-7.013698 2.908052,-7.398207 1.704785,-1.676959 1.270878,1.062055 -1.503114,9.488325 -2.49587,7.581452 -3.152737,8.983983 -4.207594,8.983983 -1.019083,0 -1.562975,-0.981398 -2.944195,-5.3125 -0.931807,-2.921875 -1.922955,-6.015625 -2.202551,-6.875 -0.279596,-0.859375 -0.759834,-1.5625 -1.067196,-1.5625 -0.307362,0 -1.566214,3.09375 -2.797449,6.875 -1.543521,4.740314 -2.560125,6.934261 -3.2740859,7.065855 C 9.3325106,38.733326 8.6963944,38.5439 8.4884319,38.207409 Z"
       id="path3909"
       inkscape:connector-curvature="0" />
    <path
       style="fill:#969da2"
       d="M 34.493597,38.529462 C 31.723323,36.992194 30.633582,34.446046 30.629118,29.500212 30.622648,22.332151 32.914183,19.375 38.475279,19.375 c 4.028158,0 6.24045,1.705825 7.43676,5.734236 0.517768,1.743512 0.789024,3.416564 0.602793,3.717893 C 46.3286,29.128458 43.230876,29.375 39.630999,29.375 c -7.108852,0 -7.665934,0.283564 -6.860626,3.492167 0.626439,2.49593 3.315811,4.632833 5.830593,4.632833 1.75353,0 2.632971,-0.508192 4.596236,-2.655972 2.289936,-2.505154 2.426669,-2.567262 2.407921,-1.09375 -0.05468,4.297808 -6.772261,7.187109 -11.111526,4.779184 z m 9.557559,-11.636107 c 0.531795,-0.860463 -1.334576,-4.233465 -2.766537,-4.999828 -2.904373,-1.554373 -6.326685,-0.458723 -7.866192,2.518355 -0.533231,1.031155 -0.800793,2.147818 -0.594583,2.481473 0.489069,0.79133 10.738243,0.79133 11.227312,0 z m 9.723458,11.585808 c -1.709323,-0.946468 -3.929313,-4.598219 -3.357667,-5.523161 0.201899,-0.32668 1.423815,0.562077 2.715369,1.975017 C 54.931414,36.899204 55.941123,37.5 57.449787,37.5 61.521244,37.5 63.75,34.471187 63.75,28.938198 63.75,24.035168 61.478358,21.25 57.479344,21.25 c -2.517815,0 -5.448993,2.97425 -5.722917,5.807013 -0.123754,1.279798 -0.533163,2.005487 -1.131427,2.005487 -0.787037,0 -0.9375,-1.354167 -0.9375,-8.4375 0,-7.083333 0.150463,-8.4375 0.9375,-8.4375 0.722488,0 0.979884,0.967553 1.122306,4.21875 0.135988,3.104328 0.415168,4.21875 1.056865,4.21875 0.479631,0 1.04588,-0.28125 1.258329,-0.625 0.591234,-0.956638 5.771439,-0.742974 7.832958,0.323079 2.62313,1.356473 3.729542,3.933628 3.729542,8.687179 0,4.761242 -1.243656,7.847288 -3.761876,9.334838 -2.098474,1.239598 -5.975852,1.303867 -8.08851,0.134067 z M 75.63465,37.688973 C 68.750219,34.060331 66.264,26.259913 69.798694,19.378868 c 2.457925,-4.784884 5.8436,-7.053634 11.017869,-7.383107 8.403212,-0.535076 14.802724,5.235831 14.767281,13.316739 -0.03512,8.004224 -4.877094,13.287449 -12.731482,13.891674 -3.2957,0.253533 -4.236825,0.05596 -7.217712,-1.515201 z M 86.105294,36.53267 c 8.504375,-3.553354 10.221031,-13.615714 3.377625,-19.798318 -5.524544,-4.991093 -14.539982,-3.25236 -18.034394,3.478147 -1.307481,2.518304 -1.332306,8.262254 -0.04637,10.725001 2.841763,5.442281 9.2409,7.87743 14.703119,5.59517 z m 15.938266,1.954598 c -3.081198,-1.398826 -5.714372,-6.439895 -3.937473,-7.538078 0.333344,-0.206019 1.019544,0.614974 1.524888,1.824429 1.693185,4.052372 7.033495,5.824128 12.163955,4.035641 C 114.06337,36.018477 115,34.616836 115,32.012956 c 0,-2.475053 -1.48339,-3.635082 -7.26498,-5.681284 -8.093014,-2.864254 -9.62147,-4.168665 -9.59612,-8.189488 0.02736,-4.339816 2.91279,-6.267184 9.38251,-6.267184 4.27753,0 4.57594,0.09735 6.64695,2.168361 1.62771,1.627707 2.11859,2.601681 1.96875,3.90625 -0.23475,2.043794 -1.36568,2.326198 -1.63915,0.40931 -0.3428,-2.402855 -2.94083,-4.168111 -6.57842,-4.469768 -5.5074,-0.456716 -8.846765,2.204809 -7.61918,6.072595 0.50658,1.596083 2.31261,2.560193 8.70963,4.649442 5.60132,1.829375 7.67635,3.435066 8.2261,6.365504 0.45693,2.435663 -0.9861,5.832047 -3.01716,7.101317 -2.04937,1.280715 -9.69009,1.537547 -12.17537,0.409257 z M 8.4884319,38.207409 C 7.8338913,37.14834 3.125,21.461818 3.125,20.340444 c 0,-0.588286 0.3409856,-0.955949 0.7577456,-0.817029 0.4167601,0.13892 1.7526977,3.379441 2.96875,7.201158 1.2160525,3.821716 2.4114119,7.142837 2.6563538,7.380268 0.5588936,0.541753 1.2510126,-1.121775 3.3159616,-7.970007 1.562937,-5.183353 2.927446,-7.450986 3.910043,-6.497972 0.249505,0.241994 1.454865,3.58676 2.678579,7.432814 1.223712,3.846053 2.484907,6.992824 2.802655,6.992824 0.317748,0 1.566529,-3.014595 2.775068,-6.699101 1.208539,-3.684505 2.517163,-7.013698 2.908052,-7.398207 1.704785,-1.676959 1.270878,1.062055 -1.503114,9.488325 -2.49587,7.581452 -3.152737,8.983983 -4.207594,8.983983 -1.019083,0 -1.562975,-0.981398 -2.944195,-5.3125 -0.931807,-2.921875 -1.922955,-6.015625 -2.202551,-6.875 -0.279596,-0.859375 -0.759834,-1.5625 -1.067196,-1.5625 -0.307362,0 -1.566214,3.09375 -2.797449,6.875 -1.543521,4.740314 -2.560125,6.934261 -3.2740859,7.065855 C 9.3325106,38.733326 8.6963944,38.5439 8.4884319,38.207409 Z"
       id="path3907"
       inkscape:connector-curvature="0" />
    <path
       style="fill:#cf6e8b"
       d="M 75.63465,37.688973 C 68.750219,34.060331 66.264,26.259913 69.798694,19.378868 c 2.457925,-4.784884 5.8436,-7.053634 11.017869,-7.383107 8.403212,-0.535076 14.802724,5.235831 14.767281,13.316739 -0.03512,8.004224 -4.877094,13.287449 -12.731482,13.891674 -3.2957,0.253533 -4.236825,0.05596 -7.217712,-1.515201 z M 86.105294,36.53267 c 8.504375,-3.553354 10.221031,-13.615714 3.377625,-19.798318 -5.524544,-4.991093 -14.539982,-3.25236 -18.034394,3.478147 -1.307481,2.518304 -1.332306,8.262254 -0.04637,10.725001 2.841763,5.442281 9.2409,7.87743 14.703119,5.59517 z m 15.938266,1.954598 c -3.081198,-1.398826 -5.714372,-6.439895 -3.937473,-7.538078 0.333344,-0.206019 1.019544,0.614974 1.524888,1.824429 1.693185,4.052372 7.033495,5.824128 12.163955,4.035641 C 114.06337,36.018477 115,34.616836 115,32.012956 c 0,-2.475053 -1.48339,-3.635082 -7.26498,-5.681284 -8.093014,-2.864254 -9.62147,-4.168665 -9.59612,-8.189488 0.02736,-4.339816 2.91279,-6.267184 9.38251,-6.267184 4.27753,0 4.57594,0.09735 6.64695,2.168361 1.62771,1.627707 2.11859,2.601681 1.96875,3.90625 -0.23475,2.043794 -1.36568,2.326198 -1.63915,0.40931 -0.3428,-2.402855 -2.94083,-4.168111 -6.57842,-4.469768 -5.5074,-0.456716 -8.846765,2.204809 -7.61918,6.072595 0.50658,1.596083 2.31261,2.560193 8.70963,4.649442 5.60132,1.829375 7.67635,3.435066 8.2261,6.365504 0.45693,2.435663 -0.9861,5.832047 -3.01716,7.101317 -2.04937,1.280715 -9.69009,1.537547 -12.17537,0.409257 z M 35.1602,38.140393 c -1.667128,-0.709971 -3.924066,-4.190339 -3.860315,-5.952893 0.03033,-0.838322 0.296761,-0.554678 0.809001,0.861245 1.080287,2.986101 3.726186,5.076255 6.425966,5.076255 1.685854,0 2.722901,-0.507753 4.340148,-2.125 2.388545,-2.388545 2.893144,-1.962726 0.698127,0.589134 -1.5814,1.838487 -5.878096,2.630754 -8.412927,1.551259 z m 19.407486,-0.02139 c -1.455426,-0.58625 -3.718577,-3.551445 -3.146914,-4.123109 0.187052,-0.187052 0.506039,0.182747 0.708859,0.821777 0.503363,1.585952 3.587523,3.307326 5.925691,3.307326 1.243819,0 2.647197,-0.645321 3.966067,-1.823732 1.982805,-1.771634 2.041111,-1.966591 2.041111,-6.824647 0,-4.444067 -0.17015,-5.182031 -1.528063,-6.627463 -0.840433,-0.894601 -2.387308,-1.876269 -3.437499,-2.181485 l -1.909438,-0.554937 1.78125,-0.05637 c 1.239391,-0.03922 2.427679,0.590061 3.90625,2.068632 2.0318,2.031799 2.1249,2.32648 2.122662,6.71875 -0.0019,3.488193 -0.302675,5.086351 -1.250287,6.640579 -1.815499,2.977695 -5.618401,4.06917 -9.179689,2.634674 z M 8.5189288,36.71875 c -0.5817844,-2.170922 -0.4707701,-2.560579 0.4999843,-1.754924 0.7163175,0.594491 1.0368039,0.47489 1.6131379,-0.602001 1.091299,-2.039111 1.464589,-1.001007 0.549769,1.528883 -0.91756,2.537468 -2.1057662,2.906947 -2.6628912,0.828042 z M 20.319861,34.620322 c -0.560361,-1.927573 -0.863522,-3.659995 -0.67369,-3.849826 0.189832,-0.189832 0.521622,0.537216 0.73731,1.615661 0.21569,1.078446 0.760528,2.266527 1.210754,2.640181 0.989556,0.821259 1.805601,-0.495331 3.184055,-5.13709 0.512463,-1.725648 1.102236,-2.967055 1.310609,-2.758683 0.634872,0.634872 -3.086463,10.994435 -3.949393,10.994435 -0.440444,0 -1.259285,-1.577105 -1.819645,-3.504678 z M 7.1875,32.5 C 6.9528519,31.760689 6.9014925,31.015174 7.0733675,30.843299 7.2452425,30.671424 7.5778519,31.135689 7.8125,31.875 8.0471481,32.614311 8.0985075,33.359826 7.9266325,33.531701 7.7547575,33.703576 7.4221481,33.239311 7.1875,32.5 Z m 4.697071,-1.369364 C 11.889834,30.680661 12.166777,29.890625 12.5,29.375 c 0.492554,-0.762172 0.607649,-0.681407 0.615429,0.431864 0.0053,0.753151 -0.271679,1.543187 -0.615429,1.755636 -0.34375,0.212449 -0.620693,0.01811 -0.615429,-0.431864 z M 31.25,27.841908 C 31.25,22.603449 33.785007,20 38.885751,20 c 3.269055,0 5.620223,2.038614 6.619001,5.739101 0.735226,2.724019 0.525603,3.030739 -2.015169,2.948599 -1.827817,-0.05909 -1.846597,-0.08456 -0.364583,-0.494372 2.431027,-0.672241 2.348796,-2.844532 -0.204326,-5.397654 -2.72777,-2.72777 -5.660475,-2.940001 -8.429503,-0.610017 -2.189327,1.842197 -3.115612,4.640562 -1.854426,5.602342 0.705335,0.537888 0.659362,0.837455 -0.267526,1.743251 C 31.297407,30.578672 31.25,30.507117 31.25,27.841908 Z M 6.0752848,29.167633 c -0.2476566,-0.629677 -0.4417324,-1.614052 -0.4312794,-2.1875 0.016956,-0.930204 0.088885,-0.922574 0.6670459,0.07075 0.3564225,0.612363 0.5504981,1.596738 0.4312793,2.1875 -0.1979593,0.980946 -0.2558181,0.974809 -0.6670458,-0.07075 z M 18.4375,28.75 c -0.234648,-0.739311 -0.286008,-1.484826 -0.114133,-1.656701 0.171875,-0.171875 0.504485,0.29239 0.739133,1.031701 0.234648,0.739311 0.286007,1.484826 0.114132,1.656701 C 19.004757,29.953576 18.672148,29.489311 18.4375,28.75 Z m 16.40625,-0.413926 c 0.429687,-0.173382 1.132812,-0.173382 1.5625,0 0.429687,0.173384 0.07813,0.315242 -0.78125,0.315242 -0.859375,0 -1.210938,-0.141859 -0.78125,-0.315242 z M 50,20.588114 c 0,-5.282104 0.220521,-8.025596 0.625,-7.775614 0.34375,0.212449 0.625,2.230585 0.625,4.484746 0,4.517126 -0.33857,4.284637 4.375,3.004229 1.377791,-0.374267 1.331001,-0.275736 -0.395804,0.833494 C 52.660235,22.785166 51.25,24.86873 51.25,27.014066 51.25,27.96883 50.96875,28.75 50.625,28.75 50.24024,28.75 50,25.612705 50,20.588114 Z M 13.134571,27.068136 C 13.129307,26.314985 13.40625,25.524949 13.75,25.3125 c 0.795742,-0.491796 0.795742,0.956178 0,2.1875 -0.492554,0.762172 -0.607649,0.681407 -0.615429,-0.431864 z m 4.025964,-2.25517 c -0.356425,-0.804525 -1.061019,-1.299235 -1.697451,-1.191818 -1.233555,0.208201 -1.388886,-0.64127 -0.441094,-2.412236 0.998603,-1.865907 1.620278,-1.459929 2.483028,1.621511 0.853442,3.048195 0.648968,4.224968 -0.344483,1.982543 z M 26.269141,25.625 c 0,-0.515625 0.272636,-1.359375 0.605859,-1.875 0.538541,-0.833333 0.605859,-0.833333 0.605859,0 0,0.515625 -0.272636,1.359375 -0.605859,1.875 -0.538541,0.833333 -0.605859,0.833333 -0.605859,0 z M 4.6875,24.375 C 4.452852,23.635689 4.4014923,22.890174 4.5733673,22.718299 4.7452423,22.546424 5.077852,23.010689 5.3125,23.75 5.547148,24.489311 5.5985077,25.234826 5.4266327,25.406701 5.2547577,25.578576 4.922148,25.114311 4.6875,24.375 Z m 22.861842,-2.864583 c 0.02999,-0.72809 0.178088,-0.876188 0.377604,-0.377604 0.180545,0.451171 0.15834,0.990234 -0.04934,1.197916 -0.207682,0.207682 -0.3554,-0.161458 -0.328262,-0.820312 z"
       id="path3905"
       inkscape:connector-curvature="0" />
    <path
       style="fill:#7c848a"
       d="M 78.96265,38.789938 C 68.466306,36.217508 65.071863,22.350681 73.229281,15.368234 c 9.7706,-8.3632652 24.608094,0.634657 21.792581,13.2157 -1.577118,7.04732 -9.194562,11.888383 -16.059212,10.206004 z m 8.628325,-2.586349 C 92.3538,33.773776 94.994681,28.014491 93.701306,22.878039 92.073913,16.41507 85.321344,12.159533 79.254925,13.773779 73.634669,15.269305 70.02745,19.902196 70.02745,25.625 c 0,5.469839 3.076425,9.615777 8.650719,11.658134 2.627625,0.962731 5.620087,0.600275 8.912806,-1.079545 z M 103.75,38.672795 c -2.69314,-0.799838 -4.73225,-2.630508 -5.553231,-4.98557 -0.913856,-2.621483 0.340062,-2.907255 1.419612,-0.323534 1.460509,3.4955 3.914649,4.505094 10.275439,4.227163 2.57569,-0.112542 5.73318,-3.042715 5.73318,-5.320425 0,-2.624043 -2.40302,-4.521268 -8.04461,-6.351354 C 101.14718,23.832192 98.5,21.697831 98.5,18.597759 c 0,-1.202091 0.477375,-2.914183 1.060831,-3.80465 2.032509,-3.10201 9.960809,-3.814814 13.479319,-1.211875 2.06973,1.531154 3.56931,4.434304 2.72605,5.277564 -0.39787,0.397875 -0.83896,-0.04331 -1.26491,-1.265164 -0.95386,-2.736251 -3.3147,-4.022205 -7.38421,-4.022205 -4.4475,0 -6.72264,1.533698 -6.9952,4.715544 -0.250205,2.920948 1.26581,4.314184 6.30161,5.791269 7.91125,2.320505 10.46301,4.375229 10.43761,8.404574 -0.0147,2.339387 -1.33452,4.442803 -3.47174,5.533166 -2.00572,1.023269 -7.21117,1.377961 -9.63936,0.656813 z M 35.1602,38.140393 c -1.667128,-0.709971 -3.924066,-4.190339 -3.860315,-5.952893 0.03033,-0.838322 0.296761,-0.554678 0.809001,0.861245 1.080287,2.986101 3.726186,5.076255 6.425966,5.076255 1.685854,0 2.722901,-0.507753 4.340148,-2.125 2.388545,-2.388545 2.893144,-1.962726 0.698127,0.589134 -1.5814,1.838487 -5.878096,2.630754 -8.412927,1.551259 z m 19.407486,-0.02139 c -1.455426,-0.58625 -3.718577,-3.551445 -3.146914,-4.123109 0.187052,-0.187052 0.506039,0.182747 0.708859,0.821777 0.503363,1.585952 3.587523,3.307326 5.925691,3.307326 1.243819,0 2.647197,-0.645321 3.966067,-1.823732 1.982805,-1.771634 2.041111,-1.966591 2.041111,-6.824647 0,-4.444067 -0.17015,-5.182031 -1.528063,-6.627463 -0.840433,-0.894601 -2.387308,-1.876269 -3.437499,-2.181485 l -1.909438,-0.554937 1.78125,-0.05637 c 1.239391,-0.03922 2.427679,0.590061 3.90625,2.068632 2.0318,2.031799 2.1249,2.32648 2.122662,6.71875 -0.0019,3.488193 -0.302675,5.086351 -1.250287,6.640579 -1.815499,2.977695 -5.618401,4.06917 -9.179689,2.634674 z M 8.5189288,36.71875 c -0.5817844,-2.170922 -0.4707701,-2.560579 0.4999843,-1.754924 0.7163175,0.594491 1.0368039,0.47489 1.6131379,-0.602001 1.091299,-2.039111 1.464589,-1.001007 0.549769,1.528883 -0.91756,2.537468 -2.1057662,2.906947 -2.6628912,0.828042 z M 20.319861,34.620322 c -0.560361,-1.927573 -0.863522,-3.659995 -0.67369,-3.849826 0.189832,-0.189832 0.521622,0.537216 0.73731,1.615661 0.21569,1.078446 0.760528,2.266527 1.210754,2.640181 0.989556,0.821259 1.805601,-0.495331 3.184055,-5.13709 0.512463,-1.725648 1.102236,-2.967055 1.310609,-2.758683 0.634872,0.634872 -3.086463,10.994435 -3.949393,10.994435 -0.440444,0 -1.259285,-1.577105 -1.819645,-3.504678 z M 7.1875,32.5 C 6.9528519,31.760689 6.9014925,31.015174 7.0733675,30.843299 7.2452425,30.671424 7.5778519,31.135689 7.8125,31.875 8.0471481,32.614311 8.0985075,33.359826 7.9266325,33.531701 7.7547575,33.703576 7.4221481,33.239311 7.1875,32.5 Z m 4.697071,-1.369364 C 11.889834,30.680661 12.166777,29.890625 12.5,29.375 c 0.492554,-0.762172 0.607649,-0.681407 0.615429,0.431864 0.0053,0.753151 -0.271679,1.543187 -0.615429,1.755636 -0.34375,0.212449 -0.620693,0.01811 -0.615429,-0.431864 z M 31.25,27.841908 C 31.25,22.603449 33.785007,20 38.885751,20 c 3.269055,0 5.620223,2.038614 6.619001,5.739101 0.735226,2.724019 0.525603,3.030739 -2.015169,2.948599 -1.827817,-0.05909 -1.846597,-0.08456 -0.364583,-0.494372 2.431027,-0.672241 2.348796,-2.844532 -0.204326,-5.397654 -2.72777,-2.72777 -5.660475,-2.940001 -8.429503,-0.610017 -2.189327,1.842197 -3.115612,4.640562 -1.854426,5.602342 0.705335,0.537888 0.659362,0.837455 -0.267526,1.743251 C 31.297407,30.578672 31.25,30.507117 31.25,27.841908 Z M 6.0752848,29.167633 c -0.2476566,-0.629677 -0.4417324,-1.614052 -0.4312794,-2.1875 0.016956,-0.930204 0.088885,-0.922574 0.6670459,0.07075 0.3564225,0.612363 0.5504981,1.596738 0.4312793,2.1875 -0.1979593,0.980946 -0.2558181,0.974809 -0.6670458,-0.07075 z M 18.4375,28.75 c -0.234648,-0.739311 -0.286008,-1.484826 -0.114133,-1.656701 0.171875,-0.171875 0.504485,0.29239 0.739133,1.031701 0.234648,0.739311 0.286007,1.484826 0.114132,1.656701 C 19.004757,29.953576 18.672148,29.489311 18.4375,28.75 Z m 16.40625,-0.413926 c 0.429687,-0.173382 1.132812,-0.173382 1.5625,0 0.429687,0.173384 0.07813,0.315242 -0.78125,0.315242 -0.859375,0 -1.210938,-0.141859 -0.78125,-0.315242 z M 50,20.588114 c 0,-5.282104 0.220521,-8.025596 0.625,-7.775614 0.34375,0.212449 0.625,2.230585 0.625,4.484746 0,4.517126 -0.33857,4.284637 4.375,3.004229 1.377791,-0.374267 1.331001,-0.275736 -0.395804,0.833494 C 52.660235,22.785166 51.25,24.86873 51.25,27.014066 51.25,27.96883 50.96875,28.75 50.625,28.75 50.24024,28.75 50,25.612705 50,20.588114 Z M 13.134571,27.068136 C 13.129307,26.314985 13.40625,25.524949 13.75,25.3125 c 0.795742,-0.491796 0.795742,0.956178 0,2.1875 -0.492554,0.762172 -0.607649,0.681407 -0.615429,-0.431864 z m 4.025964,-2.25517 c -0.356425,-0.804525 -1.061019,-1.299235 -1.697451,-1.191818 -1.233555,0.208201 -1.388886,-0.64127 -0.441094,-2.412236 0.998603,-1.865907 1.620278,-1.459929 2.483028,1.621511 0.853442,3.048195 0.648968,4.224968 -0.344483,1.982543 z M 26.269141,25.625 c 0,-0.515625 0.272636,-1.359375 0.605859,-1.875 0.538541,-0.833333 0.605859,-0.833333 0.605859,0 0,0.515625 -0.272636,1.359375 -0.605859,1.875 -0.538541,0.833333 -0.605859,0.833333 -0.605859,0 z M 4.6875,24.375 C 4.452852,23.635689 4.4014923,22.890174 4.5733673,22.718299 4.7452423,22.546424 5.077852,23.010689 5.3125,23.75 5.547148,24.489311 5.5985077,25.234826 5.4266327,25.406701 5.2547577,25.578576 4.922148,25.114311 4.6875,24.375 Z m 22.861842,-2.864583 c 0.02999,-0.72809 0.178088,-0.876188 0.377604,-0.377604 0.180545,0.451171 0.15834,0.990234 -0.04934,1.197916 -0.207682,0.207682 -0.3554,-0.161458 -0.328262,-0.820312 z"
       id="path3903"
       inkscape:connector-curvature="0" />
    <path
       style="fill:#c74f73"
       d="M 78.96265,38.789938 C 68.466306,36.217508 65.071863,22.350681 73.229281,15.368234 c 9.7706,-8.3632652 24.608094,0.634657 21.792581,13.2157 -1.577118,7.04732 -9.194562,11.888383 -16.059212,10.206004 z m 8.628325,-2.586349 C 92.3538,33.773776 94.994681,28.014491 93.701306,22.878039 92.073913,16.41507 85.321344,12.159533 79.254925,13.773779 73.634669,15.269305 70.02745,19.902196 70.02745,25.625 c 0,5.469839 3.076425,9.615777 8.650719,11.658134 2.627625,0.962731 5.620087,0.600275 8.912806,-1.079545 z M 103.75,38.672795 c -2.69314,-0.799838 -4.73225,-2.630508 -5.553231,-4.98557 -0.913856,-2.621483 0.340062,-2.907255 1.419612,-0.323534 1.460509,3.4955 3.914649,4.505094 10.275439,4.227163 2.57569,-0.112542 5.73318,-3.042715 5.73318,-5.320425 0,-2.624043 -2.40302,-4.521268 -8.04461,-6.351354 C 101.14718,23.832192 98.5,21.697831 98.5,18.597759 c 0,-1.202091 0.477375,-2.914183 1.060831,-3.80465 2.032509,-3.10201 9.960809,-3.814814 13.479319,-1.211875 2.06973,1.531154 3.56931,4.434304 2.72605,5.277564 -0.39787,0.397875 -0.83896,-0.04331 -1.26491,-1.265164 -0.95386,-2.736251 -3.3147,-4.022205 -7.38421,-4.022205 -4.4475,0 -6.72264,1.533698 -6.9952,4.715544 -0.250205,2.920948 1.26581,4.314184 6.30161,5.791269 7.91125,2.320505 10.46301,4.375229 10.43761,8.404574 -0.0147,2.339387 -1.33452,4.442803 -3.47174,5.533166 -2.00572,1.023269 -7.21117,1.377961 -9.63936,0.656813 z"
       id="path3901"
       inkscape:connector-curvature="0" />
    <path
       style="fill:#c13b62"
       d="m 82.1875,38.13924 c 4.291525,-0.597055 5.882838,-1.378856 8.49625,-4.174158 2.954412,-3.16004 3.9179,-5.761426 3.550406,-9.586019 -0.356287,-3.707949 -2.754225,-7.494768 -6.039793,-9.538039 -3.442707,-2.140993 -9.632213,-1.997096 -12.948407,0.30103 -1.352825,0.937505 -2.973368,2.574165 -3.601212,3.637021 -0.627844,1.062857 -1.295913,1.778087 -1.4846,1.589401 -0.188688,-0.188687 0.377256,-1.431548 1.25765,-2.761914 4.629756,-6.996034 16.73325,-6.637601 21.5481,0.638125 1.501868,2.269484 1.721606,3.21146 1.721606,7.380313 0,4.137933 -0.224863,5.118577 -1.676781,7.312575 -2.183413,3.299356 -7.125182,5.847394 -11.102181,5.724426 l -2.846038,-0.088 3.125,-0.434762 z m 23.59375,0.163101 c 0.94531,-0.143203 2.49219,-0.143203 3.4375,0 0.94531,0.143203 0.17188,0.260369 -1.71875,0.260369 -1.89062,0 -2.66406,-0.117166 -1.71875,-0.260369 z M 75.257063,36.943159 c -2.311507,-1.409543 -4.424351,-3.98688 -5.626338,-6.863236 -0.977469,-2.339083 -1.155619,-6.803363 -0.323881,-8.11604 0.33145,-0.523113 0.52645,0.675545 0.508368,3.125 -0.04125,5.59249 2.233532,9.29503 7.372288,11.999338 1.03125,0.542703 1.453125,0.996941 0.9375,1.009419 -0.515625,0.01248 -1.806194,-0.507038 -2.867937,-1.154481 z m 25.597337,0.07419 c -1.459906,-1.182568 -2.731219,-3.34286 -2.7262,-4.632514 0.0019,-0.452286 0.665413,0.27164 1.474781,1.608725 0.809359,1.337084 2.143859,2.80368 2.965539,3.259103 0.8926,0.494722 1.1166,0.831361 0.55648,0.83629 -0.51563,0.0046 -1.53739,-0.477685 -2.2706,-1.071604 z m 12.33443,-0.319004 c 1.77058,-1.189454 2.1556,-1.864345 2.3157,-4.059189 0.24791,-3.398782 -1.40912,-5.008619 -6.8463,-6.651292 -4.83809,-1.461678 -8.47172,-3.350341 -8.97648,-4.665731 -0.237975,-0.620148 0.186644,-0.451507 1.15593,0.459084 0.84264,0.791621 3.60044,2.085779 6.12845,2.875905 2.528,0.790126 5.3909,1.807762 6.362,2.261412 1.97642,0.923299 3.54687,3.489958 3.54687,5.796829 0,1.799048 -3.14909,5.409634 -4.71818,5.409634 -0.73749,0 -0.40266,-0.462865 1.032,-1.426652 z M 98.813975,18.233173 c -0.04669,-1.518055 0.429162,-2.572467 1.762955,-3.90625 1.65163,-1.651636 2.22429,-1.826923 5.96853,-1.826923 5.84386,0 9.12962,1.9695 9.05508,5.427662 -0.015,0.696244 -0.36948,0.340756 -0.91717,-0.919808 -1.21807,-2.803518 -4.4947,-4.14171 -9.00211,-3.676505 -3.8796,0.40041 -5.55506,1.695581 -6.30581,4.874535 l -0.4975,2.106616 -0.06397,-2.079327 z"
       id="path3899"
       inkscape:connector-curvature="0" />
  </g>
</svg>
