<?xml version="1.0" encoding="UTF-8" standalone="no"?>
<!-- Created with Inkscape (http://www.inkscape.org/) -->

<svg
   xmlns:dc="http://purl.org/dc/elements/1.1/"
   xmlns:cc="http://creativecommons.org/ns#"
   xmlns:rdf="http://www.w3.org/1999/02/22-rdf-syntax-ns#"
   xmlns:svg="http://www.w3.org/2000/svg"
   xmlns="http://www.w3.org/2000/svg"
   xmlns:xlink="http://www.w3.org/1999/xlink"
   xmlns:sodipodi="http://sodipodi.sourceforge.net/DTD/sodipodi-0.dtd"
   xmlns:inkscape="http://www.inkscape.org/namespaces/inkscape"
   id="svg3850"
   version="1.1"
   inkscape:version="0.91 r13725"
   width="56.25"
   height="56.25"
   viewBox="0 0 56.25 56.25"
   sodipodi:docname="WindowsPhone.svg">
  <metadata
     id="metadata3856">
    <rdf:RDF>
      <cc:Work
         rdf:about="">
        <dc:format>image/svg+xml</dc:format>
        <dc:type
           rdf:resource="http://purl.org/dc/dcmitype/StillImage" />
        <dc:title></dc:title>
      </cc:Work>
    </rdf:RDF>
  </metadata>
  <defs
     id="defs3854" />
  <sodipodi:namedview
     pagecolor="#ffffff"
     bordercolor="#666666"
     borderopacity="1"
     objecttolerance="10"
     gridtolerance="10"
     guidetolerance="10"
     inkscape:pageopacity="0"
     inkscape:pageshadow="2"
     inkscape:window-width="640"
     inkscape:window-height="480"
     id="namedview3852"
     showgrid="false"
     inkscape:zoom="4.1955556"
     inkscape:cx="28.125"
     inkscape:cy="28.125"
     inkscape:window-x="0"
     inkscape:window-y="0"
     inkscape:window-maximized="0"
     inkscape:current-layer="svg3850" />
  <image
     width="56.25"
     height="56.25"
     preserveAspectRatio="none"
     style="image-rendering:optimizeQuality"
     xlink:href="file:///media/havoc/USB%20DISK/pics/_smallLogos/WindowsPhone.png"
     id="image3858"
     x="0"
     y="0"
     sodipodi:absref="/media/havoc/USB DISK/pics/_smallLogos/WindowsPhone.png" />
  <g
     id="g3860">
    <path
       style="fill:#f7f7f8"
       d="M 0,28.125 0,0 28.125,0 56.25,0 l 0,28.125 0,28.125 -28.125,0 L 0,56.25 0,28.125 Z"
       id="path3876"
       inkscape:connector-curvature="0" />
    <path
       style="fill:#a2b0ca"
       d="M 21.795401,54.453188 C 14.522377,52.908511 7.7423319,47.256434 3.9446703,39.572212 1.6445604,34.918148 1.5643022,34.535695 1.6148159,28.469803 1.6617899,22.828979 1.8648377,21.757519 3.6033569,17.976496 6.3118062,12.086017 10.942298,7.37631 16.844316,4.5090189 21.328758,2.3304084 21.872751,2.2176172 27.825062,2.2322766 c 5.740899,0.014139 6.625948,0.1849278 10.625,2.0503183 12.492202,5.8270891 18.637007,19.3050781 14.664779,32.1656581 -1.387703,4.492858 -5.499891,10.487288 -9.053882,13.198049 -4.251702,3.242931 -8.930185,4.862528 -14.685959,5.083983 -2.921875,0.11242 -6.332695,-0.01227 -7.579599,-0.277097 z M 34.943936,40.672876 c 0.958127,-0.606532 3.179732,-5.960386 3.180555,-7.664832 4.15e-4,-0.859443 -0.410911,-0.987691 -2.224083,-0.693454 -1.223526,0.198551 -3.354406,-0.01187 -4.735291,-0.467604 -2.972279,-0.98094 -3.104463,-0.851848 -4.321219,4.220162 -0.77024,3.210719 -0.745068,3.526583 0.344532,4.323319 1.312647,0.959831 6.393153,1.144832 7.755506,0.282409 z M 23.69617,33.941008 c 0.917411,-3.057963 1.072967,-4.403602 0.578001,-5 -0.871387,-1.049957 -6.810294,-1.075083 -8.21559,-0.03476 -0.803565,0.59487 -2.933581,6.608212 -2.933581,8.281921 0,0.1387 1.757813,0.352036 3.90625,0.474081 2.148437,0.122044 4.244524,0.27609 4.657971,0.342323 0.42548,0.06816 1.296482,-1.695399 2.006949,-4.063567 z M 38.909738,27.96875 c 1.051953,-0.802851 2.939963,-5.574275 2.956166,-7.470897 0.0073,-0.855479 -0.51277,-1.041595 -2.647154,-0.947312 -1.460938,0.06453 -3.78125,-0.100356 -5.15625,-0.366422 l -2.5,-0.483757 -1.011883,4.10922 c -0.993025,4.03264 -0.987522,4.126285 0.295316,5.02482 1.598225,1.11944 6.662514,1.203814 8.063805,0.134348 z M 27.245471,20.809629 c 1.246393,-4.604549 0.990993,-5.120964 -2.782998,-5.627162 -4.168597,-0.559126 -6.012408,0.589342 -6.863135,4.274892 -1.231738,5.336179 -1.315692,5.223188 3.926032,5.28389 l 4.641312,0.05375 1.078789,-3.985369 z"
       id="path3874"
       inkscape:connector-curvature="0" />
    <path
       style="fill:#929fb0"
       d="M 20.580843,53.55998 C 14.371879,51.799828 7.3342362,45.847911 4.4990119,39.95916 -1.2176994,28.08557 3.4464694,12.558225 14.713175,5.955496 21.085215,2.2212319 30.272547,1.6076197 37.776301,4.415134 c 4.057902,1.5182557 10.053472,6.714542 12.424415,10.768087 7.6777,13.12638 2.360636,30.466651 -11.302547,36.860426 -3.365955,1.575121 -4.979666,1.923929 -9.74722,2.106892 -3.4666,0.133036 -6.836847,-0.09921 -8.570106,-0.590559 z M 34.949118,41.084536 c 0.958879,-0.489733 1.912452,-1.914725 2.60781,-3.897036 1.887785,-5.381653 1.779819,-5.609574 -2.713178,-5.727694 -2.148438,-0.05648 -4.595958,-0.197107 -5.438933,-0.3125 -1.387902,-0.189987 -1.644466,0.160936 -2.716026,3.714926 -0.650838,2.158603 -1.022052,4.345047 -0.82492,4.858765 0.765161,1.993978 6.241589,2.815895 9.085247,1.363539 z M 23.186039,37.03125 c 0.360306,-0.945313 0.971805,-3.087854 1.358887,-4.761204 0.632452,-2.73408 0.584052,-3.130005 -0.477527,-3.90625 -1.461088,-1.068374 -5.734718,-1.108655 -7.780227,-0.07333 -1.094117,0.553781 -1.843419,1.832164 -2.650514,4.522036 -0.618853,2.0625 -1.001022,4.088396 -0.849265,4.501991 0.166321,0.453291 1.963908,0.839117 4.525514,0.971337 2.337276,0.120641 4.467492,0.274432 4.733812,0.34176 0.266321,0.06733 0.779015,-0.651026 1.13932,-1.596338 z m 15.50843,-8.446714 c 1.000017,-0.51232 1.898775,-1.928427 2.671656,-4.209536 1.623064,-4.790371 1.424404,-5.247016 -2.306749,-5.302348 -1.717032,-0.02546 -4.14901,-0.275234 -5.404395,-0.555045 l -2.28252,-0.508747 -0.99873,3.435512 c -1.467952,5.049574 -1.327343,6.456442 0.720019,7.204202 2.403954,0.878 5.818066,0.849235 7.600719,-0.06404 z m -10.979771,-7.611272 1.272607,-4.269595 -1.437893,-1.164335 c -1.679061,-1.359622 -5.832254,-1.540351 -8.173853,-0.355691 -1.54828,0.783305 -2.913667,4.59908 -3.065273,8.566357 -0.0591,1.546494 -0.0075,1.562143 5.036048,1.52768 l 5.095757,-0.03482 1.272607,-4.269595 z M 35.625,7.4939981 C 36.527574,7.4015481 33.567046,6.2142937 30.998661,5.6387064 26.916378,4.7238477 20.897876,5.8357845 17.184106,8.1909875 15.603226,9.1935525 14.457201,10.252368 14.637384,10.543911 14.817568,10.835455 19.543181,10.275694 25.138746,9.2999988 30.734311,8.3243031 35.453125,7.5116031 35.625,7.4939981 Z"
       id="path3872"
       inkscape:connector-curvature="0" />
    <path
       style="fill:#76879e"
       d="M 21.406671,53.450611 C 11.401133,50.630321 4.1026609,42.659626 2.4980304,32.800398 0.72122994,21.883317 6.6473406,10.136159 16.318485,5.4045094 25.386634,0.96787775 36.712929,2.2908235 44.427681,8.6877487 49.660974,13.027095 53.75,21.860678 53.75,28.826889 c 0,6.42199 -3.693366,14.342892 -8.867424,19.017343 -5.885527,5.317221 -15.963382,7.723955 -23.475905,5.606379 z M 35.768105,41.09375 C 36.526832,40.505125 39.375,32.949978 39.375,31.525978 c 0,-0.119544 -1.617188,-0.178323 -3.59375,-0.130621 -1.976563,0.0477 -4.619164,-0.138162 -5.872447,-0.413032 l -2.278697,-0.499764 -1.002553,3.448661 c -1.381449,4.75202 -1.290844,6.363723 0.403697,7.180969 1.948052,0.93951 7.517226,0.927755 8.736855,-0.01844 z M 24.331047,33.936168 c 1.332599,-4.586276 1.346278,-4.852177 0.289379,-5.625 C 24.01029,27.865026 22.049126,27.5 20.262284,27.5 c -4.137988,0 -5.831235,1.317838 -6.898678,5.369177 -1.373514,5.212984 -1.399557,5.170934 3.355144,5.417354 2.320312,0.120254 4.667587,0.273729 5.216165,0.341056 0.737539,0.09052 1.36185,-1.131828 2.396132,-4.691419 z m 14.684542,-5.278515 c 1.144247,-0.521354 1.83533,-1.614899 2.529408,-4.002442 C 43.190558,18.994679 43.075968,18.75 38.779408,18.75 c -2.046326,0 -4.438139,-0.326936 -5.315141,-0.726526 -0.877003,-0.399588 -1.74571,-0.575365 -1.930461,-0.390613 -0.184752,0.184751 -0.918789,2.395605 -1.631194,4.913006 l -1.295281,4.577095 1.390575,1.126019 c 1.611531,1.304939 6.55854,1.529132 9.017683,0.408672 z M 27.660247,22.13905 c 0.615751,-2.035853 1.270455,-4.187541 1.454897,-4.781531 0.443858,-1.429426 -3.090562,-3.60204 -5.864932,-3.605183 -2.769641,-0.0031 -5.66558,1.578397 -6.024818,3.290282 -0.638562,3.042951 -1.600394,8.034898 -1.600394,8.306105 0,0.157958 1.476562,0.120025 3.28125,-0.0843 1.804687,-0.204322 3.984375,-0.08498 4.84375,0.265197 2.334863,0.951414 2.690181,0.643318 3.910247,-3.390575 z M 25.9375,11.194589 C 32.46875,10.131913 38.044434,9.0417769 38.327909,8.7720656 38.611384,8.502355 37.486384,7.6136163 35.827909,6.7970912 31.580151,4.7057714 23.579916,4.6865784 19.0625,6.75687 c -2.980821,1.3660838 -7.1875,4.799164 -7.1875,5.865734 0,0.778102 1.339839,0.642045 14.0625,-1.428015 z"
       id="path3870"
       inkscape:connector-curvature="0" />
    <path
       style="fill:#4e6a8a"
       d="M 20.640153,52.788327 C 13.533594,50.795024 8.2236925,46.126391 4.8012412,38.862256 3.0048056,35.049331 2.8343313,34.145805 2.8343313,28.4375 c 0,-5.697192 0.172517,-6.616146 1.9504637,-10.389611 3.4864019,-7.399445 9.043132,-12.1320478 16.485995,-14.0409308 8.068833,-2.0694268 17.323677,-0.022961 23.007825,5.0875762 11.861343,10.6643676 11.861343,28.0215636 0,38.6859316 -1.698991,1.527539 -4.692659,3.384314 -6.652595,4.126166 -4.683906,1.772899 -12.383613,2.172571 -16.985867,0.881695 z M 36.094107,40.992701 C 37.044846,40.110139 39.375,33.64566 39.375,31.890614 c 0,-1.445868 -0.179421,-1.485395 -3.030696,-0.66766 -1.539978,0.44166 -2.826265,0.346269 -4.921105,-0.364948 -3.521645,-1.195629 -3.953722,-0.823833 -5.450492,4.690076 -0.954116,3.514847 -0.972888,4.094594 -0.158933,4.908549 1.885411,1.885411 8.457577,2.228118 10.280333,0.53607 z M 22.973022,38.59375 C 23.757647,37.614656 25.625,31.182657 25.625,29.459148 c 0,-2.480128 -7.409119,-3.221939 -10.392412,-1.040501 -1.095807,0.801274 -3.510465,8.328356 -2.958307,9.221768 0.16472,0.266522 1.759454,0.504352 3.543855,0.528513 1.7844,0.02416 3.806864,0.285643 4.494364,0.581072 1.732629,0.744536 1.948825,0.731839 2.660522,-0.15625 z M 39.757129,28.448259 c 1.35481,-0.886585 3.758603,-8.560405 3.043804,-9.716976 -0.195425,-0.316204 -1.538394,-0.415498 -2.984375,-0.220654 -1.586324,0.213754 -3.663516,-0.0048 -5.237248,-0.551023 -1.434504,-0.497905 -2.864197,-0.734693 -3.177093,-0.526194 -0.852007,0.567734 -2.907996,9.12355 -2.46797,10.270239 0.849029,2.212532 7.84428,2.693801 10.822882,0.744608 z M 20.9375,25.373287 c 1.03125,0.02487 2.730334,0.255715 3.775743,0.512989 l 1.900743,0.467771 1.479461,-4.821809 c 1.229907,-4.008474 1.347628,-5.032906 0.697901,-6.073285 -1.081299,-1.731434 -0.304957,-2.102655 6.278928,-3.002385 6.780877,-0.926651 7.480228,-1.298919 5.842372,-3.109918 C 39.170771,7.4206331 35.893189,5.8895329 31.627231,5.0090281 25.221034,3.6867726 17.561849,5.9048111 12.900838,10.432041 c -2.558938,2.485492 -4.4325149,5.570102 -3.6696305,6.04159 0.2621431,0.162014 1.8625395,0.03565 3.5564375,-0.280801 1.693898,-0.316454 3.301703,-0.353482 3.572901,-0.08228 0.271198,0.271198 0.218274,2.171333 -0.117609,4.222521 -0.947281,5.784901 -0.900268,6.018424 1.100813,5.467876 0.945312,-0.26008 2.5625,-0.452526 3.59375,-0.427655 z"
       id="path3868"
       inkscape:connector-curvature="0" />
    <path
       style="fill:#4d5c72"
       d="M 26.25,52.661084 C 24.359375,52.533105 22.545312,52.163257 22.21875,51.839198 21.892188,51.515139 20.986679,51.25 20.20651,51.25 19.426341,51.25 17.724778,50.641555 16.42526,49.8979 15.125742,49.154245 13.295001,48.152233 12.356946,47.671207 8.5533187,45.720741 4.1187063,38.293066 3.1296595,32.216129 2.3207874,27.246229 2.9851633,22.84586 5.3043462,17.8125 9.5798275,8.5333544 17.449779,3.5445973 27.8125,3.5445973 c 8.526381,0 15.334607,3.3099158 20.086996,9.7655787 7.618103,10.348461 6.590543,23.840997 -2.441592,32.059683 C 41.884107,48.621794 37.494696,51.25 35.637379,51.25 c -0.615723,0 -1.925082,0.420143 -2.909687,0.933649 -0.984606,0.513508 -2.071442,0.883357 -2.415192,0.821887 -0.34375,-0.06147 -2.171875,-0.216474 -4.0625,-0.344452 z M 36.139112,41.40625 c 1.303777,-1.116167 4.1847,-9.417231 3.503558,-10.095121 -0.206482,-0.205496 -2.108989,-0.421059 -4.227796,-0.479028 -2.118805,-0.05797 -4.816718,-0.198595 -5.995362,-0.3125 -2.120223,-0.204901 -2.155135,-0.167265 -3.286434,3.542899 -1.445523,4.740681 -1.262495,6.623587 0.741922,7.632554 2.359982,1.187949 7.734864,1.02039 9.264112,-0.288804 z M 23.366657,38.864625 c 0.173487,-0.280706 0.869414,-2.509494 1.546506,-4.952862 0.960266,-3.465237 1.0704,-4.662226 0.500656,-5.441396 -1.467627,-2.0071 -8.657472,-2.012428 -10.661999,-0.0079 -0.987756,0.987757 -2.87682,6.864835 -2.87682,8.950095 0,1.155788 0.448255,1.304015 4.53125,1.498372 2.492187,0.118633 5.006839,0.27158 5.588114,0.339881 0.581276,0.0683 1.198808,-0.105483 1.372294,-0.386189 z m 15.650237,-9.582567 c 1.818198,-0.828426 3.615775,-4.931488 3.724332,-8.500977 l 0.07127,-2.343581 -2.5,0.1659 c -1.375,0.09125 -3.874019,-0.278486 -5.553375,-0.821625 -1.881394,-0.608482 -3.276378,-0.764522 -3.634367,-0.406533 -0.428358,0.428358 -2.906326,8.700024 -2.989047,9.977694 -0.0059,0.09099 0.903351,0.722751 2.020539,1.403914 2.275257,1.387252 6.428374,1.633424 8.860644,0.525208 z M 28.741089,20.341379 c 0.940852,-3.077867 1.960564,-5.650155 2.266025,-5.716196 0.305462,-0.06604 3.086636,-0.473325 6.180386,-0.905074 3.09375,-0.43175 5.988143,-0.970873 6.431985,-1.198051 C 44.810806,11.912286 42.415517,9.1194569 38.968864,7.0995831 28.993733,1.2537672 14.539741,4.6599115 8.96661,14.169741 c -2.1326687,3.639124 -1.5337131,4.262091 3.24795,3.378152 1.992148,-0.368269 3.7643,-0.527366 3.938115,-0.353551 0.173816,0.173816 -0.0051,2.043069 -0.397698,4.153897 -0.39255,2.110829 -0.609037,4.006933 -0.481083,4.213565 0.127955,0.206633 2.825525,0.375696 5.9946,0.375696 l 5.761955,0 1.71064,-5.596121 z"
       id="path3866"
       inkscape:connector-curvature="0" />
    <path
       style="fill:#2f4c6c"
       d="M 26.25,52.661084 C 24.359375,52.533105 22.545312,52.163257 22.21875,51.839198 21.892188,51.515139 21.004703,51.25 20.246563,51.25 16.506167,51.25 9.1888369,45.359544 6.1487374,39.90124 1.4225621,31.415696 2.4862307,20.408653 8.8031488,12.432894 10.895723,9.7908038 16.097652,5.8893184 16.710589,6.5022556 16.915598,6.707265 16.785626,6.875 16.421762,6.875 c -1.384026,0 -7.1826307,5.934679 -8.6737857,8.877331 -1.6825265,3.320306 -1.5551651,5.781757 0.2711806,5.240968 0.5738387,-0.169917 1.7464681,-0.445273 2.6058431,-0.611903 0.859375,-0.16663 2.370084,-0.475165 3.357132,-0.685632 l 1.794632,-0.382669 -0.425853,3.408409 c -0.276355,2.21187 -0.188573,3.555055 0.250053,3.826141 0.433094,0.267666 0.220308,0.794417 -0.592321,1.466294 -0.697525,0.576708 -1.687946,2.679471 -2.200935,4.672805 -1.554192,6.039159 -1.701337,5.836525 4.536042,6.24661 6.394428,0.42041 6.332277,0.463473 7.948532,-5.507456 1.062425,-3.924915 1.062386,-4.149315 -9.37e-4,-5.324257 -0.861988,-0.952503 -1.961425,-1.235495 -4.919463,-1.266257 -3.19796,-0.03326 -3.558594,-0.140677 -2.246882,-0.669257 0.859375,-0.346302 2.546875,-0.460678 3.75,-0.254168 5.285604,0.907244 5.147381,0.973105 6.176946,-2.943209 0.519621,-1.976563 1.203308,-3.59375 1.519305,-3.59375 0.315996,0 0.380228,0.632812 0.142737,1.40625 -0.237491,0.773437 -0.724485,2.646289 -1.082209,4.161892 -0.600331,2.543483 -0.536609,2.847245 0.827657,3.945427 1.38093,1.111595 1.391448,1.165746 0.160053,0.823997 -1.785336,-0.495485 -2.567824,0.611146 -4.018145,5.682653 -1.209873,4.230705 -1.20985,4.274052 0.0028,5.486701 1.644058,1.644059 8.140877,2.174621 10.189753,0.832146 1.899836,-1.24482 4.701803,-9.526798 3.742699,-11.062567 -0.507155,-0.812084 -0.405959,-1.213527 0.438911,-1.741157 1.053886,-0.658171 2.555126,-4.467622 3.449824,-8.754092 0.458205,-2.195242 0.376305,-2.246414 -3.274893,-2.046188 C 37.631032,18.248224 34.375,17.569999 34.375,16.907049 c 0,-0.271498 2.457333,-0.883249 5.460741,-1.359448 6.411561,-1.01657 6.905094,-1.709626 3.792158,-5.325236 C 41.837141,8.1424369 41.770269,7.9545525 43.125,8.8094044 45.749567,10.465539 50.300693,17.012956 51.518455,20.884538 53.11516,25.960877 52.637634,33.534341 50.414703,38.389864 47.841636,44.010183 39.522508,51.25 35.637379,51.25 c -0.615723,0 -1.925082,0.420143 -2.909687,0.933649 -0.984606,0.513508 -2.071442,0.883357 -2.415192,0.821887 -0.34375,-0.06147 -2.171875,-0.216474 -4.0625,-0.344452 z M 31.875,30.625 c -0.673678,-0.435364 -0.05809,-0.605859 2.1875,-0.605859 2.245593,0 2.861178,0.170495 2.1875,0.605859 -0.515625,0.333222 -1.5,0.605859 -2.1875,0.605859 -0.6875,0 -1.671875,-0.272636 -2.1875,-0.605859 z M 17.5,6.004368 c 0,-0.1350976 0.436482,-0.4131261 0.969961,-0.617841 0.556203,-0.2134352 0.807076,-0.1086556 0.588115,0.245632 C 18.691039,6.2260361 17.5,6.5105637 17.5,6.004368 Z M 36.566924,5.632159 C 36.347963,5.2778714 36.598836,5.1730918 37.155039,5.386527 38.237799,5.8020213 38.435906,6.25 37.536886,6.25 37.213422,6.25 36.77694,5.9719716 36.566924,5.632159 Z M 21.132812,4.5730537 c 0.451172,-0.1805441 0.990235,-0.1583401 1.197917,0.049342 0.207682,0.2076823 -0.161458,0.3554003 -0.820312,0.3282621 -0.72809,-0.02999 -0.876188,-0.1780875 -0.377605,-0.377604 z m 12.5,0 c 0.451172,-0.1805441 0.990235,-0.1583401 1.197917,0.049342 0.207682,0.2076823 -0.161458,0.3554003 -0.820312,0.3282621 -0.72809,-0.02999 -0.876188,-0.1780875 -0.377605,-0.377604 z"
       id="path3864"
       inkscape:connector-curvature="0" />
    <path
       style="fill:#0a315f"
       d="M 20.003368,50.242455 C 16.412044,48.941283 12.624384,46.331021 10.014739,43.358798 5.9465297,38.725364 3.0406499,30.074091 4.1141436,25.791774 4.6459271,23.670415 4.9594046,23.423453 8.4375,22.385778 10.5,21.770439 12.816759,21.26316 13.585854,21.25849 c 1.278697,-0.0078 1.382392,0.245549 1.211806,2.96026 -0.102602,1.632812 -0.489629,3.53125 -0.86006,4.21875 -1.116381,2.071939 -2.862652,8.954832 -2.507055,9.881504 0.237296,0.618383 2.070397,0.969346 6.417607,1.228704 3.346987,0.199684 6.255061,0.625145 6.462389,0.94547 0.207327,0.320323 1.337026,1.074537 2.51044,1.67603 2.798209,1.434363 8.381598,1.065075 9.997028,-0.661208 1.362842,-1.456361 3.975699,-9.71612 3.4812,-11.004762 -0.195852,-0.510384 0.04236,-1.258655 0.529349,-1.662824 0.486994,-0.404169 1.540414,-3.275354 2.340933,-6.38041 l 1.45549,-5.645558 2.188195,0.186527 c 2.86132,0.243906 4.312423,2.677784 4.664545,7.823663 0.717348,10.483239 -4.407574,19.819125 -13.352721,24.324172 -2.902457,1.461766 -4.361664,1.760818 -9.375,1.921326 -4.31529,0.13816 -6.704996,-0.08797 -8.746632,-0.827679 z M 26.281524,28.808903 C 25.681411,27.687582 25.965306,26.875 26.957177,26.875 c 0.274364,0 0.784838,0.534386 1.134387,1.187524 0.479983,0.896857 0.411209,1.27361 -0.280976,1.539226 -0.520766,0.199837 -1.181017,-0.142516 -1.529064,-0.792847 z"
       id="path3862"
       inkscape:connector-curvature="0" />
  </g>
</svg>
