<?xml version="1.0" encoding="UTF-8" standalone="no"?>
<!-- Created with Inkscape (http://www.inkscape.org/) -->

<svg
   xmlns:dc="http://purl.org/dc/elements/1.1/"
   xmlns:cc="http://creativecommons.org/ns#"
   xmlns:rdf="http://www.w3.org/1999/02/22-rdf-syntax-ns#"
   xmlns:svg="http://www.w3.org/2000/svg"
   xmlns="http://www.w3.org/2000/svg"
   xmlns:xlink="http://www.w3.org/1999/xlink"
   xmlns:sodipodi="http://sodipodi.sourceforge.net/DTD/sodipodi-0.dtd"
   xmlns:inkscape="http://www.inkscape.org/namespaces/inkscape"
   id="svg3480"
   version="1.1"
   inkscape:version="0.91 r13725"
   width="140.625"
   height="56.25"
   viewBox="0 0 140.625 56.25"
   sodipodi:docname="Java.svg">
  <metadata
     id="metadata3486">
    <rdf:RDF>
      <cc:Work
         rdf:about="">
        <dc:format>image/svg+xml</dc:format>
        <dc:type
           rdf:resource="http://purl.org/dc/dcmitype/StillImage" />
        <dc:title></dc:title>
      </cc:Work>
    </rdf:RDF>
  </metadata>
  <defs
     id="defs3484" />
  <sodipodi:namedview
     pagecolor="#ffffff"
     bordercolor="#666666"
     borderopacity="1"
     objecttolerance="10"
     gridtolerance="10"
     guidetolerance="10"
     inkscape:pageopacity="0"
     inkscape:pageshadow="2"
     inkscape:window-width="640"
     inkscape:window-height="480"
     id="namedview3482"
     showgrid="false"
     inkscape:zoom="1.8631111"
     inkscape:cx="70.3125"
     inkscape:cy="28.125"
     inkscape:window-x="0"
     inkscape:window-y="0"
     inkscape:window-maximized="0"
     inkscape:current-layer="svg3480" />
  <image
     width="140.625"
     height="56.25"
     preserveAspectRatio="none"
     style="image-rendering:optimizeQuality"
     xlink:href="file:///media/havoc/USB%20DISK/pics/Language%20icons/Java.png"
     id="image3488"
     x="0"
     y="0"
     sodipodi:absref="/media/havoc/USB DISK/pics/Language icons/Java.png" />
  <g
     id="g3678">
    <path
       style="fill:#fbfbfb"
       d="M 0,28.125 0,0 l 70.3125,0 70.3125,0 0,28.125 0,28.125 -70.3125,0 L 0,56.25 0,28.125 Z"
       id="path3694"
       inkscape:connector-curvature="0" />
    <path
       style="fill:#e9ceab"
       d="m 21.25,46.907275 c -1.203125,-0.287337 -3.03125,-0.826012 -4.0625,-1.197056 -1.03125,-0.371044 -2.648437,-0.828618 -3.59375,-1.01683 -3.22041,-0.641185 -1.783177,-4.001423 1.820249,-4.255728 1.32961,-0.09383 1.731877,0.129692 1.607197,0.893065 -0.226555,1.387117 1.583932,1.77626 8.291304,1.78212 5.424806,0.0048 11.318827,-0.67488 13.59375,-1.567448 C 39.672197,41.244877 40,41.417278 40,42.120632 c 0,0.552402 0.28125,1.004368 0.625,1.004368 1.411939,0 0.485089,1.916219 -1.40625,2.907355 -2.299261,1.204903 -14.167404,1.782777 -17.96875,0.87492 z m 0.826638,-5.429731 c -2.050131,-0.455845 -3.086922,-1.967076 -2.259021,-3.292756 0.53976,-0.864294 0.428229,-1.24589 -0.541069,-1.851227 -0.735065,-0.459055 -1.144981,-1.297663 -1.030014,-2.107204 0.141317,-0.995086 -0.214413,-1.442053 -1.368252,-1.719177 -2.530199,-0.607693 -2.328339,-2.382917 0.400614,-3.523147 2.281505,-0.953273 2.409543,-0.940495 3.249332,0.324295 0.896615,1.350375 3.766421,1.739916 6.809528,0.924311 1.142488,-0.306207 1.330144,-0.67856 1.019395,-2.022716 -0.209474,-0.906082 -0.74995,-2.240845 -1.201059,-2.966139 -0.451109,-0.725293 -0.916613,-2.412793 -1.034451,-3.75 L 25.907387,19.0625 25.067884,20.721966 c -0.747613,1.477821 -0.682488,1.938838 0.594964,4.211758 0.788958,1.403761 1.232454,2.754308 0.985546,3.001215 -0.755099,0.7551 -3.736806,-1.464347 -4.912576,-3.656697 -2.065347,-3.851063 -1.70678,-4.589741 5.30513,-10.929016 1.88155,-1.701058 2.932944,-3.200734 3.067229,-4.3750004 C 30.231764,7.8935019 30.682941,7.1875 31.25,7.1875 c 1.393602,0 1.572771,4.238868 0.263622,6.236883 -1.291273,1.97073 -0.952178,2.431467 1.190072,1.616985 2.750532,-1.04575 2.678549,0.519373 -0.142484,3.098052 l -2.598542,2.375301 1.39043,2.861922 1.390429,2.861923 -1.390474,1.880717 L 29.962578,30 l 2.206211,0 c 1.213416,0 2.206211,0.271354 2.206211,0.60301 0,1.194152 -2.535352,1.91313 -8.152278,2.311831 -7.393953,0.524837 -5.917326,1.682539 1.744344,1.367596 3.852403,-0.158358 5.42474,-0.0037 5.615785,0.552344 0.390697,1.137154 -2.046179,2.000591 -7.332851,2.598185 l -4.6875,0.529865 5.401882,0.08109 c 4.046033,0.06073 5.487777,0.304923 5.744099,0.972888 0.18822,0.490493 -0.03055,1.201175 -0.486158,1.579295 -0.906146,0.752035 -7.968297,1.365585 -10.145685,0.881445 z m 31.259084,-4.9549 c -0.206275,-0.537546 -0.05682,-1.67578 0.332115,-2.529408 0.38894,-0.853629 0.707163,-4.328316 0.707163,-7.721527 0,-7.186387 0.257859,-8.146709 2.1875,-8.146709 1.791323,0 2.1875,1.027997 2.1875,5.676117 0,2.034385 0.131083,3.698883 0.291296,3.698883 0.160212,0 1.329064,-0.492188 2.597447,-1.09375 L 63.944894,25.3125 61.816197,25 C 60.223889,24.766244 59.6875,24.378434 59.6875,23.460947 c 0,-1.786793 3.990619,-2.650151 6.488881,-1.403851 1.188456,0.59288 2.060963,0.705562 2.4501,0.316425 1.264556,-1.264555 3.540813,-0.254648 4.159019,1.845229 0.755138,2.565029 1.255037,2.565029 1.993331,0 0.529338,-1.839077 0.818763,-2.035503 3.059163,-2.076203 1.360975,-0.02473 3.458881,-0.232336 4.662006,-0.461361 1.299631,-0.247395 2.903475,-0.101957 3.951494,0.358323 1.689206,0.741887 1.769719,0.973426 1.899144,5.461362 0.07433,2.577646 -0.121088,5.038191 -0.434269,5.467879 -0.85595,1.174364 -7.587481,1.020853 -8.809225,-0.200893 -2.102331,-2.10233 -0.837806,-5.142349 2.797744,-6.72602 2.083143,-0.907431 2.100056,-0.941629 0.489981,-0.990853 -0.9172,-0.02804 -2.086688,-0.21179 -2.598863,-0.408331 -0.692768,-0.26584 -1.180556,0.494374 -1.904862,2.96875 -1.352869,4.62164 -2.619731,6.255474 -4.666325,6.018029 C 71.846531,33.469526 71.361256,32.863924 70.3165,30 l -1.254,-3.4375 -0.199219,2.800238 c -0.292006,4.104398 -0.873006,4.522113 -5.962768,4.286978 -3.447122,-0.159248 -4.421538,-0.0059 -4.644233,0.730626 -0.351277,1.161872 -2.672612,3.087157 -3.744646,3.10576 -0.440475,0.0076 -0.969636,-0.425912 -1.175912,-0.963458 z M 64.0625,30 c 0.21245,-0.34375 0.08843,-0.625 -0.275612,-0.625 -0.364038,0 -0.661888,0.28125 -0.661888,0.625 0,0.34375 0.124025,0.625 0.275612,0.625 0.151588,0 0.449438,-0.28125 0.661888,-0.625 z m 19.734375,-0.171875 c -0.07731,-0.747314 -0.934556,-0.602584 -1.203125,0.203125 -0.1375,0.4125 0.0875,0.6375 0.5,0.5 0.4125,-0.1375 0.728906,-0.453906 0.703125,-0.703125 z M 36.25,35.701528 c 0,-0.30166 0.43723,-0.911341 0.971623,-1.354847 1.940351,-1.610349 2.333436,-3.111792 1.15546,-4.413441 -1.410502,-1.558587 -0.395185,-2.888296 1.45097,-1.900263 2.040299,1.091934 2.838165,2.469673 2.412466,4.165794 C 41.685529,34.410027 36.25,37.588272 36.25,35.701528 Z"
       id="path3692"
       inkscape:connector-curvature="0" />
    <path
       style="fill:#b7c6cb"
       d="m 21.25,46.907275 c -1.203125,-0.287337 -3.03125,-0.826012 -4.0625,-1.197056 -1.03125,-0.371044 -2.648437,-0.828618 -3.59375,-1.01683 -3.22041,-0.641185 -1.783177,-4.001423 1.820249,-4.255728 1.32961,-0.09383 1.731877,0.129692 1.607197,0.893065 -0.226555,1.387117 1.583932,1.77626 8.291304,1.78212 5.424806,0.0048 11.318827,-0.67488 13.59375,-1.567448 C 39.672197,41.244877 40,41.417278 40,42.120632 c 0,0.552402 0.28125,1.004368 0.625,1.004368 1.411939,0 0.485089,1.916219 -1.40625,2.907355 -2.299261,1.204903 -14.167404,1.782777 -17.96875,0.87492 z m 0.826638,-5.429731 c -2.050131,-0.455845 -3.086922,-1.967076 -2.259021,-3.292756 0.53976,-0.864294 0.428229,-1.24589 -0.541069,-1.851227 -0.735065,-0.459055 -1.144981,-1.297663 -1.030014,-2.107204 0.141317,-0.995086 -0.214413,-1.442053 -1.368252,-1.719177 -2.518652,-0.60492 -2.329826,-2.382296 0.373071,-3.511638 2.251733,-0.940834 2.388879,-0.926078 3.360139,0.36155 0.961564,1.274774 1.333854,1.320293 7.388049,0.903317 4.51139,-0.310717 6.375459,-0.23667 6.375459,0.253255 0,1.284428 -2.406901,1.993359 -8.152278,2.401177 -7.393953,0.524837 -5.917326,1.682539 1.744344,1.367596 3.852403,-0.158358 5.42474,-0.0037 5.615785,0.552344 0.390697,1.137154 -2.046179,2.000591 -7.332851,2.598185 l -4.6875,0.529865 5.401882,0.08109 c 4.046033,0.06073 5.487777,0.304923 5.744099,0.972888 0.18822,0.490493 -0.03055,1.201175 -0.486158,1.579295 -0.906146,0.752035 -7.968297,1.365585 -10.145685,0.881445 z M 53.75,35.75 c 0,-0.61875 0.271421,-1.396421 0.603157,-1.728157 0.331737,-0.331737 0.683299,-3.833299 0.78125,-7.78125 0.166282,-6.702062 0.260989,-7.178093 1.428093,-7.178093 1.169177,0 1.26139,0.475386 1.426158,7.352251 0.170356,7.110096 0.124976,7.403433 -1.37784,8.90625 C 54.776314,37.155504 53.75,37.309407 53.75,35.75 Z m -17.5,-0.04848 c 0,-0.30166 0.43723,-0.911341 0.971623,-1.354847 1.940351,-1.610349 2.333436,-3.111792 1.15546,-4.413441 -1.410502,-1.558587 -0.395185,-2.888296 1.45097,-1.900263 2.040299,1.091934 2.838165,2.469673 2.412466,4.165794 C 41.685529,34.410027 36.25,37.588272 36.25,35.701528 Z m 23.083189,-3.90465 C 58.092386,29.478413 60.892387,26.25 64.143994,26.25 c 1.812368,0 0.447594,-1.562465 -1.535875,-1.758349 -2.52654,-0.249517 -2.606487,-1.755417 -0.122163,-2.301066 3.956007,-0.868885 5.639044,0.992467 5.639044,6.236485 0,4.395016 -0.284988,4.69793 -4.419881,4.69793 -3.093266,0 -3.771389,-0.206003 -4.37193,-1.328125 z m 5.456917,-1.526386 c 0.206732,-0.538731 0.112475,-1.24291 -0.209456,-1.564841 -0.789281,-0.789282 -3.034528,0.881581 -2.451749,1.824537 0.64203,1.038829 2.22208,0.884639 2.661205,-0.259696 z M 72.0469,32.34375 c -0.828594,-1.067936 -2.6719,-6.969871 -2.6719,-8.554936 0,-2.358603 1.881438,-1.375783 3.21595,1.679936 1.429231,3.272615 1.170844,3.403313 3.089044,-1.5625 C 75.978756,23.132812 76.68705,22.5 77.253981,22.5 c 0.861013,0 0.961519,0.433111 0.610275,2.629699 -0.659662,4.12531 -2.59705,7.995301 -4.002581,7.995301 -0.664744,0 -1.481388,-0.351563 -1.814775,-0.78125 z m 7.238381,-0.728568 C 78.334488,29.528413 79.602506,27.581034 82.527719,26.635569 85.134388,25.793061 85.122225,24.800864 82.5,24.375 c -2.476544,-0.402205 -2.666994,-1.363768 -0.426206,-2.151813 1.324937,-0.465955 2.176575,-0.386326 3.4375,0.321415 1.584456,0.88933 1.676206,1.196103 1.676206,5.604364 l 0,4.663534 -3.59295,0.187416 C 80.278,33.172914 79.9465,33.06639 79.285281,31.615182 Z m 5.1117,-1.329171 c 0.991469,-1.194644 0.01994,-2.37769 -1.479968,-1.802132 -1.061432,0.407308 -1.378025,1.596774 -0.625344,2.349454 0.6506,0.650601 1.237825,0.49794 2.105312,-0.547322 z M 28.267194,25.78125 c -2.158603,-4.567914 -1.685308,-6.826174 1.809415,-8.633366 2.060719,-1.065639 3.375638,-0.643637 1.743248,0.559467 -2.111848,1.556473 -2.404322,3.098513 -1.119324,5.901514 0.933776,2.036873 1.060244,2.936739 0.547406,3.894987 -0.978201,1.827784 -1.425,1.569575 -2.980745,-1.722602 z m -5.774044,-1.5625 c -0.681163,-1.117188 -1.239529,-2.565834 -1.240814,-3.219215 -0.0013,-0.65338 2.036726,-3.18463 4.528914,-5.625 2.492187,-2.440369 4.866273,-4.999535 5.275746,-5.687035 0.723442,-1.2146525 0.745534,-1.2093562 0.78125,0.1872875 0.05446,2.1295445 -1.498359,4.7343785 -4.228776,7.0937315 -3.353226,2.897523 -4.118991,4.512795 -3.280168,6.919045 0.82037,2.353314 0.820511,2.362436 0.03651,2.362436 -0.348803,0 -1.191502,-0.914063 -1.872664,-2.03125 z"
       id="path3690"
       inkscape:connector-curvature="0" />
    <path
       style="fill:#dfb78b"
       d="M 17.1875,44.578726 C 13.626613,44.134358 12.5,43.723065 12.5,42.867461 c 0,-1.427365 2.061145,-1.813402 2.977839,-0.557727 0.697525,0.955459 1.965302,1.159636 8.297739,1.336359 4.110932,0.114726 7.474422,0.466289 7.474422,0.78125 0,0.543083 -10.056176,0.651338 -14.0625,0.151383 z m 4.801291,-4.002649 c -3.782892,-1.156227 -1.958183,-2.018614 3.969505,-1.876052 3.071402,0.07387 5.710706,0.260644 5.86512,0.415057 1.400784,1.400785 -6.29242,2.543659 -9.834625,1.460995 z m -0.614257,-4.317603 c -2.433165,-0.576248 -2.894831,-0.940489 -2.336688,-1.843582 0.290958,-0.470781 0.803905,-0.459074 1.735713,0.03961 0.839192,0.449122 3.235055,0.588579 6.554215,0.381504 3.758875,-0.234508 5.164739,-0.126049 4.994291,0.385295 -0.452521,1.357561 -6.982496,1.976211 -10.947531,1.03717 z M 53.75,35.75 c 0,-0.61875 0.271421,-1.396421 0.603157,-1.728157 0.331737,-0.331737 0.683299,-3.833299 0.78125,-7.78125 0.166282,-6.702062 0.260989,-7.178093 1.428093,-7.178093 1.169177,0 1.26139,0.475386 1.426158,7.352251 0.170356,7.110096 0.124976,7.403433 -1.37784,8.90625 C 54.776314,37.155504 53.75,37.309407 53.75,35.75 Z M 39.099733,33.28125 c 0.265907,-0.601563 0.447945,-1.867188 0.404528,-2.8125 -0.09332,-2.031854 0.794491,-2.246173 1.768169,-0.426839 0.537838,1.004959 0.470111,1.629656 -0.304918,2.8125 -1.154971,1.762709 -2.604719,2.094016 -1.86778,0.426839 z M 59.333189,31.796875 C 58.092386,29.478413 60.892387,26.25 64.143994,26.25 c 1.812368,0 0.447594,-1.562465 -1.535875,-1.758349 -2.52654,-0.249517 -2.606487,-1.755417 -0.122163,-2.301066 3.956007,-0.868885 5.639044,0.992467 5.639044,6.236485 0,4.395016 -0.284988,4.69793 -4.419881,4.69793 -3.093266,0 -3.771389,-0.206003 -4.37193,-1.328125 z m 5.456917,-1.526386 c 0.206732,-0.538731 0.112475,-1.24291 -0.209456,-1.564841 -0.789281,-0.789282 -3.034528,0.881581 -2.451749,1.824537 0.64203,1.038829 2.22208,0.884639 2.661205,-0.259696 z M 72.0469,32.34375 c -0.828594,-1.067936 -2.6719,-6.969871 -2.6719,-8.554936 0,-2.358603 1.881438,-1.375783 3.21595,1.679936 1.429231,3.272615 1.170844,3.403313 3.089044,-1.5625 C 75.978756,23.132812 76.68705,22.5 77.253981,22.5 c 0.861013,0 0.961519,0.433111 0.610275,2.629699 -0.659662,4.12531 -2.59705,7.995301 -4.002581,7.995301 -0.664744,0 -1.481388,-0.351563 -1.814775,-0.78125 z m 7.238381,-0.728568 C 78.334488,29.528413 79.602506,27.581034 82.527719,26.635569 85.134388,25.793061 85.122225,24.800864 82.5,24.375 c -2.476544,-0.402205 -2.666994,-1.363768 -0.426206,-2.151813 1.324937,-0.465955 2.176575,-0.386326 3.4375,0.321415 1.584456,0.88933 1.676206,1.196103 1.676206,5.604364 l 0,4.663534 -3.59295,0.187416 C 80.278,33.172914 79.9465,33.06639 79.285281,31.615182 Z m 5.1117,-1.329171 c 0.991469,-1.194644 0.01994,-2.37769 -1.479968,-1.802132 -1.061432,0.407308 -1.378025,1.596774 -0.625344,2.349454 0.6506,0.650601 1.237825,0.49794 2.105312,-0.547322 z M 16.047089,31.463756 C 15.502042,30.918709 16.81392,29.375 17.82216,29.375 c 0.436757,0 0.951159,0.409278 1.143114,0.909506 0.249842,0.651076 1.645163,0.970969 4.910618,1.125815 4.277026,0.202813 4.18794,0.224055 -1.427975,0.340493 -3.294271,0.0683 -6.174643,-0.06087 -6.400828,-0.287058 z M 28.267194,25.78125 c -2.158603,-4.567914 -1.685308,-6.826174 1.809415,-8.633366 2.060719,-1.065639 3.375638,-0.643637 1.743248,0.559467 -2.111848,1.556473 -2.404322,3.098513 -1.119324,5.901514 0.933776,2.036873 1.060244,2.936739 0.547406,3.894987 -0.978201,1.827784 -1.425,1.569575 -2.980745,-1.722602 z m -5.774044,-1.5625 c -0.681163,-1.117188 -1.239529,-2.565834 -1.240814,-3.219215 -0.0013,-0.65338 2.036726,-3.18463 4.528914,-5.625 2.492187,-2.440369 4.866273,-4.999535 5.275746,-5.687035 0.723442,-1.2146525 0.745534,-1.2093562 0.78125,0.1872875 0.05446,2.1295445 -1.498359,4.7343785 -4.228776,7.0937315 -3.353226,2.897523 -4.118991,4.512795 -3.280168,6.919045 0.82037,2.353314 0.820511,2.362436 0.03651,2.362436 -0.348803,0 -1.191502,-0.914063 -1.872664,-2.03125 z"
       id="path3688"
       inkscape:connector-curvature="0" />
    <path
       style="fill:#9aabb4"
       d="M 17.1875,44.578726 C 13.626613,44.134358 12.5,43.723065 12.5,42.867461 c 0,-1.427365 2.061145,-1.813402 2.977839,-0.557727 0.697525,0.955459 1.965302,1.159636 8.297739,1.336359 4.110932,0.114726 7.474422,0.466289 7.474422,0.78125 0,0.543083 -10.056176,0.651338 -14.0625,0.151383 z m 4.801291,-4.002649 c -3.782892,-1.156227 -1.958183,-2.018614 3.969505,-1.876052 3.071402,0.07387 5.710706,0.260644 5.86512,0.415057 1.400784,1.400785 -6.29242,2.543659 -9.834625,1.460995 z m -0.614257,-4.317603 c -2.433165,-0.576248 -2.894831,-0.940489 -2.336688,-1.843582 0.290958,-0.470781 0.803905,-0.459074 1.735713,0.03961 0.839192,0.449122 3.235055,0.588579 6.554215,0.381504 3.758875,-0.234508 5.164739,-0.126049 4.994291,0.385295 -0.452521,1.357561 -6.982496,1.976211 -10.947531,1.03717 z M 54.718263,34.84375 c 0.268978,-0.773438 0.653343,-4.572896 0.854144,-8.443241 0.490548,-9.455075 1.565986,-9.401027 1.791907,0.09005 0.148983,6.258857 0.01076,7.611548 -0.878117,8.59375 -1.453484,1.606082 -2.366918,1.48179 -1.767934,-0.240564 z m -15.61853,-1.5625 c 0.265907,-0.601563 0.447945,-1.867188 0.404528,-2.8125 -0.09332,-2.031854 0.794491,-2.246173 1.768169,-0.426839 0.537838,1.004959 0.470111,1.629656 -0.304918,2.8125 -1.154971,1.762709 -2.604719,2.094016 -1.86778,0.426839 z M 60.393087,32.178801 C 58.444444,30.230158 59.811672,27.756416 63.213344,27.076082 64.210312,26.876688 65.185,26.456304 65.379312,26.141896 65.959919,25.202457 64.332375,23.75 62.699087,23.75 c -0.856086,0 -1.353732,-0.273651 -1.136587,-0.625 0.600156,-0.971073 3.86225,-0.735966 4.955356,0.357143 0.689156,0.689153 0.982144,2.180736 0.982144,5 l 0,4.017857 -2.136381,0 c -1.175013,0 -2.545,0.1568 -3.044415,0.348444 -0.499417,0.191644 -1.36617,-0.109695 -1.926117,-0.669643 z m 4.613825,-1.566718 C 65.833375,29.067822 65.335475,28.125 63.6935,28.125 c -1.368703,0 -2.145375,1.371688 -1.592484,2.8125 0.513209,1.337406 2.11179,1.158389 2.905896,-0.325417 z m 15.461838,1.836926 c -1.265944,-0.73627 -1.455375,-3.260077 -0.3125,-4.163561 0.429687,-0.339684 1.625,-0.889746 2.65625,-1.222361 2.685894,-0.866296 2.577231,-2.932968 -0.168113,-3.197321 C 80.046075,23.615572 80.644906,22.5 83.377519,22.5 86.385656,22.5 87.5,24.081327 87.5,28.350078 c 0,2.304422 -0.276131,3.65046 -0.78125,3.808342 -2.2761,0.711421 -5.285819,0.851356 -6.25,0.290589 z M 84.25,31.125 c 0.885206,-0.885206 0.989956,-2.777926 0.1814,-3.277642 -1.649625,-1.019526 -3.749494,1.652554 -2.490656,3.169359 0.874487,1.053689 1.341931,1.075608 2.309256,0.108283 z m -12.039987,0.786424 c -1.017182,-1.645833 -2.787132,-8.459308 -2.319075,-8.927361 0.712075,-0.712075 1.646193,0.535417 2.586762,3.454553 0.932269,2.89337 1.970937,2.707491 2.874931,-0.514494 0.957888,-3.414049 2.464869,-3.785591 1.93585,-0.477276 C 76.644775,29.472382 75.138087,32.5 73.7785,32.5 c -0.6626,0 -1.368419,-0.264859 -1.568488,-0.588576 z M 16.047089,31.463756 C 15.502042,30.918709 16.81392,29.375 17.82216,29.375 c 0.436757,0 0.951159,0.409278 1.143114,0.909506 0.249842,0.651076 1.645163,0.970969 4.910618,1.125815 4.277026,0.202813 4.18794,0.224055 -1.427975,0.340493 -3.294271,0.0683 -6.174643,-0.06087 -6.400828,-0.287058 z M 28.19691,24.697454 c -1.231488,-2.465815 -1.30112,-3.004707 -0.579534,-4.485098 1.19792,-2.457634 2.465633,-2.65865 1.997242,-0.316695 -0.246477,1.232381 7.5e-4,2.505855 0.724182,3.730556 C 31.385101,25.397466 31.271991,27.5 30.1304,27.5 c -0.293607,0 -1.163678,-1.261146 -1.93349,-2.802546 z m -5.54066,-1.375116 c -1.439358,-2.515142 -0.894294,-3.742389 3.296075,-7.421328 2.242529,-1.968831 4.250002,-3.407016 4.461051,-3.195967 0.211049,0.211049 -1.185757,1.953207 -3.104012,3.871463 -2.786891,2.78689 -3.526332,3.95225 -3.679801,5.799365 -0.181799,2.188095 -0.233813,2.238675 -0.973313,0.946467 z"
       id="path3686"
       inkscape:connector-curvature="0" />
    <path
       style="fill:#d59659"
       d="m 13.125,42.760417 c 0,-1.103705 1.345474,-0.911494 1.731771,0.247395 C 14.992839,43.416016 14.658854,43.75 14.114583,43.75 13.570313,43.75 13.125,43.304687 13.125,42.760417 Z m 8.400706,-3.123939 c -1.110174,-0.904571 -1.115977,-0.957649 -0.06834,-0.625 0.629677,0.199937 3.160927,0.367829 5.625,0.373093 3.123313,0.0067 4.196209,0.193056 3.542633,0.615429 -1.543928,0.997762 -7.732007,0.750546 -9.099294,-0.363522 z m 2.693044,-3.827561 c 0.773437,-0.148971 2.039062,-0.148971 2.8125,0 0.773437,0.14897 0.140625,0.270855 -1.40625,0.270855 -1.546875,0 -2.179688,-0.121885 -1.40625,-0.270855 z M 54.718263,34.84375 c 0.268978,-0.773438 0.653343,-4.572896 0.854144,-8.443241 0.490548,-9.455075 1.565986,-9.401027 1.791907,0.09005 0.148983,6.258857 0.01076,7.611548 -0.878117,8.59375 -1.453484,1.606082 -2.366918,1.48179 -1.767934,-0.240564 z M 40.222624,31.618339 c 0.04943,-0.824115 0.300813,-1.368155 0.558626,-1.208979 0.647671,0.399879 0.588973,1.942567 -0.08988,2.362119 -0.307244,0.189887 -0.518182,-0.329026 -0.46875,-1.15314 z m 20.170463,0.560462 C 58.444444,30.230158 59.811672,27.756416 63.213344,27.076082 64.210312,26.876688 65.185,26.456304 65.379312,26.141896 65.959919,25.202457 64.332375,23.75 62.699087,23.75 c -0.856086,0 -1.353732,-0.273651 -1.136587,-0.625 0.600156,-0.971073 3.86225,-0.735966 4.955356,0.357143 0.689156,0.689153 0.982144,2.180736 0.982144,5 l 0,4.017857 -2.136381,0 c -1.175013,0 -2.545,0.1568 -3.044415,0.348444 -0.499417,0.191644 -1.36617,-0.109695 -1.926117,-0.669643 z m 4.613825,-1.566718 C 65.833375,29.067822 65.335475,28.125 63.6935,28.125 c -1.368703,0 -2.145375,1.371688 -1.592484,2.8125 0.513209,1.337406 2.11179,1.158389 2.905896,-0.325417 z m 15.461838,1.836926 c -1.265944,-0.73627 -1.455375,-3.260077 -0.3125,-4.163561 0.429687,-0.339684 1.625,-0.889746 2.65625,-1.222361 2.685894,-0.866296 2.577231,-2.932968 -0.168113,-3.197321 C 80.046075,23.615572 80.644906,22.5 83.377519,22.5 86.385656,22.5 87.5,24.081327 87.5,28.350078 c 0,2.304422 -0.276131,3.65046 -0.78125,3.808342 -2.2761,0.711421 -5.285819,0.851356 -6.25,0.290589 z M 84.25,31.125 c 0.885206,-0.885206 0.989956,-2.777926 0.1814,-3.277642 -1.649625,-1.019526 -3.749494,1.652554 -2.490656,3.169359 0.874487,1.053689 1.341931,1.075608 2.309256,0.108283 z m -12.039987,0.786424 c -1.017182,-1.645833 -2.787132,-8.459308 -2.319075,-8.927361 0.712075,-0.712075 1.646193,0.535417 2.586762,3.454553 0.932269,2.89337 1.970937,2.707491 2.874931,-0.514494 0.957888,-3.414049 2.464869,-3.785591 1.93585,-0.477276 C 76.644775,29.472382 75.138087,32.5 73.7785,32.5 c -0.6626,0 -1.368419,-0.264859 -1.568488,-0.588576 z M 16.5625,30.625 C 16.774949,30.28125 17.213422,30 17.536886,30 c 0.323463,0 0.588114,0.28125 0.588114,0.625 0,0.34375 -0.438474,0.625 -0.974386,0.625 -0.535912,0 -0.800563,-0.28125 -0.588114,-0.625 z m 11.63441,-5.927546 c -1.231488,-2.465815 -1.30112,-3.004707 -0.579534,-4.485098 1.19792,-2.457634 2.465633,-2.65865 1.997241,-0.316695 -0.246476,1.232381 7.5e-4,2.505855 0.724183,3.730556 C 31.385101,25.397466 31.271991,27.5 30.1304,27.5 c -0.293607,0 -1.163678,-1.261146 -1.93349,-2.802546 z m -5.54066,-1.375116 c -1.439358,-2.515142 -0.894294,-3.742389 3.296075,-7.421328 2.242529,-1.968831 4.250002,-3.407016 4.461051,-3.195967 0.211049,0.211049 -1.185757,1.953207 -3.104012,3.871463 -2.786891,2.78689 -3.526332,3.95225 -3.679801,5.799365 -0.181799,2.188095 -0.233813,2.238675 -0.973313,0.946467 z"
       id="path3684"
       inkscape:connector-curvature="0" />
    <path
       style="fill:#7692a2"
       d="m 13.125,42.760417 c 0,-1.103705 1.345474,-0.911494 1.731771,0.247395 C 14.992839,43.416016 14.658854,43.75 14.114583,43.75 13.570313,43.75 13.125,43.304687 13.125,42.760417 Z m 8.400706,-3.123939 c -1.110174,-0.904571 -1.115977,-0.957649 -0.06834,-0.625 0.629677,0.199937 3.160927,0.367829 5.625,0.373093 3.123313,0.0067 4.196209,0.193056 3.542633,0.615429 -1.543928,0.997762 -7.732007,0.750546 -9.099294,-0.363522 z m 2.693044,-3.827561 c 0.773437,-0.148971 2.039062,-0.148971 2.8125,0 0.773437,0.14897 0.140625,0.270855 -1.40625,0.270855 -1.546875,0 -2.179688,-0.121885 -1.40625,-0.270855 z M 55.843938,33.75 c 0.213947,-0.859375 0.392834,-4.351563 0.397528,-7.760417 0.0047,-3.408854 0.154872,-6.051579 0.33373,-5.872721 0.731495,0.731496 0.419994,13.762378 -0.346028,14.475192 -0.606344,0.564228 -0.689875,0.38164 -0.38523,-0.842054 z M 40.222624,31.618339 c 0.04943,-0.824115 0.300813,-1.368155 0.558626,-1.208979 0.647671,0.399879 0.588973,1.942567 -0.08988,2.362119 -0.307244,0.189887 -0.518182,-0.329026 -0.46875,-1.15314 z m 20.558626,0.431512 c -0.894136,-0.319334 -1.057469,-2.430367 -0.227718,-2.943181 0.304442,-0.188156 0.701482,0.428058 0.882309,1.369364 0.377098,1.962998 0.384601,1.944957 -0.654591,1.573817 z M 72.588487,31.40625 C 71.579638,29.505394 70.046469,23.75 70.548956,23.75 c 0.264875,0 0.896463,1.335937 1.403538,2.96875 1.191762,3.837569 2.459981,3.838703 3.672506,0.0033 0.515625,-1.631008 1.122656,-2.966946 1.348956,-2.96875 0.421888,-0.0034 -1.479487,6.816012 -2.246443,8.056979 -0.621838,1.00615 -1.476251,0.844772 -2.139026,-0.40401 z m 7.828182,0.677083 C 80.1875,31.854167 80,31.097286 80,30.401377 c 0,-1.246736 0.01344,-1.2475 0.917625,-0.05208 0.504688,0.667264 0.926562,1.424144 0.9375,1.681956 0.02463,0.580997 -0.8769,0.613639 -1.438456,0.05208 z M 65.881406,28.59375 c 0.09199,-1.804688 -0.114737,-3.84375 -0.4594,-4.53125 -0.559656,-1.116356 -0.515481,-1.15829 0.413169,-0.392222 0.754531,0.62243 1.039825,1.865664 1.039825,4.53125 0,2.020409 -0.261194,3.673472 -0.580431,3.673472 -0.319232,0 -0.505163,-1.476563 -0.413163,-3.28125 z M 85.3125,27.811991 c 0,-5.199835 1.183444,-5.029773 1.436075,0.206365 0.137019,2.839979 -0.02775,3.856568 -0.625,3.856356 -0.58155,-2.05e-4 -0.811075,-1.14992 -0.811075,-4.062721 z M 16.5625,30.625 C 16.774949,30.28125 17.213422,30 17.536886,30 c 0.323463,0 0.588114,0.28125 0.588114,0.625 0,0.34375 -0.438474,0.625 -0.974386,0.625 -0.535912,0 -0.800563,-0.28125 -0.588114,-0.625 z M 28.897627,24.926229 C 27.391693,22.489723 27.130062,20.927405 28.125,20.3125 c 0.34375,-0.212449 0.625,0.130247 0.625,0.761548 0,0.631301 0.441489,1.778133 0.981087,2.548518 0.539599,0.770384 0.887281,1.887651 0.772627,2.482816 -0.155997,0.809783 -0.560199,0.513027 -1.606087,-1.179153 z m -6.37548,-4.068451 C 22.509966,20.126431 22.921875,19.177931 23.4375,18.75 c 1.170059,-0.971063 1.170059,-0.171804 0,1.875 -0.841361,1.471807 -0.894491,1.485318 -0.915353,0.232778 z"
       id="path3682"
       inkscape:connector-curvature="0" />
    <path
       style="fill:#d27c31"
       d="m 55.843938,33.75 c 0.213947,-0.859375 0.392834,-4.351563 0.397528,-7.760417 0.0047,-3.408854 0.154872,-6.051579 0.33373,-5.872721 0.731495,0.731496 0.419994,13.762378 -0.346028,14.475192 -0.606344,0.564228 -0.689875,0.38164 -0.38523,-0.842054 z m 4.937312,-1.700149 c -0.894136,-0.319334 -1.057469,-2.430367 -0.227718,-2.943181 0.304442,-0.188156 0.701482,0.428058 0.882309,1.369364 0.377098,1.962998 0.384601,1.944957 -0.654591,1.573817 z M 72.588487,31.40625 C 71.579638,29.505394 70.046469,23.75 70.548956,23.75 c 0.264875,0 0.896463,1.335937 1.403538,2.96875 1.191762,3.837569 2.459981,3.838703 3.672506,0.0033 0.515625,-1.631008 1.122656,-2.966946 1.348956,-2.96875 0.421888,-0.0034 -1.479487,6.816012 -2.246443,8.056979 -0.621838,1.00615 -1.476251,0.844772 -2.139026,-0.40401 z m 7.828182,0.677083 C 80.1875,31.854167 80,31.097286 80,30.401377 c 0,-1.246736 0.01344,-1.2475 0.917625,-0.05208 0.504688,0.667264 0.926562,1.424144 0.9375,1.681956 0.02463,0.580997 -0.8769,0.613639 -1.438456,0.05208 z M 65.881406,28.59375 c 0.09199,-1.804688 -0.114737,-3.84375 -0.4594,-4.53125 -0.559656,-1.116356 -0.515481,-1.15829 0.413169,-0.392222 0.754531,0.62243 1.039825,1.865664 1.039825,4.53125 0,2.020409 -0.261194,3.673472 -0.580431,3.673472 -0.319232,0 -0.505163,-1.476563 -0.413163,-3.28125 z M 85.3125,27.811991 c 0,-5.199835 1.183444,-5.029773 1.436075,0.206365 0.137019,2.839979 -0.02775,3.856568 -0.625,3.856356 -0.58155,-2.05e-4 -0.811075,-1.14992 -0.811075,-4.062721 z M 28.897627,24.926229 C 27.391693,22.489723 27.130062,20.927405 28.125,20.3125 c 0.34375,-0.212449 0.625,0.130247 0.625,0.761548 0,0.631301 0.441489,1.778133 0.981087,2.548518 0.539599,0.770384 0.887281,1.887651 0.772627,2.482816 -0.155997,0.809783 -0.560199,0.513027 -1.606087,-1.179153 z m -6.37548,-4.068451 C 22.509966,20.126431 22.921875,19.177931 23.4375,18.75 c 1.170059,-0.971063 1.170059,-0.171804 0,1.875 -0.841361,1.471807 -0.894491,1.485318 -0.915353,0.232778 z"
       id="path3680"
       inkscape:connector-curvature="0" />
  </g>
</svg>
