<?xml version="1.0" encoding="UTF-8" standalone="no"?>
<!-- Created with Inkscape (http://www.inkscape.org/) -->

<svg
   xmlns:dc="http://purl.org/dc/elements/1.1/"
   xmlns:cc="http://creativecommons.org/ns#"
   xmlns:rdf="http://www.w3.org/1999/02/22-rdf-syntax-ns#"
   xmlns:svg="http://www.w3.org/2000/svg"
   xmlns="http://www.w3.org/2000/svg"
   xmlns:xlink="http://www.w3.org/1999/xlink"
   xmlns:sodipodi="http://sodipodi.sourceforge.net/DTD/sodipodi-0.dtd"
   xmlns:inkscape="http://www.inkscape.org/namespaces/inkscape"
   id="svg3510"
   version="1.1"
   inkscape:version="0.91 r13725"
   width="140.625"
   height="56.25"
   viewBox="0 0 140.625 56.25"
   sodipodi:docname="Kotlin.svg">
  <metadata
     id="metadata3516">
    <rdf:RDF>
      <cc:Work
         rdf:about="">
        <dc:format>image/svg+xml</dc:format>
        <dc:type
           rdf:resource="http://purl.org/dc/dcmitype/StillImage" />
        <dc:title></dc:title>
      </cc:Work>
    </rdf:RDF>
  </metadata>
  <defs
     id="defs3514" />
  <sodipodi:namedview
     pagecolor="#ffffff"
     bordercolor="#666666"
     borderopacity="1"
     objecttolerance="10"
     gridtolerance="10"
     guidetolerance="10"
     inkscape:pageopacity="0"
     inkscape:pageshadow="2"
     inkscape:window-width="640"
     inkscape:window-height="480"
     id="namedview3512"
     showgrid="false"
     inkscape:zoom="1.8631111"
     inkscape:cx="70.3125"
     inkscape:cy="28.125"
     inkscape:window-x="0"
     inkscape:window-y="0"
     inkscape:window-maximized="0"
     inkscape:current-layer="svg3510" />
  <image
     width="140.625"
     height="56.25"
     preserveAspectRatio="none"
     style="image-rendering:optimizeQuality"
     xlink:href="file:///media/havoc/USB%20DISK/pics/Language%20icons/Kotlin.png"
     id="image3518"
     x="0"
     y="0"
     sodipodi:absref="/media/havoc/USB DISK/pics/Language icons/Kotlin.png" />
  <g
     id="g3567">
    <path
       style="fill:#fcfcfc"
       d="M 0,28.125 0,0 l 70.3125,0 70.3125,0 0,28.125 0,28.125 -70.3125,0 L 0,56.25 0,28.125 Z"
       id="path3583"
       inkscape:connector-curvature="0" />
    <path
       style="fill:#a3a2a3"
       d="M 9.0275494,37.946792 C 8.8580287,37.505028 8.7965431,32.231591 8.890915,26.228042 L 9.0625,15.3125 20.46875,15.142151 c 6.95721,-0.103904 11.40625,0.06273 11.40625,0.427219 0,0.328663 -2.25,2.974539 -5,5.879724 -2.75,2.905185 -5,5.532475 -5,5.838423 0,0.305947 2.109375,2.651564 4.6875,5.212483 2.578125,2.560919 4.6875,5.014817 4.6875,5.453108 0,1.161675 -21.7766256,1.155486 -22.2224506,-0.0063 z M 43.571412,35.863078 C 43.325885,35.617552 43.125,31.25015 43.125,26.157741 l 0,-9.258926 1.659236,-0.416441 c 2.449324,-0.614742 3.624981,0.44821 3.848097,3.4792 l 0.194833,2.646767 3.361504,-3.17917 C 54.738631,17.017523 56.016609,16.25 57.482202,16.25 c 3.135157,0 3.067559,1.58641 -0.209361,4.913357 -1.593813,1.618144 -2.897841,3.308315 -2.897841,3.755938 0,0.447622 0.914062,2.090119 2.03125,3.649994 l 2.03125,2.836136 0.336466,-3.046463 c 0.185055,-1.675554 0.724437,-3.646513 1.198625,-4.379909 2.171204,-3.358061 7.44364,-4.353113 11.136265,-2.101717 1.125494,0.686215 2.122519,1.247664 2.215613,1.247664 0.09309,0 0.691175,-1.265625 1.329081,-2.8125 1.050937,-2.548456 1.3578,-2.8125 3.268606,-2.8125 1.674288,0 2.231181,0.321941 2.702844,1.5625 0.3554,0.93478 1.087294,1.5625 1.8218,1.5625 0.967575,0 1.26885,-0.496663 1.421719,-2.34375 0.169537,-2.04837 0.415356,-2.369134 1.950525,-2.545161 0.9661,-0.110776 2.111856,0.09347 2.546125,0.453879 0.550737,0.457075 0.9879,0.456964 1.445231,-3.66e-4 0.360606,-0.36061 1.605481,-0.564856 2.766375,-0.453878 1.996375,0.190845 2.115062,0.337216 2.190756,2.701776 0.113994,3.560719 0.147331,3.658349 1.013719,2.968452 0.429687,-0.342158 2.993544,-0.638021 5.69746,-0.657475 4.3928,-0.03161 5.07727,0.125685 6.42895,1.477368 1.42329,1.423286 1.50216,1.873423 1.33379,7.612197 l -0.17895,6.099458 -2.1875,0 -2.1875,0 -0.16087,-3.75 c -0.24336,-5.672634 -0.58685,-6.676917 -2.20497,-6.446824 -1.26594,0.180013 -1.41085,0.623877 -1.69666,5.196824 -0.3081,4.929607 -0.33723,5.002836 -2.069044,5.201411 -0.9661,0.110776 -2.136375,-0.113819 -2.600606,-0.499099 -0.581519,-0.482617 -0.97005,-0.496665 -1.249094,-0.04516 -0.544512,0.881037 -3.652075,0.834532 -4.554768,-0.06816 -0.505038,-0.505042 -0.967413,-0.527716 -1.53125,-0.07509 -0.444257,0.356631 -2.917113,0.66101 -5.495238,0.676397 -5.096469,0.03042 -7.5,-0.924688 -7.5,-2.980315 0,-1.764335 -1.08295,-2.127442 -1.883531,-0.631539 -1.757631,3.284167 -7.509007,4.726694 -11.211569,2.812022 -1.571628,-0.812719 -1.82498,-0.812719 -2.136849,0 -0.218587,0.56963 -1.18966,0.922041 -2.540689,0.922041 -1.921153,0 -2.504198,-0.4203 -4.798525,-3.459114 -1.43641,-1.902512 -2.922084,-3.357265 -3.301496,-3.232784 -0.379413,0.124482 -0.830466,1.61077 -1.002341,3.302864 -0.304919,3.001899 -0.366109,3.081046 -2.522338,3.262529 -1.215411,0.102297 -2.410724,-0.01489 -2.65625,-0.260417 z M 68.625,30.5 c 1.883956,-1.883955 0.212262,-5.159109 -2.433019,-4.766728 -2.024544,0.300305 -2.846506,1.944259 -1.952819,3.905691 C 65.033369,31.382058 67.298287,31.826712 68.625,30.5 Z M 83.75,28.394031 c 0,-2.604256 -0.123944,-2.838367 -1.40625,-2.65625 C 79.875869,26.088276 80.003813,31.25 82.480387,31.25 83.571313,31.25 83.75,30.848041 83.75,28.394031 Z"
       id="path3581"
       inkscape:connector-curvature="0" />
    <path
       style="fill:#b16eaa"
       d="M 10.02199,37.541088 C 9.6661456,36.876187 9.375,34.440678 9.375,32.128846 l 0,-4.20333 3.4375,-3.60386 c 1.890625,-1.982122 3.4375,-3.928654 3.4375,-4.325625 0,-0.396971 -1.449679,0.864415 -3.221511,2.80308 -2.357213,2.579168 -3.3607302,3.305324 -3.740429,2.706618 -0.6415112,-1.011532 -0.6882219,-8.06105 -0.059737,-9.015742 0.6802294,-1.033297 21.1088055,-1.836412 21.7161345,-0.853733 0.284821,0.460848 -1.58711,2.75472 -4.947194,6.062312 -4.623039,4.550818 -5.289914,5.461668 -4.607573,6.29324 0.438796,0.534763 2.555624,2.804888 4.704062,5.044723 2.148437,2.239833 3.90625,4.259349 3.90625,4.487812 0,0.504975 -8.634075,1.216773 -14.82176,1.221913 -3.820779,0.0032 -4.608044,-0.180833 -5.15625,-1.205166 z M 15.3125,32.5 c 0.622179,-0.6875 0.990609,-1.25 0.818734,-1.25 -0.171875,0 -0.821555,0.5625 -1.443734,1.25 -0.622179,0.6875 -0.990609,1.25 -0.818734,1.25 0.171875,0 0.821555,-0.5625 1.443734,-1.25 z m 28.88286,2.737027 C 43.950412,34.992079 43.75,30.931132 43.75,26.212701 c 0,-7.376544 0.14374,-8.634123 1.025548,-8.972505 2.306574,-0.885115 3.349452,0.181883 3.349452,3.426921 0,1.695585 0.220545,3.082883 0.4901,3.082883 0.269555,0 2.01776,-1.546875 3.8849,-3.4375 3.153377,-3.19304 5.632134,-4.317863 6.482636,-2.941722 0.168524,0.272677 -1.068326,2.03049 -2.748555,3.90625 -1.68023,1.87576 -3.06714,3.571983 -3.082022,3.769386 -0.01488,0.197402 1.512177,2.416306 3.393467,4.930897 1.881288,2.514592 3.27094,4.814018 3.088114,5.109837 -0.542211,0.877316 -3.219474,0.612732 -4.252461,-0.420255 -0.526958,-0.526958 -1.86035,-2.214458 -2.963093,-3.75 C 51.315344,29.381352 50.213965,28.125 49.970578,28.125 c -0.991984,0 -1.77083,1.744385 -1.958856,4.387262 -0.175716,2.469849 -0.386335,2.822059 -1.785112,2.985182 -0.872239,0.101718 -1.786302,-0.01547 -2.03125,-0.260417 z M 62.696137,34.406108 C 60.203248,32.886084 59.375,31.364587 59.375,28.305155 c 0,-2.807918 1.232267,-4.815685 3.7569,-6.121224 6.670019,-3.449199 13.918775,3.406151 10.220887,9.666173 -2.179287,3.689243 -6.929531,4.828591 -10.65665,2.556004 z m 6.394769,-3.440199 C 69.934656,30.122159 70.625,28.984375 70.625,28.4375 c 0,-1.272926 -2.770069,-4.0625 -4.034094,-4.0625 -1.434062,0 -3.467281,2.297886 -3.456337,3.90625 0.01163,1.706934 0.534012,2.539703 2.177931,3.471909 1.761,0.998601 2.0535,0.937657 3.778406,-0.78725 z m 8.520144,4.115951 c -0.939669,-0.595786 -1.948975,-4.402364 -1.971138,-7.434091 -0.0082,-1.121852 -0.336093,-2.554025 -0.72865,-3.182607 -1.121156,-1.795254 1.086744,-6.340162 3.080032,-6.340162 0.993581,0 1.615431,0.43862 1.84015,1.297951 0.186687,0.713873 1.004106,1.550662 1.816487,1.859531 C 83.645987,22.04214 83.595775,24.22695 81.5625,25 80.21185,25.513517 80,25.979582 80,28.4375 c 0,2.457918 0.21185,2.923983 1.5625,3.4375 1.689669,0.64241 2.005169,1.807334 0.8125,3 -0.861631,0.86163 -3.547319,0.978248 -4.76395,0.20686 z m 7.0552,-0.224371 C 84.485756,34.387138 84.4167,30.07835 84.512794,25.282403 L 84.6875,16.5625 l 1.5625,0 1.5625,0 0,9.375 c 0,9.251897 -0.0185,9.377628 -1.409044,9.575086 -0.774975,0.110047 -1.556718,-0.184747 -1.737206,-0.655097 z m 6.1077,0.04146 C 90.271125,34.396124 90,32.115619 90,28.389028 c 0,-6.038246 0.601362,-7.475964 2.938725,-7.025829 1.000375,0.192655 1.123775,0.970415 1.123775,7.08286 0,6.403345 -0.08479,6.878594 -1.2573,7.046642 -0.691513,0.09911 -1.605575,-0.168078 -2.03125,-0.59375 z m 5.919081,0.335747 C 96.449363,34.991031 96.25,31.87659 96.25,28.313718 c 0,-5.415242 0.167381,-6.542178 1.020294,-6.869471 0.561156,-0.215338 1.552012,-0.05946 2.201894,0.346401 0.831102,0.519035 1.535932,0.548294 2.376122,0.09864 1.96338,-1.050768 4.09773,-0.730895 5.56837,0.834524 1.24955,1.330077 1.36684,2.015801 1.2027,7.03125 -0.17878,5.462769 -0.2085,5.55744 -1.74438,5.55744 -1.49768,0 -1.57546,-0.191794 -1.875,-4.623094 -0.23608,-3.492521 -0.57998,-4.790907 -1.40625,-5.309304 -2.16861,-1.360568 -3.25099,0.238499 -3.59375,5.309304 -0.274125,4.05538 -0.469156,4.645519 -1.588219,4.805708 -0.701643,0.100438 -1.475081,-0.01675 -1.71875,-0.260416 z m -6.45095,-16.130341 c -0.670962,-1.748495 0.25095,-2.952433 2.098113,-2.739964 1.367631,0.157311 1.722306,0.519873 1.722306,1.760607 0,1.240734 -0.354675,1.603296 -1.722306,1.760607 -1.123163,0.129191 -1.853038,-0.142583 -2.098113,-0.78125 z"
       id="path3579"
       inkscape:connector-curvature="0" />
    <path
       style="fill:#379dee"
       d="M 10.49074,38.432237 C 10.245022,38.172862 10.317567,37.449443 10.651953,36.824638 11.342436,35.534458 19.810112,28.75 20.729902,28.75 c 1.03191,0 8.637928,8.38217 8.096925,8.923172 -0.667984,0.667985 -17.752363,1.375232 -18.336087,0.759065 z m 33.70462,-3.19521 C 43.950412,34.992079 43.75,30.931132 43.75,26.212701 c 0,-7.376544 0.14374,-8.634123 1.025548,-8.972505 2.306574,-0.885115 3.349452,0.181883 3.349452,3.426921 0,1.695585 0.220545,3.082883 0.4901,3.082883 0.269555,0 2.01776,-1.546875 3.8849,-3.4375 3.153377,-3.19304 5.632134,-4.317863 6.482636,-2.941722 0.168524,0.272677 -1.068326,2.03049 -2.748555,3.90625 -1.68023,1.87576 -3.06714,3.571983 -3.082022,3.769386 -0.01488,0.197402 1.512177,2.416306 3.393467,4.930897 1.881288,2.514592 3.27094,4.814018 3.088114,5.109837 -0.542211,0.877316 -3.219474,0.612732 -4.252461,-0.420255 -0.526958,-0.526958 -1.86035,-2.214458 -2.963093,-3.75 C 51.315344,29.381352 50.213965,28.125 49.970578,28.125 c -0.991984,0 -1.77083,1.744385 -1.958856,4.387262 -0.175716,2.469849 -0.386335,2.822059 -1.785112,2.985182 -0.872239,0.101718 -1.786302,-0.01547 -2.03125,-0.260417 z M 62.696137,34.406108 C 60.203248,32.886084 59.375,31.364587 59.375,28.305155 c 0,-2.807918 1.232267,-4.815685 3.7569,-6.121224 6.670019,-3.449199 13.918775,3.406151 10.220887,9.666173 -2.179287,3.689243 -6.929531,4.828591 -10.65665,2.556004 z m 6.394769,-3.440199 C 69.934656,30.122159 70.625,28.984375 70.625,28.4375 c 0,-1.272926 -2.770069,-4.0625 -4.034094,-4.0625 -1.434062,0 -3.467281,2.297886 -3.456337,3.90625 0.01163,1.706934 0.534012,2.539703 2.177931,3.471909 1.761,0.998601 2.0535,0.937657 3.778406,-0.78725 z m 8.520144,4.115951 c -0.939669,-0.595786 -1.948975,-4.402364 -1.971138,-7.434091 -0.0082,-1.121852 -0.336093,-2.554025 -0.72865,-3.182607 -1.121156,-1.795254 1.086744,-6.340162 3.080032,-6.340162 0.993581,0 1.615431,0.43862 1.84015,1.297951 0.186687,0.713873 1.004106,1.550662 1.816487,1.859531 C 83.645987,22.04214 83.595775,24.22695 81.5625,25 80.21185,25.513517 80,25.979582 80,28.4375 c 0,2.457918 0.21185,2.923983 1.5625,3.4375 1.689669,0.64241 2.005169,1.807334 0.8125,3 -0.861631,0.86163 -3.547319,0.978248 -4.76395,0.20686 z m 7.0552,-0.224371 C 84.485756,34.387138 84.4167,30.07835 84.512794,25.282403 L 84.6875,16.5625 l 1.5625,0 1.5625,0 0,9.375 c 0,9.251897 -0.0185,9.377628 -1.409044,9.575086 -0.774975,0.110047 -1.556718,-0.184747 -1.737206,-0.655097 z m 6.1077,0.04146 C 90.271125,34.396124 90,32.115619 90,28.389028 c 0,-6.038246 0.601362,-7.475964 2.938725,-7.025829 1.000375,0.192655 1.123775,0.970415 1.123775,7.08286 0,6.403345 -0.08479,6.878594 -1.2573,7.046642 -0.691513,0.09911 -1.605575,-0.168078 -2.03125,-0.59375 z m 5.919081,0.335747 C 96.449363,34.991031 96.25,31.87659 96.25,28.313718 c 0,-5.415242 0.167381,-6.542178 1.020294,-6.869471 0.561156,-0.215338 1.552012,-0.05946 2.201894,0.346401 0.831102,0.519035 1.535932,0.548294 2.376122,0.09864 1.96338,-1.050768 4.09773,-0.730895 5.56837,0.834524 1.24955,1.330077 1.36684,2.015801 1.2027,7.03125 -0.17878,5.462769 -0.2085,5.55744 -1.74438,5.55744 -1.49768,0 -1.57546,-0.191794 -1.875,-4.623094 -0.23608,-3.492521 -0.57998,-4.790907 -1.40625,-5.309304 -2.16861,-1.360568 -3.25099,0.238499 -3.59375,5.309304 -0.274125,4.05538 -0.469156,4.645519 -1.588219,4.805708 -0.701643,0.100438 -1.475081,-0.01675 -1.71875,-0.260416 z M 12.014066,30.27706 C 11.25008,29.741943 10.625,28.923973 10.625,28.459348 10.625,27.531211 18.053503,17.841197 20.104644,16.09375 21.073528,15.26832 22.512388,15 25.969854,15 c 2.519756,0 4.75493,0.280818 4.967052,0.624039 C 31.716968,16.886206 16.243843,31.25 14.104136,31.25 c -0.385552,0 -1.326083,-0.437823 -2.09007,-0.97294 z M 9.1473487,25.30824 c -0.5055462,-1.317432 -0.5181068,-7.391315 -0.017981,-8.694623 0.43102,-1.12322 5.5133985,-1.392856 7.1192465,-0.377699 0.819927,0.518327 0.793074,0.85739 -0.216358,2.731792 -0.633861,1.177008 -2.352869,3.318113 -3.820017,4.75801 -2.198253,2.157422 -2.7374459,2.435827 -3.0648909,1.58252 z M 90.242081,19.104357 c -0.670962,-1.748495 0.25095,-2.952433 2.098113,-2.739964 1.367631,0.157311 1.722306,0.519873 1.722306,1.760607 0,1.240734 -0.354675,1.603296 -1.722306,1.760607 -1.123163,0.129191 -1.853038,-0.142583 -2.098113,-0.78125 z"
       id="path3577"
       inkscape:connector-curvature="0" />
    <path
       style="fill:#ef8e27"
       d="M 44.19536,35.237027 C 43.950412,34.992079 43.75,30.931132 43.75,26.212701 c 0,-7.376544 0.14374,-8.634123 1.025548,-8.972505 2.306574,-0.885115 3.349452,0.181883 3.349452,3.426921 0,1.695585 0.220545,3.082883 0.4901,3.082883 0.269555,0 2.01776,-1.546875 3.8849,-3.4375 3.153377,-3.19304 5.632134,-4.317863 6.482636,-2.941722 0.168524,0.272677 -1.068326,2.03049 -2.748555,3.90625 -1.68023,1.87576 -3.06714,3.571983 -3.082022,3.769386 -0.01488,0.197402 1.512177,2.416306 3.393467,4.930897 1.881288,2.514592 3.27094,4.814018 3.088114,5.109837 -0.542211,0.877316 -3.219474,0.612732 -4.252461,-0.420255 -0.526958,-0.526958 -1.86035,-2.214458 -2.963093,-3.75 C 51.315344,29.381352 50.213965,28.125 49.970578,28.125 c -0.991984,0 -1.77083,1.744385 -1.958856,4.387262 -0.175716,2.469849 -0.386335,2.822059 -1.785112,2.985182 -0.872239,0.101718 -1.786302,-0.01547 -2.03125,-0.260417 z M 62.696137,34.406108 C 60.203248,32.886084 59.375,31.364587 59.375,28.305155 c 0,-2.807918 1.232267,-4.815685 3.7569,-6.121224 6.670019,-3.449199 13.918775,3.406151 10.220887,9.666173 -2.179287,3.689243 -6.929531,4.828591 -10.65665,2.556004 z m 6.394769,-3.440199 C 69.934656,30.122159 70.625,28.984375 70.625,28.4375 c 0,-1.272926 -2.770069,-4.0625 -4.034094,-4.0625 -1.434062,0 -3.467281,2.297886 -3.456337,3.90625 0.01163,1.706934 0.534012,2.539703 2.177931,3.471909 1.761,0.998601 2.0535,0.937657 3.778406,-0.78725 z m 8.520144,4.115951 c -0.939669,-0.595786 -1.948975,-4.402364 -1.971138,-7.434091 -0.0082,-1.121852 -0.336093,-2.554025 -0.72865,-3.182607 -1.121156,-1.795254 1.086744,-6.340162 3.080032,-6.340162 0.993581,0 1.615431,0.43862 1.84015,1.297951 0.186687,0.713873 1.004106,1.550662 1.816487,1.859531 C 83.645987,22.04214 83.595775,24.22695 81.5625,25 80.21185,25.513517 80,25.979582 80,28.4375 c 0,2.457918 0.21185,2.923983 1.5625,3.4375 1.689669,0.64241 2.005169,1.807334 0.8125,3 -0.861631,0.86163 -3.547319,0.978248 -4.76395,0.20686 z m 7.0552,-0.224371 C 84.485756,34.387138 84.4167,30.07835 84.512794,25.282403 L 84.6875,16.5625 l 1.5625,0 1.5625,0 0,9.375 c 0,9.251897 -0.0185,9.377628 -1.409044,9.575086 -0.774975,0.110047 -1.556718,-0.184747 -1.737206,-0.655097 z m 6.1077,0.04146 C 90.271125,34.396124 90,32.115619 90,28.389028 c 0,-6.038246 0.601362,-7.475964 2.938725,-7.025829 1.000375,0.192655 1.123775,0.970415 1.123775,7.08286 0,6.403345 -0.08479,6.878594 -1.2573,7.046642 -0.691513,0.09911 -1.605575,-0.168078 -2.03125,-0.59375 z m 5.919081,0.335747 C 96.449363,34.991031 96.25,31.87659 96.25,28.313718 c 0,-5.415242 0.167381,-6.542178 1.020294,-6.869471 0.561156,-0.215338 1.552012,-0.05946 2.201894,0.346401 0.831102,0.519035 1.535932,0.548294 2.376122,0.09864 1.96338,-1.050768 4.09773,-0.730895 5.56837,0.834524 1.24955,1.330077 1.36684,2.015801 1.2027,7.03125 -0.17878,5.462769 -0.2085,5.55744 -1.74438,5.55744 -1.49768,0 -1.57546,-0.191794 -1.875,-4.623094 -0.23608,-3.492521 -0.57998,-4.790907 -1.40625,-5.309304 -2.16861,-1.360568 -3.25099,0.238499 -3.59375,5.309304 -0.274125,4.05538 -0.469156,4.645519 -1.588219,4.805708 -0.701643,0.100438 -1.475081,-0.01675 -1.71875,-0.260416 z M 12.014066,30.27706 C 11.25008,29.741943 10.625,28.923973 10.625,28.459348 10.625,27.531211 18.053503,17.841197 20.104644,16.09375 21.073528,15.26832 22.512388,15 25.969854,15 c 2.519756,0 4.75493,0.280818 4.967052,0.624039 C 31.716968,16.886206 16.243843,31.25 14.104136,31.25 c -0.385552,0 -1.326083,-0.437823 -2.09007,-0.97294 z M 90.242081,19.104357 c -0.670962,-1.748495 0.25095,-2.952433 2.098113,-2.739964 1.367631,0.157311 1.722306,0.519873 1.722306,1.760607 0,1.240734 -0.354675,1.603296 -1.722306,1.760607 -1.123163,0.129191 -1.853038,-0.142583 -2.098113,-0.78125 z"
       id="path3575"
       inkscape:connector-curvature="0" />
    <path
       style="fill:#e1734e"
       d="M 44.19536,35.237027 C 43.950412,34.992079 43.75,30.931132 43.75,26.212701 c 0,-7.376544 0.14374,-8.634123 1.025548,-8.972505 2.306574,-0.885115 3.349452,0.181883 3.349452,3.426921 0,1.695585 0.220545,3.082883 0.4901,3.082883 0.269555,0 2.01776,-1.546875 3.8849,-3.4375 3.153377,-3.19304 5.632134,-4.317863 6.482636,-2.941722 0.168524,0.272677 -1.068326,2.03049 -2.748555,3.90625 -1.68023,1.87576 -3.06714,3.571983 -3.082022,3.769386 -0.01488,0.197402 1.512177,2.416306 3.393467,4.930897 1.881288,2.514592 3.27094,4.814018 3.088114,5.109837 -0.542211,0.877316 -3.219474,0.612732 -4.252461,-0.420255 -0.526958,-0.526958 -1.86035,-2.214458 -2.963093,-3.75 C 51.315344,29.381352 50.213965,28.125 49.970578,28.125 c -0.991984,0 -1.77083,1.744385 -1.958856,4.387262 -0.175716,2.469849 -0.386335,2.822059 -1.785112,2.985182 -0.872239,0.101718 -1.786302,-0.01547 -2.03125,-0.260417 z M 62.696137,34.406108 C 60.203248,32.886084 59.375,31.364587 59.375,28.305155 c 0,-2.807918 1.232267,-4.815685 3.7569,-6.121224 6.670019,-3.449199 13.918775,3.406151 10.220887,9.666173 -2.179287,3.689243 -6.929531,4.828591 -10.65665,2.556004 z m 6.394769,-3.440199 C 69.934656,30.122159 70.625,28.984375 70.625,28.4375 c 0,-1.272926 -2.770069,-4.0625 -4.034094,-4.0625 -1.434062,0 -3.467281,2.297886 -3.456337,3.90625 0.01163,1.706934 0.534012,2.539703 2.177931,3.471909 1.761,0.998601 2.0535,0.937657 3.778406,-0.78725 z m 8.520144,4.115951 c -0.939669,-0.595786 -1.948975,-4.402364 -1.971138,-7.434091 -0.0082,-1.121852 -0.336093,-2.554025 -0.72865,-3.182607 -1.121156,-1.795254 1.086744,-6.340162 3.080032,-6.340162 0.993581,0 1.615431,0.43862 1.84015,1.297951 0.186687,0.713873 1.004106,1.550662 1.816487,1.859531 C 83.645987,22.04214 83.595775,24.22695 81.5625,25 80.21185,25.513517 80,25.979582 80,28.4375 c 0,2.457918 0.21185,2.923983 1.5625,3.4375 1.689669,0.64241 2.005169,1.807334 0.8125,3 -0.861631,0.86163 -3.547319,0.978248 -4.76395,0.20686 z m 7.0552,-0.224371 C 84.485756,34.387138 84.4167,30.07835 84.512794,25.282403 L 84.6875,16.5625 l 1.5625,0 1.5625,0 0,9.375 c 0,9.251897 -0.0185,9.377628 -1.409044,9.575086 -0.774975,0.110047 -1.556718,-0.184747 -1.737206,-0.655097 z m 6.1077,0.04146 C 90.271125,34.396124 90,32.115619 90,28.389028 c 0,-6.038246 0.601362,-7.475964 2.938725,-7.025829 1.000375,0.192655 1.123775,0.970415 1.123775,7.08286 0,6.403345 -0.08479,6.878594 -1.2573,7.046642 -0.691513,0.09911 -1.605575,-0.168078 -2.03125,-0.59375 z m 5.919081,0.335747 C 96.449363,34.991031 96.25,31.87659 96.25,28.313718 c 0,-5.415242 0.167381,-6.542178 1.020294,-6.869471 0.561156,-0.215338 1.552012,-0.05946 2.201894,0.346401 0.831102,0.519035 1.535932,0.548294 2.376122,0.09864 1.96338,-1.050768 4.09773,-0.730895 5.56837,0.834524 1.24955,1.330077 1.36684,2.015801 1.2027,7.03125 -0.17878,5.462769 -0.2085,5.55744 -1.74438,5.55744 -1.49768,0 -1.57546,-0.191794 -1.875,-4.623094 -0.23608,-3.492521 -0.57998,-4.790907 -1.40625,-5.309304 -2.16861,-1.360568 -3.25099,0.238499 -3.59375,5.309304 -0.274125,4.05538 -0.469156,4.645519 -1.588219,4.805708 -0.701643,0.100438 -1.475081,-0.01675 -1.71875,-0.260416 z M 12.014066,30.27706 C 11.25008,29.741943 10.625,28.923973 10.625,28.459348 10.625,27.531211 18.053503,17.841197 20.104644,16.09375 21.073528,15.26832 22.512388,15 25.969854,15 c 2.519756,0 4.712691,0.210938 4.873188,0.46875 0.160497,0.257813 -1.822266,0.375147 -4.406143,0.260743 -4.437331,-0.196467 -4.801295,-0.109785 -6.560725,1.5625 -1.024523,0.973779 -2.281599,2.572644 -2.793502,3.553034 -0.86769,1.661788 -0.835364,1.884044 0.477244,3.28125 0.774387,0.824298 1.920603,1.498723 2.547147,1.498723 0.626543,0 3.319704,-2.026889 5.984803,-4.504198 3.506955,-3.259845 3.982306,-3.588316 1.720634,-1.188973 C 24.195794,23.76869 15.134567,31.25 14.104136,31.25 c -0.385552,0 -1.326083,-0.437823 -2.09007,-0.97294 z M 90.242081,19.104357 c -0.670962,-1.748495 0.25095,-2.952433 2.098113,-2.739964 1.367631,0.157311 1.722306,0.519873 1.722306,1.760607 0,1.240734 -0.354675,1.603296 -1.722306,1.760607 -1.123163,0.129191 -1.853038,-0.142583 -2.098113,-0.78125 z"
       id="path3573"
       inkscape:connector-curvature="0" />
    <path
       style="fill:#5d5d5d"
       d="M 44.19536,35.237027 C 43.950412,34.992079 43.75,30.931132 43.75,26.212701 c 0,-7.376544 0.14374,-8.634123 1.025548,-8.972505 2.306574,-0.885115 3.349452,0.181883 3.349452,3.426921 0,1.695585 0.220545,3.082883 0.4901,3.082883 0.269555,0 2.01776,-1.546875 3.8849,-3.4375 3.153377,-3.19304 5.632134,-4.317863 6.482636,-2.941722 0.168524,0.272677 -1.068326,2.03049 -2.748555,3.90625 -1.68023,1.87576 -3.06714,3.571983 -3.082022,3.769386 -0.01488,0.197402 1.512177,2.416306 3.393467,4.930897 1.881288,2.514592 3.27094,4.814018 3.088114,5.109837 -0.542211,0.877316 -3.219474,0.612732 -4.252461,-0.420255 -0.526958,-0.526958 -1.86035,-2.214458 -2.963093,-3.75 C 51.315344,29.381352 50.213965,28.125 49.970578,28.125 c -0.991984,0 -1.77083,1.744385 -1.958856,4.387262 -0.175716,2.469849 -0.386335,2.822059 -1.785112,2.985182 -0.872239,0.101718 -1.786302,-0.01547 -2.03125,-0.260417 z M 62.696137,34.406108 C 60.203248,32.886084 59.375,31.364587 59.375,28.305155 c 0,-2.807918 1.232267,-4.815685 3.7569,-6.121224 6.670019,-3.449199 13.918775,3.406151 10.220887,9.666173 -2.179287,3.689243 -6.929531,4.828591 -10.65665,2.556004 z m 6.394769,-3.440199 C 69.934656,30.122159 70.625,28.984375 70.625,28.4375 c 0,-1.272926 -2.770069,-4.0625 -4.034094,-4.0625 -1.434062,0 -3.467281,2.297886 -3.456337,3.90625 0.01163,1.706934 0.534012,2.539703 2.177931,3.471909 1.761,0.998601 2.0535,0.937657 3.778406,-0.78725 z m 8.520144,4.115951 c -0.939669,-0.595786 -1.948975,-4.402364 -1.971138,-7.434091 -0.0082,-1.121852 -0.336093,-2.554025 -0.72865,-3.182607 -1.121156,-1.795254 1.086744,-6.340162 3.080032,-6.340162 0.993581,0 1.615431,0.43862 1.84015,1.297951 0.186687,0.713873 1.004106,1.550662 1.816487,1.859531 C 83.645987,22.04214 83.595775,24.22695 81.5625,25 80.21185,25.513517 80,25.979582 80,28.4375 c 0,2.457918 0.21185,2.923983 1.5625,3.4375 1.689669,0.64241 2.005169,1.807334 0.8125,3 -0.861631,0.86163 -3.547319,0.978248 -4.76395,0.20686 z m 7.0552,-0.224371 C 84.485756,34.387138 84.4167,30.07835 84.512794,25.282403 L 84.6875,16.5625 l 1.5625,0 1.5625,0 0,9.375 c 0,9.251897 -0.0185,9.377628 -1.409044,9.575086 -0.774975,0.110047 -1.556718,-0.184747 -1.737206,-0.655097 z m 6.1077,0.04146 C 90.271125,34.396124 90,32.115619 90,28.389028 c 0,-6.038246 0.601362,-7.475964 2.938725,-7.025829 1.000375,0.192655 1.123775,0.970415 1.123775,7.08286 0,6.403345 -0.08479,6.878594 -1.2573,7.046642 -0.691513,0.09911 -1.605575,-0.168078 -2.03125,-0.59375 z m 5.919081,0.335747 C 96.449363,34.991031 96.25,31.87659 96.25,28.313718 c 0,-5.415242 0.167381,-6.542178 1.020294,-6.869471 0.561156,-0.215338 1.552012,-0.05946 2.201894,0.346401 0.831102,0.519035 1.535932,0.548294 2.376122,0.09864 1.96338,-1.050768 4.09773,-0.730895 5.56837,0.834524 1.24955,1.330077 1.36684,2.015801 1.2027,7.03125 -0.17878,5.462769 -0.2085,5.55744 -1.74438,5.55744 -1.49768,0 -1.57546,-0.191794 -1.875,-4.623094 -0.23608,-3.492521 -0.57998,-4.790907 -1.40625,-5.309304 -2.16861,-1.360568 -3.25099,0.238499 -3.59375,5.309304 -0.274125,4.05538 -0.469156,4.645519 -1.588219,4.805708 -0.701643,0.100438 -1.475081,-0.01675 -1.71875,-0.260416 z m -6.45095,-16.130341 c -0.670962,-1.748495 0.25095,-2.952433 2.098113,-2.739964 1.367631,0.157311 1.722306,0.519873 1.722306,1.760607 0,1.240734 -0.354675,1.603296 -1.722306,1.760607 -1.123163,0.129191 -1.853038,-0.142583 -2.098113,-0.78125 z"
       id="path3571"
       inkscape:connector-curvature="0" />
    <path
       style="fill:#121212"
       d="m 44.665397,34.230274 c -0.181952,-0.474161 -0.251414,-4.362135 -0.15436,-8.639942 0.165676,-7.302345 0.25288,-7.777832 1.426463,-7.777832 1.067281,0 1.277614,0.479638 1.438912,3.28125 0.120441,2.091951 0.469707,3.28125 0.963621,3.28125 0.426088,0 2.028578,-1.287263 3.561087,-2.860583 3.156339,-3.240393 4.709647,-4.251493 5.644129,-3.673951 0.369589,0.228418 -0.568832,1.695331 -2.200416,3.439626 C 53.780174,22.952839 52.5,24.552166 52.5,24.834154 c 0,0.281989 1.40625,2.465994 3.125,4.853346 1.71875,2.387352 3.125,4.559308 3.125,4.82657 C 58.75,34.781331 58.203938,35 57.536529,35 56.790683,35 55.211077,33.554896 53.4375,31.25 51.850442,29.1875 50.330719,27.5 50.060338,27.5 c -1.136034,0 -2.482033,2.360054 -2.670435,4.682302 -0.144515,1.781282 -0.515759,2.554188 -1.298043,2.702442 -0.602602,0.114202 -1.244511,-0.18031 -1.426463,-0.65447 z m 18.772103,0.08011 c -4.663898,-2.698449 -4.598866,-9.326459 0.115162,-11.737235 2.775307,-1.419304 5.781901,-0.86359 8.152288,1.506803 1.99335,1.993349 2.171775,2.452346 1.859181,4.782863 -0.468462,3.49269 -2.633481,5.574284 -6.146819,5.909972 C 65.915919,34.916242 64.125,34.708161 63.4375,34.310385 Z m 5.985575,-3.012308 C 70.427887,30.293269 71.25,29.006009 71.25,28.4375 71.25,27.108109 67.905981,23.75 66.582169,23.75 65.132419,23.75 62.5,26.579431 62.5,28.137679 c 0,1.906474 1.12525,3.724643 2.697106,4.357958 2.058407,0.82935 2.254681,0.77373 4.225969,-1.19756 z m 8.2301,2.980098 C 77.224569,33.84957 76.875,31.985096 76.875,30.127683 c 0,-2.040302 -0.416019,-4.076579 -1.05325,-5.155324 -0.997331,-1.68835 -0.989787,-1.900843 0.142131,-4.002682 1.3206,-2.452205 3.411119,-3.036996 3.411119,-0.954208 0,0.774751 0.6059,1.495832 1.5625,1.859531 1.944719,0.739381 2.040744,2.345139 0.15625,2.612781 -1.245937,0.176951 -1.427631,0.609812 -1.593794,3.79704 -0.1765,3.38543 -0.09068,3.63415 1.45705,4.222595 0.904525,0.343901 1.529763,0.975107 1.389413,1.40268 -0.348663,1.062183 -3.733663,1.32766 -4.693244,0.368079 z m 7.776512,0.318179 C 85.193356,34.360026 85,30.276042 85,25.520833 85,17.252638 85.05535,16.875 86.267162,16.875 c 1.221413,0 1.2609,0.319674 1.09375,8.854976 -0.161712,8.257569 -0.587093,10.210511 -1.931225,8.866378 z M 90.930762,33.63318 C 90.730625,32.835749 90.650263,29.934249 90.752187,27.185403 90.919763,22.665938 91.057163,22.1875 92.1875,22.1875 c 1.16655,0 1.25,0.416667 1.25,6.241441 0,5.397765 -0.144825,6.269332 -1.071419,6.447776 -0.694206,0.133692 -1.199537,-0.304123 -1.435319,-1.243537 z m 6.373925,0.963174 C 97.068356,34.360026 96.875,31.401042 96.875,28.020833 96.875,22.51929 96.992938,21.875 98,21.875 c 0.61875,0 1.432306,0.307305 1.8079,0.682901 0.49387,0.493867 1.03611,0.493867 1.95891,0 1.9212,-1.028195 4.1625,-0.823191 5.35035,0.48938 1.44781,1.599805 1.23893,11.640219 -0.24216,11.640219 -0.71899,0 -1.01034,-1.061685 -1.25,-4.555164 -0.32772,-4.776964 -0.91706,-5.729316 -3.55686,-5.747765 -1.90801,-0.01334 -2.33479,0.918271 -2.69314,5.878837 -0.287225,3.976039 -0.979131,5.424126 -2.070313,4.332946 z M 90.9375,18.75 c -0.577063,-0.933711 0.225856,-1.875 1.599388,-1.875 0.796443,0 1.213112,0.429336 1.213112,1.25 0,1.325662 -2.092131,1.79058 -2.8125,0.625 z"
       id="path3569"
       inkscape:connector-curvature="0" />
  </g>
</svg>
