<?xml version="1.0" encoding="UTF-8" standalone="no"?>
<!-- Created with Inkscape (http://www.inkscape.org/) -->

<svg
   xmlns:dc="http://purl.org/dc/elements/1.1/"
   xmlns:cc="http://creativecommons.org/ns#"
   xmlns:rdf="http://www.w3.org/1999/02/22-rdf-syntax-ns#"
   xmlns:svg="http://www.w3.org/2000/svg"
   xmlns="http://www.w3.org/2000/svg"
   xmlns:xlink="http://www.w3.org/1999/xlink"
   xmlns:sodipodi="http://sodipodi.sourceforge.net/DTD/sodipodi-0.dtd"
   xmlns:inkscape="http://www.inkscape.org/namespaces/inkscape"
   id="svg3520"
   version="1.1"
   inkscape:version="0.91 r13725"
   width="140.625"
   height="56.25"
   viewBox="0 0 140.625 56.25"
   sodipodi:docname="ObjectiveC.svg">
  <metadata
     id="metadata3526">
    <rdf:RDF>
      <cc:Work
         rdf:about="">
        <dc:format>image/svg+xml</dc:format>
        <dc:type
           rdf:resource="http://purl.org/dc/dcmitype/StillImage" />
        <dc:title></dc:title>
      </cc:Work>
    </rdf:RDF>
  </metadata>
  <defs
     id="defs3524" />
  <sodipodi:namedview
     pagecolor="#ffffff"
     bordercolor="#666666"
     borderopacity="1"
     objecttolerance="10"
     gridtolerance="10"
     guidetolerance="10"
     inkscape:pageopacity="0"
     inkscape:pageshadow="2"
     inkscape:window-width="640"
     inkscape:window-height="480"
     id="namedview3522"
     showgrid="false"
     inkscape:zoom="1.8631111"
     inkscape:cx="70.3125"
     inkscape:cy="28.125"
     inkscape:window-x="0"
     inkscape:window-y="0"
     inkscape:window-maximized="0"
     inkscape:current-layer="svg3520" />
  <image
     width="140.625"
     height="56.25"
     preserveAspectRatio="none"
     style="image-rendering:optimizeQuality"
     xlink:href="file:///media/havoc/USB%20DISK/pics/Language%20icons/ObjectiveC.png"
     id="image3528"
     x="0"
     y="0"
     sodipodi:absref="/media/havoc/USB DISK/pics/Language icons/ObjectiveC.png" />
  <g
     id="g3530">
    <path
       style="fill:#fbfbfb"
       d="M 0,28.125 0,0 l 70.3125,0 70.3125,0 0,28.125 0,28.125 -70.3125,0 L 0,56.25 0,28.125 Z"
       id="path3546"
       inkscape:connector-curvature="0" />
    <path
       style="fill:#dadada"
       d="M 15.83511,46.769308 C 12.501091,43.97307 11.838057,42.71791 9.2878619,34.375 6.8739575,26.477962 8.7502288,18.563902 13.908661,14.884592 15.530586,13.727736 16.752296,13.437811 20,13.439049 c 2.234375,8.75e-4 4.866218,0.24988 5.84854,0.553394 1.673034,0.516928 1.742237,0.469999 1.09375,-0.741711 -1.100874,-2.057002 -0.825142,-3.5047864 1.199889,-6.300262 2.028597,-2.8003959 5.492702,-4.8682164 7.113512,-4.246253 1.490679,0.5720272 1.237028,4.1531161 -0.529493,7.475487 l -1.523802,2.865879 2.366008,-0.03266 c 7.426905,-0.102496 10.18787,4.305188 6.295223,10.049875 -2.707386,3.995501 -2.540666,6.486693 0.636373,9.508937 2.006547,1.908783 2.5,2.819006 2.5,4.611505 0,2.976989 -2.500833,7.76424 -5.373678,10.286633 -2.158781,1.895433 -2.538478,2.010852 -5.196389,1.57957 -3.562295,-0.578032 -8.154909,-0.581903 -12.242433,-0.01032 -3.029093,0.423577 -3.224049,0.353916 -6.35239,-2.269819 z m 9.159666,-3.627853 c 1.391275,-0.879594 -0.0701,-2.034726 -2.257043,-1.784066 -2.505999,0.287229 -2.895257,2.396358 -0.439811,2.38304 0.970518,-0.0052 2.184102,-0.274801 2.696854,-0.598974 z M 72.03125,37.669213 C 71.098919,37.342966 70.988475,35.235402 71.875,34.6875 72.21875,34.475051 72.5,34.030094 72.5,33.698706 c 0,-0.331387 -0.632813,-0.189614 -1.40625,0.315052 -0.773438,0.504666 -2.636687,0.899384 -4.140563,0.877153 -2.130518,-0.03149 -2.802174,-0.299938 -3.041643,-1.215666 -0.383919,-1.468113 -0.445938,-1.464488 -2.63509,0.154022 -1.379289,1.019753 -2.299355,1.2352 -3.951387,0.925277 -2.851175,-0.534884 -4.281204,-2.23713 -4.653396,-5.539205 -0.257584,-2.285278 -0.04123,-3.024463 1.379473,-4.712863 C 55.391115,22.910012 56.212163,22.5 58.061102,22.5 c 1.278742,0 2.870929,0.41293 3.538192,0.917623 1.62715,1.230713 1.945587,1.184256 2.344731,-0.342065 0.476044,-1.820393 3.168612,-1.415167 3.443194,0.518192 C 67.505306,24.42522 68.023244,25 68.6544,25 c 0.587106,0 1.658912,0.414265 2.381794,0.920588 1.237031,0.866453 1.33635,0.810454 1.688887,-0.952252 0.206013,-1.030062 0.805731,-2.038291 1.332706,-2.24051 1.484182,-0.569535 2.862519,0.936535 2.430919,2.656188 -0.42605,1.697498 0.157781,1.860435 1.912,0.533609 1.617113,-1.223124 3.040388,-1.156844 4.741725,0.220815 1.360738,1.101859 1.478431,1.101121 3.662988,-0.02298 1.241394,-0.638776 2.738925,-1.039483 3.32785,-0.89046 0.588925,0.149023 1.3968,-0.121889 1.795281,-0.602027 0.840425,-1.012653 2.821625,-1.157837 3.38395,-0.247979 0.619012,1.00158 1.390556,0.725015 1.743594,-0.625 0.429168,-1.641148 2.948306,-1.68067 3.373966,-0.05293 0.17218,0.658386 1.00164,1.369893 1.84325,1.581125 0.84162,0.211231 1.68733,0.79348 1.87935,1.293883 0.27706,0.722034 0.58565,0.621438 1.49503,-0.487374 0.98372,-1.199456 1.32612,-1.287411 2.4193,-0.621463 0.92851,0.565638 1.66375,0.59788 2.71467,0.119049 1.70814,-0.778284 4.67443,0.125315 5.23872,1.595834 0.23662,0.616618 1.19406,0.94688 2.74501,0.94688 2.13188,0 2.50177,-0.245806 3.52689,-2.34375 1.35025,-2.763354 4.76881,-4.279808 7.39616,-3.280894 2.82179,1.072845 1.89656,2.960649 -1.82138,3.716272 -3.55018,0.721527 -2.71144,5.033372 0.97908,5.033372 2.25699,0 3.1021,1.693706 1.44845,2.90288 -1.83871,1.344499 -4.44059,1.002899 -6.67909,-0.876896 -1.59657,-1.340726 -2.67829,-1.716685 -4.8655,-1.691039 -2.29676,0.02693 -2.77879,0.228613 -2.62866,1.099846 0.44282,2.569808 -5.09973,2.897655 -7.21535,0.426793 -1.03875,-1.213171 -1.06946,-1.207837 -2.35931,0.409796 -1.60329,2.010715 -3.83672,1.595254 -4.44462,-0.826782 l -0.40084,-1.59709 -0.79108,1.881416 c -0.76986,1.83097 -0.88903,1.875289 -4.444359,1.652886 -2.009306,-0.125691 -3.934531,-0.239589 -4.278281,-0.253106 -0.34375,-0.01352 -1.479312,0.143897 -2.523475,0.349809 -1.357244,0.267654 -2.321306,0.03199 -3.381675,-0.826639 -1.440013,-1.166051 -1.516675,-1.167549 -2.632775,-0.05145 -1.406775,1.406776 -3.531694,1.475098 -5.39025,0.173314 -1.283719,-0.899151 -1.421675,-0.886809 -1.746662,0.15625 -0.860332,2.761305 -2.62815,4.137728 -4.481413,3.489224 z m 24.6738,-8.762963 c -0.249144,-1.041667 -0.284275,-1.041667 -0.737694,0 -0.26185,0.601562 -0.26185,1.585937 0,2.1875 0.453419,1.041667 0.48855,1.041667 0.737694,0 0.143881,-0.601563 0.143881,-1.585938 0,-2.1875 z M 59.6875,30 c 0.586709,-1.848555 -0.226916,-3.75 -1.604617,-3.75 -0.952267,0 -1.207883,0.440881 -1.207883,2.083333 0,1.145834 0.1875,2.270834 0.416667,2.5 C 58.104978,31.646644 59.296404,31.232236 59.6875,30 Z M 68.75,29.875 c 0,-1.009636 -0.184819,-1.190181 -0.695544,-0.679457 -0.382544,0.382548 -0.506575,1.001298 -0.275612,1.375 C 68.425337,31.616592 68.75,31.384069 68.75,29.875 Z M 91.25,30 c 0,-0.833333 -0.416669,-1.25 -1.25,-1.25 -0.833331,0 -1.25,0.416667 -1.25,1.25 0,0.833333 0.416669,1.25 1.25,1.25 0.833331,0 1.25,-0.416667 1.25,-1.25 z"
       id="path3544"
       inkscape:connector-curvature="0" />
    <path
       style="fill:#cfcfcf"
       d="M 19.594753,48.644665 C 15.701138,47.610796 11.472097,41.01207 9.3264444,32.622649 8.3215369,28.693497 8.2200131,27.262059 8.743355,24.401328 c 0.8144637,-4.452082 3.344361,-8.088786 6.866186,-9.870078 3.293813,-1.665967 5.941292,-1.77591 9.403741,-0.390512 1.396217,0.558654 2.662642,0.891671 2.814279,0.740035 0.151635,-0.151636 -0.06326,-1.173725 -0.477557,-2.271309 -0.645455,-1.710006 -0.5797,-2.317885 0.459453,-4.2474759 C 29.139427,5.8923837 32.73153,3.125 34.607141,3.125 c 1.066503,0 1.152148,0.3362531 0.81364,3.19443 -0.236376,1.9958219 -0.966909,3.966092 -1.946957,5.251002 l -1.568624,2.056572 2.447149,-0.328232 c 3.226943,-0.432824 5.133837,0.09958 7.506095,2.095705 1.682332,1.415589 1.895155,1.916502 1.526956,3.593933 -0.235306,1.071999 -1.233907,2.927234 -2.219114,4.122742 -2.820339,3.422366 -2.519308,6.275749 1.04333,9.889432 2.470662,2.506063 2.784648,3.119933 2.445455,4.781073 C 43.515758,43.361246 39.072999,48.75 35.612222,48.75 c -1.014356,0 -3.079264,-0.330307 -4.588685,-0.734016 -2.23064,-0.596605 -3.373089,-0.557558 -6.102719,0.20858 -2.25013,0.631555 -4.007641,0.770182 -5.326065,0.420101 z m 12.43671,-4.328499 c 4.641071,0.148087 4.92249,0.07603 6.71875,-1.720225 2.171405,-2.171405 2.511723,-4.470941 0.661673,-4.470941 -0.667214,0 -1.39053,-0.287064 -1.607372,-0.637921 -0.436458,-0.706206 -17.167843,-0.7918 -18.197635,-0.0931 -1.342352,0.910775 -2.576657,3.377087 -2.272399,4.54057 0.612782,2.343282 2.653877,3.199552 6.41552,2.691409 1.890625,-0.255397 5.617284,-0.394804 8.281463,-0.309795 z M 15.96875,21.973017 c 0.853375,-0.757414 6.939308,-2.469181 10.575651,-2.974573 l 3.106902,-0.431808 -3.106902,-0.897489 c -6.932674,-2.002636 -10.252612,-1.471686 -12.529887,2.003874 -1.397869,2.133417 0.12394,3.924477 1.954236,2.299996 z m 55.560094,14.847526 c -0.230963,-0.373702 -0.106932,-0.992452 0.275612,-1.375 C 72.187006,35.062994 72.5,34.20016 72.5,33.528132 c 0,-1.159498 -0.06044,-1.167183 -1.183787,-0.150551 -0.855994,0.774663 -2.024188,1.017818 -4.21875,0.878118 -2.627326,-0.16725 -3.062469,-0.387299 -3.239775,-1.638313 l -0.204813,-1.445115 -1.484094,1.601365 c -1.976375,2.132544 -5.755494,2.229529 -7.60281,0.195114 -2.727587,-3.003839 -2.170261,-7.861319 1.095752,-9.550241 2.53177,-1.309228 3.972272,-1.145782 6.165324,0.69955 1.780128,1.497879 1.922953,1.526773 1.922953,0.389027 0,-1.834474 1.624025,-2.99343 2.8125,-2.007086 0.515625,0.427931 0.9375,1.306118 0.9375,1.951528 0,0.818921 0.448969,1.173472 1.485975,1.173472 0.817281,0 1.836094,0.421875 2.264025,0.9375 1.198931,1.444628 1.777544,1.126874 1.99165,-1.09375 0.150106,-1.556841 0.524287,-2.077896 1.6021,-2.230969 1.2688,-0.180198 1.40625,0.05953 1.40625,2.452696 l 0,2.652416 1.446531,-1.358947 c 1.800569,-1.691547 4.259388,-1.746077 5.724669,-0.126957 1.1095,1.225984 1.122569,1.225984 2.681156,0 0.861419,-0.677594 2.420206,-1.231989 3.463969,-1.231989 1.043762,0 2.398381,-0.453066 3.010262,-1.006813 1.028482,-0.930762 1.244644,-0.902403 2.861713,0.375439 l 1.7492,1.382251 0.197762,-1.625438 c 0.244069,-2.005987 2.557975,-2.290011 3.058648,-0.375439 0.17978,0.6875 0.84668,1.25 1.482,1.25 0.63531,0 1.48072,0.608416 1.8787,1.352034 l 0.72358,1.352035 1.14573,-1.508285 c 0.9582,-1.26142 1.33842,-1.389803 2.32307,-0.784393 0.72718,0.447101 1.51444,0.510505 2.05893,0.16582 1.65326,-1.046571 4.19164,-0.62388 5.38815,0.897231 0.90375,1.148929 1.68131,1.44278 3.52205,1.331024 1.99259,-0.120976 2.52727,-0.472602 3.41681,-2.246998 0.58001,-1.156968 1.75769,-2.461861 2.61707,-2.899761 2.16432,-1.102845 5.24882,-0.753275 5.50982,0.624433 0.21006,1.108812 -0.13039,1.325799 -3.09139,1.970322 -3.37029,0.733612 -2.67579,5.146954 0.86365,5.488251 1.54849,0.149316 2.03042,0.49248 2.03042,1.445787 0,1.023217 -0.48061,1.284804 -2.64908,1.441836 -2.18536,0.158255 -2.94243,-0.101523 -4.32498,-1.484079 -1.35243,-1.352435 -2.28632,-1.687113 -4.83837,-1.733941 -2.95793,-0.05428 -3.16326,0.0417 -3.17501,1.484078 -0.0226,2.77332 -5.26693,2.457221 -6.76814,-0.407945 l -0.84968,-1.621666 -0.81807,1.974991 c -0.6599,1.593148 -1.12923,1.938425 -2.42748,1.785859 -1.21015,-0.142214 -1.75306,-0.693037 -2.18846,-2.220383 C 101.95475,30.914062 101.47143,30 101.19919,30 c -0.27225,0 -0.58312,0.914062 -0.69084,2.03125 -0.15011,1.556841 -0.524288,2.077896 -1.6021,2.230969 C 98.081488,34.379354 97.5,34.133836 97.5,33.668469 c 0,-0.617143 -0.166669,-0.626802 -0.75,-0.04347 -0.935,0.934999 -3.151438,0.973562 -4.054456,0.07054 -0.489281,-0.489277 -0.797,-0.489277 -1.099388,0 -0.815294,1.319174 -4.427231,0.760391 -6.015918,-0.930691 l -1.512657,-1.610148 -0.3396,1.453898 c -0.429425,1.838444 -3.73635,2.314192 -5.959712,0.857389 C 76.354394,32.539585 76.25,32.54856 76.25,33.596526 c 0,2.715827 -3.540837,5.133818 -4.721156,3.224017 z M 91.875,30.349386 c 0,-1.837177 -0.586594,-2.280847 -2.391537,-1.808843 -1.466032,0.383376 -1.864794,2.400983 -0.577213,2.920531 1.933638,0.78024 2.96875,0.392628 2.96875,-1.111688 z M 97.5,30 c 0,-1.25 -0.3125,-1.875 -0.9375,-1.875 -0.625,0 -0.9375,0.625 -0.9375,1.875 0,1.25 0.3125,1.875 0.9375,1.875 C 97.1875,31.875 97.5,31.25 97.5,30 Z M 59.6875,28.4375 c 0,-2.035305 -0.219686,-2.5 -1.181884,-2.5 -1.623569,0 -2.525006,1.65408 -2.013059,3.693839 0.327097,1.30326 0.749537,1.653892 1.810784,1.502985 C 59.468722,30.96861 59.6875,30.542354 59.6875,28.4375 Z M 69.0625,30 c 0,-0.458333 -0.351563,-0.950521 -0.78125,-1.09375 C 67.816506,28.751336 67.5,29.194444 67.5,30 c 0,0.805556 0.316506,1.248664 0.78125,1.09375 C 68.710937,30.950521 69.0625,30.458333 69.0625,30 Z"
       id="path3542"
       inkscape:connector-curvature="0" />
    <path
       style="fill:#c5c5c5"
       d="M 16.346349,45.86437 C 10.468441,39.917185 7.1834981,28.032153 9.6398906,21.600181 c 1.3203934,-3.457402 5.0961754,-6.937636 8.5299254,-7.862249 2.116067,-0.569797 3.189798,-0.516533 5.621608,0.278872 3.078522,1.006934 4.958576,1.249462 4.958576,0.639659 0,-0.188946 -0.407168,-1.130914 -0.904817,-2.093261 -0.804353,-1.555447 -0.787004,-1.984339 0.15625,-3.8627545 1.680853,-3.3472858 7.630939,-6.6027734 7.620081,-4.1691975 -0.0097,2.1706556 -1.528911,5.746888 -3.296632,7.760211 -1.585804,1.80613 -1.735137,2.18413 -0.747156,1.891239 3.869301,-1.147068 5.67679,-1.078123 8.422274,0.321259 3.691343,1.88149 4.111752,4.315535 1.352094,7.828237 -1.01771,1.295417 -2.039872,2.992532 -2.27147,3.771367 -0.653552,2.197811 0.803529,5.619463 3.157623,7.415017 1.601362,1.221419 2.136753,2.102997 2.136753,3.518394 0,2.694328 -2.36673,7.072172 -5.213944,9.644458 -2.203452,1.990687 -2.664364,2.158417 -4.708066,1.713313 -2.879014,-0.62703 -8.980541,-0.613908 -12.427906,0.02673 -2.599938,0.483156 -2.733197,0.423151 -5.678735,-2.557103 z m 14.303998,-1.159134 c 4.633307,-0.01378 6.340427,-0.264823 7.65625,-1.125894 C 39.237969,42.969855 40,42.405498 40,42.325216 c 0,-0.08028 0.262102,-1.059867 0.582451,-2.176855 0.568082,-1.980789 0.51339,-2.062347 -2.217167,-3.306259 -2.52252,-1.149141 -3.265163,-1.210621 -7.503238,-0.621159 -2.586992,0.359818 -6.195242,0.478903 -8.018333,0.264634 -2.852052,-0.335203 -3.49993,-0.20436 -4.641712,0.937422 -3.247025,3.247025 0.374272,8.921819 4.922999,7.714642 0.859375,-0.228068 4.245781,-0.42265 7.525348,-0.432405 z M 15.96875,24.480652 c 0.326563,-0.285642 2.421875,-1.033047 4.65625,-1.660901 6.649559,-1.86851 13.125,-4.709479 13.125,-5.75833 0,-0.741564 -0.372756,-0.834912 -1.71875,-0.430419 -1.839608,0.552833 -5.000023,0.524504 -11.242921,-0.100778 -3.723166,-0.372908 -3.982681,-0.307026 -5.749242,1.459535 -1.947364,1.947364 -2.918348,4.495412 -2.313607,6.071344 0.389544,1.015133 2.282421,1.259996 3.24327,0.419549 z m 56.116144,12.039837 c -0.206731,-0.538731 -0.05725,-1.298106 0.332118,-1.6875 C 72.806406,34.443595 73.125,33.437056 73.125,32.596236 l 0,-1.528764 -1.532656,1.653764 C 70.411106,33.995808 69.467169,34.375 67.47555,34.375 c -2.252981,0 -2.668325,-0.223055 -3.241144,-1.740622 L 63.5774,30.893757 61.836776,32.634378 c -3.52342,3.523421 -8.711776,1.27717 -8.711776,-3.771682 0,-5.87719 5.889602,-8.170512 9.458156,-3.682864 1.005994,1.265086 1.026919,1.255052 1.455913,-0.69815 0.518718,-2.361708 2.628668,-2.803564 2.948712,-0.617506 0.132575,0.905568 0.825025,1.530436 2.059763,1.858735 1.023025,0.272008 2.352706,1.134691 2.95485,1.917075 L 73.097206,29.0625 73.203637,27.5 c 0.05856,-0.859375 0.135107,-2.125 0.170151,-2.8125 0.09986,-1.959284 2.550568,-1.666201 2.613062,0.3125 0.118719,3.75904 0.154412,3.801921 1.797244,2.159091 1.977962,-1.977962 3.770837,-1.943852 5.672356,0.107918 1.239306,1.337234 1.590119,1.463862 1.890062,0.682223 0.457138,-1.19128 3.690507,-2.587663 4.909069,-2.120058 0.496663,0.190588 1.239275,-0.05863 1.65025,-0.553825 1.0273,-1.237821 2.277306,-1.127792 3.851769,0.339044 1.248706,1.163349 1.266275,1.310173 0.286369,2.392963 -1.168369,1.291027 -1.366194,2.969725 -0.418969,3.555144 1.109194,0.685521 0.709788,2.8125 -0.528131,2.8125 -1.714369,0 -3.221869,-2.016391 -3.221869,-4.309477 0,-1.838786 -0.156931,-2.005494 -1.71875,-1.825787 C 88.792319,28.396673 88.4375,28.760064 88.4375,30 c 0,1.156367 0.375019,1.615656 1.442781,1.767007 1.882756,0.26687 1.576894,2.219684 -0.39155,2.499947 C 87.7251,34.518056 85,32.826844 85,31.481224 c 0,-0.645937 -0.343556,-0.858125 -0.988619,-0.610592 -0.543737,0.208652 -1.598425,0.407403 -2.34375,0.441668 -1.227419,0.05643 -1.207875,0.103261 0.207369,0.496928 2.159294,0.600633 1.998206,2.203545 -0.247206,2.459813 -1.106807,0.126319 -2.474938,-0.285286 -3.522425,-1.059731 l -1.712725,-1.266272 -0.353132,1.765646 c -0.603568,3.017862 -3.174175,4.845607 -3.954618,2.811805 z m -12.950382,-5.12381 c 2.233115,-1.471138 1.26422,-6.005316 -1.20805,-5.653356 -1.037966,0.147767 -1.411499,0.689418 -1.562856,2.266255 -0.271063,2.82393 1.093608,4.492077 2.770906,3.387101 z M 69.148981,30.9375 c 0.197869,-0.515625 0.178706,-1.409309 -0.04256,-1.985963 -0.357625,-0.931968 -0.5065,-0.944297 -1.339832,-0.110964 -0.525931,0.525935 -0.760875,1.397778 -0.535168,1.985964 0.499343,1.301259 1.439937,1.355688 1.917581,0.110963 z m 28.632275,2.643951 C 97.594275,33.094189 97.524812,30.615447 97.626894,28.073138 97.780175,24.255722 98.002969,23.414411 98.90625,23.242051 99.724481,23.085918 100,23.449097 100,24.68379 c 0,1.284843 0.24229,1.575051 1.09375,1.310095 1.34212,-0.417637 2.28567,0.17279 2.90628,1.818615 0.4419,1.171879 0.52818,1.142584 1.38063,-0.46875 0.98906,-1.869593 2.57274,-2.268166 3.13988,-0.790232 0.31518,0.821357 0.5093,0.821357 1.68195,0 1.80773,-1.266184 3.31055,-1.16548 4.79751,0.321482 1.91524,1.915244 1.60718,3.611128 -0.78125,4.300762 -1.50492,0.434532 -1.67643,0.601108 -0.66189,0.64287 1.76029,0.07246 2.30119,0.959897 1.16155,1.905712 -1.54982,1.286239 -4.25352,0.504967 -5.69837,-1.646628 l -1.33284,-1.984785 -1.04186,2.184791 c -1.55806,3.267309 -3.04949,2.668114 -4.89151,-1.965222 l -0.74542,-1.875 -0.34796,2.80691 c -0.24868,2.006117 -0.660531,2.86626 -1.443587,3.014941 -0.602607,0.114418 -1.248626,-0.190637 -1.435607,-0.6779 z m 25.992854,-0.961184 c -1.42797,-1.427968 -2.35507,-1.81499 -4.20898,-1.757061 -3.23958,0.101227 -3.37519,-1.71696 -0.14826,-1.987865 1.91839,-0.161053 2.34105,-0.496005 3.02999,-2.40123 0.91181,-2.521556 4.20767,-4.32182 6.74593,-3.684757 2.16812,0.544164 1.63421,2.46372 -0.76063,2.734699 C 126.03276,25.795547 125,26.672227 125,28.4375 c 0,1.657338 1.11913,2.718452 3.55379,3.369582 2.60712,0.69725 2.23845,2.215759 -0.59481,2.449979 -1.91462,0.158278 -2.69503,-0.146959 -4.18487,-1.636794 z"
       id="path3540"
       inkscape:connector-curvature="0" />
    <path
       style="fill:#b9b9b9"
       d="m 18.442919,47.509445 c -2.6654,-1.756876 -4.956211,-5.066166 -7.305287,-10.553172 -1.7404057,-4.065266 -2.0440632,-5.521501 -2.0583607,-9.871184 -0.015406,-4.687285 0.1376662,-5.32215 1.8814527,-7.803255 1.044024,-1.485465 2.872149,-3.362456 4.0625,-4.171092 1.931029,-1.311797 2.602097,-1.425261 6.226776,-1.052824 5.155969,0.529776 8.636061,0.527226 13.781228,-0.01009 3.839644,-0.400984 4.217863,-0.323066 6.09375,1.255389 2.606567,2.193281 2.546306,3.924665 -0.253226,7.275485 -2.036361,2.437366 -2.222579,2.969451 -1.934635,5.527883 0.262355,2.331058 0.770575,3.23217 2.878248,5.103341 3.050886,2.708546 3.209222,4.125662 0.940308,8.415744 -3.294472,6.229212 -5.719357,7.584373 -10.869697,6.074595 -3.036583,-0.890147 -3.651363,-0.886906 -6.973633,0.03677 -4.496692,1.250192 -4.21228,1.260197 -6.469424,-0.22758 z m 7.457896,-2.485502 c 1.485464,-0.344476 3.656404,-0.344972 5.468837,-0.0013 4.683217,0.888153 7.341292,-0.251434 9.165718,-3.929589 0.810079,-1.633168 1.326921,-3.349732 1.14854,-3.814587 -0.178382,-0.464855 -1.464547,-1.439505 -2.858144,-2.165889 -2.325868,-1.21231 -3.258339,-1.296057 -11.362147,-1.020455 -4.855583,0.165133 -9.361702,0.585691 -10.013596,0.934575 -2.807611,1.502587 -2.25677,7.472178 0.86514,9.375726 2.201293,1.342214 3.883364,1.48002 7.585652,0.621469 z M 15.559129,27.266869 c 0.391702,-0.471972 2.465202,-1.331465 4.607778,-1.909987 3.998539,-1.079653 5.57904,-1.687345 10.458093,-4.021067 4.205526,-2.011564 6.875,-3.740074 6.875,-4.451629 0,-0.856552 -4.352622,-0.802535 -7.711009,0.0957 -2.285784,0.611354 -3.15201,0.560606 -5.334117,-0.3125 -3.403673,-1.36188 -5.565395,-1.313299 -8.014665,0.180116 -3.856494,2.351453 -5.768309,7.662166 -3.614913,10.041641 1.323433,1.462377 1.781168,1.525622 2.733833,0.37773 z M 39.556093,21.25 C 39.735878,20.5625 39.628056,20 39.316487,20 39.004919,20 38.75,20.5625 38.75,21.25 c 0,0.6875 0.107822,1.25 0.239606,1.25 0.131782,0 0.386702,-0.5625 0.566487,-1.25 z m 32.556101,15.341622 c -0.221744,-0.577854 -0.08458,-1.369239 0.304819,-1.758633 0.389393,-0.389394 0.704868,-1.565802 0.701056,-2.614239 l -0.0069,-1.90625 -1.591175,2.018866 c -1.400406,1.776823 -1.905068,1.997846 -4.209318,1.843547 -2.036594,-0.136377 -2.661532,-0.445986 -2.813488,-1.393866 -0.459675,-2.867418 -0.790856,-3.039892 -2.004646,-1.043978 -3.684497,6.058669 -12.057958,0.0829 -8.6933,-6.20402 1.755236,-3.279687 7.243745,-3.27847 8.979865,0.002 0.90195,1.704255 1.261806,1.396908 1.724144,-1.472541 0.274812,-1.705634 2.011631,-1.585502 2.259,0.15625 0.135587,0.954673 0.626356,1.40625 1.5283,1.40625 0.730718,0 2.095443,0.734698 3.032712,1.632663 l 1.704138,1.632662 0.432281,-2.882662 c 0.493225,-3.289049 2.165356,-4.10666 2.165356,-1.058788 0,1.003135 0.17305,2.274843 0.384556,2.826016 0.325469,0.848163 0.608963,0.75999 1.845157,-0.573883 1.834175,-1.979107 3.682,-2.00544 5.468356,-0.07793 l 1.388375,1.498086 1.80875,-1.555817 c 1.342894,-1.155112 2.260225,-1.465522 3.561706,-1.205225 1.253919,0.250783 1.920769,0.05074 2.342394,-0.702658 0.520343,-0.929799 0.779094,-0.951747 2.207568,-0.187249 1.554032,0.831692 2.285351,3.154776 0.993138,3.154776 -0.854419,0 -0.791687,2.708311 0.08299,3.582989 0.895318,0.895315 0.253981,2.667011 -0.965432,2.667011 -1.314175,0 -2.867556,-2.467802 -2.867556,-4.555581 0,-1.570309 -0.2003,-1.7544 -1.71875,-1.579683 -2.447219,0.281583 -2.7619,2.763411 -0.461287,3.638102 2.018993,0.767619 1.743681,2.11362 -0.48655,2.378773 -1.584176,0.188342 -3.7471,-1.310174 -4.304444,-2.982205 -0.187006,-0.561024 -0.813619,-0.595822 -2.421875,-0.134492 -1.394063,0.399888 -1.704157,0.6425 -0.867513,0.678718 1.750631,0.07578 2.271388,0.701954 1.428469,1.717612 -1.071869,1.291522 -3.567319,0.996305 -5.17595,-0.612325 l -1.451081,-1.451081 -0.551757,2.163794 c -0.303468,1.190086 -1.181118,2.578207 -1.950331,3.084714 -1.253281,0.825252 -1.44045,0.811776 -1.801737,-0.129724 z M 60.113721,30.3125 c 1.01248,-2.222151 -0.222366,-4.847931 -2.151017,-4.573927 -1.077954,0.153145 -1.445978,0.675805 -1.599098,2.271004 -0.346339,3.608162 2.389829,5.288425 3.750115,2.302923 z M 69.0625,30 c 0,-0.802083 -0.327694,-1.567565 -0.728212,-1.701071 C 67.479381,28.013961 66.6077,30.31186 67.204431,31.277399 67.881656,32.373169 69.0625,31.561354 69.0625,30 Z m 28.696381,3.523149 C 97.579094,33.054631 97.517612,30.593694 97.62225,28.054399 97.770706,24.451712 98.018444,23.4375 98.75,23.4375 c 0.515625,0 1.030881,0.659582 1.145013,1.465739 0.156607,1.106155 0.506607,1.387524 1.426677,1.146919 0.83031,-0.217129 1.54336,0.175962 2.23559,1.23243 l 1.01641,1.55125 1.3319,-1.67036 c 1.18531,-1.486518 1.42144,-1.562468 2.14547,-0.690067 0.73504,0.885665 0.95592,0.887028 2.28815,0.01411 1.69508,-1.110658 3.37422,-0.75448 5.02084,1.065018 1.3782,1.522897 0.67143,3.122245 -1.6692,3.777195 -1.4742,0.412507 -1.47608,0.421872 -0.0971,0.482964 1.59194,0.07053 1.93273,1.774503 0.46735,2.33682 -1.71629,0.658601 -4.08507,-0.408733 -5.28456,-2.381131 l -1.18469,-1.948064 -0.95153,2.277337 c -1.33886,3.204334 -2.67691,2.902619 -4.45219,-1.003912 l -1.49112,-3.28125 -0.036,2.292633 c -0.0198,1.260948 -0.20672,2.73751 -0.41538,3.28125 -0.465299,1.21256 -2.04068,1.299203 -2.486749,0.136767 z M 123.43732,32.23023 c -1.42295,-1.508762 -2.21895,-1.948606 -2.68429,-1.48326 -0.85939,0.859396 -4.04454,0.06504 -3.7141,-0.926271 0.13901,-0.41701 1.21368,-0.758199 2.38815,-0.758199 1.8703,0 2.22804,-0.26605 2.88141,-2.142924 1.05247,-3.02331 4.8237,-4.994892 7.16125,-3.743872 1.64975,0.882918 1.42771,1.740782 -0.56349,2.17709 -2.89122,0.63352 -3.29636,0.834353 -3.67533,1.821928 -0.70969,1.849424 0.33976,4.04018 2.12235,4.430461 3.34424,0.732191 3.4808,0.827329 2.64059,1.839713 -1.39272,1.678126 -4.34393,1.131385 -6.55654,-1.214666 z M 28.125,13.109531 c 0,-0.352258 0.644371,-0.885459 1.431936,-1.18489 C 30.95201,11.394234 33.07136,9.375 32.232991,9.375 c -0.231037,0 -1.275986,0.4426131 -2.32211,0.983585 -2.468357,1.276437 -2.936512,0.714624 -1.549964,-1.86004 1.069676,-1.9862688 5.717961,-5.2530001 6.442962,-4.5279988 0.190691,0.1906902 0.155746,1.6201489 -0.07766,3.1765744 C 34.434215,9.09438 33.713478,10.565368 32.415353,11.863493 30.584659,13.694187 28.125,14.40854 28.125,13.109531 Z"
       id="path3538"
       inkscape:connector-curvature="0" />
    <path
       style="fill:#aeaeae"
       d="m 17.209456,46.084456 c -3.037864,-3.037863 -2.777156,-4.005597 0.446794,-1.658478 2.349474,1.710478 2.944981,1.877516 5.15625,1.446314 1.375,-0.268128 5.109787,-0.427963 8.299526,-0.35519 3.241503,0.07395 6.35756,-0.166335 7.064695,-0.544782 1.925198,-1.030335 3.693334,-4.38523 3.695943,-7.012756 0.0019,-1.893945 -0.335114,-2.564505 -1.727538,-3.4375 -0.95143,-0.59651 -2.662859,-1.787689 -3.803175,-2.647064 -1.993615,-1.502447 -2.365519,-1.553879 -9.676376,-1.338205 -10.650676,0.314201 -12.272596,1.381596 -12.304472,8.097643 -0.01386,2.920249 -0.01683,2.924249 -1.11361,1.499047 -0.604843,-0.785959 -1.793901,-3.176584 -2.642353,-5.3125 -5.1146403,-12.875739 2.987932,-24.144534 14.540429,-20.222359 2.633783,0.894192 3.197089,0.894362 6.202457,0.0019 4.450538,-1.321668 8.500315,-0.840128 10.27374,1.221601 1.548386,1.800106 1.391638,4.144551 -0.384576,5.752002 -1.077875,0.975463 -1.115231,0.903442 -0.789812,-1.52274 0.328523,-2.449322 0.255623,-2.582545 -1.907827,-3.486492 -2.860751,-1.195298 -4.650756,-1.184344 -8.288555,0.05072 -2.662988,0.904107 -3.144115,0.904107 -5.511488,0 -6.584973,-2.514834 -11.789085,0.207543 -13.040819,6.821909 -0.483103,2.552797 0.385536,6.297322 1.407082,6.065639 0.44709,-0.101398 3.036505,-0.463178 5.754256,-0.803955 5.213039,-0.65366 12.557075,-2.986641 16.016597,-5.087995 1.135269,-0.689575 2.196993,-1.120905 2.359388,-0.958511 0.162394,0.162395 0.605005,2.092914 0.983581,4.290043 0.607597,3.526298 1.015793,4.303238 3.480725,6.625037 l 2.792406,2.630259 -1.030092,3.101317 c -0.566551,1.705724 -2.190949,4.42012 -3.609775,6.031991 -2.55038,2.897385 -2.612115,2.925444 -5.43502,2.470212 -3.80644,-0.613839 -7.776671,-0.61657 -11.739631,-0.0081 -3.172294,0.487092 -3.318269,0.441475 -5.46875,-1.709006 z M 71.875,35.974386 c 0,-0.495339 0.28125,-1.074437 0.625,-1.286886 0.34375,-0.212449 0.658275,-1.98686 0.698944,-3.943136 0.04069,-1.956275 0.251612,-4.377411 0.46875,-5.380303 0.533675,-2.464812 1.954725,-2.878581 1.965837,-0.572394 0.005,0.973958 0.166838,2.360493 0.360319,3.081189 0.340188,1.267162 0.410431,1.25171 2.130894,-0.46875 2.207931,-2.207936 2.789237,-2.215059 4.925262,-0.06036 l 1.70385,1.71875 1.267781,-1.510416 c 0.895938,-1.06741 1.894432,-1.504213 3.404325,-1.489264 1.175094,0.01163 2.638651,-0.41594 3.252344,-0.950164 1.018569,-0.886664 1.234332,-0.852799 2.4757,0.38857 1.064619,1.06462 1.195531,1.524238 0.602938,2.11683 -0.969144,0.969144 -0.965638,2.689731 0.0087,4.249825 1.05585,1.690684 -0.107337,2.903392 -1.876606,1.956506 -1.251819,-0.669952 -2.332819,-3.42788 -1.727494,-4.407313 0.695319,-1.12505 -1.235419,-1.869947 -2.810912,-1.084477 -2.023713,1.008931 -1.950563,2.390365 0.180662,3.411835 2.118182,1.015218 2.195169,1.86218 0.214463,2.359305 -1.995394,0.500813 -4.014119,-0.648932 -4.493588,-2.559277 -0.412756,-1.644548 -0.888262,-1.89504 -1.845875,-0.972382 -0.326562,0.314642 -1.296875,0.698216 -2.15625,0.852386 -1.49465,0.268137 -1.485875,0.284005 0.202075,0.365423 1.319925,0.06367 1.712313,0.360725 1.557157,1.178863 -0.346957,1.829538 -3.381613,1.743236 -5.132457,-0.145961 l -1.514075,-1.633712 -0.441018,2.061712 C 75.679119,34.38473 75.19745,35.664062 74.8513,36.09375 73.988181,37.165179 71.875,37.080431 71.875,35.974386 Z M 54.873676,32.469831 C 53.18593,30.782084 53.008607,30.265694 53.319881,27.944967 53.978366,23.035601 59.015622,21.344419 62.091591,25 c 0.86774,1.03125 1.718672,1.875 1.890959,1.875 0.172287,0 0.401381,-0.914063 0.5091,-2.03125 0.233256,-2.419223 1.839844,-2.771077 2.371406,-0.519355 0.243132,1.029926 0.832963,1.546967 1.850256,1.621913 1.72475,0.127066 3.786688,2.387565 3.786688,4.151341 0,1.884074 -2.931337,4.475542 -4.566513,4.037058 C 67.179444,33.932506 66.070312,33.763228 65.46875,33.758534 64.672038,33.752318 64.375,33.240796 64.375,31.875 c 0,-2.128138 -0.964488,-2.509171 -1.564675,-0.618146 -0.421306,1.327417 -3.301307,3.118146 -5.014864,3.118146 -0.559139,0 -1.873941,-0.857326 -2.921785,-1.905169 z m 5.104334,-1.803743 c 0.927878,-1.733754 0.798332,-3.55046 -0.333914,-4.682706 C 58.130325,24.469611 56.25,25.772121 56.25,28.33449 c 0,3.271368 2.416286,4.782579 3.72801,2.331598 z M 69.0625,30 c 0,-0.802083 -0.351412,-1.575471 -0.780919,-1.718641 -0.958162,-0.319386 -1.677919,1.360052 -1.160618,2.708115 C 67.670781,32.422286 69.0625,31.713019 69.0625,30 Z m 29.10905,3.493588 C 97.058419,32.152349 97.59,23.4375 98.784944,23.4375 c 0.520187,0 0.9864,0.728761 1.100462,1.720203 0.168254,1.462507 0.418394,1.664864 1.669734,1.350797 1.15629,-0.290211 1.65798,-0.01412 2.34014,1.287811 l 0.8683,1.657217 0.72981,-1.601764 c 0.7256,-1.59251 2.23459,-2.124786 2.91279,-1.027443 0.20163,0.326247 1.1525,0.176449 2.20138,-0.3468 2.10697,-1.051092 3.8961,-0.447767 5.04649,1.701755 0.88754,1.6584 -0.19852,3.047636 -2.44932,3.133024 l -1.64223,0.0623 1.5625,0.434628 c 1.92908,0.536596 2.05581,2.183083 0.18849,2.448766 -2.03004,0.288835 -3.84975,-0.925994 -4.78006,-3.19115 l -0.8232,-2.004344 -0.76034,2.288482 c -0.64106,1.929456 -1.70908,3.024018 -2.95069,3.024018 -0.15046,0 -0.94817,-1.476563 -1.77267,-3.28125 l -1.49911,-3.28125 -0.0512,2.579722 c -0.0589,2.966284 -1.32038,4.528328 -2.504655,3.101366 z m 27.02114,0.264223 c -3.64623,-1.505465 -4.22867,-6.833885 -1.02266,-9.355729 1.54925,-1.218638 5.16163,-1.737087 6.03288,-0.865838 0.68458,0.684575 -0.88981,2.088756 -2.34194,2.088756 -1.84223,0 -2.86097,1.149442 -2.86097,3.22801 0,1.852394 1.45319,3.02199 3.75474,3.02199 0.9356,0 1.27465,0.328319 1.12949,1.09375 -0.23684,1.248882 -2.61082,1.648156 -4.69154,0.789061 z m -7.27602,-2.924478 c -0.22917,-0.229166 -0.41667,-0.791666 -0.41667,-1.25 0,-1.008372 2.87243,-1.122632 3.48069,-0.138456 0.71046,1.149551 -2.0514,2.401082 -3.06402,1.388456 z M 28.75,13.125 c 0,-0.34375 0.259671,-0.625 0.577047,-0.625 0.317375,0 1.48472,-0.763757 2.594099,-1.697238 1.771675,-1.4907657 1.928985,-1.5326814 1.293118,-0.344553 C 32.036299,12.659256 28.75,14.622373 28.75,13.125 Z M 28.434329,8.7561319 C 28.965865,7.7282544 30.508758,6.3220044 31.862981,5.631132 34.946361,4.0581084 35.132175,4.0650174 34.887219,5.7435811 34.765341,6.5787512 33.591315,7.7775869 31.875,8.8194538 28.037041,11.149238 27.204727,11.133919 28.434329,8.7561319 Z"
       id="path3536"
       inkscape:connector-curvature="0" />
    <path
       style="fill:#8f8f8f"
       d="M 42.5,36.911886 C 42.5,35.860349 42.78125,35 43.125,35 c 0.34375,0 0.625,0.686526 0.625,1.525614 0,0.839088 -0.28125,1.699437 -0.625,1.911886 C 42.760361,38.662859 42.5,38.027324 42.5,36.911886 Z m 29.797088,-0.44813 c -0.226182,-0.226185 -0.159244,-0.718372 0.148762,-1.09375 0.478719,-0.583444 1.094444,-5.202685 1.361456,-10.213756 0.04119,-0.773438 0.416563,-1.40625 0.834113,-1.40625 0.527906,0 0.802556,1.690856 0.901537,5.550206 0.1133,4.417531 -0.06424,5.756792 -0.86995,6.5625 -1.089875,1.089877 -1.726131,1.250835 -2.375918,0.60105 z M 10.67115,33.734423 C 7.9989706,27.843437 9.3482225,20.36226 13.751012,16.657557 c 3.200192,-2.692784 6.070083,-3.130003 11.369808,-1.732156 3.29266,0.868467 4.248505,1.332093 3.426192,1.661853 -0.638467,0.256034 -2.745794,-0.02869 -4.787409,-0.646847 -5.598436,-1.695069 -9.59922,-0.06387 -11.501016,4.689181 -1.269131,3.171872 -1.317939,8.722499 -0.09096,10.344706 1.053791,1.393236 1.199881,3.299459 0.35523,4.635129 -0.454054,0.718009 -0.86362,0.30329 -1.851703,-1.875 z M 80,33.879222 c -1.666838,-0.519755 -3.125,-2.164337 -3.125,-3.524523 0,-2.141304 1.750894,-4.104699 3.660437,-4.104699 2.091975,0 3.214563,1.025832 3.214563,2.9375 0,1.189189 -0.332881,1.4375 -1.927081,1.4375 -2.212375,0 -2.257431,1.438174 -0.05519,1.762219 0.746488,0.109846 1.357269,0.428606 1.357269,0.708356 0,0.668619 -1.936531,1.154238 -3.125,0.783647 z m 7.697106,-0.176093 C 84.990138,32.696742 84.245444,29.504558 86.25,27.5 c 1.299525,-1.299522 4.375,-1.728001 4.375,-0.609531 0,0.352258 -0.703125,0.907797 -1.5625,1.234531 -0.964038,0.366527 -1.5625,1.083887 -1.5625,1.87293 0,0.757614 0.636863,1.569041 1.5625,1.990791 0.859375,0.391558 1.5625,0.917937 1.5625,1.169733 0,0.792096 -1.507869,1.072605 -2.927894,0.544675 z M 126.25,33.933607 c -2.24209,-0.819611 -3.75,-2.919945 -3.75,-5.223313 0,-3.242214 1.65616,-5.088102 4.65719,-5.190713 1.42311,-0.04866 2.51181,0.236027 2.67377,0.699169 C 129.99441,24.686149 129.56458,25 128.76099,25 126.30146,25 125,26.153873 125,28.33449 c 0,2.386926 0.94509,3.54051 2.90061,3.54051 1.71438,0 2.57437,1.190341 1.39822,1.935307 -0.9554,0.605133 -1.65351,0.633366 -3.04883,0.1233 z M 54.642322,32.450079 c -1.866074,-2.06199 -1.584183,-5.981996 0.562985,-7.828912 2.225774,-1.914531 4.446335,-1.901343 6.385602,0.03793 1.933641,1.933641 2.037041,5.157937 0.238728,7.444122 -1.671174,2.124555 -5.415015,2.305235 -7.187315,0.346866 z M 59.875,31.125 c 1.041332,-1.041332 0.939984,-4.564271 -0.157507,-5.475109 -1.306145,-1.084004 -3.399179,-0.202189 -3.857863,1.625354 -0.814209,3.244066 1.96065,5.904475 4.01537,3.849755 z m 4.945481,2.237147 C 64.575469,33.117132 64.375,30.692919 64.375,27.975006 c 0,-4.369092 0.126731,-4.917507 1.09375,-4.733199 0.601562,0.114654 1.181456,0.82188 1.288656,1.571612 0.145982,1.020966 0.691519,1.411588 2.17325,1.556115 2.666588,0.260097 3.806075,2.430662 2.702275,5.14747 -0.686662,1.690101 -1.115375,1.942697 -3.573618,2.10556 -1.536344,0.101784 -2.993819,-0.0154 -3.238832,-0.260417 z M 69.601019,30.9375 c 0.537425,-1.400508 -0.244613,-2.900136 -1.398413,-2.681588 -0.578156,0.109511 -1.100231,0.92981 -1.212868,1.905682 -0.156075,1.352201 0.06041,1.713406 1.026881,1.713406 0.673556,0 1.386531,-0.421875 1.5844,-0.9375 z M 93.25,33 C 92.8375,32.5875 92.5,31.338474 92.5,30.224386 92.5,29.110297 92.217987,28.024479 91.873312,27.811456 90.907931,27.214818 92.343394,25 93.695463,25 c 1.651725,0 2.963937,1.715599 2.028049,2.651489 -0.887506,0.887503 -0.955243,4.006523 -0.09851,4.536011 0.34375,0.212449 0.625,0.650922 0.625,0.974386 0,0.841028 -2.111,0.727115 -3,-0.161886 z m 4.935406,-4.25 c 0.05,-2.75 0.302925,-5 0.562106,-5 C 99.402056,23.75 100,27.069472 100,30.703125 100,33.016438 99.770625,33.75 99.047269,33.75 c -0.781819,0 -0.936425,-0.896959 -0.861863,-5 z m 4.292384,2.135684 C 101.00664,27.453643 100.93127,26.25 102.1875,26.25 c 0.51563,0 0.9375,0.227495 0.9375,0.505544 0,0.278049 0.39715,1.048677 0.88255,1.712506 0.85169,1.164759 0.90984,1.147082 1.66282,-0.505544 0.81818,-1.795697 2.45463,-2.346923 2.45463,-0.826822 0,1.841159 -2.48064,6.614316 -3.4375,6.614316 -0.57112,0 -1.49559,-1.19833 -2.20971,-2.864316 z m 7.25435,1.882173 C 107.635,30.670718 109.25561,26.25 112.12155,26.25 c 1.96021,0 3.50345,1.248573 3.50345,2.83449 0,1.304264 -0.29553,1.54051 -1.92708,1.54051 -2.21758,0 -2.25506,1.438615 -0.0459,1.763434 0.75161,0.110513 1.20517,0.462076 1.00791,0.78125 -0.57755,0.934488 -3.85901,0.666904 -4.92774,-0.401827 z m 7.92411,-2.924107 c 0.14323,-0.429688 0.77604,-0.78125 1.40625,-0.78125 0.63021,0 1.26302,0.351562 1.40625,0.78125 0.16493,0.494792 -0.35069,0.78125 -1.40625,0.78125 -1.05556,0 -1.57118,-0.286458 -1.40625,-0.78125 z M 40.08701,16.854207 c -0.811519,-0.676064 -2.358394,-1.233514 -3.4375,-1.238778 -2.996802,-0.01462 -4.129922,-1.008139 -1.746767,-1.531568 2.376879,-0.52205 4.334078,0.02231 6.191007,1.72192 2.478128,2.26818 1.580053,3.203441 -1.00674,1.048426 z"
       id="path3534"
       inkscape:connector-curvature="0" />
    <path
       style="fill:#606060"
       d="M 73.103013,35.041088 C 73.458856,34.376187 73.75,32.243374 73.75,30.301505 c 0,-4.338378 1.462994,-4.517864 1.748175,-0.214473 0.222069,3.351069 -0.721106,6.162968 -2.067194,6.162968 -0.770243,0 -0.839106,-0.253844 -0.327968,-1.208912 z M 55.284091,32.215909 C 52.137897,29.069715 54.182028,23.75 58.537165,23.75 c 4.604579,0 5.972448,7.348946 1.727847,9.282916 -2.307453,1.051346 -3.270541,0.893373 -4.980921,-0.817007 z m 5.259874,-1.634218 c 1.118829,-2.000165 0.534626,-4.669957 -1.228337,-5.613466 -2.700979,-1.445519 -4.81774,3.007924 -3.02334,6.360791 0.898646,1.679136 3.112014,1.290088 4.251677,-0.747325 z m 6.174785,2.72065 C 65.008831,33.043309 65,33.016311 65,28.046601 c 0,-3.171096 0.228244,-4.854309 0.625,-4.609101 0.34375,0.212449 0.625,0.915574 0.625,1.5625 0,0.646926 0.282013,1.350521 0.626688,1.563544 0.413918,0.255815 0.395874,0.818602 -0.05313,1.657599 C 66.009619,29.741984 66.574169,32.5 67.699406,32.5 69.847,32.5 70.6358,29.863475 69.021788,28.080011 67.582312,26.48941 69.05335,25.928329 70.602206,27.477203 71.302244,28.177241 71.875,29.3125 71.875,30 c 0,1.255076 -2.091925,3.831523 -2.96875,3.656355 -0.257813,-0.05151 -1.242188,-0.210811 -2.1875,-0.354014 z M 78.889069,32.77706 c -1.604232,-1.123644 -1.881025,-4.090719 -0.489363,-5.245693 1.21915,-1.011805 4.1338,-0.588137 4.95265,0.719905 0.832363,1.329636 0.204238,1.995444 -1.917481,2.032514 -2.024781,0.03538 -2.68035,1.545981 -0.875725,2.017901 1.429169,0.373736 1.813069,1.448313 0.517419,1.448313 -0.439144,0 -1.423519,-0.437823 -2.1875,-0.97294 z m 2.550193,-4.331001 c 0.06778,-0.339042 -0.36895,-0.711227 -0.970512,-0.827077 -0.684125,-0.131751 -1.09375,0.174794 -1.09375,0.818518 0,1.087368 1.847062,1.095027 2.064262,0.0086 z m 5.220107,4.160978 C 85.449438,31.27008 85.302594,28.697407 86.375,27.625 c 0.4125,-0.4125 1.467187,-0.732172 2.34375,-0.710384 1.5016,0.03733 1.517444,0.07045 0.274031,0.57285 C 86.681763,28.421235 86.763763,32.5 89.093556,32.5 89.5921,32.5 90,32.78125 90,33.125 c 0,1.045425 -2.240113,0.698096 -3.340631,-0.517963 z m 7.25075,0.630148 C 92.646156,32.43451 91.8901,27.090227 92.856344,25.788502 c 0.769244,-1.036318 0.880606,-1.038587 1.895519,-0.03862 0.89035,0.87724 0.938649,1.230602 0.27715,2.027658 -0.775338,0.934223 -0.682444,2.612833 0.269981,4.87871 0.486406,1.15719 -0.09711,1.401264 -1.388875,0.580935 z m 8.995351,-2.143236 c -0.56676,-1.484032 -1.03047,-3.0404 -1.03047,-3.458595 0,-1.456018 1.13217,-0.747583 1.78135,1.114646 0.35949,1.03125 0.82351,1.875 1.03115,1.875 0.20764,0 0.67166,-0.84375 1.03115,-1.875 0.3595,-1.03125 0.93786,-1.875 1.28524,-1.875 1.20988,0 -1.0119,6.249557 -2.37967,6.693693 -0.37856,0.122923 -1.15199,-0.990712 -1.71875,-2.474744 z m 7.93074,2.031907 c -3.22644,-1.301072 -1.91495,-6.250856 1.65621,-6.250856 1.2241,0 2.07176,0.435662 2.53623,1.303529 0.84885,1.586095 0.44572,2.067673 -1.76228,2.105257 -1.09497,0.01864 -1.76078,0.41251 -1.89746,1.122464 -0.12569,0.652848 0.17095,1.09375 0.73588,1.09375 0.52054,0 1.12026,0.28125 1.33271,0.625 0.46364,0.750176 -0.74212,0.750573 -2.60129,8.75e-4 z M 113.125,28.4375 c 0,-0.515625 -0.42187,-0.9375 -0.9375,-0.9375 -0.51562,0 -0.9375,0.421875 -0.9375,0.9375 0,0.515625 0.42188,0.9375 0.9375,0.9375 0.51563,0 0.9375,-0.421875 0.9375,-0.9375 z m 11.89612,4.514107 c -1.93373,-0.978503 -2.84254,-3.905115 -1.94489,-6.263088 0.68043,-1.787365 4.52581,-3.960497 5.71148,-3.227715 C 129.68034,24.012483 128.85915,25 127.50776,25 c -3.03825,0 -4.30304,4.734422 -1.74369,6.52706 0.76398,0.535117 1.90558,0.97294 2.53688,0.97294 0.6313,0 0.974,0.28125 0.76155,0.625 -0.52131,0.843494 -2.17173,0.772684 -4.04138,-0.173393 z M 98.125,30 c 0,-2.361111 0.229169,-3.125 0.9375,-3.125 0.708331,0 0.9375,0.763889 0.9375,3.125 0,2.361111 -0.229169,3.125 -0.9375,3.125 -0.708331,0 -0.9375,-0.763889 -0.9375,-3.125 z"
       id="path3532"
       inkscape:connector-curvature="0" />
  </g>
</svg>
