<?xml version="1.0" encoding="UTF-8" standalone="no"?>
<!-- Created with Inkscape (http://www.inkscape.org/) -->

<svg
   xmlns:dc="http://purl.org/dc/elements/1.1/"
   xmlns:cc="http://creativecommons.org/ns#"
   xmlns:rdf="http://www.w3.org/1999/02/22-rdf-syntax-ns#"
   xmlns:svg="http://www.w3.org/2000/svg"
   xmlns="http://www.w3.org/2000/svg"
   xmlns:xlink="http://www.w3.org/1999/xlink"
   xmlns:sodipodi="http://sodipodi.sourceforge.net/DTD/sodipodi-0.dtd"
   xmlns:inkscape="http://www.inkscape.org/namespaces/inkscape"
   id="svg3485"
   version="1.1"
   inkscape:version="0.91 r13725"
   width="140.625"
   height="56.25"
   viewBox="0 0 140.625 56.25"
   sodipodi:docname="Swift.svg">
  <metadata
     id="metadata3491">
    <rdf:RDF>
      <cc:Work
         rdf:about="">
        <dc:format>image/svg+xml</dc:format>
        <dc:type
           rdf:resource="http://purl.org/dc/dcmitype/StillImage" />
        <dc:title></dc:title>
      </cc:Work>
    </rdf:RDF>
  </metadata>
  <defs
     id="defs3489" />
  <sodipodi:namedview
     pagecolor="#ffffff"
     bordercolor="#666666"
     borderopacity="1"
     objecttolerance="10"
     gridtolerance="10"
     guidetolerance="10"
     inkscape:pageopacity="0"
     inkscape:pageshadow="2"
     inkscape:window-width="640"
     inkscape:window-height="480"
     id="namedview3487"
     showgrid="false"
     inkscape:zoom="1.8631111"
     inkscape:cx="70.3125"
     inkscape:cy="28.125"
     inkscape:window-x="0"
     inkscape:window-y="0"
     inkscape:window-maximized="0"
     inkscape:current-layer="svg3485" />
  <image
     width="140.625"
     height="56.25"
     preserveAspectRatio="none"
     style="image-rendering:optimizeQuality"
     xlink:href="file:///media/havoc/USB%20DISK/pics/Language%20icons/Swift.png"
     id="image3493"
     x="0"
     y="0"
     sodipodi:absref="/media/havoc/USB DISK/pics/Language icons/Swift.png" />
  <g
     id="g3636">
    <path
       style="fill:#fcfbfb"
       d="M 0,28.125 0,0 l 70.3125,0 70.3125,0 0,28.125 0,28.125 -70.3125,0 L 0,56.25 0,28.125 Z"
       id="path3652"
       inkscape:connector-curvature="0" />
    <path
       style="fill:#eba195"
       d="M 14.396643,41.683474 C 13.159131,41.257245 11.618751,40.027234 10.802893,38.813823 9.4795469,36.845637 9.375,36.028854 9.375,27.658279 9.375,13.067177 9.9479475,12.5 24.6875,12.5 c 14.790087,0 15,0.210626 15,15.050952 0,9.027235 -0.110345,10.007329 -1.30854,11.622563 -0.719697,0.970192 -2.266572,2.099673 -3.4375,2.509959 -2.796172,0.97976 -17.700184,0.97976 -20.544817,0 z m 16.709765,-7.031321 2.668908,-0.410862 -0.385867,-3.214395 c -0.583755,-4.862867 -1.402978,-7.628648 -2.739545,-9.248982 l -1.208778,-1.465414 0.0471,3.013586 c 0.06253,4.00095 -0.701014,4.685134 -3.380495,3.029123 C 24.151826,25.146393 21.25,25.0671 21.25,26.222471 c 0,0.248425 1.00077,1.362362 2.223934,2.475416 2.935421,2.671174 2.150185,3.680267 -3.058101,3.929913 l -3.853333,0.1847 2.5,1.405146 c 2.568533,1.443666 4.934143,1.52901 12.043908,0.434507 z M 52.8125,37.707781 c -2.386046,-0.519617 -4.173859,-1.7352 -5.053321,-3.435892 -1.123317,-2.172256 -1.117765,-2.227898 0.29793,-2.985555 0.94032,-0.503244 1.661008,-0.252065 3.523441,1.22801 2.728571,2.168395 3.978516,2.308006 6.00103,0.670274 1.398796,-1.132676 1.417936,-1.24798 0.394841,-2.378487 -0.59137,-0.653457 -2.470743,-1.545765 -4.176383,-1.982908 C 44.673819,26.484243 45.800985,16.875 55.201566,16.875 c 2.646857,0 3.334757,0.286323 5.221954,2.17352 1.241446,1.241446 2.082967,2.64855 1.962365,3.28125 -0.328098,1.721223 -2.567979,1.659746 -4.236466,-0.116278 -2.257529,-2.403028 -6.674516,-1.940103 -6.176227,0.647304 0.149322,0.775371 1.493779,1.586729 4.138176,2.497324 5.220738,1.797754 6.388632,2.929758 6.388632,6.192301 0,3.032388 -1.659412,4.991511 -5.052044,5.964505 -2.206145,0.632714 -2.549971,0.647019 -4.635456,0.192855 z M 66.693456,37.067069 C 65.782581,35.532974 63.02995,24.274191 63.357237,23.421294 c 0.233757,-0.609172 0.935225,-0.929683 1.770301,-0.80888 1.116943,0.16158 1.551431,0.891702 2.257662,3.793836 C 67.866194,28.382813 68.452906,30 68.689006,30 c 0.2361,0 0.8386,-1.617187 1.338888,-3.59375 0.851018,-3.362269 1.02895,-3.59375 2.762418,-3.59375 1.690519,0 1.938575,0.284553 2.831994,3.248664 1.311613,4.351552 1.674569,4.548863 2.4754,1.345675 0.919882,-3.679397 1.481444,-4.559226 3.059875,-4.794058 1.791244,-0.266494 1.758306,1.196879 -0.185987,8.263768 -1.713544,6.228173 -2.089444,6.81718 -4.1611,6.520117 -1.155007,-0.165622 -1.662,-0.885479 -2.435332,-3.45783 -0.537162,-1.786765 -1.142381,-3.414387 -1.344931,-3.616937 -0.20255,-0.20255 -0.8969,1.259349 -1.543,3.248664 -1.003475,3.08964 -1.416694,3.644938 -2.834456,3.809006 -0.91285,0.105637 -1.794544,-0.03499 -1.959319,-0.3125 z M 84.036581,36.720333 C 83.853525,36.243297 83.784469,32.918884 83.883125,29.332747 84.061681,22.842316 84.069644,22.8125 85.625,22.8125 l 1.5625,0 0,7.1875 c 0,6.982093 -0.04025,7.193218 -1.409044,7.387586 -0.781193,0.11093 -1.55735,-0.186388 -1.741875,-0.667253 z M 90.75,36.75 C 90.288725,36.288722 90,34.028749 90,30.879368 c 0,-3.975116 -0.209725,-5.201111 -0.9375,-5.480384 -1.302475,-0.499807 -1.170294,-1.79686 0.3125,-3.066466 0.6875,-0.588656 1.25,-1.474822 1.25,-1.969258 0,-1.480319 1.842269,-2.86326 3.814256,-2.86326 2.418969,0 3.175231,1.751527 1.295231,2.999799 C 94.030037,21.631512 93.989213,22.5 95.640469,22.5 c 0.761106,0 1.493037,-0.598547 1.83645,-1.501788 0.314037,-0.825983 0.844193,-1.670646 1.178125,-1.877028 1.028144,-0.635427 2.594956,0.322278 2.594956,1.586154 0,0.703425 0.64551,1.444024 1.5625,1.792662 0.85938,0.326734 1.5625,1.029859 1.5625,1.5625 0,0.532641 -0.70312,1.235766 -1.5625,1.5625 -1.40245,0.533209 -1.5625,0.942422 -1.5625,3.994902 0,2.962654 0.21439,3.557012 1.66393,4.612922 2.24561,1.635818 1.61883,3.267176 -1.25529,3.267176 -2.993515,0 -3.797184,-1.316358 -4.15864,-6.811562 -0.285456,-4.339829 -0.434188,-4.76822 -1.71875,-4.950657 -1.357638,-0.192815 -1.40625,-0.02713 -1.40625,4.792633 0,2.745793 -0.170713,5.437229 -0.379369,5.980969 C 93.546794,37.681044 91.808819,37.808819 90.75,36.75 Z M 83.992838,20.356336 c -0.622294,-1.62167 0.249924,-2.961991 1.785618,-2.743922 1.032956,0.146682 1.409044,0.617131 1.409044,1.762586 0,1.145455 -0.376088,1.615904 -1.409044,1.762586 -0.845175,0.120015 -1.559743,-0.192625 -1.785618,-0.78125 z"
       id="path3650"
       inkscape:connector-curvature="0" />
    <path
       style="fill:#ed8879"
       d="m 15.553769,41.468385 c -0.898552,-0.156752 -2.445427,-1.131416 -3.4375,-2.165917 L 10.3125,37.421556 10.134473,27.929528 c -0.1620336,-8.639331 -0.06375,-9.675901 1.094038,-11.538857 0.699635,-1.125755 2.041854,-2.339502 2.982709,-2.697214 1.012019,-0.38477 5.756716,-0.569845 11.617785,-0.453172 l 9.907139,0.197215 1.506928,1.753603 C 38.705926,16.893416 38.75,17.251023 38.75,27.41792 l 0,10.473216 -1.907969,1.82795 -1.907969,1.82795 -8.873281,0.103177 c -4.880305,0.05675 -9.60846,-0.02508 -10.507012,-0.181828 z m 16.848407,-5.970668 c 2.614378,-0.02287 2.699571,-0.08446 2.305875,-1.666981 -0.22484,-0.90378 -0.661007,-3.391809 -0.969258,-5.528955 -0.64015,-4.438228 -1.663465,-6.704127 -4.02352,-8.909174 l -1.653494,-1.544893 0.43042,4.201143 c 0.516949,5.045722 0.123477,5.221229 -4.431697,1.976738 -2.454746,-1.74843 -3.166148,-2.016395 -3.324637,-1.252299 -0.156892,0.756396 -0.468937,0.829049 -1.40625,0.327415 -2.187723,-1.170834 -1.340527,0.580408 1.978523,4.089814 4.018025,4.248469 3.692996,4.970662 -2.021471,4.491582 C 16.929001,31.484448 15,31.568463 15,31.868805 c 0,0.649249 3.014169,2.867086 5.090724,3.745774 0.809477,0.342527 3.299901,0.4617 5.534276,0.264829 2.234375,-0.196871 5.284104,-0.368632 6.777176,-0.381691 z M 52.8125,37.707781 c -2.386046,-0.519617 -4.173859,-1.7352 -5.053321,-3.435892 -1.123317,-2.172256 -1.117765,-2.227898 0.29793,-2.985555 0.94032,-0.503244 1.661008,-0.252065 3.523441,1.22801 2.728571,2.168395 3.978516,2.308006 6.00103,0.670274 1.398796,-1.132676 1.417936,-1.24798 0.394841,-2.378487 -0.59137,-0.653457 -2.470743,-1.545765 -4.176383,-1.982908 C 44.673819,26.484243 45.800985,16.875 55.201566,16.875 c 2.646857,0 3.334757,0.286323 5.221954,2.17352 1.241446,1.241446 2.082967,2.64855 1.962365,3.28125 -0.328098,1.721223 -2.567979,1.659746 -4.236466,-0.116278 -2.257529,-2.403028 -6.674516,-1.940103 -6.176227,0.647304 0.149322,0.775371 1.493779,1.586729 4.138176,2.497324 5.220738,1.797754 6.388632,2.929758 6.388632,6.192301 0,3.032388 -1.659412,4.991511 -5.052044,5.964505 -2.206145,0.632714 -2.549971,0.647019 -4.635456,0.192855 z M 66.693456,37.067069 C 65.782581,35.532974 63.02995,24.274191 63.357237,23.421294 c 0.233757,-0.609172 0.935225,-0.929683 1.770301,-0.80888 1.116943,0.16158 1.551431,0.891702 2.257662,3.793836 C 67.866194,28.382813 68.452906,30 68.689006,30 c 0.2361,0 0.8386,-1.617187 1.338888,-3.59375 0.851018,-3.362269 1.02895,-3.59375 2.762418,-3.59375 1.690519,0 1.938575,0.284553 2.831994,3.248664 1.311613,4.351552 1.674569,4.548863 2.4754,1.345675 0.919882,-3.679397 1.481444,-4.559226 3.059875,-4.794058 1.791244,-0.266494 1.758306,1.196879 -0.185987,8.263768 -1.713544,6.228173 -2.089444,6.81718 -4.1611,6.520117 -1.155007,-0.165622 -1.662,-0.885479 -2.435332,-3.45783 -0.537162,-1.786765 -1.142381,-3.414387 -1.344931,-3.616937 -0.20255,-0.20255 -0.8969,1.259349 -1.543,3.248664 -1.003475,3.08964 -1.416694,3.644938 -2.834456,3.809006 -0.91285,0.105637 -1.794544,-0.03499 -1.959319,-0.3125 z M 84.036581,36.720333 C 83.853525,36.243297 83.784469,32.918884 83.883125,29.332747 84.061681,22.842316 84.069644,22.8125 85.625,22.8125 l 1.5625,0 0,7.1875 c 0,6.982093 -0.04025,7.193218 -1.409044,7.387586 -0.781193,0.11093 -1.55735,-0.186388 -1.741875,-0.667253 z M 90.75,36.75 C 90.288725,36.288722 90,34.028749 90,30.879368 c 0,-3.975116 -0.209725,-5.201111 -0.9375,-5.480384 -1.302475,-0.499807 -1.170294,-1.79686 0.3125,-3.066466 0.6875,-0.588656 1.25,-1.474822 1.25,-1.969258 0,-1.480319 1.842269,-2.86326 3.814256,-2.86326 2.418969,0 3.175231,1.751527 1.295231,2.999799 C 94.030037,21.631512 93.989213,22.5 95.640469,22.5 c 0.761106,0 1.493037,-0.598547 1.83645,-1.501788 0.314037,-0.825983 0.844193,-1.670646 1.178125,-1.877028 1.028144,-0.635427 2.594956,0.322278 2.594956,1.586154 0,0.703425 0.64551,1.444024 1.5625,1.792662 0.85938,0.326734 1.5625,1.029859 1.5625,1.5625 0,0.532641 -0.70312,1.235766 -1.5625,1.5625 -1.40245,0.533209 -1.5625,0.942422 -1.5625,3.994902 0,2.962654 0.21439,3.557012 1.66393,4.612922 2.24561,1.635818 1.61883,3.267176 -1.25529,3.267176 -2.993515,0 -3.797184,-1.316358 -4.15864,-6.811562 -0.285456,-4.339829 -0.434188,-4.76822 -1.71875,-4.950657 -1.357638,-0.192815 -1.40625,-0.02713 -1.40625,4.792633 0,2.745793 -0.170713,5.437229 -0.379369,5.980969 C 93.546794,37.681044 91.808819,37.808819 90.75,36.75 Z M 83.992838,20.356336 c -0.622294,-1.62167 0.249924,-2.961991 1.785618,-2.743922 1.032956,0.146682 1.409044,0.617131 1.409044,1.762586 0,1.145455 -0.376088,1.615904 -1.409044,1.762586 -0.845175,0.120015 -1.559743,-0.192625 -1.785618,-0.78125 z"
       id="path3648"
       inkscape:connector-curvature="0" />
    <path
       style="fill:#a2a2a2"
       d="M 14.047351,40.377536 C 11.089539,39.088819 10.625,37.245513 10.625,26.797515 l 0,-9.393669 1.826923,-1.826923 1.826923,-1.826923 10.564131,0 c 10.546449,0 10.566667,0.0027 12.079327,1.611922 1.429968,1.521254 1.52751,2.108125 1.734119,10.433513 0.255563,10.297991 -0.332829,13.121567 -3.024384,14.513424 -2.412509,1.247558 -18.759592,1.29957 -21.584688,0.06868 z m 15.578095,-4.454387 c 1.750316,-0.731329 2.579935,-0.790314 3.580926,-0.2546 1.969951,1.054286 2.751367,-0.09893 1.797292,-2.652446 -0.427148,-1.143232 -0.879203,-3.416412 -1.004568,-5.051512 -0.125364,-1.6351 -0.767825,-4.025725 -1.427692,-5.3125 -1.319407,-2.572917 -4.224832,-5.581996 -4.817479,-4.98935 -0.206802,0.206803 -0.06556,1.823551 0.31387,3.592774 1.097417,5.117077 0.304932,5.555384 -4.000161,2.212408 C 20.116281,20.399632 19.375,20.102112 19.375,21.58449 c 0,0.754946 -0.257716,0.821564 -1.208912,0.3125 C 17.501187,21.541146 16.788167,21.25 16.581599,21.25 c -0.781845,0 1.224198,2.898162 4.140177,5.981379 1.665523,1.761045 3.028224,3.363315 3.028224,3.560601 0,0.901154 -3.725836,1.030503 -6.410459,0.222551 -3.521688,-1.059873 -4.274087,-0.392259 -2.056799,1.82503 3.663009,3.663008 9.798781,4.98216 14.342704,3.083588 z M 52.8125,37.707781 c -2.386046,-0.519617 -4.173859,-1.7352 -5.053321,-3.435892 -1.123317,-2.172256 -1.117765,-2.227898 0.29793,-2.985555 0.94032,-0.503244 1.661008,-0.252065 3.523441,1.22801 2.728571,2.168395 3.978516,2.308006 6.00103,0.670274 1.398796,-1.132676 1.417936,-1.24798 0.394841,-2.378487 -0.59137,-0.653457 -2.470743,-1.545765 -4.176383,-1.982908 C 44.673819,26.484243 45.800985,16.875 55.201566,16.875 c 2.646857,0 3.334757,0.286323 5.221954,2.17352 1.241446,1.241446 2.082967,2.64855 1.962365,3.28125 -0.328098,1.721223 -2.567979,1.659746 -4.236466,-0.116278 -2.257529,-2.403028 -6.674516,-1.940103 -6.176227,0.647304 0.149322,0.775371 1.493779,1.586729 4.138176,2.497324 5.220738,1.797754 6.388632,2.929758 6.388632,6.192301 0,3.032388 -1.659412,4.991511 -5.052044,5.964505 -2.206145,0.632714 -2.549971,0.647019 -4.635456,0.192855 z M 66.693456,37.067069 C 65.782581,35.532974 63.02995,24.274191 63.357237,23.421294 c 0.233757,-0.609172 0.935225,-0.929683 1.770301,-0.80888 1.116943,0.16158 1.551431,0.891702 2.257662,3.793836 C 67.866194,28.382813 68.452906,30 68.689006,30 c 0.2361,0 0.8386,-1.617187 1.338888,-3.59375 0.851018,-3.362269 1.02895,-3.59375 2.762418,-3.59375 1.690519,0 1.938575,0.284553 2.831994,3.248664 1.311613,4.351552 1.674569,4.548863 2.4754,1.345675 0.919882,-3.679397 1.481444,-4.559226 3.059875,-4.794058 1.791244,-0.266494 1.758306,1.196879 -0.185987,8.263768 -1.713544,6.228173 -2.089444,6.81718 -4.1611,6.520117 -1.155007,-0.165622 -1.662,-0.885479 -2.435332,-3.45783 -0.537162,-1.786765 -1.142381,-3.414387 -1.344931,-3.616937 -0.20255,-0.20255 -0.8969,1.259349 -1.543,3.248664 -1.003475,3.08964 -1.416694,3.644938 -2.834456,3.809006 -0.91285,0.105637 -1.794544,-0.03499 -1.959319,-0.3125 z M 84.036581,36.720333 C 83.853525,36.243297 83.784469,32.918884 83.883125,29.332747 84.061681,22.842316 84.069644,22.8125 85.625,22.8125 l 1.5625,0 0,7.1875 c 0,6.982093 -0.04025,7.193218 -1.409044,7.387586 -0.781193,0.11093 -1.55735,-0.186388 -1.741875,-0.667253 z M 90.75,36.75 C 90.288725,36.288722 90,34.028749 90,30.879368 c 0,-3.975116 -0.209725,-5.201111 -0.9375,-5.480384 -1.302475,-0.499807 -1.170294,-1.79686 0.3125,-3.066466 0.6875,-0.588656 1.25,-1.474822 1.25,-1.969258 0,-1.480319 1.842269,-2.86326 3.814256,-2.86326 2.418969,0 3.175231,1.751527 1.295231,2.999799 C 94.030037,21.631512 93.989213,22.5 95.640469,22.5 c 0.761106,0 1.493037,-0.598547 1.83645,-1.501788 0.314037,-0.825983 0.844193,-1.670646 1.178125,-1.877028 1.028144,-0.635427 2.594956,0.322278 2.594956,1.586154 0,0.703425 0.64551,1.444024 1.5625,1.792662 0.85938,0.326734 1.5625,1.029859 1.5625,1.5625 0,0.532641 -0.70312,1.235766 -1.5625,1.5625 -1.40245,0.533209 -1.5625,0.942422 -1.5625,3.994902 0,2.962654 0.21439,3.557012 1.66393,4.612922 2.24561,1.635818 1.61883,3.267176 -1.25529,3.267176 -2.993515,0 -3.797184,-1.316358 -4.15864,-6.811562 -0.285456,-4.339829 -0.434188,-4.76822 -1.71875,-4.950657 -1.357638,-0.192815 -1.40625,-0.02713 -1.40625,4.792633 0,2.745793 -0.170713,5.437229 -0.379369,5.980969 C 93.546794,37.681044 91.808819,37.808819 90.75,36.75 Z M 83.992838,20.356336 c -0.622294,-1.62167 0.249924,-2.961991 1.785618,-2.743922 1.032956,0.146682 1.409044,0.617131 1.409044,1.762586 0,1.145455 -0.376088,1.615904 -1.409044,1.762586 -0.845175,0.120015 -1.559743,-0.192625 -1.785618,-0.78125 z"
       id="path3646"
       inkscape:connector-curvature="0" />
    <path
       style="fill:#ea6652"
       d="M 14.047351,40.377536 C 11.089539,39.088819 10.625,37.245513 10.625,26.797515 l 0,-9.393669 1.826923,-1.826923 1.826923,-1.826923 10.564131,0 c 10.546449,0 10.566667,0.0027 12.079327,1.611922 1.429968,1.521254 1.52751,2.108125 1.734119,10.433513 0.255563,10.297991 -0.332829,13.121567 -3.024384,14.513424 -2.412509,1.247558 -18.759592,1.29957 -21.584688,0.06868 z m 15.578095,-4.454387 c 1.750316,-0.731329 2.579935,-0.790314 3.580926,-0.2546 1.969951,1.054286 2.751367,-0.09893 1.797292,-2.652446 -0.427148,-1.143232 -0.879203,-3.416412 -1.004568,-5.051512 -0.125364,-1.6351 -0.767825,-4.025725 -1.427692,-5.3125 -1.319407,-2.572917 -4.224832,-5.581996 -4.817479,-4.98935 -0.206802,0.206803 -0.06556,1.823551 0.31387,3.592774 1.097417,5.117077 0.304932,5.555384 -4.000161,2.212408 C 20.116281,20.399632 19.375,20.102112 19.375,21.58449 c 0,0.754946 -0.257716,0.821564 -1.208912,0.3125 C 17.501187,21.541146 16.788167,21.25 16.581599,21.25 c -0.781845,0 1.224198,2.898162 4.140177,5.981379 1.665523,1.761045 3.028224,3.363315 3.028224,3.560601 0,0.901154 -3.725836,1.030503 -6.410459,0.222551 -3.521688,-1.059873 -4.274087,-0.392259 -2.056799,1.82503 3.663009,3.663008 9.798781,4.98216 14.342704,3.083588 z m 23.005207,0.960382 C 50.122524,36.290746 48.125,34.581503 48.125,33.028132 c 0,-1.577014 1.033542,-1.446387 3.238981,0.409368 2.247923,1.891503 5.052391,2.021127 6.761019,0.3125 2.414653,-2.414653 1.042287,-4.211454 -4.290595,-5.617562 -5.506698,-1.451937 -7.259863,-5.428134 -3.882482,-8.805515 1.457473,-1.457473 2.373806,-1.826451 4.53125,-1.824587 3.562961,0.0031 6.766827,1.92108 6.766827,4.050978 0,1.994919 -0.887561,1.998035 -2.616843,0.0092 -1.803879,-2.074643 -5.621168,-2.192271 -7.005493,-0.215871 -1.449414,2.069329 -0.275275,3.44206 3.960708,4.630617 4.66743,1.309614 6.286628,2.762121 6.286628,5.639444 0,2.402759 -2.397668,5.25831 -4.415147,5.25831 -0.609191,0 -1.482184,0.111298 -1.939986,0.247329 -0.457802,0.136031 -1.757948,0.02857 -2.889214,-0.238798 z m 14.321878,-1.369304 c -1.821943,-4.799356 -3.258762,-11.332998 -2.630425,-11.961336 1.045763,-1.045759 1.797169,0.118928 2.731832,4.234349 0.46195,2.034015 1.130137,3.794953 1.484862,3.913194 0.354731,0.118242 1.190463,-1.692547 1.857194,-4.023974 0.967837,-3.384361 1.459631,-4.23896 2.439369,-4.23896 0.9577,0 1.503156,0.868064 2.48425,3.953518 0.691412,2.174434 1.511725,4.002559 1.822918,4.0625 0.556388,0.107168 0.7378,-0.364005 2.183982,-5.672268 0.691793,-2.539264 2.548487,-3.796534 2.548487,-1.725724 0,1.272884 -2.503581,10.364777 -3.239231,11.76343 -1.123582,2.13622 -2.644325,0.899485 -3.955382,-3.216682 -0.691412,-2.170745 -1.535162,-3.909637 -1.875,-3.864204 -0.339837,0.04543 -1.180387,1.824516 -1.867887,3.953517 -1.367413,4.234514 -3.007875,5.396488 -3.984969,2.82264 z m 17.710394,0.584611 c -0.18575,-0.48406 -0.256206,-3.530885 -0.156575,-6.770724 0.145731,-4.738923 0.364444,-5.890614 1.11865,-5.890614 0.773331,0 0.9375,1.140046 0.9375,6.510417 0,4.651316 -0.223,6.584749 -0.780919,6.770724 -0.429506,0.143168 -0.9329,-0.135743 -1.118656,-0.619803 z m 6.341444,-0.212455 C 90.795713,35.342643 90.625,32.948202 90.625,30.565402 c 0,-2.3828 -0.339081,-4.875314 -0.753506,-5.53892 -0.61515,-0.985008 -0.557769,-1.42285 0.3125,-2.384483 0.5863,-0.647858 1.066006,-1.591716 1.066006,-2.097462 0,-1.320669 1.2868,-2.419537 2.833331,-2.419537 2.032631,0 2.373732,0.775935 0.847269,1.927349 -1.751706,1.321312 -1.180156,3.072651 1.002756,3.072651 1.129007,0 1.771825,-0.458287 2.191644,-1.5625 0.724931,-1.906706 2.5,-2.087045 2.5,-0.253988 0,0.782885 0.50213,1.43982 1.25,1.635395 0.6875,0.179785 1.25,0.683152 1.25,1.118593 0,0.435441 -0.5625,0.938808 -1.25,1.118593 -1.07748,0.281768 -1.25,0.85251 -1.25,4.135394 0,2.97518 0.27351,4.082023 1.25,5.058513 1.65795,1.657952 1.57848,2.5 -0.23597,2.5 -2.322736,0 -3.174605,-1.651257 -3.51403,-6.811562 l -0.3125,-4.750938 -1.875,0 -1.875,0 -0.158956,4.375 c -0.08743,2.40625 -0.303725,5.007812 -0.480656,5.78125 -0.370326,1.618786 -1.858951,1.875844 -2.418519,0.417633 z M 84.804687,20.221354 C 83.919988,19.336657 84.420606,18.125 85.670825,18.125 c 0.873731,0 1.230006,0.339406 1.09375,1.041959 -0.223088,1.150299 -1.29,1.724284 -1.959888,1.054395 z"
       id="path3644"
       inkscape:connector-curvature="0" />
    <path
       style="fill:#ed4f37"
       d="M 13.076923,38.798077 11.25,36.971154 l 0,-9.763986 c 0,-9.533368 0.03623,-9.800221 1.534091,-11.298077 1.507687,-1.507687 1.715786,-1.534091 12.090633,-1.534091 13.725152,0 12.868665,-0.819429 13.137102,12.568708 l 0.199326,9.941293 -1.869999,1.87 -1.869999,1.869999 -9.783654,0 -9.783654,0 -1.826923,-1.826923 z m 16.326238,-2.319768 c 1.904392,-0.761986 2.733727,-0.841421 3.262648,-0.3125 1.005648,1.005649 2.93327,0.878974 3.355173,-0.220488 0.196214,-0.511324 0.01347,-1.847262 -0.4061,-2.96875 -0.419568,-1.121489 -0.865621,-3.380154 -0.99123,-5.019256 -0.125608,-1.639102 -0.686302,-3.889102 -1.245986,-5 C 31.965599,20.154549 28.730287,16.875 27.377396,16.875 c -1.351865,0 -1.365444,0.224497 -0.207919,3.4375 C 28.242775,23.291709 28.360011,25 27.49117,25 c -0.348606,0 -2.198344,-1.274314 -4.110529,-2.831811 -3.142,-2.559194 -3.697706,-2.791885 -5.77242,-2.417087 -1.262647,0.228097 -2.401118,0.506247 -2.529937,0.618109 -0.445986,0.387283 2.177013,4.004625 5.163348,7.1207 2.539355,2.649677 2.832072,3.194004 1.908238,3.548512 -0.600173,0.230308 -2.243481,0.07421 -3.651796,-0.346878 C 13.344656,29.150657 13.125,29.140178 13.125,30.435207 c 0,2.735064 6.931641,7.024794 11.393602,7.051067 1.282107,0.0075 3.480158,-0.446035 4.884559,-1.007965 z m 23.227492,0.405222 C 50.122524,36.290746 48.125,34.581503 48.125,33.028132 c 0,-1.577014 1.033542,-1.446387 3.238981,0.409368 2.247923,1.891503 5.052391,2.021127 6.761019,0.3125 2.414653,-2.414653 1.042287,-4.211454 -4.290595,-5.617562 -5.506698,-1.451937 -7.259863,-5.428134 -3.882482,-8.805515 1.457473,-1.457473 2.373806,-1.826451 4.53125,-1.824587 3.562961,0.0031 6.766827,1.92108 6.766827,4.050978 0,1.994919 -0.887561,1.998035 -2.616843,0.0092 -1.803879,-2.074643 -5.621168,-2.192271 -7.005493,-0.215871 -1.449414,2.069329 -0.275275,3.44206 3.960708,4.630617 4.66743,1.309614 6.286628,2.762121 6.286628,5.639444 0,2.402759 -2.397668,5.25831 -4.415147,5.25831 -0.609191,0 -1.482184,0.111298 -1.939986,0.247329 -0.457802,0.136031 -1.757948,0.02857 -2.889214,-0.238798 z m 14.321878,-1.369304 c -1.821943,-4.799356 -3.258762,-11.332998 -2.630425,-11.961336 1.045763,-1.045759 1.797169,0.118928 2.731832,4.234349 0.46195,2.034015 1.130137,3.794953 1.484862,3.913194 0.354731,0.118242 1.190463,-1.692547 1.857194,-4.023974 0.967837,-3.384361 1.459631,-4.23896 2.439369,-4.23896 0.9577,0 1.503156,0.868064 2.48425,3.953518 0.691412,2.174434 1.511725,4.002559 1.822918,4.0625 0.556388,0.107168 0.7378,-0.364005 2.183982,-5.672268 0.691793,-2.539264 2.548487,-3.796534 2.548487,-1.725724 0,1.272884 -2.503581,10.364777 -3.239231,11.76343 -1.123582,2.13622 -2.644325,0.899485 -3.955382,-3.216682 -0.691412,-2.170745 -1.535162,-3.909637 -1.875,-3.864204 -0.339837,0.04543 -1.180387,1.824516 -1.867887,3.953517 -1.367413,4.234514 -3.007875,5.396488 -3.984969,2.82264 z m 17.710394,0.584611 c -0.18575,-0.48406 -0.256206,-3.530885 -0.156575,-6.770724 0.145731,-4.738923 0.364444,-5.890614 1.11865,-5.890614 0.773331,0 0.9375,1.140046 0.9375,6.510417 0,4.651316 -0.223,6.584749 -0.780919,6.770724 -0.429506,0.143168 -0.9329,-0.135743 -1.118656,-0.619803 z m 6.341444,-0.212455 C 90.795713,35.342643 90.625,32.948202 90.625,30.565402 c 0,-2.3828 -0.339081,-4.875314 -0.753506,-5.53892 -0.61515,-0.985008 -0.557769,-1.42285 0.3125,-2.384483 0.5863,-0.647858 1.066006,-1.591716 1.066006,-2.097462 0,-1.320669 1.2868,-2.419537 2.833331,-2.419537 2.032631,0 2.373732,0.775935 0.847269,1.927349 -1.751706,1.321312 -1.180156,3.072651 1.002756,3.072651 1.129007,0 1.771825,-0.458287 2.191644,-1.5625 0.724931,-1.906706 2.5,-2.087045 2.5,-0.253988 0,0.782885 0.50213,1.43982 1.25,1.635395 0.6875,0.179785 1.25,0.683152 1.25,1.118593 0,0.435441 -0.5625,0.938808 -1.25,1.118593 -1.07748,0.281768 -1.25,0.85251 -1.25,4.135394 0,2.97518 0.27351,4.082023 1.25,5.058513 1.65795,1.657952 1.57848,2.5 -0.23597,2.5 -2.322736,0 -3.174605,-1.651257 -3.51403,-6.811562 l -0.3125,-4.750938 -1.875,0 -1.875,0 -0.158956,4.375 c -0.08743,2.40625 -0.303725,5.007812 -0.480656,5.78125 -0.370326,1.618786 -1.858951,1.875844 -2.418519,0.417633 z M 84.804687,20.221354 C 83.919988,19.336657 84.420606,18.125 85.670825,18.125 c 0.873731,0 1.230006,0.339406 1.09375,1.041959 -0.223088,1.150299 -1.29,1.724284 -1.959888,1.054395 z"
       id="path3642"
       inkscape:connector-curvature="0" />
    <path
       style="fill:#5e5e5e"
       d="M 52.630653,36.883531 C 50.122524,36.290746 48.125,34.581503 48.125,33.028132 c 0,-1.577014 1.033542,-1.446387 3.238981,0.409368 2.247923,1.891503 5.052391,2.021127 6.761019,0.3125 2.414653,-2.414653 1.042287,-4.211454 -4.290595,-5.617562 -5.506698,-1.451937 -7.259863,-5.428134 -3.882482,-8.805515 1.457473,-1.457473 2.373806,-1.826451 4.53125,-1.824587 3.562961,0.0031 6.766827,1.92108 6.766827,4.050978 0,1.994919 -0.887561,1.998035 -2.616843,0.0092 -1.803879,-2.074643 -5.621168,-2.192271 -7.005493,-0.215871 -1.449414,2.069329 -0.275275,3.44206 3.960708,4.630617 4.66743,1.309614 6.286628,2.762121 6.286628,5.639444 0,2.402759 -2.397668,5.25831 -4.415147,5.25831 -0.609191,0 -1.482184,0.111298 -1.939986,0.247329 -0.457802,0.136031 -1.757948,0.02857 -2.889214,-0.238798 z m 14.321878,-1.369304 c -1.821943,-4.799356 -3.258762,-11.332998 -2.630425,-11.961336 1.045763,-1.045759 1.797169,0.118928 2.731832,4.234349 0.46195,2.034015 1.130137,3.794953 1.484862,3.913194 0.354731,0.118242 1.190463,-1.692547 1.857194,-4.023974 0.967837,-3.384361 1.459631,-4.23896 2.439369,-4.23896 0.9577,0 1.503156,0.868064 2.48425,3.953518 0.691412,2.174434 1.511725,4.002559 1.822918,4.0625 0.556388,0.107168 0.7378,-0.364005 2.183982,-5.672268 0.691793,-2.539264 2.548487,-3.796534 2.548487,-1.725724 0,1.272884 -2.503581,10.364777 -3.239231,11.76343 -1.123582,2.13622 -2.644325,0.899485 -3.955382,-3.216682 -0.691412,-2.170745 -1.535162,-3.909637 -1.875,-3.864204 -0.339837,0.04543 -1.180387,1.824516 -1.867887,3.953517 -1.367413,4.234514 -3.007875,5.396488 -3.984969,2.82264 z m 17.710394,0.584611 c -0.18575,-0.48406 -0.256206,-3.530885 -0.156575,-6.770724 0.145731,-4.738923 0.364444,-5.890614 1.11865,-5.890614 0.773331,0 0.9375,1.140046 0.9375,6.510417 0,4.651316 -0.223,6.584749 -0.780919,6.770724 -0.429506,0.143168 -0.9329,-0.135743 -1.118656,-0.619803 z m 6.341444,-0.212455 C 90.795713,35.342643 90.625,32.948202 90.625,30.565402 c 0,-2.3828 -0.339081,-4.875314 -0.753506,-5.53892 -0.61515,-0.985008 -0.557769,-1.42285 0.3125,-2.384483 0.5863,-0.647858 1.066006,-1.591716 1.066006,-2.097462 0,-1.320669 1.2868,-2.419537 2.833331,-2.419537 2.032631,0 2.373732,0.775935 0.847269,1.927349 -1.751706,1.321312 -1.180156,3.072651 1.002756,3.072651 1.129007,0 1.771825,-0.458287 2.191644,-1.5625 0.724931,-1.906706 2.5,-2.087045 2.5,-0.253988 0,0.782885 0.50213,1.43982 1.25,1.635395 0.6875,0.179785 1.25,0.683152 1.25,1.118593 0,0.435441 -0.5625,0.938808 -1.25,1.118593 -1.07748,0.281768 -1.25,0.85251 -1.25,4.135394 0,2.97518 0.27351,4.082023 1.25,5.058513 1.65795,1.657952 1.57848,2.5 -0.23597,2.5 -2.322736,0 -3.174605,-1.651257 -3.51403,-6.811562 l -0.3125,-4.750938 -1.875,0 -1.875,0 -0.158956,4.375 c -0.08743,2.40625 -0.303725,5.007812 -0.480656,5.78125 -0.370326,1.618786 -1.858951,1.875844 -2.418519,0.417633 z M 84.804687,20.221354 C 83.919988,19.336657 84.420606,18.125 85.670825,18.125 c 0.873731,0 1.230006,0.339406 1.09375,1.041959 -0.223088,1.150299 -1.29,1.724284 -1.959888,1.054395 z"
       id="path3640"
       inkscape:connector-curvature="0" />
    <path
       style="fill:#252525"
       d="m 51.934935,36.073529 c -2.201464,-0.787463 -3.789722,-2.552076 -3.004114,-3.337683 0.247009,-0.247009 1.080811,0.140527 1.852893,0.861192 2.757875,2.574213 7.091554,2.330236 8.597705,-0.484032 1.111655,-2.077147 -0.634578,-4.129913 -4.48622,-5.273728 -1.77838,-0.528122 -3.888569,-1.389494 -4.689308,-1.914158 -2.014768,-1.320127 -1.94476,-4.243069 0.151843,-6.339672 1.436917,-1.436917 1.979181,-1.57693 5.10383,-1.31781 2.654906,0.220166 3.77107,0.6295 4.638917,1.701246 1.707913,2.109183 0.703963,2.793225 -1.44529,0.984748 C 55.373313,18.192114 50.625,19.367517 50.625,22.941435 c 0,1.706405 0.918057,2.365949 4.947661,3.554466 4.315199,1.272752 5.677339,2.5116 5.677339,5.163467 0,2.287606 -1.795269,4.585133 -3.59375,4.599166 -0.601563,0.0047 -1.65625,0.13622 -2.34375,0.292279 -0.6875,0.15606 -2.207404,-0.05872 -3.377565,-0.477284 z M 66.664281,33.00406 c -1.900456,-6.670229 -2.363994,-8.762679 -2.017856,-9.108815 0.56815,-0.568151 0.787087,-0.07455 2.014725,4.542255 1.536106,5.776883 2.573112,5.738049 4.172375,-0.15625 0.711281,-2.621529 1.56625,-4.53125 2.028606,-4.53125 0.439544,0 1.256925,1.617187 1.816406,3.59375 0.559475,1.976562 1.160888,4.085937 1.336463,4.6875 0.699706,2.397324 1.999206,0.996406 3.048862,-3.286816 0.590432,-2.409311 1.323857,-4.535285 1.629825,-4.724386 0.854025,-0.527816 0.664725,0.827215 -0.922718,6.604952 -1.8141,6.602692 -2.97335,7.203624 -4.403857,2.282868 C 74.82145,31.030854 74.375,29.221277 74.375,28.886586 c 0,-0.334692 -0.396838,-0.937875 -0.881856,-1.340407 -1.139225,-0.945473 -1.562794,-0.269562 -2.904269,4.634495 -1.364887,4.989639 -2.660131,5.261383 -3.924594,0.823386 z M 85,30 c 0,-3.75 0.25,-6.25 0.625,-6.25 0.375,0 0.625,2.5 0.625,6.25 0,3.75 -0.25,6.25 -0.625,6.25 C 85.25,36.25 85,33.75 85,30 Z m 6.677081,5.84375 C 91.442188,35.608854 91.25,33.089515 91.25,30.245219 c 0,-2.844297 -0.275487,-5.34171 -0.6122,-5.549808 -0.399475,-0.24689 -0.399569,-0.748347 -2.69e-4,-1.443136 0.336563,-0.585626 0.886338,-1.838212 1.221731,-2.783525 0.412557,-1.162819 1.05045,-1.71875 1.972138,-1.71875 1.3052,0 1.316656,0.05047 0.273181,1.203498 -1.730306,1.911971 -1.040412,3.484002 1.528981,3.484002 1.660169,0 2.325825,-0.334803 2.795894,-1.40625 C 99.125269,20.445251 100,20.164438 100,21.52706 c 0,0.496133 0.54452,1.283457 1.21004,1.749609 1.19674,0.838222 1.19674,0.855867 0,1.603237 -1.77844,1.110659 -1.72304,7.424343 0.0853,9.723307 1.23098,1.564933 1.23719,1.646787 0.125,1.646787 -2.118535,0 -2.67036,-1.314916 -2.67036,-6.363093 0,-4.623685 -0.07449,-4.881787 -1.513069,-5.242847 C 93.81255,23.784594 93.4525,24.269009 93.253506,30.003407 93.078,35.060848 92.613831,36.7805 91.677081,35.84375 Z M 85,19.375 c 0,-0.34375 0.28125,-0.625 0.625,-0.625 0.34375,0 0.625,0.28125 0.625,0.625 C 86.25,19.71875 85.96875,20 85.625,20 85.28125,20 85,19.71875 85,19.375 Z"
       id="path3638"
       inkscape:connector-curvature="0" />
  </g>
</svg>
